<?xml version="1.0" encoding="UTF-8" standalone="no"?>
<!DOCTYPE svg PUBLIC "-//W3C//DTD SVG 1.1//EN"
 "http://www.w3.org/Graphics/SVG/1.1/DTD/svg11.dtd">
<!-- Generated by graphviz version 12.0.0 (20240803.0821)
 -->
<!-- Pages: 1 -->
<svg width="1431pt" height="97pt"
 viewBox="0.00 0.00 1431.48 96.96" xmlns="http://www.w3.org/2000/svg" xmlns:xlink="http://www.w3.org/1999/xlink">
<g id="graph0" class="graph" transform="scale(1 1) rotate(0) translate(4 92.96)">
<polygon fill="white" stroke="none" points="-4,4 -4,-92.96 1427.48,-92.96 1427.48,4 -4,4"/>
<!-- q2:&#45;1 -->
<g id="node1" class="node">
<title>q2:&#45;1</title>
<ellipse fill="none" stroke="black" stroke-width="2" cx="512.38" cy="-44.48" rx="36.48" ry="18"/>
<text text-anchor="middle" x="512.38" y="-39.8" font-family="Times,serif" font-size="14.00">q2:&#45;1</text>
</g>
<!-- q3:&#45;1 -->
<g id="node2" class="node">
<title>q3:&#45;1</title>
<ellipse fill="none" stroke="black" stroke-width="2" cx="721.84" cy="-44.48" rx="36.48" ry="18"/>
<text text-anchor="middle" x="721.84" y="-39.8" font-family="Times,serif" font-size="14.00">q3:&#45;1</text>
</g>
<!-- q2:&#45;1&#45;&gt;q3:&#45;1 -->
<g id="edge1" class="edge">
<title>q2:&#45;1&#45;&gt;q3:&#45;1</title>
<path fill="none" stroke="black" d="M549.52,-44.48C583.82,-44.48 635.58,-44.48 673.22,-44.48"/>
<polygon fill="black" stroke="black" points="672.91,-47.98 682.91,-44.48 672.91,-40.98 672.91,-47.98"/>
<text text-anchor="middle" x="617.11" y="-48.43" font-family="Times,serif" font-size="14.00">SETUP/200:&#45;1</text>
</g>
<!-- q4:&#45;1 -->
<g id="node3" class="node">
<title>q4:&#45;1</title>
<ellipse fill="none" stroke="black" stroke-width="2" cx="931.29" cy="-44.48" rx="36.48" ry="18"/>
<text text-anchor="middle" x="931.29" y="-39.8" font-family="Times,serif" font-size="14.00">q4:&#45;1</text>
</g>
<!-- q3:&#45;1&#45;&gt;q4:&#45;1 -->
<g id="edge2" class="edge">
<title>q3:&#45;1&#45;&gt;q4:&#45;1</title>
<path fill="none" stroke="black" d="M758.97,-44.48C793.27,-44.48 845.03,-44.48 882.68,-44.48"/>
<polygon fill="black" stroke="black" points="882.36,-47.98 892.36,-44.48 882.36,-40.98 882.36,-47.98"/>
<text text-anchor="middle" x="826.57" y="-48.43" font-family="Times,serif" font-size="14.00">SETUP/200:&#45;1</text>
</g>
<!-- q5:&#45;1 -->
<g id="node4" class="node">
<title>q5:&#45;1</title>
<ellipse fill="none" stroke="black" stroke-width="2" cx="1140" cy="-44.48" rx="36.48" ry="18"/>
<text text-anchor="middle" x="1140" y="-39.8" font-family="Times,serif" font-size="14.00">q5:&#45;1</text>
</g>
<!-- q4:&#45;1&#45;&gt;q5:&#45;1 -->
<g id="edge3" class="edge">
<title>q4:&#45;1&#45;&gt;q5:&#45;1</title>
<path fill="none" stroke="black" d="M968.3,-44.48C1002.47,-44.48 1054,-44.48 1091.6,-44.48"/>
<polygon fill="black" stroke="black" points="1091.19,-47.98 1101.19,-44.48 1091.19,-40.98 1091.19,-47.98"/>
<text text-anchor="middle" x="1035.6" y="-48.43" font-family="Times,serif" font-size="14.00">PLAY/200:&#45;1</text>
</g>
<!-- q5:&#45;1&#45;&gt;q4:&#45;1 -->
<g id="edge4" class="edge">
<title>q5:&#45;1&#45;&gt;q4:&#45;1</title>
<path fill="none" stroke="black" d="M1112.7,-31.73C1104.2,-28.26 1094.6,-24.98 1085.5,-23.23 1042,-14.89 1029.3,-14.89 985.77,-23.23 980.35,-24.27 974.78,-25.84 969.38,-27.68"/>
<polygon fill="black" stroke="black" points="968.17,-24.4 960.05,-31.2 970.64,-30.95 968.17,-24.4"/>
<text text-anchor="middle" x="1035.6" y="-27.43" font-family="Times,serif" font-size="14.00">PAUSE/200:&#45;1</text>
</g>
<!-- q6:&#45;1 -->
<g id="node5" class="node">
<title>q6:&#45;1</title>
<ellipse fill="none" stroke="black" stroke-width="2" cx="1387" cy="-44.48" rx="36.48" ry="18"/>
<text text-anchor="middle" x="1387" y="-39.8" font-family="Times,serif" font-size="14.00">q6:&#45;1</text>
</g>
<!-- q5:&#45;1&#45;&gt;q6:&#45;1 -->
<g id="edge5" class="edge">
<title>q5:&#45;1&#45;&gt;q6:&#45;1</title>
<path fill="none" stroke="black" d="M1177.4,-44.48C1220.2,-44.48 1291.2,-44.48 1338.3,-44.48"/>
<polygon fill="black" stroke="black" points="1338.19,-47.98 1348.19,-44.48 1338.19,-40.98 1338.19,-47.98"/>
<text text-anchor="middle" x="1263.5" y="-48.43" font-family="Times,serif" font-size="14.00">TEARDOWN/200:&#45;1</text>
</g>
<!-- q0:&#45;1 -->
<g id="node6" class="node">
<title>q0:&#45;1</title>
<ellipse fill="none" stroke="black" stroke-width="2" cx="44.48" cy="-44.48" rx="40.48" ry="40.48"/>
<ellipse fill="none" stroke="black" stroke-width="2" cx="44.48" cy="-44.48" rx="44.48" ry="44.48"/>
<text text-anchor="middle" x="44.48" y="-39.8" font-family="Times,serif" font-size="14.00">q0:&#45;1</text>
</g>
<!-- q1:&#45;1 -->
<g id="node7" class="node">
<title>q1:&#45;1</title>
<ellipse fill="none" stroke="black" stroke-width="2" cx="275.18" cy="-44.48" rx="36.48" ry="18"/>
<text text-anchor="middle" x="275.18" y="-39.8" font-family="Times,serif" font-size="14.00">q1:&#45;1</text>
</g>
<!-- q0:&#45;1&#45;&gt;q1:&#45;1 -->
<g id="edge6" class="edge">
<title>q0:&#45;1&#45;&gt;q1:&#45;1</title>
<path fill="none" stroke="black" d="M85.84,-44.48C125.14,-44.48 184.87,-44.48 226.5,-44.48"/>
<polygon fill="black" stroke="black" points="226.48,-47.98 236.48,-44.48 226.48,-40.98 226.48,-47.98"/>
<text text-anchor="middle" x="161.83" y="-48.43" font-family="Times,serif" font-size="14.00">OPTIONS/200:&#45;1</text>
</g>
<!-- q1:&#45;1&#45;&gt;q2:&#45;1 -->
<g id="edge7" class="edge">
<title>q1:&#45;1&#45;&gt;q2:&#45;1</title>
<path fill="none" stroke="black" d="M312.42,-44.48C352.99,-44.48 418.91,-44.48 463.65,-44.48"/>
<polygon fill="black" stroke="black" points="463.6,-47.98 473.6,-44.48 463.6,-40.98 463.6,-47.98"/>
<text text-anchor="middle" x="393.78" y="-48.43" font-family="Times,serif" font-size="14.00">DESCRIBE/200:&#45;1</text>
</g>
</g>
</svg>
