<?xml version="1.0" encoding="UTF-8" standalone="no"?>
<!DOCTYPE svg PUBLIC "-//W3C//DTD SVG 1.1//EN"
 "http://www.w3.org/Graphics/SVG/1.1/DTD/svg11.dtd">
<!-- Generated by graphviz version 12.0.0 (20240803.0821)
 -->
<!-- Pages: 1 -->
<svg width="2343pt" height="430pt"
 viewBox="0.00 0.00 2343.40 430.00" xmlns="http://www.w3.org/2000/svg" xmlns:xlink="http://www.w3.org/1999/xlink">
<g id="graph0" class="graph" transform="scale(1 1) rotate(0) translate(4 426)">
<polygon fill="white" stroke="none" points="-4,4 -4,-426 2339.4,-426 2339.4,4 -4,4"/>
<!-- q14:0.0 -->
<g id="node1" class="node">
<title>q14:0.0</title>
<ellipse fill="none" stroke="black" stroke-width="2" cx="731.85" cy="-283" rx="49.1" ry="18"/>
<text text-anchor="middle" x="731.85" y="-278.32" font-family="Times,serif" font-size="14.00">q14:0.0</text>
</g>
<!-- q17:1.0 -->
<g id="node2" class="node">
<title>q17:1.0</title>
<ellipse fill="none" stroke="black" stroke-width="2" cx="991.32" cy="-404" rx="49.1" ry="18"/>
<text text-anchor="middle" x="991.32" y="-399.32" font-family="Times,serif" font-size="14.00">q17:1.0</text>
</g>
<!-- q14:0.0&#45;&gt;q17:1.0 -->
<g id="edge1" class="edge">
<title>q14:0.0&#45;&gt;q17:1.0</title>
<path fill="none" stroke="black" d="M755.75,-299.44C768.18,-307.96 784.03,-318.2 798.95,-326 846.46,-350.85 903.72,-373.27 943.16,-387.63"/>
<polygon fill="black" stroke="black" points="941.76,-390.85 952.36,-390.95 944.14,-384.26 941.76,-390.85"/>
<text text-anchor="middle" x="857.07" y="-378.94" font-family="Times,serif" font-size="14.00">DATA/550:0.303</text>
</g>
<!-- q18:0.0 -->
<g id="node3" class="node">
<title>q18:0.0</title>
<ellipse fill="none" stroke="black" stroke-width="2" cx="991.32" cy="-315" rx="49.1" ry="18"/>
<text text-anchor="middle" x="991.32" y="-310.32" font-family="Times,serif" font-size="14.00">q18:0.0</text>
</g>
<!-- q14:0.0&#45;&gt;q18:0.0 -->
<g id="edge2" class="edge">
<title>q14:0.0&#45;&gt;q18:0.0</title>
<path fill="none" stroke="black" d="M779.47,-288.79C822.49,-294.14 886.5,-302.1 932.7,-307.84"/>
<polygon fill="black" stroke="black" points="932.18,-311.3 942.54,-309.06 933.05,-304.36 932.18,-311.3"/>
<text text-anchor="middle" x="857.07" y="-308.94" font-family="Times,serif" font-size="14.00">DATA/354:0.676</text>
</g>
<!-- q8:0.0 -->
<g id="node4" class="node">
<title>q8:0.0</title>
<ellipse fill="none" stroke="black" stroke-width="2" cx="991.32" cy="-190" rx="42.79" ry="18"/>
<text text-anchor="middle" x="991.32" y="-185.32" font-family="Times,serif" font-size="14.00">q8:0.0</text>
</g>
<!-- q14:0.0&#45;&gt;q8:0.0 -->
<g id="edge3" class="edge">
<title>q14:0.0&#45;&gt;q8:0.0</title>
<path fill="none" stroke="black" d="M750.07,-265.56C762.57,-253.92 780.48,-239.25 798.95,-230.75 846.78,-208.75 863.76,-219.19 915.2,-208 923.95,-206.1 933.25,-203.96 942.22,-201.84"/>
<polygon fill="black" stroke="black" points="942.94,-205.27 951.86,-199.54 941.32,-198.46 942.94,-205.27"/>
<text text-anchor="middle" x="857.07" y="-233.94" font-family="Times,serif" font-size="14.00">RCPT/250:0.021</text>
</g>
<!-- q18:0.0&#45;&gt;q18:0.0 -->
<g id="edge4" class="edge">
<title>q18:0.0&#45;&gt;q18:0.0</title>
<path fill="none" stroke="black" d="M967.73,-331.66C962.48,-341.62 970.35,-351 991.32,-351 1003.78,-351 1011.6,-347.69 1014.8,-342.92"/>
<polygon fill="black" stroke="black" points="1018.3,-343.2 1014.89,-333.17 1011.3,-343.14 1018.3,-343.2"/>
<text text-anchor="middle" x="991.32" y="-354.94" font-family="Times,serif" font-size="14.00">content/λ:0.962</text>
</g>
<!-- q23:0.0 -->
<g id="node5" class="node">
<title>q23:0.0</title>
<ellipse fill="none" stroke="black" stroke-width="2" cx="1271.4" cy="-335" rx="49.1" ry="18"/>
<text text-anchor="middle" x="1271.4" y="-330.32" font-family="Times,serif" font-size="14.00">q23:0.0</text>
</g>
<!-- q18:0.0&#45;&gt;q23:0.0 -->
<g id="edge5" class="edge">
<title>q18:0.0&#45;&gt;q23:0.0</title>
<path fill="none" stroke="black" d="M1040.4,-318.46C1087.7,-321.86 1160,-327.06 1210.9,-330.72"/>
<polygon fill="black" stroke="black" points="1210.66,-334.21 1220.89,-331.44 1211.17,-327.23 1210.66,-334.21"/>
<text text-anchor="middle" x="1132.7" y="-332.94" font-family="Times,serif" font-size="14.00">content/554:0.003</text>
</g>
<!-- q24:0.0 -->
<g id="node6" class="node">
<title>q24:0.0</title>
<ellipse fill="none" stroke="black" stroke-width="2" cx="1271.4" cy="-281" rx="49.1" ry="18"/>
<text text-anchor="middle" x="1271.4" y="-276.32" font-family="Times,serif" font-size="14.00">q24:0.0</text>
</g>
<!-- q18:0.0&#45;&gt;q24:0.0 -->
<g id="edge6" class="edge">
<title>q18:0.0&#45;&gt;q24:0.0</title>
<path fill="none" stroke="black" d="M1033.9,-305.04C1044.8,-302.7 1056.5,-300.41 1067.4,-298.75 1115.3,-291.51 1170,-286.94 1210.5,-284.25"/>
<polygon fill="black" stroke="black" points="1210.53,-287.76 1220.29,-283.63 1210.09,-280.77 1210.53,-287.76"/>
<text text-anchor="middle" x="1132.7" y="-301.94" font-family="Times,serif" font-size="14.00">content/250:0.035</text>
</g>
<!-- q22:0.0 -->
<g id="node7" class="node">
<title>q22:0.0</title>
<ellipse fill="none" stroke="black" stroke-width="2" cx="1271.4" cy="-389" rx="49.1" ry="18"/>
<text text-anchor="middle" x="1271.4" y="-384.32" font-family="Times,serif" font-size="14.00">q22:0.0</text>
</g>
<!-- q18:0.0&#45;&gt;q22:0.0 -->
<g id="edge7" class="edge">
<title>q18:0.0&#45;&gt;q22:0.0</title>
<path fill="none" stroke="black" d="M1020.6,-330.17C1034.4,-337.06 1051.4,-344.82 1067.4,-350 1115.2,-365.44 1171.3,-375.65 1212.4,-381.74"/>
<polygon fill="black" stroke="black" points="1211.7,-385.18 1222.1,-383.13 1212.7,-378.25 1211.7,-385.18"/>
<text text-anchor="middle" x="1132.7" y="-382.94" font-family="Times,serif" font-size="14.00">content/550:0.0</text>
</g>
<!-- q11:0.0 -->
<g id="node8" class="node">
<title>q11:0.0</title>
<ellipse fill="none" stroke="black" stroke-width="2" cx="1271.4" cy="-217" rx="49.1" ry="18"/>
<text text-anchor="middle" x="1271.4" y="-212.32" font-family="Times,serif" font-size="14.00">q11:0.0</text>
</g>
<!-- q8:0.0&#45;&gt;q11:0.0 -->
<g id="edge8" class="edge">
<title>q8:0.0&#45;&gt;q11:0.0</title>
<path fill="none" stroke="black" d="M1033.9,-194.04C1081.1,-198.62 1158.3,-206.11 1211.5,-211.29"/>
<polygon fill="black" stroke="black" points="1211.1,-214.77 1221.39,-212.24 1211.78,-207.8 1211.1,-214.77"/>
<text text-anchor="middle" x="1132.7" y="-212.94" font-family="Times,serif" font-size="14.00">RCPT/250:1.0</text>
</g>
<!-- q29:1.0 -->
<g id="node9" class="node">
<title>q29:1.0</title>
<ellipse fill="none" stroke="black" stroke-width="2" cx="1526.6" cy="-335" rx="49.1" ry="18"/>
<text text-anchor="middle" x="1526.6" y="-330.32" font-family="Times,serif" font-size="14.00">q29:1.0</text>
</g>
<!-- q23:0.0&#45;&gt;q29:1.0 -->
<g id="edge9" class="edge">
<title>q23:0.0&#45;&gt;q29:1.0</title>
<path fill="none" stroke="black" d="M1321.2,-335C1362.4,-335 1421.4,-335 1465.5,-335"/>
<polygon fill="black" stroke="black" points="1465.49,-338.5 1475.49,-335 1465.49,-331.5 1465.49,-338.5"/>
<text text-anchor="middle" x="1402.2" y="-338.94" font-family="Times,serif" font-size="14.00">RSET/250:1.0</text>
</g>
<!-- q30:1.0 -->
<g id="node10" class="node">
<title>q30:1.0</title>
<ellipse fill="none" stroke="black" stroke-width="2" cx="1526.6" cy="-281" rx="49.1" ry="18"/>
<text text-anchor="middle" x="1526.6" y="-276.32" font-family="Times,serif" font-size="14.00">q30:1.0</text>
</g>
<!-- q24:0.0&#45;&gt;q30:1.0 -->
<g id="edge10" class="edge">
<title>q24:0.0&#45;&gt;q30:1.0</title>
<path fill="none" stroke="black" d="M1321.2,-281C1362.4,-281 1421.4,-281 1465.5,-281"/>
<polygon fill="black" stroke="black" points="1465.49,-284.5 1475.49,-281 1465.49,-277.5 1465.49,-284.5"/>
<text text-anchor="middle" x="1402.2" y="-284.94" font-family="Times,serif" font-size="14.00">QUIT/221:1.0</text>
</g>
<!-- q28:1.0 -->
<g id="node11" class="node">
<title>q28:1.0</title>
<ellipse fill="none" stroke="black" stroke-width="2" cx="1526.6" cy="-389" rx="49.1" ry="18"/>
<text text-anchor="middle" x="1526.6" y="-384.32" font-family="Times,serif" font-size="14.00">q28:1.0</text>
</g>
<!-- q22:0.0&#45;&gt;q28:1.0 -->
<g id="edge11" class="edge">
<title>q22:0.0&#45;&gt;q28:1.0</title>
<path fill="none" stroke="black" d="M1321.2,-389C1362.4,-389 1421.4,-389 1465.5,-389"/>
<polygon fill="black" stroke="black" points="1465.49,-392.5 1475.49,-389 1465.49,-385.5 1465.49,-392.5"/>
<text text-anchor="middle" x="1402.2" y="-392.94" font-family="Times,serif" font-size="14.00">RSET/250:1.0</text>
</g>
<!-- q11:0.0&#45;&gt;q14:0.0 -->
<g id="edge12" class="edge">
<title>q11:0.0&#45;&gt;q14:0.0</title>
<path fill="none" stroke="black" d="M1226.4,-225.36C1217,-227.01 1207.2,-228.65 1197.9,-230 1052.5,-251.32 880.4,-268.97 791.92,-277.49"/>
<polygon fill="black" stroke="black" points="791.63,-274 782.02,-278.44 792.31,-280.97 791.63,-274"/>
<text text-anchor="middle" x="991.32" y="-265.94" font-family="Times,serif" font-size="14.00">RCPT/250:0.609</text>
</g>
<!-- q15:0.0 -->
<g id="node12" class="node">
<title>q15:0.0</title>
<ellipse fill="none" stroke="black" stroke-width="2" cx="1526.6" cy="-217" rx="49.1" ry="18"/>
<text text-anchor="middle" x="1526.6" y="-212.32" font-family="Times,serif" font-size="14.00">q15:0.0</text>
</g>
<!-- q11:0.0&#45;&gt;q15:0.0 -->
<g id="edge13" class="edge">
<title>q11:0.0&#45;&gt;q15:0.0</title>
<path fill="none" stroke="black" d="M1321.2,-217C1362.4,-217 1421.4,-217 1465.5,-217"/>
<polygon fill="black" stroke="black" points="1465.49,-220.5 1475.49,-217 1465.49,-213.5 1465.49,-220.5"/>
<text text-anchor="middle" x="1402.2" y="-220.94" font-family="Times,serif" font-size="14.00">DATA/354:0.391</text>
</g>
<!-- q20:0.0 -->
<g id="node13" class="node">
<title>q20:0.0</title>
<ellipse fill="none" stroke="black" stroke-width="2" cx="1791.3" cy="-287" rx="49.1" ry="18"/>
<text text-anchor="middle" x="1791.3" y="-282.32" font-family="Times,serif" font-size="14.00">q20:0.0</text>
</g>
<!-- q15:0.0&#45;&gt;q20:0.0 -->
<g id="edge14" class="edge">
<title>q15:0.0&#45;&gt;q20:0.0</title>
<path fill="none" stroke="black" d="M1555.3,-232.36C1566.9,-238.28 1580.7,-244.66 1593.7,-249 1639.2,-264.12 1692.8,-273.98 1732.5,-279.85"/>
<polygon fill="black" stroke="black" points="1731.9,-283.3 1742.3,-281.26 1732.9,-276.37 1731.9,-283.3"/>
<text text-anchor="middle" x="1659" y="-281.94" font-family="Times,serif" font-size="14.00">content/250:0.173</text>
</g>
<!-- q21:0.0 -->
<g id="node14" class="node">
<title>q21:0.0</title>
<ellipse fill="none" stroke="black" stroke-width="2" cx="1791.3" cy="-233" rx="49.1" ry="18"/>
<text text-anchor="middle" x="1791.3" y="-228.32" font-family="Times,serif" font-size="14.00">q21:0.0</text>
</g>
<!-- q15:0.0&#45;&gt;q21:0.0 -->
<g id="edge15" class="edge">
<title>q15:0.0&#45;&gt;q21:0.0</title>
<path fill="none" stroke="black" d="M1576.1,-219.95C1619.7,-222.61 1683.9,-226.52 1730.7,-229.36"/>
<polygon fill="black" stroke="black" points="1730.39,-232.85 1740.59,-229.97 1730.82,-225.86 1730.39,-232.85"/>
<text text-anchor="middle" x="1659" y="-231.94" font-family="Times,serif" font-size="14.00">content/554:0.528</text>
</g>
<!-- q19:0.0 -->
<g id="node15" class="node">
<title>q19:0.0</title>
<ellipse fill="none" stroke="black" stroke-width="2" cx="1791.3" cy="-170" rx="49.1" ry="18"/>
<text text-anchor="middle" x="1791.3" y="-165.32" font-family="Times,serif" font-size="14.00">q19:0.0</text>
</g>
<!-- q15:0.0&#45;&gt;q19:0.0 -->
<g id="edge16" class="edge">
<title>q15:0.0&#45;&gt;q19:0.0</title>
<path fill="none" stroke="black" d="M1567.3,-205.92C1576,-203.7 1585.1,-201.52 1593.7,-199.75 1640.1,-190.23 1693.1,-182.38 1732.4,-177.14"/>
<polygon fill="black" stroke="black" points="1732.64,-180.64 1742.1,-175.86 1731.73,-173.7 1732.64,-180.64"/>
<text text-anchor="middle" x="1659" y="-202.94" font-family="Times,serif" font-size="14.00">content/λ:0.299</text>
</g>
<!-- q26:1.0 -->
<g id="node16" class="node">
<title>q26:1.0</title>
<ellipse fill="none" stroke="black" stroke-width="2" cx="2056.1" cy="-287" rx="49.1" ry="18"/>
<text text-anchor="middle" x="2056.1" y="-282.32" font-family="Times,serif" font-size="14.00">q26:1.0</text>
</g>
<!-- q20:0.0&#45;&gt;q26:1.0 -->
<g id="edge17" class="edge">
<title>q20:0.0&#45;&gt;q26:1.0</title>
<path fill="none" stroke="black" d="M1841.1,-287C1884.5,-287 1948.1,-287 1994.6,-287"/>
<polygon fill="black" stroke="black" points="1994.59,-290.5 2004.59,-287 1994.59,-283.5 1994.59,-290.5"/>
<text text-anchor="middle" x="1923.7" y="-290.94" font-family="Times,serif" font-size="14.00">QUIT/221:1.0</text>
</g>
<!-- q27:1.0 -->
<g id="node17" class="node">
<title>q27:1.0</title>
<ellipse fill="none" stroke="black" stroke-width="2" cx="2056.1" cy="-233" rx="49.1" ry="18"/>
<text text-anchor="middle" x="2056.1" y="-228.32" font-family="Times,serif" font-size="14.00">q27:1.0</text>
</g>
<!-- q21:0.0&#45;&gt;q27:1.0 -->
<g id="edge18" class="edge">
<title>q21:0.0&#45;&gt;q27:1.0</title>
<path fill="none" stroke="black" d="M1841.1,-233C1884.5,-233 1948.1,-233 1994.6,-233"/>
<polygon fill="black" stroke="black" points="1994.59,-236.5 2004.59,-233 1994.59,-229.5 1994.59,-236.5"/>
<text text-anchor="middle" x="1923.7" y="-236.94" font-family="Times,serif" font-size="14.00">RSET/250:1.0</text>
</g>
<!-- q19:0.0&#45;&gt;q15:0.0 -->
<g id="edge19" class="edge">
<title>q19:0.0&#45;&gt;q15:0.0</title>
<path fill="none" stroke="black" d="M1752.3,-158.15C1711.6,-147.55 1645.9,-136.55 1593.7,-156.75 1576.1,-163.59 1560.3,-177.57 1548.5,-190.34"/>
<polygon fill="black" stroke="black" points="1545.99,-187.89 1542.09,-197.75 1551.28,-192.47 1545.99,-187.89"/>
<text text-anchor="middle" x="1659" y="-159.94" font-family="Times,serif" font-size="14.00">content/λ:0.947</text>
</g>
<!-- q25:0.0 -->
<g id="node18" class="node">
<title>q25:0.0</title>
<ellipse fill="none" stroke="black" stroke-width="2" cx="2056.1" cy="-170" rx="49.1" ry="18"/>
<text text-anchor="middle" x="2056.1" y="-165.32" font-family="Times,serif" font-size="14.00">q25:0.0</text>
</g>
<!-- q19:0.0&#45;&gt;q25:0.0 -->
<g id="edge20" class="edge">
<title>q19:0.0&#45;&gt;q25:0.0</title>
<path fill="none" stroke="black" d="M1841.1,-170C1884.5,-170 1948.1,-170 1994.6,-170"/>
<polygon fill="black" stroke="black" points="1994.59,-173.5 2004.59,-170 1994.59,-166.5 1994.59,-173.5"/>
<text text-anchor="middle" x="1923.7" y="-173.94" font-family="Times,serif" font-size="14.00">content/250:0.053</text>
</g>
<!-- q31:1.0 -->
<g id="node19" class="node">
<title>q31:1.0</title>
<ellipse fill="none" stroke="black" stroke-width="2" cx="2286.3" cy="-170" rx="49.1" ry="18"/>
<text text-anchor="middle" x="2286.3" y="-165.32" font-family="Times,serif" font-size="14.00">q31:1.0</text>
</g>
<!-- q25:0.0&#45;&gt;q31:1.0 -->
<g id="edge21" class="edge">
<title>q25:0.0&#45;&gt;q31:1.0</title>
<path fill="none" stroke="black" d="M2106,-170C2140.9,-170 2188,-170 2225.2,-170"/>
<polygon fill="black" stroke="black" points="2224.89,-173.5 2234.89,-170 2224.89,-166.5 2224.89,-173.5"/>
<text text-anchor="middle" x="2171.2" y="-173.94" font-family="Times,serif" font-size="14.00">QUIT/221:1.0</text>
</g>
<!-- q1:0.0 -->
<g id="node20" class="node">
<title>q1:0.0</title>
<ellipse fill="none" stroke="black" stroke-width="2" cx="243.87" cy="-129" rx="42.79" ry="18"/>
<text text-anchor="middle" x="243.87" y="-124.33" font-family="Times,serif" font-size="14.00">q1:0.0</text>
</g>
<!-- q3:0.0 -->
<g id="node21" class="node">
<title>q3:0.0</title>
<ellipse fill="none" stroke="black" stroke-width="2" cx="484.7" cy="-102" rx="42.79" ry="18"/>
<text text-anchor="middle" x="484.7" y="-97.33" font-family="Times,serif" font-size="14.00">q3:0.0</text>
</g>
<!-- q1:0.0&#45;&gt;q3:0.0 -->
<g id="edge22" class="edge">
<title>q1:0.0&#45;&gt;q3:0.0</title>
<path fill="none" stroke="black" d="M284.36,-121.79C291.12,-120.68 298.08,-119.62 304.66,-118.75 346.83,-113.17 394.83,-108.79 430.51,-105.9"/>
<polygon fill="black" stroke="black" points="430.44,-109.42 440.13,-105.14 429.89,-102.44 430.44,-109.42"/>
<text text-anchor="middle" x="364.29" y="-122.95" font-family="Times,serif" font-size="14.00">EHLO/250:0.992</text>
</g>
<!-- q2:0.0 -->
<g id="node22" class="node">
<title>q2:0.0</title>
<ellipse fill="none" stroke="black" stroke-width="2" cx="484.7" cy="-168" rx="42.79" ry="18"/>
<text text-anchor="middle" x="484.7" y="-163.32" font-family="Times,serif" font-size="14.00">q2:0.0</text>
</g>
<!-- q1:0.0&#45;&gt;q2:0.0 -->
<g id="edge23" class="edge">
<title>q1:0.0&#45;&gt;q2:0.0</title>
<path fill="none" stroke="black" d="M284.85,-135.53C325.4,-142.15 388.33,-152.43 432.51,-159.64"/>
<polygon fill="black" stroke="black" points="431.67,-163.05 442.11,-161.21 432.8,-156.14 431.67,-163.05"/>
<text text-anchor="middle" x="364.29" y="-160.94" font-family="Times,serif" font-size="14.00">EHLO/λ:0.008</text>
</g>
<!-- q6:0.0 -->
<g id="node23" class="node">
<title>q6:0.0</title>
<ellipse fill="none" stroke="black" stroke-width="2" cx="731.85" cy="-136" rx="42.79" ry="18"/>
<text text-anchor="middle" x="731.85" y="-131.32" font-family="Times,serif" font-size="14.00">q6:0.0</text>
</g>
<!-- q3:0.0&#45;&gt;q6:0.0 -->
<g id="edge24" class="edge">
<title>q3:0.0&#45;&gt;q6:0.0</title>
<path fill="none" stroke="black" d="M526.46,-107.65C568.29,-113.45 633.52,-122.5 679,-128.81"/>
<polygon fill="black" stroke="black" points="678.51,-132.28 688.9,-130.18 679.48,-125.34 678.51,-132.28"/>
<text text-anchor="middle" x="605.12" y="-129.94" font-family="Times,serif" font-size="14.00">AUTH/λ:0.004</text>
</g>
<!-- q5:0.0 -->
<g id="node24" class="node">
<title>q5:0.0</title>
<ellipse fill="none" stroke="black" stroke-width="2" cx="731.85" cy="-82" rx="42.79" ry="18"/>
<text text-anchor="middle" x="731.85" y="-77.33" font-family="Times,serif" font-size="14.00">q5:0.0</text>
</g>
<!-- q3:0.0&#45;&gt;q5:0.0 -->
<g id="edge25" class="edge">
<title>q3:0.0&#45;&gt;q5:0.0</title>
<path fill="none" stroke="black" d="M525.51,-95.3C532.17,-94.33 539.02,-93.44 545.49,-92.75 589.79,-88.05 640.28,-85.29 677.36,-83.75"/>
<polygon fill="black" stroke="black" points="677.05,-87.26 686.91,-83.37 676.78,-80.27 677.05,-87.26"/>
<text text-anchor="middle" x="605.12" y="-96.95" font-family="Times,serif" font-size="14.00">AUTH/235:0.946</text>
</g>
<!-- q7:0.0 -->
<g id="node25" class="node">
<title>q7:0.0</title>
<ellipse fill="none" stroke="black" stroke-width="2" cx="731.85" cy="-27" rx="42.79" ry="18"/>
<text text-anchor="middle" x="731.85" y="-22.32" font-family="Times,serif" font-size="14.00">q7:0.0</text>
</g>
<!-- q3:0.0&#45;&gt;q7:0.0 -->
<g id="edge26" class="edge">
<title>q3:0.0&#45;&gt;q7:0.0</title>
<path fill="none" stroke="black" d="M506.78,-85.76C517.78,-78.02 531.77,-69.27 545.49,-63.75 588.24,-46.55 639.89,-37.16 677.79,-32.19"/>
<polygon fill="black" stroke="black" points="678.1,-35.68 687.59,-30.97 677.23,-28.73 678.1,-35.68"/>
<text text-anchor="middle" x="605.12" y="-67.95" font-family="Times,serif" font-size="14.00">AUTH/535:0.05</text>
</g>
<!-- q4:0.0 -->
<g id="node26" class="node">
<title>q4:0.0</title>
<ellipse fill="none" stroke="black" stroke-width="2" cx="731.85" cy="-190" rx="42.79" ry="18"/>
<text text-anchor="middle" x="731.85" y="-185.32" font-family="Times,serif" font-size="14.00">q4:0.0</text>
</g>
<!-- q2:0.0&#45;&gt;q4:0.0 -->
<g id="edge27" class="edge">
<title>q2:0.0&#45;&gt;q4:0.0</title>
<path fill="none" stroke="black" d="M527.56,-171.76C569.08,-175.48 632.83,-181.2 677.85,-185.24"/>
<polygon fill="black" stroke="black" points="677.37,-188.71 687.64,-186.12 678,-181.74 677.37,-188.71"/>
<text text-anchor="middle" x="605.12" y="-186.94" font-family="Times,serif" font-size="14.00">AUTH/235:1.0</text>
</g>
<!-- q6:0.0&#45;&gt;q8:0.0 -->
<g id="edge28" class="edge">
<title>q6:0.0&#45;&gt;q8:0.0</title>
<path fill="none" stroke="black" d="M773.28,-142.1C810.38,-147.96 866.78,-157.58 915.2,-168.75 924.69,-170.94 934.78,-173.57 944.37,-176.23"/>
<polygon fill="black" stroke="black" points="943.32,-179.57 953.89,-178.93 945.23,-172.83 943.32,-179.57"/>
<text text-anchor="middle" x="857.07" y="-171.94" font-family="Times,serif" font-size="14.00">MAIL/250:1.0</text>
</g>
<!-- q5:0.0&#45;&gt;q8:0.0 -->
<g id="edge29" class="edge">
<title>q5:0.0&#45;&gt;q8:0.0</title>
<path fill="none" stroke="black" d="M774.65,-86C812.94,-90.97 870.32,-101.8 915.2,-124.75 934.69,-134.72 953.29,-150.8 967.1,-164.51"/>
<polygon fill="black" stroke="black" points="964.5,-166.86 973.99,-171.58 969.52,-161.97 964.5,-166.86"/>
<text text-anchor="middle" x="857.07" y="-128.94" font-family="Times,serif" font-size="14.00">MAIL/250:0.991</text>
</g>
<!-- q9:0.0 -->
<g id="node27" class="node">
<title>q9:0.0</title>
<ellipse fill="none" stroke="black" stroke-width="2" cx="991.32" cy="-72" rx="42.79" ry="18"/>
<text text-anchor="middle" x="991.32" y="-67.33" font-family="Times,serif" font-size="14.00">q9:0.0</text>
</g>
<!-- q5:0.0&#45;&gt;q9:0.0 -->
<g id="edge30" class="edge">
<title>q5:0.0&#45;&gt;q9:0.0</title>
<path fill="none" stroke="black" d="M771.5,-74.3C780.48,-72.82 790.02,-71.5 798.95,-70.75 845.3,-66.83 898.2,-67.58 936.62,-69.05"/>
<polygon fill="black" stroke="black" points="936.4,-72.54 946.54,-69.46 936.69,-65.55 936.4,-72.54"/>
<text text-anchor="middle" x="857.07" y="-74.95" font-family="Times,serif" font-size="14.00">MAIL/553:0.009</text>
</g>
<!-- q10:0.0 -->
<g id="node28" class="node">
<title>q10:0.0</title>
<ellipse fill="none" stroke="black" stroke-width="2" cx="991.32" cy="-18" rx="49.1" ry="18"/>
<text text-anchor="middle" x="991.32" y="-13.32" font-family="Times,serif" font-size="14.00">q10:0.0</text>
</g>
<!-- q7:0.0&#45;&gt;q10:0.0 -->
<g id="edge31" class="edge">
<title>q7:0.0&#45;&gt;q10:0.0</title>
<path fill="none" stroke="black" d="M775.36,-25.51C817.59,-24.04 882.72,-21.76 930.22,-20.1"/>
<polygon fill="black" stroke="black" points="930.21,-23.6 940.08,-19.76 929.96,-16.61 930.21,-23.6"/>
<text text-anchor="middle" x="857.07" y="-28.95" font-family="Times,serif" font-size="14.00">AUTH/334:1.0</text>
</g>
<!-- q4:0.0&#45;&gt;q8:0.0 -->
<g id="edge32" class="edge">
<title>q4:0.0&#45;&gt;q8:0.0</title>
<path fill="none" stroke="black" d="M775.36,-190C819.44,-190 888.46,-190 936.35,-190"/>
<polygon fill="black" stroke="black" points="936.23,-193.5 946.23,-190 936.23,-186.5 936.23,-193.5"/>
<text text-anchor="middle" x="857.07" y="-193.94" font-family="Times,serif" font-size="14.00">MAIL/250:1.0</text>
</g>
<!-- q12:1.0 -->
<g id="node29" class="node">
<title>q12:1.0</title>
<ellipse fill="none" stroke="black" stroke-width="2" cx="1271.4" cy="-72" rx="49.1" ry="18"/>
<text text-anchor="middle" x="1271.4" y="-67.33" font-family="Times,serif" font-size="14.00">q12:1.0</text>
</g>
<!-- q9:0.0&#45;&gt;q12:1.0 -->
<g id="edge33" class="edge">
<title>q9:0.0&#45;&gt;q12:1.0</title>
<path fill="none" stroke="black" d="M1034.9,-72C1081.6,-72 1157.1,-72 1210,-72"/>
<polygon fill="black" stroke="black" points="1209.79,-75.5 1219.79,-72 1209.79,-68.5 1209.79,-75.5"/>
<text text-anchor="middle" x="1132.7" y="-75.95" font-family="Times,serif" font-size="14.00">RSET/250:1.0</text>
</g>
<!-- q13:0.75 -->
<g id="node30" class="node">
<title>q13:0.75</title>
<ellipse fill="none" stroke="black" stroke-width="2" cx="1271.4" cy="-18" rx="55.42" ry="18"/>
<text text-anchor="middle" x="1271.4" y="-13.32" font-family="Times,serif" font-size="14.00">q13:0.75</text>
</g>
<!-- q10:0.0&#45;&gt;q13:0.75 -->
<g id="edge34" class="edge">
<title>q10:0.0&#45;&gt;q13:0.75</title>
<path fill="none" stroke="black" d="M1041.4,-18C1086.5,-18 1153.8,-18 1203.8,-18"/>
<polygon fill="black" stroke="black" points="1203.59,-21.5 1213.59,-18 1203.59,-14.5 1203.59,-21.5"/>
<text text-anchor="middle" x="1132.7" y="-21.95" font-family="Times,serif" font-size="14.00">content/535:1.0</text>
</g>
<!-- q16:1.0 -->
<g id="node32" class="node">
<title>q16:1.0</title>
<ellipse fill="none" stroke="black" stroke-width="2" cx="1526.6" cy="-18" rx="49.1" ry="18"/>
<text text-anchor="middle" x="1526.6" y="-13.32" font-family="Times,serif" font-size="14.00">q16:1.0</text>
</g>
<!-- q13:0.75&#45;&gt;q16:1.0 -->
<g id="edge36" class="edge">
<title>q13:0.75&#45;&gt;q16:1.0</title>
<path fill="none" stroke="black" d="M1327.6,-18C1368.3,-18 1423.7,-18 1465.5,-18"/>
<polygon fill="black" stroke="black" points="1465.39,-21.5 1475.39,-18 1465.39,-14.5 1465.39,-21.5"/>
<text text-anchor="middle" x="1402.2" y="-21.95" font-family="Times,serif" font-size="14.00">λ/451:0.25</text>
</g>
<!-- q0:0.0 -->
<g id="node31" class="node">
<title>q0:0.0</title>
<ellipse fill="none" stroke="black" stroke-width="2" cx="50.79" cy="-129" rx="46.79" ry="46.79"/>
<ellipse fill="none" stroke="black" stroke-width="2" cx="50.79" cy="-129" rx="50.79" ry="50.79"/>
<text text-anchor="middle" x="50.79" y="-124.33" font-family="Times,serif" font-size="14.00">q0:0.0</text>
</g>
<!-- q0:0.0&#45;&gt;q1:0.0 -->
<g id="edge35" class="edge">
<title>q0:0.0&#45;&gt;q1:0.0</title>
<path fill="none" stroke="black" d="M98.53,-129C125.82,-129 160.37,-129 188.82,-129"/>
<polygon fill="black" stroke="black" points="188.69,-132.5 198.69,-129 188.69,-125.5 188.69,-132.5"/>
<text text-anchor="middle" x="149.33" y="-132.94" font-family="Times,serif" font-size="14.00">λ/220:1.0</text>
</g>
</g>
</svg>
