<?xml version="1.0" encoding="UTF-8" standalone="no"?>
<!DOCTYPE svg PUBLIC "-//W3C//DTD SVG 1.1//EN"
 "http://www.w3.org/Graphics/SVG/1.1/DTD/svg11.dtd">
<!-- Generated by graphviz version 12.0.0 (20240803.0821)
 -->
<!-- Pages: 1 -->
<svg width="2811pt" height="324pt"
 viewBox="0.00 0.00 2810.60 324.00" xmlns="http://www.w3.org/2000/svg" xmlns:xlink="http://www.w3.org/1999/xlink">
<g id="graph0" class="graph" transform="scale(1 1) rotate(0) translate(4 320)">
<polygon fill="white" stroke="none" points="-4,4 -4,-320 2806.6,-320 2806.6,4 -4,4"/>
<!-- q6:0.0 -->
<g id="node1" class="node">
<title>q6:0.0</title>
<ellipse fill="none" stroke="black" stroke-width="2" cx="725.53" cy="-90" rx="42.79" ry="18"/>
<text text-anchor="middle" x="725.53" y="-85.33" font-family="Times,serif" font-size="14.00">q6:0.0</text>
</g>
<!-- q7:0.0 -->
<g id="node2" class="node">
<title>q7:0.0</title>
<ellipse fill="none" stroke="black" stroke-width="2" cx="961.86" cy="-119" rx="42.79" ry="18"/>
<text text-anchor="middle" x="961.86" y="-114.33" font-family="Times,serif" font-size="14.00">q7:0.0</text>
</g>
<!-- q6:0.0&#45;&gt;q7:0.0 -->
<g id="edge1" class="edge">
<title>q6:0.0&#45;&gt;q7:0.0</title>
<path fill="none" stroke="black" d="M769.1,-91.32C804.59,-92.9 856.39,-96.35 901.07,-103.75 905.35,-104.46 909.77,-105.32 914.18,-106.28"/>
<polygon fill="black" stroke="black" points="913.02,-109.6 923.55,-108.46 914.61,-102.79 913.02,-109.6"/>
<text text-anchor="middle" x="843.7" y="-106.95" font-family="Times,serif" font-size="14.00">MAIL/250:0.991</text>
</g>
<!-- q9:0.0 -->
<g id="node3" class="node">
<title>q9:0.0</title>
<ellipse fill="none" stroke="black" stroke-width="2" cx="961.86" cy="-64" rx="42.79" ry="18"/>
<text text-anchor="middle" x="961.86" y="-59.33" font-family="Times,serif" font-size="14.00">q9:0.0</text>
</g>
<!-- q6:0.0&#45;&gt;q9:0.0 -->
<g id="edge2" class="edge">
<title>q6:0.0&#45;&gt;q9:0.0</title>
<path fill="none" stroke="black" d="M754.08,-75.68C763.98,-71.27 775.39,-66.99 786.32,-64.75 826.6,-56.51 873.2,-56.79 908.12,-58.88"/>
<polygon fill="black" stroke="black" points="907.76,-62.36 917.97,-59.54 908.23,-55.38 907.76,-62.36"/>
<text text-anchor="middle" x="843.7" y="-67.95" font-family="Times,serif" font-size="14.00">MAIL/553:0.009</text>
</g>
<!-- q10:0.0 -->
<g id="node4" class="node">
<title>q10:0.0</title>
<ellipse fill="none" stroke="black" stroke-width="2" cx="1214.9" cy="-119" rx="49.1" ry="18"/>
<text text-anchor="middle" x="1214.9" y="-114.33" font-family="Times,serif" font-size="14.00">q10:0.0</text>
</g>
<!-- q7:0.0&#45;&gt;q10:0.0 -->
<g id="edge3" class="edge">
<title>q7:0.0&#45;&gt;q10:0.0</title>
<path fill="none" stroke="black" d="M1005.4,-119C1046.2,-119 1108,-119 1153.8,-119"/>
<polygon fill="black" stroke="black" points="1153.59,-122.5 1163.59,-119 1153.59,-115.5 1153.59,-122.5"/>
<text text-anchor="middle" x="1078.9" y="-122.95" font-family="Times,serif" font-size="14.00">RCPT/250:1.0</text>
</g>
<!-- q12:1.0 -->
<g id="node5" class="node">
<title>q12:1.0</title>
<ellipse fill="none" stroke="black" stroke-width="2" cx="1214.9" cy="-64" rx="49.1" ry="18"/>
<text text-anchor="middle" x="1214.9" y="-59.33" font-family="Times,serif" font-size="14.00">q12:1.0</text>
</g>
<!-- q9:0.0&#45;&gt;q12:1.0 -->
<g id="edge4" class="edge">
<title>q9:0.0&#45;&gt;q12:1.0</title>
<path fill="none" stroke="black" d="M1005.4,-64C1046.2,-64 1108,-64 1153.8,-64"/>
<polygon fill="black" stroke="black" points="1153.59,-67.5 1163.59,-64 1153.59,-60.5 1153.59,-67.5"/>
<text text-anchor="middle" x="1078.9" y="-67.95" font-family="Times,serif" font-size="14.00">RSET/250:1.0</text>
</g>
<!-- q14:0.0 -->
<g id="node6" class="node">
<title>q14:0.0</title>
<ellipse fill="none" stroke="black" stroke-width="2" cx="1991.6" cy="-151" rx="49.1" ry="18"/>
<text text-anchor="middle" x="1991.6" y="-146.32" font-family="Times,serif" font-size="14.00">q14:0.0</text>
</g>
<!-- q10:0.0&#45;&gt;q14:0.0 -->
<g id="edge5" class="edge">
<title>q10:0.0&#45;&gt;q14:0.0</title>
<path fill="none" stroke="black" d="M1259,-127.88C1270.5,-129.91 1283,-131.83 1294.6,-133 1529.1,-156.74 1810.1,-154.76 1930.8,-152.47"/>
<polygon fill="black" stroke="black" points="1930.56,-155.98 1940.49,-152.28 1930.42,-148.98 1930.56,-155.98"/>
<text text-anchor="middle" x="1602.4" y="-155.94" font-family="Times,serif" font-size="14.00">DATA/354:0.294</text>
</g>
<!-- q13:0.0 -->
<g id="node7" class="node">
<title>q13:0.0</title>
<ellipse fill="none" stroke="black" stroke-width="2" cx="1478" cy="-79" rx="49.1" ry="18"/>
<text text-anchor="middle" x="1478" y="-74.33" font-family="Times,serif" font-size="14.00">q13:0.0</text>
</g>
<!-- q10:0.0&#45;&gt;q13:0.0 -->
<g id="edge6" class="edge">
<title>q10:0.0&#45;&gt;q13:0.0</title>
<path fill="none" stroke="black" d="M1263.9,-115.65C1303.5,-112.39 1361.2,-106.51 1410.9,-97 1416.2,-95.98 1421.7,-94.75 1427.2,-93.41"/>
<polygon fill="black" stroke="black" points="1428.1,-96.8 1436.93,-90.94 1426.38,-90.01 1428.1,-96.8"/>
<text text-anchor="middle" x="1352.7" y="-115.95" font-family="Times,serif" font-size="14.00">RCPT/250:0.706</text>
</g>
<!-- q19:0.0 -->
<g id="node8" class="node">
<title>q19:0.0</title>
<ellipse fill="none" stroke="black" stroke-width="2" cx="2256.3" cy="-190" rx="49.1" ry="18"/>
<text text-anchor="middle" x="2256.3" y="-185.32" font-family="Times,serif" font-size="14.00">q19:0.0</text>
</g>
<!-- q14:0.0&#45;&gt;q19:0.0 -->
<g id="edge7" class="edge">
<title>q14:0.0&#45;&gt;q19:0.0</title>
<path fill="none" stroke="black" d="M2039.9,-146.25C2080.3,-143.59 2139.5,-142.98 2189.2,-155.75 2200,-158.51 2211,-163.29 2220.9,-168.42"/>
<polygon fill="black" stroke="black" points="2218.93,-171.33 2229.37,-173.09 2222.3,-165.2 2218.93,-171.33"/>
<text text-anchor="middle" x="2124" y="-158.94" font-family="Times,serif" font-size="14.00">content/λ:0.933</text>
</g>
<!-- q20:0.0 -->
<g id="node9" class="node">
<title>q20:0.0</title>
<ellipse fill="none" stroke="black" stroke-width="2" cx="2256.3" cy="-283" rx="49.1" ry="18"/>
<text text-anchor="middle" x="2256.3" y="-278.32" font-family="Times,serif" font-size="14.00">q20:0.0</text>
</g>
<!-- q14:0.0&#45;&gt;q20:0.0 -->
<g id="edge8" class="edge">
<title>q14:0.0&#45;&gt;q20:0.0</title>
<path fill="none" stroke="black" d="M2008.6,-168.77C2021.1,-181.91 2039.6,-199.45 2058.7,-211 2104.3,-238.57 2162.1,-258.18 2203.3,-269.89"/>
<polygon fill="black" stroke="black" points="2202.07,-273.18 2212.64,-272.51 2203.96,-266.44 2202.07,-273.18"/>
<text text-anchor="middle" x="2124" y="-268.94" font-family="Times,serif" font-size="14.00">content/250:0.034</text>
</g>
<!-- q18:0.0 -->
<g id="node10" class="node">
<title>q18:0.0</title>
<ellipse fill="none" stroke="black" stroke-width="2" cx="2256.3" cy="-126" rx="49.1" ry="18"/>
<text text-anchor="middle" x="2256.3" y="-121.33" font-family="Times,serif" font-size="14.00">q18:0.0</text>
</g>
<!-- q14:0.0&#45;&gt;q18:0.0 -->
<g id="edge9" class="edge">
<title>q14:0.0&#45;&gt;q18:0.0</title>
<path fill="none" stroke="black" d="M2019,-135.25C2030.7,-129.12 2045,-122.84 2058.7,-119.75 2105.3,-109.3 2159.6,-112.12 2199.3,-116.83"/>
<polygon fill="black" stroke="black" points="2198.73,-120.29 2209.1,-118.09 2199.62,-113.34 2198.73,-120.29"/>
<text text-anchor="middle" x="2124" y="-122.95" font-family="Times,serif" font-size="14.00">content/554:0.033</text>
</g>
<!-- q13:0.0&#45;&gt;q10:0.0 -->
<g id="edge10" class="edge">
<title>q13:0.0&#45;&gt;q10:0.0</title>
<path fill="none" stroke="black" d="M1434.3,-69.75C1396.3,-63.49 1340.1,-59.07 1294.6,-75.75 1284.8,-79.36 1285.5,-85.36 1276.6,-91 1271.4,-94.35 1265.6,-97.53 1259.9,-100.47"/>
<polygon fill="black" stroke="black" points="1258.37,-97.32 1250.86,-104.81 1261.39,-103.63 1258.37,-97.32"/>
<text text-anchor="middle" x="1352.7" y="-78.95" font-family="Times,serif" font-size="14.00">RCPT/250:0.024</text>
</g>
<!-- q17:1.0 -->
<g id="node11" class="node">
<title>q17:1.0</title>
<ellipse fill="none" stroke="black" stroke-width="2" cx="1726.9" cy="-25" rx="49.1" ry="18"/>
<text text-anchor="middle" x="1726.9" y="-20.32" font-family="Times,serif" font-size="14.00">q17:1.0</text>
</g>
<!-- q13:0.0&#45;&gt;q17:1.0 -->
<g id="edge11" class="edge">
<title>q13:0.0&#45;&gt;q17:1.0</title>
<path fill="none" stroke="black" d="M1515.1,-66.44C1524.8,-63.34 1535.2,-60.21 1545.1,-57.75 1586.1,-47.48 1633.2,-39.06 1669,-33.33"/>
<polygon fill="black" stroke="black" points="1669.37,-36.82 1678.7,-31.8 1668.28,-29.9 1669.37,-36.82"/>
<text text-anchor="middle" x="1602.4" y="-61.95" font-family="Times,serif" font-size="14.00">DATA/550:0.259</text>
</g>
<!-- q16:0.0 -->
<g id="node12" class="node">
<title>q16:0.0</title>
<ellipse fill="none" stroke="black" stroke-width="2" cx="1726.9" cy="-79" rx="49.1" ry="18"/>
<text text-anchor="middle" x="1726.9" y="-74.33" font-family="Times,serif" font-size="14.00">q16:0.0</text>
</g>
<!-- q13:0.0&#45;&gt;q16:0.0 -->
<g id="edge12" class="edge">
<title>q13:0.0&#45;&gt;q16:0.0</title>
<path fill="none" stroke="black" d="M1528.1,-79C1567.6,-79 1623.4,-79 1665.7,-79"/>
<polygon fill="black" stroke="black" points="1665.39,-82.5 1675.39,-79 1665.39,-75.5 1665.39,-82.5"/>
<text text-anchor="middle" x="1602.4" y="-82.95" font-family="Times,serif" font-size="14.00">DATA/354:0.717</text>
</g>
<!-- q19:0.0&#45;&gt;q14:0.0 -->
<g id="edge23" class="edge">
<title>q19:0.0&#45;&gt;q14:0.0</title>
<path fill="none" stroke="black" d="M2206.7,-190.92C2166.5,-190.7 2108.3,-188.1 2058.7,-177 2050.6,-175.18 2042.2,-172.52 2034.2,-169.59"/>
<polygon fill="black" stroke="black" points="2035.6,-166.38 2025.01,-166.02 2033.06,-172.9 2035.6,-166.38"/>
<text text-anchor="middle" x="2124" y="-193.94" font-family="Times,serif" font-size="14.00">content/λ:0.955</text>
</g>
<!-- q24:0.0 -->
<g id="node20" class="node">
<title>q24:0.0</title>
<ellipse fill="none" stroke="black" stroke-width="2" cx="2521" cy="-136" rx="49.1" ry="18"/>
<text text-anchor="middle" x="2521" y="-131.32" font-family="Times,serif" font-size="14.00">q24:0.0</text>
</g>
<!-- q19:0.0&#45;&gt;q24:0.0 -->
<g id="edge24" class="edge">
<title>q19:0.0&#45;&gt;q24:0.0</title>
<path fill="none" stroke="black" d="M2293.4,-177.35C2303.1,-174.25 2313.6,-171.14 2323.4,-168.75 2369.7,-157.54 2422.9,-148.92 2462.3,-143.35"/>
<polygon fill="black" stroke="black" points="2462.67,-146.83 2472.1,-142 2461.72,-139.9 2462.67,-146.83"/>
<text text-anchor="middle" x="2388.7" y="-171.94" font-family="Times,serif" font-size="14.00">content/554:0.001</text>
</g>
<!-- q25:0.0 -->
<g id="node22" class="node">
<title>q25:0.0</title>
<ellipse fill="none" stroke="black" stroke-width="2" cx="2521" cy="-244" rx="49.1" ry="18"/>
<text text-anchor="middle" x="2521" y="-239.32" font-family="Times,serif" font-size="14.00">q25:0.0</text>
</g>
<!-- q19:0.0&#45;&gt;q25:0.0 -->
<g id="edge25" class="edge">
<title>q19:0.0&#45;&gt;q25:0.0</title>
<path fill="none" stroke="black" d="M2293.8,-202.59C2303.4,-205.62 2313.7,-208.65 2323.4,-211 2369.7,-222.17 2422.9,-230.85 2462.3,-236.51"/>
<polygon fill="black" stroke="black" points="2461.71,-239.96 2472.1,-237.88 2462.68,-233.03 2461.71,-239.96"/>
<text text-anchor="middle" x="2388.7" y="-237.94" font-family="Times,serif" font-size="14.00">content/550:0.001</text>
</g>
<!-- q26:0.0 -->
<g id="node23" class="node">
<title>q26:0.0</title>
<ellipse fill="none" stroke="black" stroke-width="2" cx="2521" cy="-190" rx="49.1" ry="18"/>
<text text-anchor="middle" x="2521" y="-185.32" font-family="Times,serif" font-size="14.00">q26:0.0</text>
</g>
<!-- q19:0.0&#45;&gt;q26:0.0 -->
<g id="edge26" class="edge">
<title>q19:0.0&#45;&gt;q26:0.0</title>
<path fill="none" stroke="black" d="M2306.1,-190C2349.5,-190 2413,-190 2459.6,-190"/>
<polygon fill="black" stroke="black" points="2459.59,-193.5 2469.59,-190 2459.59,-186.5 2459.59,-193.5"/>
<text text-anchor="middle" x="2388.7" y="-193.94" font-family="Times,serif" font-size="14.00">content/250:0.044</text>
</g>
<!-- q27:1.0 -->
<g id="node26" class="node">
<title>q27:1.0</title>
<ellipse fill="none" stroke="black" stroke-width="2" cx="2521" cy="-298" rx="49.1" ry="18"/>
<text text-anchor="middle" x="2521" y="-293.32" font-family="Times,serif" font-size="14.00">q27:1.0</text>
</g>
<!-- q20:0.0&#45;&gt;q27:1.0 -->
<g id="edge29" class="edge">
<title>q20:0.0&#45;&gt;q27:1.0</title>
<path fill="none" stroke="black" d="M2305.8,-285.77C2349.4,-288.26 2413.6,-291.92 2460.4,-294.59"/>
<polygon fill="black" stroke="black" points="2460.1,-298.08 2470.29,-295.16 2460.51,-291.09 2460.1,-298.08"/>
<text text-anchor="middle" x="2388.7" y="-296.94" font-family="Times,serif" font-size="14.00">QUIT/221:1.0</text>
</g>
<!-- q23:1.0 -->
<g id="node27" class="node">
<title>q23:1.0</title>
<ellipse fill="none" stroke="black" stroke-width="2" cx="2521" cy="-82" rx="49.1" ry="18"/>
<text text-anchor="middle" x="2521" y="-77.33" font-family="Times,serif" font-size="14.00">q23:1.0</text>
</g>
<!-- q18:0.0&#45;&gt;q23:1.0 -->
<g id="edge30" class="edge">
<title>q18:0.0&#45;&gt;q23:1.0</title>
<path fill="none" stroke="black" d="M2291.9,-112.8C2302,-109.4 2313,-106.05 2323.4,-103.75 2368.7,-93.76 2420.8,-88.26 2460,-85.29"/>
<polygon fill="black" stroke="black" points="2460.27,-88.78 2469.99,-84.57 2459.76,-81.8 2460.27,-88.78"/>
<text text-anchor="middle" x="2388.7" y="-106.95" font-family="Times,serif" font-size="14.00">RSET/250:1.0</text>
</g>
<!-- q16:0.0&#45;&gt;q14:0.0 -->
<g id="edge31" class="edge">
<title>q16:0.0&#45;&gt;q14:0.0</title>
<path fill="none" stroke="black" d="M1768.8,-89.22C1777.1,-91.21 1785.8,-93.23 1794,-95 1851.7,-107.45 1868.4,-101.49 1924.5,-119.75 1933.7,-122.74 1943.3,-126.72 1952.2,-130.83"/>
<polygon fill="black" stroke="black" points="1950.4,-133.85 1960.93,-135.02 1953.43,-127.54 1950.4,-133.85"/>
<text text-anchor="middle" x="1859.3" y="-122.95" font-family="Times,serif" font-size="14.00">content/λ:0.95</text>
</g>
<!-- q22:0.0 -->
<g id="node28" class="node">
<title>q22:0.0</title>
<ellipse fill="none" stroke="black" stroke-width="2" cx="1991.6" cy="-20" rx="49.1" ry="18"/>
<text text-anchor="middle" x="1991.6" y="-15.32" font-family="Times,serif" font-size="14.00">q22:0.0</text>
</g>
<!-- q16:0.0&#45;&gt;q22:0.0 -->
<g id="edge32" class="edge">
<title>q16:0.0&#45;&gt;q22:0.0</title>
<path fill="none" stroke="black" d="M1760.5,-65.13C1771,-61.02 1782.9,-56.8 1794,-53.75 1839.9,-41.17 1893.2,-32.37 1932.7,-26.92"/>
<polygon fill="black" stroke="black" points="1933.05,-30.4 1942.5,-25.6 1932.12,-23.47 1933.05,-30.4"/>
<text text-anchor="middle" x="1859.3" y="-57.95" font-family="Times,serif" font-size="14.00">content/554:0.034</text>
</g>
<!-- q21:0.0 -->
<g id="node29" class="node">
<title>q21:0.0</title>
<ellipse fill="none" stroke="black" stroke-width="2" cx="1991.6" cy="-74" rx="49.1" ry="18"/>
<text text-anchor="middle" x="1991.6" y="-69.33" font-family="Times,serif" font-size="14.00">q21:0.0</text>
</g>
<!-- q16:0.0&#45;&gt;q21:0.0 -->
<g id="edge33" class="edge">
<title>q16:0.0&#45;&gt;q21:0.0</title>
<path fill="none" stroke="black" d="M1776.7,-78.07C1820.1,-77.25 1883.6,-76.04 1930.2,-75.15"/>
<polygon fill="black" stroke="black" points="1930.15,-78.65 1940.09,-74.96 1930.02,-71.65 1930.15,-78.65"/>
<text text-anchor="middle" x="1859.3" y="-80.95" font-family="Times,serif" font-size="14.00">content/250:0.017</text>
</g>
<!-- q3:0.0 -->
<g id="node13" class="node">
<title>q3:0.0</title>
<ellipse fill="none" stroke="black" stroke-width="2" cx="484.7" cy="-141" rx="42.79" ry="18"/>
<text text-anchor="middle" x="484.7" y="-136.32" font-family="Times,serif" font-size="14.00">q3:0.0</text>
</g>
<!-- q3:0.0&#45;&gt;q6:0.0 -->
<g id="edge13" class="edge">
<title>q3:0.0&#45;&gt;q6:0.0</title>
<path fill="none" stroke="black" d="M517.34,-128.58C526.34,-125.37 536.21,-122.15 545.49,-119.75 587.47,-108.89 636.05,-101.11 672.01,-96.24"/>
<polygon fill="black" stroke="black" points="672.25,-99.74 681.71,-94.96 671.34,-92.8 672.25,-99.74"/>
<text text-anchor="middle" x="605.12" y="-122.95" font-family="Times,serif" font-size="14.00">AUTH/235:0.95</text>
</g>
<!-- q4:0.0 -->
<g id="node14" class="node">
<title>q4:0.0</title>
<ellipse fill="none" stroke="black" stroke-width="2" cx="725.53" cy="-144" rx="42.79" ry="18"/>
<text text-anchor="middle" x="725.53" y="-139.32" font-family="Times,serif" font-size="14.00">q4:0.0</text>
</g>
<!-- q3:0.0&#45;&gt;q4:0.0 -->
<g id="edge14" class="edge">
<title>q3:0.0&#45;&gt;q4:0.0</title>
<path fill="none" stroke="black" d="M528.4,-141.54C568.1,-142.03 627.41,-142.78 670.41,-143.32"/>
<polygon fill="black" stroke="black" points="670.24,-146.82 680.29,-143.44 670.33,-139.82 670.24,-146.82"/>
<text text-anchor="middle" x="605.12" y="-146.94" font-family="Times,serif" font-size="14.00">AUTH/λ:0.004</text>
</g>
<!-- q5:0.0 -->
<g id="node15" class="node">
<title>q5:0.0</title>
<ellipse fill="none" stroke="black" stroke-width="2" cx="725.53" cy="-198" rx="42.79" ry="18"/>
<text text-anchor="middle" x="725.53" y="-193.32" font-family="Times,serif" font-size="14.00">q5:0.0</text>
</g>
<!-- q3:0.0&#45;&gt;q5:0.0 -->
<g id="edge15" class="edge">
<title>q3:0.0&#45;&gt;q5:0.0</title>
<path fill="none" stroke="black" d="M516.37,-154.01C525.62,-157.6 535.86,-161.26 545.49,-164 587.64,-176 636.59,-184.97 672.64,-190.67"/>
<polygon fill="black" stroke="black" points="671.96,-194.11 682.37,-192.18 673.03,-187.19 671.96,-194.11"/>
<text text-anchor="middle" x="605.12" y="-192.94" font-family="Times,serif" font-size="14.00">AUTH/535:0.045</text>
</g>
<!-- q4:0.0&#45;&gt;q7:0.0 -->
<g id="edge16" class="edge">
<title>q4:0.0&#45;&gt;q7:0.0</title>
<path fill="none" stroke="black" d="M767.89,-139.59C807,-135.41 865.87,-129.13 908.3,-124.61"/>
<polygon fill="black" stroke="black" points="908.45,-128.11 918.02,-123.57 907.71,-121.15 908.45,-128.11"/>
<text text-anchor="middle" x="843.7" y="-140.94" font-family="Times,serif" font-size="14.00">MAIL/250:1.0</text>
</g>
<!-- q8:0.0 -->
<g id="node16" class="node">
<title>q8:0.0</title>
<ellipse fill="none" stroke="black" stroke-width="2" cx="961.86" cy="-198" rx="42.79" ry="18"/>
<text text-anchor="middle" x="961.86" y="-193.32" font-family="Times,serif" font-size="14.00">q8:0.0</text>
</g>
<!-- q5:0.0&#45;&gt;q8:0.0 -->
<g id="edge17" class="edge">
<title>q5:0.0&#45;&gt;q8:0.0</title>
<path fill="none" stroke="black" d="M769.24,-198C807.97,-198 865.24,-198 907.08,-198"/>
<polygon fill="black" stroke="black" points="906.94,-201.5 916.94,-198 906.94,-194.5 906.94,-201.5"/>
<text text-anchor="middle" x="843.7" y="-201.94" font-family="Times,serif" font-size="14.00">AUTH/334:1.0</text>
</g>
<!-- q11:0.636 -->
<g id="node17" class="node">
<title>q11:0.636</title>
<ellipse fill="none" stroke="black" stroke-width="2" cx="1214.9" cy="-198" rx="61.73" ry="18"/>
<text text-anchor="middle" x="1214.9" y="-193.32" font-family="Times,serif" font-size="14.00">q11:0.636</text>
</g>
<!-- q8:0.0&#45;&gt;q11:0.636 -->
<g id="edge18" class="edge">
<title>q8:0.0&#45;&gt;q11:0.636</title>
<path fill="none" stroke="black" d="M1005.4,-198C1042.4,-198 1096.8,-198 1140.7,-198"/>
<polygon fill="black" stroke="black" points="1140.69,-201.5 1150.69,-198 1140.69,-194.5 1140.69,-201.5"/>
<text text-anchor="middle" x="1078.9" y="-201.94" font-family="Times,serif" font-size="14.00">content/535:1.0</text>
</g>
<!-- q15:1.0 -->
<g id="node32" class="node">
<title>q15:1.0</title>
<ellipse fill="none" stroke="black" stroke-width="2" cx="1478" cy="-198" rx="49.1" ry="18"/>
<text text-anchor="middle" x="1478" y="-193.32" font-family="Times,serif" font-size="14.00">q15:1.0</text>
</g>
<!-- q11:0.636&#45;&gt;q15:1.0 -->
<g id="edge36" class="edge">
<title>q11:0.636&#45;&gt;q15:1.0</title>
<path fill="none" stroke="black" d="M1277.4,-198C1319.5,-198 1374.9,-198 1416.6,-198"/>
<polygon fill="black" stroke="black" points="1416.49,-201.5 1426.49,-198 1416.49,-194.5 1416.49,-201.5"/>
<text text-anchor="middle" x="1352.7" y="-201.94" font-family="Times,serif" font-size="14.00">λ/451:0.364</text>
</g>
<!-- q2:0.0 -->
<g id="node18" class="node">
<title>q2:0.0</title>
<ellipse fill="none" stroke="black" stroke-width="2" cx="484.7" cy="-81" rx="42.79" ry="18"/>
<text text-anchor="middle" x="484.7" y="-76.33" font-family="Times,serif" font-size="14.00">q2:0.0</text>
</g>
<!-- q2:0.0&#45;&gt;q4:0.0 -->
<g id="edge19" class="edge">
<title>q2:0.0&#45;&gt;q4:0.0</title>
<path fill="none" stroke="black" d="M519.13,-69.42C557.59,-58.34 621.03,-47.13 664.74,-75.75 681.48,-86.71 669.79,-101.76 682.74,-117 684.55,-119.13 686.57,-121.15 688.72,-123.06"/>
<polygon fill="black" stroke="black" points="686.23,-125.56 696.27,-128.92 690.52,-120.03 686.23,-125.56"/>
<text text-anchor="middle" x="605.12" y="-78.95" font-family="Times,serif" font-size="14.00">AUTH/235:1.0</text>
</g>
<!-- q1:0.0 -->
<g id="node19" class="node">
<title>q1:0.0</title>
<ellipse fill="none" stroke="black" stroke-width="2" cx="243.87" cy="-108" rx="42.79" ry="18"/>
<text text-anchor="middle" x="243.87" y="-103.33" font-family="Times,serif" font-size="14.00">q1:0.0</text>
</g>
<!-- q1:0.0&#45;&gt;q3:0.0 -->
<g id="edge20" class="edge">
<title>q1:0.0&#45;&gt;q3:0.0</title>
<path fill="none" stroke="black" d="M285.66,-113.64C326.01,-119.21 387.94,-127.77 431.79,-133.83"/>
<polygon fill="black" stroke="black" points="431.19,-137.28 441.58,-135.18 432.15,-130.35 431.19,-137.28"/>
<text text-anchor="middle" x="364.29" y="-135.94" font-family="Times,serif" font-size="14.00">EHLO/250:0.992</text>
</g>
<!-- q1:0.0&#45;&gt;q2:0.0 -->
<g id="edge21" class="edge">
<title>q1:0.0&#45;&gt;q2:0.0</title>
<path fill="none" stroke="black" d="M282.04,-98.91C289.49,-97.33 297.3,-95.84 304.66,-94.75 346.54,-88.53 394.37,-85.04 430.05,-83.14"/>
<polygon fill="black" stroke="black" points="429.87,-86.65 439.68,-82.65 429.51,-79.66 429.87,-86.65"/>
<text text-anchor="middle" x="364.29" y="-97.95" font-family="Times,serif" font-size="14.00">EHLO/λ:0.008</text>
</g>
<!-- q30:1.0 -->
<g id="node21" class="node">
<title>q30:1.0</title>
<ellipse fill="none" stroke="black" stroke-width="2" cx="2753.5" cy="-136" rx="49.1" ry="18"/>
<text text-anchor="middle" x="2753.5" y="-131.32" font-family="Times,serif" font-size="14.00">q30:1.0</text>
</g>
<!-- q24:0.0&#45;&gt;q30:1.0 -->
<g id="edge22" class="edge">
<title>q24:0.0&#45;&gt;q30:1.0</title>
<path fill="none" stroke="black" d="M2570.9,-136C2606.4,-136 2654.5,-136 2692.3,-136"/>
<polygon fill="black" stroke="black" points="2692.19,-139.5 2702.19,-136 2692.19,-132.5 2692.19,-139.5"/>
<text text-anchor="middle" x="2637.3" y="-139.94" font-family="Times,serif" font-size="14.00">RSET/250:1.0</text>
</g>
<!-- q31:1.0 -->
<g id="node24" class="node">
<title>q31:1.0</title>
<ellipse fill="none" stroke="black" stroke-width="2" cx="2753.5" cy="-244" rx="49.1" ry="18"/>
<text text-anchor="middle" x="2753.5" y="-239.32" font-family="Times,serif" font-size="14.00">q31:1.0</text>
</g>
<!-- q25:0.0&#45;&gt;q31:1.0 -->
<g id="edge27" class="edge">
<title>q25:0.0&#45;&gt;q31:1.0</title>
<path fill="none" stroke="black" d="M2570.9,-244C2606.4,-244 2654.5,-244 2692.3,-244"/>
<polygon fill="black" stroke="black" points="2692.19,-247.5 2702.19,-244 2692.19,-240.5 2692.19,-247.5"/>
<text text-anchor="middle" x="2637.3" y="-247.94" font-family="Times,serif" font-size="14.00">RSET/250:1.0</text>
</g>
<!-- q32:1.0 -->
<g id="node25" class="node">
<title>q32:1.0</title>
<ellipse fill="none" stroke="black" stroke-width="2" cx="2753.5" cy="-190" rx="49.1" ry="18"/>
<text text-anchor="middle" x="2753.5" y="-185.32" font-family="Times,serif" font-size="14.00">q32:1.0</text>
</g>
<!-- q26:0.0&#45;&gt;q32:1.0 -->
<g id="edge28" class="edge">
<title>q26:0.0&#45;&gt;q32:1.0</title>
<path fill="none" stroke="black" d="M2570.9,-190C2606.4,-190 2654.5,-190 2692.3,-190"/>
<polygon fill="black" stroke="black" points="2692.19,-193.5 2702.19,-190 2692.19,-186.5 2692.19,-193.5"/>
<text text-anchor="middle" x="2637.3" y="-193.94" font-family="Times,serif" font-size="14.00">QUIT/221:1.0</text>
</g>
<!-- q29:1.0 -->
<g id="node30" class="node">
<title>q29:1.0</title>
<ellipse fill="none" stroke="black" stroke-width="2" cx="2256.3" cy="-18" rx="49.1" ry="18"/>
<text text-anchor="middle" x="2256.3" y="-13.32" font-family="Times,serif" font-size="14.00">q29:1.0</text>
</g>
<!-- q22:0.0&#45;&gt;q29:1.0 -->
<g id="edge34" class="edge">
<title>q22:0.0&#45;&gt;q29:1.0</title>
<path fill="none" stroke="black" d="M2041.4,-19.63C2084.8,-19.3 2148.3,-18.82 2194.9,-18.46"/>
<polygon fill="black" stroke="black" points="2194.91,-21.96 2204.89,-18.38 2194.86,-14.96 2194.91,-21.96"/>
<text text-anchor="middle" x="2124" y="-23.95" font-family="Times,serif" font-size="14.00">RSET/250:1.0</text>
</g>
<!-- q28:1.0 -->
<g id="node31" class="node">
<title>q28:1.0</title>
<ellipse fill="none" stroke="black" stroke-width="2" cx="2256.3" cy="-72" rx="49.1" ry="18"/>
<text text-anchor="middle" x="2256.3" y="-67.33" font-family="Times,serif" font-size="14.00">q28:1.0</text>
</g>
<!-- q21:0.0&#45;&gt;q28:1.0 -->
<g id="edge35" class="edge">
<title>q21:0.0&#45;&gt;q28:1.0</title>
<path fill="none" stroke="black" d="M2041.4,-73.63C2084.8,-73.3 2148.3,-72.81 2194.9,-72.46"/>
<polygon fill="black" stroke="black" points="2194.91,-75.96 2204.89,-72.38 2194.86,-68.96 2194.91,-75.96"/>
<text text-anchor="middle" x="2124" y="-76.95" font-family="Times,serif" font-size="14.00">QUIT/221:1.0</text>
</g>
<!-- q0:0.0 -->
<g id="node33" class="node">
<title>q0:0.0</title>
<ellipse fill="none" stroke="black" stroke-width="2" cx="50.79" cy="-108" rx="46.79" ry="46.79"/>
<ellipse fill="none" stroke="black" stroke-width="2" cx="50.79" cy="-108" rx="50.79" ry="50.79"/>
<text text-anchor="middle" x="50.79" y="-103.33" font-family="Times,serif" font-size="14.00">q0:0.0</text>
</g>
<!-- q0:0.0&#45;&gt;q1:0.0 -->
<g id="edge37" class="edge">
<title>q0:0.0&#45;&gt;q1:0.0</title>
<path fill="none" stroke="black" d="M98.53,-108C125.82,-108 160.37,-108 188.82,-108"/>
<polygon fill="black" stroke="black" points="188.69,-111.5 198.69,-108 188.69,-104.5 188.69,-111.5"/>
<text text-anchor="middle" x="149.33" y="-111.95" font-family="Times,serif" font-size="14.00">λ/220:1.0</text>
</g>
</g>
</svg>
