<?xml version="1.0" encoding="UTF-8" standalone="no"?>
<!DOCTYPE svg PUBLIC "-//W3C//DTD SVG 1.1//EN"
 "http://www.w3.org/Graphics/SVG/1.1/DTD/svg11.dtd">
<!-- Generated by graphviz version 12.0.0 (20240803.0821)
 -->
<!-- Pages: 1 -->
<svg width="2047pt" height="317pt"
 viewBox="0.00 0.00 2046.50 317.00" xmlns="http://www.w3.org/2000/svg" xmlns:xlink="http://www.w3.org/1999/xlink">
<g id="graph0" class="graph" transform="scale(1 1) rotate(0) translate(4 313)">
<polygon fill="white" stroke="none" points="-4,4 -4,-313 2042.5,-313 2042.5,4 -4,4"/>
<!-- q8:0.0 -->
<g id="node1" class="node">
<title>q8:0.0</title>
<ellipse fill="none" stroke="black" stroke-width="2" cx="961.86" cy="-148" rx="42.79" ry="18"/>
<text text-anchor="middle" x="961.86" y="-143.32" font-family="Times,serif" font-size="14.00">q8:0.0</text>
</g>
<!-- q8:0.0&#45;&gt;q8:0.0 -->
<g id="edge1" class="edge">
<title>q8:0.0&#45;&gt;q8:0.0</title>
<path fill="none" stroke="black" d="M941.09,-164.66C936.48,-174.62 943.4,-184 961.86,-184 972.83,-184 979.72,-180.69 982.55,-175.92"/>
<polygon fill="black" stroke="black" points="986.05,-176.2 982.62,-166.17 979.05,-176.15 986.05,-176.2"/>
<text text-anchor="middle" x="961.86" y="-187.94" font-family="Times,serif" font-size="14.00">RCPT/250:0.622</text>
</g>
<!-- q11:1.0 -->
<g id="node2" class="node">
<title>q11:1.0</title>
<ellipse fill="none" stroke="black" stroke-width="2" cx="1217.1" cy="-166" rx="49.1" ry="18"/>
<text text-anchor="middle" x="1217.1" y="-161.32" font-family="Times,serif" font-size="14.00">q11:1.0</text>
</g>
<!-- q8:0.0&#45;&gt;q11:1.0 -->
<g id="edge2" class="edge">
<title>q8:0.0&#45;&gt;q11:1.0</title>
<path fill="none" stroke="black" d="M1005,-150.99C1046.3,-153.93 1109.8,-158.45 1156.4,-161.76"/>
<polygon fill="black" stroke="black" points="1156.17,-165.25 1166.39,-162.46 1156.66,-158.27 1156.17,-165.25"/>
<text text-anchor="middle" x="1080" y="-163.94" font-family="Times,serif" font-size="14.00">DATA/550:0.071</text>
</g>
<!-- q12:0.0 -->
<g id="node3" class="node">
<title>q12:0.0</title>
<ellipse fill="none" stroke="black" stroke-width="2" cx="1217.1" cy="-112" rx="49.1" ry="18"/>
<text text-anchor="middle" x="1217.1" y="-107.33" font-family="Times,serif" font-size="14.00">q12:0.0</text>
</g>
<!-- q8:0.0&#45;&gt;q12:0.0 -->
<g id="edge3" class="edge">
<title>q8:0.0&#45;&gt;q12:0.0</title>
<path fill="none" stroke="black" d="M997.06,-136.96C1005.4,-134.61 1014.3,-132.35 1022.7,-130.75 1067.2,-122.25 1118.2,-117.51 1156.7,-114.92"/>
<polygon fill="black" stroke="black" points="1156.43,-118.44 1166.19,-114.32 1155.99,-111.46 1156.43,-118.44"/>
<text text-anchor="middle" x="1080" y="-133.94" font-family="Times,serif" font-size="14.00">DATA/354:0.307</text>
</g>
<!-- q15:0.0 -->
<g id="node4" class="node">
<title>q15:0.0</title>
<ellipse fill="none" stroke="black" stroke-width="2" cx="1494.5" cy="-186" rx="49.1" ry="18"/>
<text text-anchor="middle" x="1494.5" y="-181.32" font-family="Times,serif" font-size="14.00">q15:0.0</text>
</g>
<!-- q12:0.0&#45;&gt;q15:0.0 -->
<g id="edge4" class="edge">
<title>q12:0.0&#45;&gt;q15:0.0</title>
<path fill="none" stroke="black" d="M1255.4,-124.14C1263.7,-128.01 1272.1,-132.91 1278.9,-139 1290.7,-149.64 1283.4,-161.5 1296.9,-170 1338.6,-196.31 1395.5,-198.09 1437.4,-194.61"/>
<polygon fill="black" stroke="black" points="1437.68,-198.1 1447.29,-193.65 1437,-191.13 1437.68,-198.1"/>
<text text-anchor="middle" x="1362.1" y="-198.94" font-family="Times,serif" font-size="14.00">content/λ:0.897</text>
</g>
<!-- q16:0.0 -->
<g id="node5" class="node">
<title>q16:0.0</title>
<ellipse fill="none" stroke="black" stroke-width="2" cx="1494.5" cy="-126" rx="49.1" ry="18"/>
<text text-anchor="middle" x="1494.5" y="-121.33" font-family="Times,serif" font-size="14.00">q16:0.0</text>
</g>
<!-- q12:0.0&#45;&gt;q16:0.0 -->
<g id="edge5" class="edge">
<title>q12:0.0&#45;&gt;q16:0.0</title>
<path fill="none" stroke="black" d="M1266.5,-109.52C1309,-107.98 1372.4,-107.2 1427.4,-112.75 1431.7,-113.19 1436.2,-113.78 1440.6,-114.47"/>
<polygon fill="black" stroke="black" points="1439.76,-117.88 1450.21,-116.1 1440.93,-110.98 1439.76,-117.88"/>
<text text-anchor="middle" x="1362.1" y="-115.95" font-family="Times,serif" font-size="14.00">content/250:0.051</text>
</g>
<!-- q18:0.0 -->
<g id="node6" class="node">
<title>q18:0.0</title>
<ellipse fill="none" stroke="black" stroke-width="2" cx="1494.5" cy="-72" rx="49.1" ry="18"/>
<text text-anchor="middle" x="1494.5" y="-67.33" font-family="Times,serif" font-size="14.00">q18:0.0</text>
</g>
<!-- q12:0.0&#45;&gt;q18:0.0 -->
<g id="edge6" class="edge">
<title>q12:0.0&#45;&gt;q18:0.0</title>
<path fill="none" stroke="black" d="M1252.9,-98.89C1266.5,-94.31 1282.2,-89.61 1296.9,-86.75 1342,-77.94 1394,-74.32 1433.1,-72.86"/>
<polygon fill="black" stroke="black" points="1433.21,-76.36 1443.09,-72.53 1432.98,-69.36 1433.21,-76.36"/>
<text text-anchor="middle" x="1362.1" y="-90.95" font-family="Times,serif" font-size="14.00">content/554:0.052</text>
</g>
<!-- q17:0.0 -->
<g id="node7" class="node">
<title>q17:0.0</title>
<ellipse fill="none" stroke="black" stroke-width="2" cx="1494.5" cy="-18" rx="49.1" ry="18"/>
<text text-anchor="middle" x="1494.5" y="-13.32" font-family="Times,serif" font-size="14.00">q17:0.0</text>
</g>
<!-- q12:0.0&#45;&gt;q17:0.0 -->
<g id="edge7" class="edge">
<title>q12:0.0&#45;&gt;q17:0.0</title>
<path fill="none" stroke="black" d="M1235.9,-94.65C1251,-81.07 1273.6,-62.84 1296.9,-52.75 1340.3,-33.88 1393.3,-25.26 1433.3,-21.32"/>
<polygon fill="black" stroke="black" points="1433.65,-24.8 1443.29,-20.41 1433.02,-17.83 1433.65,-24.8"/>
<text text-anchor="middle" x="1362.1" y="-56.95" font-family="Times,serif" font-size="14.00">content/550:0.001</text>
</g>
<!-- q15:0.0&#45;&gt;q12:0.0 -->
<g id="edge8" class="edge">
<title>q15:0.0&#45;&gt;q12:0.0</title>
<path fill="none" stroke="black" d="M1469.4,-169.56C1457.3,-162.06 1442.1,-153.76 1427.4,-148.75 1371.9,-129.88 1354.5,-140.71 1296.9,-130 1288.2,-128.4 1279.1,-126.5 1270.3,-124.55"/>
<polygon fill="black" stroke="black" points="1271.3,-121.19 1260.78,-122.41 1269.77,-128.02 1271.3,-121.19"/>
<text text-anchor="middle" x="1362.1" y="-151.94" font-family="Times,serif" font-size="14.00">content/λ:0.966</text>
</g>
<!-- q19:0.0 -->
<g id="node8" class="node">
<title>q19:0.0</title>
<ellipse fill="none" stroke="black" stroke-width="2" cx="1759.2" cy="-186" rx="49.1" ry="18"/>
<text text-anchor="middle" x="1759.2" y="-181.32" font-family="Times,serif" font-size="14.00">q19:0.0</text>
</g>
<!-- q15:0.0&#45;&gt;q19:0.0 -->
<g id="edge9" class="edge">
<title>q15:0.0&#45;&gt;q19:0.0</title>
<path fill="none" stroke="black" d="M1544.3,-186C1587.6,-186 1651.2,-186 1697.7,-186"/>
<polygon fill="black" stroke="black" points="1697.69,-189.5 1707.69,-186 1697.69,-182.5 1697.69,-189.5"/>
<text text-anchor="middle" x="1626.8" y="-189.94" font-family="Times,serif" font-size="14.00">content/250:0.034</text>
</g>
<!-- q20:1.0 -->
<g id="node9" class="node">
<title>q20:1.0</title>
<ellipse fill="none" stroke="black" stroke-width="2" cx="1759.2" cy="-126" rx="49.1" ry="18"/>
<text text-anchor="middle" x="1759.2" y="-121.33" font-family="Times,serif" font-size="14.00">q20:1.0</text>
</g>
<!-- q16:0.0&#45;&gt;q20:1.0 -->
<g id="edge10" class="edge">
<title>q16:0.0&#45;&gt;q20:1.0</title>
<path fill="none" stroke="black" d="M1544.3,-126C1587.6,-126 1651.2,-126 1697.7,-126"/>
<polygon fill="black" stroke="black" points="1697.69,-129.5 1707.69,-126 1697.69,-122.5 1697.69,-129.5"/>
<text text-anchor="middle" x="1626.8" y="-129.94" font-family="Times,serif" font-size="14.00">QUIT/221:1.0</text>
</g>
<!-- q22:1.0 -->
<g id="node10" class="node">
<title>q22:1.0</title>
<ellipse fill="none" stroke="black" stroke-width="2" cx="1759.2" cy="-72" rx="49.1" ry="18"/>
<text text-anchor="middle" x="1759.2" y="-67.33" font-family="Times,serif" font-size="14.00">q22:1.0</text>
</g>
<!-- q18:0.0&#45;&gt;q22:1.0 -->
<g id="edge11" class="edge">
<title>q18:0.0&#45;&gt;q22:1.0</title>
<path fill="none" stroke="black" d="M1544.3,-72C1587.6,-72 1651.2,-72 1697.7,-72"/>
<polygon fill="black" stroke="black" points="1697.69,-75.5 1707.69,-72 1697.69,-68.5 1697.69,-75.5"/>
<text text-anchor="middle" x="1626.8" y="-75.95" font-family="Times,serif" font-size="14.00">RSET/250:1.0</text>
</g>
<!-- q21:1.0 -->
<g id="node11" class="node">
<title>q21:1.0</title>
<ellipse fill="none" stroke="black" stroke-width="2" cx="1759.2" cy="-18" rx="49.1" ry="18"/>
<text text-anchor="middle" x="1759.2" y="-13.32" font-family="Times,serif" font-size="14.00">q21:1.0</text>
</g>
<!-- q17:0.0&#45;&gt;q21:1.0 -->
<g id="edge12" class="edge">
<title>q17:0.0&#45;&gt;q21:1.0</title>
<path fill="none" stroke="black" d="M1544.3,-18C1587.6,-18 1651.2,-18 1697.7,-18"/>
<polygon fill="black" stroke="black" points="1697.69,-21.5 1707.69,-18 1697.69,-14.5 1697.69,-21.5"/>
<text text-anchor="middle" x="1626.8" y="-21.95" font-family="Times,serif" font-size="14.00">RSET/250:1.0</text>
</g>
<!-- q23:1.0 -->
<g id="node22" class="node">
<title>q23:1.0</title>
<ellipse fill="none" stroke="black" stroke-width="2" cx="1989.4" cy="-186" rx="49.1" ry="18"/>
<text text-anchor="middle" x="1989.4" y="-181.32" font-family="Times,serif" font-size="14.00">q23:1.0</text>
</g>
<!-- q19:0.0&#45;&gt;q23:1.0 -->
<g id="edge25" class="edge">
<title>q19:0.0&#45;&gt;q23:1.0</title>
<path fill="none" stroke="black" d="M1809.1,-186C1844,-186 1891.1,-186 1928.3,-186"/>
<polygon fill="black" stroke="black" points="1927.99,-189.5 1937.99,-186 1927.99,-182.5 1927.99,-189.5"/>
<text text-anchor="middle" x="1874.3" y="-189.94" font-family="Times,serif" font-size="14.00">QUIT/221:1.0</text>
</g>
<!-- q2:0.0 -->
<g id="node12" class="node">
<title>q2:0.0</title>
<ellipse fill="none" stroke="black" stroke-width="2" cx="484.7" cy="-227" rx="42.79" ry="18"/>
<text text-anchor="middle" x="484.7" y="-222.32" font-family="Times,serif" font-size="14.00">q2:0.0</text>
</g>
<!-- q6:0.0 -->
<g id="node13" class="node">
<title>q6:0.0</title>
<ellipse fill="none" stroke="black" stroke-width="2" cx="725.53" cy="-234" rx="42.79" ry="18"/>
<text text-anchor="middle" x="725.53" y="-229.32" font-family="Times,serif" font-size="14.00">q6:0.0</text>
</g>
<!-- q2:0.0&#45;&gt;q6:0.0 -->
<g id="edge13" class="edge">
<title>q2:0.0&#45;&gt;q6:0.0</title>
<path fill="none" stroke="black" d="M528.12,-228.24C567.91,-229.41 627.56,-231.16 670.69,-232.42"/>
<polygon fill="black" stroke="black" points="670.49,-235.92 680.59,-232.71 670.7,-228.92 670.49,-235.92"/>
<text text-anchor="middle" x="605.12" y="-235.94" font-family="Times,serif" font-size="14.00">AUTH/235:0.947</text>
</g>
<!-- q5:0.0 -->
<g id="node14" class="node">
<title>q5:0.0</title>
<ellipse fill="none" stroke="black" stroke-width="2" cx="725.53" cy="-154" rx="42.79" ry="18"/>
<text text-anchor="middle" x="725.53" y="-149.32" font-family="Times,serif" font-size="14.00">q5:0.0</text>
</g>
<!-- q2:0.0&#45;&gt;q5:0.0 -->
<g id="edge14" class="edge">
<title>q2:0.0&#45;&gt;q5:0.0</title>
<path fill="none" stroke="black" d="M519.14,-215.39C527.7,-212.5 536.92,-209.45 545.49,-206.75 598.15,-190.17 611.81,-187.68 664.74,-172 669.24,-170.67 673.93,-169.27 678.62,-167.87"/>
<polygon fill="black" stroke="black" points="679.43,-171.28 688,-165.06 677.42,-164.58 679.43,-171.28"/>
<text text-anchor="middle" x="605.12" y="-209.94" font-family="Times,serif" font-size="14.00">AUTH/λ:0.004</text>
</g>
<!-- q4:0.0 -->
<g id="node15" class="node">
<title>q4:0.0</title>
<ellipse fill="none" stroke="black" stroke-width="2" cx="725.53" cy="-289" rx="42.79" ry="18"/>
<text text-anchor="middle" x="725.53" y="-284.32" font-family="Times,serif" font-size="14.00">q4:0.0</text>
</g>
<!-- q2:0.0&#45;&gt;q4:0.0 -->
<g id="edge15" class="edge">
<title>q2:0.0&#45;&gt;q4:0.0</title>
<path fill="none" stroke="black" d="M514.12,-240.82C523.9,-245.18 535.02,-249.71 545.49,-253 587.53,-266.2 636.68,-275.68 672.84,-281.58"/>
<polygon fill="black" stroke="black" points="672.18,-285.02 682.6,-283.14 673.28,-278.11 672.18,-285.02"/>
<text text-anchor="middle" x="605.12" y="-283.94" font-family="Times,serif" font-size="14.00">AUTH/535:0.049</text>
</g>
<!-- q6:0.0&#45;&gt;q8:0.0 -->
<g id="edge16" class="edge">
<title>q6:0.0&#45;&gt;q8:0.0</title>
<path fill="none" stroke="black" d="M759.74,-222.2C768.39,-219.12 777.71,-215.81 786.32,-212.75 837.32,-194.63 850.45,-191.14 901.07,-172 906.89,-169.8 913.01,-167.42 919.01,-165.05"/>
<polygon fill="black" stroke="black" points="920.21,-168.34 928.2,-161.38 917.62,-161.84 920.21,-168.34"/>
<text text-anchor="middle" x="843.7" y="-215.94" font-family="Times,serif" font-size="14.00">MAIL/250:0.987</text>
</g>
<!-- q9:0.0 -->
<g id="node16" class="node">
<title>q9:0.0</title>
<ellipse fill="none" stroke="black" stroke-width="2" cx="961.86" cy="-237" rx="42.79" ry="18"/>
<text text-anchor="middle" x="961.86" y="-232.32" font-family="Times,serif" font-size="14.00">q9:0.0</text>
</g>
<!-- q6:0.0&#45;&gt;q9:0.0 -->
<g id="edge17" class="edge">
<title>q6:0.0&#45;&gt;q9:0.0</title>
<path fill="none" stroke="black" d="M769.24,-234.55C807.97,-235.04 865.24,-235.78 907.08,-236.31"/>
<polygon fill="black" stroke="black" points="906.89,-239.81 916.94,-236.44 906.98,-232.81 906.89,-239.81"/>
<text text-anchor="middle" x="843.7" y="-239.94" font-family="Times,serif" font-size="14.00">MAIL/553:0.013</text>
</g>
<!-- q5:0.0&#45;&gt;q8:0.0 -->
<g id="edge18" class="edge">
<title>q5:0.0&#45;&gt;q8:0.0</title>
<path fill="none" stroke="black" d="M769.24,-152.91C807.97,-151.91 865.24,-150.45 907.08,-149.38"/>
<polygon fill="black" stroke="black" points="907.03,-152.88 916.94,-149.13 906.85,-145.88 907.03,-152.88"/>
<text text-anchor="middle" x="843.7" y="-155.94" font-family="Times,serif" font-size="14.00">MAIL/250:1.0</text>
</g>
<!-- q7:0.0 -->
<g id="node17" class="node">
<title>q7:0.0</title>
<ellipse fill="none" stroke="black" stroke-width="2" cx="961.86" cy="-291" rx="42.79" ry="18"/>
<text text-anchor="middle" x="961.86" y="-286.32" font-family="Times,serif" font-size="14.00">q7:0.0</text>
</g>
<!-- q4:0.0&#45;&gt;q7:0.0 -->
<g id="edge19" class="edge">
<title>q4:0.0&#45;&gt;q7:0.0</title>
<path fill="none" stroke="black" d="M769.24,-289.36C807.97,-289.7 865.24,-290.18 907.08,-290.54"/>
<polygon fill="black" stroke="black" points="906.91,-294.04 916.94,-290.63 906.97,-287.04 906.91,-294.04"/>
<text text-anchor="middle" x="843.7" y="-293.94" font-family="Times,serif" font-size="14.00">AUTH/334:1.0</text>
</g>
<!-- q13:1.0 -->
<g id="node18" class="node">
<title>q13:1.0</title>
<ellipse fill="none" stroke="black" stroke-width="2" cx="1217.1" cy="-237" rx="49.1" ry="18"/>
<text text-anchor="middle" x="1217.1" y="-232.32" font-family="Times,serif" font-size="14.00">q13:1.0</text>
</g>
<!-- q9:0.0&#45;&gt;q13:1.0 -->
<g id="edge20" class="edge">
<title>q9:0.0&#45;&gt;q13:1.0</title>
<path fill="none" stroke="black" d="M1005.5,-237C1046.7,-237 1109.5,-237 1155.8,-237"/>
<polygon fill="black" stroke="black" points="1155.69,-240.5 1165.69,-237 1155.69,-233.5 1155.69,-240.5"/>
<text text-anchor="middle" x="1080" y="-240.94" font-family="Times,serif" font-size="14.00">RSET/250:1.0</text>
</g>
<!-- q10:0.667 -->
<g id="node19" class="node">
<title>q10:0.667</title>
<ellipse fill="none" stroke="black" stroke-width="2" cx="1217.1" cy="-291" rx="61.73" ry="18"/>
<text text-anchor="middle" x="1217.1" y="-286.32" font-family="Times,serif" font-size="14.00">q10:0.667</text>
</g>
<!-- q7:0.0&#45;&gt;q10:0.667 -->
<g id="edge21" class="edge">
<title>q7:0.0&#45;&gt;q10:0.667</title>
<path fill="none" stroke="black" d="M1005.5,-291C1043.1,-291 1098.7,-291 1143.4,-291"/>
<polygon fill="black" stroke="black" points="1143.19,-294.5 1153.19,-291 1143.19,-287.5 1143.19,-294.5"/>
<text text-anchor="middle" x="1080" y="-294.94" font-family="Times,serif" font-size="14.00">content/535:1.0</text>
</g>
<!-- q14:1.0 -->
<g id="node24" class="node">
<title>q14:1.0</title>
<ellipse fill="none" stroke="black" stroke-width="2" cx="1494.5" cy="-291" rx="49.1" ry="18"/>
<text text-anchor="middle" x="1494.5" y="-286.32" font-family="Times,serif" font-size="14.00">q14:1.0</text>
</g>
<!-- q10:0.667&#45;&gt;q14:1.0 -->
<g id="edge27" class="edge">
<title>q10:0.667&#45;&gt;q14:1.0</title>
<path fill="none" stroke="black" d="M1279.6,-291C1325.4,-291 1387.6,-291 1433.1,-291"/>
<polygon fill="black" stroke="black" points="1433.09,-294.5 1443.09,-291 1433.09,-287.5 1433.09,-294.5"/>
<text text-anchor="middle" x="1362.1" y="-294.94" font-family="Times,serif" font-size="14.00">λ/451:0.333</text>
</g>
<!-- q1:0.0 -->
<g id="node20" class="node">
<title>q1:0.0</title>
<ellipse fill="none" stroke="black" stroke-width="2" cx="243.87" cy="-194" rx="42.79" ry="18"/>
<text text-anchor="middle" x="243.87" y="-189.32" font-family="Times,serif" font-size="14.00">q1:0.0</text>
</g>
<!-- q1:0.0&#45;&gt;q2:0.0 -->
<g id="edge22" class="edge">
<title>q1:0.0&#45;&gt;q2:0.0</title>
<path fill="none" stroke="black" d="M285.66,-199.64C326.01,-205.21 387.94,-213.77 431.79,-219.83"/>
<polygon fill="black" stroke="black" points="431.19,-223.28 441.58,-221.18 432.15,-216.35 431.19,-223.28"/>
<text text-anchor="middle" x="364.29" y="-221.94" font-family="Times,serif" font-size="14.00">EHLO/250:0.996</text>
</g>
<!-- q3:0.0 -->
<g id="node21" class="node">
<title>q3:0.0</title>
<ellipse fill="none" stroke="black" stroke-width="2" cx="484.7" cy="-167" rx="42.79" ry="18"/>
<text text-anchor="middle" x="484.7" y="-162.32" font-family="Times,serif" font-size="14.00">q3:0.0</text>
</g>
<!-- q1:0.0&#45;&gt;q3:0.0 -->
<g id="edge23" class="edge">
<title>q1:0.0&#45;&gt;q3:0.0</title>
<path fill="none" stroke="black" d="M279.7,-183.24C287.82,-181.1 296.49,-179.09 304.66,-177.75 346.39,-170.9 394.23,-168.29 429.95,-167.35"/>
<polygon fill="black" stroke="black" points="429.66,-170.86 439.59,-167.14 429.51,-163.86 429.66,-170.86"/>
<text text-anchor="middle" x="364.29" y="-180.94" font-family="Times,serif" font-size="14.00">EHLO/λ:0.004</text>
</g>
<!-- q3:0.0&#45;&gt;q5:0.0 -->
<g id="edge24" class="edge">
<title>q3:0.0&#45;&gt;q5:0.0</title>
<path fill="none" stroke="black" d="M523.16,-158.14C530.52,-156.74 538.22,-155.5 545.49,-154.75 587.48,-150.4 635.3,-150.46 670.96,-151.47"/>
<polygon fill="black" stroke="black" points="670.46,-154.96 680.57,-151.77 670.68,-147.96 670.46,-154.96"/>
<text text-anchor="middle" x="605.12" y="-157.94" font-family="Times,serif" font-size="14.00">AUTH/235:1.0</text>
</g>
<!-- q0:0.0 -->
<g id="node23" class="node">
<title>q0:0.0</title>
<ellipse fill="none" stroke="black" stroke-width="2" cx="50.79" cy="-194" rx="46.79" ry="46.79"/>
<ellipse fill="none" stroke="black" stroke-width="2" cx="50.79" cy="-194" rx="50.79" ry="50.79"/>
<text text-anchor="middle" x="50.79" y="-189.32" font-family="Times,serif" font-size="14.00">q0:0.0</text>
</g>
<!-- q0:0.0&#45;&gt;q1:0.0 -->
<g id="edge26" class="edge">
<title>q0:0.0&#45;&gt;q1:0.0</title>
<path fill="none" stroke="black" d="M98.53,-194C125.82,-194 160.37,-194 188.82,-194"/>
<polygon fill="black" stroke="black" points="188.69,-197.5 198.69,-194 188.69,-190.5 188.69,-197.5"/>
<text text-anchor="middle" x="149.33" y="-197.94" font-family="Times,serif" font-size="14.00">λ/220:1.0</text>
</g>
</g>
</svg>
