<?xml version="1.0" encoding="UTF-8" standalone="no"?>
<!DOCTYPE svg PUBLIC "-//W3C//DTD SVG 1.1//EN"
 "http://www.w3.org/Graphics/SVG/1.1/DTD/svg11.dtd">
<!-- Generated by graphviz version 12.0.0 (20240803.0821)
 -->
<!-- Pages: 1 -->
<svg width="1734pt" height="217pt"
 viewBox="0.00 0.00 1734.39 217.00" xmlns="http://www.w3.org/2000/svg" xmlns:xlink="http://www.w3.org/1999/xlink">
<g id="graph0" class="graph" transform="scale(1 1) rotate(0) translate(4 213)">
<polygon fill="white" stroke="none" points="-4,4 -4,-213 1730.39,-213 1730.39,4 -4,4"/>
<!-- q13:&#45;1 -->
<g id="node1" class="node">
<title>q13:&#45;1</title>
<ellipse fill="none" stroke="black" stroke-width="2" cx="1247.6" cy="-45" rx="42.79" ry="18"/>
<text text-anchor="middle" x="1247.6" y="-40.33" font-family="Times,serif" font-size="14.00">q13:&#45;1</text>
</g>
<!-- q13:&#45;1&#45;&gt;q13:&#45;1 -->
<g id="edge1" class="edge">
<title>q13:&#45;1&#45;&gt;q13:&#45;1</title>
<path fill="none" stroke="black" d="M1229.1,-62.04C1225.3,-71.86 1231.5,-81 1247.6,-81 1257,-81 1263,-77.94 1265.7,-73.47"/>
<polygon fill="black" stroke="black" points="1269.19,-73.69 1266.14,-63.55 1262.2,-73.39 1269.19,-73.69"/>
<text text-anchor="middle" x="1247.6" y="-84.95" font-family="Times,serif" font-size="14.00">content/位:&#45;1</text>
</g>
<!-- q14:&#45;1 -->
<g id="node2" class="node">
<title>q14:&#45;1</title>
<ellipse fill="none" stroke="black" stroke-width="2" cx="1472.7" cy="-72" rx="42.79" ry="18"/>
<text text-anchor="middle" x="1472.7" y="-67.33" font-family="Times,serif" font-size="14.00">q14:&#45;1</text>
</g>
<!-- q13:&#45;1&#45;&gt;q14:&#45;1 -->
<g id="edge2" class="edge">
<title>q13:&#45;1&#45;&gt;q14:&#45;1</title>
<path fill="none" stroke="black" d="M1289.8,-49.98C1326.4,-54.41 1380,-60.89 1419.5,-65.68"/>
<polygon fill="black" stroke="black" points="1418.95,-69.14 1429.3,-66.86 1419.79,-62.19 1418.95,-69.14"/>
<text text-anchor="middle" x="1360.2" y="-68.95" font-family="Times,serif" font-size="14.00">content/250:&#45;1</text>
</g>
<!-- q15:&#45;1 -->
<g id="node3" class="node">
<title>q15:&#45;1</title>
<ellipse fill="none" stroke="black" stroke-width="2" cx="1472.7" cy="-18" rx="42.79" ry="18"/>
<text text-anchor="middle" x="1472.7" y="-13.32" font-family="Times,serif" font-size="14.00">q15:&#45;1</text>
</g>
<!-- q13:&#45;1&#45;&gt;q15:&#45;1 -->
<g id="edge3" class="edge">
<title>q13:&#45;1&#45;&gt;q15:&#45;1</title>
<path fill="none" stroke="black" d="M1285.8,-35.95C1293.3,-34.37 1301.1,-32.87 1308.4,-31.75 1344.8,-26.22 1386,-22.77 1417.9,-20.71"/>
<polygon fill="black" stroke="black" points="1417.93,-24.22 1427.69,-20.11 1417.49,-17.23 1417.93,-24.22"/>
<text text-anchor="middle" x="1360.2" y="-35.95" font-family="Times,serif" font-size="14.00">content/554:&#45;1</text>
</g>
<!-- q16:&#45;1 -->
<g id="node4" class="node">
<title>q16:&#45;1</title>
<ellipse fill="none" stroke="black" stroke-width="2" cx="1683.6" cy="-72" rx="42.79" ry="18"/>
<text text-anchor="middle" x="1683.6" y="-67.33" font-family="Times,serif" font-size="14.00">q16:&#45;1</text>
</g>
<!-- q14:&#45;1&#45;&gt;q16:&#45;1 -->
<g id="edge4" class="edge">
<title>q14:&#45;1&#45;&gt;q16:&#45;1</title>
<path fill="none" stroke="black" d="M1516.5,-72C1548.9,-72 1593.6,-72 1628.4,-72"/>
<polygon fill="black" stroke="black" points="1628.29,-75.5 1638.29,-72 1628.29,-68.5 1628.29,-75.5"/>
<text text-anchor="middle" x="1578.1" y="-75.95" font-family="Times,serif" font-size="14.00">QUIT/221:&#45;1</text>
</g>
<!-- q17:&#45;1 -->
<g id="node5" class="node">
<title>q17:&#45;1</title>
<ellipse fill="none" stroke="black" stroke-width="2" cx="1683.6" cy="-18" rx="42.79" ry="18"/>
<text text-anchor="middle" x="1683.6" y="-13.32" font-family="Times,serif" font-size="14.00">q17:&#45;1</text>
</g>
<!-- q15:&#45;1&#45;&gt;q17:&#45;1 -->
<g id="edge5" class="edge">
<title>q15:&#45;1&#45;&gt;q17:&#45;1</title>
<path fill="none" stroke="black" d="M1516.5,-18C1548.9,-18 1593.6,-18 1628.4,-18"/>
<polygon fill="black" stroke="black" points="1628.29,-21.5 1638.29,-18 1628.29,-14.5 1628.29,-21.5"/>
<text text-anchor="middle" x="1578.1" y="-21.95" font-family="Times,serif" font-size="14.00">RSET/250:&#45;1</text>
</g>
<!-- q9:&#45;1 -->
<g id="node6" class="node">
<title>q9:&#45;1</title>
<ellipse fill="none" stroke="black" stroke-width="2" cx="1038.3" cy="-191" rx="36.48" ry="18"/>
<text text-anchor="middle" x="1038.3" y="-186.32" font-family="Times,serif" font-size="14.00">q9:&#45;1</text>
</g>
<!-- q12:&#45;1 -->
<g id="node7" class="node">
<title>q12:&#45;1</title>
<ellipse fill="none" stroke="black" stroke-width="2" cx="1247.6" cy="-191" rx="42.79" ry="18"/>
<text text-anchor="middle" x="1247.6" y="-186.32" font-family="Times,serif" font-size="14.00">q12:&#45;1</text>
</g>
<!-- q9:&#45;1&#45;&gt;q12:&#45;1 -->
<g id="edge6" class="edge">
<title>q9:&#45;1&#45;&gt;q12:&#45;1</title>
<path fill="none" stroke="black" d="M1075.4,-191C1107.9,-191 1156.1,-191 1193.1,-191"/>
<polygon fill="black" stroke="black" points="1192.59,-194.5 1202.59,-191 1192.59,-187.5 1192.59,-194.5"/>
<text text-anchor="middle" x="1143" y="-194.94" font-family="Times,serif" font-size="14.00">位/451:&#45;1</text>
</g>
<!-- q2:&#45;1 -->
<g id="node8" class="node">
<title>q2:&#45;1</title>
<ellipse fill="none" stroke="black" stroke-width="2" cx="417.13" cy="-165" rx="36.48" ry="18"/>
<text text-anchor="middle" x="417.13" y="-160.32" font-family="Times,serif" font-size="14.00">q2:&#45;1</text>
</g>
<!-- q4:&#45;1 -->
<g id="node9" class="node">
<title>q4:&#45;1</title>
<ellipse fill="none" stroke="black" stroke-width="2" cx="618.34" cy="-191" rx="36.48" ry="18"/>
<text text-anchor="middle" x="618.34" y="-186.32" font-family="Times,serif" font-size="14.00">q4:&#45;1</text>
</g>
<!-- q2:&#45;1&#45;&gt;q4:&#45;1 -->
<g id="edge7" class="edge">
<title>q2:&#45;1&#45;&gt;q4:&#45;1</title>
<path fill="none" stroke="black" d="M453.29,-169.59C486.05,-173.86 535.1,-180.27 571.03,-184.96"/>
<polygon fill="black" stroke="black" points="570.33,-188.4 580.7,-186.22 571.23,-181.46 570.33,-188.4"/>
<text text-anchor="middle" x="517.74" y="-186.94" font-family="Times,serif" font-size="14.00">AUTH/535:&#45;1</text>
</g>
<!-- q5:&#45;1 -->
<g id="node10" class="node">
<title>q5:&#45;1</title>
<ellipse fill="none" stroke="black" stroke-width="2" cx="618.34" cy="-124" rx="36.48" ry="18"/>
<text text-anchor="middle" x="618.34" y="-119.33" font-family="Times,serif" font-size="14.00">q5:&#45;1</text>
</g>
<!-- q2:&#45;1&#45;&gt;q5:&#45;1 -->
<g id="edge8" class="edge">
<title>q2:&#45;1&#45;&gt;q5:&#45;1</title>
<path fill="none" stroke="black" d="M449.99,-156.07C457.08,-154.21 464.58,-152.33 471.61,-150.75 504.81,-143.29 542.61,-136.4 571.39,-131.48"/>
<polygon fill="black" stroke="black" points="571.96,-134.93 581.24,-129.81 570.8,-128.03 571.96,-134.93"/>
<text text-anchor="middle" x="517.74" y="-153.94" font-family="Times,serif" font-size="14.00">AUTH/235:&#45;1</text>
</g>
<!-- q6:&#45;1 -->
<g id="node11" class="node">
<title>q6:&#45;1</title>
<ellipse fill="none" stroke="black" stroke-width="2" cx="819.54" cy="-191" rx="36.48" ry="18"/>
<text text-anchor="middle" x="819.54" y="-186.32" font-family="Times,serif" font-size="14.00">q6:&#45;1</text>
</g>
<!-- q4:&#45;1&#45;&gt;q6:&#45;1 -->
<g id="edge9" class="edge">
<title>q4:&#45;1&#45;&gt;q6:&#45;1</title>
<path fill="none" stroke="black" d="M655.41,-191C687.89,-191 735.83,-191 771.34,-191"/>
<polygon fill="black" stroke="black" points="770.89,-194.5 780.89,-191 770.89,-187.5 770.89,-194.5"/>
<text text-anchor="middle" x="718.94" y="-194.94" font-family="Times,serif" font-size="14.00">AUTH/334:&#45;1</text>
</g>
<!-- q8:&#45;1 -->
<g id="node12" class="node">
<title>q8:&#45;1</title>
<ellipse fill="none" stroke="black" stroke-width="2" cx="819.54" cy="-132" rx="36.48" ry="18"/>
<text text-anchor="middle" x="819.54" y="-127.33" font-family="Times,serif" font-size="14.00">q8:&#45;1</text>
</g>
<!-- q5:&#45;1&#45;&gt;q8:&#45;1 -->
<g id="edge10" class="edge">
<title>q5:&#45;1&#45;&gt;q8:&#45;1</title>
<path fill="none" stroke="black" d="M655.41,-125.45C687.89,-126.75 735.83,-128.68 771.34,-130.1"/>
<polygon fill="black" stroke="black" points="770.76,-133.58 780.89,-130.49 771.04,-126.58 770.76,-133.58"/>
<text text-anchor="middle" x="718.94" y="-133.94" font-family="Times,serif" font-size="14.00">MAIL/553:&#45;1</text>
</g>
<!-- q7:&#45;1 -->
<g id="node13" class="node">
<title>q7:&#45;1</title>
<ellipse fill="none" stroke="black" stroke-width="2" cx="819.54" cy="-70" rx="36.48" ry="18"/>
<text text-anchor="middle" x="819.54" y="-65.33" font-family="Times,serif" font-size="14.00">q7:&#45;1</text>
</g>
<!-- q5:&#45;1&#45;&gt;q7:&#45;1 -->
<g id="edge11" class="edge">
<title>q5:&#45;1&#45;&gt;q7:&#45;1</title>
<path fill="none" stroke="black" d="M649.17,-113.3C656.83,-110.69 665.1,-108.01 672.82,-105.75 706.47,-95.9 745.03,-86.52 774.03,-79.84"/>
<polygon fill="black" stroke="black" points="774.59,-83.31 783.57,-77.67 773.04,-76.48 774.59,-83.31"/>
<text text-anchor="middle" x="718.94" y="-109.95" font-family="Times,serif" font-size="14.00">MAIL/250:&#45;1</text>
</g>
<!-- q6:&#45;1&#45;&gt;q9:&#45;1 -->
<g id="edge12" class="edge">
<title>q6:&#45;1&#45;&gt;q9:&#45;1</title>
<path fill="none" stroke="black" d="M856.82,-191C893.24,-191 949.54,-191 989.57,-191"/>
<polygon fill="black" stroke="black" points="989.4,-194.5 999.4,-191 989.4,-187.5 989.4,-194.5"/>
<text text-anchor="middle" x="925.77" y="-194.94" font-family="Times,serif" font-size="14.00">content/535:&#45;1</text>
</g>
<!-- q11:&#45;1 -->
<g id="node14" class="node">
<title>q11:&#45;1</title>
<ellipse fill="none" stroke="black" stroke-width="2" cx="1038.3" cy="-134" rx="42.79" ry="18"/>
<text text-anchor="middle" x="1038.3" y="-129.32" font-family="Times,serif" font-size="14.00">q11:&#45;1</text>
</g>
<!-- q8:&#45;1&#45;&gt;q11:&#45;1 -->
<g id="edge13" class="edge">
<title>q8:&#45;1&#45;&gt;q11:&#45;1</title>
<path fill="none" stroke="black" d="M856.82,-132.33C891.38,-132.65 943.83,-133.14 983.29,-133.5"/>
<polygon fill="black" stroke="black" points="983.02,-137 993.06,-133.6 983.09,-130 983.02,-137"/>
<text text-anchor="middle" x="925.77" y="-137.94" font-family="Times,serif" font-size="14.00">RSET/250:&#45;1</text>
</g>
<!-- q10:&#45;1 -->
<g id="node15" class="node">
<title>q10:&#45;1</title>
<ellipse fill="none" stroke="black" stroke-width="2" cx="1038.3" cy="-45" rx="42.79" ry="18"/>
<text text-anchor="middle" x="1038.3" y="-40.33" font-family="Times,serif" font-size="14.00">q10:&#45;1</text>
</g>
<!-- q7:&#45;1&#45;&gt;q10:&#45;1 -->
<g id="edge14" class="edge">
<title>q7:&#45;1&#45;&gt;q10:&#45;1</title>
<path fill="none" stroke="black" d="M855.85,-65.93C890.79,-61.9 944.7,-55.68 984.69,-51.07"/>
<polygon fill="black" stroke="black" points="985.05,-54.55 994.59,-49.93 984.25,-47.6 985.05,-54.55"/>
<text text-anchor="middle" x="925.77" y="-67.95" font-family="Times,serif" font-size="14.00">RCPT/250:&#45;1</text>
</g>
<!-- q10:&#45;1&#45;&gt;q13:&#45;1 -->
<g id="edge15" class="edge">
<title>q10:&#45;1&#45;&gt;q13:&#45;1</title>
<path fill="none" stroke="black" d="M1082,-45C1114.1,-45 1158.2,-45 1192.7,-45"/>
<polygon fill="black" stroke="black" points="1192.49,-48.5 1202.49,-45 1192.49,-41.5 1192.49,-48.5"/>
<text text-anchor="middle" x="1143" y="-48.95" font-family="Times,serif" font-size="14.00">DATA/354:&#45;1</text>
</g>
<!-- q10:&#45;1&#45;&gt;q10:&#45;1 -->
<g id="edge16" class="edge">
<title>q10:&#45;1&#45;&gt;q10:&#45;1</title>
<path fill="none" stroke="black" d="M1019.8,-62.04C1016,-71.86 1022.2,-81 1038.3,-81 1047.6,-81 1053.7,-77.94 1056.3,-73.47"/>
<polygon fill="black" stroke="black" points="1059.79,-73.72 1056.82,-63.55 1052.8,-73.35 1059.79,-73.72"/>
<text text-anchor="middle" x="1038.3" y="-84.95" font-family="Times,serif" font-size="14.00">RCPT/250:&#45;1</text>
</g>
<!-- q1:&#45;1 -->
<g id="node16" class="node">
<title>q1:&#45;1</title>
<ellipse fill="none" stroke="black" stroke-width="2" cx="215.93" cy="-138" rx="36.48" ry="18"/>
<text text-anchor="middle" x="215.93" y="-133.32" font-family="Times,serif" font-size="14.00">q1:&#45;1</text>
</g>
<!-- q1:&#45;1&#45;&gt;q2:&#45;1 -->
<g id="edge17" class="edge">
<title>q1:&#45;1&#45;&gt;q2:&#45;1</title>
<path fill="none" stroke="black" d="M252.09,-142.76C284.84,-147.2 333.89,-153.85 369.83,-158.72"/>
<polygon fill="black" stroke="black" points="369.12,-162.16 379.5,-160.04 370.06,-155.22 369.12,-162.16"/>
<text text-anchor="middle" x="316.53" y="-160.94" font-family="Times,serif" font-size="14.00">EHLO/250:&#45;1</text>
</g>
<!-- q3:&#45;1 -->
<g id="node17" class="node">
<title>q3:&#45;1</title>
<ellipse fill="none" stroke="black" stroke-width="2" cx="417.13" cy="-111" rx="36.48" ry="18"/>
<text text-anchor="middle" x="417.13" y="-106.33" font-family="Times,serif" font-size="14.00">q3:&#45;1</text>
</g>
<!-- q1:&#45;1&#45;&gt;q3:&#45;1 -->
<g id="edge18" class="edge">
<title>q1:&#45;1&#45;&gt;q3:&#45;1</title>
<path fill="none" stroke="black" d="M248.4,-128.65C255.58,-126.78 263.22,-125.01 270.41,-123.75 302.95,-118.04 340.04,-114.84 368.66,-113.07"/>
<polygon fill="black" stroke="black" points="368.69,-116.57 378.47,-112.51 368.29,-109.59 368.69,-116.57"/>
<text text-anchor="middle" x="316.53" y="-127.95" font-family="Times,serif" font-size="14.00">EHLO/位:&#45;1</text>
</g>
<!-- q3:&#45;1&#45;&gt;q5:&#45;1 -->
<g id="edge19" class="edge">
<title>q3:&#45;1&#45;&gt;q5:&#45;1</title>
<path fill="none" stroke="black" d="M454.2,-108.99C483.77,-107.87 526.67,-107.45 563.86,-111.75 567.1,-112.12 570.43,-112.62 573.76,-113.19"/>
<polygon fill="black" stroke="black" points="573.05,-116.62 583.54,-115.11 574.4,-109.75 573.05,-116.62"/>
<text text-anchor="middle" x="517.74" y="-115.95" font-family="Times,serif" font-size="14.00">AUTH/235:&#45;1</text>
</g>
<!-- q0:&#45;1 -->
<g id="node18" class="node">
<title>q0:&#45;1</title>
<ellipse fill="none" stroke="black" stroke-width="2" cx="44.48" cy="-138" rx="40.48" ry="40.48"/>
<ellipse fill="none" stroke="black" stroke-width="2" cx="44.48" cy="-138" rx="44.48" ry="44.48"/>
<text text-anchor="middle" x="44.48" y="-133.32" font-family="Times,serif" font-size="14.00">q0:&#45;1</text>
</g>
<!-- q0:&#45;1&#45;&gt;q1:&#45;1 -->
<g id="edge20" class="edge">
<title>q0:&#45;1&#45;&gt;q1:&#45;1</title>
<path fill="none" stroke="black" d="M85.64,-138C110.08,-138 141.44,-138 167.15,-138"/>
<polygon fill="black" stroke="black" points="167.02,-141.5 177.02,-138 167.02,-134.5 167.02,-141.5"/>
<text text-anchor="middle" x="132.2" y="-141.94" font-family="Times,serif" font-size="14.00">位/220:&#45;1</text>
</g>
</g>
</svg>
