<?xml version="1.0" encoding="UTF-8" standalone="no"?>
<!DOCTYPE svg PUBLIC "-//W3C//DTD SVG 1.1//EN"
 "http://www.w3.org/Graphics/SVG/1.1/DTD/svg11.dtd">
<!-- Generated by graphviz version 12.0.0 (20240803.0821)
 -->
<!-- Pages: 1 -->
<svg width="3485pt" height="917pt"
 viewBox="0.00 0.00 3485.00 917.49" xmlns="http://www.w3.org/2000/svg" xmlns:xlink="http://www.w3.org/1999/xlink">
<g id="graph0" class="graph" transform="scale(1 1) rotate(0) translate(4 913.49)">
<polygon fill="white" stroke="none" points="-4,4 -4,-913.49 3481,-913.49 3481,4 -4,4"/>
<!-- q18:0.0 -->
<g id="node1" class="node">
<title>q18:0.0</title>
<ellipse fill="none" stroke="black" stroke-width="2" cx="491.01" cy="-766.07" rx="49.1" ry="18"/>
<text text-anchor="middle" x="491.01" y="-761.4" font-family="Times,serif" font-size="14.00">q18:0.0</text>
</g>
<!-- q24:0.0 -->
<g id="node2" class="node">
<title>q24:0.0</title>
<ellipse fill="none" stroke="black" stroke-width="2" cx="1706" cy="-824.07" rx="49.1" ry="18"/>
<text text-anchor="middle" x="1706" y="-819.4" font-family="Times,serif" font-size="14.00">q24:0.0</text>
</g>
<!-- q18:0.0&#45;&gt;q24:0.0 -->
<g id="edge1" class="edge">
<title>q18:0.0&#45;&gt;q24:0.0</title>
<path fill="none" stroke="black" d="M515.63,-782.54C527.75,-790.03 543.09,-798.08 558.12,-802.07 963.69,-909.49 1478.5,-855 1648,-832.34"/>
<polygon fill="black" stroke="black" points="1648.46,-835.81 1657.9,-831.01 1647.52,-828.88 1648.46,-835.81"/>
<text text-anchor="middle" x="1083.9" y="-887.27" font-family="Times,serif" font-size="14.00">content/250:0.053</text>
<text text-anchor="middle" x="1083.9" y="-870.02" font-family="Times,serif" font-size="14.00">b0 in {&#39;ok queue id 66655249283639&#39;, &#39;Mail OK queued as smtp7 DsmowACnQhEm3V5f05EWJQ&#45;&#45;.9238S2 1600052518&#39;}</text>
</g>
<!-- q14:0.0 -->
<g id="node3" class="node">
<title>q14:0.0</title>
<ellipse fill="none" stroke="black" stroke-width="2" cx="1706" cy="-712.07" rx="49.1" ry="18"/>
<text text-anchor="middle" x="1706" y="-707.4" font-family="Times,serif" font-size="14.00">q14:0.0</text>
</g>
<!-- q18:0.0&#45;&gt;q14:0.0 -->
<g id="edge2" class="edge">
<title>q18:0.0&#45;&gt;q14:0.0</title>
<path fill="none" stroke="black" d="M506.44,-748.24C518.59,-734.74 537.3,-717.25 558.12,-709.57 777.33,-628.65 1376,-706.5 1609.6,-709.57 1621.2,-709.72 1633.5,-709.97 1645.3,-710.26"/>
<polygon fill="black" stroke="black" points="1644.9,-713.75 1654.99,-710.51 1645.08,-706.76 1644.9,-713.75"/>
<text text-anchor="middle" x="1083.9" y="-730.27" font-family="Times,serif" font-size="14.00">content/λ:0.947</text>
<text text-anchor="middle" x="1083.9" y="-713.02" font-family="Times,serif" font-size="14.00">a0 = b0</text>
</g>
<!-- q30:1.0 -->
<g id="node4" class="node">
<title>q30:1.0</title>
<ellipse fill="none" stroke="black" stroke-width="2" cx="2591" cy="-824.07" rx="49.1" ry="18"/>
<text text-anchor="middle" x="2591" y="-819.4" font-family="Times,serif" font-size="14.00">q30:1.0</text>
</g>
<!-- q24:0.0&#45;&gt;q30:1.0 -->
<g id="edge3" class="edge">
<title>q24:0.0&#45;&gt;q30:1.0</title>
<path fill="none" stroke="black" d="M1756,-824.07C1907,-824.07 2364.2,-824.07 2529.5,-824.07"/>
<polygon fill="black" stroke="black" points="2529.39,-827.57 2539.39,-824.07 2529.39,-820.57 2529.39,-827.57"/>
<text text-anchor="middle" x="2163.1" y="-845.27" font-family="Times,serif" font-size="14.00">QUIT/221:1.0</text>
<text text-anchor="middle" x="2163.1" y="-828.02" font-family="Times,serif" font-size="14.00">b0 in {&#39;Bye&#39;, &#39;smtp&#45;97&#45;27.smtpsmail.fmail.bx.sinanode.com&#39;}</text>
</g>
<!-- q14:0.0&#45;&gt;q18:0.0 -->
<g id="edge4" class="edge">
<title>q14:0.0&#45;&gt;q18:0.0</title>
<path fill="none" stroke="black" d="M1672.1,-725.86C1654,-732.74 1631,-740.37 1609.6,-744.07 1505.5,-762.12 769.97,-765.38 552.46,-765.95"/>
<polygon fill="black" stroke="black" points="552.48,-762.45 542.49,-765.98 552.5,-769.45 552.48,-762.45"/>
<text text-anchor="middle" x="1083.9" y="-786.27" font-family="Times,serif" font-size="14.00">content/λ:0.299</text>
<text text-anchor="middle" x="1083.9" y="-769.02" font-family="Times,serif" font-size="14.00">a0 = b0</text>
</g>
<!-- q19:0.0 -->
<g id="node5" class="node">
<title>q19:0.0</title>
<ellipse fill="none" stroke="black" stroke-width="2" cx="2591" cy="-712.07" rx="49.1" ry="18"/>
<text text-anchor="middle" x="2591" y="-707.4" font-family="Times,serif" font-size="14.00">q19:0.0</text>
</g>
<!-- q14:0.0&#45;&gt;q19:0.0 -->
<g id="edge5" class="edge">
<title>q14:0.0&#45;&gt;q19:0.0</title>
<path fill="none" stroke="black" d="M1756,-712.07C1907,-712.07 2364.2,-712.07 2529.5,-712.07"/>
<polygon fill="black" stroke="black" points="2529.39,-715.57 2539.39,-712.07 2529.39,-708.57 2529.39,-715.57"/>
<text text-anchor="middle" x="2163.1" y="-716.02" font-family="Times,serif" font-size="14.00">content/250:0.173</text>
</g>
<!-- q20:0.0 -->
<g id="node6" class="node">
<title>q20:0.0</title>
<ellipse fill="none" stroke="black" stroke-width="2" cx="2591" cy="-768.07" rx="49.1" ry="18"/>
<text text-anchor="middle" x="2591" y="-763.4" font-family="Times,serif" font-size="14.00">q20:0.0</text>
</g>
<!-- q14:0.0&#45;&gt;q20:0.0 -->
<g id="edge6" class="edge">
<title>q14:0.0&#45;&gt;q20:0.0</title>
<path fill="none" stroke="black" d="M1747.6,-722.62C1764.4,-726.57 1784.2,-730.68 1802.4,-733.07 2072.1,-768.48 2397.7,-770 2529.9,-768.91"/>
<polygon fill="black" stroke="black" points="2529.82,-772.41 2539.79,-768.83 2529.76,-765.41 2529.82,-772.41"/>
<text text-anchor="middle" x="2163.1" y="-773.02" font-family="Times,serif" font-size="14.00">content/554:0.528</text>
</g>
<!-- q25:1.0 -->
<g id="node7" class="node">
<title>q25:1.0</title>
<ellipse fill="none" stroke="black" stroke-width="2" cx="3191.7" cy="-712.07" rx="49.1" ry="18"/>
<text text-anchor="middle" x="3191.7" y="-707.4" font-family="Times,serif" font-size="14.00">q25:1.0</text>
</g>
<!-- q19:0.0&#45;&gt;q25:1.0 -->
<g id="edge7" class="edge">
<title>q19:0.0&#45;&gt;q25:1.0</title>
<path fill="none" stroke="black" d="M2641,-712.07C2749.9,-712.07 3011.8,-712.07 3130.5,-712.07"/>
<polygon fill="black" stroke="black" points="3130.29,-715.57 3140.29,-712.07 3130.29,-708.57 3130.29,-715.57"/>
<text text-anchor="middle" x="2891.3" y="-733.27" font-family="Times,serif" font-size="14.00">QUIT/221:1.0</text>
<text text-anchor="middle" x="2891.3" y="-716.02" font-family="Times,serif" font-size="14.00">b0 = Bye</text>
</g>
<!-- q26:1.0 -->
<g id="node8" class="node">
<title>q26:1.0</title>
<ellipse fill="none" stroke="black" stroke-width="2" cx="3191.7" cy="-770.07" rx="49.1" ry="18"/>
<text text-anchor="middle" x="3191.7" y="-765.4" font-family="Times,serif" font-size="14.00">q26:1.0</text>
</g>
<!-- q20:0.0&#45;&gt;q26:1.0 -->
<g id="edge8" class="edge">
<title>q20:0.0&#45;&gt;q26:1.0</title>
<path fill="none" stroke="black" d="M2641,-768.23C2749.9,-768.59 3011.8,-769.47 3130.5,-769.87"/>
<polygon fill="black" stroke="black" points="3130.28,-773.37 3140.29,-769.9 3130.3,-766.37 3130.28,-773.37"/>
<text text-anchor="middle" x="2891.3" y="-790.27" font-family="Times,serif" font-size="14.00">RSET/250:1.0</text>
<text text-anchor="middle" x="2891.3" y="-773.02" font-family="Times,serif" font-size="14.00">b0 = OK</text>
</g>
<!-- q1:0.0 -->
<g id="node9" class="node">
<title>q1:0.0</title>
<ellipse fill="none" stroke="black" stroke-width="2" cx="243.87" cy="-328.07" rx="42.79" ry="18"/>
<text text-anchor="middle" x="243.87" y="-323.4" font-family="Times,serif" font-size="14.00">q1:0.0</text>
</g>
<!-- q3:0.0 -->
<g id="node10" class="node">
<title>q3:0.0</title>
<ellipse fill="none" stroke="black" stroke-width="2" cx="491.01" cy="-262.07" rx="42.79" ry="18"/>
<text text-anchor="middle" x="491.01" y="-257.4" font-family="Times,serif" font-size="14.00">q3:0.0</text>
</g>
<!-- q1:0.0&#45;&gt;q3:0.0 -->
<g id="edge9" class="edge">
<title>q1:0.0&#45;&gt;q3:0.0</title>
<path fill="none" stroke="black" d="M281.31,-318.26C324.28,-306.69 395.81,-287.43 442.94,-274.74"/>
<polygon fill="black" stroke="black" points="443.57,-278.2 452.32,-272.22 441.75,-271.44 443.57,-278.2"/>
<text text-anchor="middle" x="364.29" y="-315.02" font-family="Times,serif" font-size="14.00">EHLO/250:0.992</text>
</g>
<!-- q2:0.0 -->
<g id="node11" class="node">
<title>q2:0.0</title>
<ellipse fill="none" stroke="black" stroke-width="2" cx="491.01" cy="-360.07" rx="42.79" ry="18"/>
<text text-anchor="middle" x="491.01" y="-355.4" font-family="Times,serif" font-size="14.00">q2:0.0</text>
</g>
<!-- q1:0.0&#45;&gt;q2:0.0 -->
<g id="edge10" class="edge">
<title>q1:0.0&#45;&gt;q2:0.0</title>
<path fill="none" stroke="black" d="M285.63,-333.39C327.33,-338.83 392.3,-347.31 437.76,-353.25"/>
<polygon fill="black" stroke="black" points="437.29,-356.72 447.66,-354.54 438.19,-349.78 437.29,-356.72"/>
<text text-anchor="middle" x="364.29" y="-371.27" font-family="Times,serif" font-size="14.00">EHLO/λ:0.008</text>
<text text-anchor="middle" x="364.29" y="-354.02" font-family="Times,serif" font-size="14.00">a0 = [127.0.1.1]</text>
</g>
<!-- q5:0.0 -->
<g id="node12" class="node">
<title>q5:0.0</title>
<ellipse fill="none" stroke="black" stroke-width="2" cx="1706" cy="-239.07" rx="42.79" ry="18"/>
<text text-anchor="middle" x="1706" y="-234.4" font-family="Times,serif" font-size="14.00">q5:0.0</text>
</g>
<!-- q3:0.0&#45;&gt;q5:0.0 -->
<g id="edge11" class="edge">
<title>q3:0.0&#45;&gt;q5:0.0</title>
<path fill="none" stroke="black" d="M523.45,-249.47C534.26,-245.75 546.55,-242.18 558.12,-240.32 772.44,-205.84 1453.7,-229.19 1651,-236.87"/>
<polygon fill="black" stroke="black" points="1650.86,-240.37 1660.99,-237.26 1651.13,-233.38 1650.86,-240.37"/>
<text text-anchor="middle" x="1083.9" y="-279.52" font-family="Times,serif" font-size="14.00">AUTH/235:0.955</text>
<text text-anchor="middle" x="1083.9" y="-262.27" font-family="Times,serif" font-size="14.00">a0 in {&#39;PLAIN AEF6NjE2MUAxMjYuY29tAE1VUVNBT1NUWElURkpDVUU=&#39;, &#39;PLAIN AEF6NjE2MUBzaW5hLmNvbQA2ZmRiMjVjZmNjODYyZWZj&#39;}</text>
<text text-anchor="middle" x="1083.9" y="-245.02" font-family="Times,serif" font-size="14.00">b0 in {&#39;Authentication successful&#39;, &#39;OK Authenticated&#39;}</text>
</g>
<!-- q6:0.0 -->
<g id="node13" class="node">
<title>q6:0.0</title>
<ellipse fill="none" stroke="black" stroke-width="2" cx="1706" cy="-170.07" rx="42.79" ry="18"/>
<text text-anchor="middle" x="1706" y="-165.39" font-family="Times,serif" font-size="14.00">q6:0.0</text>
</g>
<!-- q3:0.0&#45;&gt;q6:0.0 -->
<g id="edge12" class="edge">
<title>q3:0.0&#45;&gt;q6:0.0</title>
<path fill="none" stroke="black" d="M501.25,-243.77C512,-224.75 531.7,-196.05 558.12,-183.57 946.69,0 1495.2,-116.35 1657.8,-157.4"/>
<polygon fill="black" stroke="black" points="1656.88,-160.77 1667.43,-159.84 1658.6,-153.99 1656.88,-160.77"/>
<text text-anchor="middle" x="1083.9" y="-205.27" font-family="Times,serif" font-size="14.00">AUTH/535:0.041</text>
<text text-anchor="middle" x="1083.9" y="-188.02" font-family="Times,serif" font-size="14.00">b0 in {&#39;5.7.8 authentication failed&#39;, &#39;Error: authentication failed&#39;}</text>
</g>
<!-- q4:0.0 -->
<g id="node14" class="node">
<title>q4:0.0</title>
<ellipse fill="none" stroke="black" stroke-width="2" cx="1706" cy="-372.07" rx="42.79" ry="18"/>
<text text-anchor="middle" x="1706" y="-367.4" font-family="Times,serif" font-size="14.00">q4:0.0</text>
</g>
<!-- q3:0.0&#45;&gt;q4:0.0 -->
<g id="edge13" class="edge">
<title>q3:0.0&#45;&gt;q4:0.0</title>
<path fill="none" stroke="black" d="M518.18,-276.85C529.99,-282.75 544.37,-288.89 558.12,-292.07 785.88,-344.68 1383.6,-262.04 1609.6,-321.57 1632.1,-327.48 1655.2,-339.52 1673,-350.36"/>
<polygon fill="black" stroke="black" points="1670.69,-353.05 1681.02,-355.41 1674.42,-347.12 1670.69,-353.05"/>
<text text-anchor="middle" x="1083.9" y="-342.27" font-family="Times,serif" font-size="14.00">AUTH/λ:0.004</text>
<text text-anchor="middle" x="1083.9" y="-325.02" font-family="Times,serif" font-size="14.00">a0 = PLAIN AEF6NjE2MUAxMjYuY29tAE1VUVNBT1NUWElURkpDVUU=</text>
</g>
<!-- q2:0.0&#45;&gt;q4:0.0 -->
<g id="edge14" class="edge">
<title>q2:0.0&#45;&gt;q4:0.0</title>
<path fill="none" stroke="black" d="M534.47,-360.49C718.34,-362.31 1445.8,-369.5 1650.9,-371.53"/>
<polygon fill="black" stroke="black" points="1650.65,-375.03 1660.69,-371.63 1650.72,-368.03 1650.65,-375.03"/>
<text text-anchor="middle" x="1083.9" y="-408.52" font-family="Times,serif" font-size="14.00">AUTH/235:1.0</text>
<text text-anchor="middle" x="1083.9" y="-391.27" font-family="Times,serif" font-size="14.00">a0 in {&#39;PLAIN AEF6NjE2MUAxMjYuY29tAE1VUVNBT1NUWElURkpDVUU=&#39;, &#39;PLAIN AEF6NjE2MUBzaW5hLmNvbQA2ZmRiMjVjZmNjODYyZWZj&#39;}</text>
<text text-anchor="middle" x="1083.9" y="-374.02" font-family="Times,serif" font-size="14.00">b0 in {&#39;Authentication successful&#39;, &#39;OK Authenticated&#39;}</text>
</g>
<!-- q7:0.0 -->
<g id="node15" class="node">
<title>q7:0.0</title>
<ellipse fill="none" stroke="black" stroke-width="2" cx="2591" cy="-407.07" rx="42.79" ry="18"/>
<text text-anchor="middle" x="2591" y="-402.4" font-family="Times,serif" font-size="14.00">q7:0.0</text>
</g>
<!-- q5:0.0&#45;&gt;q7:0.0 -->
<g id="edge15" class="edge">
<title>q5:0.0&#45;&gt;q7:0.0</title>
<path fill="none" stroke="black" d="M1735,-253.22C1753.6,-261.85 1778.8,-272.15 1802.4,-277.07 1880.9,-293.45 2454.4,-260.16 2523.9,-300.32 2553,-317.14 2571,-352.42 2580.7,-377.82"/>
<polygon fill="black" stroke="black" points="2577.3,-378.72 2583.99,-386.94 2583.89,-376.34 2577.3,-378.72"/>
<text text-anchor="middle" x="2163.1" y="-339.52" font-family="Times,serif" font-size="14.00">MAIL/250:0.987</text>
<text text-anchor="middle" x="2163.1" y="-322.27" font-family="Times,serif" font-size="14.00">a0 in {&#39;FROM:&lt;Az6161@sina.com&gt;&#39;, &#39;FROM:&lt;Az6161@126.com&gt;&#39;}</text>
<text text-anchor="middle" x="2163.1" y="-305.02" font-family="Times,serif" font-size="14.00">b0 in {&#39;Mail OK&#39;, &#39;ok&#39;}</text>
</g>
<!-- q8:0.0 -->
<g id="node16" class="node">
<title>q8:0.0</title>
<ellipse fill="none" stroke="black" stroke-width="2" cx="2591" cy="-224.07" rx="42.79" ry="18"/>
<text text-anchor="middle" x="2591" y="-219.4" font-family="Times,serif" font-size="14.00">q8:0.0</text>
</g>
<!-- q5:0.0&#45;&gt;q8:0.0 -->
<g id="edge16" class="edge">
<title>q5:0.0&#45;&gt;q8:0.0</title>
<path fill="none" stroke="black" d="M1746.3,-232.12C1763.5,-229.42 1783.8,-226.66 1802.4,-225.32 2077.8,-205.35 2408.8,-216.11 2536.3,-221.54"/>
<polygon fill="black" stroke="black" points="2535.94,-225.03 2546.09,-221.97 2536.25,-218.04 2535.94,-225.03"/>
<text text-anchor="middle" x="2163.1" y="-264.52" font-family="Times,serif" font-size="14.00">MAIL/553:0.013</text>
<text text-anchor="middle" x="2163.1" y="-247.27" font-family="Times,serif" font-size="14.00">a0 in {&#39;FROM:&lt;Az_6161@126.com&gt;&#39;, &#39;FROM:&lt;Az_6161@sina.com&gt;&#39;, &#39;FROM:&lt;Az6161@163.com&gt;&#39;}</text>
<text text-anchor="middle" x="2163.1" y="-230.02" font-family="Times,serif" font-size="14.00">b0 in {&#39;Mail from must equal authorized user&#39;, &#39;Envolope sender mismatch with login user..&#39;}</text>
</g>
<!-- q9:0.0 -->
<g id="node17" class="node">
<title>q9:0.0</title>
<ellipse fill="none" stroke="black" stroke-width="2" cx="2591" cy="-166.07" rx="42.79" ry="18"/>
<text text-anchor="middle" x="2591" y="-161.39" font-family="Times,serif" font-size="14.00">q9:0.0</text>
</g>
<!-- q6:0.0&#45;&gt;q9:0.0 -->
<g id="edge17" class="edge">
<title>q6:0.0&#45;&gt;q9:0.0</title>
<path fill="none" stroke="black" d="M1749.2,-168.74C1765.8,-168.28 1785,-167.81 1802.4,-167.57 2078.1,-163.69 2408.3,-164.99 2535.9,-165.72"/>
<polygon fill="black" stroke="black" points="2535.77,-169.22 2545.79,-165.78 2535.81,-162.22 2535.77,-169.22"/>
<text text-anchor="middle" x="2163.1" y="-189.27" font-family="Times,serif" font-size="14.00">AUTH/334:1.0</text>
<text text-anchor="middle" x="2163.1" y="-172.02" font-family="Times,serif" font-size="14.00">b0 = UGFzc3dvcmQ6</text>
</g>
<!-- q4:0.0&#45;&gt;q7:0.0 -->
<g id="edge18" class="edge">
<title>q4:0.0&#45;&gt;q7:0.0</title>
<path fill="none" stroke="black" d="M1749.4,-369.78C1895.1,-362.31 2374.5,-340.99 2523.9,-375.32 2534.4,-377.75 2545.3,-382.07 2555.1,-386.77"/>
<polygon fill="black" stroke="black" points="2553.35,-389.81 2563.85,-391.24 2556.54,-383.58 2553.35,-389.81"/>
<text text-anchor="middle" x="2163.1" y="-413.52" font-family="Times,serif" font-size="14.00">MAIL/250:1.0</text>
<text text-anchor="middle" x="2163.1" y="-396.27" font-family="Times,serif" font-size="14.00">a0 in {&#39;FROM:&lt;Az6161@sina.com&gt;&#39;, &#39;FROM:&lt;Az6161@126.com&gt;&#39;}</text>
<text text-anchor="middle" x="2163.1" y="-379.02" font-family="Times,serif" font-size="14.00">b0 in {&#39;Mail OK&#39;, &#39;ok&#39;}</text>
</g>
<!-- q10:0.0 -->
<g id="node18" class="node">
<title>q10:0.0</title>
<ellipse fill="none" stroke="black" stroke-width="2" cx="491.01" cy="-549.07" rx="49.1" ry="18"/>
<text text-anchor="middle" x="491.01" y="-544.4" font-family="Times,serif" font-size="14.00">q10:0.0</text>
</g>
<!-- q7:0.0&#45;&gt;q10:0.0 -->
<g id="edge19" class="edge">
<title>q7:0.0&#45;&gt;q10:0.0</title>
<path fill="none" stroke="black" d="M2557.1,-418.82C2546.6,-422.08 2534.9,-425.22 2523.9,-427.07 2207.4,-480.19 2122.8,-437.36 1802.4,-455.07 1318.9,-481.78 736.02,-528.84 551.21,-544.12"/>
<polygon fill="black" stroke="black" points="551.05,-540.62 541.38,-544.94 551.63,-547.6 551.05,-540.62"/>
<text text-anchor="middle" x="1706" y="-485.27" font-family="Times,serif" font-size="14.00">RCPT/250:1.0</text>
<text text-anchor="middle" x="1706" y="-468.02" font-family="Times,serif" font-size="14.00">b0 in {&#39;Mail OK&#39;, &#39;ok&#39;}</text>
</g>
<!-- q11:1.0 -->
<g id="node19" class="node">
<title>q11:1.0</title>
<ellipse fill="none" stroke="black" stroke-width="2" cx="3191.7" cy="-224.07" rx="49.1" ry="18"/>
<text text-anchor="middle" x="3191.7" y="-219.4" font-family="Times,serif" font-size="14.00">q11:1.0</text>
</g>
<!-- q8:0.0&#45;&gt;q11:1.0 -->
<g id="edge20" class="edge">
<title>q8:0.0&#45;&gt;q11:1.0</title>
<path fill="none" stroke="black" d="M2634.5,-224.07C2739.2,-224.07 3009.4,-224.07 3130.5,-224.07"/>
<polygon fill="black" stroke="black" points="3130.19,-227.57 3140.19,-224.07 3130.19,-220.57 3130.19,-227.57"/>
<text text-anchor="middle" x="2891.3" y="-245.27" font-family="Times,serif" font-size="14.00">RSET/250:1.0</text>
<text text-anchor="middle" x="2891.3" y="-228.02" font-family="Times,serif" font-size="14.00">b0 in {&#39;flushed&#39;, &#39;OK&#39;}</text>
</g>
<!-- q12:0.8 -->
<g id="node20" class="node">
<title>q12:0.8</title>
<ellipse fill="none" stroke="black" stroke-width="2" cx="3191.7" cy="-166.07" rx="49.1" ry="18"/>
<text text-anchor="middle" x="3191.7" y="-161.39" font-family="Times,serif" font-size="14.00">q12:0.8</text>
</g>
<!-- q9:0.0&#45;&gt;q12:0.8 -->
<g id="edge21" class="edge">
<title>q9:0.0&#45;&gt;q12:0.8</title>
<path fill="none" stroke="black" d="M2634.5,-166.07C2739.2,-166.07 3009.4,-166.07 3130.5,-166.07"/>
<polygon fill="black" stroke="black" points="3130.19,-169.57 3140.19,-166.07 3130.19,-162.57 3130.19,-169.57"/>
<text text-anchor="middle" x="2891.3" y="-187.27" font-family="Times,serif" font-size="14.00">content/535:1.0</text>
<text text-anchor="middle" x="2891.3" y="-170.02" font-family="Times,serif" font-size="14.00">b0 in {&#39;5.7.8 authentication failed&#39;, &#39;Error: authentication failed&#39;}</text>
</g>
<!-- q10:0.0&#45;&gt;q14:0.0 -->
<g id="edge30" class="edge">
<title>q10:0.0&#45;&gt;q14:0.0</title>
<path fill="none" stroke="black" d="M513.98,-565.74C526.27,-574.07 542.28,-583.37 558.12,-588.07 782.36,-654.53 1391.2,-549.87 1609.6,-633.57 1638.3,-644.55 1664.7,-667.78 1682.4,-686.13"/>
<polygon fill="black" stroke="black" points="1679.48,-688.14 1688.87,-693.06 1684.6,-683.36 1679.48,-688.14"/>
<text text-anchor="middle" x="1083.9" y="-654.27" font-family="Times,serif" font-size="14.00">DATA/354:0.389</text>
<text text-anchor="middle" x="1083.9" y="-637.02" font-family="Times,serif" font-size="14.00">b0 = End data with &lt;CR&gt;&lt;LF&gt;.&lt;CR&gt;&lt;LF&gt;</text>
</g>
<!-- q13:0.0 -->
<g id="node29" class="node">
<title>q13:0.0</title>
<ellipse fill="none" stroke="black" stroke-width="2" cx="1706" cy="-549.07" rx="49.1" ry="18"/>
<text text-anchor="middle" x="1706" y="-544.4" font-family="Times,serif" font-size="14.00">q13:0.0</text>
</g>
<!-- q10:0.0&#45;&gt;q13:0.0 -->
<g id="edge31" class="edge">
<title>q10:0.0&#45;&gt;q13:0.0</title>
<path fill="none" stroke="black" d="M541.07,-549.07C733.12,-549.07 1433.7,-549.07 1644.6,-549.07"/>
<polygon fill="black" stroke="black" points="1644.49,-552.57 1654.49,-549.07 1644.49,-545.57 1644.49,-552.57"/>
<text text-anchor="middle" x="1083.9" y="-570.27" font-family="Times,serif" font-size="14.00">RCPT/250:0.611</text>
<text text-anchor="middle" x="1083.9" y="-553.02" font-family="Times,serif" font-size="14.00">b0 in {&#39;Mail OK&#39;, &#39;ok&#39;}</text>
</g>
<!-- q15:1.0 -->
<g id="node31" class="node">
<title>q15:1.0</title>
<ellipse fill="none" stroke="black" stroke-width="2" cx="3427.9" cy="-166.07" rx="49.1" ry="18"/>
<text text-anchor="middle" x="3427.9" y="-161.39" font-family="Times,serif" font-size="14.00">q15:1.0</text>
</g>
<!-- q12:0.8&#45;&gt;q15:1.0 -->
<g id="edge35" class="edge">
<title>q12:0.8&#45;&gt;q15:1.0</title>
<path fill="none" stroke="black" d="M3241.8,-166.07C3278.2,-166.07 3327.9,-166.07 3366.7,-166.07"/>
<polygon fill="black" stroke="black" points="3366.39,-169.57 3376.39,-166.07 3366.39,-162.57 3366.39,-169.57"/>
<text text-anchor="middle" x="3309.8" y="-187.27" font-family="Times,serif" font-size="14.00">λ/451:0.2</text>
<text text-anchor="middle" x="3309.8" y="-170.02" font-family="Times,serif" font-size="14.00">b0 = Timeout.</text>
</g>
<!-- q0:0.0 -->
<g id="node21" class="node">
<title>q0:0.0</title>
<ellipse fill="none" stroke="black" stroke-width="2" cx="50.79" cy="-328.07" rx="46.79" ry="46.79"/>
<ellipse fill="none" stroke="black" stroke-width="2" cx="50.79" cy="-328.07" rx="50.79" ry="50.79"/>
<text text-anchor="middle" x="50.79" y="-323.4" font-family="Times,serif" font-size="14.00">q0:0.0</text>
</g>
<!-- q0:0.0&#45;&gt;q1:0.0 -->
<g id="edge22" class="edge">
<title>q0:0.0&#45;&gt;q1:0.0</title>
<path fill="none" stroke="black" d="M98.53,-328.07C125.82,-328.07 160.37,-328.07 188.82,-328.07"/>
<polygon fill="black" stroke="black" points="188.69,-331.57 198.69,-328.07 188.69,-324.57 188.69,-331.57"/>
<text text-anchor="middle" x="149.33" y="-332.02" font-family="Times,serif" font-size="14.00">λ/220:1.0</text>
</g>
<!-- q17:0.0 -->
<g id="node22" class="node">
<title>q17:0.0</title>
<ellipse fill="none" stroke="black" stroke-width="2" cx="2591" cy="-605.07" rx="49.1" ry="18"/>
<text text-anchor="middle" x="2591" y="-600.4" font-family="Times,serif" font-size="14.00">q17:0.0</text>
</g>
<!-- q17:0.0&#45;&gt;q17:0.0 -->
<g id="edge23" class="edge">
<title>q17:0.0&#45;&gt;q17:0.0</title>
<path fill="none" stroke="black" d="M2549.6,-615.39C2520.3,-627.28 2534.1,-641.07 2591,-641.07 2639.9,-641.07 2656.9,-630.89 2642.1,-620.47"/>
<polygon fill="black" stroke="black" points="2644.13,-617.58 2633.64,-616.09 2640.91,-623.8 2644.13,-617.58"/>
<text text-anchor="middle" x="2591" y="-662.27" font-family="Times,serif" font-size="14.00">content/λ:0.961</text>
<text text-anchor="middle" x="2591" y="-645.02" font-family="Times,serif" font-size="14.00">a0 = b0</text>
</g>
<!-- q21:0.0 -->
<g id="node23" class="node">
<title>q21:0.0</title>
<ellipse fill="none" stroke="black" stroke-width="2" cx="3191.7" cy="-604.07" rx="49.1" ry="18"/>
<text text-anchor="middle" x="3191.7" y="-599.4" font-family="Times,serif" font-size="14.00">q21:0.0</text>
</g>
<!-- q17:0.0&#45;&gt;q21:0.0 -->
<g id="edge24" class="edge">
<title>q17:0.0&#45;&gt;q21:0.0</title>
<path fill="none" stroke="black" d="M2641,-604.98C2749.9,-604.8 3011.8,-604.37 3130.5,-604.17"/>
<polygon fill="black" stroke="black" points="3130.29,-607.67 3140.29,-604.16 3130.28,-600.67 3130.29,-607.67"/>
<text text-anchor="middle" x="2891.3" y="-608.02" font-family="Times,serif" font-size="14.00">content/250:0.035</text>
</g>
<!-- q23:0.0 -->
<g id="node24" class="node">
<title>q23:0.0</title>
<ellipse fill="none" stroke="black" stroke-width="2" cx="3191.7" cy="-548.07" rx="49.1" ry="18"/>
<text text-anchor="middle" x="3191.7" y="-543.4" font-family="Times,serif" font-size="14.00">q23:0.0</text>
</g>
<!-- q17:0.0&#45;&gt;q23:0.0 -->
<g id="edge25" class="edge">
<title>q17:0.0&#45;&gt;q23:0.0</title>
<path fill="none" stroke="black" d="M2626.2,-591.68C2636.3,-588.23 2647.5,-584.9 2658.1,-582.82 2826.8,-549.5 3030.9,-546.23 3130.4,-546.95"/>
<polygon fill="black" stroke="black" points="3130.16,-550.45 3140.19,-547.04 3130.22,-543.45 3130.16,-550.45"/>
<text text-anchor="middle" x="2891.3" y="-586.02" font-family="Times,serif" font-size="14.00">content/554:0.003</text>
</g>
<!-- q22:0.0 -->
<g id="node25" class="node">
<title>q22:0.0</title>
<ellipse fill="none" stroke="black" stroke-width="2" cx="3191.7" cy="-658.07" rx="49.1" ry="18"/>
<text text-anchor="middle" x="3191.7" y="-653.4" font-family="Times,serif" font-size="14.00">q22:0.0</text>
</g>
<!-- q17:0.0&#45;&gt;q22:0.0 -->
<g id="edge26" class="edge">
<title>q17:0.0&#45;&gt;q22:0.0</title>
<path fill="none" stroke="black" d="M2628.3,-617.71C2637.9,-620.58 2648.3,-623.31 2658.1,-625.07 2827.4,-655.49 3031.2,-659.14 3130.5,-658.85"/>
<polygon fill="black" stroke="black" points="3130.3,-662.35 3140.29,-658.81 3130.27,-655.35 3130.3,-662.35"/>
<text text-anchor="middle" x="2891.3" y="-679.27" font-family="Times,serif" font-size="14.00">content/550:0.0</text>
<text text-anchor="middle" x="2891.3" y="-662.02" font-family="Times,serif" font-size="14.00">b0 = Sender frequency limited.</text>
</g>
<!-- q27:1.0 -->
<g id="node26" class="node">
<title>q27:1.0</title>
<ellipse fill="none" stroke="black" stroke-width="2" cx="3427.9" cy="-604.07" rx="49.1" ry="18"/>
<text text-anchor="middle" x="3427.9" y="-599.4" font-family="Times,serif" font-size="14.00">q27:1.0</text>
</g>
<!-- q21:0.0&#45;&gt;q27:1.0 -->
<g id="edge27" class="edge">
<title>q21:0.0&#45;&gt;q27:1.0</title>
<path fill="none" stroke="black" d="M3241.8,-604.07C3278.2,-604.07 3327.9,-604.07 3366.7,-604.07"/>
<polygon fill="black" stroke="black" points="3366.39,-607.57 3376.39,-604.07 3366.39,-600.57 3366.39,-607.57"/>
<text text-anchor="middle" x="3309.8" y="-608.02" font-family="Times,serif" font-size="14.00">QUIT/221:1.0</text>
</g>
<!-- q29:1.0 -->
<g id="node27" class="node">
<title>q29:1.0</title>
<ellipse fill="none" stroke="black" stroke-width="2" cx="3427.9" cy="-546.07" rx="49.1" ry="18"/>
<text text-anchor="middle" x="3427.9" y="-541.4" font-family="Times,serif" font-size="14.00">q29:1.0</text>
</g>
<!-- q23:0.0&#45;&gt;q29:1.0 -->
<g id="edge28" class="edge">
<title>q23:0.0&#45;&gt;q29:1.0</title>
<path fill="none" stroke="black" d="M3241.5,-547.65C3277.9,-547.34 3327.8,-546.91 3366.7,-546.58"/>
<polygon fill="black" stroke="black" points="3366.62,-550.08 3376.59,-546.5 3366.56,-543.08 3366.62,-550.08"/>
<text text-anchor="middle" x="3309.8" y="-568.27" font-family="Times,serif" font-size="14.00">RSET/250:1.0</text>
<text text-anchor="middle" x="3309.8" y="-551.02" font-family="Times,serif" font-size="14.00">b0 = OK</text>
</g>
<!-- q28:1.0 -->
<g id="node28" class="node">
<title>q28:1.0</title>
<ellipse fill="none" stroke="black" stroke-width="2" cx="3427.9" cy="-658.07" rx="49.1" ry="18"/>
<text text-anchor="middle" x="3427.9" y="-653.4" font-family="Times,serif" font-size="14.00">q28:1.0</text>
</g>
<!-- q22:0.0&#45;&gt;q28:1.0 -->
<g id="edge29" class="edge">
<title>q22:0.0&#45;&gt;q28:1.0</title>
<path fill="none" stroke="black" d="M3241.8,-658.07C3278.2,-658.07 3327.9,-658.07 3366.7,-658.07"/>
<polygon fill="black" stroke="black" points="3366.39,-661.57 3376.39,-658.07 3366.39,-654.57 3366.39,-661.57"/>
<text text-anchor="middle" x="3309.8" y="-679.27" font-family="Times,serif" font-size="14.00">RSET/250:1.0</text>
<text text-anchor="middle" x="3309.8" y="-662.02" font-family="Times,serif" font-size="14.00">a0 = b0</text>
</g>
<!-- q13:0.0&#45;&gt;q7:0.0 -->
<g id="edge32" class="edge">
<title>q13:0.0&#45;&gt;q7:0.0</title>
<path fill="none" stroke="black" d="M1728.7,-532.32C1747.2,-519.1 1775,-501.57 1802.4,-493.32 2109.9,-400.54 2219.7,-555.36 2523.9,-452.07 2537.6,-447.39 2551.2,-439.02 2562.4,-430.75"/>
<polygon fill="black" stroke="black" points="2564.26,-433.74 2570,-424.84 2559.96,-428.22 2564.26,-433.74"/>
<text text-anchor="middle" x="2163.1" y="-531.52" font-family="Times,serif" font-size="14.00">RCPT/250:0.021</text>
<text text-anchor="middle" x="2163.1" y="-514.27" font-family="Times,serif" font-size="14.00">a0 in {&#39;TO:&lt;1542110798@qq.com&gt;&#39;, &#39;TO:&lt;1542110795@qq.com&gt;&#39;, &#39;TO:&lt;1542110711@qq.com&gt;&#39;}</text>
<text text-anchor="middle" x="2163.1" y="-497.02" font-family="Times,serif" font-size="14.00">b0 = Mail OK</text>
</g>
<!-- q13:0.0&#45;&gt;q17:0.0 -->
<g id="edge33" class="edge">
<title>q13:0.0&#45;&gt;q17:0.0</title>
<path fill="none" stroke="black" d="M1737.6,-563.62C1755.9,-571.58 1780,-580.68 1802.4,-585.07 2070.1,-637.44 2398.8,-620.34 2530.9,-610.23"/>
<polygon fill="black" stroke="black" points="2531.09,-613.73 2540.79,-609.46 2530.55,-606.75 2531.09,-613.73"/>
<text text-anchor="middle" x="2163.1" y="-642.27" font-family="Times,serif" font-size="14.00">DATA/354:0.678</text>
<text text-anchor="middle" x="2163.1" y="-625.02" font-family="Times,serif" font-size="14.00">b0 = End data with &lt;CR&gt;&lt;LF&gt;.&lt;CR&gt;&lt;LF&gt;</text>
</g>
<!-- q16:1.0 -->
<g id="node30" class="node">
<title>q16:1.0</title>
<ellipse fill="none" stroke="black" stroke-width="2" cx="2591" cy="-549.07" rx="49.1" ry="18"/>
<text text-anchor="middle" x="2591" y="-544.4" font-family="Times,serif" font-size="14.00">q16:1.0</text>
</g>
<!-- q13:0.0&#45;&gt;q16:1.0 -->
<g id="edge34" class="edge">
<title>q13:0.0&#45;&gt;q16:1.0</title>
<path fill="none" stroke="black" d="M1756,-549.07C1907,-549.07 2364.2,-549.07 2529.5,-549.07"/>
<polygon fill="black" stroke="black" points="2529.39,-552.57 2539.39,-549.07 2529.39,-545.57 2529.39,-552.57"/>
<text text-anchor="middle" x="2163.1" y="-570.27" font-family="Times,serif" font-size="14.00">DATA/550:0.301</text>
<text text-anchor="middle" x="2163.1" y="-553.02" font-family="Times,serif" font-size="14.00">b0 in {&#39;too many message send today.&#39;, &#39;Sender frequency limited.&#39;}</text>
</g>
</g>
</svg>
