<?xml version="1.0" encoding="UTF-8" standalone="no"?>
<!DOCTYPE svg PUBLIC "-//W3C//DTD SVG 1.1//EN"
 "http://www.w3.org/Graphics/SVG/1.1/DTD/svg11.dtd">
<!-- Generated by graphviz version 12.0.0 (20240803.0821)
 -->
<!-- Pages: 1 -->
<svg width="7502pt" height="428pt"
 viewBox="0.00 0.00 7501.89 428.20" xmlns="http://www.w3.org/2000/svg" xmlns:xlink="http://www.w3.org/1999/xlink">
<g id="graph0" class="graph" transform="scale(1 1) rotate(0) translate(4 424.2)">
<polygon fill="white" stroke="none" points="-4,4 -4,-424.2 7497.89,-424.2 7497.89,4 -4,4"/>
<!-- q12:&#45;1 -->
<g id="node1" class="node">
<title>q12:&#45;1</title>
<ellipse fill="none" stroke="black" stroke-width="2" cx="3613.1" cy="-152.4" rx="42.79" ry="18"/>
<text text-anchor="middle" x="3613.1" y="-147.72" font-family="Times,serif" font-size="14.00">q12:&#45;1</text>
</g>
<!-- q12:&#45;1&#45;&gt;q12:&#45;1 -->
<g id="edge1" class="edge">
<title>q12:&#45;1&#45;&gt;q12:&#45;1</title>
<path fill="none" stroke="black" d="M3572.8,-159.64C3523.3,-172.1 3536.7,-188.4 3613.1,-188.4 3683.3,-188.4 3700.4,-174.66 3664.4,-162.78"/>
<polygon fill="black" stroke="black" points="3665.43,-159.43 3654.86,-160.06 3663.51,-166.17 3665.43,-159.43"/>
<text text-anchor="middle" x="3613.1" y="-209.6" font-family="Times,serif" font-size="14.00">content/λ:&#45;1</text>
<text text-anchor="middle" x="3613.1" y="-192.35" font-family="Times,serif" font-size="14.00">a0 = b0</text>
</g>
<!-- q15:&#45;1 -->
<g id="node2" class="node">
<title>q15:&#45;1</title>
<ellipse fill="none" stroke="black" stroke-width="2" cx="4355" cy="-155.4" rx="42.79" ry="18"/>
<text text-anchor="middle" x="4355" y="-150.72" font-family="Times,serif" font-size="14.00">q15:&#45;1</text>
</g>
<!-- q12:&#45;1&#45;&gt;q15:&#45;1 -->
<g id="edge2" class="edge">
<title>q12:&#45;1&#45;&gt;q15:&#45;1</title>
<path fill="none" stroke="black" d="M3656.8,-152.57C3783.9,-153.09 4159.4,-154.61 4300,-155.18"/>
<polygon fill="black" stroke="black" points="4299.77,-158.68 4309.79,-155.22 4299.8,-151.68 4299.77,-158.68"/>
<text text-anchor="middle" x="3984.1" y="-176.6" font-family="Times,serif" font-size="14.00">content/250:&#45;1</text>
<text text-anchor="middle" x="3984.1" y="-159.35" font-family="Times,serif" font-size="14.00">b0 = Mail OK queued as smtp10 NuRpCgBHPQrwOoBfnJeBdw&#45;&#45;.18388S2 1602239216</text>
</g>
<!-- q17:&#45;1 -->
<g id="node3" class="node">
<title>q17:&#45;1</title>
<ellipse fill="none" stroke="black" stroke-width="2" cx="7240.3" cy="-155.4" rx="42.79" ry="18"/>
<text text-anchor="middle" x="7240.3" y="-150.72" font-family="Times,serif" font-size="14.00">q17:&#45;1</text>
</g>
<!-- q15:&#45;1&#45;&gt;q17:&#45;1 -->
<g id="edge3" class="edge">
<title>q15:&#45;1&#45;&gt;q17:&#45;1</title>
<path fill="none" stroke="black" d="M4398.7,-155.4C4725,-155.4 6820.8,-155.4 7185.3,-155.4"/>
<polygon fill="black" stroke="black" points="7185.09,-158.9 7195.09,-155.4 7185.09,-151.9 7185.09,-158.9"/>
<text text-anchor="middle" x="5797.6" y="-176.6" font-family="Times,serif" font-size="14.00">QUIT/221:&#45;1</text>
<text text-anchor="middle" x="5797.6" y="-159.35" font-family="Times,serif" font-size="14.00">b0 = Bye</text>
</g>
<!-- q11:&#45;1 -->
<g id="node4" class="node">
<title>q11:&#45;1</title>
<ellipse fill="none" stroke="black" stroke-width="2" cx="2797.1" cy="-280.4" rx="42.79" ry="18"/>
<text text-anchor="middle" x="2797.1" y="-275.72" font-family="Times,serif" font-size="14.00">q11:&#45;1</text>
</g>
<!-- q14:&#45;1 -->
<g id="node5" class="node">
<title>q14:&#45;1</title>
<ellipse fill="none" stroke="black" stroke-width="2" cx="3613.1" cy="-280.4" rx="42.79" ry="18"/>
<text text-anchor="middle" x="3613.1" y="-275.72" font-family="Times,serif" font-size="14.00">q14:&#45;1</text>
</g>
<!-- q11:&#45;1&#45;&gt;q14:&#45;1 -->
<g id="edge4" class="edge">
<title>q11:&#45;1&#45;&gt;q14:&#45;1</title>
<path fill="none" stroke="black" d="M2840.7,-280.4C2977.6,-280.4 3406.3,-280.4 3558.2,-280.4"/>
<polygon fill="black" stroke="black" points="3557.99,-283.9 3567.99,-280.4 3557.99,-276.9 3557.99,-283.9"/>
<text text-anchor="middle" x="3205.1" y="-301.6" font-family="Times,serif" font-size="14.00">λ/451:&#45;1</text>
<text text-anchor="middle" x="3205.1" y="-284.35" font-family="Times,serif" font-size="14.00">b0 = Timeout.</text>
</g>
<!-- q2:&#45;1 -->
<g id="node6" class="node">
<title>q2:&#45;1</title>
<ellipse fill="none" stroke="black" stroke-width="2" cx="441.13" cy="-205.4" rx="36.48" ry="18"/>
<text text-anchor="middle" x="441.13" y="-200.72" font-family="Times,serif" font-size="14.00">q2:&#45;1</text>
</g>
<!-- q5:&#45;1 -->
<g id="node7" class="node">
<title>q5:&#45;1</title>
<ellipse fill="none" stroke="black" stroke-width="2" cx="1601.6" cy="-280.4" rx="36.48" ry="18"/>
<text text-anchor="middle" x="1601.6" y="-275.72" font-family="Times,serif" font-size="14.00">q5:&#45;1</text>
</g>
<!-- q2:&#45;1&#45;&gt;q5:&#45;1 -->
<g id="edge5" class="edge">
<title>q2:&#45;1&#45;&gt;q5:&#45;1</title>
<path fill="none" stroke="black" d="M454.13,-223C463.73,-235.43 478.4,-251.11 495.61,-258.4 877.87,-420.2 1403.2,-324.25 1556.8,-290.63"/>
<polygon fill="black" stroke="black" points="1557.12,-294.14 1566.12,-288.56 1555.6,-287.31 1557.12,-294.14"/>
<text text-anchor="middle" x="1021.4" y="-370.6" font-family="Times,serif" font-size="14.00">AUTH/535:&#45;1</text>
<text text-anchor="middle" x="1021.4" y="-353.35" font-family="Times,serif" font-size="14.00">b0 in {&#39;5.7.8 authentication failed&#39;, &#39;Error: authentication failed&#39;}</text>
</g>
<!-- q4:&#45;1 -->
<g id="node8" class="node">
<title>q4:&#45;1</title>
<ellipse fill="none" stroke="black" stroke-width="2" cx="1601.6" cy="-167.4" rx="36.48" ry="18"/>
<text text-anchor="middle" x="1601.6" y="-162.72" font-family="Times,serif" font-size="14.00">q4:&#45;1</text>
</g>
<!-- q2:&#45;1&#45;&gt;q4:&#45;1 -->
<g id="edge6" class="edge">
<title>q2:&#45;1&#45;&gt;q4:&#45;1</title>
<path fill="none" stroke="black" d="M478.5,-205.26C657.39,-204.5 1439.8,-200.21 1547.1,-183.4 1551.2,-182.75 1555.5,-181.87 1559.7,-180.86"/>
<polygon fill="black" stroke="black" points="1560.49,-184.27 1569.24,-178.3 1558.67,-177.51 1560.49,-184.27"/>
<text text-anchor="middle" x="1021.4" y="-242.85" font-family="Times,serif" font-size="14.00">AUTH/235:&#45;1</text>
<text text-anchor="middle" x="1021.4" y="-225.6" font-family="Times,serif" font-size="14.00">a0 in {&#39;PLAIN AEF6NjE2MUAxMjYuY29tAE1VUVNBT1NUWElURkpDVUU=&#39;, &#39;PLAIN AEF6NjE2MUBzaW5hLmNvbQA2ZmRiMjVjZmNjODYyZWZj&#39;}</text>
<text text-anchor="middle" x="1021.4" y="-208.35" font-family="Times,serif" font-size="14.00">b0 in {&#39;Authentication successful&#39;, &#39;OK Authenticated&#39;}</text>
</g>
<!-- q8:&#45;1 -->
<g id="node9" class="node">
<title>q8:&#45;1</title>
<ellipse fill="none" stroke="black" stroke-width="2" cx="2199.5" cy="-280.4" rx="36.48" ry="18"/>
<text text-anchor="middle" x="2199.5" y="-275.72" font-family="Times,serif" font-size="14.00">q8:&#45;1</text>
</g>
<!-- q5:&#45;1&#45;&gt;q8:&#45;1 -->
<g id="edge7" class="edge">
<title>q5:&#45;1&#45;&gt;q8:&#45;1</title>
<path fill="none" stroke="black" d="M1639,-280.4C1742,-280.4 2035.5,-280.4 2151,-280.4"/>
<polygon fill="black" stroke="black" points="2150.79,-283.9 2160.79,-280.4 2150.79,-276.9 2150.79,-283.9"/>
<text text-anchor="middle" x="1900.6" y="-301.6" font-family="Times,serif" font-size="14.00">AUTH/334:&#45;1</text>
<text text-anchor="middle" x="1900.6" y="-284.35" font-family="Times,serif" font-size="14.00">b0 = UGFzc3dvcmQ6</text>
</g>
<!-- q6:&#45;1 -->
<g id="node10" class="node">
<title>q6:&#45;1</title>
<ellipse fill="none" stroke="black" stroke-width="2" cx="2199.5" cy="-186.4" rx="36.48" ry="18"/>
<text text-anchor="middle" x="2199.5" y="-181.72" font-family="Times,serif" font-size="14.00">q6:&#45;1</text>
</g>
<!-- q4:&#45;1&#45;&gt;q6:&#45;1 -->
<g id="edge8" class="edge">
<title>q4:&#45;1&#45;&gt;q6:&#45;1</title>
<path fill="none" stroke="black" d="M1639,-168.56C1742,-171.84 2035.5,-181.2 2151,-184.88"/>
<polygon fill="black" stroke="black" points="2150.68,-188.37 2160.79,-185.19 2150.91,-181.38 2150.68,-188.37"/>
<text text-anchor="middle" x="1900.6" y="-222.85" font-family="Times,serif" font-size="14.00">MAIL/553:&#45;1</text>
<text text-anchor="middle" x="1900.6" y="-205.6" font-family="Times,serif" font-size="14.00">a0 = FROM:&lt;Az_6161@126.com&gt;</text>
<text text-anchor="middle" x="1900.6" y="-188.35" font-family="Times,serif" font-size="14.00">b0 = Mail from must equal authorized user</text>
</g>
<!-- q7:&#45;1 -->
<g id="node11" class="node">
<title>q7:&#45;1</title>
<ellipse fill="none" stroke="black" stroke-width="2" cx="2199.5" cy="-111.4" rx="36.48" ry="18"/>
<text text-anchor="middle" x="2199.5" y="-106.73" font-family="Times,serif" font-size="14.00">q7:&#45;1</text>
</g>
<!-- q4:&#45;1&#45;&gt;q7:&#45;1 -->
<g id="edge9" class="edge">
<title>q4:&#45;1&#45;&gt;q7:&#45;1</title>
<path fill="none" stroke="black" d="M1614.3,-149.74C1623.8,-137.06 1638.6,-120.96 1656.1,-113.65 1828.5,-41.54 2059.6,-79.89 2154.8,-100.76"/>
<polygon fill="black" stroke="black" points="2154,-104.17 2164.52,-102.95 2155.53,-97.34 2154,-104.17"/>
<text text-anchor="middle" x="1900.6" y="-152.85" font-family="Times,serif" font-size="14.00">MAIL/250:&#45;1</text>
<text text-anchor="middle" x="1900.6" y="-135.6" font-family="Times,serif" font-size="14.00">a0 in {&#39;FROM:&lt;Az6161@sina.com&gt;&#39;, &#39;FROM:&lt;Az6161@126.com&gt;&#39;}</text>
<text text-anchor="middle" x="1900.6" y="-118.36" font-family="Times,serif" font-size="14.00">b0 in {&#39;Mail OK&#39;, &#39;ok&#39;}</text>
</g>
<!-- q8:&#45;1&#45;&gt;q11:&#45;1 -->
<g id="edge10" class="edge">
<title>q8:&#45;1&#45;&gt;q11:&#45;1</title>
<path fill="none" stroke="black" d="M2236.9,-280.4C2338,-280.4 2622.6,-280.4 2742.2,-280.4"/>
<polygon fill="black" stroke="black" points="2741.99,-283.9 2751.99,-280.4 2741.99,-276.9 2741.99,-283.9"/>
<text text-anchor="middle" x="2495.1" y="-301.6" font-family="Times,serif" font-size="14.00">content/535:&#45;1</text>
<text text-anchor="middle" x="2495.1" y="-284.35" font-family="Times,serif" font-size="14.00">b0 in {&#39;5.7.8 authentication failed&#39;, &#39;Error: authentication failed&#39;}</text>
</g>
<!-- q9:&#45;1 -->
<g id="node12" class="node">
<title>q9:&#45;1</title>
<ellipse fill="none" stroke="black" stroke-width="2" cx="2797.1" cy="-186.4" rx="36.48" ry="18"/>
<text text-anchor="middle" x="2797.1" y="-181.72" font-family="Times,serif" font-size="14.00">q9:&#45;1</text>
</g>
<!-- q6:&#45;1&#45;&gt;q9:&#45;1 -->
<g id="edge11" class="edge">
<title>q6:&#45;1&#45;&gt;q9:&#45;1</title>
<path fill="none" stroke="black" d="M2236.9,-186.4C2339.8,-186.4 2633.1,-186.4 2748.6,-186.4"/>
<polygon fill="black" stroke="black" points="2748.29,-189.9 2758.29,-186.4 2748.29,-182.9 2748.29,-189.9"/>
<text text-anchor="middle" x="2495.1" y="-207.6" font-family="Times,serif" font-size="14.00">RSET/250:&#45;1</text>
<text text-anchor="middle" x="2495.1" y="-190.35" font-family="Times,serif" font-size="14.00">b0 = OK</text>
</g>
<!-- q10:&#45;1 -->
<g id="node13" class="node">
<title>q10:&#45;1</title>
<ellipse fill="none" stroke="black" stroke-width="2" cx="2797.1" cy="-111.4" rx="42.79" ry="18"/>
<text text-anchor="middle" x="2797.1" y="-106.73" font-family="Times,serif" font-size="14.00">q10:&#45;1</text>
</g>
<!-- q7:&#45;1&#45;&gt;q10:&#45;1 -->
<g id="edge12" class="edge">
<title>q7:&#45;1&#45;&gt;q10:&#45;1</title>
<path fill="none" stroke="black" d="M2236.9,-111.4C2338,-111.4 2622.6,-111.4 2742.2,-111.4"/>
<polygon fill="black" stroke="black" points="2741.99,-114.9 2751.99,-111.4 2741.99,-107.9 2741.99,-114.9"/>
<text text-anchor="middle" x="2495.1" y="-149.85" font-family="Times,serif" font-size="14.00">RCPT/250:&#45;1</text>
<text text-anchor="middle" x="2495.1" y="-132.6" font-family="Times,serif" font-size="14.00">a0 in {&#39;TO:&lt;574702257@qq.com&gt;&#39;, &#39;TO:&lt;1542110793@qq.com&gt;&#39;}</text>
<text text-anchor="middle" x="2495.1" y="-115.36" font-family="Times,serif" font-size="14.00">b0 in {&#39;Mail OK&#39;, &#39;ok&#39;}</text>
</g>
<!-- q10:&#45;1&#45;&gt;q12:&#45;1 -->
<g id="edge13" class="edge">
<title>q10:&#45;1&#45;&gt;q12:&#45;1</title>
<path fill="none" stroke="black" d="M2830.5,-123.53C2839.3,-126.29 2848.8,-128.87 2857.9,-130.4 3117.5,-174.54 3434.4,-162.93 3558.6,-155.9"/>
<polygon fill="black" stroke="black" points="3558.71,-159.4 3568.49,-155.33 3558.3,-152.41 3558.71,-159.4"/>
<text text-anchor="middle" x="3205.1" y="-184.6" font-family="Times,serif" font-size="14.00">DATA/354:&#45;1</text>
<text text-anchor="middle" x="3205.1" y="-167.35" font-family="Times,serif" font-size="14.00">b0 = End data with &lt;CR&gt;&lt;LF&gt;.&lt;CR&gt;&lt;LF&gt;</text>
</g>
<!-- q13:&#45;1 -->
<g id="node14" class="node">
<title>q13:&#45;1</title>
<ellipse fill="none" stroke="black" stroke-width="2" cx="3613.1" cy="-60.4" rx="42.79" ry="18"/>
<text text-anchor="middle" x="3613.1" y="-55.72" font-family="Times,serif" font-size="14.00">q13:&#45;1</text>
</g>
<!-- q10:&#45;1&#45;&gt;q13:&#45;1 -->
<g id="edge14" class="edge">
<title>q10:&#45;1&#45;&gt;q13:&#45;1</title>
<path fill="none" stroke="black" d="M2818.6,-94.98C2829.6,-87.23 2843.7,-78.8 2857.9,-74.65 3112.6,0 3436.9,-34.64 3560.8,-52.29"/>
<polygon fill="black" stroke="black" points="3560.3,-55.76 3570.7,-53.73 3561.31,-48.83 3560.3,-55.76"/>
<text text-anchor="middle" x="3205.1" y="-113.85" font-family="Times,serif" font-size="14.00">RCPT/250:&#45;1</text>
<text text-anchor="middle" x="3205.1" y="-96.6" font-family="Times,serif" font-size="14.00">a0 in {&#39;TO:&lt;574702257@qq.com&gt;&#39;, &#39;TO:&lt;1542110793@qq.com&gt;&#39;, &#39;TO:&lt;574702256@qq.com&gt;&#39;}</text>
<text text-anchor="middle" x="3205.1" y="-79.35" font-family="Times,serif" font-size="14.00">b0 in {&#39;Mail OK&#39;, &#39;ok&#39;}</text>
</g>
<!-- q16:&#45;1 -->
<g id="node15" class="node">
<title>q16:&#45;1</title>
<ellipse fill="none" stroke="black" stroke-width="2" cx="4355" cy="-48.4" rx="42.79" ry="18"/>
<text text-anchor="middle" x="4355" y="-43.73" font-family="Times,serif" font-size="14.00">q16:&#45;1</text>
</g>
<!-- q13:&#45;1&#45;&gt;q16:&#45;1 -->
<g id="edge23" class="edge">
<title>q13:&#45;1&#45;&gt;q16:&#45;1</title>
<path fill="none" stroke="black" d="M3656.8,-59.71C3783.9,-57.65 4159.4,-51.56 4300,-49.27"/>
<polygon fill="black" stroke="black" points="4299.85,-52.78 4309.79,-49.12 4299.73,-45.78 4299.85,-52.78"/>
<text text-anchor="middle" x="3984.1" y="-80.6" font-family="Times,serif" font-size="14.00">DATA/354:&#45;1</text>
<text text-anchor="middle" x="3984.1" y="-63.35" font-family="Times,serif" font-size="14.00">b0 = End data with &lt;CR&gt;&lt;LF&gt;.&lt;CR&gt;&lt;LF&gt;</text>
</g>
<!-- q16:&#45;1&#45;&gt;q16:&#45;1 -->
<g id="edge15" class="edge">
<title>q16:&#45;1&#45;&gt;q16:&#45;1</title>
<path fill="none" stroke="black" d="M4314.7,-55.64C4265.1,-68.1 4278.5,-84.4 4355,-84.4 4425.1,-84.4 4442.2,-70.66 4406.2,-58.78"/>
<polygon fill="black" stroke="black" points="4407.33,-55.46 4396.76,-56.06 4405.4,-62.19 4407.33,-55.46"/>
<text text-anchor="middle" x="4355" y="-105.6" font-family="Times,serif" font-size="14.00">content/λ:&#45;1</text>
<text text-anchor="middle" x="4355" y="-88.35" font-family="Times,serif" font-size="14.00">a0 = b0</text>
</g>
<!-- q19:&#45;1 -->
<g id="node16" class="node">
<title>q19:&#45;1</title>
<ellipse fill="none" stroke="black" stroke-width="2" cx="7240.3" cy="-99.4" rx="42.79" ry="18"/>
<text text-anchor="middle" x="7240.3" y="-94.73" font-family="Times,serif" font-size="14.00">q19:&#45;1</text>
</g>
<!-- q16:&#45;1&#45;&gt;q19:&#45;1 -->
<g id="edge16" class="edge">
<title>q16:&#45;1&#45;&gt;q19:&#45;1</title>
<path fill="none" stroke="black" d="M4386.8,-61.38C4396,-64.65 4406.1,-67.7 4415.8,-69.4 4697.9,-119.04 6818.2,-103.05 7185.2,-99.89"/>
<polygon fill="black" stroke="black" points="7185.12,-103.39 7195.09,-99.8 7185.06,-96.39 7185.12,-103.39"/>
<text text-anchor="middle" x="5797.6" y="-126.6" font-family="Times,serif" font-size="14.00">content/554:&#45;1</text>
<text text-anchor="middle" x="5797.6" y="-109.35" font-family="Times,serif" font-size="14.00">b0 in {&#39;DT:SPM 126 smtp8 NORpCgDnvV68MIBfFhyvJg&#45;&#45;.11962S2 1602236606 please see http://mail.163.com/help/help_spam_16.htm?ip=221.212.176.101&amp;hostid=smtp8&amp;time=1602236606&#39;, &#39;DT:SPM 126 smtp10 NuRpCgAXIXf+MYBfJr+Adw&#45;&#45;.17258S2 1602236927 please see http://mail.163.com/help/help_spam_16.htm?ip=221.212.176.101&amp;hostid=smtp10&amp;time=1602236927&#39;}</text>
</g>
<!-- q18:&#45;1 -->
<g id="node17" class="node">
<title>q18:&#45;1</title>
<ellipse fill="none" stroke="black" stroke-width="2" cx="7240.3" cy="-45.4" rx="42.79" ry="18"/>
<text text-anchor="middle" x="7240.3" y="-40.73" font-family="Times,serif" font-size="14.00">q18:&#45;1</text>
</g>
<!-- q16:&#45;1&#45;&gt;q18:&#45;1 -->
<g id="edge17" class="edge">
<title>q16:&#45;1&#45;&gt;q18:&#45;1</title>
<path fill="none" stroke="black" d="M4398.7,-48.36C4725,-48.02 6820.8,-45.83 7185.3,-45.46"/>
<polygon fill="black" stroke="black" points="7185.09,-48.96 7195.09,-45.45 7185.08,-41.96 7185.09,-48.96"/>
<text text-anchor="middle" x="5797.6" y="-52.35" font-family="Times,serif" font-size="14.00">content/250:&#45;1</text>
</g>
<!-- q21:&#45;1 -->
<g id="node18" class="node">
<title>q21:&#45;1</title>
<ellipse fill="none" stroke="black" stroke-width="2" cx="7451.1" cy="-99.4" rx="42.79" ry="18"/>
<text text-anchor="middle" x="7451.1" y="-94.73" font-family="Times,serif" font-size="14.00">q21:&#45;1</text>
</g>
<!-- q19:&#45;1&#45;&gt;q21:&#45;1 -->
<g id="edge18" class="edge">
<title>q19:&#45;1&#45;&gt;q21:&#45;1</title>
<path fill="none" stroke="black" d="M7284.1,-99.4C7316.4,-99.4 7361.1,-99.4 7396,-99.4"/>
<polygon fill="black" stroke="black" points="7395.89,-102.9 7405.89,-99.4 7395.89,-95.9 7395.89,-102.9"/>
<text text-anchor="middle" x="7345.7" y="-120.6" font-family="Times,serif" font-size="14.00">RSET/250:&#45;1</text>
<text text-anchor="middle" x="7345.7" y="-103.35" font-family="Times,serif" font-size="14.00">b0 = OK</text>
</g>
<!-- q20:&#45;1 -->
<g id="node19" class="node">
<title>q20:&#45;1</title>
<ellipse fill="none" stroke="black" stroke-width="2" cx="7451.1" cy="-45.4" rx="42.79" ry="18"/>
<text text-anchor="middle" x="7451.1" y="-40.73" font-family="Times,serif" font-size="14.00">q20:&#45;1</text>
</g>
<!-- q18:&#45;1&#45;&gt;q20:&#45;1 -->
<g id="edge19" class="edge">
<title>q18:&#45;1&#45;&gt;q20:&#45;1</title>
<path fill="none" stroke="black" d="M7284.1,-45.4C7316.4,-45.4 7361.1,-45.4 7396,-45.4"/>
<polygon fill="black" stroke="black" points="7395.89,-48.9 7405.89,-45.4 7395.89,-41.9 7395.89,-48.9"/>
<text text-anchor="middle" x="7345.7" y="-49.35" font-family="Times,serif" font-size="14.00">QUIT/221:&#45;1</text>
</g>
<!-- q1:&#45;1 -->
<g id="node20" class="node">
<title>q1:&#45;1</title>
<ellipse fill="none" stroke="black" stroke-width="2" cx="215.93" cy="-170.4" rx="36.48" ry="18"/>
<text text-anchor="middle" x="215.93" y="-165.72" font-family="Times,serif" font-size="14.00">q1:&#45;1</text>
</g>
<!-- q1:&#45;1&#45;&gt;q2:&#45;1 -->
<g id="edge20" class="edge">
<title>q1:&#45;1&#45;&gt;q2:&#45;1</title>
<path fill="none" stroke="black" d="M250.53,-177.64C257.11,-178.97 263.96,-180.28 270.41,-181.4 312.03,-188.62 359.68,-195.21 393.88,-199.65"/>
<polygon fill="black" stroke="black" points="393.07,-203.07 403.43,-200.88 393.96,-196.13 393.07,-203.07"/>
<text text-anchor="middle" x="328.53" y="-201.34" font-family="Times,serif" font-size="14.00">EHLO/250:&#45;1</text>
</g>
<!-- q3:&#45;1 -->
<g id="node21" class="node">
<title>q3:&#45;1</title>
<ellipse fill="none" stroke="black" stroke-width="2" cx="441.13" cy="-138.4" rx="36.48" ry="18"/>
<text text-anchor="middle" x="441.13" y="-133.72" font-family="Times,serif" font-size="14.00">q3:&#45;1</text>
</g>
<!-- q1:&#45;1&#45;&gt;q3:&#45;1 -->
<g id="edge21" class="edge">
<title>q1:&#45;1&#45;&gt;q3:&#45;1</title>
<path fill="none" stroke="black" d="M242.38,-156.96C251.04,-153 260.93,-149.14 270.41,-146.9 311.04,-137.3 358.61,-135.72 393.03,-136.22"/>
<polygon fill="black" stroke="black" points="392.59,-139.71 402.66,-136.43 392.74,-132.71 392.59,-139.71"/>
<text text-anchor="middle" x="328.53" y="-168.6" font-family="Times,serif" font-size="14.00">EHLO/λ:&#45;1</text>
<text text-anchor="middle" x="328.53" y="-151.35" font-family="Times,serif" font-size="14.00">a0 = [127.0.1.1]</text>
</g>
<!-- q3:&#45;1&#45;&gt;q4:&#45;1 -->
<g id="edge22" class="edge">
<title>q3:&#45;1&#45;&gt;q4:&#45;1</title>
<path fill="none" stroke="black" d="M475.7,-131.15C612.69,-103.01 1141.4,-8.53 1547.1,-131.65 1556.1,-134.39 1565,-139.2 1572.9,-144.43"/>
<polygon fill="black" stroke="black" points="1570.82,-147.24 1580.97,-150.26 1574.92,-141.57 1570.82,-147.24"/>
<text text-anchor="middle" x="1021.4" y="-170.85" font-family="Times,serif" font-size="14.00">AUTH/235:&#45;1</text>
<text text-anchor="middle" x="1021.4" y="-153.6" font-family="Times,serif" font-size="14.00">a0 = PLAIN AEF6NjE2MUAxMjYuY29tAE1VUVNBT1NUWElURkpDVUU=</text>
<text text-anchor="middle" x="1021.4" y="-136.35" font-family="Times,serif" font-size="14.00">b0 = Authentication successful</text>
</g>
<!-- q0:&#45;1 -->
<g id="node22" class="node">
<title>q0:&#45;1</title>
<ellipse fill="none" stroke="black" stroke-width="2" cx="44.48" cy="-170.4" rx="40.48" ry="40.48"/>
<ellipse fill="none" stroke="black" stroke-width="2" cx="44.48" cy="-170.4" rx="44.48" ry="44.48"/>
<text text-anchor="middle" x="44.48" y="-165.72" font-family="Times,serif" font-size="14.00">q0:&#45;1</text>
</g>
<!-- q0:&#45;1&#45;&gt;q1:&#45;1 -->
<g id="edge24" class="edge">
<title>q0:&#45;1&#45;&gt;q1:&#45;1</title>
<path fill="none" stroke="black" d="M85.64,-170.4C110.08,-170.4 141.44,-170.4 167.15,-170.4"/>
<polygon fill="black" stroke="black" points="167.02,-173.9 177.02,-170.4 167.02,-166.9 167.02,-173.9"/>
<text text-anchor="middle" x="132.2" y="-174.34" font-family="Times,serif" font-size="14.00">λ/220:&#45;1</text>
</g>
</g>
</svg>
