<?xml version="1.0" encoding="UTF-8" standalone="no"?>
<!DOCTYPE svg PUBLIC "-//W3C//DTD SVG 1.1//EN"
 "http://www.w3.org/Graphics/SVG/1.1/DTD/svg11.dtd">
<!-- Generated by graphviz version 12.0.0 (20240803.0821)
 -->
<!-- Pages: 1 -->
<svg width="2293pt" height="412pt"
 viewBox="0.00 0.00 2293.20 412.00" xmlns="http://www.w3.org/2000/svg" xmlns:xlink="http://www.w3.org/1999/xlink">
<g id="graph0" class="graph" transform="scale(1 1) rotate(0) translate(4 408)">
<polygon fill="white" stroke="none" points="-4,4 -4,-408 2289.2,-408 2289.2,4 -4,4"/>
<!-- q2:0.0 -->
<g id="node1" class="node">
<title>q2:0.0</title>
<ellipse fill="none" stroke="black" stroke-width="2" cx="484.7" cy="-195" rx="42.79" ry="18"/>
<text text-anchor="middle" x="484.7" y="-190.32" font-family="Times,serif" font-size="14.00">q2:0.0</text>
</g>
<!-- q6:0.0 -->
<g id="node2" class="node">
<title>q6:0.0</title>
<ellipse fill="none" stroke="black" stroke-width="2" cx="725.53" cy="-135" rx="42.79" ry="18"/>
<text text-anchor="middle" x="725.53" y="-130.32" font-family="Times,serif" font-size="14.00">q6:0.0</text>
</g>
<!-- q2:0.0&#45;&gt;q6:0.0 -->
<g id="edge1" class="edge">
<title>q2:0.0&#45;&gt;q6:0.0</title>
<path fill="none" stroke="black" d="M517.73,-182.76C526.64,-179.59 536.38,-176.34 545.49,-173.75 588.27,-161.57 637.75,-151.13 673.84,-144.17"/>
<polygon fill="black" stroke="black" points="674.41,-147.63 683.57,-142.31 673.09,-140.75 674.41,-147.63"/>
<text text-anchor="middle" x="605.12" y="-176.94" font-family="Times,serif" font-size="14.00">AUTH/λ:0.004</text>
</g>
<!-- q5:0.0 -->
<g id="node3" class="node">
<title>q5:0.0</title>
<ellipse fill="none" stroke="black" stroke-width="2" cx="725.53" cy="-276" rx="42.79" ry="18"/>
<text text-anchor="middle" x="725.53" y="-271.32" font-family="Times,serif" font-size="14.00">q5:0.0</text>
</g>
<!-- q2:0.0&#45;&gt;q5:0.0 -->
<g id="edge2" class="edge">
<title>q2:0.0&#45;&gt;q5:0.0</title>
<path fill="none" stroke="black" d="M518.88,-206.75C527.53,-209.79 536.85,-213.04 545.49,-216 591.16,-231.67 643.53,-249.17 679.78,-261.2"/>
<polygon fill="black" stroke="black" points="678.46,-264.45 689.05,-264.27 680.66,-257.81 678.46,-264.45"/>
<text text-anchor="middle" x="605.12" y="-257.94" font-family="Times,serif" font-size="14.00">AUTH/235:0.946</text>
</g>
<!-- q4:0.0 -->
<g id="node4" class="node">
<title>q4:0.0</title>
<ellipse fill="none" stroke="black" stroke-width="2" cx="725.53" cy="-196" rx="42.79" ry="18"/>
<text text-anchor="middle" x="725.53" y="-191.32" font-family="Times,serif" font-size="14.00">q4:0.0</text>
</g>
<!-- q2:0.0&#45;&gt;q4:0.0 -->
<g id="edge3" class="edge">
<title>q2:0.0&#45;&gt;q4:0.0</title>
<path fill="none" stroke="black" d="M528.4,-195.18C568.1,-195.34 627.41,-195.59 670.41,-195.77"/>
<polygon fill="black" stroke="black" points="670.27,-199.27 680.29,-195.81 670.3,-192.27 670.27,-199.27"/>
<text text-anchor="middle" x="605.12" y="-198.94" font-family="Times,serif" font-size="14.00">AUTH/535:0.05</text>
</g>
<!-- q10:0.0 -->
<g id="node5" class="node">
<title>q10:0.0</title>
<ellipse fill="none" stroke="black" stroke-width="2" cx="968.18" cy="-135" rx="49.1" ry="18"/>
<text text-anchor="middle" x="968.18" y="-130.32" font-family="Times,serif" font-size="14.00">q10:0.0</text>
</g>
<!-- q6:0.0&#45;&gt;q10:0.0 -->
<g id="edge4" class="edge">
<title>q6:0.0&#45;&gt;q10:0.0</title>
<path fill="none" stroke="black" d="M769.28,-135C807.51,-135 863.95,-135 906.78,-135"/>
<polygon fill="black" stroke="black" points="906.69,-138.5 916.69,-135 906.69,-131.5 906.69,-138.5"/>
<text text-anchor="middle" x="843.7" y="-138.94" font-family="Times,serif" font-size="14.00">MAIL/250:1.0</text>
</g>
<!-- q9:0.0 -->
<g id="node6" class="node">
<title>q9:0.0</title>
<ellipse fill="none" stroke="black" stroke-width="2" cx="968.18" cy="-276" rx="42.79" ry="18"/>
<text text-anchor="middle" x="968.18" y="-271.32" font-family="Times,serif" font-size="14.00">q9:0.0</text>
</g>
<!-- q5:0.0&#45;&gt;q9:0.0 -->
<g id="edge5" class="edge">
<title>q5:0.0&#45;&gt;q9:0.0</title>
<path fill="none" stroke="black" d="M769.28,-276C809.36,-276 869.47,-276 912.92,-276"/>
<polygon fill="black" stroke="black" points="912.91,-279.5 922.91,-276 912.91,-272.5 912.91,-279.5"/>
<text text-anchor="middle" x="843.7" y="-279.94" font-family="Times,serif" font-size="14.00">MAIL/250:0.991</text>
</g>
<!-- q8:0.0 -->
<g id="node7" class="node">
<title>q8:0.0</title>
<ellipse fill="none" stroke="black" stroke-width="2" cx="968.18" cy="-379" rx="42.79" ry="18"/>
<text text-anchor="middle" x="968.18" y="-374.32" font-family="Times,serif" font-size="14.00">q8:0.0</text>
</g>
<!-- q5:0.0&#45;&gt;q8:0.0 -->
<g id="edge6" class="edge">
<title>q5:0.0&#45;&gt;q8:0.0</title>
<path fill="none" stroke="black" d="M757.01,-289.05C799.93,-307.41 878.27,-340.95 926.23,-361.48"/>
<polygon fill="black" stroke="black" points="924.61,-364.59 935.18,-365.31 927.36,-358.16 924.61,-364.59"/>
<text text-anchor="middle" x="843.7" y="-351.94" font-family="Times,serif" font-size="14.00">MAIL/553:0.009</text>
</g>
<!-- q7:0.0 -->
<g id="node8" class="node">
<title>q7:0.0</title>
<ellipse fill="none" stroke="black" stroke-width="2" cx="968.18" cy="-192" rx="42.79" ry="18"/>
<text text-anchor="middle" x="968.18" y="-187.32" font-family="Times,serif" font-size="14.00">q7:0.0</text>
</g>
<!-- q4:0.0&#45;&gt;q7:0.0 -->
<g id="edge7" class="edge">
<title>q4:0.0&#45;&gt;q7:0.0</title>
<path fill="none" stroke="black" d="M769.28,-195.29C809.36,-194.62 869.47,-193.62 912.92,-192.9"/>
<polygon fill="black" stroke="black" points="912.97,-196.4 922.91,-192.74 912.85,-189.4 912.97,-196.4"/>
<text text-anchor="middle" x="843.7" y="-197.94" font-family="Times,serif" font-size="14.00">AUTH/334:1.0</text>
</g>
<!-- q15:0.0 -->
<g id="node9" class="node">
<title>q15:0.0</title>
<ellipse fill="none" stroke="black" stroke-width="2" cx="1223.4" cy="-135" rx="49.1" ry="18"/>
<text text-anchor="middle" x="1223.4" y="-130.32" font-family="Times,serif" font-size="14.00">q15:0.0</text>
</g>
<!-- q10:0.0&#45;&gt;q15:0.0 -->
<g id="edge8" class="edge">
<title>q10:0.0&#45;&gt;q15:0.0</title>
<path fill="none" stroke="black" d="M1018,-135C1059.2,-135 1118.3,-135 1162.3,-135"/>
<polygon fill="black" stroke="black" points="1162.29,-138.5 1172.29,-135 1162.29,-131.5 1162.29,-138.5"/>
<text text-anchor="middle" x="1092.7" y="-138.94" font-family="Times,serif" font-size="14.00">RCPT/250:1.0</text>
</g>
<!-- q9:0.0&#45;&gt;q9:0.0 -->
<g id="edge9" class="edge">
<title>q9:0.0&#45;&gt;q9:0.0</title>
<path fill="none" stroke="black" d="M946.48,-292.29C941.25,-302.39 948.48,-312 968.18,-312 979.87,-312 987.17,-308.61 990.07,-303.74"/>
<polygon fill="black" stroke="black" points="993.57,-303.74 989.9,-293.8 986.57,-303.86 993.57,-303.74"/>
<text text-anchor="middle" x="968.18" y="-315.94" font-family="Times,serif" font-size="14.00">RCPT/250:0.622</text>
</g>
<!-- q13:0.0 -->
<g id="node10" class="node">
<title>q13:0.0</title>
<ellipse fill="none" stroke="black" stroke-width="2" cx="1223.4" cy="-297" rx="49.1" ry="18"/>
<text text-anchor="middle" x="1223.4" y="-292.32" font-family="Times,serif" font-size="14.00">q13:0.0</text>
</g>
<!-- q9:0.0&#45;&gt;q13:0.0 -->
<g id="edge10" class="edge">
<title>q9:0.0&#45;&gt;q13:0.0</title>
<path fill="none" stroke="black" d="M1011,-279.47C1052.5,-282.91 1116.6,-288.22 1163.3,-292.1"/>
<polygon fill="black" stroke="black" points="1162.74,-295.57 1172.99,-292.9 1163.31,-288.59 1162.74,-295.57"/>
<text text-anchor="middle" x="1092.7" y="-293.94" font-family="Times,serif" font-size="14.00">DATA/354:0.308</text>
</g>
<!-- q14:1.0 -->
<g id="node11" class="node">
<title>q14:1.0</title>
<ellipse fill="none" stroke="black" stroke-width="2" cx="1223.4" cy="-243" rx="49.1" ry="18"/>
<text text-anchor="middle" x="1223.4" y="-238.32" font-family="Times,serif" font-size="14.00">q14:1.0</text>
</g>
<!-- q9:0.0&#45;&gt;q14:1.0 -->
<g id="edge11" class="edge">
<title>q9:0.0&#45;&gt;q14:1.0</title>
<path fill="none" stroke="black" d="M1005.3,-266.06C1015,-263.69 1025.5,-261.38 1035.3,-259.75 1077.7,-252.68 1126.1,-248.45 1163,-246.01"/>
<polygon fill="black" stroke="black" points="1162.83,-249.53 1172.59,-245.41 1162.39,-242.54 1162.83,-249.53"/>
<text text-anchor="middle" x="1092.7" y="-262.94" font-family="Times,serif" font-size="14.00">DATA/550:0.07</text>
</g>
<!-- q12:1.0 -->
<g id="node12" class="node">
<title>q12:1.0</title>
<ellipse fill="none" stroke="black" stroke-width="2" cx="1223.4" cy="-386" rx="49.1" ry="18"/>
<text text-anchor="middle" x="1223.4" y="-381.32" font-family="Times,serif" font-size="14.00">q12:1.0</text>
</g>
<!-- q8:0.0&#45;&gt;q12:1.0 -->
<g id="edge12" class="edge">
<title>q8:0.0&#45;&gt;q12:1.0</title>
<path fill="none" stroke="black" d="M1011.9,-380.18C1053.1,-381.32 1115.8,-383.05 1162.1,-384.33"/>
<polygon fill="black" stroke="black" points="1161.89,-387.83 1171.99,-384.61 1162.09,-380.83 1161.89,-387.83"/>
<text text-anchor="middle" x="1092.7" y="-386.94" font-family="Times,serif" font-size="14.00">RSET/250:1.0</text>
</g>
<!-- q11:0.75 -->
<g id="node13" class="node">
<title>q11:0.75</title>
<ellipse fill="none" stroke="black" stroke-width="2" cx="1223.4" cy="-189" rx="55.42" ry="18"/>
<text text-anchor="middle" x="1223.4" y="-184.32" font-family="Times,serif" font-size="14.00">q11:0.75</text>
</g>
<!-- q7:0.0&#45;&gt;q11:0.75 -->
<g id="edge13" class="edge">
<title>q7:0.0&#45;&gt;q11:0.75</title>
<path fill="none" stroke="black" d="M1011.9,-191.49C1051.2,-191.03 1110.3,-190.33 1155.9,-189.79"/>
<polygon fill="black" stroke="black" points="1155.73,-193.29 1165.69,-189.67 1155.64,-186.29 1155.73,-193.29"/>
<text text-anchor="middle" x="1092.7" y="-194.94" font-family="Times,serif" font-size="14.00">content/535:1.0</text>
</g>
<!-- q21:0.0 -->
<g id="node14" class="node">
<title>q21:0.0</title>
<ellipse fill="none" stroke="black" stroke-width="2" cx="1494.5" cy="-135" rx="49.1" ry="18"/>
<text text-anchor="middle" x="1494.5" y="-130.32" font-family="Times,serif" font-size="14.00">q21:0.0</text>
</g>
<!-- q15:0.0&#45;&gt;q21:0.0 -->
<g id="edge14" class="edge">
<title>q15:0.0&#45;&gt;q21:0.0</title>
<path fill="none" stroke="black" d="M1273.5,-135C1318.4,-135 1385.1,-135 1433.3,-135"/>
<polygon fill="black" stroke="black" points="1433.29,-138.5 1443.29,-135 1433.29,-131.5 1433.29,-138.5"/>
<text text-anchor="middle" x="1362.1" y="-138.94" font-family="Times,serif" font-size="14.00">DATA/354:0.333</text>
</g>
<!-- q20:0.0 -->
<g id="node15" class="node">
<title>q20:0.0</title>
<ellipse fill="none" stroke="black" stroke-width="2" cx="1494.5" cy="-72" rx="49.1" ry="18"/>
<text text-anchor="middle" x="1494.5" y="-67.33" font-family="Times,serif" font-size="14.00">q20:0.0</text>
</g>
<!-- q15:0.0&#45;&gt;q20:0.0 -->
<g id="edge15" class="edge">
<title>q15:0.0&#45;&gt;q20:0.0</title>
<path fill="none" stroke="black" d="M1262.6,-123.2C1273.6,-119.97 1285.7,-116.57 1296.9,-113.75 1344.3,-101.78 1398.7,-90.4 1438.3,-82.55"/>
<polygon fill="black" stroke="black" points="1438.88,-86.01 1448.01,-80.63 1437.53,-79.14 1438.88,-86.01"/>
<text text-anchor="middle" x="1362.1" y="-116.95" font-family="Times,serif" font-size="14.00">RCPT/250:0.667</text>
</g>
<!-- q13:0.0&#45;&gt;q13:0.0 -->
<g id="edge26" class="edge">
<title>q13:0.0&#45;&gt;q13:0.0</title>
<path fill="none" stroke="black" d="M1200.5,-313.66C1195.3,-323.62 1203,-333 1223.4,-333 1235.6,-333 1243.2,-329.69 1246.3,-324.92"/>
<polygon fill="black" stroke="black" points="1249.8,-325.2 1246.39,-315.17 1242.8,-325.14 1249.8,-325.2"/>
<text text-anchor="middle" x="1223.4" y="-336.94" font-family="Times,serif" font-size="14.00">content/λ:0.93</text>
</g>
<!-- q18:0.0 -->
<g id="node24" class="node">
<title>q18:0.0</title>
<ellipse fill="none" stroke="black" stroke-width="2" cx="1494.5" cy="-243" rx="49.1" ry="18"/>
<text text-anchor="middle" x="1494.5" y="-238.32" font-family="Times,serif" font-size="14.00">q18:0.0</text>
</g>
<!-- q13:0.0&#45;&gt;q18:0.0 -->
<g id="edge27" class="edge">
<title>q13:0.0&#45;&gt;q18:0.0</title>
<path fill="none" stroke="black" d="M1262.2,-284.99C1273.3,-281.72 1285.5,-278.35 1296.9,-275.75 1343.2,-265.13 1396.5,-256.47 1435.8,-250.73"/>
<polygon fill="black" stroke="black" points="1436.19,-254.21 1445.6,-249.33 1435.21,-247.28 1436.19,-254.21"/>
<text text-anchor="middle" x="1362.1" y="-278.94" font-family="Times,serif" font-size="14.00">content/550:0.0</text>
</g>
<!-- q19:0.0 -->
<g id="node25" class="node">
<title>q19:0.0</title>
<ellipse fill="none" stroke="black" stroke-width="2" cx="1494.5" cy="-351" rx="49.1" ry="18"/>
<text text-anchor="middle" x="1494.5" y="-346.32" font-family="Times,serif" font-size="14.00">q19:0.0</text>
</g>
<!-- q13:0.0&#45;&gt;q19:0.0 -->
<g id="edge28" class="edge">
<title>q13:0.0&#45;&gt;q19:0.0</title>
<path fill="none" stroke="black" d="M1262.2,-308.84C1273.3,-312.08 1285.5,-315.41 1296.9,-318 1343.4,-328.61 1396.8,-337.37 1436.2,-343.19"/>
<polygon fill="black" stroke="black" points="1435.6,-346.64 1446,-344.6 1436.6,-339.71 1435.6,-346.64"/>
<text text-anchor="middle" x="1362.1" y="-344.94" font-family="Times,serif" font-size="14.00">content/554:0.028</text>
</g>
<!-- q17:0.0 -->
<g id="node26" class="node">
<title>q17:0.0</title>
<ellipse fill="none" stroke="black" stroke-width="2" cx="1494.5" cy="-297" rx="49.1" ry="18"/>
<text text-anchor="middle" x="1494.5" y="-292.32" font-family="Times,serif" font-size="14.00">q17:0.0</text>
</g>
<!-- q13:0.0&#45;&gt;q17:0.0 -->
<g id="edge29" class="edge">
<title>q13:0.0&#45;&gt;q17:0.0</title>
<path fill="none" stroke="black" d="M1273.5,-297C1318.4,-297 1385.1,-297 1433.3,-297"/>
<polygon fill="black" stroke="black" points="1433.29,-300.5 1443.29,-297 1433.29,-293.5 1433.29,-300.5"/>
<text text-anchor="middle" x="1362.1" y="-300.94" font-family="Times,serif" font-size="14.00">content/250:0.042</text>
</g>
<!-- q16:1.0 -->
<g id="node30" class="node">
<title>q16:1.0</title>
<ellipse fill="none" stroke="black" stroke-width="2" cx="1494.5" cy="-189" rx="49.1" ry="18"/>
<text text-anchor="middle" x="1494.5" y="-184.32" font-family="Times,serif" font-size="14.00">q16:1.0</text>
</g>
<!-- q11:0.75&#45;&gt;q16:1.0 -->
<g id="edge33" class="edge">
<title>q11:0.75&#45;&gt;q16:1.0</title>
<path fill="none" stroke="black" d="M1279.9,-189C1324.5,-189 1387.2,-189 1433.2,-189"/>
<polygon fill="black" stroke="black" points="1432.99,-192.5 1442.99,-189 1432.99,-185.5 1432.99,-192.5"/>
<text text-anchor="middle" x="1362.1" y="-192.94" font-family="Times,serif" font-size="14.00">λ/451:0.25</text>
</g>
<!-- q27:0.0 -->
<g id="node16" class="node">
<title>q27:0.0</title>
<ellipse fill="none" stroke="black" stroke-width="2" cx="1741.2" cy="-161" rx="49.1" ry="18"/>
<text text-anchor="middle" x="1741.2" y="-156.32" font-family="Times,serif" font-size="14.00">q27:0.0</text>
</g>
<!-- q21:0.0&#45;&gt;q27:0.0 -->
<g id="edge16" class="edge">
<title>q21:0.0&#45;&gt;q27:0.0</title>
<path fill="none" stroke="black" d="M1542.6,-140.01C1582.3,-144.23 1639.3,-150.28 1681.8,-154.8"/>
<polygon fill="black" stroke="black" points="1681.28,-158.26 1691.59,-155.84 1682.02,-151.3 1681.28,-158.26"/>
<text text-anchor="middle" x="1617.8" y="-156.94" font-family="Times,serif" font-size="14.00">content/554:1.0</text>
</g>
<!-- q25:0.0 -->
<g id="node17" class="node">
<title>q25:0.0</title>
<ellipse fill="none" stroke="black" stroke-width="2" cx="1741.2" cy="-72" rx="49.1" ry="18"/>
<text text-anchor="middle" x="1741.2" y="-67.33" font-family="Times,serif" font-size="14.00">q25:0.0</text>
</g>
<!-- q20:0.0&#45;&gt;q25:0.0 -->
<g id="edge17" class="edge">
<title>q20:0.0&#45;&gt;q25:0.0</title>
<path fill="none" stroke="black" d="M1544.4,-72C1583.4,-72 1638.2,-72 1679.9,-72"/>
<polygon fill="black" stroke="black" points="1679.79,-75.5 1689.79,-72 1679.79,-68.5 1679.79,-75.5"/>
<text text-anchor="middle" x="1617.8" y="-75.95" font-family="Times,serif" font-size="14.00">DATA/354:0.5</text>
</g>
<!-- q26:1.0 -->
<g id="node18" class="node">
<title>q26:1.0</title>
<ellipse fill="none" stroke="black" stroke-width="2" cx="1741.2" cy="-18" rx="49.1" ry="18"/>
<text text-anchor="middle" x="1741.2" y="-13.32" font-family="Times,serif" font-size="14.00">q26:1.0</text>
</g>
<!-- q20:0.0&#45;&gt;q26:1.0 -->
<g id="edge18" class="edge">
<title>q20:0.0&#45;&gt;q26:1.0</title>
<path fill="none" stroke="black" d="M1531.6,-59.45C1541.3,-56.35 1551.7,-53.22 1561.6,-50.75 1602,-40.59 1648.3,-32.19 1683.6,-26.44"/>
<polygon fill="black" stroke="black" points="1683.88,-29.94 1693.2,-24.91 1682.78,-23.03 1683.88,-29.94"/>
<text text-anchor="middle" x="1617.8" y="-54.95" font-family="Times,serif" font-size="14.00">DATA/550:0.5</text>
</g>
<!-- q29:1.0 -->
<g id="node19" class="node">
<title>q29:1.0</title>
<ellipse fill="none" stroke="black" stroke-width="2" cx="2005.9" cy="-161" rx="49.1" ry="18"/>
<text text-anchor="middle" x="2005.9" y="-156.32" font-family="Times,serif" font-size="14.00">q29:1.0</text>
</g>
<!-- q27:0.0&#45;&gt;q29:1.0 -->
<g id="edge19" class="edge">
<title>q27:0.0&#45;&gt;q29:1.0</title>
<path fill="none" stroke="black" d="M1791,-161C1834.3,-161 1897.9,-161 1944.4,-161"/>
<polygon fill="black" stroke="black" points="1944.39,-164.5 1954.39,-161 1944.39,-157.5 1944.39,-164.5"/>
<text text-anchor="middle" x="1873.5" y="-164.94" font-family="Times,serif" font-size="14.00">RSET/250:1.0</text>
</g>
<!-- q25:0.0&#45;&gt;q25:0.0 -->
<g id="edge20" class="edge">
<title>q25:0.0&#45;&gt;q25:0.0</title>
<path fill="none" stroke="black" d="M1719.3,-89.04C1714.9,-98.86 1722.1,-108 1741.2,-108 1752.2,-108 1759.3,-104.94 1762.4,-100.47"/>
<polygon fill="black" stroke="black" points="1765.89,-100.72 1762.92,-90.55 1758.9,-100.35 1765.89,-100.72"/>
<text text-anchor="middle" x="1741.2" y="-111.95" font-family="Times,serif" font-size="14.00">content/λ:0.962</text>
</g>
<!-- q28:0.0 -->
<g id="node20" class="node">
<title>q28:0.0</title>
<ellipse fill="none" stroke="black" stroke-width="2" cx="2005.9" cy="-72" rx="49.1" ry="18"/>
<text text-anchor="middle" x="2005.9" y="-67.33" font-family="Times,serif" font-size="14.00">q28:0.0</text>
</g>
<!-- q25:0.0&#45;&gt;q28:0.0 -->
<g id="edge21" class="edge">
<title>q25:0.0&#45;&gt;q28:0.0</title>
<path fill="none" stroke="black" d="M1791,-72C1834.3,-72 1897.9,-72 1944.4,-72"/>
<polygon fill="black" stroke="black" points="1944.39,-75.5 1954.39,-72 1944.39,-68.5 1944.39,-75.5"/>
<text text-anchor="middle" x="1873.5" y="-75.95" font-family="Times,serif" font-size="14.00">content/250:0.038</text>
</g>
<!-- q30:1.0 -->
<g id="node23" class="node">
<title>q30:1.0</title>
<ellipse fill="none" stroke="black" stroke-width="2" cx="2236.1" cy="-72" rx="49.1" ry="18"/>
<text text-anchor="middle" x="2236.1" y="-67.33" font-family="Times,serif" font-size="14.00">q30:1.0</text>
</g>
<!-- q28:0.0&#45;&gt;q30:1.0 -->
<g id="edge25" class="edge">
<title>q28:0.0&#45;&gt;q30:1.0</title>
<path fill="none" stroke="black" d="M2055.8,-72C2090.7,-72 2137.9,-72 2175,-72"/>
<polygon fill="black" stroke="black" points="2174.69,-75.5 2184.69,-72 2174.69,-68.5 2174.69,-75.5"/>
<text text-anchor="middle" x="2121" y="-75.95" font-family="Times,serif" font-size="14.00">QUIT/221:1.0</text>
</g>
<!-- q1:0.0 -->
<g id="node21" class="node">
<title>q1:0.0</title>
<ellipse fill="none" stroke="black" stroke-width="2" cx="243.87" cy="-162" rx="42.79" ry="18"/>
<text text-anchor="middle" x="243.87" y="-157.32" font-family="Times,serif" font-size="14.00">q1:0.0</text>
</g>
<!-- q1:0.0&#45;&gt;q2:0.0 -->
<g id="edge22" class="edge">
<title>q1:0.0&#45;&gt;q2:0.0</title>
<path fill="none" stroke="black" d="M285.66,-167.64C326.01,-173.21 387.94,-181.77 431.79,-187.83"/>
<polygon fill="black" stroke="black" points="431.19,-191.28 441.58,-189.18 432.15,-184.35 431.19,-191.28"/>
<text text-anchor="middle" x="364.29" y="-189.94" font-family="Times,serif" font-size="14.00">EHLO/250:0.992</text>
</g>
<!-- q3:0.0 -->
<g id="node22" class="node">
<title>q3:0.0</title>
<ellipse fill="none" stroke="black" stroke-width="2" cx="484.7" cy="-135" rx="42.79" ry="18"/>
<text text-anchor="middle" x="484.7" y="-130.32" font-family="Times,serif" font-size="14.00">q3:0.0</text>
</g>
<!-- q1:0.0&#45;&gt;q3:0.0 -->
<g id="edge23" class="edge">
<title>q1:0.0&#45;&gt;q3:0.0</title>
<path fill="none" stroke="black" d="M279.7,-151.24C287.82,-149.1 296.49,-147.09 304.66,-145.75 346.39,-138.9 394.23,-136.29 429.95,-135.35"/>
<polygon fill="black" stroke="black" points="429.66,-138.86 439.59,-135.14 429.51,-131.86 429.66,-138.86"/>
<text text-anchor="middle" x="364.29" y="-148.94" font-family="Times,serif" font-size="14.00">EHLO/λ:0.008</text>
</g>
<!-- q3:0.0&#45;&gt;q6:0.0 -->
<g id="edge24" class="edge">
<title>q3:0.0&#45;&gt;q6:0.0</title>
<path fill="none" stroke="black" d="M523.16,-126.12C530.52,-124.72 538.22,-123.49 545.49,-122.75 598.22,-117.4 612.01,-117.4 664.74,-122.75 668.38,-123.12 672.12,-123.61 675.87,-124.19"/>
<polygon fill="black" stroke="black" points="675.13,-127.61 685.58,-125.86 676.32,-120.72 675.13,-127.61"/>
<text text-anchor="middle" x="605.12" y="-125.95" font-family="Times,serif" font-size="14.00">AUTH/235:1.0</text>
</g>
<!-- q23:1.0 -->
<g id="node27" class="node">
<title>q23:1.0</title>
<ellipse fill="none" stroke="black" stroke-width="2" cx="1741.2" cy="-243" rx="49.1" ry="18"/>
<text text-anchor="middle" x="1741.2" y="-238.32" font-family="Times,serif" font-size="14.00">q23:1.0</text>
</g>
<!-- q18:0.0&#45;&gt;q23:1.0 -->
<g id="edge30" class="edge">
<title>q18:0.0&#45;&gt;q23:1.0</title>
<path fill="none" stroke="black" d="M1544.4,-243C1583.4,-243 1638.2,-243 1679.9,-243"/>
<polygon fill="black" stroke="black" points="1679.79,-246.5 1689.79,-243 1679.79,-239.5 1679.79,-246.5"/>
<text text-anchor="middle" x="1617.8" y="-246.94" font-family="Times,serif" font-size="14.00">RSET/250:1.0</text>
</g>
<!-- q24:1.0 -->
<g id="node28" class="node">
<title>q24:1.0</title>
<ellipse fill="none" stroke="black" stroke-width="2" cx="1741.2" cy="-351" rx="49.1" ry="18"/>
<text text-anchor="middle" x="1741.2" y="-346.32" font-family="Times,serif" font-size="14.00">q24:1.0</text>
</g>
<!-- q19:0.0&#45;&gt;q24:1.0 -->
<g id="edge31" class="edge">
<title>q19:0.0&#45;&gt;q24:1.0</title>
<path fill="none" stroke="black" d="M1544.4,-351C1583.4,-351 1638.2,-351 1679.9,-351"/>
<polygon fill="black" stroke="black" points="1679.79,-354.5 1689.79,-351 1679.79,-347.5 1679.79,-354.5"/>
<text text-anchor="middle" x="1617.8" y="-354.94" font-family="Times,serif" font-size="14.00">RSET/250:1.0</text>
</g>
<!-- q22:1.0 -->
<g id="node29" class="node">
<title>q22:1.0</title>
<ellipse fill="none" stroke="black" stroke-width="2" cx="1741.2" cy="-297" rx="49.1" ry="18"/>
<text text-anchor="middle" x="1741.2" y="-292.32" font-family="Times,serif" font-size="14.00">q22:1.0</text>
</g>
<!-- q17:0.0&#45;&gt;q22:1.0 -->
<g id="edge32" class="edge">
<title>q17:0.0&#45;&gt;q22:1.0</title>
<path fill="none" stroke="black" d="M1544.4,-297C1583.4,-297 1638.2,-297 1679.9,-297"/>
<polygon fill="black" stroke="black" points="1679.79,-300.5 1689.79,-297 1679.79,-293.5 1679.79,-300.5"/>
<text text-anchor="middle" x="1617.8" y="-300.94" font-family="Times,serif" font-size="14.00">QUIT/221:1.0</text>
</g>
<!-- q0:0.0 -->
<g id="node31" class="node">
<title>q0:0.0</title>
<ellipse fill="none" stroke="black" stroke-width="2" cx="50.79" cy="-162" rx="46.79" ry="46.79"/>
<ellipse fill="none" stroke="black" stroke-width="2" cx="50.79" cy="-162" rx="50.79" ry="50.79"/>
<text text-anchor="middle" x="50.79" y="-157.32" font-family="Times,serif" font-size="14.00">q0:0.0</text>
</g>
<!-- q0:0.0&#45;&gt;q1:0.0 -->
<g id="edge34" class="edge">
<title>q0:0.0&#45;&gt;q1:0.0</title>
<path fill="none" stroke="black" d="M98.53,-162C125.82,-162 160.37,-162 188.82,-162"/>
<polygon fill="black" stroke="black" points="188.69,-165.5 198.69,-162 188.69,-158.5 188.69,-165.5"/>
<text text-anchor="middle" x="149.33" y="-165.94" font-family="Times,serif" font-size="14.00">λ/220:1.0</text>
</g>
</g>
</svg>
