<?xml version="1.0" encoding="UTF-8" standalone="no"?>
<!DOCTYPE svg PUBLIC "-//W3C//DTD SVG 1.1//EN"
 "http://www.w3.org/Graphics/SVG/1.1/DTD/svg11.dtd">
<!-- Generated by graphviz version 12.0.0 (20240803.0821)
 -->
<!-- Pages: 1 -->
<svg width="7206pt" height="520pt"
 viewBox="0.00 0.00 7205.69 519.52" xmlns="http://www.w3.org/2000/svg" xmlns:xlink="http://www.w3.org/1999/xlink">
<g id="graph0" class="graph" transform="scale(1 1) rotate(0) translate(4 515.52)">
<polygon fill="white" stroke="none" points="-4,4 -4,-515.52 7201.69,-515.52 7201.69,4 -4,4"/>
<!-- q11:&#45;1 -->
<g id="node1" class="node">
<title>q11:&#45;1</title>
<ellipse fill="none" stroke="black" stroke-width="2" cx="2797.1" cy="-371.72" rx="42.79" ry="18"/>
<text text-anchor="middle" x="2797.1" y="-367.04" font-family="Times,serif" font-size="14.00">q11:&#45;1</text>
</g>
<!-- q14:&#45;1 -->
<g id="node2" class="node">
<title>q14:&#45;1</title>
<ellipse fill="none" stroke="black" stroke-width="2" cx="3613.1" cy="-371.72" rx="42.79" ry="18"/>
<text text-anchor="middle" x="3613.1" y="-367.04" font-family="Times,serif" font-size="14.00">q14:&#45;1</text>
</g>
<!-- q11:&#45;1&#45;&gt;q14:&#45;1 -->
<g id="edge1" class="edge">
<title>q11:&#45;1&#45;&gt;q14:&#45;1</title>
<path fill="none" stroke="black" d="M2840.7,-371.72C2977.6,-371.72 3406.3,-371.72 3558.2,-371.72"/>
<polygon fill="black" stroke="black" points="3557.99,-375.22 3567.99,-371.72 3557.99,-368.22 3557.99,-375.22"/>
<text text-anchor="middle" x="3205.1" y="-392.92" font-family="Times,serif" font-size="14.00">λ/451:&#45;1</text>
<text text-anchor="middle" x="3205.1" y="-375.67" font-family="Times,serif" font-size="14.00">b0 = Timeout.</text>
</g>
<!-- q3:&#45;1 -->
<g id="node3" class="node">
<title>q3:&#45;1</title>
<ellipse fill="none" stroke="black" stroke-width="2" cx="441.13" cy="-296.72" rx="36.48" ry="18"/>
<text text-anchor="middle" x="441.13" y="-292.04" font-family="Times,serif" font-size="14.00">q3:&#45;1</text>
</g>
<!-- q5:&#45;1 -->
<g id="node4" class="node">
<title>q5:&#45;1</title>
<ellipse fill="none" stroke="black" stroke-width="2" cx="1601.6" cy="-371.72" rx="36.48" ry="18"/>
<text text-anchor="middle" x="1601.6" y="-367.04" font-family="Times,serif" font-size="14.00">q5:&#45;1</text>
</g>
<!-- q3:&#45;1&#45;&gt;q5:&#45;1 -->
<g id="edge2" class="edge">
<title>q3:&#45;1&#45;&gt;q5:&#45;1</title>
<path fill="none" stroke="black" d="M454.13,-314.32C463.73,-326.75 478.4,-342.43 495.61,-349.72 877.87,-511.52 1403.2,-415.57 1556.8,-381.95"/>
<polygon fill="black" stroke="black" points="1557.12,-385.46 1566.12,-379.88 1555.6,-378.63 1557.12,-385.46"/>
<text text-anchor="middle" x="1021.4" y="-461.92" font-family="Times,serif" font-size="14.00">AUTH/535:&#45;1</text>
<text text-anchor="middle" x="1021.4" y="-444.67" font-family="Times,serif" font-size="14.00">b0 in {&#39;5.7.8 authentication failed&#39;, &#39;Error: authentication failed&#39;}</text>
</g>
<!-- q4:&#45;1 -->
<g id="node5" class="node">
<title>q4:&#45;1</title>
<ellipse fill="none" stroke="black" stroke-width="2" cx="1601.6" cy="-240.72" rx="36.48" ry="18"/>
<text text-anchor="middle" x="1601.6" y="-236.04" font-family="Times,serif" font-size="14.00">q4:&#45;1</text>
</g>
<!-- q3:&#45;1&#45;&gt;q4:&#45;1 -->
<g id="edge3" class="edge">
<title>q3:&#45;1&#45;&gt;q4:&#45;1</title>
<path fill="none" stroke="black" d="M478.53,-296.54C663.75,-295.6 1494.9,-290.47 1547.1,-274.72 1555.8,-272.11 1564.3,-267.68 1572,-262.86"/>
<polygon fill="black" stroke="black" points="1573.98,-265.74 1580.34,-257.27 1570.09,-259.93 1573.98,-265.74"/>
<text text-anchor="middle" x="1021.4" y="-334.16" font-family="Times,serif" font-size="14.00">AUTH/235:&#45;1</text>
<text text-anchor="middle" x="1021.4" y="-316.91" font-family="Times,serif" font-size="14.00">a0 in {&#39;PLAIN AEF6NjE2MUAxMjYuY29tAE1VUVNBT1NUWElURkpDVUU=&#39;, &#39;PLAIN AEF6NjE2MUBzaW5hLmNvbQA2ZmRiMjVjZmNjODYyZWZj&#39;}</text>
<text text-anchor="middle" x="1021.4" y="-299.66" font-family="Times,serif" font-size="14.00">b0 in {&#39;OK Authenticated&#39;, &#39;Authentication successful&#39;}</text>
</g>
<!-- q8:&#45;1 -->
<g id="node6" class="node">
<title>q8:&#45;1</title>
<ellipse fill="none" stroke="black" stroke-width="2" cx="2199.5" cy="-371.72" rx="36.48" ry="18"/>
<text text-anchor="middle" x="2199.5" y="-367.04" font-family="Times,serif" font-size="14.00">q8:&#45;1</text>
</g>
<!-- q5:&#45;1&#45;&gt;q8:&#45;1 -->
<g id="edge4" class="edge">
<title>q5:&#45;1&#45;&gt;q8:&#45;1</title>
<path fill="none" stroke="black" d="M1639,-371.72C1742,-371.72 2035.5,-371.72 2151,-371.72"/>
<polygon fill="black" stroke="black" points="2150.79,-375.22 2160.79,-371.72 2150.79,-368.22 2150.79,-375.22"/>
<text text-anchor="middle" x="1900.6" y="-392.92" font-family="Times,serif" font-size="14.00">AUTH/334:&#45;1</text>
<text text-anchor="middle" x="1900.6" y="-375.67" font-family="Times,serif" font-size="14.00">b0 = UGFzc3dvcmQ6</text>
</g>
<!-- q6:&#45;1 -->
<g id="node7" class="node">
<title>q6:&#45;1</title>
<ellipse fill="none" stroke="black" stroke-width="2" cx="2199.5" cy="-278.72" rx="36.48" ry="18"/>
<text text-anchor="middle" x="2199.5" y="-274.04" font-family="Times,serif" font-size="14.00">q6:&#45;1</text>
</g>
<!-- q4:&#45;1&#45;&gt;q6:&#45;1 -->
<g id="edge5" class="edge">
<title>q4:&#45;1&#45;&gt;q6:&#45;1</title>
<path fill="none" stroke="black" d="M1632.8,-251.19C1640.3,-253.4 1648.4,-255.44 1656.1,-256.72 1836.8,-286.93 2055.9,-283.94 2150.9,-280.75"/>
<polygon fill="black" stroke="black" points="2151.02,-284.25 2160.89,-280.4 2150.77,-277.25 2151.02,-284.25"/>
<text text-anchor="middle" x="1900.6" y="-320.16" font-family="Times,serif" font-size="14.00">MAIL/553:&#45;1</text>
<text text-anchor="middle" x="1900.6" y="-302.91" font-family="Times,serif" font-size="14.00">a0 = FROM:&lt;Az_6161@126.com&gt;</text>
<text text-anchor="middle" x="1900.6" y="-285.66" font-family="Times,serif" font-size="14.00">b0 = Mail from must equal authorized user</text>
</g>
<!-- q7:&#45;1 -->
<g id="node8" class="node">
<title>q7:&#45;1</title>
<ellipse fill="none" stroke="black" stroke-width="2" cx="2199.5" cy="-203.72" rx="36.48" ry="18"/>
<text text-anchor="middle" x="2199.5" y="-199.04" font-family="Times,serif" font-size="14.00">q7:&#45;1</text>
</g>
<!-- q4:&#45;1&#45;&gt;q7:&#45;1 -->
<g id="edge6" class="edge">
<title>q4:&#45;1&#45;&gt;q7:&#45;1</title>
<path fill="none" stroke="black" d="M1621,-224.48C1630.7,-216.97 1643.2,-208.87 1656.1,-204.97 1833.4,-150.94 2058.6,-179.24 2153.4,-195.22"/>
<polygon fill="black" stroke="black" points="2152.56,-198.63 2163.01,-196.88 2153.75,-191.73 2152.56,-198.63"/>
<text text-anchor="middle" x="1900.6" y="-244.16" font-family="Times,serif" font-size="14.00">MAIL/250:&#45;1</text>
<text text-anchor="middle" x="1900.6" y="-226.91" font-family="Times,serif" font-size="14.00">a0 in {&#39;FROM:&lt;Az6161@126.com&gt;&#39;, &#39;FROM:&lt;Az6161@sina.com&gt;&#39;}</text>
<text text-anchor="middle" x="1900.6" y="-209.66" font-family="Times,serif" font-size="14.00">b0 in {&#39;Mail OK&#39;, &#39;ok&#39;}</text>
</g>
<!-- q8:&#45;1&#45;&gt;q11:&#45;1 -->
<g id="edge7" class="edge">
<title>q8:&#45;1&#45;&gt;q11:&#45;1</title>
<path fill="none" stroke="black" d="M2236.9,-371.72C2338,-371.72 2622.6,-371.72 2742.2,-371.72"/>
<polygon fill="black" stroke="black" points="2741.99,-375.22 2751.99,-371.72 2741.99,-368.22 2741.99,-375.22"/>
<text text-anchor="middle" x="2495.1" y="-392.92" font-family="Times,serif" font-size="14.00">content/535:&#45;1</text>
<text text-anchor="middle" x="2495.1" y="-375.67" font-family="Times,serif" font-size="14.00">b0 in {&#39;5.7.8 authentication failed&#39;, &#39;Error: authentication failed&#39;}</text>
</g>
<!-- q9:&#45;1 -->
<g id="node9" class="node">
<title>q9:&#45;1</title>
<ellipse fill="none" stroke="black" stroke-width="2" cx="2797.1" cy="-278.72" rx="36.48" ry="18"/>
<text text-anchor="middle" x="2797.1" y="-274.04" font-family="Times,serif" font-size="14.00">q9:&#45;1</text>
</g>
<!-- q6:&#45;1&#45;&gt;q9:&#45;1 -->
<g id="edge8" class="edge">
<title>q6:&#45;1&#45;&gt;q9:&#45;1</title>
<path fill="none" stroke="black" d="M2236.9,-278.72C2339.8,-278.72 2633.1,-278.72 2748.6,-278.72"/>
<polygon fill="black" stroke="black" points="2748.29,-282.22 2758.29,-278.72 2748.29,-275.22 2748.29,-282.22"/>
<text text-anchor="middle" x="2495.1" y="-299.92" font-family="Times,serif" font-size="14.00">RSET/250:&#45;1</text>
<text text-anchor="middle" x="2495.1" y="-282.67" font-family="Times,serif" font-size="14.00">b0 = OK</text>
</g>
<!-- q10:&#45;1 -->
<g id="node10" class="node">
<title>q10:&#45;1</title>
<ellipse fill="none" stroke="black" stroke-width="2" cx="2797.1" cy="-203.72" rx="42.79" ry="18"/>
<text text-anchor="middle" x="2797.1" y="-199.04" font-family="Times,serif" font-size="14.00">q10:&#45;1</text>
</g>
<!-- q7:&#45;1&#45;&gt;q10:&#45;1 -->
<g id="edge9" class="edge">
<title>q7:&#45;1&#45;&gt;q10:&#45;1</title>
<path fill="none" stroke="black" d="M2236.9,-203.72C2338,-203.72 2622.6,-203.72 2742.2,-203.72"/>
<polygon fill="black" stroke="black" points="2741.99,-207.22 2751.99,-203.72 2741.99,-200.22 2741.99,-207.22"/>
<text text-anchor="middle" x="2495.1" y="-242.16" font-family="Times,serif" font-size="14.00">RCPT/250:&#45;1</text>
<text text-anchor="middle" x="2495.1" y="-224.91" font-family="Times,serif" font-size="14.00">a0 in {&#39;TO:&lt;1542110793@qq.com&gt;&#39;, &#39;TO:&lt;574702257@qq.com&gt;&#39;}</text>
<text text-anchor="middle" x="2495.1" y="-207.66" font-family="Times,serif" font-size="14.00">b0 in {&#39;Mail OK&#39;, &#39;ok&#39;}</text>
</g>
<!-- q13:&#45;1 -->
<g id="node11" class="node">
<title>q13:&#45;1</title>
<ellipse fill="none" stroke="black" stroke-width="2" cx="3613.1" cy="-232.72" rx="42.79" ry="18"/>
<text text-anchor="middle" x="3613.1" y="-228.04" font-family="Times,serif" font-size="14.00">q13:&#45;1</text>
</g>
<!-- q10:&#45;1&#45;&gt;q13:&#45;1 -->
<g id="edge10" class="edge">
<title>q10:&#45;1&#45;&gt;q13:&#45;1</title>
<path fill="none" stroke="black" d="M2838.9,-208.97C2845.2,-209.65 2851.7,-210.27 2857.9,-210.72 3119.9,-229.84 3434.2,-232.5 3558.2,-232.76"/>
<polygon fill="black" stroke="black" points="3557.98,-236.26 3567.99,-232.78 3557.99,-229.26 3557.98,-236.26"/>
<text text-anchor="middle" x="3205.1" y="-272.16" font-family="Times,serif" font-size="14.00">RCPT/250:&#45;1</text>
<text text-anchor="middle" x="3205.1" y="-254.91" font-family="Times,serif" font-size="14.00">a0 in {&#39;TO:&lt;574702256@qq.com&gt;&#39;, &#39;TO:&lt;1542110793@qq.com&gt;&#39;, &#39;TO:&lt;574702257@qq.com&gt;&#39;}</text>
<text text-anchor="middle" x="3205.1" y="-237.66" font-family="Times,serif" font-size="14.00">b0 in {&#39;Mail OK&#39;, &#39;ok&#39;}</text>
</g>
<!-- q12:&#45;1 -->
<g id="node12" class="node">
<title>q12:&#45;1</title>
<ellipse fill="none" stroke="black" stroke-width="2" cx="3613.1" cy="-174.71" rx="42.79" ry="18"/>
<text text-anchor="middle" x="3613.1" y="-170.04" font-family="Times,serif" font-size="14.00">q12:&#45;1</text>
</g>
<!-- q10:&#45;1&#45;&gt;q12:&#45;1 -->
<g id="edge11" class="edge">
<title>q10:&#45;1&#45;&gt;q12:&#45;1</title>
<path fill="none" stroke="black" d="M2821.4,-188.02C2832.1,-181.79 2845.1,-175.37 2857.9,-172.21 3115.5,-108.48 3438.1,-147.25 3561.2,-166.15"/>
<polygon fill="black" stroke="black" points="3560.59,-169.6 3571.01,-167.68 3561.67,-162.68 3560.59,-169.6"/>
<text text-anchor="middle" x="3205.1" y="-193.91" font-family="Times,serif" font-size="14.00">DATA/354:&#45;1</text>
<text text-anchor="middle" x="3205.1" y="-176.66" font-family="Times,serif" font-size="14.00">b0 = End data with &lt;CR&gt;&lt;LF&gt;.&lt;CR&gt;&lt;LF&gt;</text>
</g>
<!-- q15:&#45;1 -->
<g id="node13" class="node">
<title>q15:&#45;1</title>
<ellipse fill="none" stroke="black" stroke-width="2" cx="4058.7" cy="-203.72" rx="42.79" ry="18"/>
<text text-anchor="middle" x="4058.7" y="-199.04" font-family="Times,serif" font-size="14.00">q15:&#45;1</text>
</g>
<!-- q13:&#45;1&#45;&gt;q15:&#45;1 -->
<g id="edge20" class="edge">
<title>q13:&#45;1&#45;&gt;q15:&#45;1</title>
<path fill="none" stroke="black" d="M3656.5,-231.11C3727.3,-228.24 3874.1,-221.5 3997.9,-210.72 4000.4,-210.5 4002.9,-210.27 4005.4,-210.02"/>
<polygon fill="black" stroke="black" points="4005.51,-213.53 4015.1,-209.01 4004.79,-206.56 4005.51,-213.53"/>
<text text-anchor="middle" x="3835.9" y="-251.92" font-family="Times,serif" font-size="14.00">DATA/354:&#45;1</text>
<text text-anchor="middle" x="3835.9" y="-234.67" font-family="Times,serif" font-size="14.00">b0 = End data with &lt;CR&gt;&lt;LF&gt;.&lt;CR&gt;&lt;LF&gt;</text>
</g>
<!-- q12:&#45;1&#45;&gt;q15:&#45;1 -->
<g id="edge21" class="edge">
<title>q12:&#45;1&#45;&gt;q15:&#45;1</title>
<path fill="none" stroke="black" d="M3654.1,-168.08C3724.8,-157.75 3875.7,-141.98 3997.9,-172.21 4006.9,-174.43 4016,-178.27 4024.3,-182.51"/>
<polygon fill="black" stroke="black" points="4022.62,-185.58 4033.07,-187.3 4025.97,-179.44 4022.62,-185.58"/>
<text text-anchor="middle" x="3835.9" y="-193.91" font-family="Times,serif" font-size="14.00">content/λ:&#45;1</text>
<text text-anchor="middle" x="3835.9" y="-176.66" font-family="Times,serif" font-size="14.00">a0 = b0</text>
</g>
<!-- q15:&#45;1&#45;&gt;q15:&#45;1 -->
<g id="edge12" class="edge">
<title>q15:&#45;1&#45;&gt;q15:&#45;1</title>
<path fill="none" stroke="black" d="M4025.2,-215.7C4007.3,-227.18 4018.5,-239.72 4058.7,-239.72 4089.2,-239.72 4103,-232.52 4100.1,-224.04"/>
<polygon fill="black" stroke="black" points="4102.66,-221.65 4093.24,-216.8 4097.58,-226.46 4102.66,-221.65"/>
<text text-anchor="middle" x="4058.7" y="-260.92" font-family="Times,serif" font-size="14.00">content/λ:&#45;1</text>
<text text-anchor="middle" x="4058.7" y="-243.67" font-family="Times,serif" font-size="14.00">a0 = b0</text>
</g>
<!-- q17:&#45;1 -->
<g id="node14" class="node">
<title>q17:&#45;1</title>
<ellipse fill="none" stroke="black" stroke-width="2" cx="6944.1" cy="-230.72" rx="42.79" ry="18"/>
<text text-anchor="middle" x="6944.1" y="-226.04" font-family="Times,serif" font-size="14.00">q17:&#45;1</text>
</g>
<!-- q15:&#45;1&#45;&gt;q17:&#45;1 -->
<g id="edge13" class="edge">
<title>q15:&#45;1&#45;&gt;q17:&#45;1</title>
<path fill="none" stroke="black" d="M4102.2,-204.47C4108,-204.56 4113.9,-204.64 4119.5,-204.72 5236.9,-219.21 6603.2,-228.51 6889.1,-230.37"/>
<polygon fill="black" stroke="black" points="6888.77,-233.87 6898.79,-230.43 6888.81,-226.87 6888.77,-233.87"/>
<text text-anchor="middle" x="5501.4" y="-251.92" font-family="Times,serif" font-size="14.00">content/554:&#45;1</text>
<text text-anchor="middle" x="5501.4" y="-234.67" font-family="Times,serif" font-size="14.00">b0 in {&#39;DT:SPM 126 smtp10 NuRpCgAXIXf+MYBfJr+Adw&#45;&#45;.17258S2 1602236927 please see http://mail.163.com/help/help_spam_16.htm?ip=221.212.176.101&amp;hostid=smtp10&amp;time=1602236927&#39;, &#39;DT:SPM 126 smtp8 NORpCgDnvV68MIBfFhyvJg&#45;&#45;.11962S2 1602236606 please see http://mail.163.com/help/help_spam_16.htm?ip=221.212.176.101&amp;hostid=smtp8&amp;time=1602236606&#39;}</text>
</g>
<!-- q16:&#45;1 -->
<g id="node15" class="node">
<title>q16:&#45;1</title>
<ellipse fill="none" stroke="black" stroke-width="2" cx="6944.1" cy="-176.71" rx="42.79" ry="18"/>
<text text-anchor="middle" x="6944.1" y="-172.04" font-family="Times,serif" font-size="14.00">q16:&#45;1</text>
</g>
<!-- q15:&#45;1&#45;&gt;q16:&#45;1 -->
<g id="edge14" class="edge">
<title>q15:&#45;1&#45;&gt;q16:&#45;1</title>
<path fill="none" stroke="black" d="M4090.9,-191.04C4100,-187.93 4110,-185.04 4119.5,-183.46 5224.9,0 6607.4,-138.78 6890.9,-170.62"/>
<polygon fill="black" stroke="black" points="6890.17,-174.06 6900.5,-171.71 6890.96,-167.1 6890.17,-174.06"/>
<text text-anchor="middle" x="5501.4" y="-187.66" font-family="Times,serif" font-size="14.00">content/250:&#45;1</text>
</g>
<!-- q19:&#45;1 -->
<g id="node16" class="node">
<title>q19:&#45;1</title>
<ellipse fill="none" stroke="black" stroke-width="2" cx="7154.9" cy="-230.72" rx="42.79" ry="18"/>
<text text-anchor="middle" x="7154.9" y="-226.04" font-family="Times,serif" font-size="14.00">q19:&#45;1</text>
</g>
<!-- q17:&#45;1&#45;&gt;q19:&#45;1 -->
<g id="edge15" class="edge">
<title>q17:&#45;1&#45;&gt;q19:&#45;1</title>
<path fill="none" stroke="black" d="M6987.8,-230.72C7020.2,-230.72 7064.9,-230.72 7099.8,-230.72"/>
<polygon fill="black" stroke="black" points="7099.69,-234.22 7109.69,-230.72 7099.69,-227.22 7099.69,-234.22"/>
<text text-anchor="middle" x="7049.5" y="-251.92" font-family="Times,serif" font-size="14.00">RSET/250:&#45;1</text>
<text text-anchor="middle" x="7049.5" y="-234.67" font-family="Times,serif" font-size="14.00">b0 = OK</text>
</g>
<!-- q18:&#45;1 -->
<g id="node17" class="node">
<title>q18:&#45;1</title>
<ellipse fill="none" stroke="black" stroke-width="2" cx="7154.9" cy="-176.71" rx="42.79" ry="18"/>
<text text-anchor="middle" x="7154.9" y="-172.04" font-family="Times,serif" font-size="14.00">q18:&#45;1</text>
</g>
<!-- q16:&#45;1&#45;&gt;q18:&#45;1 -->
<g id="edge16" class="edge">
<title>q16:&#45;1&#45;&gt;q18:&#45;1</title>
<path fill="none" stroke="black" d="M6987.8,-176.71C7020.2,-176.71 7064.9,-176.71 7099.8,-176.71"/>
<polygon fill="black" stroke="black" points="7099.69,-180.22 7109.69,-176.72 7099.69,-173.22 7099.69,-180.22"/>
<text text-anchor="middle" x="7049.5" y="-180.66" font-family="Times,serif" font-size="14.00">QUIT/221:&#45;1</text>
</g>
<!-- q1:&#45;1 -->
<g id="node18" class="node">
<title>q1:&#45;1</title>
<ellipse fill="none" stroke="black" stroke-width="2" cx="215.93" cy="-261.72" rx="36.48" ry="18"/>
<text text-anchor="middle" x="215.93" y="-257.04" font-family="Times,serif" font-size="14.00">q1:&#45;1</text>
</g>
<!-- q1:&#45;1&#45;&gt;q3:&#45;1 -->
<g id="edge17" class="edge">
<title>q1:&#45;1&#45;&gt;q3:&#45;1</title>
<path fill="none" stroke="black" d="M250.53,-268.96C257.11,-270.28 263.96,-271.6 270.41,-272.72 312.03,-279.93 359.68,-286.53 393.88,-290.97"/>
<polygon fill="black" stroke="black" points="393.07,-294.39 403.43,-292.2 393.96,-287.45 393.07,-294.39"/>
<text text-anchor="middle" x="328.53" y="-292.66" font-family="Times,serif" font-size="14.00">EHLO/250:&#45;1</text>
</g>
<!-- q2:&#45;1 -->
<g id="node19" class="node">
<title>q2:&#45;1</title>
<ellipse fill="none" stroke="black" stroke-width="2" cx="441.13" cy="-229.72" rx="36.48" ry="18"/>
<text text-anchor="middle" x="441.13" y="-225.04" font-family="Times,serif" font-size="14.00">q2:&#45;1</text>
</g>
<!-- q1:&#45;1&#45;&gt;q2:&#45;1 -->
<g id="edge18" class="edge">
<title>q1:&#45;1&#45;&gt;q2:&#45;1</title>
<path fill="none" stroke="black" d="M242.38,-248.28C251.04,-244.32 260.93,-240.45 270.41,-238.22 311.04,-228.62 358.61,-227.03 393.03,-227.53"/>
<polygon fill="black" stroke="black" points="392.58,-231.02 402.66,-227.75 392.74,-224.02 392.58,-231.02"/>
<text text-anchor="middle" x="328.53" y="-259.92" font-family="Times,serif" font-size="14.00">EHLO/λ:&#45;1</text>
<text text-anchor="middle" x="328.53" y="-242.67" font-family="Times,serif" font-size="14.00">a0 = [127.0.1.1]</text>
</g>
<!-- q2:&#45;1&#45;&gt;q4:&#45;1 -->
<g id="edge19" class="edge">
<title>q2:&#45;1&#45;&gt;q4:&#45;1</title>
<path fill="none" stroke="black" d="M477.17,-224.65C483.3,-223.95 489.63,-223.34 495.61,-222.97 962.02,-193.65 1085.8,-148.4 1547.1,-222.97 1551.7,-223.71 1556.5,-224.8 1561.2,-226.07"/>
<polygon fill="black" stroke="black" points="1559.87,-229.32 1570.45,-228.87 1561.9,-222.62 1559.87,-229.32"/>
<text text-anchor="middle" x="1021.4" y="-262.16" font-family="Times,serif" font-size="14.00">AUTH/235:&#45;1</text>
<text text-anchor="middle" x="1021.4" y="-244.91" font-family="Times,serif" font-size="14.00">a0 = PLAIN AEF6NjE2MUAxMjYuY29tAE1VUVNBT1NUWElURkpDVUU=</text>
<text text-anchor="middle" x="1021.4" y="-227.66" font-family="Times,serif" font-size="14.00">b0 = Authentication successful</text>
</g>
<!-- q0:&#45;1 -->
<g id="node20" class="node">
<title>q0:&#45;1</title>
<ellipse fill="none" stroke="black" stroke-width="2" cx="44.48" cy="-261.72" rx="40.48" ry="40.48"/>
<ellipse fill="none" stroke="black" stroke-width="2" cx="44.48" cy="-261.72" rx="44.48" ry="44.48"/>
<text text-anchor="middle" x="44.48" y="-257.04" font-family="Times,serif" font-size="14.00">q0:&#45;1</text>
</g>
<!-- q0:&#45;1&#45;&gt;q1:&#45;1 -->
<g id="edge22" class="edge">
<title>q0:&#45;1&#45;&gt;q1:&#45;1</title>
<path fill="none" stroke="black" d="M85.64,-261.72C110.08,-261.72 141.44,-261.72 167.15,-261.72"/>
<polygon fill="black" stroke="black" points="167.02,-265.22 177.02,-261.72 167.02,-258.22 167.02,-265.22"/>
<text text-anchor="middle" x="132.2" y="-265.66" font-family="Times,serif" font-size="14.00">λ/220:&#45;1</text>
</g>
</g>
</svg>
