<?xml version="1.0" encoding="UTF-8" standalone="no"?>
<!DOCTYPE svg PUBLIC "-//W3C//DTD SVG 1.1//EN"
 "http://www.w3.org/Graphics/SVG/1.1/DTD/svg11.dtd">
<!-- Generated by graphviz version 12.0.0 (20240803.0821)
 -->
<!-- Pages: 1 -->
<svg width="1784pt" height="241pt"
 viewBox="0.00 0.00 1784.00 241.00" xmlns="http://www.w3.org/2000/svg" xmlns:xlink="http://www.w3.org/1999/xlink">
<g id="graph0" class="graph" transform="scale(1 1) rotate(0) translate(4 237)">
<polygon fill="white" stroke="none" points="-4,4 -4,-237 1780,-237 1780,4 -4,4"/>
<!-- q1:0.0 -->
<g id="node1" class="node">
<title>q1:0.0</title>
<ellipse fill="none" stroke="black" stroke-width="2" cx="243.87" cy="-98" rx="42.79" ry="18"/>
<text text-anchor="middle" x="243.87" y="-93.33" font-family="Times,serif" font-size="14.00">q1:0.0</text>
</g>
<!-- q2:0.0 -->
<g id="node2" class="node">
<title>q2:0.0</title>
<ellipse fill="none" stroke="black" stroke-width="2" cx="484.7" cy="-131" rx="42.79" ry="18"/>
<text text-anchor="middle" x="484.7" y="-126.33" font-family="Times,serif" font-size="14.00">q2:0.0</text>
</g>
<!-- q1:0.0&#45;&gt;q2:0.0 -->
<g id="edge1" class="edge">
<title>q1:0.0&#45;&gt;q2:0.0</title>
<path fill="none" stroke="black" d="M285.66,-103.64C326.01,-109.21 387.94,-117.77 431.79,-123.83"/>
<polygon fill="black" stroke="black" points="431.19,-127.28 441.58,-125.18 432.15,-120.35 431.19,-127.28"/>
<text text-anchor="middle" x="364.29" y="-125.95" font-family="Times,serif" font-size="14.00">EHLO/250:0.992</text>
</g>
<!-- q3:0.0 -->
<g id="node3" class="node">
<title>q3:0.0</title>
<ellipse fill="none" stroke="black" stroke-width="2" cx="484.7" cy="-71" rx="42.79" ry="18"/>
<text text-anchor="middle" x="484.7" y="-66.33" font-family="Times,serif" font-size="14.00">q3:0.0</text>
</g>
<!-- q1:0.0&#45;&gt;q3:0.0 -->
<g id="edge2" class="edge">
<title>q1:0.0&#45;&gt;q3:0.0</title>
<path fill="none" stroke="black" d="M282.04,-88.91C289.49,-87.33 297.3,-85.84 304.66,-84.75 346.54,-78.53 394.37,-75.04 430.05,-73.14"/>
<polygon fill="black" stroke="black" points="429.87,-76.65 439.68,-72.65 429.51,-69.66 429.87,-76.65"/>
<text text-anchor="middle" x="364.29" y="-88.95" font-family="Times,serif" font-size="14.00">EHLO/λ:0.008</text>
</g>
<!-- q6:0.0 -->
<g id="node4" class="node">
<title>q6:0.0</title>
<ellipse fill="none" stroke="black" stroke-width="2" cx="725.53" cy="-64" rx="42.79" ry="18"/>
<text text-anchor="middle" x="725.53" y="-59.33" font-family="Times,serif" font-size="14.00">q6:0.0</text>
</g>
<!-- q2:0.0&#45;&gt;q6:0.0 -->
<g id="edge3" class="edge">
<title>q2:0.0&#45;&gt;q6:0.0</title>
<path fill="none" stroke="black" d="M518.1,-118.88C526.93,-115.74 536.53,-112.48 545.49,-109.75 589.29,-96.4 639.91,-83.71 676.12,-75.1"/>
<polygon fill="black" stroke="black" points="676.48,-78.61 685.41,-72.91 674.87,-71.8 676.48,-78.61"/>
<text text-anchor="middle" x="605.12" y="-112.95" font-family="Times,serif" font-size="14.00">AUTH/235:0.942</text>
</g>
<!-- q4:0.0 -->
<g id="node5" class="node">
<title>q4:0.0</title>
<ellipse fill="none" stroke="black" stroke-width="2" cx="725.53" cy="-134" rx="42.79" ry="18"/>
<text text-anchor="middle" x="725.53" y="-129.32" font-family="Times,serif" font-size="14.00">q4:0.0</text>
</g>
<!-- q2:0.0&#45;&gt;q4:0.0 -->
<g id="edge4" class="edge">
<title>q2:0.0&#45;&gt;q4:0.0</title>
<path fill="none" stroke="black" d="M528.4,-131.54C568.1,-132.03 627.41,-132.78 670.41,-133.32"/>
<polygon fill="black" stroke="black" points="670.24,-136.82 680.29,-133.44 670.33,-129.82 670.24,-136.82"/>
<text text-anchor="middle" x="605.12" y="-136.94" font-family="Times,serif" font-size="14.00">AUTH/λ:0.004</text>
</g>
<!-- q5:0.0 -->
<g id="node6" class="node">
<title>q5:0.0</title>
<ellipse fill="none" stroke="black" stroke-width="2" cx="725.53" cy="-189" rx="42.79" ry="18"/>
<text text-anchor="middle" x="725.53" y="-184.32" font-family="Times,serif" font-size="14.00">q5:0.0</text>
</g>
<!-- q2:0.0&#45;&gt;q5:0.0 -->
<g id="edge5" class="edge">
<title>q2:0.0&#45;&gt;q5:0.0</title>
<path fill="none" stroke="black" d="M516.38,-143.98C525.63,-147.57 535.87,-151.23 545.49,-154 587.79,-166.17 636.92,-175.44 673,-181.37"/>
<polygon fill="black" stroke="black" points="672.32,-184.8 682.74,-182.94 673.43,-177.89 672.32,-184.8"/>
<text text-anchor="middle" x="605.12" y="-182.94" font-family="Times,serif" font-size="14.00">AUTH/535:0.054</text>
</g>
<!-- q3:0.0&#45;&gt;q6:0.0 -->
<g id="edge6" class="edge">
<title>q3:0.0&#45;&gt;q6:0.0</title>
<path fill="none" stroke="black" d="M523.16,-62.12C530.52,-60.72 538.22,-59.49 545.49,-58.75 587.93,-54.45 636.28,-56.26 672.04,-58.88"/>
<polygon fill="black" stroke="black" points="671.43,-62.34 681.67,-59.63 671.97,-55.36 671.43,-62.34"/>
<text text-anchor="middle" x="605.12" y="-62.95" font-family="Times,serif" font-size="14.00">AUTH/235:1.0</text>
</g>
<!-- q7:0.0 -->
<g id="node7" class="node">
<title>q7:0.0</title>
<ellipse fill="none" stroke="black" stroke-width="2" cx="961.86" cy="-99" rx="42.79" ry="18"/>
<text text-anchor="middle" x="961.86" y="-94.33" font-family="Times,serif" font-size="14.00">q7:0.0</text>
</g>
<!-- q6:0.0&#45;&gt;q7:0.0 -->
<g id="edge7" class="edge">
<title>q6:0.0&#45;&gt;q7:0.0</title>
<path fill="none" stroke="black" d="M766.81,-70.02C806.25,-75.91 866.49,-84.91 909.38,-91.31"/>
<polygon fill="black" stroke="black" points="908.8,-94.76 919.21,-92.78 909.84,-87.84 908.8,-94.76"/>
<text text-anchor="middle" x="843.7" y="-93.95" font-family="Times,serif" font-size="14.00">MAIL/250:0.987</text>
</g>
<!-- q9:0.0 -->
<g id="node8" class="node">
<title>q9:0.0</title>
<ellipse fill="none" stroke="black" stroke-width="2" cx="961.86" cy="-31" rx="42.79" ry="18"/>
<text text-anchor="middle" x="961.86" y="-26.32" font-family="Times,serif" font-size="14.00">q9:0.0</text>
</g>
<!-- q6:0.0&#45;&gt;q9:0.0 -->
<g id="edge8" class="edge">
<title>q6:0.0&#45;&gt;q9:0.0</title>
<path fill="none" stroke="black" d="M760.05,-52.41C768.53,-49.85 777.69,-47.41 786.32,-45.75 826.3,-38.05 872.19,-34.37 906.88,-32.61"/>
<polygon fill="black" stroke="black" points="906.85,-36.12 916.68,-32.16 906.53,-29.12 906.85,-36.12"/>
<text text-anchor="middle" x="843.7" y="-49.95" font-family="Times,serif" font-size="14.00">MAIL/553:0.013</text>
</g>
<!-- q4:0.0&#45;&gt;q7:0.0 -->
<g id="edge9" class="edge">
<title>q4:0.0&#45;&gt;q7:0.0</title>
<path fill="none" stroke="black" d="M767.13,-128.46C802.53,-123.56 855.24,-116.11 901.07,-109 903.89,-108.56 906.79,-108.1 909.71,-107.64"/>
<polygon fill="black" stroke="black" points="910.2,-111.11 919.51,-106.04 909.07,-104.2 910.2,-111.11"/>
<text text-anchor="middle" x="843.7" y="-128.94" font-family="Times,serif" font-size="14.00">MAIL/250:1.0</text>
</g>
<!-- q8:0.0 -->
<g id="node9" class="node">
<title>q8:0.0</title>
<ellipse fill="none" stroke="black" stroke-width="2" cx="961.86" cy="-195" rx="42.79" ry="18"/>
<text text-anchor="middle" x="961.86" y="-190.32" font-family="Times,serif" font-size="14.00">q8:0.0</text>
</g>
<!-- q5:0.0&#45;&gt;q8:0.0 -->
<g id="edge10" class="edge">
<title>q5:0.0&#45;&gt;q8:0.0</title>
<path fill="none" stroke="black" d="M769.24,-190.09C807.97,-191.09 865.24,-192.55 907.08,-193.62"/>
<polygon fill="black" stroke="black" points="906.85,-197.12 916.94,-193.87 907.03,-190.12 906.85,-197.12"/>
<text text-anchor="middle" x="843.7" y="-196.94" font-family="Times,serif" font-size="14.00">AUTH/334:1.0</text>
</g>
<!-- q7:0.0&#45;&gt;q7:0.0 -->
<g id="edge11" class="edge">
<title>q7:0.0&#45;&gt;q7:0.0</title>
<path fill="none" stroke="black" d="M941.09,-115.66C936.48,-125.62 943.4,-135 961.86,-135 972.83,-135 979.72,-131.69 982.55,-126.92"/>
<polygon fill="black" stroke="black" points="986.05,-127.2 982.62,-117.17 979.05,-127.15 986.05,-127.2"/>
<text text-anchor="middle" x="961.86" y="-138.94" font-family="Times,serif" font-size="14.00">RCPT/250:0.636</text>
</g>
<!-- q11:0.0 -->
<g id="node10" class="node">
<title>q11:0.0</title>
<ellipse fill="none" stroke="black" stroke-width="2" cx="1217.1" cy="-72" rx="49.1" ry="18"/>
<text text-anchor="middle" x="1217.1" y="-67.33" font-family="Times,serif" font-size="14.00">q11:0.0</text>
</g>
<!-- q7:0.0&#45;&gt;q11:0.0 -->
<g id="edge12" class="edge">
<title>q7:0.0&#45;&gt;q11:0.0</title>
<path fill="none" stroke="black" d="M1004.4,-94.57C1046.1,-90.12 1110.9,-83.22 1157.8,-78.22"/>
<polygon fill="black" stroke="black" points="1157.92,-81.73 1167.49,-77.19 1157.18,-74.77 1157.92,-81.73"/>
<text text-anchor="middle" x="1080" y="-96.95" font-family="Times,serif" font-size="14.00">DATA/354:0.296</text>
</g>
<!-- q10:1.0 -->
<g id="node11" class="node">
<title>q10:1.0</title>
<ellipse fill="none" stroke="black" stroke-width="2" cx="1217.1" cy="-161" rx="49.1" ry="18"/>
<text text-anchor="middle" x="1217.1" y="-156.32" font-family="Times,serif" font-size="14.00">q10:1.0</text>
</g>
<!-- q7:0.0&#45;&gt;q10:1.0 -->
<g id="edge13" class="edge">
<title>q7:0.0&#45;&gt;q10:1.0</title>
<path fill="none" stroke="black" d="M999.85,-108.33C1007.4,-110.21 1015.3,-112.18 1022.7,-114 1070.3,-125.76 1124.6,-138.94 1163.5,-148.34"/>
<polygon fill="black" stroke="black" points="1162.59,-151.72 1173.13,-150.65 1164.22,-144.91 1162.59,-151.72"/>
<text text-anchor="middle" x="1080" y="-143.94" font-family="Times,serif" font-size="14.00">DATA/550:0.069</text>
</g>
<!-- q13:1.0 -->
<g id="node12" class="node">
<title>q13:1.0</title>
<ellipse fill="none" stroke="black" stroke-width="2" cx="1217.1" cy="-18" rx="49.1" ry="18"/>
<text text-anchor="middle" x="1217.1" y="-13.32" font-family="Times,serif" font-size="14.00">q13:1.0</text>
</g>
<!-- q9:0.0&#45;&gt;q13:1.0 -->
<g id="edge14" class="edge">
<title>q9:0.0&#45;&gt;q13:1.0</title>
<path fill="none" stroke="black" d="M1005.3,-28.82C1046.5,-26.7 1109.7,-23.46 1156.1,-21.08"/>
<polygon fill="black" stroke="black" points="1156.18,-24.58 1165.99,-20.57 1155.82,-17.59 1156.18,-24.58"/>
<text text-anchor="middle" x="1080" y="-31.95" font-family="Times,serif" font-size="14.00">RSET/250:1.0</text>
</g>
<!-- q12:0.692 -->
<g id="node13" class="node">
<title>q12:0.692</title>
<ellipse fill="none" stroke="black" stroke-width="2" cx="1217.1" cy="-215" rx="61.73" ry="18"/>
<text text-anchor="middle" x="1217.1" y="-210.32" font-family="Times,serif" font-size="14.00">q12:0.692</text>
</g>
<!-- q8:0.0&#45;&gt;q12:0.692 -->
<g id="edge15" class="edge">
<title>q8:0.0&#45;&gt;q12:0.692</title>
<path fill="none" stroke="black" d="M1005,-198.33C1043.1,-201.34 1100,-205.83 1145.2,-209.4"/>
<polygon fill="black" stroke="black" points="1144.65,-212.87 1154.89,-210.16 1145.2,-205.89 1144.65,-212.87"/>
<text text-anchor="middle" x="1080" y="-211.94" font-family="Times,serif" font-size="14.00">content/535:1.0</text>
</g>
<!-- q11:0.0&#45;&gt;q11:0.0 -->
<g id="edge18" class="edge">
<title>q11:0.0&#45;&gt;q11:0.0</title>
<path fill="none" stroke="black" d="M1193.2,-88.29C1187.5,-98.39 1195.4,-108 1217.1,-108 1230,-108 1238.1,-104.61 1241.3,-99.75"/>
<polygon fill="black" stroke="black" points="1244.8,-99.71 1241.04,-89.8 1237.8,-99.89 1244.8,-99.71"/>
<text text-anchor="middle" x="1217.1" y="-111.95" font-family="Times,serif" font-size="14.00">content/λ:0.942</text>
</g>
<!-- q15:0.0 -->
<g id="node16" class="node">
<title>q15:0.0</title>
<ellipse fill="none" stroke="black" stroke-width="2" cx="1494.5" cy="-72" rx="49.1" ry="18"/>
<text text-anchor="middle" x="1494.5" y="-67.33" font-family="Times,serif" font-size="14.00">q15:0.0</text>
</g>
<!-- q11:0.0&#45;&gt;q15:0.0 -->
<g id="edge19" class="edge">
<title>q11:0.0&#45;&gt;q15:0.0</title>
<path fill="none" stroke="black" d="M1267,-72C1313.5,-72 1383.4,-72 1433.3,-72"/>
<polygon fill="black" stroke="black" points="1433.09,-75.5 1443.09,-72 1433.09,-68.5 1433.09,-75.5"/>
<text text-anchor="middle" x="1362.1" y="-75.95" font-family="Times,serif" font-size="14.00">content/550:0.0</text>
</g>
<!-- q16:0.0 -->
<g id="node17" class="node">
<title>q16:0.0</title>
<ellipse fill="none" stroke="black" stroke-width="2" cx="1494.5" cy="-18" rx="49.1" ry="18"/>
<text text-anchor="middle" x="1494.5" y="-13.32" font-family="Times,serif" font-size="14.00">q16:0.0</text>
</g>
<!-- q11:0.0&#45;&gt;q16:0.0 -->
<g id="edge20" class="edge">
<title>q11:0.0&#45;&gt;q16:0.0</title>
<path fill="none" stroke="black" d="M1257.2,-60.64C1269.8,-57.2 1283.9,-53.58 1296.9,-50.75 1343.5,-40.6 1396.9,-31.88 1436.3,-26"/>
<polygon fill="black" stroke="black" points="1436.62,-29.49 1446,-24.56 1435.6,-22.57 1436.62,-29.49"/>
<text text-anchor="middle" x="1362.1" y="-54.95" font-family="Times,serif" font-size="14.00">content/250:0.042</text>
</g>
<!-- q14:0.0 -->
<g id="node18" class="node">
<title>q14:0.0</title>
<ellipse fill="none" stroke="black" stroke-width="2" cx="1494.5" cy="-126" rx="49.1" ry="18"/>
<text text-anchor="middle" x="1494.5" y="-121.33" font-family="Times,serif" font-size="14.00">q14:0.0</text>
</g>
<!-- q11:0.0&#45;&gt;q14:0.0 -->
<g id="edge21" class="edge">
<title>q11:0.0&#45;&gt;q14:0.0</title>
<path fill="none" stroke="black" d="M1257.2,-83.2C1269.8,-86.6 1283.9,-90.18 1296.9,-93 1343.5,-103.11 1396.9,-111.9 1436.3,-117.87"/>
<polygon fill="black" stroke="black" points="1435.59,-121.3 1446,-119.33 1436.63,-114.38 1435.59,-121.3"/>
<text text-anchor="middle" x="1362.1" y="-118.95" font-family="Times,serif" font-size="14.00">content/554:0.016</text>
</g>
<!-- q17:1.0 -->
<g id="node15" class="node">
<title>q17:1.0</title>
<ellipse fill="none" stroke="black" stroke-width="2" cx="1494.5" cy="-215" rx="49.1" ry="18"/>
<text text-anchor="middle" x="1494.5" y="-210.32" font-family="Times,serif" font-size="14.00">q17:1.0</text>
</g>
<!-- q12:0.692&#45;&gt;q17:1.0 -->
<g id="edge17" class="edge">
<title>q12:0.692&#45;&gt;q17:1.0</title>
<path fill="none" stroke="black" d="M1279.6,-215C1325.4,-215 1387.6,-215 1433.1,-215"/>
<polygon fill="black" stroke="black" points="1433.09,-218.5 1443.09,-215 1433.09,-211.5 1433.09,-218.5"/>
<text text-anchor="middle" x="1362.1" y="-218.94" font-family="Times,serif" font-size="14.00">λ/451:0.308</text>
</g>
<!-- q0:0.0 -->
<g id="node14" class="node">
<title>q0:0.0</title>
<ellipse fill="none" stroke="black" stroke-width="2" cx="50.79" cy="-98" rx="46.79" ry="46.79"/>
<ellipse fill="none" stroke="black" stroke-width="2" cx="50.79" cy="-98" rx="50.79" ry="50.79"/>
<text text-anchor="middle" x="50.79" y="-93.33" font-family="Times,serif" font-size="14.00">q0:0.0</text>
</g>
<!-- q0:0.0&#45;&gt;q1:0.0 -->
<g id="edge16" class="edge">
<title>q0:0.0&#45;&gt;q1:0.0</title>
<path fill="none" stroke="black" d="M98.53,-98C125.82,-98 160.37,-98 188.82,-98"/>
<polygon fill="black" stroke="black" points="188.69,-101.5 198.69,-98 188.69,-94.5 188.69,-101.5"/>
<text text-anchor="middle" x="149.33" y="-101.95" font-family="Times,serif" font-size="14.00">λ/220:1.0</text>
</g>
<!-- q19:1.0 -->
<g id="node19" class="node">
<title>q19:1.0</title>
<ellipse fill="none" stroke="black" stroke-width="2" cx="1726.9" cy="-72" rx="49.1" ry="18"/>
<text text-anchor="middle" x="1726.9" y="-67.33" font-family="Times,serif" font-size="14.00">q19:1.0</text>
</g>
<!-- q15:0.0&#45;&gt;q19:1.0 -->
<g id="edge22" class="edge">
<title>q15:0.0&#45;&gt;q19:1.0</title>
<path fill="none" stroke="black" d="M1544.3,-72C1579.8,-72 1627.9,-72 1665.7,-72"/>
<polygon fill="black" stroke="black" points="1665.59,-75.5 1675.59,-72 1665.59,-68.5 1665.59,-75.5"/>
<text text-anchor="middle" x="1610.7" y="-75.95" font-family="Times,serif" font-size="14.00">RSET/250:1.0</text>
</g>
<!-- q20:1.0 -->
<g id="node20" class="node">
<title>q20:1.0</title>
<ellipse fill="none" stroke="black" stroke-width="2" cx="1726.9" cy="-18" rx="49.1" ry="18"/>
<text text-anchor="middle" x="1726.9" y="-13.32" font-family="Times,serif" font-size="14.00">q20:1.0</text>
</g>
<!-- q16:0.0&#45;&gt;q20:1.0 -->
<g id="edge23" class="edge">
<title>q16:0.0&#45;&gt;q20:1.0</title>
<path fill="none" stroke="black" d="M1544.3,-18C1579.8,-18 1627.9,-18 1665.7,-18"/>
<polygon fill="black" stroke="black" points="1665.59,-21.5 1675.59,-18 1665.59,-14.5 1665.59,-21.5"/>
<text text-anchor="middle" x="1610.7" y="-21.95" font-family="Times,serif" font-size="14.00">QUIT/221:1.0</text>
</g>
<!-- q18:1.0 -->
<g id="node21" class="node">
<title>q18:1.0</title>
<ellipse fill="none" stroke="black" stroke-width="2" cx="1726.9" cy="-126" rx="49.1" ry="18"/>
<text text-anchor="middle" x="1726.9" y="-121.33" font-family="Times,serif" font-size="14.00">q18:1.0</text>
</g>
<!-- q14:0.0&#45;&gt;q18:1.0 -->
<g id="edge24" class="edge">
<title>q14:0.0&#45;&gt;q18:1.0</title>
<path fill="none" stroke="black" d="M1544.3,-126C1579.8,-126 1627.9,-126 1665.7,-126"/>
<polygon fill="black" stroke="black" points="1665.59,-129.5 1675.59,-126 1665.59,-122.5 1665.59,-129.5"/>
<text text-anchor="middle" x="1610.7" y="-129.94" font-family="Times,serif" font-size="14.00">RSET/250:1.0</text>
</g>
</g>
</svg>
