<?xml version="1.0" encoding="UTF-8" standalone="no"?>
<!DOCTYPE svg PUBLIC "-//W3C//DTD SVG 1.1//EN"
 "http://www.w3.org/Graphics/SVG/1.1/DTD/svg11.dtd">
<!-- Generated by graphviz version 12.0.0 (20240803.0821)
 -->
<!-- Pages: 1 -->
<svg width="7546pt" height="704pt"
 viewBox="0.00 0.00 7546.40 703.93" xmlns="http://www.w3.org/2000/svg" xmlns:xlink="http://www.w3.org/1999/xlink">
<g id="graph0" class="graph" transform="scale(1 1) rotate(0) translate(4 699.93)">
<polygon fill="white" stroke="none" points="-4,4 -4,-699.93 7542.4,-699.93 7542.4,4 -4,4"/>
<!-- q9:0.0 -->
<g id="node1" class="node">
<title>q9:0.0</title>
<ellipse fill="none" stroke="black" stroke-width="2" cx="2445.4" cy="-310.79" rx="42.79" ry="18"/>
<text text-anchor="middle" x="2445.4" y="-306.12" font-family="Times,serif" font-size="14.00">q9:0.0</text>
</g>
<!-- q12:0.636 -->
<g id="node2" class="node">
<title>q12:0.636</title>
<ellipse fill="none" stroke="black" stroke-width="2" cx="3346.9" cy="-310.79" rx="61.73" ry="18"/>
<text text-anchor="middle" x="3346.9" y="-306.12" font-family="Times,serif" font-size="14.00">q12:0.636</text>
</g>
<!-- q9:0.0&#45;&gt;q12:0.636 -->
<g id="edge1" class="edge">
<title>q9:0.0&#45;&gt;q12:0.636</title>
<path fill="none" stroke="black" d="M2489.1,-310.79C2631.9,-310.79 3092.8,-310.79 3272.9,-310.79"/>
<polygon fill="black" stroke="black" points="3272.79,-314.29 3282.79,-310.79 3272.79,-307.29 3272.79,-314.29"/>
<text text-anchor="middle" x="2739.4" y="-331.99" font-family="Times,serif" font-size="14.00">content/535:1.0</text>
<text text-anchor="middle" x="2739.4" y="-314.74" font-family="Times,serif" font-size="14.00">b0 in {&#39;5.7.8 authentication failed&#39;, &#39;Error: authentication failed&#39;}</text>
</g>
<!-- q15:1.0 -->
<g id="node3" class="node">
<title>q15:1.0</title>
<ellipse fill="none" stroke="black" stroke-width="2" cx="4112.3" cy="-310.79" rx="49.1" ry="18"/>
<text text-anchor="middle" x="4112.3" y="-306.12" font-family="Times,serif" font-size="14.00">q15:1.0</text>
</g>
<!-- q12:0.636&#45;&gt;q15:1.0 -->
<g id="edge2" class="edge">
<title>q12:0.636&#45;&gt;q15:1.0</title>
<path fill="none" stroke="black" d="M3409.4,-310.79C3553,-310.79 3908.7,-310.79 4051,-310.79"/>
<polygon fill="black" stroke="black" points="4050.99,-314.29 4060.99,-310.79 4050.99,-307.29 4050.99,-314.29"/>
<text text-anchor="middle" x="3883.2" y="-331.99" font-family="Times,serif" font-size="14.00">λ/451:0.364</text>
<text text-anchor="middle" x="3883.2" y="-314.74" font-family="Times,serif" font-size="14.00">b0 = Timeout.</text>
</g>
<!-- q32:0.0 -->
<g id="node4" class="node">
<title>q32:0.0</title>
<ellipse fill="none" stroke="black" stroke-width="2" cx="7256.9" cy="-209.79" rx="49.1" ry="18"/>
<text text-anchor="middle" x="7256.9" y="-205.12" font-family="Times,serif" font-size="14.00">q32:0.0</text>
</g>
<!-- q34:1.0 -->
<g id="node5" class="node">
<title>q34:1.0</title>
<ellipse fill="none" stroke="black" stroke-width="2" cx="7489.3" cy="-209.79" rx="49.1" ry="18"/>
<text text-anchor="middle" x="7489.3" y="-205.12" font-family="Times,serif" font-size="14.00">q34:1.0</text>
</g>
<!-- q32:0.0&#45;&gt;q34:1.0 -->
<g id="edge3" class="edge">
<title>q32:0.0&#45;&gt;q34:1.0</title>
<path fill="none" stroke="black" d="M7306.8,-209.79C7342.2,-209.79 7390.3,-209.79 7428.2,-209.79"/>
<polygon fill="black" stroke="black" points="7427.99,-213.29 7437.99,-209.79 7427.99,-206.29 7427.99,-213.29"/>
<text text-anchor="middle" x="7373.1" y="-230.99" font-family="Times,serif" font-size="14.00">RSET/250:1.0</text>
<text text-anchor="middle" x="7373.1" y="-213.74" font-family="Times,serif" font-size="14.00">b0 = OK</text>
</g>
<!-- q1:0.0 -->
<g id="node6" class="node">
<title>q1:0.0</title>
<ellipse fill="none" stroke="black" stroke-width="2" cx="243.87" cy="-424.79" rx="42.79" ry="18"/>
<text text-anchor="middle" x="243.87" y="-420.11" font-family="Times,serif" font-size="14.00">q1:0.0</text>
</g>
<!-- q3:0.0 -->
<g id="node7" class="node">
<title>q3:0.0</title>
<ellipse fill="none" stroke="black" stroke-width="2" cx="484.7" cy="-476.79" rx="42.79" ry="18"/>
<text text-anchor="middle" x="484.7" y="-472.12" font-family="Times,serif" font-size="14.00">q3:0.0</text>
</g>
<!-- q1:0.0&#45;&gt;q3:0.0 -->
<g id="edge4" class="edge">
<title>q1:0.0&#45;&gt;q3:0.0</title>
<path fill="none" stroke="black" d="M282.48,-433.73C289.83,-435.44 297.48,-437.19 304.66,-438.79 348.32,-448.54 398.1,-459.05 434.07,-466.55"/>
<polygon fill="black" stroke="black" points="433.24,-469.95 443.75,-468.56 434.67,-463.1 433.24,-469.95"/>
<text text-anchor="middle" x="364.29" y="-483.99" font-family="Times,serif" font-size="14.00">EHLO/λ:0.008</text>
<text text-anchor="middle" x="364.29" y="-466.74" font-family="Times,serif" font-size="14.00">a0 = [127.0.1.1]</text>
</g>
<!-- q2:0.0 -->
<g id="node8" class="node">
<title>q2:0.0</title>
<ellipse fill="none" stroke="black" stroke-width="2" cx="484.7" cy="-397.79" rx="42.79" ry="18"/>
<text text-anchor="middle" x="484.7" y="-393.11" font-family="Times,serif" font-size="14.00">q2:0.0</text>
</g>
<!-- q1:0.0&#45;&gt;q2:0.0 -->
<g id="edge5" class="edge">
<title>q1:0.0&#45;&gt;q2:0.0</title>
<path fill="none" stroke="black" d="M286.2,-420.12C326.4,-415.58 387.62,-408.66 431.24,-403.72"/>
<polygon fill="black" stroke="black" points="431.43,-407.22 440.98,-402.62 430.65,-400.26 431.43,-407.22"/>
<text text-anchor="middle" x="364.29" y="-421.75" font-family="Times,serif" font-size="14.00">EHLO/250:0.992</text>
</g>
<!-- q5:0.0 -->
<g id="node9" class="node">
<title>q5:0.0</title>
<ellipse fill="none" stroke="black" stroke-width="2" cx="1657.8" cy="-472.79" rx="42.79" ry="18"/>
<text text-anchor="middle" x="1657.8" y="-468.12" font-family="Times,serif" font-size="14.00">q5:0.0</text>
</g>
<!-- q3:0.0&#45;&gt;q5:0.0 -->
<g id="edge6" class="edge">
<title>q3:0.0&#45;&gt;q5:0.0</title>
<path fill="none" stroke="black" d="M527.83,-479.17C533.76,-479.43 539.78,-479.65 545.49,-479.79 1012.7,-491.51 1130.5,-507.01 1597,-479.79 1599.5,-479.65 1602,-479.47 1604.6,-479.26"/>
<polygon fill="black" stroke="black" points="1604.86,-482.75 1614.49,-478.35 1604.21,-475.78 1604.86,-482.75"/>
<text text-anchor="middle" x="1071.2" y="-533.25" font-family="Times,serif" font-size="14.00">AUTH/235:1.0</text>
<text text-anchor="middle" x="1071.2" y="-516" font-family="Times,serif" font-size="14.00">a0 in {&#39;PLAIN AEF6NjE2MUAxMjYuY29tAE1VUVNBT1NUWElURkpDVUU=&#39;, &#39;PLAIN AEF6NjE2MUBzaW5hLmNvbQA2ZmRiMjVjZmNjODYyZWZj&#39;}</text>
<text text-anchor="middle" x="1071.2" y="-498.75" font-family="Times,serif" font-size="14.00">b0 in {&#39;Authentication successful&#39;, &#39;OK Authenticated&#39;}</text>
</g>
<!-- q2:0.0&#45;&gt;q5:0.0 -->
<g id="edge7" class="edge">
<title>q2:0.0&#45;&gt;q5:0.0</title>
<path fill="none" stroke="black" d="M526.5,-403.11C532.85,-403.78 539.34,-404.38 545.49,-404.79 603.79,-408.73 1542.1,-403.94 1597,-424.04 1610.4,-428.96 1623,-438.25 1633.2,-447.41"/>
<polygon fill="black" stroke="black" points="1630.68,-449.85 1640.31,-454.27 1635.54,-444.81 1630.68,-449.85"/>
<text text-anchor="middle" x="1071.2" y="-462.25" font-family="Times,serif" font-size="14.00">AUTH/235:0.95</text>
<text text-anchor="middle" x="1071.2" y="-445" font-family="Times,serif" font-size="14.00">a0 in {&#39;PLAIN AEF6NjE2MUAxMjYuY29tAE1VUVNBT1NUWElURkpDVUU=&#39;, &#39;PLAIN AEF6NjE2MUBzaW5hLmNvbQA2ZmRiMjVjZmNjODYyZWZj&#39;}</text>
<text text-anchor="middle" x="1071.2" y="-427.75" font-family="Times,serif" font-size="14.00">b0 in {&#39;Authentication successful&#39;, &#39;OK Authenticated&#39;}</text>
</g>
<!-- q6:0.0 -->
<g id="node10" class="node">
<title>q6:0.0</title>
<ellipse fill="none" stroke="black" stroke-width="2" cx="1657.8" cy="-310.79" rx="42.79" ry="18"/>
<text text-anchor="middle" x="1657.8" y="-306.12" font-family="Times,serif" font-size="14.00">q6:0.0</text>
</g>
<!-- q2:0.0&#45;&gt;q6:0.0 -->
<g id="edge8" class="edge">
<title>q2:0.0&#45;&gt;q6:0.0</title>
<path fill="none" stroke="black" d="M493.82,-379.42C503.23,-360.67 520.69,-332.62 545.49,-320.29 917.98,-135.23 1451.2,-255.11 1610.3,-297.59"/>
<polygon fill="black" stroke="black" points="1609.07,-300.88 1619.64,-300.11 1610.89,-294.13 1609.07,-300.88"/>
<text text-anchor="middle" x="1071.2" y="-341.99" font-family="Times,serif" font-size="14.00">AUTH/535:0.045</text>
<text text-anchor="middle" x="1071.2" y="-324.74" font-family="Times,serif" font-size="14.00">b0 in {&#39;5.7.8 authentication failed&#39;, &#39;Error: authentication failed&#39;}</text>
</g>
<!-- q4:0.0 -->
<g id="node11" class="node">
<title>q4:0.0</title>
<ellipse fill="none" stroke="black" stroke-width="2" cx="1657.8" cy="-368.79" rx="42.79" ry="18"/>
<text text-anchor="middle" x="1657.8" y="-364.12" font-family="Times,serif" font-size="14.00">q4:0.0</text>
</g>
<!-- q2:0.0&#45;&gt;q4:0.0 -->
<g id="edge9" class="edge">
<title>q2:0.0&#45;&gt;q4:0.0</title>
<path fill="none" stroke="black" d="M511.63,-382.92C521.84,-377.86 533.89,-372.84 545.49,-370.29 649.12,-347.53 1395.1,-362.78 1603.1,-367.52"/>
<polygon fill="black" stroke="black" points="1602.71,-371.01 1612.79,-367.74 1602.87,-364.01 1602.71,-371.01"/>
<text text-anchor="middle" x="1071.2" y="-391.99" font-family="Times,serif" font-size="14.00">AUTH/λ:0.004</text>
<text text-anchor="middle" x="1071.2" y="-374.74" font-family="Times,serif" font-size="14.00">a0 = PLAIN AEF6NjE2MUAxMjYuY29tAE1VUVNBT1NUWElURkpDVUU=</text>
</g>
<!-- q7:0.0 -->
<g id="node12" class="node">
<title>q7:0.0</title>
<ellipse fill="none" stroke="black" stroke-width="2" cx="2445.4" cy="-373.79" rx="42.79" ry="18"/>
<text text-anchor="middle" x="2445.4" y="-369.12" font-family="Times,serif" font-size="14.00">q7:0.0</text>
</g>
<!-- q5:0.0&#45;&gt;q7:0.0 -->
<g id="edge10" class="edge">
<title>q5:0.0&#45;&gt;q7:0.0</title>
<path fill="none" stroke="black" d="M1682.2,-457.15C1692.8,-450.91 1705.8,-444.41 1718.6,-441.04 1790.1,-422.12 2315.1,-447.36 2384.6,-421.79 2397.9,-416.89 2410.5,-407.73 2420.7,-398.71"/>
<polygon fill="black" stroke="black" points="2422.99,-401.36 2427.89,-391.97 2418.2,-396.25 2422.99,-401.36"/>
<text text-anchor="middle" x="2051.6" y="-479.25" font-family="Times,serif" font-size="14.00">MAIL/250:0.991</text>
<text text-anchor="middle" x="2051.6" y="-462" font-family="Times,serif" font-size="14.00">a0 in {&#39;FROM:&lt;Az6161@sina.com&gt;&#39;, &#39;FROM:&lt;Az6161@126.com&gt;&#39;}</text>
<text text-anchor="middle" x="2051.6" y="-444.75" font-family="Times,serif" font-size="14.00">b0 in {&#39;Mail OK&#39;, &#39;ok&#39;}</text>
</g>
<!-- q8:0.0 -->
<g id="node13" class="node">
<title>q8:0.0</title>
<ellipse fill="none" stroke="black" stroke-width="2" cx="2445.4" cy="-518.79" rx="42.79" ry="18"/>
<text text-anchor="middle" x="2445.4" y="-514.12" font-family="Times,serif" font-size="14.00">q8:0.0</text>
</g>
<!-- q5:0.0&#45;&gt;q8:0.0 -->
<g id="edge11" class="edge">
<title>q5:0.0&#45;&gt;q8:0.0</title>
<path fill="none" stroke="black" d="M1687.3,-486.63C1697,-490.67 1708.1,-494.6 1718.6,-496.79 1965.8,-548.45 2270.5,-532.73 2391.4,-523.45"/>
<polygon fill="black" stroke="black" points="2391.6,-526.95 2401.29,-522.67 2391.05,-519.97 2391.6,-526.95"/>
<text text-anchor="middle" x="2051.6" y="-571.25" font-family="Times,serif" font-size="14.00">MAIL/553:0.009</text>
<text text-anchor="middle" x="2051.6" y="-554" font-family="Times,serif" font-size="14.00">a0 in {&#39;FROM:&lt;Az_6161@126.com&gt;&#39;, &#39;FROM:&lt;Az_6161@sina.com&gt;&#39;}</text>
<text text-anchor="middle" x="2051.6" y="-536.75" font-family="Times,serif" font-size="14.00">b0 in {&#39;Mail from must equal authorized user&#39;, &#39;Envolope sender mismatch with login user..&#39;}</text>
</g>
<!-- q6:0.0&#45;&gt;q9:0.0 -->
<g id="edge12" class="edge">
<title>q6:0.0&#45;&gt;q9:0.0</title>
<path fill="none" stroke="black" d="M1701.3,-310.79C1834.4,-310.79 2243.1,-310.79 2390.6,-310.79"/>
<polygon fill="black" stroke="black" points="2390.49,-314.29 2400.49,-310.79 2390.49,-307.29 2390.49,-314.29"/>
<text text-anchor="middle" x="2051.6" y="-331.99" font-family="Times,serif" font-size="14.00">AUTH/334:1.0</text>
<text text-anchor="middle" x="2051.6" y="-314.74" font-family="Times,serif" font-size="14.00">b0 = UGFzc3dvcmQ6</text>
</g>
<!-- q4:0.0&#45;&gt;q7:0.0 -->
<g id="edge13" class="edge">
<title>q4:0.0&#45;&gt;q7:0.0</title>
<path fill="none" stroke="black" d="M1701.3,-367.96C1813.3,-365.97 2125.1,-361.69 2384.6,-370.04 2386.6,-370.11 2388.7,-370.19 2390.8,-370.28"/>
<polygon fill="black" stroke="black" points="2390.53,-373.77 2400.69,-370.76 2390.87,-366.78 2390.53,-373.77"/>
<text text-anchor="middle" x="2051.6" y="-409.25" font-family="Times,serif" font-size="14.00">MAIL/250:1.0</text>
<text text-anchor="middle" x="2051.6" y="-392" font-family="Times,serif" font-size="14.00">a0 = FROM:&lt;Az6161@126.com&gt;</text>
<text text-anchor="middle" x="2051.6" y="-374.75" font-family="Times,serif" font-size="14.00">b0 = Mail OK</text>
</g>
<!-- q10:0.0 -->
<g id="node14" class="node">
<title>q10:0.0</title>
<ellipse fill="none" stroke="black" stroke-width="2" cx="3346.9" cy="-459.79" rx="49.1" ry="18"/>
<text text-anchor="middle" x="3346.9" y="-455.12" font-family="Times,serif" font-size="14.00">q10:0.0</text>
</g>
<!-- q7:0.0&#45;&gt;q10:0.0 -->
<g id="edge14" class="edge">
<title>q7:0.0&#45;&gt;q10:0.0</title>
<path fill="none" stroke="black" d="M2484.5,-382.1C2491.7,-383.48 2499.1,-384.78 2506.2,-385.79 2797.1,-427.68 3148.4,-449.39 3286.3,-456.8"/>
<polygon fill="black" stroke="black" points="3285.72,-460.27 3295.89,-457.31 3286.09,-453.28 3285.72,-460.27"/>
<text text-anchor="middle" x="2739.4" y="-455.99" font-family="Times,serif" font-size="14.00">RCPT/250:1.0</text>
<text text-anchor="middle" x="2739.4" y="-438.74" font-family="Times,serif" font-size="14.00">b0 in {&#39;Mail OK&#39;, &#39;ok&#39;}</text>
</g>
<!-- q11:1.0 -->
<g id="node15" class="node">
<title>q11:1.0</title>
<ellipse fill="none" stroke="black" stroke-width="2" cx="3346.9" cy="-518.79" rx="49.1" ry="18"/>
<text text-anchor="middle" x="3346.9" y="-514.12" font-family="Times,serif" font-size="14.00">q11:1.0</text>
</g>
<!-- q8:0.0&#45;&gt;q11:1.0 -->
<g id="edge15" class="edge">
<title>q8:0.0&#45;&gt;q11:1.0</title>
<path fill="none" stroke="black" d="M2489.1,-518.79C2635.3,-518.79 3115.3,-518.79 3285.4,-518.79"/>
<polygon fill="black" stroke="black" points="3285.39,-522.29 3295.39,-518.79 3285.39,-515.29 3285.39,-522.29"/>
<text text-anchor="middle" x="2739.4" y="-539.99" font-family="Times,serif" font-size="14.00">RSET/250:1.0</text>
<text text-anchor="middle" x="2739.4" y="-522.74" font-family="Times,serif" font-size="14.00">b0 in {&#39;flushed&#39;, &#39;OK&#39;}</text>
</g>
<!-- q14:0.0 -->
<g id="node16" class="node">
<title>q14:0.0</title>
<ellipse fill="none" stroke="black" stroke-width="2" cx="4112.3" cy="-371.79" rx="49.1" ry="18"/>
<text text-anchor="middle" x="4112.3" y="-367.12" font-family="Times,serif" font-size="14.00">q14:0.0</text>
</g>
<!-- q10:0.0&#45;&gt;q14:0.0 -->
<g id="edge16" class="edge">
<title>q10:0.0&#45;&gt;q14:0.0</title>
<path fill="none" stroke="black" d="M3395.9,-456.68C3509.4,-448.9 3802.9,-426.24 4045.2,-385.79 4049.3,-385.11 4053.5,-384.34 4057.8,-383.53"/>
<polygon fill="black" stroke="black" points="4058.39,-386.98 4067.51,-381.6 4057.02,-380.12 4058.39,-386.98"/>
<text text-anchor="middle" x="3883.2" y="-448.99" font-family="Times,serif" font-size="14.00">RCPT/250:0.701</text>
<text text-anchor="middle" x="3883.2" y="-431.74" font-family="Times,serif" font-size="14.00">b0 in {&#39;Mail OK&#39;, &#39;ok&#39;}</text>
</g>
<!-- q13:0.0 -->
<g id="node17" class="node">
<title>q13:0.0</title>
<ellipse fill="none" stroke="black" stroke-width="2" cx="4112.3" cy="-512.79" rx="49.1" ry="18"/>
<text text-anchor="middle" x="4112.3" y="-508.11" font-family="Times,serif" font-size="14.00">q13:0.0</text>
</g>
<!-- q10:0.0&#45;&gt;q13:0.0 -->
<g id="edge17" class="edge">
<title>q10:0.0&#45;&gt;q13:0.0</title>
<path fill="none" stroke="black" d="M3395.9,-463.13C3529.5,-472.4 3905.2,-498.49 4051.7,-508.66"/>
<polygon fill="black" stroke="black" points="4051.37,-512.15 4061.59,-509.35 4051.86,-505.16 4051.37,-512.15"/>
<text text-anchor="middle" x="3883.2" y="-527.99" font-family="Times,serif" font-size="14.00">DATA/354:0.299</text>
<text text-anchor="middle" x="3883.2" y="-510.74" font-family="Times,serif" font-size="14.00">b0 = End data with &lt;CR&gt;&lt;LF&gt;.&lt;CR&gt;&lt;LF&gt;</text>
</g>
<!-- q14:0.0&#45;&gt;q7:0.0 -->
<g id="edge18" class="edge">
<title>q14:0.0&#45;&gt;q7:0.0</title>
<path fill="none" stroke="black" d="M4062.4,-371.85C3820.5,-372.14 2753,-373.42 2500.2,-373.73"/>
<polygon fill="black" stroke="black" points="2500.31,-370.23 2490.31,-373.74 2500.32,-377.23 2500.31,-370.23"/>
<text text-anchor="middle" x="3346.9" y="-412.25" font-family="Times,serif" font-size="14.00">RCPT/250:0.018</text>
<text text-anchor="middle" x="3346.9" y="-395" font-family="Times,serif" font-size="14.00">a0 in {&#39;TO:&lt;1542110798@qq.com&gt;&#39;, &#39;TO:&lt;1542110795@qq.com&gt;&#39;, &#39;TO:&lt;1542110711@qq.com&gt;&#39;}</text>
<text text-anchor="middle" x="3346.9" y="-377.75" font-family="Times,serif" font-size="14.00">b0 = Mail OK</text>
</g>
<!-- q20:0.0 -->
<g id="node18" class="node">
<title>q20:0.0</title>
<ellipse fill="none" stroke="black" stroke-width="2" cx="4732.5" cy="-369.79" rx="49.1" ry="18"/>
<text text-anchor="middle" x="4732.5" y="-365.12" font-family="Times,serif" font-size="14.00">q20:0.0</text>
</g>
<!-- q14:0.0&#45;&gt;q20:0.0 -->
<g id="edge19" class="edge">
<title>q14:0.0&#45;&gt;q20:0.0</title>
<path fill="none" stroke="black" d="M4162.3,-371.63C4274.3,-371.27 4548.9,-370.38 4671.1,-369.99"/>
<polygon fill="black" stroke="black" points="4670.9,-373.49 4680.89,-369.96 4670.87,-366.49 4670.9,-373.49"/>
<text text-anchor="middle" x="4422.4" y="-392.99" font-family="Times,serif" font-size="14.00">DATA/354:0.72</text>
<text text-anchor="middle" x="4422.4" y="-375.74" font-family="Times,serif" font-size="14.00">b0 = End data with &lt;CR&gt;&lt;LF&gt;.&lt;CR&gt;&lt;LF&gt;</text>
</g>
<!-- q19:1.0 -->
<g id="node19" class="node">
<title>q19:1.0</title>
<ellipse fill="none" stroke="black" stroke-width="2" cx="4732.5" cy="-313.79" rx="49.1" ry="18"/>
<text text-anchor="middle" x="4732.5" y="-309.12" font-family="Times,serif" font-size="14.00">q19:1.0</text>
</g>
<!-- q14:0.0&#45;&gt;q19:1.0 -->
<g id="edge20" class="edge">
<title>q14:0.0&#45;&gt;q19:1.0</title>
<path fill="none" stroke="black" d="M4134.9,-355.05C4147.2,-346.54 4163.3,-337.01 4179.4,-332.29 4353.4,-281.09 4571.8,-295.47 4673.9,-306.46"/>
<polygon fill="black" stroke="black" points="4673.37,-309.92 4683.69,-307.54 4674.14,-302.97 4673.37,-309.92"/>
<text text-anchor="middle" x="4422.4" y="-353.99" font-family="Times,serif" font-size="14.00">DATA/550:0.262</text>
<text text-anchor="middle" x="4422.4" y="-336.74" font-family="Times,serif" font-size="14.00">b0 in {&#39;too many message send today.&#39;, &#39;Sender frequency limited.&#39;}</text>
</g>
<!-- q17:0.0 -->
<g id="node20" class="node">
<title>q17:0.0</title>
<ellipse fill="none" stroke="black" stroke-width="2" cx="4732.5" cy="-483.79" rx="49.1" ry="18"/>
<text text-anchor="middle" x="4732.5" y="-479.12" font-family="Times,serif" font-size="14.00">q17:0.0</text>
</g>
<!-- q13:0.0&#45;&gt;q17:0.0 -->
<g id="edge21" class="edge">
<title>q13:0.0&#45;&gt;q17:0.0</title>
<path fill="none" stroke="black" d="M4134.8,-495.95C4147.1,-487.42 4163.3,-477.96 4179.4,-473.54 4356.3,-424.98 4577.2,-454.75 4677.5,-472.88"/>
<polygon fill="black" stroke="black" points="4676.54,-476.26 4687.01,-474.64 4677.82,-469.38 4676.54,-476.26"/>
<text text-anchor="middle" x="4422.4" y="-476.75" font-family="Times,serif" font-size="14.00">content/250:0.123</text>
</g>
<!-- q16:0.0 -->
<g id="node21" class="node">
<title>q16:0.0</title>
<ellipse fill="none" stroke="black" stroke-width="2" cx="4732.5" cy="-564.79" rx="49.1" ry="18"/>
<text text-anchor="middle" x="4732.5" y="-560.12" font-family="Times,serif" font-size="14.00">q16:0.0</text>
</g>
<!-- q13:0.0&#45;&gt;q16:0.0 -->
<g id="edge22" class="edge">
<title>q13:0.0&#45;&gt;q16:0.0</title>
<path fill="none" stroke="black" d="M4161.3,-509.03C4277.9,-500.52 4572.9,-482.88 4665.4,-514.29 4680.5,-519.43 4694.8,-529.53 4706.3,-539.36"/>
<polygon fill="black" stroke="black" points="4703.93,-541.93 4713.68,-546.07 4708.64,-536.75 4703.93,-541.93"/>
<text text-anchor="middle" x="4422.4" y="-534.99" font-family="Times,serif" font-size="14.00">content/λ:0.358</text>
<text text-anchor="middle" x="4422.4" y="-517.74" font-family="Times,serif" font-size="14.00">a0 = b0</text>
</g>
<!-- q18:0.0 -->
<g id="node22" class="node">
<title>q18:0.0</title>
<ellipse fill="none" stroke="black" stroke-width="2" cx="4732.5" cy="-628.79" rx="49.1" ry="18"/>
<text text-anchor="middle" x="4732.5" y="-624.12" font-family="Times,serif" font-size="14.00">q18:0.0</text>
</g>
<!-- q13:0.0&#45;&gt;q18:0.0 -->
<g id="edge23" class="edge">
<title>q13:0.0&#45;&gt;q18:0.0</title>
<path fill="none" stroke="black" d="M4120.2,-531.21C4129.7,-553.59 4149.2,-590.38 4179.4,-606.79 4343,-695.93 4576.1,-662.48 4679.1,-641.14"/>
<polygon fill="black" stroke="black" points="4679.57,-644.62 4688.62,-639.11 4678.11,-637.77 4679.57,-644.62"/>
<text text-anchor="middle" x="4422.4" y="-668.75" font-family="Times,serif" font-size="14.00">content/554:0.519</text>
</g>
<!-- q24:0.0 -->
<g id="node23" class="node">
<title>q24:0.0</title>
<ellipse fill="none" stroke="black" stroke-width="2" cx="5732.9" cy="-440.79" rx="49.1" ry="18"/>
<text text-anchor="middle" x="5732.9" y="-436.12" font-family="Times,serif" font-size="14.00">q24:0.0</text>
</g>
<!-- q20:0.0&#45;&gt;q24:0.0 -->
<g id="edge24" class="edge">
<title>q20:0.0&#45;&gt;q24:0.0</title>
<path fill="none" stroke="black" d="M4756.4,-386.22C4768.6,-394 4784.2,-402.5 4799.6,-406.79 4964.4,-453.01 5492.6,-446.09 5671.8,-442.27"/>
<polygon fill="black" stroke="black" points="5671.67,-445.77 5681.59,-442.05 5671.51,-438.78 5671.67,-445.77"/>
<text text-anchor="middle" x="5232.7" y="-465.99" font-family="Times,serif" font-size="14.00">content/550:0.001</text>
<text text-anchor="middle" x="5232.7" y="-448.74" font-family="Times,serif" font-size="14.00">b0 = Sender frequency limited.</text>
</g>
<!-- q25:0.0 -->
<g id="node24" class="node">
<title>q25:0.0</title>
<ellipse fill="none" stroke="black" stroke-width="2" cx="5732.9" cy="-386.79" rx="49.1" ry="18"/>
<text text-anchor="middle" x="5732.9" y="-382.12" font-family="Times,serif" font-size="14.00">q25:0.0</text>
</g>
<!-- q20:0.0&#45;&gt;q25:0.0 -->
<g id="edge25" class="edge">
<title>q20:0.0&#45;&gt;q25:0.0</title>
<path fill="none" stroke="black" d="M4782.3,-370.62C4948.1,-373.45 5489.2,-382.66 5671.4,-385.76"/>
<polygon fill="black" stroke="black" points="5671.33,-389.26 5681.39,-385.93 5671.45,-382.26 5671.33,-389.26"/>
<text text-anchor="middle" x="5232.7" y="-389.75" font-family="Times,serif" font-size="14.00">content/554:0.002</text>
</g>
<!-- q26:0.0 -->
<g id="node25" class="node">
<title>q26:0.0</title>
<ellipse fill="none" stroke="black" stroke-width="2" cx="5732.9" cy="-332.79" rx="49.1" ry="18"/>
<text text-anchor="middle" x="5732.9" y="-328.12" font-family="Times,serif" font-size="14.00">q26:0.0</text>
</g>
<!-- q20:0.0&#45;&gt;q26:0.0 -->
<g id="edge26" class="edge">
<title>q20:0.0&#45;&gt;q26:0.0</title>
<path fill="none" stroke="black" d="M4769.8,-357.35C4779.4,-354.59 4789.8,-352.04 4799.6,-350.54 4968.5,-324.8 5493,-329.45 5671.6,-331.87"/>
<polygon fill="black" stroke="black" points="5671.54,-335.37 5681.59,-332 5671.63,-328.37 5671.54,-335.37"/>
<text text-anchor="middle" x="5232.7" y="-354.75" font-family="Times,serif" font-size="14.00">content/250:0.042</text>
</g>
<!-- q27:0.0 -->
<g id="node26" class="node">
<title>q27:0.0</title>
<ellipse fill="none" stroke="black" stroke-width="2" cx="5732.9" cy="-245.79" rx="49.1" ry="18"/>
<text text-anchor="middle" x="5732.9" y="-241.12" font-family="Times,serif" font-size="14.00">q27:0.0</text>
</g>
<!-- q20:0.0&#45;&gt;q27:0.0 -->
<g id="edge27" class="edge">
<title>q20:0.0&#45;&gt;q27:0.0</title>
<path fill="none" stroke="black" d="M4764.4,-355.41C4770.7,-351.37 4776.8,-346.5 4781.6,-340.79 4796.2,-323.09 4780.9,-305.67 4799.6,-292.29 4838.7,-264.29 5618.5,-278.75 5665.8,-269.79 5673.4,-268.36 5681.3,-266.17 5688.8,-263.69"/>
<polygon fill="black" stroke="black" points="5689.89,-267.02 5698.17,-260.4 5687.58,-260.41 5689.89,-267.02"/>
<text text-anchor="middle" x="5232.7" y="-313.99" font-family="Times,serif" font-size="14.00">content/λ:0.955</text>
<text text-anchor="middle" x="5232.7" y="-296.74" font-family="Times,serif" font-size="14.00">a0 = b0</text>
</g>
<!-- q22:1.0 -->
<g id="node32" class="node">
<title>q22:1.0</title>
<ellipse fill="none" stroke="black" stroke-width="2" cx="5732.9" cy="-494.79" rx="49.1" ry="18"/>
<text text-anchor="middle" x="5732.9" y="-490.12" font-family="Times,serif" font-size="14.00">q22:1.0</text>
</g>
<!-- q17:0.0&#45;&gt;q22:1.0 -->
<g id="edge35" class="edge">
<title>q17:0.0&#45;&gt;q22:1.0</title>
<path fill="none" stroke="black" d="M4782.3,-484.33C4948.1,-486.16 5489.2,-492.12 5671.4,-494.13"/>
<polygon fill="black" stroke="black" points="5671.35,-497.63 5681.39,-494.23 5671.42,-490.63 5671.35,-497.63"/>
<text text-anchor="middle" x="5232.7" y="-514.99" font-family="Times,serif" font-size="14.00">QUIT/221:1.0</text>
<text text-anchor="middle" x="5232.7" y="-497.74" font-family="Times,serif" font-size="14.00">b0 = Bye</text>
</g>
<!-- q16:0.0&#45;&gt;q13:0.0 -->
<g id="edge36" class="edge">
<title>q16:0.0&#45;&gt;q13:0.0</title>
<path fill="none" stroke="black" d="M4682.8,-566.27C4566.1,-569.35 4273.4,-574.21 4179.4,-548.79 4168.1,-545.75 4156.7,-540.46 4146.5,-534.85"/>
<polygon fill="black" stroke="black" points="4148.6,-532.02 4138.2,-529.97 4145.05,-538.06 4148.6,-532.02"/>
<text text-anchor="middle" x="4422.4" y="-589.99" font-family="Times,serif" font-size="14.00">content/λ:0.947</text>
<text text-anchor="middle" x="4422.4" y="-572.74" font-family="Times,serif" font-size="14.00">a0 = b0</text>
</g>
<!-- q21:0.0 -->
<g id="node33" class="node">
<title>q21:0.0</title>
<ellipse fill="none" stroke="black" stroke-width="2" cx="5732.9" cy="-564.79" rx="49.1" ry="18"/>
<text text-anchor="middle" x="5732.9" y="-560.12" font-family="Times,serif" font-size="14.00">q21:0.0</text>
</g>
<!-- q16:0.0&#45;&gt;q21:0.0 -->
<g id="edge37" class="edge">
<title>q16:0.0&#45;&gt;q21:0.0</title>
<path fill="none" stroke="black" d="M4782.3,-564.79C4948.1,-564.79 5489.2,-564.79 5671.4,-564.79"/>
<polygon fill="black" stroke="black" points="5671.39,-568.29 5681.39,-564.79 5671.39,-561.29 5671.39,-568.29"/>
<text text-anchor="middle" x="5232.7" y="-585.99" font-family="Times,serif" font-size="14.00">content/250:0.053</text>
<text text-anchor="middle" x="5232.7" y="-568.74" font-family="Times,serif" font-size="14.00">b0 in {&#39;ok queue id 66655249283639&#39;, &#39;Mail OK queued as smtp7 DsmowACnQhEm3V5f05EWJQ&#45;&#45;.9238S2 1600052518&#39;}</text>
</g>
<!-- q23:1.0 -->
<g id="node34" class="node">
<title>q23:1.0</title>
<ellipse fill="none" stroke="black" stroke-width="2" cx="5732.9" cy="-628.79" rx="49.1" ry="18"/>
<text text-anchor="middle" x="5732.9" y="-624.12" font-family="Times,serif" font-size="14.00">q23:1.0</text>
</g>
<!-- q18:0.0&#45;&gt;q23:1.0 -->
<g id="edge38" class="edge">
<title>q18:0.0&#45;&gt;q23:1.0</title>
<path fill="none" stroke="black" d="M4782.3,-628.79C4948.1,-628.79 5489.2,-628.79 5671.4,-628.79"/>
<polygon fill="black" stroke="black" points="5671.39,-632.29 5681.39,-628.79 5671.39,-625.29 5671.39,-632.29"/>
<text text-anchor="middle" x="5232.7" y="-649.99" font-family="Times,serif" font-size="14.00">RSET/250:1.0</text>
<text text-anchor="middle" x="5232.7" y="-632.74" font-family="Times,serif" font-size="14.00">b0 = OK</text>
</g>
<!-- q29:1.0 -->
<g id="node27" class="node">
<title>q29:1.0</title>
<ellipse fill="none" stroke="black" stroke-width="2" cx="7256.9" cy="-444.79" rx="49.1" ry="18"/>
<text text-anchor="middle" x="7256.9" y="-440.11" font-family="Times,serif" font-size="14.00">q29:1.0</text>
</g>
<!-- q24:0.0&#45;&gt;q29:1.0 -->
<g id="edge28" class="edge">
<title>q24:0.0&#45;&gt;q29:1.0</title>
<path fill="none" stroke="black" d="M5782.8,-440.92C6008.5,-441.51 6948.3,-443.98 7195.9,-444.64"/>
<polygon fill="black" stroke="black" points="7195.58,-448.14 7205.59,-444.67 7195.6,-441.14 7195.58,-448.14"/>
<text text-anchor="middle" x="6494.9" y="-464.99" font-family="Times,serif" font-size="14.00">RSET/250:1.0</text>
<text text-anchor="middle" x="6494.9" y="-447.74" font-family="Times,serif" font-size="14.00">a0 = b0</text>
</g>
<!-- q30:1.0 -->
<g id="node28" class="node">
<title>q30:1.0</title>
<ellipse fill="none" stroke="black" stroke-width="2" cx="7256.9" cy="-386.79" rx="49.1" ry="18"/>
<text text-anchor="middle" x="7256.9" y="-382.12" font-family="Times,serif" font-size="14.00">q30:1.0</text>
</g>
<!-- q25:0.0&#45;&gt;q30:1.0 -->
<g id="edge29" class="edge">
<title>q25:0.0&#45;&gt;q30:1.0</title>
<path fill="none" stroke="black" d="M5782.8,-386.79C6008.5,-386.79 6948.3,-386.79 7195.9,-386.79"/>
<polygon fill="black" stroke="black" points="7195.59,-390.29 7205.59,-386.79 7195.59,-383.29 7195.59,-390.29"/>
<text text-anchor="middle" x="6494.9" y="-407.99" font-family="Times,serif" font-size="14.00">RSET/250:1.0</text>
<text text-anchor="middle" x="6494.9" y="-390.74" font-family="Times,serif" font-size="14.00">b0 = OK</text>
</g>
<!-- q31:1.0 -->
<g id="node29" class="node">
<title>q31:1.0</title>
<ellipse fill="none" stroke="black" stroke-width="2" cx="7256.9" cy="-332.79" rx="49.1" ry="18"/>
<text text-anchor="middle" x="7256.9" y="-328.12" font-family="Times,serif" font-size="14.00">q31:1.0</text>
</g>
<!-- q26:0.0&#45;&gt;q31:1.0 -->
<g id="edge30" class="edge">
<title>q26:0.0&#45;&gt;q31:1.0</title>
<path fill="none" stroke="black" d="M5782.8,-332.79C6008.5,-332.79 6948.3,-332.79 7195.9,-332.79"/>
<polygon fill="black" stroke="black" points="7195.59,-336.29 7205.59,-332.79 7195.59,-329.29 7195.59,-336.29"/>
<text text-anchor="middle" x="6494.9" y="-336.75" font-family="Times,serif" font-size="14.00">QUIT/221:1.0</text>
</g>
<!-- q27:0.0&#45;&gt;q32:0.0 -->
<g id="edge31" class="edge">
<title>q27:0.0&#45;&gt;q32:0.0</title>
<path fill="none" stroke="black" d="M5756.9,-229.35C5769.1,-221.62 5784.7,-213.25 5800,-209.29 6329.8,-72.76 7004.4,-167.45 7200.3,-199.98"/>
<polygon fill="black" stroke="black" points="7199.46,-203.39 7209.91,-201.59 7200.63,-196.48 7199.46,-203.39"/>
<text text-anchor="middle" x="6494.9" y="-230.99" font-family="Times,serif" font-size="14.00">content/554:0.001</text>
<text text-anchor="middle" x="6494.9" y="-213.74" font-family="Times,serif" font-size="14.00">b0 = DT:SPM 126 smtp10 NuRpCgAXIXf+MYBfJr+Adw&#45;&#45;.17258S2 1602236927 please see http://mail.163.com/help/help_spam_16.htm?ip=221.212.176.101&amp;hostid=smtp10&amp;time=1602236927</text>
</g>
<!-- q27:0.0&#45;&gt;q20:0.0 -->
<g id="edge32" class="edge">
<title>q27:0.0&#45;&gt;q20:0.0</title>
<path fill="none" stroke="black" d="M5699.3,-231.89C5567.9,-178.38 5072,0 4799.6,-231.29 4762,-263.21 4809.2,-299.97 4781.6,-340.79 4779.5,-343.78 4777.1,-346.51 4774.4,-348.99"/>
<polygon fill="black" stroke="black" points="4772.66,-345.91 4766.9,-354.79 4776.95,-351.44 4772.66,-345.91"/>
<text text-anchor="middle" x="5232.7" y="-252.99" font-family="Times,serif" font-size="14.00">content/λ:0.971</text>
<text text-anchor="middle" x="5232.7" y="-235.74" font-family="Times,serif" font-size="14.00">a0 = b0</text>
</g>
<!-- q33:0.0 -->
<g id="node30" class="node">
<title>q33:0.0</title>
<ellipse fill="none" stroke="black" stroke-width="2" cx="7256.9" cy="-267.79" rx="49.1" ry="18"/>
<text text-anchor="middle" x="7256.9" y="-263.12" font-family="Times,serif" font-size="14.00">q33:0.0</text>
</g>
<!-- q27:0.0&#45;&gt;q33:0.0 -->
<g id="edge33" class="edge">
<title>q27:0.0&#45;&gt;q33:0.0</title>
<path fill="none" stroke="black" d="M5782.8,-246.5C6008.5,-249.76 6948.3,-263.35 7195.9,-266.93"/>
<polygon fill="black" stroke="black" points="7195.54,-270.43 7205.59,-267.07 7195.64,-263.43 7195.54,-270.43"/>
<text text-anchor="middle" x="6494.9" y="-270.75" font-family="Times,serif" font-size="14.00">content/250:0.028</text>
</g>
<!-- q35:1.0 -->
<g id="node31" class="node">
<title>q35:1.0</title>
<ellipse fill="none" stroke="black" stroke-width="2" cx="7489.3" cy="-267.79" rx="49.1" ry="18"/>
<text text-anchor="middle" x="7489.3" y="-263.12" font-family="Times,serif" font-size="14.00">q35:1.0</text>
</g>
<!-- q33:0.0&#45;&gt;q35:1.0 -->
<g id="edge34" class="edge">
<title>q33:0.0&#45;&gt;q35:1.0</title>
<path fill="none" stroke="black" d="M7306.8,-267.79C7342.2,-267.79 7390.3,-267.79 7428.2,-267.79"/>
<polygon fill="black" stroke="black" points="7427.99,-271.29 7437.99,-267.79 7427.99,-264.29 7427.99,-271.29"/>
<text text-anchor="middle" x="7373.1" y="-271.75" font-family="Times,serif" font-size="14.00">QUIT/221:1.0</text>
</g>
<!-- q28:1.0 -->
<g id="node35" class="node">
<title>q28:1.0</title>
<ellipse fill="none" stroke="black" stroke-width="2" cx="7256.9" cy="-564.79" rx="49.1" ry="18"/>
<text text-anchor="middle" x="7256.9" y="-560.12" font-family="Times,serif" font-size="14.00">q28:1.0</text>
</g>
<!-- q21:0.0&#45;&gt;q28:1.0 -->
<g id="edge39" class="edge">
<title>q21:0.0&#45;&gt;q28:1.0</title>
<path fill="none" stroke="black" d="M5782.8,-564.79C6008.5,-564.79 6948.3,-564.79 7195.9,-564.79"/>
<polygon fill="black" stroke="black" points="7195.59,-568.29 7205.59,-564.79 7195.59,-561.29 7195.59,-568.29"/>
<text text-anchor="middle" x="6494.9" y="-585.99" font-family="Times,serif" font-size="14.00">QUIT/221:1.0</text>
<text text-anchor="middle" x="6494.9" y="-568.74" font-family="Times,serif" font-size="14.00">b0 in {&#39;Bye&#39;, &#39;smtp&#45;97&#45;27.smtpsmail.fmail.bx.sinanode.com&#39;}</text>
</g>
<!-- q0:0.0 -->
<g id="node36" class="node">
<title>q0:0.0</title>
<ellipse fill="none" stroke="black" stroke-width="2" cx="50.79" cy="-424.79" rx="46.79" ry="46.79"/>
<ellipse fill="none" stroke="black" stroke-width="2" cx="50.79" cy="-424.79" rx="50.79" ry="50.79"/>
<text text-anchor="middle" x="50.79" y="-420.11" font-family="Times,serif" font-size="14.00">q0:0.0</text>
</g>
<!-- q0:0.0&#45;&gt;q1:0.0 -->
<g id="edge40" class="edge">
<title>q0:0.0&#45;&gt;q1:0.0</title>
<path fill="none" stroke="black" d="M98.53,-424.79C125.82,-424.79 160.37,-424.79 188.82,-424.79"/>
<polygon fill="black" stroke="black" points="188.69,-428.29 198.69,-424.79 188.69,-421.29 188.69,-428.29"/>
<text text-anchor="middle" x="149.33" y="-428.75" font-family="Times,serif" font-size="14.00">λ/220:1.0</text>
</g>
</g>
</svg>
