<?xml version="1.0" encoding="UTF-8" standalone="no"?>
<!DOCTYPE svg PUBLIC "-//W3C//DTD SVG 1.1//EN"
 "http://www.w3.org/Graphics/SVG/1.1/DTD/svg11.dtd">
<!-- Generated by graphviz version 12.0.0 (20240803.0821)
 -->
<!-- Pages: 1 -->
<svg width="9215pt" height="626pt"
 viewBox="0.00 0.00 9215.10 625.86" xmlns="http://www.w3.org/2000/svg" xmlns:xlink="http://www.w3.org/1999/xlink">
<g id="graph0" class="graph" transform="scale(1 1) rotate(0) translate(4 621.86)">
<polygon fill="white" stroke="none" points="-4,4 -4,-621.86 9211.1,-621.86 9211.1,4 -4,4"/>
<!-- q1:0.0 -->
<g id="node1" class="node">
<title>q1:0.0</title>
<ellipse fill="none" stroke="black" stroke-width="2" cx="243.87" cy="-151.84" rx="42.79" ry="18"/>
<text text-anchor="middle" x="243.87" y="-147.16" font-family="Times,serif" font-size="14.00">q1:0.0</text>
</g>
<!-- q2:0.0 -->
<g id="node2" class="node">
<title>q2:0.0</title>
<ellipse fill="none" stroke="black" stroke-width="2" cx="484.7" cy="-222.84" rx="42.79" ry="18"/>
<text text-anchor="middle" x="484.7" y="-218.17" font-family="Times,serif" font-size="14.00">q2:0.0</text>
</g>
<!-- q1:0.0&#45;&gt;q2:0.0 -->
<g id="edge1" class="edge">
<title>q1:0.0&#45;&gt;q2:0.0</title>
<path fill="none" stroke="black" d="M280.11,-162.32C321.83,-174.72 391.43,-195.41 437.44,-209.09"/>
<polygon fill="black" stroke="black" points="436.29,-212.4 446.87,-211.89 438.28,-205.69 436.29,-212.4"/>
<text text-anchor="middle" x="364.29" y="-206.79" font-family="Times,serif" font-size="14.00">EHLO/250:0.992</text>
</g>
<!-- q3:0.0 -->
<g id="node3" class="node">
<title>q3:0.0</title>
<ellipse fill="none" stroke="black" stroke-width="2" cx="484.7" cy="-114.84" rx="42.79" ry="18"/>
<text text-anchor="middle" x="484.7" y="-110.17" font-family="Times,serif" font-size="14.00">q3:0.0</text>
</g>
<!-- q1:0.0&#45;&gt;q3:0.0 -->
<g id="edge2" class="edge">
<title>q1:0.0&#45;&gt;q3:0.0</title>
<path fill="none" stroke="black" d="M272.79,-137.62C282.62,-133.24 293.9,-128.9 304.66,-126.34 345.95,-116.51 394,-113.89 429.93,-113.59"/>
<polygon fill="black" stroke="black" points="429.63,-117.09 439.63,-113.56 429.62,-110.09 429.63,-117.09"/>
<text text-anchor="middle" x="364.29" y="-148.04" font-family="Times,serif" font-size="14.00">EHLO/λ:0.008</text>
<text text-anchor="middle" x="364.29" y="-130.79" font-family="Times,serif" font-size="14.00">a0 = [127.0.1.1]</text>
</g>
<!-- q5:0.0 -->
<g id="node4" class="node">
<title>q5:0.0</title>
<ellipse fill="none" stroke="black" stroke-width="2" cx="1657.8" cy="-324.84" rx="42.79" ry="18"/>
<text text-anchor="middle" x="1657.8" y="-320.17" font-family="Times,serif" font-size="14.00">q5:0.0</text>
</g>
<!-- q2:0.0&#45;&gt;q5:0.0 -->
<g id="edge3" class="edge">
<title>q2:0.0&#45;&gt;q5:0.0</title>
<path fill="none" stroke="black" d="M494.62,-241.32C504.36,-259.17 521.79,-285.15 545.49,-296.84 917.78,-480.45 1449,-375.29 1609.2,-336.99"/>
<polygon fill="black" stroke="black" points="1609.73,-340.46 1618.63,-334.71 1608.09,-333.66 1609.73,-340.46"/>
<text text-anchor="middle" x="1071.2" y="-422.04" font-family="Times,serif" font-size="14.00">AUTH/535:0.05</text>
<text text-anchor="middle" x="1071.2" y="-404.79" font-family="Times,serif" font-size="14.00">b0 in {&#39;5.7.8 authentication failed&#39;, &#39;Error: authentication failed&#39;}</text>
</g>
<!-- q4:0.0 -->
<g id="node5" class="node">
<title>q4:0.0</title>
<ellipse fill="none" stroke="black" stroke-width="2" cx="1657.8" cy="-147.84" rx="42.79" ry="18"/>
<text text-anchor="middle" x="1657.8" y="-143.16" font-family="Times,serif" font-size="14.00">q4:0.0</text>
</g>
<!-- q2:0.0&#45;&gt;q4:0.0 -->
<g id="edge4" class="edge">
<title>q2:0.0&#45;&gt;q4:0.0</title>
<path fill="none" stroke="black" d="M504.7,-206.12C515.78,-197.47 530.5,-187.77 545.49,-183.09 657.04,-148.28 1481.3,-180.13 1597,-163.84 1601.6,-163.19 1606.4,-162.3 1611.1,-161.28"/>
<polygon fill="black" stroke="black" points="1611.62,-164.76 1620.53,-159.02 1609.99,-157.95 1611.62,-164.76"/>
<text text-anchor="middle" x="1071.2" y="-221.29" font-family="Times,serif" font-size="14.00">AUTH/235:0.946</text>
<text text-anchor="middle" x="1071.2" y="-204.04" font-family="Times,serif" font-size="14.00">a0 in {&#39;PLAIN AEF6NjE2MUAxMjYuY29tAE1VUVNBT1NUWElURkpDVUU=&#39;, &#39;PLAIN AEF6NjE2MUBzaW5hLmNvbQA2ZmRiMjVjZmNjODYyZWZj&#39;}</text>
<text text-anchor="middle" x="1071.2" y="-186.79" font-family="Times,serif" font-size="14.00">b0 in {&#39;Authentication successful&#39;, &#39;OK Authenticated&#39;}</text>
</g>
<!-- q6:0.0 -->
<g id="node6" class="node">
<title>q6:0.0</title>
<ellipse fill="none" stroke="black" stroke-width="2" cx="1657.8" cy="-252.84" rx="42.79" ry="18"/>
<text text-anchor="middle" x="1657.8" y="-248.17" font-family="Times,serif" font-size="14.00">q6:0.0</text>
</g>
<!-- q2:0.0&#45;&gt;q6:0.0 -->
<g id="edge5" class="edge">
<title>q2:0.0&#45;&gt;q6:0.0</title>
<path fill="none" stroke="black" d="M520.5,-233.71C528.62,-235.81 537.3,-237.71 545.49,-238.84 753.29,-267.49 1409.8,-257.57 1602.9,-253.93"/>
<polygon fill="black" stroke="black" points="1602.65,-257.44 1612.59,-253.75 1602.52,-250.44 1602.65,-257.44"/>
<text text-anchor="middle" x="1071.2" y="-279.04" font-family="Times,serif" font-size="14.00">AUTH/λ:0.004</text>
<text text-anchor="middle" x="1071.2" y="-261.79" font-family="Times,serif" font-size="14.00">a0 = PLAIN AEF6NjE2MUAxMjYuY29tAE1VUVNBT1NUWElURkpDVUU=</text>
</g>
<!-- q3:0.0&#45;&gt;q4:0.0 -->
<g id="edge6" class="edge">
<title>q3:0.0&#45;&gt;q4:0.0</title>
<path fill="none" stroke="black" d="M524.59,-107.37C669.58,-81.03 1191.1,0 1597,-112.09 1607.2,-114.9 1617.3,-119.94 1626.3,-125.37"/>
<polygon fill="black" stroke="black" points="1624.33,-128.26 1634.63,-130.74 1628.12,-122.38 1624.33,-128.26"/>
<text text-anchor="middle" x="1071.2" y="-151.29" font-family="Times,serif" font-size="14.00">AUTH/235:1.0</text>
<text text-anchor="middle" x="1071.2" y="-134.04" font-family="Times,serif" font-size="14.00">a0 in {&#39;PLAIN AEF6NjE2MUAxMjYuY29tAE1VUVNBT1NUWElURkpDVUU=&#39;, &#39;PLAIN AEF6NjE2MUBzaW5hLmNvbQA2ZmRiMjVjZmNjODYyZWZj&#39;}</text>
<text text-anchor="middle" x="1071.2" y="-116.79" font-family="Times,serif" font-size="14.00">b0 in {&#39;Authentication successful&#39;, &#39;OK Authenticated&#39;}</text>
</g>
<!-- q9:0.0 -->
<g id="node7" class="node">
<title>q9:0.0</title>
<ellipse fill="none" stroke="black" stroke-width="2" cx="2272.9" cy="-326.84" rx="42.79" ry="18"/>
<text text-anchor="middle" x="2272.9" y="-322.17" font-family="Times,serif" font-size="14.00">q9:0.0</text>
</g>
<!-- q5:0.0&#45;&gt;q9:0.0 -->
<g id="edge7" class="edge">
<title>q5:0.0&#45;&gt;q9:0.0</title>
<path fill="none" stroke="black" d="M1701.4,-324.98C1810.1,-325.33 2097.4,-326.27 2217.7,-326.66"/>
<polygon fill="black" stroke="black" points="2217.57,-330.16 2227.59,-326.7 2217.6,-323.16 2217.57,-330.16"/>
<text text-anchor="middle" x="1965.3" y="-347.04" font-family="Times,serif" font-size="14.00">AUTH/334:1.0</text>
<text text-anchor="middle" x="1965.3" y="-329.79" font-family="Times,serif" font-size="14.00">b0 = UGFzc3dvcmQ6</text>
</g>
<!-- q8:0.0 -->
<g id="node8" class="node">
<title>q8:0.0</title>
<ellipse fill="none" stroke="black" stroke-width="2" cx="2272.9" cy="-101.84" rx="42.79" ry="18"/>
<text text-anchor="middle" x="2272.9" y="-97.17" font-family="Times,serif" font-size="14.00">q8:0.0</text>
</g>
<!-- q4:0.0&#45;&gt;q8:0.0 -->
<g id="edge8" class="edge">
<title>q4:0.0&#45;&gt;q8:0.0</title>
<path fill="none" stroke="black" d="M1675.6,-130.56C1686.7,-120.42 1702.2,-108.55 1718.6,-103.09 1895.8,-43.88 2123.2,-73.94 2222.2,-91.79"/>
<polygon fill="black" stroke="black" points="2221.34,-95.19 2231.81,-93.57 2222.62,-88.3 2221.34,-95.19"/>
<text text-anchor="middle" x="1965.3" y="-142.29" font-family="Times,serif" font-size="14.00">MAIL/553:0.009</text>
<text text-anchor="middle" x="1965.3" y="-125.04" font-family="Times,serif" font-size="14.00">a0 in {&#39;FROM:&lt;Az_6161@126.com&gt;&#39;, &#39;FROM:&lt;Az6161@163.com&gt;&#39;}</text>
<text text-anchor="middle" x="1965.3" y="-107.79" font-family="Times,serif" font-size="14.00">b0 = Mail from must equal authorized user</text>
</g>
<!-- q7:0.0 -->
<g id="node9" class="node">
<title>q7:0.0</title>
<ellipse fill="none" stroke="black" stroke-width="2" cx="2272.9" cy="-209.84" rx="42.79" ry="18"/>
<text text-anchor="middle" x="2272.9" y="-205.17" font-family="Times,serif" font-size="14.00">q7:0.0</text>
</g>
<!-- q4:0.0&#45;&gt;q7:0.0 -->
<g id="edge9" class="edge">
<title>q4:0.0&#45;&gt;q7:0.0</title>
<path fill="none" stroke="black" d="M1699.6,-153.05C1705.9,-153.73 1712.4,-154.36 1718.6,-154.84 1828,-163.36 2106.9,-142.82 2212.1,-174.09 2222.1,-177.07 2232.2,-182.11 2241.1,-187.49"/>
<polygon fill="black" stroke="black" points="2239.11,-190.37 2249.42,-192.79 2242.87,-184.47 2239.11,-190.37"/>
<text text-anchor="middle" x="1965.3" y="-212.29" font-family="Times,serif" font-size="14.00">MAIL/250:0.991</text>
<text text-anchor="middle" x="1965.3" y="-195.04" font-family="Times,serif" font-size="14.00">a0 in {&#39;FROM:&lt;Az6161@sina.com&gt;&#39;, &#39;FROM:&lt;Az6161@126.com&gt;&#39;}</text>
<text text-anchor="middle" x="1965.3" y="-177.79" font-family="Times,serif" font-size="14.00">b0 in {&#39;Mail OK&#39;, &#39;ok&#39;}</text>
</g>
<!-- q6:0.0&#45;&gt;q7:0.0 -->
<g id="edge10" class="edge">
<title>q6:0.0&#45;&gt;q7:0.0</title>
<path fill="none" stroke="black" d="M1701.2,-255.1C1794.5,-259.19 2024.2,-264.46 2212.1,-229.84 2217.7,-228.8 2223.6,-227.35 2229.3,-225.7"/>
<polygon fill="black" stroke="black" points="2230.07,-229.13 2238.56,-222.79 2227.97,-222.45 2230.07,-229.13"/>
<text text-anchor="middle" x="1965.3" y="-296.29" font-family="Times,serif" font-size="14.00">MAIL/250:1.0</text>
<text text-anchor="middle" x="1965.3" y="-279.04" font-family="Times,serif" font-size="14.00">a0 = FROM:&lt;Az6161@126.com&gt;</text>
<text text-anchor="middle" x="1965.3" y="-261.79" font-family="Times,serif" font-size="14.00">b0 = Mail OK</text>
</g>
<!-- q12:0.75 -->
<g id="node10" class="node">
<title>q12:0.75</title>
<ellipse fill="none" stroke="black" stroke-width="2" cx="3101.6" cy="-326.84" rx="55.42" ry="18"/>
<text text-anchor="middle" x="3101.6" y="-322.17" font-family="Times,serif" font-size="14.00">q12:0.75</text>
</g>
<!-- q9:0.0&#45;&gt;q12:0.75 -->
<g id="edge11" class="edge">
<title>q9:0.0&#45;&gt;q12:0.75</title>
<path fill="none" stroke="black" d="M2316.6,-326.84C2451.6,-326.84 2870.1,-326.84 3033.9,-326.84"/>
<polygon fill="black" stroke="black" points="3033.69,-330.34 3043.69,-326.84 3033.69,-323.34 3033.69,-330.34"/>
<text text-anchor="middle" x="2680.9" y="-348.04" font-family="Times,serif" font-size="14.00">content/535:1.0</text>
<text text-anchor="middle" x="2680.9" y="-330.79" font-family="Times,serif" font-size="14.00">b0 in {&#39;5.7.8 authentication failed&#39;, &#39;Error: authentication failed&#39;}</text>
</g>
<!-- q11:1.0 -->
<g id="node11" class="node">
<title>q11:1.0</title>
<ellipse fill="none" stroke="black" stroke-width="2" cx="3101.6" cy="-101.84" rx="49.1" ry="18"/>
<text text-anchor="middle" x="3101.6" y="-97.17" font-family="Times,serif" font-size="14.00">q11:1.0</text>
</g>
<!-- q8:0.0&#45;&gt;q11:1.0 -->
<g id="edge12" class="edge">
<title>q8:0.0&#45;&gt;q11:1.0</title>
<path fill="none" stroke="black" d="M2316.6,-101.84C2453.3,-101.84 2880.8,-101.84 3040,-101.84"/>
<polygon fill="black" stroke="black" points="3039.99,-105.34 3049.99,-101.84 3039.99,-98.34 3039.99,-105.34"/>
<text text-anchor="middle" x="2680.9" y="-123.04" font-family="Times,serif" font-size="14.00">RSET/250:1.0</text>
<text text-anchor="middle" x="2680.9" y="-105.79" font-family="Times,serif" font-size="14.00">b0 = OK</text>
</g>
<!-- q10:0.0 -->
<g id="node12" class="node">
<title>q10:0.0</title>
<ellipse fill="none" stroke="black" stroke-width="2" cx="3101.6" cy="-209.84" rx="49.1" ry="18"/>
<text text-anchor="middle" x="3101.6" y="-205.17" font-family="Times,serif" font-size="14.00">q10:0.0</text>
</g>
<!-- q7:0.0&#45;&gt;q10:0.0 -->
<g id="edge13" class="edge">
<title>q7:0.0&#45;&gt;q10:0.0</title>
<path fill="none" stroke="black" d="M2316.6,-209.84C2453.3,-209.84 2880.8,-209.84 3040,-209.84"/>
<polygon fill="black" stroke="black" points="3039.99,-213.34 3049.99,-209.84 3039.99,-206.34 3039.99,-213.34"/>
<text text-anchor="middle" x="2680.9" y="-248.29" font-family="Times,serif" font-size="14.00">RCPT/250:1.0</text>
<text text-anchor="middle" x="2680.9" y="-231.04" font-family="Times,serif" font-size="14.00">a0 in {&#39;TO:&lt;574702257@qq.com&gt;&#39;, &#39;TO:&lt;1542110793@qq.com&gt;&#39;, &#39;TO:&lt;574702256@qq.com&gt;&#39;}</text>
<text text-anchor="middle" x="2680.9" y="-213.79" font-family="Times,serif" font-size="14.00">b0 in {&#39;Mail OK&#39;, &#39;ok&#39;}</text>
</g>
<!-- q15:1.0 -->
<g id="node13" class="node">
<title>q15:1.0</title>
<ellipse fill="none" stroke="black" stroke-width="2" cx="3511.7" cy="-326.84" rx="49.1" ry="18"/>
<text text-anchor="middle" x="3511.7" y="-322.17" font-family="Times,serif" font-size="14.00">q15:1.0</text>
</g>
<!-- q12:0.75&#45;&gt;q15:1.0 -->
<g id="edge14" class="edge">
<title>q12:0.75&#45;&gt;q15:1.0</title>
<path fill="none" stroke="black" d="M3157.6,-326.84C3233.9,-326.84 3371.4,-326.84 3450.4,-326.84"/>
<polygon fill="black" stroke="black" points="3450.19,-330.34 3460.19,-326.84 3450.19,-323.34 3450.19,-330.34"/>
<text text-anchor="middle" x="3253.4" y="-348.04" font-family="Times,serif" font-size="14.00">λ/451:0.25</text>
<text text-anchor="middle" x="3253.4" y="-330.79" font-family="Times,serif" font-size="14.00">b0 = Timeout.</text>
</g>
<!-- q14:0.0 -->
<g id="node21" class="node">
<title>q14:0.0</title>
<ellipse fill="none" stroke="black" stroke-width="2" cx="3511.7" cy="-265.84" rx="49.1" ry="18"/>
<text text-anchor="middle" x="3511.7" y="-261.17" font-family="Times,serif" font-size="14.00">q14:0.0</text>
</g>
<!-- q10:0.0&#45;&gt;q14:0.0 -->
<g id="edge32" class="edge">
<title>q10:0.0&#45;&gt;q14:0.0</title>
<path fill="none" stroke="black" d="M3148.6,-216.15C3223.5,-226.43 3371.6,-246.74 3453.2,-257.95"/>
<polygon fill="black" stroke="black" points="3452.72,-261.42 3463.1,-259.3 3453.66,-254.48 3452.72,-261.42"/>
<text text-anchor="middle" x="3253.4" y="-262.04" font-family="Times,serif" font-size="14.00">RCPT/250:0.609</text>
<text text-anchor="middle" x="3253.4" y="-244.79" font-family="Times,serif" font-size="14.00">b0 in {&#39;Mail OK&#39;, &#39;ok&#39;}</text>
</g>
<!-- q13:0.0 -->
<g id="node23" class="node">
<title>q13:0.0</title>
<ellipse fill="none" stroke="black" stroke-width="2" cx="4244.8" cy="-217.84" rx="49.1" ry="18"/>
<text text-anchor="middle" x="4244.8" y="-213.17" font-family="Times,serif" font-size="14.00">q13:0.0</text>
</g>
<!-- q10:0.0&#45;&gt;q13:0.0 -->
<g id="edge33" class="edge">
<title>q10:0.0&#45;&gt;q13:0.0</title>
<path fill="none" stroke="black" d="M3151.3,-208.43C3201.2,-207.07 3280.9,-205.11 3349.7,-204.34 3717.7,-200.25 3810.7,-182.32 4177.7,-208.84 4180.8,-209.06 4183.9,-209.33 4187,-209.63"/>
<polygon fill="black" stroke="black" points="4186.57,-213.11 4196.89,-210.72 4187.34,-206.15 4186.57,-213.11"/>
<text text-anchor="middle" x="3511.7" y="-225.04" font-family="Times,serif" font-size="14.00">DATA/354:0.391</text>
<text text-anchor="middle" x="3511.7" y="-207.79" font-family="Times,serif" font-size="14.00">b0 = End data with &lt;CR&gt;&lt;LF&gt;.&lt;CR&gt;&lt;LF&gt;</text>
</g>
<!-- q16:0.0 -->
<g id="node14" class="node">
<title>q16:0.0</title>
<ellipse fill="none" stroke="black" stroke-width="2" cx="4703" cy="-333.84" rx="49.1" ry="18"/>
<text text-anchor="middle" x="4703" y="-329.17" font-family="Times,serif" font-size="14.00">q16:0.0</text>
</g>
<!-- q16:0.0&#45;&gt;q16:0.0 -->
<g id="edge15" class="edge">
<title>q16:0.0&#45;&gt;q16:0.0</title>
<path fill="none" stroke="black" d="M4666.9,-346.94C4651,-358.1 4663,-369.84 4703,-369.84 4732.5,-369.84 4746.8,-363.51 4746,-355.73"/>
<polygon fill="black" stroke="black" points="4749.01,-353.91 4740.13,-348.14 4743.48,-358.19 4749.01,-353.91"/>
<text text-anchor="middle" x="4703" y="-391.04" font-family="Times,serif" font-size="14.00">content/λ:0.963</text>
<text text-anchor="middle" x="4703" y="-373.79" font-family="Times,serif" font-size="14.00">a0 = b0</text>
</g>
<!-- q21:0.0 -->
<g id="node15" class="node">
<title>q21:0.0</title>
<ellipse fill="none" stroke="black" stroke-width="2" cx="8925.5" cy="-387.84" rx="49.1" ry="18"/>
<text text-anchor="middle" x="8925.5" y="-383.17" font-family="Times,serif" font-size="14.00">q21:0.0</text>
</g>
<!-- q16:0.0&#45;&gt;q21:0.0 -->
<g id="edge16" class="edge">
<title>q16:0.0&#45;&gt;q21:0.0</title>
<path fill="none" stroke="black" d="M4738.9,-347.06C4748.9,-350.24 4759.8,-353.19 4770.2,-354.84 6423.4,-617.86 8493.7,-431.08 8865.9,-393.91"/>
<polygon fill="black" stroke="black" points="8866,-397.42 8875.59,-392.93 8865.29,-390.45 8866,-397.42"/>
<text text-anchor="middle" x="6814.3" y="-514.04" font-family="Times,serif" font-size="14.00">content/550:0.0</text>
<text text-anchor="middle" x="6814.3" y="-496.79" font-family="Times,serif" font-size="14.00">b0 = Sender frequency limited.</text>
</g>
<!-- q22:0.0 -->
<g id="node16" class="node">
<title>q22:0.0</title>
<ellipse fill="none" stroke="black" stroke-width="2" cx="8925.5" cy="-333.84" rx="49.1" ry="18"/>
<text text-anchor="middle" x="8925.5" y="-329.17" font-family="Times,serif" font-size="14.00">q22:0.0</text>
</g>
<!-- q16:0.0&#45;&gt;q22:0.0 -->
<g id="edge17" class="edge">
<title>q16:0.0&#45;&gt;q22:0.0</title>
<path fill="none" stroke="black" d="M4752.9,-333.84C5187.3,-333.84 8383.2,-333.84 8864,-333.84"/>
<polygon fill="black" stroke="black" points="8863.99,-337.34 8873.99,-333.84 8863.99,-330.34 8863.99,-337.34"/>
<text text-anchor="middle" x="6814.3" y="-337.79" font-family="Times,serif" font-size="14.00">content/250:0.035</text>
</g>
<!-- q23:0.0 -->
<g id="node17" class="node">
<title>q23:0.0</title>
<ellipse fill="none" stroke="black" stroke-width="2" cx="8925.5" cy="-275.84" rx="49.1" ry="18"/>
<text text-anchor="middle" x="8925.5" y="-271.17" font-family="Times,serif" font-size="14.00">q23:0.0</text>
</g>
<!-- q16:0.0&#45;&gt;q23:0.0 -->
<g id="edge18" class="edge">
<title>q16:0.0&#45;&gt;q23:0.0</title>
<path fill="none" stroke="black" d="M4726,-317.14C4738.3,-308.84 4754.3,-299.67 4770.2,-295.34 4976.5,-239.1 8368.7,-270.35 8864.3,-275.23"/>
<polygon fill="black" stroke="black" points="8863.85,-278.73 8873.89,-275.33 8863.92,-271.73 8863.85,-278.73"/>
<text text-anchor="middle" x="6814.3" y="-316.04" font-family="Times,serif" font-size="14.00">content/554:0.001</text>
<text text-anchor="middle" x="6814.3" y="-298.79" font-family="Times,serif" font-size="14.00">b0 in {&#39;DT:SPM 126 smtp8 NORpCgDnvV68MIBfFhyvJg&#45;&#45;.11962S2 1602236606 please see http://mail.163.com/help/help_spam_16.htm?ip=221.212.176.101&amp;hostid=smtp8&amp;time=1602236606&#39;, &#39;DT:SPM 126 smtp7 DsmowACXz3c_1F5f4PIUJQ&#45;&#45;.10013S2 1600050240 please see http://mail.163.com/help/help_spam_16.htm?ip=222.171.178.8&amp;hostid=smtp7&amp;time=1600050240&#39;, &#39;DT:SPM 126 smtp10 NuRpCgAXIXf+MYBfJr+Adw&#45;&#45;.17258S2 1602236927 please see http://mail.163.com/help/help_spam_16.htm?ip=221.212.176.101&amp;hostid=smtp10&amp;time=1602236927&#39;}</text>
</g>
<!-- q26:1.0 -->
<g id="node18" class="node">
<title>q26:1.0</title>
<ellipse fill="none" stroke="black" stroke-width="2" cx="9158" cy="-387.84" rx="49.1" ry="18"/>
<text text-anchor="middle" x="9158" y="-383.17" font-family="Times,serif" font-size="14.00">q26:1.0</text>
</g>
<!-- q21:0.0&#45;&gt;q26:1.0 -->
<g id="edge19" class="edge">
<title>q21:0.0&#45;&gt;q26:1.0</title>
<path fill="none" stroke="black" d="M8975.4,-387.84C9010.8,-387.84 9059,-387.84 9096.8,-387.84"/>
<polygon fill="black" stroke="black" points="9096.69,-391.34 9106.69,-387.84 9096.69,-384.34 9096.69,-391.34"/>
<text text-anchor="middle" x="9041.7" y="-409.04" font-family="Times,serif" font-size="14.00">RSET/250:1.0</text>
<text text-anchor="middle" x="9041.7" y="-391.79" font-family="Times,serif" font-size="14.00">a0 = b0</text>
</g>
<!-- q27:1.0 -->
<g id="node19" class="node">
<title>q27:1.0</title>
<ellipse fill="none" stroke="black" stroke-width="2" cx="9158" cy="-333.84" rx="49.1" ry="18"/>
<text text-anchor="middle" x="9158" y="-329.17" font-family="Times,serif" font-size="14.00">q27:1.0</text>
</g>
<!-- q22:0.0&#45;&gt;q27:1.0 -->
<g id="edge20" class="edge">
<title>q22:0.0&#45;&gt;q27:1.0</title>
<path fill="none" stroke="black" d="M8975.4,-333.84C9010.8,-333.84 9059,-333.84 9096.8,-333.84"/>
<polygon fill="black" stroke="black" points="9096.69,-337.34 9106.69,-333.84 9096.69,-330.34 9096.69,-337.34"/>
<text text-anchor="middle" x="9041.7" y="-337.79" font-family="Times,serif" font-size="14.00">QUIT/221:1.0</text>
</g>
<!-- q28:1.0 -->
<g id="node20" class="node">
<title>q28:1.0</title>
<ellipse fill="none" stroke="black" stroke-width="2" cx="9158" cy="-275.84" rx="49.1" ry="18"/>
<text text-anchor="middle" x="9158" y="-271.17" font-family="Times,serif" font-size="14.00">q28:1.0</text>
</g>
<!-- q23:0.0&#45;&gt;q28:1.0 -->
<g id="edge21" class="edge">
<title>q23:0.0&#45;&gt;q28:1.0</title>
<path fill="none" stroke="black" d="M8975.4,-275.84C9010.8,-275.84 9059,-275.84 9096.8,-275.84"/>
<polygon fill="black" stroke="black" points="9096.69,-279.34 9106.69,-275.84 9096.69,-272.34 9096.69,-279.34"/>
<text text-anchor="middle" x="9041.7" y="-297.04" font-family="Times,serif" font-size="14.00">RSET/250:1.0</text>
<text text-anchor="middle" x="9041.7" y="-279.79" font-family="Times,serif" font-size="14.00">b0 = OK</text>
</g>
<!-- q20:1.0 -->
<g id="node22" class="node">
<title>q20:1.0</title>
<ellipse fill="none" stroke="black" stroke-width="2" cx="4244.8" cy="-275.84" rx="49.1" ry="18"/>
<text text-anchor="middle" x="4244.8" y="-271.17" font-family="Times,serif" font-size="14.00">q20:1.0</text>
</g>
<!-- q14:0.0&#45;&gt;q20:1.0 -->
<g id="edge22" class="edge">
<title>q14:0.0&#45;&gt;q20:1.0</title>
<path fill="none" stroke="black" d="M3561.6,-266.51C3690.9,-268.27 4041.9,-273.08 4183.5,-275.01"/>
<polygon fill="black" stroke="black" points="4183.34,-278.51 4193.39,-275.15 4183.44,-271.51 4183.34,-278.51"/>
<text text-anchor="middle" x="3934.7" y="-295.04" font-family="Times,serif" font-size="14.00">DATA/550:0.307</text>
<text text-anchor="middle" x="3934.7" y="-277.79" font-family="Times,serif" font-size="14.00">b0 in {&#39;too many message send today.&#39;, &#39;Sender frequency limited.&#39;}</text>
</g>
<!-- q14:0.0&#45;&gt;q13:0.0 -->
<g id="edge23" class="edge">
<title>q14:0.0&#45;&gt;q13:0.0</title>
<path fill="none" stroke="black" d="M3553.3,-255.39C3589.3,-246.62 3643.7,-234.7 3691.7,-229.34 3870,-209.48 4082.5,-212.5 4184,-215.57"/>
<polygon fill="black" stroke="black" points="4183.68,-219.06 4193.79,-215.87 4183.9,-212.07 4183.68,-219.06"/>
<text text-anchor="middle" x="3934.7" y="-250.04" font-family="Times,serif" font-size="14.00">DATA/354:0.686</text>
<text text-anchor="middle" x="3934.7" y="-232.79" font-family="Times,serif" font-size="14.00">b0 = End data with &lt;CR&gt;&lt;LF&gt;.&lt;CR&gt;&lt;LF&gt;</text>
</g>
<!-- q19:0.0 -->
<g id="node24" class="node">
<title>q19:0.0</title>
<ellipse fill="none" stroke="black" stroke-width="2" cx="4244.8" cy="-333.84" rx="49.1" ry="18"/>
<text text-anchor="middle" x="4244.8" y="-329.17" font-family="Times,serif" font-size="14.00">q19:0.0</text>
</g>
<!-- q14:0.0&#45;&gt;q19:0.0 -->
<g id="edge24" class="edge">
<title>q14:0.0&#45;&gt;q19:0.0</title>
<path fill="none" stroke="black" d="M3559.9,-271.01C3592.8,-275.75 3637.1,-284.45 3673.7,-299.84 3682.6,-303.57 3682.6,-308.87 3691.7,-311.84 3864.6,-367.96 4084,-353.06 4186.3,-341.53"/>
<polygon fill="black" stroke="black" points="4186.66,-345.01 4196.2,-340.39 4185.86,-338.06 4186.66,-345.01"/>
<text text-anchor="middle" x="3934.7" y="-390.29" font-family="Times,serif" font-size="14.00">RCPT/250:0.007</text>
<text text-anchor="middle" x="3934.7" y="-373.04" font-family="Times,serif" font-size="14.00">a0 = TO:&lt;1542110795@qq.com&gt;</text>
<text text-anchor="middle" x="3934.7" y="-355.79" font-family="Times,serif" font-size="14.00">b0 = Mail OK</text>
</g>
<!-- q13:0.0&#45;&gt;q16:0.0 -->
<g id="edge25" class="edge">
<title>q13:0.0&#45;&gt;q16:0.0</title>
<path fill="none" stroke="black" d="M4282.3,-230.39C4291.9,-233.42 4302.2,-236.46 4311.9,-238.84 4453.9,-273.6 4498.6,-245.21 4635.9,-295.34 4647.2,-299.44 4658.7,-305.41 4668.9,-311.44"/>
<polygon fill="black" stroke="black" points="4666.96,-314.36 4677.31,-316.62 4670.63,-308.4 4666.96,-314.36"/>
<text text-anchor="middle" x="4473.9" y="-316.04" font-family="Times,serif" font-size="14.00">content/λ:0.489</text>
<text text-anchor="middle" x="4473.9" y="-298.79" font-family="Times,serif" font-size="14.00">a0 = b0</text>
</g>
<!-- q17:0.0 -->
<g id="node25" class="node">
<title>q17:0.0</title>
<ellipse fill="none" stroke="black" stroke-width="2" cx="4703" cy="-161.84" rx="49.1" ry="18"/>
<text text-anchor="middle" x="4703" y="-157.17" font-family="Times,serif" font-size="14.00">q17:0.0</text>
</g>
<!-- q13:0.0&#45;&gt;q17:0.0 -->
<g id="edge26" class="edge">
<title>q13:0.0&#45;&gt;q17:0.0</title>
<path fill="none" stroke="black" d="M4281.1,-204.9C4291,-201.72 4301.8,-198.65 4311.9,-196.59 4427.1,-173.24 4564.7,-165.58 4641.8,-163.07"/>
<polygon fill="black" stroke="black" points="4641.8,-166.57 4651.69,-162.77 4641.58,-159.58 4641.8,-166.57"/>
<text text-anchor="middle" x="4473.9" y="-199.79" font-family="Times,serif" font-size="14.00">content/250:0.129</text>
</g>
<!-- q18:0.0 -->
<g id="node26" class="node">
<title>q18:0.0</title>
<ellipse fill="none" stroke="black" stroke-width="2" cx="4703" cy="-217.84" rx="49.1" ry="18"/>
<text text-anchor="middle" x="4703" y="-213.17" font-family="Times,serif" font-size="14.00">q18:0.0</text>
</g>
<!-- q13:0.0&#45;&gt;q18:0.0 -->
<g id="edge27" class="edge">
<title>q13:0.0&#45;&gt;q18:0.0</title>
<path fill="none" stroke="black" d="M4294.7,-217.84C4378.8,-217.84 4550.7,-217.84 4642,-217.84"/>
<polygon fill="black" stroke="black" points="4641.69,-221.34 4651.69,-217.84 4641.69,-214.34 4641.69,-221.34"/>
<text text-anchor="middle" x="4473.9" y="-221.79" font-family="Times,serif" font-size="14.00">content/554:0.382</text>
</g>
<!-- q19:0.0&#45;&gt;q16:0.0 -->
<g id="edge28" class="edge">
<title>q19:0.0&#45;&gt;q16:0.0</title>
<path fill="none" stroke="black" d="M4294.7,-333.84C4378.8,-333.84 4550.7,-333.84 4642,-333.84"/>
<polygon fill="black" stroke="black" points="4641.69,-337.34 4651.69,-333.84 4641.69,-330.34 4641.69,-337.34"/>
<text text-anchor="middle" x="4473.9" y="-355.04" font-family="Times,serif" font-size="14.00">DATA/354:0.125</text>
<text text-anchor="middle" x="4473.9" y="-337.79" font-family="Times,serif" font-size="14.00">b0 = End data with &lt;CR&gt;&lt;LF&gt;.&lt;CR&gt;&lt;LF&gt;</text>
</g>
<!-- q19:0.0&#45;&gt;q19:0.0 -->
<g id="edge29" class="edge">
<title>q19:0.0&#45;&gt;q19:0.0</title>
<path fill="none" stroke="black" d="M4208.7,-346.94C4192.7,-358.1 4204.8,-369.84 4244.8,-369.84 4274.3,-369.84 4288.6,-363.51 4287.8,-355.73"/>
<polygon fill="black" stroke="black" points="4290.81,-353.91 4281.93,-348.14 4285.28,-358.19 4290.81,-353.91"/>
<text text-anchor="middle" x="4244.8" y="-391.04" font-family="Times,serif" font-size="14.00">RCPT/250:0.875</text>
<text text-anchor="middle" x="4244.8" y="-373.79" font-family="Times,serif" font-size="14.00">b0 = Mail OK</text>
</g>
<!-- q24:1.0 -->
<g id="node27" class="node">
<title>q24:1.0</title>
<ellipse fill="none" stroke="black" stroke-width="2" cx="8925.5" cy="-159.84" rx="49.1" ry="18"/>
<text text-anchor="middle" x="8925.5" y="-155.17" font-family="Times,serif" font-size="14.00">q24:1.0</text>
</g>
<!-- q17:0.0&#45;&gt;q24:1.0 -->
<g id="edge30" class="edge">
<title>q17:0.0&#45;&gt;q24:1.0</title>
<path fill="none" stroke="black" d="M4752.9,-161.82C5187.3,-161.61 8383.2,-160.1 8864,-159.87"/>
<polygon fill="black" stroke="black" points="8863.99,-163.37 8873.99,-159.86 8863.98,-156.37 8863.99,-163.37"/>
<text text-anchor="middle" x="6814.3" y="-183.04" font-family="Times,serif" font-size="14.00">QUIT/221:1.0</text>
<text text-anchor="middle" x="6814.3" y="-165.79" font-family="Times,serif" font-size="14.00">b0 = Bye</text>
</g>
<!-- q25:1.0 -->
<g id="node28" class="node">
<title>q25:1.0</title>
<ellipse fill="none" stroke="black" stroke-width="2" cx="8925.5" cy="-217.84" rx="49.1" ry="18"/>
<text text-anchor="middle" x="8925.5" y="-213.17" font-family="Times,serif" font-size="14.00">q25:1.0</text>
</g>
<!-- q18:0.0&#45;&gt;q25:1.0 -->
<g id="edge31" class="edge">
<title>q18:0.0&#45;&gt;q25:1.0</title>
<path fill="none" stroke="black" d="M4752.9,-217.84C5187.3,-217.84 8383.2,-217.84 8864,-217.84"/>
<polygon fill="black" stroke="black" points="8863.99,-221.34 8873.99,-217.84 8863.99,-214.34 8863.99,-221.34"/>
<text text-anchor="middle" x="6814.3" y="-239.04" font-family="Times,serif" font-size="14.00">RSET/250:1.0</text>
<text text-anchor="middle" x="6814.3" y="-221.79" font-family="Times,serif" font-size="14.00">b0 = OK</text>
</g>
<!-- q0:0.0 -->
<g id="node29" class="node">
<title>q0:0.0</title>
<ellipse fill="none" stroke="black" stroke-width="2" cx="50.79" cy="-151.84" rx="46.79" ry="46.79"/>
<ellipse fill="none" stroke="black" stroke-width="2" cx="50.79" cy="-151.84" rx="50.79" ry="50.79"/>
<text text-anchor="middle" x="50.79" y="-147.16" font-family="Times,serif" font-size="14.00">q0:0.0</text>
</g>
<!-- q0:0.0&#45;&gt;q1:0.0 -->
<g id="edge34" class="edge">
<title>q0:0.0&#45;&gt;q1:0.0</title>
<path fill="none" stroke="black" d="M98.53,-151.84C125.82,-151.84 160.37,-151.84 188.82,-151.84"/>
<polygon fill="black" stroke="black" points="188.69,-155.34 198.69,-151.84 188.69,-148.34 188.69,-155.34"/>
<text text-anchor="middle" x="149.33" y="-155.79" font-family="Times,serif" font-size="14.00">λ/220:1.0</text>
</g>
</g>
</svg>
