<?xml version="1.0" encoding="UTF-8" standalone="no"?>
<!DOCTYPE svg PUBLIC "-//W3C//DTD SVG 1.1//EN"
 "http://www.w3.org/Graphics/SVG/1.1/DTD/svg11.dtd">
<!-- Generated by graphviz version 12.0.0 (20240803.0821)
 -->
<!-- Pages: 1 -->
<svg width="1784pt" height="241pt"
 viewBox="0.00 0.00 1784.00 241.00" xmlns="http://www.w3.org/2000/svg" xmlns:xlink="http://www.w3.org/1999/xlink">
<g id="graph0" class="graph" transform="scale(1 1) rotate(0) translate(4 237)">
<polygon fill="white" stroke="none" points="-4,4 -4,-237 1780,-237 1780,4 -4,4"/>
<!-- q3:0.0 -->
<g id="node1" class="node">
<title>q3:0.0</title>
<ellipse fill="none" stroke="black" stroke-width="2" cx="484.7" cy="-108" rx="42.79" ry="18"/>
<text text-anchor="middle" x="484.7" y="-103.33" font-family="Times,serif" font-size="14.00">q3:0.0</text>
</g>
<!-- q6:0.0 -->
<g id="node2" class="node">
<title>q6:0.0</title>
<ellipse fill="none" stroke="black" stroke-width="2" cx="725.53" cy="-111" rx="42.79" ry="18"/>
<text text-anchor="middle" x="725.53" y="-106.33" font-family="Times,serif" font-size="14.00">q6:0.0</text>
</g>
<!-- q3:0.0&#45;&gt;q6:0.0 -->
<g id="edge1" class="edge">
<title>q3:0.0&#45;&gt;q6:0.0</title>
<path fill="none" stroke="black" d="M528.4,-108.54C568.1,-109.03 627.41,-109.78 670.41,-110.32"/>
<polygon fill="black" stroke="black" points="670.24,-113.82 680.29,-110.44 670.33,-106.82 670.24,-113.82"/>
<text text-anchor="middle" x="605.12" y="-113.95" font-family="Times,serif" font-size="14.00">AUTH/λ:0.004</text>
</g>
<!-- q5:0.0 -->
<g id="node3" class="node">
<title>q5:0.0</title>
<ellipse fill="none" stroke="black" stroke-width="2" cx="725.53" cy="-166" rx="42.79" ry="18"/>
<text text-anchor="middle" x="725.53" y="-161.32" font-family="Times,serif" font-size="14.00">q5:0.0</text>
</g>
<!-- q3:0.0&#45;&gt;q5:0.0 -->
<g id="edge2" class="edge">
<title>q3:0.0&#45;&gt;q5:0.0</title>
<path fill="none" stroke="black" d="M516.38,-120.98C525.63,-124.57 535.87,-128.23 545.49,-131 587.79,-143.17 636.92,-152.44 673,-158.37"/>
<polygon fill="black" stroke="black" points="672.32,-161.8 682.74,-159.94 673.43,-154.89 672.32,-161.8"/>
<text text-anchor="middle" x="605.12" y="-159.94" font-family="Times,serif" font-size="14.00">AUTH/535:0.05</text>
</g>
<!-- q4:0.0 -->
<g id="node4" class="node">
<title>q4:0.0</title>
<ellipse fill="none" stroke="black" stroke-width="2" cx="725.53" cy="-41" rx="42.79" ry="18"/>
<text text-anchor="middle" x="725.53" y="-36.33" font-family="Times,serif" font-size="14.00">q4:0.0</text>
</g>
<!-- q3:0.0&#45;&gt;q4:0.0 -->
<g id="edge3" class="edge">
<title>q3:0.0&#45;&gt;q4:0.0</title>
<path fill="none" stroke="black" d="M518.1,-95.88C526.93,-92.74 536.53,-89.48 545.49,-86.75 589.29,-73.4 639.91,-60.71 676.12,-52.1"/>
<polygon fill="black" stroke="black" points="676.48,-55.61 685.41,-49.91 674.87,-48.8 676.48,-55.61"/>
<text text-anchor="middle" x="605.12" y="-89.95" font-family="Times,serif" font-size="14.00">AUTH/235:0.946</text>
</g>
<!-- q7:0.0 -->
<g id="node5" class="node">
<title>q7:0.0</title>
<ellipse fill="none" stroke="black" stroke-width="2" cx="961.86" cy="-95" rx="42.79" ry="18"/>
<text text-anchor="middle" x="961.86" y="-90.33" font-family="Times,serif" font-size="14.00">q7:0.0</text>
</g>
<!-- q6:0.0&#45;&gt;q7:0.0 -->
<g id="edge4" class="edge">
<title>q6:0.0&#45;&gt;q7:0.0</title>
<path fill="none" stroke="black" d="M768.7,-108.12C807.48,-105.47 865.18,-101.53 907.23,-98.66"/>
<polygon fill="black" stroke="black" points="907.39,-102.16 917.13,-97.99 906.91,-95.18 907.39,-102.16"/>
<text text-anchor="middle" x="843.7" y="-109.95" font-family="Times,serif" font-size="14.00">MAIL/250:1.0</text>
</g>
<!-- q9:0.0 -->
<g id="node6" class="node">
<title>q9:0.0</title>
<ellipse fill="none" stroke="black" stroke-width="2" cx="961.86" cy="-200" rx="42.79" ry="18"/>
<text text-anchor="middle" x="961.86" y="-195.32" font-family="Times,serif" font-size="14.00">q9:0.0</text>
</g>
<!-- q5:0.0&#45;&gt;q9:0.0 -->
<g id="edge5" class="edge">
<title>q5:0.0&#45;&gt;q9:0.0</title>
<path fill="none" stroke="black" d="M767.08,-171.88C806.44,-177.59 866.34,-186.28 909.11,-192.49"/>
<polygon fill="black" stroke="black" points="908.52,-195.94 918.92,-193.91 909.53,-189.01 908.52,-195.94"/>
<text text-anchor="middle" x="843.7" y="-193.94" font-family="Times,serif" font-size="14.00">AUTH/334:1.0</text>
</g>
<!-- q4:0.0&#45;&gt;q7:0.0 -->
<g id="edge6" class="edge">
<title>q4:0.0&#45;&gt;q7:0.0</title>
<path fill="none" stroke="black" d="M765.54,-48.36C801.04,-55.26 854.8,-66.22 901.07,-77.75 905.61,-78.88 910.33,-80.12 915.03,-81.41"/>
<polygon fill="black" stroke="black" points="913.86,-84.71 924.43,-84.04 915.74,-77.97 913.86,-84.71"/>
<text text-anchor="middle" x="843.7" y="-81.95" font-family="Times,serif" font-size="14.00">MAIL/250:0.987</text>
</g>
<!-- q8:0.0 -->
<g id="node7" class="node">
<title>q8:0.0</title>
<ellipse fill="none" stroke="black" stroke-width="2" cx="961.86" cy="-26" rx="42.79" ry="18"/>
<text text-anchor="middle" x="961.86" y="-21.32" font-family="Times,serif" font-size="14.00">q8:0.0</text>
</g>
<!-- q4:0.0&#45;&gt;q8:0.0 -->
<g id="edge7" class="edge">
<title>q4:0.0&#45;&gt;q8:0.0</title>
<path fill="none" stroke="black" d="M765.66,-33.47C772.52,-32.38 779.61,-31.41 786.32,-30.75 826.71,-26.76 872.58,-25.64 907.16,-25.49"/>
<polygon fill="black" stroke="black" points="906.92,-28.99 916.92,-25.47 906.91,-21.99 906.92,-28.99"/>
<text text-anchor="middle" x="843.7" y="-34.95" font-family="Times,serif" font-size="14.00">MAIL/553:0.013</text>
</g>
<!-- q7:0.0&#45;&gt;q7:0.0 -->
<g id="edge8" class="edge">
<title>q7:0.0&#45;&gt;q7:0.0</title>
<path fill="none" stroke="black" d="M941.09,-111.66C936.48,-121.62 943.4,-131 961.86,-131 972.83,-131 979.72,-127.69 982.55,-122.92"/>
<polygon fill="black" stroke="black" points="986.05,-123.2 982.62,-113.17 979.05,-123.15 986.05,-123.2"/>
<text text-anchor="middle" x="961.86" y="-134.94" font-family="Times,serif" font-size="14.00">RCPT/250:0.634</text>
</g>
<!-- q11:0.0 -->
<g id="node8" class="node">
<title>q11:0.0</title>
<ellipse fill="none" stroke="black" stroke-width="2" cx="1217.1" cy="-72" rx="49.1" ry="18"/>
<text text-anchor="middle" x="1217.1" y="-67.33" font-family="Times,serif" font-size="14.00">q11:0.0</text>
</g>
<!-- q7:0.0&#45;&gt;q11:0.0 -->
<g id="edge9" class="edge">
<title>q7:0.0&#45;&gt;q11:0.0</title>
<path fill="none" stroke="black" d="M1004.7,-91.2C1046.4,-87.42 1110.7,-81.58 1157.5,-77.33"/>
<polygon fill="black" stroke="black" points="1157.45,-80.85 1167.09,-76.45 1156.81,-73.88 1157.45,-80.85"/>
<text text-anchor="middle" x="1080" y="-92.95" font-family="Times,serif" font-size="14.00">DATA/354:0.305</text>
</g>
<!-- q10:1.0 -->
<g id="node9" class="node">
<title>q10:1.0</title>
<ellipse fill="none" stroke="black" stroke-width="2" cx="1217.1" cy="-161" rx="49.1" ry="18"/>
<text text-anchor="middle" x="1217.1" y="-156.32" font-family="Times,serif" font-size="14.00">q10:1.0</text>
</g>
<!-- q7:0.0&#45;&gt;q10:1.0 -->
<g id="edge10" class="edge">
<title>q7:0.0&#45;&gt;q10:1.0</title>
<path fill="none" stroke="black" d="M999.42,-104.53C1042.9,-115.85 1115.7,-134.83 1164.8,-147.62"/>
<polygon fill="black" stroke="black" points="1163.77,-150.97 1174.33,-150.11 1165.54,-144.2 1163.77,-150.97"/>
<text text-anchor="middle" x="1080" y="-142.94" font-family="Times,serif" font-size="14.00">DATA/550:0.061</text>
</g>
<!-- q13:0.667 -->
<g id="node10" class="node">
<title>q13:0.667</title>
<ellipse fill="none" stroke="black" stroke-width="2" cx="1217.1" cy="-215" rx="61.73" ry="18"/>
<text text-anchor="middle" x="1217.1" y="-210.32" font-family="Times,serif" font-size="14.00">q13:0.667</text>
</g>
<!-- q9:0.0&#45;&gt;q13:0.667 -->
<g id="edge11" class="edge">
<title>q9:0.0&#45;&gt;q13:0.667</title>
<path fill="none" stroke="black" d="M1005.3,-202.51C1043.1,-204.75 1099.3,-208.08 1144.1,-210.74"/>
<polygon fill="black" stroke="black" points="1143.9,-214.23 1154.09,-211.32 1144.31,-207.25 1143.9,-214.23"/>
<text text-anchor="middle" x="1080" y="-213.94" font-family="Times,serif" font-size="14.00">content/535:1.0</text>
</g>
<!-- q12:1.0 -->
<g id="node11" class="node">
<title>q12:1.0</title>
<ellipse fill="none" stroke="black" stroke-width="2" cx="1217.1" cy="-18" rx="49.1" ry="18"/>
<text text-anchor="middle" x="1217.1" y="-13.32" font-family="Times,serif" font-size="14.00">q12:1.0</text>
</g>
<!-- q8:0.0&#45;&gt;q12:1.0 -->
<g id="edge12" class="edge">
<title>q8:0.0&#45;&gt;q12:1.0</title>
<path fill="none" stroke="black" d="M1005.5,-24.65C1046.7,-23.35 1109.5,-21.37 1155.8,-19.91"/>
<polygon fill="black" stroke="black" points="1155.8,-23.41 1165.69,-19.59 1155.58,-16.41 1155.8,-23.41"/>
<text text-anchor="middle" x="1080" y="-28.95" font-family="Times,serif" font-size="14.00">RSET/250:1.0</text>
</g>
<!-- q11:0.0&#45;&gt;q11:0.0 -->
<g id="edge13" class="edge">
<title>q11:0.0&#45;&gt;q11:0.0</title>
<path fill="none" stroke="black" d="M1193.2,-88.29C1187.5,-98.39 1195.4,-108 1217.1,-108 1230,-108 1238.1,-104.61 1241.3,-99.75"/>
<polygon fill="black" stroke="black" points="1244.8,-99.71 1241.04,-89.8 1237.8,-99.89 1244.8,-99.71"/>
<text text-anchor="middle" x="1217.1" y="-111.95" font-family="Times,serif" font-size="14.00">content/λ:0.943</text>
</g>
<!-- q16:0.0 -->
<g id="node12" class="node">
<title>q16:0.0</title>
<ellipse fill="none" stroke="black" stroke-width="2" cx="1494.5" cy="-126" rx="49.1" ry="18"/>
<text text-anchor="middle" x="1494.5" y="-121.33" font-family="Times,serif" font-size="14.00">q16:0.0</text>
</g>
<!-- q11:0.0&#45;&gt;q16:0.0 -->
<g id="edge14" class="edge">
<title>q11:0.0&#45;&gt;q16:0.0</title>
<path fill="none" stroke="black" d="M1257.2,-83.2C1269.8,-86.6 1283.9,-90.18 1296.9,-93 1343.5,-103.11 1396.9,-111.9 1436.3,-117.87"/>
<polygon fill="black" stroke="black" points="1435.59,-121.3 1446,-119.33 1436.63,-114.38 1435.59,-121.3"/>
<text text-anchor="middle" x="1362.1" y="-118.95" font-family="Times,serif" font-size="14.00">content/550:0.0</text>
</g>
<!-- q15:0.0 -->
<g id="node13" class="node">
<title>q15:0.0</title>
<ellipse fill="none" stroke="black" stroke-width="2" cx="1494.5" cy="-72" rx="49.1" ry="18"/>
<text text-anchor="middle" x="1494.5" y="-67.33" font-family="Times,serif" font-size="14.00">q15:0.0</text>
</g>
<!-- q11:0.0&#45;&gt;q15:0.0 -->
<g id="edge15" class="edge">
<title>q11:0.0&#45;&gt;q15:0.0</title>
<path fill="none" stroke="black" d="M1267,-72C1313.5,-72 1383.4,-72 1433.3,-72"/>
<polygon fill="black" stroke="black" points="1433.09,-75.5 1443.09,-72 1433.09,-68.5 1433.09,-75.5"/>
<text text-anchor="middle" x="1362.1" y="-75.95" font-family="Times,serif" font-size="14.00">content/250:0.037</text>
</g>
<!-- q14:0.0 -->
<g id="node14" class="node">
<title>q14:0.0</title>
<ellipse fill="none" stroke="black" stroke-width="2" cx="1494.5" cy="-18" rx="49.1" ry="18"/>
<text text-anchor="middle" x="1494.5" y="-13.32" font-family="Times,serif" font-size="14.00">q14:0.0</text>
</g>
<!-- q11:0.0&#45;&gt;q14:0.0 -->
<g id="edge16" class="edge">
<title>q11:0.0&#45;&gt;q14:0.0</title>
<path fill="none" stroke="black" d="M1257.2,-60.64C1269.8,-57.2 1283.9,-53.58 1296.9,-50.75 1343.5,-40.6 1396.9,-31.88 1436.3,-26"/>
<polygon fill="black" stroke="black" points="1436.62,-29.49 1446,-24.56 1435.6,-22.57 1436.62,-29.49"/>
<text text-anchor="middle" x="1362.1" y="-54.95" font-family="Times,serif" font-size="14.00">content/554:0.019</text>
</g>
<!-- q17:1.0 -->
<g id="node15" class="node">
<title>q17:1.0</title>
<ellipse fill="none" stroke="black" stroke-width="2" cx="1494.5" cy="-215" rx="49.1" ry="18"/>
<text text-anchor="middle" x="1494.5" y="-210.32" font-family="Times,serif" font-size="14.00">q17:1.0</text>
</g>
<!-- q13:0.667&#45;&gt;q17:1.0 -->
<g id="edge17" class="edge">
<title>q13:0.667&#45;&gt;q17:1.0</title>
<path fill="none" stroke="black" d="M1279.6,-215C1325.4,-215 1387.6,-215 1433.1,-215"/>
<polygon fill="black" stroke="black" points="1433.09,-218.5 1443.09,-215 1433.09,-211.5 1433.09,-218.5"/>
<text text-anchor="middle" x="1362.1" y="-218.94" font-family="Times,serif" font-size="14.00">λ/451:0.333</text>
</g>
<!-- q20:1.0 -->
<g id="node16" class="node">
<title>q20:1.0</title>
<ellipse fill="none" stroke="black" stroke-width="2" cx="1726.9" cy="-126" rx="49.1" ry="18"/>
<text text-anchor="middle" x="1726.9" y="-121.33" font-family="Times,serif" font-size="14.00">q20:1.0</text>
</g>
<!-- q16:0.0&#45;&gt;q20:1.0 -->
<g id="edge18" class="edge">
<title>q16:0.0&#45;&gt;q20:1.0</title>
<path fill="none" stroke="black" d="M1544.3,-126C1579.8,-126 1627.9,-126 1665.7,-126"/>
<polygon fill="black" stroke="black" points="1665.59,-129.5 1675.59,-126 1665.59,-122.5 1665.59,-129.5"/>
<text text-anchor="middle" x="1610.7" y="-129.94" font-family="Times,serif" font-size="14.00">RSET/250:1.0</text>
</g>
<!-- q19:1.0 -->
<g id="node17" class="node">
<title>q19:1.0</title>
<ellipse fill="none" stroke="black" stroke-width="2" cx="1726.9" cy="-72" rx="49.1" ry="18"/>
<text text-anchor="middle" x="1726.9" y="-67.33" font-family="Times,serif" font-size="14.00">q19:1.0</text>
</g>
<!-- q15:0.0&#45;&gt;q19:1.0 -->
<g id="edge19" class="edge">
<title>q15:0.0&#45;&gt;q19:1.0</title>
<path fill="none" stroke="black" d="M1544.3,-72C1579.8,-72 1627.9,-72 1665.7,-72"/>
<polygon fill="black" stroke="black" points="1665.59,-75.5 1675.59,-72 1665.59,-68.5 1665.59,-75.5"/>
<text text-anchor="middle" x="1610.7" y="-75.95" font-family="Times,serif" font-size="14.00">QUIT/221:1.0</text>
</g>
<!-- q18:1.0 -->
<g id="node18" class="node">
<title>q18:1.0</title>
<ellipse fill="none" stroke="black" stroke-width="2" cx="1726.9" cy="-18" rx="49.1" ry="18"/>
<text text-anchor="middle" x="1726.9" y="-13.32" font-family="Times,serif" font-size="14.00">q18:1.0</text>
</g>
<!-- q14:0.0&#45;&gt;q18:1.0 -->
<g id="edge20" class="edge">
<title>q14:0.0&#45;&gt;q18:1.0</title>
<path fill="none" stroke="black" d="M1544.3,-18C1579.8,-18 1627.9,-18 1665.7,-18"/>
<polygon fill="black" stroke="black" points="1665.59,-21.5 1675.59,-18 1665.59,-14.5 1665.59,-21.5"/>
<text text-anchor="middle" x="1610.7" y="-21.95" font-family="Times,serif" font-size="14.00">RSET/250:1.0</text>
</g>
<!-- q1:0.0 -->
<g id="node19" class="node">
<title>q1:0.0</title>
<ellipse fill="none" stroke="black" stroke-width="2" cx="243.87" cy="-75" rx="42.79" ry="18"/>
<text text-anchor="middle" x="243.87" y="-70.33" font-family="Times,serif" font-size="14.00">q1:0.0</text>
</g>
<!-- q1:0.0&#45;&gt;q3:0.0 -->
<g id="edge21" class="edge">
<title>q1:0.0&#45;&gt;q3:0.0</title>
<path fill="none" stroke="black" d="M285.66,-80.64C326.01,-86.21 387.94,-94.77 431.79,-100.83"/>
<polygon fill="black" stroke="black" points="431.19,-104.28 441.58,-102.18 432.15,-97.35 431.19,-104.28"/>
<text text-anchor="middle" x="364.29" y="-102.95" font-family="Times,serif" font-size="14.00">EHLO/250:0.992</text>
</g>
<!-- q2:0.0 -->
<g id="node20" class="node">
<title>q2:0.0</title>
<ellipse fill="none" stroke="black" stroke-width="2" cx="484.7" cy="-48" rx="42.79" ry="18"/>
<text text-anchor="middle" x="484.7" y="-43.33" font-family="Times,serif" font-size="14.00">q2:0.0</text>
</g>
<!-- q1:0.0&#45;&gt;q2:0.0 -->
<g id="edge22" class="edge">
<title>q1:0.0&#45;&gt;q2:0.0</title>
<path fill="none" stroke="black" d="M279.7,-64.24C287.82,-62.1 296.49,-60.09 304.66,-58.75 346.39,-51.9 394.23,-49.29 429.95,-48.35"/>
<polygon fill="black" stroke="black" points="429.67,-51.86 439.59,-48.14 429.51,-44.86 429.67,-51.86"/>
<text text-anchor="middle" x="364.29" y="-62.95" font-family="Times,serif" font-size="14.00">EHLO/λ:0.008</text>
</g>
<!-- q2:0.0&#45;&gt;q4:0.0 -->
<g id="edge23" class="edge">
<title>q2:0.0&#45;&gt;q4:0.0</title>
<path fill="none" stroke="black" d="M523.16,-39.12C530.52,-37.72 538.22,-36.49 545.49,-35.75 587.93,-31.45 636.28,-33.26 672.04,-35.88"/>
<polygon fill="black" stroke="black" points="671.43,-39.34 681.67,-36.63 671.97,-32.36 671.43,-39.34"/>
<text text-anchor="middle" x="605.12" y="-39.95" font-family="Times,serif" font-size="14.00">AUTH/235:1.0</text>
</g>
<!-- q0:0.0 -->
<g id="node21" class="node">
<title>q0:0.0</title>
<ellipse fill="none" stroke="black" stroke-width="2" cx="50.79" cy="-75" rx="46.79" ry="46.79"/>
<ellipse fill="none" stroke="black" stroke-width="2" cx="50.79" cy="-75" rx="50.79" ry="50.79"/>
<text text-anchor="middle" x="50.79" y="-70.33" font-family="Times,serif" font-size="14.00">q0:0.0</text>
</g>
<!-- q0:0.0&#45;&gt;q1:0.0 -->
<g id="edge24" class="edge">
<title>q0:0.0&#45;&gt;q1:0.0</title>
<path fill="none" stroke="black" d="M98.53,-75C125.82,-75 160.37,-75 188.82,-75"/>
<polygon fill="black" stroke="black" points="188.69,-78.5 198.69,-75 188.69,-71.5 188.69,-78.5"/>
<text text-anchor="middle" x="149.33" y="-78.95" font-family="Times,serif" font-size="14.00">λ/220:1.0</text>
</g>
</g>
</svg>
