<?xml version="1.0" encoding="UTF-8" standalone="no"?>
<!DOCTYPE svg PUBLIC "-//W3C//DTD SVG 1.1//EN"
 "http://www.w3.org/Graphics/SVG/1.1/DTD/svg11.dtd">
<!-- Generated by graphviz version 12.0.0 (20240803.0821)
 -->
<!-- Pages: 1 -->
<svg width="7196pt" height="377pt"
 viewBox="0.00 0.00 7195.90 377.28" xmlns="http://www.w3.org/2000/svg" xmlns:xlink="http://www.w3.org/1999/xlink">
<g id="graph0" class="graph" transform="scale(1 1) rotate(0) translate(4 373.28)">
<polygon fill="white" stroke="none" points="-4,4 -4,-373.28 7191.9,-373.28 7191.9,4 -4,4"/>
<!-- q11:0.667 -->
<g id="node1" class="node">
<title>q11:0.667</title>
<ellipse fill="none" stroke="black" stroke-width="2" cx="3335.9" cy="-241.07" rx="61.73" ry="18"/>
<text text-anchor="middle" x="3335.9" y="-236.4" font-family="Times,serif" font-size="14.00">q11:0.667</text>
</g>
<!-- q14:1.0 -->
<g id="node2" class="node">
<title>q14:1.0</title>
<ellipse fill="none" stroke="black" stroke-width="2" cx="4290.1" cy="-241.07" rx="49.1" ry="18"/>
<text text-anchor="middle" x="4290.1" y="-236.4" font-family="Times,serif" font-size="14.00">q14:1.0</text>
</g>
<!-- q11:0.667&#45;&gt;q14:1.0 -->
<g id="edge1" class="edge">
<title>q11:0.667&#45;&gt;q14:1.0</title>
<path fill="none" stroke="black" d="M3398.3,-241.07C3570.6,-241.07 4057.8,-241.07 4228.8,-241.07"/>
<polygon fill="black" stroke="black" points="4228.59,-244.57 4238.59,-241.07 4228.59,-237.57 4228.59,-244.57"/>
<text text-anchor="middle" x="3762.9" y="-262.27" font-family="Times,serif" font-size="14.00">λ/451:0.333</text>
<text text-anchor="middle" x="3762.9" y="-245.02" font-family="Times,serif" font-size="14.00">b0 = Timeout.</text>
</g>
<!-- q4:0.0 -->
<g id="node3" class="node">
<title>q4:0.0</title>
<ellipse fill="none" stroke="black" stroke-width="2" cx="1657.8" cy="-110.07" rx="42.79" ry="18"/>
<text text-anchor="middle" x="1657.8" y="-105.4" font-family="Times,serif" font-size="14.00">q4:0.0</text>
</g>
<!-- q7:0.0 -->
<g id="node4" class="node">
<title>q7:0.0</title>
<ellipse fill="none" stroke="black" stroke-width="2" cx="2500.9" cy="-148.07" rx="42.79" ry="18"/>
<text text-anchor="middle" x="2500.9" y="-143.4" font-family="Times,serif" font-size="14.00">q7:0.0</text>
</g>
<!-- q4:0.0&#45;&gt;q7:0.0 -->
<g id="edge2" class="edge">
<title>q4:0.0&#45;&gt;q7:0.0</title>
<path fill="none" stroke="black" d="M1693.6,-120.85C1701.7,-122.95 1710.4,-124.88 1718.6,-126.07 1989.7,-165.61 2319.3,-156.46 2446.3,-150.83"/>
<polygon fill="black" stroke="black" points="2446.26,-154.34 2456.09,-150.39 2445.94,-147.35 2446.26,-154.34"/>
<text text-anchor="middle" x="2079.3" y="-193.53" font-family="Times,serif" font-size="14.00">MAIL/250:0.987</text>
<text text-anchor="middle" x="2079.3" y="-176.28" font-family="Times,serif" font-size="14.00">a0 in {&#39;FROM:&lt;Az6161@sina.com&gt;&#39;, &#39;FROM:&lt;Az6161@126.com&gt;&#39;}</text>
<text text-anchor="middle" x="2079.3" y="-159.03" font-family="Times,serif" font-size="14.00">b0 in {&#39;Mail OK&#39;, &#39;ok&#39;}</text>
</g>
<!-- q6:0.0 -->
<g id="node5" class="node">
<title>q6:0.0</title>
<ellipse fill="none" stroke="black" stroke-width="2" cx="2500.9" cy="-73.07" rx="42.79" ry="18"/>
<text text-anchor="middle" x="2500.9" y="-68.4" font-family="Times,serif" font-size="14.00">q6:0.0</text>
</g>
<!-- q4:0.0&#45;&gt;q6:0.0 -->
<g id="edge3" class="edge">
<title>q4:0.0&#45;&gt;q6:0.0</title>
<path fill="none" stroke="black" d="M1679.6,-93.8C1690.6,-86.29 1704.6,-78.2 1718.6,-74.32 1985.4,-0.4 2323.5,-43.57 2449.5,-64.1"/>
<polygon fill="black" stroke="black" points="2448.77,-67.53 2459.21,-65.71 2449.91,-60.62 2448.77,-67.53"/>
<text text-anchor="middle" x="2079.3" y="-113.53" font-family="Times,serif" font-size="14.00">MAIL/553:0.013</text>
<text text-anchor="middle" x="2079.3" y="-96.28" font-family="Times,serif" font-size="14.00">a0 in {&#39;FROM:&lt;Az_6161@126.com&gt;&#39;, &#39;FROM:&lt;Az_6161@sina.com&gt;&#39;, &#39;FROM:&lt;Az6161@163.com&gt;&#39;}</text>
<text text-anchor="middle" x="2079.3" y="-79.03" font-family="Times,serif" font-size="14.00">b0 in {&#39;Mail from must equal authorized user&#39;, &#39;Envolope sender mismatch with login user..&#39;}</text>
</g>
<!-- q10:0.0 -->
<g id="node6" class="node">
<title>q10:0.0</title>
<ellipse fill="none" stroke="black" stroke-width="2" cx="3335.9" cy="-148.07" rx="49.1" ry="18"/>
<text text-anchor="middle" x="3335.9" y="-143.4" font-family="Times,serif" font-size="14.00">q10:0.0</text>
</g>
<!-- q7:0.0&#45;&gt;q10:0.0 -->
<g id="edge4" class="edge">
<title>q7:0.0&#45;&gt;q10:0.0</title>
<path fill="none" stroke="black" d="M2544.6,-148.07C2682.2,-148.07 3114.3,-148.07 3274.4,-148.07"/>
<polygon fill="black" stroke="black" points="3274.39,-151.57 3284.39,-148.07 3274.39,-144.57 3274.39,-151.57"/>
<text text-anchor="middle" x="2908.9" y="-186.53" font-family="Times,serif" font-size="14.00">RCPT/250:1.0</text>
<text text-anchor="middle" x="2908.9" y="-169.28" font-family="Times,serif" font-size="14.00">a0 in {&#39;TO:&lt;574702257@qq.com&gt;&#39;, &#39;TO:&lt;1542110793@qq.com&gt;&#39;, &#39;TO:&lt;574702256@qq.com&gt;&#39;}</text>
<text text-anchor="middle" x="2908.9" y="-152.03" font-family="Times,serif" font-size="14.00">b0 in {&#39;Mail OK&#39;, &#39;ok&#39;}</text>
</g>
<!-- q9:1.0 -->
<g id="node7" class="node">
<title>q9:1.0</title>
<ellipse fill="none" stroke="black" stroke-width="2" cx="3335.9" cy="-73.07" rx="42.79" ry="18"/>
<text text-anchor="middle" x="3335.9" y="-68.4" font-family="Times,serif" font-size="14.00">q9:1.0</text>
</g>
<!-- q6:0.0&#45;&gt;q9:1.0 -->
<g id="edge5" class="edge">
<title>q6:0.0&#45;&gt;q9:1.0</title>
<path fill="none" stroke="black" d="M2544.6,-73.07C2684.2,-73.07 3126.7,-73.07 3281.1,-73.07"/>
<polygon fill="black" stroke="black" points="3281.09,-76.57 3291.09,-73.07 3281.09,-69.57 3281.09,-76.57"/>
<text text-anchor="middle" x="2908.9" y="-94.27" font-family="Times,serif" font-size="14.00">RSET/250:1.0</text>
<text text-anchor="middle" x="2908.9" y="-77.02" font-family="Times,serif" font-size="14.00">b0 in {&#39;flushed&#39;, &#39;OK&#39;}</text>
</g>
<!-- q13:0.0 -->
<g id="node8" class="node">
<title>q13:0.0</title>
<ellipse fill="none" stroke="black" stroke-width="2" cx="5023.2" cy="-134.07" rx="49.1" ry="18"/>
<text text-anchor="middle" x="5023.2" y="-129.4" font-family="Times,serif" font-size="14.00">q13:0.0</text>
</g>
<!-- q10:0.0&#45;&gt;q13:0.0 -->
<g id="edge6" class="edge">
<title>q10:0.0&#45;&gt;q13:0.0</title>
<path fill="none" stroke="black" d="M3385.4,-150.85C3581.8,-161.53 4337.7,-196.75 4956.1,-145.07 4959.7,-144.77 4963.4,-144.38 4967.1,-143.93"/>
<polygon fill="black" stroke="black" points="4967.36,-147.43 4976.8,-142.62 4966.42,-140.49 4967.36,-147.43"/>
<text text-anchor="middle" x="4290.1" y="-193.27" font-family="Times,serif" font-size="14.00">DATA/354:0.297</text>
<text text-anchor="middle" x="4290.1" y="-176.02" font-family="Times,serif" font-size="14.00">b0 = End data with &lt;CR&gt;&lt;LF&gt;.&lt;CR&gt;&lt;LF&gt;</text>
</g>
<!-- q12:0.0 -->
<g id="node9" class="node">
<title>q12:0.0</title>
<ellipse fill="none" stroke="black" stroke-width="2" cx="4290.1" cy="-92.07" rx="49.1" ry="18"/>
<text text-anchor="middle" x="4290.1" y="-87.4" font-family="Times,serif" font-size="14.00">q12:0.0</text>
</g>
<!-- q10:0.0&#45;&gt;q12:0.0 -->
<g id="edge7" class="edge">
<title>q10:0.0&#45;&gt;q12:0.0</title>
<path fill="none" stroke="black" d="M3354.8,-130.74C3369.8,-117.62 3392.3,-100.66 3415.6,-93.32 3712.5,0 4094.8,-55.5 4234.7,-81.19"/>
<polygon fill="black" stroke="black" points="4233.94,-84.61 4244.41,-83 4235.22,-77.73 4233.94,-84.61"/>
<text text-anchor="middle" x="3762.9" y="-132.53" font-family="Times,serif" font-size="14.00">RCPT/250:0.703</text>
<text text-anchor="middle" x="3762.9" y="-115.28" font-family="Times,serif" font-size="14.00">a0 in {&#39;TO:&lt;574702257@qq.com&gt;&#39;, &#39;TO:&lt;1542110793@qq.com&gt;&#39;, &#39;TO:&lt;574702256@qq.com&gt;&#39;}</text>
<text text-anchor="middle" x="3762.9" y="-98.03" font-family="Times,serif" font-size="14.00">b0 in {&#39;Mail OK&#39;, &#39;ok&#39;}</text>
</g>
<!-- q17:0.0 -->
<g id="node10" class="node">
<title>q17:0.0</title>
<ellipse fill="none" stroke="black" stroke-width="2" cx="5382.4" cy="-223.07" rx="49.1" ry="18"/>
<text text-anchor="middle" x="5382.4" y="-218.4" font-family="Times,serif" font-size="14.00">q17:0.0</text>
</g>
<!-- q13:0.0&#45;&gt;q17:0.0 -->
<g id="edge8" class="edge">
<title>q13:0.0&#45;&gt;q17:0.0</title>
<path fill="none" stroke="black" d="M5034.1,-152.3C5045.1,-170.59 5064.8,-197.75 5090.3,-210.07 5165.6,-246.44 5265.1,-241.25 5326.1,-233.02"/>
<polygon fill="black" stroke="black" points="5326.5,-236.5 5335.9,-231.62 5325.51,-229.57 5326.5,-236.5"/>
<text text-anchor="middle" x="5202.8" y="-259.27" font-family="Times,serif" font-size="14.00">content/λ:0.92</text>
<text text-anchor="middle" x="5202.8" y="-242.02" font-family="Times,serif" font-size="14.00">a0 = b0</text>
</g>
<!-- q18:0.0 -->
<g id="node11" class="node">
<title>q18:0.0</title>
<ellipse fill="none" stroke="black" stroke-width="2" cx="5382.4" cy="-134.07" rx="49.1" ry="18"/>
<text text-anchor="middle" x="5382.4" y="-129.4" font-family="Times,serif" font-size="14.00">q18:0.0</text>
</g>
<!-- q13:0.0&#45;&gt;q18:0.0 -->
<g id="edge9" class="edge">
<title>q13:0.0&#45;&gt;q18:0.0</title>
<path fill="none" stroke="black" d="M5073.1,-134.07C5137.8,-134.07 5251.5,-134.07 5321.3,-134.07"/>
<polygon fill="black" stroke="black" points="5320.99,-137.57 5330.99,-134.07 5320.99,-130.57 5320.99,-137.57"/>
<text text-anchor="middle" x="5202.8" y="-138.02" font-family="Times,serif" font-size="14.00">content/250:0.052</text>
</g>
<!-- q19:0.0 -->
<g id="node12" class="node">
<title>q19:0.0</title>
<ellipse fill="none" stroke="black" stroke-width="2" cx="5382.4" cy="-76.07" rx="49.1" ry="18"/>
<text text-anchor="middle" x="5382.4" y="-71.4" font-family="Times,serif" font-size="14.00">q19:0.0</text>
</g>
<!-- q13:0.0&#45;&gt;q19:0.0 -->
<g id="edge10" class="edge">
<title>q13:0.0&#45;&gt;q19:0.0</title>
<path fill="none" stroke="black" d="M5046.9,-117.37C5059.1,-109.28 5074.8,-100.31 5090.3,-95.57 5167.7,-71.87 5262,-70.16 5321.8,-72.23"/>
<polygon fill="black" stroke="black" points="5321.66,-75.72 5331.79,-72.62 5321.93,-68.73 5321.66,-75.72"/>
<text text-anchor="middle" x="5202.8" y="-117.27" font-family="Times,serif" font-size="14.00">content/550:0.001</text>
<text text-anchor="middle" x="5202.8" y="-100.02" font-family="Times,serif" font-size="14.00">b0 = Sender frequency limited.</text>
</g>
<!-- q16:0.0 -->
<g id="node13" class="node">
<title>q16:0.0</title>
<ellipse fill="none" stroke="black" stroke-width="2" cx="5382.4" cy="-20.07" rx="49.1" ry="18"/>
<text text-anchor="middle" x="5382.4" y="-15.4" font-family="Times,serif" font-size="14.00">q16:0.0</text>
</g>
<!-- q13:0.0&#45;&gt;q16:0.0 -->
<g id="edge11" class="edge">
<title>q13:0.0&#45;&gt;q16:0.0</title>
<path fill="none" stroke="black" d="M5040.4,-116.39C5050,-105.6 5062.3,-91.37 5072.3,-78.07 5081.1,-66.49 5077.9,-58.36 5090.3,-50.82 5162,-7.27 5262.2,-7.09 5324.4,-12.46"/>
<polygon fill="black" stroke="black" points="5323.71,-15.91 5333.99,-13.37 5324.37,-8.94 5323.71,-15.91"/>
<text text-anchor="middle" x="5202.8" y="-55.02" font-family="Times,serif" font-size="14.00">content/554:0.028</text>
</g>
<!-- q12:0.0&#45;&gt;q13:0.0 -->
<g id="edge12" class="edge">
<title>q12:0.0&#45;&gt;q13:0.0</title>
<path fill="none" stroke="black" d="M4340,-91.45C4472.8,-90.09 4838,-88.51 4956.1,-110.57 4963.6,-111.97 4971.4,-114.08 4978.8,-116.48"/>
<polygon fill="black" stroke="black" points="4977.47,-119.73 4988.07,-119.66 4979.74,-113.11 4977.47,-119.73"/>
<text text-anchor="middle" x="4713.1" y="-132.27" font-family="Times,serif" font-size="14.00">DATA/354:0.733</text>
<text text-anchor="middle" x="4713.1" y="-115.02" font-family="Times,serif" font-size="14.00">b0 = End data with &lt;CR&gt;&lt;LF&gt;.&lt;CR&gt;&lt;LF&gt;</text>
</g>
<!-- q15:1.0 -->
<g id="node14" class="node">
<title>q15:1.0</title>
<ellipse fill="none" stroke="black" stroke-width="2" cx="5023.2" cy="-51.07" rx="49.1" ry="18"/>
<text text-anchor="middle" x="5023.2" y="-46.4" font-family="Times,serif" font-size="14.00">q15:1.0</text>
</g>
<!-- q12:0.0&#45;&gt;q15:1.0 -->
<g id="edge13" class="edge">
<title>q12:0.0&#45;&gt;q15:1.0</title>
<path fill="none" stroke="black" d="M4330.2,-80.91C4366.2,-71.24 4421.2,-57.97 4470.1,-52.57 4648.5,-32.87 4861.4,-41.19 4962.8,-47.08"/>
<polygon fill="black" stroke="black" points="4962.3,-50.56 4972.49,-47.66 4962.71,-43.57 4962.3,-50.56"/>
<text text-anchor="middle" x="4713.1" y="-74.27" font-family="Times,serif" font-size="14.00">DATA/550:0.267</text>
<text text-anchor="middle" x="4713.1" y="-57.02" font-family="Times,serif" font-size="14.00">b0 in {&#39;too many message send today.&#39;, &#39;Sender frequency limited.&#39;}</text>
</g>
<!-- q17:0.0&#45;&gt;q13:0.0 -->
<g id="edge19" class="edge">
<title>q17:0.0&#45;&gt;q13:0.0</title>
<path fill="none" stroke="black" d="M5363,-205.81C5350.6,-195.19 5333.2,-182.35 5315.3,-175.57 5221.3,-139.81 5189.1,-170.56 5090.3,-152.07 5085,-151.07 5079.4,-149.85 5073.9,-148.53"/>
<polygon fill="black" stroke="black" points="5074.82,-145.16 5064.27,-146.07 5073.09,-151.94 5074.82,-145.16"/>
<text text-anchor="middle" x="5202.8" y="-196.27" font-family="Times,serif" font-size="14.00">content/λ:0.971</text>
<text text-anchor="middle" x="5202.8" y="-179.02" font-family="Times,serif" font-size="14.00">a0 = b0</text>
</g>
<!-- q21:0.0 -->
<g id="node18" class="node">
<title>q21:0.0</title>
<ellipse fill="none" stroke="black" stroke-width="2" cx="6906.4" cy="-200.07" rx="49.1" ry="18"/>
<text text-anchor="middle" x="6906.4" y="-195.4" font-family="Times,serif" font-size="14.00">q21:0.0</text>
</g>
<!-- q17:0.0&#45;&gt;q21:0.0 -->
<g id="edge20" class="edge">
<title>q17:0.0&#45;&gt;q21:0.0</title>
<path fill="none" stroke="black" d="M5426.3,-213.99C5434,-212.69 5442,-211.54 5449.5,-210.82 5989.2,-159.23 6646.5,-186.54 6845.5,-196.75"/>
<polygon fill="black" stroke="black" points="6845.12,-200.24 6855.29,-197.26 6845.48,-193.25 6845.12,-200.24"/>
<text text-anchor="middle" x="6144.4" y="-214.02" font-family="Times,serif" font-size="14.00">content/250:0.029</text>
</g>
<!-- q22:0.0 -->
<g id="node20" class="node">
<title>q22:0.0</title>
<ellipse fill="none" stroke="black" stroke-width="2" cx="6906.4" cy="-254.07" rx="49.1" ry="18"/>
<text text-anchor="middle" x="6906.4" y="-249.4" font-family="Times,serif" font-size="14.00">q22:0.0</text>
</g>
<!-- q17:0.0&#45;&gt;q22:0.0 -->
<g id="edge21" class="edge">
<title>q17:0.0&#45;&gt;q22:0.0</title>
<path fill="none" stroke="black" d="M5431.4,-227.03C5437.5,-227.43 5443.7,-227.8 5449.5,-228.07 5990.5,-253.34 6645.6,-254.52 6845,-254.24"/>
<polygon fill="black" stroke="black" points="6844.79,-257.74 6854.79,-254.23 6844.78,-250.74 6844.79,-257.74"/>
<text text-anchor="middle" x="6144.4" y="-275.27" font-family="Times,serif" font-size="14.00">content/554:0.001</text>
<text text-anchor="middle" x="6144.4" y="-258.02" font-family="Times,serif" font-size="14.00">b0 = DT:SPM 126 smtp10 NuRpCgAXIXf+MYBfJr+Adw&#45;&#45;.17258S2 1602236927 please see http://mail.163.com/help/help_spam_16.htm?ip=221.212.176.101&amp;hostid=smtp10&amp;time=1602236927</text>
</g>
<!-- q23:1.0 -->
<g id="node22" class="node">
<title>q23:1.0</title>
<ellipse fill="none" stroke="black" stroke-width="2" cx="6906.4" cy="-134.07" rx="49.1" ry="18"/>
<text text-anchor="middle" x="6906.4" y="-129.4" font-family="Times,serif" font-size="14.00">q23:1.0</text>
</g>
<!-- q18:0.0&#45;&gt;q23:1.0 -->
<g id="edge23" class="edge">
<title>q18:0.0&#45;&gt;q23:1.0</title>
<path fill="none" stroke="black" d="M5432.3,-134.07C5658,-134.07 6597.8,-134.07 6845.4,-134.07"/>
<polygon fill="black" stroke="black" points="6845.09,-137.57 6855.09,-134.07 6845.09,-130.57 6845.09,-137.57"/>
<text text-anchor="middle" x="6144.4" y="-138.02" font-family="Times,serif" font-size="14.00">QUIT/221:1.0</text>
</g>
<!-- q24:1.0 -->
<g id="node23" class="node">
<title>q24:1.0</title>
<ellipse fill="none" stroke="black" stroke-width="2" cx="6906.4" cy="-76.07" rx="49.1" ry="18"/>
<text text-anchor="middle" x="6906.4" y="-71.4" font-family="Times,serif" font-size="14.00">q24:1.0</text>
</g>
<!-- q19:0.0&#45;&gt;q24:1.0 -->
<g id="edge24" class="edge">
<title>q19:0.0&#45;&gt;q24:1.0</title>
<path fill="none" stroke="black" d="M5432.3,-76.07C5658,-76.07 6597.8,-76.07 6845.4,-76.07"/>
<polygon fill="black" stroke="black" points="6845.09,-79.57 6855.09,-76.07 6845.09,-72.57 6845.09,-79.57"/>
<text text-anchor="middle" x="6144.4" y="-97.27" font-family="Times,serif" font-size="14.00">RSET/250:1.0</text>
<text text-anchor="middle" x="6144.4" y="-80.02" font-family="Times,serif" font-size="14.00">a0 = b0</text>
</g>
<!-- q20:1.0 -->
<g id="node24" class="node">
<title>q20:1.0</title>
<ellipse fill="none" stroke="black" stroke-width="2" cx="6906.4" cy="-18.07" rx="49.1" ry="18"/>
<text text-anchor="middle" x="6906.4" y="-13.4" font-family="Times,serif" font-size="14.00">q20:1.0</text>
</g>
<!-- q16:0.0&#45;&gt;q20:1.0 -->
<g id="edge25" class="edge">
<title>q16:0.0&#45;&gt;q20:1.0</title>
<path fill="none" stroke="black" d="M5432.3,-20.01C5658,-19.71 6597.8,-18.48 6845.4,-18.15"/>
<polygon fill="black" stroke="black" points="6845.09,-21.65 6855.09,-18.14 6845.08,-14.65 6845.09,-21.65"/>
<text text-anchor="middle" x="6144.4" y="-41.27" font-family="Times,serif" font-size="14.00">RSET/250:1.0</text>
<text text-anchor="middle" x="6144.4" y="-24.02" font-family="Times,serif" font-size="14.00">b0 = OK</text>
</g>
<!-- q3:0.0 -->
<g id="node15" class="node">
<title>q3:0.0</title>
<ellipse fill="none" stroke="black" stroke-width="2" cx="484.7" cy="-166.07" rx="42.79" ry="18"/>
<text text-anchor="middle" x="484.7" y="-161.4" font-family="Times,serif" font-size="14.00">q3:0.0</text>
</g>
<!-- q3:0.0&#45;&gt;q4:0.0 -->
<g id="edge14" class="edge">
<title>q3:0.0&#45;&gt;q4:0.0</title>
<path fill="none" stroke="black" d="M528.34,-165.81C725.87,-164.55 1544.7,-158.46 1597,-144.07 1606.6,-141.43 1616.3,-136.9 1625,-132"/>
<polygon fill="black" stroke="black" points="1626.64,-135.1 1633.4,-126.94 1623.03,-129.1 1626.64,-135.1"/>
<text text-anchor="middle" x="1071.2" y="-203.53" font-family="Times,serif" font-size="14.00">AUTH/235:0.95</text>
<text text-anchor="middle" x="1071.2" y="-186.28" font-family="Times,serif" font-size="14.00">a0 in {&#39;PLAIN AEF6NjE2MUAxMjYuY29tAE1VUVNBT1NUWElURkpDVUU=&#39;, &#39;PLAIN AEF6NjE2MUBzaW5hLmNvbQA2ZmRiMjVjZmNjODYyZWZj&#39;}</text>
<text text-anchor="middle" x="1071.2" y="-169.03" font-family="Times,serif" font-size="14.00">b0 in {&#39;Authentication successful&#39;, &#39;OK Authenticated&#39;}</text>
</g>
<!-- q5:0.0 -->
<g id="node16" class="node">
<title>q5:0.0</title>
<ellipse fill="none" stroke="black" stroke-width="2" cx="1657.8" cy="-241.07" rx="42.79" ry="18"/>
<text text-anchor="middle" x="1657.8" y="-236.4" font-family="Times,serif" font-size="14.00">q5:0.0</text>
</g>
<!-- q3:0.0&#45;&gt;q5:0.0 -->
<g id="edge15" class="edge">
<title>q3:0.0&#45;&gt;q5:0.0</title>
<path fill="none" stroke="black" d="M499.57,-183.71C510.53,-196.16 527.02,-211.85 545.49,-219.07 929.88,-369.28 1447.6,-283.87 1607.6,-251.68"/>
<polygon fill="black" stroke="black" points="1607.92,-255.19 1617.02,-249.76 1606.52,-248.33 1607.92,-255.19"/>
<text text-anchor="middle" x="1071.2" y="-326.27" font-family="Times,serif" font-size="14.00">AUTH/535:0.05</text>
<text text-anchor="middle" x="1071.2" y="-309.02" font-family="Times,serif" font-size="14.00">b0 in {&#39;5.7.8 authentication failed&#39;, &#39;Error: authentication failed&#39;}</text>
</g>
<!-- q8:0.0 -->
<g id="node17" class="node">
<title>q8:0.0</title>
<ellipse fill="none" stroke="black" stroke-width="2" cx="2500.9" cy="-241.07" rx="42.79" ry="18"/>
<text text-anchor="middle" x="2500.9" y="-236.4" font-family="Times,serif" font-size="14.00">q8:0.0</text>
</g>
<!-- q5:0.0&#45;&gt;q8:0.0 -->
<g id="edge16" class="edge">
<title>q5:0.0&#45;&gt;q8:0.0</title>
<path fill="none" stroke="black" d="M1701.4,-241.07C1841.9,-241.07 2290.6,-241.07 2446.2,-241.07"/>
<polygon fill="black" stroke="black" points="2445.79,-244.57 2455.79,-241.07 2445.79,-237.57 2445.79,-244.57"/>
<text text-anchor="middle" x="2079.3" y="-262.27" font-family="Times,serif" font-size="14.00">AUTH/334:1.0</text>
<text text-anchor="middle" x="2079.3" y="-245.02" font-family="Times,serif" font-size="14.00">b0 = UGFzc3dvcmQ6</text>
</g>
<!-- q8:0.0&#45;&gt;q11:0.667 -->
<g id="edge17" class="edge">
<title>q8:0.0&#45;&gt;q11:0.667</title>
<path fill="none" stroke="black" d="M2544.6,-241.07C2678.8,-241.07 3092.8,-241.07 3261.9,-241.07"/>
<polygon fill="black" stroke="black" points="3261.89,-244.57 3271.89,-241.07 3261.89,-237.57 3261.89,-244.57"/>
<text text-anchor="middle" x="2908.9" y="-262.27" font-family="Times,serif" font-size="14.00">content/535:1.0</text>
<text text-anchor="middle" x="2908.9" y="-245.02" font-family="Times,serif" font-size="14.00">b0 in {&#39;5.7.8 authentication failed&#39;, &#39;Error: authentication failed&#39;}</text>
</g>
<!-- q25:1.0 -->
<g id="node19" class="node">
<title>q25:1.0</title>
<ellipse fill="none" stroke="black" stroke-width="2" cx="7138.8" cy="-200.07" rx="49.1" ry="18"/>
<text text-anchor="middle" x="7138.8" y="-195.4" font-family="Times,serif" font-size="14.00">q25:1.0</text>
</g>
<!-- q21:0.0&#45;&gt;q25:1.0 -->
<g id="edge18" class="edge">
<title>q21:0.0&#45;&gt;q25:1.0</title>
<path fill="none" stroke="black" d="M6956.3,-200.07C6991.7,-200.07 7039.8,-200.07 7077.7,-200.07"/>
<polygon fill="black" stroke="black" points="7077.49,-203.57 7087.49,-200.07 7077.49,-196.57 7077.49,-203.57"/>
<text text-anchor="middle" x="7022.6" y="-204.02" font-family="Times,serif" font-size="14.00">QUIT/221:1.0</text>
</g>
<!-- q26:1.0 -->
<g id="node21" class="node">
<title>q26:1.0</title>
<ellipse fill="none" stroke="black" stroke-width="2" cx="7138.8" cy="-254.07" rx="49.1" ry="18"/>
<text text-anchor="middle" x="7138.8" y="-249.4" font-family="Times,serif" font-size="14.00">q26:1.0</text>
</g>
<!-- q22:0.0&#45;&gt;q26:1.0 -->
<g id="edge22" class="edge">
<title>q22:0.0&#45;&gt;q26:1.0</title>
<path fill="none" stroke="black" d="M6956.3,-254.07C6991.7,-254.07 7039.8,-254.07 7077.7,-254.07"/>
<polygon fill="black" stroke="black" points="7077.49,-257.57 7087.49,-254.07 7077.49,-250.57 7077.49,-257.57"/>
<text text-anchor="middle" x="7022.6" y="-275.27" font-family="Times,serif" font-size="14.00">RSET/250:1.0</text>
<text text-anchor="middle" x="7022.6" y="-258.02" font-family="Times,serif" font-size="14.00">b0 = OK</text>
</g>
<!-- q1:0.0 -->
<g id="node25" class="node">
<title>q1:0.0</title>
<ellipse fill="none" stroke="black" stroke-width="2" cx="243.87" cy="-131.07" rx="42.79" ry="18"/>
<text text-anchor="middle" x="243.87" y="-126.4" font-family="Times,serif" font-size="14.00">q1:0.0</text>
</g>
<!-- q1:0.0&#45;&gt;q3:0.0 -->
<g id="edge26" class="edge">
<title>q1:0.0&#45;&gt;q3:0.0</title>
<path fill="none" stroke="black" d="M284.06,-138.56C290.92,-139.79 297.99,-141.01 304.66,-142.07 347.28,-148.84 395.81,-155.27 431.59,-159.76"/>
<polygon fill="black" stroke="black" points="430.87,-163.2 441.23,-160.97 431.74,-156.25 430.87,-163.2"/>
<text text-anchor="middle" x="364.29" y="-162.02" font-family="Times,serif" font-size="14.00">EHLO/250:0.992</text>
</g>
<!-- q2:0.0 -->
<g id="node26" class="node">
<title>q2:0.0</title>
<ellipse fill="none" stroke="black" stroke-width="2" cx="484.7" cy="-99.07" rx="42.79" ry="18"/>
<text text-anchor="middle" x="484.7" y="-94.4" font-family="Times,serif" font-size="14.00">q2:0.0</text>
</g>
<!-- q1:0.0&#45;&gt;q2:0.0 -->
<g id="edge27" class="edge">
<title>q1:0.0&#45;&gt;q2:0.0</title>
<path fill="none" stroke="black" d="M274.08,-117.39C283.63,-113.52 294.41,-109.77 304.66,-107.57 346.12,-98.69 394.17,-96.86 430.04,-97.08"/>
<polygon fill="black" stroke="black" points="429.68,-100.58 439.73,-97.2 429.77,-93.58 429.68,-100.58"/>
<text text-anchor="middle" x="364.29" y="-129.27" font-family="Times,serif" font-size="14.00">EHLO/λ:0.008</text>
<text text-anchor="middle" x="364.29" y="-112.02" font-family="Times,serif" font-size="14.00">a0 = [127.0.1.1]</text>
</g>
<!-- q2:0.0&#45;&gt;q4:0.0 -->
<g id="edge28" class="edge">
<title>q2:0.0&#45;&gt;q4:0.0</title>
<path fill="none" stroke="black" d="M526.5,-93.85C532.85,-93.21 539.34,-92.67 545.49,-92.32 1012.1,-66.07 1134.5,-25.12 1597,-92.32 1602.2,-93.08 1607.6,-94.19 1612.9,-95.5"/>
<polygon fill="black" stroke="black" points="1611.57,-98.76 1622.14,-97.99 1613.4,-92 1611.57,-98.76"/>
<text text-anchor="middle" x="1071.2" y="-131.53" font-family="Times,serif" font-size="14.00">AUTH/235:1.0</text>
<text text-anchor="middle" x="1071.2" y="-114.28" font-family="Times,serif" font-size="14.00">a0 in {&#39;PLAIN AEF6NjE2MUAxMjYuY29tAE1VUVNBT1NUWElURkpDVUU=&#39;, &#39;PLAIN AEF6NjE2MUBzaW5hLmNvbQA2ZmRiMjVjZmNjODYyZWZj&#39;}</text>
<text text-anchor="middle" x="1071.2" y="-97.03" font-family="Times,serif" font-size="14.00">b0 in {&#39;Authentication successful&#39;, &#39;OK Authenticated&#39;}</text>
</g>
<!-- q0:0.0 -->
<g id="node27" class="node">
<title>q0:0.0</title>
<ellipse fill="none" stroke="black" stroke-width="2" cx="50.79" cy="-131.07" rx="46.79" ry="46.79"/>
<ellipse fill="none" stroke="black" stroke-width="2" cx="50.79" cy="-131.07" rx="50.79" ry="50.79"/>
<text text-anchor="middle" x="50.79" y="-126.4" font-family="Times,serif" font-size="14.00">q0:0.0</text>
</g>
<!-- q0:0.0&#45;&gt;q1:0.0 -->
<g id="edge29" class="edge">
<title>q0:0.0&#45;&gt;q1:0.0</title>
<path fill="none" stroke="black" d="M98.53,-131.07C125.82,-131.07 160.37,-131.07 188.82,-131.07"/>
<polygon fill="black" stroke="black" points="188.69,-134.57 198.69,-131.07 188.69,-127.57 188.69,-134.57"/>
<text text-anchor="middle" x="149.33" y="-135.02" font-family="Times,serif" font-size="14.00">λ/220:1.0</text>
</g>
</g>
</svg>
