<?xml version="1.0" encoding="UTF-8" standalone="no"?>
<!DOCTYPE svg PUBLIC "-//W3C//DTD SVG 1.1//EN"
 "http://www.w3.org/Graphics/SVG/1.1/DTD/svg11.dtd">
<!-- Generated by graphviz version 12.0.0 (20240803.0821)
 -->
<!-- Pages: 1 -->
<svg width="2047pt" height="266pt"
 viewBox="0.00 0.00 2046.50 266.28" xmlns="http://www.w3.org/2000/svg" xmlns:xlink="http://www.w3.org/1999/xlink">
<g id="graph0" class="graph" transform="scale(1 1) rotate(0) translate(4 262.28)">
<polygon fill="white" stroke="none" points="-4,4 -4,-262.28 2042.5,-262.28 2042.5,4 -4,4"/>
<!-- q9:0.0 -->
<g id="node1" class="node">
<title>q9:0.0</title>
<ellipse fill="none" stroke="black" stroke-width="2" cx="961.86" cy="-97.28" rx="42.79" ry="18"/>
<text text-anchor="middle" x="961.86" y="-92.6" font-family="Times,serif" font-size="14.00">q9:0.0</text>
</g>
<!-- q9:0.0&#45;&gt;q9:0.0 -->
<g id="edge1" class="edge">
<title>q9:0.0&#45;&gt;q9:0.0</title>
<path fill="none" stroke="black" d="M941.09,-113.94C936.48,-123.9 943.4,-133.28 961.86,-133.28 972.83,-133.28 979.72,-129.97 982.55,-125.2"/>
<polygon fill="black" stroke="black" points="986.05,-125.47 982.62,-115.45 979.05,-125.42 986.05,-125.47"/>
<text text-anchor="middle" x="961.86" y="-137.22" font-family="Times,serif" font-size="14.00">RCPT/250:0.622</text>
</g>
<!-- q13:0.0 -->
<g id="node2" class="node">
<title>q13:0.0</title>
<ellipse fill="none" stroke="black" stroke-width="2" cx="1217.1" cy="-98.28" rx="49.1" ry="18"/>
<text text-anchor="middle" x="1217.1" y="-93.6" font-family="Times,serif" font-size="14.00">q13:0.0</text>
</g>
<!-- q9:0.0&#45;&gt;q13:0.0 -->
<g id="edge2" class="edge">
<title>q9:0.0&#45;&gt;q13:0.0</title>
<path fill="none" stroke="black" d="M1005.5,-97.44C1046.7,-97.61 1109.5,-97.85 1155.8,-98.04"/>
<polygon fill="black" stroke="black" points="1155.67,-101.54 1165.69,-98.08 1155.7,-94.54 1155.67,-101.54"/>
<text text-anchor="middle" x="1080" y="-101.22" font-family="Times,serif" font-size="14.00">DATA/354:0.307</text>
</g>
<!-- q12:1.0 -->
<g id="node3" class="node">
<title>q12:1.0</title>
<ellipse fill="none" stroke="black" stroke-width="2" cx="1217.1" cy="-44.28" rx="49.1" ry="18"/>
<text text-anchor="middle" x="1217.1" y="-39.6" font-family="Times,serif" font-size="14.00">q12:1.0</text>
</g>
<!-- q9:0.0&#45;&gt;q12:1.0 -->
<g id="edge3" class="edge">
<title>q9:0.0&#45;&gt;q12:1.0</title>
<path fill="none" stroke="black" d="M994.5,-84.85C1003.49,-81.64 1013.4,-78.42 1022.7,-76.03 1067.5,-64.47 1119.3,-56.23 1158.1,-51.05"/>
<polygon fill="black" stroke="black" points="1158.14,-54.57 1167.6,-49.8 1157.23,-47.63 1158.14,-54.57"/>
<text text-anchor="middle" x="1080" y="-79.23" font-family="Times,serif" font-size="14.00">DATA/550:0.071</text>
</g>
<!-- q16:0.0 -->
<g id="node4" class="node">
<title>q16:0.0</title>
<ellipse fill="none" stroke="black" stroke-width="2" cx="1494.5" cy="-185.28" rx="49.1" ry="18"/>
<text text-anchor="middle" x="1494.5" y="-180.6" font-family="Times,serif" font-size="14.00">q16:0.0</text>
</g>
<!-- q13:0.0&#45;&gt;q16:0.0 -->
<g id="edge4" class="edge">
<title>q13:0.0&#45;&gt;q16:0.0</title>
<path fill="none" stroke="black" d="M1240.4,-114.82C1255.6,-125.32 1276.6,-138.37 1296.9,-146.28 1341.4,-163.65 1394.8,-173.61 1434.7,-179.11"/>
<polygon fill="black" stroke="black" points="1434.23,-182.57 1444.6,-180.41 1435.14,-175.63 1434.23,-182.57"/>
<text text-anchor="middle" x="1362.1" y="-181.22" font-family="Times,serif" font-size="14.00">content/250:0.051</text>
</g>
<!-- q18:0.0 -->
<g id="node5" class="node">
<title>q18:0.0</title>
<ellipse fill="none" stroke="black" stroke-width="2" cx="1494.5" cy="-131.28" rx="49.1" ry="18"/>
<text text-anchor="middle" x="1494.5" y="-126.6" font-family="Times,serif" font-size="14.00">q18:0.0</text>
</g>
<!-- q13:0.0&#45;&gt;q18:0.0 -->
<g id="edge5" class="edge">
<title>q13:0.0&#45;&gt;q18:0.0</title>
<path fill="none" stroke="black" d="M1261.8,-106.68C1273.2,-108.69 1285.4,-110.72 1296.9,-112.28 1342.7,-118.56 1394.8,-123.49 1433.8,-126.76"/>
<polygon fill="black" stroke="black" points="1433.54,-130.25 1443.79,-127.57 1434.11,-123.27 1433.54,-130.25"/>
<text text-anchor="middle" x="1362.1" y="-129.22" font-family="Times,serif" font-size="14.00">content/554:0.052</text>
</g>
<!-- q15:0.0 -->
<g id="node6" class="node">
<title>q15:0.0</title>
<ellipse fill="none" stroke="black" stroke-width="2" cx="1494.5" cy="-75.28" rx="49.1" ry="18"/>
<text text-anchor="middle" x="1494.5" y="-70.6" font-family="Times,serif" font-size="14.00">q15:0.0</text>
</g>
<!-- q13:0.0&#45;&gt;q15:0.0 -->
<g id="edge6" class="edge">
<title>q13:0.0&#45;&gt;q15:0.0</title>
<path fill="none" stroke="black" d="M1266.1,-94.27C1312.8,-90.36 1384,-84.42 1434.3,-80.22"/>
<polygon fill="black" stroke="black" points="1434.42,-83.72 1444.09,-79.4 1433.83,-76.75 1434.42,-83.72"/>
<text text-anchor="middle" x="1362.1" y="-95.23" font-family="Times,serif" font-size="14.00">content/λ:0.897</text>
</g>
<!-- q17:0.0 -->
<g id="node7" class="node">
<title>q17:0.0</title>
<ellipse fill="none" stroke="black" stroke-width="2" cx="1494.5" cy="-18.28" rx="49.1" ry="18"/>
<text text-anchor="middle" x="1494.5" y="-13.6" font-family="Times,serif" font-size="14.00">q17:0.0</text>
</g>
<!-- q13:0.0&#45;&gt;q17:0.0 -->
<g id="edge7" class="edge">
<title>q13:0.0&#45;&gt;q17:0.0</title>
<path fill="none" stroke="black" d="M1256.2,-86.57C1264.4,-82.7 1272.5,-77.69 1278.9,-71.28 1293.2,-56.73 1280.1,-40.74 1296.9,-29.03 1338.3,0 1397.5,-0.93 1440.1,-6.89"/>
<polygon fill="black" stroke="black" points="1439.49,-10.34 1449.9,-8.4 1440.56,-3.42 1439.49,-10.34"/>
<text text-anchor="middle" x="1362.1" y="-32.23" font-family="Times,serif" font-size="14.00">content/550:0.001</text>
</g>
<!-- q20:1.0 -->
<g id="node8" class="node">
<title>q20:1.0</title>
<ellipse fill="none" stroke="black" stroke-width="2" cx="1759.2" cy="-185.28" rx="49.1" ry="18"/>
<text text-anchor="middle" x="1759.2" y="-180.6" font-family="Times,serif" font-size="14.00">q20:1.0</text>
</g>
<!-- q16:0.0&#45;&gt;q20:1.0 -->
<g id="edge8" class="edge">
<title>q16:0.0&#45;&gt;q20:1.0</title>
<path fill="none" stroke="black" d="M1544.3,-185.28C1587.6,-185.28 1651.2,-185.28 1697.7,-185.28"/>
<polygon fill="black" stroke="black" points="1697.69,-188.78 1707.69,-185.28 1697.69,-181.78 1697.69,-188.78"/>
<text text-anchor="middle" x="1626.8" y="-189.22" font-family="Times,serif" font-size="14.00">QUIT/221:1.0</text>
</g>
<!-- q22:1.0 -->
<g id="node9" class="node">
<title>q22:1.0</title>
<ellipse fill="none" stroke="black" stroke-width="2" cx="1759.2" cy="-131.28" rx="49.1" ry="18"/>
<text text-anchor="middle" x="1759.2" y="-126.6" font-family="Times,serif" font-size="14.00">q22:1.0</text>
</g>
<!-- q18:0.0&#45;&gt;q22:1.0 -->
<g id="edge9" class="edge">
<title>q18:0.0&#45;&gt;q22:1.0</title>
<path fill="none" stroke="black" d="M1544.3,-131.28C1587.6,-131.28 1651.2,-131.28 1697.7,-131.28"/>
<polygon fill="black" stroke="black" points="1697.69,-134.78 1707.69,-131.28 1697.69,-127.78 1697.69,-134.78"/>
<text text-anchor="middle" x="1626.8" y="-135.22" font-family="Times,serif" font-size="14.00">RSET/250:1.0</text>
</g>
<!-- q15:0.0&#45;&gt;q13:0.0 -->
<g id="edge10" class="edge">
<title>q15:0.0&#45;&gt;q13:0.0</title>
<path fill="none" stroke="black" d="M1454.9,-63.71C1414.5,-53.54 1349.9,-42.69 1296.9,-59.03 1287.6,-61.87 1287.3,-66.57 1278.9,-71.28 1273.5,-74.26 1267.8,-77.16 1262,-79.9"/>
<polygon fill="black" stroke="black" points="1260.78,-76.61 1253.17,-83.98 1263.72,-82.96 1260.78,-76.61"/>
<text text-anchor="middle" x="1362.1" y="-62.23" font-family="Times,serif" font-size="14.00">content/λ:0.966</text>
</g>
<!-- q19:0.0 -->
<g id="node10" class="node">
<title>q19:0.0</title>
<ellipse fill="none" stroke="black" stroke-width="2" cx="1759.2" cy="-75.28" rx="49.1" ry="18"/>
<text text-anchor="middle" x="1759.2" y="-70.6" font-family="Times,serif" font-size="14.00">q19:0.0</text>
</g>
<!-- q15:0.0&#45;&gt;q19:0.0 -->
<g id="edge11" class="edge">
<title>q15:0.0&#45;&gt;q19:0.0</title>
<path fill="none" stroke="black" d="M1544.3,-75.28C1587.6,-75.28 1651.2,-75.28 1697.7,-75.28"/>
<polygon fill="black" stroke="black" points="1697.69,-78.78 1707.69,-75.28 1697.69,-71.78 1697.69,-78.78"/>
<text text-anchor="middle" x="1626.8" y="-79.23" font-family="Times,serif" font-size="14.00">content/250:0.034</text>
</g>
<!-- q21:1.0 -->
<g id="node11" class="node">
<title>q21:1.0</title>
<ellipse fill="none" stroke="black" stroke-width="2" cx="1759.2" cy="-18.28" rx="49.1" ry="18"/>
<text text-anchor="middle" x="1759.2" y="-13.6" font-family="Times,serif" font-size="14.00">q21:1.0</text>
</g>
<!-- q17:0.0&#45;&gt;q21:1.0 -->
<g id="edge12" class="edge">
<title>q17:0.0&#45;&gt;q21:1.0</title>
<path fill="none" stroke="black" d="M1544.3,-18.28C1587.6,-18.28 1651.2,-18.28 1697.7,-18.28"/>
<polygon fill="black" stroke="black" points="1697.69,-21.78 1707.69,-18.28 1697.69,-14.78 1697.69,-21.78"/>
<text text-anchor="middle" x="1626.8" y="-22.23" font-family="Times,serif" font-size="14.00">RSET/250:1.0</text>
</g>
<!-- q23:1.0 -->
<g id="node20" class="node">
<title>q23:1.0</title>
<ellipse fill="none" stroke="black" stroke-width="2" cx="1989.4" cy="-75.28" rx="49.1" ry="18"/>
<text text-anchor="middle" x="1989.4" y="-70.6" font-family="Times,serif" font-size="14.00">q23:1.0</text>
</g>
<!-- q19:0.0&#45;&gt;q23:1.0 -->
<g id="edge22" class="edge">
<title>q19:0.0&#45;&gt;q23:1.0</title>
<path fill="none" stroke="black" d="M1809.1,-75.28C1844,-75.28 1891.1,-75.28 1928.3,-75.28"/>
<polygon fill="black" stroke="black" points="1927.99,-78.78 1937.99,-75.28 1927.99,-71.78 1927.99,-78.78"/>
<text text-anchor="middle" x="1874.3" y="-79.23" font-family="Times,serif" font-size="14.00">QUIT/221:1.0</text>
</g>
<!-- q2:0.0 -->
<g id="node12" class="node">
<title>q2:0.0</title>
<ellipse fill="none" stroke="black" stroke-width="2" cx="484.7" cy="-176.28" rx="42.79" ry="18"/>
<text text-anchor="middle" x="484.7" y="-171.6" font-family="Times,serif" font-size="14.00">q2:0.0</text>
</g>
<!-- q5:0.0 -->
<g id="node13" class="node">
<title>q5:0.0</title>
<ellipse fill="none" stroke="black" stroke-width="2" cx="725.53" cy="-183.28" rx="42.79" ry="18"/>
<text text-anchor="middle" x="725.53" y="-178.6" font-family="Times,serif" font-size="14.00">q5:0.0</text>
</g>
<!-- q2:0.0&#45;&gt;q5:0.0 -->
<g id="edge13" class="edge">
<title>q2:0.0&#45;&gt;q5:0.0</title>
<path fill="none" stroke="black" d="M528.12,-177.52C567.91,-178.69 627.56,-180.44 670.69,-181.7"/>
<polygon fill="black" stroke="black" points="670.49,-185.19 680.59,-181.99 670.7,-178.19 670.49,-185.19"/>
<text text-anchor="middle" x="605.12" y="-185.22" font-family="Times,serif" font-size="14.00">AUTH/235:0.947</text>
</g>
<!-- q6:0.0 -->
<g id="node14" class="node">
<title>q6:0.0</title>
<ellipse fill="none" stroke="black" stroke-width="2" cx="725.53" cy="-103.28" rx="42.79" ry="18"/>
<text text-anchor="middle" x="725.53" y="-98.6" font-family="Times,serif" font-size="14.00">q6:0.0</text>
</g>
<!-- q2:0.0&#45;&gt;q6:0.0 -->
<g id="edge14" class="edge">
<title>q2:0.0&#45;&gt;q6:0.0</title>
<path fill="none" stroke="black" d="M519.14,-164.67C527.7,-161.78 536.92,-158.73 545.49,-156.03 598.15,-139.45 611.81,-136.96 664.74,-121.28 669.24,-119.95 673.93,-118.55 678.62,-117.15"/>
<polygon fill="black" stroke="black" points="679.43,-120.56 688,-114.33 677.42,-113.85 679.43,-120.56"/>
<text text-anchor="middle" x="605.12" y="-159.22" font-family="Times,serif" font-size="14.00">AUTH/λ:0.004</text>
</g>
<!-- q4:0.0 -->
<g id="node15" class="node">
<title>q4:0.0</title>
<ellipse fill="none" stroke="black" stroke-width="2" cx="725.53" cy="-238.28" rx="42.79" ry="18"/>
<text text-anchor="middle" x="725.53" y="-233.6" font-family="Times,serif" font-size="14.00">q4:0.0</text>
</g>
<!-- q2:0.0&#45;&gt;q4:0.0 -->
<g id="edge15" class="edge">
<title>q2:0.0&#45;&gt;q4:0.0</title>
<path fill="none" stroke="black" d="M514.12,-190.1C523.9,-194.46 535.02,-198.99 545.49,-202.28 587.53,-215.48 636.68,-224.96 672.84,-230.86"/>
<polygon fill="black" stroke="black" points="672.18,-234.29 682.6,-232.42 673.28,-227.38 672.18,-234.29"/>
<text text-anchor="middle" x="605.12" y="-233.22" font-family="Times,serif" font-size="14.00">AUTH/535:0.049</text>
</g>
<!-- q5:0.0&#45;&gt;q9:0.0 -->
<g id="edge16" class="edge">
<title>q5:0.0&#45;&gt;q9:0.0</title>
<path fill="none" stroke="black" d="M759.74,-171.48C768.39,-168.4 777.71,-165.09 786.32,-162.03 837.32,-143.91 850.45,-140.42 901.07,-121.28 906.89,-119.08 913.01,-116.7 919.01,-114.33"/>
<polygon fill="black" stroke="black" points="920.21,-117.61 928.2,-110.66 917.62,-111.11 920.21,-117.61"/>
<text text-anchor="middle" x="843.7" y="-165.22" font-family="Times,serif" font-size="14.00">MAIL/250:0.987</text>
</g>
<!-- q8:0.0 -->
<g id="node16" class="node">
<title>q8:0.0</title>
<ellipse fill="none" stroke="black" stroke-width="2" cx="961.86" cy="-186.28" rx="42.79" ry="18"/>
<text text-anchor="middle" x="961.86" y="-181.6" font-family="Times,serif" font-size="14.00">q8:0.0</text>
</g>
<!-- q5:0.0&#45;&gt;q8:0.0 -->
<g id="edge17" class="edge">
<title>q5:0.0&#45;&gt;q8:0.0</title>
<path fill="none" stroke="black" d="M769.24,-183.83C807.97,-184.32 865.24,-185.06 907.08,-185.59"/>
<polygon fill="black" stroke="black" points="906.89,-189.08 916.94,-185.72 906.98,-182.08 906.89,-189.08"/>
<text text-anchor="middle" x="843.7" y="-189.22" font-family="Times,serif" font-size="14.00">MAIL/553:0.013</text>
</g>
<!-- q6:0.0&#45;&gt;q9:0.0 -->
<g id="edge18" class="edge">
<title>q6:0.0&#45;&gt;q9:0.0</title>
<path fill="none" stroke="black" d="M769.24,-102.19C807.97,-101.19 865.24,-99.72 907.08,-98.65"/>
<polygon fill="black" stroke="black" points="907.03,-102.15 916.94,-98.4 906.85,-95.16 907.03,-102.15"/>
<text text-anchor="middle" x="843.7" y="-105.22" font-family="Times,serif" font-size="14.00">MAIL/250:1.0</text>
</g>
<!-- q7:0.0 -->
<g id="node17" class="node">
<title>q7:0.0</title>
<ellipse fill="none" stroke="black" stroke-width="2" cx="961.86" cy="-240.28" rx="42.79" ry="18"/>
<text text-anchor="middle" x="961.86" y="-235.6" font-family="Times,serif" font-size="14.00">q7:0.0</text>
</g>
<!-- q4:0.0&#45;&gt;q7:0.0 -->
<g id="edge19" class="edge">
<title>q4:0.0&#45;&gt;q7:0.0</title>
<path fill="none" stroke="black" d="M769.24,-238.64C807.97,-238.98 865.24,-239.46 907.08,-239.82"/>
<polygon fill="black" stroke="black" points="906.91,-243.31 916.94,-239.9 906.97,-236.31 906.91,-243.31"/>
<text text-anchor="middle" x="843.7" y="-243.22" font-family="Times,serif" font-size="14.00">AUTH/334:1.0</text>
</g>
<!-- q11:1.0 -->
<g id="node18" class="node">
<title>q11:1.0</title>
<ellipse fill="none" stroke="black" stroke-width="2" cx="1217.1" cy="-186.28" rx="49.1" ry="18"/>
<text text-anchor="middle" x="1217.1" y="-181.6" font-family="Times,serif" font-size="14.00">q11:1.0</text>
</g>
<!-- q8:0.0&#45;&gt;q11:1.0 -->
<g id="edge20" class="edge">
<title>q8:0.0&#45;&gt;q11:1.0</title>
<path fill="none" stroke="black" d="M1005.5,-186.28C1046.7,-186.28 1109.5,-186.28 1155.8,-186.28"/>
<polygon fill="black" stroke="black" points="1155.69,-189.78 1165.69,-186.28 1155.69,-182.78 1155.69,-189.78"/>
<text text-anchor="middle" x="1080" y="-190.22" font-family="Times,serif" font-size="14.00">RSET/250:1.0</text>
</g>
<!-- q10:0.667 -->
<g id="node19" class="node">
<title>q10:0.667</title>
<ellipse fill="none" stroke="black" stroke-width="2" cx="1217.1" cy="-240.28" rx="61.73" ry="18"/>
<text text-anchor="middle" x="1217.1" y="-235.6" font-family="Times,serif" font-size="14.00">q10:0.667</text>
</g>
<!-- q7:0.0&#45;&gt;q10:0.667 -->
<g id="edge21" class="edge">
<title>q7:0.0&#45;&gt;q10:0.667</title>
<path fill="none" stroke="black" d="M1005.5,-240.28C1043.1,-240.28 1098.7,-240.28 1143.4,-240.28"/>
<polygon fill="black" stroke="black" points="1143.19,-243.78 1153.19,-240.28 1143.19,-236.78 1143.19,-243.78"/>
<text text-anchor="middle" x="1080" y="-244.22" font-family="Times,serif" font-size="14.00">content/535:1.0</text>
</g>
<!-- q14:1.0 -->
<g id="node23" class="node">
<title>q14:1.0</title>
<ellipse fill="none" stroke="black" stroke-width="2" cx="1494.5" cy="-240.28" rx="49.1" ry="18"/>
<text text-anchor="middle" x="1494.5" y="-235.6" font-family="Times,serif" font-size="14.00">q14:1.0</text>
</g>
<!-- q10:0.667&#45;&gt;q14:1.0 -->
<g id="edge26" class="edge">
<title>q10:0.667&#45;&gt;q14:1.0</title>
<path fill="none" stroke="black" d="M1279.6,-240.28C1325.4,-240.28 1387.6,-240.28 1433.1,-240.28"/>
<polygon fill="black" stroke="black" points="1433.09,-243.78 1443.09,-240.28 1433.09,-236.78 1433.09,-243.78"/>
<text text-anchor="middle" x="1362.1" y="-244.22" font-family="Times,serif" font-size="14.00">λ/451:0.333</text>
</g>
<!-- q1:0.0 -->
<g id="node21" class="node">
<title>q1:0.0</title>
<ellipse fill="none" stroke="black" stroke-width="2" cx="243.87" cy="-143.28" rx="42.79" ry="18"/>
<text text-anchor="middle" x="243.87" y="-138.6" font-family="Times,serif" font-size="14.00">q1:0.0</text>
</g>
<!-- q1:0.0&#45;&gt;q2:0.0 -->
<g id="edge23" class="edge">
<title>q1:0.0&#45;&gt;q2:0.0</title>
<path fill="none" stroke="black" d="M285.66,-148.92C326.01,-154.49 387.94,-163.05 431.79,-169.11"/>
<polygon fill="black" stroke="black" points="431.19,-172.56 441.58,-170.46 432.15,-165.62 431.19,-172.56"/>
<text text-anchor="middle" x="364.29" y="-171.22" font-family="Times,serif" font-size="14.00">EHLO/250:0.996</text>
</g>
<!-- q3:0.0 -->
<g id="node22" class="node">
<title>q3:0.0</title>
<ellipse fill="none" stroke="black" stroke-width="2" cx="484.7" cy="-116.28" rx="42.79" ry="18"/>
<text text-anchor="middle" x="484.7" y="-111.6" font-family="Times,serif" font-size="14.00">q3:0.0</text>
</g>
<!-- q1:0.0&#45;&gt;q3:0.0 -->
<g id="edge24" class="edge">
<title>q1:0.0&#45;&gt;q3:0.0</title>
<path fill="none" stroke="black" d="M279.7,-132.52C287.82,-130.38 296.49,-128.37 304.66,-127.03 346.39,-120.18 394.23,-117.57 429.95,-116.63"/>
<polygon fill="black" stroke="black" points="429.66,-120.13 439.59,-116.42 429.51,-113.13 429.66,-120.13"/>
<text text-anchor="middle" x="364.29" y="-130.22" font-family="Times,serif" font-size="14.00">EHLO/λ:0.004</text>
</g>
<!-- q3:0.0&#45;&gt;q6:0.0 -->
<g id="edge25" class="edge">
<title>q3:0.0&#45;&gt;q6:0.0</title>
<path fill="none" stroke="black" d="M523.16,-107.42C530.52,-106.02 538.22,-104.78 545.49,-104.03 587.48,-99.68 635.3,-99.73 670.96,-100.75"/>
<polygon fill="black" stroke="black" points="670.46,-104.23 680.57,-101.05 670.68,-97.23 670.46,-104.23"/>
<text text-anchor="middle" x="605.12" y="-107.22" font-family="Times,serif" font-size="14.00">AUTH/235:1.0</text>
</g>
<!-- q0:0.0 -->
<g id="node24" class="node">
<title>q0:0.0</title>
<ellipse fill="none" stroke="black" stroke-width="2" cx="50.79" cy="-143.28" rx="46.79" ry="46.79"/>
<ellipse fill="none" stroke="black" stroke-width="2" cx="50.79" cy="-143.28" rx="50.79" ry="50.79"/>
<text text-anchor="middle" x="50.79" y="-138.6" font-family="Times,serif" font-size="14.00">q0:0.0</text>
</g>
<!-- q0:0.0&#45;&gt;q1:0.0 -->
<g id="edge27" class="edge">
<title>q0:0.0&#45;&gt;q1:0.0</title>
<path fill="none" stroke="black" d="M98.53,-143.28C125.82,-143.28 160.37,-143.28 188.82,-143.28"/>
<polygon fill="black" stroke="black" points="188.69,-146.78 198.69,-143.28 188.69,-139.78 188.69,-146.78"/>
<text text-anchor="middle" x="149.33" y="-147.22" font-family="Times,serif" font-size="14.00">λ/220:1.0</text>
</g>
</g>
</svg>
