<?xml version="1.0" encoding="UTF-8" standalone="no"?>
<!DOCTYPE svg PUBLIC "-//W3C//DTD SVG 1.1//EN"
 "http://www.w3.org/Graphics/SVG/1.1/DTD/svg11.dtd">
<!-- Generated by graphviz version 12.0.0 (20240803.0821)
 -->
<!-- Pages: 1 -->
<svg width="1853pt" height="573pt"
 viewBox="0.00 0.00 1853.40 572.61" xmlns="http://www.w3.org/2000/svg" xmlns:xlink="http://www.w3.org/1999/xlink">
<g id="graph0" class="graph" transform="scale(1 1) rotate(0) translate(4 568.61)">
<polygon fill="white" stroke="none" points="-4,4 -4,-568.61 1849.4,-568.61 1849.4,4 -4,4"/>
<!-- q14:0.0 -->
<g id="node1" class="node">
<title>q14:0.0</title>
<ellipse fill="none" stroke="black" stroke-width="2" cx="744.49" cy="-262.61" rx="49.1" ry="18"/>
<text text-anchor="middle" x="744.49" y="-257.93" font-family="Times,serif" font-size="14.00">q14:0.0</text>
</g>
<!-- q14:0.0&#45;&gt;q14:0.0 -->
<g id="edge1" class="edge">
<title>q14:0.0&#45;&gt;q14:0.0</title>
<path fill="none" stroke="black" d="M722.21,-279.27C717.26,-289.24 724.69,-298.61 744.49,-298.61 756.25,-298.61 763.65,-295.31 766.68,-290.53"/>
<polygon fill="black" stroke="black" points="770.18,-290.81 766.76,-280.78 763.18,-290.75 770.18,-290.81"/>
<text text-anchor="middle" x="744.49" y="-302.56" font-family="Times,serif" font-size="14.00">content/λ:0.432</text>
</g>
<!-- q18:0.0 -->
<g id="node2" class="node">
<title>q18:0.0</title>
<ellipse fill="none" stroke="black" stroke-width="2" cx="1009.2" cy="-224.61" rx="49.1" ry="18"/>
<text text-anchor="middle" x="1009.2" y="-219.93" font-family="Times,serif" font-size="14.00">q18:0.0</text>
</g>
<!-- q14:0.0&#45;&gt;q18:0.0 -->
<g id="edge2" class="edge">
<title>q14:0.0&#45;&gt;q18:0.0</title>
<path fill="none" stroke="black" d="M784.79,-251.33C793.56,-249.1 802.86,-246.95 811.62,-245.36 857.16,-237.07 909.28,-231.75 948.41,-228.58"/>
<polygon fill="black" stroke="black" points="948.66,-232.07 958.35,-227.8 948.11,-225.09 948.66,-232.07"/>
<text text-anchor="middle" x="876.87" y="-248.56" font-family="Times,serif" font-size="14.00">content/250:0.195</text>
</g>
<!-- q19:0.0 -->
<g id="node3" class="node">
<title>q19:0.0</title>
<ellipse fill="none" stroke="black" stroke-width="2" cx="1009.2" cy="-278.61" rx="49.1" ry="18"/>
<text text-anchor="middle" x="1009.2" y="-273.93" font-family="Times,serif" font-size="14.00">q19:0.0</text>
</g>
<!-- q14:0.0&#45;&gt;q19:0.0 -->
<g id="edge3" class="edge">
<title>q14:0.0&#45;&gt;q19:0.0</title>
<path fill="none" stroke="black" d="M793.68,-265.54C837.34,-268.2 901.82,-272.13 948.68,-274.98"/>
<polygon fill="black" stroke="black" points="948.18,-278.45 958.38,-275.57 948.61,-271.47 948.18,-278.45"/>
<text text-anchor="middle" x="876.87" y="-277.56" font-family="Times,serif" font-size="14.00">content/554:0.373</text>
</g>
<!-- q24:1.0 -->
<g id="node4" class="node">
<title>q24:1.0</title>
<ellipse fill="none" stroke="black" stroke-width="2" cx="1286.6" cy="-222.61" rx="49.1" ry="18"/>
<text text-anchor="middle" x="1286.6" y="-217.93" font-family="Times,serif" font-size="14.00">q24:1.0</text>
</g>
<!-- q18:0.0&#45;&gt;q24:1.0 -->
<g id="edge4" class="edge">
<title>q18:0.0&#45;&gt;q24:1.0</title>
<path fill="none" stroke="black" d="M1059.1,-224.26C1105.6,-223.92 1175.5,-223.41 1225.4,-223.05"/>
<polygon fill="black" stroke="black" points="1225.11,-226.55 1235.09,-222.98 1225.06,-219.55 1225.11,-226.55"/>
<text text-anchor="middle" x="1141.6" y="-227.56" font-family="Times,serif" font-size="14.00">QUIT/221:1.0</text>
</g>
<!-- q25:1.0 -->
<g id="node5" class="node">
<title>q25:1.0</title>
<ellipse fill="none" stroke="black" stroke-width="2" cx="1286.6" cy="-276.61" rx="49.1" ry="18"/>
<text text-anchor="middle" x="1286.6" y="-271.93" font-family="Times,serif" font-size="14.00">q25:1.0</text>
</g>
<!-- q19:0.0&#45;&gt;q25:1.0 -->
<g id="edge5" class="edge">
<title>q19:0.0&#45;&gt;q25:1.0</title>
<path fill="none" stroke="black" d="M1059.1,-278.26C1105.6,-277.92 1175.5,-277.41 1225.4,-277.05"/>
<polygon fill="black" stroke="black" points="1225.11,-280.55 1235.09,-276.98 1225.06,-273.55 1225.11,-280.55"/>
<text text-anchor="middle" x="1141.6" y="-281.56" font-family="Times,serif" font-size="14.00">RSET/250:1.0</text>
</g>
<!-- q3:0.0 -->
<g id="node6" class="node">
<title>q3:0.0</title>
<ellipse fill="none" stroke="black" stroke-width="2" cx="491.01" cy="-87.61" rx="42.79" ry="18"/>
<text text-anchor="middle" x="491.01" y="-82.93" font-family="Times,serif" font-size="14.00">q3:0.0</text>
</g>
<!-- q5:0.0 -->
<g id="node7" class="node">
<title>q5:0.0</title>
<ellipse fill="none" stroke="black" stroke-width="2" cx="744.49" cy="-150.61" rx="42.79" ry="18"/>
<text text-anchor="middle" x="744.49" y="-145.93" font-family="Times,serif" font-size="14.00">q5:0.0</text>
</g>
<!-- q3:0.0&#45;&gt;q5:0.0 -->
<g id="edge6" class="edge">
<title>q3:0.0&#45;&gt;q5:0.0</title>
<path fill="none" stroke="black" d="M521.51,-101.1C532.79,-105.88 545.88,-110.96 558.12,-114.61 602.39,-127.81 654.1,-137.39 691.63,-143.33"/>
<polygon fill="black" stroke="black" points="690.89,-146.75 701.3,-144.83 691.96,-139.84 690.89,-146.75"/>
<text text-anchor="middle" x="617.74" y="-144.56" font-family="Times,serif" font-size="14.00">AUTH/λ:0.004</text>
</g>
<!-- q4:0.0 -->
<g id="node8" class="node">
<title>q4:0.0</title>
<ellipse fill="none" stroke="black" stroke-width="2" cx="744.49" cy="-96.61" rx="42.79" ry="18"/>
<text text-anchor="middle" x="744.49" y="-91.93" font-family="Times,serif" font-size="14.00">q4:0.0</text>
</g>
<!-- q3:0.0&#45;&gt;q4:0.0 -->
<g id="edge7" class="edge">
<title>q3:0.0&#45;&gt;q4:0.0</title>
<path fill="none" stroke="black" d="M534.39,-89.12C577.1,-90.65 643.18,-93.02 689.59,-94.68"/>
<polygon fill="black" stroke="black" points="689.31,-98.17 699.43,-95.03 689.56,-91.17 689.31,-98.17"/>
<text text-anchor="middle" x="617.74" y="-97.56" font-family="Times,serif" font-size="14.00">AUTH/235:0.942</text>
</g>
<!-- q6:0.0 -->
<g id="node9" class="node">
<title>q6:0.0</title>
<ellipse fill="none" stroke="black" stroke-width="2" cx="744.49" cy="-42.61" rx="42.79" ry="18"/>
<text text-anchor="middle" x="744.49" y="-37.93" font-family="Times,serif" font-size="14.00">q6:0.0</text>
</g>
<!-- q3:0.0&#45;&gt;q6:0.0 -->
<g id="edge8" class="edge">
<title>q3:0.0&#45;&gt;q6:0.0</title>
<path fill="none" stroke="black" d="M527.15,-77.02C537.1,-74.27 547.98,-71.48 558.12,-69.36 602.54,-60.06 653.62,-52.95 690.9,-48.41"/>
<polygon fill="black" stroke="black" points="690.98,-51.92 700.5,-47.26 690.15,-44.97 690.98,-51.92"/>
<text text-anchor="middle" x="617.74" y="-73.56" font-family="Times,serif" font-size="14.00">AUTH/535:0.054</text>
</g>
<!-- q7:0.0 -->
<g id="node10" class="node">
<title>q7:0.0</title>
<ellipse fill="none" stroke="black" stroke-width="2" cx="1009.2" cy="-170.61" rx="42.79" ry="18"/>
<text text-anchor="middle" x="1009.2" y="-165.93" font-family="Times,serif" font-size="14.00">q7:0.0</text>
</g>
<!-- q5:0.0&#45;&gt;q7:0.0 -->
<g id="edge9" class="edge">
<title>q5:0.0&#45;&gt;q7:0.0</title>
<path fill="none" stroke="black" d="M787.41,-153.8C832.88,-157.26 905.57,-162.8 955.03,-166.56"/>
<polygon fill="black" stroke="black" points="954.7,-170.04 964.94,-167.31 955.23,-163.06 954.7,-170.04"/>
<text text-anchor="middle" x="876.87" y="-168.56" font-family="Times,serif" font-size="14.00">MAIL/250:1.0</text>
</g>
<!-- q4:0.0&#45;&gt;q7:0.0 -->
<g id="edge10" class="edge">
<title>q4:0.0&#45;&gt;q7:0.0</title>
<path fill="none" stroke="black" d="M784.3,-104.28C793.27,-106.04 802.77,-107.9 811.62,-109.61 869.58,-120.8 886.55,-114.42 942.12,-134.36 953.11,-138.31 964.48,-143.91 974.61,-149.53"/>
<polygon fill="black" stroke="black" points="972.56,-152.39 982.98,-154.34 976.06,-146.32 972.56,-152.39"/>
<text text-anchor="middle" x="876.87" y="-137.56" font-family="Times,serif" font-size="14.00">MAIL/250:0.987</text>
</g>
<!-- q8:0.0 -->
<g id="node11" class="node">
<title>q8:0.0</title>
<ellipse fill="none" stroke="black" stroke-width="2" cx="1009.2" cy="-93.61" rx="42.79" ry="18"/>
<text text-anchor="middle" x="1009.2" y="-88.93" font-family="Times,serif" font-size="14.00">q8:0.0</text>
</g>
<!-- q4:0.0&#45;&gt;q8:0.0 -->
<g id="edge11" class="edge">
<title>q4:0.0&#45;&gt;q8:0.0</title>
<path fill="none" stroke="black" d="M787.45,-93.5C795.47,-93.03 803.8,-92.61 811.62,-92.36 859.8,-90.81 914.65,-91.35 954.15,-92.15"/>
<polygon fill="black" stroke="black" points="954.05,-95.64 964.13,-92.36 954.2,-88.65 954.05,-95.64"/>
<text text-anchor="middle" x="876.87" y="-95.56" font-family="Times,serif" font-size="14.00">MAIL/553:0.013</text>
</g>
<!-- q9:0.0 -->
<g id="node12" class="node">
<title>q9:0.0</title>
<ellipse fill="none" stroke="black" stroke-width="2" cx="1009.2" cy="-39.61" rx="42.79" ry="18"/>
<text text-anchor="middle" x="1009.2" y="-34.93" font-family="Times,serif" font-size="14.00">q9:0.0</text>
</g>
<!-- q6:0.0&#45;&gt;q9:0.0 -->
<g id="edge12" class="edge">
<title>q6:0.0&#45;&gt;q9:0.0</title>
<path fill="none" stroke="black" d="M788,-42.12C833.31,-41.6 905.17,-40.78 954.4,-40.22"/>
<polygon fill="black" stroke="black" points="954.31,-43.72 964.27,-40.11 954.23,-36.72 954.31,-43.72"/>
<text text-anchor="middle" x="876.87" y="-46.56" font-family="Times,serif" font-size="14.00">AUTH/334:1.0</text>
</g>
<!-- q10:0.0 -->
<g id="node13" class="node">
<title>q10:0.0</title>
<ellipse fill="none" stroke="black" stroke-width="2" cx="491.01" cy="-262.61" rx="49.1" ry="18"/>
<text text-anchor="middle" x="491.01" y="-257.93" font-family="Times,serif" font-size="14.00">q10:0.0</text>
</g>
<!-- q7:0.0&#45;&gt;q10:0.0 -->
<g id="edge13" class="edge">
<title>q7:0.0&#45;&gt;q10:0.0</title>
<path fill="none" stroke="black" d="M970.94,-179.7C961.56,-181.81 951.5,-183.93 942.12,-185.61 833.23,-205.15 804.34,-199.31 695.37,-218.36 643.8,-227.38 585.47,-240.36 544.55,-249.93"/>
<polygon fill="black" stroke="black" points="543.89,-246.49 534.96,-252.19 545.5,-253.3 543.89,-246.49"/>
<text text-anchor="middle" x="744.49" y="-221.56" font-family="Times,serif" font-size="14.00">RCPT/250:1.0</text>
</g>
<!-- q11:1.0 -->
<g id="node14" class="node">
<title>q11:1.0</title>
<ellipse fill="none" stroke="black" stroke-width="2" cx="1286.6" cy="-93.61" rx="49.1" ry="18"/>
<text text-anchor="middle" x="1286.6" y="-88.93" font-family="Times,serif" font-size="14.00">q11:1.0</text>
</g>
<!-- q8:0.0&#45;&gt;q11:1.0 -->
<g id="edge14" class="edge">
<title>q8:0.0&#45;&gt;q11:1.0</title>
<path fill="none" stroke="black" d="M1052.9,-93.61C1099.1,-93.61 1173.2,-93.61 1225.3,-93.61"/>
<polygon fill="black" stroke="black" points="1225.19,-97.11 1235.19,-93.61 1225.19,-90.11 1225.19,-97.11"/>
<text text-anchor="middle" x="1141.6" y="-97.56" font-family="Times,serif" font-size="14.00">RSET/250:1.0</text>
</g>
<!-- q12:0.692 -->
<g id="node15" class="node">
<title>q12:0.692</title>
<ellipse fill="none" stroke="black" stroke-width="2" cx="1286.6" cy="-39.61" rx="61.73" ry="18"/>
<text text-anchor="middle" x="1286.6" y="-34.93" font-family="Times,serif" font-size="14.00">q12:0.692</text>
</g>
<!-- q9:0.0&#45;&gt;q12:0.692 -->
<g id="edge15" class="edge">
<title>q9:0.0&#45;&gt;q12:0.692</title>
<path fill="none" stroke="black" d="M1052.9,-39.61C1095.6,-39.61 1161.9,-39.61 1212.8,-39.61"/>
<polygon fill="black" stroke="black" points="1212.59,-43.11 1222.59,-39.61 1212.59,-36.11 1212.59,-43.11"/>
<text text-anchor="middle" x="1141.6" y="-43.56" font-family="Times,serif" font-size="14.00">content/535:1.0</text>
</g>
<!-- q10:0.0&#45;&gt;q14:0.0 -->
<g id="edge16" class="edge">
<title>q10:0.0&#45;&gt;q14:0.0</title>
<path fill="none" stroke="black" d="M541.1,-262.61C581.78,-262.61 639.76,-262.61 683.24,-262.61"/>
<polygon fill="black" stroke="black" points="683.02,-266.11 693.02,-262.61 683.02,-259.11 683.02,-266.11"/>
<text text-anchor="middle" x="617.74" y="-266.56" font-family="Times,serif" font-size="14.00">DATA/354:0.29</text>
</g>
<!-- q13:0.0 -->
<g id="node16" class="node">
<title>q13:0.0</title>
<ellipse fill="none" stroke="black" stroke-width="2" cx="744.49" cy="-354.61" rx="49.1" ry="18"/>
<text text-anchor="middle" x="744.49" y="-349.93" font-family="Times,serif" font-size="14.00">q13:0.0</text>
</g>
<!-- q10:0.0&#45;&gt;q13:0.0 -->
<g id="edge17" class="edge">
<title>q10:0.0&#45;&gt;q13:0.0</title>
<path fill="none" stroke="black" d="M527.51,-275.6C572.07,-291.9 648.58,-319.89 697.56,-337.81"/>
<polygon fill="black" stroke="black" points="696.16,-341.02 706.76,-341.17 698.57,-334.45 696.16,-341.02"/>
<text text-anchor="middle" x="617.74" y="-333.56" font-family="Times,serif" font-size="14.00">RCPT/250:0.71</text>
</g>
<!-- q15:1.0 -->
<g id="node19" class="node">
<title>q15:1.0</title>
<ellipse fill="none" stroke="black" stroke-width="2" cx="1563.9" cy="-39.61" rx="49.1" ry="18"/>
<text text-anchor="middle" x="1563.9" y="-34.93" font-family="Times,serif" font-size="14.00">q15:1.0</text>
</g>
<!-- q12:0.692&#45;&gt;q15:1.0 -->
<g id="edge21" class="edge">
<title>q12:0.692&#45;&gt;q15:1.0</title>
<path fill="none" stroke="black" d="M1349,-39.61C1394.8,-39.61 1457,-39.61 1502.5,-39.61"/>
<polygon fill="black" stroke="black" points="1502.49,-43.11 1512.49,-39.61 1502.49,-36.11 1502.49,-43.11"/>
<text text-anchor="middle" x="1431.5" y="-43.56" font-family="Times,serif" font-size="14.00">λ/451:0.308</text>
</g>
<!-- q13:0.0&#45;&gt;q7:0.0 -->
<g id="edge18" class="edge">
<title>q13:0.0&#45;&gt;q7:0.0</title>
<path fill="none" stroke="black" d="M785.31,-343.6C841.2,-327.98 936.75,-300.62 942.12,-294.61 971.33,-261.91 934.59,-233.26 960.12,-197.61 962.17,-194.74 964.63,-192.14 967.33,-189.79"/>
<polygon fill="black" stroke="black" points="969.3,-192.68 975.37,-183.99 965.21,-187 969.3,-192.68"/>
<text text-anchor="middle" x="876.87" y="-339.56" font-family="Times,serif" font-size="14.00">RCPT/250:0.018</text>
</g>
<!-- q17:0.0 -->
<g id="node17" class="node">
<title>q17:0.0</title>
<ellipse fill="none" stroke="black" stroke-width="2" cx="1009.2" cy="-372.61" rx="49.1" ry="18"/>
<text text-anchor="middle" x="1009.2" y="-367.93" font-family="Times,serif" font-size="14.00">q17:0.0</text>
</g>
<!-- q13:0.0&#45;&gt;q17:0.0 -->
<g id="edge19" class="edge">
<title>q13:0.0&#45;&gt;q17:0.0</title>
<path fill="none" stroke="black" d="M793.68,-357.91C837.34,-360.9 901.82,-365.32 948.68,-368.53"/>
<polygon fill="black" stroke="black" points="948.16,-372 958.38,-369.19 948.64,-365.02 948.16,-372"/>
<text text-anchor="middle" x="876.87" y="-371.56" font-family="Times,serif" font-size="14.00">DATA/354:0.72</text>
</g>
<!-- q16:1.0 -->
<g id="node18" class="node">
<title>q16:1.0</title>
<ellipse fill="none" stroke="black" stroke-width="2" cx="1009.2" cy="-426.61" rx="49.1" ry="18"/>
<text text-anchor="middle" x="1009.2" y="-421.93" font-family="Times,serif" font-size="14.00">q16:1.0</text>
</g>
<!-- q13:0.0&#45;&gt;q16:1.0 -->
<g id="edge20" class="edge">
<title>q13:0.0&#45;&gt;q16:1.0</title>
<path fill="none" stroke="black" d="M772.07,-370.47C783.85,-376.91 798.08,-383.93 811.62,-388.61 856.77,-404.22 910.11,-414.03 949.83,-419.76"/>
<polygon fill="black" stroke="black" points="949.28,-423.21 959.67,-421.12 950.24,-416.28 949.28,-423.21"/>
<text text-anchor="middle" x="876.87" y="-421.56" font-family="Times,serif" font-size="14.00">DATA/550:0.262</text>
</g>
<!-- q22:0.0 -->
<g id="node22" class="node">
<title>q22:0.0</title>
<ellipse fill="none" stroke="black" stroke-width="2" cx="1286.6" cy="-492.61" rx="49.1" ry="18"/>
<text text-anchor="middle" x="1286.6" y="-487.93" font-family="Times,serif" font-size="14.00">q22:0.0</text>
</g>
<!-- q17:0.0&#45;&gt;q22:0.0 -->
<g id="edge29" class="edge">
<title>q17:0.0&#45;&gt;q22:0.0</title>
<path fill="none" stroke="black" d="M1043,-386.23C1048.8,-389.86 1054.2,-394.29 1058.3,-399.61 1078.1,-425.45 1051.7,-449.3 1076.3,-470.61 1118.3,-506.98 1184.3,-507.89 1230.9,-502.65"/>
<polygon fill="black" stroke="black" points="1231.32,-506.12 1240.8,-501.39 1230.44,-499.18 1231.32,-506.12"/>
<text text-anchor="middle" x="1141.6" y="-508.56" font-family="Times,serif" font-size="14.00">content/λ:0.954</text>
</g>
<!-- q23:0.0 -->
<g id="node26" class="node">
<title>q23:0.0</title>
<ellipse fill="none" stroke="black" stroke-width="2" cx="1286.6" cy="-384.61" rx="49.1" ry="18"/>
<text text-anchor="middle" x="1286.6" y="-379.93" font-family="Times,serif" font-size="14.00">q23:0.0</text>
</g>
<!-- q17:0.0&#45;&gt;q23:0.0 -->
<g id="edge30" class="edge">
<title>q17:0.0&#45;&gt;q23:0.0</title>
<path fill="none" stroke="black" d="M1058.8,-370.93C1098.6,-370.01 1156.4,-369.68 1206.8,-373.36 1214.1,-373.89 1221.8,-374.69 1229.4,-375.62"/>
<polygon fill="black" stroke="black" points="1228.83,-379.07 1239.2,-376.91 1229.74,-372.13 1228.83,-379.07"/>
<text text-anchor="middle" x="1141.6" y="-376.56" font-family="Times,serif" font-size="14.00">content/550:0.001</text>
</g>
<!-- q20:0.0 -->
<g id="node27" class="node">
<title>q20:0.0</title>
<ellipse fill="none" stroke="black" stroke-width="2" cx="1286.6" cy="-330.61" rx="49.1" ry="18"/>
<text text-anchor="middle" x="1286.6" y="-325.93" font-family="Times,serif" font-size="14.00">q20:0.0</text>
</g>
<!-- q17:0.0&#45;&gt;q20:0.0 -->
<g id="edge31" class="edge">
<title>q17:0.0&#45;&gt;q20:0.0</title>
<path fill="none" stroke="black" d="M1043,-358.63C1053.5,-354.69 1065.2,-350.82 1076.3,-348.36 1125.8,-337.4 1183.2,-333.11 1225.3,-331.48"/>
<polygon fill="black" stroke="black" points="1225.41,-334.98 1235.29,-331.13 1225.17,-327.98 1225.41,-334.98"/>
<text text-anchor="middle" x="1141.6" y="-351.56" font-family="Times,serif" font-size="14.00">content/554:0.003</text>
</g>
<!-- q21:0.0 -->
<g id="node28" class="node">
<title>q21:0.0</title>
<ellipse fill="none" stroke="black" stroke-width="2" cx="1286.6" cy="-438.61" rx="49.1" ry="18"/>
<text text-anchor="middle" x="1286.6" y="-433.93" font-family="Times,serif" font-size="14.00">q21:0.0</text>
</g>
<!-- q17:0.0&#45;&gt;q21:0.0 -->
<g id="edge32" class="edge">
<title>q17:0.0&#45;&gt;q21:0.0</title>
<path fill="none" stroke="black" d="M1049.2,-383.88C1058.1,-386.26 1067.5,-388.64 1076.3,-390.61 1133.8,-403.41 1149.7,-399.28 1206.8,-413.36 1217.4,-415.96 1228.6,-419.23 1239.1,-422.55"/>
<polygon fill="black" stroke="black" points="1237.77,-425.8 1248.36,-425.52 1239.91,-419.13 1237.77,-425.8"/>
<text text-anchor="middle" x="1141.6" y="-416.56" font-family="Times,serif" font-size="14.00">content/250:0.042</text>
</g>
<!-- q1:0.0 -->
<g id="node20" class="node">
<title>q1:0.0</title>
<ellipse fill="none" stroke="black" stroke-width="2" cx="243.87" cy="-54.61" rx="42.79" ry="18"/>
<text text-anchor="middle" x="243.87" y="-49.93" font-family="Times,serif" font-size="14.00">q1:0.0</text>
</g>
<!-- q1:0.0&#45;&gt;q3:0.0 -->
<g id="edge22" class="edge">
<title>q1:0.0&#45;&gt;q3:0.0</title>
<path fill="none" stroke="black" d="M285.63,-60.09C327.33,-65.71 392.3,-74.45 437.76,-80.57"/>
<polygon fill="black" stroke="black" points="437.28,-84.04 447.66,-81.91 438.22,-77.1 437.28,-84.04"/>
<text text-anchor="middle" x="364.29" y="-82.56" font-family="Times,serif" font-size="14.00">EHLO/250:0.992</text>
</g>
<!-- q2:0.0 -->
<g id="node21" class="node">
<title>q2:0.0</title>
<ellipse fill="none" stroke="black" stroke-width="2" cx="491.01" cy="-27.61" rx="42.79" ry="18"/>
<text text-anchor="middle" x="491.01" y="-22.93" font-family="Times,serif" font-size="14.00">q2:0.0</text>
</g>
<!-- q1:0.0&#45;&gt;q2:0.0 -->
<g id="edge23" class="edge">
<title>q1:0.0&#45;&gt;q2:0.0</title>
<path fill="none" stroke="black" d="M279.7,-43.84C287.82,-41.69 296.49,-39.69 304.66,-38.36 348.63,-31.19 399.14,-28.63 436.32,-27.79"/>
<polygon fill="black" stroke="black" points="435.96,-31.29 445.9,-27.61 435.83,-24.3 435.96,-31.29"/>
<text text-anchor="middle" x="364.29" y="-42.56" font-family="Times,serif" font-size="14.00">EHLO/λ:0.008</text>
</g>
<!-- q2:0.0&#45;&gt;q4:0.0 -->
<g id="edge24" class="edge">
<title>q2:0.0&#45;&gt;q4:0.0</title>
<path fill="none" stroke="black" d="M527.7,-17.33C567.62,-8.09 632.55,0 677.37,-29.36 693.76,-40.09 682.15,-55.14 695.37,-69.61 697.86,-72.33 700.68,-74.85 703.69,-77.15"/>
<polygon fill="black" stroke="black" points="701.59,-79.96 711.85,-82.61 705.49,-74.14 701.59,-79.96"/>
<text text-anchor="middle" x="617.74" y="-33.56" font-family="Times,serif" font-size="14.00">AUTH/235:1.0</text>
</g>
<!-- q22:0.0&#45;&gt;q17:0.0 -->
<g id="edge26" class="edge">
<title>q22:0.0&#45;&gt;q17:0.0</title>
<path fill="none" stroke="black" d="M1251.9,-478.95C1243,-474.96 1233.4,-470.38 1224.8,-465.61 1216.4,-460.9 1215.8,-457 1206.8,-453.36 1152.3,-431.25 1124.6,-464.27 1076.3,-430.61 1063.3,-421.5 1069.7,-410.79 1058.3,-399.61 1056.1,-397.45 1053.7,-395.4 1051.2,-393.48"/>
<polygon fill="black" stroke="black" points="1053.2,-390.6 1042.95,-387.9 1049.27,-396.4 1053.2,-390.6"/>
<text text-anchor="middle" x="1141.6" y="-456.56" font-family="Times,serif" font-size="14.00">content/λ:0.97</text>
</g>
<!-- q28:0.0 -->
<g id="node23" class="node">
<title>q28:0.0</title>
<ellipse fill="none" stroke="black" stroke-width="2" cx="1563.9" cy="-546.61" rx="49.1" ry="18"/>
<text text-anchor="middle" x="1563.9" y="-541.93" font-family="Times,serif" font-size="14.00">q28:0.0</text>
</g>
<!-- q22:0.0&#45;&gt;q28:0.0 -->
<g id="edge25" class="edge">
<title>q22:0.0&#45;&gt;q28:0.0</title>
<path fill="none" stroke="black" d="M1326.6,-503.81C1339.2,-507.21 1353.3,-510.79 1366.3,-513.61 1412.9,-523.72 1466.4,-532.51 1505.7,-538.48"/>
<polygon fill="black" stroke="black" points="1505.1,-541.93 1515.5,-539.93 1506.13,-535 1505.1,-541.93"/>
<text text-anchor="middle" x="1431.5" y="-539.56" font-family="Times,serif" font-size="14.00">content/554:0.001</text>
</g>
<!-- q29:0.0 -->
<g id="node24" class="node">
<title>q29:0.0</title>
<ellipse fill="none" stroke="black" stroke-width="2" cx="1563.9" cy="-492.61" rx="49.1" ry="18"/>
<text text-anchor="middle" x="1563.9" y="-487.93" font-family="Times,serif" font-size="14.00">q29:0.0</text>
</g>
<!-- q22:0.0&#45;&gt;q29:0.0 -->
<g id="edge27" class="edge">
<title>q22:0.0&#45;&gt;q29:0.0</title>
<path fill="none" stroke="black" d="M1336.5,-492.61C1382.9,-492.61 1452.9,-492.61 1502.7,-492.61"/>
<polygon fill="black" stroke="black" points="1502.49,-496.11 1512.49,-492.61 1502.49,-489.11 1502.49,-496.11"/>
<text text-anchor="middle" x="1431.5" y="-496.56" font-family="Times,serif" font-size="14.00">content/250:0.029</text>
</g>
<!-- q31:1.0 -->
<g id="node25" class="node">
<title>q31:1.0</title>
<ellipse fill="none" stroke="black" stroke-width="2" cx="1796.3" cy="-546.61" rx="49.1" ry="18"/>
<text text-anchor="middle" x="1796.3" y="-541.93" font-family="Times,serif" font-size="14.00">q31:1.0</text>
</g>
<!-- q28:0.0&#45;&gt;q31:1.0 -->
<g id="edge28" class="edge">
<title>q28:0.0&#45;&gt;q31:1.0</title>
<path fill="none" stroke="black" d="M1613.8,-546.61C1649.2,-546.61 1697.4,-546.61 1735.2,-546.61"/>
<polygon fill="black" stroke="black" points="1734.99,-550.11 1744.99,-546.61 1734.99,-543.11 1734.99,-550.11"/>
<text text-anchor="middle" x="1680.1" y="-550.56" font-family="Times,serif" font-size="14.00">RSET/250:1.0</text>
</g>
<!-- q32:1.0 -->
<g id="node29" class="node">
<title>q32:1.0</title>
<ellipse fill="none" stroke="black" stroke-width="2" cx="1796.3" cy="-492.61" rx="49.1" ry="18"/>
<text text-anchor="middle" x="1796.3" y="-487.93" font-family="Times,serif" font-size="14.00">q32:1.0</text>
</g>
<!-- q29:0.0&#45;&gt;q32:1.0 -->
<g id="edge33" class="edge">
<title>q29:0.0&#45;&gt;q32:1.0</title>
<path fill="none" stroke="black" d="M1613.8,-492.61C1649.2,-492.61 1697.4,-492.61 1735.2,-492.61"/>
<polygon fill="black" stroke="black" points="1734.99,-496.11 1744.99,-492.61 1734.99,-489.11 1734.99,-496.11"/>
<text text-anchor="middle" x="1680.1" y="-496.56" font-family="Times,serif" font-size="14.00">QUIT/221:1.0</text>
</g>
<!-- q30:1.0 -->
<g id="node30" class="node">
<title>q30:1.0</title>
<ellipse fill="none" stroke="black" stroke-width="2" cx="1563.9" cy="-384.61" rx="49.1" ry="18"/>
<text text-anchor="middle" x="1563.9" y="-379.93" font-family="Times,serif" font-size="14.00">q30:1.0</text>
</g>
<!-- q23:0.0&#45;&gt;q30:1.0 -->
<g id="edge34" class="edge">
<title>q23:0.0&#45;&gt;q30:1.0</title>
<path fill="none" stroke="black" d="M1336.5,-384.61C1382.9,-384.61 1452.9,-384.61 1502.7,-384.61"/>
<polygon fill="black" stroke="black" points="1502.49,-388.11 1512.49,-384.61 1502.49,-381.11 1502.49,-388.11"/>
<text text-anchor="middle" x="1431.5" y="-388.56" font-family="Times,serif" font-size="14.00">RSET/250:1.0</text>
</g>
<!-- q26:1.0 -->
<g id="node31" class="node">
<title>q26:1.0</title>
<ellipse fill="none" stroke="black" stroke-width="2" cx="1563.9" cy="-330.61" rx="49.1" ry="18"/>
<text text-anchor="middle" x="1563.9" y="-325.93" font-family="Times,serif" font-size="14.00">q26:1.0</text>
</g>
<!-- q20:0.0&#45;&gt;q26:1.0 -->
<g id="edge35" class="edge">
<title>q20:0.0&#45;&gt;q26:1.0</title>
<path fill="none" stroke="black" d="M1336.5,-330.61C1382.9,-330.61 1452.9,-330.61 1502.7,-330.61"/>
<polygon fill="black" stroke="black" points="1502.49,-334.11 1512.49,-330.61 1502.49,-327.11 1502.49,-334.11"/>
<text text-anchor="middle" x="1431.5" y="-334.56" font-family="Times,serif" font-size="14.00">RSET/250:1.0</text>
</g>
<!-- q27:1.0 -->
<g id="node32" class="node">
<title>q27:1.0</title>
<ellipse fill="none" stroke="black" stroke-width="2" cx="1563.9" cy="-438.61" rx="49.1" ry="18"/>
<text text-anchor="middle" x="1563.9" y="-433.93" font-family="Times,serif" font-size="14.00">q27:1.0</text>
</g>
<!-- q21:0.0&#45;&gt;q27:1.0 -->
<g id="edge36" class="edge">
<title>q21:0.0&#45;&gt;q27:1.0</title>
<path fill="none" stroke="black" d="M1336.5,-438.61C1382.9,-438.61 1452.9,-438.61 1502.7,-438.61"/>
<polygon fill="black" stroke="black" points="1502.49,-442.11 1512.49,-438.61 1502.49,-435.11 1502.49,-442.11"/>
<text text-anchor="middle" x="1431.5" y="-442.56" font-family="Times,serif" font-size="14.00">QUIT/221:1.0</text>
</g>
<!-- q0:0.0 -->
<g id="node33" class="node">
<title>q0:0.0</title>
<ellipse fill="none" stroke="black" stroke-width="2" cx="50.79" cy="-54.61" rx="46.79" ry="46.79"/>
<ellipse fill="none" stroke="black" stroke-width="2" cx="50.79" cy="-54.61" rx="50.79" ry="50.79"/>
<text text-anchor="middle" x="50.79" y="-49.93" font-family="Times,serif" font-size="14.00">q0:0.0</text>
</g>
<!-- q0:0.0&#45;&gt;q1:0.0 -->
<g id="edge37" class="edge">
<title>q0:0.0&#45;&gt;q1:0.0</title>
<path fill="none" stroke="black" d="M98.53,-54.61C125.82,-54.61 160.37,-54.61 188.82,-54.61"/>
<polygon fill="black" stroke="black" points="188.69,-58.11 198.69,-54.61 188.69,-51.11 188.69,-58.11"/>
<text text-anchor="middle" x="149.33" y="-58.56" font-family="Times,serif" font-size="14.00">λ/220:1.0</text>
</g>
</g>
</svg>
