<?xml version="1.0" encoding="UTF-8" standalone="no"?>
<!DOCTYPE svg PUBLIC "-//W3C//DTD SVG 1.1//EN"
 "http://www.w3.org/Graphics/SVG/1.1/DTD/svg11.dtd">
<!-- Generated by graphviz version 12.0.0 (20240803.0821)
 -->
<!-- Pages: 1 -->
<svg width="2528pt" height="316pt"
 viewBox="0.00 0.00 2527.90 316.00" xmlns="http://www.w3.org/2000/svg" xmlns:xlink="http://www.w3.org/1999/xlink">
<g id="graph0" class="graph" transform="scale(1 1) rotate(0) translate(4 312)">
<polygon fill="white" stroke="none" points="-4,4 -4,-312 2523.9,-312 2523.9,4 -4,4"/>
<!-- q2:0.0 -->
<g id="node1" class="node">
<title>q2:0.0</title>
<ellipse fill="none" stroke="black" stroke-width="2" cx="484.7" cy="-248" rx="42.79" ry="18"/>
<text text-anchor="middle" x="484.7" y="-243.32" font-family="Times,serif" font-size="14.00">q2:0.0</text>
</g>
<!-- q5:0.0 -->
<g id="node2" class="node">
<title>q5:0.0</title>
<ellipse fill="none" stroke="black" stroke-width="2" cx="725.53" cy="-282" rx="42.79" ry="18"/>
<text text-anchor="middle" x="725.53" y="-277.32" font-family="Times,serif" font-size="14.00">q5:0.0</text>
</g>
<!-- q2:0.0&#45;&gt;q5:0.0 -->
<g id="edge1" class="edge">
<title>q2:0.0&#45;&gt;q5:0.0</title>
<path fill="none" stroke="black" d="M524.89,-255.52C531.74,-256.75 538.82,-257.96 545.49,-259 587.96,-265.63 636.32,-271.76 672.06,-276.02"/>
<polygon fill="black" stroke="black" points="671.36,-279.46 681.7,-277.15 672.17,-272.51 671.36,-279.46"/>
<text text-anchor="middle" x="605.12" y="-278.94" font-family="Times,serif" font-size="14.00">AUTH/535:0.054</text>
</g>
<!-- q4:0.0 -->
<g id="node3" class="node">
<title>q4:0.0</title>
<ellipse fill="none" stroke="black" stroke-width="2" cx="725.53" cy="-222" rx="42.79" ry="18"/>
<text text-anchor="middle" x="725.53" y="-217.32" font-family="Times,serif" font-size="14.00">q4:0.0</text>
</g>
<!-- q2:0.0&#45;&gt;q4:0.0 -->
<g id="edge2" class="edge">
<title>q2:0.0&#45;&gt;q4:0.0</title>
<path fill="none" stroke="black" d="M527.03,-243.5C567.23,-239.12 628.45,-232.46 672.07,-227.71"/>
<polygon fill="black" stroke="black" points="672.24,-231.21 681.8,-226.65 671.49,-224.25 672.24,-231.21"/>
<text text-anchor="middle" x="605.12" y="-244.94" font-family="Times,serif" font-size="14.00">AUTH/235:0.942</text>
</g>
<!-- q6:0.0 -->
<g id="node4" class="node">
<title>q6:0.0</title>
<ellipse fill="none" stroke="black" stroke-width="2" cx="725.53" cy="-160" rx="42.79" ry="18"/>
<text text-anchor="middle" x="725.53" y="-155.32" font-family="Times,serif" font-size="14.00">q6:0.0</text>
</g>
<!-- q2:0.0&#45;&gt;q6:0.0 -->
<g id="edge3" class="edge">
<title>q2:0.0&#45;&gt;q6:0.0</title>
<path fill="none" stroke="black" d="M513.37,-233.7C518.56,-230.08 523.58,-225.83 527.49,-221 541.63,-203.53 527.49,-187.2 545.49,-173.75 582.23,-146.29 635.88,-145.86 674.87,-150.45"/>
<polygon fill="black" stroke="black" points="674.32,-153.91 684.7,-151.77 675.25,-146.97 674.32,-153.91"/>
<text text-anchor="middle" x="605.12" y="-177.94" font-family="Times,serif" font-size="14.00">AUTH/λ:0.004</text>
</g>
<!-- q9:0.0 -->
<g id="node5" class="node">
<title>q9:0.0</title>
<ellipse fill="none" stroke="black" stroke-width="2" cx="961.86" cy="-290" rx="42.79" ry="18"/>
<text text-anchor="middle" x="961.86" y="-285.32" font-family="Times,serif" font-size="14.00">q9:0.0</text>
</g>
<!-- q5:0.0&#45;&gt;q9:0.0 -->
<g id="edge4" class="edge">
<title>q5:0.0&#45;&gt;q9:0.0</title>
<path fill="none" stroke="black" d="M768.97,-283.45C807.67,-284.77 865.03,-286.73 906.96,-288.16"/>
<polygon fill="black" stroke="black" points="906.72,-291.65 916.84,-288.5 906.96,-284.66 906.72,-291.65"/>
<text text-anchor="middle" x="843.7" y="-290.94" font-family="Times,serif" font-size="14.00">AUTH/334:1.0</text>
</g>
<!-- q8:0.0 -->
<g id="node6" class="node">
<title>q8:0.0</title>
<ellipse fill="none" stroke="black" stroke-width="2" cx="961.86" cy="-236" rx="42.79" ry="18"/>
<text text-anchor="middle" x="961.86" y="-231.32" font-family="Times,serif" font-size="14.00">q8:0.0</text>
</g>
<!-- q4:0.0&#45;&gt;q8:0.0 -->
<g id="edge5" class="edge">
<title>q4:0.0&#45;&gt;q8:0.0</title>
<path fill="none" stroke="black" d="M768.7,-224.52C807.48,-226.84 865.18,-230.28 907.23,-232.8"/>
<polygon fill="black" stroke="black" points="906.94,-236.29 917.13,-233.39 907.35,-229.3 906.94,-236.29"/>
<text text-anchor="middle" x="843.7" y="-235.94" font-family="Times,serif" font-size="14.00">MAIL/553:0.013</text>
</g>
<!-- q7:0.0 -->
<g id="node7" class="node">
<title>q7:0.0</title>
<ellipse fill="none" stroke="black" stroke-width="2" cx="961.86" cy="-166" rx="42.79" ry="18"/>
<text text-anchor="middle" x="961.86" y="-161.32" font-family="Times,serif" font-size="14.00">q7:0.0</text>
</g>
<!-- q4:0.0&#45;&gt;q7:0.0 -->
<g id="edge6" class="edge">
<title>q4:0.0&#45;&gt;q7:0.0</title>
<path fill="none" stroke="black" d="M760.86,-210.99C769.15,-208.47 778.02,-205.91 786.32,-203.75 809.53,-197.71 868.41,-185.19 911.39,-176.22"/>
<polygon fill="black" stroke="black" points="911.93,-179.68 921.01,-174.22 910.5,-172.83 911.93,-179.68"/>
<text text-anchor="middle" x="843.7" y="-206.94" font-family="Times,serif" font-size="14.00">MAIL/250:0.987</text>
</g>
<!-- q6:0.0&#45;&gt;q7:0.0 -->
<g id="edge7" class="edge">
<title>q6:0.0&#45;&gt;q7:0.0</title>
<path fill="none" stroke="black" d="M769.24,-159.19C804.59,-158.76 856.12,-158.68 901.07,-160.75 903.39,-160.86 905.76,-160.98 908.15,-161.13"/>
<polygon fill="black" stroke="black" points="907.67,-164.61 917.89,-161.81 908.16,-157.62 907.67,-164.61"/>
<text text-anchor="middle" x="843.7" y="-164.94" font-family="Times,serif" font-size="14.00">MAIL/250:1.0</text>
</g>
<!-- q12:0.692 -->
<g id="node8" class="node">
<title>q12:0.692</title>
<ellipse fill="none" stroke="black" stroke-width="2" cx="1214.9" cy="-290" rx="61.73" ry="18"/>
<text text-anchor="middle" x="1214.9" y="-285.32" font-family="Times,serif" font-size="14.00">q12:0.692</text>
</g>
<!-- q9:0.0&#45;&gt;q12:0.692 -->
<g id="edge8" class="edge">
<title>q9:0.0&#45;&gt;q12:0.692</title>
<path fill="none" stroke="black" d="M1005.4,-290C1042.4,-290 1096.8,-290 1140.7,-290"/>
<polygon fill="black" stroke="black" points="1140.69,-293.5 1150.69,-290 1140.69,-286.5 1140.69,-293.5"/>
<text text-anchor="middle" x="1078.9" y="-293.94" font-family="Times,serif" font-size="14.00">content/535:1.0</text>
</g>
<!-- q11:1.0 -->
<g id="node9" class="node">
<title>q11:1.0</title>
<ellipse fill="none" stroke="black" stroke-width="2" cx="1214.9" cy="-236" rx="49.1" ry="18"/>
<text text-anchor="middle" x="1214.9" y="-231.32" font-family="Times,serif" font-size="14.00">q11:1.0</text>
</g>
<!-- q8:0.0&#45;&gt;q11:1.0 -->
<g id="edge9" class="edge">
<title>q8:0.0&#45;&gt;q11:1.0</title>
<path fill="none" stroke="black" d="M1005.4,-236C1046.2,-236 1108,-236 1153.8,-236"/>
<polygon fill="black" stroke="black" points="1153.59,-239.5 1163.59,-236 1153.59,-232.5 1153.59,-239.5"/>
<text text-anchor="middle" x="1078.9" y="-239.94" font-family="Times,serif" font-size="14.00">RSET/250:1.0</text>
</g>
<!-- q10:0.0 -->
<g id="node10" class="node">
<title>q10:0.0</title>
<ellipse fill="none" stroke="black" stroke-width="2" cx="1214.9" cy="-126" rx="49.1" ry="18"/>
<text text-anchor="middle" x="1214.9" y="-121.33" font-family="Times,serif" font-size="14.00">q10:0.0</text>
</g>
<!-- q7:0.0&#45;&gt;q10:0.0 -->
<g id="edge10" class="edge">
<title>q7:0.0&#45;&gt;q10:0.0</title>
<path fill="none" stroke="black" d="M997.4,-155C1005.6,-152.68 1014.4,-150.42 1022.7,-148.75 1066.5,-139.89 1116.7,-134.08 1154.6,-130.55"/>
<polygon fill="black" stroke="black" points="1154.84,-134.04 1164.49,-129.66 1154.22,-127.07 1154.84,-134.04"/>
<text text-anchor="middle" x="1078.9" y="-152.94" font-family="Times,serif" font-size="14.00">RCPT/250:1.0</text>
</g>
<!-- q15:1.0 -->
<g id="node11" class="node">
<title>q15:1.0</title>
<ellipse fill="none" stroke="black" stroke-width="2" cx="1469" cy="-290" rx="49.1" ry="18"/>
<text text-anchor="middle" x="1469" y="-285.32" font-family="Times,serif" font-size="14.00">q15:1.0</text>
</g>
<!-- q12:0.692&#45;&gt;q15:1.0 -->
<g id="edge11" class="edge">
<title>q12:0.692&#45;&gt;q15:1.0</title>
<path fill="none" stroke="black" d="M1277.5,-290C1317.2,-290 1368.5,-290 1407.9,-290"/>
<polygon fill="black" stroke="black" points="1407.59,-293.5 1417.59,-290 1407.59,-286.5 1407.59,-293.5"/>
<text text-anchor="middle" x="1348.2" y="-293.94" font-family="Times,serif" font-size="14.00">λ/451:0.308</text>
</g>
<!-- q13:0.0 -->
<g id="node12" class="node">
<title>q13:0.0</title>
<ellipse fill="none" stroke="black" stroke-width="2" cx="1469" cy="-180" rx="49.1" ry="18"/>
<text text-anchor="middle" x="1469" y="-175.32" font-family="Times,serif" font-size="14.00">q13:0.0</text>
</g>
<!-- q10:0.0&#45;&gt;q13:0.0 -->
<g id="edge12" class="edge">
<title>q10:0.0&#45;&gt;q13:0.0</title>
<path fill="none" stroke="black" d="M1264.5,-127.7C1302.5,-130.04 1356.4,-135.59 1401.9,-148.75 1411.3,-151.49 1421.1,-155.44 1430.2,-159.62"/>
<polygon fill="black" stroke="black" points="1428.51,-162.69 1439.04,-163.9 1431.56,-156.39 1428.51,-162.69"/>
<text text-anchor="middle" x="1348.2" y="-152.94" font-family="Times,serif" font-size="14.00">RCPT/250:0.61</text>
</g>
<!-- q14:0.0 -->
<g id="node13" class="node">
<title>q14:0.0</title>
<ellipse fill="none" stroke="black" stroke-width="2" cx="1469" cy="-92" rx="49.1" ry="18"/>
<text text-anchor="middle" x="1469" y="-87.33" font-family="Times,serif" font-size="14.00">q14:0.0</text>
</g>
<!-- q10:0.0&#45;&gt;q14:0.0 -->
<g id="edge13" class="edge">
<title>q10:0.0&#45;&gt;q14:0.0</title>
<path fill="none" stroke="black" d="M1254,-114.15C1266.8,-110.59 1281.2,-107.03 1294.6,-104.75 1331.9,-98.41 1374.2,-95.22 1407.6,-93.62"/>
<polygon fill="black" stroke="black" points="1407.75,-97.12 1417.59,-93.18 1407.44,-90.12 1407.75,-97.12"/>
<text text-anchor="middle" x="1348.2" y="-108.95" font-family="Times,serif" font-size="14.00">DATA/354:0.39</text>
</g>
<!-- q13:0.0&#45;&gt;q7:0.0 -->
<g id="edge24" class="edge">
<title>q13:0.0&#45;&gt;q7:0.0</title>
<path fill="none" stroke="black" d="M1419,-178.64C1324.1,-176.01 1115.8,-170.24 1017,-167.5"/>
<polygon fill="black" stroke="black" points="1017.11,-164 1007.01,-167.22 1016.91,-171 1017.11,-164"/>
<text text-anchor="middle" x="1214.9" y="-178.94" font-family="Times,serif" font-size="14.00">RCPT/250:0.021</text>
</g>
<!-- q17:0.0 -->
<g id="node16" class="node">
<title>q17:0.0</title>
<ellipse fill="none" stroke="black" stroke-width="2" cx="1973.7" cy="-180" rx="49.1" ry="18"/>
<text text-anchor="middle" x="1973.7" y="-175.32" font-family="Times,serif" font-size="14.00">q17:0.0</text>
</g>
<!-- q13:0.0&#45;&gt;q17:0.0 -->
<g id="edge25" class="edge">
<title>q13:0.0&#45;&gt;q17:0.0</title>
<path fill="none" stroke="black" d="M1518.6,-180C1610.9,-180 1811.3,-180 1912.1,-180"/>
<polygon fill="black" stroke="black" points="1912.09,-183.5 1922.09,-180 1912.09,-176.5 1912.09,-183.5"/>
<text text-anchor="middle" x="1737.4" y="-183.94" font-family="Times,serif" font-size="14.00">DATA/354:0.78</text>
</g>
<!-- q16:1.0 -->
<g id="node23" class="node">
<title>q16:1.0</title>
<ellipse fill="none" stroke="black" stroke-width="2" cx="1737.4" cy="-233" rx="49.1" ry="18"/>
<text text-anchor="middle" x="1737.4" y="-228.32" font-family="Times,serif" font-size="14.00">q16:1.0</text>
</g>
<!-- q13:0.0&#45;&gt;q16:1.0 -->
<g id="edge26" class="edge">
<title>q13:0.0&#45;&gt;q16:1.0</title>
<path fill="none" stroke="black" d="M1512.6,-189.14C1520.4,-190.78 1528.5,-192.46 1536.1,-194 1585.2,-203.98 1641.2,-214.83 1681.4,-222.55"/>
<polygon fill="black" stroke="black" points="1680.63,-225.97 1691.11,-224.41 1681.95,-219.09 1680.63,-225.97"/>
<text text-anchor="middle" x="1601.3" y="-222.94" font-family="Times,serif" font-size="14.00">DATA/550:0.199</text>
</g>
<!-- q19:0.0 -->
<g id="node24" class="node">
<title>q19:0.0</title>
<ellipse fill="none" stroke="black" stroke-width="2" cx="1737.4" cy="-18" rx="49.1" ry="18"/>
<text text-anchor="middle" x="1737.4" y="-13.32" font-family="Times,serif" font-size="14.00">q19:0.0</text>
</g>
<!-- q14:0.0&#45;&gt;q19:0.0 -->
<g id="edge27" class="edge">
<title>q14:0.0&#45;&gt;q19:0.0</title>
<path fill="none" stroke="black" d="M1492.4,-75.37C1504.7,-67.04 1520.6,-57.52 1536.1,-51.75 1581.6,-34.77 1636.1,-26.3 1676.8,-22.09"/>
<polygon fill="black" stroke="black" points="1677.08,-25.57 1686.69,-21.13 1676.4,-18.61 1677.08,-25.57"/>
<text text-anchor="middle" x="1601.3" y="-55.95" font-family="Times,serif" font-size="14.00">content/250:0.233</text>
</g>
<!-- q18:0.0 -->
<g id="node25" class="node">
<title>q18:0.0</title>
<ellipse fill="none" stroke="black" stroke-width="2" cx="1737.4" cy="-72" rx="49.1" ry="18"/>
<text text-anchor="middle" x="1737.4" y="-67.33" font-family="Times,serif" font-size="14.00">q18:0.0</text>
</g>
<!-- q14:0.0&#45;&gt;q18:0.0 -->
<g id="edge28" class="edge">
<title>q14:0.0&#45;&gt;q18:0.0</title>
<path fill="none" stroke="black" d="M1512.9,-83.12C1520.6,-81.79 1528.5,-80.59 1536.1,-79.75 1583,-74.52 1636.4,-72.66 1676.3,-72.06"/>
<polygon fill="black" stroke="black" points="1676.23,-75.56 1686.19,-71.94 1676.14,-68.56 1676.23,-75.56"/>
<text text-anchor="middle" x="1601.3" y="-83.95" font-family="Times,serif" font-size="14.00">content/λ:0.022</text>
</g>
<!-- q20:0.0 -->
<g id="node26" class="node">
<title>q20:0.0</title>
<ellipse fill="none" stroke="black" stroke-width="2" cx="1737.4" cy="-126" rx="49.1" ry="18"/>
<text text-anchor="middle" x="1737.4" y="-121.33" font-family="Times,serif" font-size="14.00">q20:0.0</text>
</g>
<!-- q14:0.0&#45;&gt;q20:0.0 -->
<g id="edge29" class="edge">
<title>q14:0.0&#45;&gt;q20:0.0</title>
<path fill="none" stroke="black" d="M1516.4,-97.92C1561.5,-103.68 1630.2,-112.45 1678.8,-118.65"/>
<polygon fill="black" stroke="black" points="1678.24,-122.11 1688.6,-119.9 1679.12,-115.16 1678.24,-122.11"/>
<text text-anchor="middle" x="1601.3" y="-120.95" font-family="Times,serif" font-size="14.00">content/554:0.744</text>
</g>
<!-- q1:0.0 -->
<g id="node14" class="node">
<title>q1:0.0</title>
<ellipse fill="none" stroke="black" stroke-width="2" cx="243.87" cy="-221" rx="42.79" ry="18"/>
<text text-anchor="middle" x="243.87" y="-216.32" font-family="Times,serif" font-size="14.00">q1:0.0</text>
</g>
<!-- q1:0.0&#45;&gt;q2:0.0 -->
<g id="edge14" class="edge">
<title>q1:0.0&#45;&gt;q2:0.0</title>
<path fill="none" stroke="black" d="M286.2,-225.67C326.4,-230.22 387.62,-237.14 431.24,-242.07"/>
<polygon fill="black" stroke="black" points="430.65,-245.53 440.98,-243.17 431.43,-238.57 430.65,-245.53"/>
<text text-anchor="middle" x="364.29" y="-243.94" font-family="Times,serif" font-size="14.00">EHLO/250:0.992</text>
</g>
<!-- q3:0.0 -->
<g id="node15" class="node">
<title>q3:0.0</title>
<ellipse fill="none" stroke="black" stroke-width="2" cx="484.7" cy="-194" rx="42.79" ry="18"/>
<text text-anchor="middle" x="484.7" y="-189.32" font-family="Times,serif" font-size="14.00">q3:0.0</text>
</g>
<!-- q1:0.0&#45;&gt;q3:0.0 -->
<g id="edge15" class="edge">
<title>q1:0.0&#45;&gt;q3:0.0</title>
<path fill="none" stroke="black" d="M281.36,-211.31C289.02,-209.56 297.07,-207.92 304.66,-206.75 346.49,-200.32 394.32,-197.12 430.02,-195.54"/>
<polygon fill="black" stroke="black" points="429.8,-199.05 439.65,-195.14 429.51,-192.06 429.8,-199.05"/>
<text text-anchor="middle" x="364.29" y="-209.94" font-family="Times,serif" font-size="14.00">EHLO/λ:0.008</text>
</g>
<!-- q3:0.0&#45;&gt;q4:0.0 -->
<g id="edge16" class="edge">
<title>q3:0.0&#45;&gt;q4:0.0</title>
<path fill="none" stroke="black" d="M528.27,-194.89C564.7,-196.17 618.44,-199.26 664.74,-206.75 669.02,-207.44 673.44,-208.3 677.85,-209.25"/>
<polygon fill="black" stroke="black" points="676.7,-212.58 687.23,-211.42 678.28,-205.76 676.7,-212.58"/>
<text text-anchor="middle" x="605.12" y="-209.94" font-family="Times,serif" font-size="14.00">AUTH/235:1.0</text>
</g>
<!-- q17:0.0&#45;&gt;q17:0.0 -->
<g id="edge17" class="edge">
<title>q17:0.0&#45;&gt;q17:0.0</title>
<path fill="none" stroke="black" d="M1953.1,-197.04C1948.9,-206.86 1955.7,-216 1973.7,-216 1984,-216 1990.7,-212.94 1993.7,-208.47"/>
<polygon fill="black" stroke="black" points="1997.19,-208.72 1994.22,-198.55 1990.2,-208.35 1997.19,-208.72"/>
<text text-anchor="middle" x="1973.7" y="-219.94" font-family="Times,serif" font-size="14.00">content/λ:0.962</text>
</g>
<!-- q23:0.0 -->
<g id="node17" class="node">
<title>q23:0.0</title>
<ellipse fill="none" stroke="black" stroke-width="2" cx="2238.4" cy="-234" rx="49.1" ry="18"/>
<text text-anchor="middle" x="2238.4" y="-229.32" font-family="Times,serif" font-size="14.00">q23:0.0</text>
</g>
<!-- q17:0.0&#45;&gt;q23:0.0 -->
<g id="edge18" class="edge">
<title>q17:0.0&#45;&gt;q23:0.0</title>
<path fill="none" stroke="black" d="M2011.1,-192.59C2020.7,-195.62 2031.1,-198.65 2040.8,-201 2087,-212.17 2140.3,-220.85 2179.7,-226.51"/>
<polygon fill="black" stroke="black" points="2179.01,-229.95 2189.4,-227.88 2179.99,-223.02 2179.01,-229.95"/>
<text text-anchor="middle" x="2106" y="-227.94" font-family="Times,serif" font-size="14.00">content/550:0.0</text>
</g>
<!-- q21:0.0 -->
<g id="node18" class="node">
<title>q21:0.0</title>
<ellipse fill="none" stroke="black" stroke-width="2" cx="2238.4" cy="-180" rx="49.1" ry="18"/>
<text text-anchor="middle" x="2238.4" y="-175.32" font-family="Times,serif" font-size="14.00">q21:0.0</text>
</g>
<!-- q17:0.0&#45;&gt;q21:0.0 -->
<g id="edge19" class="edge">
<title>q17:0.0&#45;&gt;q21:0.0</title>
<path fill="none" stroke="black" d="M2023.5,-180C2066.8,-180 2130.4,-180 2176.9,-180"/>
<polygon fill="black" stroke="black" points="2176.89,-183.5 2186.89,-180 2176.89,-176.5 2176.89,-183.5"/>
<text text-anchor="middle" x="2106" y="-183.94" font-family="Times,serif" font-size="14.00">content/554:0.002</text>
</g>
<!-- q22:0.0 -->
<g id="node19" class="node">
<title>q22:0.0</title>
<ellipse fill="none" stroke="black" stroke-width="2" cx="2238.4" cy="-126" rx="49.1" ry="18"/>
<text text-anchor="middle" x="2238.4" y="-121.33" font-family="Times,serif" font-size="14.00">q22:0.0</text>
</g>
<!-- q17:0.0&#45;&gt;q22:0.0 -->
<g id="edge20" class="edge">
<title>q17:0.0&#45;&gt;q22:0.0</title>
<path fill="none" stroke="black" d="M2010.8,-167.35C2020.4,-164.25 2030.9,-161.14 2040.8,-158.75 2087,-147.54 2140.2,-138.92 2179.7,-133.35"/>
<polygon fill="black" stroke="black" points="2179.98,-136.84 2189.4,-132 2179.01,-129.91 2179.98,-136.84"/>
<text text-anchor="middle" x="2106" y="-162.94" font-family="Times,serif" font-size="14.00">content/250:0.035</text>
</g>
<!-- q28:1.0 -->
<g id="node20" class="node">
<title>q28:1.0</title>
<ellipse fill="none" stroke="black" stroke-width="2" cx="2470.8" cy="-234" rx="49.1" ry="18"/>
<text text-anchor="middle" x="2470.8" y="-229.32" font-family="Times,serif" font-size="14.00">q28:1.0</text>
</g>
<!-- q23:0.0&#45;&gt;q28:1.0 -->
<g id="edge21" class="edge">
<title>q23:0.0&#45;&gt;q28:1.0</title>
<path fill="none" stroke="black" d="M2288.3,-234C2323.7,-234 2371.8,-234 2409.7,-234"/>
<polygon fill="black" stroke="black" points="2409.49,-237.5 2419.49,-234 2409.49,-230.5 2409.49,-237.5"/>
<text text-anchor="middle" x="2354.6" y="-237.94" font-family="Times,serif" font-size="14.00">RSET/250:1.0</text>
</g>
<!-- q26:1.0 -->
<g id="node21" class="node">
<title>q26:1.0</title>
<ellipse fill="none" stroke="black" stroke-width="2" cx="2470.8" cy="-180" rx="49.1" ry="18"/>
<text text-anchor="middle" x="2470.8" y="-175.32" font-family="Times,serif" font-size="14.00">q26:1.0</text>
</g>
<!-- q21:0.0&#45;&gt;q26:1.0 -->
<g id="edge22" class="edge">
<title>q21:0.0&#45;&gt;q26:1.0</title>
<path fill="none" stroke="black" d="M2288.3,-180C2323.7,-180 2371.8,-180 2409.7,-180"/>
<polygon fill="black" stroke="black" points="2409.49,-183.5 2419.49,-180 2409.49,-176.5 2409.49,-183.5"/>
<text text-anchor="middle" x="2354.6" y="-183.94" font-family="Times,serif" font-size="14.00">RSET/250:1.0</text>
</g>
<!-- q27:1.0 -->
<g id="node22" class="node">
<title>q27:1.0</title>
<ellipse fill="none" stroke="black" stroke-width="2" cx="2470.8" cy="-126" rx="49.1" ry="18"/>
<text text-anchor="middle" x="2470.8" y="-121.33" font-family="Times,serif" font-size="14.00">q27:1.0</text>
</g>
<!-- q22:0.0&#45;&gt;q27:1.0 -->
<g id="edge23" class="edge">
<title>q22:0.0&#45;&gt;q27:1.0</title>
<path fill="none" stroke="black" d="M2288.3,-126C2323.7,-126 2371.8,-126 2409.7,-126"/>
<polygon fill="black" stroke="black" points="2409.49,-129.5 2419.49,-126 2409.49,-122.5 2409.49,-129.5"/>
<text text-anchor="middle" x="2354.6" y="-129.94" font-family="Times,serif" font-size="14.00">QUIT/221:1.0</text>
</g>
<!-- q24:1.0 -->
<g id="node28" class="node">
<title>q24:1.0</title>
<ellipse fill="none" stroke="black" stroke-width="2" cx="1973.7" cy="-18" rx="49.1" ry="18"/>
<text text-anchor="middle" x="1973.7" y="-13.32" font-family="Times,serif" font-size="14.00">q24:1.0</text>
</g>
<!-- q19:0.0&#45;&gt;q24:1.0 -->
<g id="edge31" class="edge">
<title>q19:0.0&#45;&gt;q24:1.0</title>
<path fill="none" stroke="black" d="M1787.5,-18C1823.9,-18 1873.7,-18 1912.5,-18"/>
<polygon fill="black" stroke="black" points="1912.09,-21.5 1922.09,-18 1912.09,-14.5 1912.09,-21.5"/>
<text text-anchor="middle" x="1857.4" y="-21.95" font-family="Times,serif" font-size="14.00">QUIT/221:1.0</text>
</g>
<!-- q18:0.0&#45;&gt;q17:0.0 -->
<g id="edge32" class="edge">
<title>q18:0.0&#45;&gt;q17:0.0</title>
<path fill="none" stroke="black" d="M1786.9,-69.4C1823.8,-70.02 1873.6,-76.78 1906.6,-104.75 1924,-119.55 1909.7,-135.62 1924.6,-153 1926.6,-155.39 1928.9,-157.61 1931.4,-159.66"/>
<polygon fill="black" stroke="black" points="1928.9,-162.17 1939.07,-165.14 1932.97,-156.48 1928.9,-162.17"/>
<text text-anchor="middle" x="1857.4" y="-108.95" font-family="Times,serif" font-size="14.00">content/λ:1.0</text>
</g>
<!-- q25:1.0 -->
<g id="node29" class="node">
<title>q25:1.0</title>
<ellipse fill="none" stroke="black" stroke-width="2" cx="1973.7" cy="-126" rx="49.1" ry="18"/>
<text text-anchor="middle" x="1973.7" y="-121.33" font-family="Times,serif" font-size="14.00">q25:1.0</text>
</g>
<!-- q20:0.0&#45;&gt;q25:1.0 -->
<g id="edge33" class="edge">
<title>q20:0.0&#45;&gt;q25:1.0</title>
<path fill="none" stroke="black" d="M1787.5,-126C1823.9,-126 1873.7,-126 1912.5,-126"/>
<polygon fill="black" stroke="black" points="1912.09,-129.5 1922.09,-126 1912.09,-122.5 1912.09,-129.5"/>
<text text-anchor="middle" x="1857.4" y="-129.94" font-family="Times,serif" font-size="14.00">RSET/250:1.0</text>
</g>
<!-- q0:0.0 -->
<g id="node27" class="node">
<title>q0:0.0</title>
<ellipse fill="none" stroke="black" stroke-width="2" cx="50.79" cy="-221" rx="46.79" ry="46.79"/>
<ellipse fill="none" stroke="black" stroke-width="2" cx="50.79" cy="-221" rx="50.79" ry="50.79"/>
<text text-anchor="middle" x="50.79" y="-216.32" font-family="Times,serif" font-size="14.00">q0:0.0</text>
</g>
<!-- q0:0.0&#45;&gt;q1:0.0 -->
<g id="edge30" class="edge">
<title>q0:0.0&#45;&gt;q1:0.0</title>
<path fill="none" stroke="black" d="M98.53,-221C125.82,-221 160.37,-221 188.82,-221"/>
<polygon fill="black" stroke="black" points="188.69,-224.5 198.69,-221 188.69,-217.5 188.69,-224.5"/>
<text text-anchor="middle" x="149.33" y="-224.94" font-family="Times,serif" font-size="14.00">λ/220:1.0</text>
</g>
</g>
</svg>
