<?xml version="1.0" encoding="UTF-8" standalone="no"?>
<!DOCTYPE svg PUBLIC "-//W3C//DTD SVG 1.1//EN"
 "http://www.w3.org/Graphics/SVG/1.1/DTD/svg11.dtd">
<!-- Generated by graphviz version 12.0.0 (20240803.0821)
 -->
<!-- Pages: 1 -->
<svg width="2024pt" height="314pt"
 viewBox="0.00 0.00 2023.50 314.00" xmlns="http://www.w3.org/2000/svg" xmlns:xlink="http://www.w3.org/1999/xlink">
<g id="graph0" class="graph" transform="scale(1 1) rotate(0) translate(4 310)">
<polygon fill="white" stroke="none" points="-4,4 -4,-310 2019.5,-310 2019.5,4 -4,4"/>
<!-- q8:0.0 -->
<g id="node1" class="node">
<title>q8:0.0</title>
<ellipse fill="none" stroke="black" stroke-width="2" cx="961.86" cy="-152" rx="42.79" ry="18"/>
<text text-anchor="middle" x="961.86" y="-147.32" font-family="Times,serif" font-size="14.00">q8:0.0</text>
</g>
<!-- q8:0.0&#45;&gt;q8:0.0 -->
<g id="edge1" class="edge">
<title>q8:0.0&#45;&gt;q8:0.0</title>
<path fill="none" stroke="black" d="M941.09,-168.66C936.48,-178.62 943.4,-188 961.86,-188 972.83,-188 979.72,-184.69 982.55,-179.92"/>
<polygon fill="black" stroke="black" points="986.05,-180.2 982.62,-170.17 979.05,-180.15 986.05,-180.2"/>
<text text-anchor="middle" x="961.86" y="-191.94" font-family="Times,serif" font-size="14.00">RCPT/250:0.622</text>
</g>
<!-- q11:0.0 -->
<g id="node2" class="node">
<title>q11:0.0</title>
<ellipse fill="none" stroke="black" stroke-width="2" cx="1204.5" cy="-142" rx="49.1" ry="18"/>
<text text-anchor="middle" x="1204.5" y="-137.32" font-family="Times,serif" font-size="14.00">q11:0.0</text>
</g>
<!-- q8:0.0&#45;&gt;q11:0.0 -->
<g id="edge2" class="edge">
<title>q8:0.0&#45;&gt;q11:0.0</title>
<path fill="none" stroke="black" d="M1005.3,-150.24C1043.6,-148.64 1100.4,-146.28 1143.4,-144.5"/>
<polygon fill="black" stroke="black" points="1143.44,-148 1153.29,-144.08 1143.15,-141.01 1143.44,-148"/>
<text text-anchor="middle" x="1080" y="-153.94" font-family="Times,serif" font-size="14.00">DATA/354:0.308</text>
</g>
<!-- q12:1.0 -->
<g id="node3" class="node">
<title>q12:1.0</title>
<ellipse fill="none" stroke="black" stroke-width="2" cx="1204.5" cy="-196" rx="49.1" ry="18"/>
<text text-anchor="middle" x="1204.5" y="-191.32" font-family="Times,serif" font-size="14.00">q12:1.0</text>
</g>
<!-- q8:0.0&#45;&gt;q12:1.0 -->
<g id="edge3" class="edge">
<title>q8:0.0&#45;&gt;q12:1.0</title>
<path fill="none" stroke="black" d="M996.11,-163.67C1004.7,-166.37 1013.9,-169.03 1022.7,-171 1063,-180.12 1109.1,-186.44 1144.7,-190.44"/>
<polygon fill="black" stroke="black" points="1144.07,-193.89 1154.39,-191.5 1144.83,-186.93 1144.07,-193.89"/>
<text text-anchor="middle" x="1080" y="-192.94" font-family="Times,serif" font-size="14.00">DATA/550:0.07</text>
</g>
<!-- q15:0.0 -->
<g id="node4" class="node">
<title>q15:0.0</title>
<ellipse fill="none" stroke="black" stroke-width="2" cx="1469.2" cy="-277" rx="49.1" ry="18"/>
<text text-anchor="middle" x="1469.2" y="-272.32" font-family="Times,serif" font-size="14.00">q15:0.0</text>
</g>
<!-- q11:0.0&#45;&gt;q15:0.0 -->
<g id="edge4" class="edge">
<title>q11:0.0&#45;&gt;q15:0.0</title>
<path fill="none" stroke="black" d="M1237.8,-156.01C1243.6,-159.61 1249.2,-163.93 1253.6,-169 1268.2,-185.93 1255.3,-200.7 1271.6,-216 1308.8,-250.88 1365.7,-265.83 1408.7,-272.23"/>
<polygon fill="black" stroke="black" points="1408.02,-275.67 1418.4,-273.55 1408.96,-268.73 1408.02,-275.67"/>
<text text-anchor="middle" x="1336.9" y="-273.94" font-family="Times,serif" font-size="14.00">content/550:0.001</text>
</g>
<!-- q17:0.0 -->
<g id="node5" class="node">
<title>q17:0.0</title>
<ellipse fill="none" stroke="black" stroke-width="2" cx="1469.2" cy="-126" rx="49.1" ry="18"/>
<text text-anchor="middle" x="1469.2" y="-121.33" font-family="Times,serif" font-size="14.00">q17:0.0</text>
</g>
<!-- q11:0.0&#45;&gt;q17:0.0 -->
<g id="edge5" class="edge">
<title>q11:0.0&#45;&gt;q17:0.0</title>
<path fill="none" stroke="black" d="M1241.8,-129.43C1251.4,-126.67 1261.8,-124.15 1271.6,-122.75 1317.6,-116.18 1370.4,-117.53 1409.6,-120.22"/>
<polygon fill="black" stroke="black" points="1409.36,-123.71 1419.59,-120.96 1409.87,-116.73 1409.36,-123.71"/>
<text text-anchor="middle" x="1336.9" y="-126.95" font-family="Times,serif" font-size="14.00">content/250:0.057</text>
</g>
<!-- q16:0.0 -->
<g id="node6" class="node">
<title>q16:0.0</title>
<ellipse fill="none" stroke="black" stroke-width="2" cx="1469.2" cy="-72" rx="49.1" ry="18"/>
<text text-anchor="middle" x="1469.2" y="-67.33" font-family="Times,serif" font-size="14.00">q16:0.0</text>
</g>
<!-- q11:0.0&#45;&gt;q16:0.0 -->
<g id="edge6" class="edge">
<title>q11:0.0&#45;&gt;q16:0.0</title>
<path fill="none" stroke="black" d="M1225.2,-124.79C1237.7,-114.91 1254.6,-103.21 1271.6,-96.75 1315.4,-80.14 1368.2,-74.19 1408,-72.27"/>
<polygon fill="black" stroke="black" points="1408.04,-75.77 1417.89,-71.87 1407.75,-68.78 1408.04,-75.77"/>
<text text-anchor="middle" x="1336.9" y="-100.95" font-family="Times,serif" font-size="14.00">content/554:0.051</text>
</g>
<!-- q14:0.0 -->
<g id="node7" class="node">
<title>q14:0.0</title>
<ellipse fill="none" stroke="black" stroke-width="2" cx="1469.2" cy="-191" rx="49.1" ry="18"/>
<text text-anchor="middle" x="1469.2" y="-186.32" font-family="Times,serif" font-size="14.00">q14:0.0</text>
</g>
<!-- q11:0.0&#45;&gt;q14:0.0 -->
<g id="edge7" class="edge">
<title>q11:0.0&#45;&gt;q14:0.0</title>
<path fill="none" stroke="black" d="M1254.3,-143.12C1294.5,-144.99 1352.8,-149.92 1402.1,-162.75 1410.8,-165 1419.8,-168.21 1428.2,-171.66"/>
<polygon fill="black" stroke="black" points="1426.64,-174.8 1437.21,-175.51 1429.39,-168.36 1426.64,-174.8"/>
<text text-anchor="middle" x="1336.9" y="-166.94" font-family="Times,serif" font-size="14.00">content/λ:0.891</text>
</g>
<!-- q21:1.0 -->
<g id="node8" class="node">
<title>q21:1.0</title>
<ellipse fill="none" stroke="black" stroke-width="2" cx="1733.9" cy="-288" rx="49.1" ry="18"/>
<text text-anchor="middle" x="1733.9" y="-283.32" font-family="Times,serif" font-size="14.00">q21:1.0</text>
</g>
<!-- q15:0.0&#45;&gt;q21:1.0 -->
<g id="edge8" class="edge">
<title>q15:0.0&#45;&gt;q21:1.0</title>
<path fill="none" stroke="black" d="M1519,-279.04C1562.5,-280.86 1626.3,-283.54 1672.9,-285.49"/>
<polygon fill="black" stroke="black" points="1672.75,-288.99 1682.89,-285.91 1673.04,-281.99 1672.75,-288.99"/>
<text text-anchor="middle" x="1601.6" y="-288.94" font-family="Times,serif" font-size="14.00">RSET/250:1.0</text>
</g>
<!-- q23:1.0 -->
<g id="node9" class="node">
<title>q23:1.0</title>
<ellipse fill="none" stroke="black" stroke-width="2" cx="1733.9" cy="-126" rx="49.1" ry="18"/>
<text text-anchor="middle" x="1733.9" y="-121.33" font-family="Times,serif" font-size="14.00">q23:1.0</text>
</g>
<!-- q17:0.0&#45;&gt;q23:1.0 -->
<g id="edge9" class="edge">
<title>q17:0.0&#45;&gt;q23:1.0</title>
<path fill="none" stroke="black" d="M1519,-126C1562.4,-126 1625.9,-126 1672.5,-126"/>
<polygon fill="black" stroke="black" points="1672.39,-129.5 1682.39,-126 1672.39,-122.5 1672.39,-129.5"/>
<text text-anchor="middle" x="1601.6" y="-129.94" font-family="Times,serif" font-size="14.00">QUIT/221:1.0</text>
</g>
<!-- q22:1.0 -->
<g id="node10" class="node">
<title>q22:1.0</title>
<ellipse fill="none" stroke="black" stroke-width="2" cx="1733.9" cy="-72" rx="49.1" ry="18"/>
<text text-anchor="middle" x="1733.9" y="-67.33" font-family="Times,serif" font-size="14.00">q22:1.0</text>
</g>
<!-- q16:0.0&#45;&gt;q22:1.0 -->
<g id="edge10" class="edge">
<title>q16:0.0&#45;&gt;q22:1.0</title>
<path fill="none" stroke="black" d="M1519,-72C1562.4,-72 1625.9,-72 1672.5,-72"/>
<polygon fill="black" stroke="black" points="1672.39,-75.5 1682.39,-72 1672.39,-68.5 1672.39,-75.5"/>
<text text-anchor="middle" x="1601.6" y="-75.95" font-family="Times,serif" font-size="14.00">RSET/250:1.0</text>
</g>
<!-- q14:0.0&#45;&gt;q11:0.0 -->
<g id="edge11" class="edge">
<title>q14:0.0&#45;&gt;q11:0.0</title>
<path fill="none" stroke="black" d="M1420.2,-194.75C1379.6,-196.42 1320.6,-195.26 1271.6,-180 1262.7,-177.21 1261.7,-173.74 1253.6,-169 1250.2,-167.03 1246.7,-165 1243.2,-162.98"/>
<polygon fill="black" stroke="black" points="1245.05,-160 1234.62,-158.13 1241.6,-166.1 1245.05,-160"/>
<text text-anchor="middle" x="1336.9" y="-198.94" font-family="Times,serif" font-size="14.00">content/λ:0.974</text>
</g>
<!-- q20:0.0 -->
<g id="node11" class="node">
<title>q20:0.0</title>
<ellipse fill="none" stroke="black" stroke-width="2" cx="1733.9" cy="-180" rx="49.1" ry="18"/>
<text text-anchor="middle" x="1733.9" y="-175.32" font-family="Times,serif" font-size="14.00">q20:0.0</text>
</g>
<!-- q14:0.0&#45;&gt;q20:0.0 -->
<g id="edge12" class="edge">
<title>q14:0.0&#45;&gt;q20:0.0</title>
<path fill="none" stroke="black" d="M1518.6,-188.57C1524.6,-188.28 1530.6,-188 1536.3,-187.75 1582.2,-185.72 1634.1,-183.68 1673,-182.21"/>
<polygon fill="black" stroke="black" points="1673.03,-185.71 1682.89,-181.84 1672.76,-178.72 1673.03,-185.71"/>
<text text-anchor="middle" x="1601.6" y="-190.94" font-family="Times,serif" font-size="14.00">content/554:0.001</text>
</g>
<!-- q19:0.0 -->
<g id="node12" class="node">
<title>q19:0.0</title>
<ellipse fill="none" stroke="black" stroke-width="2" cx="1733.9" cy="-234" rx="49.1" ry="18"/>
<text text-anchor="middle" x="1733.9" y="-229.32" font-family="Times,serif" font-size="14.00">q19:0.0</text>
</g>
<!-- q14:0.0&#45;&gt;q19:0.0 -->
<g id="edge13" class="edge">
<title>q14:0.0&#45;&gt;q19:0.0</title>
<path fill="none" stroke="black" d="M1512.5,-200.35C1520.4,-201.99 1528.6,-203.61 1536.3,-205 1583,-213.38 1636.2,-221.12 1675.5,-226.49"/>
<polygon fill="black" stroke="black" points="1674.82,-229.93 1685.2,-227.81 1675.76,-222.99 1674.82,-229.93"/>
<text text-anchor="middle" x="1601.6" y="-227.94" font-family="Times,serif" font-size="14.00">content/250:0.025</text>
</g>
<!-- q25:1.0 -->
<g id="node24" class="node">
<title>q25:1.0</title>
<ellipse fill="none" stroke="black" stroke-width="2" cx="1966.4" cy="-180" rx="49.1" ry="18"/>
<text text-anchor="middle" x="1966.4" y="-175.32" font-family="Times,serif" font-size="14.00">q25:1.0</text>
</g>
<!-- q20:0.0&#45;&gt;q25:1.0 -->
<g id="edge27" class="edge">
<title>q20:0.0&#45;&gt;q25:1.0</title>
<path fill="none" stroke="black" d="M1783.8,-180C1819.2,-180 1867.4,-180 1905.2,-180"/>
<polygon fill="black" stroke="black" points="1905.09,-183.5 1915.09,-180 1905.09,-176.5 1905.09,-183.5"/>
<text text-anchor="middle" x="1850.1" y="-183.94" font-family="Times,serif" font-size="14.00">RSET/250:1.0</text>
</g>
<!-- q24:1.0 -->
<g id="node25" class="node">
<title>q24:1.0</title>
<ellipse fill="none" stroke="black" stroke-width="2" cx="1966.4" cy="-234" rx="49.1" ry="18"/>
<text text-anchor="middle" x="1966.4" y="-229.32" font-family="Times,serif" font-size="14.00">q24:1.0</text>
</g>
<!-- q19:0.0&#45;&gt;q24:1.0 -->
<g id="edge28" class="edge">
<title>q19:0.0&#45;&gt;q24:1.0</title>
<path fill="none" stroke="black" d="M1783.8,-234C1819.2,-234 1867.4,-234 1905.2,-234"/>
<polygon fill="black" stroke="black" points="1905.09,-237.5 1915.09,-234 1905.09,-230.5 1905.09,-237.5"/>
<text text-anchor="middle" x="1850.1" y="-237.94" font-family="Times,serif" font-size="14.00">QUIT/221:1.0</text>
</g>
<!-- q3:0.0 -->
<g id="node13" class="node">
<title>q3:0.0</title>
<ellipse fill="none" stroke="black" stroke-width="2" cx="484.7" cy="-148" rx="42.79" ry="18"/>
<text text-anchor="middle" x="484.7" y="-143.32" font-family="Times,serif" font-size="14.00">q3:0.0</text>
</g>
<!-- q4:0.0 -->
<g id="node14" class="node">
<title>q4:0.0</title>
<ellipse fill="none" stroke="black" stroke-width="2" cx="725.53" cy="-202" rx="42.79" ry="18"/>
<text text-anchor="middle" x="725.53" y="-197.32" font-family="Times,serif" font-size="14.00">q4:0.0</text>
</g>
<!-- q3:0.0&#45;&gt;q4:0.0 -->
<g id="edge14" class="edge">
<title>q3:0.0&#45;&gt;q4:0.0</title>
<path fill="none" stroke="black" d="M526.24,-153.98C562.76,-159.75 617.78,-169.44 664.74,-181.75 670.03,-183.14 675.53,-184.75 680.95,-186.45"/>
<polygon fill="black" stroke="black" points="679.86,-189.78 690.45,-189.55 682.03,-183.12 679.86,-189.78"/>
<text text-anchor="middle" x="605.12" y="-184.94" font-family="Times,serif" font-size="14.00">AUTH/235:0.955</text>
</g>
<!-- q6:0.0 -->
<g id="node15" class="node">
<title>q6:0.0</title>
<ellipse fill="none" stroke="black" stroke-width="2" cx="725.53" cy="-83" rx="42.79" ry="18"/>
<text text-anchor="middle" x="725.53" y="-78.33" font-family="Times,serif" font-size="14.00">q6:0.0</text>
</g>
<!-- q3:0.0&#45;&gt;q6:0.0 -->
<g id="edge15" class="edge">
<title>q3:0.0&#45;&gt;q6:0.0</title>
<path fill="none" stroke="black" d="M508.28,-132.01C519.08,-125.08 532.47,-117.48 545.49,-112.75 586.11,-97.98 634.6,-90.5 670.86,-86.73"/>
<polygon fill="black" stroke="black" points="671.06,-90.23 680.67,-85.78 670.38,-83.26 671.06,-90.23"/>
<text text-anchor="middle" x="605.12" y="-116.95" font-family="Times,serif" font-size="14.00">AUTH/535:0.041</text>
</g>
<!-- q5:0.0 -->
<g id="node16" class="node">
<title>q5:0.0</title>
<ellipse fill="none" stroke="black" stroke-width="2" cx="725.53" cy="-141" rx="42.79" ry="18"/>
<text text-anchor="middle" x="725.53" y="-136.32" font-family="Times,serif" font-size="14.00">q5:0.0</text>
</g>
<!-- q3:0.0&#45;&gt;q5:0.0 -->
<g id="edge16" class="edge">
<title>q3:0.0&#45;&gt;q5:0.0</title>
<path fill="none" stroke="black" d="M523.16,-139.12C530.52,-137.72 538.22,-136.49 545.49,-135.75 587.93,-131.45 636.28,-133.26 672.04,-135.87"/>
<polygon fill="black" stroke="black" points="671.43,-139.33 681.67,-136.62 671.97,-132.35 671.43,-139.33"/>
<text text-anchor="middle" x="605.12" y="-139.94" font-family="Times,serif" font-size="14.00">AUTH/λ:0.004</text>
</g>
<!-- q4:0.0&#45;&gt;q8:0.0 -->
<g id="edge17" class="edge">
<title>q4:0.0&#45;&gt;q8:0.0</title>
<path fill="none" stroke="black" d="M766.06,-194.95C809.37,-187.16 876.01,-174.92 901.07,-169 905.56,-167.94 910.22,-166.76 914.86,-165.53"/>
<polygon fill="black" stroke="black" points="915.4,-169.01 924.13,-163 913.56,-162.26 915.4,-169.01"/>
<text text-anchor="middle" x="843.7" y="-193.94" font-family="Times,serif" font-size="14.00">MAIL/250:0.987</text>
</g>
<!-- q7:0.0 -->
<g id="node17" class="node">
<title>q7:0.0</title>
<ellipse fill="none" stroke="black" stroke-width="2" cx="961.86" cy="-244" rx="42.79" ry="18"/>
<text text-anchor="middle" x="961.86" y="-239.32" font-family="Times,serif" font-size="14.00">q7:0.0</text>
</g>
<!-- q4:0.0&#45;&gt;q7:0.0 -->
<g id="edge18" class="edge">
<title>q4:0.0&#45;&gt;q7:0.0</title>
<path fill="none" stroke="black" d="M766.02,-209.08C805.77,-216.2 867.23,-227.22 910.48,-234.97"/>
<polygon fill="black" stroke="black" points="909.66,-238.38 920.12,-236.69 910.89,-231.49 909.66,-238.38"/>
<text text-anchor="middle" x="843.7" y="-235.94" font-family="Times,serif" font-size="14.00">MAIL/553:0.013</text>
</g>
<!-- q9:0.0 -->
<g id="node18" class="node">
<title>q9:0.0</title>
<ellipse fill="none" stroke="black" stroke-width="2" cx="961.86" cy="-83" rx="42.79" ry="18"/>
<text text-anchor="middle" x="961.86" y="-78.33" font-family="Times,serif" font-size="14.00">q9:0.0</text>
</g>
<!-- q6:0.0&#45;&gt;q9:0.0 -->
<g id="edge19" class="edge">
<title>q6:0.0&#45;&gt;q9:0.0</title>
<path fill="none" stroke="black" d="M769.24,-83C807.97,-83 865.24,-83 907.08,-83"/>
<polygon fill="black" stroke="black" points="906.94,-86.5 916.94,-83 906.94,-79.5 906.94,-86.5"/>
<text text-anchor="middle" x="843.7" y="-86.95" font-family="Times,serif" font-size="14.00">AUTH/334:1.0</text>
</g>
<!-- q5:0.0&#45;&gt;q8:0.0 -->
<g id="edge20" class="edge">
<title>q5:0.0&#45;&gt;q8:0.0</title>
<path fill="none" stroke="black" d="M768.97,-142.99C807.67,-144.81 865.03,-147.5 906.96,-149.47"/>
<polygon fill="black" stroke="black" points="906.69,-152.96 916.84,-149.93 907.01,-145.97 906.69,-152.96"/>
<text text-anchor="middle" x="843.7" y="-153.94" font-family="Times,serif" font-size="14.00">MAIL/250:1.0</text>
</g>
<!-- q10:1.0 -->
<g id="node19" class="node">
<title>q10:1.0</title>
<ellipse fill="none" stroke="black" stroke-width="2" cx="1204.5" cy="-250" rx="49.1" ry="18"/>
<text text-anchor="middle" x="1204.5" y="-245.32" font-family="Times,serif" font-size="14.00">q10:1.0</text>
</g>
<!-- q7:0.0&#45;&gt;q10:1.0 -->
<g id="edge21" class="edge">
<title>q7:0.0&#45;&gt;q10:1.0</title>
<path fill="none" stroke="black" d="M1005.3,-245.06C1043.6,-246.01 1100.4,-247.43 1143.4,-248.5"/>
<polygon fill="black" stroke="black" points="1143.2,-252 1153.29,-248.75 1143.38,-245 1143.2,-252"/>
<text text-anchor="middle" x="1080" y="-251.94" font-family="Times,serif" font-size="14.00">RSET/250:1.0</text>
</g>
<!-- q13:0.8 -->
<g id="node20" class="node">
<title>q13:0.8</title>
<ellipse fill="none" stroke="black" stroke-width="2" cx="1204.5" cy="-63" rx="49.1" ry="18"/>
<text text-anchor="middle" x="1204.5" y="-58.33" font-family="Times,serif" font-size="14.00">q13:0.8</text>
</g>
<!-- q9:0.0&#45;&gt;q13:0.8 -->
<g id="edge22" class="edge">
<title>q9:0.0&#45;&gt;q13:0.8</title>
<path fill="none" stroke="black" d="M1004.8,-79.52C1043.5,-76.3 1101.3,-71.49 1144.6,-67.89"/>
<polygon fill="black" stroke="black" points="1144.71,-71.39 1154.39,-67.08 1144.14,-64.42 1144.71,-71.39"/>
<text text-anchor="middle" x="1080" y="-81.95" font-family="Times,serif" font-size="14.00">content/535:1.0</text>
</g>
<!-- q18:1.0 -->
<g id="node23" class="node">
<title>q18:1.0</title>
<ellipse fill="none" stroke="black" stroke-width="2" cx="1469.2" cy="-18" rx="49.1" ry="18"/>
<text text-anchor="middle" x="1469.2" y="-13.32" font-family="Times,serif" font-size="14.00">q18:1.0</text>
</g>
<!-- q13:0.8&#45;&gt;q18:1.0 -->
<g id="edge26" class="edge">
<title>q13:0.8&#45;&gt;q18:1.0</title>
<path fill="none" stroke="black" d="M1239.4,-49.42C1249.6,-45.78 1260.9,-42.18 1271.6,-39.75 1316.8,-29.45 1368.9,-23.97 1408.1,-21.09"/>
<polygon fill="black" stroke="black" points="1408.36,-24.58 1418.09,-20.39 1407.87,-17.59 1408.36,-24.58"/>
<text text-anchor="middle" x="1336.9" y="-43.95" font-family="Times,serif" font-size="14.00">λ/451:0.2</text>
</g>
<!-- q1:0.0 -->
<g id="node21" class="node">
<title>q1:0.0</title>
<ellipse fill="none" stroke="black" stroke-width="2" cx="243.87" cy="-175" rx="42.79" ry="18"/>
<text text-anchor="middle" x="243.87" y="-170.32" font-family="Times,serif" font-size="14.00">q1:0.0</text>
</g>
<!-- q1:0.0&#45;&gt;q3:0.0 -->
<g id="edge23" class="edge">
<title>q1:0.0&#45;&gt;q3:0.0</title>
<path fill="none" stroke="black" d="M282.04,-165.91C289.49,-164.33 297.3,-162.84 304.66,-161.75 346.54,-155.53 394.37,-152.04 430.05,-150.14"/>
<polygon fill="black" stroke="black" points="429.87,-153.65 439.68,-149.65 429.51,-146.66 429.87,-153.65"/>
<text text-anchor="middle" x="364.29" y="-165.94" font-family="Times,serif" font-size="14.00">EHLO/250:0.992</text>
</g>
<!-- q2:0.0 -->
<g id="node22" class="node">
<title>q2:0.0</title>
<ellipse fill="none" stroke="black" stroke-width="2" cx="484.7" cy="-208" rx="42.79" ry="18"/>
<text text-anchor="middle" x="484.7" y="-203.32" font-family="Times,serif" font-size="14.00">q2:0.0</text>
</g>
<!-- q1:0.0&#45;&gt;q2:0.0 -->
<g id="edge24" class="edge">
<title>q1:0.0&#45;&gt;q2:0.0</title>
<path fill="none" stroke="black" d="M285.66,-180.64C326.01,-186.21 387.94,-194.77 431.79,-200.83"/>
<polygon fill="black" stroke="black" points="431.19,-204.28 441.58,-202.18 432.15,-197.35 431.19,-204.28"/>
<text text-anchor="middle" x="364.29" y="-202.94" font-family="Times,serif" font-size="14.00">EHLO/λ:0.008</text>
</g>
<!-- q2:0.0&#45;&gt;q4:0.0 -->
<g id="edge25" class="edge">
<title>q2:0.0&#45;&gt;q4:0.0</title>
<path fill="none" stroke="black" d="M528.4,-206.93C568.22,-205.93 627.78,-204.43 670.81,-203.35"/>
<polygon fill="black" stroke="black" points="670.78,-206.85 680.69,-203.1 670.6,-199.85 670.78,-206.85"/>
<text text-anchor="middle" x="605.12" y="-209.94" font-family="Times,serif" font-size="14.00">AUTH/235:1.0</text>
</g>
<!-- q0:0.0 -->
<g id="node26" class="node">
<title>q0:0.0</title>
<ellipse fill="none" stroke="black" stroke-width="2" cx="50.79" cy="-175" rx="46.79" ry="46.79"/>
<ellipse fill="none" stroke="black" stroke-width="2" cx="50.79" cy="-175" rx="50.79" ry="50.79"/>
<text text-anchor="middle" x="50.79" y="-170.32" font-family="Times,serif" font-size="14.00">q0:0.0</text>
</g>
<!-- q0:0.0&#45;&gt;q1:0.0 -->
<g id="edge29" class="edge">
<title>q0:0.0&#45;&gt;q1:0.0</title>
<path fill="none" stroke="black" d="M98.53,-175C125.82,-175 160.37,-175 188.82,-175"/>
<polygon fill="black" stroke="black" points="188.69,-178.5 198.69,-175 188.69,-171.5 188.69,-178.5"/>
<text text-anchor="middle" x="149.33" y="-178.94" font-family="Times,serif" font-size="14.00">λ/220:1.0</text>
</g>
</g>
</svg>
