<?xml version="1.0" encoding="UTF-8" standalone="no"?>
<!DOCTYPE svg PUBLIC "-//W3C//DTD SVG 1.1//EN"
 "http://www.w3.org/Graphics/SVG/1.1/DTD/svg11.dtd">
<!-- Generated by graphviz version 12.0.0 (20240803.0821)
 -->
<!-- Pages: 1 -->
<svg width="1759pt" height="241pt"
 viewBox="0.00 0.00 1758.80 241.00" xmlns="http://www.w3.org/2000/svg" xmlns:xlink="http://www.w3.org/1999/xlink">
<g id="graph0" class="graph" transform="scale(1 1) rotate(0) translate(4 237)">
<polygon fill="white" stroke="none" points="-4,4 -4,-237 1754.8,-237 1754.8,4 -4,4"/>
<!-- q14:0.0 -->
<g id="node1" class="node">
<title>q14:0.0</title>
<ellipse fill="none" stroke="black" stroke-width="2" cx="1469.2" cy="-126" rx="49.1" ry="18"/>
<text text-anchor="middle" x="1469.2" y="-121.33" font-family="Times,serif" font-size="14.00">q14:0.0</text>
</g>
<!-- q18:1.0 -->
<g id="node2" class="node">
<title>q18:1.0</title>
<ellipse fill="none" stroke="black" stroke-width="2" cx="1701.7" cy="-126" rx="49.1" ry="18"/>
<text text-anchor="middle" x="1701.7" y="-121.33" font-family="Times,serif" font-size="14.00">q18:1.0</text>
</g>
<!-- q14:0.0&#45;&gt;q18:1.0 -->
<g id="edge1" class="edge">
<title>q14:0.0&#45;&gt;q18:1.0</title>
<path fill="none" stroke="black" d="M1519.1,-126C1554.5,-126 1602.7,-126 1640.5,-126"/>
<polygon fill="black" stroke="black" points="1640.39,-129.5 1650.39,-126 1640.39,-122.5 1640.39,-129.5"/>
<text text-anchor="middle" x="1585.4" y="-129.94" font-family="Times,serif" font-size="14.00">QUIT/221:1.0</text>
</g>
<!-- q10:0.0 -->
<g id="node3" class="node">
<title>q10:0.0</title>
<ellipse fill="none" stroke="black" stroke-width="2" cx="1204.5" cy="-72" rx="49.1" ry="18"/>
<text text-anchor="middle" x="1204.5" y="-67.33" font-family="Times,serif" font-size="14.00">q10:0.0</text>
</g>
<!-- q10:0.0&#45;&gt;q14:0.0 -->
<g id="edge2" class="edge">
<title>q10:0.0&#45;&gt;q14:0.0</title>
<path fill="none" stroke="black" d="M1242,-84.59C1251.5,-87.62 1261.9,-90.65 1271.6,-93 1317.8,-104.17 1371.1,-112.85 1410.5,-118.51"/>
<polygon fill="black" stroke="black" points="1409.91,-121.96 1420.3,-119.88 1410.88,-115.03 1409.91,-121.96"/>
<text text-anchor="middle" x="1336.9" y="-119.95" font-family="Times,serif" font-size="14.00">content/250:0.042</text>
</g>
<!-- q10:0.0&#45;&gt;q10:0.0 -->
<g id="edge3" class="edge">
<title>q10:0.0&#45;&gt;q10:0.0</title>
<path fill="none" stroke="black" d="M1182.4,-89.04C1177.9,-98.86 1185.3,-108 1204.5,-108 1215.6,-108 1222.8,-104.94 1225.9,-100.47"/>
<polygon fill="black" stroke="black" points="1229.39,-100.74 1226.51,-90.55 1222.4,-100.32 1229.39,-100.74"/>
<text text-anchor="middle" x="1204.5" y="-111.95" font-family="Times,serif" font-size="14.00">content/λ:0.93</text>
</g>
<!-- q16:0.0 -->
<g id="node4" class="node">
<title>q16:0.0</title>
<ellipse fill="none" stroke="black" stroke-width="2" cx="1469.2" cy="-72" rx="49.1" ry="18"/>
<text text-anchor="middle" x="1469.2" y="-67.33" font-family="Times,serif" font-size="14.00">q16:0.0</text>
</g>
<!-- q10:0.0&#45;&gt;q16:0.0 -->
<g id="edge4" class="edge">
<title>q10:0.0&#45;&gt;q16:0.0</title>
<path fill="none" stroke="black" d="M1254.3,-72C1297.7,-72 1361.2,-72 1407.8,-72"/>
<polygon fill="black" stroke="black" points="1407.69,-75.5 1417.69,-72 1407.69,-68.5 1407.69,-75.5"/>
<text text-anchor="middle" x="1336.9" y="-75.95" font-family="Times,serif" font-size="14.00">content/550:0.0</text>
</g>
<!-- q15:0.0 -->
<g id="node5" class="node">
<title>q15:0.0</title>
<ellipse fill="none" stroke="black" stroke-width="2" cx="1469.2" cy="-18" rx="49.1" ry="18"/>
<text text-anchor="middle" x="1469.2" y="-13.32" font-family="Times,serif" font-size="14.00">q15:0.0</text>
</g>
<!-- q10:0.0&#45;&gt;q15:0.0 -->
<g id="edge5" class="edge">
<title>q10:0.0&#45;&gt;q15:0.0</title>
<path fill="none" stroke="black" d="M1241.6,-59.35C1251.3,-56.25 1261.8,-53.14 1271.6,-50.75 1317.8,-39.54 1371.1,-30.92 1410.5,-25.35"/>
<polygon fill="black" stroke="black" points="1410.78,-28.85 1420.2,-24 1409.81,-21.91 1410.78,-28.85"/>
<text text-anchor="middle" x="1336.9" y="-54.95" font-family="Times,serif" font-size="14.00">content/554:0.027</text>
</g>
<!-- q20:1.0 -->
<g id="node6" class="node">
<title>q20:1.0</title>
<ellipse fill="none" stroke="black" stroke-width="2" cx="1701.7" cy="-72" rx="49.1" ry="18"/>
<text text-anchor="middle" x="1701.7" y="-67.33" font-family="Times,serif" font-size="14.00">q20:1.0</text>
</g>
<!-- q16:0.0&#45;&gt;q20:1.0 -->
<g id="edge6" class="edge">
<title>q16:0.0&#45;&gt;q20:1.0</title>
<path fill="none" stroke="black" d="M1519.1,-72C1554.5,-72 1602.7,-72 1640.5,-72"/>
<polygon fill="black" stroke="black" points="1640.39,-75.5 1650.39,-72 1640.39,-68.5 1640.39,-75.5"/>
<text text-anchor="middle" x="1585.4" y="-75.95" font-family="Times,serif" font-size="14.00">RSET/250:1.0</text>
</g>
<!-- q19:1.0 -->
<g id="node7" class="node">
<title>q19:1.0</title>
<ellipse fill="none" stroke="black" stroke-width="2" cx="1701.7" cy="-18" rx="49.1" ry="18"/>
<text text-anchor="middle" x="1701.7" y="-13.32" font-family="Times,serif" font-size="14.00">q19:1.0</text>
</g>
<!-- q15:0.0&#45;&gt;q19:1.0 -->
<g id="edge7" class="edge">
<title>q15:0.0&#45;&gt;q19:1.0</title>
<path fill="none" stroke="black" d="M1519.1,-18C1554.5,-18 1602.7,-18 1640.5,-18"/>
<polygon fill="black" stroke="black" points="1640.39,-21.5 1650.39,-18 1640.39,-14.5 1640.39,-21.5"/>
<text text-anchor="middle" x="1585.4" y="-21.95" font-family="Times,serif" font-size="14.00">RSET/250:1.0</text>
</g>
<!-- q6:0.0 -->
<g id="node8" class="node">
<title>q6:0.0</title>
<ellipse fill="none" stroke="black" stroke-width="2" cx="725.53" cy="-158" rx="42.79" ry="18"/>
<text text-anchor="middle" x="725.53" y="-153.32" font-family="Times,serif" font-size="14.00">q6:0.0</text>
</g>
<!-- q7:0.0 -->
<g id="node9" class="node">
<title>q7:0.0</title>
<ellipse fill="none" stroke="black" stroke-width="2" cx="961.86" cy="-72" rx="42.79" ry="18"/>
<text text-anchor="middle" x="961.86" y="-67.33" font-family="Times,serif" font-size="14.00">q7:0.0</text>
</g>
<!-- q6:0.0&#45;&gt;q7:0.0 -->
<g id="edge8" class="edge">
<title>q6:0.0&#45;&gt;q7:0.0</title>
<path fill="none" stroke="black" d="M759.74,-146.2C768.39,-143.12 777.71,-139.81 786.32,-136.75 837.32,-118.63 850.45,-115.14 901.07,-96 906.89,-93.8 913.01,-91.42 919.01,-89.05"/>
<polygon fill="black" stroke="black" points="920.21,-92.34 928.2,-85.38 917.62,-85.84 920.21,-92.34"/>
<text text-anchor="middle" x="843.7" y="-139.94" font-family="Times,serif" font-size="14.00">MAIL/250:0.991</text>
</g>
<!-- q9:0.0 -->
<g id="node10" class="node">
<title>q9:0.0</title>
<ellipse fill="none" stroke="black" stroke-width="2" cx="961.86" cy="-161" rx="42.79" ry="18"/>
<text text-anchor="middle" x="961.86" y="-156.32" font-family="Times,serif" font-size="14.00">q9:0.0</text>
</g>
<!-- q6:0.0&#45;&gt;q9:0.0 -->
<g id="edge9" class="edge">
<title>q6:0.0&#45;&gt;q9:0.0</title>
<path fill="none" stroke="black" d="M769.24,-158.55C807.97,-159.04 865.24,-159.78 907.08,-160.31"/>
<polygon fill="black" stroke="black" points="906.89,-163.81 916.94,-160.44 906.98,-156.81 906.89,-163.81"/>
<text text-anchor="middle" x="843.7" y="-163.94" font-family="Times,serif" font-size="14.00">MAIL/553:0.009</text>
</g>
<!-- q7:0.0&#45;&gt;q10:0.0 -->
<g id="edge10" class="edge">
<title>q7:0.0&#45;&gt;q10:0.0</title>
<path fill="none" stroke="black" d="M1005.6,-72C1043.8,-72 1100.3,-72 1143.1,-72"/>
<polygon fill="black" stroke="black" points="1142.99,-75.5 1152.99,-72 1142.99,-68.5 1142.99,-75.5"/>
<text text-anchor="middle" x="1080" y="-75.95" font-family="Times,serif" font-size="14.00">DATA/354:0.308</text>
</g>
<!-- q7:0.0&#45;&gt;q7:0.0 -->
<g id="edge11" class="edge">
<title>q7:0.0&#45;&gt;q7:0.0</title>
<path fill="none" stroke="black" d="M941.09,-88.66C936.48,-98.62 943.4,-108 961.86,-108 972.83,-108 979.72,-104.69 982.55,-99.92"/>
<polygon fill="black" stroke="black" points="986.05,-100.2 982.62,-90.18 979.05,-100.15 986.05,-100.2"/>
<text text-anchor="middle" x="961.86" y="-111.95" font-family="Times,serif" font-size="14.00">RCPT/250:0.622</text>
</g>
<!-- q11:1.0 -->
<g id="node11" class="node">
<title>q11:1.0</title>
<ellipse fill="none" stroke="black" stroke-width="2" cx="1204.5" cy="-18" rx="49.1" ry="18"/>
<text text-anchor="middle" x="1204.5" y="-13.32" font-family="Times,serif" font-size="14.00">q11:1.0</text>
</g>
<!-- q7:0.0&#45;&gt;q11:1.0 -->
<g id="edge12" class="edge">
<title>q7:0.0&#45;&gt;q11:1.0</title>
<path fill="none" stroke="black" d="M994.83,-59.56C1003.75,-56.39 1013.5,-53.19 1022.7,-50.75 1063.4,-39.89 1110.3,-31.52 1146.1,-25.95"/>
<polygon fill="black" stroke="black" points="1146.44,-29.44 1155.8,-24.47 1145.39,-22.52 1146.44,-29.44"/>
<text text-anchor="middle" x="1080" y="-54.95" font-family="Times,serif" font-size="14.00">DATA/550:0.07</text>
</g>
<!-- q13:1.0 -->
<g id="node12" class="node">
<title>q13:1.0</title>
<ellipse fill="none" stroke="black" stroke-width="2" cx="1204.5" cy="-161" rx="49.1" ry="18"/>
<text text-anchor="middle" x="1204.5" y="-156.32" font-family="Times,serif" font-size="14.00">q13:1.0</text>
</g>
<!-- q9:0.0&#45;&gt;q13:1.0 -->
<g id="edge13" class="edge">
<title>q9:0.0&#45;&gt;q13:1.0</title>
<path fill="none" stroke="black" d="M1005.6,-161C1043.8,-161 1100.3,-161 1143.1,-161"/>
<polygon fill="black" stroke="black" points="1142.99,-164.5 1152.99,-161 1142.99,-157.5 1142.99,-164.5"/>
<text text-anchor="middle" x="1080" y="-164.94" font-family="Times,serif" font-size="14.00">RSET/250:1.0</text>
</g>
<!-- q3:0.0 -->
<g id="node13" class="node">
<title>q3:0.0</title>
<ellipse fill="none" stroke="black" stroke-width="2" cx="484.7" cy="-151" rx="42.79" ry="18"/>
<text text-anchor="middle" x="484.7" y="-146.32" font-family="Times,serif" font-size="14.00">q3:0.0</text>
</g>
<!-- q3:0.0&#45;&gt;q6:0.0 -->
<g id="edge14" class="edge">
<title>q3:0.0&#45;&gt;q6:0.0</title>
<path fill="none" stroke="black" d="M528.12,-152.24C567.91,-153.41 627.56,-155.16 670.69,-156.42"/>
<polygon fill="black" stroke="black" points="670.49,-159.92 680.59,-156.71 670.7,-152.92 670.49,-159.92"/>
<text text-anchor="middle" x="605.12" y="-159.94" font-family="Times,serif" font-size="14.00">AUTH/235:0.954</text>
</g>
<!-- q4:0.0 -->
<g id="node14" class="node">
<title>q4:0.0</title>
<ellipse fill="none" stroke="black" stroke-width="2" cx="725.53" cy="-78" rx="42.79" ry="18"/>
<text text-anchor="middle" x="725.53" y="-73.33" font-family="Times,serif" font-size="14.00">q4:0.0</text>
</g>
<!-- q3:0.0&#45;&gt;q4:0.0 -->
<g id="edge15" class="edge">
<title>q3:0.0&#45;&gt;q4:0.0</title>
<path fill="none" stroke="black" d="M519.14,-139.39C527.7,-136.5 536.92,-133.45 545.49,-130.75 598.15,-114.17 611.81,-111.68 664.74,-96 669.24,-94.67 673.93,-93.27 678.62,-91.87"/>
<polygon fill="black" stroke="black" points="679.43,-95.28 688,-89.05 677.42,-88.57 679.43,-95.28"/>
<text text-anchor="middle" x="605.12" y="-133.94" font-family="Times,serif" font-size="14.00">AUTH/λ:0.004</text>
</g>
<!-- q5:0.0 -->
<g id="node15" class="node">
<title>q5:0.0</title>
<ellipse fill="none" stroke="black" stroke-width="2" cx="725.53" cy="-213" rx="42.79" ry="18"/>
<text text-anchor="middle" x="725.53" y="-208.32" font-family="Times,serif" font-size="14.00">q5:0.0</text>
</g>
<!-- q3:0.0&#45;&gt;q5:0.0 -->
<g id="edge16" class="edge">
<title>q3:0.0&#45;&gt;q5:0.0</title>
<path fill="none" stroke="black" d="M514.12,-164.82C523.9,-169.18 535.02,-173.71 545.49,-177 587.53,-190.2 636.68,-199.68 672.84,-205.58"/>
<polygon fill="black" stroke="black" points="672.18,-209.02 682.6,-207.14 673.28,-202.11 672.18,-209.02"/>
<text text-anchor="middle" x="605.12" y="-207.94" font-family="Times,serif" font-size="14.00">AUTH/535:0.041</text>
</g>
<!-- q4:0.0&#45;&gt;q7:0.0 -->
<g id="edge17" class="edge">
<title>q4:0.0&#45;&gt;q7:0.0</title>
<path fill="none" stroke="black" d="M769.24,-76.91C807.97,-75.92 865.24,-74.45 907.08,-73.38"/>
<polygon fill="black" stroke="black" points="907.03,-76.88 916.94,-73.12 906.85,-69.88 907.03,-76.88"/>
<text text-anchor="middle" x="843.7" y="-80.95" font-family="Times,serif" font-size="14.00">MAIL/250:1.0</text>
</g>
<!-- q8:0.0 -->
<g id="node16" class="node">
<title>q8:0.0</title>
<ellipse fill="none" stroke="black" stroke-width="2" cx="961.86" cy="-215" rx="42.79" ry="18"/>
<text text-anchor="middle" x="961.86" y="-210.32" font-family="Times,serif" font-size="14.00">q8:0.0</text>
</g>
<!-- q5:0.0&#45;&gt;q8:0.0 -->
<g id="edge18" class="edge">
<title>q5:0.0&#45;&gt;q8:0.0</title>
<path fill="none" stroke="black" d="M769.24,-213.36C807.97,-213.7 865.24,-214.18 907.08,-214.54"/>
<polygon fill="black" stroke="black" points="906.91,-218.04 916.94,-214.63 906.97,-211.04 906.91,-218.04"/>
<text text-anchor="middle" x="843.7" y="-217.94" font-family="Times,serif" font-size="14.00">AUTH/334:1.0</text>
</g>
<!-- q12:0.6 -->
<g id="node17" class="node">
<title>q12:0.6</title>
<ellipse fill="none" stroke="black" stroke-width="2" cx="1204.5" cy="-215" rx="49.1" ry="18"/>
<text text-anchor="middle" x="1204.5" y="-210.32" font-family="Times,serif" font-size="14.00">q12:0.6</text>
</g>
<!-- q8:0.0&#45;&gt;q12:0.6 -->
<g id="edge19" class="edge">
<title>q8:0.0&#45;&gt;q12:0.6</title>
<path fill="none" stroke="black" d="M1005.6,-215C1043.8,-215 1100.3,-215 1143.1,-215"/>
<polygon fill="black" stroke="black" points="1142.99,-218.5 1152.99,-215 1142.99,-211.5 1142.99,-218.5"/>
<text text-anchor="middle" x="1080" y="-218.94" font-family="Times,serif" font-size="14.00">content/535:1.0</text>
</g>
<!-- q17:1.0 -->
<g id="node18" class="node">
<title>q17:1.0</title>
<ellipse fill="none" stroke="black" stroke-width="2" cx="1469.2" cy="-215" rx="49.1" ry="18"/>
<text text-anchor="middle" x="1469.2" y="-210.32" font-family="Times,serif" font-size="14.00">q17:1.0</text>
</g>
<!-- q12:0.6&#45;&gt;q17:1.0 -->
<g id="edge20" class="edge">
<title>q12:0.6&#45;&gt;q17:1.0</title>
<path fill="none" stroke="black" d="M1254.3,-215C1297.7,-215 1361.2,-215 1407.8,-215"/>
<polygon fill="black" stroke="black" points="1407.69,-218.5 1417.69,-215 1407.69,-211.5 1407.69,-218.5"/>
<text text-anchor="middle" x="1336.9" y="-218.94" font-family="Times,serif" font-size="14.00">λ/451:0.4</text>
</g>
<!-- q1:0.0 -->
<g id="node19" class="node">
<title>q1:0.0</title>
<ellipse fill="none" stroke="black" stroke-width="2" cx="243.87" cy="-118" rx="42.79" ry="18"/>
<text text-anchor="middle" x="243.87" y="-113.33" font-family="Times,serif" font-size="14.00">q1:0.0</text>
</g>
<!-- q1:0.0&#45;&gt;q3:0.0 -->
<g id="edge21" class="edge">
<title>q1:0.0&#45;&gt;q3:0.0</title>
<path fill="none" stroke="black" d="M285.66,-123.64C326.01,-129.21 387.94,-137.77 431.79,-143.83"/>
<polygon fill="black" stroke="black" points="431.19,-147.28 441.58,-145.18 432.15,-140.35 431.19,-147.28"/>
<text text-anchor="middle" x="364.29" y="-145.94" font-family="Times,serif" font-size="14.00">EHLO/250:0.992</text>
</g>
<!-- q2:0.0 -->
<g id="node20" class="node">
<title>q2:0.0</title>
<ellipse fill="none" stroke="black" stroke-width="2" cx="484.7" cy="-91" rx="42.79" ry="18"/>
<text text-anchor="middle" x="484.7" y="-86.33" font-family="Times,serif" font-size="14.00">q2:0.0</text>
</g>
<!-- q1:0.0&#45;&gt;q2:0.0 -->
<g id="edge22" class="edge">
<title>q1:0.0&#45;&gt;q2:0.0</title>
<path fill="none" stroke="black" d="M279.7,-107.24C287.82,-105.1 296.49,-103.09 304.66,-101.75 346.39,-94.9 394.23,-92.29 429.95,-91.36"/>
<polygon fill="black" stroke="black" points="429.67,-94.86 439.59,-91.14 429.51,-87.86 429.67,-94.86"/>
<text text-anchor="middle" x="364.29" y="-104.95" font-family="Times,serif" font-size="14.00">EHLO/λ:0.008</text>
</g>
<!-- q2:0.0&#45;&gt;q4:0.0 -->
<g id="edge23" class="edge">
<title>q2:0.0&#45;&gt;q4:0.0</title>
<path fill="none" stroke="black" d="M523.16,-82.14C530.52,-80.74 538.22,-79.5 545.49,-78.75 587.48,-74.4 635.3,-74.46 670.96,-75.47"/>
<polygon fill="black" stroke="black" points="670.46,-78.95 680.57,-75.77 670.68,-71.96 670.46,-78.95"/>
<text text-anchor="middle" x="605.12" y="-82.95" font-family="Times,serif" font-size="14.00">AUTH/235:1.0</text>
</g>
<!-- q0:0.0 -->
<g id="node21" class="node">
<title>q0:0.0</title>
<ellipse fill="none" stroke="black" stroke-width="2" cx="50.79" cy="-118" rx="46.79" ry="46.79"/>
<ellipse fill="none" stroke="black" stroke-width="2" cx="50.79" cy="-118" rx="50.79" ry="50.79"/>
<text text-anchor="middle" x="50.79" y="-113.33" font-family="Times,serif" font-size="14.00">q0:0.0</text>
</g>
<!-- q0:0.0&#45;&gt;q1:0.0 -->
<g id="edge24" class="edge">
<title>q0:0.0&#45;&gt;q1:0.0</title>
<path fill="none" stroke="black" d="M98.53,-118C125.82,-118 160.37,-118 188.82,-118"/>
<polygon fill="black" stroke="black" points="188.69,-121.5 198.69,-118 188.69,-114.5 188.69,-121.5"/>
<text text-anchor="middle" x="149.33" y="-121.95" font-family="Times,serif" font-size="14.00">λ/220:1.0</text>
</g>
</g>
</svg>
