<?xml version="1.0" encoding="UTF-8" standalone="no"?>
<!DOCTYPE svg PUBLIC "-//W3C//DTD SVG 1.1//EN"
 "http://www.w3.org/Graphics/SVG/1.1/DTD/svg11.dtd">
<!-- Generated by graphviz version 12.0.0 (20240803.0821)
 -->
<!-- Pages: 1 -->
<svg width="2340pt" height="407pt"
 viewBox="0.00 0.00 2340.20 407.00" xmlns="http://www.w3.org/2000/svg" xmlns:xlink="http://www.w3.org/1999/xlink">
<g id="graph0" class="graph" transform="scale(1 1) rotate(0) translate(4 403)">
<polygon fill="white" stroke="none" points="-4,4 -4,-403 2336.2,-403 2336.2,4 -4,4"/>
<!-- q18:0.0 -->
<g id="node1" class="node">
<title>q18:0.0</title>
<ellipse fill="none" stroke="black" stroke-width="2" cx="1786" cy="-219" rx="49.1" ry="18"/>
<text text-anchor="middle" x="1786" y="-214.32" font-family="Times,serif" font-size="14.00">q18:0.0</text>
</g>
<!-- q23:1.0 -->
<g id="node2" class="node">
<title>q23:1.0</title>
<ellipse fill="none" stroke="black" stroke-width="2" cx="2050.7" cy="-219" rx="49.1" ry="18"/>
<text text-anchor="middle" x="2050.7" y="-214.32" font-family="Times,serif" font-size="14.00">q23:1.0</text>
</g>
<!-- q18:0.0&#45;&gt;q23:1.0 -->
<g id="edge1" class="edge">
<title>q18:0.0&#45;&gt;q23:1.0</title>
<path fill="none" stroke="black" d="M1835.8,-219C1879.1,-219 1942.7,-219 1989.2,-219"/>
<polygon fill="black" stroke="black" points="1989.19,-222.5 1999.19,-219 1989.19,-215.5 1989.19,-222.5"/>
<text text-anchor="middle" x="1918.3" y="-222.94" font-family="Times,serif" font-size="14.00">RSET/250:1.0</text>
</g>
<!-- q10:0.667 -->
<g id="node3" class="node">
<title>q10:0.667</title>
<ellipse fill="none" stroke="black" stroke-width="2" cx="1259.7" cy="-18" rx="61.73" ry="18"/>
<text text-anchor="middle" x="1259.7" y="-13.32" font-family="Times,serif" font-size="14.00">q10:0.667</text>
</g>
<!-- q13:1.0 -->
<g id="node4" class="node">
<title>q13:1.0</title>
<ellipse fill="none" stroke="black" stroke-width="2" cx="1521.3" cy="-18" rx="49.1" ry="18"/>
<text text-anchor="middle" x="1521.3" y="-13.32" font-family="Times,serif" font-size="14.00">q13:1.0</text>
</g>
<!-- q10:0.667&#45;&gt;q13:1.0 -->
<g id="edge2" class="edge">
<title>q10:0.667&#45;&gt;q13:1.0</title>
<path fill="none" stroke="black" d="M1322.2,-18C1363.9,-18 1418.6,-18 1460,-18"/>
<polygon fill="black" stroke="black" points="1459.79,-21.5 1469.79,-18 1459.79,-14.5 1459.79,-21.5"/>
<text text-anchor="middle" x="1396.8" y="-21.95" font-family="Times,serif" font-size="14.00">λ/451:0.333</text>
</g>
<!-- q17:0.0 -->
<g id="node5" class="node">
<title>q17:0.0</title>
<ellipse fill="none" stroke="black" stroke-width="2" cx="1786" cy="-309" rx="49.1" ry="18"/>
<text text-anchor="middle" x="1786" y="-304.32" font-family="Times,serif" font-size="14.00">q17:0.0</text>
</g>
<!-- q17:0.0&#45;&gt;q17:0.0 -->
<g id="edge3" class="edge">
<title>q17:0.0&#45;&gt;q17:0.0</title>
<path fill="none" stroke="black" d="M1762.7,-325.66C1757.5,-335.62 1765.3,-345 1786,-345 1798.2,-345 1806,-341.69 1809.1,-336.92"/>
<polygon fill="black" stroke="black" points="1812.6,-337.2 1809.19,-327.17 1805.6,-337.14 1812.6,-337.2"/>
<text text-anchor="middle" x="1786" y="-348.94" font-family="Times,serif" font-size="14.00">content/λ:0.962</text>
</g>
<!-- q20:0.0 -->
<g id="node6" class="node">
<title>q20:0.0</title>
<ellipse fill="none" stroke="black" stroke-width="2" cx="2050.7" cy="-273" rx="49.1" ry="18"/>
<text text-anchor="middle" x="2050.7" y="-268.32" font-family="Times,serif" font-size="14.00">q20:0.0</text>
</g>
<!-- q17:0.0&#45;&gt;q20:0.0 -->
<g id="edge4" class="edge">
<title>q17:0.0&#45;&gt;q20:0.0</title>
<path fill="none" stroke="black" d="M1825.9,-297.74C1834.8,-295.48 1844.2,-293.32 1853.1,-291.75 1898.6,-283.69 1950.7,-278.92 1989.9,-276.21"/>
<polygon fill="black" stroke="black" points="1990.04,-279.71 1999.79,-275.55 1989.58,-272.72 1990.04,-279.71"/>
<text text-anchor="middle" x="1918.3" y="-294.94" font-family="Times,serif" font-size="14.00">content/550:0.0</text>
</g>
<!-- q22:0.0 -->
<g id="node7" class="node">
<title>q22:0.0</title>
<ellipse fill="none" stroke="black" stroke-width="2" cx="2050.7" cy="-381" rx="49.1" ry="18"/>
<text text-anchor="middle" x="2050.7" y="-376.32" font-family="Times,serif" font-size="14.00">q22:0.0</text>
</g>
<!-- q17:0.0&#45;&gt;q22:0.0 -->
<g id="edge5" class="edge">
<title>q17:0.0&#45;&gt;q22:0.0</title>
<path fill="none" stroke="black" d="M1813.5,-324.86C1825.3,-331.3 1839.5,-338.32 1853.1,-343 1898.2,-358.62 1951.6,-368.42 1991.3,-374.15"/>
<polygon fill="black" stroke="black" points="1990.71,-377.6 2001.1,-375.52 1991.68,-370.67 1990.71,-377.6"/>
<text text-anchor="middle" x="1918.3" y="-375.94" font-family="Times,serif" font-size="14.00">content/554:0.002</text>
</g>
<!-- q21:0.0 -->
<g id="node8" class="node">
<title>q21:0.0</title>
<ellipse fill="none" stroke="black" stroke-width="2" cx="2050.7" cy="-327" rx="49.1" ry="18"/>
<text text-anchor="middle" x="2050.7" y="-322.32" font-family="Times,serif" font-size="14.00">q21:0.0</text>
</g>
<!-- q17:0.0&#45;&gt;q21:0.0 -->
<g id="edge6" class="edge">
<title>q17:0.0&#45;&gt;q21:0.0</title>
<path fill="none" stroke="black" d="M1835.2,-312.3C1878.8,-315.29 1943.3,-319.71 1990.1,-322.92"/>
<polygon fill="black" stroke="black" points="1989.67,-326.4 1999.89,-323.59 1990.15,-319.42 1989.67,-326.4"/>
<text text-anchor="middle" x="1918.3" y="-325.94" font-family="Times,serif" font-size="14.00">content/250:0.036</text>
</g>
<!-- q25:1.0 -->
<g id="node9" class="node">
<title>q25:1.0</title>
<ellipse fill="none" stroke="black" stroke-width="2" cx="2283.1" cy="-273" rx="49.1" ry="18"/>
<text text-anchor="middle" x="2283.1" y="-268.32" font-family="Times,serif" font-size="14.00">q25:1.0</text>
</g>
<!-- q20:0.0&#45;&gt;q25:1.0 -->
<g id="edge7" class="edge">
<title>q20:0.0&#45;&gt;q25:1.0</title>
<path fill="none" stroke="black" d="M2100.6,-273C2136,-273 2184.1,-273 2222,-273"/>
<polygon fill="black" stroke="black" points="2221.79,-276.5 2231.79,-273 2221.79,-269.5 2221.79,-276.5"/>
<text text-anchor="middle" x="2166.9" y="-276.94" font-family="Times,serif" font-size="14.00">RSET/250:1.0</text>
</g>
<!-- q27:1.0 -->
<g id="node10" class="node">
<title>q27:1.0</title>
<ellipse fill="none" stroke="black" stroke-width="2" cx="2283.1" cy="-381" rx="49.1" ry="18"/>
<text text-anchor="middle" x="2283.1" y="-376.32" font-family="Times,serif" font-size="14.00">q27:1.0</text>
</g>
<!-- q22:0.0&#45;&gt;q27:1.0 -->
<g id="edge8" class="edge">
<title>q22:0.0&#45;&gt;q27:1.0</title>
<path fill="none" stroke="black" d="M2100.6,-381C2136,-381 2184.1,-381 2222,-381"/>
<polygon fill="black" stroke="black" points="2221.79,-384.5 2231.79,-381 2221.79,-377.5 2221.79,-384.5"/>
<text text-anchor="middle" x="2166.9" y="-384.94" font-family="Times,serif" font-size="14.00">RSET/250:1.0</text>
</g>
<!-- q26:1.0 -->
<g id="node11" class="node">
<title>q26:1.0</title>
<ellipse fill="none" stroke="black" stroke-width="2" cx="2283.1" cy="-327" rx="49.1" ry="18"/>
<text text-anchor="middle" x="2283.1" y="-322.32" font-family="Times,serif" font-size="14.00">q26:1.0</text>
</g>
<!-- q21:0.0&#45;&gt;q26:1.0 -->
<g id="edge9" class="edge">
<title>q21:0.0&#45;&gt;q26:1.0</title>
<path fill="none" stroke="black" d="M2100.6,-327C2136,-327 2184.1,-327 2222,-327"/>
<polygon fill="black" stroke="black" points="2221.79,-330.5 2231.79,-327 2221.79,-323.5 2221.79,-330.5"/>
<text text-anchor="middle" x="2166.9" y="-330.94" font-family="Times,serif" font-size="14.00">QUIT/221:1.0</text>
</g>
<!-- q14:0.0 -->
<g id="node12" class="node">
<title>q14:0.0</title>
<ellipse fill="none" stroke="black" stroke-width="2" cx="731.85" cy="-248" rx="49.1" ry="18"/>
<text text-anchor="middle" x="731.85" y="-243.32" font-family="Times,serif" font-size="14.00">q14:0.0</text>
</g>
<!-- q14:0.0&#45;&gt;q17:0.0 -->
<g id="edge10" class="edge">
<title>q14:0.0&#45;&gt;q17:0.0</title>
<path fill="none" stroke="black" d="M766.8,-261.39C815.49,-279.34 908.32,-309 990.32,-309 990.32,-309 990.32,-309 1522.3,-309 1591.7,-309 1671.5,-309 1724.8,-309"/>
<polygon fill="black" stroke="black" points="1724.59,-312.5 1734.59,-309 1724.59,-305.5 1724.59,-312.5"/>
<text text-anchor="middle" x="1259.7" y="-312.94" font-family="Times,serif" font-size="14.00">DATA/354:0.747</text>
</g>
<!-- q16:1.0 -->
<g id="node13" class="node">
<title>q16:1.0</title>
<ellipse fill="none" stroke="black" stroke-width="2" cx="991.32" cy="-210" rx="49.1" ry="18"/>
<text text-anchor="middle" x="991.32" y="-205.32" font-family="Times,serif" font-size="14.00">q16:1.0</text>
</g>
<!-- q14:0.0&#45;&gt;q16:1.0 -->
<g id="edge11" class="edge">
<title>q14:0.0&#45;&gt;q16:1.0</title>
<path fill="none" stroke="black" d="M773.96,-237.79C782.2,-235.95 790.83,-234.17 798.95,-232.75 843.01,-225.07 893.24,-219.21 931.17,-215.36"/>
<polygon fill="black" stroke="black" points="931.42,-218.85 941.02,-214.38 930.73,-211.89 931.42,-218.85"/>
<text text-anchor="middle" x="857.07" y="-235.94" font-family="Times,serif" font-size="14.00">DATA/550:0.235</text>
</g>
<!-- q9:0.0 -->
<g id="node14" class="node">
<title>q9:0.0</title>
<ellipse fill="none" stroke="black" stroke-width="2" cx="991.32" cy="-154" rx="42.79" ry="18"/>
<text text-anchor="middle" x="991.32" y="-149.32" font-family="Times,serif" font-size="14.00">q9:0.0</text>
</g>
<!-- q14:0.0&#45;&gt;q9:0.0 -->
<g id="edge12" class="edge">
<title>q14:0.0&#45;&gt;q9:0.0</title>
<path fill="none" stroke="black" d="M750.4,-230.43C762.92,-218.89 780.7,-204.38 798.95,-195.75 800.58,-194.98 884.7,-176.76 940.86,-164.65"/>
<polygon fill="black" stroke="black" points="941.51,-168.09 950.55,-162.56 940.04,-161.25 941.51,-168.09"/>
<text text-anchor="middle" x="857.07" y="-198.94" font-family="Times,serif" font-size="14.00">RCPT/250:0.019</text>
</g>
<!-- q12:0.0 -->
<g id="node15" class="node">
<title>q12:0.0</title>
<ellipse fill="none" stroke="black" stroke-width="2" cx="1259.7" cy="-219" rx="49.1" ry="18"/>
<text text-anchor="middle" x="1259.7" y="-214.32" font-family="Times,serif" font-size="14.00">q12:0.0</text>
</g>
<!-- q9:0.0&#45;&gt;q12:0.0 -->
<g id="edge13" class="edge">
<title>q9:0.0&#45;&gt;q12:0.0</title>
<path fill="none" stroke="black" d="M1029.6,-163.11C1075.8,-174.37 1154.6,-193.61 1206.7,-206.31"/>
<polygon fill="black" stroke="black" points="1205.68,-209.66 1216.23,-208.64 1207.35,-202.87 1205.68,-209.66"/>
<text text-anchor="middle" x="1123.7" y="-200.94" font-family="Times,serif" font-size="14.00">RCPT/250:1.0</text>
</g>
<!-- q12:0.0&#45;&gt;q14:0.0 -->
<g id="edge14" class="edge">
<title>q12:0.0&#45;&gt;q14:0.0</title>
<path fill="none" stroke="black" d="M1211.8,-224.58C1145.8,-232.13 1021.5,-245.21 915.2,-250 863.58,-252.32 850.61,-250.78 798.95,-250 797.02,-249.97 795.05,-249.94 793.07,-249.9"/>
<polygon fill="black" stroke="black" points="793.17,-246.4 783.09,-249.67 793.01,-253.4 793.17,-246.4"/>
<text text-anchor="middle" x="991.32" y="-251.94" font-family="Times,serif" font-size="14.00">RCPT/250:0.698</text>
</g>
<!-- q15:0.0 -->
<g id="node16" class="node">
<title>q15:0.0</title>
<ellipse fill="none" stroke="black" stroke-width="2" cx="1521.3" cy="-219" rx="49.1" ry="18"/>
<text text-anchor="middle" x="1521.3" y="-214.32" font-family="Times,serif" font-size="14.00">q15:0.0</text>
</g>
<!-- q12:0.0&#45;&gt;q15:0.0 -->
<g id="edge15" class="edge">
<title>q12:0.0&#45;&gt;q15:0.0</title>
<path fill="none" stroke="black" d="M1309.5,-219C1352.2,-219 1414.2,-219 1460,-219"/>
<polygon fill="black" stroke="black" points="1459.69,-222.5 1469.69,-219 1459.69,-215.5 1459.69,-222.5"/>
<text text-anchor="middle" x="1396.8" y="-222.94" font-family="Times,serif" font-size="14.00">DATA/354:0.302</text>
</g>
<!-- q15:0.0&#45;&gt;q18:0.0 -->
<g id="edge27" class="edge">
<title>q15:0.0&#45;&gt;q18:0.0</title>
<path fill="none" stroke="black" d="M1571.1,-219C1614.4,-219 1678,-219 1724.5,-219"/>
<polygon fill="black" stroke="black" points="1724.49,-222.5 1734.49,-219 1724.49,-215.5 1724.49,-222.5"/>
<text text-anchor="middle" x="1653.6" y="-222.94" font-family="Times,serif" font-size="14.00">content/554:0.829</text>
</g>
<!-- q15:0.0&#45;&gt;q17:0.0 -->
<g id="edge28" class="edge">
<title>q15:0.0&#45;&gt;q17:0.0</title>
<path fill="none" stroke="black" d="M1559.6,-231.05C1569,-234.03 1579,-237.17 1588.4,-240 1646.1,-257.53 1662.4,-256.39 1718.9,-277.75 1727.6,-281.07 1736.9,-285.08 1745.5,-289.1"/>
<polygon fill="black" stroke="black" points="1743.89,-292.21 1754.43,-293.32 1746.89,-285.88 1743.89,-292.21"/>
<text text-anchor="middle" x="1653.6" y="-280.94" font-family="Times,serif" font-size="14.00">content/λ:0.043</text>
</g>
<!-- q19:0.0 -->
<g id="node26" class="node">
<title>q19:0.0</title>
<ellipse fill="none" stroke="black" stroke-width="2" cx="1786" cy="-165" rx="49.1" ry="18"/>
<text text-anchor="middle" x="1786" y="-160.32" font-family="Times,serif" font-size="14.00">q19:0.0</text>
</g>
<!-- q15:0.0&#45;&gt;q19:0.0 -->
<g id="edge29" class="edge">
<title>q15:0.0&#45;&gt;q19:0.0</title>
<path fill="none" stroke="black" d="M1558.4,-206.35C1568,-203.25 1578.5,-200.14 1588.4,-197.75 1634.6,-186.54 1687.8,-177.92 1727.3,-172.35"/>
<polygon fill="black" stroke="black" points="1727.58,-175.84 1737,-171 1726.61,-168.91 1727.58,-175.84"/>
<text text-anchor="middle" x="1653.6" y="-200.94" font-family="Times,serif" font-size="14.00">content/250:0.129</text>
</g>
<!-- q0:0.0 -->
<g id="node17" class="node">
<title>q0:0.0</title>
<ellipse fill="none" stroke="black" stroke-width="2" cx="50.79" cy="-112" rx="46.79" ry="46.79"/>
<ellipse fill="none" stroke="black" stroke-width="2" cx="50.79" cy="-112" rx="50.79" ry="50.79"/>
<text text-anchor="middle" x="50.79" y="-107.33" font-family="Times,serif" font-size="14.00">q0:0.0</text>
</g>
<!-- q1:0.0 -->
<g id="node18" class="node">
<title>q1:0.0</title>
<ellipse fill="none" stroke="black" stroke-width="2" cx="243.87" cy="-112" rx="42.79" ry="18"/>
<text text-anchor="middle" x="243.87" y="-107.33" font-family="Times,serif" font-size="14.00">q1:0.0</text>
</g>
<!-- q0:0.0&#45;&gt;q1:0.0 -->
<g id="edge16" class="edge">
<title>q0:0.0&#45;&gt;q1:0.0</title>
<path fill="none" stroke="black" d="M98.53,-112C125.82,-112 160.37,-112 188.82,-112"/>
<polygon fill="black" stroke="black" points="188.69,-115.5 198.69,-112 188.69,-108.5 188.69,-115.5"/>
<text text-anchor="middle" x="149.33" y="-115.95" font-family="Times,serif" font-size="14.00">λ/220:1.0</text>
</g>
<!-- q2:0.0 -->
<g id="node19" class="node">
<title>q2:0.0</title>
<ellipse fill="none" stroke="black" stroke-width="2" cx="484.7" cy="-85" rx="42.79" ry="18"/>
<text text-anchor="middle" x="484.7" y="-80.33" font-family="Times,serif" font-size="14.00">q2:0.0</text>
</g>
<!-- q1:0.0&#45;&gt;q2:0.0 -->
<g id="edge17" class="edge">
<title>q1:0.0&#45;&gt;q2:0.0</title>
<path fill="none" stroke="black" d="M282.04,-102.91C289.49,-101.33 297.3,-99.84 304.66,-98.75 346.54,-92.53 394.37,-89.04 430.05,-87.14"/>
<polygon fill="black" stroke="black" points="429.87,-90.65 439.68,-86.65 429.51,-83.66 429.87,-90.65"/>
<text text-anchor="middle" x="364.29" y="-102.95" font-family="Times,serif" font-size="14.00">EHLO/250:0.992</text>
</g>
<!-- q3:0.0 -->
<g id="node20" class="node">
<title>q3:0.0</title>
<ellipse fill="none" stroke="black" stroke-width="2" cx="484.7" cy="-145" rx="42.79" ry="18"/>
<text text-anchor="middle" x="484.7" y="-140.32" font-family="Times,serif" font-size="14.00">q3:0.0</text>
</g>
<!-- q1:0.0&#45;&gt;q3:0.0 -->
<g id="edge18" class="edge">
<title>q1:0.0&#45;&gt;q3:0.0</title>
<path fill="none" stroke="black" d="M285.66,-117.64C326.01,-123.21 387.94,-131.77 431.79,-137.83"/>
<polygon fill="black" stroke="black" points="431.19,-141.28 441.58,-139.18 432.15,-134.35 431.19,-141.28"/>
<text text-anchor="middle" x="364.29" y="-140.94" font-family="Times,serif" font-size="14.00">EHLO/λ:0.008</text>
</g>
<!-- q4:0.0 -->
<g id="node21" class="node">
<title>q4:0.0</title>
<ellipse fill="none" stroke="black" stroke-width="2" cx="731.85" cy="-18" rx="42.79" ry="18"/>
<text text-anchor="middle" x="731.85" y="-13.32" font-family="Times,serif" font-size="14.00">q4:0.0</text>
</g>
<!-- q2:0.0&#45;&gt;q4:0.0 -->
<g id="edge19" class="edge">
<title>q2:0.0&#45;&gt;q4:0.0</title>
<path fill="none" stroke="black" d="M507.03,-68.8C517.98,-61.26 531.86,-52.85 545.49,-47.75 588.09,-31.8 639.33,-24.4 677.13,-20.97"/>
<polygon fill="black" stroke="black" points="677.22,-24.47 686.89,-20.15 676.63,-17.5 677.22,-24.47"/>
<text text-anchor="middle" x="605.12" y="-51.95" font-family="Times,serif" font-size="14.00">AUTH/535:0.05</text>
</g>
<!-- q5:0.0 -->
<g id="node22" class="node">
<title>q5:0.0</title>
<ellipse fill="none" stroke="black" stroke-width="2" cx="731.85" cy="-72" rx="42.79" ry="18"/>
<text text-anchor="middle" x="731.85" y="-67.33" font-family="Times,serif" font-size="14.00">q5:0.0</text>
</g>
<!-- q2:0.0&#45;&gt;q5:0.0 -->
<g id="edge20" class="edge">
<title>q2:0.0&#45;&gt;q5:0.0</title>
<path fill="none" stroke="black" d="M523.16,-76.14C530.52,-74.74 538.22,-73.5 545.49,-72.75 589.73,-68.17 640.22,-68.32 677.33,-69.42"/>
<polygon fill="black" stroke="black" points="676.77,-72.91 686.88,-69.74 677,-65.91 676.77,-72.91"/>
<text text-anchor="middle" x="605.12" y="-76.95" font-family="Times,serif" font-size="14.00">AUTH/235:0.946</text>
</g>
<!-- q6:0.0 -->
<g id="node23" class="node">
<title>q6:0.0</title>
<ellipse fill="none" stroke="black" stroke-width="2" cx="731.85" cy="-152" rx="42.79" ry="18"/>
<text text-anchor="middle" x="731.85" y="-147.32" font-family="Times,serif" font-size="14.00">q6:0.0</text>
</g>
<!-- q2:0.0&#45;&gt;q6:0.0 -->
<g id="edge21" class="edge">
<title>q2:0.0&#45;&gt;q6:0.0</title>
<path fill="none" stroke="black" d="M524.93,-92.12C561.51,-99.18 617.4,-111.06 664.74,-125.75 673.02,-128.32 681.74,-131.46 690.02,-134.65"/>
<polygon fill="black" stroke="black" points="688.6,-137.85 699.18,-138.29 691.18,-131.35 688.6,-137.85"/>
<text text-anchor="middle" x="605.12" y="-129.94" font-family="Times,serif" font-size="14.00">AUTH/λ:0.004</text>
</g>
<!-- q3:0.0&#45;&gt;q6:0.0 -->
<g id="edge22" class="edge">
<title>q3:0.0&#45;&gt;q6:0.0</title>
<path fill="none" stroke="black" d="M528.12,-146.21C569.47,-147.39 632.49,-149.19 677.28,-150.47"/>
<polygon fill="black" stroke="black" points="676.92,-153.96 687.02,-150.75 677.12,-146.96 676.92,-153.96"/>
<text text-anchor="middle" x="605.12" y="-153.94" font-family="Times,serif" font-size="14.00">AUTH/235:1.0</text>
</g>
<!-- q7:0.0 -->
<g id="node24" class="node">
<title>q7:0.0</title>
<ellipse fill="none" stroke="black" stroke-width="2" cx="991.32" cy="-18" rx="42.79" ry="18"/>
<text text-anchor="middle" x="991.32" y="-13.32" font-family="Times,serif" font-size="14.00">q7:0.0</text>
</g>
<!-- q4:0.0&#45;&gt;q7:0.0 -->
<g id="edge23" class="edge">
<title>q4:0.0&#45;&gt;q7:0.0</title>
<path fill="none" stroke="black" d="M775.36,-18C819.44,-18 888.46,-18 936.35,-18"/>
<polygon fill="black" stroke="black" points="936.23,-21.5 946.23,-18 936.23,-14.5 936.23,-21.5"/>
<text text-anchor="middle" x="857.07" y="-21.95" font-family="Times,serif" font-size="14.00">AUTH/334:1.0</text>
</g>
<!-- q5:0.0&#45;&gt;q9:0.0 -->
<g id="edge24" class="edge">
<title>q5:0.0&#45;&gt;q9:0.0</title>
<path fill="none" stroke="black" d="M767.3,-82.97C813.17,-97.58 894.37,-123.44 945.11,-139.6"/>
<polygon fill="black" stroke="black" points="944.04,-142.93 954.63,-142.63 946.16,-136.26 944.04,-142.93"/>
<text text-anchor="middle" x="857.07" y="-133.94" font-family="Times,serif" font-size="14.00">MAIL/250:0.987</text>
</g>
<!-- q8:0.0 -->
<g id="node25" class="node">
<title>q8:0.0</title>
<ellipse fill="none" stroke="black" stroke-width="2" cx="991.32" cy="-72" rx="42.79" ry="18"/>
<text text-anchor="middle" x="991.32" y="-67.33" font-family="Times,serif" font-size="14.00">q8:0.0</text>
</g>
<!-- q5:0.0&#45;&gt;q8:0.0 -->
<g id="edge25" class="edge">
<title>q5:0.0&#45;&gt;q8:0.0</title>
<path fill="none" stroke="black" d="M775.36,-72C819.44,-72 888.46,-72 936.35,-72"/>
<polygon fill="black" stroke="black" points="936.23,-75.5 946.23,-72 936.23,-68.5 936.23,-75.5"/>
<text text-anchor="middle" x="857.07" y="-75.95" font-family="Times,serif" font-size="14.00">MAIL/553:0.013</text>
</g>
<!-- q6:0.0&#45;&gt;q9:0.0 -->
<g id="edge26" class="edge">
<title>q6:0.0&#45;&gt;q9:0.0</title>
<path fill="none" stroke="black" d="M775.59,-152.02C812.54,-152.08 867.4,-152.25 915.2,-152.75 922.05,-152.82 929.25,-152.92 936.37,-153.02"/>
<polygon fill="black" stroke="black" points="936.24,-156.52 946.3,-153.18 936.35,-149.52 936.24,-156.52"/>
<text text-anchor="middle" x="857.07" y="-156.94" font-family="Times,serif" font-size="14.00">MAIL/250:1.0</text>
</g>
<!-- q7:0.0&#45;&gt;q10:0.667 -->
<g id="edge31" class="edge">
<title>q7:0.0&#45;&gt;q10:0.667</title>
<path fill="none" stroke="black" d="M1034.8,-18C1075.3,-18 1137.2,-18 1185.6,-18"/>
<polygon fill="black" stroke="black" points="1185.49,-21.5 1195.49,-18 1185.49,-14.5 1185.49,-21.5"/>
<text text-anchor="middle" x="1123.7" y="-21.95" font-family="Times,serif" font-size="14.00">content/535:1.0</text>
</g>
<!-- q11:1.0 -->
<g id="node28" class="node">
<title>q11:1.0</title>
<ellipse fill="none" stroke="black" stroke-width="2" cx="1259.7" cy="-72" rx="49.1" ry="18"/>
<text text-anchor="middle" x="1259.7" y="-67.33" font-family="Times,serif" font-size="14.00">q11:1.0</text>
</g>
<!-- q8:0.0&#45;&gt;q11:1.0 -->
<g id="edge32" class="edge">
<title>q8:0.0&#45;&gt;q11:1.0</title>
<path fill="none" stroke="black" d="M1034.8,-72C1079.1,-72 1148.9,-72 1198.7,-72"/>
<polygon fill="black" stroke="black" points="1198.49,-75.5 1208.49,-72 1198.49,-68.5 1198.49,-75.5"/>
<text text-anchor="middle" x="1123.7" y="-75.95" font-family="Times,serif" font-size="14.00">RSET/250:1.0</text>
</g>
<!-- q24:1.0 -->
<g id="node27" class="node">
<title>q24:1.0</title>
<ellipse fill="none" stroke="black" stroke-width="2" cx="2050.7" cy="-165" rx="49.1" ry="18"/>
<text text-anchor="middle" x="2050.7" y="-160.32" font-family="Times,serif" font-size="14.00">q24:1.0</text>
</g>
<!-- q19:0.0&#45;&gt;q24:1.0 -->
<g id="edge30" class="edge">
<title>q19:0.0&#45;&gt;q24:1.0</title>
<path fill="none" stroke="black" d="M1835.8,-165C1879.1,-165 1942.7,-165 1989.2,-165"/>
<polygon fill="black" stroke="black" points="1989.19,-168.5 1999.19,-165 1989.19,-161.5 1989.19,-168.5"/>
<text text-anchor="middle" x="1918.3" y="-168.94" font-family="Times,serif" font-size="14.00">QUIT/221:1.0</text>
</g>
</g>
</svg>
