<?xml version="1.0" encoding="UTF-8" standalone="no"?>
<!DOCTYPE svg PUBLIC "-//W3C//DTD SVG 1.1//EN"
 "http://www.w3.org/Graphics/SVG/1.1/DTD/svg11.dtd">
<!-- Generated by graphviz version 12.0.0 (20240803.0821)
 -->
<!-- Pages: 1 -->
<svg width="2050pt" height="354pt"
 viewBox="0.00 0.00 2050.40 354.00" xmlns="http://www.w3.org/2000/svg" xmlns:xlink="http://www.w3.org/1999/xlink">
<g id="graph0" class="graph" transform="scale(1 1) rotate(0) translate(4 350)">
<polygon fill="white" stroke="none" points="-4,4 -4,-350 2046.4,-350 2046.4,4 -4,4"/>
<!-- q17:0.0 -->
<g id="node1" class="node">
<title>q17:0.0</title>
<ellipse fill="none" stroke="black" stroke-width="2" cx="1231.4" cy="-246" rx="49.1" ry="18"/>
<text text-anchor="middle" x="1231.4" y="-241.32" font-family="Times,serif" font-size="14.00">q17:0.0</text>
</g>
<!-- q22:0.0 -->
<g id="node2" class="node">
<title>q22:0.0</title>
<ellipse fill="none" stroke="black" stroke-width="2" cx="1496.1" cy="-274" rx="49.1" ry="18"/>
<text text-anchor="middle" x="1496.1" y="-269.32" font-family="Times,serif" font-size="14.00">q22:0.0</text>
</g>
<!-- q17:0.0&#45;&gt;q22:0.0 -->
<g id="edge1" class="edge">
<title>q17:0.0&#45;&gt;q22:0.0</title>
<path fill="none" stroke="black" d="M1279.7,-251.04C1323.8,-255.74 1389.7,-262.76 1436.9,-267.8"/>
<polygon fill="black" stroke="black" points="1436.38,-271.26 1446.69,-268.84 1437.12,-264.3 1436.38,-271.26"/>
<text text-anchor="middle" x="1363.8" y="-269.94" font-family="Times,serif" font-size="14.00">content/250:0.03</text>
</g>
<!-- q13:0.0 -->
<g id="node3" class="node">
<title>q13:0.0</title>
<ellipse fill="none" stroke="black" stroke-width="2" cx="1496.1" cy="-181" rx="49.1" ry="18"/>
<text text-anchor="middle" x="1496.1" y="-176.32" font-family="Times,serif" font-size="14.00">q13:0.0</text>
</g>
<!-- q17:0.0&#45;&gt;q13:0.0 -->
<g id="edge2" class="edge">
<title>q17:0.0&#45;&gt;q13:0.0</title>
<path fill="none" stroke="black" d="M1251.8,-228.91C1267.4,-215.56 1288.4,-198.63 1298.5,-194.75 1342.5,-177.98 1395.9,-175.25 1436,-176.32"/>
<polygon fill="black" stroke="black" points="1435.76,-179.81 1445.89,-176.68 1436.02,-172.82 1435.76,-179.81"/>
<text text-anchor="middle" x="1363.8" y="-197.94" font-family="Times,serif" font-size="14.00">content/λ:0.969</text>
</g>
<!-- q21:0.0 -->
<g id="node4" class="node">
<title>q21:0.0</title>
<ellipse fill="none" stroke="black" stroke-width="2" cx="1496.1" cy="-328" rx="49.1" ry="18"/>
<text text-anchor="middle" x="1496.1" y="-323.32" font-family="Times,serif" font-size="14.00">q21:0.0</text>
</g>
<!-- q17:0.0&#45;&gt;q21:0.0 -->
<g id="edge3" class="edge">
<title>q17:0.0&#45;&gt;q21:0.0</title>
<path fill="none" stroke="black" d="M1254.9,-262.71C1267.2,-271.13 1283.1,-280.83 1298.5,-287 1343.3,-304.89 1397,-315.41 1437,-321.31"/>
<polygon fill="black" stroke="black" points="1436.21,-324.73 1446.6,-322.68 1437.19,-317.8 1436.21,-324.73"/>
<text text-anchor="middle" x="1363.8" y="-322.94" font-family="Times,serif" font-size="14.00">content/554:0.001</text>
</g>
<!-- q26:1.0 -->
<g id="node5" class="node">
<title>q26:1.0</title>
<ellipse fill="none" stroke="black" stroke-width="2" cx="1760.8" cy="-274" rx="49.1" ry="18"/>
<text text-anchor="middle" x="1760.8" y="-269.32" font-family="Times,serif" font-size="14.00">q26:1.0</text>
</g>
<!-- q22:0.0&#45;&gt;q26:1.0 -->
<g id="edge4" class="edge">
<title>q22:0.0&#45;&gt;q26:1.0</title>
<path fill="none" stroke="black" d="M1545.9,-274C1589.3,-274 1652.8,-274 1699.4,-274"/>
<polygon fill="black" stroke="black" points="1699.39,-277.5 1709.39,-274 1699.39,-270.5 1699.39,-277.5"/>
<text text-anchor="middle" x="1628.5" y="-277.94" font-family="Times,serif" font-size="14.00">QUIT/221:1.0</text>
</g>
<!-- q13:0.0&#45;&gt;q17:0.0 -->
<g id="edge5" class="edge">
<title>q13:0.0&#45;&gt;q17:0.0</title>
<path fill="none" stroke="black" d="M1467.2,-196.28C1455.7,-202 1442,-208.07 1429,-212 1372.9,-229.02 1356.2,-221.18 1298.5,-231.75 1294.4,-232.5 1290.2,-233.32 1285.9,-234.17"/>
<polygon fill="black" stroke="black" points="1285.26,-230.73 1276.18,-236.18 1286.68,-237.58 1285.26,-230.73"/>
<text text-anchor="middle" x="1363.8" y="-234.94" font-family="Times,serif" font-size="14.00">content/λ:0.895</text>
</g>
<!-- q19:0.0 -->
<g id="node6" class="node">
<title>q19:0.0</title>
<ellipse fill="none" stroke="black" stroke-width="2" cx="1760.8" cy="-112" rx="49.1" ry="18"/>
<text text-anchor="middle" x="1760.8" y="-107.33" font-family="Times,serif" font-size="14.00">q19:0.0</text>
</g>
<!-- q13:0.0&#45;&gt;q19:0.0 -->
<g id="edge6" class="edge">
<title>q13:0.0&#45;&gt;q19:0.0</title>
<path fill="none" stroke="black" d="M1523.3,-165.09C1535.2,-158.53 1549.5,-151.39 1563.2,-146.75 1608.2,-131.52 1661.3,-122.64 1701,-117.68"/>
<polygon fill="black" stroke="black" points="1701.38,-121.16 1710.9,-116.5 1700.55,-114.21 1701.38,-121.16"/>
<text text-anchor="middle" x="1628.5" y="-149.94" font-family="Times,serif" font-size="14.00">content/554:0.051</text>
</g>
<!-- q16:0.0 -->
<g id="node7" class="node">
<title>q16:0.0</title>
<ellipse fill="none" stroke="black" stroke-width="2" cx="1760.8" cy="-220" rx="49.1" ry="18"/>
<text text-anchor="middle" x="1760.8" y="-215.32" font-family="Times,serif" font-size="14.00">q16:0.0</text>
</g>
<!-- q13:0.0&#45;&gt;q16:0.0 -->
<g id="edge7" class="edge">
<title>q13:0.0&#45;&gt;q16:0.0</title>
<path fill="none" stroke="black" d="M1541.9,-188.6C1549,-189.76 1556.3,-190.93 1563.2,-192 1610.1,-199.23 1663.3,-206.77 1702.5,-212.2"/>
<polygon fill="black" stroke="black" points="1701.82,-215.64 1712.2,-213.53 1702.77,-208.7 1701.82,-215.64"/>
<text text-anchor="middle" x="1628.5" y="-213.94" font-family="Times,serif" font-size="14.00">content/250:0.053</text>
</g>
<!-- q18:0.0 -->
<g id="node8" class="node">
<title>q18:0.0</title>
<ellipse fill="none" stroke="black" stroke-width="2" cx="1760.8" cy="-166" rx="49.1" ry="18"/>
<text text-anchor="middle" x="1760.8" y="-161.32" font-family="Times,serif" font-size="14.00">q18:0.0</text>
</g>
<!-- q13:0.0&#45;&gt;q18:0.0 -->
<g id="edge8" class="edge">
<title>q13:0.0&#45;&gt;q18:0.0</title>
<path fill="none" stroke="black" d="M1544.4,-176.24C1550.7,-175.69 1557.1,-175.17 1563.2,-174.75 1608.9,-171.58 1660.6,-169.33 1699.5,-167.91"/>
<polygon fill="black" stroke="black" points="1699.52,-171.41 1709.39,-167.55 1699.27,-164.42 1699.52,-171.41"/>
<text text-anchor="middle" x="1628.5" y="-177.94" font-family="Times,serif" font-size="14.00">content/550:0.001</text>
</g>
<!-- q25:1.0 -->
<g id="node9" class="node">
<title>q25:1.0</title>
<ellipse fill="none" stroke="black" stroke-width="2" cx="1760.8" cy="-328" rx="49.1" ry="18"/>
<text text-anchor="middle" x="1760.8" y="-323.32" font-family="Times,serif" font-size="14.00">q25:1.0</text>
</g>
<!-- q21:0.0&#45;&gt;q25:1.0 -->
<g id="edge9" class="edge">
<title>q21:0.0&#45;&gt;q25:1.0</title>
<path fill="none" stroke="black" d="M1545.9,-328C1589.3,-328 1652.8,-328 1699.4,-328"/>
<polygon fill="black" stroke="black" points="1699.39,-331.5 1709.39,-328 1699.39,-324.5 1699.39,-331.5"/>
<text text-anchor="middle" x="1628.5" y="-331.94" font-family="Times,serif" font-size="14.00">RSET/250:1.0</text>
</g>
<!-- q24:1.0 -->
<g id="node10" class="node">
<title>q24:1.0</title>
<ellipse fill="none" stroke="black" stroke-width="2" cx="1993.3" cy="-112" rx="49.1" ry="18"/>
<text text-anchor="middle" x="1993.3" y="-107.33" font-family="Times,serif" font-size="14.00">q24:1.0</text>
</g>
<!-- q19:0.0&#45;&gt;q24:1.0 -->
<g id="edge10" class="edge">
<title>q19:0.0&#45;&gt;q24:1.0</title>
<path fill="none" stroke="black" d="M1810.7,-112C1846.2,-112 1894.3,-112 1932.1,-112"/>
<polygon fill="black" stroke="black" points="1931.99,-115.5 1941.99,-112 1931.99,-108.5 1931.99,-115.5"/>
<text text-anchor="middle" x="1877.1" y="-115.95" font-family="Times,serif" font-size="14.00">RSET/250:1.0</text>
</g>
<!-- q20:1.0 -->
<g id="node11" class="node">
<title>q20:1.0</title>
<ellipse fill="none" stroke="black" stroke-width="2" cx="1993.3" cy="-220" rx="49.1" ry="18"/>
<text text-anchor="middle" x="1993.3" y="-215.32" font-family="Times,serif" font-size="14.00">q20:1.0</text>
</g>
<!-- q16:0.0&#45;&gt;q20:1.0 -->
<g id="edge11" class="edge">
<title>q16:0.0&#45;&gt;q20:1.0</title>
<path fill="none" stroke="black" d="M1810.7,-220C1846.2,-220 1894.3,-220 1932.1,-220"/>
<polygon fill="black" stroke="black" points="1931.99,-223.5 1941.99,-220 1931.99,-216.5 1931.99,-223.5"/>
<text text-anchor="middle" x="1877.1" y="-223.94" font-family="Times,serif" font-size="14.00">QUIT/221:1.0</text>
</g>
<!-- q23:1.0 -->
<g id="node12" class="node">
<title>q23:1.0</title>
<ellipse fill="none" stroke="black" stroke-width="2" cx="1993.3" cy="-166" rx="49.1" ry="18"/>
<text text-anchor="middle" x="1993.3" y="-161.32" font-family="Times,serif" font-size="14.00">q23:1.0</text>
</g>
<!-- q18:0.0&#45;&gt;q23:1.0 -->
<g id="edge12" class="edge">
<title>q18:0.0&#45;&gt;q23:1.0</title>
<path fill="none" stroke="black" d="M1810.7,-166C1846.2,-166 1894.3,-166 1932.1,-166"/>
<polygon fill="black" stroke="black" points="1931.99,-169.5 1941.99,-166 1931.99,-162.5 1931.99,-169.5"/>
<text text-anchor="middle" x="1877.1" y="-169.94" font-family="Times,serif" font-size="14.00">RSET/250:1.0</text>
</g>
<!-- q0:0.0 -->
<g id="node13" class="node">
<title>q0:0.0</title>
<ellipse fill="none" stroke="black" stroke-width="2" cx="50.79" cy="-123" rx="46.79" ry="46.79"/>
<ellipse fill="none" stroke="black" stroke-width="2" cx="50.79" cy="-123" rx="50.79" ry="50.79"/>
<text text-anchor="middle" x="50.79" y="-118.33" font-family="Times,serif" font-size="14.00">q0:0.0</text>
</g>
<!-- q1:0.0 -->
<g id="node14" class="node">
<title>q1:0.0</title>
<ellipse fill="none" stroke="black" stroke-width="2" cx="243.87" cy="-123" rx="42.79" ry="18"/>
<text text-anchor="middle" x="243.87" y="-118.33" font-family="Times,serif" font-size="14.00">q1:0.0</text>
</g>
<!-- q0:0.0&#45;&gt;q1:0.0 -->
<g id="edge13" class="edge">
<title>q0:0.0&#45;&gt;q1:0.0</title>
<path fill="none" stroke="black" d="M98.53,-123C125.82,-123 160.37,-123 188.82,-123"/>
<polygon fill="black" stroke="black" points="188.69,-126.5 198.69,-123 188.69,-119.5 188.69,-126.5"/>
<text text-anchor="middle" x="149.33" y="-126.95" font-family="Times,serif" font-size="14.00">λ/220:1.0</text>
</g>
<!-- q3:0.0 -->
<g id="node15" class="node">
<title>q3:0.0</title>
<ellipse fill="none" stroke="black" stroke-width="2" cx="484.7" cy="-96" rx="42.79" ry="18"/>
<text text-anchor="middle" x="484.7" y="-91.33" font-family="Times,serif" font-size="14.00">q3:0.0</text>
</g>
<!-- q1:0.0&#45;&gt;q3:0.0 -->
<g id="edge14" class="edge">
<title>q1:0.0&#45;&gt;q3:0.0</title>
<path fill="none" stroke="black" d="M279.7,-112.24C287.82,-110.1 296.49,-108.09 304.66,-106.75 346.39,-99.9 394.23,-97.29 429.95,-96.36"/>
<polygon fill="black" stroke="black" points="429.67,-99.86 439.59,-96.14 429.51,-92.86 429.67,-99.86"/>
<text text-anchor="middle" x="364.29" y="-110.95" font-family="Times,serif" font-size="14.00">EHLO/250:0.992</text>
</g>
<!-- q2:0.0 -->
<g id="node16" class="node">
<title>q2:0.0</title>
<ellipse fill="none" stroke="black" stroke-width="2" cx="484.7" cy="-156" rx="42.79" ry="18"/>
<text text-anchor="middle" x="484.7" y="-151.32" font-family="Times,serif" font-size="14.00">q2:0.0</text>
</g>
<!-- q1:0.0&#45;&gt;q2:0.0 -->
<g id="edge15" class="edge">
<title>q1:0.0&#45;&gt;q2:0.0</title>
<path fill="none" stroke="black" d="M285.66,-128.64C326.01,-134.21 387.94,-142.77 431.79,-148.83"/>
<polygon fill="black" stroke="black" points="431.19,-152.28 441.58,-150.18 432.15,-145.35 431.19,-152.28"/>
<text text-anchor="middle" x="364.29" y="-150.94" font-family="Times,serif" font-size="14.00">EHLO/λ:0.008</text>
</g>
<!-- q6:0.0 -->
<g id="node17" class="node">
<title>q6:0.0</title>
<ellipse fill="none" stroke="black" stroke-width="2" cx="725.53" cy="-83" rx="42.79" ry="18"/>
<text text-anchor="middle" x="725.53" y="-78.33" font-family="Times,serif" font-size="14.00">q6:0.0</text>
</g>
<!-- q3:0.0&#45;&gt;q6:0.0 -->
<g id="edge16" class="edge">
<title>q3:0.0&#45;&gt;q6:0.0</title>
<path fill="none" stroke="black" d="M523.16,-87.14C530.52,-85.74 538.22,-84.5 545.49,-83.75 587.48,-79.4 635.3,-79.46 670.96,-80.47"/>
<polygon fill="black" stroke="black" points="670.46,-83.95 680.57,-80.77 670.68,-76.96 670.46,-83.95"/>
<text text-anchor="middle" x="605.12" y="-87.95" font-family="Times,serif" font-size="14.00">AUTH/235:0.954</text>
</g>
<!-- q4:0.0 -->
<g id="node18" class="node">
<title>q4:0.0</title>
<ellipse fill="none" stroke="black" stroke-width="2" cx="725.53" cy="-163" rx="42.79" ry="18"/>
<text text-anchor="middle" x="725.53" y="-158.32" font-family="Times,serif" font-size="14.00">q4:0.0</text>
</g>
<!-- q3:0.0&#45;&gt;q4:0.0 -->
<g id="edge17" class="edge">
<title>q3:0.0&#45;&gt;q4:0.0</title>
<path fill="none" stroke="black" d="M525.82,-102.43C562.54,-108.89 618.09,-120.13 664.74,-135.75 671.94,-138.16 679.43,-141.16 686.58,-144.27"/>
<polygon fill="black" stroke="black" points="684.8,-147.31 695.35,-148.25 687.69,-140.93 684.8,-147.31"/>
<text text-anchor="middle" x="605.12" y="-139.94" font-family="Times,serif" font-size="14.00">AUTH/λ:0.004</text>
</g>
<!-- q5:0.0 -->
<g id="node19" class="node">
<title>q5:0.0</title>
<ellipse fill="none" stroke="black" stroke-width="2" cx="725.53" cy="-27" rx="42.79" ry="18"/>
<text text-anchor="middle" x="725.53" y="-22.32" font-family="Times,serif" font-size="14.00">q5:0.0</text>
</g>
<!-- q3:0.0&#45;&gt;q5:0.0 -->
<g id="edge18" class="edge">
<title>q3:0.0&#45;&gt;q5:0.0</title>
<path fill="none" stroke="black" d="M507.07,-79.89C518.03,-72.38 531.9,-63.96 545.49,-58.75 586.05,-43.19 634.74,-35.18 671.1,-31.11"/>
<polygon fill="black" stroke="black" points="671.35,-34.6 680.93,-30.07 670.62,-27.64 671.35,-34.6"/>
<text text-anchor="middle" x="605.12" y="-62.95" font-family="Times,serif" font-size="14.00">AUTH/535:0.041</text>
</g>
<!-- q2:0.0&#45;&gt;q4:0.0 -->
<g id="edge19" class="edge">
<title>q2:0.0&#45;&gt;q4:0.0</title>
<path fill="none" stroke="black" d="M528.12,-157.24C567.91,-158.41 627.56,-160.16 670.69,-161.42"/>
<polygon fill="black" stroke="black" points="670.49,-164.92 680.59,-161.71 670.7,-157.92 670.49,-164.92"/>
<text text-anchor="middle" x="605.12" y="-164.94" font-family="Times,serif" font-size="14.00">AUTH/235:1.0</text>
</g>
<!-- q9:0.0 -->
<g id="node20" class="node">
<title>q9:0.0</title>
<ellipse fill="none" stroke="black" stroke-width="2" cx="1231.4" cy="-142" rx="42.79" ry="18"/>
<text text-anchor="middle" x="1231.4" y="-137.32" font-family="Times,serif" font-size="14.00">q9:0.0</text>
</g>
<!-- q6:0.0&#45;&gt;q9:0.0 -->
<g id="edge20" class="edge">
<title>q6:0.0&#45;&gt;q9:0.0</title>
<path fill="none" stroke="black" d="M759.4,-94.86C768.06,-97.59 777.46,-100.22 786.32,-102 925.12,-129.96 1092.3,-138.38 1176.4,-140.92"/>
<polygon fill="black" stroke="black" points="1176.09,-144.41 1186.19,-141.2 1176.29,-137.42 1176.09,-144.41"/>
<text text-anchor="middle" x="976.45" y="-137.94" font-family="Times,serif" font-size="14.00">MAIL/250:0.991</text>
</g>
<!-- q10:0.0 -->
<g id="node21" class="node">
<title>q10:0.0</title>
<ellipse fill="none" stroke="black" stroke-width="2" cx="976.45" cy="-72" rx="49.1" ry="18"/>
<text text-anchor="middle" x="976.45" y="-67.33" font-family="Times,serif" font-size="14.00">q10:0.0</text>
</g>
<!-- q6:0.0&#45;&gt;q10:0.0 -->
<g id="edge21" class="edge">
<title>q6:0.0&#45;&gt;q10:0.0</title>
<path fill="none" stroke="black" d="M769.04,-81.12C809.28,-79.34 870.08,-76.66 915.29,-74.66"/>
<polygon fill="black" stroke="black" points="915.37,-78.16 925.21,-74.22 915.06,-71.17 915.37,-78.16"/>
<text text-anchor="middle" x="843.7" y="-84.95" font-family="Times,serif" font-size="14.00">MAIL/553:0.009</text>
</g>
<!-- q7:0.0 -->
<g id="node22" class="node">
<title>q7:0.0</title>
<ellipse fill="none" stroke="black" stroke-width="2" cx="976.45" cy="-179" rx="42.79" ry="18"/>
<text text-anchor="middle" x="976.45" y="-174.32" font-family="Times,serif" font-size="14.00">q7:0.0</text>
</g>
<!-- q4:0.0&#45;&gt;q7:0.0 -->
<g id="edge22" class="edge">
<title>q4:0.0&#45;&gt;q7:0.0</title>
<path fill="none" stroke="black" d="M768.76,-165.71C811.08,-168.43 876.37,-172.63 922.22,-175.58"/>
<polygon fill="black" stroke="black" points="921.71,-179.05 931.92,-176.2 922.16,-172.07 921.71,-179.05"/>
<text text-anchor="middle" x="843.7" y="-176.94" font-family="Times,serif" font-size="14.00">MAIL/250:1.0</text>
</g>
<!-- q8:0.0 -->
<g id="node23" class="node">
<title>q8:0.0</title>
<ellipse fill="none" stroke="black" stroke-width="2" cx="976.45" cy="-18" rx="42.79" ry="18"/>
<text text-anchor="middle" x="976.45" y="-13.32" font-family="Times,serif" font-size="14.00">q8:0.0</text>
</g>
<!-- q5:0.0&#45;&gt;q8:0.0 -->
<g id="edge23" class="edge">
<title>q5:0.0&#45;&gt;q8:0.0</title>
<path fill="none" stroke="black" d="M769.04,-25.46C811.19,-23.94 875.92,-21.6 921.64,-19.95"/>
<polygon fill="black" stroke="black" points="921.74,-23.44 931.61,-19.59 921.49,-16.45 921.74,-23.44"/>
<text text-anchor="middle" x="843.7" y="-28.95" font-family="Times,serif" font-size="14.00">AUTH/334:1.0</text>
</g>
<!-- q9:0.0&#45;&gt;q13:0.0 -->
<g id="edge24" class="edge">
<title>q9:0.0&#45;&gt;q13:0.0</title>
<path fill="none" stroke="black" d="M1274.8,-140.95C1315,-140.85 1376.8,-143 1429,-154.75 1437.1,-156.58 1445.6,-159.26 1453.6,-162.22"/>
<polygon fill="black" stroke="black" points="1452.2,-165.43 1462.79,-165.83 1454.76,-158.92 1452.2,-165.43"/>
<text text-anchor="middle" x="1363.8" y="-157.94" font-family="Times,serif" font-size="14.00">DATA/354:0.309</text>
</g>
<!-- q9:0.0&#45;&gt;q9:0.0 -->
<g id="edge25" class="edge">
<title>q9:0.0&#45;&gt;q9:0.0</title>
<path fill="none" stroke="black" d="M1209.9,-158.29C1204.7,-168.39 1211.9,-178 1231.4,-178 1243,-178 1250.2,-174.61 1253.1,-169.74"/>
<polygon fill="black" stroke="black" points="1256.6,-169.74 1252.93,-159.8 1249.6,-169.86 1256.6,-169.74"/>
<text text-anchor="middle" x="1231.4" y="-181.94" font-family="Times,serif" font-size="14.00">RCPT/250:0.62</text>
</g>
<!-- q12:1.0 -->
<g id="node24" class="node">
<title>q12:1.0</title>
<ellipse fill="none" stroke="black" stroke-width="2" cx="1496.1" cy="-114" rx="49.1" ry="18"/>
<text text-anchor="middle" x="1496.1" y="-109.33" font-family="Times,serif" font-size="14.00">q12:1.0</text>
</g>
<!-- q9:0.0&#45;&gt;q12:1.0 -->
<g id="edge26" class="edge">
<title>q9:0.0&#45;&gt;q12:1.0</title>
<path fill="none" stroke="black" d="M1260,-127.84C1271.6,-122.64 1285.4,-117.38 1298.5,-114.75 1344.2,-105.61 1397.1,-106.01 1436.5,-108.37"/>
<polygon fill="black" stroke="black" points="1435.98,-111.84 1446.19,-109.01 1436.44,-104.86 1435.98,-111.84"/>
<text text-anchor="middle" x="1363.8" y="-118.95" font-family="Times,serif" font-size="14.00">DATA/550:0.071</text>
</g>
<!-- q14:1.0 -->
<g id="node25" class="node">
<title>q14:1.0</title>
<ellipse fill="none" stroke="black" stroke-width="2" cx="1231.4" cy="-72" rx="49.1" ry="18"/>
<text text-anchor="middle" x="1231.4" y="-67.33" font-family="Times,serif" font-size="14.00">q14:1.0</text>
</g>
<!-- q10:0.0&#45;&gt;q14:1.0 -->
<g id="edge27" class="edge">
<title>q10:0.0&#45;&gt;q14:1.0</title>
<path fill="none" stroke="black" d="M1026.5,-72C1067.5,-72 1126.2,-72 1170.1,-72"/>
<polygon fill="black" stroke="black" points="1169.99,-75.5 1179.99,-72 1169.99,-68.5 1169.99,-75.5"/>
<text text-anchor="middle" x="1108.1" y="-75.95" font-family="Times,serif" font-size="14.00">RSET/250:1.0</text>
</g>
<!-- q7:0.0&#45;&gt;q9:0.0 -->
<g id="edge28" class="edge">
<title>q7:0.0&#45;&gt;q9:0.0</title>
<path fill="none" stroke="black" d="M1017.8,-173.1C1061.5,-166.71 1131.3,-156.5 1178.9,-149.54"/>
<polygon fill="black" stroke="black" points="1179.32,-153.02 1188.7,-148.1 1178.3,-146.09 1179.32,-153.02"/>
<text text-anchor="middle" x="1108.1" y="-171.94" font-family="Times,serif" font-size="14.00">RCPT/250:1.0</text>
</g>
<!-- q11:0.6 -->
<g id="node26" class="node">
<title>q11:0.6</title>
<ellipse fill="none" stroke="black" stroke-width="2" cx="1231.4" cy="-18" rx="49.1" ry="18"/>
<text text-anchor="middle" x="1231.4" y="-13.32" font-family="Times,serif" font-size="14.00">q11:0.6</text>
</g>
<!-- q8:0.0&#45;&gt;q11:0.6 -->
<g id="edge29" class="edge">
<title>q8:0.0&#45;&gt;q11:0.6</title>
<path fill="none" stroke="black" d="M1020.1,-18C1061.2,-18 1123.9,-18 1170.2,-18"/>
<polygon fill="black" stroke="black" points="1170.09,-21.5 1180.09,-18 1170.09,-14.5 1170.09,-21.5"/>
<text text-anchor="middle" x="1108.1" y="-21.95" font-family="Times,serif" font-size="14.00">content/535:1.0</text>
</g>
<!-- q15:1.0 -->
<g id="node27" class="node">
<title>q15:1.0</title>
<ellipse fill="none" stroke="black" stroke-width="2" cx="1496.1" cy="-18" rx="49.1" ry="18"/>
<text text-anchor="middle" x="1496.1" y="-13.32" font-family="Times,serif" font-size="14.00">q15:1.0</text>
</g>
<!-- q11:0.6&#45;&gt;q15:1.0 -->
<g id="edge30" class="edge">
<title>q11:0.6&#45;&gt;q15:1.0</title>
<path fill="none" stroke="black" d="M1281.2,-18C1324.6,-18 1388.1,-18 1434.7,-18"/>
<polygon fill="black" stroke="black" points="1434.69,-21.5 1444.69,-18 1434.69,-14.5 1434.69,-21.5"/>
<text text-anchor="middle" x="1363.8" y="-21.95" font-family="Times,serif" font-size="14.00">λ/451:0.4</text>
</g>
</g>
</svg>
