<?xml version="1.0" encoding="UTF-8" standalone="no"?>
<!DOCTYPE svg PUBLIC "-//W3C//DTD SVG 1.1//EN"
 "http://www.w3.org/Graphics/SVG/1.1/DTD/svg11.dtd">
<!-- Generated by graphviz version 12.0.0 (20240803.0821)
 -->
<!-- Pages: 1 -->
<svg width="2310pt" height="427pt"
 viewBox="0.00 0.00 2310.30 427.00" xmlns="http://www.w3.org/2000/svg" xmlns:xlink="http://www.w3.org/1999/xlink">
<g id="graph0" class="graph" transform="scale(1 1) rotate(0) translate(4 423)">
<polygon fill="white" stroke="none" points="-4,4 -4,-423 2306.3,-423 2306.3,4 -4,4"/>
<!-- q17:0.0 -->
<g id="node1" class="node">
<title>q17:0.0</title>
<ellipse fill="none" stroke="black" stroke-width="2" cx="1229.8" cy="-258" rx="49.1" ry="18"/>
<text text-anchor="middle" x="1229.8" y="-253.32" font-family="Times,serif" font-size="14.00">q17:0.0</text>
</g>
<!-- q17:0.0&#45;&gt;q17:0.0 -->
<g id="edge1" class="edge">
<title>q17:0.0&#45;&gt;q17:0.0</title>
<path fill="none" stroke="black" d="M1205.9,-274.29C1200.1,-284.39 1208.1,-294 1229.8,-294 1242.6,-294 1250.7,-290.61 1253.9,-285.74"/>
<polygon fill="black" stroke="black" points="1257.4,-285.74 1253.73,-275.8 1250.4,-285.86 1257.4,-285.74"/>
<text text-anchor="middle" x="1229.8" y="-297.94" font-family="Times,serif" font-size="14.00">content/λ:0.943</text>
</g>
<!-- q21:0.0 -->
<g id="node2" class="node">
<title>q21:0.0</title>
<ellipse fill="none" stroke="black" stroke-width="2" cx="1507.1" cy="-258" rx="49.1" ry="18"/>
<text text-anchor="middle" x="1507.1" y="-253.32" font-family="Times,serif" font-size="14.00">q21:0.0</text>
</g>
<!-- q17:0.0&#45;&gt;q21:0.0 -->
<g id="edge2" class="edge">
<title>q17:0.0&#45;&gt;q21:0.0</title>
<path fill="none" stroke="black" d="M1279.7,-258C1326.1,-258 1396.1,-258 1445.9,-258"/>
<polygon fill="black" stroke="black" points="1445.69,-261.5 1455.69,-258 1445.69,-254.5 1445.69,-261.5"/>
<text text-anchor="middle" x="1374.7" y="-261.94" font-family="Times,serif" font-size="14.00">content/550:0.0</text>
</g>
<!-- q22:0.0 -->
<g id="node3" class="node">
<title>q22:0.0</title>
<ellipse fill="none" stroke="black" stroke-width="2" cx="1507.1" cy="-204" rx="49.1" ry="18"/>
<text text-anchor="middle" x="1507.1" y="-199.32" font-family="Times,serif" font-size="14.00">q22:0.0</text>
</g>
<!-- q17:0.0&#45;&gt;q22:0.0 -->
<g id="edge3" class="edge">
<title>q17:0.0&#45;&gt;q22:0.0</title>
<path fill="none" stroke="black" d="M1269.8,-246.64C1282.4,-243.2 1296.5,-239.58 1309.5,-236.75 1356.1,-226.6 1409.5,-217.88 1448.9,-212"/>
<polygon fill="black" stroke="black" points="1449.32,-215.48 1458.7,-210.56 1448.3,-208.55 1449.32,-215.48"/>
<text text-anchor="middle" x="1374.7" y="-240.94" font-family="Times,serif" font-size="14.00">content/250:0.042</text>
</g>
<!-- q23:0.0 -->
<g id="node4" class="node">
<title>q23:0.0</title>
<ellipse fill="none" stroke="black" stroke-width="2" cx="1507.1" cy="-312" rx="49.1" ry="18"/>
<text text-anchor="middle" x="1507.1" y="-307.32" font-family="Times,serif" font-size="14.00">q23:0.0</text>
</g>
<!-- q17:0.0&#45;&gt;q23:0.0 -->
<g id="edge4" class="edge">
<title>q17:0.0&#45;&gt;q23:0.0</title>
<path fill="none" stroke="black" d="M1269.8,-269.2C1282.4,-272.6 1296.5,-276.18 1309.5,-279 1356.1,-289.11 1409.6,-297.9 1448.9,-303.87"/>
<polygon fill="black" stroke="black" points="1448.3,-307.32 1458.7,-305.33 1449.33,-300.39 1448.3,-307.32"/>
<text text-anchor="middle" x="1374.7" y="-304.94" font-family="Times,serif" font-size="14.00">content/554:0.015</text>
</g>
<!-- q26:1.0 -->
<g id="node5" class="node">
<title>q26:1.0</title>
<ellipse fill="none" stroke="black" stroke-width="2" cx="1756.1" cy="-258" rx="49.1" ry="18"/>
<text text-anchor="middle" x="1756.1" y="-253.32" font-family="Times,serif" font-size="14.00">q26:1.0</text>
</g>
<!-- q21:0.0&#45;&gt;q26:1.0 -->
<g id="edge5" class="edge">
<title>q21:0.0&#45;&gt;q26:1.0</title>
<path fill="none" stroke="black" d="M1557.2,-258C1596.7,-258 1652.5,-258 1694.8,-258"/>
<polygon fill="black" stroke="black" points="1694.59,-261.5 1704.59,-258 1694.59,-254.5 1694.59,-261.5"/>
<text text-anchor="middle" x="1631.6" y="-261.94" font-family="Times,serif" font-size="14.00">RSET/250:1.0</text>
</g>
<!-- q27:1.0 -->
<g id="node6" class="node">
<title>q27:1.0</title>
<ellipse fill="none" stroke="black" stroke-width="2" cx="1756.1" cy="-204" rx="49.1" ry="18"/>
<text text-anchor="middle" x="1756.1" y="-199.32" font-family="Times,serif" font-size="14.00">q27:1.0</text>
</g>
<!-- q22:0.0&#45;&gt;q27:1.0 -->
<g id="edge6" class="edge">
<title>q22:0.0&#45;&gt;q27:1.0</title>
<path fill="none" stroke="black" d="M1557.2,-204C1596.7,-204 1652.5,-204 1694.8,-204"/>
<polygon fill="black" stroke="black" points="1694.59,-207.5 1704.59,-204 1694.59,-200.5 1694.59,-207.5"/>
<text text-anchor="middle" x="1631.6" y="-207.94" font-family="Times,serif" font-size="14.00">QUIT/221:1.0</text>
</g>
<!-- q28:1.0 -->
<g id="node7" class="node">
<title>q28:1.0</title>
<ellipse fill="none" stroke="black" stroke-width="2" cx="1756.1" cy="-312" rx="49.1" ry="18"/>
<text text-anchor="middle" x="1756.1" y="-307.32" font-family="Times,serif" font-size="14.00">q28:1.0</text>
</g>
<!-- q23:0.0&#45;&gt;q28:1.0 -->
<g id="edge7" class="edge">
<title>q23:0.0&#45;&gt;q28:1.0</title>
<path fill="none" stroke="black" d="M1557.2,-312C1596.7,-312 1652.5,-312 1694.8,-312"/>
<polygon fill="black" stroke="black" points="1694.59,-315.5 1704.59,-312 1694.59,-308.5 1694.59,-315.5"/>
<text text-anchor="middle" x="1631.6" y="-315.94" font-family="Times,serif" font-size="14.00">RSET/250:1.0</text>
</g>
<!-- q14:0.692 -->
<g id="node8" class="node">
<title>q14:0.692</title>
<ellipse fill="none" stroke="black" stroke-width="2" cx="1229.8" cy="-401" rx="61.73" ry="18"/>
<text text-anchor="middle" x="1229.8" y="-396.32" font-family="Times,serif" font-size="14.00">q14:0.692</text>
</g>
<!-- q20:1.0 -->
<g id="node9" class="node">
<title>q20:1.0</title>
<ellipse fill="none" stroke="black" stroke-width="2" cx="1507.1" cy="-401" rx="49.1" ry="18"/>
<text text-anchor="middle" x="1507.1" y="-396.32" font-family="Times,serif" font-size="14.00">q20:1.0</text>
</g>
<!-- q14:0.692&#45;&gt;q20:1.0 -->
<g id="edge8" class="edge">
<title>q14:0.692&#45;&gt;q20:1.0</title>
<path fill="none" stroke="black" d="M1292.2,-401C1338,-401 1400.2,-401 1445.7,-401"/>
<polygon fill="black" stroke="black" points="1445.69,-404.5 1455.69,-401 1445.69,-397.5 1445.69,-404.5"/>
<text text-anchor="middle" x="1374.7" y="-404.94" font-family="Times,serif" font-size="14.00">λ/451:0.308</text>
</g>
<!-- q12:0.0 -->
<g id="node10" class="node">
<title>q12:0.0</title>
<ellipse fill="none" stroke="black" stroke-width="2" cx="968.18" cy="-268" rx="49.1" ry="18"/>
<text text-anchor="middle" x="968.18" y="-263.32" font-family="Times,serif" font-size="14.00">q12:0.0</text>
</g>
<!-- q12:0.0&#45;&gt;q17:0.0 -->
<g id="edge9" class="edge">
<title>q12:0.0&#45;&gt;q17:0.0</title>
<path fill="none" stroke="black" d="M1018,-266.12C1060.8,-264.47 1123.1,-262.07 1168.9,-260.31"/>
<polygon fill="black" stroke="black" points="1168.83,-263.82 1178.69,-259.93 1168.56,-256.82 1168.83,-263.82"/>
<text text-anchor="middle" x="1092.7" y="-268.94" font-family="Times,serif" font-size="14.00">DATA/354:0.296</text>
</g>
<!-- q12:0.0&#45;&gt;q12:0.0 -->
<g id="edge10" class="edge">
<title>q12:0.0&#45;&gt;q12:0.0</title>
<path fill="none" stroke="black" d="M946.12,-285.04C941.62,-294.86 948.97,-304 968.18,-304 979.28,-304 986.42,-300.94 989.6,-296.47"/>
<polygon fill="black" stroke="black" points="993.09,-296.73 990.15,-286.55 986.1,-296.34 993.09,-296.73"/>
<text text-anchor="middle" x="968.18" y="-307.94" font-family="Times,serif" font-size="14.00">RCPT/250:0.636</text>
</g>
<!-- q16:1.0 -->
<g id="node11" class="node">
<title>q16:1.0</title>
<ellipse fill="none" stroke="black" stroke-width="2" cx="1229.8" cy="-347" rx="49.1" ry="18"/>
<text text-anchor="middle" x="1229.8" y="-342.32" font-family="Times,serif" font-size="14.00">q16:1.0</text>
</g>
<!-- q12:0.0&#45;&gt;q16:1.0 -->
<g id="edge11" class="edge">
<title>q12:0.0&#45;&gt;q16:1.0</title>
<path fill="none" stroke="black" d="M1007.5,-279.66C1053.1,-293.54 1129.4,-316.77 1179.4,-331.99"/>
<polygon fill="black" stroke="black" points="1178.27,-335.3 1188.85,-334.86 1180.3,-328.61 1178.27,-335.3"/>
<text text-anchor="middle" x="1092.7" y="-324.94" font-family="Times,serif" font-size="14.00">DATA/550:0.068</text>
</g>
<!-- q19:0.0 -->
<g id="node12" class="node">
<title>q19:0.0</title>
<ellipse fill="none" stroke="black" stroke-width="2" cx="1756.1" cy="-45" rx="49.1" ry="18"/>
<text text-anchor="middle" x="1756.1" y="-40.33" font-family="Times,serif" font-size="14.00">q19:0.0</text>
</g>
<!-- q19:0.0&#45;&gt;q19:0.0 -->
<g id="edge12" class="edge">
<title>q19:0.0&#45;&gt;q19:0.0</title>
<path fill="none" stroke="black" d="M1734,-62.04C1729.5,-71.86 1736.8,-81 1756.1,-81 1767.2,-81 1774.3,-77.94 1777.5,-73.47"/>
<polygon fill="black" stroke="black" points="1780.99,-73.72 1778.02,-63.55 1774,-73.35 1780.99,-73.72"/>
<text text-anchor="middle" x="1756.1" y="-84.95" font-family="Times,serif" font-size="14.00">content/λ:0.926</text>
</g>
<!-- q25:0.0 -->
<g id="node13" class="node">
<title>q25:0.0</title>
<ellipse fill="none" stroke="black" stroke-width="2" cx="2020.8" cy="-72" rx="49.1" ry="18"/>
<text text-anchor="middle" x="2020.8" y="-67.33" font-family="Times,serif" font-size="14.00">q25:0.0</text>
</g>
<!-- q19:0.0&#45;&gt;q25:0.0 -->
<g id="edge13" class="edge">
<title>q19:0.0&#45;&gt;q25:0.0</title>
<path fill="none" stroke="black" d="M1804.3,-49.86C1848.3,-54.38 1913.9,-61.12 1961.1,-65.97"/>
<polygon fill="black" stroke="black" points="1960.59,-69.44 1970.89,-66.98 1961.3,-62.48 1960.59,-69.44"/>
<text text-anchor="middle" x="1888.4" y="-68.95" font-family="Times,serif" font-size="14.00">content/250:0.037</text>
</g>
<!-- q24:0.0 -->
<g id="node14" class="node">
<title>q24:0.0</title>
<ellipse fill="none" stroke="black" stroke-width="2" cx="2020.8" cy="-18" rx="49.1" ry="18"/>
<text text-anchor="middle" x="2020.8" y="-13.32" font-family="Times,serif" font-size="14.00">q24:0.0</text>
</g>
<!-- q19:0.0&#45;&gt;q24:0.0 -->
<g id="edge14" class="edge">
<title>q19:0.0&#45;&gt;q24:0.0</title>
<path fill="none" stroke="black" d="M1799.6,-35.64C1807.4,-34.16 1815.5,-32.78 1823.2,-31.75 1868.7,-25.61 1920.7,-22.13 1959.7,-20.21"/>
<polygon fill="black" stroke="black" points="1959.76,-23.71 1969.59,-19.74 1959.43,-16.71 1959.76,-23.71"/>
<text text-anchor="middle" x="1888.4" y="-35.95" font-family="Times,serif" font-size="14.00">content/554:0.037</text>
</g>
<!-- q30:1.0 -->
<g id="node15" class="node">
<title>q30:1.0</title>
<ellipse fill="none" stroke="black" stroke-width="2" cx="2253.2" cy="-72" rx="49.1" ry="18"/>
<text text-anchor="middle" x="2253.2" y="-67.33" font-family="Times,serif" font-size="14.00">q30:1.0</text>
</g>
<!-- q25:0.0&#45;&gt;q30:1.0 -->
<g id="edge15" class="edge">
<title>q25:0.0&#45;&gt;q30:1.0</title>
<path fill="none" stroke="black" d="M2070.6,-72C2106.1,-72 2154.2,-72 2192,-72"/>
<polygon fill="black" stroke="black" points="2191.89,-75.5 2201.89,-72 2191.89,-68.5 2191.89,-75.5"/>
<text text-anchor="middle" x="2137" y="-75.95" font-family="Times,serif" font-size="14.00">QUIT/221:1.0</text>
</g>
<!-- q29:1.0 -->
<g id="node16" class="node">
<title>q29:1.0</title>
<ellipse fill="none" stroke="black" stroke-width="2" cx="2253.2" cy="-18" rx="49.1" ry="18"/>
<text text-anchor="middle" x="2253.2" y="-13.32" font-family="Times,serif" font-size="14.00">q29:1.0</text>
</g>
<!-- q24:0.0&#45;&gt;q29:1.0 -->
<g id="edge16" class="edge">
<title>q24:0.0&#45;&gt;q29:1.0</title>
<path fill="none" stroke="black" d="M2070.6,-18C2106.1,-18 2154.2,-18 2192,-18"/>
<polygon fill="black" stroke="black" points="2191.89,-21.5 2201.89,-18 2191.89,-14.5 2191.89,-21.5"/>
<text text-anchor="middle" x="2137" y="-21.95" font-family="Times,serif" font-size="14.00">RSET/250:1.0</text>
</g>
<!-- q13:0.0 -->
<g id="node17" class="node">
<title>q13:0.0</title>
<ellipse fill="none" stroke="black" stroke-width="2" cx="1507.1" cy="-126" rx="49.1" ry="18"/>
<text text-anchor="middle" x="1507.1" y="-121.33" font-family="Times,serif" font-size="14.00">q13:0.0</text>
</g>
<!-- q13:0.0&#45;&gt;q19:0.0 -->
<g id="edge17" class="edge">
<title>q13:0.0&#45;&gt;q19:0.0</title>
<path fill="none" stroke="black" d="M1545.3,-113.79C1588.5,-99.63 1659.7,-76.26 1707,-60.75"/>
<polygon fill="black" stroke="black" points="1708.05,-64.09 1716.46,-57.65 1705.87,-57.44 1708.05,-64.09"/>
<text text-anchor="middle" x="1631.6" y="-108.95" font-family="Times,serif" font-size="14.00">DATA/354:0.667</text>
</g>
<!-- q18:1.0 -->
<g id="node18" class="node">
<title>q18:1.0</title>
<ellipse fill="none" stroke="black" stroke-width="2" cx="1756.1" cy="-134" rx="49.1" ry="18"/>
<text text-anchor="middle" x="1756.1" y="-129.32" font-family="Times,serif" font-size="14.00">q18:1.0</text>
</g>
<!-- q13:0.0&#45;&gt;q18:1.0 -->
<g id="edge18" class="edge">
<title>q13:0.0&#45;&gt;q18:1.0</title>
<path fill="none" stroke="black" d="M1556.9,-127.58C1596.5,-128.87 1652.7,-130.68 1695.1,-132.06"/>
<polygon fill="black" stroke="black" points="1694.78,-135.55 1704.89,-132.37 1695,-128.56 1694.78,-135.55"/>
<text text-anchor="middle" x="1631.6" y="-135.94" font-family="Times,serif" font-size="14.00">DATA/550:0.333</text>
</g>
<!-- q3:0.0 -->
<g id="node19" class="node">
<title>q3:0.0</title>
<ellipse fill="none" stroke="black" stroke-width="2" cx="484.7" cy="-196" rx="42.79" ry="18"/>
<text text-anchor="middle" x="484.7" y="-191.32" font-family="Times,serif" font-size="14.00">q3:0.0</text>
</g>
<!-- q5:0.0 -->
<g id="node20" class="node">
<title>q5:0.0</title>
<ellipse fill="none" stroke="black" stroke-width="2" cx="843.7" cy="-163" rx="42.79" ry="18"/>
<text text-anchor="middle" x="843.7" y="-158.32" font-family="Times,serif" font-size="14.00">q5:0.0</text>
</g>
<!-- q3:0.0&#45;&gt;q5:0.0 -->
<g id="edge19" class="edge">
<title>q3:0.0&#45;&gt;q5:0.0</title>
<path fill="none" stroke="black" d="M520.53,-185.22C528.65,-183.08 537.32,-181.08 545.49,-179.75 629.66,-166.09 728.8,-163.08 788.64,-162.67"/>
<polygon fill="black" stroke="black" points="788.57,-166.17 798.56,-162.63 788.54,-159.17 788.57,-166.17"/>
<text text-anchor="middle" x="605.12" y="-183.94" font-family="Times,serif" font-size="14.00">AUTH/λ:0.004</text>
</g>
<!-- q7:0.0 -->
<g id="node21" class="node">
<title>q7:0.0</title>
<ellipse fill="none" stroke="black" stroke-width="2" cx="725.53" cy="-214" rx="42.79" ry="18"/>
<text text-anchor="middle" x="725.53" y="-209.32" font-family="Times,serif" font-size="14.00">q7:0.0</text>
</g>
<!-- q3:0.0&#45;&gt;q7:0.0 -->
<g id="edge20" class="edge">
<title>q3:0.0&#45;&gt;q7:0.0</title>
<path fill="none" stroke="black" d="M527.85,-199.18C567.72,-202.18 627.72,-206.7 670.96,-209.96"/>
<polygon fill="black" stroke="black" points="670.66,-213.45 680.89,-210.71 671.18,-206.47 670.66,-213.45"/>
<text text-anchor="middle" x="605.12" y="-213.94" font-family="Times,serif" font-size="14.00">AUTH/235:0.942</text>
</g>
<!-- q6:0.0 -->
<g id="node22" class="node">
<title>q6:0.0</title>
<ellipse fill="none" stroke="black" stroke-width="2" cx="725.53" cy="-281" rx="42.79" ry="18"/>
<text text-anchor="middle" x="725.53" y="-276.32" font-family="Times,serif" font-size="14.00">q6:0.0</text>
</g>
<!-- q3:0.0&#45;&gt;q6:0.0 -->
<g id="edge21" class="edge">
<title>q3:0.0&#45;&gt;q6:0.0</title>
<path fill="none" stroke="black" d="M509.11,-211.6C519.86,-218.25 532.98,-225.7 545.49,-231 587.77,-248.92 638.36,-262.37 674.96,-270.78"/>
<polygon fill="black" stroke="black" points="673.84,-274.12 684.36,-272.89 675.37,-267.29 673.84,-274.12"/>
<text text-anchor="middle" x="605.12" y="-271.94" font-family="Times,serif" font-size="14.00">AUTH/535:0.054</text>
</g>
<!-- q9:0.0 -->
<g id="node23" class="node">
<title>q9:0.0</title>
<ellipse fill="none" stroke="black" stroke-width="2" cx="1229.8" cy="-126" rx="42.79" ry="18"/>
<text text-anchor="middle" x="1229.8" y="-121.33" font-family="Times,serif" font-size="14.00">q9:0.0</text>
</g>
<!-- q5:0.0&#45;&gt;q9:0.0 -->
<g id="edge22" class="edge">
<title>q5:0.0&#45;&gt;q9:0.0</title>
<path fill="none" stroke="black" d="M887.33,-161.49C946.5,-159.05 1056.8,-153.2 1150,-141 1159.5,-139.75 1169.7,-138.09 1179.3,-136.32"/>
<polygon fill="black" stroke="black" points="1179.83,-139.78 1189.01,-134.5 1178.54,-132.9 1179.83,-139.78"/>
<text text-anchor="middle" x="968.18" y="-163.94" font-family="Times,serif" font-size="14.00">MAIL/250:1.0</text>
</g>
<!-- q7:0.0&#45;&gt;q12:0.0 -->
<g id="edge23" class="edge">
<title>q7:0.0&#45;&gt;q12:0.0</title>
<path fill="none" stroke="black" d="M758.51,-226.28C767.43,-229.41 777.18,-232.58 786.32,-235 827.11,-245.81 873.99,-254.26 909.81,-259.9"/>
<polygon fill="black" stroke="black" points="909.11,-263.33 919.52,-261.4 910.17,-256.41 909.11,-263.33"/>
<text text-anchor="middle" x="843.7" y="-260.94" font-family="Times,serif" font-size="14.00">MAIL/250:0.987</text>
</g>
<!-- q11:0.0 -->
<g id="node24" class="node">
<title>q11:0.0</title>
<ellipse fill="none" stroke="black" stroke-width="2" cx="968.18" cy="-214" rx="49.1" ry="18"/>
<text text-anchor="middle" x="968.18" y="-209.32" font-family="Times,serif" font-size="14.00">q11:0.0</text>
</g>
<!-- q7:0.0&#45;&gt;q11:0.0 -->
<g id="edge24" class="edge">
<title>q7:0.0&#45;&gt;q11:0.0</title>
<path fill="none" stroke="black" d="M769.28,-214C807.51,-214 863.95,-214 906.78,-214"/>
<polygon fill="black" stroke="black" points="906.69,-217.5 916.69,-214 906.69,-210.5 906.69,-217.5"/>
<text text-anchor="middle" x="843.7" y="-217.94" font-family="Times,serif" font-size="14.00">MAIL/553:0.013</text>
</g>
<!-- q10:0.0 -->
<g id="node25" class="node">
<title>q10:0.0</title>
<ellipse fill="none" stroke="black" stroke-width="2" cx="968.18" cy="-376" rx="49.1" ry="18"/>
<text text-anchor="middle" x="968.18" y="-371.32" font-family="Times,serif" font-size="14.00">q10:0.0</text>
</g>
<!-- q6:0.0&#45;&gt;q10:0.0 -->
<g id="edge25" class="edge">
<title>q6:0.0&#45;&gt;q10:0.0</title>
<path fill="none" stroke="black" d="M757.99,-293.42C799.95,-309.98 874.48,-339.41 922.32,-358.29"/>
<polygon fill="black" stroke="black" points="920.99,-361.53 931.58,-361.94 923.56,-355.02 920.99,-361.53"/>
<text text-anchor="middle" x="843.7" y="-350.94" font-family="Times,serif" font-size="14.00">AUTH/334:1.0</text>
</g>
<!-- q9:0.0&#45;&gt;q13:0.0 -->
<g id="edge26" class="edge">
<title>q9:0.0&#45;&gt;q13:0.0</title>
<path fill="none" stroke="black" d="M1273.5,-126C1319.7,-126 1393.7,-126 1445.8,-126"/>
<polygon fill="black" stroke="black" points="1445.69,-129.5 1455.69,-126 1445.69,-122.5 1445.69,-129.5"/>
<text text-anchor="middle" x="1374.7" y="-129.94" font-family="Times,serif" font-size="14.00">RCPT/250:1.0</text>
</g>
<!-- q15:1.0 -->
<g id="node26" class="node">
<title>q15:1.0</title>
<ellipse fill="none" stroke="black" stroke-width="2" cx="1229.8" cy="-204" rx="49.1" ry="18"/>
<text text-anchor="middle" x="1229.8" y="-199.32" font-family="Times,serif" font-size="14.00">q15:1.0</text>
</g>
<!-- q11:0.0&#45;&gt;q15:1.0 -->
<g id="edge27" class="edge">
<title>q11:0.0&#45;&gt;q15:1.0</title>
<path fill="none" stroke="black" d="M1018,-212.12C1060.8,-210.47 1123.1,-208.07 1168.9,-206.31"/>
<polygon fill="black" stroke="black" points="1168.83,-209.82 1178.69,-205.93 1168.56,-202.82 1168.83,-209.82"/>
<text text-anchor="middle" x="1092.7" y="-215.94" font-family="Times,serif" font-size="14.00">RSET/250:1.0</text>
</g>
<!-- q10:0.0&#45;&gt;q14:0.692 -->
<g id="edge28" class="edge">
<title>q10:0.0&#45;&gt;q14:0.692</title>
<path fill="none" stroke="black" d="M1016.8,-380.59C1056.5,-384.41 1113.7,-389.92 1158.6,-394.25"/>
<polygon fill="black" stroke="black" points="1158.3,-397.74 1168.59,-395.21 1158.97,-390.77 1158.3,-397.74"/>
<text text-anchor="middle" x="1092.7" y="-395.94" font-family="Times,serif" font-size="14.00">content/535:1.0</text>
</g>
<!-- q8:0.0 -->
<g id="node27" class="node">
<title>q8:0.0</title>
<ellipse fill="none" stroke="black" stroke-width="2" cx="968.18" cy="-107" rx="42.79" ry="18"/>
<text text-anchor="middle" x="968.18" y="-102.33" font-family="Times,serif" font-size="14.00">q8:0.0</text>
</g>
<!-- q8:0.0&#45;&gt;q9:0.0 -->
<g id="edge29" class="edge">
<title>q8:0.0&#45;&gt;q9:0.0</title>
<path fill="none" stroke="black" d="M1011.2,-110.07C1055.9,-113.35 1126.9,-118.55 1175.6,-122.11"/>
<polygon fill="black" stroke="black" points="1175.06,-125.58 1185.29,-122.82 1175.57,-118.6 1175.06,-125.58"/>
<text text-anchor="middle" x="1092.7" y="-123.95" font-family="Times,serif" font-size="14.00">RCPT/250:1.0</text>
</g>
<!-- q4:0.0 -->
<g id="node28" class="node">
<title>q4:0.0</title>
<ellipse fill="none" stroke="black" stroke-width="2" cx="725.53" cy="-118" rx="42.79" ry="18"/>
<text text-anchor="middle" x="725.53" y="-113.33" font-family="Times,serif" font-size="14.00">q4:0.0</text>
</g>
<!-- q4:0.0&#45;&gt;q8:0.0 -->
<g id="edge30" class="edge">
<title>q4:0.0&#45;&gt;q8:0.0</title>
<path fill="none" stroke="black" d="M769,-116.06C809.26,-114.22 869.88,-111.45 913.48,-109.45"/>
<polygon fill="black" stroke="black" points="913.39,-112.96 923.22,-109.01 913.07,-105.97 913.39,-112.96"/>
<text text-anchor="middle" x="843.7" y="-119.95" font-family="Times,serif" font-size="14.00">MAIL/250:1.0</text>
</g>
<!-- q2:0.0 -->
<g id="node29" class="node">
<title>q2:0.0</title>
<ellipse fill="none" stroke="black" stroke-width="2" cx="484.7" cy="-136" rx="42.79" ry="18"/>
<text text-anchor="middle" x="484.7" y="-131.32" font-family="Times,serif" font-size="14.00">q2:0.0</text>
</g>
<!-- q2:0.0&#45;&gt;q4:0.0 -->
<g id="edge31" class="edge">
<title>q2:0.0&#45;&gt;q4:0.0</title>
<path fill="none" stroke="black" d="M525.51,-129.25C532.16,-128.29 539.01,-127.41 545.49,-126.75 587.54,-122.48 635.36,-120.28 670.99,-119.15"/>
<polygon fill="black" stroke="black" points="670.7,-122.66 680.6,-118.86 670.5,-115.66 670.7,-122.66"/>
<text text-anchor="middle" x="605.12" y="-130.94" font-family="Times,serif" font-size="14.00">AUTH/235:1.0</text>
</g>
<!-- q1:0.0 -->
<g id="node30" class="node">
<title>q1:0.0</title>
<ellipse fill="none" stroke="black" stroke-width="2" cx="243.87" cy="-163" rx="42.79" ry="18"/>
<text text-anchor="middle" x="243.87" y="-158.32" font-family="Times,serif" font-size="14.00">q1:0.0</text>
</g>
<!-- q1:0.0&#45;&gt;q3:0.0 -->
<g id="edge32" class="edge">
<title>q1:0.0&#45;&gt;q3:0.0</title>
<path fill="none" stroke="black" d="M285.66,-168.64C326.01,-174.21 387.94,-182.77 431.79,-188.83"/>
<polygon fill="black" stroke="black" points="431.19,-192.28 441.58,-190.18 432.15,-185.35 431.19,-192.28"/>
<text text-anchor="middle" x="364.29" y="-191.94" font-family="Times,serif" font-size="14.00">EHLO/250:0.992</text>
</g>
<!-- q1:0.0&#45;&gt;q2:0.0 -->
<g id="edge33" class="edge">
<title>q1:0.0&#45;&gt;q2:0.0</title>
<path fill="none" stroke="black" d="M279.7,-152.24C287.82,-150.1 296.49,-148.09 304.66,-146.75 346.39,-139.9 394.23,-137.29 429.95,-136.35"/>
<polygon fill="black" stroke="black" points="429.66,-139.86 439.59,-136.14 429.51,-132.86 429.66,-139.86"/>
<text text-anchor="middle" x="364.29" y="-150.94" font-family="Times,serif" font-size="14.00">EHLO/λ:0.008</text>
</g>
<!-- q0:0.0 -->
<g id="node31" class="node">
<title>q0:0.0</title>
<ellipse fill="none" stroke="black" stroke-width="2" cx="50.79" cy="-163" rx="46.79" ry="46.79"/>
<ellipse fill="none" stroke="black" stroke-width="2" cx="50.79" cy="-163" rx="50.79" ry="50.79"/>
<text text-anchor="middle" x="50.79" y="-158.32" font-family="Times,serif" font-size="14.00">q0:0.0</text>
</g>
<!-- q0:0.0&#45;&gt;q1:0.0 -->
<g id="edge34" class="edge">
<title>q0:0.0&#45;&gt;q1:0.0</title>
<path fill="none" stroke="black" d="M98.53,-163C125.82,-163 160.37,-163 188.82,-163"/>
<polygon fill="black" stroke="black" points="188.69,-166.5 198.69,-163 188.69,-159.5 188.69,-166.5"/>
<text text-anchor="middle" x="149.33" y="-166.94" font-family="Times,serif" font-size="14.00">λ/220:1.0</text>
</g>
</g>
</svg>
