<?xml version="1.0" encoding="UTF-8" standalone="no"?>
<!DOCTYPE svg PUBLIC "-//W3C//DTD SVG 1.1//EN"
 "http://www.w3.org/Graphics/SVG/1.1/DTD/svg11.dtd">
<!-- Generated by graphviz version 12.0.0 (20240803.0821)
 -->
<!-- Pages: 1 -->
<svg width="2779pt" height="315pt"
 viewBox="0.00 0.00 2778.60 315.00" xmlns="http://www.w3.org/2000/svg" xmlns:xlink="http://www.w3.org/1999/xlink">
<g id="graph0" class="graph" transform="scale(1 1) rotate(0) translate(4 311)">
<polygon fill="white" stroke="none" points="-4,4 -4,-311 2774.6,-311 2774.6,4 -4,4"/>
<!-- q11:0.8 -->
<g id="node1" class="node">
<title>q11:0.8</title>
<ellipse fill="none" stroke="black" stroke-width="2" cx="1202.3" cy="-289" rx="49.1" ry="18"/>
<text text-anchor="middle" x="1202.3" y="-284.32" font-family="Times,serif" font-size="14.00">q11:0.8</text>
</g>
<!-- q15:1.0 -->
<g id="node2" class="node">
<title>q15:1.0</title>
<ellipse fill="none" stroke="black" stroke-width="2" cx="1443.7" cy="-289" rx="49.1" ry="18"/>
<text text-anchor="middle" x="1443.7" y="-284.32" font-family="Times,serif" font-size="14.00">q15:1.0</text>
</g>
<!-- q11:0.8&#45;&gt;q15:1.0 -->
<g id="edge1" class="edge">
<title>q11:0.8&#45;&gt;q15:1.0</title>
<path fill="none" stroke="black" d="M1252.3,-289C1290,-289 1342.2,-289 1382.5,-289"/>
<polygon fill="black" stroke="black" points="1382.19,-292.5 1392.19,-289 1382.19,-285.5 1382.19,-292.5"/>
<text text-anchor="middle" x="1323" y="-292.94" font-family="Times,serif" font-size="14.00">λ/451:0.2</text>
</g>
<!-- q13:0.0 -->
<g id="node3" class="node">
<title>q13:0.0</title>
<ellipse fill="none" stroke="black" stroke-width="2" cx="1959.7" cy="-161" rx="49.1" ry="18"/>
<text text-anchor="middle" x="1959.7" y="-156.32" font-family="Times,serif" font-size="14.00">q13:0.0</text>
</g>
<!-- q19:0.0 -->
<g id="node4" class="node">
<title>q19:0.0</title>
<ellipse fill="none" stroke="black" stroke-width="2" cx="2224.4" cy="-255" rx="49.1" ry="18"/>
<text text-anchor="middle" x="2224.4" y="-250.32" font-family="Times,serif" font-size="14.00">q19:0.0</text>
</g>
<!-- q13:0.0&#45;&gt;q19:0.0 -->
<g id="edge2" class="edge">
<title>q13:0.0&#45;&gt;q19:0.0</title>
<path fill="none" stroke="black" d="M1976.9,-178.58C1989.4,-190.95 2007.6,-206.88 2026.8,-216 2070,-236.63 2123.7,-246.35 2164,-250.93"/>
<polygon fill="black" stroke="black" points="2163.38,-254.38 2173.69,-251.95 2164.12,-247.42 2163.38,-254.38"/>
<text text-anchor="middle" x="2092" y="-252.94" font-family="Times,serif" font-size="14.00">content/550:0.001</text>
</g>
<!-- q16:0.0 -->
<g id="node5" class="node">
<title>q16:0.0</title>
<ellipse fill="none" stroke="black" stroke-width="2" cx="2224.4" cy="-201" rx="49.1" ry="18"/>
<text text-anchor="middle" x="2224.4" y="-196.32" font-family="Times,serif" font-size="14.00">q16:0.0</text>
</g>
<!-- q13:0.0&#45;&gt;q16:0.0 -->
<g id="edge3" class="edge">
<title>q13:0.0&#45;&gt;q16:0.0</title>
<path fill="none" stroke="black" d="M1999.2,-172.58C2008.2,-174.97 2017.8,-177.28 2026.8,-179 2072.4,-187.72 2124.8,-193.36 2163.9,-196.75"/>
<polygon fill="black" stroke="black" points="2163.63,-200.24 2173.89,-197.58 2164.22,-193.26 2163.63,-200.24"/>
<text text-anchor="middle" x="2092" y="-198.94" font-family="Times,serif" font-size="14.00">content/554:0.051</text>
</g>
<!-- q18:0.0 -->
<g id="node6" class="node">
<title>q18:0.0</title>
<ellipse fill="none" stroke="black" stroke-width="2" cx="2224.4" cy="-147" rx="49.1" ry="18"/>
<text text-anchor="middle" x="2224.4" y="-142.32" font-family="Times,serif" font-size="14.00">q18:0.0</text>
</g>
<!-- q13:0.0&#45;&gt;q18:0.0 -->
<g id="edge4" class="edge">
<title>q13:0.0&#45;&gt;q18:0.0</title>
<path fill="none" stroke="black" d="M2009.2,-158.42C2052.8,-156.09 2116.9,-152.67 2163.7,-150.18"/>
<polygon fill="black" stroke="black" points="2163.89,-153.68 2173.69,-149.65 2163.52,-146.68 2163.89,-153.68"/>
<text text-anchor="middle" x="2092" y="-161.94" font-family="Times,serif" font-size="14.00">content/250:0.057</text>
</g>
<!-- q17:0.0 -->
<g id="node7" class="node">
<title>q17:0.0</title>
<ellipse fill="none" stroke="black" stroke-width="2" cx="2224.4" cy="-87" rx="49.1" ry="18"/>
<text text-anchor="middle" x="2224.4" y="-82.33" font-family="Times,serif" font-size="14.00">q17:0.0</text>
</g>
<!-- q13:0.0&#45;&gt;q17:0.0 -->
<g id="edge5" class="edge">
<title>q13:0.0&#45;&gt;q17:0.0</title>
<path fill="none" stroke="black" d="M1989,-145.85C2000.5,-140.19 2014,-134.08 2026.8,-129.75 2052.5,-120.98 2119.8,-107.05 2168.5,-97.48"/>
<polygon fill="black" stroke="black" points="2168.87,-100.98 2178.01,-95.62 2167.53,-94.11 2168.87,-100.98"/>
<text text-anchor="middle" x="2092" y="-133.94" font-family="Times,serif" font-size="14.00">content/λ:0.891</text>
</g>
<!-- q26:1.0 -->
<g id="node8" class="node">
<title>q26:1.0</title>
<ellipse fill="none" stroke="black" stroke-width="2" cx="2489.1" cy="-255" rx="49.1" ry="18"/>
<text text-anchor="middle" x="2489.1" y="-250.32" font-family="Times,serif" font-size="14.00">q26:1.0</text>
</g>
<!-- q19:0.0&#45;&gt;q26:1.0 -->
<g id="edge6" class="edge">
<title>q19:0.0&#45;&gt;q26:1.0</title>
<path fill="none" stroke="black" d="M2274.2,-255C2317.5,-255 2381.1,-255 2427.7,-255"/>
<polygon fill="black" stroke="black" points="2427.59,-258.5 2437.59,-255 2427.59,-251.5 2427.59,-258.5"/>
<text text-anchor="middle" x="2356.7" y="-258.94" font-family="Times,serif" font-size="14.00">RSET/250:1.0</text>
</g>
<!-- q22:1.0 -->
<g id="node9" class="node">
<title>q22:1.0</title>
<ellipse fill="none" stroke="black" stroke-width="2" cx="2489.1" cy="-201" rx="49.1" ry="18"/>
<text text-anchor="middle" x="2489.1" y="-196.32" font-family="Times,serif" font-size="14.00">q22:1.0</text>
</g>
<!-- q16:0.0&#45;&gt;q22:1.0 -->
<g id="edge7" class="edge">
<title>q16:0.0&#45;&gt;q22:1.0</title>
<path fill="none" stroke="black" d="M2274.2,-201C2317.5,-201 2381.1,-201 2427.7,-201"/>
<polygon fill="black" stroke="black" points="2427.59,-204.5 2437.59,-201 2427.59,-197.5 2427.59,-204.5"/>
<text text-anchor="middle" x="2356.7" y="-204.94" font-family="Times,serif" font-size="14.00">RSET/250:1.0</text>
</g>
<!-- q25:1.0 -->
<g id="node10" class="node">
<title>q25:1.0</title>
<ellipse fill="none" stroke="black" stroke-width="2" cx="2489.1" cy="-147" rx="49.1" ry="18"/>
<text text-anchor="middle" x="2489.1" y="-142.32" font-family="Times,serif" font-size="14.00">q25:1.0</text>
</g>
<!-- q18:0.0&#45;&gt;q25:1.0 -->
<g id="edge8" class="edge">
<title>q18:0.0&#45;&gt;q25:1.0</title>
<path fill="none" stroke="black" d="M2274.2,-147C2317.5,-147 2381.1,-147 2427.7,-147"/>
<polygon fill="black" stroke="black" points="2427.59,-150.5 2437.59,-147 2427.59,-143.5 2427.59,-150.5"/>
<text text-anchor="middle" x="2356.7" y="-150.94" font-family="Times,serif" font-size="14.00">QUIT/221:1.0</text>
</g>
<!-- q17:0.0&#45;&gt;q13:0.0 -->
<g id="edge9" class="edge">
<title>q17:0.0&#45;&gt;q13:0.0</title>
<path fill="none" stroke="black" d="M2185.4,-75.28C2144.2,-64.8 2077.5,-54.46 2026.8,-78.75 2003.6,-89.84 1986,-113.41 1974.8,-132.49"/>
<polygon fill="black" stroke="black" points="1971.77,-130.74 1970.03,-141.19 1977.9,-134.11 1971.77,-130.74"/>
<text text-anchor="middle" x="2092" y="-82.95" font-family="Times,serif" font-size="14.00">content/λ:0.974</text>
</g>
<!-- q24:0.0 -->
<g id="node11" class="node">
<title>q24:0.0</title>
<ellipse fill="none" stroke="black" stroke-width="2" cx="2489.1" cy="-92" rx="49.1" ry="18"/>
<text text-anchor="middle" x="2489.1" y="-87.33" font-family="Times,serif" font-size="14.00">q24:0.0</text>
</g>
<!-- q17:0.0&#45;&gt;q24:0.0 -->
<g id="edge10" class="edge">
<title>q17:0.0&#45;&gt;q24:0.0</title>
<path fill="none" stroke="black" d="M2274.2,-87.93C2317.5,-88.75 2381.1,-89.96 2427.7,-90.85"/>
<polygon fill="black" stroke="black" points="2427.52,-94.35 2437.59,-91.04 2427.65,-87.35 2427.52,-94.35"/>
<text text-anchor="middle" x="2356.7" y="-94.95" font-family="Times,serif" font-size="14.00">content/554:0.001</text>
</g>
<!-- q23:0.0 -->
<g id="node12" class="node">
<title>q23:0.0</title>
<ellipse fill="none" stroke="black" stroke-width="2" cx="2489.1" cy="-38" rx="49.1" ry="18"/>
<text text-anchor="middle" x="2489.1" y="-33.33" font-family="Times,serif" font-size="14.00">q23:0.0</text>
</g>
<!-- q17:0.0&#45;&gt;q23:0.0 -->
<g id="edge11" class="edge">
<title>q17:0.0&#45;&gt;q23:0.0</title>
<path fill="none" stroke="black" d="M2263.3,-75.03C2272.4,-72.39 2282.3,-69.78 2291.5,-67.75 2337.7,-57.58 2390.7,-49.77 2430.1,-44.72"/>
<polygon fill="black" stroke="black" points="2430.32,-48.22 2439.8,-43.49 2429.44,-41.27 2430.32,-48.22"/>
<text text-anchor="middle" x="2356.7" y="-71.95" font-family="Times,serif" font-size="14.00">content/250:0.025</text>
</g>
<!-- q28:1.0 -->
<g id="node13" class="node">
<title>q28:1.0</title>
<ellipse fill="none" stroke="black" stroke-width="2" cx="2721.5" cy="-92" rx="49.1" ry="18"/>
<text text-anchor="middle" x="2721.5" y="-87.33" font-family="Times,serif" font-size="14.00">q28:1.0</text>
</g>
<!-- q24:0.0&#45;&gt;q28:1.0 -->
<g id="edge12" class="edge">
<title>q24:0.0&#45;&gt;q28:1.0</title>
<path fill="none" stroke="black" d="M2539,-92C2574.4,-92 2622.6,-92 2660.4,-92"/>
<polygon fill="black" stroke="black" points="2660.19,-95.5 2670.19,-92 2660.19,-88.5 2660.19,-95.5"/>
<text text-anchor="middle" x="2605.3" y="-95.95" font-family="Times,serif" font-size="14.00">RSET/250:1.0</text>
</g>
<!-- q27:1.0 -->
<g id="node14" class="node">
<title>q27:1.0</title>
<ellipse fill="none" stroke="black" stroke-width="2" cx="2721.5" cy="-38" rx="49.1" ry="18"/>
<text text-anchor="middle" x="2721.5" y="-33.33" font-family="Times,serif" font-size="14.00">q27:1.0</text>
</g>
<!-- q23:0.0&#45;&gt;q27:1.0 -->
<g id="edge13" class="edge">
<title>q23:0.0&#45;&gt;q27:1.0</title>
<path fill="none" stroke="black" d="M2539,-38C2574.4,-38 2622.6,-38 2660.4,-38"/>
<polygon fill="black" stroke="black" points="2660.19,-41.5 2670.19,-38 2660.19,-34.5 2660.19,-41.5"/>
<text text-anchor="middle" x="2605.3" y="-41.95" font-family="Times,serif" font-size="14.00">QUIT/221:1.0</text>
</g>
<!-- q14:0.0 -->
<g id="node15" class="node">
<title>q14:0.0</title>
<ellipse fill="none" stroke="black" stroke-width="2" cx="1443.7" cy="-113" rx="49.1" ry="18"/>
<text text-anchor="middle" x="1443.7" y="-108.33" font-family="Times,serif" font-size="14.00">q14:0.0</text>
</g>
<!-- q14:0.0&#45;&gt;q13:0.0 -->
<g id="edge14" class="edge">
<title>q14:0.0&#45;&gt;q13:0.0</title>
<path fill="none" stroke="black" d="M1481.1,-125.64C1490.6,-128.51 1501,-131.24 1510.8,-133 1647.9,-157.68 1811.9,-161.54 1898.4,-161.63"/>
<polygon fill="black" stroke="black" points="1898.39,-165.13 1908.39,-161.62 1898.38,-158.13 1898.39,-165.13"/>
<text text-anchor="middle" x="1702.4" y="-162.94" font-family="Times,serif" font-size="14.00">DATA/354:0.688</text>
</g>
<!-- q20:1.0 -->
<g id="node16" class="node">
<title>q20:1.0</title>
<ellipse fill="none" stroke="black" stroke-width="2" cx="1702.4" cy="-107" rx="49.1" ry="18"/>
<text text-anchor="middle" x="1702.4" y="-102.33" font-family="Times,serif" font-size="14.00">q20:1.0</text>
</g>
<!-- q14:0.0&#45;&gt;q20:1.0 -->
<g id="edge15" class="edge">
<title>q14:0.0&#45;&gt;q20:1.0</title>
<path fill="none" stroke="black" d="M1493.6,-111.86C1535.6,-110.88 1596.4,-109.46 1641.4,-108.4"/>
<polygon fill="black" stroke="black" points="1641.27,-111.9 1651.19,-108.17 1641.11,-104.91 1641.27,-111.9"/>
<text text-anchor="middle" x="1568.9" y="-115.95" font-family="Times,serif" font-size="14.00">DATA/550:0.305</text>
</g>
<!-- q21:0.0 -->
<g id="node17" class="node">
<title>q21:0.0</title>
<ellipse fill="none" stroke="black" stroke-width="2" cx="1702.4" cy="-18" rx="49.1" ry="18"/>
<text text-anchor="middle" x="1702.4" y="-13.32" font-family="Times,serif" font-size="14.00">q21:0.0</text>
</g>
<!-- q14:0.0&#45;&gt;q21:0.0 -->
<g id="edge16" class="edge">
<title>q14:0.0&#45;&gt;q21:0.0</title>
<path fill="none" stroke="black" d="M1479.3,-99.67C1489.5,-95.8 1500.6,-91.58 1510.8,-87.75 1560.1,-69.3 1616.8,-48.62 1655.5,-34.6"/>
<polygon fill="black" stroke="black" points="1656.27,-38.05 1664.48,-31.35 1653.88,-31.47 1656.27,-38.05"/>
<text text-anchor="middle" x="1568.9" y="-91.95" font-family="Times,serif" font-size="14.00">RCPT/250:0.007</text>
</g>
<!-- q21:0.0&#45;&gt;q13:0.0 -->
<g id="edge17" class="edge">
<title>q21:0.0&#45;&gt;q13:0.0</title>
<path fill="none" stroke="black" d="M1730.8,-33.3C1776.7,-59.04 1869.5,-111.02 1921.4,-140.09"/>
<polygon fill="black" stroke="black" points="1919.45,-143.01 1929.88,-144.85 1922.87,-136.9 1919.45,-143.01"/>
<text text-anchor="middle" x="1835.2" y="-126.95" font-family="Times,serif" font-size="14.00">DATA/354:0.125</text>
</g>
<!-- q21:0.0&#45;&gt;q21:0.0 -->
<g id="edge18" class="edge">
<title>q21:0.0&#45;&gt;q21:0.0</title>
<path fill="none" stroke="black" d="M1679.1,-34.66C1673.9,-44.62 1681.7,-54 1702.4,-54 1714.8,-54 1722.5,-50.7 1725.7,-45.92"/>
<polygon fill="black" stroke="black" points="1729.2,-46.21 1725.79,-36.18 1722.2,-46.15 1729.2,-46.21"/>
<text text-anchor="middle" x="1702.4" y="-57.95" font-family="Times,serif" font-size="14.00">RCPT/250:0.875</text>
</g>
<!-- q3:0.0 -->
<g id="node18" class="node">
<title>q3:0.0</title>
<ellipse fill="none" stroke="black" stroke-width="2" cx="484.7" cy="-228" rx="42.79" ry="18"/>
<text text-anchor="middle" x="484.7" y="-223.32" font-family="Times,serif" font-size="14.00">q3:0.0</text>
</g>
<!-- q5:0.0 -->
<g id="node19" class="node">
<title>q5:0.0</title>
<ellipse fill="none" stroke="black" stroke-width="2" cx="725.53" cy="-289" rx="42.79" ry="18"/>
<text text-anchor="middle" x="725.53" y="-284.32" font-family="Times,serif" font-size="14.00">q5:0.0</text>
</g>
<!-- q3:0.0&#45;&gt;q5:0.0 -->
<g id="edge19" class="edge">
<title>q3:0.0&#45;&gt;q5:0.0</title>
<path fill="none" stroke="black" d="M514.11,-241.86C523.88,-246.22 535.01,-250.74 545.49,-254 587.38,-267.03 636.35,-276.21 672.48,-281.89"/>
<polygon fill="black" stroke="black" points="671.82,-285.33 682.23,-283.38 672.88,-278.41 671.82,-285.33"/>
<text text-anchor="middle" x="605.12" y="-283.94" font-family="Times,serif" font-size="14.00">AUTH/535:0.041</text>
</g>
<!-- q6:0.0 -->
<g id="node20" class="node">
<title>q6:0.0</title>
<ellipse fill="none" stroke="black" stroke-width="2" cx="725.53" cy="-235" rx="42.79" ry="18"/>
<text text-anchor="middle" x="725.53" y="-230.32" font-family="Times,serif" font-size="14.00">q6:0.0</text>
</g>
<!-- q3:0.0&#45;&gt;q6:0.0 -->
<g id="edge20" class="edge">
<title>q3:0.0&#45;&gt;q6:0.0</title>
<path fill="none" stroke="black" d="M528.12,-229.24C567.91,-230.41 627.56,-232.16 670.69,-233.42"/>
<polygon fill="black" stroke="black" points="670.49,-236.92 680.59,-233.71 670.7,-229.92 670.49,-236.92"/>
<text text-anchor="middle" x="605.12" y="-236.94" font-family="Times,serif" font-size="14.00">AUTH/235:0.955</text>
</g>
<!-- q4:0.0 -->
<g id="node21" class="node">
<title>q4:0.0</title>
<ellipse fill="none" stroke="black" stroke-width="2" cx="725.53" cy="-155" rx="42.79" ry="18"/>
<text text-anchor="middle" x="725.53" y="-150.32" font-family="Times,serif" font-size="14.00">q4:0.0</text>
</g>
<!-- q3:0.0&#45;&gt;q4:0.0 -->
<g id="edge21" class="edge">
<title>q3:0.0&#45;&gt;q4:0.0</title>
<path fill="none" stroke="black" d="M519.14,-216.39C527.7,-213.5 536.92,-210.45 545.49,-207.75 598.15,-191.17 611.81,-188.68 664.74,-173 669.24,-171.67 673.93,-170.27 678.62,-168.87"/>
<polygon fill="black" stroke="black" points="679.43,-172.28 688,-166.06 677.42,-165.58 679.43,-172.28"/>
<text text-anchor="middle" x="605.12" y="-210.94" font-family="Times,serif" font-size="14.00">AUTH/λ:0.004</text>
</g>
<!-- q8:0.0 -->
<g id="node22" class="node">
<title>q8:0.0</title>
<ellipse fill="none" stroke="black" stroke-width="2" cx="961.86" cy="-289" rx="42.79" ry="18"/>
<text text-anchor="middle" x="961.86" y="-284.32" font-family="Times,serif" font-size="14.00">q8:0.0</text>
</g>
<!-- q5:0.0&#45;&gt;q8:0.0 -->
<g id="edge22" class="edge">
<title>q5:0.0&#45;&gt;q8:0.0</title>
<path fill="none" stroke="black" d="M769.24,-289C807.97,-289 865.24,-289 907.08,-289"/>
<polygon fill="black" stroke="black" points="906.94,-292.5 916.94,-289 906.94,-285.5 906.94,-292.5"/>
<text text-anchor="middle" x="843.7" y="-292.94" font-family="Times,serif" font-size="14.00">AUTH/334:1.0</text>
</g>
<!-- q9:0.0 -->
<g id="node23" class="node">
<title>q9:0.0</title>
<ellipse fill="none" stroke="black" stroke-width="2" cx="961.86" cy="-235" rx="42.79" ry="18"/>
<text text-anchor="middle" x="961.86" y="-230.32" font-family="Times,serif" font-size="14.00">q9:0.0</text>
</g>
<!-- q6:0.0&#45;&gt;q9:0.0 -->
<g id="edge23" class="edge">
<title>q6:0.0&#45;&gt;q9:0.0</title>
<path fill="none" stroke="black" d="M769.24,-235C807.97,-235 865.24,-235 907.08,-235"/>
<polygon fill="black" stroke="black" points="906.94,-238.5 916.94,-235 906.94,-231.5 906.94,-238.5"/>
<text text-anchor="middle" x="843.7" y="-238.94" font-family="Times,serif" font-size="14.00">MAIL/553:0.013</text>
</g>
<!-- q7:0.0 -->
<g id="node24" class="node">
<title>q7:0.0</title>
<ellipse fill="none" stroke="black" stroke-width="2" cx="961.86" cy="-168" rx="42.79" ry="18"/>
<text text-anchor="middle" x="961.86" y="-163.32" font-family="Times,serif" font-size="14.00">q7:0.0</text>
</g>
<!-- q6:0.0&#45;&gt;q7:0.0 -->
<g id="edge24" class="edge">
<title>q6:0.0&#45;&gt;q7:0.0</title>
<path fill="none" stroke="black" d="M758.95,-222.91C767.78,-219.78 777.37,-216.51 786.32,-213.75 828.6,-200.72 877.34,-188.15 912.56,-179.49"/>
<polygon fill="black" stroke="black" points="913.14,-182.95 922.02,-177.18 911.47,-176.15 913.14,-182.95"/>
<text text-anchor="middle" x="843.7" y="-216.94" font-family="Times,serif" font-size="14.00">MAIL/250:0.987</text>
</g>
<!-- q4:0.0&#45;&gt;q7:0.0 -->
<g id="edge25" class="edge">
<title>q4:0.0&#45;&gt;q7:0.0</title>
<path fill="none" stroke="black" d="M768.98,-152.85C804.4,-151.61 856.16,-151.1 901.07,-155.75 904.71,-156.13 908.45,-156.62 912.2,-157.2"/>
<polygon fill="black" stroke="black" points="911.46,-160.62 921.91,-158.89 912.66,-153.73 911.46,-160.62"/>
<text text-anchor="middle" x="843.7" y="-159.94" font-family="Times,serif" font-size="14.00">MAIL/250:1.0</text>
</g>
<!-- q8:0.0&#45;&gt;q11:0.8 -->
<g id="edge26" class="edge">
<title>q8:0.0&#45;&gt;q11:0.8</title>
<path fill="none" stroke="black" d="M1005.5,-289C1043.3,-289 1098.9,-289 1141.2,-289"/>
<polygon fill="black" stroke="black" points="1140.89,-292.5 1150.89,-289 1140.89,-285.5 1140.89,-292.5"/>
<text text-anchor="middle" x="1078.9" y="-292.94" font-family="Times,serif" font-size="14.00">content/535:1.0</text>
</g>
<!-- q12:1.0 -->
<g id="node25" class="node">
<title>q12:1.0</title>
<ellipse fill="none" stroke="black" stroke-width="2" cx="1202.3" cy="-235" rx="49.1" ry="18"/>
<text text-anchor="middle" x="1202.3" y="-230.32" font-family="Times,serif" font-size="14.00">q12:1.0</text>
</g>
<!-- q9:0.0&#45;&gt;q12:1.0 -->
<g id="edge27" class="edge">
<title>q9:0.0&#45;&gt;q12:1.0</title>
<path fill="none" stroke="black" d="M1005.5,-235C1043.3,-235 1098.9,-235 1141.2,-235"/>
<polygon fill="black" stroke="black" points="1140.89,-238.5 1150.89,-235 1140.89,-231.5 1140.89,-238.5"/>
<text text-anchor="middle" x="1078.9" y="-238.94" font-family="Times,serif" font-size="14.00">RSET/250:1.0</text>
</g>
<!-- q10:0.0 -->
<g id="node26" class="node">
<title>q10:0.0</title>
<ellipse fill="none" stroke="black" stroke-width="2" cx="1202.3" cy="-168" rx="49.1" ry="18"/>
<text text-anchor="middle" x="1202.3" y="-163.32" font-family="Times,serif" font-size="14.00">q10:0.0</text>
</g>
<!-- q7:0.0&#45;&gt;q10:0.0 -->
<g id="edge28" class="edge">
<title>q7:0.0&#45;&gt;q10:0.0</title>
<path fill="none" stroke="black" d="M1005.5,-168C1043.3,-168 1098.9,-168 1141.2,-168"/>
<polygon fill="black" stroke="black" points="1140.89,-171.5 1150.89,-168 1140.89,-164.5 1140.89,-171.5"/>
<text text-anchor="middle" x="1078.9" y="-171.94" font-family="Times,serif" font-size="14.00">RCPT/250:1.0</text>
</g>
<!-- q10:0.0&#45;&gt;q13:0.0 -->
<g id="edge29" class="edge">
<title>q10:0.0&#45;&gt;q13:0.0</title>
<path fill="none" stroke="black" d="M1251.3,-171.95C1257.3,-172.36 1263.5,-172.72 1269.4,-173 1487.1,-183.26 1541.9,-184.1 1759.8,-180 1818.8,-178.89 1834,-182.25 1892.6,-175 1897,-174.46 1901.5,-173.77 1906,-172.99"/>
<polygon fill="black" stroke="black" points="1906.52,-176.45 1915.71,-171.19 1905.24,-169.57 1906.52,-176.45"/>
<text text-anchor="middle" x="1568.9" y="-186.94" font-family="Times,serif" font-size="14.00">DATA/354:0.39</text>
</g>
<!-- q10:0.0&#45;&gt;q14:0.0 -->
<g id="edge30" class="edge">
<title>q10:0.0&#45;&gt;q14:0.0</title>
<path fill="none" stroke="black" d="M1245.2,-158.36C1285.5,-149.12 1346.3,-135.14 1389.8,-125.15"/>
<polygon fill="black" stroke="black" points="1390.36,-128.61 1399.32,-122.97 1388.79,-121.79 1390.36,-128.61"/>
<text text-anchor="middle" x="1323" y="-155.94" font-family="Times,serif" font-size="14.00">RCPT/250:0.61</text>
</g>
<!-- q0:0.0 -->
<g id="node27" class="node">
<title>q0:0.0</title>
<ellipse fill="none" stroke="black" stroke-width="2" cx="50.79" cy="-195" rx="46.79" ry="46.79"/>
<ellipse fill="none" stroke="black" stroke-width="2" cx="50.79" cy="-195" rx="50.79" ry="50.79"/>
<text text-anchor="middle" x="50.79" y="-190.32" font-family="Times,serif" font-size="14.00">q0:0.0</text>
</g>
<!-- q1:0.0 -->
<g id="node28" class="node">
<title>q1:0.0</title>
<ellipse fill="none" stroke="black" stroke-width="2" cx="243.87" cy="-195" rx="42.79" ry="18"/>
<text text-anchor="middle" x="243.87" y="-190.32" font-family="Times,serif" font-size="14.00">q1:0.0</text>
</g>
<!-- q0:0.0&#45;&gt;q1:0.0 -->
<g id="edge31" class="edge">
<title>q0:0.0&#45;&gt;q1:0.0</title>
<path fill="none" stroke="black" d="M98.53,-195C125.82,-195 160.37,-195 188.82,-195"/>
<polygon fill="black" stroke="black" points="188.69,-198.5 198.69,-195 188.69,-191.5 188.69,-198.5"/>
<text text-anchor="middle" x="149.33" y="-198.94" font-family="Times,serif" font-size="14.00">λ/220:1.0</text>
</g>
<!-- q1:0.0&#45;&gt;q3:0.0 -->
<g id="edge32" class="edge">
<title>q1:0.0&#45;&gt;q3:0.0</title>
<path fill="none" stroke="black" d="M285.66,-200.64C326.01,-206.21 387.94,-214.77 431.79,-220.83"/>
<polygon fill="black" stroke="black" points="431.19,-224.28 441.58,-222.18 432.15,-217.35 431.19,-224.28"/>
<text text-anchor="middle" x="364.29" y="-222.94" font-family="Times,serif" font-size="14.00">EHLO/250:0.992</text>
</g>
<!-- q2:0.0 -->
<g id="node29" class="node">
<title>q2:0.0</title>
<ellipse fill="none" stroke="black" stroke-width="2" cx="484.7" cy="-168" rx="42.79" ry="18"/>
<text text-anchor="middle" x="484.7" y="-163.32" font-family="Times,serif" font-size="14.00">q2:0.0</text>
</g>
<!-- q1:0.0&#45;&gt;q2:0.0 -->
<g id="edge33" class="edge">
<title>q1:0.0&#45;&gt;q2:0.0</title>
<path fill="none" stroke="black" d="M282.04,-185.91C289.49,-184.33 297.3,-182.84 304.66,-181.75 346.54,-175.53 394.37,-172.04 430.05,-170.14"/>
<polygon fill="black" stroke="black" points="429.87,-173.65 439.68,-169.65 429.51,-166.66 429.87,-173.65"/>
<text text-anchor="middle" x="364.29" y="-185.94" font-family="Times,serif" font-size="14.00">EHLO/λ:0.008</text>
</g>
<!-- q2:0.0&#45;&gt;q4:0.0 -->
<g id="edge34" class="edge">
<title>q2:0.0&#45;&gt;q4:0.0</title>
<path fill="none" stroke="black" d="M523.16,-159.14C530.52,-157.74 538.22,-156.5 545.49,-155.75 587.48,-151.4 635.3,-151.46 670.96,-152.47"/>
<polygon fill="black" stroke="black" points="670.46,-155.96 680.57,-152.77 670.68,-148.96 670.46,-155.96"/>
<text text-anchor="middle" x="605.12" y="-159.94" font-family="Times,serif" font-size="14.00">AUTH/235:1.0</text>
</g>
</g>
</svg>
