<?xml version="1.0" encoding="UTF-8" standalone="no"?>
<!DOCTYPE svg PUBLIC "-//W3C//DTD SVG 1.1//EN"
 "http://www.w3.org/Graphics/SVG/1.1/DTD/svg11.dtd">
<!-- Generated by graphviz version 12.0.0 (20240803.0821)
 -->
<!-- Pages: 1 -->
<svg width="4051pt" height="549pt"
 viewBox="0.00 0.00 4051.20 549.45" xmlns="http://www.w3.org/2000/svg" xmlns:xlink="http://www.w3.org/1999/xlink">
<g id="graph0" class="graph" transform="scale(1 1) rotate(0) translate(4 545.45)">
<polygon fill="white" stroke="none" points="-4,4 -4,-545.45 4047.2,-545.45 4047.2,4 -4,4"/>
<!-- q11:0.0 -->
<g id="node1" class="node">
<title>q11:0.0</title>
<ellipse fill="none" stroke="black" stroke-width="2" cx="3127.4" cy="-163.56" rx="49.1" ry="18"/>
<text text-anchor="middle" x="3127.4" y="-158.88" font-family="Times,serif" font-size="14.00">q11:0.0</text>
</g>
<!-- q15:0.0 -->
<g id="node2" class="node">
<title>q15:0.0</title>
<ellipse fill="none" stroke="black" stroke-width="2" cx="3499.2" cy="-203.55" rx="49.1" ry="18"/>
<text text-anchor="middle" x="3499.2" y="-198.88" font-family="Times,serif" font-size="14.00">q15:0.0</text>
</g>
<!-- q11:0.0&#45;&gt;q15:0.0 -->
<g id="edge1" class="edge">
<title>q11:0.0&#45;&gt;q15:0.0</title>
<path fill="none" stroke="black" d="M3169,-174.06C3181.2,-176.89 3194.6,-179.68 3207.1,-181.56 3286.4,-193.55 3378.9,-199.12 3437.9,-201.62"/>
<polygon fill="black" stroke="black" points="3437.65,-205.12 3447.79,-202.02 3437.94,-198.12 3437.65,-205.12"/>
<text text-anchor="middle" x="3319.6" y="-205.51" font-family="Times,serif" font-size="14.00">content/250:0.051</text>
</g>
<!-- q17:0.0 -->
<g id="node3" class="node">
<title>q17:0.0</title>
<ellipse fill="none" stroke="black" stroke-width="2" cx="3499.2" cy="-147.56" rx="49.1" ry="18"/>
<text text-anchor="middle" x="3499.2" y="-142.88" font-family="Times,serif" font-size="14.00">q17:0.0</text>
</g>
<!-- q11:0.0&#45;&gt;q17:0.0 -->
<g id="edge2" class="edge">
<title>q11:0.0&#45;&gt;q17:0.0</title>
<path fill="none" stroke="black" d="M3177.1,-161.44C3244.4,-158.53 3365.7,-153.28 3438.4,-150.15"/>
<polygon fill="black" stroke="black" points="3438.35,-153.65 3448.19,-149.72 3438.04,-146.66 3438.35,-153.65"/>
<text text-anchor="middle" x="3319.6" y="-164.51" font-family="Times,serif" font-size="14.00">content/554:0.052</text>
</g>
<!-- q18:0.0 -->
<g id="node4" class="node">
<title>q18:0.0</title>
<ellipse fill="none" stroke="black" stroke-width="2" cx="3499.2" cy="-69.56" rx="49.1" ry="18"/>
<text text-anchor="middle" x="3499.2" y="-64.88" font-family="Times,serif" font-size="14.00">q18:0.0</text>
</g>
<!-- q11:0.0&#45;&gt;q18:0.0 -->
<g id="edge3" class="edge">
<title>q11:0.0&#45;&gt;q18:0.0</title>
<path fill="none" stroke="black" d="M3149.1,-146.66C3164.2,-135.24 3185.8,-120.86 3207.1,-113.06 3301.8,-78.44 3332.7,-100.57 3432.1,-83.56 3436.2,-82.85 3440.5,-82.07 3444.7,-81.25"/>
<polygon fill="black" stroke="black" points="3445.39,-84.69 3454.51,-79.31 3444.02,-77.82 3445.39,-84.69"/>
<text text-anchor="middle" x="3319.6" y="-134.75" font-family="Times,serif" font-size="14.00">content/λ:0.897</text>
<text text-anchor="middle" x="3319.6" y="-117.51" font-family="Times,serif" font-size="14.00">a0 = b0</text>
</g>
<!-- q16:0.0 -->
<g id="node5" class="node">
<title>q16:0.0</title>
<ellipse fill="none" stroke="black" stroke-width="2" cx="3499.2" cy="-257.56" rx="49.1" ry="18"/>
<text text-anchor="middle" x="3499.2" y="-252.88" font-family="Times,serif" font-size="14.00">q16:0.0</text>
</g>
<!-- q11:0.0&#45;&gt;q16:0.0 -->
<g id="edge4" class="edge">
<title>q11:0.0&#45;&gt;q16:0.0</title>
<path fill="none" stroke="black" d="M3162.5,-177.06C3171.8,-181.72 3181.4,-187.56 3189.1,-194.56 3200.1,-204.49 3194.6,-214.71 3207.1,-222.56 3278.1,-267 3378.1,-268.78 3440.4,-264.38"/>
<polygon fill="black" stroke="black" points="3440.4,-267.89 3450.09,-263.6 3439.84,-260.91 3440.4,-267.89"/>
<text text-anchor="middle" x="3319.6" y="-286.75" font-family="Times,serif" font-size="14.00">content/550:0.001</text>
<text text-anchor="middle" x="3319.6" y="-269.5" font-family="Times,serif" font-size="14.00">b0 = Sender frequency limited.</text>
</g>
<!-- q19:1.0 -->
<g id="node6" class="node">
<title>q19:1.0</title>
<ellipse fill="none" stroke="black" stroke-width="2" cx="3763.9" cy="-203.55" rx="49.1" ry="18"/>
<text text-anchor="middle" x="3763.9" y="-198.88" font-family="Times,serif" font-size="14.00">q19:1.0</text>
</g>
<!-- q15:0.0&#45;&gt;q19:1.0 -->
<g id="edge5" class="edge">
<title>q15:0.0&#45;&gt;q19:1.0</title>
<path fill="none" stroke="black" d="M3549,-203.56C3592.4,-203.56 3655.9,-203.56 3702.5,-203.56"/>
<polygon fill="black" stroke="black" points="3702.39,-207.06 3712.39,-203.56 3702.39,-200.06 3702.39,-207.06"/>
<text text-anchor="middle" x="3631.6" y="-207.51" font-family="Times,serif" font-size="14.00">QUIT/221:1.0</text>
</g>
<!-- q21:1.0 -->
<g id="node7" class="node">
<title>q21:1.0</title>
<ellipse fill="none" stroke="black" stroke-width="2" cx="3763.9" cy="-145.56" rx="49.1" ry="18"/>
<text text-anchor="middle" x="3763.9" y="-140.88" font-family="Times,serif" font-size="14.00">q21:1.0</text>
</g>
<!-- q17:0.0&#45;&gt;q21:1.0 -->
<g id="edge6" class="edge">
<title>q17:0.0&#45;&gt;q21:1.0</title>
<path fill="none" stroke="black" d="M3549,-147.19C3592.4,-146.85 3655.9,-146.38 3702.5,-146.01"/>
<polygon fill="black" stroke="black" points="3702.41,-149.52 3712.39,-145.95 3702.36,-142.52 3702.41,-149.52"/>
<text text-anchor="middle" x="3631.6" y="-168.75" font-family="Times,serif" font-size="14.00">RSET/250:1.0</text>
<text text-anchor="middle" x="3631.6" y="-151.5" font-family="Times,serif" font-size="14.00">b0 = OK</text>
</g>
<!-- q18:0.0&#45;&gt;q11:0.0 -->
<g id="edge7" class="edge">
<title>q18:0.0&#45;&gt;q11:0.0</title>
<path fill="none" stroke="black" d="M3465.3,-55.75C3408.7,-34.33 3291.1,0 3207.1,-45.06 3172.1,-63.81 3150.1,-105.7 3138.5,-134.31"/>
<polygon fill="black" stroke="black" points="3135.29,-132.9 3134.95,-143.49 3141.82,-135.43 3135.29,-132.9"/>
<text text-anchor="middle" x="3319.6" y="-66.76" font-family="Times,serif" font-size="14.00">content/λ:0.966</text>
<text text-anchor="middle" x="3319.6" y="-49.51" font-family="Times,serif" font-size="14.00">a0 = b0</text>
</g>
<!-- q22:0.0 -->
<g id="node8" class="node">
<title>q22:0.0</title>
<ellipse fill="none" stroke="black" stroke-width="2" cx="3763.9" cy="-69.56" rx="49.1" ry="18"/>
<text text-anchor="middle" x="3763.9" y="-64.88" font-family="Times,serif" font-size="14.00">q22:0.0</text>
</g>
<!-- q18:0.0&#45;&gt;q22:0.0 -->
<g id="edge8" class="edge">
<title>q18:0.0&#45;&gt;q22:0.0</title>
<path fill="none" stroke="black" d="M3549,-69.56C3592.4,-69.56 3655.9,-69.56 3702.5,-69.56"/>
<polygon fill="black" stroke="black" points="3702.39,-73.06 3712.39,-69.56 3702.39,-66.06 3702.39,-73.06"/>
<text text-anchor="middle" x="3631.6" y="-73.51" font-family="Times,serif" font-size="14.00">content/250:0.034</text>
</g>
<!-- q20:1.0 -->
<g id="node9" class="node">
<title>q20:1.0</title>
<ellipse fill="none" stroke="black" stroke-width="2" cx="3763.9" cy="-257.56" rx="49.1" ry="18"/>
<text text-anchor="middle" x="3763.9" y="-252.88" font-family="Times,serif" font-size="14.00">q20:1.0</text>
</g>
<!-- q16:0.0&#45;&gt;q20:1.0 -->
<g id="edge9" class="edge">
<title>q16:0.0&#45;&gt;q20:1.0</title>
<path fill="none" stroke="black" d="M3549,-257.56C3592.4,-257.56 3655.9,-257.56 3702.5,-257.56"/>
<polygon fill="black" stroke="black" points="3702.39,-261.06 3712.39,-257.56 3702.39,-254.06 3702.39,-261.06"/>
<text text-anchor="middle" x="3631.6" y="-278.75" font-family="Times,serif" font-size="14.00">RSET/250:1.0</text>
<text text-anchor="middle" x="3631.6" y="-261.5" font-family="Times,serif" font-size="14.00">a0 = b0</text>
</g>
<!-- q23:1.0 -->
<g id="node10" class="node">
<title>q23:1.0</title>
<ellipse fill="none" stroke="black" stroke-width="2" cx="3994.1" cy="-69.56" rx="49.1" ry="18"/>
<text text-anchor="middle" x="3994.1" y="-64.88" font-family="Times,serif" font-size="14.00">q23:1.0</text>
</g>
<!-- q22:0.0&#45;&gt;q23:1.0 -->
<g id="edge10" class="edge">
<title>q22:0.0&#45;&gt;q23:1.0</title>
<path fill="none" stroke="black" d="M3813.9,-69.56C3848.8,-69.56 3895.9,-69.56 3933.1,-69.56"/>
<polygon fill="black" stroke="black" points="3932.79,-73.06 3942.79,-69.56 3932.79,-66.06 3932.79,-73.06"/>
<text text-anchor="middle" x="3879" y="-73.51" font-family="Times,serif" font-size="14.00">QUIT/221:1.0</text>
</g>
<!-- q2:0.0 -->
<g id="node11" class="node">
<title>q2:0.0</title>
<ellipse fill="none" stroke="black" stroke-width="2" cx="484.7" cy="-258.56" rx="42.79" ry="18"/>
<text text-anchor="middle" x="484.7" y="-253.88" font-family="Times,serif" font-size="14.00">q2:0.0</text>
</g>
<!-- q5:0.0 -->
<g id="node12" class="node">
<title>q5:0.0</title>
<ellipse fill="none" stroke="black" stroke-width="2" cx="1657.8" cy="-154.56" rx="42.79" ry="18"/>
<text text-anchor="middle" x="1657.8" y="-149.88" font-family="Times,serif" font-size="14.00">q5:0.0</text>
</g>
<!-- q2:0.0&#45;&gt;q5:0.0 -->
<g id="edge11" class="edge">
<title>q2:0.0&#45;&gt;q5:0.0</title>
<path fill="none" stroke="black" d="M509.09,-242.97C519.73,-236.77 532.77,-230.34 545.49,-227.06 658.66,-197.96 1488.1,-250.03 1597,-207.56 1611.6,-201.87 1624.9,-190.9 1635.3,-180.41"/>
<polygon fill="black" stroke="black" points="1637.64,-183.03 1641.87,-173.32 1632.51,-178.27 1637.64,-183.03"/>
<text text-anchor="middle" x="1071.2" y="-247.75" font-family="Times,serif" font-size="14.00">AUTH/λ:0.004</text>
<text text-anchor="middle" x="1071.2" y="-230.5" font-family="Times,serif" font-size="14.00">a0 = PLAIN AEF6NjE2MUAxMjYuY29tAE1VUVNBT1NUWElURkpDVUU=</text>
</g>
<!-- q4:0.0 -->
<g id="node13" class="node">
<title>q4:0.0</title>
<ellipse fill="none" stroke="black" stroke-width="2" cx="1657.8" cy="-368.55" rx="42.79" ry="18"/>
<text text-anchor="middle" x="1657.8" y="-363.88" font-family="Times,serif" font-size="14.00">q4:0.0</text>
</g>
<!-- q2:0.0&#45;&gt;q4:0.0 -->
<g id="edge12" class="edge">
<title>q2:0.0&#45;&gt;q4:0.0</title>
<path fill="none" stroke="black" d="M492.5,-276.94C501.23,-297.6 518.57,-330.12 545.49,-344.56 912.49,-541.45 1450.5,-423.43 1610.4,-381.53"/>
<polygon fill="black" stroke="black" points="1610.98,-384.99 1619.74,-379.03 1609.17,-378.23 1610.98,-384.99"/>
<text text-anchor="middle" x="1071.2" y="-475.75" font-family="Times,serif" font-size="14.00">AUTH/535:0.049</text>
<text text-anchor="middle" x="1071.2" y="-458.5" font-family="Times,serif" font-size="14.00">b0 in {&#39;5.7.8 authentication failed&#39;, &#39;Error: authentication failed&#39;}</text>
</g>
<!-- q6:0.0 -->
<g id="node14" class="node">
<title>q6:0.0</title>
<ellipse fill="none" stroke="black" stroke-width="2" cx="1657.8" cy="-287.56" rx="42.79" ry="18"/>
<text text-anchor="middle" x="1657.8" y="-282.88" font-family="Times,serif" font-size="14.00">q6:0.0</text>
</g>
<!-- q2:0.0&#45;&gt;q6:0.0 -->
<g id="edge13" class="edge">
<title>q2:0.0&#45;&gt;q6:0.0</title>
<path fill="none" stroke="black" d="M526.5,-263.87C532.85,-264.53 539.34,-265.13 545.49,-265.56 950.95,-293.25 1441.4,-290.26 1602.6,-288.33"/>
<polygon fill="black" stroke="black" points="1602.63,-291.83 1612.59,-288.21 1602.54,-284.84 1602.63,-291.83"/>
<text text-anchor="middle" x="1071.2" y="-327.01" font-family="Times,serif" font-size="14.00">AUTH/235:0.947</text>
<text text-anchor="middle" x="1071.2" y="-309.76" font-family="Times,serif" font-size="14.00">a0 in {&#39;PLAIN AEF6NjE2MUAxMjYuY29tAE1VUVNBT1NUWElURkpDVUU=&#39;, &#39;PLAIN AEF6NjE2MUBzaW5hLmNvbQA2ZmRiMjVjZmNjODYyZWZj&#39;}</text>
<text text-anchor="middle" x="1071.2" y="-292.51" font-family="Times,serif" font-size="14.00">b0 in {&#39;Authentication successful&#39;, &#39;OK Authenticated&#39;}</text>
</g>
<!-- q8:0.0 -->
<g id="node15" class="node">
<title>q8:0.0</title>
<ellipse fill="none" stroke="black" stroke-width="2" cx="2500.9" cy="-176.55" rx="42.79" ry="18"/>
<text text-anchor="middle" x="2500.9" y="-171.88" font-family="Times,serif" font-size="14.00">q8:0.0</text>
</g>
<!-- q5:0.0&#45;&gt;q8:0.0 -->
<g id="edge14" class="edge">
<title>q5:0.0&#45;&gt;q8:0.0</title>
<path fill="none" stroke="black" d="M1698.5,-147.85C1814.5,-129.59 2162.3,-84.5 2440.1,-147.81 2448.3,-149.69 2456.8,-152.87 2464.6,-156.44"/>
<polygon fill="black" stroke="black" points="2463.02,-159.56 2473.54,-160.79 2466.08,-153.26 2463.02,-159.56"/>
<text text-anchor="middle" x="2079.3" y="-187.01" font-family="Times,serif" font-size="14.00">MAIL/250:1.0</text>
<text text-anchor="middle" x="2079.3" y="-169.76" font-family="Times,serif" font-size="14.00">a0 in {&#39;FROM:&lt;Az6161@sina.com&gt;&#39;, &#39;FROM:&lt;Az6161@126.com&gt;&#39;}</text>
<text text-anchor="middle" x="2079.3" y="-152.51" font-family="Times,serif" font-size="14.00">b0 in {&#39;Mail OK&#39;, &#39;ok&#39;}</text>
</g>
<!-- q7:0.0 -->
<g id="node16" class="node">
<title>q7:0.0</title>
<ellipse fill="none" stroke="black" stroke-width="2" cx="2500.9" cy="-371.56" rx="42.79" ry="18"/>
<text text-anchor="middle" x="2500.9" y="-366.88" font-family="Times,serif" font-size="14.00">q7:0.0</text>
</g>
<!-- q4:0.0&#45;&gt;q7:0.0 -->
<g id="edge15" class="edge">
<title>q4:0.0&#45;&gt;q7:0.0</title>
<path fill="none" stroke="black" d="M1701.4,-368.7C1841.9,-369.22 2290.6,-370.81 2446.2,-371.37"/>
<polygon fill="black" stroke="black" points="2445.77,-374.86 2455.79,-371.4 2445.8,-367.86 2445.77,-374.86"/>
<text text-anchor="middle" x="2079.3" y="-391.75" font-family="Times,serif" font-size="14.00">AUTH/334:1.0</text>
<text text-anchor="middle" x="2079.3" y="-374.5" font-family="Times,serif" font-size="14.00">b0 = UGFzc3dvcmQ6</text>
</g>
<!-- q6:0.0&#45;&gt;q8:0.0 -->
<g id="edge16" class="edge">
<title>q6:0.0&#45;&gt;q8:0.0</title>
<path fill="none" stroke="black" d="M1672.1,-269.69C1682.9,-256.61 1699.6,-239.78 1718.6,-231.81 1866.5,-169.67 2283,-232.38 2440.1,-199.56 2446.6,-198.21 2453.3,-196.24 2459.7,-194"/>
<polygon fill="black" stroke="black" points="2460.71,-197.36 2468.88,-190.61 2458.29,-190.8 2460.71,-197.36"/>
<text text-anchor="middle" x="2079.3" y="-270.01" font-family="Times,serif" font-size="14.00">MAIL/250:0.987</text>
<text text-anchor="middle" x="2079.3" y="-252.76" font-family="Times,serif" font-size="14.00">a0 in {&#39;FROM:&lt;Az6161@sina.com&gt;&#39;, &#39;FROM:&lt;Az6161@126.com&gt;&#39;}</text>
<text text-anchor="middle" x="2079.3" y="-235.51" font-family="Times,serif" font-size="14.00">b0 in {&#39;Mail OK&#39;, &#39;ok&#39;}</text>
</g>
<!-- q9:0.0 -->
<g id="node17" class="node">
<title>q9:0.0</title>
<ellipse fill="none" stroke="black" stroke-width="2" cx="2500.9" cy="-296.55" rx="42.79" ry="18"/>
<text text-anchor="middle" x="2500.9" y="-291.88" font-family="Times,serif" font-size="14.00">q9:0.0</text>
</g>
<!-- q6:0.0&#45;&gt;q9:0.0 -->
<g id="edge17" class="edge">
<title>q6:0.0&#45;&gt;q9:0.0</title>
<path fill="none" stroke="black" d="M1701.4,-288.01C1841.9,-289.51 2290.6,-294.31 2446.2,-295.99"/>
<polygon fill="black" stroke="black" points="2445.75,-299.48 2455.79,-296.09 2445.82,-292.48 2445.75,-299.48"/>
<text text-anchor="middle" x="2079.3" y="-334.01" font-family="Times,serif" font-size="14.00">MAIL/553:0.013</text>
<text text-anchor="middle" x="2079.3" y="-316.76" font-family="Times,serif" font-size="14.00">a0 in {&#39;FROM:&lt;Az_6161@126.com&gt;&#39;, &#39;FROM:&lt;Az_6161@sina.com&gt;&#39;, &#39;FROM:&lt;Az6161@163.com&gt;&#39;}</text>
<text text-anchor="middle" x="2079.3" y="-299.51" font-family="Times,serif" font-size="14.00">b0 in {&#39;Mail from must equal authorized user&#39;, &#39;Envolope sender mismatch with login user..&#39;}</text>
</g>
<!-- q8:0.0&#45;&gt;q11:0.0 -->
<g id="edge18" class="edge">
<title>q8:0.0&#45;&gt;q11:0.0</title>
<path fill="none" stroke="black" d="M2540,-168.12C2547.1,-166.86 2554.6,-165.74 2561.7,-165.06 2744.9,-147.34 2963.1,-154.81 3066.5,-160.05"/>
<polygon fill="black" stroke="black" points="3066.22,-163.54 3076.39,-160.56 3066.58,-156.54 3066.22,-163.54"/>
<text text-anchor="middle" x="2804.7" y="-186.75" font-family="Times,serif" font-size="14.00">DATA/354:0.307</text>
<text text-anchor="middle" x="2804.7" y="-169.5" font-family="Times,serif" font-size="14.00">b0 = End data with &lt;CR&gt;&lt;LF&gt;.&lt;CR&gt;&lt;LF&gt;</text>
</g>
<!-- q8:0.0&#45;&gt;q8:0.0 -->
<g id="edge19" class="edge">
<title>q8:0.0&#45;&gt;q8:0.0</title>
<path fill="none" stroke="black" d="M2462.4,-185.59C2428.4,-197.77 2441.2,-212.56 2500.9,-212.56 2553.3,-212.56 2569.5,-201.12 2549.6,-190.11"/>
<polygon fill="black" stroke="black" points="2551.25,-187.01 2540.69,-186.2 2548.44,-193.42 2551.25,-187.01"/>
<text text-anchor="middle" x="2500.9" y="-233.75" font-family="Times,serif" font-size="14.00">RCPT/250:0.622</text>
<text text-anchor="middle" x="2500.9" y="-216.5" font-family="Times,serif" font-size="14.00">b0 in {&#39;Mail OK&#39;, &#39;ok&#39;}</text>
</g>
<!-- q12:1.0 -->
<g id="node18" class="node">
<title>q12:1.0</title>
<ellipse fill="none" stroke="black" stroke-width="2" cx="3127.4" cy="-221.55" rx="49.1" ry="18"/>
<text text-anchor="middle" x="3127.4" y="-216.88" font-family="Times,serif" font-size="14.00">q12:1.0</text>
</g>
<!-- q8:0.0&#45;&gt;q12:1.0 -->
<g id="edge20" class="edge">
<title>q8:0.0&#45;&gt;q12:1.0</title>
<path fill="none" stroke="black" d="M2531.4,-190.12C2540.9,-193.87 2551.5,-197.47 2561.7,-199.56 2742.6,-236.81 2962.8,-231.18 3066.7,-225.58"/>
<polygon fill="black" stroke="black" points="3066.8,-229.07 3076.59,-225.02 3066.41,-222.09 3066.8,-229.07"/>
<text text-anchor="middle" x="2804.7" y="-250.75" font-family="Times,serif" font-size="14.00">DATA/550:0.071</text>
<text text-anchor="middle" x="2804.7" y="-233.5" font-family="Times,serif" font-size="14.00">b0 in {&#39;too many message send today.&#39;, &#39;Sender frequency limited.&#39;}</text>
</g>
<!-- q10:0.667 -->
<g id="node19" class="node">
<title>q10:0.667</title>
<ellipse fill="none" stroke="black" stroke-width="2" cx="3127.4" cy="-371.56" rx="61.73" ry="18"/>
<text text-anchor="middle" x="3127.4" y="-366.88" font-family="Times,serif" font-size="14.00">q10:0.667</text>
</g>
<!-- q7:0.0&#45;&gt;q10:0.667 -->
<g id="edge21" class="edge">
<title>q7:0.0&#45;&gt;q10:0.667</title>
<path fill="none" stroke="black" d="M2544.3,-371.56C2649.3,-371.56 2922.2,-371.56 3053.6,-371.56"/>
<polygon fill="black" stroke="black" points="3053.59,-375.06 3063.59,-371.56 3053.59,-368.06 3053.59,-375.06"/>
<text text-anchor="middle" x="2804.7" y="-392.75" font-family="Times,serif" font-size="14.00">content/535:1.0</text>
<text text-anchor="middle" x="2804.7" y="-375.5" font-family="Times,serif" font-size="14.00">b0 in {&#39;5.7.8 authentication failed&#39;, &#39;Error: authentication failed&#39;}</text>
</g>
<!-- q13:1.0 -->
<g id="node20" class="node">
<title>q13:1.0</title>
<ellipse fill="none" stroke="black" stroke-width="2" cx="3127.4" cy="-296.55" rx="49.1" ry="18"/>
<text text-anchor="middle" x="3127.4" y="-291.88" font-family="Times,serif" font-size="14.00">q13:1.0</text>
</g>
<!-- q9:0.0&#45;&gt;q13:1.0 -->
<g id="edge22" class="edge">
<title>q9:0.0&#45;&gt;q13:1.0</title>
<path fill="none" stroke="black" d="M2544.3,-296.56C2652.8,-296.56 2940.5,-296.56 3066.2,-296.56"/>
<polygon fill="black" stroke="black" points="3065.99,-300.06 3075.99,-296.56 3065.99,-293.06 3065.99,-300.06"/>
<text text-anchor="middle" x="2804.7" y="-317.75" font-family="Times,serif" font-size="14.00">RSET/250:1.0</text>
<text text-anchor="middle" x="2804.7" y="-300.5" font-family="Times,serif" font-size="14.00">b0 in {&#39;flushed&#39;, &#39;OK&#39;}</text>
</g>
<!-- q14:1.0 -->
<g id="node21" class="node">
<title>q14:1.0</title>
<ellipse fill="none" stroke="black" stroke-width="2" cx="3499.2" cy="-371.56" rx="49.1" ry="18"/>
<text text-anchor="middle" x="3499.2" y="-366.88" font-family="Times,serif" font-size="14.00">q14:1.0</text>
</g>
<!-- q10:0.667&#45;&gt;q14:1.0 -->
<g id="edge23" class="edge">
<title>q10:0.667&#45;&gt;q14:1.0</title>
<path fill="none" stroke="black" d="M3189.9,-371.56C3258.7,-371.56 3369.5,-371.56 3437.9,-371.56"/>
<polygon fill="black" stroke="black" points="3437.79,-375.06 3447.79,-371.56 3437.79,-368.06 3437.79,-375.06"/>
<text text-anchor="middle" x="3319.6" y="-392.75" font-family="Times,serif" font-size="14.00">λ/451:0.333</text>
<text text-anchor="middle" x="3319.6" y="-375.5" font-family="Times,serif" font-size="14.00">b0 = Timeout.</text>
</g>
<!-- q1:0.0 -->
<g id="node22" class="node">
<title>q1:0.0</title>
<ellipse fill="none" stroke="black" stroke-width="2" cx="243.87" cy="-223.56" rx="42.79" ry="18"/>
<text text-anchor="middle" x="243.87" y="-218.88" font-family="Times,serif" font-size="14.00">q1:0.0</text>
</g>
<!-- q1:0.0&#45;&gt;q2:0.0 -->
<g id="edge24" class="edge">
<title>q1:0.0&#45;&gt;q2:0.0</title>
<path fill="none" stroke="black" d="M284.73,-230.38C291.38,-231.47 298.21,-232.56 304.66,-233.56 347.35,-240.11 395.88,-246.84 431.63,-251.67"/>
<polygon fill="black" stroke="black" points="430.89,-255.1 441.27,-252.96 431.83,-248.16 430.89,-255.1"/>
<text text-anchor="middle" x="364.29" y="-253.51" font-family="Times,serif" font-size="14.00">EHLO/250:0.996</text>
</g>
<!-- q3:0.0 -->
<g id="node23" class="node">
<title>q3:0.0</title>
<ellipse fill="none" stroke="black" stroke-width="2" cx="484.7" cy="-162.56" rx="42.79" ry="18"/>
<text text-anchor="middle" x="484.7" y="-157.88" font-family="Times,serif" font-size="14.00">q3:0.0</text>
</g>
<!-- q1:0.0&#45;&gt;q3:0.0 -->
<g id="edge25" class="edge">
<title>q1:0.0&#45;&gt;q3:0.0</title>
<path fill="none" stroke="black" d="M271.63,-208.94C281.74,-203.92 293.5,-198.66 304.66,-195.06 346.17,-181.67 394.98,-173.27 431.14,-168.37"/>
<polygon fill="black" stroke="black" points="431.45,-171.85 440.91,-167.09 430.54,-164.91 431.45,-171.85"/>
<text text-anchor="middle" x="364.29" y="-216.75" font-family="Times,serif" font-size="14.00">EHLO/λ:0.004</text>
<text text-anchor="middle" x="364.29" y="-199.5" font-family="Times,serif" font-size="14.00">a0 = [127.0.1.1]</text>
</g>
<!-- q3:0.0&#45;&gt;q5:0.0 -->
<g id="edge26" class="edge">
<title>q3:0.0&#45;&gt;q5:0.0</title>
<path fill="none" stroke="black" d="M526.5,-157.34C532.85,-156.71 539.34,-156.16 545.49,-155.81 951.4,-132.74 1442,-146.81 1602.9,-152.5"/>
<polygon fill="black" stroke="black" points="1602.67,-155.99 1612.79,-152.85 1602.92,-148.99 1602.67,-155.99"/>
<text text-anchor="middle" x="1071.2" y="-195.01" font-family="Times,serif" font-size="14.00">AUTH/235:1.0</text>
<text text-anchor="middle" x="1071.2" y="-177.76" font-family="Times,serif" font-size="14.00">a0 = PLAIN AEF6NjE2MUBzaW5hLmNvbQA2ZmRiMjVjZmNjODYyZWZj</text>
<text text-anchor="middle" x="1071.2" y="-160.51" font-family="Times,serif" font-size="14.00">b0 = OK Authenticated</text>
</g>
<!-- q0:0.0 -->
<g id="node24" class="node">
<title>q0:0.0</title>
<ellipse fill="none" stroke="black" stroke-width="2" cx="50.79" cy="-223.56" rx="46.79" ry="46.79"/>
<ellipse fill="none" stroke="black" stroke-width="2" cx="50.79" cy="-223.56" rx="50.79" ry="50.79"/>
<text text-anchor="middle" x="50.79" y="-218.88" font-family="Times,serif" font-size="14.00">q0:0.0</text>
</g>
<!-- q0:0.0&#45;&gt;q1:0.0 -->
<g id="edge27" class="edge">
<title>q0:0.0&#45;&gt;q1:0.0</title>
<path fill="none" stroke="black" d="M98.53,-223.56C125.82,-223.56 160.37,-223.56 188.82,-223.56"/>
<polygon fill="black" stroke="black" points="188.69,-227.06 198.69,-223.56 188.69,-220.06 188.69,-227.06"/>
<text text-anchor="middle" x="149.33" y="-227.51" font-family="Times,serif" font-size="14.00">λ/220:1.0</text>
</g>
</g>
</svg>
