<?xml version="1.0" encoding="UTF-8" standalone="no"?>
<!DOCTYPE svg PUBLIC "-//W3C//DTD SVG 1.1//EN"
 "http://www.w3.org/Graphics/SVG/1.1/DTD/svg11.dtd">
<!-- Generated by graphviz version 12.0.0 (20240803.0821)
 -->
<!-- Pages: 1 -->
<svg width="3789pt" height="497pt"
 viewBox="0.00 0.00 3788.80 497.32" xmlns="http://www.w3.org/2000/svg" xmlns:xlink="http://www.w3.org/1999/xlink">
<g id="graph0" class="graph" transform="scale(1 1) rotate(0) translate(4 493.32)">
<polygon fill="white" stroke="none" points="-4,4 -4,-493.32 3784.8,-493.32 3784.8,4 -4,4"/>
<!-- q9:0.0 -->
<g id="node1" class="node">
<title>q9:0.0</title>
<ellipse fill="none" stroke="black" stroke-width="2" cx="2500.9" cy="-177.81" rx="42.79" ry="18"/>
<text text-anchor="middle" x="2500.9" y="-173.14" font-family="Times,serif" font-size="14.00">q9:0.0</text>
</g>
<!-- q13:0.692 -->
<g id="node2" class="node">
<title>q13:0.692</title>
<ellipse fill="none" stroke="black" stroke-width="2" cx="3127.4" cy="-177.81" rx="61.73" ry="18"/>
<text text-anchor="middle" x="3127.4" y="-173.14" font-family="Times,serif" font-size="14.00">q13:0.692</text>
</g>
<!-- q9:0.0&#45;&gt;q13:0.692 -->
<g id="edge1" class="edge">
<title>q9:0.0&#45;&gt;q13:0.692</title>
<path fill="none" stroke="black" d="M2544.3,-177.81C2649.3,-177.81 2922.2,-177.81 3053.6,-177.81"/>
<polygon fill="black" stroke="black" points="3053.59,-181.32 3063.59,-177.82 3053.59,-174.32 3053.59,-181.32"/>
<text text-anchor="middle" x="2804.7" y="-199.02" font-family="Times,serif" font-size="14.00">content/535:1.0</text>
<text text-anchor="middle" x="2804.7" y="-181.77" font-family="Times,serif" font-size="14.00">b0 in {&#39;5.7.8 authentication failed&#39;, &#39;Error: authentication failed&#39;}</text>
</g>
<!-- q17:1.0 -->
<g id="node3" class="node">
<title>q17:1.0</title>
<ellipse fill="none" stroke="black" stroke-width="2" cx="3499.2" cy="-177.81" rx="49.1" ry="18"/>
<text text-anchor="middle" x="3499.2" y="-173.14" font-family="Times,serif" font-size="14.00">q17:1.0</text>
</g>
<!-- q13:0.692&#45;&gt;q17:1.0 -->
<g id="edge2" class="edge">
<title>q13:0.692&#45;&gt;q17:1.0</title>
<path fill="none" stroke="black" d="M3189.9,-177.81C3258.7,-177.81 3369.5,-177.81 3437.9,-177.81"/>
<polygon fill="black" stroke="black" points="3437.79,-181.32 3447.79,-177.82 3437.79,-174.32 3437.79,-181.32"/>
<text text-anchor="middle" x="3319.6" y="-199.02" font-family="Times,serif" font-size="14.00">λ/451:0.308</text>
<text text-anchor="middle" x="3319.6" y="-181.77" font-family="Times,serif" font-size="14.00">b0 = Timeout.</text>
</g>
<!-- q11:0.0 -->
<g id="node4" class="node">
<title>q11:0.0</title>
<ellipse fill="none" stroke="black" stroke-width="2" cx="3127.4" cy="-397.82" rx="49.1" ry="18"/>
<text text-anchor="middle" x="3127.4" y="-393.14" font-family="Times,serif" font-size="14.00">q11:0.0</text>
</g>
<!-- q11:0.0&#45;&gt;q11:0.0 -->
<g id="edge3" class="edge">
<title>q11:0.0&#45;&gt;q11:0.0</title>
<path fill="none" stroke="black" d="M3095.6,-412.24C3084.5,-422.98 3095.1,-433.82 3127.4,-433.82 3148.6,-433.82 3160.4,-429.15 3162.9,-422.91"/>
<polygon fill="black" stroke="black" points="3166.28,-421.97 3159.7,-413.67 3159.66,-424.26 3166.28,-421.97"/>
<text text-anchor="middle" x="3127.4" y="-455.02" font-family="Times,serif" font-size="14.00">content/λ:0.934</text>
<text text-anchor="middle" x="3127.4" y="-437.77" font-family="Times,serif" font-size="14.00">a0 = b0</text>
</g>
<!-- q16:0.0 -->
<g id="node5" class="node">
<title>q16:0.0</title>
<ellipse fill="none" stroke="black" stroke-width="2" cx="3499.2" cy="-453.82" rx="49.1" ry="18"/>
<text text-anchor="middle" x="3499.2" y="-449.14" font-family="Times,serif" font-size="14.00">q16:0.0</text>
</g>
<!-- q11:0.0&#45;&gt;q16:0.0 -->
<g id="edge4" class="edge">
<title>q11:0.0&#45;&gt;q16:0.0</title>
<path fill="none" stroke="black" d="M3167,-409.28C3179.7,-412.73 3193.9,-416.28 3207.1,-418.82 3286.7,-434.13 3379.8,-443.93 3438.9,-449.15"/>
<polygon fill="black" stroke="black" points="3438.42,-452.62 3448.69,-450 3439.04,-445.64 3438.42,-452.62"/>
<text text-anchor="middle" x="3319.6" y="-469.02" font-family="Times,serif" font-size="14.00">content/550:0.0</text>
<text text-anchor="middle" x="3319.6" y="-451.77" font-family="Times,serif" font-size="14.00">b0 = Sender frequency limited.</text>
</g>
<!-- q14:0.0 -->
<g id="node6" class="node">
<title>q14:0.0</title>
<ellipse fill="none" stroke="black" stroke-width="2" cx="3499.2" cy="-397.82" rx="49.1" ry="18"/>
<text text-anchor="middle" x="3499.2" y="-393.14" font-family="Times,serif" font-size="14.00">q14:0.0</text>
</g>
<!-- q11:0.0&#45;&gt;q14:0.0 -->
<g id="edge5" class="edge">
<title>q11:0.0&#45;&gt;q14:0.0</title>
<path fill="none" stroke="black" d="M3177.1,-397.82C3244.3,-397.82 3365.4,-397.82 3438.1,-397.82"/>
<polygon fill="black" stroke="black" points="3437.89,-401.32 3447.89,-397.82 3437.89,-394.32 3437.89,-401.32"/>
<text text-anchor="middle" x="3319.6" y="-401.76" font-family="Times,serif" font-size="14.00">content/554:0.024</text>
</g>
<!-- q15:0.0 -->
<g id="node7" class="node">
<title>q15:0.0</title>
<ellipse fill="none" stroke="black" stroke-width="2" cx="3499.2" cy="-343.82" rx="49.1" ry="18"/>
<text text-anchor="middle" x="3499.2" y="-339.14" font-family="Times,serif" font-size="14.00">q15:0.0</text>
</g>
<!-- q11:0.0&#45;&gt;q15:0.0 -->
<g id="edge6" class="edge">
<title>q11:0.0&#45;&gt;q15:0.0</title>
<path fill="none" stroke="black" d="M3166.6,-386.27C3179.4,-382.73 3193.8,-379.11 3207.1,-376.57 3286.5,-361.48 3379.5,-352.5 3438.6,-347.87"/>
<polygon fill="black" stroke="black" points="3438.79,-351.36 3448.49,-347.11 3438.25,-344.38 3438.79,-351.36"/>
<text text-anchor="middle" x="3319.6" y="-379.76" font-family="Times,serif" font-size="14.00">content/250:0.041</text>
</g>
<!-- q20:1.0 -->
<g id="node8" class="node">
<title>q20:1.0</title>
<ellipse fill="none" stroke="black" stroke-width="2" cx="3731.7" cy="-455.82" rx="49.1" ry="18"/>
<text text-anchor="middle" x="3731.7" y="-451.14" font-family="Times,serif" font-size="14.00">q20:1.0</text>
</g>
<!-- q16:0.0&#45;&gt;q20:1.0 -->
<g id="edge7" class="edge">
<title>q16:0.0&#45;&gt;q20:1.0</title>
<path fill="none" stroke="black" d="M3549.1,-454.24C3584.5,-454.55 3632.7,-454.97 3670.5,-455.3"/>
<polygon fill="black" stroke="black" points="3670.36,-458.79 3680.39,-455.38 3670.42,-451.8 3670.36,-458.79"/>
<text text-anchor="middle" x="3615.4" y="-476.02" font-family="Times,serif" font-size="14.00">RSET/250:1.0</text>
<text text-anchor="middle" x="3615.4" y="-458.77" font-family="Times,serif" font-size="14.00">a0 = b0</text>
</g>
<!-- q18:1.0 -->
<g id="node9" class="node">
<title>q18:1.0</title>
<ellipse fill="none" stroke="black" stroke-width="2" cx="3731.7" cy="-397.82" rx="49.1" ry="18"/>
<text text-anchor="middle" x="3731.7" y="-393.14" font-family="Times,serif" font-size="14.00">q18:1.0</text>
</g>
<!-- q14:0.0&#45;&gt;q18:1.0 -->
<g id="edge8" class="edge">
<title>q14:0.0&#45;&gt;q18:1.0</title>
<path fill="none" stroke="black" d="M3549.1,-397.82C3584.5,-397.82 3632.7,-397.82 3670.5,-397.82"/>
<polygon fill="black" stroke="black" points="3670.39,-401.32 3680.39,-397.82 3670.39,-394.32 3670.39,-401.32"/>
<text text-anchor="middle" x="3615.4" y="-419.02" font-family="Times,serif" font-size="14.00">RSET/250:1.0</text>
<text text-anchor="middle" x="3615.4" y="-401.77" font-family="Times,serif" font-size="14.00">b0 = OK</text>
</g>
<!-- q19:1.0 -->
<g id="node10" class="node">
<title>q19:1.0</title>
<ellipse fill="none" stroke="black" stroke-width="2" cx="3731.7" cy="-343.82" rx="49.1" ry="18"/>
<text text-anchor="middle" x="3731.7" y="-339.14" font-family="Times,serif" font-size="14.00">q19:1.0</text>
</g>
<!-- q15:0.0&#45;&gt;q19:1.0 -->
<g id="edge9" class="edge">
<title>q15:0.0&#45;&gt;q19:1.0</title>
<path fill="none" stroke="black" d="M3549.1,-343.82C3584.5,-343.82 3632.7,-343.82 3670.5,-343.82"/>
<polygon fill="black" stroke="black" points="3670.39,-347.32 3680.39,-343.82 3670.39,-340.32 3670.39,-347.32"/>
<text text-anchor="middle" x="3615.4" y="-347.76" font-family="Times,serif" font-size="14.00">QUIT/221:1.0</text>
</g>
<!-- q7:0.0 -->
<g id="node11" class="node">
<title>q7:0.0</title>
<ellipse fill="none" stroke="black" stroke-width="2" cx="2500.9" cy="-347.82" rx="42.79" ry="18"/>
<text text-anchor="middle" x="2500.9" y="-343.14" font-family="Times,serif" font-size="14.00">q7:0.0</text>
</g>
<!-- q7:0.0&#45;&gt;q11:0.0 -->
<g id="edge10" class="edge">
<title>q7:0.0&#45;&gt;q11:0.0</title>
<path fill="none" stroke="black" d="M2527.8,-362.73C2538,-367.85 2550.1,-373 2561.7,-375.82 2741.8,-419.61 2963.7,-410.74 3067.6,-403.09"/>
<polygon fill="black" stroke="black" points="3067.79,-406.58 3077.49,-402.33 3067.25,-399.6 3067.79,-406.58"/>
<text text-anchor="middle" x="2804.7" y="-430.02" font-family="Times,serif" font-size="14.00">DATA/354:0.332</text>
<text text-anchor="middle" x="2804.7" y="-412.77" font-family="Times,serif" font-size="14.00">b0 = End data with &lt;CR&gt;&lt;LF&gt;.&lt;CR&gt;&lt;LF&gt;</text>
</g>
<!-- q7:0.0&#45;&gt;q7:0.0 -->
<g id="edge11" class="edge">
<title>q7:0.0&#45;&gt;q7:0.0</title>
<path fill="none" stroke="black" d="M2462.4,-356.86C2428.4,-369.02 2441.2,-383.82 2500.9,-383.82 2553.3,-383.82 2569.5,-372.39 2549.6,-361.36"/>
<polygon fill="black" stroke="black" points="2551.25,-358.26 2540.69,-357.46 2548.45,-364.67 2551.25,-358.26"/>
<text text-anchor="middle" x="2500.9" y="-405.02" font-family="Times,serif" font-size="14.00">RCPT/250:0.622</text>
<text text-anchor="middle" x="2500.9" y="-387.77" font-family="Times,serif" font-size="14.00">b0 in {&#39;Mail OK&#39;, &#39;ok&#39;}</text>
</g>
<!-- q10:1.0 -->
<g id="node12" class="node">
<title>q10:1.0</title>
<ellipse fill="none" stroke="black" stroke-width="2" cx="3127.4" cy="-339.82" rx="49.1" ry="18"/>
<text text-anchor="middle" x="3127.4" y="-335.14" font-family="Times,serif" font-size="14.00">q10:1.0</text>
</g>
<!-- q7:0.0&#45;&gt;q10:1.0 -->
<g id="edge12" class="edge">
<title>q7:0.0&#45;&gt;q10:1.0</title>
<path fill="none" stroke="black" d="M2543,-342.77C2549.2,-342.17 2555.6,-341.65 2561.7,-341.32 2745.2,-331.13 2962.9,-335.06 3066.2,-337.9"/>
<polygon fill="black" stroke="black" points="3065.99,-341.39 3076.09,-338.17 3066.19,-334.39 3065.99,-341.39"/>
<text text-anchor="middle" x="2804.7" y="-362.02" font-family="Times,serif" font-size="14.00">DATA/550:0.046</text>
<text text-anchor="middle" x="2804.7" y="-344.77" font-family="Times,serif" font-size="14.00">b0 in {&#39;too many message send today.&#39;, &#39;Sender frequency limited.&#39;}</text>
</g>
<!-- q1:0.0 -->
<g id="node13" class="node">
<title>q1:0.0</title>
<ellipse fill="none" stroke="black" stroke-width="2" cx="243.87" cy="-313.82" rx="42.79" ry="18"/>
<text text-anchor="middle" x="243.87" y="-309.14" font-family="Times,serif" font-size="14.00">q1:0.0</text>
</g>
<!-- q2:0.0 -->
<g id="node14" class="node">
<title>q2:0.0</title>
<ellipse fill="none" stroke="black" stroke-width="2" cx="484.7" cy="-361.82" rx="42.79" ry="18"/>
<text text-anchor="middle" x="484.7" y="-357.14" font-family="Times,serif" font-size="14.00">q2:0.0</text>
</g>
<!-- q1:0.0&#45;&gt;q2:0.0 -->
<g id="edge13" class="edge">
<title>q1:0.0&#45;&gt;q2:0.0</title>
<path fill="none" stroke="black" d="M283.77,-321.64C324.63,-329.85 389.02,-342.79 433.64,-351.76"/>
<polygon fill="black" stroke="black" points="432.83,-355.16 443.33,-353.7 434.21,-348.3 432.83,-355.16"/>
<text text-anchor="middle" x="364.29" y="-370.02" font-family="Times,serif" font-size="14.00">EHLO/λ:0.008</text>
<text text-anchor="middle" x="364.29" y="-352.77" font-family="Times,serif" font-size="14.00">a0 = [127.0.1.1]</text>
</g>
<!-- q3:0.0 -->
<g id="node15" class="node">
<title>q3:0.0</title>
<ellipse fill="none" stroke="black" stroke-width="2" cx="484.7" cy="-286.82" rx="42.79" ry="18"/>
<text text-anchor="middle" x="484.7" y="-282.14" font-family="Times,serif" font-size="14.00">q3:0.0</text>
</g>
<!-- q1:0.0&#45;&gt;q3:0.0 -->
<g id="edge14" class="edge">
<title>q1:0.0&#45;&gt;q3:0.0</title>
<path fill="none" stroke="black" d="M286.2,-309.15C326.4,-304.6 387.62,-297.68 431.24,-292.75"/>
<polygon fill="black" stroke="black" points="431.43,-296.25 440.98,-291.65 430.65,-289.29 431.43,-296.25"/>
<text text-anchor="middle" x="364.29" y="-310.76" font-family="Times,serif" font-size="14.00">EHLO/250:0.992</text>
</g>
<!-- q4:0.0 -->
<g id="node16" class="node">
<title>q4:0.0</title>
<ellipse fill="none" stroke="black" stroke-width="2" cx="1657.8" cy="-382.82" rx="42.79" ry="18"/>
<text text-anchor="middle" x="1657.8" y="-378.14" font-family="Times,serif" font-size="14.00">q4:0.0</text>
</g>
<!-- q2:0.0&#45;&gt;q4:0.0 -->
<g id="edge15" class="edge">
<title>q2:0.0&#45;&gt;q4:0.0</title>
<path fill="none" stroke="black" d="M528.42,-362.58C708.2,-365.81 1403.2,-378.27 1602.9,-381.85"/>
<polygon fill="black" stroke="black" points="1602.62,-385.34 1612.69,-382.03 1602.75,-378.34 1602.62,-385.34"/>
<text text-anchor="middle" x="1071.2" y="-419.26" font-family="Times,serif" font-size="14.00">AUTH/235:1.0</text>
<text text-anchor="middle" x="1071.2" y="-402.01" font-family="Times,serif" font-size="14.00">a0 in {&#39;PLAIN AEF6NjE2MUAxMjYuY29tAE1VUVNBT1NUWElURkpDVUU=&#39;, &#39;PLAIN AEF6NjE2MUBzaW5hLmNvbQA2ZmRiMjVjZmNjODYyZWZj&#39;}</text>
<text text-anchor="middle" x="1071.2" y="-384.76" font-family="Times,serif" font-size="14.00">b0 in {&#39;Authentication successful&#39;, &#39;OK Authenticated&#39;}</text>
</g>
<!-- q3:0.0&#45;&gt;q4:0.0 -->
<g id="edge16" class="edge">
<title>q3:0.0&#45;&gt;q4:0.0</title>
<path fill="none" stroke="black" d="M520.5,-297.64C528.63,-299.75 537.3,-301.66 545.49,-302.82 603.34,-311.03 1543.1,-301.7 1597,-324.32 1612.8,-330.95 1626.7,-343.89 1637.1,-355.91"/>
<polygon fill="black" stroke="black" points="1634.39,-358.12 1643.44,-363.64 1639.8,-353.68 1634.39,-358.12"/>
<text text-anchor="middle" x="1071.2" y="-345.02" font-family="Times,serif" font-size="14.00">AUTH/λ:0.004</text>
<text text-anchor="middle" x="1071.2" y="-327.77" font-family="Times,serif" font-size="14.00">a0 = PLAIN AEF6NjE2MUAxMjYuY29tAE1VUVNBT1NUWElURkpDVUU=</text>
</g>
<!-- q5:0.0 -->
<g id="node17" class="node">
<title>q5:0.0</title>
<ellipse fill="none" stroke="black" stroke-width="2" cx="1657.8" cy="-249.82" rx="42.79" ry="18"/>
<text text-anchor="middle" x="1657.8" y="-245.14" font-family="Times,serif" font-size="14.00">q5:0.0</text>
</g>
<!-- q3:0.0&#45;&gt;q5:0.0 -->
<g id="edge17" class="edge">
<title>q3:0.0&#45;&gt;q5:0.0</title>
<path fill="none" stroke="black" d="M506.55,-270.55C517.49,-263.04 531.5,-254.94 545.49,-251.07 647.74,-222.77 1394.7,-242.18 1603,-248.2"/>
<polygon fill="black" stroke="black" points="1602.59,-251.69 1612.69,-248.48 1602.79,-244.69 1602.59,-251.69"/>
<text text-anchor="middle" x="1071.2" y="-290.26" font-family="Times,serif" font-size="14.00">AUTH/235:0.942</text>
<text text-anchor="middle" x="1071.2" y="-273.01" font-family="Times,serif" font-size="14.00">a0 in {&#39;PLAIN AEF6NjE2MUAxMjYuY29tAE1VUVNBT1NUWElURkpDVUU=&#39;, &#39;PLAIN AEF6NjE2MUBzaW5hLmNvbQA2ZmRiMjVjZmNjODYyZWZj&#39;}</text>
<text text-anchor="middle" x="1071.2" y="-255.76" font-family="Times,serif" font-size="14.00">b0 in {&#39;Authentication successful&#39;, &#39;OK Authenticated&#39;}</text>
</g>
<!-- q6:0.0 -->
<g id="node18" class="node">
<title>q6:0.0</title>
<ellipse fill="none" stroke="black" stroke-width="2" cx="1657.8" cy="-181.81" rx="42.79" ry="18"/>
<text text-anchor="middle" x="1657.8" y="-177.14" font-family="Times,serif" font-size="14.00">q6:0.0</text>
</g>
<!-- q3:0.0&#45;&gt;q6:0.0 -->
<g id="edge18" class="edge">
<title>q3:0.0&#45;&gt;q6:0.0</title>
<path fill="none" stroke="black" d="M492.17,-268.27C500.7,-247.02 517.93,-213.23 545.49,-198.32 912.21,0 1451.5,-124.69 1610.9,-168.42"/>
<polygon fill="black" stroke="black" points="1609.67,-171.71 1620.24,-171.01 1611.54,-164.96 1609.67,-171.71"/>
<text text-anchor="middle" x="1071.2" y="-220.02" font-family="Times,serif" font-size="14.00">AUTH/535:0.054</text>
<text text-anchor="middle" x="1071.2" y="-202.77" font-family="Times,serif" font-size="14.00">b0 in {&#39;5.7.8 authentication failed&#39;, &#39;Error: authentication failed&#39;}</text>
</g>
<!-- q4:0.0&#45;&gt;q7:0.0 -->
<g id="edge19" class="edge">
<title>q4:0.0&#45;&gt;q7:0.0</title>
<path fill="none" stroke="black" d="M1701,-385.28C1818.7,-391.4 2160.4,-404.06 2440.1,-363.82 2444.7,-363.16 2449.4,-362.26 2454.2,-361.23"/>
<polygon fill="black" stroke="black" points="2454.72,-364.7 2463.63,-358.97 2453.09,-357.89 2454.72,-364.7"/>
<text text-anchor="middle" x="2079.3" y="-430.26" font-family="Times,serif" font-size="14.00">MAIL/250:1.0</text>
<text text-anchor="middle" x="2079.3" y="-413.01" font-family="Times,serif" font-size="14.00">a0 in {&#39;FROM:&lt;Az6161@sina.com&gt;&#39;, &#39;FROM:&lt;Az6161@126.com&gt;&#39;}</text>
<text text-anchor="middle" x="2079.3" y="-395.76" font-family="Times,serif" font-size="14.00">b0 in {&#39;Mail OK&#39;, &#39;ok&#39;}</text>
</g>
<!-- q5:0.0&#45;&gt;q7:0.0 -->
<g id="edge20" class="edge">
<title>q5:0.0&#45;&gt;q7:0.0</title>
<path fill="none" stroke="black" d="M1678.4,-266.58C1689.4,-274.95 1703.9,-284.24 1718.6,-288.82 1871.7,-336.57 2287.2,-259.64 2440.1,-308.07 2451.2,-311.59 2462.2,-317.84 2471.6,-324.36"/>
<polygon fill="black" stroke="black" points="2469.54,-327.18 2479.68,-330.25 2473.66,-321.53 2469.54,-327.18"/>
<text text-anchor="middle" x="2079.3" y="-347.26" font-family="Times,serif" font-size="14.00">MAIL/250:0.987</text>
<text text-anchor="middle" x="2079.3" y="-330.01" font-family="Times,serif" font-size="14.00">a0 in {&#39;FROM:&lt;Az6161@sina.com&gt;&#39;, &#39;FROM:&lt;Az6161@126.com&gt;&#39;}</text>
<text text-anchor="middle" x="2079.3" y="-312.76" font-family="Times,serif" font-size="14.00">b0 in {&#39;Mail OK&#39;, &#39;ok&#39;}</text>
</g>
<!-- q8:0.0 -->
<g id="node19" class="node">
<title>q8:0.0</title>
<ellipse fill="none" stroke="black" stroke-width="2" cx="2500.9" cy="-235.82" rx="42.79" ry="18"/>
<text text-anchor="middle" x="2500.9" y="-231.14" font-family="Times,serif" font-size="14.00">q8:0.0</text>
</g>
<!-- q5:0.0&#45;&gt;q8:0.0 -->
<g id="edge21" class="edge">
<title>q5:0.0&#45;&gt;q8:0.0</title>
<path fill="none" stroke="black" d="M1695.9,-240.65C1703.4,-239.16 1711.2,-237.85 1718.6,-237.07 1991,-208.13 2319.8,-224.07 2446.5,-232.09"/>
<polygon fill="black" stroke="black" points="2446.08,-235.57 2456.29,-232.72 2446.54,-228.58 2446.08,-235.57"/>
<text text-anchor="middle" x="2079.3" y="-276.26" font-family="Times,serif" font-size="14.00">MAIL/553:0.013</text>
<text text-anchor="middle" x="2079.3" y="-259.01" font-family="Times,serif" font-size="14.00">a0 in {&#39;FROM:&lt;Az_6161@126.com&gt;&#39;, &#39;FROM:&lt;Az_6161@sina.com&gt;&#39;, &#39;FROM:&lt;Az6161@163.com&gt;&#39;}</text>
<text text-anchor="middle" x="2079.3" y="-241.76" font-family="Times,serif" font-size="14.00">b0 in {&#39;Mail from must equal authorized user&#39;, &#39;Envolope sender mismatch with login user..&#39;}</text>
</g>
<!-- q6:0.0&#45;&gt;q9:0.0 -->
<g id="edge22" class="edge">
<title>q6:0.0&#45;&gt;q9:0.0</title>
<path fill="none" stroke="black" d="M1701.2,-179.83C1707.1,-179.62 1713,-179.44 1718.6,-179.31 1992.1,-173.34 2319.6,-175.85 2446.2,-177.18"/>
<polygon fill="black" stroke="black" points="2445.95,-180.68 2455.99,-177.29 2446.02,-173.68 2445.95,-180.68"/>
<text text-anchor="middle" x="2079.3" y="-201.02" font-family="Times,serif" font-size="14.00">AUTH/334:1.0</text>
<text text-anchor="middle" x="2079.3" y="-183.77" font-family="Times,serif" font-size="14.00">b0 = UGFzc3dvcmQ6</text>
</g>
<!-- q12:1.0 -->
<g id="node20" class="node">
<title>q12:1.0</title>
<ellipse fill="none" stroke="black" stroke-width="2" cx="3127.4" cy="-235.82" rx="49.1" ry="18"/>
<text text-anchor="middle" x="3127.4" y="-231.14" font-family="Times,serif" font-size="14.00">q12:1.0</text>
</g>
<!-- q8:0.0&#45;&gt;q12:1.0 -->
<g id="edge23" class="edge">
<title>q8:0.0&#45;&gt;q12:1.0</title>
<path fill="none" stroke="black" d="M2544.3,-235.82C2652.8,-235.82 2940.5,-235.82 3066.2,-235.82"/>
<polygon fill="black" stroke="black" points="3065.99,-239.32 3075.99,-235.82 3065.99,-232.32 3065.99,-239.32"/>
<text text-anchor="middle" x="2804.7" y="-257.02" font-family="Times,serif" font-size="14.00">RSET/250:1.0</text>
<text text-anchor="middle" x="2804.7" y="-239.77" font-family="Times,serif" font-size="14.00">b0 in {&#39;flushed&#39;, &#39;OK&#39;}</text>
</g>
<!-- q0:0.0 -->
<g id="node21" class="node">
<title>q0:0.0</title>
<ellipse fill="none" stroke="black" stroke-width="2" cx="50.79" cy="-313.82" rx="46.79" ry="46.79"/>
<ellipse fill="none" stroke="black" stroke-width="2" cx="50.79" cy="-313.82" rx="50.79" ry="50.79"/>
<text text-anchor="middle" x="50.79" y="-309.14" font-family="Times,serif" font-size="14.00">q0:0.0</text>
</g>
<!-- q0:0.0&#45;&gt;q1:0.0 -->
<g id="edge24" class="edge">
<title>q0:0.0&#45;&gt;q1:0.0</title>
<path fill="none" stroke="black" d="M98.53,-313.82C125.82,-313.82 160.37,-313.82 188.82,-313.82"/>
<polygon fill="black" stroke="black" points="188.69,-317.32 198.69,-313.82 188.69,-310.32 188.69,-317.32"/>
<text text-anchor="middle" x="149.33" y="-317.76" font-family="Times,serif" font-size="14.00">λ/220:1.0</text>
</g>
</g>
</svg>
