<?xml version="1.0" encoding="UTF-8" standalone="no"?>
<!DOCTYPE svg PUBLIC "-//W3C//DTD SVG 1.1//EN"
 "http://www.w3.org/Graphics/SVG/1.1/DTD/svg11.dtd">
<!-- Generated by graphviz version 12.0.0 (20240803.0821)
 -->
<!-- Pages: 1 -->
<svg width="2284pt" height="353pt"
 viewBox="0.00 0.00 2284.30 352.92" xmlns="http://www.w3.org/2000/svg" xmlns:xlink="http://www.w3.org/1999/xlink">
<g id="graph0" class="graph" transform="scale(1 1) rotate(0) translate(4 348.92)">
<polygon fill="white" stroke="none" points="-4,4 -4,-348.92 2280.3,-348.92 2280.3,4 -4,4"/>
<!-- q10:0.75 -->
<g id="node1" class="node">
<title>q10:0.75</title>
<ellipse fill="none" stroke="black" stroke-width="2" cx="1208.6" cy="-64.92" rx="55.42" ry="18"/>
<text text-anchor="middle" x="1208.6" y="-60.24" font-family="Times,serif" font-size="14.00">q10:0.75</text>
</g>
<!-- q13:1.0 -->
<g id="node2" class="node">
<title>q13:1.0</title>
<ellipse fill="none" stroke="black" stroke-width="2" cx="1465.3" cy="-54.92" rx="49.1" ry="18"/>
<text text-anchor="middle" x="1465.3" y="-50.24" font-family="Times,serif" font-size="14.00">q13:1.0</text>
</g>
<!-- q10:0.75&#45;&gt;q13:1.0 -->
<g id="edge1" class="edge">
<title>q10:0.75&#45;&gt;q13:1.0</title>
<path fill="none" stroke="black" d="M1264.5,-62.76C1305.7,-61.14 1361.9,-58.94 1404.2,-57.28"/>
<polygon fill="black" stroke="black" points="1404.13,-60.78 1413.99,-56.89 1403.86,-53.79 1404.13,-60.78"/>
<text text-anchor="middle" x="1340.1" y="-66.87" font-family="Times,serif" font-size="14.00">λ/451:0.25</text>
</g>
<!-- q18:0.0 -->
<g id="node3" class="node">
<title>q18:0.0</title>
<ellipse fill="none" stroke="black" stroke-width="2" cx="1730" cy="-237.92" rx="49.1" ry="18"/>
<text text-anchor="middle" x="1730" y="-233.24" font-family="Times,serif" font-size="14.00">q18:0.0</text>
</g>
<!-- q18:0.0&#45;&gt;q18:0.0 -->
<g id="edge2" class="edge">
<title>q18:0.0&#45;&gt;q18:0.0</title>
<path fill="none" stroke="black" d="M1706.8,-254.58C1701.6,-264.54 1709.4,-273.92 1730,-273.92 1742.3,-273.92 1750,-270.61 1753.2,-265.84"/>
<polygon fill="black" stroke="black" points="1756.7,-266.12 1753.29,-256.09 1749.7,-266.06 1756.7,-266.12"/>
<text text-anchor="middle" x="1730" y="-277.86" font-family="Times,serif" font-size="14.00">content/λ:0.961</text>
</g>
<!-- q24:0.0 -->
<g id="node4" class="node">
<title>q24:0.0</title>
<ellipse fill="none" stroke="black" stroke-width="2" cx="1994.8" cy="-291.92" rx="49.1" ry="18"/>
<text text-anchor="middle" x="1994.8" y="-287.24" font-family="Times,serif" font-size="14.00">q24:0.0</text>
</g>
<!-- q18:0.0&#45;&gt;q24:0.0 -->
<g id="edge3" class="edge">
<title>q18:0.0&#45;&gt;q24:0.0</title>
<path fill="none" stroke="black" d="M1767.5,-250.51C1777.1,-253.54 1787.4,-256.57 1797.2,-258.92 1843.4,-270.09 1896.6,-278.77 1936.1,-284.43"/>
<polygon fill="black" stroke="black" points="1935.41,-287.86 1945.8,-285.79 1936.39,-280.93 1935.41,-287.86"/>
<text text-anchor="middle" x="1862.4" y="-285.86" font-family="Times,serif" font-size="14.00">content/550:0.0</text>
</g>
<!-- q22:0.0 -->
<g id="node5" class="node">
<title>q22:0.0</title>
<ellipse fill="none" stroke="black" stroke-width="2" cx="1994.8" cy="-237.92" rx="49.1" ry="18"/>
<text text-anchor="middle" x="1994.8" y="-233.24" font-family="Times,serif" font-size="14.00">q22:0.0</text>
</g>
<!-- q18:0.0&#45;&gt;q22:0.0 -->
<g id="edge4" class="edge">
<title>q18:0.0&#45;&gt;q22:0.0</title>
<path fill="none" stroke="black" d="M1779.8,-237.92C1823.2,-237.92 1886.8,-237.92 1933.3,-237.92"/>
<polygon fill="black" stroke="black" points="1933.29,-241.42 1943.29,-237.92 1933.29,-234.42 1933.29,-241.42"/>
<text text-anchor="middle" x="1862.4" y="-241.86" font-family="Times,serif" font-size="14.00">content/554:0.003</text>
</g>
<!-- q23:0.0 -->
<g id="node6" class="node">
<title>q23:0.0</title>
<ellipse fill="none" stroke="black" stroke-width="2" cx="1994.8" cy="-183.92" rx="49.1" ry="18"/>
<text text-anchor="middle" x="1994.8" y="-179.24" font-family="Times,serif" font-size="14.00">q23:0.0</text>
</g>
<!-- q18:0.0&#45;&gt;q23:0.0 -->
<g id="edge5" class="edge">
<title>q18:0.0&#45;&gt;q23:0.0</title>
<path fill="none" stroke="black" d="M1767.1,-225.27C1776.8,-222.17 1787.3,-219.06 1797.2,-216.67 1843.4,-205.46 1896.6,-196.84 1936,-191.27"/>
<polygon fill="black" stroke="black" points="1936.37,-194.75 1945.8,-189.91 1935.42,-187.81 1936.37,-194.75"/>
<text text-anchor="middle" x="1862.4" y="-219.86" font-family="Times,serif" font-size="14.00">content/250:0.035</text>
</g>
<!-- q30:1.0 -->
<g id="node7" class="node">
<title>q30:1.0</title>
<ellipse fill="none" stroke="black" stroke-width="2" cx="2227.2" cy="-291.92" rx="49.1" ry="18"/>
<text text-anchor="middle" x="2227.2" y="-287.24" font-family="Times,serif" font-size="14.00">q30:1.0</text>
</g>
<!-- q24:0.0&#45;&gt;q30:1.0 -->
<g id="edge6" class="edge">
<title>q24:0.0&#45;&gt;q30:1.0</title>
<path fill="none" stroke="black" d="M2044.6,-291.92C2080.1,-291.92 2128.2,-291.92 2166,-291.92"/>
<polygon fill="black" stroke="black" points="2165.89,-295.42 2175.89,-291.92 2165.89,-288.42 2165.89,-295.42"/>
<text text-anchor="middle" x="2111" y="-295.86" font-family="Times,serif" font-size="14.00">RSET/250:1.0</text>
</g>
<!-- q28:1.0 -->
<g id="node8" class="node">
<title>q28:1.0</title>
<ellipse fill="none" stroke="black" stroke-width="2" cx="2227.2" cy="-237.92" rx="49.1" ry="18"/>
<text text-anchor="middle" x="2227.2" y="-233.24" font-family="Times,serif" font-size="14.00">q28:1.0</text>
</g>
<!-- q22:0.0&#45;&gt;q28:1.0 -->
<g id="edge7" class="edge">
<title>q22:0.0&#45;&gt;q28:1.0</title>
<path fill="none" stroke="black" d="M2044.6,-237.92C2080.1,-237.92 2128.2,-237.92 2166,-237.92"/>
<polygon fill="black" stroke="black" points="2165.89,-241.42 2175.89,-237.92 2165.89,-234.42 2165.89,-241.42"/>
<text text-anchor="middle" x="2111" y="-241.86" font-family="Times,serif" font-size="14.00">RSET/250:1.0</text>
</g>
<!-- q29:1.0 -->
<g id="node9" class="node">
<title>q29:1.0</title>
<ellipse fill="none" stroke="black" stroke-width="2" cx="2227.2" cy="-183.92" rx="49.1" ry="18"/>
<text text-anchor="middle" x="2227.2" y="-179.24" font-family="Times,serif" font-size="14.00">q29:1.0</text>
</g>
<!-- q23:0.0&#45;&gt;q29:1.0 -->
<g id="edge8" class="edge">
<title>q23:0.0&#45;&gt;q29:1.0</title>
<path fill="none" stroke="black" d="M2044.6,-183.92C2080.1,-183.92 2128.2,-183.92 2166,-183.92"/>
<polygon fill="black" stroke="black" points="2165.89,-187.42 2175.89,-183.92 2165.89,-180.42 2165.89,-187.42"/>
<text text-anchor="middle" x="2111" y="-187.86" font-family="Times,serif" font-size="14.00">QUIT/221:1.0</text>
</g>
<!-- q14:0.0 -->
<g id="node10" class="node">
<title>q14:0.0</title>
<ellipse fill="none" stroke="black" stroke-width="2" cx="1465.3" cy="-210.92" rx="49.1" ry="18"/>
<text text-anchor="middle" x="1465.3" y="-206.24" font-family="Times,serif" font-size="14.00">q14:0.0</text>
</g>
<!-- q14:0.0&#45;&gt;q18:0.0 -->
<g id="edge9" class="edge">
<title>q14:0.0&#45;&gt;q18:0.0</title>
<path fill="none" stroke="black" d="M1513.6,-215.78C1557.6,-220.29 1623.2,-227.04 1670.4,-231.89"/>
<polygon fill="black" stroke="black" points="1669.89,-235.35 1680.19,-232.9 1670.61,-228.39 1669.89,-235.35"/>
<text text-anchor="middle" x="1597.7" y="-233.86" font-family="Times,serif" font-size="14.00">DATA/354:0.683</text>
</g>
<!-- q17:1.0 -->
<g id="node11" class="node">
<title>q17:1.0</title>
<ellipse fill="none" stroke="black" stroke-width="2" cx="1730" cy="-183.92" rx="49.1" ry="18"/>
<text text-anchor="middle" x="1730" y="-179.24" font-family="Times,serif" font-size="14.00">q17:1.0</text>
</g>
<!-- q14:0.0&#45;&gt;q17:1.0 -->
<g id="edge10" class="edge">
<title>q14:0.0&#45;&gt;q17:1.0</title>
<path fill="none" stroke="black" d="M1507.8,-201.01C1515.9,-199.34 1524.4,-197.79 1532.4,-196.67 1578,-190.32 1629.9,-187.12 1668.9,-185.52"/>
<polygon fill="black" stroke="black" points="1669.03,-189.01 1678.89,-185.13 1668.76,-182.02 1669.03,-189.01"/>
<text text-anchor="middle" x="1597.7" y="-199.86" font-family="Times,serif" font-size="14.00">DATA/550:0.303</text>
</g>
<!-- q16:0.0 -->
<g id="node12" class="node">
<title>q16:0.0</title>
<ellipse fill="none" stroke="black" stroke-width="2" cx="1730" cy="-326.92" rx="49.1" ry="18"/>
<text text-anchor="middle" x="1730" y="-322.24" font-family="Times,serif" font-size="14.00">q16:0.0</text>
</g>
<!-- q14:0.0&#45;&gt;q16:0.0 -->
<g id="edge11" class="edge">
<title>q14:0.0&#45;&gt;q16:0.0</title>
<path fill="none" stroke="black" d="M1490,-227.28C1502.3,-235.21 1517.7,-244.41 1532.4,-250.92 1587.8,-275.39 1607.3,-265.93 1662.9,-289.67 1671.4,-293.28 1672.9,-295.39 1680.9,-299.92 1684.3,-301.84 1687.9,-303.83 1691.4,-305.83"/>
<polygon fill="black" stroke="black" points="1689.55,-308.8 1699.98,-310.65 1692.97,-302.7 1689.55,-308.8"/>
<text text-anchor="middle" x="1597.7" y="-292.86" font-family="Times,serif" font-size="14.00">RCPT/250:0.014</text>
</g>
<!-- q9:0.0 -->
<g id="node13" class="node">
<title>q9:0.0</title>
<ellipse fill="none" stroke="black" stroke-width="2" cx="961.86" cy="-207.92" rx="42.79" ry="18"/>
<text text-anchor="middle" x="961.86" y="-203.24" font-family="Times,serif" font-size="14.00">q9:0.0</text>
</g>
<!-- q16:0.0&#45;&gt;q9:0.0 -->
<g id="edge12" class="edge">
<title>q16:0.0&#45;&gt;q9:0.0</title>
<path fill="none" stroke="black" d="M1681.3,-322.74C1641.4,-319.09 1583.2,-313.37 1532.4,-306.92 1305.1,-277.98 1245,-284.47 1022.7,-228.92 1017.1,-227.52 1011.2,-225.82 1005.5,-223.99"/>
<polygon fill="black" stroke="black" points="1006.83,-220.74 996.23,-220.85 1004.58,-227.37 1006.83,-220.74"/>
<text text-anchor="middle" x="1340.1" y="-294.86" font-family="Times,serif" font-size="14.00">RCPT/250:1.0</text>
</g>
<!-- q12:0.0 -->
<g id="node14" class="node">
<title>q12:0.0</title>
<ellipse fill="none" stroke="black" stroke-width="2" cx="1208.6" cy="-207.92" rx="49.1" ry="18"/>
<text text-anchor="middle" x="1208.6" y="-203.24" font-family="Times,serif" font-size="14.00">q12:0.0</text>
</g>
<!-- q9:0.0&#45;&gt;q12:0.0 -->
<g id="edge13" class="edge">
<title>q9:0.0&#45;&gt;q12:0.0</title>
<path fill="none" stroke="black" d="M1005.5,-207.92C1044.7,-207.92 1103.3,-207.92 1147.3,-207.92"/>
<polygon fill="black" stroke="black" points="1147.19,-211.42 1157.19,-207.92 1147.19,-204.42 1147.19,-211.42"/>
<text text-anchor="middle" x="1078.9" y="-211.86" font-family="Times,serif" font-size="14.00">RCPT/250:1.0</text>
</g>
<!-- q12:0.0&#45;&gt;q14:0.0 -->
<g id="edge22" class="edge">
<title>q12:0.0&#45;&gt;q14:0.0</title>
<path fill="none" stroke="black" d="M1258.4,-208.49C1300,-208.98 1359.9,-209.69 1404.4,-210.21"/>
<polygon fill="black" stroke="black" points="1404.14,-213.7 1414.19,-210.33 1404.23,-206.7 1404.14,-213.7"/>
<text text-anchor="middle" x="1340.1" y="-213.86" font-family="Times,serif" font-size="14.00">RCPT/250:0.612</text>
</g>
<!-- q15:0.0 -->
<g id="node15" class="node">
<title>q15:0.0</title>
<ellipse fill="none" stroke="black" stroke-width="2" cx="1465.3" cy="-108.92" rx="49.1" ry="18"/>
<text text-anchor="middle" x="1465.3" y="-104.24" font-family="Times,serif" font-size="14.00">q15:0.0</text>
</g>
<!-- q12:0.0&#45;&gt;q15:0.0 -->
<g id="edge23" class="edge">
<title>q12:0.0&#45;&gt;q15:0.0</title>
<path fill="none" stroke="black" d="M1243.9,-194.57C1289.4,-176.92 1369.5,-145.78 1419.6,-126.31"/>
<polygon fill="black" stroke="black" points="1420.64,-129.66 1428.69,-122.77 1418.1,-123.13 1420.64,-129.66"/>
<text text-anchor="middle" x="1340.1" y="-181.86" font-family="Times,serif" font-size="14.00">DATA/354:0.388</text>
</g>
<!-- q20:0.0 -->
<g id="node16" class="node">
<title>q20:0.0</title>
<ellipse fill="none" stroke="black" stroke-width="2" cx="1730" cy="-129.92" rx="49.1" ry="18"/>
<text text-anchor="middle" x="1730" y="-125.24" font-family="Times,serif" font-size="14.00">q20:0.0</text>
</g>
<!-- q15:0.0&#45;&gt;q20:0.0 -->
<g id="edge14" class="edge">
<title>q15:0.0&#45;&gt;q20:0.0</title>
<path fill="none" stroke="black" d="M1508.9,-118.28C1516.7,-119.71 1524.8,-121.02 1532.4,-121.92 1577.9,-127.28 1629.6,-129.22 1668.6,-129.85"/>
<polygon fill="black" stroke="black" points="1668.44,-133.34 1678.49,-129.98 1668.54,-126.34 1668.44,-133.34"/>
<text text-anchor="middle" x="1597.7" y="-132.86" font-family="Times,serif" font-size="14.00">content/250:0.175</text>
</g>
<!-- q19:0.0 -->
<g id="node17" class="node">
<title>q19:0.0</title>
<ellipse fill="none" stroke="black" stroke-width="2" cx="1730" cy="-75.92" rx="49.1" ry="18"/>
<text text-anchor="middle" x="1730" y="-71.24" font-family="Times,serif" font-size="14.00">q19:0.0</text>
</g>
<!-- q15:0.0&#45;&gt;q19:0.0 -->
<g id="edge15" class="edge">
<title>q15:0.0&#45;&gt;q19:0.0</title>
<path fill="none" stroke="black" d="M1512.7,-103.09C1556.9,-97.54 1623.7,-89.15 1671.3,-83.17"/>
<polygon fill="black" stroke="black" points="1671.71,-86.64 1681.2,-81.93 1670.84,-79.7 1671.71,-86.64"/>
<text text-anchor="middle" x="1597.7" y="-104.86" font-family="Times,serif" font-size="14.00">content/λ:0.302</text>
</g>
<!-- q21:0.0 -->
<g id="node18" class="node">
<title>q21:0.0</title>
<ellipse fill="none" stroke="black" stroke-width="2" cx="1730" cy="-21.92" rx="49.1" ry="18"/>
<text text-anchor="middle" x="1730" y="-17.24" font-family="Times,serif" font-size="14.00">q21:0.0</text>
</g>
<!-- q15:0.0&#45;&gt;q21:0.0 -->
<g id="edge16" class="edge">
<title>q15:0.0&#45;&gt;q21:0.0</title>
<path fill="none" stroke="black" d="M1498.8,-95C1504.6,-91.4 1510.1,-87.05 1514.4,-81.92 1530,-63.43 1513.1,-45.06 1532.4,-30.67 1573.7,0 1634.5,-2.38 1677.5,-9.54"/>
<polygon fill="black" stroke="black" points="1676.65,-12.94 1687.11,-11.28 1677.9,-6.05 1676.65,-12.94"/>
<text text-anchor="middle" x="1597.7" y="-34.87" font-family="Times,serif" font-size="14.00">content/554:0.524</text>
</g>
<!-- q26:1.0 -->
<g id="node19" class="node">
<title>q26:1.0</title>
<ellipse fill="none" stroke="black" stroke-width="2" cx="1994.8" cy="-129.92" rx="49.1" ry="18"/>
<text text-anchor="middle" x="1994.8" y="-125.24" font-family="Times,serif" font-size="14.00">q26:1.0</text>
</g>
<!-- q20:0.0&#45;&gt;q26:1.0 -->
<g id="edge17" class="edge">
<title>q20:0.0&#45;&gt;q26:1.0</title>
<path fill="none" stroke="black" d="M1779.8,-129.92C1823.2,-129.92 1886.8,-129.92 1933.3,-129.92"/>
<polygon fill="black" stroke="black" points="1933.29,-133.42 1943.29,-129.92 1933.29,-126.42 1933.29,-133.42"/>
<text text-anchor="middle" x="1862.4" y="-133.86" font-family="Times,serif" font-size="14.00">QUIT/221:1.0</text>
</g>
<!-- q19:0.0&#45;&gt;q15:0.0 -->
<g id="edge18" class="edge">
<title>q19:0.0&#45;&gt;q15:0.0</title>
<path fill="none" stroke="black" d="M1691.5,-64.02C1650.7,-53.21 1584.3,-41.96 1532.4,-63.67 1521.9,-68.06 1523.5,-75 1514.4,-81.92 1511.7,-84.03 1508.7,-86.08 1505.7,-88.06"/>
<polygon fill="black" stroke="black" points="1503.9,-85.05 1497.19,-93.26 1507.55,-91.03 1503.9,-85.05"/>
<text text-anchor="middle" x="1597.7" y="-67.87" font-family="Times,serif" font-size="14.00">content/λ:0.947</text>
</g>
<!-- q25:0.0 -->
<g id="node20" class="node">
<title>q25:0.0</title>
<ellipse fill="none" stroke="black" stroke-width="2" cx="1994.8" cy="-75.92" rx="49.1" ry="18"/>
<text text-anchor="middle" x="1994.8" y="-71.24" font-family="Times,serif" font-size="14.00">q25:0.0</text>
</g>
<!-- q19:0.0&#45;&gt;q25:0.0 -->
<g id="edge19" class="edge">
<title>q19:0.0&#45;&gt;q25:0.0</title>
<path fill="none" stroke="black" d="M1779.8,-75.92C1823.2,-75.92 1886.8,-75.92 1933.3,-75.92"/>
<polygon fill="black" stroke="black" points="1933.29,-79.42 1943.29,-75.92 1933.29,-72.42 1933.29,-79.42"/>
<text text-anchor="middle" x="1862.4" y="-79.87" font-family="Times,serif" font-size="14.00">content/250:0.053</text>
</g>
<!-- q27:1.0 -->
<g id="node21" class="node">
<title>q27:1.0</title>
<ellipse fill="none" stroke="black" stroke-width="2" cx="1994.8" cy="-21.92" rx="49.1" ry="18"/>
<text text-anchor="middle" x="1994.8" y="-17.24" font-family="Times,serif" font-size="14.00">q27:1.0</text>
</g>
<!-- q21:0.0&#45;&gt;q27:1.0 -->
<g id="edge20" class="edge">
<title>q21:0.0&#45;&gt;q27:1.0</title>
<path fill="none" stroke="black" d="M1779.8,-21.92C1823.2,-21.92 1886.8,-21.92 1933.3,-21.92"/>
<polygon fill="black" stroke="black" points="1933.29,-25.42 1943.29,-21.92 1933.29,-18.42 1933.29,-25.42"/>
<text text-anchor="middle" x="1862.4" y="-25.87" font-family="Times,serif" font-size="14.00">RSET/250:1.0</text>
</g>
<!-- q31:1.0 -->
<g id="node22" class="node">
<title>q31:1.0</title>
<ellipse fill="none" stroke="black" stroke-width="2" cx="2227.2" cy="-75.92" rx="49.1" ry="18"/>
<text text-anchor="middle" x="2227.2" y="-71.24" font-family="Times,serif" font-size="14.00">q31:1.0</text>
</g>
<!-- q25:0.0&#45;&gt;q31:1.0 -->
<g id="edge21" class="edge">
<title>q25:0.0&#45;&gt;q31:1.0</title>
<path fill="none" stroke="black" d="M2044.6,-75.92C2080.1,-75.92 2128.2,-75.92 2166,-75.92"/>
<polygon fill="black" stroke="black" points="2165.89,-79.42 2175.89,-75.92 2165.89,-72.42 2165.89,-79.42"/>
<text text-anchor="middle" x="2111" y="-79.87" font-family="Times,serif" font-size="14.00">QUIT/221:1.0</text>
</g>
<!-- q5:0.0 -->
<g id="node23" class="node">
<title>q5:0.0</title>
<ellipse fill="none" stroke="black" stroke-width="2" cx="725.53" cy="-181.92" rx="42.79" ry="18"/>
<text text-anchor="middle" x="725.53" y="-177.24" font-family="Times,serif" font-size="14.00">q5:0.0</text>
</g>
<!-- q5:0.0&#45;&gt;q9:0.0 -->
<g id="edge24" class="edge">
<title>q5:0.0&#45;&gt;q9:0.0</title>
<path fill="none" stroke="black" d="M767.89,-186.51C807,-190.85 865.87,-197.38 908.3,-202.09"/>
<polygon fill="black" stroke="black" points="907.7,-205.54 918.02,-203.16 908.47,-198.58 907.7,-205.54"/>
<text text-anchor="middle" x="843.7" y="-204.86" font-family="Times,serif" font-size="14.00">MAIL/250:0.991</text>
</g>
<!-- q8:0.0 -->
<g id="node24" class="node">
<title>q8:0.0</title>
<ellipse fill="none" stroke="black" stroke-width="2" cx="961.86" cy="-153.92" rx="42.79" ry="18"/>
<text text-anchor="middle" x="961.86" y="-149.24" font-family="Times,serif" font-size="14.00">q8:0.0</text>
</g>
<!-- q5:0.0&#45;&gt;q8:0.0 -->
<g id="edge25" class="edge">
<title>q5:0.0&#45;&gt;q8:0.0</title>
<path fill="none" stroke="black" d="M762.36,-171.69C770.2,-169.75 778.5,-167.94 786.32,-166.67 826.47,-160.14 872.35,-156.95 907,-155.4"/>
<polygon fill="black" stroke="black" points="906.93,-158.9 916.78,-154.99 906.64,-151.91 906.93,-158.9"/>
<text text-anchor="middle" x="843.7" y="-169.86" font-family="Times,serif" font-size="14.00">MAIL/553:0.009</text>
</g>
<!-- q11:1.0 -->
<g id="node25" class="node">
<title>q11:1.0</title>
<ellipse fill="none" stroke="black" stroke-width="2" cx="1208.6" cy="-153.92" rx="49.1" ry="18"/>
<text text-anchor="middle" x="1208.6" y="-149.24" font-family="Times,serif" font-size="14.00">q11:1.0</text>
</g>
<!-- q8:0.0&#45;&gt;q11:1.0 -->
<g id="edge26" class="edge">
<title>q8:0.0&#45;&gt;q11:1.0</title>
<path fill="none" stroke="black" d="M1005.5,-153.92C1044.7,-153.92 1103.3,-153.92 1147.3,-153.92"/>
<polygon fill="black" stroke="black" points="1147.19,-157.42 1157.19,-153.92 1147.19,-150.42 1147.19,-157.42"/>
<text text-anchor="middle" x="1078.9" y="-157.86" font-family="Times,serif" font-size="14.00">RSET/250:1.0</text>
</g>
<!-- q2:0.0 -->
<g id="node26" class="node">
<title>q2:0.0</title>
<ellipse fill="none" stroke="black" stroke-width="2" cx="484.7" cy="-124.92" rx="42.79" ry="18"/>
<text text-anchor="middle" x="484.7" y="-120.24" font-family="Times,serif" font-size="14.00">q2:0.0</text>
</g>
<!-- q2:0.0&#45;&gt;q5:0.0 -->
<g id="edge27" class="edge">
<title>q2:0.0&#45;&gt;q5:0.0</title>
<path fill="none" stroke="black" d="M516.37,-137.93C525.62,-141.52 535.86,-145.18 545.49,-147.92 587.64,-159.92 636.59,-168.89 672.64,-174.59"/>
<polygon fill="black" stroke="black" points="671.96,-178.02 682.37,-176.09 673.03,-171.1 671.96,-178.02"/>
<text text-anchor="middle" x="605.12" y="-176.86" font-family="Times,serif" font-size="14.00">AUTH/235:0.946</text>
</g>
<!-- q6:0.0 -->
<g id="node27" class="node">
<title>q6:0.0</title>
<ellipse fill="none" stroke="black" stroke-width="2" cx="725.53" cy="-127.92" rx="42.79" ry="18"/>
<text text-anchor="middle" x="725.53" y="-123.24" font-family="Times,serif" font-size="14.00">q6:0.0</text>
</g>
<!-- q2:0.0&#45;&gt;q6:0.0 -->
<g id="edge28" class="edge">
<title>q2:0.0&#45;&gt;q6:0.0</title>
<path fill="none" stroke="black" d="M528.4,-125.46C568.1,-125.95 627.41,-126.7 670.41,-127.24"/>
<polygon fill="black" stroke="black" points="670.24,-130.73 680.29,-127.36 670.33,-123.73 670.24,-130.73"/>
<text text-anchor="middle" x="605.12" y="-130.86" font-family="Times,serif" font-size="14.00">AUTH/λ:0.004</text>
</g>
<!-- q4:0.0 -->
<g id="node28" class="node">
<title>q4:0.0</title>
<ellipse fill="none" stroke="black" stroke-width="2" cx="725.53" cy="-73.92" rx="42.79" ry="18"/>
<text text-anchor="middle" x="725.53" y="-69.24" font-family="Times,serif" font-size="14.00">q4:0.0</text>
</g>
<!-- q2:0.0&#45;&gt;q4:0.0 -->
<g id="edge29" class="edge">
<title>q2:0.0&#45;&gt;q4:0.0</title>
<path fill="none" stroke="black" d="M517.34,-112.5C526.34,-109.29 536.21,-106.07 545.49,-103.67 587.47,-92.81 636.05,-85.03 672.01,-80.15"/>
<polygon fill="black" stroke="black" points="672.25,-83.65 681.71,-78.87 671.34,-76.71 672.25,-83.65"/>
<text text-anchor="middle" x="605.12" y="-107.86" font-family="Times,serif" font-size="14.00">AUTH/535:0.05</text>
</g>
<!-- q6:0.0&#45;&gt;q9:0.0 -->
<g id="edge30" class="edge">
<title>q6:0.0&#45;&gt;q9:0.0</title>
<path fill="none" stroke="black" d="M762.97,-118.28C801.09,-110.48 860.85,-104.96 901.07,-133.67 919.36,-146.72 904.93,-163.45 919.07,-180.92 920.66,-182.88 922.43,-184.75 924.33,-186.52"/>
<polygon fill="black" stroke="black" points="922.02,-189.15 932.01,-192.67 926.39,-183.69 922.02,-189.15"/>
<text text-anchor="middle" x="843.7" y="-136.86" font-family="Times,serif" font-size="14.00">MAIL/250:1.0</text>
</g>
<!-- q7:0.0 -->
<g id="node29" class="node">
<title>q7:0.0</title>
<ellipse fill="none" stroke="black" stroke-width="2" cx="961.86" cy="-73.92" rx="42.79" ry="18"/>
<text text-anchor="middle" x="961.86" y="-69.24" font-family="Times,serif" font-size="14.00">q7:0.0</text>
</g>
<!-- q4:0.0&#45;&gt;q7:0.0 -->
<g id="edge31" class="edge">
<title>q4:0.0&#45;&gt;q7:0.0</title>
<path fill="none" stroke="black" d="M769.24,-73.92C807.97,-73.92 865.24,-73.92 907.08,-73.92"/>
<polygon fill="black" stroke="black" points="906.94,-77.42 916.94,-73.92 906.94,-70.42 906.94,-77.42"/>
<text text-anchor="middle" x="843.7" y="-77.87" font-family="Times,serif" font-size="14.00">AUTH/334:1.0</text>
</g>
<!-- q7:0.0&#45;&gt;q10:0.75 -->
<g id="edge32" class="edge">
<title>q7:0.0&#45;&gt;q10:0.75</title>
<path fill="none" stroke="black" d="M1005.5,-72.35C1042.9,-70.97 1098.1,-68.94 1141.3,-67.35"/>
<polygon fill="black" stroke="black" points="1141.22,-70.86 1151.09,-66.99 1140.96,-63.86 1141.22,-70.86"/>
<text text-anchor="middle" x="1078.9" y="-75.87" font-family="Times,serif" font-size="14.00">content/535:1.0</text>
</g>
<!-- q0:0.0 -->
<g id="node30" class="node">
<title>q0:0.0</title>
<ellipse fill="none" stroke="black" stroke-width="2" cx="50.79" cy="-91.92" rx="46.79" ry="46.79"/>
<ellipse fill="none" stroke="black" stroke-width="2" cx="50.79" cy="-91.92" rx="50.79" ry="50.79"/>
<text text-anchor="middle" x="50.79" y="-87.24" font-family="Times,serif" font-size="14.00">q0:0.0</text>
</g>
<!-- q1:0.0 -->
<g id="node31" class="node">
<title>q1:0.0</title>
<ellipse fill="none" stroke="black" stroke-width="2" cx="243.87" cy="-91.92" rx="42.79" ry="18"/>
<text text-anchor="middle" x="243.87" y="-87.24" font-family="Times,serif" font-size="14.00">q1:0.0</text>
</g>
<!-- q0:0.0&#45;&gt;q1:0.0 -->
<g id="edge33" class="edge">
<title>q0:0.0&#45;&gt;q1:0.0</title>
<path fill="none" stroke="black" d="M98.53,-91.92C125.82,-91.92 160.37,-91.92 188.82,-91.92"/>
<polygon fill="black" stroke="black" points="188.69,-95.42 198.69,-91.92 188.69,-88.42 188.69,-95.42"/>
<text text-anchor="middle" x="149.33" y="-95.87" font-family="Times,serif" font-size="14.00">λ/220:1.0</text>
</g>
<!-- q1:0.0&#45;&gt;q2:0.0 -->
<g id="edge34" class="edge">
<title>q1:0.0&#45;&gt;q2:0.0</title>
<path fill="none" stroke="black" d="M285.66,-97.55C326.01,-103.13 387.94,-111.69 431.79,-117.75"/>
<polygon fill="black" stroke="black" points="431.19,-121.2 441.58,-119.1 432.15,-114.26 431.19,-121.2"/>
<text text-anchor="middle" x="364.29" y="-119.86" font-family="Times,serif" font-size="14.00">EHLO/250:0.992</text>
</g>
<!-- q3:0.0 -->
<g id="node32" class="node">
<title>q3:0.0</title>
<ellipse fill="none" stroke="black" stroke-width="2" cx="484.7" cy="-64.92" rx="42.79" ry="18"/>
<text text-anchor="middle" x="484.7" y="-60.24" font-family="Times,serif" font-size="14.00">q3:0.0</text>
</g>
<!-- q1:0.0&#45;&gt;q3:0.0 -->
<g id="edge35" class="edge">
<title>q1:0.0&#45;&gt;q3:0.0</title>
<path fill="none" stroke="black" d="M282.04,-82.83C289.49,-81.25 297.3,-79.76 304.66,-78.67 346.54,-72.45 394.37,-68.96 430.05,-67.05"/>
<polygon fill="black" stroke="black" points="429.87,-70.57 439.68,-66.56 429.51,-63.57 429.87,-70.57"/>
<text text-anchor="middle" x="364.29" y="-82.87" font-family="Times,serif" font-size="14.00">EHLO/λ:0.008</text>
</g>
<!-- q3:0.0&#45;&gt;q6:0.0 -->
<g id="edge36" class="edge">
<title>q3:0.0&#45;&gt;q6:0.0</title>
<path fill="none" stroke="black" d="M519.43,-53.59C557.88,-42.9 621.04,-32.34 664.74,-60.67 681.19,-71.33 669.99,-86.04 682.74,-100.92 684.56,-103.04 686.59,-105.06 688.74,-106.97"/>
<polygon fill="black" stroke="black" points="686.26,-109.47 696.31,-112.81 690.53,-103.93 686.26,-109.47"/>
<text text-anchor="middle" x="605.12" y="-64.87" font-family="Times,serif" font-size="14.00">AUTH/235:1.0</text>
</g>
</g>
</svg>
