<?xml version="1.0" encoding="UTF-8" standalone="no"?>
<!DOCTYPE svg PUBLIC "-//W3C//DTD SVG 1.1//EN"
 "http://www.w3.org/Graphics/SVG/1.1/DTD/svg11.dtd">
<!-- Generated by graphviz version 12.0.0 (20240803.0821)
 -->
<!-- Pages: 1 -->
<svg width="1947pt" height="193pt"
 viewBox="0.00 0.00 1947.39 193.00" xmlns="http://www.w3.org/2000/svg" xmlns:xlink="http://www.w3.org/1999/xlink">
<g id="graph0" class="graph" transform="scale(1 1) rotate(0) translate(4 189)">
<polygon fill="white" stroke="none" points="-4,4 -4,-189 1943.39,-189 1943.39,4 -4,4"/>
<!-- q13:&#45;1 -->
<g id="node1" class="node">
<title>q13:&#45;1</title>
<ellipse fill="none" stroke="black" stroke-width="2" cx="1460.6" cy="-45" rx="42.79" ry="18"/>
<text text-anchor="middle" x="1460.6" y="-40.33" font-family="Times,serif" font-size="14.00">q13:&#45;1</text>
</g>
<!-- q13:&#45;1&#45;&gt;q13:&#45;1 -->
<g id="edge1" class="edge">
<title>q13:&#45;1&#45;&gt;q13:&#45;1</title>
<path fill="none" stroke="black" d="M1442.1,-62.04C1438.3,-71.86 1444.5,-81 1460.6,-81 1470,-81 1476,-77.94 1478.7,-73.47"/>
<polygon fill="black" stroke="black" points="1482.19,-73.69 1479.14,-63.55 1475.2,-73.39 1482.19,-73.69"/>
<text text-anchor="middle" x="1460.6" y="-84.95" font-family="Times,serif" font-size="14.00">content/位:&#45;1</text>
</g>
<!-- q15:&#45;1 -->
<g id="node2" class="node">
<title>q15:&#45;1</title>
<ellipse fill="none" stroke="black" stroke-width="2" cx="1685.7" cy="-72" rx="42.79" ry="18"/>
<text text-anchor="middle" x="1685.7" y="-67.33" font-family="Times,serif" font-size="14.00">q15:&#45;1</text>
</g>
<!-- q13:&#45;1&#45;&gt;q15:&#45;1 -->
<g id="edge2" class="edge">
<title>q13:&#45;1&#45;&gt;q15:&#45;1</title>
<path fill="none" stroke="black" d="M1502.8,-49.98C1539.4,-54.41 1593,-60.89 1632.5,-65.68"/>
<polygon fill="black" stroke="black" points="1631.95,-69.14 1642.3,-66.86 1632.79,-62.19 1631.95,-69.14"/>
<text text-anchor="middle" x="1573.2" y="-68.95" font-family="Times,serif" font-size="14.00">content/250:&#45;1</text>
</g>
<!-- q16:&#45;1 -->
<g id="node3" class="node">
<title>q16:&#45;1</title>
<ellipse fill="none" stroke="black" stroke-width="2" cx="1685.7" cy="-18" rx="42.79" ry="18"/>
<text text-anchor="middle" x="1685.7" y="-13.32" font-family="Times,serif" font-size="14.00">q16:&#45;1</text>
</g>
<!-- q13:&#45;1&#45;&gt;q16:&#45;1 -->
<g id="edge3" class="edge">
<title>q13:&#45;1&#45;&gt;q16:&#45;1</title>
<path fill="none" stroke="black" d="M1498.8,-35.95C1506.3,-34.37 1514.1,-32.87 1521.4,-31.75 1557.8,-26.22 1599,-22.77 1630.9,-20.71"/>
<polygon fill="black" stroke="black" points="1630.93,-24.22 1640.69,-20.11 1630.49,-17.23 1630.93,-24.22"/>
<text text-anchor="middle" x="1573.2" y="-35.95" font-family="Times,serif" font-size="14.00">content/554:&#45;1</text>
</g>
<!-- q17:&#45;1 -->
<g id="node4" class="node">
<title>q17:&#45;1</title>
<ellipse fill="none" stroke="black" stroke-width="2" cx="1896.6" cy="-72" rx="42.79" ry="18"/>
<text text-anchor="middle" x="1896.6" y="-67.33" font-family="Times,serif" font-size="14.00">q17:&#45;1</text>
</g>
<!-- q15:&#45;1&#45;&gt;q17:&#45;1 -->
<g id="edge4" class="edge">
<title>q15:&#45;1&#45;&gt;q17:&#45;1</title>
<path fill="none" stroke="black" d="M1729.5,-72C1761.9,-72 1806.6,-72 1841.4,-72"/>
<polygon fill="black" stroke="black" points="1841.29,-75.5 1851.29,-72 1841.29,-68.5 1841.29,-75.5"/>
<text text-anchor="middle" x="1791.1" y="-75.95" font-family="Times,serif" font-size="14.00">QUIT/221:&#45;1</text>
</g>
<!-- q18:&#45;1 -->
<g id="node5" class="node">
<title>q18:&#45;1</title>
<ellipse fill="none" stroke="black" stroke-width="2" cx="1896.6" cy="-18" rx="42.79" ry="18"/>
<text text-anchor="middle" x="1896.6" y="-13.32" font-family="Times,serif" font-size="14.00">q18:&#45;1</text>
</g>
<!-- q16:&#45;1&#45;&gt;q18:&#45;1 -->
<g id="edge5" class="edge">
<title>q16:&#45;1&#45;&gt;q18:&#45;1</title>
<path fill="none" stroke="black" d="M1729.5,-18C1761.9,-18 1806.6,-18 1841.4,-18"/>
<polygon fill="black" stroke="black" points="1841.29,-21.5 1851.29,-18 1841.29,-14.5 1841.29,-21.5"/>
<text text-anchor="middle" x="1791.1" y="-21.95" font-family="Times,serif" font-size="14.00">RSET/250:&#45;1</text>
</g>
<!-- q11:&#45;1 -->
<g id="node6" class="node">
<title>q11:&#45;1</title>
<ellipse fill="none" stroke="black" stroke-width="2" cx="1038.3" cy="-167" rx="42.79" ry="18"/>
<text text-anchor="middle" x="1038.3" y="-162.32" font-family="Times,serif" font-size="14.00">q11:&#45;1</text>
</g>
<!-- q14:&#45;1 -->
<g id="node7" class="node">
<title>q14:&#45;1</title>
<ellipse fill="none" stroke="black" stroke-width="2" cx="1250.2" cy="-167" rx="42.79" ry="18"/>
<text text-anchor="middle" x="1250.2" y="-162.32" font-family="Times,serif" font-size="14.00">q14:&#45;1</text>
</g>
<!-- q11:&#45;1&#45;&gt;q14:&#45;1 -->
<g id="edge6" class="edge">
<title>q11:&#45;1&#45;&gt;q14:&#45;1</title>
<path fill="none" stroke="black" d="M1082,-167C1114.7,-167 1159.9,-167 1195,-167"/>
<polygon fill="black" stroke="black" points="1195.09,-170.5 1205.09,-167 1195.09,-163.5 1195.09,-170.5"/>
<text text-anchor="middle" x="1143.7" y="-170.94" font-family="Times,serif" font-size="14.00">位/451:&#45;1</text>
</g>
<!-- q3:&#45;1 -->
<g id="node8" class="node">
<title>q3:&#45;1</title>
<ellipse fill="none" stroke="black" stroke-width="2" cx="417.13" cy="-141" rx="36.48" ry="18"/>
<text text-anchor="middle" x="417.13" y="-136.32" font-family="Times,serif" font-size="14.00">q3:&#45;1</text>
</g>
<!-- q5:&#45;1 -->
<g id="node9" class="node">
<title>q5:&#45;1</title>
<ellipse fill="none" stroke="black" stroke-width="2" cx="618.34" cy="-167" rx="36.48" ry="18"/>
<text text-anchor="middle" x="618.34" y="-162.32" font-family="Times,serif" font-size="14.00">q5:&#45;1</text>
</g>
<!-- q3:&#45;1&#45;&gt;q5:&#45;1 -->
<g id="edge7" class="edge">
<title>q3:&#45;1&#45;&gt;q5:&#45;1</title>
<path fill="none" stroke="black" d="M453.29,-145.59C486.05,-149.86 535.1,-156.27 571.03,-160.96"/>
<polygon fill="black" stroke="black" points="570.33,-164.4 580.7,-162.22 571.23,-157.46 570.33,-164.4"/>
<text text-anchor="middle" x="517.74" y="-162.94" font-family="Times,serif" font-size="14.00">AUTH/535:&#45;1</text>
</g>
<!-- q4:&#45;1 -->
<g id="node10" class="node">
<title>q4:&#45;1</title>
<ellipse fill="none" stroke="black" stroke-width="2" cx="618.34" cy="-100" rx="36.48" ry="18"/>
<text text-anchor="middle" x="618.34" y="-95.33" font-family="Times,serif" font-size="14.00">q4:&#45;1</text>
</g>
<!-- q3:&#45;1&#45;&gt;q4:&#45;1 -->
<g id="edge8" class="edge">
<title>q3:&#45;1&#45;&gt;q4:&#45;1</title>
<path fill="none" stroke="black" d="M449.99,-132.07C457.08,-130.21 464.58,-128.33 471.61,-126.75 504.81,-119.29 542.61,-112.4 571.39,-107.48"/>
<polygon fill="black" stroke="black" points="571.96,-110.93 581.24,-105.81 570.8,-104.03 571.96,-110.93"/>
<text text-anchor="middle" x="517.74" y="-129.94" font-family="Times,serif" font-size="14.00">AUTH/235:&#45;1</text>
</g>
<!-- q8:&#45;1 -->
<g id="node11" class="node">
<title>q8:&#45;1</title>
<ellipse fill="none" stroke="black" stroke-width="2" cx="819.54" cy="-167" rx="36.48" ry="18"/>
<text text-anchor="middle" x="819.54" y="-162.32" font-family="Times,serif" font-size="14.00">q8:&#45;1</text>
</g>
<!-- q5:&#45;1&#45;&gt;q8:&#45;1 -->
<g id="edge9" class="edge">
<title>q5:&#45;1&#45;&gt;q8:&#45;1</title>
<path fill="none" stroke="black" d="M655.41,-167C687.89,-167 735.83,-167 771.34,-167"/>
<polygon fill="black" stroke="black" points="770.89,-170.5 780.89,-167 770.89,-163.5 770.89,-170.5"/>
<text text-anchor="middle" x="718.94" y="-170.94" font-family="Times,serif" font-size="14.00">AUTH/334:&#45;1</text>
</g>
<!-- q6:&#45;1 -->
<g id="node12" class="node">
<title>q6:&#45;1</title>
<ellipse fill="none" stroke="black" stroke-width="2" cx="819.54" cy="-110" rx="36.48" ry="18"/>
<text text-anchor="middle" x="819.54" y="-105.33" font-family="Times,serif" font-size="14.00">q6:&#45;1</text>
</g>
<!-- q4:&#45;1&#45;&gt;q6:&#45;1 -->
<g id="edge10" class="edge">
<title>q4:&#45;1&#45;&gt;q6:&#45;1</title>
<path fill="none" stroke="black" d="M655.41,-101.81C687.89,-103.44 735.83,-105.85 771.34,-107.63"/>
<polygon fill="black" stroke="black" points="770.73,-111.1 780.89,-108.11 771.08,-104.11 770.73,-111.1"/>
<text text-anchor="middle" x="718.94" y="-111.95" font-family="Times,serif" font-size="14.00">MAIL/553:&#45;1</text>
</g>
<!-- q7:&#45;1 -->
<g id="node13" class="node">
<title>q7:&#45;1</title>
<ellipse fill="none" stroke="black" stroke-width="2" cx="819.54" cy="-56" rx="36.48" ry="18"/>
<text text-anchor="middle" x="819.54" y="-51.33" font-family="Times,serif" font-size="14.00">q7:&#45;1</text>
</g>
<!-- q4:&#45;1&#45;&gt;q7:&#45;1 -->
<g id="edge11" class="edge">
<title>q4:&#45;1&#45;&gt;q7:&#45;1</title>
<path fill="none" stroke="black" d="M648.79,-89.04C656.54,-86.41 664.93,-83.78 672.82,-81.75 705.62,-73.31 743.28,-66.73 772.1,-62.34"/>
<polygon fill="black" stroke="black" points="772.61,-65.8 781.98,-60.87 771.58,-58.88 772.61,-65.8"/>
<text text-anchor="middle" x="718.94" y="-85.95" font-family="Times,serif" font-size="14.00">MAIL/250:&#45;1</text>
</g>
<!-- q8:&#45;1&#45;&gt;q11:&#45;1 -->
<g id="edge12" class="edge">
<title>q8:&#45;1&#45;&gt;q11:&#45;1</title>
<path fill="none" stroke="black" d="M856.82,-167C891.38,-167 943.83,-167 983.29,-167"/>
<polygon fill="black" stroke="black" points="983.06,-170.5 993.06,-167 983.06,-163.5 983.06,-170.5"/>
<text text-anchor="middle" x="925.77" y="-170.94" font-family="Times,serif" font-size="14.00">content/535:&#45;1</text>
</g>
<!-- q9:&#45;1 -->
<g id="node14" class="node">
<title>q9:&#45;1</title>
<ellipse fill="none" stroke="black" stroke-width="2" cx="1038.3" cy="-110" rx="36.48" ry="18"/>
<text text-anchor="middle" x="1038.3" y="-105.33" font-family="Times,serif" font-size="14.00">q9:&#45;1</text>
</g>
<!-- q6:&#45;1&#45;&gt;q9:&#45;1 -->
<g id="edge13" class="edge">
<title>q6:&#45;1&#45;&gt;q9:&#45;1</title>
<path fill="none" stroke="black" d="M856.82,-110C893.24,-110 949.54,-110 989.57,-110"/>
<polygon fill="black" stroke="black" points="989.4,-113.5 999.4,-110 989.4,-106.5 989.4,-113.5"/>
<text text-anchor="middle" x="925.77" y="-113.95" font-family="Times,serif" font-size="14.00">RSET/250:&#45;1</text>
</g>
<!-- q10:&#45;1 -->
<g id="node15" class="node">
<title>q10:&#45;1</title>
<ellipse fill="none" stroke="black" stroke-width="2" cx="1038.3" cy="-56" rx="42.79" ry="18"/>
<text text-anchor="middle" x="1038.3" y="-51.33" font-family="Times,serif" font-size="14.00">q10:&#45;1</text>
</g>
<!-- q7:&#45;1&#45;&gt;q10:&#45;1 -->
<g id="edge14" class="edge">
<title>q7:&#45;1&#45;&gt;q10:&#45;1</title>
<path fill="none" stroke="black" d="M856.82,-56C891.38,-56 943.83,-56 983.29,-56"/>
<polygon fill="black" stroke="black" points="983.06,-59.5 993.06,-56 983.06,-52.5 983.06,-59.5"/>
<text text-anchor="middle" x="925.77" y="-59.95" font-family="Times,serif" font-size="14.00">RCPT/250:&#45;1</text>
</g>
<!-- q10:&#45;1&#45;&gt;q13:&#45;1 -->
<g id="edge15" class="edge">
<title>q10:&#45;1&#45;&gt;q13:&#45;1</title>
<path fill="none" stroke="black" d="M1081.4,-59.29C1148.8,-63.87 1285.2,-70.32 1399.9,-58 1403.7,-57.58 1407.7,-57.02 1411.7,-56.36"/>
<polygon fill="black" stroke="black" points="1412.13,-59.84 1421.31,-54.57 1410.84,-52.96 1412.13,-59.84"/>
<text text-anchor="middle" x="1250.2" y="-69.95" font-family="Times,serif" font-size="14.00">DATA/354:&#45;1</text>
</g>
<!-- q12:&#45;1 -->
<g id="node16" class="node">
<title>q12:&#45;1</title>
<ellipse fill="none" stroke="black" stroke-width="2" cx="1250.2" cy="-18" rx="42.79" ry="18"/>
<text text-anchor="middle" x="1250.2" y="-13.32" font-family="Times,serif" font-size="14.00">q12:&#45;1</text>
</g>
<!-- q10:&#45;1&#45;&gt;q12:&#45;1 -->
<g id="edge16" class="edge">
<title>q10:&#45;1&#45;&gt;q12:&#45;1</title>
<path fill="none" stroke="black" d="M1075.5,-46.15C1083.3,-44.21 1091.4,-42.3 1099.1,-40.75 1131.5,-34.18 1168.2,-28.59 1197.1,-24.6"/>
<polygon fill="black" stroke="black" points="1197.36,-28.09 1206.8,-23.29 1196.42,-21.16 1197.36,-28.09"/>
<text text-anchor="middle" x="1143.7" y="-44.95" font-family="Times,serif" font-size="14.00">RCPT/250:&#45;1</text>
</g>
<!-- q12:&#45;1&#45;&gt;q13:&#45;1 -->
<g id="edge21" class="edge">
<title>q12:&#45;1&#45;&gt;q13:&#45;1</title>
<path fill="none" stroke="black" d="M1291.9,-23.27C1324.9,-27.55 1371.7,-33.61 1407.5,-38.25"/>
<polygon fill="black" stroke="black" points="1406.83,-41.69 1417.2,-39.5 1407.73,-34.75 1406.83,-41.69"/>
<text text-anchor="middle" x="1356" y="-41.95" font-family="Times,serif" font-size="14.00">DATA/354:&#45;1</text>
</g>
<!-- q0:&#45;1 -->
<g id="node17" class="node">
<title>q0:&#45;1</title>
<ellipse fill="none" stroke="black" stroke-width="2" cx="44.48" cy="-114" rx="40.48" ry="40.48"/>
<ellipse fill="none" stroke="black" stroke-width="2" cx="44.48" cy="-114" rx="44.48" ry="44.48"/>
<text text-anchor="middle" x="44.48" y="-109.33" font-family="Times,serif" font-size="14.00">q0:&#45;1</text>
</g>
<!-- q1:&#45;1 -->
<g id="node18" class="node">
<title>q1:&#45;1</title>
<ellipse fill="none" stroke="black" stroke-width="2" cx="215.93" cy="-114" rx="36.48" ry="18"/>
<text text-anchor="middle" x="215.93" y="-109.33" font-family="Times,serif" font-size="14.00">q1:&#45;1</text>
</g>
<!-- q0:&#45;1&#45;&gt;q1:&#45;1 -->
<g id="edge17" class="edge">
<title>q0:&#45;1&#45;&gt;q1:&#45;1</title>
<path fill="none" stroke="black" d="M85.64,-114C110.08,-114 141.44,-114 167.15,-114"/>
<polygon fill="black" stroke="black" points="167.02,-117.5 177.02,-114 167.02,-110.5 167.02,-117.5"/>
<text text-anchor="middle" x="132.2" y="-117.95" font-family="Times,serif" font-size="14.00">位/220:&#45;1</text>
</g>
<!-- q1:&#45;1&#45;&gt;q3:&#45;1 -->
<g id="edge18" class="edge">
<title>q1:&#45;1&#45;&gt;q3:&#45;1</title>
<path fill="none" stroke="black" d="M252.09,-118.76C284.84,-123.2 333.89,-129.85 369.83,-134.72"/>
<polygon fill="black" stroke="black" points="369.12,-138.16 379.5,-136.04 370.06,-131.22 369.12,-138.16"/>
<text text-anchor="middle" x="316.53" y="-136.94" font-family="Times,serif" font-size="14.00">EHLO/250:&#45;1</text>
</g>
<!-- q2:&#45;1 -->
<g id="node19" class="node">
<title>q2:&#45;1</title>
<ellipse fill="none" stroke="black" stroke-width="2" cx="417.13" cy="-87" rx="36.48" ry="18"/>
<text text-anchor="middle" x="417.13" y="-82.33" font-family="Times,serif" font-size="14.00">q2:&#45;1</text>
</g>
<!-- q1:&#45;1&#45;&gt;q2:&#45;1 -->
<g id="edge19" class="edge">
<title>q1:&#45;1&#45;&gt;q2:&#45;1</title>
<path fill="none" stroke="black" d="M248.4,-104.65C255.58,-102.78 263.22,-101.01 270.41,-99.75 302.95,-94.04 340.04,-90.84 368.66,-89.07"/>
<polygon fill="black" stroke="black" points="368.69,-92.58 378.47,-88.51 368.29,-85.59 368.69,-92.58"/>
<text text-anchor="middle" x="316.53" y="-103.95" font-family="Times,serif" font-size="14.00">EHLO/位:&#45;1</text>
</g>
<!-- q2:&#45;1&#45;&gt;q4:&#45;1 -->
<g id="edge20" class="edge">
<title>q2:&#45;1&#45;&gt;q4:&#45;1</title>
<path fill="none" stroke="black" d="M454.2,-84.99C483.77,-83.87 526.67,-83.45 563.86,-87.75 567.1,-88.12 570.43,-88.62 573.76,-89.19"/>
<polygon fill="black" stroke="black" points="573.05,-92.62 583.54,-91.1 574.39,-85.75 573.05,-92.62"/>
<text text-anchor="middle" x="517.74" y="-91.95" font-family="Times,serif" font-size="14.00">AUTH/235:&#45;1</text>
</g>
</g>
</svg>
