<?xml version="1.0" encoding="UTF-8" standalone="no"?>
<!DOCTYPE svg PUBLIC "-//W3C//DTD SVG 1.1//EN"
 "http://www.w3.org/Graphics/SVG/1.1/DTD/svg11.dtd">
<!-- Generated by graphviz version 12.0.0 (20240803.0821)
 -->
<!-- Pages: 1 -->
<svg width="3708pt" height="469pt"
 viewBox="0.00 0.00 3708.00 469.27" xmlns="http://www.w3.org/2000/svg" xmlns:xlink="http://www.w3.org/1999/xlink">
<g id="graph0" class="graph" transform="scale(1 1) rotate(0) translate(4 465.27)">
<polygon fill="white" stroke="none" points="-4,4 -4,-465.27 3704,-465.27 3704,4 -4,4"/>
<!-- q15:0.0 -->
<g id="node1" class="node">
<title>q15:0.0</title>
<ellipse fill="none" stroke="black" stroke-width="2" cx="3418.5" cy="-152.37" rx="49.1" ry="18"/>
<text text-anchor="middle" x="3418.5" y="-147.7" font-family="Times,serif" font-size="14.00">q15:0.0</text>
</g>
<!-- q18:1.0 -->
<g id="node2" class="node">
<title>q18:1.0</title>
<ellipse fill="none" stroke="black" stroke-width="2" cx="3650.9" cy="-152.37" rx="49.1" ry="18"/>
<text text-anchor="middle" x="3650.9" y="-147.7" font-family="Times,serif" font-size="14.00">q18:1.0</text>
</g>
<!-- q15:0.0&#45;&gt;q18:1.0 -->
<g id="edge1" class="edge">
<title>q15:0.0&#45;&gt;q18:1.0</title>
<path fill="none" stroke="black" d="M3468.3,-152.37C3503.8,-152.37 3551.9,-152.37 3589.7,-152.37"/>
<polygon fill="black" stroke="black" points="3589.59,-155.87 3599.59,-152.37 3589.59,-148.87 3589.59,-155.87"/>
<text text-anchor="middle" x="3534.7" y="-173.57" font-family="Times,serif" font-size="14.00">RSET/250:1.0</text>
<text text-anchor="middle" x="3534.7" y="-156.32" font-family="Times,serif" font-size="14.00">b0 = OK</text>
</g>
<!-- q11:0.0 -->
<g id="node3" class="node">
<title>q11:0.0</title>
<ellipse fill="none" stroke="black" stroke-width="2" cx="3059.3" cy="-98.38" rx="49.1" ry="18"/>
<text text-anchor="middle" x="3059.3" y="-93.7" font-family="Times,serif" font-size="14.00">q11:0.0</text>
</g>
<!-- q11:0.0&#45;&gt;q15:0.0 -->
<g id="edge2" class="edge">
<title>q11:0.0&#45;&gt;q15:0.0</title>
<path fill="none" stroke="black" d="M3095.9,-111.11C3105.7,-114.21 3116.4,-117.24 3126.4,-119.37 3205.3,-136.22 3298.2,-144.86 3357.5,-148.99"/>
<polygon fill="black" stroke="black" points="3357.07,-152.47 3367.29,-149.66 3357.55,-145.49 3357.07,-152.47"/>
<text text-anchor="middle" x="3238.9" y="-152.33" font-family="Times,serif" font-size="14.00">content/554:0.027</text>
</g>
<!-- q11:0.0&#45;&gt;q11:0.0 -->
<g id="edge3" class="edge">
<title>q11:0.0&#45;&gt;q11:0.0</title>
<path fill="none" stroke="black" d="M3029.2,-113.17C3019.4,-123.79 3029.4,-134.37 3059.3,-134.37 3078.4,-134.37 3089.3,-130.03 3092.2,-124.11"/>
<polygon fill="black" stroke="black" points="3095.63,-123.4 3089.69,-114.63 3088.86,-125.19 3095.63,-123.4"/>
<text text-anchor="middle" x="3059.3" y="-155.57" font-family="Times,serif" font-size="14.00">content/λ:0.93</text>
<text text-anchor="middle" x="3059.3" y="-138.32" font-family="Times,serif" font-size="14.00">a0 = b0</text>
</g>
<!-- q17:0.0 -->
<g id="node4" class="node">
<title>q17:0.0</title>
<ellipse fill="none" stroke="black" stroke-width="2" cx="3418.5" cy="-98.38" rx="49.1" ry="18"/>
<text text-anchor="middle" x="3418.5" y="-93.7" font-family="Times,serif" font-size="14.00">q17:0.0</text>
</g>
<!-- q11:0.0&#45;&gt;q17:0.0 -->
<g id="edge4" class="edge">
<title>q11:0.0&#45;&gt;q17:0.0</title>
<path fill="none" stroke="black" d="M3109.2,-98.38C3173.8,-98.38 3287.5,-98.38 3357.3,-98.38"/>
<polygon fill="black" stroke="black" points="3357.09,-101.88 3367.09,-98.38 3357.09,-94.88 3357.09,-101.88"/>
<text text-anchor="middle" x="3238.9" y="-102.33" font-family="Times,serif" font-size="14.00">content/250:0.042</text>
</g>
<!-- q16:0.0 -->
<g id="node5" class="node">
<title>q16:0.0</title>
<ellipse fill="none" stroke="black" stroke-width="2" cx="3418.5" cy="-40.38" rx="49.1" ry="18"/>
<text text-anchor="middle" x="3418.5" y="-35.7" font-family="Times,serif" font-size="14.00">q16:0.0</text>
</g>
<!-- q11:0.0&#45;&gt;q16:0.0 -->
<g id="edge5" class="edge">
<title>q11:0.0&#45;&gt;q16:0.0</title>
<path fill="none" stroke="black" d="M3085.2,-82.25C3100.1,-72.91 3117.9,-62.48 3126.4,-59.88 3203.8,-36.17 3298,-34.47 3357.9,-36.53"/>
<polygon fill="black" stroke="black" points="3357.76,-40.03 3367.89,-36.93 3358.03,-33.03 3357.76,-40.03"/>
<text text-anchor="middle" x="3238.9" y="-81.58" font-family="Times,serif" font-size="14.00">content/550:0.0</text>
<text text-anchor="middle" x="3238.9" y="-64.33" font-family="Times,serif" font-size="14.00">b0 = Sender frequency limited.</text>
</g>
<!-- q20:1.0 -->
<g id="node6" class="node">
<title>q20:1.0</title>
<ellipse fill="none" stroke="black" stroke-width="2" cx="3650.9" cy="-98.38" rx="49.1" ry="18"/>
<text text-anchor="middle" x="3650.9" y="-93.7" font-family="Times,serif" font-size="14.00">q20:1.0</text>
</g>
<!-- q17:0.0&#45;&gt;q20:1.0 -->
<g id="edge6" class="edge">
<title>q17:0.0&#45;&gt;q20:1.0</title>
<path fill="none" stroke="black" d="M3468.3,-98.38C3503.8,-98.38 3551.9,-98.38 3589.7,-98.38"/>
<polygon fill="black" stroke="black" points="3589.59,-101.88 3599.59,-98.38 3589.59,-94.88 3589.59,-101.88"/>
<text text-anchor="middle" x="3534.7" y="-102.33" font-family="Times,serif" font-size="14.00">QUIT/221:1.0</text>
</g>
<!-- q19:1.0 -->
<g id="node7" class="node">
<title>q19:1.0</title>
<ellipse fill="none" stroke="black" stroke-width="2" cx="3650.9" cy="-40.38" rx="49.1" ry="18"/>
<text text-anchor="middle" x="3650.9" y="-35.7" font-family="Times,serif" font-size="14.00">q19:1.0</text>
</g>
<!-- q16:0.0&#45;&gt;q19:1.0 -->
<g id="edge7" class="edge">
<title>q16:0.0&#45;&gt;q19:1.0</title>
<path fill="none" stroke="black" d="M3468.3,-40.38C3503.8,-40.38 3551.9,-40.38 3589.7,-40.38"/>
<polygon fill="black" stroke="black" points="3589.59,-43.88 3599.59,-40.38 3589.59,-36.88 3589.59,-43.88"/>
<text text-anchor="middle" x="3534.7" y="-61.58" font-family="Times,serif" font-size="14.00">RSET/250:1.0</text>
<text text-anchor="middle" x="3534.7" y="-44.33" font-family="Times,serif" font-size="14.00">a0 = b0</text>
</g>
<!-- q8:0.0 -->
<g id="node8" class="node">
<title>q8:0.0</title>
<ellipse fill="none" stroke="black" stroke-width="2" cx="2445.4" cy="-87.38" rx="42.79" ry="18"/>
<text text-anchor="middle" x="2445.4" y="-82.7" font-family="Times,serif" font-size="14.00">q8:0.0</text>
</g>
<!-- q8:0.0&#45;&gt;q11:0.0 -->
<g id="edge8" class="edge">
<title>q8:0.0&#45;&gt;q11:0.0</title>
<path fill="none" stroke="black" d="M2488.9,-88.14C2595.5,-90.06 2874.3,-95.07 2997.8,-97.29"/>
<polygon fill="black" stroke="black" points="2997.72,-100.79 3007.79,-97.47 2997.85,-93.79 2997.72,-100.79"/>
<text text-anchor="middle" x="2749.2" y="-118.58" font-family="Times,serif" font-size="14.00">DATA/354:0.308</text>
<text text-anchor="middle" x="2749.2" y="-101.33" font-family="Times,serif" font-size="14.00">b0 = End data with &lt;CR&gt;&lt;LF&gt;.&lt;CR&gt;&lt;LF&gt;</text>
</g>
<!-- q8:0.0&#45;&gt;q8:0.0 -->
<g id="edge9" class="edge">
<title>q8:0.0&#45;&gt;q8:0.0</title>
<path fill="none" stroke="black" d="M2406.9,-96.42C2372.9,-108.58 2385.7,-123.37 2445.4,-123.37 2497.8,-123.37 2514,-111.95 2494.1,-100.92"/>
<polygon fill="black" stroke="black" points="2495.75,-97.82 2485.19,-97.02 2492.95,-104.23 2495.75,-97.82"/>
<text text-anchor="middle" x="2445.4" y="-144.57" font-family="Times,serif" font-size="14.00">RCPT/250:0.622</text>
<text text-anchor="middle" x="2445.4" y="-127.32" font-family="Times,serif" font-size="14.00">b0 in {&#39;Mail OK&#39;, &#39;ok&#39;}</text>
</g>
<!-- q12:1.0 -->
<g id="node9" class="node">
<title>q12:1.0</title>
<ellipse fill="none" stroke="black" stroke-width="2" cx="3059.3" cy="-40.38" rx="49.1" ry="18"/>
<text text-anchor="middle" x="3059.3" y="-35.7" font-family="Times,serif" font-size="14.00">q12:1.0</text>
</g>
<!-- q8:0.0&#45;&gt;q12:1.0 -->
<g id="edge10" class="edge">
<title>q8:0.0&#45;&gt;q12:1.0</title>
<path fill="none" stroke="black" d="M2466.9,-71.06C2477.9,-63.37 2492,-54.99 2506.2,-50.88 2680.7,0 2899.7,-18.75 3001.5,-31.88"/>
<polygon fill="black" stroke="black" points="3000.82,-35.33 3011.2,-33.17 3001.75,-28.39 3000.82,-35.33"/>
<text text-anchor="middle" x="2749.2" y="-72.58" font-family="Times,serif" font-size="14.00">DATA/550:0.07</text>
<text text-anchor="middle" x="2749.2" y="-55.33" font-family="Times,serif" font-size="14.00">b0 in {&#39;Sender frequency limited.&#39;, &#39;too many message send today.&#39;}</text>
</g>
<!-- q1:0.0 -->
<g id="node10" class="node">
<title>q1:0.0</title>
<ellipse fill="none" stroke="black" stroke-width="2" cx="243.87" cy="-128.37" rx="42.79" ry="18"/>
<text text-anchor="middle" x="243.87" y="-123.7" font-family="Times,serif" font-size="14.00">q1:0.0</text>
</g>
<!-- q2:0.0 -->
<g id="node11" class="node">
<title>q2:0.0</title>
<ellipse fill="none" stroke="black" stroke-width="2" cx="484.7" cy="-178.37" rx="42.79" ry="18"/>
<text text-anchor="middle" x="484.7" y="-173.7" font-family="Times,serif" font-size="14.00">q2:0.0</text>
</g>
<!-- q1:0.0&#45;&gt;q2:0.0 -->
<g id="edge11" class="edge">
<title>q1:0.0&#45;&gt;q2:0.0</title>
<path fill="none" stroke="black" d="M283.24,-136.41C324.24,-144.99 389.37,-158.63 434.21,-168.01"/>
<polygon fill="black" stroke="black" points="433.43,-171.43 443.94,-170.05 434.87,-164.58 433.43,-171.43"/>
<text text-anchor="middle" x="364.29" y="-168.33" font-family="Times,serif" font-size="14.00">EHLO/250:0.992</text>
</g>
<!-- q3:0.0 -->
<g id="node12" class="node">
<title>q3:0.0</title>
<ellipse fill="none" stroke="black" stroke-width="2" cx="484.7" cy="-82.38" rx="42.79" ry="18"/>
<text text-anchor="middle" x="484.7" y="-77.7" font-family="Times,serif" font-size="14.00">q3:0.0</text>
</g>
<!-- q1:0.0&#45;&gt;q3:0.0 -->
<g id="edge12" class="edge">
<title>q1:0.0&#45;&gt;q3:0.0</title>
<path fill="none" stroke="black" d="M274.5,-115.05C283.97,-111.24 294.61,-107.44 304.66,-104.88 346.16,-94.29 394.39,-88.59 430.33,-85.58"/>
<polygon fill="black" stroke="black" points="430.35,-89.09 440.04,-84.82 429.8,-82.12 430.35,-89.09"/>
<text text-anchor="middle" x="364.29" y="-126.57" font-family="Times,serif" font-size="14.00">EHLO/λ:0.008</text>
<text text-anchor="middle" x="364.29" y="-109.32" font-family="Times,serif" font-size="14.00">a0 = [127.0.1.1]</text>
</g>
<!-- q6:0.0 -->
<g id="node13" class="node">
<title>q6:0.0</title>
<ellipse fill="none" stroke="black" stroke-width="2" cx="1657.8" cy="-207.37" rx="42.79" ry="18"/>
<text text-anchor="middle" x="1657.8" y="-202.7" font-family="Times,serif" font-size="14.00">q6:0.0</text>
</g>
<!-- q2:0.0&#45;&gt;q6:0.0 -->
<g id="edge13" class="edge">
<title>q2:0.0&#45;&gt;q6:0.0</title>
<path fill="none" stroke="black" d="M526.5,-183.68C532.85,-184.35 539.34,-184.95 545.49,-185.37 950.95,-213.06 1441.4,-210.08 1602.6,-208.15"/>
<polygon fill="black" stroke="black" points="1602.63,-211.65 1612.59,-208.03 1602.54,-204.65 1602.63,-211.65"/>
<text text-anchor="middle" x="1071.2" y="-246.83" font-family="Times,serif" font-size="14.00">AUTH/235:0.954</text>
<text text-anchor="middle" x="1071.2" y="-229.58" font-family="Times,serif" font-size="14.00">a0 in {&#39;PLAIN AEF6NjE2MUAxMjYuY29tAE1VUVNBT1NUWElURkpDVUU=&#39;, &#39;PLAIN AEF6NjE2MUBzaW5hLmNvbQA2ZmRiMjVjZmNjODYyZWZj&#39;}</text>
<text text-anchor="middle" x="1071.2" y="-212.33" font-family="Times,serif" font-size="14.00">b0 in {&#39;OK Authenticated&#39;, &#39;Authentication successful&#39;}</text>
</g>
<!-- q5:0.0 -->
<g id="node14" class="node">
<title>q5:0.0</title>
<ellipse fill="none" stroke="black" stroke-width="2" cx="1657.8" cy="-74.38" rx="42.79" ry="18"/>
<text text-anchor="middle" x="1657.8" y="-69.7" font-family="Times,serif" font-size="14.00">q5:0.0</text>
</g>
<!-- q2:0.0&#45;&gt;q5:0.0 -->
<g id="edge14" class="edge">
<title>q2:0.0&#45;&gt;q5:0.0</title>
<path fill="none" stroke="black" d="M509.09,-162.79C519.73,-156.58 532.77,-150.15 545.49,-146.87 658.66,-117.77 1488.1,-169.84 1597,-127.37 1611.6,-121.68 1624.9,-110.72 1635.3,-100.23"/>
<polygon fill="black" stroke="black" points="1637.64,-102.85 1641.87,-93.14 1632.51,-98.09 1637.64,-102.85"/>
<text text-anchor="middle" x="1071.2" y="-168.57" font-family="Times,serif" font-size="14.00">AUTH/λ:0.004</text>
<text text-anchor="middle" x="1071.2" y="-151.32" font-family="Times,serif" font-size="14.00">a0 = PLAIN AEF6NjE2MUAxMjYuY29tAE1VUVNBT1NUWElURkpDVUU=</text>
</g>
<!-- q4:0.0 -->
<g id="node15" class="node">
<title>q4:0.0</title>
<ellipse fill="none" stroke="black" stroke-width="2" cx="1657.8" cy="-288.37" rx="42.79" ry="18"/>
<text text-anchor="middle" x="1657.8" y="-283.7" font-family="Times,serif" font-size="14.00">q4:0.0</text>
</g>
<!-- q2:0.0&#45;&gt;q4:0.0 -->
<g id="edge15" class="edge">
<title>q2:0.0&#45;&gt;q4:0.0</title>
<path fill="none" stroke="black" d="M492.5,-196.75C501.23,-217.41 518.57,-249.93 545.49,-264.37 912.49,-461.27 1450.5,-343.24 1610.4,-301.34"/>
<polygon fill="black" stroke="black" points="1610.98,-304.81 1619.74,-298.85 1609.17,-298.05 1610.98,-304.81"/>
<text text-anchor="middle" x="1071.2" y="-395.57" font-family="Times,serif" font-size="14.00">AUTH/535:0.041</text>
<text text-anchor="middle" x="1071.2" y="-378.32" font-family="Times,serif" font-size="14.00">b0 in {&#39;5.7.8 authentication failed&#39;, &#39;Error: authentication failed&#39;}</text>
</g>
<!-- q3:0.0&#45;&gt;q5:0.0 -->
<g id="edge16" class="edge">
<title>q3:0.0&#45;&gt;q5:0.0</title>
<path fill="none" stroke="black" d="M526.5,-77.16C532.85,-76.52 539.34,-75.97 545.49,-75.63 951.4,-52.56 1442,-66.62 1602.9,-72.31"/>
<polygon fill="black" stroke="black" points="1602.67,-75.81 1612.79,-72.67 1602.92,-68.81 1602.67,-75.81"/>
<text text-anchor="middle" x="1071.2" y="-114.83" font-family="Times,serif" font-size="14.00">AUTH/235:1.0</text>
<text text-anchor="middle" x="1071.2" y="-97.58" font-family="Times,serif" font-size="14.00">a0 in {&#39;PLAIN AEF6NjE2MUAxMjYuY29tAE1VUVNBT1NUWElURkpDVUU=&#39;, &#39;PLAIN AEF6NjE2MUBzaW5hLmNvbQA2ZmRiMjVjZmNjODYyZWZj&#39;}</text>
<text text-anchor="middle" x="1071.2" y="-80.33" font-family="Times,serif" font-size="14.00">b0 in {&#39;OK Authenticated&#39;, &#39;Authentication successful&#39;}</text>
</g>
<!-- q6:0.0&#45;&gt;q8:0.0 -->
<g id="edge17" class="edge">
<title>q6:0.0&#45;&gt;q8:0.0</title>
<path fill="none" stroke="black" d="M1672.1,-189.53C1682.9,-176.45 1699.6,-159.63 1718.6,-151.62 1855.1,-94 2241.8,-158.88 2384.6,-119.37 2393.5,-116.9 2402.6,-112.92 2410.9,-108.6"/>
<polygon fill="black" stroke="black" points="2412.61,-111.65 2419.67,-103.75 2409.23,-105.52 2412.61,-111.65"/>
<text text-anchor="middle" x="2051.6" y="-190.83" font-family="Times,serif" font-size="14.00">MAIL/250:0.991</text>
<text text-anchor="middle" x="2051.6" y="-173.58" font-family="Times,serif" font-size="14.00">a0 in {&#39;FROM:&lt;Az6161@126.com&gt;&#39;, &#39;FROM:&lt;Az6161@sina.com&gt;&#39;}</text>
<text text-anchor="middle" x="2051.6" y="-156.33" font-family="Times,serif" font-size="14.00">b0 in {&#39;Mail OK&#39;, &#39;ok&#39;}</text>
</g>
<!-- q9:0.0 -->
<g id="node16" class="node">
<title>q9:0.0</title>
<ellipse fill="none" stroke="black" stroke-width="2" cx="2445.4" cy="-216.37" rx="42.79" ry="18"/>
<text text-anchor="middle" x="2445.4" y="-211.7" font-family="Times,serif" font-size="14.00">q9:0.0</text>
</g>
<!-- q6:0.0&#45;&gt;q9:0.0 -->
<g id="edge18" class="edge">
<title>q6:0.0&#45;&gt;q9:0.0</title>
<path fill="none" stroke="black" d="M1701.3,-207.86C1834.4,-209.38 2243.1,-214.07 2390.6,-215.76"/>
<polygon fill="black" stroke="black" points="2390.45,-219.26 2400.49,-215.88 2390.53,-212.26 2390.45,-219.26"/>
<text text-anchor="middle" x="2051.6" y="-253.83" font-family="Times,serif" font-size="14.00">MAIL/553:0.009</text>
<text text-anchor="middle" x="2051.6" y="-236.58" font-family="Times,serif" font-size="14.00">a0 in {&#39;FROM:&lt;Az_6161@sina.com&gt;&#39;, &#39;FROM:&lt;Az6161@163.com&gt;&#39;}</text>
<text text-anchor="middle" x="2051.6" y="-219.33" font-family="Times,serif" font-size="14.00">b0 in {&#39;Envolope sender mismatch with login user..&#39;, &#39;Mail from must equal authorized user&#39;}</text>
</g>
<!-- q5:0.0&#45;&gt;q8:0.0 -->
<g id="edge19" class="edge">
<title>q5:0.0&#45;&gt;q8:0.0</title>
<path fill="none" stroke="black" d="M1699.7,-69.22C1810.7,-56.25 2126.7,-26.14 2384.6,-67.63 2390.2,-68.54 2396.1,-69.9 2401.8,-71.5"/>
<polygon fill="black" stroke="black" points="2400.57,-74.78 2411.15,-74.35 2402.61,-68.08 2400.57,-74.78"/>
<text text-anchor="middle" x="2051.6" y="-106.83" font-family="Times,serif" font-size="14.00">MAIL/250:1.0</text>
<text text-anchor="middle" x="2051.6" y="-89.58" font-family="Times,serif" font-size="14.00">a0 in {&#39;FROM:&lt;Az6161@126.com&gt;&#39;, &#39;FROM:&lt;Az6161@sina.com&gt;&#39;}</text>
<text text-anchor="middle" x="2051.6" y="-72.33" font-family="Times,serif" font-size="14.00">b0 in {&#39;Mail OK&#39;, &#39;ok&#39;}</text>
</g>
<!-- q7:0.0 -->
<g id="node17" class="node">
<title>q7:0.0</title>
<ellipse fill="none" stroke="black" stroke-width="2" cx="2445.4" cy="-291.37" rx="42.79" ry="18"/>
<text text-anchor="middle" x="2445.4" y="-286.7" font-family="Times,serif" font-size="14.00">q7:0.0</text>
</g>
<!-- q4:0.0&#45;&gt;q7:0.0 -->
<g id="edge20" class="edge">
<title>q4:0.0&#45;&gt;q7:0.0</title>
<path fill="none" stroke="black" d="M1701.3,-288.54C1834.4,-289.04 2243.1,-290.6 2390.6,-291.17"/>
<polygon fill="black" stroke="black" points="2390.47,-294.67 2400.49,-291.21 2390.5,-287.67 2390.47,-294.67"/>
<text text-anchor="middle" x="2051.6" y="-311.57" font-family="Times,serif" font-size="14.00">AUTH/334:1.0</text>
<text text-anchor="middle" x="2051.6" y="-294.32" font-family="Times,serif" font-size="14.00">b0 = UGFzc3dvcmQ6</text>
</g>
<!-- q13:1.0 -->
<g id="node18" class="node">
<title>q13:1.0</title>
<ellipse fill="none" stroke="black" stroke-width="2" cx="3059.3" cy="-216.37" rx="49.1" ry="18"/>
<text text-anchor="middle" x="3059.3" y="-211.7" font-family="Times,serif" font-size="14.00">q13:1.0</text>
</g>
<!-- q9:0.0&#45;&gt;q13:1.0 -->
<g id="edge21" class="edge">
<title>q9:0.0&#45;&gt;q13:1.0</title>
<path fill="none" stroke="black" d="M2488.9,-216.37C2595.5,-216.37 2874.3,-216.37 2997.8,-216.37"/>
<polygon fill="black" stroke="black" points="2997.79,-219.87 3007.79,-216.37 2997.79,-212.87 2997.79,-219.87"/>
<text text-anchor="middle" x="2749.2" y="-237.57" font-family="Times,serif" font-size="14.00">RSET/250:1.0</text>
<text text-anchor="middle" x="2749.2" y="-220.32" font-family="Times,serif" font-size="14.00">b0 in {&#39;flushed&#39;, &#39;OK&#39;}</text>
</g>
<!-- q10:0.6 -->
<g id="node19" class="node">
<title>q10:0.6</title>
<ellipse fill="none" stroke="black" stroke-width="2" cx="3059.3" cy="-291.37" rx="49.1" ry="18"/>
<text text-anchor="middle" x="3059.3" y="-286.7" font-family="Times,serif" font-size="14.00">q10:0.6</text>
</g>
<!-- q7:0.0&#45;&gt;q10:0.6 -->
<g id="edge22" class="edge">
<title>q7:0.0&#45;&gt;q10:0.6</title>
<path fill="none" stroke="black" d="M2488.9,-291.37C2595.5,-291.37 2874.3,-291.37 2997.8,-291.37"/>
<polygon fill="black" stroke="black" points="2997.79,-294.87 3007.79,-291.37 2997.79,-287.87 2997.79,-294.87"/>
<text text-anchor="middle" x="2749.2" y="-312.57" font-family="Times,serif" font-size="14.00">content/535:1.0</text>
<text text-anchor="middle" x="2749.2" y="-295.32" font-family="Times,serif" font-size="14.00">b0 in {&#39;5.7.8 authentication failed&#39;, &#39;Error: authentication failed&#39;}</text>
</g>
<!-- q14:1.0 -->
<g id="node20" class="node">
<title>q14:1.0</title>
<ellipse fill="none" stroke="black" stroke-width="2" cx="3418.5" cy="-291.37" rx="49.1" ry="18"/>
<text text-anchor="middle" x="3418.5" y="-286.7" font-family="Times,serif" font-size="14.00">q14:1.0</text>
</g>
<!-- q10:0.6&#45;&gt;q14:1.0 -->
<g id="edge23" class="edge">
<title>q10:0.6&#45;&gt;q14:1.0</title>
<path fill="none" stroke="black" d="M3109.2,-291.37C3173.8,-291.37 3287.5,-291.37 3357.3,-291.37"/>
<polygon fill="black" stroke="black" points="3357.09,-294.87 3367.09,-291.37 3357.09,-287.87 3357.09,-294.87"/>
<text text-anchor="middle" x="3238.9" y="-312.57" font-family="Times,serif" font-size="14.00">λ/451:0.4</text>
<text text-anchor="middle" x="3238.9" y="-295.32" font-family="Times,serif" font-size="14.00">b0 = Timeout.</text>
</g>
<!-- q0:0.0 -->
<g id="node21" class="node">
<title>q0:0.0</title>
<ellipse fill="none" stroke="black" stroke-width="2" cx="50.79" cy="-128.37" rx="46.79" ry="46.79"/>
<ellipse fill="none" stroke="black" stroke-width="2" cx="50.79" cy="-128.37" rx="50.79" ry="50.79"/>
<text text-anchor="middle" x="50.79" y="-123.7" font-family="Times,serif" font-size="14.00">q0:0.0</text>
</g>
<!-- q0:0.0&#45;&gt;q1:0.0 -->
<g id="edge24" class="edge">
<title>q0:0.0&#45;&gt;q1:0.0</title>
<path fill="none" stroke="black" d="M98.53,-128.37C125.82,-128.37 160.37,-128.37 188.82,-128.37"/>
<polygon fill="black" stroke="black" points="188.69,-131.87 198.69,-128.37 188.69,-124.87 188.69,-131.87"/>
<text text-anchor="middle" x="149.33" y="-132.33" font-family="Times,serif" font-size="14.00">λ/220:1.0</text>
</g>
</g>
</svg>
