<?xml version="1.0" encoding="UTF-8" standalone="no"?>
<!DOCTYPE svg PUBLIC "-//W3C//DTD SVG 1.1//EN"
 "http://www.w3.org/Graphics/SVG/1.1/DTD/svg11.dtd">
<!-- Generated by graphviz version 12.0.0 (20240803.0821)
 -->
<!-- Pages: 1 -->
<svg width="2288pt" height="274pt"
 viewBox="0.00 0.00 2287.90 274.00" xmlns="http://www.w3.org/2000/svg" xmlns:xlink="http://www.w3.org/1999/xlink">
<g id="graph0" class="graph" transform="scale(1 1) rotate(0) translate(4 270)">
<polygon fill="white" stroke="none" points="-4,4 -4,-270 2283.9,-270 2283.9,4 -4,4"/>
<!-- q11:0.667 -->
<g id="node1" class="node">
<title>q11:0.667</title>
<ellipse fill="none" stroke="black" stroke-width="2" cx="1205.9" cy="-216" rx="61.73" ry="18"/>
<text text-anchor="middle" x="1205.9" y="-211.32" font-family="Times,serif" font-size="14.00">q11:0.667</text>
</g>
<!-- q14:1.0 -->
<g id="node2" class="node">
<title>q14:1.0</title>
<ellipse fill="none" stroke="black" stroke-width="2" cx="1469" cy="-216" rx="49.1" ry="18"/>
<text text-anchor="middle" x="1469" y="-211.32" font-family="Times,serif" font-size="14.00">q14:1.0</text>
</g>
<!-- q11:0.667&#45;&gt;q14:1.0 -->
<g id="edge1" class="edge">
<title>q11:0.667&#45;&gt;q14:1.0</title>
<path fill="none" stroke="black" d="M1268.4,-216C1310.5,-216 1365.9,-216 1407.6,-216"/>
<polygon fill="black" stroke="black" points="1407.49,-219.5 1417.49,-216 1407.49,-212.5 1407.49,-219.5"/>
<text text-anchor="middle" x="1343.7" y="-219.94" font-family="Times,serif" font-size="14.00">λ/451:0.333</text>
</g>
<!-- q17:0.0 -->
<g id="node3" class="node">
<title>q17:0.0</title>
<ellipse fill="none" stroke="black" stroke-width="2" cx="1733.7" cy="-194" rx="49.1" ry="18"/>
<text text-anchor="middle" x="1733.7" y="-189.32" font-family="Times,serif" font-size="14.00">q17:0.0</text>
</g>
<!-- q17:0.0&#45;&gt;q17:0.0 -->
<g id="edge2" class="edge">
<title>q17:0.0&#45;&gt;q17:0.0</title>
<path fill="none" stroke="black" d="M1710.4,-210.66C1705.2,-220.62 1713,-230 1733.7,-230 1746,-230 1753.7,-226.69 1756.8,-221.92"/>
<polygon fill="black" stroke="black" points="1760.3,-222.2 1756.89,-212.17 1753.3,-222.14 1760.3,-222.2"/>
<text text-anchor="middle" x="1733.7" y="-233.94" font-family="Times,serif" font-size="14.00">content/λ:0.963</text>
</g>
<!-- q21:0.0 -->
<g id="node4" class="node">
<title>q21:0.0</title>
<ellipse fill="none" stroke="black" stroke-width="2" cx="1998.4" cy="-248" rx="49.1" ry="18"/>
<text text-anchor="middle" x="1998.4" y="-243.32" font-family="Times,serif" font-size="14.00">q21:0.0</text>
</g>
<!-- q17:0.0&#45;&gt;q21:0.0 -->
<g id="edge3" class="edge">
<title>q17:0.0&#45;&gt;q21:0.0</title>
<path fill="none" stroke="black" d="M1771.1,-206.59C1780.7,-209.62 1791.1,-212.65 1800.8,-215 1847,-226.17 1900.3,-234.85 1939.7,-240.51"/>
<polygon fill="black" stroke="black" points="1939.01,-243.95 1949.4,-241.88 1939.99,-237.02 1939.01,-243.95"/>
<text text-anchor="middle" x="1866" y="-241.94" font-family="Times,serif" font-size="14.00">content/550:0.0</text>
</g>
<!-- q23:0.0 -->
<g id="node5" class="node">
<title>q23:0.0</title>
<ellipse fill="none" stroke="black" stroke-width="2" cx="1998.4" cy="-194" rx="49.1" ry="18"/>
<text text-anchor="middle" x="1998.4" y="-189.32" font-family="Times,serif" font-size="14.00">q23:0.0</text>
</g>
<!-- q17:0.0&#45;&gt;q23:0.0 -->
<g id="edge4" class="edge">
<title>q17:0.0&#45;&gt;q23:0.0</title>
<path fill="none" stroke="black" d="M1783.5,-194C1826.8,-194 1890.4,-194 1936.9,-194"/>
<polygon fill="black" stroke="black" points="1936.89,-197.5 1946.89,-194 1936.89,-190.5 1936.89,-197.5"/>
<text text-anchor="middle" x="1866" y="-197.94" font-family="Times,serif" font-size="14.00">content/554:0.002</text>
</g>
<!-- q22:0.0 -->
<g id="node6" class="node">
<title>q22:0.0</title>
<ellipse fill="none" stroke="black" stroke-width="2" cx="1998.4" cy="-140" rx="49.1" ry="18"/>
<text text-anchor="middle" x="1998.4" y="-135.32" font-family="Times,serif" font-size="14.00">q22:0.0</text>
</g>
<!-- q17:0.0&#45;&gt;q22:0.0 -->
<g id="edge5" class="edge">
<title>q17:0.0&#45;&gt;q22:0.0</title>
<path fill="none" stroke="black" d="M1770.8,-181.35C1780.4,-178.25 1790.9,-175.14 1800.8,-172.75 1847,-161.54 1900.2,-152.92 1939.7,-147.35"/>
<polygon fill="black" stroke="black" points="1939.98,-150.84 1949.4,-146 1939.01,-143.91 1939.98,-150.84"/>
<text text-anchor="middle" x="1866" y="-175.94" font-family="Times,serif" font-size="14.00">content/250:0.035</text>
</g>
<!-- q24:1.0 -->
<g id="node7" class="node">
<title>q24:1.0</title>
<ellipse fill="none" stroke="black" stroke-width="2" cx="2230.8" cy="-248" rx="49.1" ry="18"/>
<text text-anchor="middle" x="2230.8" y="-243.32" font-family="Times,serif" font-size="14.00">q24:1.0</text>
</g>
<!-- q21:0.0&#45;&gt;q24:1.0 -->
<g id="edge6" class="edge">
<title>q21:0.0&#45;&gt;q24:1.0</title>
<path fill="none" stroke="black" d="M2048.3,-248C2083.7,-248 2131.8,-248 2169.7,-248"/>
<polygon fill="black" stroke="black" points="2169.49,-251.5 2179.49,-248 2169.49,-244.5 2169.49,-251.5"/>
<text text-anchor="middle" x="2114.6" y="-251.94" font-family="Times,serif" font-size="14.00">RSET/250:1.0</text>
</g>
<!-- q26:1.0 -->
<g id="node8" class="node">
<title>q26:1.0</title>
<ellipse fill="none" stroke="black" stroke-width="2" cx="2230.8" cy="-194" rx="49.1" ry="18"/>
<text text-anchor="middle" x="2230.8" y="-189.32" font-family="Times,serif" font-size="14.00">q26:1.0</text>
</g>
<!-- q23:0.0&#45;&gt;q26:1.0 -->
<g id="edge7" class="edge">
<title>q23:0.0&#45;&gt;q26:1.0</title>
<path fill="none" stroke="black" d="M2048.3,-194C2083.7,-194 2131.8,-194 2169.7,-194"/>
<polygon fill="black" stroke="black" points="2169.49,-197.5 2179.49,-194 2169.49,-190.5 2169.49,-197.5"/>
<text text-anchor="middle" x="2114.6" y="-197.94" font-family="Times,serif" font-size="14.00">RSET/250:1.0</text>
</g>
<!-- q25:1.0 -->
<g id="node9" class="node">
<title>q25:1.0</title>
<ellipse fill="none" stroke="black" stroke-width="2" cx="2230.8" cy="-140" rx="49.1" ry="18"/>
<text text-anchor="middle" x="2230.8" y="-135.32" font-family="Times,serif" font-size="14.00">q25:1.0</text>
</g>
<!-- q22:0.0&#45;&gt;q25:1.0 -->
<g id="edge8" class="edge">
<title>q22:0.0&#45;&gt;q25:1.0</title>
<path fill="none" stroke="black" d="M2048.3,-140C2083.7,-140 2131.8,-140 2169.7,-140"/>
<polygon fill="black" stroke="black" points="2169.49,-143.5 2179.49,-140 2169.49,-136.5 2169.49,-143.5"/>
<text text-anchor="middle" x="2114.6" y="-143.94" font-family="Times,serif" font-size="14.00">QUIT/221:1.0</text>
</g>
<!-- q13:0.0 -->
<g id="node10" class="node">
<title>q13:0.0</title>
<ellipse fill="none" stroke="black" stroke-width="2" cx="1469" cy="-147" rx="49.1" ry="18"/>
<text text-anchor="middle" x="1469" y="-142.32" font-family="Times,serif" font-size="14.00">q13:0.0</text>
</g>
<!-- q13:0.0&#45;&gt;q17:0.0 -->
<g id="edge9" class="edge">
<title>q13:0.0&#45;&gt;q17:0.0</title>
<path fill="none" stroke="black" d="M1508.9,-158.44C1517.8,-160.81 1527.2,-163.15 1536.1,-165 1582.3,-174.67 1635.4,-182.3 1674.7,-187.3"/>
<polygon fill="black" stroke="black" points="1674.04,-190.74 1684.4,-188.51 1674.91,-183.8 1674.04,-190.74"/>
<text text-anchor="middle" x="1601.3" y="-188.94" font-family="Times,serif" font-size="14.00">DATA/354:0.733</text>
</g>
<!-- q18:1.0 -->
<g id="node11" class="node">
<title>q18:1.0</title>
<ellipse fill="none" stroke="black" stroke-width="2" cx="1733.7" cy="-140" rx="49.1" ry="18"/>
<text text-anchor="middle" x="1733.7" y="-135.32" font-family="Times,serif" font-size="14.00">q18:1.0</text>
</g>
<!-- q13:0.0&#45;&gt;q18:1.0 -->
<g id="edge10" class="edge">
<title>q13:0.0&#45;&gt;q18:1.0</title>
<path fill="none" stroke="black" d="M1518.8,-145.7C1562.1,-144.54 1625.7,-142.85 1672.2,-141.61"/>
<polygon fill="black" stroke="black" points="1672.28,-145.11 1682.19,-141.35 1672.1,-138.11 1672.28,-145.11"/>
<text text-anchor="middle" x="1601.3" y="-149.94" font-family="Times,serif" font-size="14.00">DATA/550:0.267</text>
</g>
<!-- q12:0.0 -->
<g id="node12" class="node">
<title>q12:0.0</title>
<ellipse fill="none" stroke="black" stroke-width="2" cx="1469" cy="-58" rx="49.1" ry="18"/>
<text text-anchor="middle" x="1469" y="-53.33" font-family="Times,serif" font-size="14.00">q12:0.0</text>
</g>
<!-- q12:0.0&#45;&gt;q12:0.0 -->
<g id="edge11" class="edge">
<title>q12:0.0&#45;&gt;q12:0.0</title>
<path fill="none" stroke="black" d="M1447,-74.66C1442.1,-84.62 1449.4,-94 1469,-94 1480.6,-94 1487.9,-90.69 1490.9,-85.92"/>
<polygon fill="black" stroke="black" points="1494.4,-86.21 1490.99,-76.18 1487.4,-86.15 1494.4,-86.21"/>
<text text-anchor="middle" x="1469" y="-97.95" font-family="Times,serif" font-size="14.00">content/λ:0.521</text>
</g>
<!-- q16:0.0 -->
<g id="node13" class="node">
<title>q16:0.0</title>
<ellipse fill="none" stroke="black" stroke-width="2" cx="1733.7" cy="-72" rx="49.1" ry="18"/>
<text text-anchor="middle" x="1733.7" y="-67.33" font-family="Times,serif" font-size="14.00">q16:0.0</text>
</g>
<!-- q12:0.0&#45;&gt;q16:0.0 -->
<g id="edge12" class="edge">
<title>q12:0.0&#45;&gt;q16:0.0</title>
<path fill="none" stroke="black" d="M1518.5,-60.58C1562.1,-62.91 1626.2,-66.33 1673,-68.82"/>
<polygon fill="black" stroke="black" points="1672.82,-72.31 1682.99,-69.35 1673.19,-65.32 1672.82,-72.31"/>
<text text-anchor="middle" x="1601.3" y="-72.95" font-family="Times,serif" font-size="14.00">content/250:0.169</text>
</g>
<!-- q15:0.0 -->
<g id="node14" class="node">
<title>q15:0.0</title>
<ellipse fill="none" stroke="black" stroke-width="2" cx="1733.7" cy="-18" rx="49.1" ry="18"/>
<text text-anchor="middle" x="1733.7" y="-13.32" font-family="Times,serif" font-size="14.00">q15:0.0</text>
</g>
<!-- q12:0.0&#45;&gt;q15:0.0 -->
<g id="edge13" class="edge">
<title>q12:0.0&#45;&gt;q15:0.0</title>
<path fill="none" stroke="black" d="M1509.3,-46.78C1518,-44.55 1527.3,-42.39 1536.1,-40.75 1581.8,-32.19 1634.1,-26.32 1673.3,-22.69"/>
<polygon fill="black" stroke="black" points="1673.55,-26.18 1683.19,-21.8 1672.92,-19.21 1673.55,-26.18"/>
<text text-anchor="middle" x="1601.3" y="-44.95" font-family="Times,serif" font-size="14.00">content/554:0.31</text>
</g>
<!-- q20:1.0 -->
<g id="node15" class="node">
<title>q20:1.0</title>
<ellipse fill="none" stroke="black" stroke-width="2" cx="1998.4" cy="-72" rx="49.1" ry="18"/>
<text text-anchor="middle" x="1998.4" y="-67.33" font-family="Times,serif" font-size="14.00">q20:1.0</text>
</g>
<!-- q16:0.0&#45;&gt;q20:1.0 -->
<g id="edge14" class="edge">
<title>q16:0.0&#45;&gt;q20:1.0</title>
<path fill="none" stroke="black" d="M1783.5,-72C1826.8,-72 1890.4,-72 1936.9,-72"/>
<polygon fill="black" stroke="black" points="1936.89,-75.5 1946.89,-72 1936.89,-68.5 1936.89,-75.5"/>
<text text-anchor="middle" x="1866" y="-75.95" font-family="Times,serif" font-size="14.00">QUIT/221:1.0</text>
</g>
<!-- q19:1.0 -->
<g id="node16" class="node">
<title>q19:1.0</title>
<ellipse fill="none" stroke="black" stroke-width="2" cx="1998.4" cy="-18" rx="49.1" ry="18"/>
<text text-anchor="middle" x="1998.4" y="-13.32" font-family="Times,serif" font-size="14.00">q19:1.0</text>
</g>
<!-- q15:0.0&#45;&gt;q19:1.0 -->
<g id="edge15" class="edge">
<title>q15:0.0&#45;&gt;q19:1.0</title>
<path fill="none" stroke="black" d="M1783.5,-18C1826.8,-18 1890.4,-18 1936.9,-18"/>
<polygon fill="black" stroke="black" points="1936.89,-21.5 1946.89,-18 1936.89,-14.5 1936.89,-21.5"/>
<text text-anchor="middle" x="1866" y="-21.95" font-family="Times,serif" font-size="14.00">RSET/250:1.0</text>
</g>
<!-- q3:0.0 -->
<g id="node17" class="node">
<title>q3:0.0</title>
<ellipse fill="none" stroke="black" stroke-width="2" cx="484.7" cy="-190" rx="42.79" ry="18"/>
<text text-anchor="middle" x="484.7" y="-185.32" font-family="Times,serif" font-size="14.00">q3:0.0</text>
</g>
<!-- q5:0.0 -->
<g id="node18" class="node">
<title>q5:0.0</title>
<ellipse fill="none" stroke="black" stroke-width="2" cx="716.53" cy="-216" rx="42.79" ry="18"/>
<text text-anchor="middle" x="716.53" y="-211.32" font-family="Times,serif" font-size="14.00">q5:0.0</text>
</g>
<!-- q3:0.0&#45;&gt;q5:0.0 -->
<g id="edge16" class="edge">
<title>q3:0.0&#45;&gt;q5:0.0</title>
<path fill="none" stroke="black" d="M527.06,-194.68C565.09,-198.98 621.68,-205.38 662.93,-210.05"/>
<polygon fill="black" stroke="black" points="662.28,-213.5 672.62,-211.15 663.07,-206.54 662.28,-213.5"/>
<text text-anchor="middle" x="600.62" y="-212.94" font-family="Times,serif" font-size="14.00">AUTH/535:0.05</text>
</g>
<!-- q4:0.0 -->
<g id="node19" class="node">
<title>q4:0.0</title>
<ellipse fill="none" stroke="black" stroke-width="2" cx="716.53" cy="-149" rx="42.79" ry="18"/>
<text text-anchor="middle" x="716.53" y="-144.32" font-family="Times,serif" font-size="14.00">q4:0.0</text>
</g>
<!-- q3:0.0&#45;&gt;q4:0.0 -->
<g id="edge17" class="edge">
<title>q3:0.0&#45;&gt;q4:0.0</title>
<path fill="none" stroke="black" d="M521.93,-180.14C529.67,-178.21 537.83,-176.3 545.49,-174.75 584.8,-166.78 629.67,-160.09 663.44,-155.52"/>
<polygon fill="black" stroke="black" points="663.5,-159.04 672.95,-154.26 662.58,-152.1 663.5,-159.04"/>
<text text-anchor="middle" x="600.62" y="-177.94" font-family="Times,serif" font-size="14.00">AUTH/235:0.95</text>
</g>
<!-- q8:0.0 -->
<g id="node20" class="node">
<title>q8:0.0</title>
<ellipse fill="none" stroke="black" stroke-width="2" cx="952.86" cy="-216" rx="42.79" ry="18"/>
<text text-anchor="middle" x="952.86" y="-211.32" font-family="Times,serif" font-size="14.00">q8:0.0</text>
</g>
<!-- q5:0.0&#45;&gt;q8:0.0 -->
<g id="edge18" class="edge">
<title>q5:0.0&#45;&gt;q8:0.0</title>
<path fill="none" stroke="black" d="M760.24,-216C798.97,-216 856.24,-216 898.08,-216"/>
<polygon fill="black" stroke="black" points="897.94,-219.5 907.94,-216 897.94,-212.5 897.94,-219.5"/>
<text text-anchor="middle" x="834.7" y="-219.94" font-family="Times,serif" font-size="14.00">AUTH/334:1.0</text>
</g>
<!-- q6:0.0 -->
<g id="node21" class="node">
<title>q6:0.0</title>
<ellipse fill="none" stroke="black" stroke-width="2" cx="952.86" cy="-159" rx="42.79" ry="18"/>
<text text-anchor="middle" x="952.86" y="-154.32" font-family="Times,serif" font-size="14.00">q6:0.0</text>
</g>
<!-- q4:0.0&#45;&gt;q6:0.0 -->
<g id="edge19" class="edge">
<title>q4:0.0&#45;&gt;q6:0.0</title>
<path fill="none" stroke="black" d="M759.97,-150.81C798.67,-152.46 856.03,-154.91 897.96,-156.7"/>
<polygon fill="black" stroke="black" points="897.7,-160.19 907.84,-157.12 898,-153.2 897.7,-160.19"/>
<text text-anchor="middle" x="834.7" y="-160.94" font-family="Times,serif" font-size="14.00">MAIL/553:0.013</text>
</g>
<!-- q7:0.0 -->
<g id="node22" class="node">
<title>q7:0.0</title>
<ellipse fill="none" stroke="black" stroke-width="2" cx="952.86" cy="-105" rx="42.79" ry="18"/>
<text text-anchor="middle" x="952.86" y="-100.33" font-family="Times,serif" font-size="14.00">q7:0.0</text>
</g>
<!-- q4:0.0&#45;&gt;q7:0.0 -->
<g id="edge20" class="edge">
<title>q4:0.0&#45;&gt;q7:0.0</title>
<path fill="none" stroke="black" d="M751.44,-137.69C759.84,-135.15 768.85,-132.66 777.32,-130.75 817.73,-121.66 864.14,-114.99 898.95,-110.71"/>
<polygon fill="black" stroke="black" points="899.26,-114.2 908.78,-109.54 898.43,-107.25 899.26,-114.2"/>
<text text-anchor="middle" x="834.7" y="-134.94" font-family="Times,serif" font-size="14.00">MAIL/250:0.987</text>
</g>
<!-- q8:0.0&#45;&gt;q11:0.667 -->
<g id="edge21" class="edge">
<title>q8:0.0&#45;&gt;q11:0.667</title>
<path fill="none" stroke="black" d="M996.44,-216C1033.4,-216 1087.8,-216 1131.7,-216"/>
<polygon fill="black" stroke="black" points="1131.69,-219.5 1141.69,-216 1131.69,-212.5 1131.69,-219.5"/>
<text text-anchor="middle" x="1069.9" y="-219.94" font-family="Times,serif" font-size="14.00">content/535:1.0</text>
</g>
<!-- q9:1.0 -->
<g id="node23" class="node">
<title>q9:1.0</title>
<ellipse fill="none" stroke="black" stroke-width="2" cx="1205.9" cy="-159" rx="42.79" ry="18"/>
<text text-anchor="middle" x="1205.9" y="-154.32" font-family="Times,serif" font-size="14.00">q9:1.0</text>
</g>
<!-- q6:0.0&#45;&gt;q9:1.0 -->
<g id="edge22" class="edge">
<title>q6:0.0&#45;&gt;q9:1.0</title>
<path fill="none" stroke="black" d="M996.44,-159C1039.1,-159 1105,-159 1151.2,-159"/>
<polygon fill="black" stroke="black" points="1150.99,-162.5 1160.99,-159 1150.99,-155.5 1150.99,-162.5"/>
<text text-anchor="middle" x="1069.9" y="-162.94" font-family="Times,serif" font-size="14.00">RSET/250:1.0</text>
</g>
<!-- q10:0.0 -->
<g id="node24" class="node">
<title>q10:0.0</title>
<ellipse fill="none" stroke="black" stroke-width="2" cx="1205.9" cy="-105" rx="49.1" ry="18"/>
<text text-anchor="middle" x="1205.9" y="-100.33" font-family="Times,serif" font-size="14.00">q10:0.0</text>
</g>
<!-- q7:0.0&#45;&gt;q10:0.0 -->
<g id="edge23" class="edge">
<title>q7:0.0&#45;&gt;q10:0.0</title>
<path fill="none" stroke="black" d="M996.44,-105C1037.2,-105 1099,-105 1144.8,-105"/>
<polygon fill="black" stroke="black" points="1144.59,-108.5 1154.59,-105 1144.59,-101.5 1144.59,-108.5"/>
<text text-anchor="middle" x="1069.9" y="-108.95" font-family="Times,serif" font-size="14.00">RCPT/250:1.0</text>
</g>
<!-- q10:0.0&#45;&gt;q13:0.0 -->
<g id="edge28" class="edge">
<title>q10:0.0&#45;&gt;q13:0.0</title>
<path fill="none" stroke="black" d="M1252.1,-112.27C1296.4,-119.4 1364.1,-130.29 1411.8,-137.97"/>
<polygon fill="black" stroke="black" points="1410.98,-141.38 1421.4,-139.51 1412.09,-134.47 1410.98,-141.38"/>
<text text-anchor="middle" x="1343.7" y="-139.94" font-family="Times,serif" font-size="14.00">RCPT/250:0.703</text>
</g>
<!-- q10:0.0&#45;&gt;q12:0.0 -->
<g id="edge29" class="edge">
<title>q10:0.0&#45;&gt;q12:0.0</title>
<path fill="none" stroke="black" d="M1251.2,-97.03C1295.8,-89 1364.6,-76.6 1412.7,-67.94"/>
<polygon fill="black" stroke="black" points="1413.18,-71.41 1422.41,-66.2 1411.95,-64.52 1413.18,-71.41"/>
<text text-anchor="middle" x="1343.7" y="-93.95" font-family="Times,serif" font-size="14.00">DATA/354:0.297</text>
</g>
<!-- q0:0.0 -->
<g id="node25" class="node">
<title>q0:0.0</title>
<ellipse fill="none" stroke="black" stroke-width="2" cx="50.79" cy="-163" rx="46.79" ry="46.79"/>
<ellipse fill="none" stroke="black" stroke-width="2" cx="50.79" cy="-163" rx="50.79" ry="50.79"/>
<text text-anchor="middle" x="50.79" y="-158.32" font-family="Times,serif" font-size="14.00">q0:0.0</text>
</g>
<!-- q1:0.0 -->
<g id="node26" class="node">
<title>q1:0.0</title>
<ellipse fill="none" stroke="black" stroke-width="2" cx="243.87" cy="-163" rx="42.79" ry="18"/>
<text text-anchor="middle" x="243.87" y="-158.32" font-family="Times,serif" font-size="14.00">q1:0.0</text>
</g>
<!-- q0:0.0&#45;&gt;q1:0.0 -->
<g id="edge24" class="edge">
<title>q0:0.0&#45;&gt;q1:0.0</title>
<path fill="none" stroke="black" d="M98.53,-163C125.82,-163 160.37,-163 188.82,-163"/>
<polygon fill="black" stroke="black" points="188.69,-166.5 198.69,-163 188.69,-159.5 188.69,-166.5"/>
<text text-anchor="middle" x="149.33" y="-166.94" font-family="Times,serif" font-size="14.00">λ/220:1.0</text>
</g>
<!-- q1:0.0&#45;&gt;q3:0.0 -->
<g id="edge25" class="edge">
<title>q1:0.0&#45;&gt;q3:0.0</title>
<path fill="none" stroke="black" d="M286.2,-167.67C326.4,-172.22 387.62,-179.14 431.24,-184.07"/>
<polygon fill="black" stroke="black" points="430.65,-187.53 440.98,-185.17 431.43,-180.57 430.65,-187.53"/>
<text text-anchor="middle" x="364.29" y="-185.94" font-family="Times,serif" font-size="14.00">EHLO/250:0.992</text>
</g>
<!-- q2:0.0 -->
<g id="node27" class="node">
<title>q2:0.0</title>
<ellipse fill="none" stroke="black" stroke-width="2" cx="484.7" cy="-136" rx="42.79" ry="18"/>
<text text-anchor="middle" x="484.7" y="-131.32" font-family="Times,serif" font-size="14.00">q2:0.0</text>
</g>
<!-- q1:0.0&#45;&gt;q2:0.0 -->
<g id="edge26" class="edge">
<title>q1:0.0&#45;&gt;q2:0.0</title>
<path fill="none" stroke="black" d="M281.36,-153.31C289.02,-151.56 297.07,-149.92 304.66,-148.75 346.49,-142.32 394.32,-139.12 430.02,-137.54"/>
<polygon fill="black" stroke="black" points="429.8,-141.05 439.65,-137.14 429.51,-134.06 429.8,-141.05"/>
<text text-anchor="middle" x="364.29" y="-152.94" font-family="Times,serif" font-size="14.00">EHLO/λ:0.008</text>
</g>
<!-- q2:0.0&#45;&gt;q4:0.0 -->
<g id="edge27" class="edge">
<title>q2:0.0&#45;&gt;q4:0.0</title>
<path fill="none" stroke="black" d="M528.1,-133.87C562.58,-132.7 612.43,-132.26 655.74,-136.75 659.38,-137.13 663.12,-137.62 666.87,-138.2"/>
<polygon fill="black" stroke="black" points="666.13,-141.62 676.58,-139.89 667.33,-134.73 666.13,-141.62"/>
<text text-anchor="middle" x="600.62" y="-140.94" font-family="Times,serif" font-size="14.00">AUTH/235:1.0</text>
</g>
</g>
</svg>
