<?xml version="1.0" encoding="UTF-8" standalone="no"?>
<!DOCTYPE svg PUBLIC "-//W3C//DTD SVG 1.1//EN"
 "http://www.w3.org/Graphics/SVG/1.1/DTD/svg11.dtd">
<!-- Generated by graphviz version 12.0.0 (20240803.0821)
 -->
<!-- Pages: 1 -->
<svg width="2284pt" height="274pt"
 viewBox="0.00 0.00 2284.30 274.00" xmlns="http://www.w3.org/2000/svg" xmlns:xlink="http://www.w3.org/1999/xlink">
<g id="graph0" class="graph" transform="scale(1 1) rotate(0) translate(4 270)">
<polygon fill="white" stroke="none" points="-4,4 -4,-270 2280.3,-270 2280.3,4 -4,4"/>
<!-- q14:0.0 -->
<g id="node1" class="node">
<title>q14:0.0</title>
<ellipse fill="none" stroke="black" stroke-width="2" cx="1465.3" cy="-58" rx="49.1" ry="18"/>
<text text-anchor="middle" x="1465.3" y="-53.33" font-family="Times,serif" font-size="14.00">q14:0.0</text>
</g>
<!-- q14:0.0&#45;&gt;q14:0.0 -->
<g id="edge1" class="edge">
<title>q14:0.0&#45;&gt;q14:0.0</title>
<path fill="none" stroke="black" d="M1443.3,-74.66C1438.4,-84.62 1445.8,-94 1465.3,-94 1477,-94 1484.3,-90.69 1487.3,-85.92"/>
<polygon fill="black" stroke="black" points="1490.8,-86.21 1487.39,-76.18 1483.8,-86.15 1490.8,-86.21"/>
<text text-anchor="middle" x="1465.3" y="-97.95" font-family="Times,serif" font-size="14.00">content/λ:0.451</text>
</g>
<!-- q19:0.0 -->
<g id="node2" class="node">
<title>q19:0.0</title>
<ellipse fill="none" stroke="black" stroke-width="2" cx="1730" cy="-72" rx="49.1" ry="18"/>
<text text-anchor="middle" x="1730" y="-67.33" font-family="Times,serif" font-size="14.00">q19:0.0</text>
</g>
<!-- q14:0.0&#45;&gt;q19:0.0 -->
<g id="edge2" class="edge">
<title>q14:0.0&#45;&gt;q19:0.0</title>
<path fill="none" stroke="black" d="M1514.8,-60.58C1558.4,-62.91 1622.6,-66.33 1669.4,-68.82"/>
<polygon fill="black" stroke="black" points="1669.11,-72.31 1679.29,-69.35 1669.49,-65.32 1669.11,-72.31"/>
<text text-anchor="middle" x="1597.7" y="-72.95" font-family="Times,serif" font-size="14.00">content/554:0.402</text>
</g>
<!-- q18:0.0 -->
<g id="node3" class="node">
<title>q18:0.0</title>
<ellipse fill="none" stroke="black" stroke-width="2" cx="1730" cy="-18" rx="49.1" ry="18"/>
<text text-anchor="middle" x="1730" y="-13.32" font-family="Times,serif" font-size="14.00">q18:0.0</text>
</g>
<!-- q14:0.0&#45;&gt;q18:0.0 -->
<g id="edge3" class="edge">
<title>q14:0.0&#45;&gt;q18:0.0</title>
<path fill="none" stroke="black" d="M1505.6,-46.78C1514.4,-44.55 1523.7,-42.39 1532.4,-40.75 1578.1,-32.19 1630.5,-26.32 1669.6,-22.69"/>
<polygon fill="black" stroke="black" points="1669.94,-26.17 1679.59,-21.79 1669.32,-19.2 1669.94,-26.17"/>
<text text-anchor="middle" x="1597.7" y="-44.95" font-family="Times,serif" font-size="14.00">content/250:0.146</text>
</g>
<!-- q24:1.0 -->
<g id="node4" class="node">
<title>q24:1.0</title>
<ellipse fill="none" stroke="black" stroke-width="2" cx="1994.8" cy="-72" rx="49.1" ry="18"/>
<text text-anchor="middle" x="1994.8" y="-67.33" font-family="Times,serif" font-size="14.00">q24:1.0</text>
</g>
<!-- q19:0.0&#45;&gt;q24:1.0 -->
<g id="edge4" class="edge">
<title>q19:0.0&#45;&gt;q24:1.0</title>
<path fill="none" stroke="black" d="M1779.8,-72C1823.2,-72 1886.8,-72 1933.3,-72"/>
<polygon fill="black" stroke="black" points="1933.29,-75.5 1943.29,-72 1933.29,-68.5 1933.29,-75.5"/>
<text text-anchor="middle" x="1862.4" y="-75.95" font-family="Times,serif" font-size="14.00">RSET/250:1.0</text>
</g>
<!-- q23:1.0 -->
<g id="node5" class="node">
<title>q23:1.0</title>
<ellipse fill="none" stroke="black" stroke-width="2" cx="1994.8" cy="-18" rx="49.1" ry="18"/>
<text text-anchor="middle" x="1994.8" y="-13.32" font-family="Times,serif" font-size="14.00">q23:1.0</text>
</g>
<!-- q18:0.0&#45;&gt;q23:1.0 -->
<g id="edge5" class="edge">
<title>q18:0.0&#45;&gt;q23:1.0</title>
<path fill="none" stroke="black" d="M1779.8,-18C1823.2,-18 1886.8,-18 1933.3,-18"/>
<polygon fill="black" stroke="black" points="1933.29,-21.5 1943.29,-18 1933.29,-14.5 1933.29,-21.5"/>
<text text-anchor="middle" x="1862.4" y="-21.95" font-family="Times,serif" font-size="14.00">QUIT/221:1.0</text>
</g>
<!-- q2:0.0 -->
<g id="node6" class="node">
<title>q2:0.0</title>
<ellipse fill="none" stroke="black" stroke-width="2" cx="484.7" cy="-183" rx="42.79" ry="18"/>
<text text-anchor="middle" x="484.7" y="-178.32" font-family="Times,serif" font-size="14.00">q2:0.0</text>
</g>
<!-- q4:0.0 -->
<g id="node7" class="node">
<title>q4:0.0</title>
<ellipse fill="none" stroke="black" stroke-width="2" cx="725.53" cy="-110" rx="42.79" ry="18"/>
<text text-anchor="middle" x="725.53" y="-105.33" font-family="Times,serif" font-size="14.00">q4:0.0</text>
</g>
<!-- q2:0.0&#45;&gt;q4:0.0 -->
<g id="edge6" class="edge">
<title>q2:0.0&#45;&gt;q4:0.0</title>
<path fill="none" stroke="black" d="M519.14,-171.39C527.7,-168.5 536.92,-165.45 545.49,-162.75 598.15,-146.17 611.81,-143.68 664.74,-128 669.24,-126.67 673.93,-125.27 678.62,-123.87"/>
<polygon fill="black" stroke="black" points="679.43,-127.28 688,-121.06 677.42,-120.58 679.43,-127.28"/>
<text text-anchor="middle" x="605.12" y="-165.94" font-family="Times,serif" font-size="14.00">AUTH/λ:0.004</text>
</g>
<!-- q5:0.0 -->
<g id="node8" class="node">
<title>q5:0.0</title>
<ellipse fill="none" stroke="black" stroke-width="2" cx="725.53" cy="-190" rx="42.79" ry="18"/>
<text text-anchor="middle" x="725.53" y="-185.32" font-family="Times,serif" font-size="14.00">q5:0.0</text>
</g>
<!-- q2:0.0&#45;&gt;q5:0.0 -->
<g id="edge7" class="edge">
<title>q2:0.0&#45;&gt;q5:0.0</title>
<path fill="none" stroke="black" d="M528.12,-184.24C567.91,-185.41 627.56,-187.16 670.69,-188.42"/>
<polygon fill="black" stroke="black" points="670.49,-191.92 680.59,-188.71 670.7,-184.92 670.49,-191.92"/>
<text text-anchor="middle" x="605.12" y="-191.94" font-family="Times,serif" font-size="14.00">AUTH/235:0.946</text>
</g>
<!-- q6:0.0 -->
<g id="node9" class="node">
<title>q6:0.0</title>
<ellipse fill="none" stroke="black" stroke-width="2" cx="725.53" cy="-244" rx="42.79" ry="18"/>
<text text-anchor="middle" x="725.53" y="-239.32" font-family="Times,serif" font-size="14.00">q6:0.0</text>
</g>
<!-- q2:0.0&#45;&gt;q6:0.0 -->
<g id="edge8" class="edge">
<title>q2:0.0&#45;&gt;q6:0.0</title>
<path fill="none" stroke="black" d="M514.11,-196.86C523.88,-201.22 535.01,-205.74 545.49,-209 587.38,-222.03 636.35,-231.21 672.48,-236.89"/>
<polygon fill="black" stroke="black" points="671.82,-240.33 682.23,-238.38 672.88,-233.41 671.82,-240.33"/>
<text text-anchor="middle" x="605.12" y="-238.94" font-family="Times,serif" font-size="14.00">AUTH/535:0.05</text>
</g>
<!-- q7:0.0 -->
<g id="node10" class="node">
<title>q7:0.0</title>
<ellipse fill="none" stroke="black" stroke-width="2" cx="961.86" cy="-123" rx="42.79" ry="18"/>
<text text-anchor="middle" x="961.86" y="-118.33" font-family="Times,serif" font-size="14.00">q7:0.0</text>
</g>
<!-- q4:0.0&#45;&gt;q7:0.0 -->
<g id="edge9" class="edge">
<title>q4:0.0&#45;&gt;q7:0.0</title>
<path fill="none" stroke="black" d="M768.98,-107.85C804.4,-106.61 856.16,-106.1 901.07,-110.75 904.71,-111.13 908.45,-111.62 912.2,-112.2"/>
<polygon fill="black" stroke="black" points="911.46,-115.62 921.91,-113.89 912.66,-108.73 911.46,-115.62"/>
<text text-anchor="middle" x="843.7" y="-114.95" font-family="Times,serif" font-size="14.00">MAIL/250:1.0</text>
</g>
<!-- q5:0.0&#45;&gt;q7:0.0 -->
<g id="edge10" class="edge">
<title>q5:0.0&#45;&gt;q7:0.0</title>
<path fill="none" stroke="black" d="M758.95,-177.91C767.78,-174.78 777.37,-171.51 786.32,-168.75 828.6,-155.72 877.34,-143.15 912.56,-134.49"/>
<polygon fill="black" stroke="black" points="913.14,-137.95 922.02,-132.18 911.47,-131.15 913.14,-137.95"/>
<text text-anchor="middle" x="843.7" y="-171.94" font-family="Times,serif" font-size="14.00">MAIL/250:0.991</text>
</g>
<!-- q8:0.0 -->
<g id="node11" class="node">
<title>q8:0.0</title>
<ellipse fill="none" stroke="black" stroke-width="2" cx="961.86" cy="-190" rx="42.79" ry="18"/>
<text text-anchor="middle" x="961.86" y="-185.32" font-family="Times,serif" font-size="14.00">q8:0.0</text>
</g>
<!-- q5:0.0&#45;&gt;q8:0.0 -->
<g id="edge11" class="edge">
<title>q5:0.0&#45;&gt;q8:0.0</title>
<path fill="none" stroke="black" d="M769.24,-190C807.97,-190 865.24,-190 907.08,-190"/>
<polygon fill="black" stroke="black" points="906.94,-193.5 916.94,-190 906.94,-186.5 906.94,-193.5"/>
<text text-anchor="middle" x="843.7" y="-193.94" font-family="Times,serif" font-size="14.00">MAIL/553:0.009</text>
</g>
<!-- q9:0.0 -->
<g id="node12" class="node">
<title>q9:0.0</title>
<ellipse fill="none" stroke="black" stroke-width="2" cx="961.86" cy="-244" rx="42.79" ry="18"/>
<text text-anchor="middle" x="961.86" y="-239.32" font-family="Times,serif" font-size="14.00">q9:0.0</text>
</g>
<!-- q6:0.0&#45;&gt;q9:0.0 -->
<g id="edge12" class="edge">
<title>q6:0.0&#45;&gt;q9:0.0</title>
<path fill="none" stroke="black" d="M769.24,-244C807.97,-244 865.24,-244 907.08,-244"/>
<polygon fill="black" stroke="black" points="906.94,-247.5 916.94,-244 906.94,-240.5 906.94,-247.5"/>
<text text-anchor="middle" x="843.7" y="-247.94" font-family="Times,serif" font-size="14.00">AUTH/334:1.0</text>
</g>
<!-- q10:0.0 -->
<g id="node13" class="node">
<title>q10:0.0</title>
<ellipse fill="none" stroke="black" stroke-width="2" cx="1208.6" cy="-123" rx="49.1" ry="18"/>
<text text-anchor="middle" x="1208.6" y="-118.33" font-family="Times,serif" font-size="14.00">q10:0.0</text>
</g>
<!-- q7:0.0&#45;&gt;q10:0.0 -->
<g id="edge13" class="edge">
<title>q7:0.0&#45;&gt;q10:0.0</title>
<path fill="none" stroke="black" d="M1005.5,-123C1044.7,-123 1103.3,-123 1147.3,-123"/>
<polygon fill="black" stroke="black" points="1147.19,-126.5 1157.19,-123 1147.19,-119.5 1147.19,-126.5"/>
<text text-anchor="middle" x="1078.9" y="-126.95" font-family="Times,serif" font-size="14.00">RCPT/250:1.0</text>
</g>
<!-- q11:1.0 -->
<g id="node14" class="node">
<title>q11:1.0</title>
<ellipse fill="none" stroke="black" stroke-width="2" cx="1208.6" cy="-190" rx="49.1" ry="18"/>
<text text-anchor="middle" x="1208.6" y="-185.32" font-family="Times,serif" font-size="14.00">q11:1.0</text>
</g>
<!-- q8:0.0&#45;&gt;q11:1.0 -->
<g id="edge14" class="edge">
<title>q8:0.0&#45;&gt;q11:1.0</title>
<path fill="none" stroke="black" d="M1005.5,-190C1044.7,-190 1103.3,-190 1147.3,-190"/>
<polygon fill="black" stroke="black" points="1147.19,-193.5 1157.19,-190 1147.19,-186.5 1147.19,-193.5"/>
<text text-anchor="middle" x="1078.9" y="-193.94" font-family="Times,serif" font-size="14.00">RSET/250:1.0</text>
</g>
<!-- q12:0.75 -->
<g id="node15" class="node">
<title>q12:0.75</title>
<ellipse fill="none" stroke="black" stroke-width="2" cx="1208.6" cy="-244" rx="55.42" ry="18"/>
<text text-anchor="middle" x="1208.6" y="-239.32" font-family="Times,serif" font-size="14.00">q12:0.75</text>
</g>
<!-- q9:0.0&#45;&gt;q12:0.75 -->
<g id="edge15" class="edge">
<title>q9:0.0&#45;&gt;q12:0.75</title>
<path fill="none" stroke="black" d="M1005.5,-244C1042.9,-244 1098.1,-244 1141.3,-244"/>
<polygon fill="black" stroke="black" points="1141.09,-247.5 1151.09,-244 1141.09,-240.5 1141.09,-247.5"/>
<text text-anchor="middle" x="1078.9" y="-247.94" font-family="Times,serif" font-size="14.00">content/535:1.0</text>
</g>
<!-- q10:0.0&#45;&gt;q14:0.0 -->
<g id="edge16" class="edge">
<title>q10:0.0&#45;&gt;q14:0.0</title>
<path fill="none" stroke="black" d="M1250.2,-112.63C1294.3,-101.38 1364.8,-83.4 1412.8,-71.16"/>
<polygon fill="black" stroke="black" points="1413.52,-74.59 1422.33,-68.71 1411.78,-67.81 1413.52,-74.59"/>
<text text-anchor="middle" x="1340.1" y="-107.95" font-family="Times,serif" font-size="14.00">DATA/354:0.391</text>
</g>
<!-- q13:0.0 -->
<g id="node16" class="node">
<title>q13:0.0</title>
<ellipse fill="none" stroke="black" stroke-width="2" cx="1465.3" cy="-147" rx="49.1" ry="18"/>
<text text-anchor="middle" x="1465.3" y="-142.32" font-family="Times,serif" font-size="14.00">q13:0.0</text>
</g>
<!-- q10:0.0&#45;&gt;q13:0.0 -->
<g id="edge17" class="edge">
<title>q10:0.0&#45;&gt;q13:0.0</title>
<path fill="none" stroke="black" d="M1257.2,-127.49C1299.2,-131.44 1360.5,-137.22 1405.6,-141.47"/>
<polygon fill="black" stroke="black" points="1405.21,-144.95 1415.49,-142.4 1405.86,-137.98 1405.21,-144.95"/>
<text text-anchor="middle" x="1340.1" y="-144.94" font-family="Times,serif" font-size="14.00">RCPT/250:0.609</text>
</g>
<!-- q15:1.0 -->
<g id="node28" class="node">
<title>q15:1.0</title>
<ellipse fill="none" stroke="black" stroke-width="2" cx="1465.3" cy="-244" rx="49.1" ry="18"/>
<text text-anchor="middle" x="1465.3" y="-239.32" font-family="Times,serif" font-size="14.00">q15:1.0</text>
</g>
<!-- q12:0.75&#45;&gt;q15:1.0 -->
<g id="edge32" class="edge">
<title>q12:0.75&#45;&gt;q15:1.0</title>
<path fill="none" stroke="black" d="M1264.9,-244C1306,-244 1362.1,-244 1404.4,-244"/>
<polygon fill="black" stroke="black" points="1404.09,-247.5 1414.09,-244 1404.09,-240.5 1404.09,-247.5"/>
<text text-anchor="middle" x="1340.1" y="-247.94" font-family="Times,serif" font-size="14.00">λ/451:0.25</text>
</g>
<!-- q13:0.0&#45;&gt;q13:0.0 -->
<g id="edge30" class="edge">
<title>q13:0.0&#45;&gt;q13:0.0</title>
<path fill="none" stroke="black" d="M1443.3,-163.66C1438.4,-173.62 1445.8,-183 1465.3,-183 1477,-183 1484.3,-179.69 1487.3,-174.92"/>
<polygon fill="black" stroke="black" points="1490.8,-175.2 1487.39,-165.17 1483.8,-175.14 1490.8,-175.2"/>
<text text-anchor="middle" x="1465.3" y="-186.94" font-family="Times,serif" font-size="14.00">RCPT/250:0.054</text>
</g>
<!-- q17:0.0 -->
<g id="node20" class="node">
<title>q17:0.0</title>
<ellipse fill="none" stroke="black" stroke-width="2" cx="1730" cy="-194" rx="49.1" ry="18"/>
<text text-anchor="middle" x="1730" y="-189.32" font-family="Times,serif" font-size="14.00">q17:0.0</text>
</g>
<!-- q13:0.0&#45;&gt;q17:0.0 -->
<g id="edge29" class="edge">
<title>q13:0.0&#45;&gt;q17:0.0</title>
<path fill="none" stroke="black" d="M1505.3,-158.44C1514.2,-160.81 1523.6,-163.15 1532.4,-165 1578.7,-174.67 1631.7,-182.3 1671.1,-187.3"/>
<polygon fill="black" stroke="black" points="1670.44,-190.74 1680.8,-188.51 1671.31,-183.8 1670.44,-190.74"/>
<text text-anchor="middle" x="1597.7" y="-188.94" font-family="Times,serif" font-size="14.00">DATA/354:0.655</text>
</g>
<!-- q16:1.0 -->
<g id="node27" class="node">
<title>q16:1.0</title>
<ellipse fill="none" stroke="black" stroke-width="2" cx="1730" cy="-140" rx="49.1" ry="18"/>
<text text-anchor="middle" x="1730" y="-135.32" font-family="Times,serif" font-size="14.00">q16:1.0</text>
</g>
<!-- q13:0.0&#45;&gt;q16:1.0 -->
<g id="edge31" class="edge">
<title>q13:0.0&#45;&gt;q16:1.0</title>
<path fill="none" stroke="black" d="M1515.1,-145.7C1558.5,-144.54 1622.1,-142.85 1668.6,-141.61"/>
<polygon fill="black" stroke="black" points="1668.68,-145.11 1678.59,-141.35 1668.5,-138.11 1668.68,-145.11"/>
<text text-anchor="middle" x="1597.7" y="-149.94" font-family="Times,serif" font-size="14.00">DATA/550:0.291</text>
</g>
<!-- q0:0.0 -->
<g id="node17" class="node">
<title>q0:0.0</title>
<ellipse fill="none" stroke="black" stroke-width="2" cx="50.79" cy="-150" rx="46.79" ry="46.79"/>
<ellipse fill="none" stroke="black" stroke-width="2" cx="50.79" cy="-150" rx="50.79" ry="50.79"/>
<text text-anchor="middle" x="50.79" y="-145.32" font-family="Times,serif" font-size="14.00">q0:0.0</text>
</g>
<!-- q1:0.0 -->
<g id="node18" class="node">
<title>q1:0.0</title>
<ellipse fill="none" stroke="black" stroke-width="2" cx="243.87" cy="-150" rx="42.79" ry="18"/>
<text text-anchor="middle" x="243.87" y="-145.32" font-family="Times,serif" font-size="14.00">q1:0.0</text>
</g>
<!-- q0:0.0&#45;&gt;q1:0.0 -->
<g id="edge18" class="edge">
<title>q0:0.0&#45;&gt;q1:0.0</title>
<path fill="none" stroke="black" d="M98.53,-150C125.82,-150 160.37,-150 188.82,-150"/>
<polygon fill="black" stroke="black" points="188.69,-153.5 198.69,-150 188.69,-146.5 188.69,-153.5"/>
<text text-anchor="middle" x="149.33" y="-153.94" font-family="Times,serif" font-size="14.00">λ/220:1.0</text>
</g>
<!-- q1:0.0&#45;&gt;q2:0.0 -->
<g id="edge19" class="edge">
<title>q1:0.0&#45;&gt;q2:0.0</title>
<path fill="none" stroke="black" d="M285.66,-155.64C326.01,-161.21 387.94,-169.77 431.79,-175.83"/>
<polygon fill="black" stroke="black" points="431.19,-179.28 441.58,-177.18 432.15,-172.35 431.19,-179.28"/>
<text text-anchor="middle" x="364.29" y="-177.94" font-family="Times,serif" font-size="14.00">EHLO/250:0.992</text>
</g>
<!-- q3:0.0 -->
<g id="node19" class="node">
<title>q3:0.0</title>
<ellipse fill="none" stroke="black" stroke-width="2" cx="484.7" cy="-123" rx="42.79" ry="18"/>
<text text-anchor="middle" x="484.7" y="-118.33" font-family="Times,serif" font-size="14.00">q3:0.0</text>
</g>
<!-- q1:0.0&#45;&gt;q3:0.0 -->
<g id="edge20" class="edge">
<title>q1:0.0&#45;&gt;q3:0.0</title>
<path fill="none" stroke="black" d="M282.04,-140.91C289.49,-139.33 297.3,-137.84 304.66,-136.75 346.54,-130.53 394.37,-127.04 430.05,-125.14"/>
<polygon fill="black" stroke="black" points="429.87,-128.65 439.68,-124.65 429.51,-121.66 429.87,-128.65"/>
<text text-anchor="middle" x="364.29" y="-140.94" font-family="Times,serif" font-size="14.00">EHLO/λ:0.008</text>
</g>
<!-- q3:0.0&#45;&gt;q4:0.0 -->
<g id="edge21" class="edge">
<title>q3:0.0&#45;&gt;q4:0.0</title>
<path fill="none" stroke="black" d="M523.16,-114.14C530.52,-112.74 538.22,-111.5 545.49,-110.75 587.48,-106.4 635.3,-106.46 670.96,-107.47"/>
<polygon fill="black" stroke="black" points="670.46,-110.96 680.57,-107.77 670.68,-103.96 670.46,-110.96"/>
<text text-anchor="middle" x="605.12" y="-114.95" font-family="Times,serif" font-size="14.00">AUTH/235:1.0</text>
</g>
<!-- q17:0.0&#45;&gt;q17:0.0 -->
<g id="edge22" class="edge">
<title>q17:0.0&#45;&gt;q17:0.0</title>
<path fill="none" stroke="black" d="M1706.8,-210.66C1701.6,-220.62 1709.4,-230 1730,-230 1742.3,-230 1750,-226.69 1753.2,-221.92"/>
<polygon fill="black" stroke="black" points="1756.7,-222.2 1753.29,-212.17 1749.7,-222.14 1756.7,-222.2"/>
<text text-anchor="middle" x="1730" y="-233.94" font-family="Times,serif" font-size="14.00">content/λ:0.961</text>
</g>
<!-- q22:0.0 -->
<g id="node21" class="node">
<title>q22:0.0</title>
<ellipse fill="none" stroke="black" stroke-width="2" cx="1994.8" cy="-248" rx="49.1" ry="18"/>
<text text-anchor="middle" x="1994.8" y="-243.32" font-family="Times,serif" font-size="14.00">q22:0.0</text>
</g>
<!-- q17:0.0&#45;&gt;q22:0.0 -->
<g id="edge23" class="edge">
<title>q17:0.0&#45;&gt;q22:0.0</title>
<path fill="none" stroke="black" d="M1767.5,-206.59C1777.1,-209.62 1787.4,-212.65 1797.2,-215 1843.4,-226.17 1896.6,-234.85 1936.1,-240.51"/>
<polygon fill="black" stroke="black" points="1935.41,-243.95 1945.8,-241.88 1936.39,-237.02 1935.41,-243.95"/>
<text text-anchor="middle" x="1862.4" y="-241.94" font-family="Times,serif" font-size="14.00">content/250:0.035</text>
</g>
<!-- q21:0.0 -->
<g id="node22" class="node">
<title>q21:0.0</title>
<ellipse fill="none" stroke="black" stroke-width="2" cx="1994.8" cy="-194" rx="49.1" ry="18"/>
<text text-anchor="middle" x="1994.8" y="-189.32" font-family="Times,serif" font-size="14.00">q21:0.0</text>
</g>
<!-- q17:0.0&#45;&gt;q21:0.0 -->
<g id="edge24" class="edge">
<title>q17:0.0&#45;&gt;q21:0.0</title>
<path fill="none" stroke="black" d="M1779.8,-194C1823.2,-194 1886.8,-194 1933.3,-194"/>
<polygon fill="black" stroke="black" points="1933.29,-197.5 1943.29,-194 1933.29,-190.5 1933.29,-197.5"/>
<text text-anchor="middle" x="1862.4" y="-197.94" font-family="Times,serif" font-size="14.00">content/554:0.003</text>
</g>
<!-- q20:0.0 -->
<g id="node23" class="node">
<title>q20:0.0</title>
<ellipse fill="none" stroke="black" stroke-width="2" cx="1994.8" cy="-140" rx="49.1" ry="18"/>
<text text-anchor="middle" x="1994.8" y="-135.32" font-family="Times,serif" font-size="14.00">q20:0.0</text>
</g>
<!-- q17:0.0&#45;&gt;q20:0.0 -->
<g id="edge25" class="edge">
<title>q17:0.0&#45;&gt;q20:0.0</title>
<path fill="none" stroke="black" d="M1767.1,-181.35C1776.8,-178.25 1787.3,-175.14 1797.2,-172.75 1843.4,-161.54 1896.6,-152.92 1936,-147.35"/>
<polygon fill="black" stroke="black" points="1936.37,-150.83 1945.8,-146 1935.42,-143.9 1936.37,-150.83"/>
<text text-anchor="middle" x="1862.4" y="-175.94" font-family="Times,serif" font-size="14.00">content/550:0.0</text>
</g>
<!-- q27:1.0 -->
<g id="node24" class="node">
<title>q27:1.0</title>
<ellipse fill="none" stroke="black" stroke-width="2" cx="2227.2" cy="-248" rx="49.1" ry="18"/>
<text text-anchor="middle" x="2227.2" y="-243.32" font-family="Times,serif" font-size="14.00">q27:1.0</text>
</g>
<!-- q22:0.0&#45;&gt;q27:1.0 -->
<g id="edge26" class="edge">
<title>q22:0.0&#45;&gt;q27:1.0</title>
<path fill="none" stroke="black" d="M2044.6,-248C2080.1,-248 2128.2,-248 2166,-248"/>
<polygon fill="black" stroke="black" points="2165.89,-251.5 2175.89,-248 2165.89,-244.5 2165.89,-251.5"/>
<text text-anchor="middle" x="2111" y="-251.94" font-family="Times,serif" font-size="14.00">QUIT/221:1.0</text>
</g>
<!-- q26:1.0 -->
<g id="node25" class="node">
<title>q26:1.0</title>
<ellipse fill="none" stroke="black" stroke-width="2" cx="2227.2" cy="-194" rx="49.1" ry="18"/>
<text text-anchor="middle" x="2227.2" y="-189.32" font-family="Times,serif" font-size="14.00">q26:1.0</text>
</g>
<!-- q21:0.0&#45;&gt;q26:1.0 -->
<g id="edge27" class="edge">
<title>q21:0.0&#45;&gt;q26:1.0</title>
<path fill="none" stroke="black" d="M2044.6,-194C2080.1,-194 2128.2,-194 2166,-194"/>
<polygon fill="black" stroke="black" points="2165.89,-197.5 2175.89,-194 2165.89,-190.5 2165.89,-197.5"/>
<text text-anchor="middle" x="2111" y="-197.94" font-family="Times,serif" font-size="14.00">RSET/250:1.0</text>
</g>
<!-- q25:1.0 -->
<g id="node26" class="node">
<title>q25:1.0</title>
<ellipse fill="none" stroke="black" stroke-width="2" cx="2227.2" cy="-140" rx="49.1" ry="18"/>
<text text-anchor="middle" x="2227.2" y="-135.32" font-family="Times,serif" font-size="14.00">q25:1.0</text>
</g>
<!-- q20:0.0&#45;&gt;q25:1.0 -->
<g id="edge28" class="edge">
<title>q20:0.0&#45;&gt;q25:1.0</title>
<path fill="none" stroke="black" d="M2044.6,-140C2080.1,-140 2128.2,-140 2166,-140"/>
<polygon fill="black" stroke="black" points="2165.89,-143.5 2175.89,-140 2165.89,-136.5 2165.89,-143.5"/>
<text text-anchor="middle" x="2111" y="-143.94" font-family="Times,serif" font-size="14.00">RSET/250:1.0</text>
</g>
</g>
</svg>
