<?xml version="1.0" encoding="UTF-8" standalone="no"?>
<!DOCTYPE svg PUBLIC "-//W3C//DTD SVG 1.1//EN"
 "http://www.w3.org/Graphics/SVG/1.1/DTD/svg11.dtd">
<!-- Generated by graphviz version 12.0.0 (20240803.0821)
 -->
<!-- Pages: 1 -->
<svg width="1784pt" height="252pt"
 viewBox="0.00 0.00 1784.00 252.00" xmlns="http://www.w3.org/2000/svg" xmlns:xlink="http://www.w3.org/1999/xlink">
<g id="graph0" class="graph" transform="scale(1 1) rotate(0) translate(4 248)">
<polygon fill="white" stroke="none" points="-4,4 -4,-248 1780,-248 1780,4 -4,4"/>
<!-- q13:0.667 -->
<g id="node1" class="node">
<title>q13:0.667</title>
<ellipse fill="none" stroke="black" stroke-width="2" cx="1217.1" cy="-224" rx="61.73" ry="18"/>
<text text-anchor="middle" x="1217.1" y="-219.32" font-family="Times,serif" font-size="14.00">q13:0.667</text>
</g>
<!-- q17:1.0 -->
<g id="node2" class="node">
<title>q17:1.0</title>
<ellipse fill="none" stroke="black" stroke-width="2" cx="1494.5" cy="-226" rx="49.1" ry="18"/>
<text text-anchor="middle" x="1494.5" y="-221.32" font-family="Times,serif" font-size="14.00">q17:1.0</text>
</g>
<!-- q13:0.667&#45;&gt;q17:1.0 -->
<g id="edge1" class="edge">
<title>q13:0.667&#45;&gt;q17:1.0</title>
<path fill="none" stroke="black" d="M1279.6,-224.45C1325.4,-224.78 1387.6,-225.23 1433.1,-225.56"/>
<polygon fill="black" stroke="black" points="1433.06,-229.06 1443.09,-225.63 1433.11,-222.06 1433.06,-229.06"/>
<text text-anchor="middle" x="1362.1" y="-228.94" font-family="Times,serif" font-size="14.00">λ/451:0.333</text>
</g>
<!-- q12:0.0 -->
<g id="node3" class="node">
<title>q12:0.0</title>
<ellipse fill="none" stroke="black" stroke-width="2" cx="1217.1" cy="-126" rx="49.1" ry="18"/>
<text text-anchor="middle" x="1217.1" y="-121.33" font-family="Times,serif" font-size="14.00">q12:0.0</text>
</g>
<!-- q12:0.0&#45;&gt;q12:0.0 -->
<g id="edge2" class="edge">
<title>q12:0.0&#45;&gt;q12:0.0</title>
<path fill="none" stroke="black" d="M1193.2,-142.29C1187.5,-152.39 1195.4,-162 1217.1,-162 1230,-162 1238.1,-158.61 1241.3,-153.74"/>
<polygon fill="black" stroke="black" points="1244.8,-153.71 1241.04,-143.8 1237.8,-153.89 1244.8,-153.71"/>
<text text-anchor="middle" x="1217.1" y="-165.94" font-family="Times,serif" font-size="14.00">content/λ:0.943</text>
</g>
<!-- q16:0.0 -->
<g id="node4" class="node">
<title>q16:0.0</title>
<ellipse fill="none" stroke="black" stroke-width="2" cx="1494.5" cy="-172" rx="49.1" ry="18"/>
<text text-anchor="middle" x="1494.5" y="-167.32" font-family="Times,serif" font-size="14.00">q16:0.0</text>
</g>
<!-- q12:0.0&#45;&gt;q16:0.0 -->
<g id="edge3" class="edge">
<title>q12:0.0&#45;&gt;q16:0.0</title>
<path fill="none" stroke="black" d="M1259.3,-136.09C1271.3,-138.86 1284.6,-141.73 1296.9,-144 1343.3,-152.6 1396.3,-160.01 1435.6,-165.05"/>
<polygon fill="black" stroke="black" points="1434.94,-168.49 1445.3,-166.28 1435.82,-161.55 1434.94,-168.49"/>
<text text-anchor="middle" x="1362.1" y="-166.94" font-family="Times,serif" font-size="14.00">content/550:0.0</text>
</g>
<!-- q15:0.0 -->
<g id="node5" class="node">
<title>q15:0.0</title>
<ellipse fill="none" stroke="black" stroke-width="2" cx="1494.5" cy="-118" rx="49.1" ry="18"/>
<text text-anchor="middle" x="1494.5" y="-113.33" font-family="Times,serif" font-size="14.00">q15:0.0</text>
</g>
<!-- q12:0.0&#45;&gt;q15:0.0 -->
<g id="edge4" class="edge">
<title>q12:0.0&#45;&gt;q15:0.0</title>
<path fill="none" stroke="black" d="M1267,-124.58C1313.5,-123.23 1383.4,-121.2 1433.3,-119.75"/>
<polygon fill="black" stroke="black" points="1433.19,-123.25 1443.09,-119.46 1432.99,-116.26 1433.19,-123.25"/>
<text text-anchor="middle" x="1362.1" y="-126.95" font-family="Times,serif" font-size="14.00">content/250:0.037</text>
</g>
<!-- q14:0.0 -->
<g id="node6" class="node">
<title>q14:0.0</title>
<ellipse fill="none" stroke="black" stroke-width="2" cx="1494.5" cy="-64" rx="49.1" ry="18"/>
<text text-anchor="middle" x="1494.5" y="-59.33" font-family="Times,serif" font-size="14.00">q14:0.0</text>
</g>
<!-- q12:0.0&#45;&gt;q14:0.0 -->
<g id="edge5" class="edge">
<title>q12:0.0&#45;&gt;q14:0.0</title>
<path fill="none" stroke="black" d="M1251.8,-112.45C1265.6,-107.29 1281.8,-101.7 1296.9,-97.75 1342.9,-85.64 1396.2,-76.81 1435.6,-71.22"/>
<polygon fill="black" stroke="black" points="1435.97,-74.7 1445.4,-69.87 1435.02,-67.77 1435.97,-74.7"/>
<text text-anchor="middle" x="1362.1" y="-100.95" font-family="Times,serif" font-size="14.00">content/554:0.019</text>
</g>
<!-- q20:1.0 -->
<g id="node7" class="node">
<title>q20:1.0</title>
<ellipse fill="none" stroke="black" stroke-width="2" cx="1726.9" cy="-172" rx="49.1" ry="18"/>
<text text-anchor="middle" x="1726.9" y="-167.32" font-family="Times,serif" font-size="14.00">q20:1.0</text>
</g>
<!-- q16:0.0&#45;&gt;q20:1.0 -->
<g id="edge6" class="edge">
<title>q16:0.0&#45;&gt;q20:1.0</title>
<path fill="none" stroke="black" d="M1544.3,-172C1579.8,-172 1627.9,-172 1665.7,-172"/>
<polygon fill="black" stroke="black" points="1665.59,-175.5 1675.59,-172 1665.59,-168.5 1665.59,-175.5"/>
<text text-anchor="middle" x="1610.7" y="-175.94" font-family="Times,serif" font-size="14.00">RSET/250:1.0</text>
</g>
<!-- q19:1.0 -->
<g id="node8" class="node">
<title>q19:1.0</title>
<ellipse fill="none" stroke="black" stroke-width="2" cx="1726.9" cy="-118" rx="49.1" ry="18"/>
<text text-anchor="middle" x="1726.9" y="-113.33" font-family="Times,serif" font-size="14.00">q19:1.0</text>
</g>
<!-- q15:0.0&#45;&gt;q19:1.0 -->
<g id="edge7" class="edge">
<title>q15:0.0&#45;&gt;q19:1.0</title>
<path fill="none" stroke="black" d="M1544.3,-118C1579.8,-118 1627.9,-118 1665.7,-118"/>
<polygon fill="black" stroke="black" points="1665.59,-121.5 1675.59,-118 1665.59,-114.5 1665.59,-121.5"/>
<text text-anchor="middle" x="1610.7" y="-121.95" font-family="Times,serif" font-size="14.00">QUIT/221:1.0</text>
</g>
<!-- q18:1.0 -->
<g id="node9" class="node">
<title>q18:1.0</title>
<ellipse fill="none" stroke="black" stroke-width="2" cx="1726.9" cy="-64" rx="49.1" ry="18"/>
<text text-anchor="middle" x="1726.9" y="-59.33" font-family="Times,serif" font-size="14.00">q18:1.0</text>
</g>
<!-- q14:0.0&#45;&gt;q18:1.0 -->
<g id="edge8" class="edge">
<title>q14:0.0&#45;&gt;q18:1.0</title>
<path fill="none" stroke="black" d="M1544.3,-64C1579.8,-64 1627.9,-64 1665.7,-64"/>
<polygon fill="black" stroke="black" points="1665.59,-67.5 1675.59,-64 1665.59,-60.5 1665.59,-67.5"/>
<text text-anchor="middle" x="1610.7" y="-67.95" font-family="Times,serif" font-size="14.00">RSET/250:1.0</text>
</g>
<!-- q1:0.0 -->
<g id="node10" class="node">
<title>q1:0.0</title>
<ellipse fill="none" stroke="black" stroke-width="2" cx="243.87" cy="-73" rx="42.79" ry="18"/>
<text text-anchor="middle" x="243.87" y="-68.33" font-family="Times,serif" font-size="14.00">q1:0.0</text>
</g>
<!-- q3:0.0 -->
<g id="node11" class="node">
<title>q3:0.0</title>
<ellipse fill="none" stroke="black" stroke-width="2" cx="484.7" cy="-106" rx="42.79" ry="18"/>
<text text-anchor="middle" x="484.7" y="-101.33" font-family="Times,serif" font-size="14.00">q3:0.0</text>
</g>
<!-- q1:0.0&#45;&gt;q3:0.0 -->
<g id="edge9" class="edge">
<title>q1:0.0&#45;&gt;q3:0.0</title>
<path fill="none" stroke="black" d="M285.66,-78.64C326.01,-84.21 387.94,-92.77 431.79,-98.83"/>
<polygon fill="black" stroke="black" points="431.19,-102.28 441.58,-100.18 432.15,-95.34 431.19,-102.28"/>
<text text-anchor="middle" x="364.29" y="-100.95" font-family="Times,serif" font-size="14.00">EHLO/250:0.992</text>
</g>
<!-- q2:0.0 -->
<g id="node12" class="node">
<title>q2:0.0</title>
<ellipse fill="none" stroke="black" stroke-width="2" cx="484.7" cy="-46" rx="42.79" ry="18"/>
<text text-anchor="middle" x="484.7" y="-41.33" font-family="Times,serif" font-size="14.00">q2:0.0</text>
</g>
<!-- q1:0.0&#45;&gt;q2:0.0 -->
<g id="edge10" class="edge">
<title>q1:0.0&#45;&gt;q2:0.0</title>
<path fill="none" stroke="black" d="M282.04,-63.91C289.49,-62.33 297.3,-60.84 304.66,-59.75 346.54,-53.53 394.37,-50.04 430.05,-48.14"/>
<polygon fill="black" stroke="black" points="429.87,-51.65 439.68,-47.65 429.51,-44.66 429.87,-51.65"/>
<text text-anchor="middle" x="364.29" y="-63.95" font-family="Times,serif" font-size="14.00">EHLO/λ:0.008</text>
</g>
<!-- q6:0.0 -->
<g id="node13" class="node">
<title>q6:0.0</title>
<ellipse fill="none" stroke="black" stroke-width="2" cx="725.53" cy="-109" rx="42.79" ry="18"/>
<text text-anchor="middle" x="725.53" y="-104.33" font-family="Times,serif" font-size="14.00">q6:0.0</text>
</g>
<!-- q3:0.0&#45;&gt;q6:0.0 -->
<g id="edge11" class="edge">
<title>q3:0.0&#45;&gt;q6:0.0</title>
<path fill="none" stroke="black" d="M528.4,-106.54C568.1,-107.03 627.41,-107.78 670.41,-108.32"/>
<polygon fill="black" stroke="black" points="670.24,-111.82 680.29,-108.44 670.33,-104.82 670.24,-111.82"/>
<text text-anchor="middle" x="605.12" y="-111.95" font-family="Times,serif" font-size="14.00">AUTH/λ:0.004</text>
</g>
<!-- q5:0.0 -->
<g id="node14" class="node">
<title>q5:0.0</title>
<ellipse fill="none" stroke="black" stroke-width="2" cx="725.53" cy="-163" rx="42.79" ry="18"/>
<text text-anchor="middle" x="725.53" y="-158.32" font-family="Times,serif" font-size="14.00">q5:0.0</text>
</g>
<!-- q3:0.0&#45;&gt;q5:0.0 -->
<g id="edge12" class="edge">
<title>q3:0.0&#45;&gt;q5:0.0</title>
<path fill="none" stroke="black" d="M516.37,-119.01C525.62,-122.6 535.86,-126.26 545.49,-129 587.64,-141 636.59,-149.97 672.64,-155.67"/>
<polygon fill="black" stroke="black" points="671.96,-159.11 682.37,-157.18 673.03,-152.19 671.96,-159.11"/>
<text text-anchor="middle" x="605.12" y="-157.94" font-family="Times,serif" font-size="14.00">AUTH/535:0.05</text>
</g>
<!-- q4:0.0 -->
<g id="node15" class="node">
<title>q4:0.0</title>
<ellipse fill="none" stroke="black" stroke-width="2" cx="725.53" cy="-39" rx="42.79" ry="18"/>
<text text-anchor="middle" x="725.53" y="-34.33" font-family="Times,serif" font-size="14.00">q4:0.0</text>
</g>
<!-- q3:0.0&#45;&gt;q4:0.0 -->
<g id="edge13" class="edge">
<title>q3:0.0&#45;&gt;q4:0.0</title>
<path fill="none" stroke="black" d="M518.1,-93.88C526.93,-90.74 536.53,-87.48 545.49,-84.75 589.29,-71.4 639.91,-58.71 676.12,-50.1"/>
<polygon fill="black" stroke="black" points="676.48,-53.61 685.41,-47.91 674.87,-46.8 676.48,-53.61"/>
<text text-anchor="middle" x="605.12" y="-87.95" font-family="Times,serif" font-size="14.00">AUTH/235:0.946</text>
</g>
<!-- q2:0.0&#45;&gt;q4:0.0 -->
<g id="edge14" class="edge">
<title>q2:0.0&#45;&gt;q4:0.0</title>
<path fill="none" stroke="black" d="M523.16,-37.12C530.52,-35.72 538.22,-34.49 545.49,-33.75 587.93,-29.45 636.28,-31.26 672.04,-33.88"/>
<polygon fill="black" stroke="black" points="671.43,-37.34 681.67,-34.63 671.97,-30.36 671.43,-37.34"/>
<text text-anchor="middle" x="605.12" y="-37.95" font-family="Times,serif" font-size="14.00">AUTH/235:1.0</text>
</g>
<!-- q8:0.0 -->
<g id="node16" class="node">
<title>q8:0.0</title>
<ellipse fill="none" stroke="black" stroke-width="2" cx="961.86" cy="-74" rx="42.79" ry="18"/>
<text text-anchor="middle" x="961.86" y="-69.33" font-family="Times,serif" font-size="14.00">q8:0.0</text>
</g>
<!-- q6:0.0&#45;&gt;q8:0.0 -->
<g id="edge15" class="edge">
<title>q6:0.0&#45;&gt;q8:0.0</title>
<path fill="none" stroke="black" d="M767.95,-104.83C803.41,-101 855.77,-94.77 901.07,-87 904.63,-86.39 908.3,-85.71 911.99,-85"/>
<polygon fill="black" stroke="black" points="912.42,-88.48 921.53,-83.06 911.03,-81.62 912.42,-88.48"/>
<text text-anchor="middle" x="843.7" y="-105.95" font-family="Times,serif" font-size="14.00">MAIL/250:1.0</text>
</g>
<!-- q9:0.0 -->
<g id="node17" class="node">
<title>q9:0.0</title>
<ellipse fill="none" stroke="black" stroke-width="2" cx="961.86" cy="-165" rx="42.79" ry="18"/>
<text text-anchor="middle" x="961.86" y="-160.32" font-family="Times,serif" font-size="14.00">q9:0.0</text>
</g>
<!-- q5:0.0&#45;&gt;q9:0.0 -->
<g id="edge16" class="edge">
<title>q5:0.0&#45;&gt;q9:0.0</title>
<path fill="none" stroke="black" d="M769.24,-163.36C807.97,-163.7 865.24,-164.18 907.08,-164.54"/>
<polygon fill="black" stroke="black" points="906.91,-168.04 916.94,-164.63 906.97,-161.04 906.91,-168.04"/>
<text text-anchor="middle" x="843.7" y="-167.94" font-family="Times,serif" font-size="14.00">AUTH/334:1.0</text>
</g>
<!-- q4:0.0&#45;&gt;q8:0.0 -->
<g id="edge17" class="edge">
<title>q4:0.0&#45;&gt;q8:0.0</title>
<path fill="none" stroke="black" d="M766.81,-45.02C806.25,-50.91 866.49,-59.91 909.38,-66.31"/>
<polygon fill="black" stroke="black" points="908.8,-69.76 919.21,-67.78 909.84,-62.84 908.8,-69.76"/>
<text text-anchor="middle" x="843.7" y="-68.95" font-family="Times,serif" font-size="14.00">MAIL/250:0.987</text>
</g>
<!-- q7:0.0 -->
<g id="node18" class="node">
<title>q7:0.0</title>
<ellipse fill="none" stroke="black" stroke-width="2" cx="961.86" cy="-19" rx="42.79" ry="18"/>
<text text-anchor="middle" x="961.86" y="-14.32" font-family="Times,serif" font-size="14.00">q7:0.0</text>
</g>
<!-- q4:0.0&#45;&gt;q7:0.0 -->
<g id="edge18" class="edge">
<title>q4:0.0&#45;&gt;q7:0.0</title>
<path fill="none" stroke="black" d="M765.01,-30.96C772.07,-29.72 779.4,-28.57 786.32,-27.75 826.66,-22.97 872.53,-20.79 907.13,-19.81"/>
<polygon fill="black" stroke="black" points="906.98,-23.31 916.89,-19.56 906.8,-16.32 906.98,-23.31"/>
<text text-anchor="middle" x="843.7" y="-31.95" font-family="Times,serif" font-size="14.00">MAIL/553:0.013</text>
</g>
<!-- q8:0.0&#45;&gt;q12:0.0 -->
<g id="edge19" class="edge">
<title>q8:0.0&#45;&gt;q12:0.0</title>
<path fill="none" stroke="black" d="M995.48,-85.95C1004.2,-88.87 1013.7,-91.78 1022.7,-94 1067.8,-105.2 1119.8,-113.56 1158.5,-118.91"/>
<polygon fill="black" stroke="black" points="1157.72,-122.34 1168.1,-120.21 1158.66,-115.4 1157.72,-122.34"/>
<text text-anchor="middle" x="1080" y="-118.95" font-family="Times,serif" font-size="14.00">DATA/354:0.305</text>
</g>
<!-- q8:0.0&#45;&gt;q8:0.0 -->
<g id="edge20" class="edge">
<title>q8:0.0&#45;&gt;q8:0.0</title>
<path fill="none" stroke="black" d="M941.09,-90.66C936.48,-100.62 943.4,-110 961.86,-110 972.83,-110 979.72,-106.69 982.55,-101.92"/>
<polygon fill="black" stroke="black" points="986.05,-102.2 982.62,-92.18 979.05,-102.15 986.05,-102.2"/>
<text text-anchor="middle" x="961.86" y="-113.95" font-family="Times,serif" font-size="14.00">RCPT/250:0.634</text>
</g>
<!-- q11:1.0 -->
<g id="node19" class="node">
<title>q11:1.0</title>
<ellipse fill="none" stroke="black" stroke-width="2" cx="1217.1" cy="-72" rx="49.1" ry="18"/>
<text text-anchor="middle" x="1217.1" y="-67.33" font-family="Times,serif" font-size="14.00">q11:1.0</text>
</g>
<!-- q8:0.0&#45;&gt;q11:1.0 -->
<g id="edge21" class="edge">
<title>q8:0.0&#45;&gt;q11:1.0</title>
<path fill="none" stroke="black" d="M1005.5,-73.66C1046.7,-73.34 1109.5,-72.84 1155.8,-72.48"/>
<polygon fill="black" stroke="black" points="1155.71,-75.98 1165.69,-72.4 1155.66,-68.98 1155.71,-75.98"/>
<text text-anchor="middle" x="1080" y="-76.95" font-family="Times,serif" font-size="14.00">DATA/550:0.061</text>
</g>
<!-- q9:0.0&#45;&gt;q13:0.667 -->
<g id="edge22" class="edge">
<title>q9:0.0&#45;&gt;q13:0.667</title>
<path fill="none" stroke="black" d="M1000.51,-173.77C1041.7,-183.36 1108.2,-198.86 1156.5,-210.11"/>
<polygon fill="black" stroke="black" points="1155.39,-213.45 1165.93,-212.31 1156.98,-206.63 1155.39,-213.45"/>
<text text-anchor="middle" x="1080" y="-207.94" font-family="Times,serif" font-size="14.00">content/535:1.0</text>
</g>
<!-- q10:1.0 -->
<g id="node20" class="node">
<title>q10:1.0</title>
<ellipse fill="none" stroke="black" stroke-width="2" cx="1217.1" cy="-18" rx="49.1" ry="18"/>
<text text-anchor="middle" x="1217.1" y="-13.32" font-family="Times,serif" font-size="14.00">q10:1.0</text>
</g>
<!-- q7:0.0&#45;&gt;q10:1.0 -->
<g id="edge23" class="edge">
<title>q7:0.0&#45;&gt;q10:1.0</title>
<path fill="none" stroke="black" d="M1005.5,-18.83C1046.7,-18.67 1109.5,-18.42 1155.8,-18.24"/>
<polygon fill="black" stroke="black" points="1155.7,-21.74 1165.69,-18.2 1155.67,-14.74 1155.7,-21.74"/>
<text text-anchor="middle" x="1080" y="-22.95" font-family="Times,serif" font-size="14.00">RSET/250:1.0</text>
</g>
<!-- q0:0.0 -->
<g id="node21" class="node">
<title>q0:0.0</title>
<ellipse fill="none" stroke="black" stroke-width="2" cx="50.79" cy="-73" rx="46.79" ry="46.79"/>
<ellipse fill="none" stroke="black" stroke-width="2" cx="50.79" cy="-73" rx="50.79" ry="50.79"/>
<text text-anchor="middle" x="50.79" y="-68.33" font-family="Times,serif" font-size="14.00">q0:0.0</text>
</g>
<!-- q0:0.0&#45;&gt;q1:0.0 -->
<g id="edge24" class="edge">
<title>q0:0.0&#45;&gt;q1:0.0</title>
<path fill="none" stroke="black" d="M98.53,-73C125.82,-73 160.37,-73 188.82,-73"/>
<polygon fill="black" stroke="black" points="188.69,-76.5 198.69,-73 188.69,-69.5 188.69,-76.5"/>
<text text-anchor="middle" x="149.33" y="-76.95" font-family="Times,serif" font-size="14.00">λ/220:1.0</text>
</g>
</g>
</svg>
