<?xml version="1.0" encoding="UTF-8" standalone="no"?>
<!DOCTYPE svg PUBLIC "-//W3C//DTD SVG 1.1//EN"
 "http://www.w3.org/Graphics/SVG/1.1/DTD/svg11.dtd">
<!-- Generated by graphviz version 12.0.0 (20240803.0821)
 -->
<!-- Pages: 1 -->
<svg width="1784pt" height="268pt"
 viewBox="0.00 0.00 1784.00 268.00" xmlns="http://www.w3.org/2000/svg" xmlns:xlink="http://www.w3.org/1999/xlink">
<g id="graph0" class="graph" transform="scale(1 1) rotate(0) translate(4 264)">
<polygon fill="white" stroke="none" points="-4,4 -4,-264 1780,-264 1780,4 -4,4"/>
<!-- q8:0.0 -->
<g id="node1" class="node">
<title>q8:0.0</title>
<ellipse fill="none" stroke="black" stroke-width="2" cx="961.86" cy="-131" rx="42.79" ry="18"/>
<text text-anchor="middle" x="961.86" y="-126.33" font-family="Times,serif" font-size="14.00">q8:0.0</text>
</g>
<!-- q8:0.0&#45;&gt;q8:0.0 -->
<g id="edge1" class="edge">
<title>q8:0.0&#45;&gt;q8:0.0</title>
<path fill="none" stroke="black" d="M941.09,-147.66C936.48,-157.62 943.4,-167 961.86,-167 972.83,-167 979.72,-163.69 982.55,-158.92"/>
<polygon fill="black" stroke="black" points="986.05,-159.2 982.62,-149.17 979.05,-159.15 986.05,-159.2"/>
<text text-anchor="middle" x="961.86" y="-170.94" font-family="Times,serif" font-size="14.00">RCPT/250:0.634</text>
</g>
<!-- q12:0.0 -->
<g id="node2" class="node">
<title>q12:0.0</title>
<ellipse fill="none" stroke="black" stroke-width="2" cx="1217.1" cy="-99" rx="49.1" ry="18"/>
<text text-anchor="middle" x="1217.1" y="-94.33" font-family="Times,serif" font-size="14.00">q12:0.0</text>
</g>
<!-- q8:0.0&#45;&gt;q12:0.0 -->
<g id="edge2" class="edge">
<title>q8:0.0&#45;&gt;q12:0.0</title>
<path fill="none" stroke="black" d="M1003.84,-125.82C1045.7,-120.53 1111.2,-112.26 1158.4,-106.3"/>
<polygon fill="black" stroke="black" points="1158.62,-109.8 1168.1,-105.07 1157.74,-102.86 1158.62,-109.8"/>
<text text-anchor="middle" x="1080" y="-127.95" font-family="Times,serif" font-size="14.00">DATA/354:0.297</text>
</g>
<!-- q11:1.0 -->
<g id="node3" class="node">
<title>q11:1.0</title>
<ellipse fill="none" stroke="black" stroke-width="2" cx="1217.1" cy="-188" rx="49.1" ry="18"/>
<text text-anchor="middle" x="1217.1" y="-183.32" font-family="Times,serif" font-size="14.00">q11:1.0</text>
</g>
<!-- q8:0.0&#45;&gt;q11:1.0 -->
<g id="edge3" class="edge">
<title>q8:0.0&#45;&gt;q11:1.0</title>
<path fill="none" stroke="black" d="M1000.48,-139.88C1007.8,-141.59 1015.5,-143.36 1022.7,-145 1070,-155.8 1123.9,-167.75 1162.8,-176.31"/>
<polygon fill="black" stroke="black" points="1161.8,-179.67 1172.32,-178.41 1163.31,-172.84 1161.8,-179.67"/>
<text text-anchor="middle" x="1080" y="-172.94" font-family="Times,serif" font-size="14.00">DATA/550:0.068</text>
</g>
<!-- q12:0.0&#45;&gt;q12:0.0 -->
<g id="edge4" class="edge">
<title>q12:0.0&#45;&gt;q12:0.0</title>
<path fill="none" stroke="black" d="M1193.2,-115.29C1187.5,-125.39 1195.4,-135 1217.1,-135 1230,-135 1238.1,-131.61 1241.3,-126.74"/>
<polygon fill="black" stroke="black" points="1244.8,-126.71 1241.04,-116.8 1237.8,-126.89 1244.8,-126.71"/>
<text text-anchor="middle" x="1217.1" y="-138.94" font-family="Times,serif" font-size="14.00">content/λ:0.944</text>
</g>
<!-- q16:0.0 -->
<g id="node4" class="node">
<title>q16:0.0</title>
<ellipse fill="none" stroke="black" stroke-width="2" cx="1494.5" cy="-126" rx="49.1" ry="18"/>
<text text-anchor="middle" x="1494.5" y="-121.33" font-family="Times,serif" font-size="14.00">q16:0.0</text>
</g>
<!-- q12:0.0&#45;&gt;q16:0.0 -->
<g id="edge5" class="edge">
<title>q12:0.0&#45;&gt;q16:0.0</title>
<path fill="none" stroke="black" d="M1265.5,-103.64C1312.4,-108.24 1384.4,-115.3 1434.9,-120.26"/>
<polygon fill="black" stroke="black" points="1434.5,-123.74 1444.79,-121.22 1435.18,-116.77 1434.5,-123.74"/>
<text text-anchor="middle" x="1362.1" y="-123.95" font-family="Times,serif" font-size="14.00">content/550:0.0</text>
</g>
<!-- q14:0.0 -->
<g id="node5" class="node">
<title>q14:0.0</title>
<ellipse fill="none" stroke="black" stroke-width="2" cx="1494.5" cy="-72" rx="49.1" ry="18"/>
<text text-anchor="middle" x="1494.5" y="-67.33" font-family="Times,serif" font-size="14.00">q14:0.0</text>
</g>
<!-- q12:0.0&#45;&gt;q14:0.0 -->
<g id="edge6" class="edge">
<title>q12:0.0&#45;&gt;q14:0.0</title>
<path fill="none" stroke="black" d="M1262.2,-90.82C1273.4,-88.93 1285.6,-87.09 1296.9,-85.75 1342.5,-80.32 1394.4,-76.8 1433.5,-74.69"/>
<polygon fill="black" stroke="black" points="1433.59,-78.19 1443.39,-74.17 1433.22,-71.2 1433.59,-78.19"/>
<text text-anchor="middle" x="1362.1" y="-89.95" font-family="Times,serif" font-size="14.00">content/250:0.038</text>
</g>
<!-- q15:0.0 -->
<g id="node6" class="node">
<title>q15:0.0</title>
<ellipse fill="none" stroke="black" stroke-width="2" cx="1494.5" cy="-180" rx="49.1" ry="18"/>
<text text-anchor="middle" x="1494.5" y="-175.32" font-family="Times,serif" font-size="14.00">q15:0.0</text>
</g>
<!-- q12:0.0&#45;&gt;q15:0.0 -->
<g id="edge7" class="edge">
<title>q12:0.0&#45;&gt;q15:0.0</title>
<path fill="none" stroke="black" d="M1243.5,-115C1258.5,-123.83 1278.2,-134.33 1296.9,-141 1342.1,-157.13 1395.6,-167.2 1435.4,-173.06"/>
<polygon fill="black" stroke="black" points="1434.91,-176.53 1445.3,-174.46 1435.89,-169.59 1434.91,-176.53"/>
<text text-anchor="middle" x="1362.1" y="-174.94" font-family="Times,serif" font-size="14.00">content/554:0.018</text>
</g>
<!-- q20:1.0 -->
<g id="node7" class="node">
<title>q20:1.0</title>
<ellipse fill="none" stroke="black" stroke-width="2" cx="1726.9" cy="-126" rx="49.1" ry="18"/>
<text text-anchor="middle" x="1726.9" y="-121.33" font-family="Times,serif" font-size="14.00">q20:1.0</text>
</g>
<!-- q16:0.0&#45;&gt;q20:1.0 -->
<g id="edge8" class="edge">
<title>q16:0.0&#45;&gt;q20:1.0</title>
<path fill="none" stroke="black" d="M1544.3,-126C1579.8,-126 1627.9,-126 1665.7,-126"/>
<polygon fill="black" stroke="black" points="1665.59,-129.5 1675.59,-126 1665.59,-122.5 1665.59,-129.5"/>
<text text-anchor="middle" x="1610.7" y="-129.94" font-family="Times,serif" font-size="14.00">RSET/250:1.0</text>
</g>
<!-- q18:1.0 -->
<g id="node8" class="node">
<title>q18:1.0</title>
<ellipse fill="none" stroke="black" stroke-width="2" cx="1726.9" cy="-72" rx="49.1" ry="18"/>
<text text-anchor="middle" x="1726.9" y="-67.33" font-family="Times,serif" font-size="14.00">q18:1.0</text>
</g>
<!-- q14:0.0&#45;&gt;q18:1.0 -->
<g id="edge9" class="edge">
<title>q14:0.0&#45;&gt;q18:1.0</title>
<path fill="none" stroke="black" d="M1544.3,-72C1579.8,-72 1627.9,-72 1665.7,-72"/>
<polygon fill="black" stroke="black" points="1665.59,-75.5 1675.59,-72 1665.59,-68.5 1665.59,-75.5"/>
<text text-anchor="middle" x="1610.7" y="-75.95" font-family="Times,serif" font-size="14.00">QUIT/221:1.0</text>
</g>
<!-- q19:1.0 -->
<g id="node9" class="node">
<title>q19:1.0</title>
<ellipse fill="none" stroke="black" stroke-width="2" cx="1726.9" cy="-180" rx="49.1" ry="18"/>
<text text-anchor="middle" x="1726.9" y="-175.32" font-family="Times,serif" font-size="14.00">q19:1.0</text>
</g>
<!-- q15:0.0&#45;&gt;q19:1.0 -->
<g id="edge10" class="edge">
<title>q15:0.0&#45;&gt;q19:1.0</title>
<path fill="none" stroke="black" d="M1544.3,-180C1579.8,-180 1627.9,-180 1665.7,-180"/>
<polygon fill="black" stroke="black" points="1665.59,-183.5 1675.59,-180 1665.59,-176.5 1665.59,-183.5"/>
<text text-anchor="middle" x="1610.7" y="-183.94" font-family="Times,serif" font-size="14.00">RSET/250:1.0</text>
</g>
<!-- q2:0.0 -->
<g id="node10" class="node">
<title>q2:0.0</title>
<ellipse fill="none" stroke="black" stroke-width="2" cx="484.7" cy="-183" rx="42.79" ry="18"/>
<text text-anchor="middle" x="484.7" y="-178.32" font-family="Times,serif" font-size="14.00">q2:0.0</text>
</g>
<!-- q4:0.0 -->
<g id="node11" class="node">
<title>q4:0.0</title>
<ellipse fill="none" stroke="black" stroke-width="2" cx="725.53" cy="-177" rx="42.79" ry="18"/>
<text text-anchor="middle" x="725.53" y="-172.32" font-family="Times,serif" font-size="14.00">q4:0.0</text>
</g>
<!-- q2:0.0&#45;&gt;q4:0.0 -->
<g id="edge11" class="edge">
<title>q2:0.0&#45;&gt;q4:0.0</title>
<path fill="none" stroke="black" d="M528.4,-181.93C568.22,-180.93 627.78,-179.43 670.81,-178.35"/>
<polygon fill="black" stroke="black" points="670.78,-181.85 680.69,-178.1 670.6,-174.85 670.78,-181.85"/>
<text text-anchor="middle" x="605.12" y="-184.94" font-family="Times,serif" font-size="14.00">AUTH/235:1.0</text>
</g>
<!-- q4:0.0&#45;&gt;q8:0.0 -->
<g id="edge12" class="edge">
<title>q4:0.0&#45;&gt;q8:0.0</title>
<path fill="none" stroke="black" d="M766.15,-170.3C801.6,-164.18 854.93,-154.63 901.07,-145 904.84,-144.21 908.73,-143.37 912.64,-142.5"/>
<polygon fill="black" stroke="black" points="913.15,-145.97 922.13,-140.35 911.61,-139.15 913.15,-145.97"/>
<text text-anchor="middle" x="843.7" y="-169.94" font-family="Times,serif" font-size="14.00">MAIL/250:0.991</text>
</g>
<!-- q7:0.0 -->
<g id="node12" class="node">
<title>q7:0.0</title>
<ellipse fill="none" stroke="black" stroke-width="2" cx="961.86" cy="-227" rx="42.79" ry="18"/>
<text text-anchor="middle" x="961.86" y="-222.32" font-family="Times,serif" font-size="14.00">q7:0.0</text>
</g>
<!-- q4:0.0&#45;&gt;q7:0.0 -->
<g id="edge13" class="edge">
<title>q4:0.0&#45;&gt;q7:0.0</title>
<path fill="none" stroke="black" d="M764.96,-185.2C804.89,-193.72 867.53,-207.08 911.19,-216.4"/>
<polygon fill="black" stroke="black" points="910.42,-219.81 920.93,-218.48 911.88,-212.97 910.42,-219.81"/>
<text text-anchor="middle" x="843.7" y="-216.94" font-family="Times,serif" font-size="14.00">MAIL/553:0.009</text>
</g>
<!-- q10:1.0 -->
<g id="node13" class="node">
<title>q10:1.0</title>
<ellipse fill="none" stroke="black" stroke-width="2" cx="1217.1" cy="-242" rx="49.1" ry="18"/>
<text text-anchor="middle" x="1217.1" y="-237.32" font-family="Times,serif" font-size="14.00">q10:1.0</text>
</g>
<!-- q7:0.0&#45;&gt;q10:1.0 -->
<g id="edge14" class="edge">
<title>q7:0.0&#45;&gt;q10:1.0</title>
<path fill="none" stroke="black" d="M1005.3,-229.51C1046.7,-231.96 1110.1,-235.72 1156.6,-238.47"/>
<polygon fill="black" stroke="black" points="1156.3,-241.96 1166.49,-239.06 1156.71,-234.97 1156.3,-241.96"/>
<text text-anchor="middle" x="1080" y="-240.94" font-family="Times,serif" font-size="14.00">RSET/250:1.0</text>
</g>
<!-- q1:0.0 -->
<g id="node14" class="node">
<title>q1:0.0</title>
<ellipse fill="none" stroke="black" stroke-width="2" cx="243.87" cy="-150" rx="42.79" ry="18"/>
<text text-anchor="middle" x="243.87" y="-145.32" font-family="Times,serif" font-size="14.00">q1:0.0</text>
</g>
<!-- q1:0.0&#45;&gt;q2:0.0 -->
<g id="edge15" class="edge">
<title>q1:0.0&#45;&gt;q2:0.0</title>
<path fill="none" stroke="black" d="M285.66,-155.64C326.01,-161.21 387.94,-169.77 431.79,-175.83"/>
<polygon fill="black" stroke="black" points="431.19,-179.28 441.58,-177.18 432.15,-172.35 431.19,-179.28"/>
<text text-anchor="middle" x="364.29" y="-177.94" font-family="Times,serif" font-size="14.00">EHLO/λ:0.008</text>
</g>
<!-- q3:0.0 -->
<g id="node15" class="node">
<title>q3:0.0</title>
<ellipse fill="none" stroke="black" stroke-width="2" cx="484.7" cy="-123" rx="42.79" ry="18"/>
<text text-anchor="middle" x="484.7" y="-118.33" font-family="Times,serif" font-size="14.00">q3:0.0</text>
</g>
<!-- q1:0.0&#45;&gt;q3:0.0 -->
<g id="edge16" class="edge">
<title>q1:0.0&#45;&gt;q3:0.0</title>
<path fill="none" stroke="black" d="M282.04,-140.91C289.49,-139.33 297.3,-137.84 304.66,-136.75 346.54,-130.53 394.37,-127.04 430.05,-125.14"/>
<polygon fill="black" stroke="black" points="429.87,-128.65 439.68,-124.65 429.51,-121.66 429.87,-128.65"/>
<text text-anchor="middle" x="364.29" y="-140.94" font-family="Times,serif" font-size="14.00">EHLO/250:0.992</text>
</g>
<!-- q3:0.0&#45;&gt;q4:0.0 -->
<g id="edge17" class="edge">
<title>q3:0.0&#45;&gt;q4:0.0</title>
<path fill="none" stroke="black" d="M526.24,-128.98C562.76,-134.75 617.78,-144.44 664.74,-156.75 670.03,-158.14 675.53,-159.75 680.95,-161.45"/>
<polygon fill="black" stroke="black" points="679.86,-164.78 690.45,-164.55 682.03,-158.12 679.86,-164.78"/>
<text text-anchor="middle" x="605.12" y="-159.94" font-family="Times,serif" font-size="14.00">AUTH/235:0.95</text>
</g>
<!-- q6:0.0 -->
<g id="node16" class="node">
<title>q6:0.0</title>
<ellipse fill="none" stroke="black" stroke-width="2" cx="725.53" cy="-57" rx="42.79" ry="18"/>
<text text-anchor="middle" x="725.53" y="-52.33" font-family="Times,serif" font-size="14.00">q6:0.0</text>
</g>
<!-- q3:0.0&#45;&gt;q6:0.0 -->
<g id="edge18" class="edge">
<title>q3:0.0&#45;&gt;q6:0.0</title>
<path fill="none" stroke="black" d="M507.66,-106.91C518.54,-99.68 532.17,-91.69 545.49,-86.75 586.02,-71.73 634.51,-64.27 670.8,-60.57"/>
<polygon fill="black" stroke="black" points="671,-64.07 680.62,-59.64 670.34,-57.1 671,-64.07"/>
<text text-anchor="middle" x="605.12" y="-90.95" font-family="Times,serif" font-size="14.00">AUTH/535:0.045</text>
</g>
<!-- q5:0.0 -->
<g id="node17" class="node">
<title>q5:0.0</title>
<ellipse fill="none" stroke="black" stroke-width="2" cx="725.53" cy="-117" rx="42.79" ry="18"/>
<text text-anchor="middle" x="725.53" y="-112.33" font-family="Times,serif" font-size="14.00">q5:0.0</text>
</g>
<!-- q3:0.0&#45;&gt;q5:0.0 -->
<g id="edge19" class="edge">
<title>q3:0.0&#45;&gt;q5:0.0</title>
<path fill="none" stroke="black" d="M523.16,-114.12C530.52,-112.72 538.22,-111.49 545.49,-110.75 598.22,-105.4 611.81,-107.99 664.74,-110.75 667.1,-110.87 669.51,-111.02 671.95,-111.19"/>
<polygon fill="black" stroke="black" points="671.65,-114.68 681.9,-112.01 672.22,-107.7 671.65,-114.68"/>
<text text-anchor="middle" x="605.12" y="-114.95" font-family="Times,serif" font-size="14.00">AUTH/λ:0.004</text>
</g>
<!-- q9:0.0 -->
<g id="node18" class="node">
<title>q9:0.0</title>
<ellipse fill="none" stroke="black" stroke-width="2" cx="961.86" cy="-57" rx="42.79" ry="18"/>
<text text-anchor="middle" x="961.86" y="-52.33" font-family="Times,serif" font-size="14.00">q9:0.0</text>
</g>
<!-- q6:0.0&#45;&gt;q9:0.0 -->
<g id="edge20" class="edge">
<title>q6:0.0&#45;&gt;q9:0.0</title>
<path fill="none" stroke="black" d="M769.24,-57C807.97,-57 865.24,-57 907.08,-57"/>
<polygon fill="black" stroke="black" points="906.94,-60.5 916.94,-57 906.94,-53.5 906.94,-60.5"/>
<text text-anchor="middle" x="843.7" y="-60.95" font-family="Times,serif" font-size="14.00">AUTH/334:1.0</text>
</g>
<!-- q5:0.0&#45;&gt;q8:0.0 -->
<g id="edge21" class="edge">
<title>q5:0.0&#45;&gt;q8:0.0</title>
<path fill="none" stroke="black" d="M768.7,-119.52C807.48,-121.84 865.18,-125.28 907.23,-127.8"/>
<polygon fill="black" stroke="black" points="906.94,-131.29 917.13,-128.39 907.35,-124.3 906.94,-131.29"/>
<text text-anchor="middle" x="843.7" y="-131.94" font-family="Times,serif" font-size="14.00">MAIL/250:1.0</text>
</g>
<!-- q13:0.636 -->
<g id="node19" class="node">
<title>q13:0.636</title>
<ellipse fill="none" stroke="black" stroke-width="2" cx="1217.1" cy="-32" rx="61.73" ry="18"/>
<text text-anchor="middle" x="1217.1" y="-27.32" font-family="Times,serif" font-size="14.00">q13:0.636</text>
</g>
<!-- q9:0.0&#45;&gt;q13:0.636 -->
<g id="edge22" class="edge">
<title>q9:0.0&#45;&gt;q13:0.636</title>
<path fill="none" stroke="black" d="M1004.4,-52.9C1042.8,-49.11 1100.7,-43.39 1146.2,-38.9"/>
<polygon fill="black" stroke="black" points="1146.38,-42.4 1155.99,-37.93 1145.7,-35.43 1146.38,-42.4"/>
<text text-anchor="middle" x="1080" y="-54.95" font-family="Times,serif" font-size="14.00">content/535:1.0</text>
</g>
<!-- q17:1.0 -->
<g id="node20" class="node">
<title>q17:1.0</title>
<ellipse fill="none" stroke="black" stroke-width="2" cx="1494.5" cy="-18" rx="49.1" ry="18"/>
<text text-anchor="middle" x="1494.5" y="-13.32" font-family="Times,serif" font-size="14.00">q17:1.0</text>
</g>
<!-- q13:0.636&#45;&gt;q17:1.0 -->
<g id="edge23" class="edge">
<title>q13:0.636&#45;&gt;q17:1.0</title>
<path fill="none" stroke="black" d="M1278.9,-28.91C1325,-26.57 1388.1,-23.36 1434,-21.03"/>
<polygon fill="black" stroke="black" points="1433.88,-24.54 1443.69,-20.53 1433.52,-17.55 1433.88,-24.54"/>
<text text-anchor="middle" x="1362.1" y="-31.95" font-family="Times,serif" font-size="14.00">λ/451:0.364</text>
</g>
<!-- q0:0.0 -->
<g id="node21" class="node">
<title>q0:0.0</title>
<ellipse fill="none" stroke="black" stroke-width="2" cx="50.79" cy="-150" rx="46.79" ry="46.79"/>
<ellipse fill="none" stroke="black" stroke-width="2" cx="50.79" cy="-150" rx="50.79" ry="50.79"/>
<text text-anchor="middle" x="50.79" y="-145.32" font-family="Times,serif" font-size="14.00">q0:0.0</text>
</g>
<!-- q0:0.0&#45;&gt;q1:0.0 -->
<g id="edge24" class="edge">
<title>q0:0.0&#45;&gt;q1:0.0</title>
<path fill="none" stroke="black" d="M98.53,-150C125.82,-150 160.37,-150 188.82,-150"/>
<polygon fill="black" stroke="black" points="188.69,-153.5 198.69,-150 188.69,-146.5 188.69,-153.5"/>
<text text-anchor="middle" x="149.33" y="-153.94" font-family="Times,serif" font-size="14.00">λ/220:1.0</text>
</g>
</g>
</svg>
