<?xml version="1.0" encoding="UTF-8" standalone="no"?>
<!DOCTYPE svg PUBLIC "-//W3C//DTD SVG 1.1//EN"
 "http://www.w3.org/Graphics/SVG/1.1/DTD/svg11.dtd">
<!-- Generated by graphviz version 12.0.0 (20240803.0821)
 -->
<!-- Pages: 1 -->
<svg width="1784pt" height="273pt"
 viewBox="0.00 0.00 1784.00 273.00" xmlns="http://www.w3.org/2000/svg" xmlns:xlink="http://www.w3.org/1999/xlink">
<g id="graph0" class="graph" transform="scale(1 1) rotate(0) translate(4 269)">
<polygon fill="white" stroke="none" points="-4,4 -4,-269 1780,-269 1780,4 -4,4"/>
<!-- q7:0.0 -->
<g id="node1" class="node">
<title>q7:0.0</title>
<ellipse fill="none" stroke="black" stroke-width="2" cx="961.86" cy="-145" rx="42.79" ry="18"/>
<text text-anchor="middle" x="961.86" y="-140.32" font-family="Times,serif" font-size="14.00">q7:0.0</text>
</g>
<!-- q7:0.0&#45;&gt;q7:0.0 -->
<g id="edge1" class="edge">
<title>q7:0.0&#45;&gt;q7:0.0</title>
<path fill="none" stroke="black" d="M941.09,-161.66C936.48,-171.62 943.4,-181 961.86,-181 972.83,-181 979.72,-177.69 982.55,-172.92"/>
<polygon fill="black" stroke="black" points="986.05,-173.2 982.62,-163.17 979.05,-173.15 986.05,-173.2"/>
<text text-anchor="middle" x="961.86" y="-184.94" font-family="Times,serif" font-size="14.00">RCPT/250:0.622</text>
</g>
<!-- q11:0.0 -->
<g id="node2" class="node">
<title>q11:0.0</title>
<ellipse fill="none" stroke="black" stroke-width="2" cx="1217.1" cy="-193" rx="49.1" ry="18"/>
<text text-anchor="middle" x="1217.1" y="-188.32" font-family="Times,serif" font-size="14.00">q11:0.0</text>
</g>
<!-- q7:0.0&#45;&gt;q11:0.0 -->
<g id="edge2" class="edge">
<title>q7:0.0&#45;&gt;q11:0.0</title>
<path fill="none" stroke="black" d="M996.12,-156.6C1004.7,-159.3 1014,-161.98 1022.7,-164 1067.5,-174.42 1119.1,-181.94 1157.8,-186.71"/>
<polygon fill="black" stroke="black" points="1156.95,-190.13 1167.3,-187.86 1157.79,-183.18 1156.95,-190.13"/>
<text text-anchor="middle" x="1080" y="-187.94" font-family="Times,serif" font-size="14.00">DATA/354:0.332</text>
</g>
<!-- q10:1.0 -->
<g id="node3" class="node">
<title>q10:1.0</title>
<ellipse fill="none" stroke="black" stroke-width="2" cx="1217.1" cy="-139" rx="49.1" ry="18"/>
<text text-anchor="middle" x="1217.1" y="-134.32" font-family="Times,serif" font-size="14.00">q10:1.0</text>
</g>
<!-- q7:0.0&#45;&gt;q10:1.0 -->
<g id="edge3" class="edge">
<title>q7:0.0&#45;&gt;q10:1.0</title>
<path fill="none" stroke="black" d="M1005.5,-143.99C1046.7,-143.01 1109.5,-141.53 1155.8,-140.43"/>
<polygon fill="black" stroke="black" points="1155.77,-143.93 1165.69,-140.2 1155.61,-136.93 1155.77,-143.93"/>
<text text-anchor="middle" x="1080" y="-146.94" font-family="Times,serif" font-size="14.00">DATA/550:0.046</text>
</g>
<!-- q11:0.0&#45;&gt;q11:0.0 -->
<g id="edge4" class="edge">
<title>q11:0.0&#45;&gt;q11:0.0</title>
<path fill="none" stroke="black" d="M1193.2,-209.29C1187.5,-219.39 1195.4,-229 1217.1,-229 1230,-229 1238.1,-225.61 1241.3,-220.74"/>
<polygon fill="black" stroke="black" points="1244.8,-220.71 1241.04,-210.8 1237.8,-220.89 1244.8,-220.71"/>
<text text-anchor="middle" x="1217.1" y="-232.94" font-family="Times,serif" font-size="14.00">content/λ:0.934</text>
</g>
<!-- q15:0.0 -->
<g id="node4" class="node">
<title>q15:0.0</title>
<ellipse fill="none" stroke="black" stroke-width="2" cx="1494.5" cy="-247" rx="49.1" ry="18"/>
<text text-anchor="middle" x="1494.5" y="-242.32" font-family="Times,serif" font-size="14.00">q15:0.0</text>
</g>
<!-- q11:0.0&#45;&gt;q15:0.0 -->
<g id="edge5" class="edge">
<title>q11:0.0&#45;&gt;q15:0.0</title>
<path fill="none" stroke="black" d="M1257.2,-204.2C1269.8,-207.6 1283.9,-211.18 1296.9,-214 1343.5,-224.11 1396.9,-232.9 1436.3,-238.87"/>
<polygon fill="black" stroke="black" points="1435.59,-242.3 1446,-240.33 1436.63,-235.38 1435.59,-242.3"/>
<text text-anchor="middle" x="1362.1" y="-239.94" font-family="Times,serif" font-size="14.00">content/550:0.0</text>
</g>
<!-- q14:0.0 -->
<g id="node5" class="node">
<title>q14:0.0</title>
<ellipse fill="none" stroke="black" stroke-width="2" cx="1494.5" cy="-193" rx="49.1" ry="18"/>
<text text-anchor="middle" x="1494.5" y="-188.32" font-family="Times,serif" font-size="14.00">q14:0.0</text>
</g>
<!-- q11:0.0&#45;&gt;q14:0.0 -->
<g id="edge6" class="edge">
<title>q11:0.0&#45;&gt;q14:0.0</title>
<path fill="none" stroke="black" d="M1267,-193C1313.5,-193 1383.4,-193 1433.3,-193"/>
<polygon fill="black" stroke="black" points="1433.09,-196.5 1443.09,-193 1433.09,-189.5 1433.09,-196.5"/>
<text text-anchor="middle" x="1362.1" y="-196.94" font-family="Times,serif" font-size="14.00">content/250:0.041</text>
</g>
<!-- q16:0.0 -->
<g id="node6" class="node">
<title>q16:0.0</title>
<ellipse fill="none" stroke="black" stroke-width="2" cx="1494.5" cy="-139" rx="49.1" ry="18"/>
<text text-anchor="middle" x="1494.5" y="-134.32" font-family="Times,serif" font-size="14.00">q16:0.0</text>
</g>
<!-- q11:0.0&#45;&gt;q16:0.0 -->
<g id="edge7" class="edge">
<title>q11:0.0&#45;&gt;q16:0.0</title>
<path fill="none" stroke="black" d="M1257.2,-181.64C1269.8,-178.2 1283.9,-174.58 1296.9,-171.75 1343.5,-161.6 1396.9,-152.88 1436.3,-147"/>
<polygon fill="black" stroke="black" points="1436.62,-150.49 1446,-145.56 1435.6,-143.57 1436.62,-150.49"/>
<text text-anchor="middle" x="1362.1" y="-174.94" font-family="Times,serif" font-size="14.00">content/554:0.024</text>
</g>
<!-- q19:1.0 -->
<g id="node7" class="node">
<title>q19:1.0</title>
<ellipse fill="none" stroke="black" stroke-width="2" cx="1726.9" cy="-247" rx="49.1" ry="18"/>
<text text-anchor="middle" x="1726.9" y="-242.32" font-family="Times,serif" font-size="14.00">q19:1.0</text>
</g>
<!-- q15:0.0&#45;&gt;q19:1.0 -->
<g id="edge8" class="edge">
<title>q15:0.0&#45;&gt;q19:1.0</title>
<path fill="none" stroke="black" d="M1544.3,-247C1579.8,-247 1627.9,-247 1665.7,-247"/>
<polygon fill="black" stroke="black" points="1665.59,-250.5 1675.59,-247 1665.59,-243.5 1665.59,-250.5"/>
<text text-anchor="middle" x="1610.7" y="-250.94" font-family="Times,serif" font-size="14.00">RSET/250:1.0</text>
</g>
<!-- q18:1.0 -->
<g id="node8" class="node">
<title>q18:1.0</title>
<ellipse fill="none" stroke="black" stroke-width="2" cx="1726.9" cy="-193" rx="49.1" ry="18"/>
<text text-anchor="middle" x="1726.9" y="-188.32" font-family="Times,serif" font-size="14.00">q18:1.0</text>
</g>
<!-- q14:0.0&#45;&gt;q18:1.0 -->
<g id="edge9" class="edge">
<title>q14:0.0&#45;&gt;q18:1.0</title>
<path fill="none" stroke="black" d="M1544.3,-193C1579.8,-193 1627.9,-193 1665.7,-193"/>
<polygon fill="black" stroke="black" points="1665.59,-196.5 1675.59,-193 1665.59,-189.5 1665.59,-196.5"/>
<text text-anchor="middle" x="1610.7" y="-196.94" font-family="Times,serif" font-size="14.00">QUIT/221:1.0</text>
</g>
<!-- q20:1.0 -->
<g id="node9" class="node">
<title>q20:1.0</title>
<ellipse fill="none" stroke="black" stroke-width="2" cx="1726.9" cy="-139" rx="49.1" ry="18"/>
<text text-anchor="middle" x="1726.9" y="-134.32" font-family="Times,serif" font-size="14.00">q20:1.0</text>
</g>
<!-- q16:0.0&#45;&gt;q20:1.0 -->
<g id="edge10" class="edge">
<title>q16:0.0&#45;&gt;q20:1.0</title>
<path fill="none" stroke="black" d="M1544.3,-139C1579.8,-139 1627.9,-139 1665.7,-139"/>
<polygon fill="black" stroke="black" points="1665.59,-142.5 1675.59,-139 1665.59,-135.5 1665.59,-142.5"/>
<text text-anchor="middle" x="1610.7" y="-142.94" font-family="Times,serif" font-size="14.00">RSET/250:1.0</text>
</g>
<!-- q6:0.0 -->
<g id="node10" class="node">
<title>q6:0.0</title>
<ellipse fill="none" stroke="black" stroke-width="2" cx="725.53" cy="-152" rx="42.79" ry="18"/>
<text text-anchor="middle" x="725.53" y="-147.32" font-family="Times,serif" font-size="14.00">q6:0.0</text>
</g>
<!-- q6:0.0&#45;&gt;q7:0.0 -->
<g id="edge11" class="edge">
<title>q6:0.0&#45;&gt;q7:0.0</title>
<path fill="none" stroke="black" d="M768.97,-150.73C807.67,-149.58 865.03,-147.86 906.96,-146.61"/>
<polygon fill="black" stroke="black" points="906.95,-150.11 916.84,-146.32 906.74,-143.12 906.95,-150.11"/>
<text text-anchor="middle" x="843.7" y="-153.94" font-family="Times,serif" font-size="14.00">MAIL/250:1.0</text>
</g>
<!-- q3:0.0 -->
<g id="node11" class="node">
<title>q3:0.0</title>
<ellipse fill="none" stroke="black" stroke-width="2" cx="484.7" cy="-145" rx="42.79" ry="18"/>
<text text-anchor="middle" x="484.7" y="-140.32" font-family="Times,serif" font-size="14.00">q3:0.0</text>
</g>
<!-- q3:0.0&#45;&gt;q6:0.0 -->
<g id="edge12" class="edge">
<title>q3:0.0&#45;&gt;q6:0.0</title>
<path fill="none" stroke="black" d="M528.12,-146.24C567.91,-147.41 627.56,-149.16 670.69,-150.42"/>
<polygon fill="black" stroke="black" points="670.49,-153.92 680.59,-150.71 670.7,-146.92 670.49,-153.92"/>
<text text-anchor="middle" x="605.12" y="-153.94" font-family="Times,serif" font-size="14.00">AUTH/235:1.0</text>
</g>
<!-- q1:0.0 -->
<g id="node12" class="node">
<title>q1:0.0</title>
<ellipse fill="none" stroke="black" stroke-width="2" cx="243.87" cy="-112" rx="42.79" ry="18"/>
<text text-anchor="middle" x="243.87" y="-107.33" font-family="Times,serif" font-size="14.00">q1:0.0</text>
</g>
<!-- q1:0.0&#45;&gt;q3:0.0 -->
<g id="edge13" class="edge">
<title>q1:0.0&#45;&gt;q3:0.0</title>
<path fill="none" stroke="black" d="M285.66,-117.64C326.01,-123.21 387.94,-131.77 431.79,-137.83"/>
<polygon fill="black" stroke="black" points="431.19,-141.28 441.58,-139.18 432.15,-134.35 431.19,-141.28"/>
<text text-anchor="middle" x="364.29" y="-139.94" font-family="Times,serif" font-size="14.00">EHLO/λ:0.008</text>
</g>
<!-- q2:0.0 -->
<g id="node13" class="node">
<title>q2:0.0</title>
<ellipse fill="none" stroke="black" stroke-width="2" cx="484.7" cy="-85" rx="42.79" ry="18"/>
<text text-anchor="middle" x="484.7" y="-80.33" font-family="Times,serif" font-size="14.00">q2:0.0</text>
</g>
<!-- q1:0.0&#45;&gt;q2:0.0 -->
<g id="edge14" class="edge">
<title>q1:0.0&#45;&gt;q2:0.0</title>
<path fill="none" stroke="black" d="M282.04,-102.91C289.49,-101.33 297.3,-99.84 304.66,-98.75 346.54,-92.53 394.37,-89.04 430.05,-87.14"/>
<polygon fill="black" stroke="black" points="429.87,-90.65 439.68,-86.65 429.51,-83.66 429.87,-90.65"/>
<text text-anchor="middle" x="364.29" y="-102.95" font-family="Times,serif" font-size="14.00">EHLO/250:0.992</text>
</g>
<!-- q2:0.0&#45;&gt;q6:0.0 -->
<g id="edge15" class="edge">
<title>q2:0.0&#45;&gt;q6:0.0</title>
<path fill="none" stroke="black" d="M525.82,-91.43C562.54,-97.89 618.09,-109.13 664.74,-124.75 671.94,-127.16 679.43,-130.16 686.58,-133.27"/>
<polygon fill="black" stroke="black" points="684.8,-136.31 695.35,-137.25 687.69,-129.93 684.8,-136.31"/>
<text text-anchor="middle" x="605.12" y="-127.95" font-family="Times,serif" font-size="14.00">AUTH/λ:0.004</text>
</g>
<!-- q4:0.0 -->
<g id="node14" class="node">
<title>q4:0.0</title>
<ellipse fill="none" stroke="black" stroke-width="2" cx="725.53" cy="-72" rx="42.79" ry="18"/>
<text text-anchor="middle" x="725.53" y="-67.33" font-family="Times,serif" font-size="14.00">q4:0.0</text>
</g>
<!-- q2:0.0&#45;&gt;q4:0.0 -->
<g id="edge16" class="edge">
<title>q2:0.0&#45;&gt;q4:0.0</title>
<path fill="none" stroke="black" d="M523.16,-76.14C530.52,-74.74 538.22,-73.5 545.49,-72.75 587.48,-68.4 635.3,-68.46 670.96,-69.47"/>
<polygon fill="black" stroke="black" points="670.46,-72.95 680.57,-69.77 670.68,-65.96 670.46,-72.95"/>
<text text-anchor="middle" x="605.12" y="-76.95" font-family="Times,serif" font-size="14.00">AUTH/235:0.942</text>
</g>
<!-- q5:0.0 -->
<g id="node15" class="node">
<title>q5:0.0</title>
<ellipse fill="none" stroke="black" stroke-width="2" cx="725.53" cy="-18" rx="42.79" ry="18"/>
<text text-anchor="middle" x="725.53" y="-13.32" font-family="Times,serif" font-size="14.00">q5:0.0</text>
</g>
<!-- q2:0.0&#45;&gt;q5:0.0 -->
<g id="edge17" class="edge">
<title>q2:0.0&#45;&gt;q5:0.0</title>
<path fill="none" stroke="black" d="M507.05,-68.83C518,-61.3 531.88,-52.89 545.49,-47.75 586.06,-32.44 634.74,-24.99 671.1,-21.38"/>
<polygon fill="black" stroke="black" points="671.3,-24.87 680.94,-20.47 670.66,-17.9 671.3,-24.87"/>
<text text-anchor="middle" x="605.12" y="-51.95" font-family="Times,serif" font-size="14.00">AUTH/535:0.054</text>
</g>
<!-- q4:0.0&#45;&gt;q7:0.0 -->
<g id="edge18" class="edge">
<title>q4:0.0&#45;&gt;q7:0.0</title>
<path fill="none" stroke="black" d="M761.75,-82.61C810.75,-97.38 894.29,-122.58 901.07,-124.75 906.15,-126.38 911.46,-128.12 916.73,-129.87"/>
<polygon fill="black" stroke="black" points="915.38,-133.11 925.97,-132.97 917.61,-126.47 915.38,-133.11"/>
<text text-anchor="middle" x="843.7" y="-127.95" font-family="Times,serif" font-size="14.00">MAIL/250:0.987</text>
</g>
<!-- q8:0.0 -->
<g id="node16" class="node">
<title>q8:0.0</title>
<ellipse fill="none" stroke="black" stroke-width="2" cx="961.86" cy="-72" rx="42.79" ry="18"/>
<text text-anchor="middle" x="961.86" y="-67.33" font-family="Times,serif" font-size="14.00">q8:0.0</text>
</g>
<!-- q4:0.0&#45;&gt;q8:0.0 -->
<g id="edge19" class="edge">
<title>q4:0.0&#45;&gt;q8:0.0</title>
<path fill="none" stroke="black" d="M769.24,-72C807.97,-72 865.24,-72 907.08,-72"/>
<polygon fill="black" stroke="black" points="906.94,-75.5 916.94,-72 906.94,-68.5 906.94,-75.5"/>
<text text-anchor="middle" x="843.7" y="-75.95" font-family="Times,serif" font-size="14.00">MAIL/553:0.013</text>
</g>
<!-- q9:0.0 -->
<g id="node17" class="node">
<title>q9:0.0</title>
<ellipse fill="none" stroke="black" stroke-width="2" cx="961.86" cy="-18" rx="42.79" ry="18"/>
<text text-anchor="middle" x="961.86" y="-13.32" font-family="Times,serif" font-size="14.00">q9:0.0</text>
</g>
<!-- q5:0.0&#45;&gt;q9:0.0 -->
<g id="edge20" class="edge">
<title>q5:0.0&#45;&gt;q9:0.0</title>
<path fill="none" stroke="black" d="M769.24,-18C807.97,-18 865.24,-18 907.08,-18"/>
<polygon fill="black" stroke="black" points="906.94,-21.5 916.94,-18 906.94,-14.5 906.94,-21.5"/>
<text text-anchor="middle" x="843.7" y="-21.95" font-family="Times,serif" font-size="14.00">AUTH/334:1.0</text>
</g>
<!-- q12:1.0 -->
<g id="node18" class="node">
<title>q12:1.0</title>
<ellipse fill="none" stroke="black" stroke-width="2" cx="1217.1" cy="-72" rx="49.1" ry="18"/>
<text text-anchor="middle" x="1217.1" y="-67.33" font-family="Times,serif" font-size="14.00">q12:1.0</text>
</g>
<!-- q8:0.0&#45;&gt;q12:1.0 -->
<g id="edge21" class="edge">
<title>q8:0.0&#45;&gt;q12:1.0</title>
<path fill="none" stroke="black" d="M1005.5,-72C1046.7,-72 1109.5,-72 1155.8,-72"/>
<polygon fill="black" stroke="black" points="1155.69,-75.5 1165.69,-72 1155.69,-68.5 1155.69,-75.5"/>
<text text-anchor="middle" x="1080" y="-75.95" font-family="Times,serif" font-size="14.00">RSET/250:1.0</text>
</g>
<!-- q13:0.692 -->
<g id="node19" class="node">
<title>q13:0.692</title>
<ellipse fill="none" stroke="black" stroke-width="2" cx="1217.1" cy="-18" rx="61.73" ry="18"/>
<text text-anchor="middle" x="1217.1" y="-13.32" font-family="Times,serif" font-size="14.00">q13:0.692</text>
</g>
<!-- q9:0.0&#45;&gt;q13:0.692 -->
<g id="edge22" class="edge">
<title>q9:0.0&#45;&gt;q13:0.692</title>
<path fill="none" stroke="black" d="M1005.5,-18C1043.1,-18 1098.7,-18 1143.4,-18"/>
<polygon fill="black" stroke="black" points="1143.19,-21.5 1153.19,-18 1143.19,-14.5 1143.19,-21.5"/>
<text text-anchor="middle" x="1080" y="-21.95" font-family="Times,serif" font-size="14.00">content/535:1.0</text>
</g>
<!-- q17:1.0 -->
<g id="node20" class="node">
<title>q17:1.0</title>
<ellipse fill="none" stroke="black" stroke-width="2" cx="1494.5" cy="-18" rx="49.1" ry="18"/>
<text text-anchor="middle" x="1494.5" y="-13.32" font-family="Times,serif" font-size="14.00">q17:1.0</text>
</g>
<!-- q13:0.692&#45;&gt;q17:1.0 -->
<g id="edge23" class="edge">
<title>q13:0.692&#45;&gt;q17:1.0</title>
<path fill="none" stroke="black" d="M1279.6,-18C1325.4,-18 1387.6,-18 1433.1,-18"/>
<polygon fill="black" stroke="black" points="1433.09,-21.5 1443.09,-18 1433.09,-14.5 1433.09,-21.5"/>
<text text-anchor="middle" x="1362.1" y="-21.95" font-family="Times,serif" font-size="14.00">λ/451:0.308</text>
</g>
<!-- q0:0.0 -->
<g id="node21" class="node">
<title>q0:0.0</title>
<ellipse fill="none" stroke="black" stroke-width="2" cx="50.79" cy="-112" rx="46.79" ry="46.79"/>
<ellipse fill="none" stroke="black" stroke-width="2" cx="50.79" cy="-112" rx="50.79" ry="50.79"/>
<text text-anchor="middle" x="50.79" y="-107.33" font-family="Times,serif" font-size="14.00">q0:0.0</text>
</g>
<!-- q0:0.0&#45;&gt;q1:0.0 -->
<g id="edge24" class="edge">
<title>q0:0.0&#45;&gt;q1:0.0</title>
<path fill="none" stroke="black" d="M98.53,-112C125.82,-112 160.37,-112 188.82,-112"/>
<polygon fill="black" stroke="black" points="188.69,-115.5 198.69,-112 188.69,-108.5 188.69,-115.5"/>
<text text-anchor="middle" x="149.33" y="-115.95" font-family="Times,serif" font-size="14.00">λ/220:1.0</text>
</g>
</g>
</svg>
