<?xml version="1.0" encoding="UTF-8" standalone="no"?>
<!DOCTYPE svg PUBLIC "-//W3C//DTD SVG 1.1//EN"
 "http://www.w3.org/Graphics/SVG/1.1/DTD/svg11.dtd">
<!-- Generated by graphviz version 12.0.0 (20240803.0821)
 -->
<!-- Pages: 1 -->
<svg width="2024pt" height="314pt"
 viewBox="0.00 0.00 2023.50 314.00" xmlns="http://www.w3.org/2000/svg" xmlns:xlink="http://www.w3.org/1999/xlink">
<g id="graph0" class="graph" transform="scale(1 1) rotate(0) translate(4 310)">
<polygon fill="white" stroke="none" points="-4,4 -4,-310 2019.5,-310 2019.5,4 -4,4"/>
<!-- q0:0.0 -->
<g id="node1" class="node">
<title>q0:0.0</title>
<ellipse fill="none" stroke="black" stroke-width="2" cx="50.79" cy="-185" rx="46.79" ry="46.79"/>
<ellipse fill="none" stroke="black" stroke-width="2" cx="50.79" cy="-185" rx="50.79" ry="50.79"/>
<text text-anchor="middle" x="50.79" y="-180.32" font-family="Times,serif" font-size="14.00">q0:0.0</text>
</g>
<!-- q1:0.0 -->
<g id="node2" class="node">
<title>q1:0.0</title>
<ellipse fill="none" stroke="black" stroke-width="2" cx="243.87" cy="-185" rx="42.79" ry="18"/>
<text text-anchor="middle" x="243.87" y="-180.32" font-family="Times,serif" font-size="14.00">q1:0.0</text>
</g>
<!-- q0:0.0&#45;&gt;q1:0.0 -->
<g id="edge1" class="edge">
<title>q0:0.0&#45;&gt;q1:0.0</title>
<path fill="none" stroke="black" d="M98.53,-185C125.82,-185 160.37,-185 188.82,-185"/>
<polygon fill="black" stroke="black" points="188.69,-188.5 198.69,-185 188.69,-181.5 188.69,-188.5"/>
<text text-anchor="middle" x="149.33" y="-188.94" font-family="Times,serif" font-size="14.00">λ/220:1.0</text>
</g>
<!-- q2:0.0 -->
<g id="node3" class="node">
<title>q2:0.0</title>
<ellipse fill="none" stroke="black" stroke-width="2" cx="484.7" cy="-158" rx="42.79" ry="18"/>
<text text-anchor="middle" x="484.7" y="-153.32" font-family="Times,serif" font-size="14.00">q2:0.0</text>
</g>
<!-- q1:0.0&#45;&gt;q2:0.0 -->
<g id="edge2" class="edge">
<title>q1:0.0&#45;&gt;q2:0.0</title>
<path fill="none" stroke="black" d="M279.7,-174.24C287.82,-172.1 296.49,-170.09 304.66,-168.75 346.39,-161.9 394.23,-159.29 429.95,-158.35"/>
<polygon fill="black" stroke="black" points="429.66,-161.86 439.59,-158.14 429.51,-154.86 429.66,-161.86"/>
<text text-anchor="middle" x="364.29" y="-171.94" font-family="Times,serif" font-size="14.00">EHLO/250:0.992</text>
</g>
<!-- q3:0.0 -->
<g id="node4" class="node">
<title>q3:0.0</title>
<ellipse fill="none" stroke="black" stroke-width="2" cx="484.7" cy="-218" rx="42.79" ry="18"/>
<text text-anchor="middle" x="484.7" y="-213.32" font-family="Times,serif" font-size="14.00">q3:0.0</text>
</g>
<!-- q1:0.0&#45;&gt;q3:0.0 -->
<g id="edge3" class="edge">
<title>q1:0.0&#45;&gt;q3:0.0</title>
<path fill="none" stroke="black" d="M285.66,-190.64C326.01,-196.21 387.94,-204.77 431.79,-210.83"/>
<polygon fill="black" stroke="black" points="431.19,-214.28 441.58,-212.18 432.15,-207.35 431.19,-214.28"/>
<text text-anchor="middle" x="364.29" y="-212.94" font-family="Times,serif" font-size="14.00">EHLO/λ:0.008</text>
</g>
<!-- q5:0.0 -->
<g id="node5" class="node">
<title>q5:0.0</title>
<ellipse fill="none" stroke="black" stroke-width="2" cx="725.53" cy="-214" rx="42.79" ry="18"/>
<text text-anchor="middle" x="725.53" y="-209.32" font-family="Times,serif" font-size="14.00">q5:0.0</text>
</g>
<!-- q2:0.0&#45;&gt;q5:0.0 -->
<g id="edge4" class="edge">
<title>q2:0.0&#45;&gt;q5:0.0</title>
<path fill="none" stroke="black" d="M525.51,-164.43C562.02,-170.68 617.44,-181.07 664.74,-193.75 670.02,-195.16 675.51,-196.8 680.93,-198.51"/>
<polygon fill="black" stroke="black" points="679.84,-201.84 690.43,-201.62 682.02,-195.18 679.84,-201.84"/>
<text text-anchor="middle" x="605.12" y="-196.94" font-family="Times,serif" font-size="14.00">AUTH/235:0.955</text>
</g>
<!-- q4:0.0 -->
<g id="node6" class="node">
<title>q4:0.0</title>
<ellipse fill="none" stroke="black" stroke-width="2" cx="725.53" cy="-95" rx="42.79" ry="18"/>
<text text-anchor="middle" x="725.53" y="-90.33" font-family="Times,serif" font-size="14.00">q4:0.0</text>
</g>
<!-- q2:0.0&#45;&gt;q4:0.0 -->
<g id="edge5" class="edge">
<title>q2:0.0&#45;&gt;q4:0.0</title>
<path fill="none" stroke="black" d="M507,-141.7C517.94,-134.14 531.82,-125.74 545.49,-120.75 585.95,-105.98 634.45,-99.65 670.76,-96.95"/>
<polygon fill="black" stroke="black" points="670.83,-100.45 680.58,-96.29 670.37,-93.47 670.83,-100.45"/>
<text text-anchor="middle" x="605.12" y="-123.95" font-family="Times,serif" font-size="14.00">AUTH/535:0.041</text>
</g>
<!-- q6:0.0 -->
<g id="node7" class="node">
<title>q6:0.0</title>
<ellipse fill="none" stroke="black" stroke-width="2" cx="725.53" cy="-149" rx="42.79" ry="18"/>
<text text-anchor="middle" x="725.53" y="-144.32" font-family="Times,serif" font-size="14.00">q6:0.0</text>
</g>
<!-- q2:0.0&#45;&gt;q6:0.0 -->
<g id="edge6" class="edge">
<title>q2:0.0&#45;&gt;q6:0.0</title>
<path fill="none" stroke="black" d="M523.16,-149.12C530.52,-147.72 538.22,-146.49 545.49,-145.75 587.77,-141.46 635.95,-142.68 671.68,-144.75"/>
<polygon fill="black" stroke="black" points="671.1,-148.22 681.3,-145.35 671.53,-141.23 671.1,-148.22"/>
<text text-anchor="middle" x="605.12" y="-148.94" font-family="Times,serif" font-size="14.00">AUTH/λ:0.004</text>
</g>
<!-- q3:0.0&#45;&gt;q5:0.0 -->
<g id="edge7" class="edge">
<title>q3:0.0&#45;&gt;q5:0.0</title>
<path fill="none" stroke="black" d="M528.4,-217.28C568.1,-216.62 627.41,-215.63 670.41,-214.91"/>
<polygon fill="black" stroke="black" points="670.35,-218.41 680.29,-214.75 670.23,-211.41 670.35,-218.41"/>
<text text-anchor="middle" x="605.12" y="-219.94" font-family="Times,serif" font-size="14.00">AUTH/235:1.0</text>
</g>
<!-- q8:0.0 -->
<g id="node8" class="node">
<title>q8:0.0</title>
<ellipse fill="none" stroke="black" stroke-width="2" cx="961.86" cy="-149" rx="42.79" ry="18"/>
<text text-anchor="middle" x="961.86" y="-144.32" font-family="Times,serif" font-size="14.00">q8:0.0</text>
</g>
<!-- q5:0.0&#45;&gt;q8:0.0 -->
<g id="edge8" class="edge">
<title>q5:0.0&#45;&gt;q8:0.0</title>
<path fill="none" stroke="black" d="M764.6,-205.46C800.14,-197.23 854.54,-184.01 901.07,-170 906.46,-168.38 912.09,-166.56 917.64,-164.7"/>
<polygon fill="black" stroke="black" points="918.39,-168.14 926.71,-161.58 916.11,-161.52 918.39,-168.14"/>
<text text-anchor="middle" x="843.7" y="-202.94" font-family="Times,serif" font-size="14.00">MAIL/250:0.987</text>
</g>
<!-- q9:0.0 -->
<g id="node9" class="node">
<title>q9:0.0</title>
<ellipse fill="none" stroke="black" stroke-width="2" cx="961.86" cy="-250" rx="42.79" ry="18"/>
<text text-anchor="middle" x="961.86" y="-245.32" font-family="Times,serif" font-size="14.00">q9:0.0</text>
</g>
<!-- q5:0.0&#45;&gt;q9:0.0 -->
<g id="edge9" class="edge">
<title>q5:0.0&#45;&gt;q9:0.0</title>
<path fill="none" stroke="black" d="M766.81,-220.19C806.25,-226.25 866.49,-235.5 909.38,-242.09"/>
<polygon fill="black" stroke="black" points="908.8,-245.54 919.21,-243.6 909.86,-238.62 908.8,-245.54"/>
<text text-anchor="middle" x="843.7" y="-243.94" font-family="Times,serif" font-size="14.00">MAIL/553:0.013</text>
</g>
<!-- q7:0.0 -->
<g id="node10" class="node">
<title>q7:0.0</title>
<ellipse fill="none" stroke="black" stroke-width="2" cx="961.86" cy="-95" rx="42.79" ry="18"/>
<text text-anchor="middle" x="961.86" y="-90.33" font-family="Times,serif" font-size="14.00">q7:0.0</text>
</g>
<!-- q4:0.0&#45;&gt;q7:0.0 -->
<g id="edge10" class="edge">
<title>q4:0.0&#45;&gt;q7:0.0</title>
<path fill="none" stroke="black" d="M769.24,-95C807.97,-95 865.24,-95 907.08,-95"/>
<polygon fill="black" stroke="black" points="906.94,-98.5 916.94,-95 906.94,-91.5 906.94,-98.5"/>
<text text-anchor="middle" x="843.7" y="-98.95" font-family="Times,serif" font-size="14.00">AUTH/334:1.0</text>
</g>
<!-- q6:0.0&#45;&gt;q8:0.0 -->
<g id="edge11" class="edge">
<title>q6:0.0&#45;&gt;q8:0.0</title>
<path fill="none" stroke="black" d="M769.24,-149C807.97,-149 865.24,-149 907.08,-149"/>
<polygon fill="black" stroke="black" points="906.94,-152.5 916.94,-149 906.94,-145.5 906.94,-152.5"/>
<text text-anchor="middle" x="843.7" y="-152.94" font-family="Times,serif" font-size="14.00">MAIL/250:1.0</text>
</g>
<!-- q8:0.0&#45;&gt;q8:0.0 -->
<g id="edge12" class="edge">
<title>q8:0.0&#45;&gt;q8:0.0</title>
<path fill="none" stroke="black" d="M941.09,-165.66C936.48,-175.62 943.4,-185 961.86,-185 972.83,-185 979.72,-181.69 982.55,-176.92"/>
<polygon fill="black" stroke="black" points="986.05,-177.2 982.62,-167.17 979.05,-177.15 986.05,-177.2"/>
<text text-anchor="middle" x="961.86" y="-188.94" font-family="Times,serif" font-size="14.00">RCPT/250:0.622</text>
</g>
<!-- q11:0.0 -->
<g id="node11" class="node">
<title>q11:0.0</title>
<ellipse fill="none" stroke="black" stroke-width="2" cx="1204.5" cy="-143" rx="49.1" ry="18"/>
<text text-anchor="middle" x="1204.5" y="-138.32" font-family="Times,serif" font-size="14.00">q11:0.0</text>
</g>
<!-- q8:0.0&#45;&gt;q11:0.0 -->
<g id="edge13" class="edge">
<title>q8:0.0&#45;&gt;q11:0.0</title>
<path fill="none" stroke="black" d="M1005.3,-147.94C1043.6,-146.99 1100.4,-145.57 1143.4,-144.5"/>
<polygon fill="black" stroke="black" points="1143.38,-148 1153.29,-144.25 1143.2,-141 1143.38,-148"/>
<text text-anchor="middle" x="1080" y="-150.94" font-family="Times,serif" font-size="14.00">DATA/354:0.308</text>
</g>
<!-- q12:1.0 -->
<g id="node12" class="node">
<title>q12:1.0</title>
<ellipse fill="none" stroke="black" stroke-width="2" cx="1204.5" cy="-197" rx="49.1" ry="18"/>
<text text-anchor="middle" x="1204.5" y="-192.32" font-family="Times,serif" font-size="14.00">q12:1.0</text>
</g>
<!-- q8:0.0&#45;&gt;q12:1.0 -->
<g id="edge14" class="edge">
<title>q8:0.0&#45;&gt;q12:1.0</title>
<path fill="none" stroke="black" d="M996.45,-160.64C1004.9,-163.31 1014.1,-165.96 1022.7,-168 1063.3,-177.65 1109.8,-185.03 1145.5,-189.93"/>
<polygon fill="black" stroke="black" points="1144.82,-193.37 1155.2,-191.23 1145.75,-186.43 1144.82,-193.37"/>
<text text-anchor="middle" x="1080" y="-191.94" font-family="Times,serif" font-size="14.00">DATA/550:0.07</text>
</g>
<!-- q13:1.0 -->
<g id="node13" class="node">
<title>q13:1.0</title>
<ellipse fill="none" stroke="black" stroke-width="2" cx="1204.5" cy="-251" rx="49.1" ry="18"/>
<text text-anchor="middle" x="1204.5" y="-246.32" font-family="Times,serif" font-size="14.00">q13:1.0</text>
</g>
<!-- q9:0.0&#45;&gt;q13:1.0 -->
<g id="edge15" class="edge">
<title>q9:0.0&#45;&gt;q13:1.0</title>
<path fill="none" stroke="black" d="M1005.6,-250.18C1043.8,-250.34 1100.3,-250.57 1143.1,-250.75"/>
<polygon fill="black" stroke="black" points="1142.97,-254.25 1152.99,-250.79 1143,-247.25 1142.97,-254.25"/>
<text text-anchor="middle" x="1080" y="-253.94" font-family="Times,serif" font-size="14.00">RSET/250:1.0</text>
</g>
<!-- q10:0.8 -->
<g id="node14" class="node">
<title>q10:0.8</title>
<ellipse fill="none" stroke="black" stroke-width="2" cx="1204.5" cy="-62" rx="49.1" ry="18"/>
<text text-anchor="middle" x="1204.5" y="-57.33" font-family="Times,serif" font-size="14.00">q10:0.8</text>
</g>
<!-- q7:0.0&#45;&gt;q10:0.8 -->
<g id="edge16" class="edge">
<title>q7:0.0&#45;&gt;q10:0.8</title>
<path fill="none" stroke="black" d="M1003.68,-89.4C1042.8,-84.03 1102.3,-75.88 1146.2,-69.86"/>
<polygon fill="black" stroke="black" points="1146.57,-73.34 1156,-68.51 1145.62,-66.41 1146.57,-73.34"/>
<text text-anchor="middle" x="1080" y="-89.95" font-family="Times,serif" font-size="14.00">content/535:1.0</text>
</g>
<!-- q16:0.0 -->
<g id="node15" class="node">
<title>q16:0.0</title>
<ellipse fill="none" stroke="black" stroke-width="2" cx="1469.2" cy="-276" rx="49.1" ry="18"/>
<text text-anchor="middle" x="1469.2" y="-271.32" font-family="Times,serif" font-size="14.00">q16:0.0</text>
</g>
<!-- q11:0.0&#45;&gt;q16:0.0 -->
<g id="edge17" class="edge">
<title>q11:0.0&#45;&gt;q16:0.0</title>
<path fill="none" stroke="black" d="M1237.8,-157.04C1243.6,-160.63 1249.2,-164.94 1253.6,-170 1268,-186.56 1255.5,-201.08 1271.6,-216 1309,-250.61 1365.8,-265.28 1408.8,-271.48"/>
<polygon fill="black" stroke="black" points="1408.03,-274.91 1418.4,-272.75 1408.94,-267.97 1408.03,-274.91"/>
<text text-anchor="middle" x="1336.9" y="-273.94" font-family="Times,serif" font-size="14.00">content/550:0.001</text>
</g>
<!-- q15:0.0 -->
<g id="node16" class="node">
<title>q15:0.0</title>
<ellipse fill="none" stroke="black" stroke-width="2" cx="1469.2" cy="-126" rx="49.1" ry="18"/>
<text text-anchor="middle" x="1469.2" y="-121.33" font-family="Times,serif" font-size="14.00">q15:0.0</text>
</g>
<!-- q11:0.0&#45;&gt;q15:0.0 -->
<g id="edge18" class="edge">
<title>q11:0.0&#45;&gt;q15:0.0</title>
<path fill="none" stroke="black" d="M1241.8,-130.43C1251.4,-127.67 1261.8,-125.15 1271.6,-123.75 1317.5,-117.21 1370,-118.24 1409.2,-120.65"/>
<polygon fill="black" stroke="black" points="1408.98,-124.14 1419.19,-121.31 1409.44,-117.16 1408.98,-124.14"/>
<text text-anchor="middle" x="1336.9" y="-126.95" font-family="Times,serif" font-size="14.00">content/250:0.057</text>
</g>
<!-- q17:0.0 -->
<g id="node17" class="node">
<title>q17:0.0</title>
<ellipse fill="none" stroke="black" stroke-width="2" cx="1469.2" cy="-72" rx="49.1" ry="18"/>
<text text-anchor="middle" x="1469.2" y="-67.33" font-family="Times,serif" font-size="14.00">q17:0.0</text>
</g>
<!-- q11:0.0&#45;&gt;q17:0.0 -->
<g id="edge19" class="edge">
<title>q11:0.0&#45;&gt;q17:0.0</title>
<path fill="none" stroke="black" d="M1224.6,-125.87C1237.1,-115.67 1254.2,-103.45 1271.6,-96.75 1315.3,-79.92 1368.1,-73.98 1408,-72.12"/>
<polygon fill="black" stroke="black" points="1408.03,-75.62 1417.89,-71.74 1407.76,-68.63 1408.03,-75.62"/>
<text text-anchor="middle" x="1336.9" y="-99.95" font-family="Times,serif" font-size="14.00">content/554:0.051</text>
</g>
<!-- q18:0.0 -->
<g id="node18" class="node">
<title>q18:0.0</title>
<ellipse fill="none" stroke="black" stroke-width="2" cx="1469.2" cy="-190" rx="49.1" ry="18"/>
<text text-anchor="middle" x="1469.2" y="-185.32" font-family="Times,serif" font-size="14.00">q18:0.0</text>
</g>
<!-- q11:0.0&#45;&gt;q18:0.0 -->
<g id="edge20" class="edge">
<title>q11:0.0&#45;&gt;q18:0.0</title>
<path fill="none" stroke="black" d="M1254.2,-144.45C1294.4,-146.53 1352.6,-151.56 1402.1,-163.75 1410.1,-165.72 1418.4,-168.44 1426.3,-171.4"/>
<polygon fill="black" stroke="black" points="1424.8,-174.57 1435.39,-174.97 1427.36,-168.06 1424.8,-174.57"/>
<text text-anchor="middle" x="1336.9" y="-166.94" font-family="Times,serif" font-size="14.00">content/λ:0.891</text>
</g>
<!-- q14:1.0 -->
<g id="node24" class="node">
<title>q14:1.0</title>
<ellipse fill="none" stroke="black" stroke-width="2" cx="1469.2" cy="-18" rx="49.1" ry="18"/>
<text text-anchor="middle" x="1469.2" y="-13.32" font-family="Times,serif" font-size="14.00">q14:1.0</text>
</g>
<!-- q10:0.8&#45;&gt;q14:1.0 -->
<g id="edge27" class="edge">
<title>q10:0.8&#45;&gt;q14:1.0</title>
<path fill="none" stroke="black" d="M1240.1,-48.8C1250.1,-45.4 1261.2,-42.05 1271.6,-39.75 1316.8,-29.76 1369,-24.26 1408.2,-21.29"/>
<polygon fill="black" stroke="black" points="1408.47,-24.78 1418.19,-20.57 1407.96,-17.8 1408.47,-24.78"/>
<text text-anchor="middle" x="1336.9" y="-42.95" font-family="Times,serif" font-size="14.00">λ/451:0.2</text>
</g>
<!-- q20:1.0 -->
<g id="node19" class="node">
<title>q20:1.0</title>
<ellipse fill="none" stroke="black" stroke-width="2" cx="1733.9" cy="-288" rx="49.1" ry="18"/>
<text text-anchor="middle" x="1733.9" y="-283.32" font-family="Times,serif" font-size="14.00">q20:1.0</text>
</g>
<!-- q16:0.0&#45;&gt;q20:1.0 -->
<g id="edge21" class="edge">
<title>q16:0.0&#45;&gt;q20:1.0</title>
<path fill="none" stroke="black" d="M1518.7,-278.21C1562.2,-280.2 1626.1,-283.12 1672.8,-285.25"/>
<polygon fill="black" stroke="black" points="1672.64,-288.75 1682.79,-285.71 1672.96,-281.75 1672.64,-288.75"/>
<text text-anchor="middle" x="1601.6" y="-287.94" font-family="Times,serif" font-size="14.00">RSET/250:1.0</text>
</g>
<!-- q19:1.0 -->
<g id="node20" class="node">
<title>q19:1.0</title>
<ellipse fill="none" stroke="black" stroke-width="2" cx="1733.9" cy="-126" rx="49.1" ry="18"/>
<text text-anchor="middle" x="1733.9" y="-121.33" font-family="Times,serif" font-size="14.00">q19:1.0</text>
</g>
<!-- q15:0.0&#45;&gt;q19:1.0 -->
<g id="edge22" class="edge">
<title>q15:0.0&#45;&gt;q19:1.0</title>
<path fill="none" stroke="black" d="M1519,-126C1562.4,-126 1625.9,-126 1672.5,-126"/>
<polygon fill="black" stroke="black" points="1672.39,-129.5 1682.39,-126 1672.39,-122.5 1672.39,-129.5"/>
<text text-anchor="middle" x="1601.6" y="-129.94" font-family="Times,serif" font-size="14.00">QUIT/221:1.0</text>
</g>
<!-- q21:1.0 -->
<g id="node21" class="node">
<title>q21:1.0</title>
<ellipse fill="none" stroke="black" stroke-width="2" cx="1733.9" cy="-72" rx="49.1" ry="18"/>
<text text-anchor="middle" x="1733.9" y="-67.33" font-family="Times,serif" font-size="14.00">q21:1.0</text>
</g>
<!-- q17:0.0&#45;&gt;q21:1.0 -->
<g id="edge23" class="edge">
<title>q17:0.0&#45;&gt;q21:1.0</title>
<path fill="none" stroke="black" d="M1519,-72C1562.4,-72 1625.9,-72 1672.5,-72"/>
<polygon fill="black" stroke="black" points="1672.39,-75.5 1682.39,-72 1672.39,-68.5 1672.39,-75.5"/>
<text text-anchor="middle" x="1601.6" y="-75.95" font-family="Times,serif" font-size="14.00">RSET/250:1.0</text>
</g>
<!-- q18:0.0&#45;&gt;q11:0.0 -->
<g id="edge24" class="edge">
<title>q18:0.0&#45;&gt;q11:0.0</title>
<path fill="none" stroke="black" d="M1420.6,-194.35C1380.1,-196.52 1320.8,-196.06 1271.6,-181 1262.6,-178.25 1261.7,-174.74 1253.6,-170 1250.2,-168.03 1246.7,-166 1243.2,-163.98"/>
<polygon fill="black" stroke="black" points="1245.05,-161 1234.62,-159.13 1241.6,-167.1 1245.05,-161"/>
<text text-anchor="middle" x="1336.9" y="-198.94" font-family="Times,serif" font-size="14.00">content/λ:0.974</text>
</g>
<!-- q23:0.0 -->
<g id="node22" class="node">
<title>q23:0.0</title>
<ellipse fill="none" stroke="black" stroke-width="2" cx="1733.9" cy="-180" rx="49.1" ry="18"/>
<text text-anchor="middle" x="1733.9" y="-175.32" font-family="Times,serif" font-size="14.00">q23:0.0</text>
</g>
<!-- q18:0.0&#45;&gt;q23:0.0 -->
<g id="edge25" class="edge">
<title>q18:0.0&#45;&gt;q23:0.0</title>
<path fill="none" stroke="black" d="M1519,-188.14C1562.5,-186.49 1626.3,-184.06 1672.9,-182.28"/>
<polygon fill="black" stroke="black" points="1673.02,-185.78 1682.89,-181.91 1672.76,-178.78 1673.02,-185.78"/>
<text text-anchor="middle" x="1601.6" y="-190.94" font-family="Times,serif" font-size="14.00">content/250:0.025</text>
</g>
<!-- q22:0.0 -->
<g id="node23" class="node">
<title>q22:0.0</title>
<ellipse fill="none" stroke="black" stroke-width="2" cx="1733.9" cy="-234" rx="49.1" ry="18"/>
<text text-anchor="middle" x="1733.9" y="-229.32" font-family="Times,serif" font-size="14.00">q22:0.0</text>
</g>
<!-- q18:0.0&#45;&gt;q22:0.0 -->
<g id="edge26" class="edge">
<title>q18:0.0&#45;&gt;q22:0.0</title>
<path fill="none" stroke="black" d="M1511.7,-199.93C1519.9,-201.73 1528.3,-203.51 1536.3,-205 1582.8,-213.68 1635.8,-221.38 1675.1,-226.65"/>
<polygon fill="black" stroke="black" points="1674.42,-230.09 1684.8,-227.94 1675.35,-223.15 1674.42,-230.09"/>
<text text-anchor="middle" x="1601.6" y="-227.94" font-family="Times,serif" font-size="14.00">content/554:0.001</text>
</g>
<!-- q25:1.0 -->
<g id="node25" class="node">
<title>q25:1.0</title>
<ellipse fill="none" stroke="black" stroke-width="2" cx="1966.4" cy="-180" rx="49.1" ry="18"/>
<text text-anchor="middle" x="1966.4" y="-175.32" font-family="Times,serif" font-size="14.00">q25:1.0</text>
</g>
<!-- q23:0.0&#45;&gt;q25:1.0 -->
<g id="edge28" class="edge">
<title>q23:0.0&#45;&gt;q25:1.0</title>
<path fill="none" stroke="black" d="M1783.8,-180C1819.2,-180 1867.4,-180 1905.2,-180"/>
<polygon fill="black" stroke="black" points="1905.09,-183.5 1915.09,-180 1905.09,-176.5 1905.09,-183.5"/>
<text text-anchor="middle" x="1850.1" y="-183.94" font-family="Times,serif" font-size="14.00">QUIT/221:1.0</text>
</g>
<!-- q24:1.0 -->
<g id="node26" class="node">
<title>q24:1.0</title>
<ellipse fill="none" stroke="black" stroke-width="2" cx="1966.4" cy="-234" rx="49.1" ry="18"/>
<text text-anchor="middle" x="1966.4" y="-229.32" font-family="Times,serif" font-size="14.00">q24:1.0</text>
</g>
<!-- q22:0.0&#45;&gt;q24:1.0 -->
<g id="edge29" class="edge">
<title>q22:0.0&#45;&gt;q24:1.0</title>
<path fill="none" stroke="black" d="M1783.8,-234C1819.2,-234 1867.4,-234 1905.2,-234"/>
<polygon fill="black" stroke="black" points="1905.09,-237.5 1915.09,-234 1905.09,-230.5 1905.09,-237.5"/>
<text text-anchor="middle" x="1850.1" y="-237.94" font-family="Times,serif" font-size="14.00">RSET/250:1.0</text>
</g>
</g>
</svg>
