<?xml version="1.0" encoding="UTF-8" standalone="no"?>
<!DOCTYPE svg PUBLIC "-//W3C//DTD SVG 1.1//EN"
 "http://www.w3.org/Graphics/SVG/1.1/DTD/svg11.dtd">
<!-- Generated by graphviz version 12.0.0 (20240803.0821)
 -->
<!-- Pages: 1 -->
<svg width="5110pt" height="489pt"
 viewBox="0.00 0.00 5109.60 488.88" xmlns="http://www.w3.org/2000/svg" xmlns:xlink="http://www.w3.org/1999/xlink">
<g id="graph0" class="graph" transform="scale(1 1) rotate(0) translate(4 484.88)">
<polygon fill="white" stroke="none" points="-4,4 -4,-484.88 5105.6,-484.88 5105.6,4 -4,4"/>
<!-- q18:0.0 -->
<g id="node1" class="node">
<title>q18:0.0</title>
<ellipse fill="none" stroke="black" stroke-width="2" cx="4252.3" cy="-163.34" rx="49.1" ry="18"/>
<text text-anchor="middle" x="4252.3" y="-158.66" font-family="Times,serif" font-size="14.00">q18:0.0</text>
</g>
<!-- q22:1.0 -->
<g id="node2" class="node">
<title>q22:1.0</title>
<ellipse fill="none" stroke="black" stroke-width="2" cx="4820" cy="-165.34" rx="49.1" ry="18"/>
<text text-anchor="middle" x="4820" y="-160.66" font-family="Times,serif" font-size="14.00">q22:1.0</text>
</g>
<!-- q18:0.0&#45;&gt;q22:1.0 -->
<g id="edge1" class="edge">
<title>q18:0.0&#45;&gt;q22:1.0</title>
<path fill="none" stroke="black" d="M4302,-163.51C4405.3,-163.88 4646,-164.73 4758.7,-165.13"/>
<polygon fill="black" stroke="black" points="4758.67,-168.63 4768.69,-165.16 4758.7,-161.63 4758.67,-168.63"/>
<text text-anchor="middle" x="4536.2" y="-186.54" font-family="Times,serif" font-size="14.00">QUIT/221:1.0</text>
<text text-anchor="middle" x="4536.2" y="-169.29" font-family="Times,serif" font-size="14.00">b0 in {&#39;Bye&#39;, &#39;smtp&#45;97&#45;27.smtpsmail.fmail.bx.sinanode.com&#39;}</text>
</g>
<!-- q3:0.0 -->
<g id="node3" class="node">
<title>q3:0.0</title>
<ellipse fill="none" stroke="black" stroke-width="2" cx="484.7" cy="-212.34" rx="42.79" ry="18"/>
<text text-anchor="middle" x="484.7" y="-207.66" font-family="Times,serif" font-size="14.00">q3:0.0</text>
</g>
<!-- q4:0.0 -->
<g id="node4" class="node">
<title>q4:0.0</title>
<ellipse fill="none" stroke="black" stroke-width="2" cx="1657.8" cy="-133.34" rx="42.79" ry="18"/>
<text text-anchor="middle" x="1657.8" y="-128.66" font-family="Times,serif" font-size="14.00">q4:0.0</text>
</g>
<!-- q3:0.0&#45;&gt;q4:0.0 -->
<g id="edge2" class="edge">
<title>q3:0.0&#45;&gt;q4:0.0</title>
<path fill="none" stroke="black" d="M504.7,-195.62C515.78,-186.97 530.5,-177.27 545.49,-172.59 657.04,-137.77 1481.8,-173.17 1597,-153.34 1602.7,-152.35 1608.6,-150.92 1614.4,-149.26"/>
<polygon fill="black" stroke="black" points="1615.35,-152.63 1623.85,-146.31 1613.27,-145.95 1615.35,-152.63"/>
<text text-anchor="middle" x="1071.2" y="-211.78" font-family="Times,serif" font-size="14.00">AUTH/235:0.947</text>
<text text-anchor="middle" x="1071.2" y="-194.53" font-family="Times,serif" font-size="14.00">a0 in {&#39;PLAIN AEF6NjE2MUAxMjYuY29tAE1VUVNBT1NUWElURkpDVUU=&#39;, &#39;PLAIN AEF6NjE2MUBzaW5hLmNvbQA2ZmRiMjVjZmNjODYyZWZj&#39;}</text>
<text text-anchor="middle" x="1071.2" y="-177.28" font-family="Times,serif" font-size="14.00">b0 in {&#39;Authentication successful&#39;, &#39;OK Authenticated&#39;}</text>
</g>
<!-- q6:0.0 -->
<g id="node5" class="node">
<title>q6:0.0</title>
<ellipse fill="none" stroke="black" stroke-width="2" cx="1657.8" cy="-318.34" rx="42.79" ry="18"/>
<text text-anchor="middle" x="1657.8" y="-313.66" font-family="Times,serif" font-size="14.00">q6:0.0</text>
</g>
<!-- q3:0.0&#45;&gt;q6:0.0 -->
<g id="edge3" class="edge">
<title>q3:0.0&#45;&gt;q6:0.0</title>
<path fill="none" stroke="black" d="M493.59,-230.63C502.91,-249.67 520.39,-278.47 545.49,-291.34 915.32,-480.88 1449.2,-370.66 1609.6,-330.86"/>
<polygon fill="black" stroke="black" points="1610.1,-334.34 1618.93,-328.49 1608.38,-327.56 1610.1,-334.34"/>
<text text-anchor="middle" x="1071.2" y="-419.54" font-family="Times,serif" font-size="14.00">AUTH/535:0.049</text>
<text text-anchor="middle" x="1071.2" y="-402.29" font-family="Times,serif" font-size="14.00">b0 in {&#39;5.7.8 authentication failed&#39;, &#39;Error: authentication failed&#39;}</text>
</g>
<!-- q5:0.0 -->
<g id="node6" class="node">
<title>q5:0.0</title>
<ellipse fill="none" stroke="black" stroke-width="2" cx="1657.8" cy="-250.34" rx="42.79" ry="18"/>
<text text-anchor="middle" x="1657.8" y="-245.66" font-family="Times,serif" font-size="14.00">q5:0.0</text>
</g>
<!-- q3:0.0&#45;&gt;q5:0.0 -->
<g id="edge4" class="edge">
<title>q3:0.0&#45;&gt;q5:0.0</title>
<path fill="none" stroke="black" d="M520.5,-223.17C528.63,-225.27 537.3,-227.18 545.49,-228.34 753.21,-257.74 1409.8,-253.07 1602.9,-250.99"/>
<polygon fill="black" stroke="black" points="1602.62,-254.49 1612.59,-250.88 1602.55,-247.49 1602.62,-254.49"/>
<text text-anchor="middle" x="1071.2" y="-273.54" font-family="Times,serif" font-size="14.00">AUTH/λ:0.004</text>
<text text-anchor="middle" x="1071.2" y="-256.29" font-family="Times,serif" font-size="14.00">a0 = PLAIN AEF6NjE2MUAxMjYuY29tAE1VUVNBT1NUWElURkpDVUU=</text>
</g>
<!-- q7:0.0 -->
<g id="node7" class="node">
<title>q7:0.0</title>
<ellipse fill="none" stroke="black" stroke-width="2" cx="2500.9" cy="-96.33" rx="42.79" ry="18"/>
<text text-anchor="middle" x="2500.9" y="-91.66" font-family="Times,serif" font-size="14.00">q7:0.0</text>
</g>
<!-- q4:0.0&#45;&gt;q7:0.0 -->
<g id="edge5" class="edge">
<title>q4:0.0&#45;&gt;q7:0.0</title>
<path fill="none" stroke="black" d="M1679.6,-117.07C1690.6,-109.56 1704.6,-101.46 1718.6,-97.59 1985.4,-23.67 2323.5,-66.84 2449.5,-87.36"/>
<polygon fill="black" stroke="black" points="2448.77,-90.79 2459.21,-88.97 2449.91,-83.88 2448.77,-90.79"/>
<text text-anchor="middle" x="2079.3" y="-136.78" font-family="Times,serif" font-size="14.00">MAIL/553:0.013</text>
<text text-anchor="middle" x="2079.3" y="-119.54" font-family="Times,serif" font-size="14.00">a0 in {&#39;FROM:&lt;Az_6161@126.com&gt;&#39;, &#39;FROM:&lt;Az_6161@sina.com&gt;&#39;, &#39;FROM:&lt;Az6161@163.com&gt;&#39;}</text>
<text text-anchor="middle" x="2079.3" y="-102.29" font-family="Times,serif" font-size="14.00">b0 in {&#39;Mail from must equal authorized user&#39;, &#39;Envolope sender mismatch with login user..&#39;}</text>
</g>
<!-- q8:0.0 -->
<g id="node8" class="node">
<title>q8:0.0</title>
<ellipse fill="none" stroke="black" stroke-width="2" cx="2500.9" cy="-188.34" rx="42.79" ry="18"/>
<text text-anchor="middle" x="2500.9" y="-183.66" font-family="Times,serif" font-size="14.00">q8:0.0</text>
</g>
<!-- q4:0.0&#45;&gt;q8:0.0 -->
<g id="edge6" class="edge">
<title>q4:0.0&#45;&gt;q8:0.0</title>
<path fill="none" stroke="black" d="M1693.6,-144.09C1701.7,-146.19 1710.4,-148.12 1718.6,-149.34 2036,-196.28 2122.6,-126.26 2440.1,-172.59 2444.5,-173.23 2449,-174.08 2453.6,-175.05"/>
<polygon fill="black" stroke="black" points="2452.69,-178.43 2463.23,-177.33 2454.3,-171.62 2452.69,-178.43"/>
<text text-anchor="middle" x="2079.3" y="-211.78" font-family="Times,serif" font-size="14.00">MAIL/250:0.987</text>
<text text-anchor="middle" x="2079.3" y="-194.53" font-family="Times,serif" font-size="14.00">a0 in {&#39;FROM:&lt;Az6161@sina.com&gt;&#39;, &#39;FROM:&lt;Az6161@126.com&gt;&#39;}</text>
<text text-anchor="middle" x="2079.3" y="-177.28" font-family="Times,serif" font-size="14.00">b0 in {&#39;Mail OK&#39;, &#39;ok&#39;}</text>
</g>
<!-- q9:0.0 -->
<g id="node9" class="node">
<title>q9:0.0</title>
<ellipse fill="none" stroke="black" stroke-width="2" cx="2500.9" cy="-321.34" rx="42.79" ry="18"/>
<text text-anchor="middle" x="2500.9" y="-316.66" font-family="Times,serif" font-size="14.00">q9:0.0</text>
</g>
<!-- q6:0.0&#45;&gt;q9:0.0 -->
<g id="edge7" class="edge">
<title>q6:0.0&#45;&gt;q9:0.0</title>
<path fill="none" stroke="black" d="M1701.4,-318.49C1841.9,-318.99 2290.6,-320.59 2446.2,-321.15"/>
<polygon fill="black" stroke="black" points="2445.77,-324.65 2455.79,-321.18 2445.8,-317.65 2445.77,-324.65"/>
<text text-anchor="middle" x="2079.3" y="-341.54" font-family="Times,serif" font-size="14.00">AUTH/334:1.0</text>
<text text-anchor="middle" x="2079.3" y="-324.29" font-family="Times,serif" font-size="14.00">b0 = UGFzc3dvcmQ6</text>
</g>
<!-- q5:0.0&#45;&gt;q8:0.0 -->
<g id="edge8" class="edge">
<title>q5:0.0&#45;&gt;q8:0.0</title>
<path fill="none" stroke="black" d="M1701.2,-251.72C1843.1,-255.91 2300,-265.77 2440.1,-224.34 2450.1,-221.37 2460.2,-216.3 2469.1,-210.88"/>
<polygon fill="black" stroke="black" points="2470.9,-213.88 2477.43,-205.53 2467.12,-207.99 2470.9,-213.88"/>
<text text-anchor="middle" x="2079.3" y="-293.78" font-family="Times,serif" font-size="14.00">MAIL/250:1.0</text>
<text text-anchor="middle" x="2079.3" y="-276.53" font-family="Times,serif" font-size="14.00">a0 = FROM:&lt;Az6161@126.com&gt;</text>
<text text-anchor="middle" x="2079.3" y="-259.28" font-family="Times,serif" font-size="14.00">b0 = Mail OK</text>
</g>
<!-- q10:1.0 -->
<g id="node10" class="node">
<title>q10:1.0</title>
<ellipse fill="none" stroke="black" stroke-width="2" cx="3329.6" cy="-96.33" rx="49.1" ry="18"/>
<text text-anchor="middle" x="3329.6" y="-91.66" font-family="Times,serif" font-size="14.00">q10:1.0</text>
</g>
<!-- q7:0.0&#45;&gt;q10:1.0 -->
<g id="edge9" class="edge">
<title>q7:0.0&#45;&gt;q10:1.0</title>
<path fill="none" stroke="black" d="M2544.6,-96.34C2681.3,-96.34 3108.8,-96.34 3268,-96.34"/>
<polygon fill="black" stroke="black" points="3267.99,-99.84 3277.99,-96.34 3267.99,-92.84 3267.99,-99.84"/>
<text text-anchor="middle" x="2908.9" y="-117.54" font-family="Times,serif" font-size="14.00">RSET/250:1.0</text>
<text text-anchor="middle" x="2908.9" y="-100.29" font-family="Times,serif" font-size="14.00">b0 in {&#39;flushed&#39;, &#39;OK&#39;}</text>
</g>
<!-- q11:0.0 -->
<g id="node11" class="node">
<title>q11:0.0</title>
<ellipse fill="none" stroke="black" stroke-width="2" cx="3329.6" cy="-188.34" rx="49.1" ry="18"/>
<text text-anchor="middle" x="3329.6" y="-183.66" font-family="Times,serif" font-size="14.00">q11:0.0</text>
</g>
<!-- q8:0.0&#45;&gt;q11:0.0 -->
<g id="edge10" class="edge">
<title>q8:0.0&#45;&gt;q11:0.0</title>
<path fill="none" stroke="black" d="M2544.6,-188.34C2681.3,-188.34 3108.8,-188.34 3268,-188.34"/>
<polygon fill="black" stroke="black" points="3267.99,-191.84 3277.99,-188.34 3267.99,-184.84 3267.99,-191.84"/>
<text text-anchor="middle" x="2908.9" y="-226.78" font-family="Times,serif" font-size="14.00">RCPT/250:1.0</text>
<text text-anchor="middle" x="2908.9" y="-209.53" font-family="Times,serif" font-size="14.00">a0 in {&#39;TO:&lt;574702257@qq.com&gt;&#39;, &#39;TO:&lt;1542110793@qq.com&gt;&#39;, &#39;TO:&lt;574702256@qq.com&gt;&#39;}</text>
<text text-anchor="middle" x="2908.9" y="-192.28" font-family="Times,serif" font-size="14.00">b0 in {&#39;Mail OK&#39;, &#39;ok&#39;}</text>
</g>
<!-- q12:0.75 -->
<g id="node12" class="node">
<title>q12:0.75</title>
<ellipse fill="none" stroke="black" stroke-width="2" cx="3329.6" cy="-321.34" rx="55.42" ry="18"/>
<text text-anchor="middle" x="3329.6" y="-316.66" font-family="Times,serif" font-size="14.00">q12:0.75</text>
</g>
<!-- q9:0.0&#45;&gt;q12:0.75 -->
<g id="edge11" class="edge">
<title>q9:0.0&#45;&gt;q12:0.75</title>
<path fill="none" stroke="black" d="M2544.6,-321.34C2679.6,-321.34 3098.1,-321.34 3261.9,-321.34"/>
<polygon fill="black" stroke="black" points="3261.69,-324.84 3271.69,-321.34 3261.69,-317.84 3261.69,-324.84"/>
<text text-anchor="middle" x="2908.9" y="-342.54" font-family="Times,serif" font-size="14.00">content/535:1.0</text>
<text text-anchor="middle" x="2908.9" y="-325.29" font-family="Times,serif" font-size="14.00">b0 in {&#39;5.7.8 authentication failed&#39;, &#39;Error: authentication failed&#39;}</text>
</g>
<!-- q14:0.0 -->
<g id="node13" class="node">
<title>q14:0.0</title>
<ellipse fill="none" stroke="black" stroke-width="2" cx="3794.1" cy="-130.33" rx="49.1" ry="18"/>
<text text-anchor="middle" x="3794.1" y="-125.66" font-family="Times,serif" font-size="14.00">q14:0.0</text>
</g>
<!-- q11:0.0&#45;&gt;q14:0.0 -->
<g id="edge12" class="edge">
<title>q11:0.0&#45;&gt;q14:0.0</title>
<path fill="none" stroke="black" d="M3347.8,-170.69C3361.4,-158.03 3381.6,-142 3403,-134.84 3516.9,-96.59 3660.3,-109.19 3737.6,-120.53"/>
<polygon fill="black" stroke="black" points="3736.99,-123.98 3747.4,-122.03 3738.05,-117.06 3736.99,-123.98"/>
<text text-anchor="middle" x="3565" y="-156.54" font-family="Times,serif" font-size="14.00">DATA/354:0.386</text>
<text text-anchor="middle" x="3565" y="-139.29" font-family="Times,serif" font-size="14.00">b0 = End data with &lt;CR&gt;&lt;LF&gt;.&lt;CR&gt;&lt;LF&gt;</text>
</g>
<!-- q13:0.0 -->
<g id="node14" class="node">
<title>q13:0.0</title>
<ellipse fill="none" stroke="black" stroke-width="2" cx="3794.1" cy="-242.34" rx="49.1" ry="18"/>
<text text-anchor="middle" x="3794.1" y="-237.66" font-family="Times,serif" font-size="14.00">q13:0.0</text>
</g>
<!-- q11:0.0&#45;&gt;q13:0.0 -->
<g id="edge13" class="edge">
<title>q11:0.0&#45;&gt;q13:0.0</title>
<path fill="none" stroke="black" d="M3378,-183.73C3469.4,-175.62 3666.1,-162.15 3727,-189.84 3738,-194.86 3735.9,-202.36 3745,-210.34 3748.8,-213.7 3753,-216.99 3757.3,-220.1"/>
<polygon fill="black" stroke="black" points="3755.24,-222.93 3765.45,-225.73 3759.21,-217.17 3755.24,-222.93"/>
<text text-anchor="middle" x="3565" y="-210.54" font-family="Times,serif" font-size="14.00">RCPT/250:0.614</text>
<text text-anchor="middle" x="3565" y="-193.29" font-family="Times,serif" font-size="14.00">b0 in {&#39;Mail OK&#39;, &#39;ok&#39;}</text>
</g>
<!-- q15:1.0 -->
<g id="node25" class="node">
<title>q15:1.0</title>
<ellipse fill="none" stroke="black" stroke-width="2" cx="3794.1" cy="-321.34" rx="49.1" ry="18"/>
<text text-anchor="middle" x="3794.1" y="-316.66" font-family="Times,serif" font-size="14.00">q15:1.0</text>
</g>
<!-- q12:0.75&#45;&gt;q15:1.0 -->
<g id="edge29" class="edge">
<title>q12:0.75&#45;&gt;q15:1.0</title>
<path fill="none" stroke="black" d="M3385.9,-321.34C3473.2,-321.34 3642.2,-321.34 3732.6,-321.34"/>
<polygon fill="black" stroke="black" points="3732.49,-324.84 3742.49,-321.34 3732.49,-317.84 3732.49,-324.84"/>
<text text-anchor="middle" x="3565" y="-342.54" font-family="Times,serif" font-size="14.00">λ/451:0.25</text>
<text text-anchor="middle" x="3565" y="-325.29" font-family="Times,serif" font-size="14.00">b0 = Timeout.</text>
</g>
<!-- q14:0.0&#45;&gt;q18:0.0 -->
<g id="edge22" class="edge">
<title>q14:0.0&#45;&gt;q18:0.0</title>
<path fill="none" stroke="black" d="M3843.1,-133.8C3927.1,-139.88 4100.6,-152.44 4192,-159.05"/>
<polygon fill="black" stroke="black" points="4191.56,-162.52 4201.79,-159.76 4192.07,-155.54 4191.56,-162.52"/>
<text text-anchor="middle" x="4023.2" y="-163.28" font-family="Times,serif" font-size="14.00">content/250:0.146</text>
</g>
<!-- q14:0.0&#45;&gt;q14:0.0 -->
<g id="edge23" class="edge">
<title>q14:0.0&#45;&gt;q14:0.0</title>
<path fill="none" stroke="black" d="M3758,-143.44C3742,-154.6 3754,-166.34 3794.1,-166.34 3823.5,-166.34 3837.8,-160.01 3837,-152.23"/>
<polygon fill="black" stroke="black" points="3840.01,-150.4 3831.13,-144.64 3834.48,-154.69 3840.01,-150.4"/>
<text text-anchor="middle" x="3794.1" y="-187.54" font-family="Times,serif" font-size="14.00">content/λ:0.451</text>
<text text-anchor="middle" x="3794.1" y="-170.29" font-family="Times,serif" font-size="14.00">a0 = b0</text>
</g>
<!-- q19:0.0 -->
<g id="node22" class="node">
<title>q19:0.0</title>
<ellipse fill="none" stroke="black" stroke-width="2" cx="4252.3" cy="-107.34" rx="49.1" ry="18"/>
<text text-anchor="middle" x="4252.3" y="-102.66" font-family="Times,serif" font-size="14.00">q19:0.0</text>
</g>
<!-- q14:0.0&#45;&gt;q19:0.0 -->
<g id="edge24" class="edge">
<title>q14:0.0&#45;&gt;q19:0.0</title>
<path fill="none" stroke="black" d="M3837.2,-120.76C3845.2,-119.28 3853.4,-117.96 3861.2,-117.09 3977.4,-104.08 4114.3,-104.18 4191.1,-105.63"/>
<polygon fill="black" stroke="black" points="4190.92,-109.12 4200.99,-105.83 4191.06,-102.13 4190.92,-109.12"/>
<text text-anchor="middle" x="4023.2" y="-121.29" font-family="Times,serif" font-size="14.00">content/554:0.402</text>
</g>
<!-- q13:0.0&#45;&gt;q11:0.0 -->
<g id="edge25" class="edge">
<title>q13:0.0&#45;&gt;q11:0.0</title>
<path fill="none" stroke="black" d="M3745.3,-246.38C3670.8,-251.3 3523.1,-255.48 3403,-224.34 3390.4,-221.07 3377.4,-215.46 3366,-209.62"/>
<polygon fill="black" stroke="black" points="3367.8,-206.61 3357.33,-204.97 3364.49,-212.78 3367.8,-206.61"/>
<text text-anchor="middle" x="3565" y="-270.54" font-family="Times,serif" font-size="14.00">RCPT/250:0.028</text>
<text text-anchor="middle" x="3565" y="-253.29" font-family="Times,serif" font-size="14.00">b0 = Mail OK</text>
</g>
<!-- q17:0.0 -->
<g id="node17" class="node">
<title>q17:0.0</title>
<ellipse fill="none" stroke="black" stroke-width="2" cx="4252.3" cy="-278.34" rx="49.1" ry="18"/>
<text text-anchor="middle" x="4252.3" y="-273.66" font-family="Times,serif" font-size="14.00">q17:0.0</text>
</g>
<!-- q13:0.0&#45;&gt;q17:0.0 -->
<g id="edge26" class="edge">
<title>q13:0.0&#45;&gt;q17:0.0</title>
<path fill="none" stroke="black" d="M3836.9,-252.19C3844.9,-253.8 3853.3,-255.28 3861.2,-256.34 3977.3,-271.81 4114.2,-276.42 4191.1,-277.78"/>
<polygon fill="black" stroke="black" points="4190.83,-281.27 4200.89,-277.94 4190.95,-274.27 4190.83,-281.27"/>
<text text-anchor="middle" x="4023.2" y="-298.54" font-family="Times,serif" font-size="14.00">DATA/354:0.832</text>
<text text-anchor="middle" x="4023.2" y="-281.29" font-family="Times,serif" font-size="14.00">b0 = End data with &lt;CR&gt;&lt;LF&gt;.&lt;CR&gt;&lt;LF&gt;</text>
</g>
<!-- q16:1.0 -->
<g id="node23" class="node">
<title>q16:1.0</title>
<ellipse fill="none" stroke="black" stroke-width="2" cx="4252.3" cy="-220.34" rx="49.1" ry="18"/>
<text text-anchor="middle" x="4252.3" y="-215.66" font-family="Times,serif" font-size="14.00">q16:1.0</text>
</g>
<!-- q13:0.0&#45;&gt;q16:1.0 -->
<g id="edge27" class="edge">
<title>q13:0.0&#45;&gt;q16:1.0</title>
<path fill="none" stroke="black" d="M3830.3,-229.3C3840.2,-226.23 3851,-223.41 3861.2,-221.84 3977.6,-203.98 4115.8,-209.68 4192.5,-215.18"/>
<polygon fill="black" stroke="black" points="4192.06,-218.65 4202.29,-215.9 4192.58,-211.67 4192.06,-218.65"/>
<text text-anchor="middle" x="4023.2" y="-242.54" font-family="Times,serif" font-size="14.00">DATA/550:0.14</text>
<text text-anchor="middle" x="4023.2" y="-225.29" font-family="Times,serif" font-size="14.00">b0 = too many message send today.</text>
</g>
<!-- q1:0.0 -->
<g id="node15" class="node">
<title>q1:0.0</title>
<ellipse fill="none" stroke="black" stroke-width="2" cx="243.87" cy="-177.34" rx="42.79" ry="18"/>
<text text-anchor="middle" x="243.87" y="-172.66" font-family="Times,serif" font-size="14.00">q1:0.0</text>
</g>
<!-- q1:0.0&#45;&gt;q3:0.0 -->
<g id="edge14" class="edge">
<title>q1:0.0&#45;&gt;q3:0.0</title>
<path fill="none" stroke="black" d="M284.73,-184.16C291.38,-185.25 298.21,-186.35 304.66,-187.34 347.35,-193.89 395.88,-200.62 431.63,-205.44"/>
<polygon fill="black" stroke="black" points="430.89,-208.87 441.27,-206.74 431.83,-201.93 430.89,-208.87"/>
<text text-anchor="middle" x="364.29" y="-207.28" font-family="Times,serif" font-size="14.00">EHLO/250:0.996</text>
</g>
<!-- q2:0.0 -->
<g id="node16" class="node">
<title>q2:0.0</title>
<ellipse fill="none" stroke="black" stroke-width="2" cx="484.7" cy="-108.34" rx="42.79" ry="18"/>
<text text-anchor="middle" x="484.7" y="-103.66" font-family="Times,serif" font-size="14.00">q2:0.0</text>
</g>
<!-- q1:0.0&#45;&gt;q2:0.0 -->
<g id="edge15" class="edge">
<title>q1:0.0&#45;&gt;q2:0.0</title>
<path fill="none" stroke="black" d="M272.02,-162.83C282.07,-157.88 293.69,-152.64 304.66,-148.84 346.64,-134.29 395.99,-123.57 432.24,-116.83"/>
<polygon fill="black" stroke="black" points="432.82,-120.28 442.03,-115.05 431.57,-113.4 432.82,-120.28"/>
<text text-anchor="middle" x="364.29" y="-170.54" font-family="Times,serif" font-size="14.00">EHLO/λ:0.004</text>
<text text-anchor="middle" x="364.29" y="-153.29" font-family="Times,serif" font-size="14.00">a0 = [127.0.1.1]</text>
</g>
<!-- q2:0.0&#45;&gt;q4:0.0 -->
<g id="edge16" class="edge">
<title>q2:0.0&#45;&gt;q4:0.0</title>
<path fill="none" stroke="black" d="M525.16,-101.17C670.56,-76.22 1189.1,0 1597,-101.59 1606.2,-103.87 1615.5,-107.84 1623.9,-112.23"/>
<polygon fill="black" stroke="black" points="1621.94,-115.14 1632.38,-116.95 1625.35,-109.03 1621.94,-115.14"/>
<text text-anchor="middle" x="1071.2" y="-140.78" font-family="Times,serif" font-size="14.00">AUTH/235:1.0</text>
<text text-anchor="middle" x="1071.2" y="-123.54" font-family="Times,serif" font-size="14.00">a0 = PLAIN AEF6NjE2MUAxMjYuY29tAE1VUVNBT1NUWElURkpDVUU=</text>
<text text-anchor="middle" x="1071.2" y="-106.29" font-family="Times,serif" font-size="14.00">b0 = Authentication successful</text>
</g>
<!-- q17:0.0&#45;&gt;q17:0.0 -->
<g id="edge17" class="edge">
<title>q17:0.0&#45;&gt;q17:0.0</title>
<path fill="none" stroke="black" d="M4216.2,-291.44C4200.2,-302.6 4212.2,-314.34 4252.3,-314.34 4281.7,-314.34 4296,-308.01 4295.2,-300.23"/>
<polygon fill="black" stroke="black" points="4298.21,-298.4 4289.33,-292.63 4292.68,-302.69 4298.21,-298.4"/>
<text text-anchor="middle" x="4252.3" y="-335.54" font-family="Times,serif" font-size="14.00">content/λ:0.962</text>
<text text-anchor="middle" x="4252.3" y="-318.29" font-family="Times,serif" font-size="14.00">a0 = b0</text>
</g>
<!-- q21:0.0 -->
<g id="node18" class="node">
<title>q21:0.0</title>
<ellipse fill="none" stroke="black" stroke-width="2" cx="4820" cy="-282.34" rx="49.1" ry="18"/>
<text text-anchor="middle" x="4820" y="-277.66" font-family="Times,serif" font-size="14.00">q21:0.0</text>
</g>
<!-- q17:0.0&#45;&gt;q21:0.0 -->
<g id="edge18" class="edge">
<title>q17:0.0&#45;&gt;q21:0.0</title>
<path fill="none" stroke="black" d="M4302,-278.68C4405.3,-279.41 4646,-281.11 4758.7,-281.91"/>
<polygon fill="black" stroke="black" points="4758.66,-285.41 4768.69,-281.98 4758.71,-278.41 4758.66,-285.41"/>
<text text-anchor="middle" x="4536.2" y="-285.28" font-family="Times,serif" font-size="14.00">content/250:0.036</text>
</g>
<!-- q20:0.0 -->
<g id="node19" class="node">
<title>q20:0.0</title>
<ellipse fill="none" stroke="black" stroke-width="2" cx="4820" cy="-226.34" rx="49.1" ry="18"/>
<text text-anchor="middle" x="4820" y="-221.66" font-family="Times,serif" font-size="14.00">q20:0.0</text>
</g>
<!-- q17:0.0&#45;&gt;q20:0.0 -->
<g id="edge19" class="edge">
<title>q17:0.0&#45;&gt;q20:0.0</title>
<path fill="none" stroke="black" d="M4288.2,-265.32C4298.2,-262.11 4309.1,-259.03 4319.4,-257.09 4476,-227.58 4664.6,-224.57 4759,-225.23"/>
<polygon fill="black" stroke="black" points="4758.76,-228.72 4768.79,-225.31 4758.82,-221.73 4758.76,-228.72"/>
<text text-anchor="middle" x="4536.2" y="-260.28" font-family="Times,serif" font-size="14.00">content/554:0.003</text>
</g>
<!-- q25:1.0 -->
<g id="node20" class="node">
<title>q25:1.0</title>
<ellipse fill="none" stroke="black" stroke-width="2" cx="5052.5" cy="-283.34" rx="49.1" ry="18"/>
<text text-anchor="middle" x="5052.5" y="-278.66" font-family="Times,serif" font-size="14.00">q25:1.0</text>
</g>
<!-- q21:0.0&#45;&gt;q25:1.0 -->
<g id="edge20" class="edge">
<title>q21:0.0&#45;&gt;q25:1.0</title>
<path fill="none" stroke="black" d="M4869.9,-282.55C4905.3,-282.7 4953.5,-282.91 4991.3,-283.08"/>
<polygon fill="black" stroke="black" points="4991.17,-286.58 5001.19,-283.12 4991.2,-279.58 4991.17,-286.58"/>
<text text-anchor="middle" x="4936.2" y="-286.28" font-family="Times,serif" font-size="14.00">QUIT/221:1.0</text>
</g>
<!-- q24:1.0 -->
<g id="node21" class="node">
<title>q24:1.0</title>
<ellipse fill="none" stroke="black" stroke-width="2" cx="5052.5" cy="-225.34" rx="49.1" ry="18"/>
<text text-anchor="middle" x="5052.5" y="-220.66" font-family="Times,serif" font-size="14.00">q24:1.0</text>
</g>
<!-- q20:0.0&#45;&gt;q24:1.0 -->
<g id="edge21" class="edge">
<title>q20:0.0&#45;&gt;q24:1.0</title>
<path fill="none" stroke="black" d="M4869.9,-226.13C4905.3,-225.97 4953.5,-225.76 4991.3,-225.6"/>
<polygon fill="black" stroke="black" points="4991.2,-229.1 5001.19,-225.55 4991.17,-222.1 4991.2,-229.1"/>
<text text-anchor="middle" x="4936.2" y="-246.54" font-family="Times,serif" font-size="14.00">RSET/250:1.0</text>
<text text-anchor="middle" x="4936.2" y="-229.29" font-family="Times,serif" font-size="14.00">b0 = OK</text>
</g>
<!-- q23:1.0 -->
<g id="node24" class="node">
<title>q23:1.0</title>
<ellipse fill="none" stroke="black" stroke-width="2" cx="4820" cy="-107.34" rx="49.1" ry="18"/>
<text text-anchor="middle" x="4820" y="-102.66" font-family="Times,serif" font-size="14.00">q23:1.0</text>
</g>
<!-- q19:0.0&#45;&gt;q23:1.0 -->
<g id="edge28" class="edge">
<title>q19:0.0&#45;&gt;q23:1.0</title>
<path fill="none" stroke="black" d="M4302,-107.34C4405.3,-107.34 4646,-107.34 4758.7,-107.34"/>
<polygon fill="black" stroke="black" points="4758.69,-110.84 4768.69,-107.34 4758.69,-103.84 4758.69,-110.84"/>
<text text-anchor="middle" x="4536.2" y="-128.53" font-family="Times,serif" font-size="14.00">RSET/250:1.0</text>
<text text-anchor="middle" x="4536.2" y="-111.29" font-family="Times,serif" font-size="14.00">b0 = OK</text>
</g>
<!-- q0:0.0 -->
<g id="node26" class="node">
<title>q0:0.0</title>
<ellipse fill="none" stroke="black" stroke-width="2" cx="50.79" cy="-177.34" rx="46.79" ry="46.79"/>
<ellipse fill="none" stroke="black" stroke-width="2" cx="50.79" cy="-177.34" rx="50.79" ry="50.79"/>
<text text-anchor="middle" x="50.79" y="-172.66" font-family="Times,serif" font-size="14.00">q0:0.0</text>
</g>
<!-- q0:0.0&#45;&gt;q1:0.0 -->
<g id="edge30" class="edge">
<title>q0:0.0&#45;&gt;q1:0.0</title>
<path fill="none" stroke="black" d="M98.53,-177.34C125.82,-177.34 160.37,-177.34 188.82,-177.34"/>
<polygon fill="black" stroke="black" points="188.69,-180.84 198.69,-177.34 188.69,-173.84 188.69,-180.84"/>
<text text-anchor="middle" x="149.33" y="-181.28" font-family="Times,serif" font-size="14.00">λ/220:1.0</text>
</g>
</g>
</svg>
