<?xml version="1.0" encoding="UTF-8" standalone="no"?>
<!DOCTYPE svg PUBLIC "-//W3C//DTD SVG 1.1//EN"
 "http://www.w3.org/Graphics/SVG/1.1/DTD/svg11.dtd">
<!-- Generated by graphviz version 12.0.0 (20240803.0821)
 -->
<!-- Pages: 1 -->
<svg width="2036pt" height="241pt"
 viewBox="0.00 0.00 2036.10 241.00" xmlns="http://www.w3.org/2000/svg" xmlns:xlink="http://www.w3.org/1999/xlink">
<g id="graph0" class="graph" transform="scale(1 1) rotate(0) translate(4 237)">
<polygon fill="white" stroke="none" points="-4,4 -4,-237 2032.1,-237 2032.1,4 -4,4"/>
<!-- q8:0.0 -->
<g id="node1" class="node">
<title>q8:0.0</title>
<ellipse fill="none" stroke="black" stroke-width="2" cx="961.86" cy="-72" rx="42.79" ry="18"/>
<text text-anchor="middle" x="961.86" y="-67.33" font-family="Times,serif" font-size="14.00">q8:0.0</text>
</g>
<!-- q8:0.0&#45;&gt;q8:0.0 -->
<g id="edge1" class="edge">
<title>q8:0.0&#45;&gt;q8:0.0</title>
<path fill="none" stroke="black" d="M941.09,-88.66C936.48,-98.62 943.4,-108 961.86,-108 972.83,-108 979.72,-104.69 982.55,-99.92"/>
<polygon fill="black" stroke="black" points="986.05,-100.2 982.62,-90.18 979.05,-100.15 986.05,-100.2"/>
<text text-anchor="middle" x="961.86" y="-111.95" font-family="Times,serif" font-size="14.00">RCPT/250:0.621</text>
</g>
<!-- q12:1.0 -->
<g id="node2" class="node">
<title>q12:1.0</title>
<ellipse fill="none" stroke="black" stroke-width="2" cx="1210.8" cy="-39" rx="49.1" ry="18"/>
<text text-anchor="middle" x="1210.8" y="-34.33" font-family="Times,serif" font-size="14.00">q12:1.0</text>
</g>
<!-- q8:0.0&#45;&gt;q12:1.0 -->
<g id="edge2" class="edge">
<title>q8:0.0&#45;&gt;q12:1.0</title>
<path fill="none" stroke="black" d="M998.71,-61.9C1006.6,-59.95 1014.8,-58.11 1022.7,-56.75 1065.1,-49.38 1113.4,-44.89 1150.4,-42.27"/>
<polygon fill="black" stroke="black" points="1150.25,-45.79 1159.99,-41.62 1149.77,-38.81 1150.25,-45.79"/>
<text text-anchor="middle" x="1080" y="-60.95" font-family="Times,serif" font-size="14.00">DATA/550:0.033</text>
</g>
<!-- q11:0.0 -->
<g id="node3" class="node">
<title>q11:0.0</title>
<ellipse fill="none" stroke="black" stroke-width="2" cx="1210.8" cy="-93" rx="49.1" ry="18"/>
<text text-anchor="middle" x="1210.8" y="-88.33" font-family="Times,serif" font-size="14.00">q11:0.0</text>
</g>
<!-- q8:0.0&#45;&gt;q11:0.0 -->
<g id="edge3" class="edge">
<title>q8:0.0&#45;&gt;q11:0.0</title>
<path fill="none" stroke="black" d="M1004.8,-75.56C1044.9,-78.97 1105.8,-84.16 1150.9,-87.99"/>
<polygon fill="black" stroke="black" points="1150.43,-91.46 1160.69,-88.82 1151.03,-84.48 1150.43,-91.46"/>
<text text-anchor="middle" x="1080" y="-90.95" font-family="Times,serif" font-size="14.00">DATA/354:0.345</text>
</g>
<!-- q17:0.0 -->
<g id="node4" class="node">
<title>q17:0.0</title>
<ellipse fill="none" stroke="black" stroke-width="2" cx="1481.8" cy="-155" rx="49.1" ry="18"/>
<text text-anchor="middle" x="1481.8" y="-150.32" font-family="Times,serif" font-size="14.00">q17:0.0</text>
</g>
<!-- q11:0.0&#45;&gt;q17:0.0 -->
<g id="edge4" class="edge">
<title>q11:0.0&#45;&gt;q17:0.0</title>
<path fill="none" stroke="black" d="M1250.8,-104.22C1261.6,-107.2 1273.3,-110.33 1284.2,-113 1331.9,-124.66 1386.5,-136.19 1426.1,-144.2"/>
<polygon fill="black" stroke="black" points="1425.32,-147.61 1435.82,-146.17 1426.71,-140.75 1425.32,-147.61"/>
<text text-anchor="middle" x="1349.5" y="-144.94" font-family="Times,serif" font-size="14.00">content/250:0.052</text>
</g>
<!-- q15:0.0 -->
<g id="node5" class="node">
<title>q15:0.0</title>
<ellipse fill="none" stroke="black" stroke-width="2" cx="1481.8" cy="-20" rx="49.1" ry="18"/>
<text text-anchor="middle" x="1481.8" y="-15.32" font-family="Times,serif" font-size="14.00">q15:0.0</text>
</g>
<!-- q11:0.0&#45;&gt;q15:0.0 -->
<g id="edge5" class="edge">
<title>q11:0.0&#45;&gt;q15:0.0</title>
<path fill="none" stroke="black" d="M1245.6,-79.35C1252.8,-75.61 1260.1,-71.14 1266.2,-66 1276.5,-57.39 1272.6,-48.43 1284.2,-41.75 1325.9,-17.81 1380.8,-13.55 1422,-14.6"/>
<polygon fill="black" stroke="black" points="1421.86,-18.1 1431.99,-14.99 1422.13,-11.11 1421.86,-18.1"/>
<text text-anchor="middle" x="1349.5" y="-45.95" font-family="Times,serif" font-size="14.00">content/554:0.043</text>
</g>
<!-- q16:0.0 -->
<g id="node6" class="node">
<title>q16:0.0</title>
<ellipse fill="none" stroke="black" stroke-width="2" cx="1481.8" cy="-88" rx="49.1" ry="18"/>
<text text-anchor="middle" x="1481.8" y="-83.33" font-family="Times,serif" font-size="14.00">q16:0.0</text>
</g>
<!-- q11:0.0&#45;&gt;q16:0.0 -->
<g id="edge6" class="edge">
<title>q11:0.0&#45;&gt;q16:0.0</title>
<path fill="none" stroke="black" d="M1260.8,-92.09C1305.9,-91.25 1372.8,-90.01 1420.9,-89.11"/>
<polygon fill="black" stroke="black" points="1420.65,-92.62 1430.59,-88.93 1420.52,-85.62 1420.65,-92.62"/>
<text text-anchor="middle" x="1349.5" y="-95.95" font-family="Times,serif" font-size="14.00">content/λ:0.905</text>
</g>
<!-- q21:1.0 -->
<g id="node7" class="node">
<title>q21:1.0</title>
<ellipse fill="none" stroke="black" stroke-width="2" cx="1746.5" cy="-180" rx="49.1" ry="18"/>
<text text-anchor="middle" x="1746.5" y="-175.32" font-family="Times,serif" font-size="14.00">q21:1.0</text>
</g>
<!-- q17:0.0&#45;&gt;q21:1.0 -->
<g id="edge7" class="edge">
<title>q17:0.0&#45;&gt;q21:1.0</title>
<path fill="none" stroke="black" d="M1530.4,-159.53C1574.4,-163.71 1639.9,-169.95 1687.1,-174.43"/>
<polygon fill="black" stroke="black" points="1686.5,-177.89 1696.79,-175.36 1687.17,-170.92 1686.5,-177.89"/>
<text text-anchor="middle" x="1614.2" y="-176.94" font-family="Times,serif" font-size="14.00">QUIT/221:1.0</text>
</g>
<!-- q18:1.0 -->
<g id="node8" class="node">
<title>q18:1.0</title>
<ellipse fill="none" stroke="black" stroke-width="2" cx="1746.5" cy="-18" rx="49.1" ry="18"/>
<text text-anchor="middle" x="1746.5" y="-13.32" font-family="Times,serif" font-size="14.00">q18:1.0</text>
</g>
<!-- q15:0.0&#45;&gt;q18:1.0 -->
<g id="edge8" class="edge">
<title>q15:0.0&#45;&gt;q18:1.0</title>
<path fill="none" stroke="black" d="M1531.6,-19.63C1575,-19.3 1638.6,-18.82 1685.1,-18.46"/>
<polygon fill="black" stroke="black" points="1685.11,-21.96 1695.09,-18.38 1685.06,-14.96 1685.11,-21.96"/>
<text text-anchor="middle" x="1614.2" y="-23.95" font-family="Times,serif" font-size="14.00">RSET/250:1.0</text>
</g>
<!-- q16:0.0&#45;&gt;q11:0.0 -->
<g id="edge9" class="edge">
<title>q16:0.0&#45;&gt;q11:0.0</title>
<path fill="none" stroke="black" d="M1444.5,-75.43C1435,-72.67 1424.6,-70.15 1414.7,-68.75 1357.3,-60.56 1341.5,-59.42 1284.2,-68.75 1274.9,-70.27 1265.2,-72.81 1256,-75.69"/>
<polygon fill="black" stroke="black" points="1254.91,-72.37 1246.53,-78.86 1257.13,-79.01 1254.91,-72.37"/>
<text text-anchor="middle" x="1349.5" y="-72.95" font-family="Times,serif" font-size="14.00">content/λ:0.97</text>
</g>
<!-- q19:0.0 -->
<g id="node9" class="node">
<title>q19:0.0</title>
<ellipse fill="none" stroke="black" stroke-width="2" cx="1746.5" cy="-126" rx="49.1" ry="18"/>
<text text-anchor="middle" x="1746.5" y="-121.33" font-family="Times,serif" font-size="14.00">q19:0.0</text>
</g>
<!-- q16:0.0&#45;&gt;q19:0.0 -->
<g id="edge10" class="edge">
<title>q16:0.0&#45;&gt;q19:0.0</title>
<path fill="none" stroke="black" d="M1524,-98.04C1532.2,-99.86 1540.8,-101.61 1548.9,-103 1594.8,-110.86 1647.1,-116.84 1686.2,-120.72"/>
<polygon fill="black" stroke="black" points="1685.9,-124.21 1696.19,-121.69 1686.58,-117.24 1685.9,-124.21"/>
<text text-anchor="middle" x="1614.2" y="-122.95" font-family="Times,serif" font-size="14.00">content/554:0.001</text>
</g>
<!-- q20:0.0 -->
<g id="node10" class="node">
<title>q20:0.0</title>
<ellipse fill="none" stroke="black" stroke-width="2" cx="1746.5" cy="-72" rx="49.1" ry="18"/>
<text text-anchor="middle" x="1746.5" y="-67.33" font-family="Times,serif" font-size="14.00">q20:0.0</text>
</g>
<!-- q16:0.0&#45;&gt;q20:0.0 -->
<g id="edge11" class="edge">
<title>q16:0.0&#45;&gt;q20:0.0</title>
<path fill="none" stroke="black" d="M1531.3,-85.05C1574.9,-82.39 1639.1,-78.48 1685.9,-75.64"/>
<polygon fill="black" stroke="black" points="1686.02,-79.13 1695.79,-75.03 1685.59,-72.15 1686.02,-79.13"/>
<text text-anchor="middle" x="1614.2" y="-87.95" font-family="Times,serif" font-size="14.00">content/250:0.029</text>
</g>
<!-- q22:1.0 -->
<g id="node11" class="node">
<title>q22:1.0</title>
<ellipse fill="none" stroke="black" stroke-width="2" cx="1979" cy="-126" rx="49.1" ry="18"/>
<text text-anchor="middle" x="1979" y="-121.33" font-family="Times,serif" font-size="14.00">q22:1.0</text>
</g>
<!-- q19:0.0&#45;&gt;q22:1.0 -->
<g id="edge12" class="edge">
<title>q19:0.0&#45;&gt;q22:1.0</title>
<path fill="none" stroke="black" d="M1796.4,-126C1831.9,-126 1880,-126 1917.8,-126"/>
<polygon fill="black" stroke="black" points="1917.69,-129.5 1927.69,-126 1917.69,-122.5 1917.69,-129.5"/>
<text text-anchor="middle" x="1862.8" y="-129.94" font-family="Times,serif" font-size="14.00">RSET/250:1.0</text>
</g>
<!-- q23:1.0 -->
<g id="node12" class="node">
<title>q23:1.0</title>
<ellipse fill="none" stroke="black" stroke-width="2" cx="1979" cy="-72" rx="49.1" ry="18"/>
<text text-anchor="middle" x="1979" y="-67.33" font-family="Times,serif" font-size="14.00">q23:1.0</text>
</g>
<!-- q20:0.0&#45;&gt;q23:1.0 -->
<g id="edge13" class="edge">
<title>q20:0.0&#45;&gt;q23:1.0</title>
<path fill="none" stroke="black" d="M1796.4,-72C1831.9,-72 1880,-72 1917.8,-72"/>
<polygon fill="black" stroke="black" points="1917.69,-75.5 1927.69,-72 1917.69,-68.5 1917.69,-75.5"/>
<text text-anchor="middle" x="1862.8" y="-75.95" font-family="Times,serif" font-size="14.00">QUIT/221:1.0</text>
</g>
<!-- q2:0.0 -->
<g id="node13" class="node">
<title>q2:0.0</title>
<ellipse fill="none" stroke="black" stroke-width="2" cx="484.7" cy="-151" rx="42.79" ry="18"/>
<text text-anchor="middle" x="484.7" y="-146.32" font-family="Times,serif" font-size="14.00">q2:0.0</text>
</g>
<!-- q4:0.0 -->
<g id="node14" class="node">
<title>q4:0.0</title>
<ellipse fill="none" stroke="black" stroke-width="2" cx="725.53" cy="-213" rx="42.79" ry="18"/>
<text text-anchor="middle" x="725.53" y="-208.32" font-family="Times,serif" font-size="14.00">q4:0.0</text>
</g>
<!-- q2:0.0&#45;&gt;q4:0.0 -->
<g id="edge14" class="edge">
<title>q2:0.0&#45;&gt;q4:0.0</title>
<path fill="none" stroke="black" d="M514.12,-164.82C523.9,-169.18 535.02,-173.71 545.49,-177 587.53,-190.2 636.68,-199.68 672.84,-205.58"/>
<polygon fill="black" stroke="black" points="672.18,-209.02 682.6,-207.14 673.28,-202.11 672.18,-209.02"/>
<text text-anchor="middle" x="605.12" y="-207.94" font-family="Times,serif" font-size="14.00">AUTH/535:0.049</text>
</g>
<!-- q5:0.0 -->
<g id="node15" class="node">
<title>q5:0.0</title>
<ellipse fill="none" stroke="black" stroke-width="2" cx="725.53" cy="-158" rx="42.79" ry="18"/>
<text text-anchor="middle" x="725.53" y="-153.32" font-family="Times,serif" font-size="14.00">q5:0.0</text>
</g>
<!-- q2:0.0&#45;&gt;q5:0.0 -->
<g id="edge15" class="edge">
<title>q2:0.0&#45;&gt;q5:0.0</title>
<path fill="none" stroke="black" d="M528.12,-152.24C567.91,-153.41 627.56,-155.16 670.69,-156.42"/>
<polygon fill="black" stroke="black" points="670.49,-159.92 680.59,-156.71 670.7,-152.92 670.49,-159.92"/>
<text text-anchor="middle" x="605.12" y="-159.94" font-family="Times,serif" font-size="14.00">AUTH/235:0.947</text>
</g>
<!-- q6:0.0 -->
<g id="node16" class="node">
<title>q6:0.0</title>
<ellipse fill="none" stroke="black" stroke-width="2" cx="725.53" cy="-78" rx="42.79" ry="18"/>
<text text-anchor="middle" x="725.53" y="-73.33" font-family="Times,serif" font-size="14.00">q6:0.0</text>
</g>
<!-- q2:0.0&#45;&gt;q6:0.0 -->
<g id="edge16" class="edge">
<title>q2:0.0&#45;&gt;q6:0.0</title>
<path fill="none" stroke="black" d="M519.14,-139.39C527.7,-136.5 536.92,-133.45 545.49,-130.75 598.15,-114.17 611.81,-111.68 664.74,-96 669.24,-94.67 673.93,-93.27 678.62,-91.87"/>
<polygon fill="black" stroke="black" points="679.43,-95.28 688,-89.05 677.42,-88.57 679.43,-95.28"/>
<text text-anchor="middle" x="605.12" y="-133.94" font-family="Times,serif" font-size="14.00">AUTH/λ:0.004</text>
</g>
<!-- q7:0.0 -->
<g id="node17" class="node">
<title>q7:0.0</title>
<ellipse fill="none" stroke="black" stroke-width="2" cx="961.86" cy="-215" rx="42.79" ry="18"/>
<text text-anchor="middle" x="961.86" y="-210.32" font-family="Times,serif" font-size="14.00">q7:0.0</text>
</g>
<!-- q4:0.0&#45;&gt;q7:0.0 -->
<g id="edge17" class="edge">
<title>q4:0.0&#45;&gt;q7:0.0</title>
<path fill="none" stroke="black" d="M769.24,-213.36C807.97,-213.7 865.24,-214.18 907.08,-214.54"/>
<polygon fill="black" stroke="black" points="906.91,-218.04 916.94,-214.63 906.97,-211.04 906.91,-218.04"/>
<text text-anchor="middle" x="843.7" y="-217.94" font-family="Times,serif" font-size="14.00">AUTH/334:1.0</text>
</g>
<!-- q5:0.0&#45;&gt;q8:0.0 -->
<g id="edge18" class="edge">
<title>q5:0.0&#45;&gt;q8:0.0</title>
<path fill="none" stroke="black" d="M759.6,-146.16C802.38,-130.82 874.58,-104.87 901.07,-95 906.74,-92.89 912.7,-90.64 918.56,-88.4"/>
<polygon fill="black" stroke="black" points="919.45,-91.8 927.54,-84.96 916.95,-85.27 919.45,-91.8"/>
<text text-anchor="middle" x="843.7" y="-138.94" font-family="Times,serif" font-size="14.00">MAIL/250:0.987</text>
</g>
<!-- q9:0.0 -->
<g id="node18" class="node">
<title>q9:0.0</title>
<ellipse fill="none" stroke="black" stroke-width="2" cx="961.86" cy="-161" rx="42.79" ry="18"/>
<text text-anchor="middle" x="961.86" y="-156.32" font-family="Times,serif" font-size="14.00">q9:0.0</text>
</g>
<!-- q5:0.0&#45;&gt;q9:0.0 -->
<g id="edge19" class="edge">
<title>q5:0.0&#45;&gt;q9:0.0</title>
<path fill="none" stroke="black" d="M769.24,-158.55C807.97,-159.04 865.24,-159.78 907.08,-160.31"/>
<polygon fill="black" stroke="black" points="906.89,-163.81 916.94,-160.44 906.98,-156.81 906.89,-163.81"/>
<text text-anchor="middle" x="843.7" y="-163.94" font-family="Times,serif" font-size="14.00">MAIL/553:0.013</text>
</g>
<!-- q6:0.0&#45;&gt;q8:0.0 -->
<g id="edge20" class="edge">
<title>q6:0.0&#45;&gt;q8:0.0</title>
<path fill="none" stroke="black" d="M769.24,-76.91C807.97,-75.92 865.24,-74.45 907.08,-73.38"/>
<polygon fill="black" stroke="black" points="907.03,-76.88 916.94,-73.12 906.85,-69.88 907.03,-76.88"/>
<text text-anchor="middle" x="843.7" y="-80.95" font-family="Times,serif" font-size="14.00">MAIL/250:1.0</text>
</g>
<!-- q10:0.75 -->
<g id="node19" class="node">
<title>q10:0.75</title>
<ellipse fill="none" stroke="black" stroke-width="2" cx="1210.8" cy="-215" rx="55.42" ry="18"/>
<text text-anchor="middle" x="1210.8" y="-210.32" font-family="Times,serif" font-size="14.00">q10:0.75</text>
</g>
<!-- q7:0.0&#45;&gt;q10:0.75 -->
<g id="edge21" class="edge">
<title>q7:0.0&#45;&gt;q10:0.75</title>
<path fill="none" stroke="black" d="M1005.6,-215C1043.5,-215 1099.4,-215 1143.2,-215"/>
<polygon fill="black" stroke="black" points="1143.09,-218.5 1153.09,-215 1143.09,-211.5 1143.09,-218.5"/>
<text text-anchor="middle" x="1080" y="-218.94" font-family="Times,serif" font-size="14.00">content/535:1.0</text>
</g>
<!-- q13:1.0 -->
<g id="node20" class="node">
<title>q13:1.0</title>
<ellipse fill="none" stroke="black" stroke-width="2" cx="1210.8" cy="-161" rx="49.1" ry="18"/>
<text text-anchor="middle" x="1210.8" y="-156.32" font-family="Times,serif" font-size="14.00">q13:1.0</text>
</g>
<!-- q9:0.0&#45;&gt;q13:1.0 -->
<g id="edge22" class="edge">
<title>q9:0.0&#45;&gt;q13:1.0</title>
<path fill="none" stroke="black" d="M1005.6,-161C1045.3,-161 1105,-161 1149.6,-161"/>
<polygon fill="black" stroke="black" points="1149.29,-164.5 1159.29,-161 1149.29,-157.5 1149.29,-164.5"/>
<text text-anchor="middle" x="1080" y="-164.94" font-family="Times,serif" font-size="14.00">RSET/250:1.0</text>
</g>
<!-- q14:1.0 -->
<g id="node21" class="node">
<title>q14:1.0</title>
<ellipse fill="none" stroke="black" stroke-width="2" cx="1481.8" cy="-215" rx="49.1" ry="18"/>
<text text-anchor="middle" x="1481.8" y="-210.32" font-family="Times,serif" font-size="14.00">q14:1.0</text>
</g>
<!-- q10:0.75&#45;&gt;q14:1.0 -->
<g id="edge23" class="edge">
<title>q10:0.75&#45;&gt;q14:1.0</title>
<path fill="none" stroke="black" d="M1267.2,-215C1311.9,-215 1374.6,-215 1420.5,-215"/>
<polygon fill="black" stroke="black" points="1420.29,-218.5 1430.29,-215 1420.29,-211.5 1420.29,-218.5"/>
<text text-anchor="middle" x="1349.5" y="-218.94" font-family="Times,serif" font-size="14.00">λ/451:0.25</text>
</g>
<!-- q1:0.0 -->
<g id="node22" class="node">
<title>q1:0.0</title>
<ellipse fill="none" stroke="black" stroke-width="2" cx="243.87" cy="-118" rx="42.79" ry="18"/>
<text text-anchor="middle" x="243.87" y="-113.33" font-family="Times,serif" font-size="14.00">q1:0.0</text>
</g>
<!-- q1:0.0&#45;&gt;q2:0.0 -->
<g id="edge24" class="edge">
<title>q1:0.0&#45;&gt;q2:0.0</title>
<path fill="none" stroke="black" d="M285.66,-123.64C326.01,-129.21 387.94,-137.77 431.79,-143.83"/>
<polygon fill="black" stroke="black" points="431.19,-147.28 441.58,-145.18 432.15,-140.35 431.19,-147.28"/>
<text text-anchor="middle" x="364.29" y="-145.94" font-family="Times,serif" font-size="14.00">EHLO/250:0.996</text>
</g>
<!-- q3:0.0 -->
<g id="node23" class="node">
<title>q3:0.0</title>
<ellipse fill="none" stroke="black" stroke-width="2" cx="484.7" cy="-91" rx="42.79" ry="18"/>
<text text-anchor="middle" x="484.7" y="-86.33" font-family="Times,serif" font-size="14.00">q3:0.0</text>
</g>
<!-- q1:0.0&#45;&gt;q3:0.0 -->
<g id="edge25" class="edge">
<title>q1:0.0&#45;&gt;q3:0.0</title>
<path fill="none" stroke="black" d="M282.04,-108.91C289.49,-107.33 297.3,-105.84 304.66,-104.75 346.54,-98.53 394.37,-95.04 430.05,-93.14"/>
<polygon fill="black" stroke="black" points="429.87,-96.65 439.68,-92.65 429.51,-89.66 429.87,-96.65"/>
<text text-anchor="middle" x="364.29" y="-108.95" font-family="Times,serif" font-size="14.00">EHLO/λ:0.004</text>
</g>
<!-- q3:0.0&#45;&gt;q6:0.0 -->
<g id="edge26" class="edge">
<title>q3:0.0&#45;&gt;q6:0.0</title>
<path fill="none" stroke="black" d="M523.16,-82.14C530.52,-80.74 538.22,-79.5 545.49,-78.75 587.48,-74.4 635.3,-74.46 670.96,-75.47"/>
<polygon fill="black" stroke="black" points="670.46,-78.95 680.57,-75.77 670.68,-71.96 670.46,-78.95"/>
<text text-anchor="middle" x="605.12" y="-82.95" font-family="Times,serif" font-size="14.00">AUTH/235:1.0</text>
</g>
<!-- q0:0.0 -->
<g id="node24" class="node">
<title>q0:0.0</title>
<ellipse fill="none" stroke="black" stroke-width="2" cx="50.79" cy="-118" rx="46.79" ry="46.79"/>
<ellipse fill="none" stroke="black" stroke-width="2" cx="50.79" cy="-118" rx="50.79" ry="50.79"/>
<text text-anchor="middle" x="50.79" y="-113.33" font-family="Times,serif" font-size="14.00">q0:0.0</text>
</g>
<!-- q0:0.0&#45;&gt;q1:0.0 -->
<g id="edge27" class="edge">
<title>q0:0.0&#45;&gt;q1:0.0</title>
<path fill="none" stroke="black" d="M98.53,-118C125.82,-118 160.37,-118 188.82,-118"/>
<polygon fill="black" stroke="black" points="188.69,-121.5 198.69,-118 188.69,-114.5 188.69,-121.5"/>
<text text-anchor="middle" x="149.33" y="-121.95" font-family="Times,serif" font-size="14.00">λ/220:1.0</text>
</g>
</g>
</svg>
