<?xml version="1.0" encoding="UTF-8" standalone="no"?>
<!DOCTYPE svg PUBLIC "-//W3C//DTD SVG 1.1//EN"
 "http://www.w3.org/Graphics/SVG/1.1/DTD/svg11.dtd">
<!-- Generated by graphviz version 12.0.0 (20240803.0821)
 -->
<!-- Pages: 1 -->
<svg width="2287pt" height="377pt"
 viewBox="0.00 0.00 2286.60 377.00" xmlns="http://www.w3.org/2000/svg" xmlns:xlink="http://www.w3.org/1999/xlink">
<g id="graph0" class="graph" transform="scale(1 1) rotate(0) translate(4 373)">
<polygon fill="white" stroke="none" points="-4,4 -4,-373 2282.6,-373 2282.6,4 -4,4"/>
<!-- q24:0.0 -->
<g id="node1" class="node">
<title>q24:0.0</title>
<ellipse fill="none" stroke="black" stroke-width="2" cx="1997" cy="-243" rx="49.1" ry="18"/>
<text text-anchor="middle" x="1997" y="-238.32" font-family="Times,serif" font-size="14.00">q24:0.0</text>
</g>
<!-- q27:1.0 -->
<g id="node2" class="node">
<title>q27:1.0</title>
<ellipse fill="none" stroke="black" stroke-width="2" cx="2229.5" cy="-243" rx="49.1" ry="18"/>
<text text-anchor="middle" x="2229.5" y="-238.32" font-family="Times,serif" font-size="14.00">q27:1.0</text>
</g>
<!-- q24:0.0&#45;&gt;q27:1.0 -->
<g id="edge1" class="edge">
<title>q24:0.0&#45;&gt;q27:1.0</title>
<path fill="none" stroke="black" d="M2046.9,-243C2082.3,-243 2130.5,-243 2168.3,-243"/>
<polygon fill="black" stroke="black" points="2168.19,-246.5 2178.19,-243 2168.19,-239.5 2168.19,-246.5"/>
<text text-anchor="middle" x="2113.2" y="-246.94" font-family="Times,serif" font-size="14.00">RSET/250:1.0</text>
</g>
<!-- q3:0.0 -->
<g id="node3" class="node">
<title>q3:0.0</title>
<ellipse fill="none" stroke="black" stroke-width="2" cx="484.7" cy="-85" rx="42.79" ry="18"/>
<text text-anchor="middle" x="484.7" y="-80.33" font-family="Times,serif" font-size="14.00">q3:0.0</text>
</g>
<!-- q6:0.0 -->
<g id="node4" class="node">
<title>q6:0.0</title>
<ellipse fill="none" stroke="black" stroke-width="2" cx="725.53" cy="-72" rx="42.79" ry="18"/>
<text text-anchor="middle" x="725.53" y="-67.33" font-family="Times,serif" font-size="14.00">q6:0.0</text>
</g>
<!-- q3:0.0&#45;&gt;q6:0.0 -->
<g id="edge2" class="edge">
<title>q3:0.0&#45;&gt;q6:0.0</title>
<path fill="none" stroke="black" d="M523.16,-76.14C530.52,-74.74 538.22,-73.5 545.49,-72.75 587.48,-68.4 635.3,-68.46 670.96,-69.47"/>
<polygon fill="black" stroke="black" points="670.46,-72.95 680.57,-69.77 670.68,-65.96 670.46,-72.95"/>
<text text-anchor="middle" x="605.12" y="-76.95" font-family="Times,serif" font-size="14.00">AUTH/235:0.954</text>
</g>
<!-- q4:0.0 -->
<g id="node5" class="node">
<title>q4:0.0</title>
<ellipse fill="none" stroke="black" stroke-width="2" cx="725.53" cy="-152" rx="42.79" ry="18"/>
<text text-anchor="middle" x="725.53" y="-147.32" font-family="Times,serif" font-size="14.00">q4:0.0</text>
</g>
<!-- q3:0.0&#45;&gt;q4:0.0 -->
<g id="edge3" class="edge">
<title>q3:0.0&#45;&gt;q4:0.0</title>
<path fill="none" stroke="black" d="M525.82,-91.43C562.54,-97.89 618.09,-109.13 664.74,-124.75 671.94,-127.16 679.43,-130.16 686.58,-133.27"/>
<polygon fill="black" stroke="black" points="684.8,-136.31 695.35,-137.25 687.69,-129.93 684.8,-136.31"/>
<text text-anchor="middle" x="605.12" y="-127.95" font-family="Times,serif" font-size="14.00">AUTH/λ:0.004</text>
</g>
<!-- q5:0.0 -->
<g id="node6" class="node">
<title>q5:0.0</title>
<ellipse fill="none" stroke="black" stroke-width="2" cx="725.53" cy="-18" rx="42.79" ry="18"/>
<text text-anchor="middle" x="725.53" y="-13.32" font-family="Times,serif" font-size="14.00">q5:0.0</text>
</g>
<!-- q3:0.0&#45;&gt;q5:0.0 -->
<g id="edge4" class="edge">
<title>q3:0.0&#45;&gt;q5:0.0</title>
<path fill="none" stroke="black" d="M507.05,-68.83C518,-61.3 531.88,-52.89 545.49,-47.75 586.06,-32.44 634.74,-24.99 671.1,-21.38"/>
<polygon fill="black" stroke="black" points="671.3,-24.87 680.94,-20.47 670.66,-17.9 671.3,-24.87"/>
<text text-anchor="middle" x="605.12" y="-51.95" font-family="Times,serif" font-size="14.00">AUTH/535:0.041</text>
</g>
<!-- q9:0.0 -->
<g id="node7" class="node">
<title>q9:0.0</title>
<ellipse fill="none" stroke="black" stroke-width="2" cx="968.18" cy="-72" rx="42.79" ry="18"/>
<text text-anchor="middle" x="968.18" y="-67.33" font-family="Times,serif" font-size="14.00">q9:0.0</text>
</g>
<!-- q6:0.0&#45;&gt;q9:0.0 -->
<g id="edge5" class="edge">
<title>q6:0.0&#45;&gt;q9:0.0</title>
<path fill="none" stroke="black" d="M769.28,-72C809.36,-72 869.47,-72 912.92,-72"/>
<polygon fill="black" stroke="black" points="912.91,-75.5 922.91,-72 912.91,-68.5 912.91,-75.5"/>
<text text-anchor="middle" x="843.7" y="-75.95" font-family="Times,serif" font-size="14.00">MAIL/553:0.009</text>
</g>
<!-- q7:0.0 -->
<g id="node8" class="node">
<title>q7:0.0</title>
<ellipse fill="none" stroke="black" stroke-width="2" cx="968.18" cy="-139" rx="42.79" ry="18"/>
<text text-anchor="middle" x="968.18" y="-134.32" font-family="Times,serif" font-size="14.00">q7:0.0</text>
</g>
<!-- q6:0.0&#45;&gt;q7:0.0 -->
<g id="edge6" class="edge">
<title>q6:0.0&#45;&gt;q7:0.0</title>
<path fill="none" stroke="black" d="M761.57,-82.75C769.69,-85.18 778.29,-87.72 786.32,-90 837.11,-104.45 850.12,-106.89 901.07,-120.75 907.33,-122.45 913.91,-124.26 920.4,-126.04"/>
<polygon fill="black" stroke="black" points="919.14,-129.32 929.71,-128.61 921,-122.58 919.14,-129.32"/>
<text text-anchor="middle" x="843.7" y="-123.95" font-family="Times,serif" font-size="14.00">MAIL/250:0.991</text>
</g>
<!-- q4:0.0&#45;&gt;q7:0.0 -->
<g id="edge7" class="edge">
<title>q4:0.0&#45;&gt;q7:0.0</title>
<path fill="none" stroke="black" d="M769,-149.71C809.26,-147.53 869.88,-144.26 913.48,-141.9"/>
<polygon fill="black" stroke="black" points="913.42,-145.41 923.22,-141.37 913.04,-138.42 913.42,-145.41"/>
<text text-anchor="middle" x="843.7" y="-151.94" font-family="Times,serif" font-size="14.00">MAIL/250:1.0</text>
</g>
<!-- q8:0.0 -->
<g id="node9" class="node">
<title>q8:0.0</title>
<ellipse fill="none" stroke="black" stroke-width="2" cx="968.18" cy="-18" rx="42.79" ry="18"/>
<text text-anchor="middle" x="968.18" y="-13.32" font-family="Times,serif" font-size="14.00">q8:0.0</text>
</g>
<!-- q5:0.0&#45;&gt;q8:0.0 -->
<g id="edge8" class="edge">
<title>q5:0.0&#45;&gt;q8:0.0</title>
<path fill="none" stroke="black" d="M769.28,-18C809.36,-18 869.47,-18 912.92,-18"/>
<polygon fill="black" stroke="black" points="912.91,-21.5 922.91,-18 912.91,-14.5 912.91,-21.5"/>
<text text-anchor="middle" x="843.7" y="-21.95" font-family="Times,serif" font-size="14.00">AUTH/334:1.0</text>
</g>
<!-- q12:1.0 -->
<g id="node10" class="node">
<title>q12:1.0</title>
<ellipse fill="none" stroke="black" stroke-width="2" cx="1218.6" cy="-72" rx="49.1" ry="18"/>
<text text-anchor="middle" x="1218.6" y="-67.33" font-family="Times,serif" font-size="14.00">q12:1.0</text>
</g>
<!-- q9:0.0&#45;&gt;q12:1.0 -->
<g id="edge9" class="edge">
<title>q9:0.0&#45;&gt;q12:1.0</title>
<path fill="none" stroke="black" d="M1011.9,-72C1052,-72 1112.3,-72 1157.3,-72"/>
<polygon fill="black" stroke="black" points="1157.19,-75.5 1167.19,-72 1157.19,-68.5 1157.19,-75.5"/>
<text text-anchor="middle" x="1093.4" y="-75.95" font-family="Times,serif" font-size="14.00">RSET/250:1.0</text>
</g>
<!-- q10:0.0 -->
<g id="node11" class="node">
<title>q10:0.0</title>
<ellipse fill="none" stroke="black" stroke-width="2" cx="1218.6" cy="-180" rx="49.1" ry="18"/>
<text text-anchor="middle" x="1218.6" y="-175.32" font-family="Times,serif" font-size="14.00">q10:0.0</text>
</g>
<!-- q7:0.0&#45;&gt;q10:0.0 -->
<g id="edge10" class="edge">
<title>q7:0.0&#45;&gt;q10:0.0</title>
<path fill="none" stroke="black" d="M1009.5,-133.06C1047.1,-128.96 1104.2,-126.36 1151.5,-139.75 1164.1,-143.3 1176.7,-149.97 1187.4,-156.86"/>
<polygon fill="black" stroke="black" points="1185.21,-159.6 1195.45,-162.33 1189.14,-153.81 1185.21,-159.6"/>
<text text-anchor="middle" x="1093.4" y="-142.94" font-family="Times,serif" font-size="14.00">RCPT/250:1.0</text>
</g>
<!-- q11:0.6 -->
<g id="node12" class="node">
<title>q11:0.6</title>
<ellipse fill="none" stroke="black" stroke-width="2" cx="1218.6" cy="-18" rx="49.1" ry="18"/>
<text text-anchor="middle" x="1218.6" y="-13.32" font-family="Times,serif" font-size="14.00">q11:0.6</text>
</g>
<!-- q8:0.0&#45;&gt;q11:0.6 -->
<g id="edge11" class="edge">
<title>q8:0.0&#45;&gt;q11:0.6</title>
<path fill="none" stroke="black" d="M1011.9,-18C1052,-18 1112.3,-18 1157.3,-18"/>
<polygon fill="black" stroke="black" points="1157.19,-21.5 1167.19,-18 1157.19,-14.5 1157.19,-21.5"/>
<text text-anchor="middle" x="1093.4" y="-21.95" font-family="Times,serif" font-size="14.00">content/535:1.0</text>
</g>
<!-- q14:0.0 -->
<g id="node13" class="node">
<title>q14:0.0</title>
<ellipse fill="none" stroke="black" stroke-width="2" cx="968.18" cy="-239" rx="49.1" ry="18"/>
<text text-anchor="middle" x="968.18" y="-234.32" font-family="Times,serif" font-size="14.00">q14:0.0</text>
</g>
<!-- q10:0.0&#45;&gt;q14:0.0 -->
<g id="edge12" class="edge">
<title>q10:0.0&#45;&gt;q14:0.0</title>
<path fill="none" stroke="black" d="M1177.5,-190.66C1169,-192.84 1160,-195.06 1151.5,-197 1100.1,-208.85 1086.6,-208.45 1035.3,-220.75 1030.1,-222 1024.6,-223.38 1019.2,-224.8"/>
<polygon fill="black" stroke="black" points="1018.41,-221.39 1009.66,-227.36 1020.23,-228.15 1018.41,-221.39"/>
<text text-anchor="middle" x="1093.4" y="-223.94" font-family="Times,serif" font-size="14.00">RCPT/250:0.617</text>
</g>
<!-- q13:0.0 -->
<g id="node14" class="node">
<title>q13:0.0</title>
<ellipse fill="none" stroke="black" stroke-width="2" cx="1467.6" cy="-185" rx="49.1" ry="18"/>
<text text-anchor="middle" x="1467.6" y="-180.32" font-family="Times,serif" font-size="14.00">q13:0.0</text>
</g>
<!-- q10:0.0&#45;&gt;q13:0.0 -->
<g id="edge13" class="edge">
<title>q10:0.0&#45;&gt;q13:0.0</title>
<path fill="none" stroke="black" d="M1268.4,-180.99C1308.1,-181.79 1364.2,-182.93 1406.6,-183.79"/>
<polygon fill="black" stroke="black" points="1406.32,-187.29 1416.39,-183.98 1406.46,-180.29 1406.32,-187.29"/>
<text text-anchor="middle" x="1343.1" y="-186.94" font-family="Times,serif" font-size="14.00">DATA/354:0.383</text>
</g>
<!-- q15:1.0 -->
<g id="node15" class="node">
<title>q15:1.0</title>
<ellipse fill="none" stroke="black" stroke-width="2" cx="1467.6" cy="-18" rx="49.1" ry="18"/>
<text text-anchor="middle" x="1467.6" y="-13.32" font-family="Times,serif" font-size="14.00">q15:1.0</text>
</g>
<!-- q11:0.6&#45;&gt;q15:1.0 -->
<g id="edge14" class="edge">
<title>q11:0.6&#45;&gt;q15:1.0</title>
<path fill="none" stroke="black" d="M1268.7,-18C1308.3,-18 1364.1,-18 1406.3,-18"/>
<polygon fill="black" stroke="black" points="1406.09,-21.5 1416.09,-18 1406.09,-14.5 1406.09,-21.5"/>
<text text-anchor="middle" x="1343.1" y="-21.95" font-family="Times,serif" font-size="14.00">λ/451:0.4</text>
</g>
<!-- q14:0.0&#45;&gt;q10:0.0 -->
<g id="edge19" class="edge">
<title>q14:0.0&#45;&gt;q10:0.0</title>
<path fill="none" stroke="black" d="M981.71,-220.92C993.52,-205.63 1012.7,-184.8 1035.3,-175.75 1076.6,-159.18 1127.4,-162.08 1165,-168.06"/>
<polygon fill="black" stroke="black" points="1164.15,-171.47 1174.61,-169.74 1165.36,-164.57 1164.15,-171.47"/>
<text text-anchor="middle" x="1093.4" y="-178.94" font-family="Times,serif" font-size="14.00">RCPT/250:0.028</text>
</g>
<!-- q18:0.0 -->
<g id="node19" class="node">
<title>q18:0.0</title>
<ellipse fill="none" stroke="black" stroke-width="2" cx="1732.3" cy="-297" rx="49.1" ry="18"/>
<text text-anchor="middle" x="1732.3" y="-292.32" font-family="Times,serif" font-size="14.00">q18:0.0</text>
</g>
<!-- q14:0.0&#45;&gt;q18:0.0 -->
<g id="edge20" class="edge">
<title>q14:0.0&#45;&gt;q18:0.0</title>
<path fill="none" stroke="black" d="M997.33,-254.42C1008.8,-259.98 1022.3,-265.69 1035.3,-269 1093.2,-283.81 1109.8,-275.82 1169.5,-279 1352,-288.72 1568.2,-293.85 1671,-295.91"/>
<polygon fill="black" stroke="black" points="1670.82,-299.41 1680.89,-296.1 1670.96,-292.41 1670.82,-299.41"/>
<text text-anchor="middle" x="1343.1" y="-291.94" font-family="Times,serif" font-size="14.00">DATA/354:0.676</text>
</g>
<!-- q19:1.0 -->
<g id="node20" class="node">
<title>q19:1.0</title>
<ellipse fill="none" stroke="black" stroke-width="2" cx="1218.6" cy="-252" rx="49.1" ry="18"/>
<text text-anchor="middle" x="1218.6" y="-247.32" font-family="Times,serif" font-size="14.00">q19:1.0</text>
</g>
<!-- q14:0.0&#45;&gt;q19:1.0 -->
<g id="edge21" class="edge">
<title>q14:0.0&#45;&gt;q19:1.0</title>
<path fill="none" stroke="black" d="M1017.7,-241.54C1057.8,-243.64 1114.9,-246.62 1157.8,-248.87"/>
<polygon fill="black" stroke="black" points="1157.62,-252.37 1167.79,-249.39 1157.98,-245.37 1157.62,-252.37"/>
<text text-anchor="middle" x="1093.4" y="-251.94" font-family="Times,serif" font-size="14.00">DATA/550:0.297</text>
</g>
<!-- q13:0.0&#45;&gt;q18:0.0 -->
<g id="edge22" class="edge">
<title>q13:0.0&#45;&gt;q18:0.0</title>
<path fill="none" stroke="black" d="M1502.1,-198.53C1541.4,-214.46 1608.3,-241.9 1665.2,-266.75 1673.2,-270.23 1681.6,-274.02 1689.7,-277.71"/>
<polygon fill="black" stroke="black" points="1688.17,-280.86 1698.72,-281.83 1691.08,-274.49 1688.17,-280.86"/>
<text text-anchor="middle" x="1599.9" y="-269.94" font-family="Times,serif" font-size="14.00">content/λ:0.033</text>
</g>
<!-- q16:0.0 -->
<g id="node21" class="node">
<title>q16:0.0</title>
<ellipse fill="none" stroke="black" stroke-width="2" cx="1732.3" cy="-189" rx="49.1" ry="18"/>
<text text-anchor="middle" x="1732.3" y="-184.32" font-family="Times,serif" font-size="14.00">q16:0.0</text>
</g>
<!-- q13:0.0&#45;&gt;q16:0.0 -->
<g id="edge23" class="edge">
<title>q13:0.0&#45;&gt;q16:0.0</title>
<path fill="none" stroke="black" d="M1517.4,-185.74C1560.8,-186.4 1624.3,-187.37 1670.9,-188.08"/>
<polygon fill="black" stroke="black" points="1670.73,-191.58 1680.79,-188.23 1670.84,-184.58 1670.73,-191.58"/>
<text text-anchor="middle" x="1599.9" y="-190.94" font-family="Times,serif" font-size="14.00">content/554:0.733</text>
</g>
<!-- q17:0.0 -->
<g id="node22" class="node">
<title>q17:0.0</title>
<ellipse fill="none" stroke="black" stroke-width="2" cx="1732.3" cy="-135" rx="49.1" ry="18"/>
<text text-anchor="middle" x="1732.3" y="-130.32" font-family="Times,serif" font-size="14.00">q17:0.0</text>
</g>
<!-- q13:0.0&#45;&gt;q17:0.0 -->
<g id="edge24" class="edge">
<title>q13:0.0&#45;&gt;q17:0.0</title>
<path fill="none" stroke="black" d="M1505.4,-172.68C1514.9,-169.8 1525.1,-166.93 1534.7,-164.75 1580.8,-154.26 1633.9,-146.48 1673.2,-141.51"/>
<polygon fill="black" stroke="black" points="1673.5,-145 1683,-140.3 1672.64,-138.05 1673.5,-145"/>
<text text-anchor="middle" x="1599.9" y="-167.94" font-family="Times,serif" font-size="14.00">content/250:0.233</text>
</g>
<!-- q0:0.0 -->
<g id="node16" class="node">
<title>q0:0.0</title>
<ellipse fill="none" stroke="black" stroke-width="2" cx="50.79" cy="-112" rx="46.79" ry="46.79"/>
<ellipse fill="none" stroke="black" stroke-width="2" cx="50.79" cy="-112" rx="50.79" ry="50.79"/>
<text text-anchor="middle" x="50.79" y="-107.33" font-family="Times,serif" font-size="14.00">q0:0.0</text>
</g>
<!-- q1:0.0 -->
<g id="node17" class="node">
<title>q1:0.0</title>
<ellipse fill="none" stroke="black" stroke-width="2" cx="243.87" cy="-112" rx="42.79" ry="18"/>
<text text-anchor="middle" x="243.87" y="-107.33" font-family="Times,serif" font-size="14.00">q1:0.0</text>
</g>
<!-- q0:0.0&#45;&gt;q1:0.0 -->
<g id="edge15" class="edge">
<title>q0:0.0&#45;&gt;q1:0.0</title>
<path fill="none" stroke="black" d="M98.53,-112C125.82,-112 160.37,-112 188.82,-112"/>
<polygon fill="black" stroke="black" points="188.69,-115.5 198.69,-112 188.69,-108.5 188.69,-115.5"/>
<text text-anchor="middle" x="149.33" y="-115.95" font-family="Times,serif" font-size="14.00">λ/220:1.0</text>
</g>
<!-- q1:0.0&#45;&gt;q3:0.0 -->
<g id="edge16" class="edge">
<title>q1:0.0&#45;&gt;q3:0.0</title>
<path fill="none" stroke="black" d="M279.7,-101.24C287.82,-99.1 296.49,-97.09 304.66,-95.75 346.39,-88.9 394.23,-86.29 429.95,-85.36"/>
<polygon fill="black" stroke="black" points="429.67,-88.86 439.59,-85.14 429.51,-81.86 429.67,-88.86"/>
<text text-anchor="middle" x="364.29" y="-98.95" font-family="Times,serif" font-size="14.00">EHLO/250:0.992</text>
</g>
<!-- q2:0.0 -->
<g id="node18" class="node">
<title>q2:0.0</title>
<ellipse fill="none" stroke="black" stroke-width="2" cx="484.7" cy="-145" rx="42.79" ry="18"/>
<text text-anchor="middle" x="484.7" y="-140.32" font-family="Times,serif" font-size="14.00">q2:0.0</text>
</g>
<!-- q1:0.0&#45;&gt;q2:0.0 -->
<g id="edge17" class="edge">
<title>q1:0.0&#45;&gt;q2:0.0</title>
<path fill="none" stroke="black" d="M285.66,-117.64C326.01,-123.21 387.94,-131.77 431.79,-137.83"/>
<polygon fill="black" stroke="black" points="431.19,-141.28 441.58,-139.18 432.15,-134.35 431.19,-141.28"/>
<text text-anchor="middle" x="364.29" y="-139.94" font-family="Times,serif" font-size="14.00">EHLO/λ:0.008</text>
</g>
<!-- q2:0.0&#45;&gt;q4:0.0 -->
<g id="edge18" class="edge">
<title>q2:0.0&#45;&gt;q4:0.0</title>
<path fill="none" stroke="black" d="M528.12,-146.24C567.91,-147.41 627.56,-149.16 670.69,-150.42"/>
<polygon fill="black" stroke="black" points="670.49,-153.92 680.59,-150.71 670.7,-146.92 670.49,-153.92"/>
<text text-anchor="middle" x="605.12" y="-153.94" font-family="Times,serif" font-size="14.00">AUTH/235:1.0</text>
</g>
<!-- q18:0.0&#45;&gt;q24:0.0 -->
<g id="edge25" class="edge">
<title>q18:0.0&#45;&gt;q24:0.0</title>
<path fill="none" stroke="black" d="M1769.4,-284.35C1779.1,-281.25 1789.6,-278.14 1799.4,-275.75 1845.6,-264.54 1898.9,-255.92 1938.3,-250.35"/>
<polygon fill="black" stroke="black" points="1938.58,-253.84 1948,-249 1937.61,-246.91 1938.58,-253.84"/>
<text text-anchor="middle" x="1864.7" y="-278.94" font-family="Times,serif" font-size="14.00">content/550:0.0</text>
</g>
<!-- q18:0.0&#45;&gt;q18:0.0 -->
<g id="edge26" class="edge">
<title>q18:0.0&#45;&gt;q18:0.0</title>
<path fill="none" stroke="black" d="M1709,-313.66C1703.9,-323.62 1711.6,-333 1732.3,-333 1744.6,-333 1752.3,-329.69 1755.5,-324.92"/>
<polygon fill="black" stroke="black" points="1759,-325.2 1755.59,-315.17 1752,-325.14 1759,-325.2"/>
<text text-anchor="middle" x="1732.3" y="-336.94" font-family="Times,serif" font-size="14.00">content/λ:0.961</text>
</g>
<!-- q23:0.0 -->
<g id="node23" class="node">
<title>q23:0.0</title>
<ellipse fill="none" stroke="black" stroke-width="2" cx="1997" cy="-351" rx="49.1" ry="18"/>
<text text-anchor="middle" x="1997" y="-346.32" font-family="Times,serif" font-size="14.00">q23:0.0</text>
</g>
<!-- q18:0.0&#45;&gt;q23:0.0 -->
<g id="edge27" class="edge">
<title>q18:0.0&#45;&gt;q23:0.0</title>
<path fill="none" stroke="black" d="M1769.8,-309.59C1779.3,-312.62 1789.7,-315.65 1799.4,-318 1845.6,-329.17 1898.9,-337.85 1938.3,-343.51"/>
<polygon fill="black" stroke="black" points="1937.71,-346.96 1948.1,-344.88 1938.68,-340.03 1937.71,-346.96"/>
<text text-anchor="middle" x="1864.7" y="-344.94" font-family="Times,serif" font-size="14.00">content/250:0.035</text>
</g>
<!-- q22:0.0 -->
<g id="node24" class="node">
<title>q22:0.0</title>
<ellipse fill="none" stroke="black" stroke-width="2" cx="1997" cy="-297" rx="49.1" ry="18"/>
<text text-anchor="middle" x="1997" y="-292.32" font-family="Times,serif" font-size="14.00">q22:0.0</text>
</g>
<!-- q18:0.0&#45;&gt;q22:0.0 -->
<g id="edge28" class="edge">
<title>q18:0.0&#45;&gt;q22:0.0</title>
<path fill="none" stroke="black" d="M1782.1,-297C1825.5,-297 1889,-297 1935.6,-297"/>
<polygon fill="black" stroke="black" points="1935.49,-300.5 1945.49,-297 1935.49,-293.5 1935.49,-300.5"/>
<text text-anchor="middle" x="1864.7" y="-300.94" font-family="Times,serif" font-size="14.00">content/554:0.003</text>
</g>
<!-- q20:1.0 -->
<g id="node25" class="node">
<title>q20:1.0</title>
<ellipse fill="none" stroke="black" stroke-width="2" cx="1997" cy="-189" rx="49.1" ry="18"/>
<text text-anchor="middle" x="1997" y="-184.32" font-family="Times,serif" font-size="14.00">q20:1.0</text>
</g>
<!-- q16:0.0&#45;&gt;q20:1.0 -->
<g id="edge29" class="edge">
<title>q16:0.0&#45;&gt;q20:1.0</title>
<path fill="none" stroke="black" d="M1782.1,-189C1825.5,-189 1889,-189 1935.6,-189"/>
<polygon fill="black" stroke="black" points="1935.49,-192.5 1945.49,-189 1935.49,-185.5 1935.49,-192.5"/>
<text text-anchor="middle" x="1864.7" y="-192.94" font-family="Times,serif" font-size="14.00">RSET/250:1.0</text>
</g>
<!-- q21:1.0 -->
<g id="node26" class="node">
<title>q21:1.0</title>
<ellipse fill="none" stroke="black" stroke-width="2" cx="1997" cy="-135" rx="49.1" ry="18"/>
<text text-anchor="middle" x="1997" y="-130.32" font-family="Times,serif" font-size="14.00">q21:1.0</text>
</g>
<!-- q17:0.0&#45;&gt;q21:1.0 -->
<g id="edge30" class="edge">
<title>q17:0.0&#45;&gt;q21:1.0</title>
<path fill="none" stroke="black" d="M1782.1,-135C1825.5,-135 1889,-135 1935.6,-135"/>
<polygon fill="black" stroke="black" points="1935.49,-138.5 1945.49,-135 1935.49,-131.5 1935.49,-138.5"/>
<text text-anchor="middle" x="1864.7" y="-138.94" font-family="Times,serif" font-size="14.00">QUIT/221:1.0</text>
</g>
<!-- q26:1.0 -->
<g id="node27" class="node">
<title>q26:1.0</title>
<ellipse fill="none" stroke="black" stroke-width="2" cx="2229.5" cy="-351" rx="49.1" ry="18"/>
<text text-anchor="middle" x="2229.5" y="-346.32" font-family="Times,serif" font-size="14.00">q26:1.0</text>
</g>
<!-- q23:0.0&#45;&gt;q26:1.0 -->
<g id="edge31" class="edge">
<title>q23:0.0&#45;&gt;q26:1.0</title>
<path fill="none" stroke="black" d="M2046.9,-351C2082.3,-351 2130.5,-351 2168.3,-351"/>
<polygon fill="black" stroke="black" points="2168.19,-354.5 2178.19,-351 2168.19,-347.5 2168.19,-354.5"/>
<text text-anchor="middle" x="2113.2" y="-354.94" font-family="Times,serif" font-size="14.00">QUIT/221:1.0</text>
</g>
<!-- q25:1.0 -->
<g id="node28" class="node">
<title>q25:1.0</title>
<ellipse fill="none" stroke="black" stroke-width="2" cx="2229.5" cy="-297" rx="49.1" ry="18"/>
<text text-anchor="middle" x="2229.5" y="-292.32" font-family="Times,serif" font-size="14.00">q25:1.0</text>
</g>
<!-- q22:0.0&#45;&gt;q25:1.0 -->
<g id="edge32" class="edge">
<title>q22:0.0&#45;&gt;q25:1.0</title>
<path fill="none" stroke="black" d="M2046.9,-297C2082.3,-297 2130.5,-297 2168.3,-297"/>
<polygon fill="black" stroke="black" points="2168.19,-300.5 2178.19,-297 2168.19,-293.5 2168.19,-300.5"/>
<text text-anchor="middle" x="2113.2" y="-300.94" font-family="Times,serif" font-size="14.00">RSET/250:1.0</text>
</g>
</g>
</svg>
