<?xml version="1.0" encoding="UTF-8" standalone="no"?>
<!DOCTYPE svg PUBLIC "-//W3C//DTD SVG 1.1//EN"
 "http://www.w3.org/Graphics/SVG/1.1/DTD/svg11.dtd">
<!-- Generated by graphviz version 12.0.0 (20240803.0821)
 -->
<!-- Pages: 1 -->
<svg width="2288pt" height="260pt"
 viewBox="0.00 0.00 2287.90 260.00" xmlns="http://www.w3.org/2000/svg" xmlns:xlink="http://www.w3.org/1999/xlink">
<g id="graph0" class="graph" transform="scale(1 1) rotate(0) translate(4 256)">
<polygon fill="white" stroke="none" points="-4,4 -4,-256 2283.9,-256 2283.9,4 -4,4"/>
<!-- q2:0.0 -->
<g id="node1" class="node">
<title>q2:0.0</title>
<ellipse fill="none" stroke="black" stroke-width="2" cx="484.7" cy="-127" rx="42.79" ry="18"/>
<text text-anchor="middle" x="484.7" y="-122.33" font-family="Times,serif" font-size="14.00">q2:0.0</text>
</g>
<!-- q5:0.0 -->
<g id="node2" class="node">
<title>q5:0.0</title>
<ellipse fill="none" stroke="black" stroke-width="2" cx="725.53" cy="-184" rx="42.79" ry="18"/>
<text text-anchor="middle" x="725.53" y="-179.32" font-family="Times,serif" font-size="14.00">q5:0.0</text>
</g>
<!-- q2:0.0&#45;&gt;q5:0.0 -->
<g id="edge1" class="edge">
<title>q2:0.0&#45;&gt;q5:0.0</title>
<path fill="none" stroke="black" d="M516.37,-140.01C525.62,-143.6 535.86,-147.26 545.49,-150 587.64,-162 636.59,-170.97 672.64,-176.67"/>
<polygon fill="black" stroke="black" points="671.96,-180.11 682.37,-178.18 673.03,-173.19 671.96,-180.11"/>
<text text-anchor="middle" x="605.12" y="-178.94" font-family="Times,serif" font-size="14.00">AUTH/535:0.054</text>
</g>
<!-- q6:0.0 -->
<g id="node3" class="node">
<title>q6:0.0</title>
<ellipse fill="none" stroke="black" stroke-width="2" cx="725.53" cy="-60" rx="42.79" ry="18"/>
<text text-anchor="middle" x="725.53" y="-55.33" font-family="Times,serif" font-size="14.00">q6:0.0</text>
</g>
<!-- q2:0.0&#45;&gt;q6:0.0 -->
<g id="edge2" class="edge">
<title>q2:0.0&#45;&gt;q6:0.0</title>
<path fill="none" stroke="black" d="M518.1,-114.88C526.93,-111.74 536.53,-108.48 545.49,-105.75 589.29,-92.4 639.91,-79.71 676.12,-71.1"/>
<polygon fill="black" stroke="black" points="676.48,-74.61 685.41,-68.91 674.87,-67.8 676.48,-74.61"/>
<text text-anchor="middle" x="605.12" y="-109.95" font-family="Times,serif" font-size="14.00">AUTH/235:0.942</text>
</g>
<!-- q4:0.0 -->
<g id="node4" class="node">
<title>q4:0.0</title>
<ellipse fill="none" stroke="black" stroke-width="2" cx="725.53" cy="-130" rx="42.79" ry="18"/>
<text text-anchor="middle" x="725.53" y="-125.33" font-family="Times,serif" font-size="14.00">q4:0.0</text>
</g>
<!-- q2:0.0&#45;&gt;q4:0.0 -->
<g id="edge3" class="edge">
<title>q2:0.0&#45;&gt;q4:0.0</title>
<path fill="none" stroke="black" d="M528.4,-127.54C568.1,-128.03 627.41,-128.78 670.41,-129.32"/>
<polygon fill="black" stroke="black" points="670.24,-132.82 680.29,-129.44 670.33,-125.82 670.24,-132.82"/>
<text text-anchor="middle" x="605.12" y="-132.94" font-family="Times,serif" font-size="14.00">AUTH/λ:0.004</text>
</g>
<!-- q8:0.0 -->
<g id="node5" class="node">
<title>q8:0.0</title>
<ellipse fill="none" stroke="black" stroke-width="2" cx="961.86" cy="-190" rx="42.79" ry="18"/>
<text text-anchor="middle" x="961.86" y="-185.32" font-family="Times,serif" font-size="14.00">q8:0.0</text>
</g>
<!-- q5:0.0&#45;&gt;q8:0.0 -->
<g id="edge4" class="edge">
<title>q5:0.0&#45;&gt;q8:0.0</title>
<path fill="none" stroke="black" d="M769.24,-185.09C807.97,-186.09 865.24,-187.55 907.08,-188.62"/>
<polygon fill="black" stroke="black" points="906.85,-192.12 916.94,-188.87 907.03,-185.12 906.85,-192.12"/>
<text text-anchor="middle" x="843.7" y="-191.94" font-family="Times,serif" font-size="14.00">AUTH/334:1.0</text>
</g>
<!-- q7:0.0 -->
<g id="node6" class="node">
<title>q7:0.0</title>
<ellipse fill="none" stroke="black" stroke-width="2" cx="961.86" cy="-120" rx="42.79" ry="18"/>
<text text-anchor="middle" x="961.86" y="-115.33" font-family="Times,serif" font-size="14.00">q7:0.0</text>
</g>
<!-- q6:0.0&#45;&gt;q7:0.0 -->
<g id="edge5" class="edge">
<title>q6:0.0&#45;&gt;q7:0.0</title>
<path fill="none" stroke="black" d="M764.89,-68.01C800.41,-75.64 854.59,-87.87 901.07,-100.75 905.99,-102.11 911.11,-103.62 916.2,-105.18"/>
<polygon fill="black" stroke="black" points="915.14,-108.51 925.73,-108.17 917.23,-101.84 915.14,-108.51"/>
<text text-anchor="middle" x="843.7" y="-104.95" font-family="Times,serif" font-size="14.00">MAIL/250:0.987</text>
</g>
<!-- q9:0.0 -->
<g id="node7" class="node">
<title>q9:0.0</title>
<ellipse fill="none" stroke="black" stroke-width="2" cx="961.86" cy="-47" rx="42.79" ry="18"/>
<text text-anchor="middle" x="961.86" y="-42.33" font-family="Times,serif" font-size="14.00">q9:0.0</text>
</g>
<!-- q6:0.0&#45;&gt;q9:0.0 -->
<g id="edge6" class="edge">
<title>q6:0.0&#45;&gt;q9:0.0</title>
<path fill="none" stroke="black" d="M765.65,-52.41C772.52,-51.33 779.61,-50.37 786.32,-49.75 826.72,-45.99 872.59,-45.41 907.17,-45.71"/>
<polygon fill="black" stroke="black" points="906.89,-49.21 916.93,-45.83 906.97,-42.21 906.89,-49.21"/>
<text text-anchor="middle" x="843.7" y="-53.95" font-family="Times,serif" font-size="14.00">MAIL/553:0.013</text>
</g>
<!-- q4:0.0&#45;&gt;q7:0.0 -->
<g id="edge7" class="edge">
<title>q4:0.0&#45;&gt;q7:0.0</title>
<path fill="none" stroke="black" d="M768.97,-128.19C807.67,-126.54 865.03,-124.09 906.96,-122.3"/>
<polygon fill="black" stroke="black" points="907,-125.8 916.84,-121.88 906.7,-118.81 907,-125.8"/>
<text text-anchor="middle" x="843.7" y="-130.94" font-family="Times,serif" font-size="14.00">MAIL/250:1.0</text>
</g>
<!-- q11:0.692 -->
<g id="node8" class="node">
<title>q11:0.692</title>
<ellipse fill="none" stroke="black" stroke-width="2" cx="1214.9" cy="-206" rx="61.73" ry="18"/>
<text text-anchor="middle" x="1214.9" y="-201.32" font-family="Times,serif" font-size="14.00">q11:0.692</text>
</g>
<!-- q8:0.0&#45;&gt;q11:0.692 -->
<g id="edge8" class="edge">
<title>q8:0.0&#45;&gt;q11:0.692</title>
<path fill="none" stroke="black" d="M1005.2,-192.7C1042.6,-195.08 1097.9,-198.61 1142.2,-201.43"/>
<polygon fill="black" stroke="black" points="1141.79,-204.91 1151.99,-202.05 1142.23,-197.92 1141.79,-204.91"/>
<text text-anchor="middle" x="1078.9" y="-203.94" font-family="Times,serif" font-size="14.00">content/535:1.0</text>
</g>
<!-- q10:0.0 -->
<g id="node9" class="node">
<title>q10:0.0</title>
<ellipse fill="none" stroke="black" stroke-width="2" cx="1214.9" cy="-99" rx="49.1" ry="18"/>
<text text-anchor="middle" x="1214.9" y="-94.33" font-family="Times,serif" font-size="14.00">q10:0.0</text>
</g>
<!-- q7:0.0&#45;&gt;q10:0.0 -->
<g id="edge9" class="edge">
<title>q7:0.0&#45;&gt;q10:0.0</title>
<path fill="none" stroke="black" d="M1004.9,-116.49C1045.9,-113.05 1108.8,-107.79 1154.8,-103.94"/>
<polygon fill="black" stroke="black" points="1155.02,-107.43 1164.69,-103.12 1154.43,-100.46 1155.02,-107.43"/>
<text text-anchor="middle" x="1078.9" y="-117.95" font-family="Times,serif" font-size="14.00">RCPT/250:1.0</text>
</g>
<!-- q12:1.0 -->
<g id="node10" class="node">
<title>q12:1.0</title>
<ellipse fill="none" stroke="black" stroke-width="2" cx="1214.9" cy="-45" rx="49.1" ry="18"/>
<text text-anchor="middle" x="1214.9" y="-40.33" font-family="Times,serif" font-size="14.00">q12:1.0</text>
</g>
<!-- q9:0.0&#45;&gt;q12:1.0 -->
<g id="edge10" class="edge">
<title>q9:0.0&#45;&gt;q12:1.0</title>
<path fill="none" stroke="black" d="M1005.4,-46.66C1046.2,-46.34 1108,-45.84 1153.8,-45.48"/>
<polygon fill="black" stroke="black" points="1153.61,-48.98 1163.59,-45.4 1153.56,-41.98 1153.61,-48.98"/>
<text text-anchor="middle" x="1078.9" y="-50.95" font-family="Times,serif" font-size="14.00">RSET/250:1.0</text>
</g>
<!-- q15:1.0 -->
<g id="node11" class="node">
<title>q15:1.0</title>
<ellipse fill="none" stroke="black" stroke-width="2" cx="1469" cy="-206" rx="49.1" ry="18"/>
<text text-anchor="middle" x="1469" y="-201.32" font-family="Times,serif" font-size="14.00">q15:1.0</text>
</g>
<!-- q11:0.692&#45;&gt;q15:1.0 -->
<g id="edge11" class="edge">
<title>q11:0.692&#45;&gt;q15:1.0</title>
<path fill="none" stroke="black" d="M1277.5,-206C1317.2,-206 1368.5,-206 1407.9,-206"/>
<polygon fill="black" stroke="black" points="1407.59,-209.5 1417.59,-206 1407.59,-202.5 1407.59,-209.5"/>
<text text-anchor="middle" x="1348.2" y="-209.94" font-family="Times,serif" font-size="14.00">λ/451:0.308</text>
</g>
<!-- q13:0.0 -->
<g id="node15" class="node">
<title>q13:0.0</title>
<ellipse fill="none" stroke="black" stroke-width="2" cx="1469" cy="-152" rx="49.1" ry="18"/>
<text text-anchor="middle" x="1469" y="-147.32" font-family="Times,serif" font-size="14.00">q13:0.0</text>
</g>
<!-- q10:0.0&#45;&gt;q13:0.0 -->
<g id="edge26" class="edge">
<title>q10:0.0&#45;&gt;q13:0.0</title>
<path fill="none" stroke="black" d="M1264.5,-100.86C1302.5,-103.29 1356.3,-108.88 1401.9,-121.75 1411,-124.34 1420.5,-128.02 1429.3,-131.93"/>
<polygon fill="black" stroke="black" points="1427.78,-135.08 1438.33,-136.12 1430.73,-128.74 1427.78,-135.08"/>
<text text-anchor="middle" x="1348.2" y="-124.95" font-family="Times,serif" font-size="14.00">RCPT/250:0.61</text>
</g>
<!-- q14:0.0 -->
<g id="node24" class="node">
<title>q14:0.0</title>
<ellipse fill="none" stroke="black" stroke-width="2" cx="1469" cy="-73" rx="49.1" ry="18"/>
<text text-anchor="middle" x="1469" y="-68.33" font-family="Times,serif" font-size="14.00">q14:0.0</text>
</g>
<!-- q10:0.0&#45;&gt;q14:0.0 -->
<g id="edge27" class="edge">
<title>q10:0.0&#45;&gt;q14:0.0</title>
<path fill="none" stroke="black" d="M1255.2,-87.74C1267.7,-84.61 1281.7,-81.57 1294.6,-79.75 1332,-74.51 1374.3,-72.78 1407.7,-72.38"/>
<polygon fill="black" stroke="black" points="1407.71,-75.88 1417.69,-72.31 1407.66,-68.88 1407.71,-75.88"/>
<text text-anchor="middle" x="1348.2" y="-83.95" font-family="Times,serif" font-size="14.00">DATA/354:0.39</text>
</g>
<!-- q0:0.0 -->
<g id="node12" class="node">
<title>q0:0.0</title>
<ellipse fill="none" stroke="black" stroke-width="2" cx="50.79" cy="-94" rx="46.79" ry="46.79"/>
<ellipse fill="none" stroke="black" stroke-width="2" cx="50.79" cy="-94" rx="50.79" ry="50.79"/>
<text text-anchor="middle" x="50.79" y="-89.33" font-family="Times,serif" font-size="14.00">q0:0.0</text>
</g>
<!-- q1:0.0 -->
<g id="node13" class="node">
<title>q1:0.0</title>
<ellipse fill="none" stroke="black" stroke-width="2" cx="243.87" cy="-94" rx="42.79" ry="18"/>
<text text-anchor="middle" x="243.87" y="-89.33" font-family="Times,serif" font-size="14.00">q1:0.0</text>
</g>
<!-- q0:0.0&#45;&gt;q1:0.0 -->
<g id="edge12" class="edge">
<title>q0:0.0&#45;&gt;q1:0.0</title>
<path fill="none" stroke="black" d="M98.53,-94C125.82,-94 160.37,-94 188.82,-94"/>
<polygon fill="black" stroke="black" points="188.69,-97.5 198.69,-94 188.69,-90.5 188.69,-97.5"/>
<text text-anchor="middle" x="149.33" y="-97.95" font-family="Times,serif" font-size="14.00">λ/220:1.0</text>
</g>
<!-- q1:0.0&#45;&gt;q2:0.0 -->
<g id="edge13" class="edge">
<title>q1:0.0&#45;&gt;q2:0.0</title>
<path fill="none" stroke="black" d="M285.66,-99.64C326.01,-105.21 387.94,-113.77 431.79,-119.83"/>
<polygon fill="black" stroke="black" points="431.19,-123.28 441.58,-121.18 432.15,-116.35 431.19,-123.28"/>
<text text-anchor="middle" x="364.29" y="-121.95" font-family="Times,serif" font-size="14.00">EHLO/250:0.992</text>
</g>
<!-- q3:0.0 -->
<g id="node14" class="node">
<title>q3:0.0</title>
<ellipse fill="none" stroke="black" stroke-width="2" cx="484.7" cy="-67" rx="42.79" ry="18"/>
<text text-anchor="middle" x="484.7" y="-62.33" font-family="Times,serif" font-size="14.00">q3:0.0</text>
</g>
<!-- q1:0.0&#45;&gt;q3:0.0 -->
<g id="edge14" class="edge">
<title>q1:0.0&#45;&gt;q3:0.0</title>
<path fill="none" stroke="black" d="M282.04,-84.91C289.49,-83.33 297.3,-81.84 304.66,-80.75 346.54,-74.53 394.37,-71.04 430.05,-69.14"/>
<polygon fill="black" stroke="black" points="429.87,-72.65 439.68,-68.65 429.51,-65.66 429.87,-72.65"/>
<text text-anchor="middle" x="364.29" y="-84.95" font-family="Times,serif" font-size="14.00">EHLO/λ:0.008</text>
</g>
<!-- q3:0.0&#45;&gt;q6:0.0 -->
<g id="edge15" class="edge">
<title>q3:0.0&#45;&gt;q6:0.0</title>
<path fill="none" stroke="black" d="M523.16,-58.12C530.52,-56.72 538.22,-55.49 545.49,-54.75 587.93,-50.45 636.28,-52.26 672.04,-54.88"/>
<polygon fill="black" stroke="black" points="671.43,-58.34 681.67,-55.63 671.97,-51.36 671.43,-58.34"/>
<text text-anchor="middle" x="605.12" y="-58.95" font-family="Times,serif" font-size="14.00">AUTH/235:1.0</text>
</g>
<!-- q13:0.0&#45;&gt;q7:0.0 -->
<g id="edge16" class="edge">
<title>q13:0.0&#45;&gt;q7:0.0</title>
<path fill="none" stroke="black" d="M1419.2,-153.43C1337,-155.11 1165.7,-155.45 1022.7,-135 1018.5,-134.4 1014.2,-133.64 1009.9,-132.77"/>
<polygon fill="black" stroke="black" points="1010.67,-129.36 1000.15,-130.6 1009.15,-136.19 1010.67,-129.36"/>
<text text-anchor="middle" x="1214.9" y="-156.94" font-family="Times,serif" font-size="14.00">RCPT/250:0.021</text>
</g>
<!-- q17:1.0 -->
<g id="node16" class="node">
<title>q17:1.0</title>
<ellipse fill="none" stroke="black" stroke-width="2" cx="1733.7" cy="-234" rx="49.1" ry="18"/>
<text text-anchor="middle" x="1733.7" y="-229.32" font-family="Times,serif" font-size="14.00">q17:1.0</text>
</g>
<!-- q13:0.0&#45;&gt;q17:1.0 -->
<g id="edge17" class="edge">
<title>q13:0.0&#45;&gt;q17:1.0</title>
<path fill="none" stroke="black" d="M1507.9,-163.84C1554.4,-178.34 1633.2,-202.94 1684,-218.82"/>
<polygon fill="black" stroke="black" points="1682.77,-222.1 1693.35,-221.72 1684.84,-215.42 1682.77,-222.1"/>
<text text-anchor="middle" x="1601.3" y="-215.94" font-family="Times,serif" font-size="14.00">DATA/550:0.199</text>
</g>
<!-- q16:0.0 -->
<g id="node17" class="node">
<title>q16:0.0</title>
<ellipse fill="none" stroke="black" stroke-width="2" cx="1733.7" cy="-145" rx="49.1" ry="18"/>
<text text-anchor="middle" x="1733.7" y="-140.32" font-family="Times,serif" font-size="14.00">q16:0.0</text>
</g>
<!-- q13:0.0&#45;&gt;q16:0.0 -->
<g id="edge18" class="edge">
<title>q13:0.0&#45;&gt;q16:0.0</title>
<path fill="none" stroke="black" d="M1518.8,-150.7C1562.1,-149.54 1625.7,-147.85 1672.2,-146.61"/>
<polygon fill="black" stroke="black" points="1672.28,-150.11 1682.19,-146.35 1672.1,-143.11 1672.28,-150.11"/>
<text text-anchor="middle" x="1601.3" y="-153.94" font-family="Times,serif" font-size="14.00">DATA/354:0.78</text>
</g>
<!-- q16:0.0&#45;&gt;q16:0.0 -->
<g id="edge19" class="edge">
<title>q16:0.0&#45;&gt;q16:0.0</title>
<path fill="none" stroke="black" d="M1710.4,-161.66C1705.2,-171.62 1713,-181 1733.7,-181 1746,-181 1753.7,-177.69 1756.8,-172.92"/>
<polygon fill="black" stroke="black" points="1760.3,-173.2 1756.89,-163.17 1753.3,-173.14 1760.3,-173.2"/>
<text text-anchor="middle" x="1733.7" y="-184.94" font-family="Times,serif" font-size="14.00">content/λ:0.962</text>
</g>
<!-- q21:0.0 -->
<g id="node18" class="node">
<title>q21:0.0</title>
<ellipse fill="none" stroke="black" stroke-width="2" cx="1998.4" cy="-126" rx="49.1" ry="18"/>
<text text-anchor="middle" x="1998.4" y="-121.33" font-family="Times,serif" font-size="14.00">q21:0.0</text>
</g>
<!-- q16:0.0&#45;&gt;q21:0.0 -->
<g id="edge20" class="edge">
<title>q16:0.0&#45;&gt;q21:0.0</title>
<path fill="none" stroke="black" d="M1780.9,-138.82C1787.5,-138.05 1794.3,-137.33 1800.8,-136.75 1846.5,-132.65 1898.4,-129.89 1937.4,-128.2"/>
<polygon fill="black" stroke="black" points="1937.45,-131.7 1947.29,-127.78 1937.15,-124.71 1937.45,-131.7"/>
<text text-anchor="middle" x="1866" y="-139.94" font-family="Times,serif" font-size="14.00">content/554:0.002</text>
</g>
<!-- q22:0.0 -->
<g id="node19" class="node">
<title>q22:0.0</title>
<ellipse fill="none" stroke="black" stroke-width="2" cx="1998.4" cy="-234" rx="49.1" ry="18"/>
<text text-anchor="middle" x="1998.4" y="-229.32" font-family="Times,serif" font-size="14.00">q22:0.0</text>
</g>
<!-- q16:0.0&#45;&gt;q22:0.0 -->
<g id="edge21" class="edge">
<title>q16:0.0&#45;&gt;q22:0.0</title>
<path fill="none" stroke="black" d="M1754.8,-162.18C1767.3,-171.98 1784.1,-183.73 1800.8,-191 1845,-210.32 1898.8,-221.31 1938.9,-227.34"/>
<polygon fill="black" stroke="black" points="1938.21,-230.78 1948.6,-228.73 1939.2,-223.85 1938.21,-230.78"/>
<text text-anchor="middle" x="1866" y="-228.94" font-family="Times,serif" font-size="14.00">content/550:0.0</text>
</g>
<!-- q20:0.0 -->
<g id="node20" class="node">
<title>q20:0.0</title>
<ellipse fill="none" stroke="black" stroke-width="2" cx="1998.4" cy="-180" rx="49.1" ry="18"/>
<text text-anchor="middle" x="1998.4" y="-175.32" font-family="Times,serif" font-size="14.00">q20:0.0</text>
</g>
<!-- q16:0.0&#45;&gt;q20:0.0 -->
<g id="edge22" class="edge">
<title>q16:0.0&#45;&gt;q20:0.0</title>
<path fill="none" stroke="black" d="M1780.9,-151.32C1787.6,-152.22 1794.3,-153.14 1800.8,-154 1847.7,-160.29 1900.9,-167.32 1940.1,-172.48"/>
<polygon fill="black" stroke="black" points="1939.43,-175.92 1949.8,-173.76 1940.34,-168.98 1939.43,-175.92"/>
<text text-anchor="middle" x="1866" y="-173.94" font-family="Times,serif" font-size="14.00">content/250:0.035</text>
</g>
<!-- q26:1.0 -->
<g id="node21" class="node">
<title>q26:1.0</title>
<ellipse fill="none" stroke="black" stroke-width="2" cx="2230.8" cy="-126" rx="49.1" ry="18"/>
<text text-anchor="middle" x="2230.8" y="-121.33" font-family="Times,serif" font-size="14.00">q26:1.0</text>
</g>
<!-- q21:0.0&#45;&gt;q26:1.0 -->
<g id="edge23" class="edge">
<title>q21:0.0&#45;&gt;q26:1.0</title>
<path fill="none" stroke="black" d="M2048.3,-126C2083.7,-126 2131.8,-126 2169.7,-126"/>
<polygon fill="black" stroke="black" points="2169.49,-129.5 2179.49,-126 2169.49,-122.5 2169.49,-129.5"/>
<text text-anchor="middle" x="2114.6" y="-129.94" font-family="Times,serif" font-size="14.00">RSET/250:1.0</text>
</g>
<!-- q27:1.0 -->
<g id="node22" class="node">
<title>q27:1.0</title>
<ellipse fill="none" stroke="black" stroke-width="2" cx="2230.8" cy="-234" rx="49.1" ry="18"/>
<text text-anchor="middle" x="2230.8" y="-229.32" font-family="Times,serif" font-size="14.00">q27:1.0</text>
</g>
<!-- q22:0.0&#45;&gt;q27:1.0 -->
<g id="edge24" class="edge">
<title>q22:0.0&#45;&gt;q27:1.0</title>
<path fill="none" stroke="black" d="M2048.3,-234C2083.7,-234 2131.8,-234 2169.7,-234"/>
<polygon fill="black" stroke="black" points="2169.49,-237.5 2179.49,-234 2169.49,-230.5 2169.49,-237.5"/>
<text text-anchor="middle" x="2114.6" y="-237.94" font-family="Times,serif" font-size="14.00">RSET/250:1.0</text>
</g>
<!-- q25:1.0 -->
<g id="node23" class="node">
<title>q25:1.0</title>
<ellipse fill="none" stroke="black" stroke-width="2" cx="2230.8" cy="-180" rx="49.1" ry="18"/>
<text text-anchor="middle" x="2230.8" y="-175.32" font-family="Times,serif" font-size="14.00">q25:1.0</text>
</g>
<!-- q20:0.0&#45;&gt;q25:1.0 -->
<g id="edge25" class="edge">
<title>q20:0.0&#45;&gt;q25:1.0</title>
<path fill="none" stroke="black" d="M2048.3,-180C2083.7,-180 2131.8,-180 2169.7,-180"/>
<polygon fill="black" stroke="black" points="2169.49,-183.5 2179.49,-180 2169.49,-176.5 2169.49,-183.5"/>
<text text-anchor="middle" x="2114.6" y="-183.94" font-family="Times,serif" font-size="14.00">QUIT/221:1.0</text>
</g>
<!-- q14:0.0&#45;&gt;q16:0.0 -->
<g id="edge28" class="edge">
<title>q14:0.0&#45;&gt;q16:0.0</title>
<path fill="none" stroke="black" d="M1510.6,-83.48C1559.1,-96.06 1637.5,-116.46 1666.6,-124.75 1672.3,-126.39 1678.4,-128.17 1684.4,-129.96"/>
<polygon fill="black" stroke="black" points="1682.97,-133.18 1693.55,-132.73 1684.99,-126.48 1682.97,-133.18"/>
<text text-anchor="middle" x="1601.3" y="-127.95" font-family="Times,serif" font-size="14.00">content/λ:0.022</text>
</g>
<!-- q18:0.0 -->
<g id="node25" class="node">
<title>q18:0.0</title>
<ellipse fill="none" stroke="black" stroke-width="2" cx="1733.7" cy="-72" rx="49.1" ry="18"/>
<text text-anchor="middle" x="1733.7" y="-67.33" font-family="Times,serif" font-size="14.00">q18:0.0</text>
</g>
<!-- q14:0.0&#45;&gt;q18:0.0 -->
<g id="edge29" class="edge">
<title>q14:0.0&#45;&gt;q18:0.0</title>
<path fill="none" stroke="black" d="M1518.8,-72.81C1562.1,-72.65 1625.7,-72.41 1672.2,-72.23"/>
<polygon fill="black" stroke="black" points="1672.2,-75.73 1682.19,-72.19 1672.17,-68.73 1672.2,-75.73"/>
<text text-anchor="middle" x="1601.3" y="-76.95" font-family="Times,serif" font-size="14.00">content/250:0.233</text>
</g>
<!-- q19:0.0 -->
<g id="node26" class="node">
<title>q19:0.0</title>
<ellipse fill="none" stroke="black" stroke-width="2" cx="1733.7" cy="-18" rx="49.1" ry="18"/>
<text text-anchor="middle" x="1733.7" y="-13.32" font-family="Times,serif" font-size="14.00">q19:0.0</text>
</g>
<!-- q14:0.0&#45;&gt;q19:0.0 -->
<g id="edge30" class="edge">
<title>q14:0.0&#45;&gt;q19:0.0</title>
<path fill="none" stroke="black" d="M1506.1,-60.38C1515.7,-57.28 1526.2,-54.16 1536.1,-51.75 1582.3,-40.41 1635.6,-31.52 1675,-25.72"/>
<polygon fill="black" stroke="black" points="1675.31,-29.21 1684.7,-24.31 1674.3,-22.28 1675.31,-29.21"/>
<text text-anchor="middle" x="1601.3" y="-55.95" font-family="Times,serif" font-size="14.00">content/554:0.744</text>
</g>
<!-- q23:1.0 -->
<g id="node27" class="node">
<title>q23:1.0</title>
<ellipse fill="none" stroke="black" stroke-width="2" cx="1998.4" cy="-72" rx="49.1" ry="18"/>
<text text-anchor="middle" x="1998.4" y="-67.33" font-family="Times,serif" font-size="14.00">q23:1.0</text>
</g>
<!-- q18:0.0&#45;&gt;q23:1.0 -->
<g id="edge31" class="edge">
<title>q18:0.0&#45;&gt;q23:1.0</title>
<path fill="none" stroke="black" d="M1783.5,-72C1826.8,-72 1890.4,-72 1936.9,-72"/>
<polygon fill="black" stroke="black" points="1936.89,-75.5 1946.89,-72 1936.89,-68.5 1936.89,-75.5"/>
<text text-anchor="middle" x="1866" y="-75.95" font-family="Times,serif" font-size="14.00">QUIT/221:1.0</text>
</g>
<!-- q24:1.0 -->
<g id="node28" class="node">
<title>q24:1.0</title>
<ellipse fill="none" stroke="black" stroke-width="2" cx="1998.4" cy="-18" rx="49.1" ry="18"/>
<text text-anchor="middle" x="1998.4" y="-13.32" font-family="Times,serif" font-size="14.00">q24:1.0</text>
</g>
<!-- q19:0.0&#45;&gt;q24:1.0 -->
<g id="edge32" class="edge">
<title>q19:0.0&#45;&gt;q24:1.0</title>
<path fill="none" stroke="black" d="M1783.5,-18C1826.8,-18 1890.4,-18 1936.9,-18"/>
<polygon fill="black" stroke="black" points="1936.89,-21.5 1946.89,-18 1936.89,-14.5 1936.89,-21.5"/>
<text text-anchor="middle" x="1866" y="-21.95" font-family="Times,serif" font-size="14.00">RSET/250:1.0</text>
</g>
</g>
</svg>
