<?xml version="1.0" encoding="UTF-8" standalone="no"?>
<!DOCTYPE svg PUBLIC "-//W3C//DTD SVG 1.1//EN"
 "http://www.w3.org/Graphics/SVG/1.1/DTD/svg11.dtd">
<!-- Generated by graphviz version 12.0.0 (20240803.0821)
 -->
<!-- Pages: 1 -->
<svg width="5313pt" height="488pt"
 viewBox="0.00 0.00 5312.70 488.29" xmlns="http://www.w3.org/2000/svg" xmlns:xlink="http://www.w3.org/1999/xlink">
<g id="graph0" class="graph" transform="scale(1 1) rotate(0) translate(4 484.29)">
<polygon fill="white" stroke="none" points="-4,4 -4,-484.29 5308.7,-484.29 5308.7,4 -4,4"/>
<!-- q0:0.0 -->
<g id="node1" class="node">
<title>q0:0.0</title>
<ellipse fill="none" stroke="black" stroke-width="2" cx="50.79" cy="-183.84" rx="46.79" ry="46.79"/>
<ellipse fill="none" stroke="black" stroke-width="2" cx="50.79" cy="-183.84" rx="50.79" ry="50.79"/>
<text text-anchor="middle" x="50.79" y="-179.16" font-family="Times,serif" font-size="14.00">q0:0.0</text>
</g>
<!-- q1:0.0 -->
<g id="node2" class="node">
<title>q1:0.0</title>
<ellipse fill="none" stroke="black" stroke-width="2" cx="243.87" cy="-183.84" rx="42.79" ry="18"/>
<text text-anchor="middle" x="243.87" y="-179.16" font-family="Times,serif" font-size="14.00">q1:0.0</text>
</g>
<!-- q0:0.0&#45;&gt;q1:0.0 -->
<g id="edge1" class="edge">
<title>q0:0.0&#45;&gt;q1:0.0</title>
<path fill="none" stroke="black" d="M98.53,-183.84C125.82,-183.84 160.37,-183.84 188.82,-183.84"/>
<polygon fill="black" stroke="black" points="188.69,-187.34 198.69,-183.84 188.69,-180.34 188.69,-187.34"/>
<text text-anchor="middle" x="149.33" y="-187.79" font-family="Times,serif" font-size="14.00">λ/220:1.0</text>
</g>
<!-- q2:0.0 -->
<g id="node3" class="node">
<title>q2:0.0</title>
<ellipse fill="none" stroke="black" stroke-width="2" cx="484.7" cy="-222.84" rx="42.79" ry="18"/>
<text text-anchor="middle" x="484.7" y="-218.16" font-family="Times,serif" font-size="14.00">q2:0.0</text>
</g>
<!-- q1:0.0&#45;&gt;q2:0.0 -->
<g id="edge2" class="edge">
<title>q1:0.0&#45;&gt;q2:0.0</title>
<path fill="none" stroke="black" d="M284.75,-190.54C291.4,-191.65 298.22,-192.78 304.66,-193.84 347.7,-200.93 396.58,-208.83 432.38,-214.6"/>
<polygon fill="black" stroke="black" points="431.6,-218.01 442.02,-216.15 432.71,-211.1 431.6,-218.01"/>
<text text-anchor="middle" x="364.29" y="-215.79" font-family="Times,serif" font-size="14.00">EHLO/250:0.992</text>
</g>
<!-- q3:0.0 -->
<g id="node4" class="node">
<title>q3:0.0</title>
<ellipse fill="none" stroke="black" stroke-width="2" cx="484.7" cy="-114.84" rx="42.79" ry="18"/>
<text text-anchor="middle" x="484.7" y="-110.16" font-family="Times,serif" font-size="14.00">q3:0.0</text>
</g>
<!-- q1:0.0&#45;&gt;q3:0.0 -->
<g id="edge3" class="edge">
<title>q1:0.0&#45;&gt;q3:0.0</title>
<path fill="none" stroke="black" d="M272.02,-169.33C282.07,-164.38 293.69,-159.15 304.66,-155.34 346.64,-140.79 395.99,-130.08 432.24,-123.34"/>
<polygon fill="black" stroke="black" points="432.82,-126.79 442.03,-121.56 431.57,-119.9 432.82,-126.79"/>
<text text-anchor="middle" x="364.29" y="-176.04" font-family="Times,serif" font-size="14.00">EHLO/λ:0.008</text>
<text text-anchor="middle" x="364.29" y="-158.79" font-family="Times,serif" font-size="14.00">a0 = [127.0.1.1]</text>
</g>
<!-- q4:0.0 -->
<g id="node5" class="node">
<title>q4:0.0</title>
<ellipse fill="none" stroke="black" stroke-width="2" cx="1657.8" cy="-252.84" rx="42.79" ry="18"/>
<text text-anchor="middle" x="1657.8" y="-248.16" font-family="Times,serif" font-size="14.00">q4:0.0</text>
</g>
<!-- q2:0.0&#45;&gt;q4:0.0 -->
<g id="edge4" class="edge">
<title>q2:0.0&#45;&gt;q4:0.0</title>
<path fill="none" stroke="black" d="M520.5,-233.71C528.62,-235.81 537.3,-237.71 545.49,-238.84 753.29,-267.5 1409.8,-257.58 1602.9,-253.94"/>
<polygon fill="black" stroke="black" points="1602.66,-257.44 1612.59,-253.75 1602.52,-250.44 1602.66,-257.44"/>
<text text-anchor="middle" x="1071.2" y="-279.04" font-family="Times,serif" font-size="14.00">AUTH/λ:0.004</text>
<text text-anchor="middle" x="1071.2" y="-261.79" font-family="Times,serif" font-size="14.00">a0 = PLAIN AEF6NjE2MUAxMjYuY29tAE1VUVNBT1NUWElURkpDVUU=</text>
</g>
<!-- q5:0.0 -->
<g id="node6" class="node">
<title>q5:0.0</title>
<ellipse fill="none" stroke="black" stroke-width="2" cx="1657.8" cy="-147.84" rx="42.79" ry="18"/>
<text text-anchor="middle" x="1657.8" y="-143.16" font-family="Times,serif" font-size="14.00">q5:0.0</text>
</g>
<!-- q2:0.0&#45;&gt;q5:0.0 -->
<g id="edge5" class="edge">
<title>q2:0.0&#45;&gt;q5:0.0</title>
<path fill="none" stroke="black" d="M504.7,-206.12C515.78,-197.47 530.5,-187.77 545.49,-183.09 657.04,-148.28 1481.3,-180.14 1597,-163.84 1601.6,-163.19 1606.4,-162.31 1611.1,-161.28"/>
<polygon fill="black" stroke="black" points="1611.61,-164.75 1620.53,-159.03 1609.99,-157.94 1611.61,-164.75"/>
<text text-anchor="middle" x="1071.2" y="-221.29" font-family="Times,serif" font-size="14.00">AUTH/235:0.946</text>
<text text-anchor="middle" x="1071.2" y="-204.04" font-family="Times,serif" font-size="14.00">a0 in {&#39;PLAIN AEF6NjE2MUAxMjYuY29tAE1VUVNBT1NUWElURkpDVUU=&#39;, &#39;PLAIN AEF6NjE2MUBzaW5hLmNvbQA2ZmRiMjVjZmNjODYyZWZj&#39;}</text>
<text text-anchor="middle" x="1071.2" y="-186.79" font-family="Times,serif" font-size="14.00">b0 in {&#39;Authentication successful&#39;, &#39;OK Authenticated&#39;}</text>
</g>
<!-- q6:0.0 -->
<g id="node7" class="node">
<title>q6:0.0</title>
<ellipse fill="none" stroke="black" stroke-width="2" cx="1657.8" cy="-323.84" rx="42.79" ry="18"/>
<text text-anchor="middle" x="1657.8" y="-319.16" font-family="Times,serif" font-size="14.00">q6:0.0</text>
</g>
<!-- q2:0.0&#45;&gt;q6:0.0 -->
<g id="edge6" class="edge">
<title>q2:0.0&#45;&gt;q6:0.0</title>
<path fill="none" stroke="black" d="M494.62,-241.33C504.36,-259.18 521.79,-285.16 545.49,-296.84 917.85,-480.29 1449,-374.54 1609.2,-336.05"/>
<polygon fill="black" stroke="black" points="1609.74,-339.52 1618.63,-333.75 1608.08,-332.72 1609.74,-339.52"/>
<text text-anchor="middle" x="1071.2" y="-422.04" font-family="Times,serif" font-size="14.00">AUTH/535:0.05</text>
<text text-anchor="middle" x="1071.2" y="-404.79" font-family="Times,serif" font-size="14.00">b0 in {&#39;5.7.8 authentication failed&#39;, &#39;Error: authentication failed&#39;}</text>
</g>
<!-- q3:0.0&#45;&gt;q5:0.0 -->
<g id="edge7" class="edge">
<title>q3:0.0&#45;&gt;q5:0.0</title>
<path fill="none" stroke="black" d="M524.59,-107.37C669.58,-81.03 1191.1,0 1597,-112.09 1607.2,-114.9 1617.3,-119.94 1626.3,-125.37"/>
<polygon fill="black" stroke="black" points="1624.33,-128.26 1634.63,-130.74 1628.13,-122.38 1624.33,-128.26"/>
<text text-anchor="middle" x="1071.2" y="-151.29" font-family="Times,serif" font-size="14.00">AUTH/235:1.0</text>
<text text-anchor="middle" x="1071.2" y="-134.04" font-family="Times,serif" font-size="14.00">a0 in {&#39;PLAIN AEF6NjE2MUAxMjYuY29tAE1VUVNBT1NUWElURkpDVUU=&#39;, &#39;PLAIN AEF6NjE2MUBzaW5hLmNvbQA2ZmRiMjVjZmNjODYyZWZj&#39;}</text>
<text text-anchor="middle" x="1071.2" y="-116.79" font-family="Times,serif" font-size="14.00">b0 in {&#39;Authentication successful&#39;, &#39;OK Authenticated&#39;}</text>
</g>
<!-- q7:0.0 -->
<g id="node8" class="node">
<title>q7:0.0</title>
<ellipse fill="none" stroke="black" stroke-width="2" cx="2500.9" cy="-194.84" rx="42.79" ry="18"/>
<text text-anchor="middle" x="2500.9" y="-190.16" font-family="Times,serif" font-size="14.00">q7:0.0</text>
</g>
<!-- q4:0.0&#45;&gt;q7:0.0 -->
<g id="edge8" class="edge">
<title>q4:0.0&#45;&gt;q7:0.0</title>
<path fill="none" stroke="black" d="M1701.2,-254.21C1843,-258.39 2299.5,-268.35 2440.1,-228.84 2449.7,-226.15 2459.3,-221.6 2468,-216.7"/>
<polygon fill="black" stroke="black" points="2469.63,-219.8 2476.4,-211.65 2466.03,-213.8 2469.63,-219.8"/>
<text text-anchor="middle" x="2079.3" y="-296.29" font-family="Times,serif" font-size="14.00">MAIL/250:1.0</text>
<text text-anchor="middle" x="2079.3" y="-279.04" font-family="Times,serif" font-size="14.00">a0 = FROM:&lt;Az6161@126.com&gt;</text>
<text text-anchor="middle" x="2079.3" y="-261.79" font-family="Times,serif" font-size="14.00">b0 = Mail OK</text>
</g>
<!-- q5:0.0&#45;&gt;q7:0.0 -->
<g id="edge9" class="edge">
<title>q5:0.0&#45;&gt;q7:0.0</title>
<path fill="none" stroke="black" d="M1700.2,-152.37C1706.4,-152.93 1712.6,-153.45 1718.6,-153.84 1878.6,-164.44 2281.7,-151.47 2440.1,-177.09 2445.1,-177.9 2450.3,-179.01 2455.4,-180.28"/>
<polygon fill="black" stroke="black" points="2454.37,-183.62 2464.94,-182.86 2456.2,-176.87 2454.37,-183.62"/>
<text text-anchor="middle" x="2079.3" y="-215.29" font-family="Times,serif" font-size="14.00">MAIL/250:0.987</text>
<text text-anchor="middle" x="2079.3" y="-198.04" font-family="Times,serif" font-size="14.00">a0 in {&#39;FROM:&lt;Az6161@sina.com&gt;&#39;, &#39;FROM:&lt;Az6161@126.com&gt;&#39;}</text>
<text text-anchor="middle" x="2079.3" y="-180.79" font-family="Times,serif" font-size="14.00">b0 in {&#39;Mail OK&#39;, &#39;ok&#39;}</text>
</g>
<!-- q8:0.0 -->
<g id="node9" class="node">
<title>q8:0.0</title>
<ellipse fill="none" stroke="black" stroke-width="2" cx="2500.9" cy="-99.84" rx="42.79" ry="18"/>
<text text-anchor="middle" x="2500.9" y="-95.16" font-family="Times,serif" font-size="14.00">q8:0.0</text>
</g>
<!-- q5:0.0&#45;&gt;q8:0.0 -->
<g id="edge10" class="edge">
<title>q5:0.0&#45;&gt;q8:0.0</title>
<path fill="none" stroke="black" d="M1673.5,-130.42C1684.6,-118.79 1700.8,-104.52 1718.6,-98.09 1980.8,-3.26 2325.7,-61.86 2451.4,-88.63"/>
<polygon fill="black" stroke="black" points="2450.51,-92.01 2461.02,-90.71 2451.99,-85.17 2450.51,-92.01"/>
<text text-anchor="middle" x="2079.3" y="-137.29" font-family="Times,serif" font-size="14.00">MAIL/553:0.013</text>
<text text-anchor="middle" x="2079.3" y="-120.04" font-family="Times,serif" font-size="14.00">a0 in {&#39;FROM:&lt;Az_6161@126.com&gt;&#39;, &#39;FROM:&lt;Az_6161@sina.com&gt;&#39;, &#39;FROM:&lt;Az6161@163.com&gt;&#39;}</text>
<text text-anchor="middle" x="2079.3" y="-102.79" font-family="Times,serif" font-size="14.00">b0 in {&#39;Mail from must equal authorized user&#39;, &#39;Envolope sender mismatch with login user..&#39;}</text>
</g>
<!-- q9:0.0 -->
<g id="node10" class="node">
<title>q9:0.0</title>
<ellipse fill="none" stroke="black" stroke-width="2" cx="2500.9" cy="-325.84" rx="42.79" ry="18"/>
<text text-anchor="middle" x="2500.9" y="-321.16" font-family="Times,serif" font-size="14.00">q9:0.0</text>
</g>
<!-- q6:0.0&#45;&gt;q9:0.0 -->
<g id="edge11" class="edge">
<title>q6:0.0&#45;&gt;q9:0.0</title>
<path fill="none" stroke="black" d="M1701.4,-323.94C1841.9,-324.28 2290.6,-325.35 2446.2,-325.72"/>
<polygon fill="black" stroke="black" points="2445.78,-329.22 2455.79,-325.73 2445.79,-322.22 2445.78,-329.22"/>
<text text-anchor="middle" x="2079.3" y="-346.04" font-family="Times,serif" font-size="14.00">AUTH/334:1.0</text>
<text text-anchor="middle" x="2079.3" y="-328.79" font-family="Times,serif" font-size="14.00">b0 = UGFzc3dvcmQ6</text>
</g>
<!-- q7:0.0&#45;&gt;q7:0.0 -->
<g id="edge13" class="edge">
<title>q7:0.0&#45;&gt;q7:0.0</title>
<path fill="none" stroke="black" d="M2462.4,-203.88C2428.4,-216.05 2441.2,-230.84 2500.9,-230.84 2553.3,-230.84 2569.5,-219.41 2549.6,-208.39"/>
<polygon fill="black" stroke="black" points="2551.25,-205.29 2540.69,-204.48 2548.44,-211.7 2551.25,-205.29"/>
<text text-anchor="middle" x="2500.9" y="-252.04" font-family="Times,serif" font-size="14.00">RCPT/250:0.634</text>
<text text-anchor="middle" x="2500.9" y="-234.79" font-family="Times,serif" font-size="14.00">b0 in {&#39;Mail OK&#39;, &#39;ok&#39;}</text>
</g>
<!-- q10:0.0 -->
<g id="node13" class="node">
<title>q10:0.0</title>
<ellipse fill="none" stroke="black" stroke-width="2" cx="3127.4" cy="-156.84" rx="49.1" ry="18"/>
<text text-anchor="middle" x="3127.4" y="-152.16" font-family="Times,serif" font-size="14.00">q10:0.0</text>
</g>
<!-- q7:0.0&#45;&gt;q10:0.0 -->
<g id="edge14" class="edge">
<title>q7:0.0&#45;&gt;q10:0.0</title>
<path fill="none" stroke="black" d="M2522.4,-178.44C2533.4,-170.72 2547.5,-162.34 2561.7,-158.34 2655.1,-131.94 2942,-145.5 3067.1,-152.98"/>
<polygon fill="black" stroke="black" points="3066.59,-156.45 3076.79,-153.56 3067.02,-149.46 3066.59,-156.45"/>
<text text-anchor="middle" x="2804.7" y="-179.04" font-family="Times,serif" font-size="14.00">DATA/354:0.305</text>
<text text-anchor="middle" x="2804.7" y="-161.79" font-family="Times,serif" font-size="14.00">b0 = End data with &lt;CR&gt;&lt;LF&gt;.&lt;CR&gt;&lt;LF&gt;</text>
</g>
<!-- q11:1.0 -->
<g id="node14" class="node">
<title>q11:1.0</title>
<ellipse fill="none" stroke="black" stroke-width="2" cx="3127.4" cy="-214.84" rx="49.1" ry="18"/>
<text text-anchor="middle" x="3127.4" y="-210.16" font-family="Times,serif" font-size="14.00">q11:1.0</text>
</g>
<!-- q7:0.0&#45;&gt;q11:1.0 -->
<g id="edge15" class="edge">
<title>q7:0.0&#45;&gt;q11:1.0</title>
<path fill="none" stroke="black" d="M2544.3,-196.2C2652.8,-199.68 2940.5,-208.89 3066.2,-212.92"/>
<polygon fill="black" stroke="black" points="3065.88,-216.41 3075.99,-213.23 3066.1,-209.41 3065.88,-216.41"/>
<text text-anchor="middle" x="2804.7" y="-233.04" font-family="Times,serif" font-size="14.00">DATA/550:0.061</text>
<text text-anchor="middle" x="2804.7" y="-215.79" font-family="Times,serif" font-size="14.00">b0 in {&#39;too many message send today.&#39;, &#39;Sender frequency limited.&#39;}</text>
</g>
<!-- q12:1.0 -->
<g id="node24" class="node">
<title>q12:1.0</title>
<ellipse fill="none" stroke="black" stroke-width="2" cx="3127.4" cy="-98.84" rx="49.1" ry="18"/>
<text text-anchor="middle" x="3127.4" y="-94.16" font-family="Times,serif" font-size="14.00">q12:1.0</text>
</g>
<!-- q8:0.0&#45;&gt;q12:1.0 -->
<g id="edge27" class="edge">
<title>q8:0.0&#45;&gt;q12:1.0</title>
<path fill="none" stroke="black" d="M2544.3,-99.77C2652.8,-99.6 2940.5,-99.14 3066.2,-98.94"/>
<polygon fill="black" stroke="black" points="3065.99,-102.44 3075.99,-98.92 3065.98,-95.44 3065.99,-102.44"/>
<text text-anchor="middle" x="2804.7" y="-121.04" font-family="Times,serif" font-size="14.00">RSET/250:1.0</text>
<text text-anchor="middle" x="2804.7" y="-103.79" font-family="Times,serif" font-size="14.00">b0 in {&#39;flushed&#39;, &#39;OK&#39;}</text>
</g>
<!-- q13:0.667 -->
<g id="node25" class="node">
<title>q13:0.667</title>
<ellipse fill="none" stroke="black" stroke-width="2" cx="3127.4" cy="-325.84" rx="61.73" ry="18"/>
<text text-anchor="middle" x="3127.4" y="-321.16" font-family="Times,serif" font-size="14.00">q13:0.667</text>
</g>
<!-- q9:0.0&#45;&gt;q13:0.667 -->
<g id="edge28" class="edge">
<title>q9:0.0&#45;&gt;q13:0.667</title>
<path fill="none" stroke="black" d="M2544.3,-325.84C2649.3,-325.84 2922.2,-325.84 3053.6,-325.84"/>
<polygon fill="black" stroke="black" points="3053.59,-329.34 3063.59,-325.84 3053.59,-322.34 3053.59,-329.34"/>
<text text-anchor="middle" x="2804.7" y="-347.04" font-family="Times,serif" font-size="14.00">content/535:1.0</text>
<text text-anchor="middle" x="2804.7" y="-329.79" font-family="Times,serif" font-size="14.00">b0 in {&#39;5.7.8 authentication failed&#39;, &#39;Error: authentication failed&#39;}</text>
</g>
<!-- q15:0.0 -->
<g id="node11" class="node">
<title>q15:0.0</title>
<ellipse fill="none" stroke="black" stroke-width="2" cx="3499.2" cy="-272.84" rx="49.1" ry="18"/>
<text text-anchor="middle" x="3499.2" y="-268.16" font-family="Times,serif" font-size="14.00">q15:0.0</text>
</g>
<!-- q20:1.0 -->
<g id="node12" class="node">
<title>q20:1.0</title>
<ellipse fill="none" stroke="black" stroke-width="2" cx="5023.2" cy="-282.84" rx="49.1" ry="18"/>
<text text-anchor="middle" x="5023.2" y="-278.16" font-family="Times,serif" font-size="14.00">q20:1.0</text>
</g>
<!-- q15:0.0&#45;&gt;q20:1.0 -->
<g id="edge12" class="edge">
<title>q15:0.0&#45;&gt;q20:1.0</title>
<path fill="none" stroke="black" d="M3549.1,-273.16C3774.8,-274.65 4714.6,-280.82 4962.2,-282.45"/>
<polygon fill="black" stroke="black" points="4961.86,-285.94 4971.89,-282.51 4961.91,-278.94 4961.86,-285.94"/>
<text text-anchor="middle" x="4261.2" y="-303.04" font-family="Times,serif" font-size="14.00">RSET/250:1.0</text>
<text text-anchor="middle" x="4261.2" y="-285.79" font-family="Times,serif" font-size="14.00">b0 = OK</text>
</g>
<!-- q10:0.0&#45;&gt;q15:0.0 -->
<g id="edge16" class="edge">
<title>q10:0.0&#45;&gt;q15:0.0</title>
<path fill="none" stroke="black" d="M3164.4,-169.44C3173.5,-174.05 3182.5,-180.09 3189.1,-187.84 3206.1,-207.76 3186.8,-227.41 3207.1,-243.84 3274.2,-298.04 3380.4,-293.1 3444.3,-283.63"/>
<polygon fill="black" stroke="black" points="3444.48,-287.14 3453.8,-282.11 3443.38,-280.23 3444.48,-287.14"/>
<text text-anchor="middle" x="3319.6" y="-292.79" font-family="Times,serif" font-size="14.00">content/554:0.037</text>
</g>
<!-- q17:0.0 -->
<g id="node15" class="node">
<title>q17:0.0</title>
<ellipse fill="none" stroke="black" stroke-width="2" cx="3499.2" cy="-192.84" rx="49.1" ry="18"/>
<text text-anchor="middle" x="3499.2" y="-188.16" font-family="Times,serif" font-size="14.00">q17:0.0</text>
</g>
<!-- q10:0.0&#45;&gt;q17:0.0 -->
<g id="edge17" class="edge">
<title>q10:0.0&#45;&gt;q17:0.0</title>
<path fill="none" stroke="black" d="M3155.1,-172.52C3169.9,-180.31 3188.9,-188.88 3207.1,-192.84 3286.6,-210.16 3381.3,-205.69 3440.6,-199.99"/>
<polygon fill="black" stroke="black" points="3440.8,-203.48 3450.39,-198.99 3440.09,-196.52 3440.8,-203.48"/>
<text text-anchor="middle" x="3319.6" y="-226.04" font-family="Times,serif" font-size="14.00">content/λ:0.917</text>
<text text-anchor="middle" x="3319.6" y="-208.79" font-family="Times,serif" font-size="14.00">a0 = b0</text>
</g>
<!-- q16:0.0 -->
<g id="node16" class="node">
<title>q16:0.0</title>
<ellipse fill="none" stroke="black" stroke-width="2" cx="3499.2" cy="-116.84" rx="49.1" ry="18"/>
<text text-anchor="middle" x="3499.2" y="-112.16" font-family="Times,serif" font-size="14.00">q16:0.0</text>
</g>
<!-- q10:0.0&#45;&gt;q16:0.0 -->
<g id="edge18" class="edge">
<title>q10:0.0&#45;&gt;q16:0.0</title>
<path fill="none" stroke="black" d="M3157.6,-141.91C3178.8,-131.09 3204.4,-118.24 3207.1,-117.59 3286.4,-98.81 3381.3,-103.39 3440.7,-109.35"/>
<polygon fill="black" stroke="black" points="3440.28,-112.83 3450.59,-110.4 3441.02,-105.87 3440.28,-112.83"/>
<text text-anchor="middle" x="3319.6" y="-120.79" font-family="Times,serif" font-size="14.00">content/250:0.045</text>
</g>
<!-- q14:0.0 -->
<g id="node17" class="node">
<title>q14:0.0</title>
<ellipse fill="none" stroke="black" stroke-width="2" cx="3499.2" cy="-58.84" rx="49.1" ry="18"/>
<text text-anchor="middle" x="3499.2" y="-54.16" font-family="Times,serif" font-size="14.00">q14:0.0</text>
</g>
<!-- q10:0.0&#45;&gt;q14:0.0 -->
<g id="edge19" class="edge">
<title>q10:0.0&#45;&gt;q14:0.0</title>
<path fill="none" stroke="black" d="M3164.5,-144.32C3173.6,-139.71 3182.6,-133.65 3189.1,-125.84 3206.8,-104.64 3185.1,-83.09 3207.1,-66.34 3277.1,-12.99 3386.5,-28.72 3449.3,-44.25"/>
<polygon fill="black" stroke="black" points="3448.08,-47.55 3458.63,-46.66 3449.82,-40.77 3448.08,-47.55"/>
<text text-anchor="middle" x="3319.6" y="-88.04" font-family="Times,serif" font-size="14.00">content/550:0.001</text>
<text text-anchor="middle" x="3319.6" y="-70.79" font-family="Times,serif" font-size="14.00">b0 = Sender frequency limited.</text>
</g>
<!-- q17:0.0&#45;&gt;q10:0.0 -->
<g id="edge20" class="edge">
<title>q17:0.0&#45;&gt;q10:0.0</title>
<path fill="none" stroke="black" d="M3476.3,-176.11C3464,-167.8 3448,-158.64 3432.1,-154.34 3348,-131.63 3245.9,-139.28 3184.1,-147.56"/>
<polygon fill="black" stroke="black" points="3184.02,-144.03 3174.6,-148.89 3184.99,-150.97 3184.02,-144.03"/>
<text text-anchor="middle" x="3319.6" y="-175.04" font-family="Times,serif" font-size="14.00">content/λ:0.971</text>
<text text-anchor="middle" x="3319.6" y="-157.79" font-family="Times,serif" font-size="14.00">a0 = b0</text>
</g>
<!-- q22:0.0 -->
<g id="node18" class="node">
<title>q22:0.0</title>
<ellipse fill="none" stroke="black" stroke-width="2" cx="5023.2" cy="-170.84" rx="49.1" ry="18"/>
<text text-anchor="middle" x="5023.2" y="-166.16" font-family="Times,serif" font-size="14.00">q22:0.0</text>
</g>
<!-- q17:0.0&#45;&gt;q22:0.0 -->
<g id="edge21" class="edge">
<title>q17:0.0&#45;&gt;q22:0.0</title>
<path fill="none" stroke="black" d="M3535.4,-179.78C3545.3,-176.72 3556.1,-173.9 3566.3,-172.34 3842,-130.43 4723.9,-159.65 4962.3,-168.52"/>
<polygon fill="black" stroke="black" points="4961.86,-172 4971.99,-168.88 4962.12,-165.01 4961.86,-172"/>
<text text-anchor="middle" x="4261.2" y="-193.04" font-family="Times,serif" font-size="14.00">content/554:0.001</text>
<text text-anchor="middle" x="4261.2" y="-175.79" font-family="Times,serif" font-size="14.00">b0 = DT:SPM 126 smtp10 NuRpCgAXIXf+MYBfJr+Adw&#45;&#45;.17258S2 1602236927 please see http://mail.163.com/help/help_spam_16.htm?ip=221.212.176.101&amp;hostid=smtp10&amp;time=1602236927</text>
</g>
<!-- q23:0.0 -->
<g id="node19" class="node">
<title>q23:0.0</title>
<ellipse fill="none" stroke="black" stroke-width="2" cx="5023.2" cy="-228.84" rx="49.1" ry="18"/>
<text text-anchor="middle" x="5023.2" y="-224.16" font-family="Times,serif" font-size="14.00">q23:0.0</text>
</g>
<!-- q17:0.0&#45;&gt;q23:0.0 -->
<g id="edge22" class="edge">
<title>q17:0.0&#45;&gt;q23:0.0</title>
<path fill="none" stroke="black" d="M3541.6,-202.89C3549.8,-204.51 3558.3,-205.94 3566.3,-206.84 4105.1,-267.39 4763,-241.93 4962.2,-232.07"/>
<polygon fill="black" stroke="black" points="4962.27,-235.57 4972.09,-231.57 4961.93,-228.58 4962.27,-235.57"/>
<text text-anchor="middle" x="4261.2" y="-249.79" font-family="Times,serif" font-size="14.00">content/250:0.029</text>
</g>
<!-- q21:1.0 -->
<g id="node20" class="node">
<title>q21:1.0</title>
<ellipse fill="none" stroke="black" stroke-width="2" cx="5023.2" cy="-116.84" rx="49.1" ry="18"/>
<text text-anchor="middle" x="5023.2" y="-112.16" font-family="Times,serif" font-size="14.00">q21:1.0</text>
</g>
<!-- q16:0.0&#45;&gt;q21:1.0 -->
<g id="edge23" class="edge">
<title>q16:0.0&#45;&gt;q21:1.0</title>
<path fill="none" stroke="black" d="M3549.1,-116.84C3774.8,-116.84 4714.6,-116.84 4962.2,-116.84"/>
<polygon fill="black" stroke="black" points="4961.89,-120.34 4971.89,-116.84 4961.89,-113.34 4961.89,-120.34"/>
<text text-anchor="middle" x="4261.2" y="-120.79" font-family="Times,serif" font-size="14.00">QUIT/221:1.0</text>
</g>
<!-- q19:1.0 -->
<g id="node21" class="node">
<title>q19:1.0</title>
<ellipse fill="none" stroke="black" stroke-width="2" cx="5023.2" cy="-58.84" rx="49.1" ry="18"/>
<text text-anchor="middle" x="5023.2" y="-54.16" font-family="Times,serif" font-size="14.00">q19:1.0</text>
</g>
<!-- q14:0.0&#45;&gt;q19:1.0 -->
<g id="edge24" class="edge">
<title>q14:0.0&#45;&gt;q19:1.0</title>
<path fill="none" stroke="black" d="M3549.1,-58.84C3774.8,-58.84 4714.6,-58.84 4962.2,-58.84"/>
<polygon fill="black" stroke="black" points="4961.89,-62.34 4971.89,-58.84 4961.89,-55.34 4961.89,-62.34"/>
<text text-anchor="middle" x="4261.2" y="-80.04" font-family="Times,serif" font-size="14.00">RSET/250:1.0</text>
<text text-anchor="middle" x="4261.2" y="-62.79" font-family="Times,serif" font-size="14.00">a0 = b0</text>
</g>
<!-- q24:1.0 -->
<g id="node22" class="node">
<title>q24:1.0</title>
<ellipse fill="none" stroke="black" stroke-width="2" cx="5255.6" cy="-170.84" rx="49.1" ry="18"/>
<text text-anchor="middle" x="5255.6" y="-166.16" font-family="Times,serif" font-size="14.00">q24:1.0</text>
</g>
<!-- q22:0.0&#45;&gt;q24:1.0 -->
<g id="edge25" class="edge">
<title>q22:0.0&#45;&gt;q24:1.0</title>
<path fill="none" stroke="black" d="M5073,-170.84C5108.5,-170.84 5156.6,-170.84 5194.5,-170.84"/>
<polygon fill="black" stroke="black" points="5194.29,-174.34 5204.29,-170.84 5194.29,-167.34 5194.29,-174.34"/>
<text text-anchor="middle" x="5139.4" y="-192.04" font-family="Times,serif" font-size="14.00">RSET/250:1.0</text>
<text text-anchor="middle" x="5139.4" y="-174.79" font-family="Times,serif" font-size="14.00">b0 = OK</text>
</g>
<!-- q25:1.0 -->
<g id="node23" class="node">
<title>q25:1.0</title>
<ellipse fill="none" stroke="black" stroke-width="2" cx="5255.6" cy="-228.84" rx="49.1" ry="18"/>
<text text-anchor="middle" x="5255.6" y="-224.16" font-family="Times,serif" font-size="14.00">q25:1.0</text>
</g>
<!-- q23:0.0&#45;&gt;q25:1.0 -->
<g id="edge26" class="edge">
<title>q23:0.0&#45;&gt;q25:1.0</title>
<path fill="none" stroke="black" d="M5073,-228.84C5108.5,-228.84 5156.6,-228.84 5194.5,-228.84"/>
<polygon fill="black" stroke="black" points="5194.29,-232.34 5204.29,-228.84 5194.29,-225.34 5194.29,-232.34"/>
<text text-anchor="middle" x="5139.4" y="-232.79" font-family="Times,serif" font-size="14.00">QUIT/221:1.0</text>
</g>
<!-- q18:1.0 -->
<g id="node26" class="node">
<title>q18:1.0</title>
<ellipse fill="none" stroke="black" stroke-width="2" cx="3499.2" cy="-326.84" rx="49.1" ry="18"/>
<text text-anchor="middle" x="3499.2" y="-322.16" font-family="Times,serif" font-size="14.00">q18:1.0</text>
</g>
<!-- q13:0.667&#45;&gt;q18:1.0 -->
<g id="edge29" class="edge">
<title>q13:0.667&#45;&gt;q18:1.0</title>
<path fill="none" stroke="black" d="M3189.9,-326.01C3258.7,-326.2 3369.5,-326.49 3437.9,-326.68"/>
<polygon fill="black" stroke="black" points="3437.78,-330.18 3447.79,-326.7 3437.79,-323.18 3437.78,-330.18"/>
<text text-anchor="middle" x="3319.6" y="-347.04" font-family="Times,serif" font-size="14.00">λ/451:0.333</text>
<text text-anchor="middle" x="3319.6" y="-329.79" font-family="Times,serif" font-size="14.00">b0 = Timeout.</text>
</g>
</g>
</svg>
