<?xml version="1.0" encoding="UTF-8" standalone="no"?>
<!DOCTYPE svg PUBLIC "-//W3C//DTD SVG 1.1//EN"
 "http://www.w3.org/Graphics/SVG/1.1/DTD/svg11.dtd">
<!-- Generated by graphviz version 12.0.0 (20240803.0821)
 -->
<!-- Pages: 1 -->
<svg width="2322pt" height="330pt"
 viewBox="0.00 0.00 2322.40 330.00" xmlns="http://www.w3.org/2000/svg" xmlns:xlink="http://www.w3.org/1999/xlink">
<g id="graph0" class="graph" transform="scale(1 1) rotate(0) translate(4 326)">
<polygon fill="white" stroke="none" points="-4,4 -4,-326 2318.4,-326 2318.4,4 -4,4"/>
<!-- q10:0.0 -->
<g id="node1" class="node">
<title>q10:0.0</title>
<ellipse fill="none" stroke="black" stroke-width="2" cx="968.18" cy="-300" rx="49.1" ry="18"/>
<text text-anchor="middle" x="968.18" y="-295.32" font-family="Times,serif" font-size="14.00">q10:0.0</text>
</g>
<!-- q15:1.0 -->
<g id="node2" class="node">
<title>q15:1.0</title>
<ellipse fill="none" stroke="black" stroke-width="2" cx="1229.8" cy="-304" rx="49.1" ry="18"/>
<text text-anchor="middle" x="1229.8" y="-299.32" font-family="Times,serif" font-size="14.00">q15:1.0</text>
</g>
<!-- q10:0.0&#45;&gt;q15:1.0 -->
<g id="edge1" class="edge">
<title>q10:0.0&#45;&gt;q15:1.0</title>
<path fill="none" stroke="black" d="M1018,-300.75C1060.6,-301.41 1122.7,-302.37 1168.5,-303.07"/>
<polygon fill="black" stroke="black" points="1168.13,-306.56 1178.19,-303.22 1168.24,-299.57 1168.13,-306.56"/>
<text text-anchor="middle" x="1092.7" y="-305.94" font-family="Times,serif" font-size="14.00">RSET/250:1.0</text>
</g>
<!-- q6:0.0 -->
<g id="node3" class="node">
<title>q6:0.0</title>
<ellipse fill="none" stroke="black" stroke-width="2" cx="725.53" cy="-204" rx="42.79" ry="18"/>
<text text-anchor="middle" x="725.53" y="-199.32" font-family="Times,serif" font-size="14.00">q6:0.0</text>
</g>
<!-- q6:0.0&#45;&gt;q10:0.0 -->
<g id="edge2" class="edge">
<title>q6:0.0&#45;&gt;q10:0.0</title>
<path fill="none" stroke="black" d="M757.99,-216.55C800.07,-233.34 874.9,-263.19 922.73,-282.27"/>
<polygon fill="black" stroke="black" points="921.39,-285.5 931.97,-285.96 923.98,-279 921.39,-285.5"/>
<text text-anchor="middle" x="843.7" y="-274.94" font-family="Times,serif" font-size="14.00">MAIL/553:0.013</text>
</g>
<!-- q9:0.0 -->
<g id="node4" class="node">
<title>q9:0.0</title>
<ellipse fill="none" stroke="black" stroke-width="2" cx="968.18" cy="-204" rx="42.79" ry="18"/>
<text text-anchor="middle" x="968.18" y="-199.32" font-family="Times,serif" font-size="14.00">q9:0.0</text>
</g>
<!-- q6:0.0&#45;&gt;q9:0.0 -->
<g id="edge3" class="edge">
<title>q6:0.0&#45;&gt;q9:0.0</title>
<path fill="none" stroke="black" d="M769.28,-204C809.36,-204 869.47,-204 912.92,-204"/>
<polygon fill="black" stroke="black" points="912.91,-207.5 922.91,-204 912.91,-200.5 912.91,-207.5"/>
<text text-anchor="middle" x="843.7" y="-207.94" font-family="Times,serif" font-size="14.00">MAIL/250:0.987</text>
</g>
<!-- q9:0.0&#45;&gt;q9:0.0 -->
<g id="edge4" class="edge">
<title>q9:0.0&#45;&gt;q9:0.0</title>
<path fill="none" stroke="black" d="M946.48,-220.29C941.25,-230.39 948.48,-240 968.18,-240 979.87,-240 987.17,-236.61 990.07,-231.74"/>
<polygon fill="black" stroke="black" points="993.57,-231.74 989.9,-221.8 986.57,-231.86 993.57,-231.74"/>
<text text-anchor="middle" x="968.18" y="-243.94" font-family="Times,serif" font-size="14.00">RCPT/250:0.636</text>
</g>
<!-- q14:0.0 -->
<g id="node5" class="node">
<title>q14:0.0</title>
<ellipse fill="none" stroke="black" stroke-width="2" cx="1229.8" cy="-250" rx="49.1" ry="18"/>
<text text-anchor="middle" x="1229.8" y="-245.32" font-family="Times,serif" font-size="14.00">q14:0.0</text>
</g>
<!-- q9:0.0&#45;&gt;q14:0.0 -->
<g id="edge5" class="edge">
<title>q9:0.0&#45;&gt;q14:0.0</title>
<path fill="none" stroke="black" d="M1005,-213.94C1014.8,-216.45 1025.4,-219 1035.3,-221 1080.6,-230.19 1132.4,-237.81 1171,-242.92"/>
<polygon fill="black" stroke="black" points="1170.13,-246.34 1180.5,-244.16 1171.04,-239.4 1170.13,-246.34"/>
<text text-anchor="middle" x="1092.7" y="-243.94" font-family="Times,serif" font-size="14.00">DATA/354:0.296</text>
</g>
<!-- q13:1.0 -->
<g id="node6" class="node">
<title>q13:1.0</title>
<ellipse fill="none" stroke="black" stroke-width="2" cx="1229.8" cy="-196" rx="49.1" ry="18"/>
<text text-anchor="middle" x="1229.8" y="-191.32" font-family="Times,serif" font-size="14.00">q13:1.0</text>
</g>
<!-- q9:0.0&#45;&gt;q13:1.0 -->
<g id="edge6" class="edge">
<title>q9:0.0&#45;&gt;q13:1.0</title>
<path fill="none" stroke="black" d="M1011.8,-202.69C1054.4,-201.37 1120.4,-199.34 1168.5,-197.86"/>
<polygon fill="black" stroke="black" points="1168.6,-201.36 1178.49,-197.55 1168.38,-194.36 1168.6,-201.36"/>
<text text-anchor="middle" x="1092.7" y="-204.94" font-family="Times,serif" font-size="14.00">DATA/550:0.068</text>
</g>
<!-- q21:0.0 -->
<g id="node7" class="node">
<title>q21:0.0</title>
<ellipse fill="none" stroke="black" stroke-width="2" cx="1768.1" cy="-126" rx="49.1" ry="18"/>
<text text-anchor="middle" x="1768.1" y="-121.33" font-family="Times,serif" font-size="14.00">q21:0.0</text>
</g>
<!-- q14:0.0&#45;&gt;q21:0.0 -->
<g id="edge7" class="edge">
<title>q14:0.0&#45;&gt;q21:0.0</title>
<path fill="none" stroke="black" d="M1279.7,-250.83C1393.2,-252.34 1667,-253.47 1701,-230 1717.7,-218.46 1708.7,-205.5 1719,-188 1726.2,-175.74 1735.5,-163.17 1744.1,-152.58"/>
<polygon fill="black" stroke="black" points="1746.68,-154.95 1750.34,-145.01 1741.28,-150.5 1746.68,-154.95"/>
<text text-anchor="middle" x="1514.2" y="-253.94" font-family="Times,serif" font-size="14.00">content/λ:0.617</text>
</g>
<!-- q19:0.0 -->
<g id="node8" class="node">
<title>q19:0.0</title>
<ellipse fill="none" stroke="black" stroke-width="2" cx="1514.2" cy="-196" rx="49.1" ry="18"/>
<text text-anchor="middle" x="1514.2" y="-191.32" font-family="Times,serif" font-size="14.00">q19:0.0</text>
</g>
<!-- q14:0.0&#45;&gt;q19:0.0 -->
<g id="edge8" class="edge">
<title>q14:0.0&#45;&gt;q19:0.0</title>
<path fill="none" stroke="black" d="M1261.5,-235.57C1275.8,-229.45 1293.2,-222.81 1309.5,-218.75 1356.9,-206.92 1412,-201.24 1453,-198.51"/>
<polygon fill="black" stroke="black" points="1453.13,-202.01 1462.89,-197.89 1452.69,-195.02 1453.13,-202.01"/>
<text text-anchor="middle" x="1374.7" y="-221.94" font-family="Times,serif" font-size="14.00">content/250:0.126</text>
</g>
<!-- q20:0.0 -->
<g id="node9" class="node">
<title>q20:0.0</title>
<ellipse fill="none" stroke="black" stroke-width="2" cx="1514.2" cy="-303" rx="49.1" ry="18"/>
<text text-anchor="middle" x="1514.2" y="-298.32" font-family="Times,serif" font-size="14.00">q20:0.0</text>
</g>
<!-- q14:0.0&#45;&gt;q20:0.0 -->
<g id="edge9" class="edge">
<title>q14:0.0&#45;&gt;q20:0.0</title>
<path fill="none" stroke="black" d="M1274.6,-258.22C1324.1,-267.51 1404.6,-282.62 1458.3,-292.69"/>
<polygon fill="black" stroke="black" points="1457.34,-296.07 1467.81,-294.48 1458.63,-289.19 1457.34,-296.07"/>
<text text-anchor="middle" x="1374.7" y="-291.94" font-family="Times,serif" font-size="14.00">content/554:0.257</text>
</g>
<!-- q21:0.0&#45;&gt;q21:0.0 -->
<g id="edge10" class="edge">
<title>q21:0.0&#45;&gt;q21:0.0</title>
<path fill="none" stroke="black" d="M1746.2,-143.04C1741.8,-152.86 1749.1,-162 1768.1,-162 1779.1,-162 1786.2,-158.94 1789.3,-154.47"/>
<polygon fill="black" stroke="black" points="1792.79,-154.75 1789.91,-144.55 1785.8,-154.32 1792.79,-154.75"/>
<text text-anchor="middle" x="1768.1" y="-165.94" font-family="Times,serif" font-size="14.00">content/λ:0.962</text>
</g>
<!-- q26:0.0 -->
<g id="node10" class="node">
<title>q26:0.0</title>
<ellipse fill="none" stroke="black" stroke-width="2" cx="2032.8" cy="-72" rx="49.1" ry="18"/>
<text text-anchor="middle" x="2032.8" y="-67.33" font-family="Times,serif" font-size="14.00">q26:0.0</text>
</g>
<!-- q21:0.0&#45;&gt;q26:0.0 -->
<g id="edge11" class="edge">
<title>q21:0.0&#45;&gt;q26:0.0</title>
<path fill="none" stroke="black" d="M1805.2,-113.35C1814.9,-110.25 1825.4,-107.14 1835.2,-104.75 1881.4,-93.54 1934.7,-84.92 1974.1,-79.35"/>
<polygon fill="black" stroke="black" points="1974.38,-82.85 1983.8,-78 1973.41,-75.91 1974.38,-82.85"/>
<text text-anchor="middle" x="1900.4" y="-108.95" font-family="Times,serif" font-size="14.00">content/554:0.001</text>
</g>
<!-- q28:0.0 -->
<g id="node11" class="node">
<title>q28:0.0</title>
<ellipse fill="none" stroke="black" stroke-width="2" cx="2032.8" cy="-180" rx="49.1" ry="18"/>
<text text-anchor="middle" x="2032.8" y="-175.32" font-family="Times,serif" font-size="14.00">q28:0.0</text>
</g>
<!-- q21:0.0&#45;&gt;q28:0.0 -->
<g id="edge12" class="edge">
<title>q21:0.0&#45;&gt;q28:0.0</title>
<path fill="none" stroke="black" d="M1805.5,-138.59C1815.1,-141.62 1825.5,-144.65 1835.2,-147 1881.4,-158.17 1934.7,-166.85 1974.1,-172.51"/>
<polygon fill="black" stroke="black" points="1973.41,-175.95 1983.8,-173.88 1974.39,-169.02 1973.41,-175.95"/>
<text text-anchor="middle" x="1900.4" y="-173.94" font-family="Times,serif" font-size="14.00">content/550:0.0</text>
</g>
<!-- q27:0.0 -->
<g id="node12" class="node">
<title>q27:0.0</title>
<ellipse fill="none" stroke="black" stroke-width="2" cx="2032.8" cy="-126" rx="49.1" ry="18"/>
<text text-anchor="middle" x="2032.8" y="-121.33" font-family="Times,serif" font-size="14.00">q27:0.0</text>
</g>
<!-- q21:0.0&#45;&gt;q27:0.0 -->
<g id="edge13" class="edge">
<title>q21:0.0&#45;&gt;q27:0.0</title>
<path fill="none" stroke="black" d="M1817.9,-126C1861.3,-126 1924.8,-126 1971.4,-126"/>
<polygon fill="black" stroke="black" points="1971.29,-129.5 1981.29,-126 1971.29,-122.5 1971.29,-129.5"/>
<text text-anchor="middle" x="1900.4" y="-129.94" font-family="Times,serif" font-size="14.00">content/250:0.037</text>
</g>
<!-- q24:1.0 -->
<g id="node13" class="node">
<title>q24:1.0</title>
<ellipse fill="none" stroke="black" stroke-width="2" cx="1768.1" cy="-215" rx="49.1" ry="18"/>
<text text-anchor="middle" x="1768.1" y="-210.32" font-family="Times,serif" font-size="14.00">q24:1.0</text>
</g>
<!-- q19:0.0&#45;&gt;q24:1.0 -->
<g id="edge14" class="edge">
<title>q19:0.0&#45;&gt;q24:1.0</title>
<path fill="none" stroke="black" d="M1563.2,-199.62C1604.3,-202.72 1663.8,-207.21 1707.9,-210.53"/>
<polygon fill="black" stroke="black" points="1707.55,-214.01 1717.79,-211.28 1708.08,-207.03 1707.55,-214.01"/>
<text text-anchor="middle" x="1644.7" y="-212.94" font-family="Times,serif" font-size="14.00">QUIT/221:1.0</text>
</g>
<!-- q25:1.0 -->
<g id="node14" class="node">
<title>q25:1.0</title>
<ellipse fill="none" stroke="black" stroke-width="2" cx="1768.1" cy="-303" rx="49.1" ry="18"/>
<text text-anchor="middle" x="1768.1" y="-298.32" font-family="Times,serif" font-size="14.00">q25:1.0</text>
</g>
<!-- q20:0.0&#45;&gt;q25:1.0 -->
<g id="edge15" class="edge">
<title>q20:0.0&#45;&gt;q25:1.0</title>
<path fill="none" stroke="black" d="M1564.1,-303C1604.9,-303 1663.3,-303 1707,-303"/>
<polygon fill="black" stroke="black" points="1706.89,-306.5 1716.89,-303 1706.89,-299.5 1706.89,-306.5"/>
<text text-anchor="middle" x="1644.7" y="-306.94" font-family="Times,serif" font-size="14.00">RSET/250:1.0</text>
</g>
<!-- q30:1.0 -->
<g id="node26" class="node">
<title>q30:1.0</title>
<ellipse fill="none" stroke="black" stroke-width="2" cx="2265.3" cy="-72" rx="49.1" ry="18"/>
<text text-anchor="middle" x="2265.3" y="-67.33" font-family="Times,serif" font-size="14.00">q30:1.0</text>
</g>
<!-- q26:0.0&#45;&gt;q30:1.0 -->
<g id="edge27" class="edge">
<title>q26:0.0&#45;&gt;q30:1.0</title>
<path fill="none" stroke="black" d="M2082.7,-72C2118.1,-72 2166.3,-72 2204.1,-72"/>
<polygon fill="black" stroke="black" points="2203.99,-75.5 2213.99,-72 2203.99,-68.5 2203.99,-75.5"/>
<text text-anchor="middle" x="2149" y="-75.95" font-family="Times,serif" font-size="14.00">RSET/250:1.0</text>
</g>
<!-- q32:1.0 -->
<g id="node27" class="node">
<title>q32:1.0</title>
<ellipse fill="none" stroke="black" stroke-width="2" cx="2265.3" cy="-180" rx="49.1" ry="18"/>
<text text-anchor="middle" x="2265.3" y="-175.32" font-family="Times,serif" font-size="14.00">q32:1.0</text>
</g>
<!-- q28:0.0&#45;&gt;q32:1.0 -->
<g id="edge28" class="edge">
<title>q28:0.0&#45;&gt;q32:1.0</title>
<path fill="none" stroke="black" d="M2082.7,-180C2118.1,-180 2166.3,-180 2204.1,-180"/>
<polygon fill="black" stroke="black" points="2203.99,-183.5 2213.99,-180 2203.99,-176.5 2203.99,-183.5"/>
<text text-anchor="middle" x="2149" y="-183.94" font-family="Times,serif" font-size="14.00">RSET/250:1.0</text>
</g>
<!-- q31:1.0 -->
<g id="node28" class="node">
<title>q31:1.0</title>
<ellipse fill="none" stroke="black" stroke-width="2" cx="2265.3" cy="-126" rx="49.1" ry="18"/>
<text text-anchor="middle" x="2265.3" y="-121.33" font-family="Times,serif" font-size="14.00">q31:1.0</text>
</g>
<!-- q27:0.0&#45;&gt;q31:1.0 -->
<g id="edge29" class="edge">
<title>q27:0.0&#45;&gt;q31:1.0</title>
<path fill="none" stroke="black" d="M2082.7,-126C2118.1,-126 2166.3,-126 2204.1,-126"/>
<polygon fill="black" stroke="black" points="2203.99,-129.5 2213.99,-126 2203.99,-122.5 2203.99,-129.5"/>
<text text-anchor="middle" x="2149" y="-129.94" font-family="Times,serif" font-size="14.00">QUIT/221:1.0</text>
</g>
<!-- q0:0.0 -->
<g id="node15" class="node">
<title>q0:0.0</title>
<ellipse fill="none" stroke="black" stroke-width="2" cx="50.79" cy="-105" rx="46.79" ry="46.79"/>
<ellipse fill="none" stroke="black" stroke-width="2" cx="50.79" cy="-105" rx="50.79" ry="50.79"/>
<text text-anchor="middle" x="50.79" y="-100.33" font-family="Times,serif" font-size="14.00">q0:0.0</text>
</g>
<!-- q1:0.0 -->
<g id="node16" class="node">
<title>q1:0.0</title>
<ellipse fill="none" stroke="black" stroke-width="2" cx="243.87" cy="-105" rx="42.79" ry="18"/>
<text text-anchor="middle" x="243.87" y="-100.33" font-family="Times,serif" font-size="14.00">q1:0.0</text>
</g>
<!-- q0:0.0&#45;&gt;q1:0.0 -->
<g id="edge16" class="edge">
<title>q0:0.0&#45;&gt;q1:0.0</title>
<path fill="none" stroke="black" d="M98.53,-105C125.82,-105 160.37,-105 188.82,-105"/>
<polygon fill="black" stroke="black" points="188.69,-108.5 198.69,-105 188.69,-101.5 188.69,-108.5"/>
<text text-anchor="middle" x="149.33" y="-108.95" font-family="Times,serif" font-size="14.00">λ/220:1.0</text>
</g>
<!-- q3:0.0 -->
<g id="node17" class="node">
<title>q3:0.0</title>
<ellipse fill="none" stroke="black" stroke-width="2" cx="484.7" cy="-78" rx="42.79" ry="18"/>
<text text-anchor="middle" x="484.7" y="-73.33" font-family="Times,serif" font-size="14.00">q3:0.0</text>
</g>
<!-- q1:0.0&#45;&gt;q3:0.0 -->
<g id="edge17" class="edge">
<title>q1:0.0&#45;&gt;q3:0.0</title>
<path fill="none" stroke="black" d="M279.7,-94.24C287.82,-92.1 296.49,-90.09 304.66,-88.75 346.39,-81.9 394.23,-79.29 429.95,-78.36"/>
<polygon fill="black" stroke="black" points="429.67,-81.86 439.59,-78.14 429.51,-74.86 429.67,-81.86"/>
<text text-anchor="middle" x="364.29" y="-92.95" font-family="Times,serif" font-size="14.00">EHLO/λ:0.008</text>
</g>
<!-- q2:0.0 -->
<g id="node18" class="node">
<title>q2:0.0</title>
<ellipse fill="none" stroke="black" stroke-width="2" cx="484.7" cy="-138" rx="42.79" ry="18"/>
<text text-anchor="middle" x="484.7" y="-133.32" font-family="Times,serif" font-size="14.00">q2:0.0</text>
</g>
<!-- q1:0.0&#45;&gt;q2:0.0 -->
<g id="edge18" class="edge">
<title>q1:0.0&#45;&gt;q2:0.0</title>
<path fill="none" stroke="black" d="M285.66,-110.64C326.01,-116.21 387.94,-124.77 431.79,-130.83"/>
<polygon fill="black" stroke="black" points="431.19,-134.28 441.58,-132.18 432.15,-127.35 431.19,-134.28"/>
<text text-anchor="middle" x="364.29" y="-132.94" font-family="Times,serif" font-size="14.00">EHLO/250:0.992</text>
</g>
<!-- q5:0.0 -->
<g id="node19" class="node">
<title>q5:0.0</title>
<ellipse fill="none" stroke="black" stroke-width="2" cx="725.53" cy="-65" rx="42.79" ry="18"/>
<text text-anchor="middle" x="725.53" y="-60.33" font-family="Times,serif" font-size="14.00">q5:0.0</text>
</g>
<!-- q3:0.0&#45;&gt;q5:0.0 -->
<g id="edge19" class="edge">
<title>q3:0.0&#45;&gt;q5:0.0</title>
<path fill="none" stroke="black" d="M523.16,-69.14C530.52,-67.74 538.22,-66.5 545.49,-65.75 587.48,-61.4 635.3,-61.46 670.96,-62.47"/>
<polygon fill="black" stroke="black" points="670.46,-65.95 680.57,-62.77 670.68,-58.96 670.46,-65.95"/>
<text text-anchor="middle" x="605.12" y="-69.95" font-family="Times,serif" font-size="14.00">AUTH/235:1.0</text>
</g>
<!-- q2:0.0&#45;&gt;q6:0.0 -->
<g id="edge20" class="edge">
<title>q2:0.0&#45;&gt;q6:0.0</title>
<path fill="none" stroke="black" d="M516.1,-151.24C525.43,-155.01 535.79,-158.93 545.49,-162 588.21,-175.5 637.89,-186.82 674.06,-194.29"/>
<polygon fill="black" stroke="black" points="673.32,-197.71 683.82,-196.28 674.72,-190.85 673.32,-197.71"/>
<text text-anchor="middle" x="605.12" y="-195.94" font-family="Times,serif" font-size="14.00">AUTH/235:0.942</text>
</g>
<!-- q2:0.0&#45;&gt;q5:0.0 -->
<g id="edge21" class="edge">
<title>q2:0.0&#45;&gt;q5:0.0</title>
<path fill="none" stroke="black" d="M519.14,-126.39C527.7,-123.5 536.92,-120.45 545.49,-117.75 598.15,-101.17 611.81,-98.68 664.74,-83 669.24,-81.67 673.93,-80.27 678.62,-78.87"/>
<polygon fill="black" stroke="black" points="679.43,-82.28 688,-76.05 677.42,-75.57 679.43,-82.28"/>
<text text-anchor="middle" x="605.12" y="-120.95" font-family="Times,serif" font-size="14.00">AUTH/λ:0.004</text>
</g>
<!-- q4:0.0 -->
<g id="node20" class="node">
<title>q4:0.0</title>
<ellipse fill="none" stroke="black" stroke-width="2" cx="725.53" cy="-143" rx="42.79" ry="18"/>
<text text-anchor="middle" x="725.53" y="-138.32" font-family="Times,serif" font-size="14.00">q4:0.0</text>
</g>
<!-- q2:0.0&#45;&gt;q4:0.0 -->
<g id="edge22" class="edge">
<title>q2:0.0&#45;&gt;q4:0.0</title>
<path fill="none" stroke="black" d="M528.4,-138.89C568.1,-139.72 627.41,-140.97 670.41,-141.87"/>
<polygon fill="black" stroke="black" points="670.21,-145.37 680.29,-142.08 670.36,-138.37 670.21,-145.37"/>
<text text-anchor="middle" x="605.12" y="-144.94" font-family="Times,serif" font-size="14.00">AUTH/535:0.054</text>
</g>
<!-- q8:0.0 -->
<g id="node21" class="node">
<title>q8:0.0</title>
<ellipse fill="none" stroke="black" stroke-width="2" cx="968.18" cy="-65" rx="42.79" ry="18"/>
<text text-anchor="middle" x="968.18" y="-60.33" font-family="Times,serif" font-size="14.00">q8:0.0</text>
</g>
<!-- q5:0.0&#45;&gt;q8:0.0 -->
<g id="edge23" class="edge">
<title>q5:0.0&#45;&gt;q8:0.0</title>
<path fill="none" stroke="black" d="M769.28,-65C809.36,-65 869.47,-65 912.92,-65"/>
<polygon fill="black" stroke="black" points="912.91,-68.5 922.91,-65 912.91,-61.5 912.91,-68.5"/>
<text text-anchor="middle" x="843.7" y="-68.95" font-family="Times,serif" font-size="14.00">MAIL/250:1.0</text>
</g>
<!-- q7:0.0 -->
<g id="node22" class="node">
<title>q7:0.0</title>
<ellipse fill="none" stroke="black" stroke-width="2" cx="968.18" cy="-143" rx="42.79" ry="18"/>
<text text-anchor="middle" x="968.18" y="-138.32" font-family="Times,serif" font-size="14.00">q7:0.0</text>
</g>
<!-- q4:0.0&#45;&gt;q7:0.0 -->
<g id="edge24" class="edge">
<title>q4:0.0&#45;&gt;q7:0.0</title>
<path fill="none" stroke="black" d="M769.28,-143C809.36,-143 869.47,-143 912.92,-143"/>
<polygon fill="black" stroke="black" points="912.91,-146.5 922.91,-143 912.91,-139.5 912.91,-146.5"/>
<text text-anchor="middle" x="843.7" y="-146.94" font-family="Times,serif" font-size="14.00">AUTH/334:1.0</text>
</g>
<!-- q12:0.0 -->
<g id="node25" class="node">
<title>q12:0.0</title>
<ellipse fill="none" stroke="black" stroke-width="2" cx="1229.8" cy="-65" rx="49.1" ry="18"/>
<text text-anchor="middle" x="1229.8" y="-60.33" font-family="Times,serif" font-size="14.00">q12:0.0</text>
</g>
<!-- q8:0.0&#45;&gt;q12:0.0 -->
<g id="edge26" class="edge">
<title>q8:0.0&#45;&gt;q12:0.0</title>
<path fill="none" stroke="black" d="M1011.8,-65C1054.4,-65 1120.4,-65 1168.5,-65"/>
<polygon fill="black" stroke="black" points="1168.49,-68.5 1178.49,-65 1168.49,-61.5 1168.49,-68.5"/>
<text text-anchor="middle" x="1092.7" y="-68.95" font-family="Times,serif" font-size="14.00">RCPT/250:1.0</text>
</g>
<!-- q11:0.692 -->
<g id="node23" class="node">
<title>q11:0.692</title>
<ellipse fill="none" stroke="black" stroke-width="2" cx="1229.8" cy="-142" rx="61.73" ry="18"/>
<text text-anchor="middle" x="1229.8" y="-137.32" font-family="Times,serif" font-size="14.00">q11:0.692</text>
</g>
<!-- q7:0.0&#45;&gt;q11:0.692 -->
<g id="edge30" class="edge">
<title>q7:0.0&#45;&gt;q11:0.692</title>
<path fill="none" stroke="black" d="M1011.8,-142.84C1050.8,-142.69 1109.5,-142.46 1156,-142.28"/>
<polygon fill="black" stroke="black" points="1155.7,-145.78 1165.69,-142.25 1155.67,-138.78 1155.7,-145.78"/>
<text text-anchor="middle" x="1092.7" y="-145.94" font-family="Times,serif" font-size="14.00">content/535:1.0</text>
</g>
<!-- q16:1.0 -->
<g id="node24" class="node">
<title>q16:1.0</title>
<ellipse fill="none" stroke="black" stroke-width="2" cx="1514.2" cy="-142" rx="49.1" ry="18"/>
<text text-anchor="middle" x="1514.2" y="-137.32" font-family="Times,serif" font-size="14.00">q16:1.0</text>
</g>
<!-- q11:0.692&#45;&gt;q16:1.0 -->
<g id="edge25" class="edge">
<title>q11:0.692&#45;&gt;q16:1.0</title>
<path fill="none" stroke="black" d="M1292.4,-142C1340.1,-142 1405.8,-142 1453.1,-142"/>
<polygon fill="black" stroke="black" points="1452.89,-145.5 1462.89,-142 1452.89,-138.5 1452.89,-145.5"/>
<text text-anchor="middle" x="1374.7" y="-145.94" font-family="Times,serif" font-size="14.00">λ/451:0.308</text>
</g>
<!-- q17:0.0 -->
<g id="node29" class="node">
<title>q17:0.0</title>
<ellipse fill="none" stroke="black" stroke-width="2" cx="1514.2" cy="-72" rx="49.1" ry="18"/>
<text text-anchor="middle" x="1514.2" y="-67.33" font-family="Times,serif" font-size="14.00">q17:0.0</text>
</g>
<!-- q12:0.0&#45;&gt;q17:0.0 -->
<g id="edge31" class="edge">
<title>q12:0.0&#45;&gt;q17:0.0</title>
<path fill="none" stroke="black" d="M1279.6,-66.21C1327.8,-67.41 1401.5,-69.23 1453.2,-70.51"/>
<polygon fill="black" stroke="black" points="1452.9,-74 1462.99,-70.75 1453.08,-67.01 1452.9,-74"/>
<text text-anchor="middle" x="1374.7" y="-74.95" font-family="Times,serif" font-size="14.00">RCPT/250:0.667</text>
</g>
<!-- q18:0.0 -->
<g id="node30" class="node">
<title>q18:0.0</title>
<ellipse fill="none" stroke="black" stroke-width="2" cx="1514.2" cy="-18" rx="49.1" ry="18"/>
<text text-anchor="middle" x="1514.2" y="-13.32" font-family="Times,serif" font-size="14.00">q18:0.0</text>
</g>
<!-- q12:0.0&#45;&gt;q18:0.0 -->
<g id="edge32" class="edge">
<title>q12:0.0&#45;&gt;q18:0.0</title>
<path fill="none" stroke="black" d="M1271.9,-54.75C1284,-51.94 1297.2,-49.03 1309.5,-46.75 1358.3,-37.66 1414.3,-29.96 1455.1,-24.82"/>
<polygon fill="black" stroke="black" points="1455.5,-28.3 1465,-23.6 1454.64,-21.35 1455.5,-28.3"/>
<text text-anchor="middle" x="1374.7" y="-50.95" font-family="Times,serif" font-size="14.00">DATA/354:0.333</text>
</g>
<!-- q17:0.0&#45;&gt;q21:0.0 -->
<g id="edge33" class="edge">
<title>q17:0.0&#45;&gt;q21:0.0</title>
<path fill="none" stroke="black" d="M1553.5,-83.71C1564.7,-86.95 1577,-90.31 1588.5,-93 1629.1,-102.54 1675.4,-111.03 1710.6,-117.01"/>
<polygon fill="black" stroke="black" points="1709.77,-120.42 1720.21,-118.61 1710.92,-113.51 1709.77,-120.42"/>
<text text-anchor="middle" x="1644.7" y="-118.95" font-family="Times,serif" font-size="14.00">DATA/354:0.5</text>
</g>
<!-- q22:1.0 -->
<g id="node31" class="node">
<title>q22:1.0</title>
<ellipse fill="none" stroke="black" stroke-width="2" cx="1768.1" cy="-72" rx="49.1" ry="18"/>
<text text-anchor="middle" x="1768.1" y="-67.33" font-family="Times,serif" font-size="14.00">q22:1.0</text>
</g>
<!-- q17:0.0&#45;&gt;q22:1.0 -->
<g id="edge34" class="edge">
<title>q17:0.0&#45;&gt;q22:1.0</title>
<path fill="none" stroke="black" d="M1564.1,-72C1604.9,-72 1663.3,-72 1707,-72"/>
<polygon fill="black" stroke="black" points="1706.89,-75.5 1716.89,-72 1706.89,-68.5 1706.89,-75.5"/>
<text text-anchor="middle" x="1644.7" y="-75.95" font-family="Times,serif" font-size="14.00">DATA/550:0.5</text>
</g>
<!-- q23:0.0 -->
<g id="node32" class="node">
<title>q23:0.0</title>
<ellipse fill="none" stroke="black" stroke-width="2" cx="1768.1" cy="-18" rx="49.1" ry="18"/>
<text text-anchor="middle" x="1768.1" y="-13.32" font-family="Times,serif" font-size="14.00">q23:0.0</text>
</g>
<!-- q18:0.0&#45;&gt;q23:0.0 -->
<g id="edge35" class="edge">
<title>q18:0.0&#45;&gt;q23:0.0</title>
<path fill="none" stroke="black" d="M1564.1,-18C1604.9,-18 1663.3,-18 1707,-18"/>
<polygon fill="black" stroke="black" points="1706.89,-21.5 1716.89,-18 1706.89,-14.5 1706.89,-21.5"/>
<text text-anchor="middle" x="1644.7" y="-21.95" font-family="Times,serif" font-size="14.00">content/554:1.0</text>
</g>
<!-- q29:1.0 -->
<g id="node33" class="node">
<title>q29:1.0</title>
<ellipse fill="none" stroke="black" stroke-width="2" cx="2032.8" cy="-18" rx="49.1" ry="18"/>
<text text-anchor="middle" x="2032.8" y="-13.32" font-family="Times,serif" font-size="14.00">q29:1.0</text>
</g>
<!-- q23:0.0&#45;&gt;q29:1.0 -->
<g id="edge36" class="edge">
<title>q23:0.0&#45;&gt;q29:1.0</title>
<path fill="none" stroke="black" d="M1817.9,-18C1861.3,-18 1924.8,-18 1971.4,-18"/>
<polygon fill="black" stroke="black" points="1971.29,-21.5 1981.29,-18 1971.29,-14.5 1971.29,-21.5"/>
<text text-anchor="middle" x="1900.4" y="-21.95" font-family="Times,serif" font-size="14.00">RSET/250:1.0</text>
</g>
</g>
</svg>
