<?xml version="1.0" encoding="UTF-8" standalone="no"?>
<!DOCTYPE svg PUBLIC "-//W3C//DTD SVG 1.1//EN"
 "http://www.w3.org/Graphics/SVG/1.1/DTD/svg11.dtd">
<!-- Generated by graphviz version 12.0.0 (20240803.0821)
 -->
<!-- Pages: 1 -->
<svg width="2036pt" height="231pt"
 viewBox="0.00 0.00 2036.10 231.00" xmlns="http://www.w3.org/2000/svg" xmlns:xlink="http://www.w3.org/1999/xlink">
<g id="graph0" class="graph" transform="scale(1 1) rotate(0) translate(4 227)">
<polygon fill="white" stroke="none" points="-4,4 -4,-227 2032.1,-227 2032.1,4 -4,4"/>
<!-- q7:0.0 -->
<g id="node1" class="node">
<title>q7:0.0</title>
<ellipse fill="none" stroke="black" stroke-width="2" cx="961.86" cy="-102" rx="42.79" ry="18"/>
<text text-anchor="middle" x="961.86" y="-97.33" font-family="Times,serif" font-size="14.00">q7:0.0</text>
</g>
<!-- q7:0.0&#45;&gt;q7:0.0 -->
<g id="edge1" class="edge">
<title>q7:0.0&#45;&gt;q7:0.0</title>
<path fill="none" stroke="black" d="M941.09,-118.66C936.48,-128.62 943.4,-138 961.86,-138 972.83,-138 979.72,-134.69 982.55,-129.92"/>
<polygon fill="black" stroke="black" points="986.05,-130.2 982.62,-120.17 979.05,-130.15 986.05,-130.2"/>
<text text-anchor="middle" x="961.86" y="-141.94" font-family="Times,serif" font-size="14.00">RCPT/250:0.621</text>
</g>
<!-- q11:1.0 -->
<g id="node2" class="node">
<title>q11:1.0</title>
<ellipse fill="none" stroke="black" stroke-width="2" cx="1210.8" cy="-151" rx="49.1" ry="18"/>
<text text-anchor="middle" x="1210.8" y="-146.32" font-family="Times,serif" font-size="14.00">q11:1.0</text>
</g>
<!-- q7:0.0&#45;&gt;q11:1.0 -->
<g id="edge2" class="edge">
<title>q7:0.0&#45;&gt;q11:1.0</title>
<path fill="none" stroke="black" d="M996.45,-113.64C1004.9,-116.31 1014.1,-118.96 1022.7,-121 1065.5,-131.17 1114.6,-138.9 1151.8,-143.96"/>
<polygon fill="black" stroke="black" points="1151.02,-147.39 1161.4,-145.25 1151.95,-140.45 1151.02,-147.39"/>
<text text-anchor="middle" x="1080" y="-144.94" font-family="Times,serif" font-size="14.00">DATA/550:0.033</text>
</g>
<!-- q10:0.0 -->
<g id="node3" class="node">
<title>q10:0.0</title>
<ellipse fill="none" stroke="black" stroke-width="2" cx="1210.8" cy="-97" rx="49.1" ry="18"/>
<text text-anchor="middle" x="1210.8" y="-92.33" font-family="Times,serif" font-size="14.00">q10:0.0</text>
</g>
<!-- q7:0.0&#45;&gt;q10:0.0 -->
<g id="edge3" class="edge">
<title>q7:0.0&#45;&gt;q10:0.0</title>
<path fill="none" stroke="black" d="M1005.6,-101.13C1045.3,-100.33 1105,-99.12 1149.6,-98.22"/>
<polygon fill="black" stroke="black" points="1149.36,-101.73 1159.29,-98.02 1149.22,-94.73 1149.36,-101.73"/>
<text text-anchor="middle" x="1080" y="-103.95" font-family="Times,serif" font-size="14.00">DATA/354:0.345</text>
</g>
<!-- q16:0.0 -->
<g id="node4" class="node">
<title>q16:0.0</title>
<ellipse fill="none" stroke="black" stroke-width="2" cx="1481.8" cy="-148" rx="49.1" ry="18"/>
<text text-anchor="middle" x="1481.8" y="-143.32" font-family="Times,serif" font-size="14.00">q16:0.0</text>
</g>
<!-- q10:0.0&#45;&gt;q16:0.0 -->
<g id="edge4" class="edge">
<title>q10:0.0&#45;&gt;q16:0.0</title>
<path fill="none" stroke="black" d="M1251.1,-108.04C1261.8,-110.84 1273.4,-113.71 1284.2,-116 1330.9,-125.89 1384.3,-134.41 1423.7,-140.17"/>
<polygon fill="black" stroke="black" points="1423,-143.61 1433.4,-141.57 1424.01,-136.68 1423,-143.61"/>
<text text-anchor="middle" x="1349.5" y="-141.94" font-family="Times,serif" font-size="14.00">content/250:0.052</text>
</g>
<!-- q14:0.0 -->
<g id="node5" class="node">
<title>q14:0.0</title>
<ellipse fill="none" stroke="black" stroke-width="2" cx="1481.8" cy="-20" rx="49.1" ry="18"/>
<text text-anchor="middle" x="1481.8" y="-15.32" font-family="Times,serif" font-size="14.00">q14:0.0</text>
</g>
<!-- q10:0.0&#45;&gt;q14:0.0 -->
<g id="edge5" class="edge">
<title>q10:0.0&#45;&gt;q14:0.0</title>
<path fill="none" stroke="black" d="M1245.9,-83.67C1253.1,-79.91 1260.3,-75.36 1266.2,-70 1277.3,-60.05 1271.6,-49.62 1284.2,-41.75 1325.5,-16.04 1381.3,-12.12 1422.9,-13.76"/>
<polygon fill="black" stroke="black" points="1422.62,-17.25 1432.79,-14.27 1422.98,-10.25 1422.62,-17.25"/>
<text text-anchor="middle" x="1349.5" y="-45.95" font-family="Times,serif" font-size="14.00">content/554:0.043</text>
</g>
<!-- q15:0.0 -->
<g id="node6" class="node">
<title>q15:0.0</title>
<ellipse fill="none" stroke="black" stroke-width="2" cx="1481.8" cy="-88" rx="49.1" ry="18"/>
<text text-anchor="middle" x="1481.8" y="-83.33" font-family="Times,serif" font-size="14.00">q15:0.0</text>
</g>
<!-- q10:0.0&#45;&gt;q15:0.0 -->
<g id="edge6" class="edge">
<title>q10:0.0&#45;&gt;q15:0.0</title>
<path fill="none" stroke="black" d="M1260.5,-95.37C1305.5,-93.86 1372.5,-91.62 1420.8,-90.01"/>
<polygon fill="black" stroke="black" points="1420.61,-93.52 1430.49,-89.68 1420.37,-86.52 1420.61,-93.52"/>
<text text-anchor="middle" x="1349.5" y="-98.95" font-family="Times,serif" font-size="14.00">content/λ:0.905</text>
</g>
<!-- q21:1.0 -->
<g id="node7" class="node">
<title>q21:1.0</title>
<ellipse fill="none" stroke="black" stroke-width="2" cx="1746.5" cy="-180" rx="49.1" ry="18"/>
<text text-anchor="middle" x="1746.5" y="-175.32" font-family="Times,serif" font-size="14.00">q21:1.0</text>
</g>
<!-- q16:0.0&#45;&gt;q21:1.0 -->
<g id="edge7" class="edge">
<title>q16:0.0&#45;&gt;q21:1.0</title>
<path fill="none" stroke="black" d="M1529.5,-153.68C1573.6,-159.06 1640,-167.14 1687.5,-172.93"/>
<polygon fill="black" stroke="black" points="1687.05,-176.4 1697.4,-174.14 1687.89,-169.45 1687.05,-176.4"/>
<text text-anchor="middle" x="1614.2" y="-174.94" font-family="Times,serif" font-size="14.00">QUIT/221:1.0</text>
</g>
<!-- q18:1.0 -->
<g id="node8" class="node">
<title>q18:1.0</title>
<ellipse fill="none" stroke="black" stroke-width="2" cx="1746.5" cy="-18" rx="49.1" ry="18"/>
<text text-anchor="middle" x="1746.5" y="-13.32" font-family="Times,serif" font-size="14.00">q18:1.0</text>
</g>
<!-- q14:0.0&#45;&gt;q18:1.0 -->
<g id="edge8" class="edge">
<title>q14:0.0&#45;&gt;q18:1.0</title>
<path fill="none" stroke="black" d="M1531.6,-19.63C1575,-19.3 1638.6,-18.82 1685.1,-18.46"/>
<polygon fill="black" stroke="black" points="1685.11,-21.96 1695.09,-18.38 1685.06,-14.96 1685.11,-21.96"/>
<text text-anchor="middle" x="1614.2" y="-23.95" font-family="Times,serif" font-size="14.00">RSET/250:1.0</text>
</g>
<!-- q15:0.0&#45;&gt;q10:0.0 -->
<g id="edge9" class="edge">
<title>q15:0.0&#45;&gt;q10:0.0</title>
<path fill="none" stroke="black" d="M1443.5,-75.8C1434.2,-73.29 1424.2,-71.03 1414.7,-69.75 1357.3,-61.96 1341.3,-59.37 1284.2,-69.75 1273.9,-71.62 1263.2,-74.88 1253.3,-78.5"/>
<polygon fill="black" stroke="black" points="1252.3,-75.13 1244.21,-81.98 1254.8,-81.67 1252.3,-75.13"/>
<text text-anchor="middle" x="1349.5" y="-73.95" font-family="Times,serif" font-size="14.00">content/λ:0.97</text>
</g>
<!-- q20:0.0 -->
<g id="node9" class="node">
<title>q20:0.0</title>
<ellipse fill="none" stroke="black" stroke-width="2" cx="1746.5" cy="-126" rx="49.1" ry="18"/>
<text text-anchor="middle" x="1746.5" y="-121.33" font-family="Times,serif" font-size="14.00">q20:0.0</text>
</g>
<!-- q15:0.0&#45;&gt;q20:0.0 -->
<g id="edge10" class="edge">
<title>q15:0.0&#45;&gt;q20:0.0</title>
<path fill="none" stroke="black" d="M1524,-98.04C1532.2,-99.86 1540.8,-101.61 1548.9,-103 1594.8,-110.86 1647.1,-116.84 1686.2,-120.72"/>
<polygon fill="black" stroke="black" points="1685.9,-124.21 1696.19,-121.69 1686.58,-117.24 1685.9,-124.21"/>
<text text-anchor="middle" x="1614.2" y="-122.95" font-family="Times,serif" font-size="14.00">content/554:0.001</text>
</g>
<!-- q19:0.0 -->
<g id="node10" class="node">
<title>q19:0.0</title>
<ellipse fill="none" stroke="black" stroke-width="2" cx="1746.5" cy="-72" rx="49.1" ry="18"/>
<text text-anchor="middle" x="1746.5" y="-67.33" font-family="Times,serif" font-size="14.00">q19:0.0</text>
</g>
<!-- q15:0.0&#45;&gt;q19:0.0 -->
<g id="edge11" class="edge">
<title>q15:0.0&#45;&gt;q19:0.0</title>
<path fill="none" stroke="black" d="M1531.3,-85.05C1574.9,-82.39 1639.1,-78.48 1685.9,-75.64"/>
<polygon fill="black" stroke="black" points="1686.02,-79.13 1695.79,-75.03 1685.59,-72.15 1686.02,-79.13"/>
<text text-anchor="middle" x="1614.2" y="-87.95" font-family="Times,serif" font-size="14.00">content/250:0.029</text>
</g>
<!-- q23:1.0 -->
<g id="node11" class="node">
<title>q23:1.0</title>
<ellipse fill="none" stroke="black" stroke-width="2" cx="1979" cy="-126" rx="49.1" ry="18"/>
<text text-anchor="middle" x="1979" y="-121.33" font-family="Times,serif" font-size="14.00">q23:1.0</text>
</g>
<!-- q20:0.0&#45;&gt;q23:1.0 -->
<g id="edge12" class="edge">
<title>q20:0.0&#45;&gt;q23:1.0</title>
<path fill="none" stroke="black" d="M1796.4,-126C1831.9,-126 1880,-126 1917.8,-126"/>
<polygon fill="black" stroke="black" points="1917.69,-129.5 1927.69,-126 1917.69,-122.5 1917.69,-129.5"/>
<text text-anchor="middle" x="1862.8" y="-129.94" font-family="Times,serif" font-size="14.00">RSET/250:1.0</text>
</g>
<!-- q22:1.0 -->
<g id="node12" class="node">
<title>q22:1.0</title>
<ellipse fill="none" stroke="black" stroke-width="2" cx="1979" cy="-72" rx="49.1" ry="18"/>
<text text-anchor="middle" x="1979" y="-67.33" font-family="Times,serif" font-size="14.00">q22:1.0</text>
</g>
<!-- q19:0.0&#45;&gt;q22:1.0 -->
<g id="edge13" class="edge">
<title>q19:0.0&#45;&gt;q22:1.0</title>
<path fill="none" stroke="black" d="M1796.4,-72C1831.9,-72 1880,-72 1917.8,-72"/>
<polygon fill="black" stroke="black" points="1917.69,-75.5 1927.69,-72 1917.69,-68.5 1917.69,-75.5"/>
<text text-anchor="middle" x="1862.8" y="-75.95" font-family="Times,serif" font-size="14.00">QUIT/221:1.0</text>
</g>
<!-- q3:0.0 -->
<g id="node13" class="node">
<title>q3:0.0</title>
<ellipse fill="none" stroke="black" stroke-width="2" cx="484.7" cy="-131" rx="42.79" ry="18"/>
<text text-anchor="middle" x="484.7" y="-126.33" font-family="Times,serif" font-size="14.00">q3:0.0</text>
</g>
<!-- q5:0.0 -->
<g id="node14" class="node">
<title>q5:0.0</title>
<ellipse fill="none" stroke="black" stroke-width="2" cx="725.53" cy="-188" rx="42.79" ry="18"/>
<text text-anchor="middle" x="725.53" y="-183.32" font-family="Times,serif" font-size="14.00">q5:0.0</text>
</g>
<!-- q3:0.0&#45;&gt;q5:0.0 -->
<g id="edge14" class="edge">
<title>q3:0.0&#45;&gt;q5:0.0</title>
<path fill="none" stroke="black" d="M516.37,-144.01C525.62,-147.6 535.86,-151.26 545.49,-154 587.64,-166 636.59,-174.97 672.64,-180.67"/>
<polygon fill="black" stroke="black" points="671.96,-184.11 682.37,-182.18 673.03,-177.19 671.96,-184.11"/>
<text text-anchor="middle" x="605.12" y="-182.94" font-family="Times,serif" font-size="14.00">AUTH/535:0.049</text>
</g>
<!-- q4:0.0 -->
<g id="node15" class="node">
<title>q4:0.0</title>
<ellipse fill="none" stroke="black" stroke-width="2" cx="725.53" cy="-64" rx="42.79" ry="18"/>
<text text-anchor="middle" x="725.53" y="-59.33" font-family="Times,serif" font-size="14.00">q4:0.0</text>
</g>
<!-- q3:0.0&#45;&gt;q4:0.0 -->
<g id="edge15" class="edge">
<title>q3:0.0&#45;&gt;q4:0.0</title>
<path fill="none" stroke="black" d="M518.1,-118.88C526.93,-115.74 536.53,-112.48 545.49,-109.75 589.29,-96.4 639.91,-83.71 676.12,-75.1"/>
<polygon fill="black" stroke="black" points="676.48,-78.61 685.41,-72.91 674.87,-71.8 676.48,-78.61"/>
<text text-anchor="middle" x="605.12" y="-112.95" font-family="Times,serif" font-size="14.00">AUTH/235:0.947</text>
</g>
<!-- q6:0.0 -->
<g id="node16" class="node">
<title>q6:0.0</title>
<ellipse fill="none" stroke="black" stroke-width="2" cx="725.53" cy="-134" rx="42.79" ry="18"/>
<text text-anchor="middle" x="725.53" y="-129.32" font-family="Times,serif" font-size="14.00">q6:0.0</text>
</g>
<!-- q3:0.0&#45;&gt;q6:0.0 -->
<g id="edge16" class="edge">
<title>q3:0.0&#45;&gt;q6:0.0</title>
<path fill="none" stroke="black" d="M528.4,-131.54C568.1,-132.03 627.41,-132.78 670.41,-133.32"/>
<polygon fill="black" stroke="black" points="670.24,-136.82 680.29,-133.44 670.33,-129.82 670.24,-136.82"/>
<text text-anchor="middle" x="605.12" y="-136.94" font-family="Times,serif" font-size="14.00">AUTH/λ:0.004</text>
</g>
<!-- q9:0.0 -->
<g id="node17" class="node">
<title>q9:0.0</title>
<ellipse fill="none" stroke="black" stroke-width="2" cx="961.86" cy="-193" rx="42.79" ry="18"/>
<text text-anchor="middle" x="961.86" y="-188.32" font-family="Times,serif" font-size="14.00">q9:0.0</text>
</g>
<!-- q5:0.0&#45;&gt;q9:0.0 -->
<g id="edge17" class="edge">
<title>q5:0.0&#45;&gt;q9:0.0</title>
<path fill="none" stroke="black" d="M769.24,-188.91C807.97,-189.74 865.24,-190.96 907.08,-191.85"/>
<polygon fill="black" stroke="black" points="906.86,-195.35 916.94,-192.07 907.02,-188.35 906.86,-195.35"/>
<text text-anchor="middle" x="843.7" y="-194.94" font-family="Times,serif" font-size="14.00">AUTH/334:1.0</text>
</g>
<!-- q4:0.0&#45;&gt;q7:0.0 -->
<g id="edge18" class="edge">
<title>q4:0.0&#45;&gt;q7:0.0</title>
<path fill="none" stroke="black" d="M767.19,-69.35C802.63,-74.16 855.37,-81.7 901.07,-89.75 904.46,-90.35 907.95,-90.99 911.46,-91.66"/>
<polygon fill="black" stroke="black" points="910.68,-95.07 921.16,-93.55 912.02,-88.2 910.68,-95.07"/>
<text text-anchor="middle" x="843.7" y="-93.95" font-family="Times,serif" font-size="14.00">MAIL/250:0.987</text>
</g>
<!-- q8:0.0 -->
<g id="node18" class="node">
<title>q8:0.0</title>
<ellipse fill="none" stroke="black" stroke-width="2" cx="961.86" cy="-45" rx="42.79" ry="18"/>
<text text-anchor="middle" x="961.86" y="-40.33" font-family="Times,serif" font-size="14.00">q8:0.0</text>
</g>
<!-- q4:0.0&#45;&gt;q8:0.0 -->
<g id="edge19" class="edge">
<title>q4:0.0&#45;&gt;q8:0.0</title>
<path fill="none" stroke="black" d="M764.33,-55.28C771.6,-53.88 779.17,-52.62 786.32,-51.75 826.62,-46.88 872.5,-45.25 907.11,-44.81"/>
<polygon fill="black" stroke="black" points="906.91,-48.32 916.88,-44.72 906.84,-41.32 906.91,-48.32"/>
<text text-anchor="middle" x="843.7" y="-55.95" font-family="Times,serif" font-size="14.00">MAIL/553:0.013</text>
</g>
<!-- q6:0.0&#45;&gt;q7:0.0 -->
<g id="edge20" class="edge">
<title>q6:0.0&#45;&gt;q7:0.0</title>
<path fill="none" stroke="black" d="M767.47,-128.82C802.86,-124.29 855.37,-117.45 901.07,-111 903.85,-110.61 906.69,-110.2 909.56,-109.78"/>
<polygon fill="black" stroke="black" points="909.8,-113.28 919.18,-108.37 908.78,-106.36 909.8,-113.28"/>
<text text-anchor="middle" x="843.7" y="-129.94" font-family="Times,serif" font-size="14.00">MAIL/250:1.0</text>
</g>
<!-- q13:0.75 -->
<g id="node19" class="node">
<title>q13:0.75</title>
<ellipse fill="none" stroke="black" stroke-width="2" cx="1210.8" cy="-205" rx="55.42" ry="18"/>
<text text-anchor="middle" x="1210.8" y="-200.32" font-family="Times,serif" font-size="14.00">q13:0.75</text>
</g>
<!-- q9:0.0&#45;&gt;q13:0.75 -->
<g id="edge21" class="edge">
<title>q9:0.0&#45;&gt;q13:0.75</title>
<path fill="none" stroke="black" d="M1005.3,-195.06C1043.4,-196.91 1100,-199.66 1143.9,-201.8"/>
<polygon fill="black" stroke="black" points="1143.73,-205.3 1153.89,-202.29 1144.07,-198.3 1143.73,-205.3"/>
<text text-anchor="middle" x="1080" y="-204.94" font-family="Times,serif" font-size="14.00">content/535:1.0</text>
</g>
<!-- q12:1.0 -->
<g id="node20" class="node">
<title>q12:1.0</title>
<ellipse fill="none" stroke="black" stroke-width="2" cx="1210.8" cy="-43" rx="49.1" ry="18"/>
<text text-anchor="middle" x="1210.8" y="-38.33" font-family="Times,serif" font-size="14.00">q12:1.0</text>
</g>
<!-- q8:0.0&#45;&gt;q12:1.0 -->
<g id="edge22" class="edge">
<title>q8:0.0&#45;&gt;q12:1.0</title>
<path fill="none" stroke="black" d="M1005.6,-44.65C1045.3,-44.33 1105,-43.85 1149.6,-43.49"/>
<polygon fill="black" stroke="black" points="1149.31,-46.99 1159.29,-43.41 1149.26,-39.99 1149.31,-46.99"/>
<text text-anchor="middle" x="1080" y="-48.95" font-family="Times,serif" font-size="14.00">RSET/250:1.0</text>
</g>
<!-- q17:1.0 -->
<g id="node21" class="node">
<title>q17:1.0</title>
<ellipse fill="none" stroke="black" stroke-width="2" cx="1481.8" cy="-205" rx="49.1" ry="18"/>
<text text-anchor="middle" x="1481.8" y="-200.32" font-family="Times,serif" font-size="14.00">q17:1.0</text>
</g>
<!-- q13:0.75&#45;&gt;q17:1.0 -->
<g id="edge23" class="edge">
<title>q13:0.75&#45;&gt;q17:1.0</title>
<path fill="none" stroke="black" d="M1267.2,-205C1311.9,-205 1374.6,-205 1420.5,-205"/>
<polygon fill="black" stroke="black" points="1420.29,-208.5 1430.29,-205 1420.29,-201.5 1420.29,-208.5"/>
<text text-anchor="middle" x="1349.5" y="-208.94" font-family="Times,serif" font-size="14.00">λ/451:0.25</text>
</g>
<!-- q1:0.0 -->
<g id="node22" class="node">
<title>q1:0.0</title>
<ellipse fill="none" stroke="black" stroke-width="2" cx="243.87" cy="-98" rx="42.79" ry="18"/>
<text text-anchor="middle" x="243.87" y="-93.33" font-family="Times,serif" font-size="14.00">q1:0.0</text>
</g>
<!-- q1:0.0&#45;&gt;q3:0.0 -->
<g id="edge24" class="edge">
<title>q1:0.0&#45;&gt;q3:0.0</title>
<path fill="none" stroke="black" d="M285.66,-103.64C326.01,-109.21 387.94,-117.77 431.79,-123.83"/>
<polygon fill="black" stroke="black" points="431.19,-127.28 441.58,-125.18 432.15,-120.35 431.19,-127.28"/>
<text text-anchor="middle" x="364.29" y="-125.95" font-family="Times,serif" font-size="14.00">EHLO/250:0.996</text>
</g>
<!-- q2:0.0 -->
<g id="node23" class="node">
<title>q2:0.0</title>
<ellipse fill="none" stroke="black" stroke-width="2" cx="484.7" cy="-71" rx="42.79" ry="18"/>
<text text-anchor="middle" x="484.7" y="-66.33" font-family="Times,serif" font-size="14.00">q2:0.0</text>
</g>
<!-- q1:0.0&#45;&gt;q2:0.0 -->
<g id="edge25" class="edge">
<title>q1:0.0&#45;&gt;q2:0.0</title>
<path fill="none" stroke="black" d="M282.04,-88.91C289.49,-87.33 297.3,-85.84 304.66,-84.75 346.54,-78.53 394.37,-75.04 430.05,-73.14"/>
<polygon fill="black" stroke="black" points="429.87,-76.65 439.68,-72.65 429.51,-69.66 429.87,-76.65"/>
<text text-anchor="middle" x="364.29" y="-88.95" font-family="Times,serif" font-size="14.00">EHLO/λ:0.004</text>
</g>
<!-- q2:0.0&#45;&gt;q4:0.0 -->
<g id="edge26" class="edge">
<title>q2:0.0&#45;&gt;q4:0.0</title>
<path fill="none" stroke="black" d="M523.16,-62.12C530.52,-60.72 538.22,-59.49 545.49,-58.75 587.93,-54.45 636.28,-56.26 672.04,-58.88"/>
<polygon fill="black" stroke="black" points="671.43,-62.34 681.67,-59.63 671.97,-55.36 671.43,-62.34"/>
<text text-anchor="middle" x="605.12" y="-62.95" font-family="Times,serif" font-size="14.00">AUTH/235:1.0</text>
</g>
<!-- q0:0.0 -->
<g id="node24" class="node">
<title>q0:0.0</title>
<ellipse fill="none" stroke="black" stroke-width="2" cx="50.79" cy="-98" rx="46.79" ry="46.79"/>
<ellipse fill="none" stroke="black" stroke-width="2" cx="50.79" cy="-98" rx="50.79" ry="50.79"/>
<text text-anchor="middle" x="50.79" y="-93.33" font-family="Times,serif" font-size="14.00">q0:0.0</text>
</g>
<!-- q0:0.0&#45;&gt;q1:0.0 -->
<g id="edge27" class="edge">
<title>q0:0.0&#45;&gt;q1:0.0</title>
<path fill="none" stroke="black" d="M98.53,-98C125.82,-98 160.37,-98 188.82,-98"/>
<polygon fill="black" stroke="black" points="188.69,-101.5 198.69,-98 188.69,-94.5 188.69,-101.5"/>
<text text-anchor="middle" x="149.33" y="-101.95" font-family="Times,serif" font-size="14.00">λ/220:1.0</text>
</g>
</g>
</svg>
