<?xml version="1.0" encoding="UTF-8" standalone="no"?>
<!DOCTYPE svg PUBLIC "-//W3C//DTD SVG 1.1//EN"
 "http://www.w3.org/Graphics/SVG/1.1/DTD/svg11.dtd">
<!-- Generated by graphviz version 12.0.0 (20240803.0821)
 -->
<!-- Pages: 1 -->
<svg width="2524pt" height="260pt"
 viewBox="0.00 0.00 2524.30 260.00" xmlns="http://www.w3.org/2000/svg" xmlns:xlink="http://www.w3.org/1999/xlink">
<g id="graph0" class="graph" transform="scale(1 1) rotate(0) translate(4 256)">
<polygon fill="white" stroke="none" points="-4,4 -4,-256 2520.3,-256 2520.3,4 -4,4"/>
<!-- q11:0.0 -->
<g id="node1" class="node">
<title>q11:0.0</title>
<ellipse fill="none" stroke="black" stroke-width="2" cx="1199.6" cy="-90" rx="49.1" ry="18"/>
<text text-anchor="middle" x="1199.6" y="-85.33" font-family="Times,serif" font-size="14.00">q11:0.0</text>
</g>
<!-- q13:0.0 -->
<g id="node2" class="node">
<title>q13:0.0</title>
<ellipse fill="none" stroke="black" stroke-width="2" cx="1970" cy="-144" rx="49.1" ry="18"/>
<text text-anchor="middle" x="1970" y="-139.32" font-family="Times,serif" font-size="14.00">q13:0.0</text>
</g>
<!-- q11:0.0&#45;&gt;q13:0.0 -->
<g id="edge1" class="edge">
<title>q11:0.0&#45;&gt;q13:0.0</title>
<path fill="none" stroke="black" d="M1239,-101.65C1249.9,-104.52 1261.8,-107.27 1273,-109 1506.1,-145.05 1787.8,-146.49 1908.9,-145.13"/>
<polygon fill="black" stroke="black" points="1908.63,-148.63 1918.59,-145.01 1908.54,-141.63 1908.63,-148.63"/>
<text text-anchor="middle" x="1580.8" y="-145.94" font-family="Times,serif" font-size="14.00">DATA/354:0.297</text>
</g>
<!-- q14:0.0 -->
<g id="node3" class="node">
<title>q14:0.0</title>
<ellipse fill="none" stroke="black" stroke-width="2" cx="1456.3" cy="-83" rx="49.1" ry="18"/>
<text text-anchor="middle" x="1456.3" y="-78.33" font-family="Times,serif" font-size="14.00">q14:0.0</text>
</g>
<!-- q11:0.0&#45;&gt;q14:0.0 -->
<g id="edge2" class="edge">
<title>q11:0.0&#45;&gt;q14:0.0</title>
<path fill="none" stroke="black" d="M1249.4,-88.66C1291,-87.52 1350.9,-85.87 1395.4,-84.65"/>
<polygon fill="black" stroke="black" points="1395.29,-88.15 1405.19,-84.38 1395.09,-81.15 1395.29,-88.15"/>
<text text-anchor="middle" x="1331.1" y="-91.95" font-family="Times,serif" font-size="14.00">RCPT/250:0.703</text>
</g>
<!-- q13:0.0&#45;&gt;q13:0.0 -->
<g id="edge3" class="edge">
<title>q13:0.0&#45;&gt;q13:0.0</title>
<path fill="none" stroke="black" d="M1946.7,-160.66C1941.6,-170.62 1949.3,-180 1970,-180 1982.3,-180 1990,-176.69 1993.2,-171.92"/>
<polygon fill="black" stroke="black" points="1996.7,-172.2 1993.29,-162.17 1989.7,-172.14 1996.7,-172.2"/>
<text text-anchor="middle" x="1970" y="-183.94" font-family="Times,serif" font-size="14.00">content/λ:0.944</text>
</g>
<!-- q15:0.0 -->
<g id="node4" class="node">
<title>q15:0.0</title>
<ellipse fill="none" stroke="black" stroke-width="2" cx="2234.7" cy="-234" rx="49.1" ry="18"/>
<text text-anchor="middle" x="2234.7" y="-229.32" font-family="Times,serif" font-size="14.00">q15:0.0</text>
</g>
<!-- q13:0.0&#45;&gt;q15:0.0 -->
<g id="edge4" class="edge">
<title>q13:0.0&#45;&gt;q15:0.0</title>
<path fill="none" stroke="black" d="M1990.2,-161.28C2002.7,-171.67 2019.9,-184.32 2037.1,-192 2081.2,-211.63 2134.9,-222.31 2175.1,-227.98"/>
<polygon fill="black" stroke="black" points="2174.42,-231.42 2184.8,-229.28 2175.35,-224.48 2174.42,-231.42"/>
<text text-anchor="middle" x="2102.4" y="-229.94" font-family="Times,serif" font-size="14.00">content/550:0.0</text>
</g>
<!-- q17:0.0 -->
<g id="node5" class="node">
<title>q17:0.0</title>
<ellipse fill="none" stroke="black" stroke-width="2" cx="2234.7" cy="-180" rx="49.1" ry="18"/>
<text text-anchor="middle" x="2234.7" y="-175.32" font-family="Times,serif" font-size="14.00">q17:0.0</text>
</g>
<!-- q13:0.0&#45;&gt;q17:0.0 -->
<g id="edge5" class="edge">
<title>q13:0.0&#45;&gt;q17:0.0</title>
<path fill="none" stroke="black" d="M2016.5,-151C2023.4,-152.03 2030.4,-153.06 2037.1,-154 2083.8,-160.62 2136.8,-167.6 2176,-172.66"/>
<polygon fill="black" stroke="black" points="2175.33,-176.1 2185.7,-173.91 2176.23,-169.16 2175.33,-176.1"/>
<text text-anchor="middle" x="2102.4" y="-174.94" font-family="Times,serif" font-size="14.00">content/250:0.042</text>
</g>
<!-- q16:0.0 -->
<g id="node6" class="node">
<title>q16:0.0</title>
<ellipse fill="none" stroke="black" stroke-width="2" cx="2234.7" cy="-126" rx="49.1" ry="18"/>
<text text-anchor="middle" x="2234.7" y="-121.33" font-family="Times,serif" font-size="14.00">q16:0.0</text>
</g>
<!-- q13:0.0&#45;&gt;q16:0.0 -->
<g id="edge6" class="edge">
<title>q13:0.0&#45;&gt;q16:0.0</title>
<path fill="none" stroke="black" d="M2017.9,-138.53C2024.4,-137.88 2030.9,-137.26 2037.1,-136.75 2082.9,-132.99 2134.8,-130.21 2173.8,-128.43"/>
<polygon fill="black" stroke="black" points="2173.86,-131.93 2183.69,-127.98 2173.54,-124.94 2173.86,-131.93"/>
<text text-anchor="middle" x="2102.4" y="-140.94" font-family="Times,serif" font-size="14.00">content/554:0.014</text>
</g>
<!-- q18:0.0 -->
<g id="node7" class="node">
<title>q18:0.0</title>
<ellipse fill="none" stroke="black" stroke-width="2" cx="1705.3" cy="-83" rx="49.1" ry="18"/>
<text text-anchor="middle" x="1705.3" y="-78.33" font-family="Times,serif" font-size="14.00">q18:0.0</text>
</g>
<!-- q14:0.0&#45;&gt;q18:0.0 -->
<g id="edge7" class="edge">
<title>q14:0.0&#45;&gt;q18:0.0</title>
<path fill="none" stroke="black" d="M1506.4,-83C1546,-83 1601.8,-83 1644,-83"/>
<polygon fill="black" stroke="black" points="1643.79,-86.5 1653.79,-83 1643.79,-79.5 1643.79,-86.5"/>
<text text-anchor="middle" x="1580.8" y="-86.95" font-family="Times,serif" font-size="14.00">DATA/354:0.733</text>
</g>
<!-- q19:1.0 -->
<g id="node8" class="node">
<title>q19:1.0</title>
<ellipse fill="none" stroke="black" stroke-width="2" cx="1705.3" cy="-29" rx="49.1" ry="18"/>
<text text-anchor="middle" x="1705.3" y="-24.32" font-family="Times,serif" font-size="14.00">q19:1.0</text>
</g>
<!-- q14:0.0&#45;&gt;q19:1.0 -->
<g id="edge8" class="edge">
<title>q14:0.0&#45;&gt;q19:1.0</title>
<path fill="none" stroke="black" d="M1493.5,-70.44C1503.1,-67.34 1513.6,-64.21 1523.4,-61.75 1564.5,-51.48 1611.6,-43.06 1647.4,-37.33"/>
<polygon fill="black" stroke="black" points="1647.77,-40.82 1657.1,-35.8 1646.68,-33.9 1647.77,-40.82"/>
<text text-anchor="middle" x="1580.8" y="-65.95" font-family="Times,serif" font-size="14.00">DATA/550:0.267</text>
</g>
<!-- q20:1.0 -->
<g id="node9" class="node">
<title>q20:1.0</title>
<ellipse fill="none" stroke="black" stroke-width="2" cx="2467.2" cy="-234" rx="49.1" ry="18"/>
<text text-anchor="middle" x="2467.2" y="-229.32" font-family="Times,serif" font-size="14.00">q20:1.0</text>
</g>
<!-- q15:0.0&#45;&gt;q20:1.0 -->
<g id="edge9" class="edge">
<title>q15:0.0&#45;&gt;q20:1.0</title>
<path fill="none" stroke="black" d="M2284.6,-234C2320,-234 2368.2,-234 2406,-234"/>
<polygon fill="black" stroke="black" points="2405.89,-237.5 2415.89,-234 2405.89,-230.5 2405.89,-237.5"/>
<text text-anchor="middle" x="2350.9" y="-237.94" font-family="Times,serif" font-size="14.00">RSET/250:1.0</text>
</g>
<!-- q22:1.0 -->
<g id="node10" class="node">
<title>q22:1.0</title>
<ellipse fill="none" stroke="black" stroke-width="2" cx="2467.2" cy="-180" rx="49.1" ry="18"/>
<text text-anchor="middle" x="2467.2" y="-175.32" font-family="Times,serif" font-size="14.00">q22:1.0</text>
</g>
<!-- q17:0.0&#45;&gt;q22:1.0 -->
<g id="edge10" class="edge">
<title>q17:0.0&#45;&gt;q22:1.0</title>
<path fill="none" stroke="black" d="M2284.6,-180C2320,-180 2368.2,-180 2406,-180"/>
<polygon fill="black" stroke="black" points="2405.89,-183.5 2415.89,-180 2405.89,-176.5 2405.89,-183.5"/>
<text text-anchor="middle" x="2350.9" y="-183.94" font-family="Times,serif" font-size="14.00">QUIT/221:1.0</text>
</g>
<!-- q21:1.0 -->
<g id="node11" class="node">
<title>q21:1.0</title>
<ellipse fill="none" stroke="black" stroke-width="2" cx="2467.2" cy="-126" rx="49.1" ry="18"/>
<text text-anchor="middle" x="2467.2" y="-121.33" font-family="Times,serif" font-size="14.00">q21:1.0</text>
</g>
<!-- q16:0.0&#45;&gt;q21:1.0 -->
<g id="edge11" class="edge">
<title>q16:0.0&#45;&gt;q21:1.0</title>
<path fill="none" stroke="black" d="M2284.6,-126C2320,-126 2368.2,-126 2406,-126"/>
<polygon fill="black" stroke="black" points="2405.89,-129.5 2415.89,-126 2405.89,-122.5 2405.89,-129.5"/>
<text text-anchor="middle" x="2350.9" y="-129.94" font-family="Times,serif" font-size="14.00">RSET/250:1.0</text>
</g>
<!-- q18:0.0&#45;&gt;q13:0.0 -->
<g id="edge12" class="edge">
<title>q18:0.0&#45;&gt;q13:0.0</title>
<path fill="none" stroke="black" d="M1752.8,-88.46C1801.9,-94.49 1875.7,-104.45 1902.9,-112.75 1912.2,-115.6 1921.9,-119.55 1930.9,-123.7"/>
<polygon fill="black" stroke="black" points="1929.2,-126.77 1939.73,-127.94 1932.23,-120.46 1929.2,-126.77"/>
<text text-anchor="middle" x="1837.7" y="-116.95" font-family="Times,serif" font-size="14.00">content/λ:0.958</text>
</g>
<!-- q24:0.0 -->
<g id="node12" class="node">
<title>q24:0.0</title>
<ellipse fill="none" stroke="black" stroke-width="2" cx="1970" cy="-72" rx="49.1" ry="18"/>
<text text-anchor="middle" x="1970" y="-67.33" font-family="Times,serif" font-size="14.00">q24:0.0</text>
</g>
<!-- q18:0.0&#45;&gt;q24:0.0 -->
<g id="edge13" class="edge">
<title>q18:0.0&#45;&gt;q24:0.0</title>
<path fill="none" stroke="black" d="M1750.6,-75.19C1757.9,-74.18 1765.3,-73.31 1772.4,-72.75 1818.1,-69.14 1870,-69.11 1909,-69.9"/>
<polygon fill="black" stroke="black" points="1908.81,-73.4 1918.89,-70.13 1908.97,-66.4 1908.81,-73.4"/>
<text text-anchor="middle" x="1837.7" y="-76.95" font-family="Times,serif" font-size="14.00">content/554:0.025</text>
</g>
<!-- q23:0.0 -->
<g id="node13" class="node">
<title>q23:0.0</title>
<ellipse fill="none" stroke="black" stroke-width="2" cx="1970" cy="-18" rx="49.1" ry="18"/>
<text text-anchor="middle" x="1970" y="-13.32" font-family="Times,serif" font-size="14.00">q23:0.0</text>
</g>
<!-- q18:0.0&#45;&gt;q23:0.0 -->
<g id="edge14" class="edge">
<title>q18:0.0&#45;&gt;q23:0.0</title>
<path fill="none" stroke="black" d="M1733.8,-67.62C1748.3,-59.75 1764.6,-51.3 1772.4,-48.75 1817.1,-34.12 1869.8,-26.35 1909.4,-22.29"/>
<polygon fill="black" stroke="black" points="1909.58,-25.79 1919.19,-21.34 1908.9,-18.82 1909.58,-25.79"/>
<text text-anchor="middle" x="1837.7" y="-52.95" font-family="Times,serif" font-size="14.00">content/250:0.017</text>
</g>
<!-- q26:1.0 -->
<g id="node14" class="node">
<title>q26:1.0</title>
<ellipse fill="none" stroke="black" stroke-width="2" cx="2234.7" cy="-72" rx="49.1" ry="18"/>
<text text-anchor="middle" x="2234.7" y="-67.33" font-family="Times,serif" font-size="14.00">q26:1.0</text>
</g>
<!-- q24:0.0&#45;&gt;q26:1.0 -->
<g id="edge15" class="edge">
<title>q24:0.0&#45;&gt;q26:1.0</title>
<path fill="none" stroke="black" d="M2019.8,-72C2063.2,-72 2126.7,-72 2173.3,-72"/>
<polygon fill="black" stroke="black" points="2173.19,-75.5 2183.19,-72 2173.19,-68.5 2173.19,-75.5"/>
<text text-anchor="middle" x="2102.4" y="-75.95" font-family="Times,serif" font-size="14.00">RSET/250:1.0</text>
</g>
<!-- q25:1.0 -->
<g id="node15" class="node">
<title>q25:1.0</title>
<ellipse fill="none" stroke="black" stroke-width="2" cx="2234.7" cy="-18" rx="49.1" ry="18"/>
<text text-anchor="middle" x="2234.7" y="-13.32" font-family="Times,serif" font-size="14.00">q25:1.0</text>
</g>
<!-- q23:0.0&#45;&gt;q25:1.0 -->
<g id="edge16" class="edge">
<title>q23:0.0&#45;&gt;q25:1.0</title>
<path fill="none" stroke="black" d="M2019.8,-18C2063.2,-18 2126.7,-18 2173.3,-18"/>
<polygon fill="black" stroke="black" points="2173.19,-21.5 2183.19,-18 2173.19,-14.5 2173.19,-21.5"/>
<text text-anchor="middle" x="2102.4" y="-21.95" font-family="Times,serif" font-size="14.00">QUIT/221:1.0</text>
</g>
<!-- q1:0.0 -->
<g id="node16" class="node">
<title>q1:0.0</title>
<ellipse fill="none" stroke="black" stroke-width="2" cx="243.87" cy="-148" rx="42.79" ry="18"/>
<text text-anchor="middle" x="243.87" y="-143.32" font-family="Times,serif" font-size="14.00">q1:0.0</text>
</g>
<!-- q2:0.0 -->
<g id="node17" class="node">
<title>q2:0.0</title>
<ellipse fill="none" stroke="black" stroke-width="2" cx="484.7" cy="-175" rx="42.79" ry="18"/>
<text text-anchor="middle" x="484.7" y="-170.32" font-family="Times,serif" font-size="14.00">q2:0.0</text>
</g>
<!-- q1:0.0&#45;&gt;q2:0.0 -->
<g id="edge17" class="edge">
<title>q1:0.0&#45;&gt;q2:0.0</title>
<path fill="none" stroke="black" d="M286.2,-152.67C326.4,-157.22 387.62,-164.14 431.24,-169.07"/>
<polygon fill="black" stroke="black" points="430.65,-172.53 440.98,-170.17 431.43,-165.57 430.65,-172.53"/>
<text text-anchor="middle" x="364.29" y="-170.94" font-family="Times,serif" font-size="14.00">EHLO/250:0.992</text>
</g>
<!-- q3:0.0 -->
<g id="node18" class="node">
<title>q3:0.0</title>
<ellipse fill="none" stroke="black" stroke-width="2" cx="484.7" cy="-121" rx="42.79" ry="18"/>
<text text-anchor="middle" x="484.7" y="-116.33" font-family="Times,serif" font-size="14.00">q3:0.0</text>
</g>
<!-- q1:0.0&#45;&gt;q3:0.0 -->
<g id="edge18" class="edge">
<title>q1:0.0&#45;&gt;q3:0.0</title>
<path fill="none" stroke="black" d="M281.36,-138.31C289.02,-136.56 297.07,-134.92 304.66,-133.75 346.49,-127.32 394.32,-124.12 430.02,-122.54"/>
<polygon fill="black" stroke="black" points="429.8,-126.05 439.65,-122.14 429.51,-119.06 429.8,-126.05"/>
<text text-anchor="middle" x="364.29" y="-137.94" font-family="Times,serif" font-size="14.00">EHLO/λ:0.008</text>
</g>
<!-- q4:0.0 -->
<g id="node19" class="node">
<title>q4:0.0</title>
<ellipse fill="none" stroke="black" stroke-width="2" cx="716.53" cy="-201" rx="42.79" ry="18"/>
<text text-anchor="middle" x="716.53" y="-196.32" font-family="Times,serif" font-size="14.00">q4:0.0</text>
</g>
<!-- q2:0.0&#45;&gt;q4:0.0 -->
<g id="edge19" class="edge">
<title>q2:0.0&#45;&gt;q4:0.0</title>
<path fill="none" stroke="black" d="M527.06,-179.68C565.09,-183.98 621.68,-190.38 662.93,-195.05"/>
<polygon fill="black" stroke="black" points="662.28,-198.5 672.62,-196.15 663.07,-191.54 662.28,-198.5"/>
<text text-anchor="middle" x="600.62" y="-197.94" font-family="Times,serif" font-size="14.00">AUTH/535:0.05</text>
</g>
<!-- q5:0.0 -->
<g id="node20" class="node">
<title>q5:0.0</title>
<ellipse fill="none" stroke="black" stroke-width="2" cx="716.53" cy="-134" rx="42.79" ry="18"/>
<text text-anchor="middle" x="716.53" y="-129.32" font-family="Times,serif" font-size="14.00">q5:0.0</text>
</g>
<!-- q2:0.0&#45;&gt;q5:0.0 -->
<g id="edge20" class="edge">
<title>q2:0.0&#45;&gt;q5:0.0</title>
<path fill="none" stroke="black" d="M521.93,-165.14C529.67,-163.21 537.83,-161.3 545.49,-159.75 584.8,-151.78 629.67,-145.09 663.44,-140.52"/>
<polygon fill="black" stroke="black" points="663.5,-144.04 672.95,-139.26 662.58,-137.1 663.5,-144.04"/>
<text text-anchor="middle" x="600.62" y="-162.94" font-family="Times,serif" font-size="14.00">AUTH/235:0.95</text>
</g>
<!-- q3:0.0&#45;&gt;q5:0.0 -->
<g id="edge21" class="edge">
<title>q3:0.0&#45;&gt;q5:0.0</title>
<path fill="none" stroke="black" d="M528.1,-118.87C562.58,-117.7 612.43,-117.26 655.74,-121.75 659.38,-122.13 663.12,-122.62 666.87,-123.2"/>
<polygon fill="black" stroke="black" points="666.13,-126.62 676.58,-124.89 667.33,-119.73 666.13,-126.62"/>
<text text-anchor="middle" x="600.62" y="-125.95" font-family="Times,serif" font-size="14.00">AUTH/235:1.0</text>
</g>
<!-- q6:0.0 -->
<g id="node21" class="node">
<title>q6:0.0</title>
<ellipse fill="none" stroke="black" stroke-width="2" cx="952.86" cy="-201" rx="42.79" ry="18"/>
<text text-anchor="middle" x="952.86" y="-196.32" font-family="Times,serif" font-size="14.00">q6:0.0</text>
</g>
<!-- q4:0.0&#45;&gt;q6:0.0 -->
<g id="edge22" class="edge">
<title>q4:0.0&#45;&gt;q6:0.0</title>
<path fill="none" stroke="black" d="M760.24,-201C798.97,-201 856.24,-201 898.08,-201"/>
<polygon fill="black" stroke="black" points="897.94,-204.5 907.94,-201 897.94,-197.5 897.94,-204.5"/>
<text text-anchor="middle" x="834.7" y="-204.94" font-family="Times,serif" font-size="14.00">AUTH/334:1.0</text>
</g>
<!-- q7:0.0 -->
<g id="node22" class="node">
<title>q7:0.0</title>
<ellipse fill="none" stroke="black" stroke-width="2" cx="952.86" cy="-144" rx="42.79" ry="18"/>
<text text-anchor="middle" x="952.86" y="-139.32" font-family="Times,serif" font-size="14.00">q7:0.0</text>
</g>
<!-- q5:0.0&#45;&gt;q7:0.0 -->
<g id="edge23" class="edge">
<title>q5:0.0&#45;&gt;q7:0.0</title>
<path fill="none" stroke="black" d="M759.97,-135.81C798.67,-137.46 856.03,-139.91 897.96,-141.7"/>
<polygon fill="black" stroke="black" points="897.7,-145.19 907.84,-142.12 898,-138.2 897.7,-145.19"/>
<text text-anchor="middle" x="834.7" y="-145.94" font-family="Times,serif" font-size="14.00">MAIL/553:0.013</text>
</g>
<!-- q8:0.0 -->
<g id="node23" class="node">
<title>q8:0.0</title>
<ellipse fill="none" stroke="black" stroke-width="2" cx="952.86" cy="-90" rx="42.79" ry="18"/>
<text text-anchor="middle" x="952.86" y="-85.33" font-family="Times,serif" font-size="14.00">q8:0.0</text>
</g>
<!-- q5:0.0&#45;&gt;q8:0.0 -->
<g id="edge24" class="edge">
<title>q5:0.0&#45;&gt;q8:0.0</title>
<path fill="none" stroke="black" d="M751.44,-122.69C759.84,-120.15 768.85,-117.66 777.32,-115.75 817.73,-106.66 864.14,-99.99 898.95,-95.72"/>
<polygon fill="black" stroke="black" points="899.26,-99.2 908.78,-94.54 898.43,-92.25 899.26,-99.2"/>
<text text-anchor="middle" x="834.7" y="-119.95" font-family="Times,serif" font-size="14.00">MAIL/250:0.987</text>
</g>
<!-- q9:0.667 -->
<g id="node24" class="node">
<title>q9:0.667</title>
<ellipse fill="none" stroke="black" stroke-width="2" cx="1199.6" cy="-201" rx="55.42" ry="18"/>
<text text-anchor="middle" x="1199.6" y="-196.32" font-family="Times,serif" font-size="14.00">q9:0.667</text>
</g>
<!-- q6:0.0&#45;&gt;q9:0.667 -->
<g id="edge25" class="edge">
<title>q6:0.0&#45;&gt;q9:0.667</title>
<path fill="none" stroke="black" d="M996.49,-201C1033.9,-201 1089.1,-201 1132.3,-201"/>
<polygon fill="black" stroke="black" points="1132.09,-204.5 1142.09,-201 1132.09,-197.5 1132.09,-204.5"/>
<text text-anchor="middle" x="1069.9" y="-204.94" font-family="Times,serif" font-size="14.00">content/535:1.0</text>
</g>
<!-- q10:1.0 -->
<g id="node25" class="node">
<title>q10:1.0</title>
<ellipse fill="none" stroke="black" stroke-width="2" cx="1199.6" cy="-144" rx="49.1" ry="18"/>
<text text-anchor="middle" x="1199.6" y="-139.32" font-family="Times,serif" font-size="14.00">q10:1.0</text>
</g>
<!-- q7:0.0&#45;&gt;q10:1.0 -->
<g id="edge26" class="edge">
<title>q7:0.0&#45;&gt;q10:1.0</title>
<path fill="none" stroke="black" d="M996.49,-144C1035.7,-144 1094.3,-144 1138.3,-144"/>
<polygon fill="black" stroke="black" points="1138.19,-147.5 1148.19,-144 1138.19,-140.5 1138.19,-147.5"/>
<text text-anchor="middle" x="1069.9" y="-147.94" font-family="Times,serif" font-size="14.00">RSET/250:1.0</text>
</g>
<!-- q8:0.0&#45;&gt;q11:0.0 -->
<g id="edge27" class="edge">
<title>q8:0.0&#45;&gt;q11:0.0</title>
<path fill="none" stroke="black" d="M996.49,-90C1035.7,-90 1094.3,-90 1138.3,-90"/>
<polygon fill="black" stroke="black" points="1138.19,-93.5 1148.19,-90 1138.19,-86.5 1138.19,-93.5"/>
<text text-anchor="middle" x="1069.9" y="-93.95" font-family="Times,serif" font-size="14.00">RCPT/250:1.0</text>
</g>
<!-- q12:1.0 -->
<g id="node26" class="node">
<title>q12:1.0</title>
<ellipse fill="none" stroke="black" stroke-width="2" cx="1456.3" cy="-201" rx="49.1" ry="18"/>
<text text-anchor="middle" x="1456.3" y="-196.32" font-family="Times,serif" font-size="14.00">q12:1.0</text>
</g>
<!-- q9:0.667&#45;&gt;q12:1.0 -->
<g id="edge28" class="edge">
<title>q9:0.667&#45;&gt;q12:1.0</title>
<path fill="none" stroke="black" d="M1255.9,-201C1297,-201 1353.1,-201 1395.4,-201"/>
<polygon fill="black" stroke="black" points="1395.09,-204.5 1405.09,-201 1395.09,-197.5 1395.09,-204.5"/>
<text text-anchor="middle" x="1331.1" y="-204.94" font-family="Times,serif" font-size="14.00">λ/451:0.333</text>
</g>
<!-- q0:0.0 -->
<g id="node27" class="node">
<title>q0:0.0</title>
<ellipse fill="none" stroke="black" stroke-width="2" cx="50.79" cy="-148" rx="46.79" ry="46.79"/>
<ellipse fill="none" stroke="black" stroke-width="2" cx="50.79" cy="-148" rx="50.79" ry="50.79"/>
<text text-anchor="middle" x="50.79" y="-143.32" font-family="Times,serif" font-size="14.00">q0:0.0</text>
</g>
<!-- q0:0.0&#45;&gt;q1:0.0 -->
<g id="edge29" class="edge">
<title>q0:0.0&#45;&gt;q1:0.0</title>
<path fill="none" stroke="black" d="M98.53,-148C125.82,-148 160.37,-148 188.82,-148"/>
<polygon fill="black" stroke="black" points="188.69,-151.5 198.69,-148 188.69,-144.5 188.69,-151.5"/>
<text text-anchor="middle" x="149.33" y="-151.94" font-family="Times,serif" font-size="14.00">λ/220:1.0</text>
</g>
</g>
</svg>
