<?xml version="1.0" encoding="UTF-8" standalone="no"?>
<!DOCTYPE svg PUBLIC "-//W3C//DTD SVG 1.1//EN"
 "http://www.w3.org/Graphics/SVG/1.1/DTD/svg11.dtd">
<!-- Generated by graphviz version 12.0.0 (20240803.0821)
 -->
<!-- Pages: 1 -->
<svg width="6430pt" height="521pt"
 viewBox="0.00 0.00 6430.19 520.93" xmlns="http://www.w3.org/2000/svg" xmlns:xlink="http://www.w3.org/1999/xlink">
<g id="graph0" class="graph" transform="scale(1 1) rotate(0) translate(4 516.93)">
<polygon fill="white" stroke="none" points="-4,4 -4,-516.93 6426.19,-516.93 6426.19,4 -4,4"/>
<!-- q0:&#45;1 -->
<g id="node1" class="node">
<title>q0:&#45;1</title>
<ellipse fill="none" stroke="black" stroke-width="2" cx="44.48" cy="-180.97" rx="40.48" ry="40.48"/>
<ellipse fill="none" stroke="black" stroke-width="2" cx="44.48" cy="-180.97" rx="44.48" ry="44.48"/>
<text text-anchor="middle" x="44.48" y="-176.3" font-family="Times,serif" font-size="14.00">q0:&#45;1</text>
</g>
<!-- q1:&#45;1 -->
<g id="node2" class="node">
<title>q1:&#45;1</title>
<ellipse fill="none" stroke="black" stroke-width="2" cx="215.93" cy="-180.97" rx="36.48" ry="18"/>
<text text-anchor="middle" x="215.93" y="-176.3" font-family="Times,serif" font-size="14.00">q1:&#45;1</text>
</g>
<!-- q0:&#45;1&#45;&gt;q1:&#45;1 -->
<g id="edge1" class="edge">
<title>q0:&#45;1&#45;&gt;q1:&#45;1</title>
<path fill="none" stroke="black" d="M85.64,-180.97C110.08,-180.97 141.44,-180.97 167.15,-180.97"/>
<polygon fill="black" stroke="black" points="167.02,-184.47 177.02,-180.97 167.02,-177.47 167.02,-184.47"/>
<text text-anchor="middle" x="132.2" y="-184.92" font-family="Times,serif" font-size="14.00">λ/220:&#45;1</text>
</g>
<!-- q2:&#45;1 -->
<g id="node3" class="node">
<title>q2:&#45;1</title>
<ellipse fill="none" stroke="black" stroke-width="2" cx="441.13" cy="-219.97" rx="36.48" ry="18"/>
<text text-anchor="middle" x="441.13" y="-215.3" font-family="Times,serif" font-size="14.00">q2:&#45;1</text>
</g>
<!-- q1:&#45;1&#45;&gt;q2:&#45;1 -->
<g id="edge2" class="edge">
<title>q1:&#45;1&#45;&gt;q2:&#45;1</title>
<path fill="none" stroke="black" d="M251.32,-186.97C289.74,-193.69 352.11,-204.59 394.57,-212"/>
<polygon fill="black" stroke="black" points="393.77,-215.42 404.22,-213.69 394.97,-208.52 393.77,-215.42"/>
<text text-anchor="middle" x="328.53" y="-214.92" font-family="Times,serif" font-size="14.00">EHLO/250:&#45;1</text>
</g>
<!-- q3:&#45;1 -->
<g id="node4" class="node">
<title>q3:&#45;1</title>
<ellipse fill="none" stroke="black" stroke-width="2" cx="441.13" cy="-119.97" rx="36.48" ry="18"/>
<text text-anchor="middle" x="441.13" y="-115.3" font-family="Times,serif" font-size="14.00">q3:&#45;1</text>
</g>
<!-- q1:&#45;1&#45;&gt;q3:&#45;1 -->
<g id="edge3" class="edge">
<title>q1:&#45;1&#45;&gt;q3:&#45;1</title>
<path fill="none" stroke="black" d="M240.19,-166.61C249.33,-161.5 260.09,-156.11 270.41,-152.47 310.69,-138.25 358.68,-129.79 393.33,-125.09"/>
<polygon fill="black" stroke="black" points="393.57,-128.58 403.04,-123.83 392.67,-121.64 393.57,-128.58"/>
<text text-anchor="middle" x="328.53" y="-174.17" font-family="Times,serif" font-size="14.00">EHLO/λ:&#45;1</text>
<text text-anchor="middle" x="328.53" y="-156.92" font-family="Times,serif" font-size="14.00">a0 = [127.0.1.1]</text>
</g>
<!-- q5:&#45;1 -->
<g id="node5" class="node">
<title>q5:&#45;1</title>
<ellipse fill="none" stroke="black" stroke-width="2" cx="1601.6" cy="-248.97" rx="36.48" ry="18"/>
<text text-anchor="middle" x="1601.6" y="-244.3" font-family="Times,serif" font-size="14.00">q5:&#45;1</text>
</g>
<!-- q2:&#45;1&#45;&gt;q5:&#45;1 -->
<g id="edge4" class="edge">
<title>q2:&#45;1&#45;&gt;q5:&#45;1</title>
<path fill="none" stroke="black" d="M477.17,-225.11C483.31,-225.85 489.64,-226.52 495.61,-226.97 903.99,-257.67 1399.5,-252.47 1553,-249.89"/>
<polygon fill="black" stroke="black" points="1552.85,-253.4 1562.79,-249.72 1552.73,-246.4 1552.85,-253.4"/>
<text text-anchor="middle" x="1021.4" y="-289.42" font-family="Times,serif" font-size="14.00">AUTH/235:&#45;1</text>
<text text-anchor="middle" x="1021.4" y="-272.17" font-family="Times,serif" font-size="14.00">a0 in {&#39;PLAIN AEF6NjE2MUAxMjYuY29tAE1VUVNBT1NUWElURkpDVUU=&#39;, &#39;PLAIN AEF6NjE2MUBzaW5hLmNvbQA2ZmRiMjVjZmNjODYyZWZj&#39;}</text>
<text text-anchor="middle" x="1021.4" y="-254.92" font-family="Times,serif" font-size="14.00">b0 in {&#39;Authentication successful&#39;, &#39;OK Authenticated&#39;}</text>
</g>
<!-- q4:&#45;1 -->
<g id="node6" class="node">
<title>q4:&#45;1</title>
<ellipse fill="none" stroke="black" stroke-width="2" cx="1601.6" cy="-329.97" rx="36.48" ry="18"/>
<text text-anchor="middle" x="1601.6" y="-325.3" font-family="Times,serif" font-size="14.00">q4:&#45;1</text>
</g>
<!-- q2:&#45;1&#45;&gt;q4:&#45;1 -->
<g id="edge5" class="edge">
<title>q2:&#45;1&#45;&gt;q4:&#45;1</title>
<path fill="none" stroke="black" d="M447.78,-238.65C455.12,-259.26 470.1,-291.43 495.61,-305.97 858.68,-512.93 1403.8,-385.1 1558.4,-342.35"/>
<polygon fill="black" stroke="black" points="1559.07,-345.8 1567.74,-339.72 1557.17,-339.06 1559.07,-345.8"/>
<text text-anchor="middle" x="1021.4" y="-441.17" font-family="Times,serif" font-size="14.00">AUTH/535:&#45;1</text>
<text text-anchor="middle" x="1021.4" y="-423.92" font-family="Times,serif" font-size="14.00">b0 in {&#39;5.7.8 authentication failed&#39;, &#39;Error: authentication failed&#39;}</text>
</g>
<!-- q6:&#45;1 -->
<g id="node7" class="node">
<title>q6:&#45;1</title>
<ellipse fill="none" stroke="black" stroke-width="2" cx="1601.6" cy="-115.97" rx="36.48" ry="18"/>
<text text-anchor="middle" x="1601.6" y="-111.3" font-family="Times,serif" font-size="14.00">q6:&#45;1</text>
</g>
<!-- q2:&#45;1&#45;&gt;q6:&#45;1 -->
<g id="edge6" class="edge">
<title>q2:&#45;1&#45;&gt;q6:&#45;1</title>
<path fill="none" stroke="black" d="M462.58,-204.56C472.1,-198.3 483.89,-191.78 495.61,-188.47 608.06,-156.69 1439.5,-214.44 1547.1,-168.97 1560.4,-163.34 1572.2,-152.69 1581.3,-142.4"/>
<polygon fill="black" stroke="black" points="1583.95,-144.68 1587.64,-134.75 1578.56,-140.22 1583.95,-144.68"/>
<text text-anchor="middle" x="1021.4" y="-210.17" font-family="Times,serif" font-size="14.00">AUTH/λ:&#45;1</text>
<text text-anchor="middle" x="1021.4" y="-192.92" font-family="Times,serif" font-size="14.00">a0 = PLAIN AEF6NjE2MUAxMjYuY29tAE1VUVNBT1NUWElURkpDVUU=</text>
</g>
<!-- q3:&#45;1&#45;&gt;q6:&#45;1 -->
<g id="edge7" class="edge">
<title>q3:&#45;1&#45;&gt;q6:&#45;1</title>
<path fill="none" stroke="black" d="M478.37,-117.86C484.14,-117.59 490.04,-117.37 495.61,-117.22 904.93,-106.47 1399.8,-112.78 1553.1,-115.17"/>
<polygon fill="black" stroke="black" points="1552.73,-118.67 1562.79,-115.33 1552.85,-111.67 1552.73,-118.67"/>
<text text-anchor="middle" x="1021.4" y="-156.42" font-family="Times,serif" font-size="14.00">AUTH/235:&#45;1</text>
<text text-anchor="middle" x="1021.4" y="-139.17" font-family="Times,serif" font-size="14.00">a0 in {&#39;PLAIN AEF6NjE2MUAxMjYuY29tAE1VUVNBT1NUWElURkpDVUU=&#39;, &#39;PLAIN AEF6NjE2MUBzaW5hLmNvbQA2ZmRiMjVjZmNjODYyZWZj&#39;}</text>
<text text-anchor="middle" x="1021.4" y="-121.92" font-family="Times,serif" font-size="14.00">b0 in {&#39;Authentication successful&#39;, &#39;OK Authenticated&#39;}</text>
</g>
<!-- q9:&#45;1 -->
<g id="node8" class="node">
<title>q9:&#45;1</title>
<ellipse fill="none" stroke="black" stroke-width="2" cx="2376.5" cy="-168.97" rx="36.48" ry="18"/>
<text text-anchor="middle" x="2376.5" y="-164.3" font-family="Times,serif" font-size="14.00">q9:&#45;1</text>
</g>
<!-- q5:&#45;1&#45;&gt;q9:&#45;1 -->
<g id="edge8" class="edge">
<title>q5:&#45;1&#45;&gt;q9:&#45;1</title>
<path fill="none" stroke="black" d="M1614,-231.08C1623.5,-217.98 1638.3,-201.14 1656.1,-193.22 1717,-165.99 2177.5,-167.32 2328.1,-168.5"/>
<polygon fill="black" stroke="black" points="2327.66,-172 2337.69,-168.59 2327.72,-165 2327.66,-172"/>
<text text-anchor="middle" x="1989.1" y="-232.42" font-family="Times,serif" font-size="14.00">MAIL/250:&#45;1</text>
<text text-anchor="middle" x="1989.1" y="-215.17" font-family="Times,serif" font-size="14.00">a0 in {&#39;FROM:&lt;Az6161@sina.com&gt;&#39;, &#39;FROM:&lt;Az6161@126.com&gt;&#39;}</text>
<text text-anchor="middle" x="1989.1" y="-197.92" font-family="Times,serif" font-size="14.00">b0 in {&#39;Mail OK&#39;, &#39;ok&#39;}</text>
</g>
<!-- q8:&#45;1 -->
<g id="node9" class="node">
<title>q8:&#45;1</title>
<ellipse fill="none" stroke="black" stroke-width="2" cx="2376.5" cy="-257.97" rx="36.48" ry="18"/>
<text text-anchor="middle" x="2376.5" y="-253.3" font-family="Times,serif" font-size="14.00">q8:&#45;1</text>
</g>
<!-- q5:&#45;1&#45;&gt;q8:&#45;1 -->
<g id="edge9" class="edge">
<title>q5:&#45;1&#45;&gt;q8:&#45;1</title>
<path fill="none" stroke="black" d="M1638.8,-249.39C1765.1,-250.86 2185.8,-255.76 2328.1,-257.41"/>
<polygon fill="black" stroke="black" points="2327.85,-260.91 2337.89,-257.53 2327.93,-253.91 2327.85,-260.91"/>
<text text-anchor="middle" x="1989.1" y="-295.42" font-family="Times,serif" font-size="14.00">MAIL/553:&#45;1</text>
<text text-anchor="middle" x="1989.1" y="-278.17" font-family="Times,serif" font-size="14.00">a0 in {&#39;FROM:&lt;Az_6161@sina.com&gt;&#39;, &#39;FROM:&lt;Az6161@163.com&gt;&#39;}</text>
<text text-anchor="middle" x="1989.1" y="-260.92" font-family="Times,serif" font-size="14.00">b0 in {&#39;Mail from must equal authorized user&#39;, &#39;Envolope sender mismatch with login user..&#39;}</text>
</g>
<!-- q7:&#45;1 -->
<g id="node10" class="node">
<title>q7:&#45;1</title>
<ellipse fill="none" stroke="black" stroke-width="2" cx="2376.5" cy="-332.97" rx="36.48" ry="18"/>
<text text-anchor="middle" x="2376.5" y="-328.3" font-family="Times,serif" font-size="14.00">q7:&#45;1</text>
</g>
<!-- q4:&#45;1&#45;&gt;q7:&#45;1 -->
<g id="edge10" class="edge">
<title>q4:&#45;1&#45;&gt;q7:&#45;1</title>
<path fill="none" stroke="black" d="M1638.8,-330.11C1765.1,-330.6 2185.8,-332.23 2328.1,-332.78"/>
<polygon fill="black" stroke="black" points="2327.87,-336.28 2337.89,-332.83 2327.9,-329.28 2327.87,-336.28"/>
<text text-anchor="middle" x="1989.1" y="-353.17" font-family="Times,serif" font-size="14.00">AUTH/334:&#45;1</text>
<text text-anchor="middle" x="1989.1" y="-335.92" font-family="Times,serif" font-size="14.00">b0 = UGFzc3dvcmQ6</text>
</g>
<!-- q6:&#45;1&#45;&gt;q9:&#45;1 -->
<g id="edge11" class="edge">
<title>q6:&#45;1&#45;&gt;q9:&#45;1</title>
<path fill="none" stroke="black" d="M1634.3,-106.78C1738.4,-78.32 2077.7,0 2322.1,-109.22 2337.3,-116.01 2349.9,-129.49 2359.1,-141.92"/>
<polygon fill="black" stroke="black" points="2356,-143.59 2364.55,-149.86 2361.77,-139.63 2356,-143.59"/>
<text text-anchor="middle" x="1989.1" y="-148.42" font-family="Times,serif" font-size="14.00">MAIL/250:&#45;1</text>
<text text-anchor="middle" x="1989.1" y="-131.17" font-family="Times,serif" font-size="14.00">a0 in {&#39;FROM:&lt;Az6161@sina.com&gt;&#39;, &#39;FROM:&lt;Az6161@126.com&gt;&#39;}</text>
<text text-anchor="middle" x="1989.1" y="-113.92" font-family="Times,serif" font-size="14.00">b0 in {&#39;Mail OK&#39;, &#39;ok&#39;}</text>
</g>
<!-- q12:&#45;1 -->
<g id="node11" class="node">
<title>q12:&#45;1</title>
<ellipse fill="none" stroke="black" stroke-width="2" cx="3186.3" cy="-168.97" rx="42.79" ry="18"/>
<text text-anchor="middle" x="3186.3" y="-164.3" font-family="Times,serif" font-size="14.00">q12:&#45;1</text>
</g>
<!-- q9:&#45;1&#45;&gt;q12:&#45;1 -->
<g id="edge12" class="edge">
<title>q9:&#45;1&#45;&gt;q12:&#45;1</title>
<path fill="none" stroke="black" d="M2413.8,-168.97C2542.6,-168.97 2978.4,-168.97 3131.6,-168.97"/>
<polygon fill="black" stroke="black" points="3131.39,-172.47 3141.39,-168.97 3131.39,-165.47 3131.39,-172.47"/>
<text text-anchor="middle" x="2778.3" y="-207.42" font-family="Times,serif" font-size="14.00">RCPT/250:&#45;1</text>
<text text-anchor="middle" x="2778.3" y="-190.17" font-family="Times,serif" font-size="14.00">a0 in {&#39;TO:&lt;574702257@qq.com&gt;&#39;, &#39;TO:&lt;1542110793@qq.com&gt;&#39;, &#39;TO:&lt;574702256@qq.com&gt;&#39;}</text>
<text text-anchor="middle" x="2778.3" y="-172.92" font-family="Times,serif" font-size="14.00">b0 in {&#39;Mail OK&#39;, &#39;ok&#39;}</text>
</g>
<!-- q11:&#45;1 -->
<g id="node26" class="node">
<title>q11:&#45;1</title>
<ellipse fill="none" stroke="black" stroke-width="2" cx="3186.3" cy="-257.97" rx="42.79" ry="18"/>
<text text-anchor="middle" x="3186.3" y="-253.3" font-family="Times,serif" font-size="14.00">q11:&#45;1</text>
</g>
<!-- q8:&#45;1&#45;&gt;q11:&#45;1 -->
<g id="edge30" class="edge">
<title>q8:&#45;1&#45;&gt;q11:&#45;1</title>
<path fill="none" stroke="black" d="M2413.8,-257.97C2542.6,-257.97 2978.4,-257.97 3131.6,-257.97"/>
<polygon fill="black" stroke="black" points="3131.39,-261.47 3141.39,-257.97 3131.39,-254.47 3131.39,-261.47"/>
<text text-anchor="middle" x="2778.3" y="-279.17" font-family="Times,serif" font-size="14.00">RSET/250:&#45;1</text>
<text text-anchor="middle" x="2778.3" y="-261.92" font-family="Times,serif" font-size="14.00">b0 in {&#39;flushed&#39;, &#39;OK&#39;}</text>
</g>
<!-- q10:&#45;1 -->
<g id="node27" class="node">
<title>q10:&#45;1</title>
<ellipse fill="none" stroke="black" stroke-width="2" cx="3186.3" cy="-332.97" rx="42.79" ry="18"/>
<text text-anchor="middle" x="3186.3" y="-328.3" font-family="Times,serif" font-size="14.00">q10:&#45;1</text>
</g>
<!-- q7:&#45;1&#45;&gt;q10:&#45;1 -->
<g id="edge31" class="edge">
<title>q7:&#45;1&#45;&gt;q10:&#45;1</title>
<path fill="none" stroke="black" d="M2413.8,-332.97C2542.6,-332.97 2978.4,-332.97 3131.6,-332.97"/>
<polygon fill="black" stroke="black" points="3131.39,-336.47 3141.39,-332.97 3131.39,-329.47 3131.39,-336.47"/>
<text text-anchor="middle" x="2778.3" y="-354.17" font-family="Times,serif" font-size="14.00">content/535:&#45;1</text>
<text text-anchor="middle" x="2778.3" y="-336.92" font-family="Times,serif" font-size="14.00">b0 in {&#39;5.7.8 authentication failed&#39;, &#39;Error: authentication failed&#39;}</text>
</g>
<!-- q15:&#45;1 -->
<g id="node12" class="node">
<title>q15:&#45;1</title>
<ellipse fill="none" stroke="black" stroke-width="2" cx="3583.9" cy="-108.97" rx="42.79" ry="18"/>
<text text-anchor="middle" x="3583.9" y="-104.3" font-family="Times,serif" font-size="14.00">q15:&#45;1</text>
</g>
<!-- q12:&#45;1&#45;&gt;q15:&#45;1 -->
<g id="edge13" class="edge">
<title>q12:&#45;1&#45;&gt;q15:&#45;1</title>
<path fill="none" stroke="black" d="M3227.4,-162.88C3299.7,-151.93 3451.6,-128.88 3531.4,-116.77"/>
<polygon fill="black" stroke="black" points="3531.75,-120.26 3541.11,-115.3 3530.69,-113.34 3531.75,-120.26"/>
<text text-anchor="middle" x="3325.5" y="-180.17" font-family="Times,serif" font-size="14.00">RCPT/250:&#45;1</text>
<text text-anchor="middle" x="3325.5" y="-162.92" font-family="Times,serif" font-size="14.00">b0 in {&#39;Mail OK&#39;, &#39;ok&#39;}</text>
</g>
<!-- q14:&#45;1 -->
<g id="node13" class="node">
<title>q14:&#45;1</title>
<ellipse fill="none" stroke="black" stroke-width="2" cx="4310.6" cy="-190.97" rx="42.79" ry="18"/>
<text text-anchor="middle" x="4310.6" y="-186.3" font-family="Times,serif" font-size="14.00">q14:&#45;1</text>
</g>
<!-- q12:&#45;1&#45;&gt;q14:&#45;1 -->
<g id="edge14" class="edge">
<title>q12:&#45;1&#45;&gt;q14:&#45;1</title>
<path fill="none" stroke="black" d="M3212.9,-183.91C3223.2,-189.1 3235.4,-194.29 3247.1,-196.97 3681.7,-295.89 3806,-242.45 4249.9,-201.97 4253.2,-201.66 4256.7,-201.26 4260.1,-200.79"/>
<polygon fill="black" stroke="black" points="4260.35,-204.3 4269.71,-199.33 4259.29,-197.38 4260.35,-204.3"/>
<text text-anchor="middle" x="3583.9" y="-274.17" font-family="Times,serif" font-size="14.00">DATA/354:&#45;1</text>
<text text-anchor="middle" x="3583.9" y="-256.92" font-family="Times,serif" font-size="14.00">b0 = End data with &lt;CR&gt;&lt;LF&gt;.&lt;CR&gt;&lt;LF&gt;</text>
</g>
<!-- q15:&#45;1&#45;&gt;q15:&#45;1 -->
<g id="edge15" class="edge">
<title>q15:&#45;1&#45;&gt;q15:&#45;1</title>
<path fill="none" stroke="black" d="M3547.9,-119.47C3523.2,-131.33 3535.2,-144.97 3583.9,-144.97 3624.2,-144.97 3639.3,-135.62 3629.3,-125.67"/>
<polygon fill="black" stroke="black" points="3631.36,-122.83 3621.07,-120.3 3627.54,-128.69 3631.36,-122.83"/>
<text text-anchor="middle" x="3583.9" y="-166.17" font-family="Times,serif" font-size="14.00">RCPT/250:&#45;1</text>
<text text-anchor="middle" x="3583.9" y="-148.92" font-family="Times,serif" font-size="14.00">b0 = Mail OK</text>
</g>
<!-- q15:&#45;1&#45;&gt;q14:&#45;1 -->
<g id="edge16" class="edge">
<title>q15:&#45;1&#45;&gt;q14:&#45;1</title>
<path fill="none" stroke="black" d="M3622.3,-117.94C3658.4,-126.18 3714.5,-137.98 3763.9,-143.97 3978.5,-170.01 4038.4,-122.09 4249.9,-167.47 4256.4,-168.88 4263.2,-170.92 4269.7,-173.23"/>
<polygon fill="black" stroke="black" points="4268.4,-176.48 4278.99,-176.76 4270.88,-169.94 4268.4,-176.48"/>
<text text-anchor="middle" x="4006.9" y="-189.17" font-family="Times,serif" font-size="14.00">DATA/354:&#45;1</text>
<text text-anchor="middle" x="4006.9" y="-171.92" font-family="Times,serif" font-size="14.00">b0 = End data with &lt;CR&gt;&lt;LF&gt;.&lt;CR&gt;&lt;LF&gt;</text>
</g>
<!-- q20:&#45;1 -->
<g id="node14" class="node">
<title>q20:&#45;1</title>
<ellipse fill="none" stroke="black" stroke-width="2" cx="4310.6" cy="-107.97" rx="42.79" ry="18"/>
<text text-anchor="middle" x="4310.6" y="-103.3" font-family="Times,serif" font-size="14.00">q20:&#45;1</text>
</g>
<!-- q15:&#45;1&#45;&gt;q20:&#45;1 -->
<g id="edge17" class="edge">
<title>q15:&#45;1&#45;&gt;q20:&#45;1</title>
<path fill="none" stroke="black" d="M3627.5,-108.91C3752.4,-108.74 4117.2,-108.24 4255.5,-108.05"/>
<polygon fill="black" stroke="black" points="4255.59,-111.54 4265.59,-108.03 4255.58,-104.54 4255.59,-111.54"/>
<text text-anchor="middle" x="4006.9" y="-130.17" font-family="Times,serif" font-size="14.00">DATA/550:&#45;1</text>
<text text-anchor="middle" x="4006.9" y="-112.92" font-family="Times,serif" font-size="14.00">b0 in {&#39;too many message send today.&#39;, &#39;Sender frequency limited.&#39;}</text>
</g>
<!-- q19:&#45;1 -->
<g id="node15" class="node">
<title>q19:&#45;1</title>
<ellipse fill="none" stroke="black" stroke-width="2" cx="4657.2" cy="-296.97" rx="42.79" ry="18"/>
<text text-anchor="middle" x="4657.2" y="-292.3" font-family="Times,serif" font-size="14.00">q19:&#45;1</text>
</g>
<!-- q14:&#45;1&#45;&gt;q19:&#45;1 -->
<g id="edge18" class="edge">
<title>q14:&#45;1&#45;&gt;q19:&#45;1</title>
<path fill="none" stroke="black" d="M4317.6,-209.71C4325.7,-232.05 4342.8,-268.44 4371.4,-284.97 4444.9,-327.36 4547.7,-318.35 4607.6,-307.78"/>
<polygon fill="black" stroke="black" points="4607.92,-311.28 4617.11,-306.01 4606.64,-304.4 4607.92,-311.28"/>
<text text-anchor="middle" x="4483.9" y="-337.17" font-family="Times,serif" font-size="14.00">content/λ:&#45;1</text>
<text text-anchor="middle" x="4483.9" y="-319.92" font-family="Times,serif" font-size="14.00">a0 = b0</text>
</g>
<!-- q18:&#45;1 -->
<g id="node16" class="node">
<title>q18:&#45;1</title>
<ellipse fill="none" stroke="black" stroke-width="2" cx="4657.2" cy="-206.97" rx="42.79" ry="18"/>
<text text-anchor="middle" x="4657.2" y="-202.3" font-family="Times,serif" font-size="14.00">q18:&#45;1</text>
</g>
<!-- q14:&#45;1&#45;&gt;q18:&#45;1 -->
<g id="edge19" class="edge">
<title>q14:&#45;1&#45;&gt;q18:&#45;1</title>
<path fill="none" stroke="black" d="M4353.8,-188.14C4409.6,-185.11 4510.8,-182 4596.4,-192.47 4600.6,-192.98 4604.9,-193.67 4609.2,-194.48"/>
<polygon fill="black" stroke="black" points="4608.41,-197.89 4618.92,-196.54 4609.86,-191.05 4608.41,-197.89"/>
<text text-anchor="middle" x="4483.9" y="-214.17" font-family="Times,serif" font-size="14.00">content/550:&#45;1</text>
<text text-anchor="middle" x="4483.9" y="-196.92" font-family="Times,serif" font-size="14.00">b0 = Sender frequency limited.</text>
</g>
<!-- q17:&#45;1 -->
<g id="node17" class="node">
<title>q17:&#45;1</title>
<ellipse fill="none" stroke="black" stroke-width="2" cx="4657.2" cy="-150.97" rx="42.79" ry="18"/>
<text text-anchor="middle" x="4657.2" y="-146.29" font-family="Times,serif" font-size="14.00">q17:&#45;1</text>
</g>
<!-- q14:&#45;1&#45;&gt;q17:&#45;1 -->
<g id="edge20" class="edge">
<title>q14:&#45;1&#45;&gt;q17:&#45;1</title>
<path fill="none" stroke="black" d="M4338.9,-176.49C4348.9,-171.88 4360.4,-167.31 4371.4,-164.72 4450.3,-146.17 4544.8,-145.72 4602.6,-147.81"/>
<polygon fill="black" stroke="black" points="4602.46,-151.31 4612.59,-148.21 4602.74,-144.31 4602.46,-151.31"/>
<text text-anchor="middle" x="4483.9" y="-168.92" font-family="Times,serif" font-size="14.00">content/554:&#45;1</text>
</g>
<!-- q16:&#45;1 -->
<g id="node18" class="node">
<title>q16:&#45;1</title>
<ellipse fill="none" stroke="black" stroke-width="2" cx="4657.2" cy="-96.97" rx="42.79" ry="18"/>
<text text-anchor="middle" x="4657.2" y="-92.3" font-family="Times,serif" font-size="14.00">q16:&#45;1</text>
</g>
<!-- q14:&#45;1&#45;&gt;q16:&#45;1 -->
<g id="edge21" class="edge">
<title>q14:&#45;1&#45;&gt;q16:&#45;1</title>
<path fill="none" stroke="black" d="M4322.7,-172.9C4333.2,-157.5 4350.4,-136.26 4371.4,-125.72 4445.6,-88.55 4544.1,-87.62 4603.7,-91.48"/>
<polygon fill="black" stroke="black" points="4603.26,-94.96 4613.49,-92.2 4603.77,-87.98 4603.26,-94.96"/>
<text text-anchor="middle" x="4483.9" y="-129.92" font-family="Times,serif" font-size="14.00">content/250:&#45;1</text>
</g>
<!-- q19:&#45;1&#45;&gt;q14:&#45;1 -->
<g id="edge22" class="edge">
<title>q19:&#45;1&#45;&gt;q14:&#45;1</title>
<path fill="none" stroke="black" d="M4641.3,-279.75C4630.2,-268.19 4614,-253.77 4596.4,-246.47 4503.7,-207.94 4466.9,-257.99 4371.4,-226.97 4361.6,-223.76 4351.6,-218.66 4342.7,-213.3"/>
<polygon fill="black" stroke="black" points="4344.79,-210.48 4334.48,-208.04 4341.01,-216.38 4344.79,-210.48"/>
<text text-anchor="middle" x="4483.9" y="-268.17" font-family="Times,serif" font-size="14.00">content/λ:&#45;1</text>
<text text-anchor="middle" x="4483.9" y="-250.92" font-family="Times,serif" font-size="14.00">a0 = b0</text>
</g>
<!-- q25:&#45;1 -->
<g id="node19" class="node">
<title>q25:&#45;1</title>
<ellipse fill="none" stroke="black" stroke-width="2" cx="6168.6" cy="-273.97" rx="42.79" ry="18"/>
<text text-anchor="middle" x="6168.6" y="-269.3" font-family="Times,serif" font-size="14.00">q25:&#45;1</text>
</g>
<!-- q19:&#45;1&#45;&gt;q25:&#45;1 -->
<g id="edge23" class="edge">
<title>q19:&#45;1&#45;&gt;q25:&#45;1</title>
<path fill="none" stroke="black" d="M4695.7,-288.13C4703,-286.72 4710.7,-285.48 4718,-284.72 5260.4,-227.69 5923.3,-259.51 6113.9,-270.62"/>
<polygon fill="black" stroke="black" points="6113.6,-274.11 6123.79,-271.21 6114.01,-267.12 6113.6,-274.11"/>
<text text-anchor="middle" x="5412.9" y="-287.92" font-family="Times,serif" font-size="14.00">content/250:&#45;1</text>
</g>
<!-- q24:&#45;1 -->
<g id="node20" class="node">
<title>q24:&#45;1</title>
<ellipse fill="none" stroke="black" stroke-width="2" cx="6168.6" cy="-327.97" rx="42.79" ry="18"/>
<text text-anchor="middle" x="6168.6" y="-323.3" font-family="Times,serif" font-size="14.00">q24:&#45;1</text>
</g>
<!-- q19:&#45;1&#45;&gt;q24:&#45;1 -->
<g id="edge24" class="edge">
<title>q19:&#45;1&#45;&gt;q24:&#45;1</title>
<path fill="none" stroke="black" d="M4700,-300.81C4706,-301.27 4712.2,-301.67 4718,-301.97 5262.2,-329.57 5922.5,-329.08 6113.5,-328.27"/>
<polygon fill="black" stroke="black" points="6113.3,-331.78 6123.29,-328.23 6113.27,-324.78 6113.3,-331.78"/>
<text text-anchor="middle" x="5412.9" y="-349.17" font-family="Times,serif" font-size="14.00">content/554:&#45;1</text>
<text text-anchor="middle" x="5412.9" y="-331.92" font-family="Times,serif" font-size="14.00">b0 = DT:SPM 126 smtp10 NuRpCgAXIXf+MYBfJr+Adw&#45;&#45;.17258S2 1602236927 please see http://mail.163.com/help/help_spam_16.htm?ip=221.212.176.101&amp;hostid=smtp10&amp;time=1602236927</text>
</g>
<!-- q23:&#45;1 -->
<g id="node21" class="node">
<title>q23:&#45;1</title>
<ellipse fill="none" stroke="black" stroke-width="2" cx="6168.6" cy="-208.97" rx="42.79" ry="18"/>
<text text-anchor="middle" x="6168.6" y="-204.3" font-family="Times,serif" font-size="14.00">q23:&#45;1</text>
</g>
<!-- q18:&#45;1&#45;&gt;q23:&#45;1 -->
<g id="edge25" class="edge">
<title>q18:&#45;1&#45;&gt;q23:&#45;1</title>
<path fill="none" stroke="black" d="M4701,-207.02C4915.5,-207.31 5874.1,-208.58 6113.3,-208.89"/>
<polygon fill="black" stroke="black" points="6113.28,-212.39 6123.29,-208.91 6113.29,-205.39 6113.28,-212.39"/>
<text text-anchor="middle" x="5412.9" y="-230.17" font-family="Times,serif" font-size="14.00">RSET/250:&#45;1</text>
<text text-anchor="middle" x="5412.9" y="-212.92" font-family="Times,serif" font-size="14.00">a0 = b0</text>
</g>
<!-- q22:&#45;1 -->
<g id="node22" class="node">
<title>q22:&#45;1</title>
<ellipse fill="none" stroke="black" stroke-width="2" cx="6168.6" cy="-150.97" rx="42.79" ry="18"/>
<text text-anchor="middle" x="6168.6" y="-146.29" font-family="Times,serif" font-size="14.00">q22:&#45;1</text>
</g>
<!-- q17:&#45;1&#45;&gt;q22:&#45;1 -->
<g id="edge26" class="edge">
<title>q17:&#45;1&#45;&gt;q22:&#45;1</title>
<path fill="none" stroke="black" d="M4701,-150.97C4915.5,-150.97 5874.1,-150.97 6113.3,-150.97"/>
<polygon fill="black" stroke="black" points="6113.29,-154.47 6123.29,-150.97 6113.29,-147.47 6113.29,-154.47"/>
<text text-anchor="middle" x="5412.9" y="-172.17" font-family="Times,serif" font-size="14.00">RSET/250:&#45;1</text>
<text text-anchor="middle" x="5412.9" y="-154.92" font-family="Times,serif" font-size="14.00">b0 = OK</text>
</g>
<!-- q21:&#45;1 -->
<g id="node23" class="node">
<title>q21:&#45;1</title>
<ellipse fill="none" stroke="black" stroke-width="2" cx="6168.6" cy="-96.97" rx="42.79" ry="18"/>
<text text-anchor="middle" x="6168.6" y="-92.3" font-family="Times,serif" font-size="14.00">q21:&#45;1</text>
</g>
<!-- q16:&#45;1&#45;&gt;q21:&#45;1 -->
<g id="edge27" class="edge">
<title>q16:&#45;1&#45;&gt;q21:&#45;1</title>
<path fill="none" stroke="black" d="M4701,-96.97C4915.5,-96.97 5874.1,-96.97 6113.3,-96.97"/>
<polygon fill="black" stroke="black" points="6113.29,-100.47 6123.29,-96.97 6113.29,-93.47 6113.29,-100.47"/>
<text text-anchor="middle" x="5412.9" y="-100.92" font-family="Times,serif" font-size="14.00">QUIT/221:&#45;1</text>
</g>
<!-- q27:&#45;1 -->
<g id="node24" class="node">
<title>q27:&#45;1</title>
<ellipse fill="none" stroke="black" stroke-width="2" cx="6379.4" cy="-273.97" rx="42.79" ry="18"/>
<text text-anchor="middle" x="6379.4" y="-269.3" font-family="Times,serif" font-size="14.00">q27:&#45;1</text>
</g>
<!-- q25:&#45;1&#45;&gt;q27:&#45;1 -->
<g id="edge28" class="edge">
<title>q25:&#45;1&#45;&gt;q27:&#45;1</title>
<path fill="none" stroke="black" d="M6212.3,-273.97C6244.7,-273.97 6289.4,-273.97 6324.3,-273.97"/>
<polygon fill="black" stroke="black" points="6324.19,-277.47 6334.19,-273.97 6324.19,-270.47 6324.19,-277.47"/>
<text text-anchor="middle" x="6274" y="-277.92" font-family="Times,serif" font-size="14.00">QUIT/221:&#45;1</text>
</g>
<!-- q26:&#45;1 -->
<g id="node25" class="node">
<title>q26:&#45;1</title>
<ellipse fill="none" stroke="black" stroke-width="2" cx="6379.4" cy="-327.97" rx="42.79" ry="18"/>
<text text-anchor="middle" x="6379.4" y="-323.3" font-family="Times,serif" font-size="14.00">q26:&#45;1</text>
</g>
<!-- q24:&#45;1&#45;&gt;q26:&#45;1 -->
<g id="edge29" class="edge">
<title>q24:&#45;1&#45;&gt;q26:&#45;1</title>
<path fill="none" stroke="black" d="M6212.3,-327.97C6244.7,-327.97 6289.4,-327.97 6324.3,-327.97"/>
<polygon fill="black" stroke="black" points="6324.19,-331.47 6334.19,-327.97 6324.19,-324.47 6324.19,-331.47"/>
<text text-anchor="middle" x="6274" y="-349.17" font-family="Times,serif" font-size="14.00">RSET/250:&#45;1</text>
<text text-anchor="middle" x="6274" y="-331.92" font-family="Times,serif" font-size="14.00">b0 = OK</text>
</g>
<!-- q13:&#45;1 -->
<g id="node28" class="node">
<title>q13:&#45;1</title>
<ellipse fill="none" stroke="black" stroke-width="2" cx="3583.9" cy="-332.97" rx="42.79" ry="18"/>
<text text-anchor="middle" x="3583.9" y="-328.3" font-family="Times,serif" font-size="14.00">q13:&#45;1</text>
</g>
<!-- q10:&#45;1&#45;&gt;q13:&#45;1 -->
<g id="edge32" class="edge">
<title>q10:&#45;1&#45;&gt;q13:&#45;1</title>
<path fill="none" stroke="black" d="M3230,-332.97C3302.6,-332.97 3449.7,-332.97 3529.1,-332.97"/>
<polygon fill="black" stroke="black" points="3528.79,-336.47 3538.79,-332.97 3528.79,-329.47 3528.79,-336.47"/>
<text text-anchor="middle" x="3325.5" y="-354.17" font-family="Times,serif" font-size="14.00">λ/451:&#45;1</text>
<text text-anchor="middle" x="3325.5" y="-336.92" font-family="Times,serif" font-size="14.00">b0 = Timeout.</text>
</g>
</g>
</svg>
