<?xml version="1.0" encoding="UTF-8" standalone="no"?>
<!DOCTYPE svg PUBLIC "-//W3C//DTD SVG 1.1//EN"
 "http://www.w3.org/Graphics/SVG/1.1/DTD/svg11.dtd">
<!-- Generated by graphviz version 12.0.0 (20240803.0821)
 -->
<!-- Pages: 1 -->
<svg width="1576pt" height="462pt"
 viewBox="0.00 0.00 1576.10 462.00" xmlns="http://www.w3.org/2000/svg" xmlns:xlink="http://www.w3.org/1999/xlink">
<g id="graph0" class="graph" transform="scale(1 1) rotate(0) translate(4 458)">
<polygon fill="white" stroke="none" points="-4,4 -4,-458 1572.1,-458 1572.1,4 -4,4"/>
<!-- q19:0.0 -->
<g id="node1" class="node">
<title>q19:0.0</title>
<ellipse fill="none" stroke="black" stroke-width="2" cx="1009.2" cy="-436" rx="49.1" ry="18"/>
<text text-anchor="middle" x="1009.2" y="-431.32" font-family="Times,serif" font-size="14.00">q19:0.0</text>
</g>
<!-- q23:1.0 -->
<g id="node2" class="node">
<title>q23:1.0</title>
<ellipse fill="none" stroke="black" stroke-width="2" cx="1280.2" cy="-436" rx="49.1" ry="18"/>
<text text-anchor="middle" x="1280.2" y="-431.32" font-family="Times,serif" font-size="14.00">q23:1.0</text>
</g>
<!-- q19:0.0&#45;&gt;q23:1.0 -->
<g id="edge1" class="edge">
<title>q19:0.0&#45;&gt;q23:1.0</title>
<path fill="none" stroke="black" d="M1059.3,-436C1104.2,-436 1170.9,-436 1219,-436"/>
<polygon fill="black" stroke="black" points="1218.99,-439.5 1228.99,-436 1218.99,-432.5 1218.99,-439.5"/>
<text text-anchor="middle" x="1141.6" y="-439.94" font-family="Times,serif" font-size="14.00">QUIT/221:1.0</text>
</g>
<!-- q16:0.0 -->
<g id="node3" class="node">
<title>q16:0.0</title>
<ellipse fill="none" stroke="black" stroke-width="2" cx="1009.2" cy="-293" rx="49.1" ry="18"/>
<text text-anchor="middle" x="1009.2" y="-288.32" font-family="Times,serif" font-size="14.00">q16:0.0</text>
</g>
<!-- q16:0.0&#45;&gt;q16:0.0 -->
<g id="edge2" class="edge">
<title>q16:0.0&#45;&gt;q16:0.0</title>
<path fill="none" stroke="black" d="M985.96,-309.66C980.79,-319.62 988.54,-329 1009.2,-329 1021.5,-329 1029.2,-325.69 1032.4,-320.92"/>
<polygon fill="black" stroke="black" points="1035.9,-321.2 1032.49,-311.17 1028.9,-321.14 1035.9,-321.2"/>
<text text-anchor="middle" x="1009.2" y="-332.94" font-family="Times,serif" font-size="14.00">content/λ:0.962</text>
</g>
<!-- q20:0.0 -->
<g id="node4" class="node">
<title>q20:0.0</title>
<ellipse fill="none" stroke="black" stroke-width="2" cx="1280.2" cy="-313" rx="49.1" ry="18"/>
<text text-anchor="middle" x="1280.2" y="-308.32" font-family="Times,serif" font-size="14.00">q20:0.0</text>
</g>
<!-- q16:0.0&#45;&gt;q20:0.0 -->
<g id="edge3" class="edge">
<title>q16:0.0&#45;&gt;q20:0.0</title>
<path fill="none" stroke="black" d="M1058.3,-296.58C1103.5,-299.94 1171.3,-304.97 1219.8,-308.58"/>
<polygon fill="black" stroke="black" points="1219.36,-312.06 1229.59,-309.31 1219.88,-305.08 1219.36,-312.06"/>
<text text-anchor="middle" x="1141.6" y="-310.94" font-family="Times,serif" font-size="14.00">content/554:0.002</text>
</g>
<!-- q21:0.0 -->
<g id="node5" class="node">
<title>q21:0.0</title>
<ellipse fill="none" stroke="black" stroke-width="2" cx="1280.2" cy="-259" rx="49.1" ry="18"/>
<text text-anchor="middle" x="1280.2" y="-254.32" font-family="Times,serif" font-size="14.00">q21:0.0</text>
</g>
<!-- q16:0.0&#45;&gt;q21:0.0 -->
<g id="edge4" class="edge">
<title>q16:0.0&#45;&gt;q21:0.0</title>
<path fill="none" stroke="black" d="M1050.2,-282.12C1058.8,-280.09 1067.8,-278.16 1076.3,-276.75 1124.1,-268.84 1178.7,-264.32 1219.3,-261.82"/>
<polygon fill="black" stroke="black" points="1219.31,-265.33 1229.09,-261.24 1218.9,-258.34 1219.31,-265.33"/>
<text text-anchor="middle" x="1141.6" y="-279.94" font-family="Times,serif" font-size="14.00">content/250:0.036</text>
</g>
<!-- q24:1.0 -->
<g id="node6" class="node">
<title>q24:1.0</title>
<ellipse fill="none" stroke="black" stroke-width="2" cx="1519" cy="-313" rx="49.1" ry="18"/>
<text text-anchor="middle" x="1519" y="-308.32" font-family="Times,serif" font-size="14.00">q24:1.0</text>
</g>
<!-- q20:0.0&#45;&gt;q24:1.0 -->
<g id="edge5" class="edge">
<title>q20:0.0&#45;&gt;q24:1.0</title>
<path fill="none" stroke="black" d="M1330.3,-313C1367.3,-313 1418.2,-313 1457.7,-313"/>
<polygon fill="black" stroke="black" points="1457.49,-316.5 1467.49,-313 1457.49,-309.5 1457.49,-316.5"/>
<text text-anchor="middle" x="1402.8" y="-316.94" font-family="Times,serif" font-size="14.00">RSET/250:1.0</text>
</g>
<!-- q25:1.0 -->
<g id="node7" class="node">
<title>q25:1.0</title>
<ellipse fill="none" stroke="black" stroke-width="2" cx="1519" cy="-259" rx="49.1" ry="18"/>
<text text-anchor="middle" x="1519" y="-254.32" font-family="Times,serif" font-size="14.00">q25:1.0</text>
</g>
<!-- q21:0.0&#45;&gt;q25:1.0 -->
<g id="edge6" class="edge">
<title>q21:0.0&#45;&gt;q25:1.0</title>
<path fill="none" stroke="black" d="M1330.3,-259C1367.3,-259 1418.2,-259 1457.7,-259"/>
<polygon fill="black" stroke="black" points="1457.49,-262.5 1467.49,-259 1457.49,-255.5 1457.49,-262.5"/>
<text text-anchor="middle" x="1402.8" y="-262.94" font-family="Times,serif" font-size="14.00">QUIT/221:1.0</text>
</g>
<!-- q2:0.0 -->
<g id="node8" class="node">
<title>q2:0.0</title>
<ellipse fill="none" stroke="black" stroke-width="2" cx="491.01" cy="-50" rx="42.79" ry="18"/>
<text text-anchor="middle" x="491.01" y="-45.33" font-family="Times,serif" font-size="14.00">q2:0.0</text>
</g>
<!-- q6:0.0 -->
<g id="node9" class="node">
<title>q6:0.0</title>
<ellipse fill="none" stroke="black" stroke-width="2" cx="744.49" cy="-131" rx="42.79" ry="18"/>
<text text-anchor="middle" x="744.49" y="-126.33" font-family="Times,serif" font-size="14.00">q6:0.0</text>
</g>
<!-- q2:0.0&#45;&gt;q6:0.0 -->
<g id="edge7" class="edge">
<title>q2:0.0&#45;&gt;q6:0.0</title>
<path fill="none" stroke="black" d="M522.3,-63.23C528.73,-67.02 535.09,-71.61 540.12,-77 552.87,-90.66 542.77,-104.34 558.12,-115 597.23,-142.18 652.78,-143.36 692.86,-139.47"/>
<polygon fill="black" stroke="black" points="693.2,-142.95 702.75,-138.36 692.42,-136 693.2,-142.95"/>
<text text-anchor="middle" x="617.74" y="-144.94" font-family="Times,serif" font-size="14.00">AUTH/535:0.049</text>
</g>
<!-- q5:0.0 -->
<g id="node10" class="node">
<title>q5:0.0</title>
<ellipse fill="none" stroke="black" stroke-width="2" cx="744.49" cy="-18" rx="42.79" ry="18"/>
<text text-anchor="middle" x="744.49" y="-13.32" font-family="Times,serif" font-size="14.00">q5:0.0</text>
</g>
<!-- q2:0.0&#45;&gt;q5:0.0 -->
<g id="edge8" class="edge">
<title>q2:0.0&#45;&gt;q5:0.0</title>
<path fill="none" stroke="black" d="M523.49,-37.46C534.3,-33.68 546.58,-29.95 558.12,-27.75 602.01,-19.37 652.74,-17.21 690.02,-16.99"/>
<polygon fill="black" stroke="black" points="689.63,-20.49 699.63,-16.98 689.62,-13.49 689.63,-20.49"/>
<text text-anchor="middle" x="617.74" y="-31.95" font-family="Times,serif" font-size="14.00">AUTH/235:0.947</text>
</g>
<!-- q4:0.0 -->
<g id="node11" class="node">
<title>q4:0.0</title>
<ellipse fill="none" stroke="black" stroke-width="2" cx="744.49" cy="-77" rx="42.79" ry="18"/>
<text text-anchor="middle" x="744.49" y="-72.33" font-family="Times,serif" font-size="14.00">q4:0.0</text>
</g>
<!-- q2:0.0&#45;&gt;q4:0.0 -->
<g id="edge9" class="edge">
<title>q2:0.0&#45;&gt;q4:0.0</title>
<path fill="none" stroke="black" d="M534.64,-48.88C572.4,-48.57 628.9,-49.8 677.37,-57.75 684.41,-58.91 691.77,-60.57 698.91,-62.44"/>
<polygon fill="black" stroke="black" points="697.85,-65.78 708.42,-65.1 699.73,-59.04 697.85,-65.78"/>
<text text-anchor="middle" x="617.74" y="-61.95" font-family="Times,serif" font-size="14.00">AUTH/λ:0.004</text>
</g>
<!-- q9:0.0 -->
<g id="node12" class="node">
<title>q9:0.0</title>
<ellipse fill="none" stroke="black" stroke-width="2" cx="1009.2" cy="-163" rx="42.79" ry="18"/>
<text text-anchor="middle" x="1009.2" y="-158.32" font-family="Times,serif" font-size="14.00">q9:0.0</text>
</g>
<!-- q6:0.0&#45;&gt;q9:0.0 -->
<g id="edge10" class="edge">
<title>q6:0.0&#45;&gt;q9:0.0</title>
<path fill="none" stroke="black" d="M786.54,-136C832.2,-141.56 906.07,-150.56 955.86,-156.62"/>
<polygon fill="black" stroke="black" points="955.18,-160.06 965.53,-157.8 956.02,-153.11 955.18,-160.06"/>
<text text-anchor="middle" x="876.87" y="-157.94" font-family="Times,serif" font-size="14.00">AUTH/334:1.0</text>
</g>
<!-- q8:0.0 -->
<g id="node13" class="node">
<title>q8:0.0</title>
<ellipse fill="none" stroke="black" stroke-width="2" cx="1009.2" cy="-18" rx="42.79" ry="18"/>
<text text-anchor="middle" x="1009.2" y="-13.32" font-family="Times,serif" font-size="14.00">q8:0.0</text>
</g>
<!-- q5:0.0&#45;&gt;q8:0.0 -->
<g id="edge11" class="edge">
<title>q5:0.0&#45;&gt;q8:0.0</title>
<path fill="none" stroke="black" d="M788,-18C833.31,-18 905.17,-18 954.4,-18"/>
<polygon fill="black" stroke="black" points="954.27,-21.5 964.27,-18 954.27,-14.5 954.27,-21.5"/>
<text text-anchor="middle" x="876.87" y="-21.95" font-family="Times,serif" font-size="14.00">MAIL/553:0.013</text>
</g>
<!-- q7:0.0 -->
<g id="node14" class="node">
<title>q7:0.0</title>
<ellipse fill="none" stroke="black" stroke-width="2" cx="1009.2" cy="-104" rx="42.79" ry="18"/>
<text text-anchor="middle" x="1009.2" y="-99.33" font-family="Times,serif" font-size="14.00">q7:0.0</text>
</g>
<!-- q5:0.0&#45;&gt;q7:0.0 -->
<g id="edge12" class="edge">
<title>q5:0.0&#45;&gt;q7:0.0</title>
<path fill="none" stroke="black" d="M781.08,-28.13C790.94,-30.82 801.67,-33.63 811.62,-36 869.21,-49.73 887.14,-40.79 942.12,-62.75 954.24,-67.59 966.61,-74.64 977.32,-81.55"/>
<polygon fill="black" stroke="black" points="975.12,-84.29 985.38,-86.94 979.02,-78.47 975.12,-84.29"/>
<text text-anchor="middle" x="876.87" y="-65.95" font-family="Times,serif" font-size="14.00">MAIL/250:0.987</text>
</g>
<!-- q4:0.0&#45;&gt;q7:0.0 -->
<g id="edge13" class="edge">
<title>q4:0.0&#45;&gt;q7:0.0</title>
<path fill="none" stroke="black" d="M787.12,-81.28C832.67,-85.96 905.78,-93.47 955.35,-98.57"/>
<polygon fill="black" stroke="black" points="954.98,-102.05 965.28,-99.59 955.69,-95.08 954.98,-102.05"/>
<text text-anchor="middle" x="876.87" y="-99.95" font-family="Times,serif" font-size="14.00">MAIL/250:1.0</text>
</g>
<!-- q12:0.75 -->
<g id="node15" class="node">
<title>q12:0.75</title>
<ellipse fill="none" stroke="black" stroke-width="2" cx="1280.2" cy="-163" rx="55.42" ry="18"/>
<text text-anchor="middle" x="1280.2" y="-158.32" font-family="Times,serif" font-size="14.00">q12:0.75</text>
</g>
<!-- q9:0.0&#45;&gt;q12:0.75 -->
<g id="edge14" class="edge">
<title>q9:0.0&#45;&gt;q12:0.75</title>
<path fill="none" stroke="black" d="M1052.8,-163C1095.9,-163 1162.9,-163 1212.9,-163"/>
<polygon fill="black" stroke="black" points="1212.69,-166.5 1222.69,-163 1212.69,-159.5 1212.69,-166.5"/>
<text text-anchor="middle" x="1141.6" y="-166.94" font-family="Times,serif" font-size="14.00">content/535:1.0</text>
</g>
<!-- q11:1.0 -->
<g id="node16" class="node">
<title>q11:1.0</title>
<ellipse fill="none" stroke="black" stroke-width="2" cx="1280.2" cy="-18" rx="49.1" ry="18"/>
<text text-anchor="middle" x="1280.2" y="-13.32" font-family="Times,serif" font-size="14.00">q11:1.0</text>
</g>
<!-- q8:0.0&#45;&gt;q11:1.0 -->
<g id="edge15" class="edge">
<title>q8:0.0&#45;&gt;q11:1.0</title>
<path fill="none" stroke="black" d="M1052.8,-18C1097.7,-18 1168.5,-18 1219,-18"/>
<polygon fill="black" stroke="black" points="1218.89,-21.5 1228.89,-18 1218.89,-14.5 1218.89,-21.5"/>
<text text-anchor="middle" x="1141.6" y="-21.95" font-family="Times,serif" font-size="14.00">RSET/250:1.0</text>
</g>
<!-- q10:0.0 -->
<g id="node17" class="node">
<title>q10:0.0</title>
<ellipse fill="none" stroke="black" stroke-width="2" cx="491.01" cy="-243" rx="49.1" ry="18"/>
<text text-anchor="middle" x="491.01" y="-238.32" font-family="Times,serif" font-size="14.00">q10:0.0</text>
</g>
<!-- q7:0.0&#45;&gt;q10:0.0 -->
<g id="edge16" class="edge">
<title>q7:0.0&#45;&gt;q10:0.0</title>
<path fill="none" stroke="black" d="M969.33,-111.44C914.09,-122.08 818.78,-140.71 811.62,-144 802.41,-148.23 802.66,-153.43 793.62,-158 713.28,-198.59 610.81,-222.22 548.37,-233.86"/>
<polygon fill="black" stroke="black" points="547.89,-230.39 538.68,-235.62 549.14,-237.28 547.89,-230.39"/>
<text text-anchor="middle" x="744.49" y="-200.94" font-family="Times,serif" font-size="14.00">RCPT/250:1.0</text>
</g>
<!-- q15:1.0 -->
<g id="node18" class="node">
<title>q15:1.0</title>
<ellipse fill="none" stroke="black" stroke-width="2" cx="1519" cy="-163" rx="49.1" ry="18"/>
<text text-anchor="middle" x="1519" y="-158.32" font-family="Times,serif" font-size="14.00">q15:1.0</text>
</g>
<!-- q12:0.75&#45;&gt;q15:1.0 -->
<g id="edge17" class="edge">
<title>q12:0.75&#45;&gt;q15:1.0</title>
<path fill="none" stroke="black" d="M1336.5,-163C1372.9,-163 1420.5,-163 1457.9,-163"/>
<polygon fill="black" stroke="black" points="1457.59,-166.5 1467.59,-163 1457.59,-159.5 1457.59,-166.5"/>
<text text-anchor="middle" x="1402.8" y="-166.94" font-family="Times,serif" font-size="14.00">λ/451:0.25</text>
</g>
<!-- q13:0.0 -->
<g id="node19" class="node">
<title>q13:0.0</title>
<ellipse fill="none" stroke="black" stroke-width="2" cx="744.49" cy="-243" rx="49.1" ry="18"/>
<text text-anchor="middle" x="744.49" y="-238.32" font-family="Times,serif" font-size="14.00">q13:0.0</text>
</g>
<!-- q10:0.0&#45;&gt;q13:0.0 -->
<g id="edge18" class="edge">
<title>q10:0.0&#45;&gt;q13:0.0</title>
<path fill="none" stroke="black" d="M541.1,-243C581.78,-243 639.76,-243 683.24,-243"/>
<polygon fill="black" stroke="black" points="683.02,-246.5 693.02,-243 683.02,-239.5 683.02,-246.5"/>
<text text-anchor="middle" x="617.74" y="-246.94" font-family="Times,serif" font-size="14.00">RCPT/250:0.608</text>
</g>
<!-- q14:0.0 -->
<g id="node20" class="node">
<title>q14:0.0</title>
<ellipse fill="none" stroke="black" stroke-width="2" cx="744.49" cy="-382" rx="49.1" ry="18"/>
<text text-anchor="middle" x="744.49" y="-377.32" font-family="Times,serif" font-size="14.00">q14:0.0</text>
</g>
<!-- q10:0.0&#45;&gt;q14:0.0 -->
<g id="edge19" class="edge">
<title>q10:0.0&#45;&gt;q14:0.0</title>
<path fill="none" stroke="black" d="M519.89,-258.41C565.11,-283.4 654.54,-332.83 705.53,-361.02"/>
<polygon fill="black" stroke="black" points="703.72,-364.02 714.16,-365.79 707.1,-357.89 703.72,-364.02"/>
<text text-anchor="middle" x="617.74" y="-347.94" font-family="Times,serif" font-size="14.00">DATA/354:0.392</text>
</g>
<!-- q13:0.0&#45;&gt;q16:0.0 -->
<g id="edge20" class="edge">
<title>q13:0.0&#45;&gt;q16:0.0</title>
<path fill="none" stroke="black" d="M783.4,-254.76C792.58,-257.37 802.41,-259.96 811.62,-262 857.98,-272.28 911.23,-280.45 950.6,-285.82"/>
<polygon fill="black" stroke="black" points="949.96,-289.27 960.34,-287.13 950.89,-282.33 949.96,-289.27"/>
<text text-anchor="middle" x="876.87" y="-287.94" font-family="Times,serif" font-size="14.00">DATA/354:0.837</text>
</g>
<!-- q13:0.0&#45;&gt;q7:0.0 -->
<g id="edge21" class="edge">
<title>q13:0.0&#45;&gt;q7:0.0</title>
<path fill="none" stroke="black" d="M780.43,-229.98C790.48,-226.29 801.46,-222.31 811.62,-218.75 869.34,-198.49 896.57,-215.84 942.12,-175 956.33,-162.26 947.7,-150.5 960.12,-136 963.6,-131.93 967.73,-128.16 972.08,-124.75"/>
<polygon fill="black" stroke="black" points="973.83,-127.8 979.95,-119.15 969.77,-122.1 973.83,-127.8"/>
<text text-anchor="middle" x="876.87" y="-221.94" font-family="Times,serif" font-size="14.00">RCPT/250:0.021</text>
</g>
<!-- q17:1.0 -->
<g id="node21" class="node">
<title>q17:1.0</title>
<ellipse fill="none" stroke="black" stroke-width="2" cx="1009.2" cy="-239" rx="49.1" ry="18"/>
<text text-anchor="middle" x="1009.2" y="-234.32" font-family="Times,serif" font-size="14.00">q17:1.0</text>
</g>
<!-- q13:0.0&#45;&gt;q17:1.0 -->
<g id="edge22" class="edge">
<title>q13:0.0&#45;&gt;q17:1.0</title>
<path fill="none" stroke="black" d="M794.29,-242.26C837.66,-241.6 901.22,-240.63 947.79,-239.92"/>
<polygon fill="black" stroke="black" points="947.78,-243.42 957.73,-239.77 947.67,-236.42 947.78,-243.42"/>
<text text-anchor="middle" x="876.87" y="-244.94" font-family="Times,serif" font-size="14.00">DATA/550:0.142</text>
</g>
<!-- q14:0.0&#45;&gt;q19:0.0 -->
<g id="edge23" class="edge">
<title>q14:0.0&#45;&gt;q19:0.0</title>
<path fill="none" stroke="black" d="M781.96,-394.59C791.53,-397.62 801.9,-400.65 811.62,-403 857.86,-414.16 911.11,-422.85 950.52,-428.5"/>
<polygon fill="black" stroke="black" points="949.88,-431.94 960.27,-429.88 950.86,-425.01 949.88,-431.94"/>
<text text-anchor="middle" x="876.87" y="-429.94" font-family="Times,serif" font-size="14.00">content/250:0.145</text>
</g>
<!-- q14:0.0&#45;&gt;q14:0.0 -->
<g id="edge24" class="edge">
<title>q14:0.0&#45;&gt;q14:0.0</title>
<path fill="none" stroke="black" d="M722.21,-398.66C717.26,-408.62 724.69,-418 744.49,-418 756.25,-418 763.65,-414.69 766.68,-409.92"/>
<polygon fill="black" stroke="black" points="770.18,-410.2 766.76,-400.17 763.18,-410.15 770.18,-410.2"/>
<text text-anchor="middle" x="744.49" y="-421.94" font-family="Times,serif" font-size="14.00">content/λ:0.448</text>
</g>
<!-- q18:0.0 -->
<g id="node22" class="node">
<title>q18:0.0</title>
<ellipse fill="none" stroke="black" stroke-width="2" cx="1009.2" cy="-382" rx="49.1" ry="18"/>
<text text-anchor="middle" x="1009.2" y="-377.32" font-family="Times,serif" font-size="14.00">q18:0.0</text>
</g>
<!-- q14:0.0&#45;&gt;q18:0.0 -->
<g id="edge25" class="edge">
<title>q14:0.0&#45;&gt;q18:0.0</title>
<path fill="none" stroke="black" d="M794.29,-382C837.66,-382 901.22,-382 947.79,-382"/>
<polygon fill="black" stroke="black" points="947.73,-385.5 957.73,-382 947.73,-378.5 947.73,-385.5"/>
<text text-anchor="middle" x="876.87" y="-385.94" font-family="Times,serif" font-size="14.00">content/554:0.406</text>
</g>
<!-- q22:1.0 -->
<g id="node25" class="node">
<title>q22:1.0</title>
<ellipse fill="none" stroke="black" stroke-width="2" cx="1280.2" cy="-382" rx="49.1" ry="18"/>
<text text-anchor="middle" x="1280.2" y="-377.32" font-family="Times,serif" font-size="14.00">q22:1.0</text>
</g>
<!-- q18:0.0&#45;&gt;q22:1.0 -->
<g id="edge29" class="edge">
<title>q18:0.0&#45;&gt;q22:1.0</title>
<path fill="none" stroke="black" d="M1059.3,-382C1104.2,-382 1170.9,-382 1219,-382"/>
<polygon fill="black" stroke="black" points="1218.99,-385.5 1228.99,-382 1218.99,-378.5 1218.99,-385.5"/>
<text text-anchor="middle" x="1141.6" y="-385.94" font-family="Times,serif" font-size="14.00">RSET/250:1.0</text>
</g>
<!-- q1:0.0 -->
<g id="node23" class="node">
<title>q1:0.0</title>
<ellipse fill="none" stroke="black" stroke-width="2" cx="243.87" cy="-77" rx="42.79" ry="18"/>
<text text-anchor="middle" x="243.87" y="-72.33" font-family="Times,serif" font-size="14.00">q1:0.0</text>
</g>
<!-- q1:0.0&#45;&gt;q2:0.0 -->
<g id="edge26" class="edge">
<title>q1:0.0&#45;&gt;q2:0.0</title>
<path fill="none" stroke="black" d="M279.7,-66.23C287.82,-64.08 296.49,-62.08 304.66,-60.75 348.63,-53.58 399.14,-51.02 436.32,-50.18"/>
<polygon fill="black" stroke="black" points="435.96,-53.69 445.9,-50 435.83,-46.69 435.96,-53.69"/>
<text text-anchor="middle" x="364.29" y="-63.95" font-family="Times,serif" font-size="14.00">EHLO/250:0.996</text>
</g>
<!-- q3:0.0 -->
<g id="node24" class="node">
<title>q3:0.0</title>
<ellipse fill="none" stroke="black" stroke-width="2" cx="491.01" cy="-104" rx="42.79" ry="18"/>
<text text-anchor="middle" x="491.01" y="-99.33" font-family="Times,serif" font-size="14.00">q3:0.0</text>
</g>
<!-- q1:0.0&#45;&gt;q3:0.0 -->
<g id="edge27" class="edge">
<title>q1:0.0&#45;&gt;q3:0.0</title>
<path fill="none" stroke="black" d="M286.18,-81.55C327.73,-86.13 391.95,-93.2 437.18,-98.18"/>
<polygon fill="black" stroke="black" points="436.71,-101.65 447.03,-99.27 437.48,-94.69 436.71,-101.65"/>
<text text-anchor="middle" x="364.29" y="-99.95" font-family="Times,serif" font-size="14.00">EHLO/λ:0.004</text>
</g>
<!-- q3:0.0&#45;&gt;q4:0.0 -->
<g id="edge28" class="edge">
<title>q3:0.0&#45;&gt;q4:0.0</title>
<path fill="none" stroke="black" d="M533.54,-99.54C576.62,-94.92 644.12,-87.67 690.9,-82.65"/>
<polygon fill="black" stroke="black" points="691.25,-86.13 700.81,-81.58 690.5,-79.17 691.25,-86.13"/>
<text text-anchor="middle" x="617.74" y="-99.95" font-family="Times,serif" font-size="14.00">AUTH/235:1.0</text>
</g>
<!-- q0:0.0 -->
<g id="node26" class="node">
<title>q0:0.0</title>
<ellipse fill="none" stroke="black" stroke-width="2" cx="50.79" cy="-77" rx="46.79" ry="46.79"/>
<ellipse fill="none" stroke="black" stroke-width="2" cx="50.79" cy="-77" rx="50.79" ry="50.79"/>
<text text-anchor="middle" x="50.79" y="-72.33" font-family="Times,serif" font-size="14.00">q0:0.0</text>
</g>
<!-- q0:0.0&#45;&gt;q1:0.0 -->
<g id="edge30" class="edge">
<title>q0:0.0&#45;&gt;q1:0.0</title>
<path fill="none" stroke="black" d="M98.53,-77C125.82,-77 160.37,-77 188.82,-77"/>
<polygon fill="black" stroke="black" points="188.69,-80.5 198.69,-77 188.69,-73.5 188.69,-80.5"/>
<text text-anchor="middle" x="149.33" y="-80.95" font-family="Times,serif" font-size="14.00">λ/220:1.0</text>
</g>
</g>
</svg>
