<?xml version="1.0" encoding="UTF-8" standalone="no"?>
<!DOCTYPE svg PUBLIC "-//W3C//DTD SVG 1.1//EN"
 "http://www.w3.org/Graphics/SVG/1.1/DTD/svg11.dtd">
<!-- Generated by graphviz version 12.0.0 (20240803.0821)
 -->
<!-- Pages: 1 -->
<svg width="2275pt" height="274pt"
 viewBox="0.00 0.00 2275.30 274.00" xmlns="http://www.w3.org/2000/svg" xmlns:xlink="http://www.w3.org/1999/xlink">
<g id="graph0" class="graph" transform="scale(1 1) rotate(0) translate(4 270)">
<polygon fill="white" stroke="none" points="-4,4 -4,-270 2271.3,-270 2271.3,4 -4,4"/>
<!-- q10:0.0 -->
<g id="node1" class="node">
<title>q10:0.0</title>
<ellipse fill="none" stroke="black" stroke-width="2" cx="1199.6" cy="-143" rx="49.1" ry="18"/>
<text text-anchor="middle" x="1199.6" y="-138.32" font-family="Times,serif" font-size="14.00">q10:0.0</text>
</g>
<!-- q14:0.0 -->
<g id="node2" class="node">
<title>q14:0.0</title>
<ellipse fill="none" stroke="black" stroke-width="2" cx="1456.3" cy="-147" rx="49.1" ry="18"/>
<text text-anchor="middle" x="1456.3" y="-142.32" font-family="Times,serif" font-size="14.00">q14:0.0</text>
</g>
<!-- q10:0.0&#45;&gt;q14:0.0 -->
<g id="edge1" class="edge">
<title>q10:0.0&#45;&gt;q14:0.0</title>
<path fill="none" stroke="black" d="M1249.4,-143.77C1291,-144.42 1350.9,-145.36 1395.4,-146.06"/>
<polygon fill="black" stroke="black" points="1395.13,-149.56 1405.19,-146.22 1395.24,-142.56 1395.13,-149.56"/>
<text text-anchor="middle" x="1331.1" y="-149.94" font-family="Times,serif" font-size="14.00">RCPT/250:0.703</text>
</g>
<!-- q13:0.0 -->
<g id="node3" class="node">
<title>q13:0.0</title>
<ellipse fill="none" stroke="black" stroke-width="2" cx="1456.3" cy="-58" rx="49.1" ry="18"/>
<text text-anchor="middle" x="1456.3" y="-53.33" font-family="Times,serif" font-size="14.00">q13:0.0</text>
</g>
<!-- q10:0.0&#45;&gt;q13:0.0 -->
<g id="edge2" class="edge">
<title>q10:0.0&#45;&gt;q13:0.0</title>
<path fill="none" stroke="black" d="M1237.6,-130.64C1282.7,-115.62 1358.7,-90.23 1408,-73.8"/>
<polygon fill="black" stroke="black" points="1408.88,-77.2 1417.26,-70.72 1406.67,-70.56 1408.88,-77.2"/>
<text text-anchor="middle" x="1331.1" y="-121.95" font-family="Times,serif" font-size="14.00">DATA/354:0.297</text>
</g>
<!-- q17:0.0 -->
<g id="node4" class="node">
<title>q17:0.0</title>
<ellipse fill="none" stroke="black" stroke-width="2" cx="1721" cy="-194" rx="49.1" ry="18"/>
<text text-anchor="middle" x="1721" y="-189.32" font-family="Times,serif" font-size="14.00">q17:0.0</text>
</g>
<!-- q14:0.0&#45;&gt;q17:0.0 -->
<g id="edge3" class="edge">
<title>q14:0.0&#45;&gt;q17:0.0</title>
<path fill="none" stroke="black" d="M1496.3,-158.44C1505.2,-160.81 1514.6,-163.15 1523.4,-165 1569.7,-174.67 1622.7,-182.3 1662.1,-187.3"/>
<polygon fill="black" stroke="black" points="1661.44,-190.74 1671.8,-188.51 1662.31,-183.8 1661.44,-190.74"/>
<text text-anchor="middle" x="1588.7" y="-188.94" font-family="Times,serif" font-size="14.00">DATA/354:0.733</text>
</g>
<!-- q18:1.0 -->
<g id="node5" class="node">
<title>q18:1.0</title>
<ellipse fill="none" stroke="black" stroke-width="2" cx="1721" cy="-140" rx="49.1" ry="18"/>
<text text-anchor="middle" x="1721" y="-135.32" font-family="Times,serif" font-size="14.00">q18:1.0</text>
</g>
<!-- q14:0.0&#45;&gt;q18:1.0 -->
<g id="edge4" class="edge">
<title>q14:0.0&#45;&gt;q18:1.0</title>
<path fill="none" stroke="black" d="M1506.1,-145.7C1549.5,-144.54 1613.1,-142.85 1659.6,-141.61"/>
<polygon fill="black" stroke="black" points="1659.68,-145.11 1669.59,-141.35 1659.5,-138.11 1659.68,-145.11"/>
<text text-anchor="middle" x="1588.7" y="-149.94" font-family="Times,serif" font-size="14.00">DATA/550:0.267</text>
</g>
<!-- q13:0.0&#45;&gt;q13:0.0 -->
<g id="edge5" class="edge">
<title>q13:0.0&#45;&gt;q13:0.0</title>
<path fill="none" stroke="black" d="M1434.3,-74.66C1429.4,-84.62 1436.8,-94 1456.3,-94 1468,-94 1475.3,-90.69 1478.3,-85.92"/>
<polygon fill="black" stroke="black" points="1481.8,-86.21 1478.39,-76.18 1474.8,-86.15 1481.8,-86.21"/>
<text text-anchor="middle" x="1456.3" y="-97.95" font-family="Times,serif" font-size="14.00">content/λ:0.521</text>
</g>
<!-- q16:0.0 -->
<g id="node6" class="node">
<title>q16:0.0</title>
<ellipse fill="none" stroke="black" stroke-width="2" cx="1721" cy="-72" rx="49.1" ry="18"/>
<text text-anchor="middle" x="1721" y="-67.33" font-family="Times,serif" font-size="14.00">q16:0.0</text>
</g>
<!-- q13:0.0&#45;&gt;q16:0.0 -->
<g id="edge6" class="edge">
<title>q13:0.0&#45;&gt;q16:0.0</title>
<path fill="none" stroke="black" d="M1505.8,-60.58C1549.4,-62.91 1613.6,-66.33 1660.4,-68.82"/>
<polygon fill="black" stroke="black" points="1660.11,-72.31 1670.29,-69.35 1660.49,-65.32 1660.11,-72.31"/>
<text text-anchor="middle" x="1588.7" y="-72.95" font-family="Times,serif" font-size="14.00">content/554:0.31</text>
</g>
<!-- q15:0.0 -->
<g id="node7" class="node">
<title>q15:0.0</title>
<ellipse fill="none" stroke="black" stroke-width="2" cx="1721" cy="-18" rx="49.1" ry="18"/>
<text text-anchor="middle" x="1721" y="-13.32" font-family="Times,serif" font-size="14.00">q15:0.0</text>
</g>
<!-- q13:0.0&#45;&gt;q15:0.0 -->
<g id="edge7" class="edge">
<title>q13:0.0&#45;&gt;q15:0.0</title>
<path fill="none" stroke="black" d="M1496.6,-46.78C1505.4,-44.55 1514.7,-42.39 1523.4,-40.75 1569.1,-32.19 1621.5,-26.32 1660.6,-22.69"/>
<polygon fill="black" stroke="black" points="1660.94,-26.17 1670.59,-21.79 1660.32,-19.2 1660.94,-26.17"/>
<text text-anchor="middle" x="1588.7" y="-44.95" font-family="Times,serif" font-size="14.00">content/250:0.169</text>
</g>
<!-- q17:0.0&#45;&gt;q17:0.0 -->
<g id="edge8" class="edge">
<title>q17:0.0&#45;&gt;q17:0.0</title>
<path fill="none" stroke="black" d="M1697.8,-210.66C1692.6,-220.62 1700.4,-230 1721,-230 1733.3,-230 1741,-226.69 1744.2,-221.92"/>
<polygon fill="black" stroke="black" points="1747.7,-222.2 1744.29,-212.17 1740.7,-222.14 1747.7,-222.2"/>
<text text-anchor="middle" x="1721" y="-233.94" font-family="Times,serif" font-size="14.00">content/λ:0.963</text>
</g>
<!-- q23:0.0 -->
<g id="node8" class="node">
<title>q23:0.0</title>
<ellipse fill="none" stroke="black" stroke-width="2" cx="1985.8" cy="-140" rx="49.1" ry="18"/>
<text text-anchor="middle" x="1985.8" y="-135.32" font-family="Times,serif" font-size="14.00">q23:0.0</text>
</g>
<!-- q17:0.0&#45;&gt;q23:0.0 -->
<g id="edge9" class="edge">
<title>q17:0.0&#45;&gt;q23:0.0</title>
<path fill="none" stroke="black" d="M1758.1,-181.35C1767.8,-178.25 1778.3,-175.14 1788.2,-172.75 1834.4,-161.54 1887.6,-152.92 1927,-147.35"/>
<polygon fill="black" stroke="black" points="1927.37,-150.83 1936.8,-146 1926.42,-143.9 1927.37,-150.83"/>
<text text-anchor="middle" x="1853.4" y="-175.94" font-family="Times,serif" font-size="14.00">content/250:0.035</text>
</g>
<!-- q22:0.0 -->
<g id="node9" class="node">
<title>q22:0.0</title>
<ellipse fill="none" stroke="black" stroke-width="2" cx="1985.8" cy="-248" rx="49.1" ry="18"/>
<text text-anchor="middle" x="1985.8" y="-243.32" font-family="Times,serif" font-size="14.00">q22:0.0</text>
</g>
<!-- q17:0.0&#45;&gt;q22:0.0 -->
<g id="edge10" class="edge">
<title>q17:0.0&#45;&gt;q22:0.0</title>
<path fill="none" stroke="black" d="M1758.5,-206.59C1768.1,-209.62 1778.4,-212.65 1788.2,-215 1834.4,-226.17 1887.6,-234.85 1927.1,-240.51"/>
<polygon fill="black" stroke="black" points="1926.41,-243.95 1936.8,-241.88 1927.39,-237.02 1926.41,-243.95"/>
<text text-anchor="middle" x="1853.4" y="-241.94" font-family="Times,serif" font-size="14.00">content/554:0.002</text>
</g>
<!-- q21:0.0 -->
<g id="node10" class="node">
<title>q21:0.0</title>
<ellipse fill="none" stroke="black" stroke-width="2" cx="1985.8" cy="-194" rx="49.1" ry="18"/>
<text text-anchor="middle" x="1985.8" y="-189.32" font-family="Times,serif" font-size="14.00">q21:0.0</text>
</g>
<!-- q17:0.0&#45;&gt;q21:0.0 -->
<g id="edge11" class="edge">
<title>q17:0.0&#45;&gt;q21:0.0</title>
<path fill="none" stroke="black" d="M1770.8,-194C1814.2,-194 1877.8,-194 1924.3,-194"/>
<polygon fill="black" stroke="black" points="1924.29,-197.5 1934.29,-194 1924.29,-190.5 1924.29,-197.5"/>
<text text-anchor="middle" x="1853.4" y="-197.94" font-family="Times,serif" font-size="14.00">content/550:0.0</text>
</g>
<!-- q20:1.0 -->
<g id="node11" class="node">
<title>q20:1.0</title>
<ellipse fill="none" stroke="black" stroke-width="2" cx="1985.8" cy="-72" rx="49.1" ry="18"/>
<text text-anchor="middle" x="1985.8" y="-67.33" font-family="Times,serif" font-size="14.00">q20:1.0</text>
</g>
<!-- q16:0.0&#45;&gt;q20:1.0 -->
<g id="edge12" class="edge">
<title>q16:0.0&#45;&gt;q20:1.0</title>
<path fill="none" stroke="black" d="M1770.8,-72C1814.2,-72 1877.8,-72 1924.3,-72"/>
<polygon fill="black" stroke="black" points="1924.29,-75.5 1934.29,-72 1924.29,-68.5 1924.29,-75.5"/>
<text text-anchor="middle" x="1853.4" y="-75.95" font-family="Times,serif" font-size="14.00">RSET/250:1.0</text>
</g>
<!-- q19:1.0 -->
<g id="node12" class="node">
<title>q19:1.0</title>
<ellipse fill="none" stroke="black" stroke-width="2" cx="1985.8" cy="-18" rx="49.1" ry="18"/>
<text text-anchor="middle" x="1985.8" y="-13.32" font-family="Times,serif" font-size="14.00">q19:1.0</text>
</g>
<!-- q15:0.0&#45;&gt;q19:1.0 -->
<g id="edge13" class="edge">
<title>q15:0.0&#45;&gt;q19:1.0</title>
<path fill="none" stroke="black" d="M1770.8,-18C1814.2,-18 1877.8,-18 1924.3,-18"/>
<polygon fill="black" stroke="black" points="1924.29,-21.5 1934.29,-18 1924.29,-14.5 1924.29,-21.5"/>
<text text-anchor="middle" x="1853.4" y="-21.95" font-family="Times,serif" font-size="14.00">QUIT/221:1.0</text>
</g>
<!-- q26:1.0 -->
<g id="node13" class="node">
<title>q26:1.0</title>
<ellipse fill="none" stroke="black" stroke-width="2" cx="2218.2" cy="-140" rx="49.1" ry="18"/>
<text text-anchor="middle" x="2218.2" y="-135.32" font-family="Times,serif" font-size="14.00">q26:1.0</text>
</g>
<!-- q23:0.0&#45;&gt;q26:1.0 -->
<g id="edge14" class="edge">
<title>q23:0.0&#45;&gt;q26:1.0</title>
<path fill="none" stroke="black" d="M2035.6,-140C2071.1,-140 2119.2,-140 2157,-140"/>
<polygon fill="black" stroke="black" points="2156.89,-143.5 2166.89,-140 2156.89,-136.5 2156.89,-143.5"/>
<text text-anchor="middle" x="2102" y="-143.94" font-family="Times,serif" font-size="14.00">QUIT/221:1.0</text>
</g>
<!-- q25:1.0 -->
<g id="node14" class="node">
<title>q25:1.0</title>
<ellipse fill="none" stroke="black" stroke-width="2" cx="2218.2" cy="-248" rx="49.1" ry="18"/>
<text text-anchor="middle" x="2218.2" y="-243.32" font-family="Times,serif" font-size="14.00">q25:1.0</text>
</g>
<!-- q22:0.0&#45;&gt;q25:1.0 -->
<g id="edge15" class="edge">
<title>q22:0.0&#45;&gt;q25:1.0</title>
<path fill="none" stroke="black" d="M2035.6,-248C2071.1,-248 2119.2,-248 2157,-248"/>
<polygon fill="black" stroke="black" points="2156.89,-251.5 2166.89,-248 2156.89,-244.5 2156.89,-251.5"/>
<text text-anchor="middle" x="2102" y="-251.94" font-family="Times,serif" font-size="14.00">RSET/250:1.0</text>
</g>
<!-- q24:1.0 -->
<g id="node15" class="node">
<title>q24:1.0</title>
<ellipse fill="none" stroke="black" stroke-width="2" cx="2218.2" cy="-194" rx="49.1" ry="18"/>
<text text-anchor="middle" x="2218.2" y="-189.32" font-family="Times,serif" font-size="14.00">q24:1.0</text>
</g>
<!-- q21:0.0&#45;&gt;q24:1.0 -->
<g id="edge16" class="edge">
<title>q21:0.0&#45;&gt;q24:1.0</title>
<path fill="none" stroke="black" d="M2035.6,-194C2071.1,-194 2119.2,-194 2157,-194"/>
<polygon fill="black" stroke="black" points="2156.89,-197.5 2166.89,-194 2156.89,-190.5 2156.89,-197.5"/>
<text text-anchor="middle" x="2102" y="-197.94" font-family="Times,serif" font-size="14.00">RSET/250:1.0</text>
</g>
<!-- q2:0.0 -->
<g id="node16" class="node">
<title>q2:0.0</title>
<ellipse fill="none" stroke="black" stroke-width="2" cx="484.7" cy="-177" rx="42.79" ry="18"/>
<text text-anchor="middle" x="484.7" y="-172.32" font-family="Times,serif" font-size="14.00">q2:0.0</text>
</g>
<!-- q5:0.0 -->
<g id="node17" class="node">
<title>q5:0.0</title>
<ellipse fill="none" stroke="black" stroke-width="2" cx="716.53" cy="-136" rx="42.79" ry="18"/>
<text text-anchor="middle" x="716.53" y="-131.32" font-family="Times,serif" font-size="14.00">q5:0.0</text>
</g>
<!-- q2:0.0&#45;&gt;q5:0.0 -->
<g id="edge17" class="edge">
<title>q2:0.0&#45;&gt;q5:0.0</title>
<path fill="none" stroke="black" d="M521.93,-167.14C529.67,-165.21 537.83,-163.3 545.49,-161.75 584.8,-153.78 629.67,-147.09 663.44,-142.52"/>
<polygon fill="black" stroke="black" points="663.5,-146.04 672.95,-141.26 662.58,-139.1 663.5,-146.04"/>
<text text-anchor="middle" x="600.62" y="-165.94" font-family="Times,serif" font-size="14.00">AUTH/235:0.95</text>
</g>
<!-- q4:0.0 -->
<g id="node18" class="node">
<title>q4:0.0</title>
<ellipse fill="none" stroke="black" stroke-width="2" cx="716.53" cy="-203" rx="42.79" ry="18"/>
<text text-anchor="middle" x="716.53" y="-198.32" font-family="Times,serif" font-size="14.00">q4:0.0</text>
</g>
<!-- q2:0.0&#45;&gt;q4:0.0 -->
<g id="edge18" class="edge">
<title>q2:0.0&#45;&gt;q4:0.0</title>
<path fill="none" stroke="black" d="M527.06,-181.68C565.09,-185.98 621.68,-192.38 662.93,-197.05"/>
<polygon fill="black" stroke="black" points="662.28,-200.5 672.62,-198.15 663.07,-193.54 662.28,-200.5"/>
<text text-anchor="middle" x="600.62" y="-199.94" font-family="Times,serif" font-size="14.00">AUTH/535:0.05</text>
</g>
<!-- q7:0.0 -->
<g id="node19" class="node">
<title>q7:0.0</title>
<ellipse fill="none" stroke="black" stroke-width="2" cx="952.86" cy="-143" rx="42.79" ry="18"/>
<text text-anchor="middle" x="952.86" y="-138.32" font-family="Times,serif" font-size="14.00">q7:0.0</text>
</g>
<!-- q5:0.0&#45;&gt;q7:0.0 -->
<g id="edge19" class="edge">
<title>q5:0.0&#45;&gt;q7:0.0</title>
<path fill="none" stroke="black" d="M759.97,-137.27C798.67,-138.42 856.03,-140.14 897.96,-141.39"/>
<polygon fill="black" stroke="black" points="897.74,-144.88 907.84,-141.68 897.95,-137.89 897.74,-144.88"/>
<text text-anchor="middle" x="834.7" y="-145.94" font-family="Times,serif" font-size="14.00">MAIL/250:0.987</text>
</g>
<!-- q8:0.0 -->
<g id="node20" class="node">
<title>q8:0.0</title>
<ellipse fill="none" stroke="black" stroke-width="2" cx="952.86" cy="-89" rx="42.79" ry="18"/>
<text text-anchor="middle" x="952.86" y="-84.33" font-family="Times,serif" font-size="14.00">q8:0.0</text>
</g>
<!-- q5:0.0&#45;&gt;q8:0.0 -->
<g id="edge20" class="edge">
<title>q5:0.0&#45;&gt;q8:0.0</title>
<path fill="none" stroke="black" d="M750.79,-124.29C759.36,-121.55 768.62,-118.83 777.32,-116.75 817.81,-107.08 864.4,-99.86 899.26,-95.22"/>
<polygon fill="black" stroke="black" points="899.63,-98.7 909.1,-93.94 898.73,-91.76 899.63,-98.7"/>
<text text-anchor="middle" x="834.7" y="-120.95" font-family="Times,serif" font-size="14.00">MAIL/553:0.013</text>
</g>
<!-- q6:0.0 -->
<g id="node21" class="node">
<title>q6:0.0</title>
<ellipse fill="none" stroke="black" stroke-width="2" cx="952.86" cy="-203" rx="42.79" ry="18"/>
<text text-anchor="middle" x="952.86" y="-198.32" font-family="Times,serif" font-size="14.00">q6:0.0</text>
</g>
<!-- q4:0.0&#45;&gt;q6:0.0 -->
<g id="edge21" class="edge">
<title>q4:0.0&#45;&gt;q6:0.0</title>
<path fill="none" stroke="black" d="M760.24,-203C798.97,-203 856.24,-203 898.08,-203"/>
<polygon fill="black" stroke="black" points="897.94,-206.5 907.94,-203 897.94,-199.5 897.94,-206.5"/>
<text text-anchor="middle" x="834.7" y="-206.94" font-family="Times,serif" font-size="14.00">AUTH/334:1.0</text>
</g>
<!-- q7:0.0&#45;&gt;q10:0.0 -->
<g id="edge22" class="edge">
<title>q7:0.0&#45;&gt;q10:0.0</title>
<path fill="none" stroke="black" d="M996.49,-143C1035.7,-143 1094.3,-143 1138.3,-143"/>
<polygon fill="black" stroke="black" points="1138.19,-146.5 1148.19,-143 1138.19,-139.5 1138.19,-146.5"/>
<text text-anchor="middle" x="1069.9" y="-146.94" font-family="Times,serif" font-size="14.00">RCPT/250:1.0</text>
</g>
<!-- q11:1.0 -->
<g id="node22" class="node">
<title>q11:1.0</title>
<ellipse fill="none" stroke="black" stroke-width="2" cx="1199.6" cy="-89" rx="49.1" ry="18"/>
<text text-anchor="middle" x="1199.6" y="-84.33" font-family="Times,serif" font-size="14.00">q11:1.0</text>
</g>
<!-- q8:0.0&#45;&gt;q11:1.0 -->
<g id="edge23" class="edge">
<title>q8:0.0&#45;&gt;q11:1.0</title>
<path fill="none" stroke="black" d="M996.49,-89C1035.7,-89 1094.3,-89 1138.3,-89"/>
<polygon fill="black" stroke="black" points="1138.19,-92.5 1148.19,-89 1138.19,-85.5 1138.19,-92.5"/>
<text text-anchor="middle" x="1069.9" y="-92.95" font-family="Times,serif" font-size="14.00">RSET/250:1.0</text>
</g>
<!-- q9:0.667 -->
<g id="node23" class="node">
<title>q9:0.667</title>
<ellipse fill="none" stroke="black" stroke-width="2" cx="1199.6" cy="-203" rx="55.42" ry="18"/>
<text text-anchor="middle" x="1199.6" y="-198.32" font-family="Times,serif" font-size="14.00">q9:0.667</text>
</g>
<!-- q6:0.0&#45;&gt;q9:0.667 -->
<g id="edge24" class="edge">
<title>q6:0.0&#45;&gt;q9:0.667</title>
<path fill="none" stroke="black" d="M996.49,-203C1033.9,-203 1089.1,-203 1132.3,-203"/>
<polygon fill="black" stroke="black" points="1132.09,-206.5 1142.09,-203 1132.09,-199.5 1132.09,-206.5"/>
<text text-anchor="middle" x="1069.9" y="-206.94" font-family="Times,serif" font-size="14.00">content/535:1.0</text>
</g>
<!-- q12:1.0 -->
<g id="node24" class="node">
<title>q12:1.0</title>
<ellipse fill="none" stroke="black" stroke-width="2" cx="1456.3" cy="-203" rx="49.1" ry="18"/>
<text text-anchor="middle" x="1456.3" y="-198.32" font-family="Times,serif" font-size="14.00">q12:1.0</text>
</g>
<!-- q9:0.667&#45;&gt;q12:1.0 -->
<g id="edge25" class="edge">
<title>q9:0.667&#45;&gt;q12:1.0</title>
<path fill="none" stroke="black" d="M1255.9,-203C1297,-203 1353.1,-203 1395.4,-203"/>
<polygon fill="black" stroke="black" points="1395.09,-206.5 1405.09,-203 1395.09,-199.5 1395.09,-206.5"/>
<text text-anchor="middle" x="1331.1" y="-206.94" font-family="Times,serif" font-size="14.00">λ/451:0.333</text>
</g>
<!-- q1:0.0 -->
<g id="node25" class="node">
<title>q1:0.0</title>
<ellipse fill="none" stroke="black" stroke-width="2" cx="243.87" cy="-150" rx="42.79" ry="18"/>
<text text-anchor="middle" x="243.87" y="-145.32" font-family="Times,serif" font-size="14.00">q1:0.0</text>
</g>
<!-- q1:0.0&#45;&gt;q2:0.0 -->
<g id="edge26" class="edge">
<title>q1:0.0&#45;&gt;q2:0.0</title>
<path fill="none" stroke="black" d="M286.2,-154.67C326.4,-159.22 387.62,-166.14 431.24,-171.07"/>
<polygon fill="black" stroke="black" points="430.65,-174.53 440.98,-172.17 431.43,-167.57 430.65,-174.53"/>
<text text-anchor="middle" x="364.29" y="-172.94" font-family="Times,serif" font-size="14.00">EHLO/250:0.992</text>
</g>
<!-- q3:0.0 -->
<g id="node26" class="node">
<title>q3:0.0</title>
<ellipse fill="none" stroke="black" stroke-width="2" cx="484.7" cy="-123" rx="42.79" ry="18"/>
<text text-anchor="middle" x="484.7" y="-118.33" font-family="Times,serif" font-size="14.00">q3:0.0</text>
</g>
<!-- q1:0.0&#45;&gt;q3:0.0 -->
<g id="edge27" class="edge">
<title>q1:0.0&#45;&gt;q3:0.0</title>
<path fill="none" stroke="black" d="M282.04,-140.91C289.49,-139.33 297.3,-137.84 304.66,-136.75 346.54,-130.53 394.37,-127.04 430.05,-125.14"/>
<polygon fill="black" stroke="black" points="429.87,-128.65 439.68,-124.65 429.51,-121.66 429.87,-128.65"/>
<text text-anchor="middle" x="364.29" y="-140.94" font-family="Times,serif" font-size="14.00">EHLO/λ:0.008</text>
</g>
<!-- q3:0.0&#45;&gt;q5:0.0 -->
<g id="edge28" class="edge">
<title>q3:0.0&#45;&gt;q5:0.0</title>
<path fill="none" stroke="black" d="M528.1,-120.87C562.58,-119.7 612.43,-119.26 655.74,-123.75 659.38,-124.13 663.12,-124.62 666.87,-125.2"/>
<polygon fill="black" stroke="black" points="666.13,-128.62 676.58,-126.89 667.33,-121.73 666.13,-128.62"/>
<text text-anchor="middle" x="600.62" y="-127.95" font-family="Times,serif" font-size="14.00">AUTH/235:1.0</text>
</g>
<!-- q0:0.0 -->
<g id="node27" class="node">
<title>q0:0.0</title>
<ellipse fill="none" stroke="black" stroke-width="2" cx="50.79" cy="-150" rx="46.79" ry="46.79"/>
<ellipse fill="none" stroke="black" stroke-width="2" cx="50.79" cy="-150" rx="50.79" ry="50.79"/>
<text text-anchor="middle" x="50.79" y="-145.32" font-family="Times,serif" font-size="14.00">q0:0.0</text>
</g>
<!-- q0:0.0&#45;&gt;q1:0.0 -->
<g id="edge29" class="edge">
<title>q0:0.0&#45;&gt;q1:0.0</title>
<path fill="none" stroke="black" d="M98.53,-150C125.82,-150 160.37,-150 188.82,-150"/>
<polygon fill="black" stroke="black" points="188.69,-153.5 198.69,-150 188.69,-146.5 188.69,-153.5"/>
<text text-anchor="middle" x="149.33" y="-153.94" font-family="Times,serif" font-size="14.00">λ/220:1.0</text>
</g>
</g>
</svg>
