<?xml version="1.0" encoding="UTF-8" standalone="no"?>
<!DOCTYPE svg PUBLIC "-//W3C//DTD SVG 1.1//EN"
 "http://www.w3.org/Graphics/SVG/1.1/DTD/svg11.dtd">
<!-- Generated by graphviz version 12.0.0 (20240803.0821)
 -->
<!-- Pages: 1 -->
<svg width="6584pt" height="710pt"
 viewBox="0.00 0.00 6584.00 709.88" xmlns="http://www.w3.org/2000/svg" xmlns:xlink="http://www.w3.org/1999/xlink">
<g id="graph0" class="graph" transform="scale(1 1) rotate(0) translate(4 705.88)">
<polygon fill="white" stroke="none" points="-4,4 -4,-705.88 6580,-705.88 6580,4 -4,4"/>
<!-- q21:0.0 -->
<g id="node1" class="node">
<title>q21:0.0</title>
<ellipse fill="none" stroke="black" stroke-width="2" cx="3170.1" cy="-266.13" rx="49.1" ry="18"/>
<text text-anchor="middle" x="3170.1" y="-261.46" font-family="Times,serif" font-size="14.00">q21:0.0</text>
</g>
<!-- q28:1.0 -->
<g id="node2" class="node">
<title>q28:1.0</title>
<ellipse fill="none" stroke="black" stroke-width="2" cx="4694" cy="-269.13" rx="49.1" ry="18"/>
<text text-anchor="middle" x="4694" y="-264.46" font-family="Times,serif" font-size="14.00">q28:1.0</text>
</g>
<!-- q21:0.0&#45;&gt;q28:1.0 -->
<g id="edge1" class="edge">
<title>q21:0.0&#45;&gt;q28:1.0</title>
<path fill="none" stroke="black" d="M3220,-266.23C3445.6,-266.68 4385.4,-268.52 4633,-269.01"/>
<polygon fill="black" stroke="black" points="4632.78,-272.51 4642.79,-269.03 4632.79,-265.51 4632.78,-272.51"/>
<text text-anchor="middle" x="3932" y="-289.33" font-family="Times,serif" font-size="14.00">RSET/250:1.0</text>
<text text-anchor="middle" x="3932" y="-272.08" font-family="Times,serif" font-size="14.00">b0 = OK</text>
</g>
<!-- q16:0.0 -->
<g id="node3" class="node">
<title>q16:0.0</title>
<ellipse fill="none" stroke="black" stroke-width="2" cx="2540.1" cy="-221.13" rx="49.1" ry="18"/>
<text text-anchor="middle" x="2540.1" y="-216.46" font-family="Times,serif" font-size="14.00">q16:0.0</text>
</g>
<!-- q16:0.0&#45;&gt;q21:0.0 -->
<g id="edge2" class="edge">
<title>q16:0.0&#45;&gt;q21:0.0</title>
<path fill="none" stroke="black" d="M2580.7,-231.98C2597.7,-236.21 2617.9,-240.62 2636.4,-243.13 2726.1,-255.31 2989.4,-262.29 3108.9,-264.93"/>
<polygon fill="black" stroke="black" points="3108.71,-268.42 3118.79,-265.14 3108.87,-261.42 3108.71,-268.42"/>
<text text-anchor="middle" x="2869.7" y="-268.08" font-family="Times,serif" font-size="14.00">content/554:0.005</text>
</g>
<!-- q23:0.0 -->
<g id="node4" class="node">
<title>q23:0.0</title>
<ellipse fill="none" stroke="black" stroke-width="2" cx="3170.1" cy="-108.13" rx="49.1" ry="18"/>
<text text-anchor="middle" x="3170.1" y="-103.46" font-family="Times,serif" font-size="14.00">q23:0.0</text>
</g>
<!-- q16:0.0&#45;&gt;q23:0.0 -->
<g id="edge3" class="edge">
<title>q16:0.0&#45;&gt;q23:0.0</title>
<path fill="none" stroke="black" d="M2560.4,-203.88C2576.8,-188.72 2600.5,-165.63 2618.4,-143.13 2627.7,-131.5 2623.4,-122.12 2636.4,-114.88 2716.2,-70.48 2989.6,-90.54 3110.6,-102.05"/>
<polygon fill="black" stroke="black" points="3110,-105.51 3120.29,-102.99 3110.68,-98.54 3110,-105.51"/>
<text text-anchor="middle" x="2869.7" y="-118.08" font-family="Times,serif" font-size="14.00">content/250:0.041</text>
</g>
<!-- q22:0.0 -->
<g id="node5" class="node">
<title>q22:0.0</title>
<ellipse fill="none" stroke="black" stroke-width="2" cx="3170.1" cy="-322.13" rx="49.1" ry="18"/>
<text text-anchor="middle" x="3170.1" y="-317.46" font-family="Times,serif" font-size="14.00">q22:0.0</text>
</g>
<!-- q16:0.0&#45;&gt;q22:0.0 -->
<g id="edge4" class="edge">
<title>q16:0.0&#45;&gt;q22:0.0</title>
<path fill="none" stroke="black" d="M2564.8,-237.48C2590.4,-254.98 2628.6,-280.6 2636.4,-283.13 2735.2,-315.13 3000.2,-292.12 3102.9,-306.63 3107.8,-307.32 3112.8,-308.2 3117.8,-309.17"/>
<polygon fill="black" stroke="black" points="3116.71,-312.52 3127.22,-311.15 3118.15,-305.67 3116.71,-312.52"/>
<text text-anchor="middle" x="2869.7" y="-327.33" font-family="Times,serif" font-size="14.00">content/550:0.001</text>
<text text-anchor="middle" x="2869.7" y="-310.08" font-family="Times,serif" font-size="14.00">b0 = Sender frequency limited.</text>
</g>
<!-- q24:0.0 -->
<g id="node6" class="node">
<title>q24:0.0</title>
<ellipse fill="none" stroke="black" stroke-width="2" cx="3170.1" cy="-185.13" rx="49.1" ry="18"/>
<text text-anchor="middle" x="3170.1" y="-180.46" font-family="Times,serif" font-size="14.00">q24:0.0</text>
</g>
<!-- q16:0.0&#45;&gt;q24:0.0 -->
<g id="edge5" class="edge">
<title>q16:0.0&#45;&gt;q24:0.0</title>
<path fill="none" stroke="black" d="M2586.6,-214.35C2602.3,-212.22 2620.1,-210.06 2636.4,-208.63 2807.4,-193.69 3010.1,-188.06 3108.9,-186.09"/>
<polygon fill="black" stroke="black" points="3108.65,-189.6 3118.59,-185.91 3108.52,-182.6 3108.65,-189.6"/>
<text text-anchor="middle" x="2869.7" y="-229.33" font-family="Times,serif" font-size="14.00">content/λ:0.954</text>
<text text-anchor="middle" x="2869.7" y="-212.08" font-family="Times,serif" font-size="14.00">a0 = b0</text>
</g>
<!-- q30:1.0 -->
<g id="node7" class="node">
<title>q30:1.0</title>
<ellipse fill="none" stroke="black" stroke-width="2" cx="4694" cy="-106.13" rx="49.1" ry="18"/>
<text text-anchor="middle" x="4694" y="-101.46" font-family="Times,serif" font-size="14.00">q30:1.0</text>
</g>
<!-- q23:0.0&#45;&gt;q30:1.0 -->
<g id="edge6" class="edge">
<title>q23:0.0&#45;&gt;q30:1.0</title>
<path fill="none" stroke="black" d="M3220,-108.07C3445.6,-107.77 4385.4,-106.54 4633,-106.21"/>
<polygon fill="black" stroke="black" points="4632.79,-109.71 4642.79,-106.2 4632.78,-102.71 4632.79,-109.71"/>
<text text-anchor="middle" x="3932" y="-111.08" font-family="Times,serif" font-size="14.00">QUIT/221:1.0</text>
</g>
<!-- q29:1.0 -->
<g id="node8" class="node">
<title>q29:1.0</title>
<ellipse fill="none" stroke="black" stroke-width="2" cx="4694" cy="-324.13" rx="49.1" ry="18"/>
<text text-anchor="middle" x="4694" y="-319.46" font-family="Times,serif" font-size="14.00">q29:1.0</text>
</g>
<!-- q22:0.0&#45;&gt;q29:1.0 -->
<g id="edge7" class="edge">
<title>q22:0.0&#45;&gt;q29:1.0</title>
<path fill="none" stroke="black" d="M3220,-322.2C3445.6,-322.5 4385.4,-323.73 4633,-324.05"/>
<polygon fill="black" stroke="black" points="4632.78,-327.55 4642.79,-324.06 4632.79,-320.55 4632.78,-327.55"/>
<text text-anchor="middle" x="3932" y="-344.33" font-family="Times,serif" font-size="14.00">RSET/250:1.0</text>
<text text-anchor="middle" x="3932" y="-327.08" font-family="Times,serif" font-size="14.00">a0 = b0</text>
</g>
<!-- q24:0.0&#45;&gt;q16:0.0 -->
<g id="edge8" class="edge">
<title>q24:0.0&#45;&gt;q16:0.0</title>
<path fill="none" stroke="black" d="M3146.5,-168.44C3134.3,-160.44 3118.5,-151.73 3102.9,-147.63 3052.8,-134.41 2685.5,-130.91 2636.4,-147.63 2608.7,-157.07 2582.8,-178.19 2565,-195.38"/>
<polygon fill="black" stroke="black" points="2562.6,-192.83 2557.97,-202.36 2567.53,-197.79 2562.6,-192.83"/>
<text text-anchor="middle" x="2869.7" y="-168.33" font-family="Times,serif" font-size="14.00">content/λ:0.97</text>
<text text-anchor="middle" x="2869.7" y="-151.08" font-family="Times,serif" font-size="14.00">a0 = b0</text>
</g>
<!-- q31:0.0 -->
<g id="node9" class="node">
<title>q31:0.0</title>
<ellipse fill="none" stroke="black" stroke-width="2" cx="4694" cy="-160.13" rx="49.1" ry="18"/>
<text text-anchor="middle" x="4694" y="-155.46" font-family="Times,serif" font-size="14.00">q31:0.0</text>
</g>
<!-- q24:0.0&#45;&gt;q31:0.0 -->
<g id="edge9" class="edge">
<title>q24:0.0&#45;&gt;q31:0.0</title>
<path fill="none" stroke="black" d="M3202,-170.5C3212.8,-166.09 3225.3,-161.84 3237.2,-159.63 3511.4,-108.56 4395.3,-145.94 4633.4,-157.21"/>
<polygon fill="black" stroke="black" points="4632.93,-160.69 4643.09,-157.66 4633.26,-153.69 4632.93,-160.69"/>
<text text-anchor="middle" x="3932" y="-180.33" font-family="Times,serif" font-size="14.00">content/554:0.001</text>
<text text-anchor="middle" x="3932" y="-163.08" font-family="Times,serif" font-size="14.00">b0 = DT:SPM 126 smtp10 NuRpCgAXIXf+MYBfJr+Adw&#45;&#45;.17258S2 1602236927 please see http://mail.163.com/help/help_spam_16.htm?ip=221.212.176.101&amp;hostid=smtp10&amp;time=1602236927</text>
</g>
<!-- q32:0.0 -->
<g id="node10" class="node">
<title>q32:0.0</title>
<ellipse fill="none" stroke="black" stroke-width="2" cx="4694" cy="-215.13" rx="49.1" ry="18"/>
<text text-anchor="middle" x="4694" y="-210.46" font-family="Times,serif" font-size="14.00">q32:0.0</text>
</g>
<!-- q24:0.0&#45;&gt;q32:0.0 -->
<g id="edge10" class="edge">
<title>q24:0.0&#45;&gt;q32:0.0</title>
<path fill="none" stroke="black" d="M3216.5,-192.06C3223.4,-192.9 3230.5,-193.62 3237.2,-194.13 3777.5,-234.66 4433.7,-222.04 4632.9,-216.87"/>
<polygon fill="black" stroke="black" points="4632.78,-220.37 4642.69,-216.61 4632.6,-213.37 4632.78,-220.37"/>
<text text-anchor="middle" x="3932" y="-226.08" font-family="Times,serif" font-size="14.00">content/250:0.029</text>
</g>
<!-- q34:1.0 -->
<g id="node11" class="node">
<title>q34:1.0</title>
<ellipse fill="none" stroke="black" stroke-width="2" cx="4958.7" cy="-159.13" rx="49.1" ry="18"/>
<text text-anchor="middle" x="4958.7" y="-154.46" font-family="Times,serif" font-size="14.00">q34:1.0</text>
</g>
<!-- q31:0.0&#45;&gt;q34:1.0 -->
<g id="edge11" class="edge">
<title>q31:0.0&#45;&gt;q34:1.0</title>
<path fill="none" stroke="black" d="M4743.8,-159.94C4787.2,-159.78 4850.7,-159.53 4897.3,-159.37"/>
<polygon fill="black" stroke="black" points="4897.2,-162.87 4907.19,-159.32 4897.17,-155.87 4897.2,-162.87"/>
<text text-anchor="middle" x="4826.4" y="-180.33" font-family="Times,serif" font-size="14.00">RSET/250:1.0</text>
<text text-anchor="middle" x="4826.4" y="-163.08" font-family="Times,serif" font-size="14.00">b0 = OK</text>
</g>
<!-- q35:1.0 -->
<g id="node12" class="node">
<title>q35:1.0</title>
<ellipse fill="none" stroke="black" stroke-width="2" cx="4958.7" cy="-217.13" rx="49.1" ry="18"/>
<text text-anchor="middle" x="4958.7" y="-212.46" font-family="Times,serif" font-size="14.00">q35:1.0</text>
</g>
<!-- q32:0.0&#45;&gt;q35:1.0 -->
<g id="edge12" class="edge">
<title>q32:0.0&#45;&gt;q35:1.0</title>
<path fill="none" stroke="black" d="M4743.8,-215.5C4787.2,-215.84 4850.7,-216.31 4897.3,-216.68"/>
<polygon fill="black" stroke="black" points="4897.16,-220.17 4907.19,-216.74 4897.21,-213.17 4897.16,-220.17"/>
<text text-anchor="middle" x="4826.4" y="-220.08" font-family="Times,serif" font-size="14.00">QUIT/221:1.0</text>
</g>
<!-- q13:0.0 -->
<g id="node13" class="node">
<title>q13:0.0</title>
<ellipse fill="none" stroke="black" stroke-width="2" cx="1664.1" cy="-327.14" rx="49.1" ry="18"/>
<text text-anchor="middle" x="1664.1" y="-322.46" font-family="Times,serif" font-size="14.00">q13:0.0</text>
</g>
<!-- q13:0.0&#45;&gt;q16:0.0 -->
<g id="edge13" class="edge">
<title>q13:0.0&#45;&gt;q16:0.0</title>
<path fill="none" stroke="black" d="M1672.8,-308.55C1682.8,-287.28 1702.4,-253.47 1731.2,-238.63 1797,-204.78 2302.6,-214.82 2478.8,-219.41"/>
<polygon fill="black" stroke="black" points="2478.5,-222.91 2488.59,-219.67 2478.68,-215.91 2478.5,-222.91"/>
<text text-anchor="middle" x="2087.4" y="-259.33" font-family="Times,serif" font-size="14.00">DATA/354:0.678</text>
<text text-anchor="middle" x="2087.4" y="-242.08" font-family="Times,serif" font-size="14.00">b0 = End data with &lt;CR&gt;&lt;LF&gt;.&lt;CR&gt;&lt;LF&gt;</text>
</g>
<!-- q17:1.0 -->
<g id="node14" class="node">
<title>q17:1.0</title>
<ellipse fill="none" stroke="black" stroke-width="2" cx="2540.1" cy="-301.14" rx="49.1" ry="18"/>
<text text-anchor="middle" x="2540.1" y="-296.46" font-family="Times,serif" font-size="14.00">q17:1.0</text>
</g>
<!-- q13:0.0&#45;&gt;q17:1.0 -->
<g id="edge14" class="edge">
<title>q13:0.0&#45;&gt;q17:1.0</title>
<path fill="none" stroke="black" d="M1698.5,-313.41C1708.8,-309.83 1720.3,-306.46 1731.2,-304.63 2008.7,-258.07 2347.5,-282.35 2481,-295.02"/>
<polygon fill="black" stroke="black" points="2480.4,-298.48 2490.69,-295.95 2481.07,-291.52 2480.4,-298.48"/>
<text text-anchor="middle" x="2087.4" y="-325.33" font-family="Times,serif" font-size="14.00">DATA/550:0.301</text>
<text text-anchor="middle" x="2087.4" y="-308.08" font-family="Times,serif" font-size="14.00">b0 in {&#39;too many message send today.&#39;, &#39;Sender frequency limited.&#39;}</text>
</g>
<!-- q7:0.0 -->
<g id="node15" class="node">
<title>q7:0.0</title>
<ellipse fill="none" stroke="black" stroke-width="2" cx="2540.1" cy="-444.14" rx="42.79" ry="18"/>
<text text-anchor="middle" x="2540.1" y="-439.46" font-family="Times,serif" font-size="14.00">q7:0.0</text>
</g>
<!-- q13:0.0&#45;&gt;q7:0.0 -->
<g id="edge15" class="edge">
<title>q13:0.0&#45;&gt;q7:0.0</title>
<path fill="none" stroke="black" d="M1688.1,-343.57C1700.3,-351.34 1715.9,-359.84 1731.2,-364.13 1883.7,-406.93 2291.2,-347.36 2443.7,-390.38 2466.9,-396.91 2490.4,-410.12 2508.3,-421.82"/>
<polygon fill="black" stroke="black" points="2506.18,-424.61 2516.44,-427.25 2510.07,-418.79 2506.18,-424.61"/>
<text text-anchor="middle" x="2087.4" y="-428.58" font-family="Times,serif" font-size="14.00">RCPT/250:0.021</text>
<text text-anchor="middle" x="2087.4" y="-411.33" font-family="Times,serif" font-size="14.00">a0 in {&#39;TO:&lt;1542110798@qq.com&gt;&#39;, &#39;TO:&lt;1542110795@qq.com&gt;&#39;, &#39;TO:&lt;1542110711@qq.com&gt;&#39;}</text>
<text text-anchor="middle" x="2087.4" y="-394.08" font-family="Times,serif" font-size="14.00">b0 = Mail OK</text>
</g>
<!-- q10:0.0 -->
<g id="node16" class="node">
<title>q10:0.0</title>
<ellipse fill="none" stroke="black" stroke-width="2" cx="3170.1" cy="-399.14" rx="49.1" ry="18"/>
<text text-anchor="middle" x="3170.1" y="-394.46" font-family="Times,serif" font-size="14.00">q10:0.0</text>
</g>
<!-- q7:0.0&#45;&gt;q10:0.0 -->
<g id="edge16" class="edge">
<title>q7:0.0&#45;&gt;q10:0.0</title>
<path fill="none" stroke="black" d="M2583.3,-441.11C2692.3,-433.29 2983.9,-412.39 3109.8,-403.38"/>
<polygon fill="black" stroke="black" points="3109.87,-406.88 3119.59,-402.67 3109.36,-399.9 3109.87,-406.88"/>
<text text-anchor="middle" x="2869.7" y="-457.33" font-family="Times,serif" font-size="14.00">RCPT/250:1.0</text>
<text text-anchor="middle" x="2869.7" y="-440.08" font-family="Times,serif" font-size="14.00">b0 in {&#39;Mail OK&#39;, &#39;ok&#39;}</text>
</g>
<!-- q10:0.0&#45;&gt;q13:0.0 -->
<g id="edge17" class="edge">
<title>q10:0.0&#45;&gt;q13:0.0</title>
<path fill="none" stroke="black" d="M3120.7,-396.91C3004.2,-391.61 2698.7,-377.76 2443.7,-367.13 2127.1,-353.92 2046.2,-373.75 1731.2,-339.13 1727.4,-338.72 1723.4,-338.21 1719.5,-337.62"/>
<polygon fill="black" stroke="black" points="1720.21,-334.19 1709.79,-336.12 1719.14,-341.11 1720.21,-334.19"/>
<text text-anchor="middle" x="2540.1" y="-395.33" font-family="Times,serif" font-size="14.00">RCPT/250:0.611</text>
<text text-anchor="middle" x="2540.1" y="-378.08" font-family="Times,serif" font-size="14.00">b0 in {&#39;Mail OK&#39;, &#39;ok&#39;}</text>
</g>
<!-- q14:0.0 -->
<g id="node17" class="node">
<title>q14:0.0</title>
<ellipse fill="none" stroke="black" stroke-width="2" cx="4694" cy="-399.14" rx="49.1" ry="18"/>
<text text-anchor="middle" x="4694" y="-394.46" font-family="Times,serif" font-size="14.00">q14:0.0</text>
</g>
<!-- q10:0.0&#45;&gt;q14:0.0 -->
<g id="edge18" class="edge">
<title>q10:0.0&#45;&gt;q14:0.0</title>
<path fill="none" stroke="black" d="M3220,-399.13C3445.6,-399.13 4385.4,-399.13 4633,-399.13"/>
<polygon fill="black" stroke="black" points="4632.79,-402.64 4642.79,-399.14 4632.79,-395.64 4632.79,-402.64"/>
<text text-anchor="middle" x="3932" y="-420.33" font-family="Times,serif" font-size="14.00">DATA/354:0.389</text>
<text text-anchor="middle" x="3932" y="-403.08" font-family="Times,serif" font-size="14.00">b0 = End data with &lt;CR&gt;&lt;LF&gt;.&lt;CR&gt;&lt;LF&gt;</text>
</g>
<!-- q19:0.0 -->
<g id="node27" class="node">
<title>q19:0.0</title>
<ellipse fill="none" stroke="black" stroke-width="2" cx="4958.7" cy="-383.13" rx="49.1" ry="18"/>
<text text-anchor="middle" x="4958.7" y="-378.46" font-family="Times,serif" font-size="14.00">q19:0.0</text>
</g>
<!-- q14:0.0&#45;&gt;q19:0.0 -->
<g id="edge30" class="edge">
<title>q14:0.0&#45;&gt;q19:0.0</title>
<path fill="none" stroke="black" d="M4731.3,-386.57C4740.9,-383.79 4751.3,-381.28 4761.1,-379.88 4807.2,-373.32 4859.9,-374.65 4899.1,-377.36"/>
<polygon fill="black" stroke="black" points="4898.86,-380.85 4909.09,-378.09 4899.37,-373.87 4898.86,-380.85"/>
<text text-anchor="middle" x="4826.4" y="-383.08" font-family="Times,serif" font-size="14.00">content/250:0.173</text>
</g>
<!-- q18:0.0 -->
<g id="node28" class="node">
<title>q18:0.0</title>
<ellipse fill="none" stroke="black" stroke-width="2" cx="4958.7" cy="-327.14" rx="49.1" ry="18"/>
<text text-anchor="middle" x="4958.7" y="-322.46" font-family="Times,serif" font-size="14.00">q18:0.0</text>
</g>
<!-- q14:0.0&#45;&gt;q18:0.0 -->
<g id="edge31" class="edge">
<title>q14:0.0&#45;&gt;q18:0.0</title>
<path fill="none" stroke="black" d="M4714.4,-381.8C4726.8,-371.66 4743.9,-359.58 4761.1,-352.88 4804.8,-335.92 4857.6,-329.73 4897.4,-327.62"/>
<polygon fill="black" stroke="black" points="4897.55,-331.12 4907.39,-327.19 4897.24,-324.13 4897.55,-331.12"/>
<text text-anchor="middle" x="4826.4" y="-356.08" font-family="Times,serif" font-size="14.00">content/554:0.528</text>
</g>
<!-- q20:0.0 -->
<g id="node29" class="node">
<title>q20:0.0</title>
<ellipse fill="none" stroke="black" stroke-width="2" cx="4958.7" cy="-462.14" rx="49.1" ry="18"/>
<text text-anchor="middle" x="4958.7" y="-457.46" font-family="Times,serif" font-size="14.00">q20:0.0</text>
</g>
<!-- q14:0.0&#45;&gt;q20:0.0 -->
<g id="edge32" class="edge">
<title>q14:0.0&#45;&gt;q20:0.0</title>
<path fill="none" stroke="black" d="M4709.8,-416.88C4722,-430.11 4740.6,-447.21 4761.1,-455.13 4805.7,-472.38 4860.3,-472.87 4900.7,-469.75"/>
<polygon fill="black" stroke="black" points="4900.74,-473.27 4910.39,-468.9 4900.12,-466.29 4900.74,-473.27"/>
<text text-anchor="middle" x="4826.4" y="-492.33" font-family="Times,serif" font-size="14.00">content/λ:0.299</text>
<text text-anchor="middle" x="4826.4" y="-475.08" font-family="Times,serif" font-size="14.00">a0 = b0</text>
</g>
<!-- q0:0.0 -->
<g id="node18" class="node">
<title>q0:0.0</title>
<ellipse fill="none" stroke="black" stroke-width="2" cx="50.79" cy="-373.13" rx="46.79" ry="46.79"/>
<ellipse fill="none" stroke="black" stroke-width="2" cx="50.79" cy="-373.13" rx="50.79" ry="50.79"/>
<text text-anchor="middle" x="50.79" y="-368.46" font-family="Times,serif" font-size="14.00">q0:0.0</text>
</g>
<!-- q1:0.0 -->
<g id="node19" class="node">
<title>q1:0.0</title>
<ellipse fill="none" stroke="black" stroke-width="2" cx="243.87" cy="-373.13" rx="42.79" ry="18"/>
<text text-anchor="middle" x="243.87" y="-368.46" font-family="Times,serif" font-size="14.00">q1:0.0</text>
</g>
<!-- q0:0.0&#45;&gt;q1:0.0 -->
<g id="edge19" class="edge">
<title>q0:0.0&#45;&gt;q1:0.0</title>
<path fill="none" stroke="black" d="M98.53,-373.13C125.82,-373.13 160.37,-373.13 188.82,-373.13"/>
<polygon fill="black" stroke="black" points="188.69,-376.64 198.69,-373.14 188.69,-369.64 188.69,-376.64"/>
<text text-anchor="middle" x="149.33" y="-377.08" font-family="Times,serif" font-size="14.00">λ/220:1.0</text>
</g>
<!-- q2:0.0 -->
<g id="node20" class="node">
<title>q2:0.0</title>
<ellipse fill="none" stroke="black" stroke-width="2" cx="484.7" cy="-436.13" rx="42.79" ry="18"/>
<text text-anchor="middle" x="484.7" y="-431.46" font-family="Times,serif" font-size="14.00">q2:0.0</text>
</g>
<!-- q1:0.0&#45;&gt;q2:0.0 -->
<g id="edge20" class="edge">
<title>q1:0.0&#45;&gt;q2:0.0</title>
<path fill="none" stroke="black" d="M281.4,-382.76C322.84,-393.71 390.56,-411.57 436.1,-423.58"/>
<polygon fill="black" stroke="black" points="435.14,-426.94 445.71,-426.11 436.93,-420.17 435.14,-426.94"/>
<text text-anchor="middle" x="364.29" y="-423.08" font-family="Times,serif" font-size="14.00">EHLO/250:0.992</text>
</g>
<!-- q3:0.0 -->
<g id="node21" class="node">
<title>q3:0.0</title>
<ellipse fill="none" stroke="black" stroke-width="2" cx="484.7" cy="-336.14" rx="42.79" ry="18"/>
<text text-anchor="middle" x="484.7" y="-331.46" font-family="Times,serif" font-size="14.00">q3:0.0</text>
</g>
<!-- q1:0.0&#45;&gt;q3:0.0 -->
<g id="edge21" class="edge">
<title>q1:0.0&#45;&gt;q3:0.0</title>
<path fill="none" stroke="black" d="M272.79,-358.9C282.62,-354.52 293.9,-350.2 304.66,-347.63 345.95,-337.8 394,-335.18 429.93,-334.88"/>
<polygon fill="black" stroke="black" points="429.63,-338.38 439.63,-334.86 429.62,-331.38 429.63,-338.38"/>
<text text-anchor="middle" x="364.29" y="-368.33" font-family="Times,serif" font-size="14.00">EHLO/λ:0.008</text>
<text text-anchor="middle" x="364.29" y="-351.08" font-family="Times,serif" font-size="14.00">a0 = [127.0.1.1]</text>
</g>
<!-- q6:0.0 -->
<g id="node22" class="node">
<title>q6:0.0</title>
<ellipse fill="none" stroke="black" stroke-width="2" cx="1664.1" cy="-536.13" rx="42.79" ry="18"/>
<text text-anchor="middle" x="1664.1" y="-531.46" font-family="Times,serif" font-size="14.00">q6:0.0</text>
</g>
<!-- q2:0.0&#45;&gt;q6:0.0 -->
<g id="edge22" class="edge">
<title>q2:0.0&#45;&gt;q6:0.0</title>
<path fill="none" stroke="black" d="M496.05,-454.42C506.29,-470.52 523.59,-492.93 545.49,-503.13 923.33,-679.11 1453.6,-583.1 1614.8,-547.57"/>
<polygon fill="black" stroke="black" points="1615.23,-551.05 1624.22,-545.45 1613.7,-544.23 1615.23,-551.05"/>
<text text-anchor="middle" x="1071.2" y="-643.58" font-family="Times,serif" font-size="14.00">AUTH/235:0.954</text>
<text text-anchor="middle" x="1071.2" y="-626.33" font-family="Times,serif" font-size="14.00">a0 in {&#39;PLAIN AEF6NjE2MUAxMjYuY29tAE1VUVNBT1NUWElURkpDVUU=&#39;, &#39;PLAIN AEF6NjE2MUBzaW5hLmNvbQA2ZmRiMjVjZmNjODYyZWZj&#39;}</text>
<text text-anchor="middle" x="1071.2" y="-609.08" font-family="Times,serif" font-size="14.00">b0 in {&#39;Authentication successful&#39;, &#39;OK Authenticated&#39;}</text>
</g>
<!-- q4:0.0 -->
<g id="node23" class="node">
<title>q4:0.0</title>
<ellipse fill="none" stroke="black" stroke-width="2" cx="1664.1" cy="-461.13" rx="42.79" ry="18"/>
<text text-anchor="middle" x="1664.1" y="-456.46" font-family="Times,serif" font-size="14.00">q4:0.0</text>
</g>
<!-- q2:0.0&#45;&gt;q4:0.0 -->
<g id="edge23" class="edge">
<title>q2:0.0&#45;&gt;q4:0.0</title>
<path fill="none" stroke="black" d="M526.5,-441.47C532.85,-442.13 539.34,-442.73 545.49,-443.13 953.92,-470.26 1448.1,-464.9 1609.4,-462.17"/>
<polygon fill="black" stroke="black" points="1608.95,-465.68 1618.89,-462.01 1608.83,-458.68 1608.95,-465.68"/>
<text text-anchor="middle" x="1071.2" y="-485.33" font-family="Times,serif" font-size="14.00">AUTH/λ:0.004</text>
<text text-anchor="middle" x="1071.2" y="-468.08" font-family="Times,serif" font-size="14.00">a0 = PLAIN AEF6NjE2MUAxMjYuY29tAE1VUVNBT1NUWElURkpDVUU=</text>
</g>
<!-- q5:0.0 -->
<g id="node24" class="node">
<title>q5:0.0</title>
<ellipse fill="none" stroke="black" stroke-width="2" cx="1664.1" cy="-217.13" rx="42.79" ry="18"/>
<text text-anchor="middle" x="1664.1" y="-212.46" font-family="Times,serif" font-size="14.00">q5:0.0</text>
</g>
<!-- q2:0.0&#45;&gt;q5:0.0 -->
<g id="edge24" class="edge">
<title>q2:0.0&#45;&gt;q5:0.0</title>
<path fill="none" stroke="black" d="M509.09,-420.55C519.73,-414.35 532.77,-407.9 545.49,-404.63 602.08,-390.09 1551.9,-422.34 1597,-385.13 1626.8,-360.54 1601.1,-336.17 1615,-300.13 1622.5,-280.62 1634.2,-260.29 1644.2,-244.63"/>
<polygon fill="black" stroke="black" points="1647.07,-246.64 1649.58,-236.34 1641.2,-242.83 1647.07,-246.64"/>
<text text-anchor="middle" x="1071.2" y="-425.33" font-family="Times,serif" font-size="14.00">AUTH/535:0.041</text>
<text text-anchor="middle" x="1071.2" y="-408.08" font-family="Times,serif" font-size="14.00">b0 in {&#39;5.7.8 authentication failed&#39;, &#39;Error: authentication failed&#39;}</text>
</g>
<!-- q3:0.0&#45;&gt;q4:0.0 -->
<g id="edge25" class="edge">
<title>q3:0.0&#45;&gt;q4:0.0</title>
<path fill="none" stroke="black" d="M518.97,-324.53C661.54,-277.05 1230.3,-110.23 1597,-333.38 1606.3,-339.04 1633.6,-396.32 1650.1,-432.23"/>
<polygon fill="black" stroke="black" points="1646.86,-433.56 1654.17,-441.23 1653.24,-430.67 1646.86,-433.56"/>
<text text-anchor="middle" x="1071.2" y="-371.58" font-family="Times,serif" font-size="14.00">AUTH/235:1.0</text>
<text text-anchor="middle" x="1071.2" y="-354.33" font-family="Times,serif" font-size="14.00">a0 in {&#39;PLAIN AEF6NjE2MUAxMjYuY29tAE1VUVNBT1NUWElURkpDVUU=&#39;, &#39;PLAIN AEF6NjE2MUBzaW5hLmNvbQA2ZmRiMjVjZmNjODYyZWZj&#39;}</text>
<text text-anchor="middle" x="1071.2" y="-337.08" font-family="Times,serif" font-size="14.00">b0 in {&#39;Authentication successful&#39;, &#39;OK Authenticated&#39;}</text>
</g>
<!-- q6:0.0&#45;&gt;q7:0.0 -->
<g id="edge26" class="edge">
<title>q6:0.0&#45;&gt;q7:0.0</title>
<path fill="none" stroke="black" d="M1707.4,-534.29C1715.3,-533.97 1723.5,-533.64 1731.2,-533.38 1810.3,-530.66 2368.8,-539.81 2443.7,-514.13 2470.6,-504.92 2496.3,-485.22 2514.2,-469.05"/>
<polygon fill="black" stroke="black" points="2516.29,-471.89 2521.19,-462.5 2511.5,-466.78 2516.29,-471.89"/>
<text text-anchor="middle" x="2087.4" y="-571.58" font-family="Times,serif" font-size="14.00">MAIL/250:0.991</text>
<text text-anchor="middle" x="2087.4" y="-554.33" font-family="Times,serif" font-size="14.00">a0 in {&#39;FROM:&lt;Az6161@sina.com&gt;&#39;, &#39;FROM:&lt;Az6161@126.com&gt;&#39;}</text>
<text text-anchor="middle" x="2087.4" y="-537.08" font-family="Times,serif" font-size="14.00">b0 in {&#39;Mail OK&#39;, &#39;ok&#39;}</text>
</g>
<!-- q9:0.0 -->
<g id="node25" class="node">
<title>q9:0.0</title>
<ellipse fill="none" stroke="black" stroke-width="2" cx="2540.1" cy="-611.13" rx="42.79" ry="18"/>
<text text-anchor="middle" x="2540.1" y="-606.46" font-family="Times,serif" font-size="14.00">q9:0.0</text>
</g>
<!-- q6:0.0&#45;&gt;q9:0.0 -->
<g id="edge27" class="edge">
<title>q6:0.0&#45;&gt;q9:0.0</title>
<path fill="none" stroke="black" d="M1680.6,-553.5C1692.9,-565.99 1711.3,-581.84 1731.2,-589.13 2002,-688.44 2358.7,-642.46 2488.9,-620.48"/>
<polygon fill="black" stroke="black" points="2489.25,-623.97 2498.51,-618.81 2488.06,-617.07 2489.25,-623.97"/>
<text text-anchor="middle" x="2087.4" y="-688.58" font-family="Times,serif" font-size="14.00">MAIL/553:0.009</text>
<text text-anchor="middle" x="2087.4" y="-671.33" font-family="Times,serif" font-size="14.00">a0 in {&#39;FROM:&lt;Az_6161@sina.com&gt;&#39;, &#39;FROM:&lt;Az6161@163.com&gt;&#39;}</text>
<text text-anchor="middle" x="2087.4" y="-654.08" font-family="Times,serif" font-size="14.00">b0 in {&#39;Mail from must equal authorized user&#39;, &#39;Envolope sender mismatch with login user..&#39;}</text>
</g>
<!-- q4:0.0&#45;&gt;q7:0.0 -->
<g id="edge28" class="edge">
<title>q4:0.0&#45;&gt;q7:0.0</title>
<path fill="none" stroke="black" d="M1707.8,-460.3C1852.6,-457.49 2324.3,-448.3 2484.9,-445.18"/>
<polygon fill="black" stroke="black" points="2484.95,-448.68 2494.89,-444.99 2484.82,-441.69 2484.95,-448.68"/>
<text text-anchor="middle" x="2087.4" y="-497.58" font-family="Times,serif" font-size="14.00">MAIL/250:1.0</text>
<text text-anchor="middle" x="2087.4" y="-480.33" font-family="Times,serif" font-size="14.00">a0 in {&#39;FROM:&lt;Az6161@sina.com&gt;&#39;, &#39;FROM:&lt;Az6161@126.com&gt;&#39;}</text>
<text text-anchor="middle" x="2087.4" y="-463.08" font-family="Times,serif" font-size="14.00">b0 in {&#39;Mail OK&#39;, &#39;ok&#39;}</text>
</g>
<!-- q8:0.0 -->
<g id="node26" class="node">
<title>q8:0.0</title>
<ellipse fill="none" stroke="black" stroke-width="2" cx="2540.1" cy="-116.13" rx="42.79" ry="18"/>
<text text-anchor="middle" x="2540.1" y="-111.46" font-family="Times,serif" font-size="14.00">q8:0.0</text>
</g>
<!-- q5:0.0&#45;&gt;q8:0.0 -->
<g id="edge29" class="edge">
<title>q5:0.0&#45;&gt;q8:0.0</title>
<path fill="none" stroke="black" d="M1686.9,-201.09C1699.2,-192.87 1715.4,-183.57 1731.2,-178.63 2004.6,-93.36 2354.1,-104.19 2485.8,-112.2"/>
<polygon fill="black" stroke="black" points="2485.39,-115.68 2495.59,-112.82 2485.83,-108.69 2485.39,-115.68"/>
<text text-anchor="middle" x="2087.4" y="-199.33" font-family="Times,serif" font-size="14.00">AUTH/334:1.0</text>
<text text-anchor="middle" x="2087.4" y="-182.08" font-family="Times,serif" font-size="14.00">b0 = UGFzc3dvcmQ6</text>
</g>
<!-- q12:1.0 -->
<g id="node36" class="node">
<title>q12:1.0</title>
<ellipse fill="none" stroke="black" stroke-width="2" cx="3170.1" cy="-611.13" rx="49.1" ry="18"/>
<text text-anchor="middle" x="3170.1" y="-606.46" font-family="Times,serif" font-size="14.00">q12:1.0</text>
</g>
<!-- q9:0.0&#45;&gt;q12:1.0 -->
<g id="edge39" class="edge">
<title>q9:0.0&#45;&gt;q12:1.0</title>
<path fill="none" stroke="black" d="M2583.7,-611.13C2693,-611.13 2982.9,-611.13 3109,-611.13"/>
<polygon fill="black" stroke="black" points="3108.89,-614.64 3118.89,-611.14 3108.89,-607.64 3108.89,-614.64"/>
<text text-anchor="middle" x="2869.7" y="-632.34" font-family="Times,serif" font-size="14.00">RSET/250:1.0</text>
<text text-anchor="middle" x="2869.7" y="-615.09" font-family="Times,serif" font-size="14.00">b0 in {&#39;flushed&#39;, &#39;OK&#39;}</text>
</g>
<!-- q11:0.6 -->
<g id="node30" class="node">
<title>q11:0.6</title>
<ellipse fill="none" stroke="black" stroke-width="2" cx="3170.1" cy="-50.13" rx="49.1" ry="18"/>
<text text-anchor="middle" x="3170.1" y="-45.46" font-family="Times,serif" font-size="14.00">q11:0.6</text>
</g>
<!-- q8:0.0&#45;&gt;q11:0.6 -->
<g id="edge40" class="edge">
<title>q8:0.0&#45;&gt;q11:0.6</title>
<path fill="none" stroke="black" d="M2559,-99.1C2577,-83.32 2606.3,-60.93 2636.4,-51.63 2804.1,0 3015.8,-24.08 3114.2,-40"/>
<polygon fill="black" stroke="black" points="3113.37,-43.41 3123.81,-41.6 3114.52,-36.51 3113.37,-43.41"/>
<text text-anchor="middle" x="2869.7" y="-72.33" font-family="Times,serif" font-size="14.00">content/535:1.0</text>
<text text-anchor="middle" x="2869.7" y="-55.08" font-family="Times,serif" font-size="14.00">b0 in {&#39;5.7.8 authentication failed&#39;, &#39;Error: authentication failed&#39;}</text>
</g>
<!-- q26:1.0 -->
<g id="node32" class="node">
<title>q26:1.0</title>
<ellipse fill="none" stroke="black" stroke-width="2" cx="5959.2" cy="-384.13" rx="49.1" ry="18"/>
<text text-anchor="middle" x="5959.2" y="-379.46" font-family="Times,serif" font-size="14.00">q26:1.0</text>
</g>
<!-- q19:0.0&#45;&gt;q26:1.0 -->
<g id="edge34" class="edge">
<title>q19:0.0&#45;&gt;q26:1.0</title>
<path fill="none" stroke="black" d="M5008.6,-383.18C5174.3,-383.35 5715.5,-383.88 5897.7,-384.08"/>
<polygon fill="black" stroke="black" points="5897.58,-387.57 5907.59,-384.08 5897.59,-380.57 5897.58,-387.57"/>
<text text-anchor="middle" x="5458.9" y="-404.33" font-family="Times,serif" font-size="14.00">QUIT/221:1.0</text>
<text text-anchor="middle" x="5458.9" y="-387.08" font-family="Times,serif" font-size="14.00">b0 = Bye</text>
</g>
<!-- q25:1.0 -->
<g id="node33" class="node">
<title>q25:1.0</title>
<ellipse fill="none" stroke="black" stroke-width="2" cx="5959.2" cy="-326.13" rx="49.1" ry="18"/>
<text text-anchor="middle" x="5959.2" y="-321.46" font-family="Times,serif" font-size="14.00">q25:1.0</text>
</g>
<!-- q18:0.0&#45;&gt;q25:1.0 -->
<g id="edge35" class="edge">
<title>q18:0.0&#45;&gt;q25:1.0</title>
<path fill="none" stroke="black" d="M5008.6,-327.09C5174.3,-326.91 5715.5,-326.38 5897.7,-326.2"/>
<polygon fill="black" stroke="black" points="5897.59,-329.7 5907.59,-326.19 5897.58,-322.7 5897.59,-329.7"/>
<text text-anchor="middle" x="5458.9" y="-347.33" font-family="Times,serif" font-size="14.00">RSET/250:1.0</text>
<text text-anchor="middle" x="5458.9" y="-330.08" font-family="Times,serif" font-size="14.00">b0 = OK</text>
</g>
<!-- q20:0.0&#45;&gt;q14:0.0 -->
<g id="edge36" class="edge">
<title>q20:0.0&#45;&gt;q14:0.0</title>
<path fill="none" stroke="black" d="M4938.4,-444.84C4925.9,-434.76 4908.9,-422.87 4891.6,-416.63 4867.3,-407.87 4803.3,-403.36 4754.9,-401.12"/>
<polygon fill="black" stroke="black" points="4755.25,-397.64 4745.11,-400.7 4754.95,-404.63 4755.25,-397.64"/>
<text text-anchor="middle" x="4826.4" y="-437.33" font-family="Times,serif" font-size="14.00">content/λ:0.947</text>
<text text-anchor="middle" x="4826.4" y="-420.08" font-family="Times,serif" font-size="14.00">a0 = b0</text>
</g>
<!-- q27:0.0 -->
<g id="node34" class="node">
<title>q27:0.0</title>
<ellipse fill="none" stroke="black" stroke-width="2" cx="5959.2" cy="-462.14" rx="49.1" ry="18"/>
<text text-anchor="middle" x="5959.2" y="-457.46" font-family="Times,serif" font-size="14.00">q27:0.0</text>
</g>
<!-- q20:0.0&#45;&gt;q27:0.0 -->
<g id="edge37" class="edge">
<title>q20:0.0&#45;&gt;q27:0.0</title>
<path fill="none" stroke="black" d="M5008.6,-462.13C5174.3,-462.13 5715.5,-462.13 5897.7,-462.13"/>
<polygon fill="black" stroke="black" points="5897.59,-465.64 5907.59,-462.14 5897.59,-458.64 5897.59,-465.64"/>
<text text-anchor="middle" x="5458.9" y="-483.33" font-family="Times,serif" font-size="14.00">content/250:0.053</text>
<text text-anchor="middle" x="5458.9" y="-466.08" font-family="Times,serif" font-size="14.00">b0 in {&#39;ok queue id 66655249283639&#39;, &#39;Mail OK queued as smtp7 DsmowACnQhEm3V5f05EWJQ&#45;&#45;.9238S2 1600052518&#39;}</text>
</g>
<!-- q15:1.0 -->
<g id="node31" class="node">
<title>q15:1.0</title>
<ellipse fill="none" stroke="black" stroke-width="2" cx="4694" cy="-49.13" rx="49.1" ry="18"/>
<text text-anchor="middle" x="4694" y="-44.46" font-family="Times,serif" font-size="14.00">q15:1.0</text>
</g>
<!-- q11:0.6&#45;&gt;q15:1.0 -->
<g id="edge33" class="edge">
<title>q11:0.6&#45;&gt;q15:1.0</title>
<path fill="none" stroke="black" d="M3220,-50.1C3445.6,-49.95 4385.4,-49.33 4633,-49.17"/>
<polygon fill="black" stroke="black" points="4632.79,-52.67 4642.79,-49.17 4632.78,-45.67 4632.79,-52.67"/>
<text text-anchor="middle" x="3932" y="-70.33" font-family="Times,serif" font-size="14.00">λ/451:0.4</text>
<text text-anchor="middle" x="3932" y="-53.08" font-family="Times,serif" font-size="14.00">b0 = Timeout.</text>
</g>
<!-- q33:1.0 -->
<g id="node35" class="node">
<title>q33:1.0</title>
<ellipse fill="none" stroke="black" stroke-width="2" cx="6526.9" cy="-462.14" rx="49.1" ry="18"/>
<text text-anchor="middle" x="6526.9" y="-457.46" font-family="Times,serif" font-size="14.00">q33:1.0</text>
</g>
<!-- q27:0.0&#45;&gt;q33:1.0 -->
<g id="edge38" class="edge">
<title>q27:0.0&#45;&gt;q33:1.0</title>
<path fill="none" stroke="black" d="M6008.9,-462.13C6112.2,-462.13 6352.9,-462.13 6465.6,-462.13"/>
<polygon fill="black" stroke="black" points="6465.59,-465.64 6475.59,-462.14 6465.59,-458.64 6465.59,-465.64"/>
<text text-anchor="middle" x="6243" y="-483.33" font-family="Times,serif" font-size="14.00">QUIT/221:1.0</text>
<text text-anchor="middle" x="6243" y="-466.08" font-family="Times,serif" font-size="14.00">b0 in {&#39;Bye&#39;, &#39;smtp&#45;97&#45;27.smtpsmail.fmail.bx.sinanode.com&#39;}</text>
</g>
</g>
</svg>
