<?xml version="1.0" encoding="UTF-8" standalone="no"?>
<!DOCTYPE svg PUBLIC "-//W3C//DTD SVG 1.1//EN"
 "http://www.w3.org/Graphics/SVG/1.1/DTD/svg11.dtd">
<!-- Generated by graphviz version 12.0.0 (20240803.0821)
 -->
<!-- Pages: 1 -->
<svg width="1784pt" height="268pt"
 viewBox="0.00 0.00 1784.00 268.00" xmlns="http://www.w3.org/2000/svg" xmlns:xlink="http://www.w3.org/1999/xlink">
<g id="graph0" class="graph" transform="scale(1 1) rotate(0) translate(4 264)">
<polygon fill="white" stroke="none" points="-4,4 -4,-264 1780,-264 1780,4 -4,4"/>
<!-- q2:0.0 -->
<g id="node1" class="node">
<title>q2:0.0</title>
<ellipse fill="none" stroke="black" stroke-width="2" cx="484.7" cy="-202" rx="42.79" ry="18"/>
<text text-anchor="middle" x="484.7" y="-197.32" font-family="Times,serif" font-size="14.00">q2:0.0</text>
</g>
<!-- q4:0.0 -->
<g id="node2" class="node">
<title>q4:0.0</title>
<ellipse fill="none" stroke="black" stroke-width="2" cx="725.53" cy="-201" rx="42.79" ry="18"/>
<text text-anchor="middle" x="725.53" y="-196.32" font-family="Times,serif" font-size="14.00">q4:0.0</text>
</g>
<!-- q2:0.0&#45;&gt;q4:0.0 -->
<g id="edge1" class="edge">
<title>q2:0.0&#45;&gt;q4:0.0</title>
<path fill="none" stroke="black" d="M528.4,-201.82C568.1,-201.66 627.41,-201.41 670.41,-201.23"/>
<polygon fill="black" stroke="black" points="670.3,-204.73 680.29,-201.19 670.27,-197.73 670.3,-204.73"/>
<text text-anchor="middle" x="605.12" y="-204.94" font-family="Times,serif" font-size="14.00">AUTH/235:1.0</text>
</g>
<!-- q7:0.0 -->
<g id="node3" class="node">
<title>q7:0.0</title>
<ellipse fill="none" stroke="black" stroke-width="2" cx="961.86" cy="-145" rx="42.79" ry="18"/>
<text text-anchor="middle" x="961.86" y="-140.32" font-family="Times,serif" font-size="14.00">q7:0.0</text>
</g>
<!-- q4:0.0&#45;&gt;q7:0.0 -->
<g id="edge2" class="edge">
<title>q4:0.0&#45;&gt;q7:0.0</title>
<path fill="none" stroke="black" d="M765.18,-193.02C812.53,-183.21 888.08,-167.43 901.07,-164 906,-162.7 911.13,-161.24 916.22,-159.72"/>
<polygon fill="black" stroke="black" points="917.22,-163.07 925.75,-156.79 915.17,-156.38 917.22,-163.07"/>
<text text-anchor="middle" x="843.7" y="-191.94" font-family="Times,serif" font-size="14.00">MAIL/250:0.991</text>
</g>
<!-- q8:0.0 -->
<g id="node4" class="node">
<title>q8:0.0</title>
<ellipse fill="none" stroke="black" stroke-width="2" cx="961.86" cy="-235" rx="42.79" ry="18"/>
<text text-anchor="middle" x="961.86" y="-230.32" font-family="Times,serif" font-size="14.00">q8:0.0</text>
</g>
<!-- q4:0.0&#45;&gt;q8:0.0 -->
<g id="edge3" class="edge">
<title>q4:0.0&#45;&gt;q8:0.0</title>
<path fill="none" stroke="black" d="M767.08,-206.88C806.44,-212.59 866.34,-221.28 909.11,-227.49"/>
<polygon fill="black" stroke="black" points="908.52,-230.94 918.92,-228.91 909.53,-224.01 908.52,-230.94"/>
<text text-anchor="middle" x="843.7" y="-228.94" font-family="Times,serif" font-size="14.00">MAIL/553:0.009</text>
</g>
<!-- q7:0.0&#45;&gt;q7:0.0 -->
<g id="edge4" class="edge">
<title>q7:0.0&#45;&gt;q7:0.0</title>
<path fill="none" stroke="black" d="M941.09,-161.66C936.48,-171.62 943.4,-181 961.86,-181 972.83,-181 979.72,-177.69 982.55,-172.92"/>
<polygon fill="black" stroke="black" points="986.05,-173.2 982.62,-163.17 979.05,-173.15 986.05,-173.2"/>
<text text-anchor="middle" x="961.86" y="-184.94" font-family="Times,serif" font-size="14.00">RCPT/250:0.634</text>
</g>
<!-- q11:0.0 -->
<g id="node5" class="node">
<title>q11:0.0</title>
<ellipse fill="none" stroke="black" stroke-width="2" cx="1217.1" cy="-99" rx="49.1" ry="18"/>
<text text-anchor="middle" x="1217.1" y="-94.33" font-family="Times,serif" font-size="14.00">q11:0.0</text>
</g>
<!-- q7:0.0&#45;&gt;q11:0.0 -->
<g id="edge5" class="edge">
<title>q7:0.0&#45;&gt;q11:0.0</title>
<path fill="none" stroke="black" d="M1002.09,-137.57C1008.9,-136.29 1016,-134.97 1022.7,-133.75 1069.2,-125.18 1122.2,-115.69 1160.9,-108.79"/>
<polygon fill="black" stroke="black" points="1161.18,-112.3 1170.41,-107.1 1159.95,-105.4 1161.18,-112.3"/>
<text text-anchor="middle" x="1080" y="-136.94" font-family="Times,serif" font-size="14.00">DATA/354:0.297</text>
</g>
<!-- q10:1.0 -->
<g id="node6" class="node">
<title>q10:1.0</title>
<ellipse fill="none" stroke="black" stroke-width="2" cx="1217.1" cy="-188" rx="49.1" ry="18"/>
<text text-anchor="middle" x="1217.1" y="-183.32" font-family="Times,serif" font-size="14.00">q10:1.0</text>
</g>
<!-- q7:0.0&#45;&gt;q10:1.0 -->
<g id="edge6" class="edge">
<title>q7:0.0&#45;&gt;q10:1.0</title>
<path fill="none" stroke="black" d="M1002.71,-151.77C1045.1,-158.97 1112.6,-170.43 1160.3,-178.53"/>
<polygon fill="black" stroke="black" points="1159.46,-181.94 1169.91,-180.15 1160.63,-175.04 1159.46,-181.94"/>
<text text-anchor="middle" x="1080" y="-177.94" font-family="Times,serif" font-size="14.00">DATA/550:0.068</text>
</g>
<!-- q12:1.0 -->
<g id="node7" class="node">
<title>q12:1.0</title>
<ellipse fill="none" stroke="black" stroke-width="2" cx="1217.1" cy="-242" rx="49.1" ry="18"/>
<text text-anchor="middle" x="1217.1" y="-237.32" font-family="Times,serif" font-size="14.00">q12:1.0</text>
</g>
<!-- q8:0.0&#45;&gt;q12:1.0 -->
<g id="edge7" class="edge">
<title>q8:0.0&#45;&gt;q12:1.0</title>
<path fill="none" stroke="black" d="M1005.5,-236.18C1046.7,-237.32 1109.5,-239.05 1155.8,-240.33"/>
<polygon fill="black" stroke="black" points="1155.59,-243.83 1165.69,-240.61 1155.79,-236.83 1155.59,-243.83"/>
<text text-anchor="middle" x="1080" y="-242.94" font-family="Times,serif" font-size="14.00">RSET/250:1.0</text>
</g>
<!-- q11:0.0&#45;&gt;q11:0.0 -->
<g id="edge8" class="edge">
<title>q11:0.0&#45;&gt;q11:0.0</title>
<path fill="none" stroke="black" d="M1193.2,-115.29C1187.5,-125.39 1195.4,-135 1217.1,-135 1230,-135 1238.1,-131.61 1241.3,-126.74"/>
<polygon fill="black" stroke="black" points="1244.8,-126.71 1241.04,-116.8 1237.8,-126.89 1244.8,-126.71"/>
<text text-anchor="middle" x="1217.1" y="-138.94" font-family="Times,serif" font-size="14.00">content/λ:0.944</text>
</g>
<!-- q14:0.0 -->
<g id="node8" class="node">
<title>q14:0.0</title>
<ellipse fill="none" stroke="black" stroke-width="2" cx="1494.5" cy="-126" rx="49.1" ry="18"/>
<text text-anchor="middle" x="1494.5" y="-121.33" font-family="Times,serif" font-size="14.00">q14:0.0</text>
</g>
<!-- q11:0.0&#45;&gt;q14:0.0 -->
<g id="edge9" class="edge">
<title>q11:0.0&#45;&gt;q14:0.0</title>
<path fill="none" stroke="black" d="M1265.5,-103.64C1312.4,-108.24 1384.4,-115.3 1434.9,-120.26"/>
<polygon fill="black" stroke="black" points="1434.5,-123.74 1444.79,-121.22 1435.18,-116.77 1434.5,-123.74"/>
<text text-anchor="middle" x="1362.1" y="-123.95" font-family="Times,serif" font-size="14.00">content/550:0.0</text>
</g>
<!-- q15:0.0 -->
<g id="node9" class="node">
<title>q15:0.0</title>
<ellipse fill="none" stroke="black" stroke-width="2" cx="1494.5" cy="-72" rx="49.1" ry="18"/>
<text text-anchor="middle" x="1494.5" y="-67.33" font-family="Times,serif" font-size="14.00">q15:0.0</text>
</g>
<!-- q11:0.0&#45;&gt;q15:0.0 -->
<g id="edge10" class="edge">
<title>q11:0.0&#45;&gt;q15:0.0</title>
<path fill="none" stroke="black" d="M1262.2,-90.82C1273.4,-88.93 1285.6,-87.09 1296.9,-85.75 1342.5,-80.32 1394.4,-76.8 1433.5,-74.69"/>
<polygon fill="black" stroke="black" points="1433.59,-78.19 1443.39,-74.17 1433.22,-71.2 1433.59,-78.19"/>
<text text-anchor="middle" x="1362.1" y="-89.95" font-family="Times,serif" font-size="14.00">content/250:0.038</text>
</g>
<!-- q16:0.0 -->
<g id="node10" class="node">
<title>q16:0.0</title>
<ellipse fill="none" stroke="black" stroke-width="2" cx="1494.5" cy="-180" rx="49.1" ry="18"/>
<text text-anchor="middle" x="1494.5" y="-175.32" font-family="Times,serif" font-size="14.00">q16:0.0</text>
</g>
<!-- q11:0.0&#45;&gt;q16:0.0 -->
<g id="edge11" class="edge">
<title>q11:0.0&#45;&gt;q16:0.0</title>
<path fill="none" stroke="black" d="M1243.5,-115C1258.5,-123.83 1278.2,-134.33 1296.9,-141 1342.1,-157.13 1395.6,-167.2 1435.4,-173.06"/>
<polygon fill="black" stroke="black" points="1434.91,-176.53 1445.3,-174.46 1435.89,-169.59 1434.91,-176.53"/>
<text text-anchor="middle" x="1362.1" y="-174.94" font-family="Times,serif" font-size="14.00">content/554:0.018</text>
</g>
<!-- q18:1.0 -->
<g id="node16" class="node">
<title>q18:1.0</title>
<ellipse fill="none" stroke="black" stroke-width="2" cx="1726.9" cy="-126" rx="49.1" ry="18"/>
<text text-anchor="middle" x="1726.9" y="-121.33" font-family="Times,serif" font-size="14.00">q18:1.0</text>
</g>
<!-- q14:0.0&#45;&gt;q18:1.0 -->
<g id="edge19" class="edge">
<title>q14:0.0&#45;&gt;q18:1.0</title>
<path fill="none" stroke="black" d="M1544.3,-126C1579.8,-126 1627.9,-126 1665.7,-126"/>
<polygon fill="black" stroke="black" points="1665.59,-129.5 1675.59,-126 1665.59,-122.5 1665.59,-129.5"/>
<text text-anchor="middle" x="1610.7" y="-129.94" font-family="Times,serif" font-size="14.00">RSET/250:1.0</text>
</g>
<!-- q19:1.0 -->
<g id="node17" class="node">
<title>q19:1.0</title>
<ellipse fill="none" stroke="black" stroke-width="2" cx="1726.9" cy="-72" rx="49.1" ry="18"/>
<text text-anchor="middle" x="1726.9" y="-67.33" font-family="Times,serif" font-size="14.00">q19:1.0</text>
</g>
<!-- q15:0.0&#45;&gt;q19:1.0 -->
<g id="edge20" class="edge">
<title>q15:0.0&#45;&gt;q19:1.0</title>
<path fill="none" stroke="black" d="M1544.3,-72C1579.8,-72 1627.9,-72 1665.7,-72"/>
<polygon fill="black" stroke="black" points="1665.59,-75.5 1675.59,-72 1665.59,-68.5 1665.59,-75.5"/>
<text text-anchor="middle" x="1610.7" y="-75.95" font-family="Times,serif" font-size="14.00">QUIT/221:1.0</text>
</g>
<!-- q20:1.0 -->
<g id="node18" class="node">
<title>q20:1.0</title>
<ellipse fill="none" stroke="black" stroke-width="2" cx="1726.9" cy="-180" rx="49.1" ry="18"/>
<text text-anchor="middle" x="1726.9" y="-175.32" font-family="Times,serif" font-size="14.00">q20:1.0</text>
</g>
<!-- q16:0.0&#45;&gt;q20:1.0 -->
<g id="edge21" class="edge">
<title>q16:0.0&#45;&gt;q20:1.0</title>
<path fill="none" stroke="black" d="M1544.3,-180C1579.8,-180 1627.9,-180 1665.7,-180"/>
<polygon fill="black" stroke="black" points="1665.59,-183.5 1675.59,-180 1665.59,-176.5 1665.59,-183.5"/>
<text text-anchor="middle" x="1610.7" y="-183.94" font-family="Times,serif" font-size="14.00">RSET/250:1.0</text>
</g>
<!-- q1:0.0 -->
<g id="node11" class="node">
<title>q1:0.0</title>
<ellipse fill="none" stroke="black" stroke-width="2" cx="243.87" cy="-169" rx="42.79" ry="18"/>
<text text-anchor="middle" x="243.87" y="-164.32" font-family="Times,serif" font-size="14.00">q1:0.0</text>
</g>
<!-- q1:0.0&#45;&gt;q2:0.0 -->
<g id="edge12" class="edge">
<title>q1:0.0&#45;&gt;q2:0.0</title>
<path fill="none" stroke="black" d="M285.66,-174.64C326.01,-180.21 387.94,-188.77 431.79,-194.83"/>
<polygon fill="black" stroke="black" points="431.19,-198.28 441.58,-196.18 432.15,-191.35 431.19,-198.28"/>
<text text-anchor="middle" x="364.29" y="-196.94" font-family="Times,serif" font-size="14.00">EHLO/λ:0.008</text>
</g>
<!-- q3:0.0 -->
<g id="node12" class="node">
<title>q3:0.0</title>
<ellipse fill="none" stroke="black" stroke-width="2" cx="484.7" cy="-142" rx="42.79" ry="18"/>
<text text-anchor="middle" x="484.7" y="-137.32" font-family="Times,serif" font-size="14.00">q3:0.0</text>
</g>
<!-- q1:0.0&#45;&gt;q3:0.0 -->
<g id="edge13" class="edge">
<title>q1:0.0&#45;&gt;q3:0.0</title>
<path fill="none" stroke="black" d="M279.7,-158.24C287.82,-156.1 296.49,-154.09 304.66,-152.75 346.39,-145.9 394.23,-143.29 429.95,-142.35"/>
<polygon fill="black" stroke="black" points="429.66,-145.86 439.59,-142.14 429.51,-138.86 429.66,-145.86"/>
<text text-anchor="middle" x="364.29" y="-155.94" font-family="Times,serif" font-size="14.00">EHLO/250:0.992</text>
</g>
<!-- q3:0.0&#45;&gt;q4:0.0 -->
<g id="edge14" class="edge">
<title>q3:0.0&#45;&gt;q4:0.0</title>
<path fill="none" stroke="black" d="M525.54,-148.82C562.07,-155.45 617.5,-166.44 664.74,-179.75 670.3,-181.32 676.09,-183.13 681.78,-185.03"/>
<polygon fill="black" stroke="black" points="680.48,-188.29 691.08,-188.24 682.77,-181.67 680.48,-188.29"/>
<text text-anchor="middle" x="605.12" y="-182.94" font-family="Times,serif" font-size="14.00">AUTH/235:0.95</text>
</g>
<!-- q6:0.0 -->
<g id="node13" class="node">
<title>q6:0.0</title>
<ellipse fill="none" stroke="black" stroke-width="2" cx="725.53" cy="-79" rx="42.79" ry="18"/>
<text text-anchor="middle" x="725.53" y="-74.33" font-family="Times,serif" font-size="14.00">q6:0.0</text>
</g>
<!-- q3:0.0&#45;&gt;q6:0.0 -->
<g id="edge15" class="edge">
<title>q3:0.0&#45;&gt;q6:0.0</title>
<path fill="none" stroke="black" d="M507,-125.7C517.94,-118.14 531.82,-109.74 545.49,-104.75 585.95,-89.98 634.45,-83.65 670.76,-80.95"/>
<polygon fill="black" stroke="black" points="670.83,-84.45 680.58,-80.29 670.37,-77.47 670.83,-84.45"/>
<text text-anchor="middle" x="605.12" y="-108.95" font-family="Times,serif" font-size="14.00">AUTH/535:0.045</text>
</g>
<!-- q5:0.0 -->
<g id="node14" class="node">
<title>q5:0.0</title>
<ellipse fill="none" stroke="black" stroke-width="2" cx="725.53" cy="-140" rx="42.79" ry="18"/>
<text text-anchor="middle" x="725.53" y="-135.32" font-family="Times,serif" font-size="14.00">q5:0.0</text>
</g>
<!-- q3:0.0&#45;&gt;q5:0.0 -->
<g id="edge16" class="edge">
<title>q3:0.0&#45;&gt;q5:0.0</title>
<path fill="none" stroke="black" d="M523.16,-133.12C530.52,-131.72 538.22,-130.49 545.49,-129.75 598.22,-124.4 611.93,-125.26 664.74,-129.75 667.94,-130.02 671.22,-130.37 674.53,-130.78"/>
<polygon fill="black" stroke="black" points="673.85,-134.22 684.24,-132.16 674.83,-127.29 673.85,-134.22"/>
<text text-anchor="middle" x="605.12" y="-132.94" font-family="Times,serif" font-size="14.00">AUTH/λ:0.004</text>
</g>
<!-- q9:0.0 -->
<g id="node15" class="node">
<title>q9:0.0</title>
<ellipse fill="none" stroke="black" stroke-width="2" cx="961.86" cy="-39" rx="42.79" ry="18"/>
<text text-anchor="middle" x="961.86" y="-34.33" font-family="Times,serif" font-size="14.00">q9:0.0</text>
</g>
<!-- q6:0.0&#45;&gt;q9:0.0 -->
<g id="edge17" class="edge">
<title>q6:0.0&#45;&gt;q9:0.0</title>
<path fill="none" stroke="black" d="M766.28,-72.22C805.96,-65.44 867.07,-55.01 910.2,-47.65"/>
<polygon fill="black" stroke="black" points="910.55,-51.14 919.82,-46.01 909.37,-44.24 910.55,-51.14"/>
<text text-anchor="middle" x="843.7" y="-72.95" font-family="Times,serif" font-size="14.00">AUTH/334:1.0</text>
</g>
<!-- q5:0.0&#45;&gt;q7:0.0 -->
<g id="edge18" class="edge">
<title>q5:0.0&#45;&gt;q7:0.0</title>
<path fill="none" stroke="black" d="M769.24,-140.91C807.97,-141.74 865.24,-142.96 907.08,-143.85"/>
<polygon fill="black" stroke="black" points="906.86,-147.35 916.94,-144.07 907.02,-140.35 906.86,-147.35"/>
<text text-anchor="middle" x="843.7" y="-146.94" font-family="Times,serif" font-size="14.00">MAIL/250:1.0</text>
</g>
<!-- q13:0.636 -->
<g id="node19" class="node">
<title>q13:0.636</title>
<ellipse fill="none" stroke="black" stroke-width="2" cx="1217.1" cy="-32" rx="61.73" ry="18"/>
<text text-anchor="middle" x="1217.1" y="-27.32" font-family="Times,serif" font-size="14.00">q13:0.636</text>
</g>
<!-- q9:0.0&#45;&gt;q13:0.636 -->
<g id="edge22" class="edge">
<title>q9:0.0&#45;&gt;q13:0.636</title>
<path fill="none" stroke="black" d="M1005.5,-37.82C1043.1,-36.78 1098.7,-35.24 1143.4,-34.01"/>
<polygon fill="black" stroke="black" points="1143.29,-37.52 1153.19,-33.74 1143.09,-30.52 1143.29,-37.52"/>
<text text-anchor="middle" x="1080" y="-41.95" font-family="Times,serif" font-size="14.00">content/535:1.0</text>
</g>
<!-- q17:1.0 -->
<g id="node20" class="node">
<title>q17:1.0</title>
<ellipse fill="none" stroke="black" stroke-width="2" cx="1494.5" cy="-18" rx="49.1" ry="18"/>
<text text-anchor="middle" x="1494.5" y="-13.32" font-family="Times,serif" font-size="14.00">q17:1.0</text>
</g>
<!-- q13:0.636&#45;&gt;q17:1.0 -->
<g id="edge23" class="edge">
<title>q13:0.636&#45;&gt;q17:1.0</title>
<path fill="none" stroke="black" d="M1278.9,-28.91C1325,-26.57 1388.1,-23.36 1434,-21.03"/>
<polygon fill="black" stroke="black" points="1433.88,-24.54 1443.69,-20.53 1433.52,-17.55 1433.88,-24.54"/>
<text text-anchor="middle" x="1362.1" y="-31.95" font-family="Times,serif" font-size="14.00">λ/451:0.364</text>
</g>
<!-- q0:0.0 -->
<g id="node21" class="node">
<title>q0:0.0</title>
<ellipse fill="none" stroke="black" stroke-width="2" cx="50.79" cy="-169" rx="46.79" ry="46.79"/>
<ellipse fill="none" stroke="black" stroke-width="2" cx="50.79" cy="-169" rx="50.79" ry="50.79"/>
<text text-anchor="middle" x="50.79" y="-164.32" font-family="Times,serif" font-size="14.00">q0:0.0</text>
</g>
<!-- q0:0.0&#45;&gt;q1:0.0 -->
<g id="edge24" class="edge">
<title>q0:0.0&#45;&gt;q1:0.0</title>
<path fill="none" stroke="black" d="M98.53,-169C125.82,-169 160.37,-169 188.82,-169"/>
<polygon fill="black" stroke="black" points="188.69,-172.5 198.69,-169 188.69,-165.5 188.69,-172.5"/>
<text text-anchor="middle" x="149.33" y="-172.94" font-family="Times,serif" font-size="14.00">λ/220:1.0</text>
</g>
</g>
</svg>
