<?xml version="1.0" encoding="UTF-8" standalone="no"?>
<!DOCTYPE svg PUBLIC "-//W3C//DTD SVG 1.1//EN"
 "http://www.w3.org/Graphics/SVG/1.1/DTD/svg11.dtd">
<!-- Generated by graphviz version 12.0.0 (20240803.0821)
 -->
<!-- Pages: 1 -->
<svg width="1960pt" height="205pt"
 viewBox="0.00 0.00 1959.99 205.00" xmlns="http://www.w3.org/2000/svg" xmlns:xlink="http://www.w3.org/1999/xlink">
<g id="graph0" class="graph" transform="scale(1 1) rotate(0) translate(4 201)">
<polygon fill="white" stroke="none" points="-4,4 -4,-201 1955.99,-201 1955.99,4 -4,4"/>
<!-- q13:&#45;1 -->
<g id="node1" class="node">
<title>q13:&#45;1</title>
<ellipse fill="none" stroke="black" stroke-width="2" cx="1053.1" cy="-179" rx="42.79" ry="18"/>
<text text-anchor="middle" x="1053.1" y="-174.32" font-family="Times,serif" font-size="14.00">q13:&#45;1</text>
</g>
<!-- q15:&#45;1 -->
<g id="node2" class="node">
<title>q15:&#45;1</title>
<ellipse fill="none" stroke="black" stroke-width="2" cx="1263.9" cy="-179" rx="42.79" ry="18"/>
<text text-anchor="middle" x="1263.9" y="-174.32" font-family="Times,serif" font-size="14.00">q15:&#45;1</text>
</g>
<!-- q13:&#45;1&#45;&gt;q15:&#45;1 -->
<g id="edge1" class="edge">
<title>q13:&#45;1&#45;&gt;q15:&#45;1</title>
<path fill="none" stroke="black" d="M1096.9,-179C1129.2,-179 1173.9,-179 1208.8,-179"/>
<polygon fill="black" stroke="black" points="1208.69,-182.5 1218.69,-179 1208.69,-175.5 1208.69,-182.5"/>
<text text-anchor="middle" x="1158.5" y="-182.94" font-family="Times,serif" font-size="14.00">位/451:&#45;1</text>
</g>
<!-- q2:&#45;1 -->
<g id="node3" class="node">
<title>q2:&#45;1</title>
<ellipse fill="none" stroke="black" stroke-width="2" cx="417.13" cy="-92" rx="36.48" ry="18"/>
<text text-anchor="middle" x="417.13" y="-87.33" font-family="Times,serif" font-size="14.00">q2:&#45;1</text>
</g>
<!-- q5:&#45;1 -->
<g id="node4" class="node">
<title>q5:&#45;1</title>
<ellipse fill="none" stroke="black" stroke-width="2" cx="618.34" cy="-149" rx="36.48" ry="18"/>
<text text-anchor="middle" x="618.34" y="-144.32" font-family="Times,serif" font-size="14.00">q5:&#45;1</text>
</g>
<!-- q2:&#45;1&#45;&gt;q5:&#45;1 -->
<g id="edge2" class="edge">
<title>q2:&#45;1&#45;&gt;q5:&#45;1</title>
<path fill="none" stroke="black" d="M446.19,-103.82C454.32,-107.02 463.25,-110.34 471.61,-113 505.04,-123.64 543.62,-133.05 572.67,-139.57"/>
<polygon fill="black" stroke="black" points="571.71,-142.94 582.23,-141.69 573.23,-136.11 571.71,-142.94"/>
<text text-anchor="middle" x="517.74" y="-139.94" font-family="Times,serif" font-size="14.00">AUTH/535:&#45;1</text>
</g>
<!-- q4:&#45;1 -->
<g id="node5" class="node">
<title>q4:&#45;1</title>
<ellipse fill="none" stroke="black" stroke-width="2" cx="618.34" cy="-92" rx="36.48" ry="18"/>
<text text-anchor="middle" x="618.34" y="-87.33" font-family="Times,serif" font-size="14.00">q4:&#45;1</text>
</g>
<!-- q2:&#45;1&#45;&gt;q4:&#45;1 -->
<g id="edge3" class="edge">
<title>q2:&#45;1&#45;&gt;q4:&#45;1</title>
<path fill="none" stroke="black" d="M454.21,-92C486.68,-92 534.62,-92 570.14,-92"/>
<polygon fill="black" stroke="black" points="569.69,-95.5 579.69,-92 569.69,-88.5 569.69,-95.5"/>
<text text-anchor="middle" x="517.74" y="-95.95" font-family="Times,serif" font-size="14.00">AUTH/235:&#45;1</text>
</g>
<!-- q9:&#45;1 -->
<g id="node6" class="node">
<title>q9:&#45;1</title>
<ellipse fill="none" stroke="black" stroke-width="2" cx="826.94" cy="-179" rx="36.48" ry="18"/>
<text text-anchor="middle" x="826.94" y="-174.32" font-family="Times,serif" font-size="14.00">q9:&#45;1</text>
</g>
<!-- q5:&#45;1&#45;&gt;q9:&#45;1 -->
<g id="edge4" class="edge">
<title>q5:&#45;1&#45;&gt;q9:&#45;1</title>
<path fill="none" stroke="black" d="M654.39,-154.09C688.92,-159.1 741.88,-166.79 779.81,-172.3"/>
<polygon fill="black" stroke="black" points="779.17,-175.74 789.57,-173.72 780.18,-168.82 779.17,-175.74"/>
<text text-anchor="middle" x="718.94" y="-173.94" font-family="Times,serif" font-size="14.00">AUTH/334:&#45;1</text>
</g>
<!-- q8:&#45;1 -->
<g id="node7" class="node">
<title>q8:&#45;1</title>
<ellipse fill="none" stroke="black" stroke-width="2" cx="826.94" cy="-125" rx="36.48" ry="18"/>
<text text-anchor="middle" x="826.94" y="-120.33" font-family="Times,serif" font-size="14.00">q8:&#45;1</text>
</g>
<!-- q4:&#45;1&#45;&gt;q8:&#45;1 -->
<g id="edge5" class="edge">
<title>q4:&#45;1&#45;&gt;q8:&#45;1</title>
<path fill="none" stroke="black" d="M653.92,-97.52C688.48,-103.04 741.83,-111.56 779.94,-117.65"/>
<polygon fill="black" stroke="black" points="779.33,-121.1 789.76,-119.22 780.44,-114.18 779.33,-121.1"/>
<text text-anchor="middle" x="718.94" y="-118.95" font-family="Times,serif" font-size="14.00">MAIL/553:&#45;1</text>
</g>
<!-- q7:&#45;1 -->
<g id="node8" class="node">
<title>q7:&#45;1</title>
<ellipse fill="none" stroke="black" stroke-width="2" cx="1053.1" cy="-56" rx="36.48" ry="18"/>
<text text-anchor="middle" x="1053.1" y="-51.33" font-family="Times,serif" font-size="14.00">q7:&#45;1</text>
</g>
<!-- q4:&#45;1&#45;&gt;q7:&#45;1 -->
<g id="edge6" class="edge">
<title>q4:&#45;1&#45;&gt;q7:&#45;1</title>
<path fill="none" stroke="black" d="M655.12,-89.02C732.95,-82.55 917.63,-67.19 1004.9,-59.93"/>
<polygon fill="black" stroke="black" points="1005.12,-63.42 1014.79,-59.11 1004.54,-56.45 1005.12,-63.42"/>
<text text-anchor="middle" x="826.94" y="-81.95" font-family="Times,serif" font-size="14.00">MAIL/250:&#45;1</text>
</g>
<!-- q9:&#45;1&#45;&gt;q13:&#45;1 -->
<g id="edge7" class="edge">
<title>q9:&#45;1&#45;&gt;q13:&#45;1</title>
<path fill="none" stroke="black" d="M863.96,-179C900.27,-179 956.75,-179 998.36,-179"/>
<polygon fill="black" stroke="black" points="998.19,-182.5 1008.19,-179 998.19,-175.5 998.19,-182.5"/>
<text text-anchor="middle" x="940.57" y="-182.94" font-family="Times,serif" font-size="14.00">content/535:&#45;1</text>
</g>
<!-- q12:&#45;1 -->
<g id="node9" class="node">
<title>q12:&#45;1</title>
<ellipse fill="none" stroke="black" stroke-width="2" cx="1053.1" cy="-125" rx="42.79" ry="18"/>
<text text-anchor="middle" x="1053.1" y="-120.33" font-family="Times,serif" font-size="14.00">q12:&#45;1</text>
</g>
<!-- q8:&#45;1&#45;&gt;q12:&#45;1 -->
<g id="edge8" class="edge">
<title>q8:&#45;1&#45;&gt;q12:&#45;1</title>
<path fill="none" stroke="black" d="M863.96,-125C900.27,-125 956.75,-125 998.36,-125"/>
<polygon fill="black" stroke="black" points="998.19,-128.5 1008.19,-125 998.19,-121.5 998.19,-128.5"/>
<text text-anchor="middle" x="940.57" y="-128.94" font-family="Times,serif" font-size="14.00">RSET/250:&#45;1</text>
</g>
<!-- q11:&#45;1 -->
<g id="node10" class="node">
<title>q11:&#45;1</title>
<ellipse fill="none" stroke="black" stroke-width="2" cx="1263.9" cy="-56" rx="42.79" ry="18"/>
<text text-anchor="middle" x="1263.9" y="-51.33" font-family="Times,serif" font-size="14.00">q11:&#45;1</text>
</g>
<!-- q7:&#45;1&#45;&gt;q11:&#45;1 -->
<g id="edge9" class="edge">
<title>q7:&#45;1&#45;&gt;q11:&#45;1</title>
<path fill="none" stroke="black" d="M1090.5,-56C1123.3,-56 1172,-56 1209.3,-56"/>
<polygon fill="black" stroke="black" points="1208.99,-59.5 1218.99,-56 1208.99,-52.5 1208.99,-59.5"/>
<text text-anchor="middle" x="1158.5" y="-59.95" font-family="Times,serif" font-size="14.00">RCPT/250:&#45;1</text>
</g>
<!-- q11:&#45;1&#45;&gt;q11:&#45;1 -->
<g id="edge10" class="edge">
<title>q11:&#45;1&#45;&gt;q11:&#45;1</title>
<path fill="none" stroke="black" d="M1245.4,-73.04C1241.6,-82.86 1247.8,-92 1263.9,-92 1273.3,-92 1279.3,-88.94 1282,-84.47"/>
<polygon fill="black" stroke="black" points="1285.49,-84.69 1282.44,-74.55 1278.5,-84.39 1285.49,-84.69"/>
<text text-anchor="middle" x="1263.9" y="-95.95" font-family="Times,serif" font-size="14.00">RCPT/250:&#45;1</text>
</g>
<!-- q14:&#45;1 -->
<g id="node11" class="node">
<title>q14:&#45;1</title>
<ellipse fill="none" stroke="black" stroke-width="2" cx="1473.3" cy="-56" rx="42.79" ry="18"/>
<text text-anchor="middle" x="1473.3" y="-51.33" font-family="Times,serif" font-size="14.00">q14:&#45;1</text>
</g>
<!-- q11:&#45;1&#45;&gt;q14:&#45;1 -->
<g id="edge11" class="edge">
<title>q11:&#45;1&#45;&gt;q14:&#45;1</title>
<path fill="none" stroke="black" d="M1307.6,-56C1339.7,-56 1383.8,-56 1418.3,-56"/>
<polygon fill="black" stroke="black" points="1418.09,-59.5 1428.09,-56 1418.09,-52.5 1418.09,-59.5"/>
<text text-anchor="middle" x="1368.6" y="-59.95" font-family="Times,serif" font-size="14.00">DATA/354:&#45;1</text>
</g>
<!-- q14:&#45;1&#45;&gt;q14:&#45;1 -->
<g id="edge12" class="edge">
<title>q14:&#45;1&#45;&gt;q14:&#45;1</title>
<path fill="none" stroke="black" d="M1454.7,-73.04C1450.9,-82.86 1457.1,-92 1473.3,-92 1482.6,-92 1488.6,-88.94 1491.3,-84.47"/>
<polygon fill="black" stroke="black" points="1494.79,-84.69 1491.74,-74.55 1487.8,-84.39 1494.79,-84.69"/>
<text text-anchor="middle" x="1473.3" y="-95.95" font-family="Times,serif" font-size="14.00">content/位:&#45;1</text>
</g>
<!-- q16:&#45;1 -->
<g id="node12" class="node">
<title>q16:&#45;1</title>
<ellipse fill="none" stroke="black" stroke-width="2" cx="1698.3" cy="-83" rx="42.79" ry="18"/>
<text text-anchor="middle" x="1698.3" y="-78.33" font-family="Times,serif" font-size="14.00">q16:&#45;1</text>
</g>
<!-- q14:&#45;1&#45;&gt;q16:&#45;1 -->
<g id="edge13" class="edge">
<title>q14:&#45;1&#45;&gt;q16:&#45;1</title>
<path fill="none" stroke="black" d="M1515.4,-60.98C1552,-65.41 1605.6,-71.89 1645.1,-76.68"/>
<polygon fill="black" stroke="black" points="1644.55,-80.14 1654.9,-77.86 1645.39,-73.19 1644.55,-80.14"/>
<text text-anchor="middle" x="1585.8" y="-78.95" font-family="Times,serif" font-size="14.00">content/554:&#45;1</text>
</g>
<!-- q17:&#45;1 -->
<g id="node13" class="node">
<title>q17:&#45;1</title>
<ellipse fill="none" stroke="black" stroke-width="2" cx="1698.3" cy="-29" rx="42.79" ry="18"/>
<text text-anchor="middle" x="1698.3" y="-24.32" font-family="Times,serif" font-size="14.00">q17:&#45;1</text>
</g>
<!-- q14:&#45;1&#45;&gt;q17:&#45;1 -->
<g id="edge14" class="edge">
<title>q14:&#45;1&#45;&gt;q17:&#45;1</title>
<path fill="none" stroke="black" d="M1510.8,-46.35C1518.4,-44.59 1526.5,-42.94 1534.1,-41.75 1570.3,-36.05 1611.6,-32.85 1643.5,-31.09"/>
<polygon fill="black" stroke="black" points="1643.48,-34.59 1653.29,-30.58 1643.12,-27.6 1643.48,-34.59"/>
<text text-anchor="middle" x="1585.8" y="-45.95" font-family="Times,serif" font-size="14.00">content/250:&#45;1</text>
</g>
<!-- q18:&#45;1 -->
<g id="node14" class="node">
<title>q18:&#45;1</title>
<ellipse fill="none" stroke="black" stroke-width="2" cx="1909.2" cy="-83" rx="42.79" ry="18"/>
<text text-anchor="middle" x="1909.2" y="-78.33" font-family="Times,serif" font-size="14.00">q18:&#45;1</text>
</g>
<!-- q16:&#45;1&#45;&gt;q18:&#45;1 -->
<g id="edge15" class="edge">
<title>q16:&#45;1&#45;&gt;q18:&#45;1</title>
<path fill="none" stroke="black" d="M1742.1,-83C1774.5,-83 1819.2,-83 1854.1,-83"/>
<polygon fill="black" stroke="black" points="1853.99,-86.5 1863.99,-83 1853.99,-79.5 1853.99,-86.5"/>
<text text-anchor="middle" x="1803.8" y="-86.95" font-family="Times,serif" font-size="14.00">RSET/250:&#45;1</text>
</g>
<!-- q19:&#45;1 -->
<g id="node15" class="node">
<title>q19:&#45;1</title>
<ellipse fill="none" stroke="black" stroke-width="2" cx="1909.2" cy="-29" rx="42.79" ry="18"/>
<text text-anchor="middle" x="1909.2" y="-24.32" font-family="Times,serif" font-size="14.00">q19:&#45;1</text>
</g>
<!-- q17:&#45;1&#45;&gt;q19:&#45;1 -->
<g id="edge16" class="edge">
<title>q17:&#45;1&#45;&gt;q19:&#45;1</title>
<path fill="none" stroke="black" d="M1742.1,-29C1774.5,-29 1819.2,-29 1854.1,-29"/>
<polygon fill="black" stroke="black" points="1853.99,-32.5 1863.99,-29 1853.99,-25.5 1853.99,-32.5"/>
<text text-anchor="middle" x="1803.8" y="-32.95" font-family="Times,serif" font-size="14.00">QUIT/221:&#45;1</text>
</g>
<!-- q1:&#45;1 -->
<g id="node16" class="node">
<title>q1:&#45;1</title>
<ellipse fill="none" stroke="black" stroke-width="2" cx="215.93" cy="-62" rx="36.48" ry="18"/>
<text text-anchor="middle" x="215.93" y="-57.33" font-family="Times,serif" font-size="14.00">q1:&#45;1</text>
</g>
<!-- q1:&#45;1&#45;&gt;q2:&#45;1 -->
<g id="edge17" class="edge">
<title>q1:&#45;1&#45;&gt;q2:&#45;1</title>
<path fill="none" stroke="black" d="M251.63,-67.23C284.42,-72.16 333.83,-79.61 369.95,-85.04"/>
<polygon fill="black" stroke="black" points="369.26,-88.48 379.67,-86.51 370.31,-81.56 369.26,-88.48"/>
<text text-anchor="middle" x="316.53" y="-86.95" font-family="Times,serif" font-size="14.00">EHLO/250:&#45;1</text>
</g>
<!-- q3:&#45;1 -->
<g id="node17" class="node">
<title>q3:&#45;1</title>
<ellipse fill="none" stroke="black" stroke-width="2" cx="417.13" cy="-35" rx="36.48" ry="18"/>
<text text-anchor="middle" x="417.13" y="-30.32" font-family="Times,serif" font-size="14.00">q3:&#45;1</text>
</g>
<!-- q1:&#45;1&#45;&gt;q3:&#45;1 -->
<g id="edge18" class="edge">
<title>q1:&#45;1&#45;&gt;q3:&#45;1</title>
<path fill="none" stroke="black" d="M248.4,-52.65C255.58,-50.78 263.22,-49.01 270.41,-47.75 302.95,-42.04 340.04,-38.84 368.66,-37.07"/>
<polygon fill="black" stroke="black" points="368.69,-40.58 378.47,-36.51 368.29,-33.59 368.69,-40.58"/>
<text text-anchor="middle" x="316.53" y="-51.95" font-family="Times,serif" font-size="14.00">EHLO/位:&#45;1</text>
</g>
<!-- q6:&#45;1 -->
<g id="node18" class="node">
<title>q6:&#45;1</title>
<ellipse fill="none" stroke="black" stroke-width="2" cx="618.34" cy="-31" rx="36.48" ry="18"/>
<text text-anchor="middle" x="618.34" y="-26.32" font-family="Times,serif" font-size="14.00">q6:&#45;1</text>
</g>
<!-- q3:&#45;1&#45;&gt;q6:&#45;1 -->
<g id="edge19" class="edge">
<title>q3:&#45;1&#45;&gt;q6:&#45;1</title>
<path fill="none" stroke="black" d="M454.21,-34.28C486.68,-33.62 534.62,-32.66 570.14,-31.95"/>
<polygon fill="black" stroke="black" points="569.76,-35.46 579.69,-31.76 569.62,-28.46 569.76,-35.46"/>
<text text-anchor="middle" x="517.74" y="-37.95" font-family="Times,serif" font-size="14.00">AUTH/235:&#45;1</text>
</g>
<!-- q10:&#45;1 -->
<g id="node19" class="node">
<title>q10:&#45;1</title>
<ellipse fill="none" stroke="black" stroke-width="2" cx="826.94" cy="-18" rx="42.79" ry="18"/>
<text text-anchor="middle" x="826.94" y="-13.32" font-family="Times,serif" font-size="14.00">q10:&#45;1</text>
</g>
<!-- q6:&#45;1&#45;&gt;q10:&#45;1 -->
<g id="edge20" class="edge">
<title>q6:&#45;1&#45;&gt;q10:&#45;1</title>
<path fill="none" stroke="black" d="M655.33,-28.74C687.7,-26.7 735.7,-23.68 772.55,-21.36"/>
<polygon fill="black" stroke="black" points="772.32,-24.88 782.08,-20.76 771.88,-17.9 772.32,-24.88"/>
<text text-anchor="middle" x="718.94" y="-31.95" font-family="Times,serif" font-size="14.00">MAIL/250:&#45;1</text>
</g>
<!-- q10:&#45;1&#45;&gt;q7:&#45;1 -->
<g id="edge21" class="edge">
<title>q10:&#45;1&#45;&gt;q7:&#45;1</title>
<path fill="none" stroke="black" d="M869.36,-22.43C902.73,-26.31 950.76,-32.6 992.32,-40.75 997.89,-41.84 1003.72,-43.14 1009.5,-44.5"/>
<polygon fill="black" stroke="black" points="1008.28,-47.81 1018.83,-46.82 1009.97,-41.01 1008.28,-47.81"/>
<text text-anchor="middle" x="940.57" y="-44.95" font-family="Times,serif" font-size="14.00">RCPT/250:&#45;1</text>
</g>
<!-- q0:&#45;1 -->
<g id="node20" class="node">
<title>q0:&#45;1</title>
<ellipse fill="none" stroke="black" stroke-width="2" cx="44.48" cy="-62" rx="40.48" ry="40.48"/>
<ellipse fill="none" stroke="black" stroke-width="2" cx="44.48" cy="-62" rx="44.48" ry="44.48"/>
<text text-anchor="middle" x="44.48" y="-57.33" font-family="Times,serif" font-size="14.00">q0:&#45;1</text>
</g>
<!-- q0:&#45;1&#45;&gt;q1:&#45;1 -->
<g id="edge22" class="edge">
<title>q0:&#45;1&#45;&gt;q1:&#45;1</title>
<path fill="none" stroke="black" d="M85.64,-62C110.08,-62 141.44,-62 167.15,-62"/>
<polygon fill="black" stroke="black" points="167.02,-65.5 177.02,-62 167.02,-58.5 167.02,-65.5"/>
<text text-anchor="middle" x="132.2" y="-65.95" font-family="Times,serif" font-size="14.00">位/220:&#45;1</text>
</g>
</g>
</svg>
