<?xml version="1.0" encoding="UTF-8" standalone="no"?>
<!DOCTYPE svg PUBLIC "-//W3C//DTD SVG 1.1//EN"
 "http://www.w3.org/Graphics/SVG/1.1/DTD/svg11.dtd">
<!-- Generated by graphviz version 12.0.0 (20240803.0821)
 -->
<!-- Pages: 1 -->
<svg width="2284pt" height="283pt"
 viewBox="0.00 0.00 2284.30 283.00" xmlns="http://www.w3.org/2000/svg" xmlns:xlink="http://www.w3.org/1999/xlink">
<g id="graph0" class="graph" transform="scale(1 1) rotate(0) translate(4 279)">
<polygon fill="white" stroke="none" points="-4,4 -4,-279 2280.3,-279 2280.3,4 -4,4"/>
<!-- q12:0.75 -->
<g id="node1" class="node">
<title>q12:0.75</title>
<ellipse fill="none" stroke="black" stroke-width="2" cx="1208.6" cy="-257" rx="55.42" ry="18"/>
<text text-anchor="middle" x="1208.6" y="-252.32" font-family="Times,serif" font-size="14.00">q12:0.75</text>
</g>
<!-- q15:1.0 -->
<g id="node2" class="node">
<title>q15:1.0</title>
<ellipse fill="none" stroke="black" stroke-width="2" cx="1465.3" cy="-257" rx="49.1" ry="18"/>
<text text-anchor="middle" x="1465.3" y="-252.32" font-family="Times,serif" font-size="14.00">q15:1.0</text>
</g>
<!-- q12:0.75&#45;&gt;q15:1.0 -->
<g id="edge1" class="edge">
<title>q12:0.75&#45;&gt;q15:1.0</title>
<path fill="none" stroke="black" d="M1264.9,-257C1306,-257 1362.1,-257 1404.4,-257"/>
<polygon fill="black" stroke="black" points="1404.09,-260.5 1414.09,-257 1404.09,-253.5 1404.09,-260.5"/>
<text text-anchor="middle" x="1340.1" y="-260.94" font-family="Times,serif" font-size="14.00">λ/451:0.25</text>
</g>
<!-- q13:0.0 -->
<g id="node3" class="node">
<title>q13:0.0</title>
<ellipse fill="none" stroke="black" stroke-width="2" cx="1465.3" cy="-152" rx="49.1" ry="18"/>
<text text-anchor="middle" x="1465.3" y="-147.32" font-family="Times,serif" font-size="14.00">q13:0.0</text>
</g>
<!-- q13:0.0&#45;&gt;q13:0.0 -->
<g id="edge2" class="edge">
<title>q13:0.0&#45;&gt;q13:0.0</title>
<path fill="none" stroke="black" d="M1443.3,-168.66C1438.4,-178.62 1445.8,-188 1465.3,-188 1477,-188 1484.3,-184.69 1487.3,-179.92"/>
<polygon fill="black" stroke="black" points="1490.8,-180.2 1487.39,-170.17 1483.8,-180.14 1490.8,-180.2"/>
<text text-anchor="middle" x="1465.3" y="-191.94" font-family="Times,serif" font-size="14.00">RCPT/250:0.054</text>
</g>
<!-- q17:1.0 -->
<g id="node4" class="node">
<title>q17:1.0</title>
<ellipse fill="none" stroke="black" stroke-width="2" cx="1730" cy="-215" rx="49.1" ry="18"/>
<text text-anchor="middle" x="1730" y="-210.32" font-family="Times,serif" font-size="14.00">q17:1.0</text>
</g>
<!-- q13:0.0&#45;&gt;q17:1.0 -->
<g id="edge3" class="edge">
<title>q13:0.0&#45;&gt;q17:1.0</title>
<path fill="none" stroke="black" d="M1508,-161.98C1553.6,-172.93 1626.9,-190.51 1676.5,-202.4"/>
<polygon fill="black" stroke="black" points="1675.59,-205.78 1686.13,-204.71 1677.22,-198.97 1675.59,-205.78"/>
<text text-anchor="middle" x="1597.7" y="-201.94" font-family="Times,serif" font-size="14.00">DATA/550:0.136</text>
</g>
<!-- q16:0.0 -->
<g id="node5" class="node">
<title>q16:0.0</title>
<ellipse fill="none" stroke="black" stroke-width="2" cx="1730" cy="-126" rx="49.1" ry="18"/>
<text text-anchor="middle" x="1730" y="-121.33" font-family="Times,serif" font-size="14.00">q16:0.0</text>
</g>
<!-- q13:0.0&#45;&gt;q16:0.0 -->
<g id="edge4" class="edge">
<title>q13:0.0&#45;&gt;q16:0.0</title>
<path fill="none" stroke="black" d="M1513.6,-147.32C1557.6,-142.97 1623.2,-136.48 1670.4,-131.8"/>
<polygon fill="black" stroke="black" points="1670.59,-135.3 1680.19,-130.83 1669.9,-128.33 1670.59,-135.3"/>
<text text-anchor="middle" x="1597.7" y="-149.94" font-family="Times,serif" font-size="14.00">DATA/354:0.81</text>
</g>
<!-- q16:0.0&#45;&gt;q16:0.0 -->
<g id="edge5" class="edge">
<title>q16:0.0&#45;&gt;q16:0.0</title>
<path fill="none" stroke="black" d="M1706.8,-142.66C1701.6,-152.62 1709.4,-162 1730,-162 1742.3,-162 1750,-158.69 1753.2,-153.92"/>
<polygon fill="black" stroke="black" points="1756.7,-154.2 1753.29,-144.17 1749.7,-154.14 1756.7,-154.2"/>
<text text-anchor="middle" x="1730" y="-165.94" font-family="Times,serif" font-size="14.00">content/λ:0.962</text>
</g>
<!-- q20:0.0 -->
<g id="node6" class="node">
<title>q20:0.0</title>
<ellipse fill="none" stroke="black" stroke-width="2" cx="1994.8" cy="-180" rx="49.1" ry="18"/>
<text text-anchor="middle" x="1994.8" y="-175.32" font-family="Times,serif" font-size="14.00">q20:0.0</text>
</g>
<!-- q16:0.0&#45;&gt;q20:0.0 -->
<g id="edge6" class="edge">
<title>q16:0.0&#45;&gt;q20:0.0</title>
<path fill="none" stroke="black" d="M1767.5,-138.59C1777.1,-141.62 1787.4,-144.65 1797.2,-147 1843.4,-158.17 1896.6,-166.85 1936.1,-172.51"/>
<polygon fill="black" stroke="black" points="1935.41,-175.95 1945.8,-173.88 1936.39,-169.02 1935.41,-175.95"/>
<text text-anchor="middle" x="1862.4" y="-173.94" font-family="Times,serif" font-size="14.00">content/554:0.003</text>
</g>
<!-- q21:0.0 -->
<g id="node7" class="node">
<title>q21:0.0</title>
<ellipse fill="none" stroke="black" stroke-width="2" cx="1994.8" cy="-126" rx="49.1" ry="18"/>
<text text-anchor="middle" x="1994.8" y="-121.33" font-family="Times,serif" font-size="14.00">q21:0.0</text>
</g>
<!-- q16:0.0&#45;&gt;q21:0.0 -->
<g id="edge7" class="edge">
<title>q16:0.0&#45;&gt;q21:0.0</title>
<path fill="none" stroke="black" d="M1779.8,-126C1823.2,-126 1886.8,-126 1933.3,-126"/>
<polygon fill="black" stroke="black" points="1933.29,-129.5 1943.29,-126 1933.29,-122.5 1933.29,-129.5"/>
<text text-anchor="middle" x="1862.4" y="-129.94" font-family="Times,serif" font-size="14.00">content/250:0.036</text>
</g>
<!-- q24:1.0 -->
<g id="node8" class="node">
<title>q24:1.0</title>
<ellipse fill="none" stroke="black" stroke-width="2" cx="2227.2" cy="-180" rx="49.1" ry="18"/>
<text text-anchor="middle" x="2227.2" y="-175.32" font-family="Times,serif" font-size="14.00">q24:1.0</text>
</g>
<!-- q20:0.0&#45;&gt;q24:1.0 -->
<g id="edge8" class="edge">
<title>q20:0.0&#45;&gt;q24:1.0</title>
<path fill="none" stroke="black" d="M2044.6,-180C2080.1,-180 2128.2,-180 2166,-180"/>
<polygon fill="black" stroke="black" points="2165.89,-183.5 2175.89,-180 2165.89,-176.5 2165.89,-183.5"/>
<text text-anchor="middle" x="2111" y="-183.94" font-family="Times,serif" font-size="14.00">RSET/250:1.0</text>
</g>
<!-- q25:1.0 -->
<g id="node9" class="node">
<title>q25:1.0</title>
<ellipse fill="none" stroke="black" stroke-width="2" cx="2227.2" cy="-126" rx="49.1" ry="18"/>
<text text-anchor="middle" x="2227.2" y="-121.33" font-family="Times,serif" font-size="14.00">q25:1.0</text>
</g>
<!-- q21:0.0&#45;&gt;q25:1.0 -->
<g id="edge9" class="edge">
<title>q21:0.0&#45;&gt;q25:1.0</title>
<path fill="none" stroke="black" d="M2044.6,-126C2080.1,-126 2128.2,-126 2166,-126"/>
<polygon fill="black" stroke="black" points="2165.89,-129.5 2175.89,-126 2165.89,-122.5 2165.89,-129.5"/>
<text text-anchor="middle" x="2111" y="-129.94" font-family="Times,serif" font-size="14.00">QUIT/221:1.0</text>
</g>
<!-- q14:0.0 -->
<g id="node10" class="node">
<title>q14:0.0</title>
<ellipse fill="none" stroke="black" stroke-width="2" cx="1465.3" cy="-85" rx="49.1" ry="18"/>
<text text-anchor="middle" x="1465.3" y="-80.33" font-family="Times,serif" font-size="14.00">q14:0.0</text>
</g>
<!-- q14:0.0&#45;&gt;q16:0.0 -->
<g id="edge10" class="edge">
<title>q14:0.0&#45;&gt;q16:0.0</title>
<path fill="none" stroke="black" d="M1513.4,-90.37C1553.3,-95.17 1612.1,-102.82 1662.9,-111.75 1667.1,-112.47 1671.3,-113.27 1675.6,-114.11"/>
<polygon fill="black" stroke="black" points="1674.82,-117.52 1685.32,-116.09 1676.22,-110.66 1674.82,-117.52"/>
<text text-anchor="middle" x="1597.7" y="-115.95" font-family="Times,serif" font-size="14.00">content/λ:0.033</text>
</g>
<!-- q18:0.0 -->
<g id="node11" class="node">
<title>q18:0.0</title>
<ellipse fill="none" stroke="black" stroke-width="2" cx="1730" cy="-72" rx="49.1" ry="18"/>
<text text-anchor="middle" x="1730" y="-67.33" font-family="Times,serif" font-size="14.00">q18:0.0</text>
</g>
<!-- q14:0.0&#45;&gt;q18:0.0 -->
<g id="edge11" class="edge">
<title>q14:0.0&#45;&gt;q18:0.0</title>
<path fill="none" stroke="black" d="M1509.2,-75.9C1516.9,-74.6 1524.9,-73.46 1532.4,-72.75 1578.1,-68.47 1630,-68.47 1669,-69.45"/>
<polygon fill="black" stroke="black" points="1668.89,-72.95 1678.99,-69.73 1669.09,-65.95 1668.89,-72.95"/>
<text text-anchor="middle" x="1597.7" y="-76.95" font-family="Times,serif" font-size="14.00">content/250:0.233</text>
</g>
<!-- q19:0.0 -->
<g id="node12" class="node">
<title>q19:0.0</title>
<ellipse fill="none" stroke="black" stroke-width="2" cx="1730" cy="-18" rx="49.1" ry="18"/>
<text text-anchor="middle" x="1730" y="-13.32" font-family="Times,serif" font-size="14.00">q19:0.0</text>
</g>
<!-- q14:0.0&#45;&gt;q19:0.0 -->
<g id="edge12" class="edge">
<title>q14:0.0&#45;&gt;q19:0.0</title>
<path fill="none" stroke="black" d="M1490.4,-68.61C1502.6,-61.12 1517.7,-52.81 1532.4,-47.75 1576.9,-32.45 1629.6,-25.01 1669.3,-21.4"/>
<polygon fill="black" stroke="black" points="1669.42,-24.9 1679.09,-20.57 1668.83,-17.93 1669.42,-24.9"/>
<text text-anchor="middle" x="1597.7" y="-51.95" font-family="Times,serif" font-size="14.00">content/554:0.733</text>
</g>
<!-- q22:1.0 -->
<g id="node13" class="node">
<title>q22:1.0</title>
<ellipse fill="none" stroke="black" stroke-width="2" cx="1994.8" cy="-72" rx="49.1" ry="18"/>
<text text-anchor="middle" x="1994.8" y="-67.33" font-family="Times,serif" font-size="14.00">q22:1.0</text>
</g>
<!-- q18:0.0&#45;&gt;q22:1.0 -->
<g id="edge13" class="edge">
<title>q18:0.0&#45;&gt;q22:1.0</title>
<path fill="none" stroke="black" d="M1779.8,-72C1823.2,-72 1886.8,-72 1933.3,-72"/>
<polygon fill="black" stroke="black" points="1933.29,-75.5 1943.29,-72 1933.29,-68.5 1933.29,-75.5"/>
<text text-anchor="middle" x="1862.4" y="-75.95" font-family="Times,serif" font-size="14.00">QUIT/221:1.0</text>
</g>
<!-- q23:1.0 -->
<g id="node14" class="node">
<title>q23:1.0</title>
<ellipse fill="none" stroke="black" stroke-width="2" cx="1994.8" cy="-18" rx="49.1" ry="18"/>
<text text-anchor="middle" x="1994.8" y="-13.32" font-family="Times,serif" font-size="14.00">q23:1.0</text>
</g>
<!-- q19:0.0&#45;&gt;q23:1.0 -->
<g id="edge14" class="edge">
<title>q19:0.0&#45;&gt;q23:1.0</title>
<path fill="none" stroke="black" d="M1779.8,-18C1823.2,-18 1886.8,-18 1933.3,-18"/>
<polygon fill="black" stroke="black" points="1933.29,-21.5 1943.29,-18 1933.29,-14.5 1933.29,-21.5"/>
<text text-anchor="middle" x="1862.4" y="-21.95" font-family="Times,serif" font-size="14.00">RSET/250:1.0</text>
</g>
<!-- q3:0.0 -->
<g id="node15" class="node">
<title>q3:0.0</title>
<ellipse fill="none" stroke="black" stroke-width="2" cx="484.7" cy="-196" rx="42.79" ry="18"/>
<text text-anchor="middle" x="484.7" y="-191.32" font-family="Times,serif" font-size="14.00">q3:0.0</text>
</g>
<!-- q6:0.0 -->
<g id="node16" class="node">
<title>q6:0.0</title>
<ellipse fill="none" stroke="black" stroke-width="2" cx="725.53" cy="-257" rx="42.79" ry="18"/>
<text text-anchor="middle" x="725.53" y="-252.32" font-family="Times,serif" font-size="14.00">q6:0.0</text>
</g>
<!-- q3:0.0&#45;&gt;q6:0.0 -->
<g id="edge15" class="edge">
<title>q3:0.0&#45;&gt;q6:0.0</title>
<path fill="none" stroke="black" d="M514.11,-209.86C523.88,-214.22 535.01,-218.74 545.49,-222 587.38,-235.03 636.35,-244.21 672.48,-249.89"/>
<polygon fill="black" stroke="black" points="671.82,-253.33 682.23,-251.38 672.88,-246.41 671.82,-253.33"/>
<text text-anchor="middle" x="605.12" y="-251.94" font-family="Times,serif" font-size="14.00">AUTH/535:0.049</text>
</g>
<!-- q5:0.0 -->
<g id="node17" class="node">
<title>q5:0.0</title>
<ellipse fill="none" stroke="black" stroke-width="2" cx="725.53" cy="-203" rx="42.79" ry="18"/>
<text text-anchor="middle" x="725.53" y="-198.32" font-family="Times,serif" font-size="14.00">q5:0.0</text>
</g>
<!-- q3:0.0&#45;&gt;q5:0.0 -->
<g id="edge16" class="edge">
<title>q3:0.0&#45;&gt;q5:0.0</title>
<path fill="none" stroke="black" d="M528.12,-197.24C567.91,-198.41 627.56,-200.16 670.69,-201.42"/>
<polygon fill="black" stroke="black" points="670.49,-204.92 680.59,-201.71 670.7,-197.92 670.49,-204.92"/>
<text text-anchor="middle" x="605.12" y="-204.94" font-family="Times,serif" font-size="14.00">AUTH/235:0.947</text>
</g>
<!-- q4:0.0 -->
<g id="node18" class="node">
<title>q4:0.0</title>
<ellipse fill="none" stroke="black" stroke-width="2" cx="725.53" cy="-123" rx="42.79" ry="18"/>
<text text-anchor="middle" x="725.53" y="-118.33" font-family="Times,serif" font-size="14.00">q4:0.0</text>
</g>
<!-- q3:0.0&#45;&gt;q4:0.0 -->
<g id="edge17" class="edge">
<title>q3:0.0&#45;&gt;q4:0.0</title>
<path fill="none" stroke="black" d="M519.14,-184.39C527.7,-181.5 536.92,-178.45 545.49,-175.75 598.15,-159.17 611.81,-156.68 664.74,-141 669.24,-139.67 673.93,-138.27 678.62,-136.87"/>
<polygon fill="black" stroke="black" points="679.43,-140.28 688,-134.06 677.42,-133.58 679.43,-140.28"/>
<text text-anchor="middle" x="605.12" y="-178.94" font-family="Times,serif" font-size="14.00">AUTH/λ:0.004</text>
</g>
<!-- q9:0.0 -->
<g id="node19" class="node">
<title>q9:0.0</title>
<ellipse fill="none" stroke="black" stroke-width="2" cx="961.86" cy="-257" rx="42.79" ry="18"/>
<text text-anchor="middle" x="961.86" y="-252.32" font-family="Times,serif" font-size="14.00">q9:0.0</text>
</g>
<!-- q6:0.0&#45;&gt;q9:0.0 -->
<g id="edge18" class="edge">
<title>q6:0.0&#45;&gt;q9:0.0</title>
<path fill="none" stroke="black" d="M769.24,-257C807.97,-257 865.24,-257 907.08,-257"/>
<polygon fill="black" stroke="black" points="906.94,-260.5 916.94,-257 906.94,-253.5 906.94,-260.5"/>
<text text-anchor="middle" x="843.7" y="-260.94" font-family="Times,serif" font-size="14.00">AUTH/334:1.0</text>
</g>
<!-- q8:0.0 -->
<g id="node20" class="node">
<title>q8:0.0</title>
<ellipse fill="none" stroke="black" stroke-width="2" cx="961.86" cy="-203" rx="42.79" ry="18"/>
<text text-anchor="middle" x="961.86" y="-198.32" font-family="Times,serif" font-size="14.00">q8:0.0</text>
</g>
<!-- q5:0.0&#45;&gt;q8:0.0 -->
<g id="edge19" class="edge">
<title>q5:0.0&#45;&gt;q8:0.0</title>
<path fill="none" stroke="black" d="M769.24,-203C807.97,-203 865.24,-203 907.08,-203"/>
<polygon fill="black" stroke="black" points="906.94,-206.5 916.94,-203 906.94,-199.5 906.94,-206.5"/>
<text text-anchor="middle" x="843.7" y="-206.94" font-family="Times,serif" font-size="14.00">MAIL/553:0.013</text>
</g>
<!-- q7:0.0 -->
<g id="node21" class="node">
<title>q7:0.0</title>
<ellipse fill="none" stroke="black" stroke-width="2" cx="961.86" cy="-136" rx="42.79" ry="18"/>
<text text-anchor="middle" x="961.86" y="-131.32" font-family="Times,serif" font-size="14.00">q7:0.0</text>
</g>
<!-- q5:0.0&#45;&gt;q7:0.0 -->
<g id="edge20" class="edge">
<title>q5:0.0&#45;&gt;q7:0.0</title>
<path fill="none" stroke="black" d="M758.95,-190.91C767.78,-187.78 777.37,-184.51 786.32,-181.75 828.6,-168.72 877.34,-156.15 912.56,-147.49"/>
<polygon fill="black" stroke="black" points="913.14,-150.95 922.02,-145.18 911.47,-144.15 913.14,-150.95"/>
<text text-anchor="middle" x="843.7" y="-184.94" font-family="Times,serif" font-size="14.00">MAIL/250:0.987</text>
</g>
<!-- q4:0.0&#45;&gt;q7:0.0 -->
<g id="edge21" class="edge">
<title>q4:0.0&#45;&gt;q7:0.0</title>
<path fill="none" stroke="black" d="M768.98,-120.85C804.4,-119.61 856.16,-119.1 901.07,-123.75 904.71,-124.13 908.45,-124.62 912.2,-125.2"/>
<polygon fill="black" stroke="black" points="911.46,-128.62 921.91,-126.89 912.66,-121.73 911.46,-128.62"/>
<text text-anchor="middle" x="843.7" y="-127.95" font-family="Times,serif" font-size="14.00">MAIL/250:1.0</text>
</g>
<!-- q9:0.0&#45;&gt;q12:0.75 -->
<g id="edge22" class="edge">
<title>q9:0.0&#45;&gt;q12:0.75</title>
<path fill="none" stroke="black" d="M1005.5,-257C1042.9,-257 1098.1,-257 1141.3,-257"/>
<polygon fill="black" stroke="black" points="1141.09,-260.5 1151.09,-257 1141.09,-253.5 1141.09,-260.5"/>
<text text-anchor="middle" x="1078.9" y="-260.94" font-family="Times,serif" font-size="14.00">content/535:1.0</text>
</g>
<!-- q11:1.0 -->
<g id="node22" class="node">
<title>q11:1.0</title>
<ellipse fill="none" stroke="black" stroke-width="2" cx="1208.6" cy="-203" rx="49.1" ry="18"/>
<text text-anchor="middle" x="1208.6" y="-198.32" font-family="Times,serif" font-size="14.00">q11:1.0</text>
</g>
<!-- q8:0.0&#45;&gt;q11:1.0 -->
<g id="edge23" class="edge">
<title>q8:0.0&#45;&gt;q11:1.0</title>
<path fill="none" stroke="black" d="M1005.5,-203C1044.7,-203 1103.3,-203 1147.3,-203"/>
<polygon fill="black" stroke="black" points="1147.19,-206.5 1157.19,-203 1147.19,-199.5 1147.19,-206.5"/>
<text text-anchor="middle" x="1078.9" y="-206.94" font-family="Times,serif" font-size="14.00">RSET/250:1.0</text>
</g>
<!-- q10:0.0 -->
<g id="node23" class="node">
<title>q10:0.0</title>
<ellipse fill="none" stroke="black" stroke-width="2" cx="1208.6" cy="-136" rx="49.1" ry="18"/>
<text text-anchor="middle" x="1208.6" y="-131.32" font-family="Times,serif" font-size="14.00">q10:0.0</text>
</g>
<!-- q7:0.0&#45;&gt;q10:0.0 -->
<g id="edge24" class="edge">
<title>q7:0.0&#45;&gt;q10:0.0</title>
<path fill="none" stroke="black" d="M1005.5,-136C1044.7,-136 1103.3,-136 1147.3,-136"/>
<polygon fill="black" stroke="black" points="1147.19,-139.5 1157.19,-136 1147.19,-132.5 1147.19,-139.5"/>
<text text-anchor="middle" x="1078.9" y="-139.94" font-family="Times,serif" font-size="14.00">RCPT/250:1.0</text>
</g>
<!-- q10:0.0&#45;&gt;q13:0.0 -->
<g id="edge25" class="edge">
<title>q10:0.0&#45;&gt;q13:0.0</title>
<path fill="none" stroke="black" d="M1257.8,-139.03C1299.5,-141.65 1359.9,-145.44 1404.6,-148.25"/>
<polygon fill="black" stroke="black" points="1404.19,-151.73 1414.39,-148.87 1404.63,-144.74 1404.19,-151.73"/>
<text text-anchor="middle" x="1340.1" y="-151.94" font-family="Times,serif" font-size="14.00">RCPT/250:0.607</text>
</g>
<!-- q10:0.0&#45;&gt;q14:0.0 -->
<g id="edge26" class="edge">
<title>q10:0.0&#45;&gt;q14:0.0</title>
<path fill="none" stroke="black" d="M1251.6,-126.32C1261.6,-124.1 1272.1,-121.79 1282,-119.75 1324.4,-110.95 1372.6,-101.81 1408.7,-95.11"/>
<polygon fill="black" stroke="black" points="1409.31,-98.56 1418.51,-93.3 1408.04,-91.67 1409.31,-98.56"/>
<text text-anchor="middle" x="1340.1" y="-123.95" font-family="Times,serif" font-size="14.00">DATA/354:0.393</text>
</g>
<!-- q1:0.0 -->
<g id="node24" class="node">
<title>q1:0.0</title>
<ellipse fill="none" stroke="black" stroke-width="2" cx="243.87" cy="-163" rx="42.79" ry="18"/>
<text text-anchor="middle" x="243.87" y="-158.32" font-family="Times,serif" font-size="14.00">q1:0.0</text>
</g>
<!-- q1:0.0&#45;&gt;q3:0.0 -->
<g id="edge27" class="edge">
<title>q1:0.0&#45;&gt;q3:0.0</title>
<path fill="none" stroke="black" d="M285.66,-168.64C326.01,-174.21 387.94,-182.77 431.79,-188.83"/>
<polygon fill="black" stroke="black" points="431.19,-192.28 441.58,-190.18 432.15,-185.35 431.19,-192.28"/>
<text text-anchor="middle" x="364.29" y="-190.94" font-family="Times,serif" font-size="14.00">EHLO/250:0.996</text>
</g>
<!-- q2:0.0 -->
<g id="node25" class="node">
<title>q2:0.0</title>
<ellipse fill="none" stroke="black" stroke-width="2" cx="484.7" cy="-136" rx="42.79" ry="18"/>
<text text-anchor="middle" x="484.7" y="-131.32" font-family="Times,serif" font-size="14.00">q2:0.0</text>
</g>
<!-- q1:0.0&#45;&gt;q2:0.0 -->
<g id="edge28" class="edge">
<title>q1:0.0&#45;&gt;q2:0.0</title>
<path fill="none" stroke="black" d="M282.04,-153.91C289.49,-152.33 297.3,-150.84 304.66,-149.75 346.54,-143.53 394.37,-140.04 430.05,-138.14"/>
<polygon fill="black" stroke="black" points="429.87,-141.65 439.68,-137.65 429.51,-134.66 429.87,-141.65"/>
<text text-anchor="middle" x="364.29" y="-153.94" font-family="Times,serif" font-size="14.00">EHLO/λ:0.004</text>
</g>
<!-- q2:0.0&#45;&gt;q4:0.0 -->
<g id="edge29" class="edge">
<title>q2:0.0&#45;&gt;q4:0.0</title>
<path fill="none" stroke="black" d="M523.16,-127.14C530.52,-125.74 538.22,-124.5 545.49,-123.75 587.48,-119.4 635.3,-119.46 670.96,-120.47"/>
<polygon fill="black" stroke="black" points="670.46,-123.96 680.57,-120.77 670.68,-116.96 670.46,-123.96"/>
<text text-anchor="middle" x="605.12" y="-127.95" font-family="Times,serif" font-size="14.00">AUTH/235:1.0</text>
</g>
<!-- q0:0.0 -->
<g id="node26" class="node">
<title>q0:0.0</title>
<ellipse fill="none" stroke="black" stroke-width="2" cx="50.79" cy="-163" rx="46.79" ry="46.79"/>
<ellipse fill="none" stroke="black" stroke-width="2" cx="50.79" cy="-163" rx="50.79" ry="50.79"/>
<text text-anchor="middle" x="50.79" y="-158.32" font-family="Times,serif" font-size="14.00">q0:0.0</text>
</g>
<!-- q0:0.0&#45;&gt;q1:0.0 -->
<g id="edge30" class="edge">
<title>q0:0.0&#45;&gt;q1:0.0</title>
<path fill="none" stroke="black" d="M98.53,-163C125.82,-163 160.37,-163 188.82,-163"/>
<polygon fill="black" stroke="black" points="188.69,-166.5 198.69,-163 188.69,-159.5 188.69,-166.5"/>
<text text-anchor="middle" x="149.33" y="-166.94" font-family="Times,serif" font-size="14.00">λ/220:1.0</text>
</g>
</g>
</svg>
