<?xml version="1.0" encoding="UTF-8" standalone="no"?>
<!DOCTYPE svg PUBLIC "-//W3C//DTD SVG 1.1//EN"
 "http://www.w3.org/Graphics/SVG/1.1/DTD/svg11.dtd">
<!-- Generated by graphviz version 12.0.0 (20240803.0821)
 -->
<!-- Pages: 1 -->
<svg width="2553pt" height="261pt"
 viewBox="0.00 0.00 2553.40 261.00" xmlns="http://www.w3.org/2000/svg" xmlns:xlink="http://www.w3.org/1999/xlink">
<g id="graph0" class="graph" transform="scale(1 1) rotate(0) translate(4 257)">
<polygon fill="white" stroke="none" points="-4,4 -4,-257 2549.4,-257 2549.4,4 -4,4"/>
<!-- q7:0.0 -->
<g id="node1" class="node">
<title>q7:0.0</title>
<ellipse fill="none" stroke="black" stroke-width="2" cx="952.86" cy="-148" rx="42.79" ry="18"/>
<text text-anchor="middle" x="952.86" y="-143.32" font-family="Times,serif" font-size="14.00">q7:0.0</text>
</g>
<!-- q10:0.0 -->
<g id="node2" class="node">
<title>q10:0.0</title>
<ellipse fill="none" stroke="black" stroke-width="2" cx="1205.9" cy="-148" rx="49.1" ry="18"/>
<text text-anchor="middle" x="1205.9" y="-143.32" font-family="Times,serif" font-size="14.00">q10:0.0</text>
</g>
<!-- q7:0.0&#45;&gt;q10:0.0 -->
<g id="edge1" class="edge">
<title>q7:0.0&#45;&gt;q10:0.0</title>
<path fill="none" stroke="black" d="M996.44,-148C1037.2,-148 1099,-148 1144.8,-148"/>
<polygon fill="black" stroke="black" points="1144.59,-151.5 1154.59,-148 1144.59,-144.5 1144.59,-151.5"/>
<text text-anchor="middle" x="1069.9" y="-151.94" font-family="Times,serif" font-size="14.00">RCPT/250:1.0</text>
</g>
<!-- q13:0.0 -->
<g id="node3" class="node">
<title>q13:0.0</title>
<ellipse fill="none" stroke="black" stroke-width="2" cx="1734.5" cy="-141" rx="49.1" ry="18"/>
<text text-anchor="middle" x="1734.5" y="-136.32" font-family="Times,serif" font-size="14.00">q13:0.0</text>
</g>
<!-- q10:0.0&#45;&gt;q13:0.0 -->
<g id="edge2" class="edge">
<title>q10:0.0&#45;&gt;q13:0.0</title>
<path fill="none" stroke="black" d="M1255.9,-147.35C1352.8,-146.06 1568.2,-143.2 1673.4,-141.8"/>
<polygon fill="black" stroke="black" points="1673.23,-145.3 1683.19,-141.67 1673.14,-138.3 1673.23,-145.3"/>
<text text-anchor="middle" x="1477.2" y="-149.94" font-family="Times,serif" font-size="14.00">DATA/354:0.297</text>
</g>
<!-- q12:0.0 -->
<g id="node4" class="node">
<title>q12:0.0</title>
<ellipse fill="none" stroke="black" stroke-width="2" cx="1477.2" cy="-96" rx="49.1" ry="18"/>
<text text-anchor="middle" x="1477.2" y="-91.33" font-family="Times,serif" font-size="14.00">q12:0.0</text>
</g>
<!-- q10:0.0&#45;&gt;q12:0.0 -->
<g id="edge3" class="edge">
<title>q10:0.0&#45;&gt;q12:0.0</title>
<path fill="none" stroke="black" d="M1239.3,-133.99C1253.3,-128.45 1270,-122.52 1285.6,-118.75 1328.8,-108.31 1378.6,-102.58 1416.5,-99.48"/>
<polygon fill="black" stroke="black" points="1416.69,-102.97 1426.39,-98.71 1416.15,-95.99 1416.69,-102.97"/>
<text text-anchor="middle" x="1343.7" y="-122.95" font-family="Times,serif" font-size="14.00">RCPT/250:0.703</text>
</g>
<!-- q17:0.0 -->
<g id="node5" class="node">
<title>q17:0.0</title>
<ellipse fill="none" stroke="black" stroke-width="2" cx="1999.2" cy="-235" rx="49.1" ry="18"/>
<text text-anchor="middle" x="1999.2" y="-230.32" font-family="Times,serif" font-size="14.00">q17:0.0</text>
</g>
<!-- q13:0.0&#45;&gt;q17:0.0 -->
<g id="edge4" class="edge">
<title>q13:0.0&#45;&gt;q17:0.0</title>
<path fill="none" stroke="black" d="M1751.4,-158.67C1763.8,-171.32 1782.2,-187.7 1801.6,-197 1844.6,-217.62 1898,-227.06 1938.3,-231.37"/>
<polygon fill="black" stroke="black" points="1937.8,-234.84 1948.09,-232.33 1938.48,-227.87 1937.8,-234.84"/>
<text text-anchor="middle" x="1866.8" y="-233.94" font-family="Times,serif" font-size="14.00">content/550:0.001</text>
</g>
<!-- q19:0.0 -->
<g id="node6" class="node">
<title>q19:0.0</title>
<ellipse fill="none" stroke="black" stroke-width="2" cx="1999.2" cy="-181" rx="49.1" ry="18"/>
<text text-anchor="middle" x="1999.2" y="-176.32" font-family="Times,serif" font-size="14.00">q19:0.0</text>
</g>
<!-- q13:0.0&#45;&gt;q19:0.0 -->
<g id="edge5" class="edge">
<title>q13:0.0&#45;&gt;q19:0.0</title>
<path fill="none" stroke="black" d="M1774,-152.58C1783,-154.97 1792.6,-157.28 1801.6,-159 1847.2,-167.72 1899.5,-173.36 1938.7,-176.75"/>
<polygon fill="black" stroke="black" points="1938.43,-180.24 1948.69,-177.58 1939.02,-173.26 1938.43,-180.24"/>
<text text-anchor="middle" x="1866.8" y="-179.94" font-family="Times,serif" font-size="14.00">content/250:0.052</text>
</g>
<!-- q18:0.0 -->
<g id="node7" class="node">
<title>q18:0.0</title>
<ellipse fill="none" stroke="black" stroke-width="2" cx="1999.2" cy="-127" rx="49.1" ry="18"/>
<text text-anchor="middle" x="1999.2" y="-122.33" font-family="Times,serif" font-size="14.00">q18:0.0</text>
</g>
<!-- q13:0.0&#45;&gt;q18:0.0 -->
<g id="edge6" class="edge">
<title>q13:0.0&#45;&gt;q18:0.0</title>
<path fill="none" stroke="black" d="M1784,-138.42C1827.6,-136.09 1891.7,-132.67 1938.5,-130.18"/>
<polygon fill="black" stroke="black" points="1938.69,-133.68 1948.49,-129.65 1938.32,-126.68 1938.69,-133.68"/>
<text text-anchor="middle" x="1866.8" y="-141.94" font-family="Times,serif" font-size="14.00">content/554:0.028</text>
</g>
<!-- q16:0.0 -->
<g id="node8" class="node">
<title>q16:0.0</title>
<ellipse fill="none" stroke="black" stroke-width="2" cx="1999.2" cy="-67" rx="49.1" ry="18"/>
<text text-anchor="middle" x="1999.2" y="-62.33" font-family="Times,serif" font-size="14.00">q16:0.0</text>
</g>
<!-- q13:0.0&#45;&gt;q16:0.0 -->
<g id="edge7" class="edge">
<title>q13:0.0&#45;&gt;q16:0.0</title>
<path fill="none" stroke="black" d="M1763.8,-125.85C1775.3,-120.19 1788.8,-114.08 1801.6,-109.75 1827.3,-100.98 1894.6,-87.05 1943.3,-77.48"/>
<polygon fill="black" stroke="black" points="1943.67,-80.98 1952.81,-75.62 1942.33,-74.11 1943.67,-80.98"/>
<text text-anchor="middle" x="1866.8" y="-113.95" font-family="Times,serif" font-size="14.00">content/λ:0.92</text>
</g>
<!-- q12:0.0&#45;&gt;q13:0.0 -->
<g id="edge8" class="edge">
<title>q12:0.0&#45;&gt;q13:0.0</title>
<path fill="none" stroke="black" d="M1526.5,-99.07C1565,-102.17 1620.1,-108.07 1667.4,-118.75 1674.2,-120.29 1681.3,-122.27 1688.2,-124.41"/>
<polygon fill="black" stroke="black" points="1686.87,-127.66 1697.46,-127.4 1689.02,-121 1686.87,-127.66"/>
<text text-anchor="middle" x="1610" y="-122.95" font-family="Times,serif" font-size="14.00">DATA/354:0.733</text>
</g>
<!-- q15:1.0 -->
<g id="node9" class="node">
<title>q15:1.0</title>
<ellipse fill="none" stroke="black" stroke-width="2" cx="1734.5" cy="-78" rx="49.1" ry="18"/>
<text text-anchor="middle" x="1734.5" y="-73.33" font-family="Times,serif" font-size="14.00">q15:1.0</text>
</g>
<!-- q12:0.0&#45;&gt;q15:1.0 -->
<g id="edge9" class="edge">
<title>q12:0.0&#45;&gt;q15:1.0</title>
<path fill="none" stroke="black" d="M1518.1,-85.03C1529.2,-82.45 1541.3,-80.07 1552.6,-78.75 1592.9,-74.06 1638.5,-73.91 1673.8,-74.91"/>
<polygon fill="black" stroke="black" points="1673.28,-78.39 1683.39,-75.22 1673.51,-71.4 1673.28,-78.39"/>
<text text-anchor="middle" x="1610" y="-82.95" font-family="Times,serif" font-size="14.00">DATA/550:0.267</text>
</g>
<!-- q22:1.0 -->
<g id="node10" class="node">
<title>q22:1.0</title>
<ellipse fill="none" stroke="black" stroke-width="2" cx="2263.9" cy="-235" rx="49.1" ry="18"/>
<text text-anchor="middle" x="2263.9" y="-230.32" font-family="Times,serif" font-size="14.00">q22:1.0</text>
</g>
<!-- q17:0.0&#45;&gt;q22:1.0 -->
<g id="edge10" class="edge">
<title>q17:0.0&#45;&gt;q22:1.0</title>
<path fill="none" stroke="black" d="M2049,-235C2092.3,-235 2155.9,-235 2202.4,-235"/>
<polygon fill="black" stroke="black" points="2202.39,-238.5 2212.39,-235 2202.39,-231.5 2202.39,-238.5"/>
<text text-anchor="middle" x="2131.5" y="-238.94" font-family="Times,serif" font-size="14.00">RSET/250:1.0</text>
</g>
<!-- q24:1.0 -->
<g id="node11" class="node">
<title>q24:1.0</title>
<ellipse fill="none" stroke="black" stroke-width="2" cx="2263.9" cy="-181" rx="49.1" ry="18"/>
<text text-anchor="middle" x="2263.9" y="-176.32" font-family="Times,serif" font-size="14.00">q24:1.0</text>
</g>
<!-- q19:0.0&#45;&gt;q24:1.0 -->
<g id="edge11" class="edge">
<title>q19:0.0&#45;&gt;q24:1.0</title>
<path fill="none" stroke="black" d="M2049,-181C2092.3,-181 2155.9,-181 2202.4,-181"/>
<polygon fill="black" stroke="black" points="2202.39,-184.5 2212.39,-181 2202.39,-177.5 2202.39,-184.5"/>
<text text-anchor="middle" x="2131.5" y="-184.94" font-family="Times,serif" font-size="14.00">QUIT/221:1.0</text>
</g>
<!-- q23:1.0 -->
<g id="node12" class="node">
<title>q23:1.0</title>
<ellipse fill="none" stroke="black" stroke-width="2" cx="2263.9" cy="-127" rx="49.1" ry="18"/>
<text text-anchor="middle" x="2263.9" y="-122.33" font-family="Times,serif" font-size="14.00">q23:1.0</text>
</g>
<!-- q18:0.0&#45;&gt;q23:1.0 -->
<g id="edge12" class="edge">
<title>q18:0.0&#45;&gt;q23:1.0</title>
<path fill="none" stroke="black" d="M2049,-127C2092.3,-127 2155.9,-127 2202.4,-127"/>
<polygon fill="black" stroke="black" points="2202.39,-130.5 2212.39,-127 2202.39,-123.5 2202.39,-130.5"/>
<text text-anchor="middle" x="2131.5" y="-130.94" font-family="Times,serif" font-size="14.00">RSET/250:1.0</text>
</g>
<!-- q16:0.0&#45;&gt;q13:0.0 -->
<g id="edge13" class="edge">
<title>q16:0.0&#45;&gt;q13:0.0</title>
<path fill="none" stroke="black" d="M1963.1,-53.85C1920.9,-40.45 1849.6,-25.87 1801.6,-58.75 1783.4,-71.2 1796.9,-87.44 1783.6,-105 1779.9,-109.88 1775.3,-114.42 1770.5,-118.51"/>
<polygon fill="black" stroke="black" points="1768.62,-115.54 1762.89,-124.45 1772.93,-121.05 1768.62,-115.54"/>
<text text-anchor="middle" x="1866.8" y="-62.95" font-family="Times,serif" font-size="14.00">content/λ:0.971</text>
</g>
<!-- q21:0.0 -->
<g id="node13" class="node">
<title>q21:0.0</title>
<ellipse fill="none" stroke="black" stroke-width="2" cx="2263.9" cy="-72" rx="49.1" ry="18"/>
<text text-anchor="middle" x="2263.9" y="-67.33" font-family="Times,serif" font-size="14.00">q21:0.0</text>
</g>
<!-- q16:0.0&#45;&gt;q21:0.0 -->
<g id="edge14" class="edge">
<title>q16:0.0&#45;&gt;q21:0.0</title>
<path fill="none" stroke="black" d="M2049,-67.93C2092.3,-68.75 2155.9,-69.96 2202.4,-70.85"/>
<polygon fill="black" stroke="black" points="2202.32,-74.35 2212.39,-71.04 2202.45,-67.35 2202.32,-74.35"/>
<text text-anchor="middle" x="2131.5" y="-74.95" font-family="Times,serif" font-size="14.00">content/554:0.001</text>
</g>
<!-- q20:0.0 -->
<g id="node14" class="node">
<title>q20:0.0</title>
<ellipse fill="none" stroke="black" stroke-width="2" cx="2263.9" cy="-18" rx="49.1" ry="18"/>
<text text-anchor="middle" x="2263.9" y="-13.32" font-family="Times,serif" font-size="14.00">q20:0.0</text>
</g>
<!-- q16:0.0&#45;&gt;q20:0.0 -->
<g id="edge15" class="edge">
<title>q16:0.0&#45;&gt;q20:0.0</title>
<path fill="none" stroke="black" d="M2038.1,-55.03C2047.2,-52.39 2057.1,-49.78 2066.3,-47.75 2112.5,-37.58 2165.5,-29.77 2204.9,-24.72"/>
<polygon fill="black" stroke="black" points="2205.12,-28.22 2214.6,-23.49 2204.24,-21.27 2205.12,-28.22"/>
<text text-anchor="middle" x="2131.5" y="-51.95" font-family="Times,serif" font-size="14.00">content/250:0.029</text>
</g>
<!-- q26:1.0 -->
<g id="node17" class="node">
<title>q26:1.0</title>
<ellipse fill="none" stroke="black" stroke-width="2" cx="2496.3" cy="-72" rx="49.1" ry="18"/>
<text text-anchor="middle" x="2496.3" y="-67.33" font-family="Times,serif" font-size="14.00">q26:1.0</text>
</g>
<!-- q21:0.0&#45;&gt;q26:1.0 -->
<g id="edge17" class="edge">
<title>q21:0.0&#45;&gt;q26:1.0</title>
<path fill="none" stroke="black" d="M2313.8,-72C2349.2,-72 2397.3,-72 2435.2,-72"/>
<polygon fill="black" stroke="black" points="2434.99,-75.5 2444.99,-72 2434.99,-68.5 2434.99,-75.5"/>
<text text-anchor="middle" x="2380.1" y="-75.95" font-family="Times,serif" font-size="14.00">RSET/250:1.0</text>
</g>
<!-- q25:1.0 -->
<g id="node18" class="node">
<title>q25:1.0</title>
<ellipse fill="none" stroke="black" stroke-width="2" cx="2496.3" cy="-18" rx="49.1" ry="18"/>
<text text-anchor="middle" x="2496.3" y="-13.32" font-family="Times,serif" font-size="14.00">q25:1.0</text>
</g>
<!-- q20:0.0&#45;&gt;q25:1.0 -->
<g id="edge18" class="edge">
<title>q20:0.0&#45;&gt;q25:1.0</title>
<path fill="none" stroke="black" d="M2313.8,-18C2349.2,-18 2397.3,-18 2435.2,-18"/>
<polygon fill="black" stroke="black" points="2434.99,-21.5 2444.99,-18 2434.99,-14.5 2434.99,-21.5"/>
<text text-anchor="middle" x="2380.1" y="-21.95" font-family="Times,serif" font-size="14.00">QUIT/221:1.0</text>
</g>
<!-- q11:0.667 -->
<g id="node15" class="node">
<title>q11:0.667</title>
<ellipse fill="none" stroke="black" stroke-width="2" cx="1205.9" cy="-205" rx="61.73" ry="18"/>
<text text-anchor="middle" x="1205.9" y="-200.32" font-family="Times,serif" font-size="14.00">q11:0.667</text>
</g>
<!-- q14:1.0 -->
<g id="node16" class="node">
<title>q14:1.0</title>
<ellipse fill="none" stroke="black" stroke-width="2" cx="1477.2" cy="-205" rx="49.1" ry="18"/>
<text text-anchor="middle" x="1477.2" y="-200.32" font-family="Times,serif" font-size="14.00">q14:1.0</text>
</g>
<!-- q11:0.667&#45;&gt;q14:1.0 -->
<g id="edge16" class="edge">
<title>q11:0.667&#45;&gt;q14:1.0</title>
<path fill="none" stroke="black" d="M1268.3,-205C1312.5,-205 1371.8,-205 1415.8,-205"/>
<polygon fill="black" stroke="black" points="1415.69,-208.5 1425.69,-205 1415.69,-201.5 1415.69,-208.5"/>
<text text-anchor="middle" x="1343.7" y="-208.94" font-family="Times,serif" font-size="14.00">λ/451:0.333</text>
</g>
<!-- q3:0.0 -->
<g id="node19" class="node">
<title>q3:0.0</title>
<ellipse fill="none" stroke="black" stroke-width="2" cx="484.7" cy="-179" rx="42.79" ry="18"/>
<text text-anchor="middle" x="484.7" y="-174.32" font-family="Times,serif" font-size="14.00">q3:0.0</text>
</g>
<!-- q5:0.0 -->
<g id="node20" class="node">
<title>q5:0.0</title>
<ellipse fill="none" stroke="black" stroke-width="2" cx="716.53" cy="-205" rx="42.79" ry="18"/>
<text text-anchor="middle" x="716.53" y="-200.32" font-family="Times,serif" font-size="14.00">q5:0.0</text>
</g>
<!-- q3:0.0&#45;&gt;q5:0.0 -->
<g id="edge19" class="edge">
<title>q3:0.0&#45;&gt;q5:0.0</title>
<path fill="none" stroke="black" d="M527.06,-183.68C565.09,-187.98 621.68,-194.38 662.93,-199.05"/>
<polygon fill="black" stroke="black" points="662.28,-202.5 672.62,-200.15 663.07,-195.54 662.28,-202.5"/>
<text text-anchor="middle" x="600.62" y="-201.94" font-family="Times,serif" font-size="14.00">AUTH/535:0.05</text>
</g>
<!-- q4:0.0 -->
<g id="node21" class="node">
<title>q4:0.0</title>
<ellipse fill="none" stroke="black" stroke-width="2" cx="716.53" cy="-138" rx="42.79" ry="18"/>
<text text-anchor="middle" x="716.53" y="-133.32" font-family="Times,serif" font-size="14.00">q4:0.0</text>
</g>
<!-- q3:0.0&#45;&gt;q4:0.0 -->
<g id="edge20" class="edge">
<title>q3:0.0&#45;&gt;q4:0.0</title>
<path fill="none" stroke="black" d="M522.6,-169.73C530.15,-167.97 538.06,-166.22 545.49,-164.75 585,-156.95 630.04,-149.95 663.83,-145.07"/>
<polygon fill="black" stroke="black" points="663.93,-148.59 673.33,-143.71 662.93,-141.66 663.93,-148.59"/>
<text text-anchor="middle" x="600.62" y="-168.94" font-family="Times,serif" font-size="14.00">AUTH/235:0.95</text>
</g>
<!-- q8:0.0 -->
<g id="node22" class="node">
<title>q8:0.0</title>
<ellipse fill="none" stroke="black" stroke-width="2" cx="952.86" cy="-205" rx="42.79" ry="18"/>
<text text-anchor="middle" x="952.86" y="-200.32" font-family="Times,serif" font-size="14.00">q8:0.0</text>
</g>
<!-- q5:0.0&#45;&gt;q8:0.0 -->
<g id="edge21" class="edge">
<title>q5:0.0&#45;&gt;q8:0.0</title>
<path fill="none" stroke="black" d="M760.24,-205C798.97,-205 856.24,-205 898.08,-205"/>
<polygon fill="black" stroke="black" points="897.94,-208.5 907.94,-205 897.94,-201.5 897.94,-208.5"/>
<text text-anchor="middle" x="834.7" y="-208.94" font-family="Times,serif" font-size="14.00">AUTH/334:1.0</text>
</g>
<!-- q4:0.0&#45;&gt;q7:0.0 -->
<g id="edge22" class="edge">
<title>q4:0.0&#45;&gt;q7:0.0</title>
<path fill="none" stroke="black" d="M759.97,-139.81C798.67,-141.46 856.03,-143.91 897.96,-145.7"/>
<polygon fill="black" stroke="black" points="897.7,-149.19 907.84,-146.12 898,-142.2 897.7,-149.19"/>
<text text-anchor="middle" x="834.7" y="-149.94" font-family="Times,serif" font-size="14.00">MAIL/250:0.987</text>
</g>
<!-- q6:0.0 -->
<g id="node23" class="node">
<title>q6:0.0</title>
<ellipse fill="none" stroke="black" stroke-width="2" cx="952.86" cy="-94" rx="42.79" ry="18"/>
<text text-anchor="middle" x="952.86" y="-89.33" font-family="Times,serif" font-size="14.00">q6:0.0</text>
</g>
<!-- q4:0.0&#45;&gt;q6:0.0 -->
<g id="edge23" class="edge">
<title>q4:0.0&#45;&gt;q6:0.0</title>
<path fill="none" stroke="black" d="M751.44,-126.69C759.84,-124.15 768.85,-121.66 777.32,-119.75 817.73,-110.66 864.14,-103.99 898.95,-99.72"/>
<polygon fill="black" stroke="black" points="899.26,-103.2 908.78,-98.54 898.43,-96.25 899.26,-103.2"/>
<text text-anchor="middle" x="834.7" y="-123.95" font-family="Times,serif" font-size="14.00">MAIL/553:0.013</text>
</g>
<!-- q8:0.0&#45;&gt;q11:0.667 -->
<g id="edge24" class="edge">
<title>q8:0.0&#45;&gt;q11:0.667</title>
<path fill="none" stroke="black" d="M996.44,-205C1033.4,-205 1087.8,-205 1131.7,-205"/>
<polygon fill="black" stroke="black" points="1131.69,-208.5 1141.69,-205 1131.69,-201.5 1131.69,-208.5"/>
<text text-anchor="middle" x="1069.9" y="-208.94" font-family="Times,serif" font-size="14.00">content/535:1.0</text>
</g>
<!-- q9:1.0 -->
<g id="node24" class="node">
<title>q9:1.0</title>
<ellipse fill="none" stroke="black" stroke-width="2" cx="1205.9" cy="-94" rx="42.79" ry="18"/>
<text text-anchor="middle" x="1205.9" y="-89.33" font-family="Times,serif" font-size="14.00">q9:1.0</text>
</g>
<!-- q6:0.0&#45;&gt;q9:1.0 -->
<g id="edge25" class="edge">
<title>q6:0.0&#45;&gt;q9:1.0</title>
<path fill="none" stroke="black" d="M996.44,-94C1039.1,-94 1105,-94 1151.2,-94"/>
<polygon fill="black" stroke="black" points="1150.99,-97.5 1160.99,-94 1150.99,-90.5 1150.99,-97.5"/>
<text text-anchor="middle" x="1069.9" y="-97.95" font-family="Times,serif" font-size="14.00">RSET/250:1.0</text>
</g>
<!-- q1:0.0 -->
<g id="node25" class="node">
<title>q1:0.0</title>
<ellipse fill="none" stroke="black" stroke-width="2" cx="243.87" cy="-152" rx="42.79" ry="18"/>
<text text-anchor="middle" x="243.87" y="-147.32" font-family="Times,serif" font-size="14.00">q1:0.0</text>
</g>
<!-- q1:0.0&#45;&gt;q3:0.0 -->
<g id="edge26" class="edge">
<title>q1:0.0&#45;&gt;q3:0.0</title>
<path fill="none" stroke="black" d="M286.2,-156.67C326.4,-161.22 387.62,-168.14 431.24,-173.07"/>
<polygon fill="black" stroke="black" points="430.65,-176.53 440.98,-174.17 431.43,-169.57 430.65,-176.53"/>
<text text-anchor="middle" x="364.29" y="-175.94" font-family="Times,serif" font-size="14.00">EHLO/250:0.992</text>
</g>
<!-- q2:0.0 -->
<g id="node26" class="node">
<title>q2:0.0</title>
<ellipse fill="none" stroke="black" stroke-width="2" cx="484.7" cy="-125" rx="42.79" ry="18"/>
<text text-anchor="middle" x="484.7" y="-120.33" font-family="Times,serif" font-size="14.00">q2:0.0</text>
</g>
<!-- q1:0.0&#45;&gt;q2:0.0 -->
<g id="edge27" class="edge">
<title>q1:0.0&#45;&gt;q2:0.0</title>
<path fill="none" stroke="black" d="M282.04,-142.91C289.49,-141.33 297.3,-139.84 304.66,-138.75 346.54,-132.53 394.37,-129.04 430.05,-127.14"/>
<polygon fill="black" stroke="black" points="429.87,-130.65 439.68,-126.65 429.51,-123.66 429.87,-130.65"/>
<text text-anchor="middle" x="364.29" y="-142.94" font-family="Times,serif" font-size="14.00">EHLO/λ:0.008</text>
</g>
<!-- q2:0.0&#45;&gt;q4:0.0 -->
<g id="edge28" class="edge">
<title>q2:0.0&#45;&gt;q4:0.0</title>
<path fill="none" stroke="black" d="M528.1,-122.87C562.58,-121.7 612.43,-121.26 655.74,-125.75 659.38,-126.13 663.12,-126.62 666.87,-127.2"/>
<polygon fill="black" stroke="black" points="666.13,-130.62 676.58,-128.89 667.33,-123.73 666.13,-130.62"/>
<text text-anchor="middle" x="600.62" y="-129.94" font-family="Times,serif" font-size="14.00">AUTH/235:1.0</text>
</g>
<!-- q0:0.0 -->
<g id="node27" class="node">
<title>q0:0.0</title>
<ellipse fill="none" stroke="black" stroke-width="2" cx="50.79" cy="-152" rx="46.79" ry="46.79"/>
<ellipse fill="none" stroke="black" stroke-width="2" cx="50.79" cy="-152" rx="50.79" ry="50.79"/>
<text text-anchor="middle" x="50.79" y="-147.32" font-family="Times,serif" font-size="14.00">q0:0.0</text>
</g>
<!-- q0:0.0&#45;&gt;q1:0.0 -->
<g id="edge29" class="edge">
<title>q0:0.0&#45;&gt;q1:0.0</title>
<path fill="none" stroke="black" d="M98.53,-152C125.82,-152 160.37,-152 188.82,-152"/>
<polygon fill="black" stroke="black" points="188.69,-155.5 198.69,-152 188.69,-148.5 188.69,-155.5"/>
<text text-anchor="middle" x="149.33" y="-155.94" font-family="Times,serif" font-size="14.00">λ/220:1.0</text>
</g>
</g>
</svg>
