<?xml version="1.0" encoding="UTF-8" standalone="no"?>
<!DOCTYPE svg PUBLIC "-//W3C//DTD SVG 1.1//EN"
 "http://www.w3.org/Graphics/SVG/1.1/DTD/svg11.dtd">
<!-- Generated by graphviz version 12.0.0 (20240803.0821)
 -->
<!-- Pages: 1 -->
<svg width="1759pt" height="312pt"
 viewBox="0.00 0.00 1758.80 312.00" xmlns="http://www.w3.org/2000/svg" xmlns:xlink="http://www.w3.org/1999/xlink">
<g id="graph0" class="graph" transform="scale(1 1) rotate(0) translate(4 308)">
<polygon fill="white" stroke="none" points="-4,4 -4,-308 1754.8,-308 1754.8,4 -4,4"/>
<!-- q10:0.0 -->
<g id="node1" class="node">
<title>q10:0.0</title>
<ellipse fill="none" stroke="black" stroke-width="2" cx="1204.5" cy="-72" rx="49.1" ry="18"/>
<text text-anchor="middle" x="1204.5" y="-67.33" font-family="Times,serif" font-size="14.00">q10:0.0</text>
</g>
<!-- q10:0.0&#45;&gt;q10:0.0 -->
<g id="edge1" class="edge">
<title>q10:0.0&#45;&gt;q10:0.0</title>
<path fill="none" stroke="black" d="M1182.4,-89.04C1177.9,-98.86 1185.3,-108 1204.5,-108 1215.6,-108 1222.8,-104.94 1225.9,-100.47"/>
<polygon fill="black" stroke="black" points="1229.39,-100.74 1226.51,-90.55 1222.4,-100.32 1229.39,-100.74"/>
<text text-anchor="middle" x="1204.5" y="-111.95" font-family="Times,serif" font-size="14.00">content/λ:0.93</text>
</g>
<!-- q16:0.0 -->
<g id="node2" class="node">
<title>q16:0.0</title>
<ellipse fill="none" stroke="black" stroke-width="2" cx="1469.2" cy="-72" rx="49.1" ry="18"/>
<text text-anchor="middle" x="1469.2" y="-67.33" font-family="Times,serif" font-size="14.00">q16:0.0</text>
</g>
<!-- q10:0.0&#45;&gt;q16:0.0 -->
<g id="edge2" class="edge">
<title>q10:0.0&#45;&gt;q16:0.0</title>
<path fill="none" stroke="black" d="M1254.3,-72C1297.7,-72 1361.2,-72 1407.8,-72"/>
<polygon fill="black" stroke="black" points="1407.69,-75.5 1417.69,-72 1407.69,-68.5 1407.69,-75.5"/>
<text text-anchor="middle" x="1336.9" y="-75.95" font-family="Times,serif" font-size="14.00">content/554:0.027</text>
</g>
<!-- q14:0.0 -->
<g id="node3" class="node">
<title>q14:0.0</title>
<ellipse fill="none" stroke="black" stroke-width="2" cx="1469.2" cy="-18" rx="49.1" ry="18"/>
<text text-anchor="middle" x="1469.2" y="-13.32" font-family="Times,serif" font-size="14.00">q14:0.0</text>
</g>
<!-- q10:0.0&#45;&gt;q14:0.0 -->
<g id="edge3" class="edge">
<title>q10:0.0&#45;&gt;q14:0.0</title>
<path fill="none" stroke="black" d="M1241.6,-59.35C1251.3,-56.25 1261.8,-53.14 1271.6,-50.75 1317.8,-39.54 1371.1,-30.92 1410.5,-25.35"/>
<polygon fill="black" stroke="black" points="1410.78,-28.85 1420.2,-24 1409.81,-21.91 1410.78,-28.85"/>
<text text-anchor="middle" x="1336.9" y="-54.95" font-family="Times,serif" font-size="14.00">content/250:0.042</text>
</g>
<!-- q15:0.0 -->
<g id="node4" class="node">
<title>q15:0.0</title>
<ellipse fill="none" stroke="black" stroke-width="2" cx="1469.2" cy="-126" rx="49.1" ry="18"/>
<text text-anchor="middle" x="1469.2" y="-121.33" font-family="Times,serif" font-size="14.00">q15:0.0</text>
</g>
<!-- q10:0.0&#45;&gt;q15:0.0 -->
<g id="edge4" class="edge">
<title>q10:0.0&#45;&gt;q15:0.0</title>
<path fill="none" stroke="black" d="M1242,-84.59C1251.5,-87.62 1261.9,-90.65 1271.6,-93 1317.8,-104.17 1371.1,-112.85 1410.5,-118.51"/>
<polygon fill="black" stroke="black" points="1409.91,-121.96 1420.3,-119.88 1410.88,-115.03 1409.91,-121.96"/>
<text text-anchor="middle" x="1336.9" y="-120.95" font-family="Times,serif" font-size="14.00">content/550:0.0</text>
</g>
<!-- q20:1.0 -->
<g id="node5" class="node">
<title>q20:1.0</title>
<ellipse fill="none" stroke="black" stroke-width="2" cx="1701.7" cy="-72" rx="49.1" ry="18"/>
<text text-anchor="middle" x="1701.7" y="-67.33" font-family="Times,serif" font-size="14.00">q20:1.0</text>
</g>
<!-- q16:0.0&#45;&gt;q20:1.0 -->
<g id="edge5" class="edge">
<title>q16:0.0&#45;&gt;q20:1.0</title>
<path fill="none" stroke="black" d="M1519.1,-72C1554.5,-72 1602.7,-72 1640.5,-72"/>
<polygon fill="black" stroke="black" points="1640.39,-75.5 1650.39,-72 1640.39,-68.5 1640.39,-75.5"/>
<text text-anchor="middle" x="1585.4" y="-75.95" font-family="Times,serif" font-size="14.00">RSET/250:1.0</text>
</g>
<!-- q18:1.0 -->
<g id="node6" class="node">
<title>q18:1.0</title>
<ellipse fill="none" stroke="black" stroke-width="2" cx="1701.7" cy="-18" rx="49.1" ry="18"/>
<text text-anchor="middle" x="1701.7" y="-13.32" font-family="Times,serif" font-size="14.00">q18:1.0</text>
</g>
<!-- q14:0.0&#45;&gt;q18:1.0 -->
<g id="edge6" class="edge">
<title>q14:0.0&#45;&gt;q18:1.0</title>
<path fill="none" stroke="black" d="M1519.1,-18C1554.5,-18 1602.7,-18 1640.5,-18"/>
<polygon fill="black" stroke="black" points="1640.39,-21.5 1650.39,-18 1640.39,-14.5 1640.39,-21.5"/>
<text text-anchor="middle" x="1585.4" y="-21.95" font-family="Times,serif" font-size="14.00">QUIT/221:1.0</text>
</g>
<!-- q19:1.0 -->
<g id="node7" class="node">
<title>q19:1.0</title>
<ellipse fill="none" stroke="black" stroke-width="2" cx="1701.7" cy="-126" rx="49.1" ry="18"/>
<text text-anchor="middle" x="1701.7" y="-121.33" font-family="Times,serif" font-size="14.00">q19:1.0</text>
</g>
<!-- q15:0.0&#45;&gt;q19:1.0 -->
<g id="edge7" class="edge">
<title>q15:0.0&#45;&gt;q19:1.0</title>
<path fill="none" stroke="black" d="M1519.1,-126C1554.5,-126 1602.7,-126 1640.5,-126"/>
<polygon fill="black" stroke="black" points="1640.39,-129.5 1650.39,-126 1640.39,-122.5 1640.39,-129.5"/>
<text text-anchor="middle" x="1585.4" y="-129.94" font-family="Times,serif" font-size="14.00">RSET/250:1.0</text>
</g>
<!-- q7:0.0 -->
<g id="node8" class="node">
<title>q7:0.0</title>
<ellipse fill="none" stroke="black" stroke-width="2" cx="961.86" cy="-143" rx="42.79" ry="18"/>
<text text-anchor="middle" x="961.86" y="-138.32" font-family="Times,serif" font-size="14.00">q7:0.0</text>
</g>
<!-- q7:0.0&#45;&gt;q10:0.0 -->
<g id="edge8" class="edge">
<title>q7:0.0&#45;&gt;q10:0.0</title>
<path fill="none" stroke="black" d="M998.37,-132.52C1039.4,-120.41 1107.3,-100.38 1153.7,-86.71"/>
<polygon fill="black" stroke="black" points="1154.65,-90.08 1163.25,-83.89 1152.67,-83.36 1154.65,-90.08"/>
<text text-anchor="middle" x="1080" y="-127.95" font-family="Times,serif" font-size="14.00">DATA/354:0.308</text>
</g>
<!-- q7:0.0&#45;&gt;q7:0.0 -->
<g id="edge9" class="edge">
<title>q7:0.0&#45;&gt;q7:0.0</title>
<path fill="none" stroke="black" d="M941.09,-159.66C936.48,-169.62 943.4,-179 961.86,-179 972.83,-179 979.72,-175.69 982.55,-170.92"/>
<polygon fill="black" stroke="black" points="986.05,-171.2 982.62,-161.17 979.05,-171.15 986.05,-171.2"/>
<text text-anchor="middle" x="961.86" y="-182.94" font-family="Times,serif" font-size="14.00">RCPT/250:0.622</text>
</g>
<!-- q11:1.0 -->
<g id="node9" class="node">
<title>q11:1.0</title>
<ellipse fill="none" stroke="black" stroke-width="2" cx="1204.5" cy="-161" rx="49.1" ry="18"/>
<text text-anchor="middle" x="1204.5" y="-156.32" font-family="Times,serif" font-size="14.00">q11:1.0</text>
</g>
<!-- q7:0.0&#45;&gt;q11:1.0 -->
<g id="edge10" class="edge">
<title>q7:0.0&#45;&gt;q11:1.0</title>
<path fill="none" stroke="black" d="M1004.8,-146.14C1043.3,-149.02 1101,-153.33 1144.2,-156.57"/>
<polygon fill="black" stroke="black" points="1143.76,-160.05 1153.99,-157.3 1144.28,-153.07 1143.76,-160.05"/>
<text text-anchor="middle" x="1080" y="-159.94" font-family="Times,serif" font-size="14.00">DATA/550:0.07</text>
</g>
<!-- q4:0.0 -->
<g id="node10" class="node">
<title>q4:0.0</title>
<ellipse fill="none" stroke="black" stroke-width="2" cx="725.53" cy="-149" rx="42.79" ry="18"/>
<text text-anchor="middle" x="725.53" y="-144.32" font-family="Times,serif" font-size="14.00">q4:0.0</text>
</g>
<!-- q4:0.0&#45;&gt;q7:0.0 -->
<g id="edge11" class="edge">
<title>q4:0.0&#45;&gt;q7:0.0</title>
<path fill="none" stroke="black" d="M769.24,-147.91C807.97,-146.91 865.24,-145.45 907.08,-144.38"/>
<polygon fill="black" stroke="black" points="907.03,-147.88 916.94,-144.13 906.85,-140.88 907.03,-147.88"/>
<text text-anchor="middle" x="843.7" y="-151.94" font-family="Times,serif" font-size="14.00">MAIL/250:1.0</text>
</g>
<!-- q2:0.0 -->
<g id="node11" class="node">
<title>q2:0.0</title>
<ellipse fill="none" stroke="black" stroke-width="2" cx="484.7" cy="-222" rx="42.79" ry="18"/>
<text text-anchor="middle" x="484.7" y="-217.32" font-family="Times,serif" font-size="14.00">q2:0.0</text>
</g>
<!-- q2:0.0&#45;&gt;q4:0.0 -->
<g id="edge12" class="edge">
<title>q2:0.0&#45;&gt;q4:0.0</title>
<path fill="none" stroke="black" d="M519.14,-210.39C527.7,-207.5 536.92,-204.45 545.49,-201.75 598.15,-185.17 611.81,-182.68 664.74,-167 669.24,-165.67 673.93,-164.27 678.62,-162.87"/>
<polygon fill="black" stroke="black" points="679.43,-166.28 688,-160.06 677.42,-159.58 679.43,-166.28"/>
<text text-anchor="middle" x="605.12" y="-204.94" font-family="Times,serif" font-size="14.00">AUTH/λ:0.004</text>
</g>
<!-- q6:0.0 -->
<g id="node12" class="node">
<title>q6:0.0</title>
<ellipse fill="none" stroke="black" stroke-width="2" cx="725.53" cy="-229" rx="42.79" ry="18"/>
<text text-anchor="middle" x="725.53" y="-224.32" font-family="Times,serif" font-size="14.00">q6:0.0</text>
</g>
<!-- q2:0.0&#45;&gt;q6:0.0 -->
<g id="edge13" class="edge">
<title>q2:0.0&#45;&gt;q6:0.0</title>
<path fill="none" stroke="black" d="M528.12,-223.24C567.91,-224.41 627.56,-226.16 670.69,-227.42"/>
<polygon fill="black" stroke="black" points="670.49,-230.92 680.59,-227.71 670.7,-223.92 670.49,-230.92"/>
<text text-anchor="middle" x="605.12" y="-230.94" font-family="Times,serif" font-size="14.00">AUTH/235:0.954</text>
</g>
<!-- q5:0.0 -->
<g id="node13" class="node">
<title>q5:0.0</title>
<ellipse fill="none" stroke="black" stroke-width="2" cx="725.53" cy="-284" rx="42.79" ry="18"/>
<text text-anchor="middle" x="725.53" y="-279.32" font-family="Times,serif" font-size="14.00">q5:0.0</text>
</g>
<!-- q2:0.0&#45;&gt;q5:0.0 -->
<g id="edge14" class="edge">
<title>q2:0.0&#45;&gt;q5:0.0</title>
<path fill="none" stroke="black" d="M514.12,-235.82C523.9,-240.18 535.02,-244.71 545.49,-248 587.53,-261.2 636.68,-270.68 672.84,-276.58"/>
<polygon fill="black" stroke="black" points="672.18,-280.02 682.6,-278.14 673.28,-273.11 672.18,-280.02"/>
<text text-anchor="middle" x="605.12" y="-278.94" font-family="Times,serif" font-size="14.00">AUTH/535:0.041</text>
</g>
<!-- q6:0.0&#45;&gt;q7:0.0 -->
<g id="edge15" class="edge">
<title>q6:0.0&#45;&gt;q7:0.0</title>
<path fill="none" stroke="black" d="M759.6,-217.16C802.38,-201.82 874.58,-175.87 901.07,-166 906.74,-163.89 912.7,-161.64 918.56,-159.4"/>
<polygon fill="black" stroke="black" points="919.45,-162.81 927.54,-155.96 916.95,-156.27 919.45,-162.81"/>
<text text-anchor="middle" x="843.7" y="-209.94" font-family="Times,serif" font-size="14.00">MAIL/250:0.991</text>
</g>
<!-- q9:0.0 -->
<g id="node14" class="node">
<title>q9:0.0</title>
<ellipse fill="none" stroke="black" stroke-width="2" cx="961.86" cy="-232" rx="42.79" ry="18"/>
<text text-anchor="middle" x="961.86" y="-227.32" font-family="Times,serif" font-size="14.00">q9:0.0</text>
</g>
<!-- q6:0.0&#45;&gt;q9:0.0 -->
<g id="edge16" class="edge">
<title>q6:0.0&#45;&gt;q9:0.0</title>
<path fill="none" stroke="black" d="M769.24,-229.55C807.97,-230.04 865.24,-230.78 907.08,-231.31"/>
<polygon fill="black" stroke="black" points="906.89,-234.81 916.94,-231.44 906.98,-227.81 906.89,-234.81"/>
<text text-anchor="middle" x="843.7" y="-234.94" font-family="Times,serif" font-size="14.00">MAIL/553:0.009</text>
</g>
<!-- q8:0.0 -->
<g id="node15" class="node">
<title>q8:0.0</title>
<ellipse fill="none" stroke="black" stroke-width="2" cx="961.86" cy="-286" rx="42.79" ry="18"/>
<text text-anchor="middle" x="961.86" y="-281.32" font-family="Times,serif" font-size="14.00">q8:0.0</text>
</g>
<!-- q5:0.0&#45;&gt;q8:0.0 -->
<g id="edge17" class="edge">
<title>q5:0.0&#45;&gt;q8:0.0</title>
<path fill="none" stroke="black" d="M769.24,-284.36C807.97,-284.7 865.24,-285.18 907.08,-285.54"/>
<polygon fill="black" stroke="black" points="906.91,-289.04 916.94,-285.63 906.97,-282.04 906.91,-289.04"/>
<text text-anchor="middle" x="843.7" y="-288.94" font-family="Times,serif" font-size="14.00">AUTH/334:1.0</text>
</g>
<!-- q13:1.0 -->
<g id="node16" class="node">
<title>q13:1.0</title>
<ellipse fill="none" stroke="black" stroke-width="2" cx="1204.5" cy="-232" rx="49.1" ry="18"/>
<text text-anchor="middle" x="1204.5" y="-227.32" font-family="Times,serif" font-size="14.00">q13:1.0</text>
</g>
<!-- q9:0.0&#45;&gt;q13:1.0 -->
<g id="edge18" class="edge">
<title>q9:0.0&#45;&gt;q13:1.0</title>
<path fill="none" stroke="black" d="M1005.6,-232C1043.8,-232 1100.3,-232 1143.1,-232"/>
<polygon fill="black" stroke="black" points="1142.99,-235.5 1152.99,-232 1142.99,-228.5 1142.99,-235.5"/>
<text text-anchor="middle" x="1080" y="-235.94" font-family="Times,serif" font-size="14.00">RSET/250:1.0</text>
</g>
<!-- q12:0.6 -->
<g id="node17" class="node">
<title>q12:0.6</title>
<ellipse fill="none" stroke="black" stroke-width="2" cx="1204.5" cy="-286" rx="49.1" ry="18"/>
<text text-anchor="middle" x="1204.5" y="-281.32" font-family="Times,serif" font-size="14.00">q12:0.6</text>
</g>
<!-- q8:0.0&#45;&gt;q12:0.6 -->
<g id="edge19" class="edge">
<title>q8:0.0&#45;&gt;q12:0.6</title>
<path fill="none" stroke="black" d="M1005.6,-286C1043.8,-286 1100.3,-286 1143.1,-286"/>
<polygon fill="black" stroke="black" points="1142.99,-289.5 1152.99,-286 1142.99,-282.5 1142.99,-289.5"/>
<text text-anchor="middle" x="1080" y="-289.94" font-family="Times,serif" font-size="14.00">content/535:1.0</text>
</g>
<!-- q17:1.0 -->
<g id="node21" class="node">
<title>q17:1.0</title>
<ellipse fill="none" stroke="black" stroke-width="2" cx="1469.2" cy="-286" rx="49.1" ry="18"/>
<text text-anchor="middle" x="1469.2" y="-281.32" font-family="Times,serif" font-size="14.00">q17:1.0</text>
</g>
<!-- q12:0.6&#45;&gt;q17:1.0 -->
<g id="edge24" class="edge">
<title>q12:0.6&#45;&gt;q17:1.0</title>
<path fill="none" stroke="black" d="M1254.3,-286C1297.7,-286 1361.2,-286 1407.8,-286"/>
<polygon fill="black" stroke="black" points="1407.69,-289.5 1417.69,-286 1407.69,-282.5 1407.69,-289.5"/>
<text text-anchor="middle" x="1336.9" y="-289.94" font-family="Times,serif" font-size="14.00">λ/451:0.4</text>
</g>
<!-- q0:0.0 -->
<g id="node18" class="node">
<title>q0:0.0</title>
<ellipse fill="none" stroke="black" stroke-width="2" cx="50.79" cy="-189" rx="46.79" ry="46.79"/>
<ellipse fill="none" stroke="black" stroke-width="2" cx="50.79" cy="-189" rx="50.79" ry="50.79"/>
<text text-anchor="middle" x="50.79" y="-184.32" font-family="Times,serif" font-size="14.00">q0:0.0</text>
</g>
<!-- q1:0.0 -->
<g id="node19" class="node">
<title>q1:0.0</title>
<ellipse fill="none" stroke="black" stroke-width="2" cx="243.87" cy="-189" rx="42.79" ry="18"/>
<text text-anchor="middle" x="243.87" y="-184.32" font-family="Times,serif" font-size="14.00">q1:0.0</text>
</g>
<!-- q0:0.0&#45;&gt;q1:0.0 -->
<g id="edge20" class="edge">
<title>q0:0.0&#45;&gt;q1:0.0</title>
<path fill="none" stroke="black" d="M98.53,-189C125.82,-189 160.37,-189 188.82,-189"/>
<polygon fill="black" stroke="black" points="188.69,-192.5 198.69,-189 188.69,-185.5 188.69,-192.5"/>
<text text-anchor="middle" x="149.33" y="-192.94" font-family="Times,serif" font-size="14.00">λ/220:1.0</text>
</g>
<!-- q1:0.0&#45;&gt;q2:0.0 -->
<g id="edge21" class="edge">
<title>q1:0.0&#45;&gt;q2:0.0</title>
<path fill="none" stroke="black" d="M285.66,-194.64C326.01,-200.21 387.94,-208.77 431.79,-214.83"/>
<polygon fill="black" stroke="black" points="431.19,-218.28 441.58,-216.18 432.15,-211.35 431.19,-218.28"/>
<text text-anchor="middle" x="364.29" y="-216.94" font-family="Times,serif" font-size="14.00">EHLO/250:0.992</text>
</g>
<!-- q3:0.0 -->
<g id="node20" class="node">
<title>q3:0.0</title>
<ellipse fill="none" stroke="black" stroke-width="2" cx="484.7" cy="-162" rx="42.79" ry="18"/>
<text text-anchor="middle" x="484.7" y="-157.32" font-family="Times,serif" font-size="14.00">q3:0.0</text>
</g>
<!-- q1:0.0&#45;&gt;q3:0.0 -->
<g id="edge22" class="edge">
<title>q1:0.0&#45;&gt;q3:0.0</title>
<path fill="none" stroke="black" d="M282.04,-179.91C289.49,-178.33 297.3,-176.84 304.66,-175.75 346.54,-169.53 394.37,-166.04 430.05,-164.14"/>
<polygon fill="black" stroke="black" points="429.87,-167.65 439.68,-163.65 429.51,-160.66 429.87,-167.65"/>
<text text-anchor="middle" x="364.29" y="-179.94" font-family="Times,serif" font-size="14.00">EHLO/λ:0.008</text>
</g>
<!-- q3:0.0&#45;&gt;q4:0.0 -->
<g id="edge23" class="edge">
<title>q3:0.0&#45;&gt;q4:0.0</title>
<path fill="none" stroke="black" d="M523.16,-153.14C530.52,-151.74 538.22,-150.5 545.49,-149.75 587.48,-145.4 635.3,-145.46 670.96,-146.47"/>
<polygon fill="black" stroke="black" points="670.46,-149.96 680.57,-146.77 670.68,-142.96 670.46,-149.96"/>
<text text-anchor="middle" x="605.12" y="-153.94" font-family="Times,serif" font-size="14.00">AUTH/235:1.0</text>
</g>
</g>
</svg>
