<?xml version="1.0" encoding="UTF-8" standalone="no"?>
<!DOCTYPE svg PUBLIC "-//W3C//DTD SVG 1.1//EN"
 "http://www.w3.org/Graphics/SVG/1.1/DTD/svg11.dtd">
<!-- Generated by graphviz version 12.0.0 (20240803.0821)
 -->
<!-- Pages: 1 -->
<svg width="2328pt" height="335pt"
 viewBox="0.00 0.00 2328.20 335.50" xmlns="http://www.w3.org/2000/svg" xmlns:xlink="http://www.w3.org/1999/xlink">
<g id="graph0" class="graph" transform="scale(1 1) rotate(0) translate(4 331.5)">
<polygon fill="white" stroke="none" points="-4,4 -4,-331.5 2324.2,-331.5 2324.2,4 -4,4"/>
<!-- q18:0.0 -->
<g id="node1" class="node">
<title>q18:0.0</title>
<ellipse fill="none" stroke="black" stroke-width="2" cx="731.85" cy="-40.5" rx="49.1" ry="18"/>
<text text-anchor="middle" x="731.85" y="-35.82" font-family="Times,serif" font-size="14.00">q18:0.0</text>
</g>
<!-- q24:1.0 -->
<g id="node2" class="node">
<title>q24:1.0</title>
<ellipse fill="none" stroke="black" stroke-width="2" cx="982.3" cy="-40.5" rx="49.1" ry="18"/>
<text text-anchor="middle" x="982.3" y="-35.82" font-family="Times,serif" font-size="14.00">q24:1.0</text>
</g>
<!-- q18:0.0&#45;&gt;q24:1.0 -->
<g id="edge1" class="edge">
<title>q18:0.0&#45;&gt;q24:1.0</title>
<path fill="none" stroke="black" d="M781.93,-40.5C821.83,-40.5 878.3,-40.5 920.96,-40.5"/>
<polygon fill="black" stroke="black" points="920.81,-44 930.81,-40.5 920.81,-37 920.81,-44"/>
<text text-anchor="middle" x="857.07" y="-44.45" font-family="Times,serif" font-size="14.00">DATA/550:0.333</text>
</g>
<!-- q25:0.0 -->
<g id="node3" class="node">
<title>q25:0.0</title>
<ellipse fill="none" stroke="black" stroke-width="2" cx="982.3" cy="-94.5" rx="49.1" ry="18"/>
<text text-anchor="middle" x="982.3" y="-89.82" font-family="Times,serif" font-size="14.00">q25:0.0</text>
</g>
<!-- q18:0.0&#45;&gt;q25:0.0 -->
<g id="edge2" class="edge">
<title>q18:0.0&#45;&gt;q25:0.0</title>
<path fill="none" stroke="black" d="M769.32,-53.01C778.89,-56.04 789.25,-59.09 798.95,-61.5 840.51,-71.81 888.14,-80.32 924.3,-86.12"/>
<polygon fill="black" stroke="black" points="923.7,-89.57 934.12,-87.67 924.79,-82.65 923.7,-89.57"/>
<text text-anchor="middle" x="857.07" y="-88.45" font-family="Times,serif" font-size="14.00">RCPT/250:0.667</text>
</g>
<!-- q7:0.0 -->
<g id="node4" class="node">
<title>q7:0.0</title>
<ellipse fill="none" stroke="black" stroke-width="2" cx="1245.4" cy="-124.5" rx="42.79" ry="18"/>
<text text-anchor="middle" x="1245.4" y="-119.82" font-family="Times,serif" font-size="14.00">q7:0.0</text>
</g>
<!-- q25:0.0&#45;&gt;q7:0.0 -->
<g id="edge3" class="edge">
<title>q25:0.0&#45;&gt;q7:0.0</title>
<path fill="none" stroke="black" d="M1030.3,-99.9C1075.9,-105.13 1144.9,-113.07 1192.1,-118.5"/>
<polygon fill="black" stroke="black" points="1191.56,-121.96 1201.9,-119.61 1192.36,-115 1191.56,-121.96"/>
<text text-anchor="middle" x="1107.5" y="-119.45" font-family="Times,serif" font-size="14.00">RCPT/250:1.0</text>
</g>
<!-- q11:0.0 -->
<g id="node5" class="node">
<title>q11:0.0</title>
<ellipse fill="none" stroke="black" stroke-width="2" cx="1774" cy="-115.5" rx="49.1" ry="18"/>
<text text-anchor="middle" x="1774" y="-110.82" font-family="Times,serif" font-size="14.00">q11:0.0</text>
</g>
<!-- q7:0.0&#45;&gt;q11:0.0 -->
<g id="edge4" class="edge">
<title>q7:0.0&#45;&gt;q11:0.0</title>
<path fill="none" stroke="black" d="M1289,-123.77C1382.5,-122.18 1605.4,-118.37 1713,-116.53"/>
<polygon fill="black" stroke="black" points="1712.75,-120.03 1722.69,-116.36 1712.63,-113.03 1712.75,-120.03"/>
<text text-anchor="middle" x="1516.7" y="-125.45" font-family="Times,serif" font-size="14.00">DATA/354:0.381</text>
</g>
<!-- q12:0.0 -->
<g id="node6" class="node">
<title>q12:0.0</title>
<ellipse fill="none" stroke="black" stroke-width="2" cx="1516.7" cy="-61.5" rx="49.1" ry="18"/>
<text text-anchor="middle" x="1516.7" y="-56.82" font-family="Times,serif" font-size="14.00">q12:0.0</text>
</g>
<!-- q7:0.0&#45;&gt;q12:0.0 -->
<g id="edge5" class="edge">
<title>q7:0.0&#45;&gt;q12:0.0</title>
<path fill="none" stroke="black" d="M1275.8,-111.11C1290.4,-104.9 1308.4,-97.9 1325.1,-93.25 1368.6,-81.14 1419.1,-72.99 1457.1,-67.98"/>
<polygon fill="black" stroke="black" points="1457.52,-71.45 1467,-66.72 1456.64,-64.51 1457.52,-71.45"/>
<text text-anchor="middle" x="1383.2" y="-97.45" font-family="Times,serif" font-size="14.00">RCPT/250:0.619</text>
</g>
<!-- q11:0.0&#45;&gt;q11:0.0 -->
<g id="edge6" class="edge">
<title>q11:0.0&#45;&gt;q11:0.0</title>
<path fill="none" stroke="black" d="M1751.9,-132.54C1747.4,-142.36 1754.8,-151.5 1774,-151.5 1785.1,-151.5 1792.2,-148.45 1795.4,-143.97"/>
<polygon fill="black" stroke="black" points="1798.89,-144.22 1795.92,-134.05 1791.9,-143.85 1798.89,-144.22"/>
<text text-anchor="middle" x="1774" y="-155.45" font-family="Times,serif" font-size="14.00">content/λ:0.93</text>
</g>
<!-- q17:0.0 -->
<g id="node7" class="node">
<title>q17:0.0</title>
<ellipse fill="none" stroke="black" stroke-width="2" cx="2038.7" cy="-169.5" rx="49.1" ry="18"/>
<text text-anchor="middle" x="2038.7" y="-164.82" font-family="Times,serif" font-size="14.00">q17:0.0</text>
</g>
<!-- q11:0.0&#45;&gt;q17:0.0 -->
<g id="edge7" class="edge">
<title>q11:0.0&#45;&gt;q17:0.0</title>
<path fill="none" stroke="black" d="M1811.4,-128.1C1821,-131.12 1831.4,-134.16 1841.1,-136.5 1887.3,-147.67 1940.6,-156.36 1980,-162.01"/>
<polygon fill="black" stroke="black" points="1979.31,-165.44 1989.7,-163.37 1980.29,-158.51 1979.31,-165.44"/>
<text text-anchor="middle" x="1906.3" y="-164.45" font-family="Times,serif" font-size="14.00">content/250:0.043</text>
</g>
<!-- q16:0.0 -->
<g id="node8" class="node">
<title>q16:0.0</title>
<ellipse fill="none" stroke="black" stroke-width="2" cx="2038.7" cy="-115.5" rx="49.1" ry="18"/>
<text text-anchor="middle" x="2038.7" y="-110.82" font-family="Times,serif" font-size="14.00">q16:0.0</text>
</g>
<!-- q11:0.0&#45;&gt;q16:0.0 -->
<g id="edge8" class="edge">
<title>q11:0.0&#45;&gt;q16:0.0</title>
<path fill="none" stroke="black" d="M1823.8,-115.5C1867.1,-115.5 1930.7,-115.5 1977.2,-115.5"/>
<polygon fill="black" stroke="black" points="1977.19,-119 1987.19,-115.5 1977.19,-112 1977.19,-119"/>
<text text-anchor="middle" x="1906.3" y="-119.45" font-family="Times,serif" font-size="14.00">content/554:0.027</text>
</g>
<!-- q15:0.0 -->
<g id="node9" class="node">
<title>q15:0.0</title>
<ellipse fill="none" stroke="black" stroke-width="2" cx="2038.7" cy="-61.5" rx="49.1" ry="18"/>
<text text-anchor="middle" x="2038.7" y="-56.82" font-family="Times,serif" font-size="14.00">q15:0.0</text>
</g>
<!-- q11:0.0&#45;&gt;q15:0.0 -->
<g id="edge9" class="edge">
<title>q11:0.0&#45;&gt;q15:0.0</title>
<path fill="none" stroke="black" d="M1811.1,-102.84C1820.7,-99.75 1831.2,-96.64 1841.1,-94.25 1887.3,-83.03 1940.5,-74.42 1980,-68.85"/>
<polygon fill="black" stroke="black" points="1980.28,-72.34 1989.7,-67.5 1979.31,-65.41 1980.28,-72.34"/>
<text text-anchor="middle" x="1906.3" y="-98.45" font-family="Times,serif" font-size="14.00">content/550:0.0</text>
</g>
<!-- q12:0.0&#45;&gt;q18:0.0 -->
<g id="edge10" class="edge">
<title>q12:0.0&#45;&gt;q18:0.0</title>
<path fill="none" stroke="black" d="M1471.6,-53.34C1374.3,-36.39 1134.4,0 933.2,-13.5 884.01,-16.8 828.48,-24.6 788.38,-30.98"/>
<polygon fill="black" stroke="black" points="788.04,-27.49 778.72,-32.54 789.15,-34.4 788.04,-27.49"/>
<text text-anchor="middle" x="1107.5" y="-19.45" font-family="Times,serif" font-size="14.00">RCPT/250:0.021</text>
</g>
<!-- q12:0.0&#45;&gt;q11:0.0 -->
<g id="edge11" class="edge">
<title>q12:0.0&#45;&gt;q11:0.0</title>
<path fill="none" stroke="black" d="M1564.4,-67.23C1602.9,-72.47 1658.9,-81.23 1706.9,-93.25 1713.3,-94.87 1720.1,-96.82 1726.7,-98.89"/>
<polygon fill="black" stroke="black" points="1725.57,-102.2 1736.16,-101.97 1727.74,-95.55 1725.57,-102.2"/>
<text text-anchor="middle" x="1649.5" y="-97.45" font-family="Times,serif" font-size="14.00">DATA/354:0.685</text>
</g>
<!-- q19:1.0 -->
<g id="node10" class="node">
<title>q19:1.0</title>
<ellipse fill="none" stroke="black" stroke-width="2" cx="1774" cy="-52.5" rx="49.1" ry="18"/>
<text text-anchor="middle" x="1774" y="-47.82" font-family="Times,serif" font-size="14.00">q19:1.0</text>
</g>
<!-- q12:0.0&#45;&gt;q19:1.0 -->
<g id="edge12" class="edge">
<title>q12:0.0&#45;&gt;q19:1.0</title>
<path fill="none" stroke="black" d="M1564.1,-55.59C1573.4,-54.62 1583,-53.77 1592.1,-53.25 1632.4,-50.94 1677.9,-50.76 1713.1,-51.15"/>
<polygon fill="black" stroke="black" points="1712.64,-54.65 1722.69,-51.28 1712.73,-47.65 1712.64,-54.65"/>
<text text-anchor="middle" x="1649.5" y="-57.45" font-family="Times,serif" font-size="14.00">DATA/550:0.294</text>
</g>
<!-- q23:1.0 -->
<g id="node11" class="node">
<title>q23:1.0</title>
<ellipse fill="none" stroke="black" stroke-width="2" cx="2271.1" cy="-169.5" rx="49.1" ry="18"/>
<text text-anchor="middle" x="2271.1" y="-164.82" font-family="Times,serif" font-size="14.00">q23:1.0</text>
</g>
<!-- q17:0.0&#45;&gt;q23:1.0 -->
<g id="edge13" class="edge">
<title>q17:0.0&#45;&gt;q23:1.0</title>
<path fill="none" stroke="black" d="M2088.6,-169.5C2124,-169.5 2172.1,-169.5 2210,-169.5"/>
<polygon fill="black" stroke="black" points="2209.79,-173 2219.79,-169.5 2209.79,-166 2209.79,-173"/>
<text text-anchor="middle" x="2154.9" y="-173.45" font-family="Times,serif" font-size="14.00">QUIT/221:1.0</text>
</g>
<!-- q22:1.0 -->
<g id="node12" class="node">
<title>q22:1.0</title>
<ellipse fill="none" stroke="black" stroke-width="2" cx="2271.1" cy="-115.5" rx="49.1" ry="18"/>
<text text-anchor="middle" x="2271.1" y="-110.82" font-family="Times,serif" font-size="14.00">q22:1.0</text>
</g>
<!-- q16:0.0&#45;&gt;q22:1.0 -->
<g id="edge14" class="edge">
<title>q16:0.0&#45;&gt;q22:1.0</title>
<path fill="none" stroke="black" d="M2088.6,-115.5C2124,-115.5 2172.1,-115.5 2210,-115.5"/>
<polygon fill="black" stroke="black" points="2209.79,-119 2219.79,-115.5 2209.79,-112 2209.79,-119"/>
<text text-anchor="middle" x="2154.9" y="-119.45" font-family="Times,serif" font-size="14.00">RSET/250:1.0</text>
</g>
<!-- q21:1.0 -->
<g id="node13" class="node">
<title>q21:1.0</title>
<ellipse fill="none" stroke="black" stroke-width="2" cx="2271.1" cy="-61.5" rx="49.1" ry="18"/>
<text text-anchor="middle" x="2271.1" y="-56.82" font-family="Times,serif" font-size="14.00">q21:1.0</text>
</g>
<!-- q15:0.0&#45;&gt;q21:1.0 -->
<g id="edge15" class="edge">
<title>q15:0.0&#45;&gt;q21:1.0</title>
<path fill="none" stroke="black" d="M2088.6,-61.5C2124,-61.5 2172.1,-61.5 2210,-61.5"/>
<polygon fill="black" stroke="black" points="2209.79,-65 2219.79,-61.5 2209.79,-58 2209.79,-65"/>
<text text-anchor="middle" x="2154.9" y="-65.45" font-family="Times,serif" font-size="14.00">RSET/250:1.0</text>
</g>
<!-- q5:0.0 -->
<g id="node14" class="node">
<title>q5:0.0</title>
<ellipse fill="none" stroke="black" stroke-width="2" cx="731.85" cy="-234.5" rx="42.79" ry="18"/>
<text text-anchor="middle" x="731.85" y="-229.82" font-family="Times,serif" font-size="14.00">q5:0.0</text>
</g>
<!-- q9:0.0 -->
<g id="node15" class="node">
<title>q9:0.0</title>
<ellipse fill="none" stroke="black" stroke-width="2" cx="982.3" cy="-201.5" rx="42.79" ry="18"/>
<text text-anchor="middle" x="982.3" y="-196.82" font-family="Times,serif" font-size="14.00">q9:0.0</text>
</g>
<!-- q5:0.0&#45;&gt;q9:0.0 -->
<g id="edge16" class="edge">
<title>q5:0.0&#45;&gt;q9:0.0</title>
<path fill="none" stroke="black" d="M769.01,-224.58C778.68,-222.21 789.16,-219.9 798.95,-218.25 841.95,-211.03 891.22,-206.74 927.7,-204.31"/>
<polygon fill="black" stroke="black" points="927.79,-207.81 937.55,-203.68 927.35,-200.82 927.79,-207.81"/>
<text text-anchor="middle" x="857.07" y="-221.45" font-family="Times,serif" font-size="14.00">MAIL/250:0.987</text>
</g>
<!-- q8:0.0 -->
<g id="node16" class="node">
<title>q8:0.0</title>
<ellipse fill="none" stroke="black" stroke-width="2" cx="982.3" cy="-255.5" rx="42.79" ry="18"/>
<text text-anchor="middle" x="982.3" y="-250.82" font-family="Times,serif" font-size="14.00">q8:0.0</text>
</g>
<!-- q5:0.0&#45;&gt;q8:0.0 -->
<g id="edge17" class="edge">
<title>q5:0.0&#45;&gt;q8:0.0</title>
<path fill="none" stroke="black" d="M774.71,-238.04C817.04,-241.62 882.58,-247.16 928.46,-251.04"/>
<polygon fill="black" stroke="black" points="927.91,-254.5 938.17,-251.85 928.5,-247.53 927.91,-254.5"/>
<text text-anchor="middle" x="857.07" y="-253.45" font-family="Times,serif" font-size="14.00">MAIL/553:0.013</text>
</g>
<!-- q9:0.0&#45;&gt;q7:0.0 -->
<g id="edge18" class="edge">
<title>q9:0.0&#45;&gt;q7:0.0</title>
<path fill="none" stroke="black" d="M1023.9,-195.68C1061.3,-189.64 1118.2,-178.77 1165.7,-162.5 1179.9,-157.61 1195,-150.79 1208.1,-144.27"/>
<polygon fill="black" stroke="black" points="1209.45,-147.51 1216.75,-139.84 1206.26,-141.28 1209.45,-147.51"/>
<text text-anchor="middle" x="1107.5" y="-195.45" font-family="Times,serif" font-size="14.00">RCPT/250:1.0</text>
</g>
<!-- q13:1.0 -->
<g id="node17" class="node">
<title>q13:1.0</title>
<ellipse fill="none" stroke="black" stroke-width="2" cx="1245.4" cy="-255.5" rx="49.1" ry="18"/>
<text text-anchor="middle" x="1245.4" y="-250.82" font-family="Times,serif" font-size="14.00">q13:1.0</text>
</g>
<!-- q8:0.0&#45;&gt;q13:1.0 -->
<g id="edge19" class="edge">
<title>q8:0.0&#45;&gt;q13:1.0</title>
<path fill="none" stroke="black" d="M1025.8,-255.5C1068.9,-255.5 1135.9,-255.5 1184.4,-255.5"/>
<polygon fill="black" stroke="black" points="1184.19,-259 1194.19,-255.5 1184.19,-252 1184.19,-259"/>
<text text-anchor="middle" x="1107.5" y="-259.45" font-family="Times,serif" font-size="14.00">RSET/250:1.0</text>
</g>
<!-- q2:0.0 -->
<g id="node18" class="node">
<title>q2:0.0</title>
<ellipse fill="none" stroke="black" stroke-width="2" cx="484.7" cy="-227.5" rx="42.79" ry="18"/>
<text text-anchor="middle" x="484.7" y="-222.82" font-family="Times,serif" font-size="14.00">q2:0.0</text>
</g>
<!-- q2:0.0&#45;&gt;q5:0.0 -->
<g id="edge20" class="edge">
<title>q2:0.0&#45;&gt;q5:0.0</title>
<path fill="none" stroke="black" d="M528.12,-228.71C569.47,-229.89 632.49,-231.69 677.28,-232.97"/>
<polygon fill="black" stroke="black" points="676.92,-236.46 687.02,-233.24 677.12,-229.46 676.92,-236.46"/>
<text text-anchor="middle" x="605.12" y="-235.45" font-family="Times,serif" font-size="14.00">AUTH/235:0.947</text>
</g>
<!-- q4:0.0 -->
<g id="node19" class="node">
<title>q4:0.0</title>
<ellipse fill="none" stroke="black" stroke-width="2" cx="731.85" cy="-154.5" rx="42.79" ry="18"/>
<text text-anchor="middle" x="731.85" y="-149.82" font-family="Times,serif" font-size="14.00">q4:0.0</text>
</g>
<!-- q2:0.0&#45;&gt;q4:0.0 -->
<g id="edge21" class="edge">
<title>q2:0.0&#45;&gt;q4:0.0</title>
<path fill="none" stroke="black" d="M519.13,-215.86C527.69,-212.96 536.91,-209.92 545.49,-207.25 571.24,-199.23 638.06,-180.4 684.02,-167.55"/>
<polygon fill="black" stroke="black" points="684.77,-170.97 693.46,-164.9 682.89,-164.23 684.77,-170.97"/>
<text text-anchor="middle" x="605.12" y="-211.45" font-family="Times,serif" font-size="14.00">AUTH/λ:0.004</text>
</g>
<!-- q6:0.0 -->
<g id="node20" class="node">
<title>q6:0.0</title>
<ellipse fill="none" stroke="black" stroke-width="2" cx="731.85" cy="-290.5" rx="42.79" ry="18"/>
<text text-anchor="middle" x="731.85" y="-285.82" font-family="Times,serif" font-size="14.00">q6:0.0</text>
</g>
<!-- q2:0.0&#45;&gt;q6:0.0 -->
<g id="edge22" class="edge">
<title>q2:0.0&#45;&gt;q6:0.0</title>
<path fill="none" stroke="black" d="M515.09,-241.12C524.64,-245.19 535.39,-249.39 545.49,-252.5 589.87,-266.19 641.76,-276.35 679.33,-282.7"/>
<polygon fill="black" stroke="black" points="678.58,-286.12 689.02,-284.3 679.72,-279.21 678.58,-286.12"/>
<text text-anchor="middle" x="605.12" y="-283.45" font-family="Times,serif" font-size="14.00">AUTH/535:0.049</text>
</g>
<!-- q4:0.0&#45;&gt;q7:0.0 -->
<g id="edge23" class="edge">
<title>q4:0.0&#45;&gt;q7:0.0</title>
<path fill="none" stroke="black" d="M775.31,-153.67C852.93,-151.89 1022.9,-146.85 1165.7,-134.5 1174.4,-133.74 1183.8,-132.74 1192.8,-131.66"/>
<polygon fill="black" stroke="black" points="1193.01,-135.16 1202.5,-130.44 1192.14,-128.21 1193.01,-135.16"/>
<text text-anchor="middle" x="982.3" y="-152.45" font-family="Times,serif" font-size="14.00">MAIL/250:1.0</text>
</g>
<!-- q10:0.0 -->
<g id="node21" class="node">
<title>q10:0.0</title>
<ellipse fill="none" stroke="black" stroke-width="2" cx="982.3" cy="-309.5" rx="49.1" ry="18"/>
<text text-anchor="middle" x="982.3" y="-304.82" font-family="Times,serif" font-size="14.00">q10:0.0</text>
</g>
<!-- q6:0.0&#45;&gt;q10:0.0 -->
<g id="edge24" class="edge">
<title>q6:0.0&#45;&gt;q10:0.0</title>
<path fill="none" stroke="black" d="M774.99,-293.73C815.37,-296.81 876.68,-301.5 921.98,-304.97"/>
<polygon fill="black" stroke="black" points="921.67,-308.45 931.91,-305.72 922.2,-301.47 921.67,-308.45"/>
<text text-anchor="middle" x="857.07" y="-307.45" font-family="Times,serif" font-size="14.00">AUTH/334:1.0</text>
</g>
<!-- q14:0.667 -->
<g id="node22" class="node">
<title>q14:0.667</title>
<ellipse fill="none" stroke="black" stroke-width="2" cx="1245.4" cy="-309.5" rx="61.73" ry="18"/>
<text text-anchor="middle" x="1245.4" y="-304.82" font-family="Times,serif" font-size="14.00">q14:0.667</text>
</g>
<!-- q10:0.0&#45;&gt;q14:0.667 -->
<g id="edge25" class="edge">
<title>q10:0.0&#45;&gt;q14:0.667</title>
<path fill="none" stroke="black" d="M1032.1,-309.5C1071.3,-309.5 1127.1,-309.5 1171.6,-309.5"/>
<polygon fill="black" stroke="black" points="1171.39,-313 1181.39,-309.5 1171.39,-306 1171.39,-313"/>
<text text-anchor="middle" x="1107.5" y="-313.45" font-family="Times,serif" font-size="14.00">content/535:1.0</text>
</g>
<!-- q20:1.0 -->
<g id="node26" class="node">
<title>q20:1.0</title>
<ellipse fill="none" stroke="black" stroke-width="2" cx="1516.7" cy="-309.5" rx="49.1" ry="18"/>
<text text-anchor="middle" x="1516.7" y="-304.82" font-family="Times,serif" font-size="14.00">q20:1.0</text>
</g>
<!-- q14:0.667&#45;&gt;q20:1.0 -->
<g id="edge30" class="edge">
<title>q14:0.667&#45;&gt;q20:1.0</title>
<path fill="none" stroke="black" d="M1307.8,-309.5C1352,-309.5 1411.3,-309.5 1455.3,-309.5"/>
<polygon fill="black" stroke="black" points="1455.19,-313 1465.19,-309.5 1455.19,-306 1455.19,-313"/>
<text text-anchor="middle" x="1383.2" y="-313.45" font-family="Times,serif" font-size="14.00">λ/451:0.333</text>
</g>
<!-- q0:0.0 -->
<g id="node23" class="node">
<title>q0:0.0</title>
<ellipse fill="none" stroke="black" stroke-width="2" cx="50.79" cy="-194.5" rx="46.79" ry="46.79"/>
<ellipse fill="none" stroke="black" stroke-width="2" cx="50.79" cy="-194.5" rx="50.79" ry="50.79"/>
<text text-anchor="middle" x="50.79" y="-189.82" font-family="Times,serif" font-size="14.00">q0:0.0</text>
</g>
<!-- q1:0.0 -->
<g id="node24" class="node">
<title>q1:0.0</title>
<ellipse fill="none" stroke="black" stroke-width="2" cx="243.87" cy="-194.5" rx="42.79" ry="18"/>
<text text-anchor="middle" x="243.87" y="-189.82" font-family="Times,serif" font-size="14.00">q1:0.0</text>
</g>
<!-- q0:0.0&#45;&gt;q1:0.0 -->
<g id="edge26" class="edge">
<title>q0:0.0&#45;&gt;q1:0.0</title>
<path fill="none" stroke="black" d="M98.53,-194.5C125.82,-194.5 160.37,-194.5 188.82,-194.5"/>
<polygon fill="black" stroke="black" points="188.69,-198 198.69,-194.5 188.69,-191 188.69,-198"/>
<text text-anchor="middle" x="149.33" y="-198.45" font-family="Times,serif" font-size="14.00">λ/220:1.0</text>
</g>
<!-- q1:0.0&#45;&gt;q2:0.0 -->
<g id="edge27" class="edge">
<title>q1:0.0&#45;&gt;q2:0.0</title>
<path fill="none" stroke="black" d="M285.66,-200.14C326.01,-205.71 387.94,-214.27 431.79,-220.33"/>
<polygon fill="black" stroke="black" points="431.19,-223.78 441.58,-221.68 432.15,-216.84 431.19,-223.78"/>
<text text-anchor="middle" x="364.29" y="-222.45" font-family="Times,serif" font-size="14.00">EHLO/250:0.996</text>
</g>
<!-- q3:0.0 -->
<g id="node25" class="node">
<title>q3:0.0</title>
<ellipse fill="none" stroke="black" stroke-width="2" cx="484.7" cy="-167.5" rx="42.79" ry="18"/>
<text text-anchor="middle" x="484.7" y="-162.82" font-family="Times,serif" font-size="14.00">q3:0.0</text>
</g>
<!-- q1:0.0&#45;&gt;q3:0.0 -->
<g id="edge28" class="edge">
<title>q1:0.0&#45;&gt;q3:0.0</title>
<path fill="none" stroke="black" d="M279.7,-183.75C287.82,-181.6 296.49,-179.59 304.66,-178.25 346.39,-171.4 394.23,-168.8 429.95,-167.86"/>
<polygon fill="black" stroke="black" points="429.67,-171.36 439.59,-167.64 429.51,-164.37 429.67,-171.36"/>
<text text-anchor="middle" x="364.29" y="-182.45" font-family="Times,serif" font-size="14.00">EHLO/λ:0.004</text>
</g>
<!-- q3:0.0&#45;&gt;q4:0.0 -->
<g id="edge29" class="edge">
<title>q3:0.0&#45;&gt;q4:0.0</title>
<path fill="none" stroke="black" d="M523.16,-158.65C530.52,-157.24 538.22,-156 545.49,-155.25 589.73,-150.68 640.22,-150.82 677.33,-151.93"/>
<polygon fill="black" stroke="black" points="676.77,-155.41 686.88,-152.25 677,-148.41 676.77,-155.41"/>
<text text-anchor="middle" x="605.12" y="-159.45" font-family="Times,serif" font-size="14.00">AUTH/235:1.0</text>
</g>
</g>
</svg>
