<?xml version="1.0" encoding="UTF-8" standalone="no"?>
<!DOCTYPE svg PUBLIC "-//W3C//DTD SVG 1.1//EN"
 "http://www.w3.org/Graphics/SVG/1.1/DTD/svg11.dtd">
<!-- Generated by graphviz version 12.0.0 (20240803.0821)
 -->
<!-- Pages: 1 -->
<svg width="3789pt" height="503pt"
 viewBox="0.00 0.00 3788.80 502.90" xmlns="http://www.w3.org/2000/svg" xmlns:xlink="http://www.w3.org/1999/xlink">
<g id="graph0" class="graph" transform="scale(1 1) rotate(0) translate(4 498.9)">
<polygon fill="white" stroke="none" points="-4,4 -4,-498.9 3784.8,-498.9 3784.8,4 -4,4"/>
<!-- q1:0.0 -->
<g id="node1" class="node">
<title>q1:0.0</title>
<ellipse fill="none" stroke="black" stroke-width="2" cx="243.87" cy="-177" rx="42.79" ry="18"/>
<text text-anchor="middle" x="243.87" y="-172.32" font-family="Times,serif" font-size="14.00">q1:0.0</text>
</g>
<!-- q2:0.0 -->
<g id="node2" class="node">
<title>q2:0.0</title>
<ellipse fill="none" stroke="black" stroke-width="2" cx="484.7" cy="-212" rx="42.79" ry="18"/>
<text text-anchor="middle" x="484.7" y="-207.32" font-family="Times,serif" font-size="14.00">q2:0.0</text>
</g>
<!-- q1:0.0&#45;&gt;q2:0.0 -->
<g id="edge1" class="edge">
<title>q1:0.0&#45;&gt;q2:0.0</title>
<path fill="none" stroke="black" d="M284.73,-183.82C291.38,-184.91 298.21,-186.01 304.66,-187 347.35,-193.55 395.88,-200.28 431.63,-205.11"/>
<polygon fill="black" stroke="black" points="430.89,-208.54 441.27,-206.4 431.82,-201.6 430.89,-208.54"/>
<text text-anchor="middle" x="364.29" y="-206.94" font-family="Times,serif" font-size="14.00">EHLO/250:0.992</text>
</g>
<!-- q3:0.0 -->
<g id="node3" class="node">
<title>q3:0.0</title>
<ellipse fill="none" stroke="black" stroke-width="2" cx="484.7" cy="-116" rx="42.79" ry="18"/>
<text text-anchor="middle" x="484.7" y="-111.33" font-family="Times,serif" font-size="14.00">q3:0.0</text>
</g>
<!-- q1:0.0&#45;&gt;q3:0.0 -->
<g id="edge2" class="edge">
<title>q1:0.0&#45;&gt;q3:0.0</title>
<path fill="none" stroke="black" d="M271.63,-162.38C281.74,-157.36 293.5,-152.1 304.66,-148.5 346.17,-135.1 394.98,-126.7 431.14,-121.81"/>
<polygon fill="black" stroke="black" points="431.45,-125.3 440.91,-120.54 430.54,-118.36 431.45,-125.3"/>
<text text-anchor="middle" x="364.29" y="-170.2" font-family="Times,serif" font-size="14.00">EHLO/λ:0.008</text>
<text text-anchor="middle" x="364.29" y="-152.95" font-family="Times,serif" font-size="14.00">a0 = [127.0.1.1]</text>
</g>
<!-- q6:0.0 -->
<g id="node4" class="node">
<title>q6:0.0</title>
<ellipse fill="none" stroke="black" stroke-width="2" cx="1657.8" cy="-108" rx="42.79" ry="18"/>
<text text-anchor="middle" x="1657.8" y="-103.33" font-family="Times,serif" font-size="14.00">q6:0.0</text>
</g>
<!-- q2:0.0&#45;&gt;q6:0.0 -->
<g id="edge3" class="edge">
<title>q2:0.0&#45;&gt;q6:0.0</title>
<path fill="none" stroke="black" d="M509.09,-196.42C519.73,-190.21 532.77,-183.77 545.49,-180.5 658.66,-151.4 1488.1,-203.46 1597,-161 1611.6,-155.31 1624.9,-144.34 1635.3,-133.85"/>
<polygon fill="black" stroke="black" points="1637.64,-136.47 1641.87,-126.76 1632.51,-131.72 1637.64,-136.47"/>
<text text-anchor="middle" x="1071.2" y="-201.2" font-family="Times,serif" font-size="14.00">AUTH/λ:0.004</text>
<text text-anchor="middle" x="1071.2" y="-183.95" font-family="Times,serif" font-size="14.00">a0 = PLAIN AEF6NjE2MUAxMjYuY29tAE1VUVNBT1NUWElURkpDVUU=</text>
</g>
<!-- q5:0.0 -->
<g id="node5" class="node">
<title>q5:0.0</title>
<ellipse fill="none" stroke="black" stroke-width="2" cx="1657.8" cy="-241" rx="42.79" ry="18"/>
<text text-anchor="middle" x="1657.8" y="-236.32" font-family="Times,serif" font-size="14.00">q5:0.0</text>
</g>
<!-- q2:0.0&#45;&gt;q5:0.0 -->
<g id="edge4" class="edge">
<title>q2:0.0&#45;&gt;q5:0.0</title>
<path fill="none" stroke="black" d="M526.5,-217.31C532.85,-217.98 539.34,-218.58 545.49,-219 950.95,-246.68 1441.4,-243.71 1602.6,-241.78"/>
<polygon fill="black" stroke="black" points="1602.63,-245.28 1612.59,-241.66 1602.54,-238.28 1602.63,-245.28"/>
<text text-anchor="middle" x="1071.2" y="-280.45" font-family="Times,serif" font-size="14.00">AUTH/235:0.942</text>
<text text-anchor="middle" x="1071.2" y="-263.2" font-family="Times,serif" font-size="14.00">a0 in {&#39;PLAIN AEF6NjE2MUAxMjYuY29tAE1VUVNBT1NUWElURkpDVUU=&#39;, &#39;PLAIN AEF6NjE2MUBzaW5hLmNvbQA2ZmRiMjVjZmNjODYyZWZj&#39;}</text>
<text text-anchor="middle" x="1071.2" y="-245.95" font-family="Times,serif" font-size="14.00">b0 in {&#39;Authentication successful&#39;, &#39;OK Authenticated&#39;}</text>
</g>
<!-- q4:0.0 -->
<g id="node6" class="node">
<title>q4:0.0</title>
<ellipse fill="none" stroke="black" stroke-width="2" cx="1657.8" cy="-322" rx="42.79" ry="18"/>
<text text-anchor="middle" x="1657.8" y="-317.32" font-family="Times,serif" font-size="14.00">q4:0.0</text>
</g>
<!-- q2:0.0&#45;&gt;q4:0.0 -->
<g id="edge5" class="edge">
<title>q2:0.0&#45;&gt;q4:0.0</title>
<path fill="none" stroke="black" d="M492.5,-230.38C501.23,-251.03 518.57,-283.56 545.49,-298 912.49,-494.9 1450.5,-376.87 1610.4,-334.96"/>
<polygon fill="black" stroke="black" points="1610.98,-338.43 1619.74,-332.47 1609.17,-331.66 1610.98,-338.43"/>
<text text-anchor="middle" x="1071.2" y="-429.2" font-family="Times,serif" font-size="14.00">AUTH/535:0.054</text>
<text text-anchor="middle" x="1071.2" y="-411.95" font-family="Times,serif" font-size="14.00">b0 in {&#39;5.7.8 authentication failed&#39;, &#39;Error: authentication failed&#39;}</text>
</g>
<!-- q3:0.0&#45;&gt;q6:0.0 -->
<g id="edge6" class="edge">
<title>q3:0.0&#45;&gt;q6:0.0</title>
<path fill="none" stroke="black" d="M526.5,-110.78C532.85,-110.15 539.34,-109.6 545.49,-109.25 951.4,-86.18 1442,-100.24 1602.9,-105.94"/>
<polygon fill="black" stroke="black" points="1602.67,-109.43 1612.79,-106.3 1602.92,-102.44 1602.67,-109.43"/>
<text text-anchor="middle" x="1071.2" y="-148.45" font-family="Times,serif" font-size="14.00">AUTH/235:1.0</text>
<text text-anchor="middle" x="1071.2" y="-131.2" font-family="Times,serif" font-size="14.00">a0 in {&#39;PLAIN AEF6NjE2MUAxMjYuY29tAE1VUVNBT1NUWElURkpDVUU=&#39;, &#39;PLAIN AEF6NjE2MUBzaW5hLmNvbQA2ZmRiMjVjZmNjODYyZWZj&#39;}</text>
<text text-anchor="middle" x="1071.2" y="-113.95" font-family="Times,serif" font-size="14.00">b0 in {&#39;Authentication successful&#39;, &#39;OK Authenticated&#39;}</text>
</g>
<!-- q9:0.0 -->
<g id="node7" class="node">
<title>q9:0.0</title>
<ellipse fill="none" stroke="black" stroke-width="2" cx="2500.9" cy="-110" rx="42.79" ry="18"/>
<text text-anchor="middle" x="2500.9" y="-105.33" font-family="Times,serif" font-size="14.00">q9:0.0</text>
</g>
<!-- q6:0.0&#45;&gt;q9:0.0 -->
<g id="edge7" class="edge">
<title>q6:0.0&#45;&gt;q9:0.0</title>
<path fill="none" stroke="black" d="M1699.6,-102.78C1705.9,-102.14 1712.4,-101.6 1718.6,-101.25 2038.7,-83.23 2120.3,-77.97 2440.1,-101.25 2442.9,-101.46 2445.8,-101.72 2448.7,-102.02"/>
<polygon fill="black" stroke="black" points="2448.26,-105.49 2458.6,-103.17 2449.07,-98.54 2448.26,-105.49"/>
<text text-anchor="middle" x="2079.3" y="-140.45" font-family="Times,serif" font-size="14.00">MAIL/250:1.0</text>
<text text-anchor="middle" x="2079.3" y="-123.2" font-family="Times,serif" font-size="14.00">a0 in {&#39;FROM:&lt;Az6161@sina.com&gt;&#39;, &#39;FROM:&lt;Az6161@126.com&gt;&#39;}</text>
<text text-anchor="middle" x="2079.3" y="-105.95" font-family="Times,serif" font-size="14.00">b0 in {&#39;Mail OK&#39;, &#39;ok&#39;}</text>
</g>
<!-- q5:0.0&#45;&gt;q9:0.0 -->
<g id="edge8" class="edge">
<title>q5:0.0&#45;&gt;q9:0.0</title>
<path fill="none" stroke="black" d="M1672.1,-223.14C1682.9,-210.04 1699.6,-193.22 1718.6,-185.25 1866.5,-123.11 2288.5,-205.63 2440.1,-153 2452,-148.87 2463.6,-141.55 2473.3,-134.11"/>
<polygon fill="black" stroke="black" points="2475.32,-136.98 2480.92,-127.99 2470.93,-131.52 2475.32,-136.98"/>
<text text-anchor="middle" x="2079.3" y="-223.45" font-family="Times,serif" font-size="14.00">MAIL/250:0.987</text>
<text text-anchor="middle" x="2079.3" y="-206.2" font-family="Times,serif" font-size="14.00">a0 in {&#39;FROM:&lt;Az6161@sina.com&gt;&#39;, &#39;FROM:&lt;Az6161@126.com&gt;&#39;}</text>
<text text-anchor="middle" x="2079.3" y="-188.95" font-family="Times,serif" font-size="14.00">b0 in {&#39;Mail OK&#39;, &#39;ok&#39;}</text>
</g>
<!-- q8:0.0 -->
<g id="node8" class="node">
<title>q8:0.0</title>
<ellipse fill="none" stroke="black" stroke-width="2" cx="2500.9" cy="-250" rx="42.79" ry="18"/>
<text text-anchor="middle" x="2500.9" y="-245.32" font-family="Times,serif" font-size="14.00">q8:0.0</text>
</g>
<!-- q5:0.0&#45;&gt;q8:0.0 -->
<g id="edge9" class="edge">
<title>q5:0.0&#45;&gt;q8:0.0</title>
<path fill="none" stroke="black" d="M1701.4,-241.46C1841.9,-242.96 2290.6,-247.76 2446.2,-249.43"/>
<polygon fill="black" stroke="black" points="2445.75,-252.93 2455.79,-249.52 2445.82,-245.93 2445.75,-252.93"/>
<text text-anchor="middle" x="2079.3" y="-287.45" font-family="Times,serif" font-size="14.00">MAIL/553:0.013</text>
<text text-anchor="middle" x="2079.3" y="-270.2" font-family="Times,serif" font-size="14.00">a0 in {&#39;FROM:&lt;Az_6161@126.com&gt;&#39;, &#39;FROM:&lt;Az_6161@sina.com&gt;&#39;, &#39;FROM:&lt;Az6161@163.com&gt;&#39;}</text>
<text text-anchor="middle" x="2079.3" y="-252.95" font-family="Times,serif" font-size="14.00">b0 in {&#39;Mail from must equal authorized user&#39;, &#39;Envolope sender mismatch with login user..&#39;}</text>
</g>
<!-- q7:0.0 -->
<g id="node9" class="node">
<title>q7:0.0</title>
<ellipse fill="none" stroke="black" stroke-width="2" cx="2500.9" cy="-325" rx="42.79" ry="18"/>
<text text-anchor="middle" x="2500.9" y="-320.32" font-family="Times,serif" font-size="14.00">q7:0.0</text>
</g>
<!-- q4:0.0&#45;&gt;q7:0.0 -->
<g id="edge10" class="edge">
<title>q4:0.0&#45;&gt;q7:0.0</title>
<path fill="none" stroke="black" d="M1701.4,-322.15C1841.9,-322.65 2290.6,-324.25 2446.2,-324.81"/>
<polygon fill="black" stroke="black" points="2445.77,-328.31 2455.79,-324.84 2445.8,-321.31 2445.77,-328.31"/>
<text text-anchor="middle" x="2079.3" y="-345.2" font-family="Times,serif" font-size="14.00">AUTH/334:1.0</text>
<text text-anchor="middle" x="2079.3" y="-327.95" font-family="Times,serif" font-size="14.00">b0 = UGFzc3dvcmQ6</text>
</g>
<!-- q9:0.0&#45;&gt;q9:0.0 -->
<g id="edge11" class="edge">
<title>q9:0.0&#45;&gt;q9:0.0</title>
<path fill="none" stroke="black" d="M2462.4,-119.04C2428.4,-131.2 2441.2,-146 2500.9,-146 2553.3,-146 2569.5,-134.57 2549.6,-123.54"/>
<polygon fill="black" stroke="black" points="2551.25,-120.44 2540.69,-119.65 2548.45,-126.86 2551.25,-120.44"/>
<text text-anchor="middle" x="2500.9" y="-167.2" font-family="Times,serif" font-size="14.00">RCPT/250:0.636</text>
<text text-anchor="middle" x="2500.9" y="-149.95" font-family="Times,serif" font-size="14.00">b0 in {&#39;Mail OK&#39;, &#39;ok&#39;}</text>
</g>
<!-- q12:0.0 -->
<g id="node10" class="node">
<title>q12:0.0</title>
<ellipse fill="none" stroke="black" stroke-width="2" cx="3127.4" cy="-76" rx="49.1" ry="18"/>
<text text-anchor="middle" x="3127.4" y="-71.33" font-family="Times,serif" font-size="14.00">q12:0.0</text>
</g>
<!-- q9:0.0&#45;&gt;q12:0.0 -->
<g id="edge12" class="edge">
<title>q9:0.0&#45;&gt;q12:0.0</title>
<path fill="none" stroke="black" d="M2544.3,-107.69C2652.9,-101.78 2941.3,-86.08 3066.7,-79.25"/>
<polygon fill="black" stroke="black" points="3066.69,-82.76 3076.49,-78.72 3066.31,-75.77 3066.69,-82.76"/>
<text text-anchor="middle" x="2804.7" y="-128.2" font-family="Times,serif" font-size="14.00">DATA/354:0.296</text>
<text text-anchor="middle" x="2804.7" y="-110.95" font-family="Times,serif" font-size="14.00">b0 = End data with &lt;CR&gt;&lt;LF&gt;.&lt;CR&gt;&lt;LF&gt;</text>
</g>
<!-- q13:1.0 -->
<g id="node11" class="node">
<title>q13:1.0</title>
<ellipse fill="none" stroke="black" stroke-width="2" cx="3127.4" cy="-183" rx="49.1" ry="18"/>
<text text-anchor="middle" x="3127.4" y="-178.32" font-family="Times,serif" font-size="14.00">q13:1.0</text>
</g>
<!-- q9:0.0&#45;&gt;q13:1.0 -->
<g id="edge13" class="edge">
<title>q9:0.0&#45;&gt;q13:1.0</title>
<path fill="none" stroke="black" d="M2523.7,-126.09C2534.6,-133.2 2548.2,-140.86 2561.7,-145 2739.3,-199.65 2962.8,-194.28 3067.3,-187.76"/>
<polygon fill="black" stroke="black" points="3067.34,-191.26 3077.09,-187.12 3066.88,-184.28 3067.34,-191.26"/>
<text text-anchor="middle" x="2804.7" y="-212.2" font-family="Times,serif" font-size="14.00">DATA/550:0.069</text>
<text text-anchor="middle" x="2804.7" y="-194.95" font-family="Times,serif" font-size="14.00">b0 in {&#39;too many message send today.&#39;, &#39;Sender frequency limited.&#39;}</text>
</g>
<!-- q11:1.0 -->
<g id="node12" class="node">
<title>q11:1.0</title>
<ellipse fill="none" stroke="black" stroke-width="2" cx="3127.4" cy="-250" rx="49.1" ry="18"/>
<text text-anchor="middle" x="3127.4" y="-245.32" font-family="Times,serif" font-size="14.00">q11:1.0</text>
</g>
<!-- q8:0.0&#45;&gt;q11:1.0 -->
<g id="edge14" class="edge">
<title>q8:0.0&#45;&gt;q11:1.0</title>
<path fill="none" stroke="black" d="M2544.3,-250C2652.8,-250 2940.5,-250 3066.2,-250"/>
<polygon fill="black" stroke="black" points="3065.99,-253.5 3075.99,-250 3065.99,-246.5 3065.99,-253.5"/>
<text text-anchor="middle" x="2804.7" y="-271.2" font-family="Times,serif" font-size="14.00">RSET/250:1.0</text>
<text text-anchor="middle" x="2804.7" y="-253.95" font-family="Times,serif" font-size="14.00">b0 in {&#39;flushed&#39;, &#39;OK&#39;}</text>
</g>
<!-- q10:0.692 -->
<g id="node13" class="node">
<title>q10:0.692</title>
<ellipse fill="none" stroke="black" stroke-width="2" cx="3127.4" cy="-325" rx="61.73" ry="18"/>
<text text-anchor="middle" x="3127.4" y="-320.32" font-family="Times,serif" font-size="14.00">q10:0.692</text>
</g>
<!-- q7:0.0&#45;&gt;q10:0.692 -->
<g id="edge15" class="edge">
<title>q7:0.0&#45;&gt;q10:0.692</title>
<path fill="none" stroke="black" d="M2544.3,-325C2649.3,-325 2922.2,-325 3053.6,-325"/>
<polygon fill="black" stroke="black" points="3053.59,-328.5 3063.59,-325 3053.59,-321.5 3053.59,-328.5"/>
<text text-anchor="middle" x="2804.7" y="-346.2" font-family="Times,serif" font-size="14.00">content/535:1.0</text>
<text text-anchor="middle" x="2804.7" y="-328.95" font-family="Times,serif" font-size="14.00">b0 in {&#39;5.7.8 authentication failed&#39;, &#39;Error: authentication failed&#39;}</text>
</g>
<!-- q12:0.0&#45;&gt;q12:0.0 -->
<g id="edge16" class="edge">
<title>q12:0.0&#45;&gt;q12:0.0</title>
<path fill="none" stroke="black" d="M3095.6,-90.42C3084.5,-101.17 3095.1,-112 3127.4,-112 3148.6,-112 3160.4,-107.33 3162.9,-101.09"/>
<polygon fill="black" stroke="black" points="3166.28,-100.15 3159.69,-91.85 3159.66,-102.44 3166.28,-100.15"/>
<text text-anchor="middle" x="3127.4" y="-133.2" font-family="Times,serif" font-size="14.00">content/λ:0.942</text>
<text text-anchor="middle" x="3127.4" y="-115.95" font-family="Times,serif" font-size="14.00">a0 = b0</text>
</g>
<!-- q16:0.0 -->
<g id="node14" class="node">
<title>q16:0.0</title>
<ellipse fill="none" stroke="black" stroke-width="2" cx="3499.2" cy="-76" rx="49.1" ry="18"/>
<text text-anchor="middle" x="3499.2" y="-71.33" font-family="Times,serif" font-size="14.00">q16:0.0</text>
</g>
<!-- q12:0.0&#45;&gt;q16:0.0 -->
<g id="edge17" class="edge">
<title>q12:0.0&#45;&gt;q16:0.0</title>
<path fill="none" stroke="black" d="M3177.1,-76C3244.3,-76 3365.4,-76 3438.1,-76"/>
<polygon fill="black" stroke="black" points="3437.89,-79.5 3447.89,-76 3437.89,-72.5 3437.89,-79.5"/>
<text text-anchor="middle" x="3319.6" y="-97.2" font-family="Times,serif" font-size="14.00">content/550:0.0</text>
<text text-anchor="middle" x="3319.6" y="-79.95" font-family="Times,serif" font-size="14.00">b0 = Sender frequency limited.</text>
</g>
<!-- q15:0.0 -->
<g id="node15" class="node">
<title>q15:0.0</title>
<ellipse fill="none" stroke="black" stroke-width="2" cx="3499.2" cy="-20" rx="49.1" ry="18"/>
<text text-anchor="middle" x="3499.2" y="-15.32" font-family="Times,serif" font-size="14.00">q15:0.0</text>
</g>
<!-- q12:0.0&#45;&gt;q15:0.0 -->
<g id="edge18" class="edge">
<title>q12:0.0&#45;&gt;q15:0.0</title>
<path fill="none" stroke="black" d="M3167,-64.39C3179.7,-60.89 3193.9,-57.31 3207.1,-54.75 3286.6,-39.36 3379.8,-29.67 3438.9,-24.55"/>
<polygon fill="black" stroke="black" points="3439.02,-28.05 3448.69,-23.71 3438.43,-21.08 3439.02,-28.05"/>
<text text-anchor="middle" x="3319.6" y="-58.95" font-family="Times,serif" font-size="14.00">content/554:0.016</text>
</g>
<!-- q17:0.0 -->
<g id="node16" class="node">
<title>q17:0.0</title>
<ellipse fill="none" stroke="black" stroke-width="2" cx="3499.2" cy="-134" rx="49.1" ry="18"/>
<text text-anchor="middle" x="3499.2" y="-129.32" font-family="Times,serif" font-size="14.00">q17:0.0</text>
</g>
<!-- q12:0.0&#45;&gt;q17:0.0 -->
<g id="edge19" class="edge">
<title>q12:0.0&#45;&gt;q17:0.0</title>
<path fill="none" stroke="black" d="M3155.9,-91.5C3170.6,-99.03 3189.4,-107.43 3207.1,-112 3285.1,-132.09 3378.4,-135.72 3438,-135.58"/>
<polygon fill="black" stroke="black" points="3438.01,-139.08 3447.99,-135.51 3437.96,-132.08 3438.01,-139.08"/>
<text text-anchor="middle" x="3319.6" y="-139.94" font-family="Times,serif" font-size="14.00">content/250:0.042</text>
</g>
<!-- q14:1.0 -->
<g id="node21" class="node">
<title>q14:1.0</title>
<ellipse fill="none" stroke="black" stroke-width="2" cx="3499.2" cy="-325" rx="49.1" ry="18"/>
<text text-anchor="middle" x="3499.2" y="-320.32" font-family="Times,serif" font-size="14.00">q14:1.0</text>
</g>
<!-- q10:0.692&#45;&gt;q14:1.0 -->
<g id="edge24" class="edge">
<title>q10:0.692&#45;&gt;q14:1.0</title>
<path fill="none" stroke="black" d="M3189.9,-325C3258.7,-325 3369.5,-325 3437.9,-325"/>
<polygon fill="black" stroke="black" points="3437.79,-328.5 3447.79,-325 3437.79,-321.5 3437.79,-328.5"/>
<text text-anchor="middle" x="3319.6" y="-346.2" font-family="Times,serif" font-size="14.00">λ/451:0.308</text>
<text text-anchor="middle" x="3319.6" y="-328.95" font-family="Times,serif" font-size="14.00">b0 = Timeout.</text>
</g>
<!-- q19:1.0 -->
<g id="node17" class="node">
<title>q19:1.0</title>
<ellipse fill="none" stroke="black" stroke-width="2" cx="3731.7" cy="-76" rx="49.1" ry="18"/>
<text text-anchor="middle" x="3731.7" y="-71.33" font-family="Times,serif" font-size="14.00">q19:1.0</text>
</g>
<!-- q16:0.0&#45;&gt;q19:1.0 -->
<g id="edge20" class="edge">
<title>q16:0.0&#45;&gt;q19:1.0</title>
<path fill="none" stroke="black" d="M3549.1,-76C3584.5,-76 3632.7,-76 3670.5,-76"/>
<polygon fill="black" stroke="black" points="3670.39,-79.5 3680.39,-76 3670.39,-72.5 3670.39,-79.5"/>
<text text-anchor="middle" x="3615.4" y="-97.2" font-family="Times,serif" font-size="14.00">RSET/250:1.0</text>
<text text-anchor="middle" x="3615.4" y="-79.95" font-family="Times,serif" font-size="14.00">a0 = b0</text>
</g>
<!-- q18:1.0 -->
<g id="node18" class="node">
<title>q18:1.0</title>
<ellipse fill="none" stroke="black" stroke-width="2" cx="3731.7" cy="-18" rx="49.1" ry="18"/>
<text text-anchor="middle" x="3731.7" y="-13.32" font-family="Times,serif" font-size="14.00">q18:1.0</text>
</g>
<!-- q15:0.0&#45;&gt;q18:1.0 -->
<g id="edge21" class="edge">
<title>q15:0.0&#45;&gt;q18:1.0</title>
<path fill="none" stroke="black" d="M3549.1,-19.58C3584.5,-19.27 3632.7,-18.85 3670.5,-18.52"/>
<polygon fill="black" stroke="black" points="3670.42,-22.02 3680.39,-18.44 3670.36,-15.02 3670.42,-22.02"/>
<text text-anchor="middle" x="3615.4" y="-41.2" font-family="Times,serif" font-size="14.00">RSET/250:1.0</text>
<text text-anchor="middle" x="3615.4" y="-23.95" font-family="Times,serif" font-size="14.00">b0 = OK</text>
</g>
<!-- q20:1.0 -->
<g id="node19" class="node">
<title>q20:1.0</title>
<ellipse fill="none" stroke="black" stroke-width="2" cx="3731.7" cy="-134" rx="49.1" ry="18"/>
<text text-anchor="middle" x="3731.7" y="-129.32" font-family="Times,serif" font-size="14.00">q20:1.0</text>
</g>
<!-- q17:0.0&#45;&gt;q20:1.0 -->
<g id="edge22" class="edge">
<title>q17:0.0&#45;&gt;q20:1.0</title>
<path fill="none" stroke="black" d="M3549.1,-134C3584.5,-134 3632.7,-134 3670.5,-134"/>
<polygon fill="black" stroke="black" points="3670.39,-137.5 3680.39,-134 3670.39,-130.5 3670.39,-137.5"/>
<text text-anchor="middle" x="3615.4" y="-137.94" font-family="Times,serif" font-size="14.00">QUIT/221:1.0</text>
</g>
<!-- q0:0.0 -->
<g id="node20" class="node">
<title>q0:0.0</title>
<ellipse fill="none" stroke="black" stroke-width="2" cx="50.79" cy="-177" rx="46.79" ry="46.79"/>
<ellipse fill="none" stroke="black" stroke-width="2" cx="50.79" cy="-177" rx="50.79" ry="50.79"/>
<text text-anchor="middle" x="50.79" y="-172.32" font-family="Times,serif" font-size="14.00">q0:0.0</text>
</g>
<!-- q0:0.0&#45;&gt;q1:0.0 -->
<g id="edge23" class="edge">
<title>q0:0.0&#45;&gt;q1:0.0</title>
<path fill="none" stroke="black" d="M98.53,-177C125.82,-177 160.37,-177 188.82,-177"/>
<polygon fill="black" stroke="black" points="188.69,-180.5 198.69,-177 188.69,-173.5 188.69,-180.5"/>
<text text-anchor="middle" x="149.33" y="-180.94" font-family="Times,serif" font-size="14.00">λ/220:1.0</text>
</g>
</g>
</svg>
