<?xml version="1.0" encoding="UTF-8" standalone="no"?>
<!DOCTYPE svg PUBLIC "-//W3C//DTD SVG 1.1//EN"
 "http://www.w3.org/Graphics/SVG/1.1/DTD/svg11.dtd">
<!-- Generated by graphviz version 12.0.0 (20240803.0821)
 -->
<!-- Pages: 1 -->
<svg width="2299pt" height="277pt"
 viewBox="0.00 0.00 2299.20 277.00" xmlns="http://www.w3.org/2000/svg" xmlns:xlink="http://www.w3.org/1999/xlink">
<g id="graph0" class="graph" transform="scale(1 1) rotate(0) translate(4 273)">
<polygon fill="white" stroke="none" points="-4,4 -4,-273 2295.2,-273 2295.2,4 -4,4"/>
<!-- q12:0.667 -->
<g id="node1" class="node">
<title>q12:0.667</title>
<ellipse fill="none" stroke="black" stroke-width="2" cx="1214.9" cy="-251" rx="61.73" ry="18"/>
<text text-anchor="middle" x="1214.9" y="-246.32" font-family="Times,serif" font-size="14.00">q12:0.667</text>
</g>
<!-- q15:1.0 -->
<g id="node2" class="node">
<title>q15:1.0</title>
<ellipse fill="none" stroke="black" stroke-width="2" cx="1486.2" cy="-251" rx="49.1" ry="18"/>
<text text-anchor="middle" x="1486.2" y="-246.32" font-family="Times,serif" font-size="14.00">q15:1.0</text>
</g>
<!-- q12:0.667&#45;&gt;q15:1.0 -->
<g id="edge1" class="edge">
<title>q12:0.667&#45;&gt;q15:1.0</title>
<path fill="none" stroke="black" d="M1277.3,-251C1321.5,-251 1380.8,-251 1424.8,-251"/>
<polygon fill="black" stroke="black" points="1424.69,-254.5 1434.69,-251 1424.69,-247.5 1424.69,-254.5"/>
<text text-anchor="middle" x="1352.7" y="-254.94" font-family="Times,serif" font-size="14.00">λ/451:0.333</text>
</g>
<!-- q13:0.0 -->
<g id="node3" class="node">
<title>q13:0.0</title>
<ellipse fill="none" stroke="black" stroke-width="2" cx="1745" cy="-168" rx="49.1" ry="18"/>
<text text-anchor="middle" x="1745" y="-163.32" font-family="Times,serif" font-size="14.00">q13:0.0</text>
</g>
<!-- q13:0.0&#45;&gt;q13:0.0 -->
<g id="edge2" class="edge">
<title>q13:0.0&#45;&gt;q13:0.0</title>
<path fill="none" stroke="black" d="M1723,-184.66C1718.1,-194.62 1725.4,-204 1745,-204 1756.6,-204 1763.9,-200.69 1766.9,-195.92"/>
<polygon fill="black" stroke="black" points="1770.4,-196.2 1766.99,-186.17 1763.4,-196.14 1770.4,-196.2"/>
<text text-anchor="middle" x="1745" y="-207.94" font-family="Times,serif" font-size="14.00">content/λ:0.943</text>
</g>
<!-- q18:0.0 -->
<g id="node4" class="node">
<title>q18:0.0</title>
<ellipse fill="none" stroke="black" stroke-width="2" cx="2009.7" cy="-222" rx="49.1" ry="18"/>
<text text-anchor="middle" x="2009.7" y="-217.32" font-family="Times,serif" font-size="14.00">q18:0.0</text>
</g>
<!-- q13:0.0&#45;&gt;q18:0.0 -->
<g id="edge3" class="edge">
<title>q13:0.0&#45;&gt;q18:0.0</title>
<path fill="none" stroke="black" d="M1782.4,-180.59C1792,-183.62 1802.4,-186.65 1812.1,-189 1858.3,-200.17 1911.6,-208.85 1951,-214.51"/>
<polygon fill="black" stroke="black" points="1950.31,-217.95 1960.7,-215.88 1951.29,-211.02 1950.31,-217.95"/>
<text text-anchor="middle" x="1877.3" y="-215.94" font-family="Times,serif" font-size="14.00">content/550:0.0</text>
</g>
<!-- q16:0.0 -->
<g id="node5" class="node">
<title>q16:0.0</title>
<ellipse fill="none" stroke="black" stroke-width="2" cx="2009.7" cy="-168" rx="49.1" ry="18"/>
<text text-anchor="middle" x="2009.7" y="-163.32" font-family="Times,serif" font-size="14.00">q16:0.0</text>
</g>
<!-- q13:0.0&#45;&gt;q16:0.0 -->
<g id="edge4" class="edge">
<title>q13:0.0&#45;&gt;q16:0.0</title>
<path fill="none" stroke="black" d="M1794.8,-168C1838.1,-168 1901.7,-168 1948.2,-168"/>
<polygon fill="black" stroke="black" points="1948.19,-171.5 1958.19,-168 1948.19,-164.5 1948.19,-171.5"/>
<text text-anchor="middle" x="1877.3" y="-171.94" font-family="Times,serif" font-size="14.00">content/554:0.019</text>
</g>
<!-- q17:0.0 -->
<g id="node6" class="node">
<title>q17:0.0</title>
<ellipse fill="none" stroke="black" stroke-width="2" cx="2009.7" cy="-114" rx="49.1" ry="18"/>
<text text-anchor="middle" x="2009.7" y="-109.33" font-family="Times,serif" font-size="14.00">q17:0.0</text>
</g>
<!-- q13:0.0&#45;&gt;q17:0.0 -->
<g id="edge5" class="edge">
<title>q13:0.0&#45;&gt;q17:0.0</title>
<path fill="none" stroke="black" d="M1782.1,-155.35C1791.7,-152.25 1802.2,-149.14 1812.1,-146.75 1858.3,-135.54 1911.5,-126.92 1951,-121.35"/>
<polygon fill="black" stroke="black" points="1951.28,-124.84 1960.7,-120 1950.31,-117.91 1951.28,-124.84"/>
<text text-anchor="middle" x="1877.3" y="-150.94" font-family="Times,serif" font-size="14.00">content/250:0.037</text>
</g>
<!-- q23:1.0 -->
<g id="node7" class="node">
<title>q23:1.0</title>
<ellipse fill="none" stroke="black" stroke-width="2" cx="2242.1" cy="-222" rx="49.1" ry="18"/>
<text text-anchor="middle" x="2242.1" y="-217.32" font-family="Times,serif" font-size="14.00">q23:1.0</text>
</g>
<!-- q18:0.0&#45;&gt;q23:1.0 -->
<g id="edge6" class="edge">
<title>q18:0.0&#45;&gt;q23:1.0</title>
<path fill="none" stroke="black" d="M2059.5,-222C2095,-222 2143.1,-222 2181,-222"/>
<polygon fill="black" stroke="black" points="2180.79,-225.5 2190.79,-222 2180.79,-218.5 2180.79,-225.5"/>
<text text-anchor="middle" x="2125.9" y="-225.94" font-family="Times,serif" font-size="14.00">RSET/250:1.0</text>
</g>
<!-- q21:1.0 -->
<g id="node8" class="node">
<title>q21:1.0</title>
<ellipse fill="none" stroke="black" stroke-width="2" cx="2242.1" cy="-168" rx="49.1" ry="18"/>
<text text-anchor="middle" x="2242.1" y="-163.32" font-family="Times,serif" font-size="14.00">q21:1.0</text>
</g>
<!-- q16:0.0&#45;&gt;q21:1.0 -->
<g id="edge7" class="edge">
<title>q16:0.0&#45;&gt;q21:1.0</title>
<path fill="none" stroke="black" d="M2059.5,-168C2095,-168 2143.1,-168 2181,-168"/>
<polygon fill="black" stroke="black" points="2180.79,-171.5 2190.79,-168 2180.79,-164.5 2180.79,-171.5"/>
<text text-anchor="middle" x="2125.9" y="-171.94" font-family="Times,serif" font-size="14.00">RSET/250:1.0</text>
</g>
<!-- q22:1.0 -->
<g id="node9" class="node">
<title>q22:1.0</title>
<ellipse fill="none" stroke="black" stroke-width="2" cx="2242.1" cy="-114" rx="49.1" ry="18"/>
<text text-anchor="middle" x="2242.1" y="-109.33" font-family="Times,serif" font-size="14.00">q22:1.0</text>
</g>
<!-- q17:0.0&#45;&gt;q22:1.0 -->
<g id="edge8" class="edge">
<title>q17:0.0&#45;&gt;q22:1.0</title>
<path fill="none" stroke="black" d="M2059.5,-114C2095,-114 2143.1,-114 2181,-114"/>
<polygon fill="black" stroke="black" points="2180.79,-117.5 2190.79,-114 2180.79,-110.5 2180.79,-117.5"/>
<text text-anchor="middle" x="2125.9" y="-117.95" font-family="Times,serif" font-size="14.00">QUIT/221:1.0</text>
</g>
<!-- q14:0.0 -->
<g id="node10" class="node">
<title>q14:0.0</title>
<ellipse fill="none" stroke="black" stroke-width="2" cx="1486.2" cy="-67" rx="49.1" ry="18"/>
<text text-anchor="middle" x="1486.2" y="-62.33" font-family="Times,serif" font-size="14.00">q14:0.0</text>
</g>
<!-- q14:0.0&#45;&gt;q13:0.0 -->
<g id="edge9" class="edge">
<title>q14:0.0&#45;&gt;q13:0.0</title>
<path fill="none" stroke="black" d="M1521.3,-80.41C1567.1,-98.41 1648.4,-130.41 1699.1,-150.35"/>
<polygon fill="black" stroke="black" points="1697.7,-153.56 1708.29,-153.97 1700.27,-147.05 1697.7,-153.56"/>
<text text-anchor="middle" x="1619.7" y="-144.94" font-family="Times,serif" font-size="14.00">DATA/354:0.747</text>
</g>
<!-- q19:1.0 -->
<g id="node11" class="node">
<title>q19:1.0</title>
<ellipse fill="none" stroke="black" stroke-width="2" cx="1745" cy="-18" rx="49.1" ry="18"/>
<text text-anchor="middle" x="1745" y="-13.32" font-family="Times,serif" font-size="14.00">q19:1.0</text>
</g>
<!-- q14:0.0&#45;&gt;q19:1.0 -->
<g id="edge10" class="edge">
<title>q14:0.0&#45;&gt;q19:1.0</title>
<path fill="none" stroke="black" d="M1512.7,-51.04C1526.6,-43.17 1544.5,-34.39 1561.6,-29.75 1601.5,-18.94 1648.1,-16.1 1684.2,-15.9"/>
<polygon fill="black" stroke="black" points="1683.98,-19.4 1693.99,-15.93 1683.99,-12.4 1683.98,-19.4"/>
<text text-anchor="middle" x="1619.7" y="-33.95" font-family="Times,serif" font-size="14.00">DATA/550:0.235</text>
</g>
<!-- q20:0.0 -->
<g id="node12" class="node">
<title>q20:0.0</title>
<ellipse fill="none" stroke="black" stroke-width="2" cx="1745" cy="-100" rx="49.1" ry="18"/>
<text text-anchor="middle" x="1745" y="-95.33" font-family="Times,serif" font-size="14.00">q20:0.0</text>
</g>
<!-- q14:0.0&#45;&gt;q20:0.0 -->
<g id="edge11" class="edge">
<title>q14:0.0&#45;&gt;q20:0.0</title>
<path fill="none" stroke="black" d="M1529.4,-57.63C1568.6,-50.66 1628.3,-44.57 1677.9,-58.75 1690.6,-62.4 1703.3,-69.3 1714.1,-76.43"/>
<polygon fill="black" stroke="black" points="1711.96,-79.2 1722.16,-82.08 1715.98,-73.47 1711.96,-79.2"/>
<text text-anchor="middle" x="1619.7" y="-62.95" font-family="Times,serif" font-size="14.00">RCPT/250:0.019</text>
</g>
<!-- q10:0.0 -->
<g id="node13" class="node">
<title>q10:0.0</title>
<ellipse fill="none" stroke="black" stroke-width="2" cx="1214.9" cy="-130" rx="49.1" ry="18"/>
<text text-anchor="middle" x="1214.9" y="-125.33" font-family="Times,serif" font-size="14.00">q10:0.0</text>
</g>
<!-- q20:0.0&#45;&gt;q10:0.0 -->
<g id="edge12" class="edge">
<title>q20:0.0&#45;&gt;q10:0.0</title>
<path fill="none" stroke="black" d="M1704.4,-110.99C1695.7,-113 1686.5,-114.83 1677.9,-116 1534.8,-135.27 1364.6,-134.37 1276.1,-132.13"/>
<polygon fill="black" stroke="black" points="1276.3,-128.63 1266.21,-131.86 1276.11,-135.63 1276.3,-128.63"/>
<text text-anchor="middle" x="1486.2" y="-136.94" font-family="Times,serif" font-size="14.00">RCPT/250:1.0</text>
</g>
<!-- q10:0.0&#45;&gt;q13:0.0 -->
<g id="edge13" class="edge">
<title>q10:0.0&#45;&gt;q13:0.0</title>
<path fill="none" stroke="black" d="M1256.9,-140.17C1269,-142.8 1282.3,-145.36 1294.6,-147 1433,-165.43 1597.3,-168.36 1683.8,-168.45"/>
<polygon fill="black" stroke="black" points="1683.69,-171.95 1693.69,-168.45 1683.69,-164.95 1683.69,-171.95"/>
<text text-anchor="middle" x="1486.2" y="-168.94" font-family="Times,serif" font-size="14.00">DATA/354:0.302</text>
</g>
<!-- q10:0.0&#45;&gt;q14:0.0 -->
<g id="edge14" class="edge">
<title>q10:0.0&#45;&gt;q14:0.0</title>
<path fill="none" stroke="black" d="M1247.5,-115.65C1261.7,-109.7 1278.7,-103.17 1294.6,-98.75 1338.1,-86.64 1388.6,-78.49 1426.6,-73.48"/>
<polygon fill="black" stroke="black" points="1427.02,-76.96 1436.5,-72.22 1426.14,-70.01 1427.02,-76.96"/>
<text text-anchor="middle" x="1352.7" y="-102.95" font-family="Times,serif" font-size="14.00">RCPT/250:0.698</text>
</g>
<!-- q7:0.0 -->
<g id="node14" class="node">
<title>q7:0.0</title>
<ellipse fill="none" stroke="black" stroke-width="2" cx="961.86" cy="-130" rx="42.79" ry="18"/>
<text text-anchor="middle" x="961.86" y="-125.33" font-family="Times,serif" font-size="14.00">q7:0.0</text>
</g>
<!-- q7:0.0&#45;&gt;q10:0.0 -->
<g id="edge15" class="edge">
<title>q7:0.0&#45;&gt;q10:0.0</title>
<path fill="none" stroke="black" d="M1005.4,-130C1046.2,-130 1108,-130 1153.8,-130"/>
<polygon fill="black" stroke="black" points="1153.59,-133.5 1163.59,-130 1153.59,-126.5 1153.59,-133.5"/>
<text text-anchor="middle" x="1078.9" y="-133.94" font-family="Times,serif" font-size="14.00">RCPT/250:1.0</text>
</g>
<!-- q3:0.0 -->
<g id="node15" class="node">
<title>q3:0.0</title>
<ellipse fill="none" stroke="black" stroke-width="2" cx="484.7" cy="-190" rx="42.79" ry="18"/>
<text text-anchor="middle" x="484.7" y="-185.32" font-family="Times,serif" font-size="14.00">q3:0.0</text>
</g>
<!-- q6:0.0 -->
<g id="node16" class="node">
<title>q6:0.0</title>
<ellipse fill="none" stroke="black" stroke-width="2" cx="725.53" cy="-251" rx="42.79" ry="18"/>
<text text-anchor="middle" x="725.53" y="-246.32" font-family="Times,serif" font-size="14.00">q6:0.0</text>
</g>
<!-- q3:0.0&#45;&gt;q6:0.0 -->
<g id="edge16" class="edge">
<title>q3:0.0&#45;&gt;q6:0.0</title>
<path fill="none" stroke="black" d="M514.11,-203.86C523.88,-208.22 535.01,-212.74 545.49,-216 587.38,-229.03 636.35,-238.21 672.48,-243.89"/>
<polygon fill="black" stroke="black" points="671.82,-247.33 682.23,-245.38 672.88,-240.41 671.82,-247.33"/>
<text text-anchor="middle" x="605.12" y="-245.94" font-family="Times,serif" font-size="14.00">AUTH/535:0.05</text>
</g>
<!-- q4:0.0 -->
<g id="node17" class="node">
<title>q4:0.0</title>
<ellipse fill="none" stroke="black" stroke-width="2" cx="725.53" cy="-117" rx="42.79" ry="18"/>
<text text-anchor="middle" x="725.53" y="-112.33" font-family="Times,serif" font-size="14.00">q4:0.0</text>
</g>
<!-- q3:0.0&#45;&gt;q4:0.0 -->
<g id="edge17" class="edge">
<title>q3:0.0&#45;&gt;q4:0.0</title>
<path fill="none" stroke="black" d="M519.14,-178.39C527.7,-175.5 536.92,-172.45 545.49,-169.75 598.15,-153.17 611.81,-150.68 664.74,-135 669.24,-133.67 673.93,-132.27 678.62,-130.87"/>
<polygon fill="black" stroke="black" points="679.43,-134.28 688,-128.06 677.42,-127.58 679.43,-134.28"/>
<text text-anchor="middle" x="605.12" y="-172.94" font-family="Times,serif" font-size="14.00">AUTH/λ:0.004</text>
</g>
<!-- q5:0.0 -->
<g id="node18" class="node">
<title>q5:0.0</title>
<ellipse fill="none" stroke="black" stroke-width="2" cx="725.53" cy="-197" rx="42.79" ry="18"/>
<text text-anchor="middle" x="725.53" y="-192.32" font-family="Times,serif" font-size="14.00">q5:0.0</text>
</g>
<!-- q3:0.0&#45;&gt;q5:0.0 -->
<g id="edge18" class="edge">
<title>q3:0.0&#45;&gt;q5:0.0</title>
<path fill="none" stroke="black" d="M528.12,-191.24C567.91,-192.41 627.56,-194.16 670.69,-195.42"/>
<polygon fill="black" stroke="black" points="670.49,-198.92 680.59,-195.71 670.7,-191.92 670.49,-198.92"/>
<text text-anchor="middle" x="605.12" y="-198.94" font-family="Times,serif" font-size="14.00">AUTH/235:0.946</text>
</g>
<!-- q9:0.0 -->
<g id="node19" class="node">
<title>q9:0.0</title>
<ellipse fill="none" stroke="black" stroke-width="2" cx="961.86" cy="-251" rx="42.79" ry="18"/>
<text text-anchor="middle" x="961.86" y="-246.32" font-family="Times,serif" font-size="14.00">q9:0.0</text>
</g>
<!-- q6:0.0&#45;&gt;q9:0.0 -->
<g id="edge19" class="edge">
<title>q6:0.0&#45;&gt;q9:0.0</title>
<path fill="none" stroke="black" d="M769.24,-251C807.97,-251 865.24,-251 907.08,-251"/>
<polygon fill="black" stroke="black" points="906.94,-254.5 916.94,-251 906.94,-247.5 906.94,-254.5"/>
<text text-anchor="middle" x="843.7" y="-254.94" font-family="Times,serif" font-size="14.00">AUTH/334:1.0</text>
</g>
<!-- q4:0.0&#45;&gt;q7:0.0 -->
<g id="edge20" class="edge">
<title>q4:0.0&#45;&gt;q7:0.0</title>
<path fill="none" stroke="black" d="M768.98,-114.85C804.4,-113.61 856.16,-113.1 901.07,-117.75 904.71,-118.13 908.45,-118.62 912.2,-119.2"/>
<polygon fill="black" stroke="black" points="911.46,-122.62 921.91,-120.89 912.66,-115.73 911.46,-122.62"/>
<text text-anchor="middle" x="843.7" y="-121.95" font-family="Times,serif" font-size="14.00">MAIL/250:1.0</text>
</g>
<!-- q5:0.0&#45;&gt;q7:0.0 -->
<g id="edge21" class="edge">
<title>q5:0.0&#45;&gt;q7:0.0</title>
<path fill="none" stroke="black" d="M758.95,-184.91C767.78,-181.78 777.37,-178.51 786.32,-175.75 828.6,-162.72 877.34,-150.15 912.56,-141.49"/>
<polygon fill="black" stroke="black" points="913.14,-144.95 922.02,-139.18 911.47,-138.15 913.14,-144.95"/>
<text text-anchor="middle" x="843.7" y="-178.94" font-family="Times,serif" font-size="14.00">MAIL/250:0.987</text>
</g>
<!-- q8:0.0 -->
<g id="node20" class="node">
<title>q8:0.0</title>
<ellipse fill="none" stroke="black" stroke-width="2" cx="961.86" cy="-197" rx="42.79" ry="18"/>
<text text-anchor="middle" x="961.86" y="-192.32" font-family="Times,serif" font-size="14.00">q8:0.0</text>
</g>
<!-- q5:0.0&#45;&gt;q8:0.0 -->
<g id="edge22" class="edge">
<title>q5:0.0&#45;&gt;q8:0.0</title>
<path fill="none" stroke="black" d="M769.24,-197C807.97,-197 865.24,-197 907.08,-197"/>
<polygon fill="black" stroke="black" points="906.94,-200.5 916.94,-197 906.94,-193.5 906.94,-200.5"/>
<text text-anchor="middle" x="843.7" y="-200.94" font-family="Times,serif" font-size="14.00">MAIL/553:0.013</text>
</g>
<!-- q9:0.0&#45;&gt;q12:0.667 -->
<g id="edge23" class="edge">
<title>q9:0.0&#45;&gt;q12:0.667</title>
<path fill="none" stroke="black" d="M1005.4,-251C1042.4,-251 1096.8,-251 1140.7,-251"/>
<polygon fill="black" stroke="black" points="1140.69,-254.5 1150.69,-251 1140.69,-247.5 1140.69,-254.5"/>
<text text-anchor="middle" x="1078.9" y="-254.94" font-family="Times,serif" font-size="14.00">content/535:1.0</text>
</g>
<!-- q11:1.0 -->
<g id="node21" class="node">
<title>q11:1.0</title>
<ellipse fill="none" stroke="black" stroke-width="2" cx="1214.9" cy="-197" rx="49.1" ry="18"/>
<text text-anchor="middle" x="1214.9" y="-192.32" font-family="Times,serif" font-size="14.00">q11:1.0</text>
</g>
<!-- q8:0.0&#45;&gt;q11:1.0 -->
<g id="edge24" class="edge">
<title>q8:0.0&#45;&gt;q11:1.0</title>
<path fill="none" stroke="black" d="M1005.4,-197C1046.2,-197 1108,-197 1153.8,-197"/>
<polygon fill="black" stroke="black" points="1153.59,-200.5 1163.59,-197 1153.59,-193.5 1153.59,-200.5"/>
<text text-anchor="middle" x="1078.9" y="-200.94" font-family="Times,serif" font-size="14.00">RSET/250:1.0</text>
</g>
<!-- q1:0.0 -->
<g id="node22" class="node">
<title>q1:0.0</title>
<ellipse fill="none" stroke="black" stroke-width="2" cx="243.87" cy="-157" rx="42.79" ry="18"/>
<text text-anchor="middle" x="243.87" y="-152.32" font-family="Times,serif" font-size="14.00">q1:0.0</text>
</g>
<!-- q1:0.0&#45;&gt;q3:0.0 -->
<g id="edge25" class="edge">
<title>q1:0.0&#45;&gt;q3:0.0</title>
<path fill="none" stroke="black" d="M285.66,-162.64C326.01,-168.21 387.94,-176.77 431.79,-182.83"/>
<polygon fill="black" stroke="black" points="431.19,-186.28 441.58,-184.18 432.15,-179.35 431.19,-186.28"/>
<text text-anchor="middle" x="364.29" y="-184.94" font-family="Times,serif" font-size="14.00">EHLO/250:0.992</text>
</g>
<!-- q2:0.0 -->
<g id="node23" class="node">
<title>q2:0.0</title>
<ellipse fill="none" stroke="black" stroke-width="2" cx="484.7" cy="-130" rx="42.79" ry="18"/>
<text text-anchor="middle" x="484.7" y="-125.33" font-family="Times,serif" font-size="14.00">q2:0.0</text>
</g>
<!-- q1:0.0&#45;&gt;q2:0.0 -->
<g id="edge26" class="edge">
<title>q1:0.0&#45;&gt;q2:0.0</title>
<path fill="none" stroke="black" d="M282.04,-147.91C289.49,-146.33 297.3,-144.84 304.66,-143.75 346.54,-137.53 394.37,-134.04 430.05,-132.14"/>
<polygon fill="black" stroke="black" points="429.87,-135.65 439.68,-131.65 429.51,-128.66 429.87,-135.65"/>
<text text-anchor="middle" x="364.29" y="-147.94" font-family="Times,serif" font-size="14.00">EHLO/λ:0.008</text>
</g>
<!-- q2:0.0&#45;&gt;q4:0.0 -->
<g id="edge27" class="edge">
<title>q2:0.0&#45;&gt;q4:0.0</title>
<path fill="none" stroke="black" d="M523.16,-121.14C530.52,-119.74 538.22,-118.5 545.49,-117.75 587.48,-113.4 635.3,-113.46 670.96,-114.47"/>
<polygon fill="black" stroke="black" points="670.46,-117.96 680.57,-114.77 670.68,-110.96 670.46,-117.96"/>
<text text-anchor="middle" x="605.12" y="-121.95" font-family="Times,serif" font-size="14.00">AUTH/235:1.0</text>
</g>
<!-- q0:0.0 -->
<g id="node24" class="node">
<title>q0:0.0</title>
<ellipse fill="none" stroke="black" stroke-width="2" cx="50.79" cy="-157" rx="46.79" ry="46.79"/>
<ellipse fill="none" stroke="black" stroke-width="2" cx="50.79" cy="-157" rx="50.79" ry="50.79"/>
<text text-anchor="middle" x="50.79" y="-152.32" font-family="Times,serif" font-size="14.00">q0:0.0</text>
</g>
<!-- q0:0.0&#45;&gt;q1:0.0 -->
<g id="edge28" class="edge">
<title>q0:0.0&#45;&gt;q1:0.0</title>
<path fill="none" stroke="black" d="M98.53,-157C125.82,-157 160.37,-157 188.82,-157"/>
<polygon fill="black" stroke="black" points="188.69,-160.5 198.69,-157 188.69,-153.5 188.69,-160.5"/>
<text text-anchor="middle" x="149.33" y="-160.94" font-family="Times,serif" font-size="14.00">λ/220:1.0</text>
</g>
</g>
</svg>
