<?xml version="1.0" encoding="UTF-8" standalone="no"?>
<!DOCTYPE svg PUBLIC "-//W3C//DTD SVG 1.1//EN"
 "http://www.w3.org/Graphics/SVG/1.1/DTD/svg11.dtd">
<!-- Generated by graphviz version 12.0.0 (20240803.0821)
 -->
<!-- Pages: 1 -->
<svg width="2188pt" height="308pt"
 viewBox="0.00 0.00 2187.99 308.00" xmlns="http://www.w3.org/2000/svg" xmlns:xlink="http://www.w3.org/1999/xlink">
<g id="graph0" class="graph" transform="scale(1 1) rotate(0) translate(4 304)">
<polygon fill="white" stroke="none" points="-4,4 -4,-304 2183.99,-304 2183.99,4 -4,4"/>
<!-- q4:&#45;1 -->
<g id="node1" class="node">
<title>q4:&#45;1</title>
<ellipse fill="none" stroke="black" stroke-width="2" cx="618.34" cy="-220" rx="36.48" ry="18"/>
<text text-anchor="middle" x="618.34" y="-215.32" font-family="Times,serif" font-size="14.00">q4:&#45;1</text>
</g>
<!-- q7:&#45;1 -->
<g id="node2" class="node">
<title>q7:&#45;1</title>
<ellipse fill="none" stroke="black" stroke-width="2" cx="1053.1" cy="-166" rx="36.48" ry="18"/>
<text text-anchor="middle" x="1053.1" y="-161.32" font-family="Times,serif" font-size="14.00">q7:&#45;1</text>
</g>
<!-- q4:&#45;1&#45;&gt;q7:&#45;1 -->
<g id="edge1" class="edge">
<title>q4:&#45;1&#45;&gt;q7:&#45;1</title>
<path fill="none" stroke="black" d="M655.79,-219.77C723.07,-218.7 870.96,-213.25 992.32,-187 999.16,-185.52 1006.3,-183.48 1013.2,-181.24"/>
<polygon fill="black" stroke="black" points="1013.87,-184.71 1022.17,-178.13 1011.58,-178.1 1013.87,-184.71"/>
<text text-anchor="middle" x="826.94" y="-217.94" font-family="Times,serif" font-size="14.00">MAIL/250:&#45;1</text>
</g>
<!-- q12:&#45;1 -->
<g id="node3" class="node">
<title>q12:&#45;1</title>
<ellipse fill="none" stroke="black" stroke-width="2" cx="1265.8" cy="-158" rx="42.79" ry="18"/>
<text text-anchor="middle" x="1265.8" y="-153.32" font-family="Times,serif" font-size="14.00">q12:&#45;1</text>
</g>
<!-- q7:&#45;1&#45;&gt;q12:&#45;1 -->
<g id="edge2" class="edge">
<title>q7:&#45;1&#45;&gt;q12:&#45;1</title>
<path fill="none" stroke="black" d="M1090.3,-164.62C1123.6,-163.36 1173.3,-161.47 1211.2,-160.04"/>
<polygon fill="black" stroke="black" points="1211.13,-163.55 1220.99,-159.66 1210.86,-156.55 1211.13,-163.55"/>
<text text-anchor="middle" x="1158.5" y="-167.94" font-family="Times,serif" font-size="14.00">RCPT/250:&#45;1</text>
</g>
<!-- q11:&#45;1 -->
<g id="node4" class="node">
<title>q11:&#45;1</title>
<ellipse fill="none" stroke="black" stroke-width="2" cx="1478.4" cy="-220" rx="42.79" ry="18"/>
<text text-anchor="middle" x="1478.4" y="-215.32" font-family="Times,serif" font-size="14.00">q11:&#45;1</text>
</g>
<!-- q7:&#45;1&#45;&gt;q11:&#45;1 -->
<g id="edge3" class="edge">
<title>q7:&#45;1&#45;&gt;q11:&#45;1</title>
<path fill="none" stroke="black" d="M1083.9,-176.57C1093.4,-179.64 1104,-182.76 1113.9,-185 1207.8,-206.32 1232.5,-206.71 1328.4,-215 1359.9,-217.72 1395.3,-218.99 1423.7,-219.56"/>
<polygon fill="black" stroke="black" points="1423.43,-223.06 1433.49,-219.73 1423.55,-216.06 1423.43,-223.06"/>
<text text-anchor="middle" x="1265.8" y="-216.94" font-family="Times,serif" font-size="14.00">DATA/354:&#45;1</text>
</g>
<!-- q12:&#45;1&#45;&gt;q11:&#45;1 -->
<g id="edge4" class="edge">
<title>q12:&#45;1&#45;&gt;q11:&#45;1</title>
<path fill="none" stroke="black" d="M1302.6,-168.01C1311,-170.33 1320,-172.78 1328.4,-175 1368,-185.5 1378.6,-185.54 1417.6,-197.75 1423.4,-199.55 1429.4,-201.58 1435.3,-203.68"/>
<polygon fill="black" stroke="black" points="1433.69,-206.82 1444.28,-206.95 1436.08,-200.24 1433.69,-206.82"/>
<text text-anchor="middle" x="1373" y="-201.94" font-family="Times,serif" font-size="14.00">DATA/354:&#45;1</text>
</g>
<!-- q18:&#45;1 -->
<g id="node5" class="node">
<title>q18:&#45;1</title>
<ellipse fill="none" stroke="black" stroke-width="2" cx="1478.4" cy="-93" rx="42.79" ry="18"/>
<text text-anchor="middle" x="1478.4" y="-88.33" font-family="Times,serif" font-size="14.00">q18:&#45;1</text>
</g>
<!-- q12:&#45;1&#45;&gt;q18:&#45;1 -->
<g id="edge5" class="edge">
<title>q12:&#45;1&#45;&gt;q18:&#45;1</title>
<path fill="none" stroke="black" d="M1299.9,-146.25C1309.1,-143.08 1319.1,-139.71 1328.4,-136.75 1362.5,-125.89 1401.2,-114.54 1430.7,-106.13"/>
<polygon fill="black" stroke="black" points="1431.39,-109.57 1440.05,-103.47 1429.47,-102.84 1431.39,-109.57"/>
<text text-anchor="middle" x="1373" y="-140.94" font-family="Times,serif" font-size="14.00">RCPT/250:&#45;1</text>
</g>
<!-- q19:&#45;1 -->
<g id="node6" class="node">
<title>q19:&#45;1</title>
<ellipse fill="none" stroke="black" stroke-width="2" cx="1478.4" cy="-157" rx="42.79" ry="18"/>
<text text-anchor="middle" x="1478.4" y="-152.32" font-family="Times,serif" font-size="14.00">q19:&#45;1</text>
</g>
<!-- q12:&#45;1&#45;&gt;q19:&#45;1 -->
<g id="edge6" class="edge">
<title>q12:&#45;1&#45;&gt;q19:&#45;1</title>
<path fill="none" stroke="black" d="M1309.4,-157.8C1342.4,-157.64 1388.3,-157.42 1423.7,-157.25"/>
<polygon fill="black" stroke="black" points="1423.4,-160.75 1433.39,-157.21 1423.37,-153.75 1423.4,-160.75"/>
<text text-anchor="middle" x="1373" y="-161.94" font-family="Times,serif" font-size="14.00">DATA/550:&#45;1</text>
</g>
<!-- q11:&#45;1&#45;&gt;q11:&#45;1 -->
<g id="edge7" class="edge">
<title>q11:&#45;1&#45;&gt;q11:&#45;1</title>
<path fill="none" stroke="black" d="M1459.8,-237.04C1455.9,-246.86 1462.2,-256 1478.4,-256 1487.8,-256 1493.9,-252.94 1496.6,-248.47"/>
<polygon fill="black" stroke="black" points="1500.09,-248.7 1497.04,-238.55 1493.1,-248.39 1500.09,-248.7"/>
<text text-anchor="middle" x="1478.4" y="-259.94" font-family="Times,serif" font-size="14.00">content/λ:&#45;1</text>
</g>
<!-- q16:&#45;1 -->
<g id="node7" class="node">
<title>q16:&#45;1</title>
<ellipse fill="none" stroke="black" stroke-width="2" cx="1703.5" cy="-166" rx="42.79" ry="18"/>
<text text-anchor="middle" x="1703.5" y="-161.32" font-family="Times,serif" font-size="14.00">q16:&#45;1</text>
</g>
<!-- q11:&#45;1&#45;&gt;q16:&#45;1 -->
<g id="edge8" class="edge">
<title>q11:&#45;1&#45;&gt;q16:&#45;1</title>
<path fill="none" stroke="black" d="M1511.4,-207.67C1520.4,-204.5 1530.1,-201.27 1539.2,-198.75 1576.4,-188.48 1619.1,-180.03 1651.5,-174.28"/>
<polygon fill="black" stroke="black" points="1651.76,-177.79 1661.01,-172.63 1650.56,-170.89 1651.76,-177.79"/>
<text text-anchor="middle" x="1591" y="-202.94" font-family="Times,serif" font-size="14.00">content/550:&#45;1</text>
</g>
<!-- q17:&#45;1 -->
<g id="node8" class="node">
<title>q17:&#45;1</title>
<ellipse fill="none" stroke="black" stroke-width="2" cx="1703.5" cy="-274" rx="42.79" ry="18"/>
<text text-anchor="middle" x="1703.5" y="-269.32" font-family="Times,serif" font-size="14.00">q17:&#45;1</text>
</g>
<!-- q11:&#45;1&#45;&gt;q17:&#45;1 -->
<g id="edge9" class="edge">
<title>q11:&#45;1&#45;&gt;q17:&#45;1</title>
<path fill="none" stroke="black" d="M1511.8,-232.27C1520.6,-235.37 1530.2,-238.52 1539.2,-241 1576.4,-251.23 1619.1,-259.75 1651.5,-265.57"/>
<polygon fill="black" stroke="black" points="1650.66,-268.97 1661.11,-267.26 1651.87,-262.08 1650.66,-268.97"/>
<text text-anchor="middle" x="1591" y="-266.94" font-family="Times,serif" font-size="14.00">content/250:&#45;1</text>
</g>
<!-- q15:&#45;1 -->
<g id="node9" class="node">
<title>q15:&#45;1</title>
<ellipse fill="none" stroke="black" stroke-width="2" cx="1703.5" cy="-220" rx="42.79" ry="18"/>
<text text-anchor="middle" x="1703.5" y="-215.32" font-family="Times,serif" font-size="14.00">q15:&#45;1</text>
</g>
<!-- q11:&#45;1&#45;&gt;q15:&#45;1 -->
<g id="edge10" class="edge">
<title>q11:&#45;1&#45;&gt;q15:&#45;1</title>
<path fill="none" stroke="black" d="M1522.2,-220C1558.2,-220 1610,-220 1648.8,-220"/>
<polygon fill="black" stroke="black" points="1648.39,-223.5 1658.39,-220 1648.39,-216.5 1648.39,-223.5"/>
<text text-anchor="middle" x="1591" y="-223.94" font-family="Times,serif" font-size="14.00">content/554:&#45;1</text>
</g>
<!-- q18:&#45;1&#45;&gt;q7:&#45;1 -->
<g id="edge11" class="edge">
<title>q18:&#45;1&#45;&gt;q7:&#45;1</title>
<path fill="none" stroke="black" d="M1434.9,-93.56C1383.7,-94.9 1295.4,-99.31 1221.1,-113.75 1176.7,-122.4 1127.3,-138.7 1093.9,-150.81"/>
<polygon fill="black" stroke="black" points="1092.8,-147.49 1084.62,-154.22 1095.22,-154.06 1092.8,-147.49"/>
<text text-anchor="middle" x="1265.8" y="-117.95" font-family="Times,serif" font-size="14.00">RCPT/250:&#45;1</text>
</g>
<!-- q24:&#45;1 -->
<g id="node10" class="node">
<title>q24:&#45;1</title>
<ellipse fill="none" stroke="black" stroke-width="2" cx="1703.5" cy="-18" rx="42.79" ry="18"/>
<text text-anchor="middle" x="1703.5" y="-13.32" font-family="Times,serif" font-size="14.00">q24:&#45;1</text>
</g>
<!-- q18:&#45;1&#45;&gt;q24:&#45;1 -->
<g id="edge12" class="edge">
<title>q18:&#45;1&#45;&gt;q24:&#45;1</title>
<path fill="none" stroke="black" d="M1513.3,-81.61C1551.9,-68.63 1615.2,-47.37 1657.8,-33.04"/>
<polygon fill="black" stroke="black" points="1658.9,-36.36 1667.27,-29.86 1656.67,-29.73 1658.9,-36.36"/>
<text text-anchor="middle" x="1591" y="-76.95" font-family="Times,serif" font-size="14.00">DATA/354:&#45;1</text>
</g>
<!-- q25:&#45;1 -->
<g id="node11" class="node">
<title>q25:&#45;1</title>
<ellipse fill="none" stroke="black" stroke-width="2" cx="1703.5" cy="-107" rx="42.79" ry="18"/>
<text text-anchor="middle" x="1703.5" y="-102.33" font-family="Times,serif" font-size="14.00">q25:&#45;1</text>
</g>
<!-- q18:&#45;1&#45;&gt;q25:&#45;1 -->
<g id="edge13" class="edge">
<title>q18:&#45;1&#45;&gt;q25:&#45;1</title>
<path fill="none" stroke="black" d="M1521.7,-95.65C1557.8,-97.92 1610,-101.19 1649.1,-103.65"/>
<polygon fill="black" stroke="black" points="1648.79,-107.14 1658.99,-104.27 1649.23,-100.15 1648.79,-107.14"/>
<text text-anchor="middle" x="1591" y="-107.95" font-family="Times,serif" font-size="14.00">DATA/550:&#45;1</text>
</g>
<!-- q22:&#45;1 -->
<g id="node12" class="node">
<title>q22:&#45;1</title>
<ellipse fill="none" stroke="black" stroke-width="2" cx="1928.6" cy="-166" rx="42.79" ry="18"/>
<text text-anchor="middle" x="1928.6" y="-161.32" font-family="Times,serif" font-size="14.00">q22:&#45;1</text>
</g>
<!-- q16:&#45;1&#45;&gt;q22:&#45;1 -->
<g id="edge14" class="edge">
<title>q16:&#45;1&#45;&gt;q22:&#45;1</title>
<path fill="none" stroke="black" d="M1747.3,-166C1783.3,-166 1835.1,-166 1873.9,-166"/>
<polygon fill="black" stroke="black" points="1873.49,-169.5 1883.49,-166 1873.49,-162.5 1873.49,-169.5"/>
<text text-anchor="middle" x="1816.1" y="-169.94" font-family="Times,serif" font-size="14.00">RSET/250:&#45;1</text>
</g>
<!-- q23:&#45;1 -->
<g id="node13" class="node">
<title>q23:&#45;1</title>
<ellipse fill="none" stroke="black" stroke-width="2" cx="1928.6" cy="-274" rx="42.79" ry="18"/>
<text text-anchor="middle" x="1928.6" y="-269.32" font-family="Times,serif" font-size="14.00">q23:&#45;1</text>
</g>
<!-- q17:&#45;1&#45;&gt;q23:&#45;1 -->
<g id="edge15" class="edge">
<title>q17:&#45;1&#45;&gt;q23:&#45;1</title>
<path fill="none" stroke="black" d="M1747.3,-274C1783.3,-274 1835.1,-274 1873.9,-274"/>
<polygon fill="black" stroke="black" points="1873.49,-277.5 1883.49,-274 1873.49,-270.5 1873.49,-277.5"/>
<text text-anchor="middle" x="1816.1" y="-277.94" font-family="Times,serif" font-size="14.00">QUIT/221:&#45;1</text>
</g>
<!-- q21:&#45;1 -->
<g id="node14" class="node">
<title>q21:&#45;1</title>
<ellipse fill="none" stroke="black" stroke-width="2" cx="1928.6" cy="-220" rx="42.79" ry="18"/>
<text text-anchor="middle" x="1928.6" y="-215.32" font-family="Times,serif" font-size="14.00">q21:&#45;1</text>
</g>
<!-- q15:&#45;1&#45;&gt;q21:&#45;1 -->
<g id="edge16" class="edge">
<title>q15:&#45;1&#45;&gt;q21:&#45;1</title>
<path fill="none" stroke="black" d="M1747.3,-220C1783.3,-220 1835.1,-220 1873.9,-220"/>
<polygon fill="black" stroke="black" points="1873.49,-223.5 1883.49,-220 1873.49,-216.5 1873.49,-223.5"/>
<text text-anchor="middle" x="1816.1" y="-223.94" font-family="Times,serif" font-size="14.00">RSET/250:&#45;1</text>
</g>
<!-- q24:&#45;1&#45;&gt;q24:&#45;1 -->
<g id="edge17" class="edge">
<title>q24:&#45;1&#45;&gt;q24:&#45;1</title>
<path fill="none" stroke="black" d="M1683.7,-34.66C1679.3,-44.62 1685.9,-54 1703.5,-54 1714,-54 1720.5,-50.7 1723.2,-45.92"/>
<polygon fill="black" stroke="black" points="1726.7,-46.21 1723.29,-36.18 1719.7,-46.15 1726.7,-46.21"/>
<text text-anchor="middle" x="1703.5" y="-57.95" font-family="Times,serif" font-size="14.00">content/λ:&#45;1</text>
</g>
<!-- q26:&#45;1 -->
<g id="node15" class="node">
<title>q26:&#45;1</title>
<ellipse fill="none" stroke="black" stroke-width="2" cx="1928.6" cy="-18" rx="42.79" ry="18"/>
<text text-anchor="middle" x="1928.6" y="-13.32" font-family="Times,serif" font-size="14.00">q26:&#45;1</text>
</g>
<!-- q24:&#45;1&#45;&gt;q26:&#45;1 -->
<g id="edge18" class="edge">
<title>q24:&#45;1&#45;&gt;q26:&#45;1</title>
<path fill="none" stroke="black" d="M1747.3,-18C1783.3,-18 1835.1,-18 1873.9,-18"/>
<polygon fill="black" stroke="black" points="1873.49,-21.5 1883.49,-18 1873.49,-14.5 1873.49,-21.5"/>
<text text-anchor="middle" x="1816.1" y="-21.95" font-family="Times,serif" font-size="14.00">content/250:&#45;1</text>
</g>
<!-- q27:&#45;1 -->
<g id="node16" class="node">
<title>q27:&#45;1</title>
<ellipse fill="none" stroke="black" stroke-width="2" cx="2137.2" cy="-18" rx="42.79" ry="18"/>
<text text-anchor="middle" x="2137.2" y="-13.32" font-family="Times,serif" font-size="14.00">q27:&#45;1</text>
</g>
<!-- q26:&#45;1&#45;&gt;q27:&#45;1 -->
<g id="edge19" class="edge">
<title>q26:&#45;1&#45;&gt;q27:&#45;1</title>
<path fill="none" stroke="black" d="M1972.2,-18C2004.1,-18 2048.1,-18 2082.4,-18"/>
<polygon fill="black" stroke="black" points="2082.19,-21.5 2092.19,-18 2082.19,-14.5 2082.19,-21.5"/>
<text text-anchor="middle" x="2032.9" y="-21.95" font-family="Times,serif" font-size="14.00">QUIT/221:&#45;1</text>
</g>
<!-- q3:&#45;1 -->
<g id="node17" class="node">
<title>q3:&#45;1</title>
<ellipse fill="none" stroke="black" stroke-width="2" cx="417.13" cy="-217" rx="36.48" ry="18"/>
<text text-anchor="middle" x="417.13" y="-212.32" font-family="Times,serif" font-size="14.00">q3:&#45;1</text>
</g>
<!-- q3:&#45;1&#45;&gt;q4:&#45;1 -->
<g id="edge20" class="edge">
<title>q3:&#45;1&#45;&gt;q4:&#45;1</title>
<path fill="none" stroke="black" d="M454.21,-217.54C486.68,-218.03 534.62,-218.75 570.14,-219.29"/>
<polygon fill="black" stroke="black" points="569.64,-222.78 579.69,-219.44 569.74,-215.78 569.64,-222.78"/>
<text text-anchor="middle" x="517.74" y="-222.94" font-family="Times,serif" font-size="14.00">AUTH/λ:&#45;1</text>
</g>
<!-- q5:&#45;1 -->
<g id="node18" class="node">
<title>q5:&#45;1</title>
<ellipse fill="none" stroke="black" stroke-width="2" cx="618.34" cy="-166" rx="36.48" ry="18"/>
<text text-anchor="middle" x="618.34" y="-161.32" font-family="Times,serif" font-size="14.00">q5:&#45;1</text>
</g>
<!-- q3:&#45;1&#45;&gt;q5:&#45;1 -->
<g id="edge21" class="edge">
<title>q3:&#45;1&#45;&gt;q5:&#45;1</title>
<path fill="none" stroke="black" d="M445.84,-204.91C454.03,-201.63 463.09,-198.29 471.61,-195.75 504.49,-185.95 542.49,-178.31 571.45,-173.22"/>
<polygon fill="black" stroke="black" points="571.7,-176.73 580.97,-171.59 570.52,-169.83 571.7,-176.73"/>
<text text-anchor="middle" x="517.74" y="-199.94" font-family="Times,serif" font-size="14.00">AUTH/235:&#45;1</text>
</g>
<!-- q6:&#45;1 -->
<g id="node19" class="node">
<title>q6:&#45;1</title>
<ellipse fill="none" stroke="black" stroke-width="2" cx="618.34" cy="-275" rx="36.48" ry="18"/>
<text text-anchor="middle" x="618.34" y="-270.32" font-family="Times,serif" font-size="14.00">q6:&#45;1</text>
</g>
<!-- q3:&#45;1&#45;&gt;q6:&#45;1 -->
<g id="edge22" class="edge">
<title>q3:&#45;1&#45;&gt;q6:&#45;1</title>
<path fill="none" stroke="black" d="M444.99,-229.61C453.4,-233.27 462.79,-237.07 471.61,-240 504.74,-251.01 543.18,-260.1 572.26,-266.25"/>
<polygon fill="black" stroke="black" points="571.33,-269.63 581.83,-268.23 572.75,-262.78 571.33,-269.63"/>
<text text-anchor="middle" x="517.74" y="-266.94" font-family="Times,serif" font-size="14.00">AUTH/535:&#45;1</text>
</g>
<!-- q9:&#45;1 -->
<g id="node20" class="node">
<title>q9:&#45;1</title>
<ellipse fill="none" stroke="black" stroke-width="2" cx="826.94" cy="-166" rx="36.48" ry="18"/>
<text text-anchor="middle" x="826.94" y="-161.32" font-family="Times,serif" font-size="14.00">q9:&#45;1</text>
</g>
<!-- q5:&#45;1&#45;&gt;q9:&#45;1 -->
<g id="edge23" class="edge">
<title>q5:&#45;1&#45;&gt;q9:&#45;1</title>
<path fill="none" stroke="black" d="M655.8,-166C689.92,-166 741.09,-166 778.4,-166"/>
<polygon fill="black" stroke="black" points="777.99,-169.5 787.99,-166 777.99,-162.5 777.99,-169.5"/>
<text text-anchor="middle" x="718.94" y="-169.94" font-family="Times,serif" font-size="14.00">MAIL/250:&#45;1</text>
</g>
<!-- q8:&#45;1 -->
<g id="node21" class="node">
<title>q8:&#45;1</title>
<ellipse fill="none" stroke="black" stroke-width="2" cx="826.94" cy="-112" rx="36.48" ry="18"/>
<text text-anchor="middle" x="826.94" y="-107.33" font-family="Times,serif" font-size="14.00">q8:&#45;1</text>
</g>
<!-- q5:&#45;1&#45;&gt;q8:&#45;1 -->
<g id="edge24" class="edge">
<title>q5:&#45;1&#45;&gt;q8:&#45;1</title>
<path fill="none" stroke="black" d="M647.06,-153.96C655.25,-150.69 664.31,-147.33 672.82,-144.75 708.34,-133.98 749.54,-125.38 780.24,-119.7"/>
<polygon fill="black" stroke="black" points="780.76,-123.16 789.98,-117.94 779.52,-116.27 780.76,-123.16"/>
<text text-anchor="middle" x="718.94" y="-148.94" font-family="Times,serif" font-size="14.00">MAIL/553:&#45;1</text>
</g>
<!-- q10:&#45;1 -->
<g id="node22" class="node">
<title>q10:&#45;1</title>
<ellipse fill="none" stroke="black" stroke-width="2" cx="826.94" cy="-276" rx="42.79" ry="18"/>
<text text-anchor="middle" x="826.94" y="-271.32" font-family="Times,serif" font-size="14.00">q10:&#45;1</text>
</g>
<!-- q6:&#45;1&#45;&gt;q10:&#45;1 -->
<g id="edge25" class="edge">
<title>q6:&#45;1&#45;&gt;q10:&#45;1</title>
<path fill="none" stroke="black" d="M655.8,-275.18C687.99,-275.33 735.37,-275.56 771.96,-275.74"/>
<polygon fill="black" stroke="black" points="771.9,-279.24 781.92,-275.78 771.93,-272.24 771.9,-279.24"/>
<text text-anchor="middle" x="718.94" y="-278.94" font-family="Times,serif" font-size="14.00">AUTH/334:&#45;1</text>
</g>
<!-- q9:&#45;1&#45;&gt;q7:&#45;1 -->
<g id="edge26" class="edge">
<title>q9:&#45;1&#45;&gt;q7:&#45;1</title>
<path fill="none" stroke="black" d="M863.96,-166C902.08,-166 962.43,-166 1004.5,-166"/>
<polygon fill="black" stroke="black" points="1004.29,-169.5 1014.29,-166 1004.29,-162.5 1004.29,-169.5"/>
<text text-anchor="middle" x="940.57" y="-169.94" font-family="Times,serif" font-size="14.00">RCPT/250:&#45;1</text>
</g>
<!-- q13:&#45;1 -->
<g id="node23" class="node">
<title>q13:&#45;1</title>
<ellipse fill="none" stroke="black" stroke-width="2" cx="1053.1" cy="-112" rx="42.79" ry="18"/>
<text text-anchor="middle" x="1053.1" y="-107.33" font-family="Times,serif" font-size="14.00">q13:&#45;1</text>
</g>
<!-- q8:&#45;1&#45;&gt;q13:&#45;1 -->
<g id="edge27" class="edge">
<title>q8:&#45;1&#45;&gt;q13:&#45;1</title>
<path fill="none" stroke="black" d="M863.96,-112C900.27,-112 956.75,-112 998.36,-112"/>
<polygon fill="black" stroke="black" points="998.19,-115.5 1008.19,-112 998.19,-108.5 998.19,-115.5"/>
<text text-anchor="middle" x="940.57" y="-115.95" font-family="Times,serif" font-size="14.00">RSET/250:&#45;1</text>
</g>
<!-- q14:&#45;1 -->
<g id="node24" class="node">
<title>q14:&#45;1</title>
<ellipse fill="none" stroke="black" stroke-width="2" cx="1053.1" cy="-278" rx="42.79" ry="18"/>
<text text-anchor="middle" x="1053.1" y="-273.32" font-family="Times,serif" font-size="14.00">q14:&#45;1</text>
</g>
<!-- q10:&#45;1&#45;&gt;q14:&#45;1 -->
<g id="edge28" class="edge">
<title>q10:&#45;1&#45;&gt;q14:&#45;1</title>
<path fill="none" stroke="black" d="M870.63,-276.38C906.86,-276.7 959.03,-277.17 998.14,-277.52"/>
<polygon fill="black" stroke="black" points="998.06,-281.02 1008.09,-277.61 998.12,-274.02 998.06,-281.02"/>
<text text-anchor="middle" x="940.57" y="-280.94" font-family="Times,serif" font-size="14.00">content/535:&#45;1</text>
</g>
<!-- q20:&#45;1 -->
<g id="node28" class="node">
<title>q20:&#45;1</title>
<ellipse fill="none" stroke="black" stroke-width="2" cx="1265.8" cy="-282" rx="42.79" ry="18"/>
<text text-anchor="middle" x="1265.8" y="-277.32" font-family="Times,serif" font-size="14.00">q20:&#45;1</text>
</g>
<!-- q14:&#45;1&#45;&gt;q20:&#45;1 -->
<g id="edge33" class="edge">
<title>q14:&#45;1&#45;&gt;q20:&#45;1</title>
<path fill="none" stroke="black" d="M1096.7,-278.81C1129.7,-279.44 1175.6,-280.31 1211.1,-280.98"/>
<polygon fill="black" stroke="black" points="1210.62,-284.47 1220.69,-281.16 1210.76,-277.47 1210.62,-284.47"/>
<text text-anchor="middle" x="1158.5" y="-283.94" font-family="Times,serif" font-size="14.00">λ/451:&#45;1</text>
</g>
<!-- q1:&#45;1 -->
<g id="node25" class="node">
<title>q1:&#45;1</title>
<ellipse fill="none" stroke="black" stroke-width="2" cx="215.93" cy="-184" rx="36.48" ry="18"/>
<text text-anchor="middle" x="215.93" y="-179.32" font-family="Times,serif" font-size="14.00">q1:&#45;1</text>
</g>
<!-- q1:&#45;1&#45;&gt;q3:&#45;1 -->
<g id="edge29" class="edge">
<title>q1:&#45;1&#45;&gt;q3:&#45;1</title>
<path fill="none" stroke="black" d="M251.63,-189.75C284.52,-195.2 334.14,-203.42 370.28,-209.4"/>
<polygon fill="black" stroke="black" points="369.57,-212.83 380.01,-211.01 370.72,-205.92 369.57,-212.83"/>
<text text-anchor="middle" x="316.53" y="-210.94" font-family="Times,serif" font-size="14.00">EHLO/250:&#45;1</text>
</g>
<!-- q2:&#45;1 -->
<g id="node26" class="node">
<title>q2:&#45;1</title>
<ellipse fill="none" stroke="black" stroke-width="2" cx="417.13" cy="-157" rx="36.48" ry="18"/>
<text text-anchor="middle" x="417.13" y="-152.32" font-family="Times,serif" font-size="14.00">q2:&#45;1</text>
</g>
<!-- q1:&#45;1&#45;&gt;q2:&#45;1 -->
<g id="edge30" class="edge">
<title>q1:&#45;1&#45;&gt;q2:&#45;1</title>
<path fill="none" stroke="black" d="M249.01,-175.23C256.02,-173.54 263.43,-171.94 270.41,-170.75 303,-165.21 340.09,-161.75 368.7,-159.68"/>
<polygon fill="black" stroke="black" points="368.76,-163.18 378.5,-159.01 368.29,-156.2 368.76,-163.18"/>
<text text-anchor="middle" x="316.53" y="-174.94" font-family="Times,serif" font-size="14.00">EHLO/λ:&#45;1</text>
</g>
<!-- q2:&#45;1&#45;&gt;q4:&#45;1 -->
<g id="edge31" class="edge">
<title>q2:&#45;1&#45;&gt;q4:&#45;1</title>
<path fill="none" stroke="black" d="M449.23,-147.28C480.7,-139.44 529.47,-132.92 563.86,-154.75 579.73,-164.82 570.05,-178.39 581.86,-193 583.25,-194.72 584.77,-196.38 586.37,-197.99"/>
<polygon fill="black" stroke="black" points="583.93,-200.5 593.74,-204.51 588.57,-195.26 583.93,-200.5"/>
<text text-anchor="middle" x="517.74" y="-158.94" font-family="Times,serif" font-size="14.00">AUTH/235:&#45;1</text>
</g>
<!-- q0:&#45;1 -->
<g id="node27" class="node">
<title>q0:&#45;1</title>
<ellipse fill="none" stroke="black" stroke-width="2" cx="44.48" cy="-184" rx="40.48" ry="40.48"/>
<ellipse fill="none" stroke="black" stroke-width="2" cx="44.48" cy="-184" rx="44.48" ry="44.48"/>
<text text-anchor="middle" x="44.48" y="-179.32" font-family="Times,serif" font-size="14.00">q0:&#45;1</text>
</g>
<!-- q0:&#45;1&#45;&gt;q1:&#45;1 -->
<g id="edge32" class="edge">
<title>q0:&#45;1&#45;&gt;q1:&#45;1</title>
<path fill="none" stroke="black" d="M85.64,-184C110.08,-184 141.44,-184 167.15,-184"/>
<polygon fill="black" stroke="black" points="167.02,-187.5 177.02,-184 167.02,-180.5 167.02,-187.5"/>
<text text-anchor="middle" x="132.2" y="-187.94" font-family="Times,serif" font-size="14.00">λ/220:&#45;1</text>
</g>
</g>
</svg>
