<?xml version="1.0" encoding="UTF-8" standalone="no"?>
<!DOCTYPE svg PUBLIC "-//W3C//DTD SVG 1.1//EN"
 "http://www.w3.org/Graphics/SVG/1.1/DTD/svg11.dtd">
<!-- Generated by graphviz version 12.0.0 (20240803.0821)
 -->
<!-- Pages: 1 -->
<svg width="1986pt" height="302pt"
 viewBox="0.00 0.00 1985.85 301.81" xmlns="http://www.w3.org/2000/svg" xmlns:xlink="http://www.w3.org/1999/xlink">
<g id="graph0" class="graph" transform="scale(1 1) rotate(0) translate(4 297.81)">
<polygon fill="white" stroke="none" points="-4,4 -4,-297.81 1981.85,-297.81 1981.85,4 -4,4"/>
<!-- q15:71 -->
<g id="node1" class="node">
<title>q15:71</title>
<ellipse fill="none" stroke="black" stroke-width="2" cx="1463.9" cy="-136.81" rx="45.95" ry="18"/>
<text text-anchor="middle" x="1463.9" y="-132.13" font-family="Times,serif" font-size="14.00">q15:71</text>
</g>
<!-- q20:71 -->
<g id="node2" class="node">
<title>q20:71</title>
<ellipse fill="none" stroke="black" stroke-width="2" cx="1712.5" cy="-136.81" rx="45.95" ry="18"/>
<text text-anchor="middle" x="1712.5" y="-132.13" font-family="Times,serif" font-size="14.00">q20:71</text>
</g>
<!-- q15:71&#45;&gt;q20:71 -->
<g id="edge1" class="edge">
<title>q15:71&#45;&gt;q20:71</title>
<path fill="none" stroke="black" d="M1510.7,-136.81C1551.4,-136.81 1610.9,-136.81 1654.6,-136.81"/>
<polygon fill="black" stroke="black" points="1654.39,-140.31 1664.39,-136.81 1654.39,-133.31 1654.39,-140.31"/>
<text text-anchor="middle" x="1594.5" y="-140.75" font-family="Times,serif" font-size="14.00">QUIT/221:71</text>
</g>
<!-- q11:1392 -->
<g id="node3" class="node">
<title>q11:1392</title>
<ellipse fill="none" stroke="black" stroke-width="2" cx="1202.8" cy="-96.81" rx="58.57" ry="18"/>
<text text-anchor="middle" x="1202.8" y="-92.13" font-family="Times,serif" font-size="14.00">q11:1392</text>
</g>
<!-- q11:1392&#45;&gt;q15:71 -->
<g id="edge2" class="edge">
<title>q11:1392&#45;&gt;q15:71</title>
<path fill="none" stroke="black" d="M1250.4,-108.04C1260,-110.13 1270,-112.17 1279.4,-113.81 1322,-121.27 1370.7,-127.25 1407.2,-131.24"/>
<polygon fill="black" stroke="black" points="1406.78,-134.71 1417.09,-132.31 1407.53,-127.75 1406.78,-134.71"/>
<text text-anchor="middle" x="1333.4" y="-132.75" font-family="Times,serif" font-size="14.00">content/250:71</text>
</g>
<!-- q17:72 -->
<g id="node4" class="node">
<title>q17:72</title>
<ellipse fill="none" stroke="black" stroke-width="2" cx="1463.9" cy="-82.81" rx="45.95" ry="18"/>
<text text-anchor="middle" x="1463.9" y="-78.13" font-family="Times,serif" font-size="14.00">q17:72</text>
</g>
<!-- q11:1392&#45;&gt;q17:72 -->
<g id="edge3" class="edge">
<title>q11:1392&#45;&gt;q17:72</title>
<path fill="none" stroke="black" d="M1261.3,-93.7C1304.5,-91.37 1363.3,-88.19 1406.2,-85.87"/>
<polygon fill="black" stroke="black" points="1406.29,-89.37 1416.09,-85.34 1405.91,-82.38 1406.29,-89.37"/>
<text text-anchor="middle" x="1333.4" y="-96.76" font-family="Times,serif" font-size="14.00">content/554:72</text>
</g>
<!-- q14:1248 -->
<g id="node5" class="node">
<title>q14:1248</title>
<ellipse fill="none" stroke="black" stroke-width="2" cx="1463.9" cy="-22.81" rx="58.57" ry="18"/>
<text text-anchor="middle" x="1463.9" y="-18.13" font-family="Times,serif" font-size="14.00">q14:1248</text>
</g>
<!-- q11:1392&#45;&gt;q14:1248 -->
<g id="edge4" class="edge">
<title>q11:1392&#45;&gt;q14:1248</title>
<path fill="none" stroke="black" d="M1238.4,-81.72C1251.1,-76.5 1265.8,-70.88 1279.4,-66.56 1319.8,-53.71 1366.4,-42.66 1402.5,-34.88"/>
<polygon fill="black" stroke="black" points="1402.77,-38.4 1411.82,-32.89 1401.31,-31.55 1402.77,-38.4"/>
<text text-anchor="middle" x="1333.4" y="-70.76" font-family="Times,serif" font-size="14.00">content/λ:1248</text>
</g>
<!-- q16:1 -->
<g id="node6" class="node">
<title>q16:1</title>
<ellipse fill="none" stroke="black" stroke-width="2" cx="1463.9" cy="-190.81" rx="39.63" ry="18"/>
<text text-anchor="middle" x="1463.9" y="-186.13" font-family="Times,serif" font-size="14.00">q16:1</text>
</g>
<!-- q11:1392&#45;&gt;q16:1 -->
<g id="edge5" class="edge">
<title>q11:1392&#45;&gt;q16:1</title>
<path fill="none" stroke="black" d="M1241.8,-111.11C1248.7,-114.66 1255.5,-118.89 1261.4,-123.81 1272.1,-132.88 1267.7,-141.96 1279.4,-149.81 1318.9,-176.39 1372.9,-186 1412.1,-189.34"/>
<polygon fill="black" stroke="black" points="1411.76,-192.82 1421.99,-190.06 1412.27,-185.84 1411.76,-192.82"/>
<text text-anchor="middle" x="1333.4" y="-189.75" font-family="Times,serif" font-size="14.00">content/550:1</text>
</g>
<!-- q22:72 -->
<g id="node7" class="node">
<title>q22:72</title>
<ellipse fill="none" stroke="black" stroke-width="2" cx="1712.5" cy="-82.81" rx="45.95" ry="18"/>
<text text-anchor="middle" x="1712.5" y="-78.13" font-family="Times,serif" font-size="14.00">q22:72</text>
</g>
<!-- q17:72&#45;&gt;q22:72 -->
<g id="edge6" class="edge">
<title>q17:72&#45;&gt;q22:72</title>
<path fill="none" stroke="black" d="M1510.7,-82.81C1551.4,-82.81 1610.9,-82.81 1654.6,-82.81"/>
<polygon fill="black" stroke="black" points="1654.39,-86.31 1664.39,-82.81 1654.39,-79.31 1654.39,-86.31"/>
<text text-anchor="middle" x="1594.5" y="-86.76" font-family="Times,serif" font-size="14.00">RSET/250:72</text>
</g>
<!-- q14:1248&#45;&gt;q11:1392 -->
<g id="edge7" class="edge">
<title>q14:1248&#45;&gt;q11:1392</title>
<path fill="none" stroke="black" d="M1416.5,-11.48C1378.1,-4.48 1323.1,0 1279.4,-18.56 1255.1,-28.86 1234.8,-51.21 1221.4,-69.4"/>
<polygon fill="black" stroke="black" points="1218.79,-67.02 1215.87,-77.21 1224.51,-71.07 1218.79,-67.02"/>
<text text-anchor="middle" x="1333.4" y="-22.76" font-family="Times,serif" font-size="14.00">content/λ:1206</text>
</g>
<!-- q19:42 -->
<g id="node8" class="node">
<title>q19:42</title>
<ellipse fill="none" stroke="black" stroke-width="2" cx="1712.5" cy="-22.81" rx="45.95" ry="18"/>
<text text-anchor="middle" x="1712.5" y="-18.13" font-family="Times,serif" font-size="14.00">q19:42</text>
</g>
<!-- q14:1248&#45;&gt;q19:42 -->
<g id="edge8" class="edge">
<title>q14:1248&#45;&gt;q19:42</title>
<path fill="none" stroke="black" d="M1523.4,-22.81C1562.9,-22.81 1615,-22.81 1654.3,-22.81"/>
<polygon fill="black" stroke="black" points="1654.29,-26.31 1664.29,-22.81 1654.29,-19.31 1654.29,-26.31"/>
<text text-anchor="middle" x="1594.5" y="-26.76" font-family="Times,serif" font-size="14.00">content/250:42</text>
</g>
<!-- q21:1 -->
<g id="node9" class="node">
<title>q21:1</title>
<ellipse fill="none" stroke="black" stroke-width="2" cx="1712.5" cy="-190.81" rx="39.63" ry="18"/>
<text text-anchor="middle" x="1712.5" y="-186.13" font-family="Times,serif" font-size="14.00">q21:1</text>
</g>
<!-- q16:1&#45;&gt;q21:1 -->
<g id="edge9" class="edge">
<title>q16:1&#45;&gt;q21:1</title>
<path fill="none" stroke="black" d="M1504.5,-190.81C1547,-190.81 1614.4,-190.81 1660.7,-190.81"/>
<polygon fill="black" stroke="black" points="1660.49,-194.31 1670.49,-190.81 1660.49,-187.31 1660.49,-194.31"/>
<text text-anchor="middle" x="1594.5" y="-194.75" font-family="Times,serif" font-size="14.00">RSET/250:1</text>
</g>
<!-- q23:42 -->
<g id="node10" class="node">
<title>q23:42</title>
<ellipse fill="none" stroke="black" stroke-width="2" cx="1931.9" cy="-22.81" rx="45.95" ry="18"/>
<text text-anchor="middle" x="1931.9" y="-18.13" font-family="Times,serif" font-size="14.00">q23:42</text>
</g>
<!-- q19:42&#45;&gt;q23:42 -->
<g id="edge10" class="edge">
<title>q19:42&#45;&gt;q23:42</title>
<path fill="none" stroke="black" d="M1759.3,-22.81C1792.7,-22.81 1838.1,-22.81 1873.8,-22.81"/>
<polygon fill="black" stroke="black" points="1873.59,-26.31 1883.59,-22.81 1873.59,-19.31 1873.59,-26.31"/>
<text text-anchor="middle" x="1822.2" y="-26.76" font-family="Times,serif" font-size="14.00">QUIT/221:42</text>
</g>
<!-- q0:244 -->
<g id="node11" class="node">
<title>q0:244</title>
<ellipse fill="none" stroke="black" stroke-width="2" cx="53.95" cy="-178.81" rx="49.95" ry="49.95"/>
<ellipse fill="none" stroke="black" stroke-width="2" cx="53.95" cy="-178.81" rx="53.95" ry="53.95"/>
<text text-anchor="middle" x="53.95" y="-174.13" font-family="Times,serif" font-size="14.00">q0:244</text>
</g>
<!-- q1:244 -->
<g id="node12" class="node">
<title>q1:244</title>
<ellipse fill="none" stroke="black" stroke-width="2" cx="257.84" cy="-178.81" rx="45.95" ry="18"/>
<text text-anchor="middle" x="257.84" y="-174.13" font-family="Times,serif" font-size="14.00">q1:244</text>
</g>
<!-- q0:244&#45;&gt;q1:244 -->
<g id="edge11" class="edge">
<title>q0:244&#45;&gt;q1:244</title>
<path fill="none" stroke="black" d="M104.85,-178.81C133.64,-178.81 169.94,-178.81 199.84,-178.81"/>
<polygon fill="black" stroke="black" points="199.45,-182.31 209.45,-178.81 199.45,-175.31 199.45,-182.31"/>
<text text-anchor="middle" x="157.89" y="-182.75" font-family="Times,serif" font-size="14.00">λ/220:244</text>
</g>
<!-- q3:243 -->
<g id="node13" class="node">
<title>q3:243</title>
<ellipse fill="none" stroke="black" stroke-width="2" cx="491.48" cy="-211.81" rx="45.95" ry="18"/>
<text text-anchor="middle" x="491.48" y="-207.13" font-family="Times,serif" font-size="14.00">q3:243</text>
</g>
<!-- q1:244&#45;&gt;q3:243 -->
<g id="edge12" class="edge">
<title>q1:244&#45;&gt;q3:243</title>
<path fill="none" stroke="black" d="M302.14,-184.98C340,-190.37 395.17,-198.23 436.02,-204.05"/>
<polygon fill="black" stroke="black" points="435.51,-207.51 445.9,-205.46 436.49,-200.58 435.51,-207.51"/>
<text text-anchor="middle" x="374.66" y="-205.75" font-family="Times,serif" font-size="14.00">EHLO/250:243</text>
</g>
<!-- q2:1 -->
<g id="node14" class="node">
<title>q2:1</title>
<ellipse fill="none" stroke="black" stroke-width="2" cx="491.48" cy="-151.81" rx="33.32" ry="18"/>
<text text-anchor="middle" x="491.48" y="-147.13" font-family="Times,serif" font-size="14.00">q2:1</text>
</g>
<!-- q1:244&#45;&gt;q2:1 -->
<g id="edge13" class="edge">
<title>q1:244&#45;&gt;q2:1</title>
<path fill="none" stroke="black" d="M298.66,-169.64C306.31,-168.1 314.27,-166.65 321.79,-165.56 363.67,-159.47 411.82,-155.88 445.93,-153.91"/>
<polygon fill="black" stroke="black" points="446.07,-157.41 455.86,-153.35 445.68,-150.42 446.07,-157.41"/>
<text text-anchor="middle" x="374.66" y="-169.75" font-family="Times,serif" font-size="14.00">EHLO/λ:1</text>
</g>
<!-- q4:2 -->
<g id="node15" class="node">
<title>q4:2</title>
<ellipse fill="none" stroke="black" stroke-width="2" cx="725.13" cy="-138.81" rx="33.32" ry="18"/>
<text text-anchor="middle" x="725.13" y="-134.13" font-family="Times,serif" font-size="14.00">q4:2</text>
</g>
<!-- q3:243&#45;&gt;q4:2 -->
<g id="edge14" class="edge">
<title>q3:243&#45;&gt;q4:2</title>
<path fill="none" stroke="black" d="M528.68,-200.4C570.94,-187.09 640.6,-165.13 684.34,-151.35"/>
<polygon fill="black" stroke="black" points="685.21,-154.74 693.7,-148.39 683.11,-148.07 685.21,-154.74"/>
<text text-anchor="middle" x="608.31" y="-193.75" font-family="Times,serif" font-size="14.00">AUTH/λ:1</text>
</g>
<!-- q6:230 -->
<g id="node16" class="node">
<title>q6:230</title>
<ellipse fill="none" stroke="black" stroke-width="2" cx="725.13" cy="-218.81" rx="45.95" ry="18"/>
<text text-anchor="middle" x="725.13" y="-214.13" font-family="Times,serif" font-size="14.00">q6:230</text>
</g>
<!-- q3:243&#45;&gt;q6:230 -->
<g id="edge15" class="edge">
<title>q3:243&#45;&gt;q6:230</title>
<path fill="none" stroke="black" d="M538.25,-213.19C575.21,-214.31 627.42,-215.89 667.1,-217.09"/>
<polygon fill="black" stroke="black" points="666.85,-220.58 676.95,-217.38 667.06,-213.59 666.85,-220.58"/>
<text text-anchor="middle" x="608.31" y="-219.75" font-family="Times,serif" font-size="14.00">AUTH/235:230</text>
</g>
<!-- q5:12 -->
<g id="node17" class="node">
<title>q5:12</title>
<ellipse fill="none" stroke="black" stroke-width="2" cx="725.13" cy="-273.81" rx="39.63" ry="18"/>
<text text-anchor="middle" x="725.13" y="-269.13" font-family="Times,serif" font-size="14.00">q5:12</text>
</g>
<!-- q3:243&#45;&gt;q5:12 -->
<g id="edge16" class="edge">
<title>q3:243&#45;&gt;q5:12</title>
<path fill="none" stroke="black" d="M523.83,-225.42C533.81,-229.44 544.97,-233.61 555.43,-236.81 595.49,-249.07 642.07,-258.97 676.12,-265.43"/>
<polygon fill="black" stroke="black" points="675.2,-268.82 685.67,-267.21 676.48,-261.94 675.2,-268.82"/>
<text text-anchor="middle" x="608.31" y="-265.75" font-family="Times,serif" font-size="14.00">AUTH/535:12</text>
</g>
<!-- q2:1&#45;&gt;q4:2 -->
<g id="edge17" class="edge">
<title>q2:1&#45;&gt;q4:2</title>
<path fill="none" stroke="black" d="M523.05,-144.67C533.28,-142.59 544.8,-140.61 555.43,-139.56 597.41,-135.42 645.55,-135.7 679.63,-136.74"/>
<polygon fill="black" stroke="black" points="679.43,-140.23 689.55,-137.08 679.67,-133.24 679.43,-140.23"/>
<text text-anchor="middle" x="608.31" y="-143.75" font-family="Times,serif" font-size="14.00">AUTH/235:1</text>
</g>
<!-- q7:606 -->
<g id="node18" class="node">
<title>q7:606</title>
<ellipse fill="none" stroke="black" stroke-width="2" cx="954.27" cy="-132.81" rx="45.95" ry="18"/>
<text text-anchor="middle" x="954.27" y="-128.13" font-family="Times,serif" font-size="14.00">q7:606</text>
</g>
<!-- q4:2&#45;&gt;q7:606 -->
<g id="edge18" class="edge">
<title>q4:2&#45;&gt;q7:606</title>
<path fill="none" stroke="black" d="M759.16,-137.94C795,-136.99 852.89,-135.46 896.14,-134.32"/>
<polygon fill="black" stroke="black" points="896.22,-137.82 906.13,-134.06 896.04,-130.82 896.22,-137.82"/>
<text text-anchor="middle" x="839.7" y="-141.75" font-family="Times,serif" font-size="14.00">MAIL/250:2</text>
</g>
<!-- q6:230&#45;&gt;q7:606 -->
<g id="edge19" class="edge">
<title>q6:230&#45;&gt;q7:606</title>
<path fill="none" stroke="black" d="M759.64,-206.12C799.23,-191.13 865.23,-166.14 909,-149.57"/>
<polygon fill="black" stroke="black" points="910.09,-152.9 918.2,-146.08 907.61,-146.35 910.09,-152.9"/>
<text text-anchor="middle" x="839.7" y="-196.75" font-family="Times,serif" font-size="14.00">MAIL/250:227</text>
</g>
<!-- q9:3 -->
<g id="node19" class="node">
<title>q9:3</title>
<ellipse fill="none" stroke="black" stroke-width="2" cx="954.27" cy="-221.81" rx="33.32" ry="18"/>
<text text-anchor="middle" x="954.27" y="-217.13" font-family="Times,serif" font-size="14.00">q9:3</text>
</g>
<!-- q6:230&#45;&gt;q9:3 -->
<g id="edge20" class="edge">
<title>q6:230&#45;&gt;q9:3</title>
<path fill="none" stroke="black" d="M771.82,-219.41C811.71,-219.94 869.24,-220.7 908.77,-221.22"/>
<polygon fill="black" stroke="black" points="908.61,-224.72 918.66,-221.35 908.7,-217.72 908.61,-224.72"/>
<text text-anchor="middle" x="839.7" y="-224.75" font-family="Times,serif" font-size="14.00">MAIL/553:3</text>
</g>
<!-- q8:12 -->
<g id="node20" class="node">
<title>q8:12</title>
<ellipse fill="none" stroke="black" stroke-width="2" cx="954.27" cy="-275.81" rx="39.63" ry="18"/>
<text text-anchor="middle" x="954.27" y="-271.13" font-family="Times,serif" font-size="14.00">q8:12</text>
</g>
<!-- q5:12&#45;&gt;q8:12 -->
<g id="edge21" class="edge">
<title>q5:12&#45;&gt;q8:12</title>
<path fill="none" stroke="black" d="M765.69,-274.16C803.6,-274.49 861,-275 902.32,-275.36"/>
<polygon fill="black" stroke="black" points="902.24,-278.86 912.27,-275.45 902.3,-271.86 902.24,-278.86"/>
<text text-anchor="middle" x="839.7" y="-278.75" font-family="Times,serif" font-size="14.00">AUTH/334:12</text>
</g>
<!-- q7:606&#45;&gt;q11:1392 -->
<g id="edge22" class="edge">
<title>q7:606&#45;&gt;q11:1392</title>
<path fill="none" stroke="black" d="M993.02,-122.11C1001.28,-120.04 1010,-118.05 1018.2,-116.56 1056,-109.68 1098.7,-104.91 1133.4,-101.79"/>
<polygon fill="black" stroke="black" points="1133.63,-105.28 1143.29,-100.92 1133.02,-98.3 1133.63,-105.28"/>
<text text-anchor="middle" x="1072.2" y="-120.75" font-family="Times,serif" font-size="14.00">DATA/354:186</text>
</g>
<!-- q7:606&#45;&gt;q7:606 -->
<g id="edge23" class="edge">
<title>q7:606&#45;&gt;q7:606</title>
<path fill="none" stroke="black" d="M933.97,-149.85C929.83,-159.67 936.59,-168.81 954.27,-168.81 964.49,-168.81 971.07,-165.75 973.99,-161.28"/>
<polygon fill="black" stroke="black" points="977.48,-161.52 974.49,-151.36 970.49,-161.17 977.48,-161.52"/>
<text text-anchor="middle" x="954.27" y="-172.75" font-family="Times,serif" font-size="14.00">RCPT/250:377</text>
</g>
<!-- q10:43 -->
<g id="node21" class="node">
<title>q10:43</title>
<ellipse fill="none" stroke="black" stroke-width="2" cx="1202.8" cy="-150.81" rx="45.95" ry="18"/>
<text text-anchor="middle" x="1202.8" y="-146.13" font-family="Times,serif" font-size="14.00">q10:43</text>
</g>
<!-- q7:606&#45;&gt;q10:43 -->
<g id="edge24" class="edge">
<title>q7:606&#45;&gt;q10:43</title>
<path fill="none" stroke="black" d="M1000.49,-136.11C1041.3,-139.09 1101.6,-143.49 1145.5,-146.7"/>
<polygon fill="black" stroke="black" points="1145.16,-150.18 1155.39,-147.42 1145.67,-143.2 1145.16,-150.18"/>
<text text-anchor="middle" x="1072.2" y="-149.75" font-family="Times,serif" font-size="14.00">DATA/550:43</text>
</g>
<!-- q13:3 -->
<g id="node22" class="node">
<title>q13:3</title>
<ellipse fill="none" stroke="black" stroke-width="2" cx="1202.8" cy="-221.81" rx="39.63" ry="18"/>
<text text-anchor="middle" x="1202.8" y="-217.13" font-family="Times,serif" font-size="14.00">q13:3</text>
</g>
<!-- q9:3&#45;&gt;q13:3 -->
<g id="edge25" class="edge">
<title>q9:3&#45;&gt;q13:3</title>
<path fill="none" stroke="black" d="M988.52,-221.81C1030.4,-221.81 1102.7,-221.81 1151.4,-221.81"/>
<polygon fill="black" stroke="black" points="1151.09,-225.31 1161.09,-221.81 1151.09,-218.31 1151.09,-225.31"/>
<text text-anchor="middle" x="1072.2" y="-225.75" font-family="Times,serif" font-size="14.00">RSET/250:3</text>
</g>
<!-- q12:12 -->
<g id="node23" class="node">
<title>q12:12</title>
<ellipse fill="none" stroke="black" stroke-width="2" cx="1202.8" cy="-275.81" rx="45.95" ry="18"/>
<text text-anchor="middle" x="1202.8" y="-271.13" font-family="Times,serif" font-size="14.00">q12:12</text>
</g>
<!-- q8:12&#45;&gt;q12:12 -->
<g id="edge26" class="edge">
<title>q8:12&#45;&gt;q12:12</title>
<path fill="none" stroke="black" d="M994.88,-275.81C1035.4,-275.81 1098.8,-275.81 1144.7,-275.81"/>
<polygon fill="black" stroke="black" points="1144.49,-279.31 1154.49,-275.81 1144.49,-272.31 1144.49,-279.31"/>
<text text-anchor="middle" x="1072.2" y="-279.75" font-family="Times,serif" font-size="14.00">content/535:12</text>
</g>
<!-- q18:4 -->
<g id="node24" class="node">
<title>q18:4</title>
<ellipse fill="none" stroke="black" stroke-width="2" cx="1463.9" cy="-275.81" rx="39.63" ry="18"/>
<text text-anchor="middle" x="1463.9" y="-271.13" font-family="Times,serif" font-size="14.00">q18:4</text>
</g>
<!-- q12:12&#45;&gt;q18:4 -->
<g id="edge27" class="edge">
<title>q12:12&#45;&gt;q18:4</title>
<path fill="none" stroke="black" d="M1249.5,-275.81C1295.1,-275.81 1364.8,-275.81 1412.1,-275.81"/>
<polygon fill="black" stroke="black" points="1412.09,-279.31 1422.09,-275.81 1412.09,-272.31 1412.09,-279.31"/>
<text text-anchor="middle" x="1333.4" y="-279.75" font-family="Times,serif" font-size="14.00">λ/451:4</text>
</g>
</g>
</svg>
