<?xml version="1.0" encoding="UTF-8" standalone="no"?>
<!DOCTYPE svg PUBLIC "-//W3C//DTD SVG 1.1//EN"
 "http://www.w3.org/Graphics/SVG/1.1/DTD/svg11.dtd">
<!-- Generated by graphviz version 12.0.0 (20240803.0821)
 -->
<!-- Pages: 1 -->
<svg width="1988pt" height="427pt"
 viewBox="0.00 0.00 1988.05 427.00" xmlns="http://www.w3.org/2000/svg" xmlns:xlink="http://www.w3.org/1999/xlink">
<g id="graph0" class="graph" transform="scale(1 1) rotate(0) translate(4 423)">
<polygon fill="white" stroke="none" points="-4,4 -4,-423 1984.05,-423 1984.05,4 -4,4"/>
<!-- q16:2506 -->
<g id="node1" class="node">
<title>q16:2506</title>
<ellipse fill="none" stroke="black" stroke-width="2" cx="1215.4" cy="-347" rx="58.57" ry="18"/>
<text text-anchor="middle" x="1215.4" y="-342.32" font-family="Times,serif" font-size="14.00">q16:2506</text>
</g>
<!-- q16:2506&#45;&gt;q16:2506 -->
<g id="edge1" class="edge">
<title>q16:2506&#45;&gt;q16:2506</title>
<path fill="none" stroke="black" d="M1192.1,-364.41C1187.8,-374.09 1195.5,-383 1215.4,-383 1226.9,-383 1234.4,-380.02 1237.8,-375.64"/>
<polygon fill="black" stroke="black" points="1241.27,-376.17 1238.58,-365.92 1234.29,-375.61 1241.27,-376.17"/>
<text text-anchor="middle" x="1215.4" y="-386.94" font-family="Times,serif" font-size="14.00">content/λ:2408</text>
</g>
<!-- q20:9 -->
<g id="node2" class="node">
<title>q20:9</title>
<ellipse fill="none" stroke="black" stroke-width="2" cx="1470.3" cy="-401" rx="39.63" ry="18"/>
<text text-anchor="middle" x="1470.3" y="-396.32" font-family="Times,serif" font-size="14.00">q20:9</text>
</g>
<!-- q16:2506&#45;&gt;q20:9 -->
<g id="edge2" class="edge">
<title>q16:2506&#45;&gt;q20:9</title>
<path fill="none" stroke="black" d="M1259.4,-359.64C1270,-362.57 1281.4,-365.54 1292,-368 1335.2,-378 1384.9,-387.04 1420.6,-393.12"/>
<polygon fill="black" stroke="black" points="1419.76,-396.53 1430.21,-394.74 1420.93,-389.63 1419.76,-396.53"/>
<text text-anchor="middle" x="1346" y="-392.94" font-family="Times,serif" font-size="14.00">content/554:9</text>
</g>
<!-- q22:1 -->
<g id="node3" class="node">
<title>q22:1</title>
<ellipse fill="none" stroke="black" stroke-width="2" cx="1470.3" cy="-347" rx="39.63" ry="18"/>
<text text-anchor="middle" x="1470.3" y="-342.32" font-family="Times,serif" font-size="14.00">q22:1</text>
</g>
<!-- q16:2506&#45;&gt;q22:1 -->
<g id="edge3" class="edge">
<title>q16:2506&#45;&gt;q22:1</title>
<path fill="none" stroke="black" d="M1274.7,-347C1318.1,-347 1376.7,-347 1418.2,-347"/>
<polygon fill="black" stroke="black" points="1418.19,-350.5 1428.19,-347 1418.19,-343.5 1418.19,-350.5"/>
<text text-anchor="middle" x="1346" y="-350.94" font-family="Times,serif" font-size="14.00">content/550:1</text>
</g>
<!-- q21:88 -->
<g id="node4" class="node">
<title>q21:88</title>
<ellipse fill="none" stroke="black" stroke-width="2" cx="1470.3" cy="-293" rx="45.95" ry="18"/>
<text text-anchor="middle" x="1470.3" y="-288.32" font-family="Times,serif" font-size="14.00">q21:88</text>
</g>
<!-- q16:2506&#45;&gt;q21:88 -->
<g id="edge4" class="edge">
<title>q16:2506&#45;&gt;q21:88</title>
<path fill="none" stroke="black" d="M1259,-334.29C1269.7,-331.29 1281.2,-328.25 1292,-325.75 1333.1,-316.19 1380.1,-307.61 1415.4,-301.64"/>
<polygon fill="black" stroke="black" points="1415.63,-305.15 1424.91,-300.04 1414.46,-298.25 1415.63,-305.15"/>
<text text-anchor="middle" x="1346" y="-328.94" font-family="Times,serif" font-size="14.00">content/250:88</text>
</g>
<!-- q25:9 -->
<g id="node5" class="node">
<title>q25:9</title>
<ellipse fill="none" stroke="black" stroke-width="2" cx="1712.5" cy="-401" rx="39.63" ry="18"/>
<text text-anchor="middle" x="1712.5" y="-396.32" font-family="Times,serif" font-size="14.00">q25:9</text>
</g>
<!-- q20:9&#45;&gt;q25:9 -->
<g id="edge5" class="edge">
<title>q20:9&#45;&gt;q25:9</title>
<path fill="none" stroke="black" d="M1510.6,-401C1551.6,-401 1615.8,-401 1660.5,-401"/>
<polygon fill="black" stroke="black" points="1660.49,-404.5 1670.49,-401 1660.49,-397.5 1660.49,-404.5"/>
<text text-anchor="middle" x="1594.5" y="-404.94" font-family="Times,serif" font-size="14.00">RSET/250:9</text>
</g>
<!-- q27:1 -->
<g id="node6" class="node">
<title>q27:1</title>
<ellipse fill="none" stroke="black" stroke-width="2" cx="1712.5" cy="-347" rx="39.63" ry="18"/>
<text text-anchor="middle" x="1712.5" y="-342.32" font-family="Times,serif" font-size="14.00">q27:1</text>
</g>
<!-- q22:1&#45;&gt;q27:1 -->
<g id="edge6" class="edge">
<title>q22:1&#45;&gt;q27:1</title>
<path fill="none" stroke="black" d="M1510.6,-347C1551.6,-347 1615.8,-347 1660.5,-347"/>
<polygon fill="black" stroke="black" points="1660.49,-350.5 1670.49,-347 1660.49,-343.5 1660.49,-350.5"/>
<text text-anchor="middle" x="1594.5" y="-350.94" font-family="Times,serif" font-size="14.00">RSET/250:1</text>
</g>
<!-- q26:88 -->
<g id="node7" class="node">
<title>q26:88</title>
<ellipse fill="none" stroke="black" stroke-width="2" cx="1712.5" cy="-293" rx="45.95" ry="18"/>
<text text-anchor="middle" x="1712.5" y="-288.32" font-family="Times,serif" font-size="14.00">q26:88</text>
</g>
<!-- q21:88&#45;&gt;q26:88 -->
<g id="edge7" class="edge">
<title>q21:88&#45;&gt;q26:88</title>
<path fill="none" stroke="black" d="M1517,-293C1556.1,-293 1612.4,-293 1654.4,-293"/>
<polygon fill="black" stroke="black" points="1654.39,-296.5 1664.39,-293 1654.39,-289.5 1654.39,-296.5"/>
<text text-anchor="middle" x="1594.5" y="-296.94" font-family="Times,serif" font-size="14.00">QUIT/221:88</text>
</g>
<!-- q1:244 -->
<g id="node8" class="node">
<title>q1:244</title>
<ellipse fill="none" stroke="black" stroke-width="2" cx="257.84" cy="-65" rx="45.95" ry="18"/>
<text text-anchor="middle" x="257.84" y="-60.33" font-family="Times,serif" font-size="14.00">q1:244</text>
</g>
<!-- q3:2 -->
<g id="node9" class="node">
<title>q3:2</title>
<ellipse fill="none" stroke="black" stroke-width="2" cx="491.48" cy="-38" rx="33.32" ry="18"/>
<text text-anchor="middle" x="491.48" y="-33.33" font-family="Times,serif" font-size="14.00">q3:2</text>
</g>
<!-- q1:244&#45;&gt;q3:2 -->
<g id="edge8" class="edge">
<title>q1:244&#45;&gt;q3:2</title>
<path fill="none" stroke="black" d="M298.66,-55.83C306.31,-54.29 314.27,-52.84 321.79,-51.75 363.67,-45.66 411.82,-42.07 445.93,-40.1"/>
<polygon fill="black" stroke="black" points="446.07,-43.59 455.86,-39.55 445.68,-36.6 446.07,-43.59"/>
<text text-anchor="middle" x="374.66" y="-55.95" font-family="Times,serif" font-size="14.00">EHLO/λ:2</text>
</g>
<!-- q2:242 -->
<g id="node10" class="node">
<title>q2:242</title>
<ellipse fill="none" stroke="black" stroke-width="2" cx="491.48" cy="-98" rx="45.95" ry="18"/>
<text text-anchor="middle" x="491.48" y="-93.33" font-family="Times,serif" font-size="14.00">q2:242</text>
</g>
<!-- q1:244&#45;&gt;q2:242 -->
<g id="edge9" class="edge">
<title>q1:244&#45;&gt;q2:242</title>
<path fill="none" stroke="black" d="M302.14,-71.17C340,-76.56 395.17,-84.42 436.02,-90.24"/>
<polygon fill="black" stroke="black" points="435.51,-93.7 445.9,-91.65 436.49,-86.77 435.51,-93.7"/>
<text text-anchor="middle" x="374.66" y="-92.95" font-family="Times,serif" font-size="14.00">EHLO/250:242</text>
</g>
<!-- q5:231 -->
<g id="node11" class="node">
<title>q5:231</title>
<ellipse fill="none" stroke="black" stroke-width="2" cx="725.13" cy="-101" rx="45.95" ry="18"/>
<text text-anchor="middle" x="725.13" y="-96.33" font-family="Times,serif" font-size="14.00">q5:231</text>
</g>
<!-- q3:2&#45;&gt;q5:231 -->
<g id="edge10" class="edge">
<title>q3:2&#45;&gt;q5:231</title>
<path fill="none" stroke="black" d="M520.86,-28.52C556.47,-18.47 618.08,-7.36 661.18,-33.75 676.18,-42.94 667.69,-55.68 679.18,-69 682.13,-72.41 685.5,-75.65 689.06,-78.66"/>
<polygon fill="black" stroke="black" points="686.86,-81.38 696.91,-84.73 691.14,-75.85 686.86,-81.38"/>
<text text-anchor="middle" x="608.31" y="-37.95" font-family="Times,serif" font-size="14.00">AUTH/235:2</text>
</g>
<!-- q2:242&#45;&gt;q5:231 -->
<g id="edge11" class="edge">
<title>q2:242&#45;&gt;q5:231</title>
<path fill="none" stroke="black" d="M538.25,-98.59C575.21,-99.07 627.42,-99.75 667.1,-100.26"/>
<polygon fill="black" stroke="black" points="666.9,-103.76 676.95,-100.39 666.99,-96.76 666.9,-103.76"/>
<text text-anchor="middle" x="608.31" y="-104.95" font-family="Times,serif" font-size="14.00">AUTH/235:229</text>
</g>
<!-- q4:1 -->
<g id="node12" class="node">
<title>q4:1</title>
<ellipse fill="none" stroke="black" stroke-width="2" cx="839.7" cy="-171" rx="33.32" ry="18"/>
<text text-anchor="middle" x="839.7" y="-166.32" font-family="Times,serif" font-size="14.00">q4:1</text>
</g>
<!-- q2:242&#45;&gt;q4:1 -->
<g id="edge12" class="edge">
<title>q2:242&#45;&gt;q4:1</title>
<path fill="none" stroke="black" d="M524.11,-111.42C534.01,-115.25 545.06,-119.15 555.43,-122 638.78,-144.87 739,-159.22 795.11,-166.11"/>
<polygon fill="black" stroke="black" points="794.55,-169.57 804.9,-167.29 795.39,-162.62 794.55,-169.57"/>
<text text-anchor="middle" x="608.31" y="-148.94" font-family="Times,serif" font-size="14.00">AUTH/λ:1</text>
</g>
<!-- q6:12 -->
<g id="node13" class="node">
<title>q6:12</title>
<ellipse fill="none" stroke="black" stroke-width="2" cx="725.13" cy="-42" rx="39.63" ry="18"/>
<text text-anchor="middle" x="725.13" y="-37.33" font-family="Times,serif" font-size="14.00">q6:12</text>
</g>
<!-- q2:242&#45;&gt;q6:12 -->
<g id="edge13" class="edge">
<title>q2:242&#45;&gt;q6:12</title>
<path fill="none" stroke="black" d="M527.59,-86.01C536.61,-83.12 546.33,-80.17 555.43,-77.75 595.85,-67 642.4,-57.33 676.34,-50.77"/>
<polygon fill="black" stroke="black" points="676.7,-54.27 685.86,-48.95 675.38,-47.39 676.7,-54.27"/>
<text text-anchor="middle" x="608.31" y="-81.95" font-family="Times,serif" font-size="14.00">AUTH/535:12</text>
</g>
<!-- q9:229 -->
<g id="node14" class="node">
<title>q9:229</title>
<ellipse fill="none" stroke="black" stroke-width="2" cx="960.59" cy="-126" rx="45.95" ry="18"/>
<text text-anchor="middle" x="960.59" y="-121.33" font-family="Times,serif" font-size="14.00">q9:229</text>
</g>
<!-- q5:231&#45;&gt;q9:229 -->
<g id="edge14" class="edge">
<title>q5:231&#45;&gt;q9:229</title>
<path fill="none" stroke="black" d="M770.31,-105.73C808.17,-109.79 862.9,-115.65 903.78,-120.02"/>
<polygon fill="black" stroke="black" points="903.36,-123.49 913.67,-121.09 904.11,-116.54 903.36,-123.49"/>
<text text-anchor="middle" x="839.7" y="-121.95" font-family="Times,serif" font-size="14.00">MAIL/250:229</text>
</g>
<!-- q8:2 -->
<g id="node15" class="node">
<title>q8:2</title>
<ellipse fill="none" stroke="black" stroke-width="2" cx="960.59" cy="-72" rx="33.32" ry="18"/>
<text text-anchor="middle" x="960.59" y="-67.33" font-family="Times,serif" font-size="14.00">q8:2</text>
</g>
<!-- q5:231&#45;&gt;q8:2 -->
<g id="edge15" class="edge">
<title>q5:231&#45;&gt;q8:2</title>
<path fill="none" stroke="black" d="M765.96,-91.89C773.61,-90.35 781.57,-88.88 789.08,-87.75 831.73,-81.31 880.81,-77.11 915.33,-74.68"/>
<polygon fill="black" stroke="black" points="915.19,-78.2 924.93,-74.03 914.71,-71.22 915.19,-78.2"/>
<text text-anchor="middle" x="839.7" y="-91.95" font-family="Times,serif" font-size="14.00">MAIL/553:2</text>
</g>
<!-- q7:234 -->
<g id="node16" class="node">
<title>q7:234</title>
<ellipse fill="none" stroke="black" stroke-width="2" cx="1215.4" cy="-190" rx="45.95" ry="18"/>
<text text-anchor="middle" x="1215.4" y="-185.32" font-family="Times,serif" font-size="14.00">q7:234</text>
</g>
<!-- q4:1&#45;&gt;q7:234 -->
<g id="edge16" class="edge">
<title>q4:1&#45;&gt;q7:234</title>
<path fill="none" stroke="black" d="M873.87,-172.69C937.8,-175.94 1078.8,-183.1 1157.8,-187.12"/>
<polygon fill="black" stroke="black" points="1157.32,-190.6 1167.49,-187.61 1157.68,-183.61 1157.32,-190.6"/>
<text text-anchor="middle" x="960.59" y="-182.94" font-family="Times,serif" font-size="14.00">MAIL/250:1</text>
</g>
<!-- q10:12 -->
<g id="node17" class="node">
<title>q10:12</title>
<ellipse fill="none" stroke="black" stroke-width="2" cx="960.59" cy="-18" rx="45.95" ry="18"/>
<text text-anchor="middle" x="960.59" y="-13.32" font-family="Times,serif" font-size="14.00">q10:12</text>
</g>
<!-- q6:12&#45;&gt;q10:12 -->
<g id="edge17" class="edge">
<title>q6:12&#45;&gt;q10:12</title>
<path fill="none" stroke="black" d="M764.68,-38.04C802.64,-34.13 861.02,-28.13 904,-23.71"/>
<polygon fill="black" stroke="black" points="904.3,-27.2 913.89,-22.7 903.59,-20.24 904.3,-27.2"/>
<text text-anchor="middle" x="839.7" y="-38.95" font-family="Times,serif" font-size="14.00">AUTH/334:12</text>
</g>
<!-- q9:229&#45;&gt;q7:234 -->
<g id="edge18" class="edge">
<title>q9:229&#45;&gt;q7:234</title>
<path fill="none" stroke="black" d="M1007.4,-127.23C1043.8,-129.3 1095.6,-134.73 1138.8,-148.75 1153.3,-153.44 1168.2,-160.93 1180.9,-168.24"/>
<polygon fill="black" stroke="black" points="1178.91,-171.13 1189.3,-173.24 1182.49,-165.12 1178.91,-171.13"/>
<text text-anchor="middle" x="1084.8" y="-151.94" font-family="Times,serif" font-size="14.00">RCPT/250:229</text>
</g>
<!-- q13:2 -->
<g id="node18" class="node">
<title>q13:2</title>
<ellipse fill="none" stroke="black" stroke-width="2" cx="1215.4" cy="-72" rx="39.63" ry="18"/>
<text text-anchor="middle" x="1215.4" y="-67.33" font-family="Times,serif" font-size="14.00">q13:2</text>
</g>
<!-- q8:2&#45;&gt;q13:2 -->
<g id="edge19" class="edge">
<title>q8:2&#45;&gt;q13:2</title>
<path fill="none" stroke="black" d="M994.9,-72C1037.9,-72 1113.3,-72 1163.5,-72"/>
<polygon fill="black" stroke="black" points="1163.29,-75.5 1173.29,-72 1163.29,-68.5 1163.29,-75.5"/>
<text text-anchor="middle" x="1084.8" y="-75.95" font-family="Times,serif" font-size="14.00">RSET/250:2</text>
</g>
<!-- q11:145 -->
<g id="node19" class="node">
<title>q11:145</title>
<ellipse fill="none" stroke="black" stroke-width="2" cx="960.59" cy="-273" rx="52.26" ry="18"/>
<text text-anchor="middle" x="960.59" y="-268.32" font-family="Times,serif" font-size="14.00">q11:145</text>
</g>
<!-- q7:234&#45;&gt;q11:145 -->
<g id="edge20" class="edge">
<title>q7:234&#45;&gt;q11:145</title>
<path fill="none" stroke="black" d="M1169.2,-192.88C1123.1,-196.35 1054.9,-203.08 1030.8,-213.75 1013.6,-221.42 997.34,-234.84 984.94,-246.96"/>
<polygon fill="black" stroke="black" points="982.56,-244.39 978.06,-253.98 987.56,-249.29 982.56,-244.39"/>
<text text-anchor="middle" x="1084.8" y="-216.94" font-family="Times,serif" font-size="14.00">RCPT/250:145</text>
</g>
<!-- q12:163 -->
<g id="node20" class="node">
<title>q12:163</title>
<ellipse fill="none" stroke="black" stroke-width="2" cx="1470.3" cy="-190" rx="52.26" ry="18"/>
<text text-anchor="middle" x="1470.3" y="-185.32" font-family="Times,serif" font-size="14.00">q12:163</text>
</g>
<!-- q7:234&#45;&gt;q12:163 -->
<g id="edge21" class="edge">
<title>q7:234&#45;&gt;q12:163</title>
<path fill="none" stroke="black" d="M1262.2,-190C1302.4,-190 1361.2,-190 1405.9,-190"/>
<polygon fill="black" stroke="black" points="1405.79,-193.5 1415.79,-190 1405.79,-186.5 1405.79,-193.5"/>
<text text-anchor="middle" x="1346" y="-193.94" font-family="Times,serif" font-size="14.00">DATA/354:89</text>
</g>
<!-- q14:12 -->
<g id="node24" class="node">
<title>q14:12</title>
<ellipse fill="none" stroke="black" stroke-width="2" cx="1215.4" cy="-18" rx="45.95" ry="18"/>
<text text-anchor="middle" x="1215.4" y="-13.32" font-family="Times,serif" font-size="14.00">q14:12</text>
</g>
<!-- q10:12&#45;&gt;q14:12 -->
<g id="edge28" class="edge">
<title>q10:12&#45;&gt;q14:12</title>
<path fill="none" stroke="black" d="M1007.4,-18C1049.4,-18 1111.8,-18 1157.1,-18"/>
<polygon fill="black" stroke="black" points="1156.99,-21.5 1166.99,-18 1156.99,-14.5 1156.99,-21.5"/>
<text text-anchor="middle" x="1084.8" y="-21.95" font-family="Times,serif" font-size="14.00">content/535:12</text>
</g>
<!-- q11:145&#45;&gt;q16:2506 -->
<g id="edge22" class="edge">
<title>q11:145&#45;&gt;q16:2506</title>
<path fill="none" stroke="black" d="M989.9,-288.83C1002.19,-295.19 1016.9,-302.15 1030.8,-307 1069.6,-320.52 1114.6,-330.41 1150.4,-336.98"/>
<polygon fill="black" stroke="black" points="1149.75,-340.42 1160.21,-338.72 1150.98,-333.53 1149.75,-340.42"/>
<text text-anchor="middle" x="1084.8" y="-337.94" font-family="Times,serif" font-size="14.00">DATA/354:98</text>
</g>
<!-- q11:145&#45;&gt;q7:234 -->
<g id="edge23" class="edge">
<title>q11:145&#45;&gt;q7:234</title>
<path fill="none" stroke="black" d="M1004.9,-262.81C1056.9,-250.58 1137.2,-231.61 1138.8,-231 1152.6,-225.76 1166.9,-218.48 1179.4,-211.52"/>
<polygon fill="black" stroke="black" points="1181.09,-214.59 1187.99,-206.55 1177.58,-208.53 1181.09,-214.59"/>
<text text-anchor="middle" x="1084.8" y="-259.94" font-family="Times,serif" font-size="14.00">RCPT/250:4</text>
</g>
<!-- q15:43 -->
<g id="node21" class="node">
<title>q15:43</title>
<ellipse fill="none" stroke="black" stroke-width="2" cx="1215.4" cy="-293" rx="45.95" ry="18"/>
<text text-anchor="middle" x="1215.4" y="-288.32" font-family="Times,serif" font-size="14.00">q15:43</text>
</g>
<!-- q11:145&#45;&gt;q15:43 -->
<g id="edge24" class="edge">
<title>q11:145&#45;&gt;q15:43</title>
<path fill="none" stroke="black" d="M1012.4,-277.02C1054.7,-280.36 1114.7,-285.11 1158.3,-288.56"/>
<polygon fill="black" stroke="black" points="1157.85,-292.04 1168.09,-289.33 1158.4,-285.06 1157.85,-292.04"/>
<text text-anchor="middle" x="1084.8" y="-289.94" font-family="Times,serif" font-size="14.00">DATA/550:43</text>
</g>
<!-- q12:163&#45;&gt;q12:163 -->
<g id="edge25" class="edge">
<title>q12:163&#45;&gt;q12:163</title>
<path fill="none" stroke="black" d="M1448.2,-207.04C1443.7,-216.86 1451.1,-226 1470.3,-226 1481.3,-226 1488.5,-222.94 1491.6,-218.47"/>
<polygon fill="black" stroke="black" points="1495.09,-218.75 1492.21,-208.55 1488.1,-218.32 1495.09,-218.75"/>
<text text-anchor="middle" x="1470.3" y="-229.94" font-family="Times,serif" font-size="14.00">content/λ:74</text>
</g>
<!-- q17:24 -->
<g id="node22" class="node">
<title>q17:24</title>
<ellipse fill="none" stroke="black" stroke-width="2" cx="1712.5" cy="-230" rx="45.95" ry="18"/>
<text text-anchor="middle" x="1712.5" y="-225.32" font-family="Times,serif" font-size="14.00">q17:24</text>
</g>
<!-- q12:163&#45;&gt;q17:24 -->
<g id="edge26" class="edge">
<title>q12:163&#45;&gt;q17:24</title>
<path fill="none" stroke="black" d="M1517,-198.79C1524.9,-200.23 1532.9,-201.69 1540.5,-203 1579.6,-209.76 1623.9,-216.73 1657.6,-221.89"/>
<polygon fill="black" stroke="black" points="1656.59,-225.28 1667,-223.34 1657.65,-218.36 1656.59,-225.28"/>
<text text-anchor="middle" x="1594.5" y="-223.94" font-family="Times,serif" font-size="14.00">content/250:24</text>
</g>
<!-- q18:65 -->
<g id="node23" class="node">
<title>q18:65</title>
<ellipse fill="none" stroke="black" stroke-width="2" cx="1712.5" cy="-176" rx="45.95" ry="18"/>
<text text-anchor="middle" x="1712.5" y="-171.32" font-family="Times,serif" font-size="14.00">q18:65</text>
</g>
<!-- q12:163&#45;&gt;q18:65 -->
<g id="edge27" class="edge">
<title>q12:163&#45;&gt;q18:65</title>
<path fill="none" stroke="black" d="M1522.7,-186.82C1528.7,-186.45 1534.7,-186.09 1540.5,-185.75 1578.6,-183.5 1621.5,-181.05 1654.8,-179.17"/>
<polygon fill="black" stroke="black" points="1654.8,-182.68 1664.59,-178.62 1654.41,-175.69 1654.8,-182.68"/>
<text text-anchor="middle" x="1594.5" y="-188.94" font-family="Times,serif" font-size="14.00">content/554:65</text>
</g>
<!-- q23:24 -->
<g id="node26" class="node">
<title>q23:24</title>
<ellipse fill="none" stroke="black" stroke-width="2" cx="1934.1" cy="-230" rx="45.95" ry="18"/>
<text text-anchor="middle" x="1934.1" y="-225.32" font-family="Times,serif" font-size="14.00">q23:24</text>
</g>
<!-- q17:24&#45;&gt;q23:24 -->
<g id="edge30" class="edge">
<title>q17:24&#45;&gt;q23:24</title>
<path fill="none" stroke="black" d="M1759.2,-230C1793.2,-230 1839.6,-230 1876,-230"/>
<polygon fill="black" stroke="black" points="1875.89,-233.5 1885.89,-230 1875.89,-226.5 1875.89,-233.5"/>
<text text-anchor="middle" x="1823.3" y="-233.94" font-family="Times,serif" font-size="14.00">QUIT/221:24</text>
</g>
<!-- q24:65 -->
<g id="node27" class="node">
<title>q24:65</title>
<ellipse fill="none" stroke="black" stroke-width="2" cx="1934.1" cy="-176" rx="45.95" ry="18"/>
<text text-anchor="middle" x="1934.1" y="-171.32" font-family="Times,serif" font-size="14.00">q24:65</text>
</g>
<!-- q18:65&#45;&gt;q24:65 -->
<g id="edge31" class="edge">
<title>q18:65&#45;&gt;q24:65</title>
<path fill="none" stroke="black" d="M1759.2,-176C1793.2,-176 1839.6,-176 1876,-176"/>
<polygon fill="black" stroke="black" points="1875.89,-179.5 1885.89,-176 1875.89,-172.5 1875.89,-179.5"/>
<text text-anchor="middle" x="1823.3" y="-179.94" font-family="Times,serif" font-size="14.00">RSET/250:65</text>
</g>
<!-- q19:3 -->
<g id="node25" class="node">
<title>q19:3</title>
<ellipse fill="none" stroke="black" stroke-width="2" cx="1470.3" cy="-18" rx="39.63" ry="18"/>
<text text-anchor="middle" x="1470.3" y="-13.32" font-family="Times,serif" font-size="14.00">q19:3</text>
</g>
<!-- q14:12&#45;&gt;q19:3 -->
<g id="edge29" class="edge">
<title>q14:12&#45;&gt;q19:3</title>
<path fill="none" stroke="black" d="M1262.2,-18C1306.2,-18 1372.5,-18 1418.2,-18"/>
<polygon fill="black" stroke="black" points="1418.09,-21.5 1428.09,-18 1418.09,-14.5 1418.09,-21.5"/>
<text text-anchor="middle" x="1346" y="-21.95" font-family="Times,serif" font-size="14.00">λ/451:3</text>
</g>
<!-- q0:244 -->
<g id="node28" class="node">
<title>q0:244</title>
<ellipse fill="none" stroke="black" stroke-width="2" cx="53.95" cy="-65" rx="49.95" ry="49.95"/>
<ellipse fill="none" stroke="black" stroke-width="2" cx="53.95" cy="-65" rx="53.95" ry="53.95"/>
<text text-anchor="middle" x="53.95" y="-60.33" font-family="Times,serif" font-size="14.00">q0:244</text>
</g>
<!-- q0:244&#45;&gt;q1:244 -->
<g id="edge32" class="edge">
<title>q0:244&#45;&gt;q1:244</title>
<path fill="none" stroke="black" d="M104.85,-65C133.64,-65 169.94,-65 199.84,-65"/>
<polygon fill="black" stroke="black" points="199.45,-68.5 209.45,-65 199.45,-61.5 199.45,-68.5"/>
<text text-anchor="middle" x="157.89" y="-68.95" font-family="Times,serif" font-size="14.00">λ/220:244</text>
</g>
</g>
</svg>
