<?xml version="1.0" encoding="UTF-8" standalone="no"?>
<!DOCTYPE svg PUBLIC "-//W3C//DTD SVG 1.1//EN"
 "http://www.w3.org/Graphics/SVG/1.1/DTD/svg11.dtd">
<!-- Generated by graphviz version 12.0.0 (20240803.0821)
 -->
<!-- Pages: 1 -->
<svg width="2260pt" height="276pt"
 viewBox="0.00 0.00 2259.66 276.00" xmlns="http://www.w3.org/2000/svg" xmlns:xlink="http://www.w3.org/1999/xlink">
<g id="graph0" class="graph" transform="scale(1 1) rotate(0) translate(4 272)">
<polygon fill="white" stroke="none" points="-4,4 -4,-272 2255.66,-272 2255.66,4 -4,4"/>
<!-- q3:242 -->
<g id="node1" class="node">
<title>q3:242</title>
<ellipse fill="none" stroke="black" stroke-width="2" cx="491.48" cy="-180" rx="45.95" ry="18"/>
<text text-anchor="middle" x="491.48" y="-175.32" font-family="Times,serif" font-size="14.00">q3:242</text>
</g>
<!-- q6:1 -->
<g id="node2" class="node">
<title>q6:1</title>
<ellipse fill="none" stroke="black" stroke-width="2" cx="725.13" cy="-126" rx="33.32" ry="18"/>
<text text-anchor="middle" x="725.13" y="-121.33" font-family="Times,serif" font-size="14.00">q6:1</text>
</g>
<!-- q3:242&#45;&gt;q6:1 -->
<g id="edge1" class="edge">
<title>q3:242&#45;&gt;q6:1</title>
<path fill="none" stroke="black" d="M526.53,-167.58C535.83,-164.44 545.95,-161.26 555.43,-158.75 597.67,-147.57 646.79,-138.47 681.09,-132.72"/>
<polygon fill="black" stroke="black" points="681.34,-136.23 690.64,-131.15 680.2,-129.32 681.34,-136.23"/>
<text text-anchor="middle" x="608.31" y="-162.94" font-family="Times,serif" font-size="14.00">AUTH/λ:1</text>
</g>
<!-- q4:231 -->
<g id="node3" class="node">
<title>q4:231</title>
<ellipse fill="none" stroke="black" stroke-width="2" cx="725.13" cy="-183" rx="45.95" ry="18"/>
<text text-anchor="middle" x="725.13" y="-178.32" font-family="Times,serif" font-size="14.00">q4:231</text>
</g>
<!-- q3:242&#45;&gt;q4:231 -->
<g id="edge2" class="edge">
<title>q3:242&#45;&gt;q4:231</title>
<path fill="none" stroke="black" d="M538.25,-180.59C575.21,-181.07 627.42,-181.75 667.1,-182.26"/>
<polygon fill="black" stroke="black" points="666.9,-185.76 676.95,-182.39 666.99,-178.76 666.9,-185.76"/>
<text text-anchor="middle" x="608.31" y="-185.94" font-family="Times,serif" font-size="14.00">AUTH/235:229</text>
</g>
<!-- q5:12 -->
<g id="node4" class="node">
<title>q5:12</title>
<ellipse fill="none" stroke="black" stroke-width="2" cx="725.13" cy="-238" rx="39.63" ry="18"/>
<text text-anchor="middle" x="725.13" y="-233.32" font-family="Times,serif" font-size="14.00">q5:12</text>
</g>
<!-- q3:242&#45;&gt;q5:12 -->
<g id="edge3" class="edge">
<title>q3:242&#45;&gt;q5:12</title>
<path fill="none" stroke="black" d="M525.18,-192.97C534.83,-196.52 545.47,-200.16 555.43,-203 595.49,-214.41 641.89,-223.76 675.87,-229.92"/>
<polygon fill="black" stroke="black" points="674.94,-233.31 685.4,-231.61 676.17,-226.42 674.94,-233.31"/>
<text text-anchor="middle" x="608.31" y="-229.94" font-family="Times,serif" font-size="14.00">AUTH/535:12</text>
</g>
<!-- q7:229 -->
<g id="node5" class="node">
<title>q7:229</title>
<ellipse fill="none" stroke="black" stroke-width="2" cx="954.27" cy="-126" rx="45.95" ry="18"/>
<text text-anchor="middle" x="954.27" y="-121.33" font-family="Times,serif" font-size="14.00">q7:229</text>
</g>
<!-- q6:1&#45;&gt;q7:229 -->
<g id="edge4" class="edge">
<title>q6:1&#45;&gt;q7:229</title>
<path fill="none" stroke="black" d="M758.77,-122.76C768.51,-121.93 779.21,-121.16 789.08,-120.75 834.04,-118.88 845.36,-118.88 890.33,-120.75 892.64,-120.85 894.99,-120.96 897.38,-121.09"/>
<polygon fill="black" stroke="black" points="896.89,-124.57 907.09,-121.71 897.33,-117.58 896.89,-124.57"/>
<text text-anchor="middle" x="839.7" y="-124.95" font-family="Times,serif" font-size="14.00">MAIL/250:1</text>
</g>
<!-- q4:231&#45;&gt;q7:229 -->
<g id="edge5" class="edge">
<title>q4:231&#45;&gt;q7:229</title>
<path fill="none" stroke="black" d="M762.99,-171.98C771.53,-169.52 780.6,-166.98 789.08,-164.75 826.71,-154.86 869.49,-144.8 901.96,-137.41"/>
<polygon fill="black" stroke="black" points="902.53,-140.87 911.5,-135.24 900.98,-134.04 902.53,-140.87"/>
<text text-anchor="middle" x="839.7" y="-168.94" font-family="Times,serif" font-size="14.00">MAIL/250:228</text>
</g>
<!-- q8:3 -->
<g id="node6" class="node">
<title>q8:3</title>
<ellipse fill="none" stroke="black" stroke-width="2" cx="954.27" cy="-196" rx="33.32" ry="18"/>
<text text-anchor="middle" x="954.27" y="-191.32" font-family="Times,serif" font-size="14.00">q8:3</text>
</g>
<!-- q4:231&#45;&gt;q8:3 -->
<g id="edge6" class="edge">
<title>q4:231&#45;&gt;q8:3</title>
<path fill="none" stroke="black" d="M771.55,-185.6C811.53,-187.89 869.38,-191.2 909.01,-193.47"/>
<polygon fill="black" stroke="black" points="908.74,-196.96 918.92,-194.03 909.13,-189.97 908.74,-196.96"/>
<text text-anchor="middle" x="839.7" y="-195.94" font-family="Times,serif" font-size="14.00">MAIL/553:3</text>
</g>
<!-- q9:12 -->
<g id="node7" class="node">
<title>q9:12</title>
<ellipse fill="none" stroke="black" stroke-width="2" cx="954.27" cy="-250" rx="39.63" ry="18"/>
<text text-anchor="middle" x="954.27" y="-245.32" font-family="Times,serif" font-size="14.00">q9:12</text>
</g>
<!-- q5:12&#45;&gt;q9:12 -->
<g id="edge7" class="edge">
<title>q5:12&#45;&gt;q9:12</title>
<path fill="none" stroke="black" d="M765.43,-240.08C803.42,-242.08 861.15,-245.13 902.58,-247.32"/>
<polygon fill="black" stroke="black" points="902.39,-250.81 912.56,-247.85 902.76,-243.82 902.39,-250.81"/>
<text text-anchor="middle" x="839.7" y="-249.94" font-family="Times,serif" font-size="14.00">AUTH/334:12</text>
</g>
<!-- q10:229 -->
<g id="node8" class="node">
<title>q10:229</title>
<ellipse fill="none" stroke="black" stroke-width="2" cx="1196.5" cy="-126" rx="52.26" ry="18"/>
<text text-anchor="middle" x="1196.5" y="-121.33" font-family="Times,serif" font-size="14.00">q10:229</text>
</g>
<!-- q7:229&#45;&gt;q10:229 -->
<g id="edge8" class="edge">
<title>q7:229&#45;&gt;q10:229</title>
<path fill="none" stroke="black" d="M1001.02,-126C1038.1,-126 1090.8,-126 1131.9,-126"/>
<polygon fill="black" stroke="black" points="1131.69,-129.5 1141.69,-126 1131.69,-122.5 1131.69,-129.5"/>
<text text-anchor="middle" x="1072.2" y="-129.94" font-family="Times,serif" font-size="14.00">RCPT/250:229</text>
</g>
<!-- q11:3 -->
<g id="node9" class="node">
<title>q11:3</title>
<ellipse fill="none" stroke="black" stroke-width="2" cx="1196.5" cy="-196" rx="39.63" ry="18"/>
<text text-anchor="middle" x="1196.5" y="-191.32" font-family="Times,serif" font-size="14.00">q11:3</text>
</g>
<!-- q8:3&#45;&gt;q11:3 -->
<g id="edge9" class="edge">
<title>q8:3&#45;&gt;q11:3</title>
<path fill="none" stroke="black" d="M988.42,-196C1028.8,-196 1097.3,-196 1144.4,-196"/>
<polygon fill="black" stroke="black" points="1144.39,-199.5 1154.39,-196 1144.39,-192.5 1144.39,-199.5"/>
<text text-anchor="middle" x="1072.2" y="-199.94" font-family="Times,serif" font-size="14.00">RSET/250:3</text>
</g>
<!-- q12:12 -->
<g id="node10" class="node">
<title>q12:12</title>
<ellipse fill="none" stroke="black" stroke-width="2" cx="1196.5" cy="-250" rx="45.95" ry="18"/>
<text text-anchor="middle" x="1196.5" y="-245.32" font-family="Times,serif" font-size="14.00">q12:12</text>
</g>
<!-- q9:12&#45;&gt;q12:12 -->
<g id="edge10" class="edge">
<title>q9:12&#45;&gt;q12:12</title>
<path fill="none" stroke="black" d="M994.67,-250C1033.8,-250 1094.1,-250 1138.4,-250"/>
<polygon fill="black" stroke="black" points="1138.39,-253.5 1148.39,-250 1138.39,-246.5 1138.39,-253.5"/>
<text text-anchor="middle" x="1072.2" y="-253.94" font-family="Times,serif" font-size="14.00">content/535:12</text>
</g>
<!-- q13:69 -->
<g id="node11" class="node">
<title>q13:69</title>
<ellipse fill="none" stroke="black" stroke-width="2" cx="1439.8" cy="-85" rx="45.95" ry="18"/>
<text text-anchor="middle" x="1439.8" y="-80.33" font-family="Times,serif" font-size="14.00">q13:69</text>
</g>
<!-- q10:229&#45;&gt;q13:69 -->
<g id="edge11" class="edge">
<title>q10:229&#45;&gt;q13:69</title>
<path fill="none" stroke="black" d="M1243.3,-117.05C1251.1,-115.57 1259.1,-114.09 1266.7,-112.75 1306.2,-105.79 1350.9,-98.6 1384.9,-93.28"/>
<polygon fill="black" stroke="black" points="1385.07,-96.8 1394.4,-91.79 1383.98,-89.88 1385.07,-96.8"/>
<text text-anchor="middle" x="1318.1" y="-116.95" font-family="Times,serif" font-size="14.00">DATA/354:69</text>
</g>
<!-- q14:168 -->
<g id="node12" class="node">
<title>q14:168</title>
<ellipse fill="none" stroke="black" stroke-width="2" cx="1439.8" cy="-152" rx="52.26" ry="18"/>
<text text-anchor="middle" x="1439.8" y="-147.32" font-family="Times,serif" font-size="14.00">q14:168</text>
</g>
<!-- q10:229&#45;&gt;q14:168 -->
<g id="edge12" class="edge">
<title>q10:229&#45;&gt;q14:168</title>
<path fill="none" stroke="black" d="M1247.5,-131.39C1285.2,-135.46 1337.3,-141.06 1377.5,-145.4"/>
<polygon fill="black" stroke="black" points="1376.98,-148.86 1387.29,-146.46 1377.73,-141.9 1376.98,-148.86"/>
<text text-anchor="middle" x="1318.1" y="-148.94" font-family="Times,serif" font-size="14.00">RCPT/250:160</text>
</g>
<!-- q15:4 -->
<g id="node28" class="node">
<title>q15:4</title>
<ellipse fill="none" stroke="black" stroke-width="2" cx="1439.8" cy="-250" rx="39.63" ry="18"/>
<text text-anchor="middle" x="1439.8" y="-245.32" font-family="Times,serif" font-size="14.00">q15:4</text>
</g>
<!-- q12:12&#45;&gt;q15:4 -->
<g id="edge32" class="edge">
<title>q12:12&#45;&gt;q15:4</title>
<path fill="none" stroke="black" d="M1243.1,-250C1284.4,-250 1345.2,-250 1388,-250"/>
<polygon fill="black" stroke="black" points="1387.79,-253.5 1397.79,-250 1387.79,-246.5 1387.79,-253.5"/>
<text text-anchor="middle" x="1318.1" y="-253.94" font-family="Times,serif" font-size="14.00">λ/451:4</text>
</g>
<!-- q16:57 -->
<g id="node13" class="node">
<title>q16:57</title>
<ellipse fill="none" stroke="black" stroke-width="2" cx="1694.6" cy="-18" rx="45.95" ry="18"/>
<text text-anchor="middle" x="1694.6" y="-13.32" font-family="Times,serif" font-size="14.00">q16:57</text>
</g>
<!-- q13:69&#45;&gt;q16:57 -->
<g id="edge13" class="edge">
<title>q13:69&#45;&gt;q16:57</title>
<path fill="none" stroke="black" d="M1465.9,-69.39C1478.7,-62.09 1494.7,-53.89 1510,-48.75 1551.5,-34.81 1600.5,-27.01 1637.4,-22.76"/>
<polygon fill="black" stroke="black" points="1637.43,-26.28 1646.99,-21.71 1636.67,-19.32 1637.43,-26.28"/>
<text text-anchor="middle" x="1564" y="-52.95" font-family="Times,serif" font-size="14.00">content/554:57</text>
</g>
<!-- q17:3265 -->
<g id="node14" class="node">
<title>q17:3265</title>
<ellipse fill="none" stroke="black" stroke-width="2" cx="1694.6" cy="-145" rx="58.57" ry="18"/>
<text text-anchor="middle" x="1694.6" y="-140.32" font-family="Times,serif" font-size="14.00">q17:3265</text>
</g>
<!-- q13:69&#45;&gt;q17:3265 -->
<g id="edge14" class="edge">
<title>q13:69&#45;&gt;q17:3265</title>
<path fill="none" stroke="black" d="M1480.5,-94.31C1516.5,-102.72 1570.8,-115.49 1618,-126.75 1623.8,-128.14 1629.9,-129.6 1636,-131.05"/>
<polygon fill="black" stroke="black" points="1634.79,-134.36 1645.33,-133.31 1636.44,-127.55 1634.79,-134.36"/>
<text text-anchor="middle" x="1564" y="-130.94" font-family="Times,serif" font-size="14.00">content/λ:3</text>
</g>
<!-- q18:9 -->
<g id="node15" class="node">
<title>q18:9</title>
<ellipse fill="none" stroke="black" stroke-width="2" cx="1694.6" cy="-72" rx="39.63" ry="18"/>
<text text-anchor="middle" x="1694.6" y="-67.33" font-family="Times,serif" font-size="14.00">q18:9</text>
</g>
<!-- q13:69&#45;&gt;q18:9 -->
<g id="edge15" class="edge">
<title>q13:69&#45;&gt;q18:9</title>
<path fill="none" stroke="black" d="M1481.6,-76.58C1490.9,-75 1500.8,-73.58 1510,-72.75 1554.8,-68.72 1606.1,-68.91 1643,-69.89"/>
<polygon fill="black" stroke="black" points="1642.89,-73.39 1652.99,-70.19 1643.09,-66.39 1642.89,-73.39"/>
<text text-anchor="middle" x="1564" y="-76.95" font-family="Times,serif" font-size="14.00">content/250:9</text>
</g>
<!-- q14:168&#45;&gt;q14:168 -->
<g id="edge16" class="edge">
<title>q14:168&#45;&gt;q14:168</title>
<path fill="none" stroke="black" d="M1418.2,-169.04C1413.8,-178.86 1421,-188 1439.8,-188 1450.6,-188 1457.6,-184.94 1460.7,-180.47"/>
<polygon fill="black" stroke="black" points="1464.19,-180.72 1461.22,-170.55 1457.2,-180.35 1464.19,-180.72"/>
<text text-anchor="middle" x="1439.8" y="-191.94" font-family="Times,serif" font-size="14.00">RCPT/250:8</text>
</g>
<!-- q14:168&#45;&gt;q17:3265 -->
<g id="edge17" class="edge">
<title>q14:168&#45;&gt;q17:3265</title>
<path fill="none" stroke="black" d="M1492.8,-150.56C1530.8,-149.51 1582.5,-148.07 1624,-146.93"/>
<polygon fill="black" stroke="black" points="1623.99,-150.43 1633.89,-146.65 1623.79,-143.43 1623.99,-150.43"/>
<text text-anchor="middle" x="1564" y="-153.94" font-family="Times,serif" font-size="14.00">DATA/354:122</text>
</g>
<!-- q19:38 -->
<g id="node16" class="node">
<title>q19:38</title>
<ellipse fill="none" stroke="black" stroke-width="2" cx="1694.6" cy="-234" rx="45.95" ry="18"/>
<text text-anchor="middle" x="1694.6" y="-229.32" font-family="Times,serif" font-size="14.00">q19:38</text>
</g>
<!-- q14:168&#45;&gt;q19:38 -->
<g id="edge18" class="edge">
<title>q14:168&#45;&gt;q19:38</title>
<path fill="none" stroke="black" d="M1479.4,-164.54C1524.5,-179.15 1598.8,-203.27 1647,-218.9"/>
<polygon fill="black" stroke="black" points="1645.77,-222.18 1656.36,-221.92 1647.92,-215.52 1645.77,-222.18"/>
<text text-anchor="middle" x="1564" y="-210.94" font-family="Times,serif" font-size="14.00">DATA/550:38</text>
</g>
<!-- q20:57 -->
<g id="node17" class="node">
<title>q20:57</title>
<ellipse fill="none" stroke="black" stroke-width="2" cx="1958.4" cy="-18" rx="45.95" ry="18"/>
<text text-anchor="middle" x="1958.4" y="-13.32" font-family="Times,serif" font-size="14.00">q20:57</text>
</g>
<!-- q16:57&#45;&gt;q20:57 -->
<g id="edge19" class="edge">
<title>q16:57&#45;&gt;q20:57</title>
<path fill="none" stroke="black" d="M1741.5,-18C1785.7,-18 1852.6,-18 1900.2,-18"/>
<polygon fill="black" stroke="black" points="1900.09,-21.5 1910.09,-18 1900.09,-14.5 1900.09,-21.5"/>
<text text-anchor="middle" x="1829.7" y="-21.95" font-family="Times,serif" font-size="14.00">RSET/250:57</text>
</g>
<!-- q17:3265&#45;&gt;q17:3265 -->
<g id="edge20" class="edge">
<title>q17:3265&#45;&gt;q17:3265</title>
<path fill="none" stroke="black" d="M1671.3,-162.41C1666.9,-172.09 1674.7,-181 1694.6,-181 1706.1,-181 1713.5,-178.02 1716.9,-173.64"/>
<polygon fill="black" stroke="black" points="1720.36,-174.19 1717.77,-163.92 1713.39,-173.57 1720.36,-174.19"/>
<text text-anchor="middle" x="1694.6" y="-184.94" font-family="Times,serif" font-size="14.00">content/λ:3140</text>
</g>
<!-- q23:1 -->
<g id="node18" class="node">
<title>q23:1</title>
<ellipse fill="none" stroke="black" stroke-width="2" cx="1958.4" cy="-234" rx="39.63" ry="18"/>
<text text-anchor="middle" x="1958.4" y="-229.32" font-family="Times,serif" font-size="14.00">q23:1</text>
</g>
<!-- q17:3265&#45;&gt;q23:1 -->
<g id="edge21" class="edge">
<title>q17:3265&#45;&gt;q23:1</title>
<path fill="none" stroke="black" d="M1719.4,-162.21C1733.8,-171.9 1752.8,-183.53 1771.2,-191 1815.9,-209.21 1869.9,-220.61 1908.2,-227.06"/>
<polygon fill="black" stroke="black" points="1907.68,-230.52 1918.11,-228.66 1908.79,-223.61 1907.68,-230.52"/>
<text text-anchor="middle" x="1829.7" y="-225.94" font-family="Times,serif" font-size="14.00">content/550:1</text>
</g>
<!-- q22:8 -->
<g id="node19" class="node">
<title>q22:8</title>
<ellipse fill="none" stroke="black" stroke-width="2" cx="1958.4" cy="-180" rx="39.63" ry="18"/>
<text text-anchor="middle" x="1958.4" y="-175.32" font-family="Times,serif" font-size="14.00">q22:8</text>
</g>
<!-- q17:3265&#45;&gt;q22:8 -->
<g id="edge22" class="edge">
<title>q17:3265&#45;&gt;q22:8</title>
<path fill="none" stroke="black" d="M1749.5,-152.21C1796.2,-158.45 1863.1,-167.4 1908.3,-173.44"/>
<polygon fill="black" stroke="black" points="1907.72,-176.89 1918.1,-174.75 1908.65,-169.96 1907.72,-176.89"/>
<text text-anchor="middle" x="1829.7" y="-173.94" font-family="Times,serif" font-size="14.00">content/554:8</text>
</g>
<!-- q21:116 -->
<g id="node20" class="node">
<title>q21:116</title>
<ellipse fill="none" stroke="black" stroke-width="2" cx="1958.4" cy="-126" rx="52.26" ry="18"/>
<text text-anchor="middle" x="1958.4" y="-121.33" font-family="Times,serif" font-size="14.00">q21:116</text>
</g>
<!-- q17:3265&#45;&gt;q21:116 -->
<g id="edge23" class="edge">
<title>q17:3265&#45;&gt;q21:116</title>
<path fill="none" stroke="black" d="M1750.5,-138.68C1757.4,-137.97 1764.4,-137.31 1771.2,-136.75 1812.1,-133.34 1858.2,-130.67 1894.2,-128.84"/>
<polygon fill="black" stroke="black" points="1894.27,-132.34 1904.09,-128.35 1893.93,-125.35 1894.27,-132.34"/>
<text text-anchor="middle" x="1829.7" y="-140.94" font-family="Times,serif" font-size="14.00">content/250:116</text>
</g>
<!-- q24:9 -->
<g id="node21" class="node">
<title>q24:9</title>
<ellipse fill="none" stroke="black" stroke-width="2" cx="1958.4" cy="-72" rx="39.63" ry="18"/>
<text text-anchor="middle" x="1958.4" y="-67.33" font-family="Times,serif" font-size="14.00">q24:9</text>
</g>
<!-- q18:9&#45;&gt;q24:9 -->
<g id="edge24" class="edge">
<title>q18:9&#45;&gt;q24:9</title>
<path fill="none" stroke="black" d="M1735.1,-72C1780.9,-72 1856.7,-72 1906.8,-72"/>
<polygon fill="black" stroke="black" points="1906.49,-75.5 1916.49,-72 1906.49,-68.5 1906.49,-75.5"/>
<text text-anchor="middle" x="1829.7" y="-75.95" font-family="Times,serif" font-size="14.00">QUIT/221:9</text>
</g>
<!-- q27:1 -->
<g id="node24" class="node">
<title>q27:1</title>
<ellipse fill="none" stroke="black" stroke-width="2" cx="2199.4" cy="-234" rx="39.63" ry="18"/>
<text text-anchor="middle" x="2199.4" y="-229.32" font-family="Times,serif" font-size="14.00">q27:1</text>
</g>
<!-- q23:1&#45;&gt;q27:1 -->
<g id="edge28" class="edge">
<title>q23:1&#45;&gt;q27:1</title>
<path fill="none" stroke="black" d="M1998.9,-234C2039.5,-234 2103.1,-234 2147.5,-234"/>
<polygon fill="black" stroke="black" points="2147.39,-237.5 2157.39,-234 2147.39,-230.5 2147.39,-237.5"/>
<text text-anchor="middle" x="2078.9" y="-237.94" font-family="Times,serif" font-size="14.00">RSET/250:1</text>
</g>
<!-- q26:8 -->
<g id="node25" class="node">
<title>q26:8</title>
<ellipse fill="none" stroke="black" stroke-width="2" cx="2199.4" cy="-180" rx="39.63" ry="18"/>
<text text-anchor="middle" x="2199.4" y="-175.32" font-family="Times,serif" font-size="14.00">q26:8</text>
</g>
<!-- q22:8&#45;&gt;q26:8 -->
<g id="edge29" class="edge">
<title>q22:8&#45;&gt;q26:8</title>
<path fill="none" stroke="black" d="M1998.9,-180C2039.5,-180 2103.1,-180 2147.5,-180"/>
<polygon fill="black" stroke="black" points="2147.39,-183.5 2157.39,-180 2147.39,-176.5 2147.39,-183.5"/>
<text text-anchor="middle" x="2078.9" y="-183.94" font-family="Times,serif" font-size="14.00">RSET/250:8</text>
</g>
<!-- q25:116 -->
<g id="node26" class="node">
<title>q25:116</title>
<ellipse fill="none" stroke="black" stroke-width="2" cx="2199.4" cy="-126" rx="52.26" ry="18"/>
<text text-anchor="middle" x="2199.4" y="-121.33" font-family="Times,serif" font-size="14.00">q25:116</text>
</g>
<!-- q21:116&#45;&gt;q25:116 -->
<g id="edge30" class="edge">
<title>q21:116&#45;&gt;q25:116</title>
<path fill="none" stroke="black" d="M2011.6,-126C2048,-126 2096.7,-126 2135.3,-126"/>
<polygon fill="black" stroke="black" points="2134.89,-129.5 2144.89,-126 2134.89,-122.5 2134.89,-129.5"/>
<text text-anchor="middle" x="2078.9" y="-129.94" font-family="Times,serif" font-size="14.00">QUIT/221:116</text>
</g>
<!-- q1:244 -->
<g id="node22" class="node">
<title>q1:244</title>
<ellipse fill="none" stroke="black" stroke-width="2" cx="257.84" cy="-147" rx="45.95" ry="18"/>
<text text-anchor="middle" x="257.84" y="-142.32" font-family="Times,serif" font-size="14.00">q1:244</text>
</g>
<!-- q1:244&#45;&gt;q3:242 -->
<g id="edge25" class="edge">
<title>q1:244&#45;&gt;q3:242</title>
<path fill="none" stroke="black" d="M302.14,-153.17C340,-158.56 395.17,-166.42 436.02,-172.24"/>
<polygon fill="black" stroke="black" points="435.51,-175.7 445.9,-173.65 436.49,-168.77 435.51,-175.7"/>
<text text-anchor="middle" x="374.66" y="-173.94" font-family="Times,serif" font-size="14.00">EHLO/250:242</text>
</g>
<!-- q2:2 -->
<g id="node23" class="node">
<title>q2:2</title>
<ellipse fill="none" stroke="black" stroke-width="2" cx="491.48" cy="-120" rx="33.32" ry="18"/>
<text text-anchor="middle" x="491.48" y="-115.33" font-family="Times,serif" font-size="14.00">q2:2</text>
</g>
<!-- q1:244&#45;&gt;q2:2 -->
<g id="edge26" class="edge">
<title>q1:244&#45;&gt;q2:2</title>
<path fill="none" stroke="black" d="M298.66,-137.83C306.31,-136.29 314.27,-134.84 321.79,-133.75 363.67,-127.66 411.82,-124.07 445.93,-122.1"/>
<polygon fill="black" stroke="black" points="446.07,-125.6 455.86,-121.54 445.68,-118.61 446.07,-125.6"/>
<text text-anchor="middle" x="374.66" y="-137.94" font-family="Times,serif" font-size="14.00">EHLO/λ:2</text>
</g>
<!-- q2:2&#45;&gt;q4:231 -->
<g id="edge27" class="edge">
<title>q2:2&#45;&gt;q4:231</title>
<path fill="none" stroke="black" d="M520.96,-110.37C556.66,-100.16 618.37,-88.89 661.18,-115.75 676.76,-125.52 667.11,-139.13 679.18,-153 681.72,-155.92 684.61,-158.68 687.67,-161.25"/>
<polygon fill="black" stroke="black" points="685.29,-163.84 695.38,-167.08 689.51,-158.26 685.29,-163.84"/>
<text text-anchor="middle" x="608.31" y="-119.95" font-family="Times,serif" font-size="14.00">AUTH/235:2</text>
</g>
<!-- q0:244 -->
<g id="node27" class="node">
<title>q0:244</title>
<ellipse fill="none" stroke="black" stroke-width="2" cx="53.95" cy="-147" rx="49.95" ry="49.95"/>
<ellipse fill="none" stroke="black" stroke-width="2" cx="53.95" cy="-147" rx="53.95" ry="53.95"/>
<text text-anchor="middle" x="53.95" y="-142.32" font-family="Times,serif" font-size="14.00">q0:244</text>
</g>
<!-- q0:244&#45;&gt;q1:244 -->
<g id="edge31" class="edge">
<title>q0:244&#45;&gt;q1:244</title>
<path fill="none" stroke="black" d="M104.85,-147C133.64,-147 169.94,-147 199.84,-147"/>
<polygon fill="black" stroke="black" points="199.45,-150.5 209.45,-147 199.45,-143.5 199.45,-150.5"/>
<text text-anchor="middle" x="157.89" y="-150.94" font-family="Times,serif" font-size="14.00">λ/220:244</text>
</g>
</g>
</svg>
