<?xml version="1.0" encoding="UTF-8" standalone="no"?>
<!DOCTYPE svg PUBLIC "-//W3C//DTD SVG 1.1//EN"
 "http://www.w3.org/Graphics/SVG/1.1/DTD/svg11.dtd">
<!-- Generated by graphviz version 12.0.0 (20240803.0821)
 -->
<!-- Pages: 1 -->
<svg width="4520pt" height="726pt"
 viewBox="0.00 0.00 4520.16 726.41" xmlns="http://www.w3.org/2000/svg" xmlns:xlink="http://www.w3.org/1999/xlink">
<g id="graph0" class="graph" transform="scale(1 1) rotate(0) translate(4 722.41)">
<polygon fill="white" stroke="none" points="-4,4 -4,-722.41 4516.16,-722.41 4516.16,4 -4,4"/>
<!-- q18:113 -->
<g id="node1" class="node">
<title>q18:113</title>
<ellipse fill="none" stroke="black" stroke-width="2" cx="4218.9" cy="-210.86" rx="52.26" ry="18"/>
<text text-anchor="middle" x="4218.9" y="-206.19" font-family="Times,serif" font-size="14.00">q18:113</text>
</g>
<!-- q21:113 -->
<g id="node2" class="node">
<title>q21:113</title>
<ellipse fill="none" stroke="black" stroke-width="2" cx="4459.9" cy="-212.86" rx="52.26" ry="18"/>
<text text-anchor="middle" x="4459.9" y="-208.19" font-family="Times,serif" font-size="14.00">q21:113</text>
</g>
<!-- q18:113&#45;&gt;q21:113 -->
<g id="edge1" class="edge">
<title>q18:113&#45;&gt;q21:113</title>
<path fill="none" stroke="black" d="M4272,-211.3C4308.4,-211.61 4357.2,-212.01 4395.7,-212.34"/>
<polygon fill="black" stroke="black" points="4395.36,-215.84 4405.39,-212.42 4395.41,-208.84 4395.36,-215.84"/>
<text text-anchor="middle" x="4339.4" y="-216.82" font-family="Times,serif" font-size="14.00">QUIT/221:113</text>
</g>
<!-- q13:143 -->
<g id="node3" class="node">
<title>q13:143</title>
<ellipse fill="none" stroke="black" stroke-width="2" cx="508.3" cy="-190.86" rx="52.26" ry="18"/>
<text text-anchor="middle" x="508.3" y="-186.19" font-family="Times,serif" font-size="14.00">q13:143</text>
</g>
<!-- q16:43 -->
<g id="node4" class="node">
<title>q16:43</title>
<ellipse fill="none" stroke="black" stroke-width="2" cx="1694" cy="-167.87" rx="45.95" ry="18"/>
<text text-anchor="middle" x="1694" y="-163.19" font-family="Times,serif" font-size="14.00">q16:43</text>
</g>
<!-- q13:143&#45;&gt;q16:43 -->
<g id="edge2" class="edge">
<title>q13:143&#45;&gt;q16:43</title>
<path fill="none" stroke="black" d="M543.61,-176.75C554.58,-172.92 566.91,-169.29 578.56,-167.37 785.15,-133.27 1439,-157.19 1636.2,-165.39"/>
<polygon fill="black" stroke="black" points="1635.75,-168.88 1645.89,-165.8 1636.04,-161.88 1635.75,-168.88"/>
<text text-anchor="middle" x="1104.3" y="-189.06" font-family="Times,serif" font-size="14.00">DATA/550:43</text>
<text text-anchor="middle" x="1104.3" y="-171.81" font-family="Times,serif" font-size="14.00">b0 in {&#39;too many message send today.&#39;, &#39;Sender frequency limited.&#39;}</text>
</g>
<!-- q14:2683 -->
<g id="node5" class="node">
<title>q14:2683</title>
<ellipse fill="none" stroke="black" stroke-width="2" cx="3847" cy="-154.87" rx="58.57" ry="18"/>
<text text-anchor="middle" x="3847" y="-150.19" font-family="Times,serif" font-size="14.00">q14:2683</text>
</g>
<!-- q13:143&#45;&gt;q14:2683 -->
<g id="edge3" class="edge">
<title>q13:143&#45;&gt;q14:2683</title>
<path fill="none" stroke="black" d="M529.28,-173.57C542.35,-163.41 560.33,-151.48 578.56,-145.87 1052,0 1197.6,-121.87 1693,-121.87 1693,-121.87 1693,-121.87 3377.2,-121.87 3521.2,-121.87 3689.4,-137.54 3780.1,-147.29"/>
<polygon fill="black" stroke="black" points="3779.48,-150.74 3789.79,-148.34 3780.23,-143.78 3779.48,-150.74"/>
<text text-anchor="middle" x="2659.5" y="-143.07" font-family="Times,serif" font-size="14.00">DATA/354:98</text>
<text text-anchor="middle" x="2659.5" y="-125.82" font-family="Times,serif" font-size="14.00">b0 = End data with &lt;CR&gt;&lt;LF&gt;.&lt;CR&gt;&lt;LF&gt;</text>
</g>
<!-- q17:2 -->
<g id="node6" class="node">
<title>q17:2</title>
<ellipse fill="none" stroke="black" stroke-width="2" cx="1694" cy="-267.86" rx="39.63" ry="18"/>
<text text-anchor="middle" x="1694" y="-263.19" font-family="Times,serif" font-size="14.00">q17:2</text>
</g>
<!-- q13:143&#45;&gt;q17:2 -->
<g id="edge4" class="edge">
<title>q13:143&#45;&gt;q17:2</title>
<path fill="none" stroke="black" d="M532.41,-207.59C545.32,-215.95 562.08,-225.24 578.56,-229.86 782.47,-287.06 1451.9,-274.25 1642.1,-269.31"/>
<polygon fill="black" stroke="black" points="1642.08,-272.81 1651.99,-269.06 1641.9,-265.82 1642.08,-272.81"/>
<text text-anchor="middle" x="1104.3" y="-313.32" font-family="Times,serif" font-size="14.00">RCPT/250:2</text>
<text text-anchor="middle" x="1104.3" y="-296.07" font-family="Times,serif" font-size="14.00">a0 in {&#39;TO:&lt;1542110795@qq.com&gt;&#39;, &#39;TO:&lt;1542110799@qq.com&gt;&#39;}</text>
<text text-anchor="middle" x="1104.3" y="-278.82" font-family="Times,serif" font-size="14.00">b0 = Mail OK</text>
</g>
<!-- q14:2683&#45;&gt;q18:113 -->
<g id="edge5" class="edge">
<title>q14:2683&#45;&gt;q18:113</title>
<path fill="none" stroke="black" d="M3890.1,-167.79C3901,-170.78 3912.7,-173.71 3923.6,-175.86 4002.9,-191.5 4095.7,-201.13 4155.6,-206.23"/>
<polygon fill="black" stroke="black" points="4154.93,-209.69 4165.19,-207.04 4155.52,-202.71 4154.93,-209.69"/>
<text text-anchor="middle" x="4036.1" y="-209.82" font-family="Times,serif" font-size="14.00">content/250:113</text>
</g>
<!-- q14:2683&#45;&gt;q14:2683 -->
<g id="edge6" class="edge">
<title>q14:2683&#45;&gt;q14:2683</title>
<path fill="none" stroke="black" d="M3814.7,-170.41C3805.6,-180.77 3816.4,-190.86 3847,-190.86 3866.2,-190.86 3877.6,-186.92 3881.2,-181.43"/>
<polygon fill="black" stroke="black" points="3884.71,-181.21 3879.64,-171.9 3877.8,-182.34 3884.71,-181.21"/>
<text text-anchor="middle" x="3847" y="-212.06" font-family="Times,serif" font-size="14.00">content/λ:2495</text>
<text text-anchor="middle" x="3847" y="-194.81" font-family="Times,serif" font-size="14.00">a0 = b0</text>
</g>
<!-- q19:74 -->
<g id="node7" class="node">
<title>q19:74</title>
<ellipse fill="none" stroke="black" stroke-width="2" cx="4218.9" cy="-154.87" rx="45.95" ry="18"/>
<text text-anchor="middle" x="4218.9" y="-150.19" font-family="Times,serif" font-size="14.00">q19:74</text>
</g>
<!-- q14:2683&#45;&gt;q19:74 -->
<g id="edge7" class="edge">
<title>q14:2683&#45;&gt;q19:74</title>
<path fill="none" stroke="black" d="M3906.2,-154.87C3975.9,-154.87 4091.8,-154.87 4160.9,-154.87"/>
<polygon fill="black" stroke="black" points="4160.49,-158.37 4170.49,-154.87 4160.49,-151.37 4160.49,-158.37"/>
<text text-anchor="middle" x="4036.1" y="-158.82" font-family="Times,serif" font-size="14.00">content/554:74</text>
</g>
<!-- q20:1 -->
<g id="node8" class="node">
<title>q20:1</title>
<ellipse fill="none" stroke="black" stroke-width="2" cx="4218.9" cy="-96.87" rx="39.63" ry="18"/>
<text text-anchor="middle" x="4218.9" y="-92.19" font-family="Times,serif" font-size="14.00">q20:1</text>
</g>
<!-- q14:2683&#45;&gt;q20:1 -->
<g id="edge8" class="edge">
<title>q14:2683&#45;&gt;q20:1</title>
<path fill="none" stroke="black" d="M3874.3,-138.18C3888.3,-130.1 3906.3,-121.14 3923.6,-116.37 4006.9,-93.43 4108.3,-92.26 4167.7,-94.13"/>
<polygon fill="black" stroke="black" points="4167.37,-97.62 4177.49,-94.48 4167.62,-90.62 4167.37,-97.62"/>
<text text-anchor="middle" x="4036.1" y="-138.07" font-family="Times,serif" font-size="14.00">content/550:1</text>
<text text-anchor="middle" x="4036.1" y="-120.82" font-family="Times,serif" font-size="14.00">b0 = Sender frequency limited.</text>
</g>
<!-- q7:233 -->
<g id="node9" class="node">
<title>q7:233</title>
<ellipse fill="none" stroke="black" stroke-width="2" cx="2659.5" cy="-311.86" rx="45.95" ry="18"/>
<text text-anchor="middle" x="2659.5" y="-307.19" font-family="Times,serif" font-size="14.00">q7:233</text>
</g>
<!-- q17:2&#45;&gt;q7:233 -->
<g id="edge9" class="edge">
<title>q17:2&#45;&gt;q7:233</title>
<path fill="none" stroke="black" d="M1733.9,-265.58C1848.6,-259.41 2194.7,-244.86 2479.5,-275.11 2523.7,-279.82 2573.2,-290.41 2608.9,-299.01"/>
<polygon fill="black" stroke="black" points="2607.98,-302.39 2618.53,-301.37 2609.65,-295.59 2607.98,-302.39"/>
<text text-anchor="middle" x="2118.7" y="-314.32" font-family="Times,serif" font-size="14.00">RCPT/250:2</text>
<text text-anchor="middle" x="2118.7" y="-297.07" font-family="Times,serif" font-size="14.00">a0 in {&#39;TO:&lt;1542110701@qq.com&gt;&#39;, &#39;TO:&lt;1542110796@qq.com&gt;&#39;}</text>
<text text-anchor="middle" x="2118.7" y="-279.82" font-family="Times,serif" font-size="14.00">b0 = Mail OK</text>
</g>
<!-- q22:74 -->
<g id="node10" class="node">
<title>q22:74</title>
<ellipse fill="none" stroke="black" stroke-width="2" cx="4459.9" cy="-154.87" rx="45.95" ry="18"/>
<text text-anchor="middle" x="4459.9" y="-150.19" font-family="Times,serif" font-size="14.00">q22:74</text>
</g>
<!-- q19:74&#45;&gt;q22:74 -->
<g id="edge10" class="edge">
<title>q19:74&#45;&gt;q22:74</title>
<path fill="none" stroke="black" d="M4265.7,-154.87C4304.5,-154.87 4360.2,-154.87 4401.9,-154.87"/>
<polygon fill="black" stroke="black" points="4401.79,-158.37 4411.79,-154.87 4401.79,-151.37 4401.79,-158.37"/>
<text text-anchor="middle" x="4339.4" y="-176.07" font-family="Times,serif" font-size="14.00">RSET/250:74</text>
<text text-anchor="middle" x="4339.4" y="-158.82" font-family="Times,serif" font-size="14.00">b0 = OK</text>
</g>
<!-- q23:1 -->
<g id="node11" class="node">
<title>q23:1</title>
<ellipse fill="none" stroke="black" stroke-width="2" cx="4459.9" cy="-96.87" rx="39.63" ry="18"/>
<text text-anchor="middle" x="4459.9" y="-92.19" font-family="Times,serif" font-size="14.00">q23:1</text>
</g>
<!-- q20:1&#45;&gt;q23:1 -->
<g id="edge11" class="edge">
<title>q20:1&#45;&gt;q23:1</title>
<path fill="none" stroke="black" d="M4259.3,-96.87C4300,-96.87 4363.5,-96.87 4408,-96.87"/>
<polygon fill="black" stroke="black" points="4407.89,-100.37 4417.89,-96.87 4407.89,-93.37 4407.89,-100.37"/>
<text text-anchor="middle" x="4339.4" y="-118.07" font-family="Times,serif" font-size="14.00">RSET/250:1</text>
<text text-anchor="middle" x="4339.4" y="-100.82" font-family="Times,serif" font-size="14.00">a0 = b0</text>
</g>
<!-- q10:233 -->
<g id="node12" class="node">
<title>q10:233</title>
<ellipse fill="none" stroke="black" stroke-width="2" cx="3376.2" cy="-215.86" rx="52.26" ry="18"/>
<text text-anchor="middle" x="3376.2" y="-211.19" font-family="Times,serif" font-size="14.00">q10:233</text>
</g>
<!-- q7:233&#45;&gt;q10:233 -->
<g id="edge12" class="edge">
<title>q7:233&#45;&gt;q10:233</title>
<path fill="none" stroke="black" d="M2704.8,-307.36C2809.7,-296.46 3081.1,-266.83 3306,-229.86 3310.3,-229.15 3314.8,-228.35 3319.4,-227.52"/>
<polygon fill="black" stroke="black" points="3319.95,-230.98 3329.11,-225.67 3318.63,-224.11 3319.95,-230.98"/>
<text text-anchor="middle" x="3072.7" y="-313.06" font-family="Times,serif" font-size="14.00">RCPT/250:233</text>
<text text-anchor="middle" x="3072.7" y="-295.81" font-family="Times,serif" font-size="14.00">b0 in {&#39;Mail OK&#39;, &#39;ok&#39;}</text>
</g>
<!-- q10:233&#45;&gt;q13:143 -->
<g id="edge13" class="edge">
<title>q10:233&#45;&gt;q13:143</title>
<path fill="none" stroke="black" d="M3323.1,-216.08C2963.8,-217.52 861.66,-224.92 578.56,-201.86 574.74,-201.55 570.82,-201.15 566.87,-200.69"/>
<polygon fill="black" stroke="black" points="567.62,-197.26 557.25,-199.44 566.71,-204.2 567.62,-197.26"/>
<text text-anchor="middle" x="2118.7" y="-240.06" font-family="Times,serif" font-size="14.00">RCPT/250:143</text>
<text text-anchor="middle" x="2118.7" y="-222.81" font-family="Times,serif" font-size="14.00">b0 in {&#39;Mail OK&#39;, &#39;ok&#39;}</text>
</g>
<!-- q10:233&#45;&gt;q14:2683 -->
<g id="edge14" class="edge">
<title>q10:233&#45;&gt;q14:2683</title>
<path fill="none" stroke="black" d="M3426.1,-209.51C3510.9,-198.47 3685.6,-175.75 3780.7,-163.37"/>
<polygon fill="black" stroke="black" points="3780.93,-166.87 3790.4,-162.1 3780.03,-159.92 3780.93,-166.87"/>
<text text-anchor="middle" x="3608.5" y="-227.06" font-family="Times,serif" font-size="14.00">DATA/354:90</text>
<text text-anchor="middle" x="3608.5" y="-209.81" font-family="Times,serif" font-size="14.00">b0 = End data with &lt;CR&gt;&lt;LF&gt;.&lt;CR&gt;&lt;LF&gt;</text>
</g>
<!-- q3:2 -->
<g id="node13" class="node">
<title>q3:2</title>
<ellipse fill="none" stroke="black" stroke-width="2" cx="508.3" cy="-369.86" rx="33.32" ry="18"/>
<text text-anchor="middle" x="508.3" y="-365.19" font-family="Times,serif" font-size="14.00">q3:2</text>
</g>
<!-- q4:233 -->
<g id="node14" class="node">
<title>q4:233</title>
<ellipse fill="none" stroke="black" stroke-width="2" cx="1694" cy="-453.86" rx="45.95" ry="18"/>
<text text-anchor="middle" x="1694" y="-449.19" font-family="Times,serif" font-size="14.00">q4:233</text>
</g>
<!-- q3:2&#45;&gt;q4:233 -->
<g id="edge15" class="edge">
<title>q3:2&#45;&gt;q4:233</title>
<path fill="none" stroke="black" d="M536.48,-359.22C549.07,-354.84 564.36,-350.29 578.56,-348.11 636.3,-339.26 1583.8,-312.42 1630.1,-348.11 1655.1,-367.41 1631,-390.26 1648.1,-416.86 1651.2,-421.85 1655.3,-426.48 1659.7,-430.67"/>
<polygon fill="black" stroke="black" points="1657.39,-433.3 1667.25,-437.17 1661.95,-427.99 1657.39,-433.3"/>
<text text-anchor="middle" x="1104.3" y="-387.32" font-family="Times,serif" font-size="14.00">AUTH/235:2</text>
<text text-anchor="middle" x="1104.3" y="-370.07" font-family="Times,serif" font-size="14.00">a0 in {&#39;PLAIN AEF6NjE2MUBzaW5hLmNvbQA2ZmRiMjVjZmNjODYyZWZj&#39;, &#39;PLAIN AEF6NjE2MUAxMjYuY29tAE1VUVNBT1NUWElURkpDVUU=&#39;}</text>
<text text-anchor="middle" x="1104.3" y="-352.82" font-family="Times,serif" font-size="14.00">b0 in {&#39;Authentication successful&#39;, &#39;OK Authenticated&#39;}</text>
</g>
<!-- q4:233&#45;&gt;q7:233 -->
<g id="edge16" class="edge">
<title>q4:233&#45;&gt;q7:233</title>
<path fill="none" stroke="black" d="M1719.4,-437.89C1730.6,-431.39 1744.5,-424.6 1758,-421.11 1913.2,-380.94 2323.9,-440.97 2479.5,-401.86 2533.8,-388.2 2590.6,-356.1 2625.3,-334.17"/>
<polygon fill="black" stroke="black" points="2627.11,-337.17 2633.63,-328.82 2623.32,-331.28 2627.11,-337.17"/>
<text text-anchor="middle" x="2118.7" y="-459.32" font-family="Times,serif" font-size="14.00">MAIL/250:230</text>
<text text-anchor="middle" x="2118.7" y="-442.07" font-family="Times,serif" font-size="14.00">a0 in {&#39;FROM:&lt;Az6161@126.com&gt;&#39;, &#39;FROM:&lt;Az6161@sina.com&gt;&#39;}</text>
<text text-anchor="middle" x="2118.7" y="-424.82" font-family="Times,serif" font-size="14.00">b0 in {&#39;Mail OK&#39;, &#39;ok&#39;}</text>
</g>
<!-- q8:3 -->
<g id="node15" class="node">
<title>q8:3</title>
<ellipse fill="none" stroke="black" stroke-width="2" cx="2659.5" cy="-498.86" rx="33.32" ry="18"/>
<text text-anchor="middle" x="2659.5" y="-494.19" font-family="Times,serif" font-size="14.00">q8:3</text>
</g>
<!-- q4:233&#45;&gt;q8:3 -->
<g id="edge17" class="edge">
<title>q4:233&#45;&gt;q8:3</title>
<path fill="none" stroke="black" d="M1726.1,-467.51C1736.1,-471.26 1747.3,-474.85 1758,-476.86 1924.9,-508.52 2457.3,-502.28 2614.4,-499.68"/>
<polygon fill="black" stroke="black" points="2614.05,-503.19 2623.99,-499.52 2613.93,-496.19 2614.05,-503.19"/>
<text text-anchor="middle" x="2118.7" y="-540.32" font-family="Times,serif" font-size="14.00">MAIL/553:3</text>
<text text-anchor="middle" x="2118.7" y="-523.07" font-family="Times,serif" font-size="14.00">a0 in {&#39;FROM:&lt;Az_6161@sina.com&gt;&#39;, &#39;FROM:&lt;Az_6161@126.com&gt;&#39;, &#39;FROM:&lt;Az6161@163.com&gt;&#39;}</text>
<text text-anchor="middle" x="2118.7" y="-505.82" font-family="Times,serif" font-size="14.00">b0 in {&#39;Mail from must equal authorized user&#39;, &#39;Envolope sender mismatch with login user..&#39;}</text>
</g>
<!-- q11:3 -->
<g id="node16" class="node">
<title>q11:3</title>
<ellipse fill="none" stroke="black" stroke-width="2" cx="3376.2" cy="-498.86" rx="39.63" ry="18"/>
<text text-anchor="middle" x="3376.2" y="-494.19" font-family="Times,serif" font-size="14.00">q11:3</text>
</g>
<!-- q8:3&#45;&gt;q11:3 -->
<g id="edge18" class="edge">
<title>q8:3&#45;&gt;q11:3</title>
<path fill="none" stroke="black" d="M2693.5,-498.86C2807.7,-498.86 3186.1,-498.86 3324.2,-498.86"/>
<polygon fill="black" stroke="black" points="3324.19,-502.36 3334.19,-498.86 3324.19,-495.36 3324.19,-502.36"/>
<text text-anchor="middle" x="3072.7" y="-520.06" font-family="Times,serif" font-size="14.00">RSET/250:3</text>
<text text-anchor="middle" x="3072.7" y="-502.81" font-family="Times,serif" font-size="14.00">b0 in {&#39;flushed&#39;, &#39;OK&#39;}</text>
</g>
<!-- q1:244 -->
<g id="node17" class="node">
<title>q1:244</title>
<ellipse fill="none" stroke="black" stroke-width="2" cx="257.84" cy="-408.86" rx="45.95" ry="18"/>
<text text-anchor="middle" x="257.84" y="-404.19" font-family="Times,serif" font-size="14.00">q1:244</text>
</g>
<!-- q1:244&#45;&gt;q3:2 -->
<g id="edge19" class="edge">
<title>q1:244&#45;&gt;q3:2</title>
<path fill="none" stroke="black" d="M293.81,-396.7C302.84,-393.93 312.6,-391.25 321.79,-389.36 369.51,-379.56 425.21,-374.55 463.03,-372.08"/>
<polygon fill="black" stroke="black" points="462.88,-375.6 472.65,-371.49 462.45,-368.61 462.88,-375.6"/>
<text text-anchor="middle" x="379.91" y="-410.06" font-family="Times,serif" font-size="14.00">EHLO/λ:2</text>
<text text-anchor="middle" x="379.91" y="-392.81" font-family="Times,serif" font-size="14.00">a0 = [127.0.1.1]</text>
</g>
<!-- q2:242 -->
<g id="node18" class="node">
<title>q2:242</title>
<ellipse fill="none" stroke="black" stroke-width="2" cx="508.3" cy="-454.86" rx="45.95" ry="18"/>
<text text-anchor="middle" x="508.3" y="-450.19" font-family="Times,serif" font-size="14.00">q2:242</text>
</g>
<!-- q1:244&#45;&gt;q2:242 -->
<g id="edge20" class="edge">
<title>q1:244&#45;&gt;q2:242</title>
<path fill="none" stroke="black" d="M298.04,-418.64C305.88,-420.48 314.08,-422.3 321.79,-423.86 365.87,-432.79 416.23,-441.09 453.34,-446.85"/>
<polygon fill="black" stroke="black" points="452.5,-450.26 462.91,-448.32 453.56,-443.34 452.5,-450.26"/>
<text text-anchor="middle" x="379.91" y="-447.82" font-family="Times,serif" font-size="14.00">EHLO/250:242</text>
</g>
<!-- q2:242&#45;&gt;q4:233 -->
<g id="edge21" class="edge">
<title>q2:242&#45;&gt;q4:233</title>
<path fill="none" stroke="black" d="M553.21,-459.98C561.62,-460.76 570.35,-461.45 578.56,-461.86 1045.3,-485.39 1163.7,-491.38 1630.1,-461.86 1632.7,-461.69 1635.5,-461.48 1638.3,-461.24"/>
<polygon fill="black" stroke="black" points="1638.6,-464.73 1648.19,-460.24 1637.89,-457.77 1638.6,-464.73"/>
<text text-anchor="middle" x="1104.3" y="-519.32" font-family="Times,serif" font-size="14.00">AUTH/235:231</text>
<text text-anchor="middle" x="1104.3" y="-502.07" font-family="Times,serif" font-size="14.00">a0 in {&#39;PLAIN AEF6NjE2MUBzaW5hLmNvbQA2ZmRiMjVjZmNjODYyZWZj&#39;, &#39;PLAIN AEF6NjE2MUAxMjYuY29tAE1VUVNBT1NUWElURkpDVUU=&#39;}</text>
<text text-anchor="middle" x="1104.3" y="-484.82" font-family="Times,serif" font-size="14.00">b0 in {&#39;Authentication successful&#39;, &#39;OK Authenticated&#39;}</text>
</g>
<!-- q6:10 -->
<g id="node19" class="node">
<title>q6:10</title>
<ellipse fill="none" stroke="black" stroke-width="2" cx="1694" cy="-569.86" rx="39.63" ry="18"/>
<text text-anchor="middle" x="1694" y="-565.19" font-family="Times,serif" font-size="14.00">q6:10</text>
</g>
<!-- q2:242&#45;&gt;q6:10 -->
<g id="edge22" class="edge">
<title>q2:242&#45;&gt;q6:10</title>
<path fill="none" stroke="black" d="M518.63,-473.16C529.85,-492.93 550.7,-523.42 578.56,-536.86 954.86,-718.41 1488.9,-617.27 1647.1,-581.08"/>
<polygon fill="black" stroke="black" points="1647.87,-584.5 1656.82,-578.83 1646.29,-577.68 1647.87,-584.5"/>
<text text-anchor="middle" x="1104.3" y="-663.06" font-family="Times,serif" font-size="14.00">AUTH/535:10</text>
<text text-anchor="middle" x="1104.3" y="-645.81" font-family="Times,serif" font-size="14.00">b0 in {&#39;5.7.8 authentication failed&#39;, &#39;Error: authentication failed&#39;}</text>
</g>
<!-- q5:1 -->
<g id="node20" class="node">
<title>q5:1</title>
<ellipse fill="none" stroke="black" stroke-width="2" cx="1694" cy="-389.86" rx="33.32" ry="18"/>
<text text-anchor="middle" x="1694" y="-385.19" font-family="Times,serif" font-size="14.00">q5:1</text>
</g>
<!-- q2:242&#45;&gt;q5:1 -->
<g id="edge23" class="edge">
<title>q2:242&#45;&gt;q5:1</title>
<path fill="none" stroke="black" d="M536.03,-439.61C548.53,-433.3 563.87,-426.69 578.56,-423.36 692.53,-397.56 1514,-417.7 1630.1,-403.86 1637.2,-403.01 1644.7,-401.7 1652,-400.22"/>
<polygon fill="black" stroke="black" points="1652.6,-403.67 1661.62,-398.12 1651.1,-396.83 1652.6,-403.67"/>
<text text-anchor="middle" x="1104.3" y="-444.06" font-family="Times,serif" font-size="14.00">AUTH/λ:1</text>
<text text-anchor="middle" x="1104.3" y="-426.81" font-family="Times,serif" font-size="14.00">a0 = PLAIN AEF6NjE2MUAxMjYuY29tAE1VUVNBT1NUWElURkpDVUU=</text>
</g>
<!-- q9:10 -->
<g id="node21" class="node">
<title>q9:10</title>
<ellipse fill="none" stroke="black" stroke-width="2" cx="2659.5" cy="-573.86" rx="39.63" ry="18"/>
<text text-anchor="middle" x="2659.5" y="-569.19" font-family="Times,serif" font-size="14.00">q9:10</text>
</g>
<!-- q6:10&#45;&gt;q9:10 -->
<g id="edge24" class="edge">
<title>q6:10&#45;&gt;q9:10</title>
<path fill="none" stroke="black" d="M1734.6,-570.03C1887.1,-570.66 2436.6,-572.94 2607.4,-573.65"/>
<polygon fill="black" stroke="black" points="2607.27,-577.15 2617.29,-573.7 2607.3,-570.15 2607.27,-577.15"/>
<text text-anchor="middle" x="2118.7" y="-594.06" font-family="Times,serif" font-size="14.00">AUTH/334:10</text>
<text text-anchor="middle" x="2118.7" y="-576.81" font-family="Times,serif" font-size="14.00">b0 = UGFzc3dvcmQ6</text>
</g>
<!-- q5:1&#45;&gt;q7:233 -->
<g id="edge25" class="edge">
<title>q5:1&#45;&gt;q7:233</title>
<path fill="none" stroke="black" d="M1713.5,-374.44C1725.4,-365.53 1741.6,-355.12 1758,-350.11 1834.6,-326.59 2399.4,-331.51 2479.5,-326.86 2520.9,-324.46 2567.6,-320.5 2602.9,-317.26"/>
<polygon fill="black" stroke="black" points="2602.86,-320.78 2612.49,-316.37 2602.21,-313.81 2602.86,-320.78"/>
<text text-anchor="middle" x="2118.7" y="-389.32" font-family="Times,serif" font-size="14.00">MAIL/250:1</text>
<text text-anchor="middle" x="2118.7" y="-372.07" font-family="Times,serif" font-size="14.00">a0 = FROM:&lt;Az6161@126.com&gt;</text>
<text text-anchor="middle" x="2118.7" y="-354.82" font-family="Times,serif" font-size="14.00">b0 = Mail OK</text>
</g>
<!-- q12:10 -->
<g id="node22" class="node">
<title>q12:10</title>
<ellipse fill="none" stroke="black" stroke-width="2" cx="3376.2" cy="-573.86" rx="45.95" ry="18"/>
<text text-anchor="middle" x="3376.2" y="-569.19" font-family="Times,serif" font-size="14.00">q12:10</text>
</g>
<!-- q9:10&#45;&gt;q12:10 -->
<g id="edge26" class="edge">
<title>q9:10&#45;&gt;q12:10</title>
<path fill="none" stroke="black" d="M2699.9,-573.86C2819.5,-573.86 3178.1,-573.86 3318.3,-573.86"/>
<polygon fill="black" stroke="black" points="3317.99,-577.36 3327.99,-573.86 3317.99,-570.36 3317.99,-577.36"/>
<text text-anchor="middle" x="3072.7" y="-595.06" font-family="Times,serif" font-size="14.00">content/535:10</text>
<text text-anchor="middle" x="3072.7" y="-577.81" font-family="Times,serif" font-size="14.00">b0 in {&#39;5.7.8 authentication failed&#39;, &#39;Error: authentication failed&#39;}</text>
</g>
<!-- q15:2 -->
<g id="node23" class="node">
<title>q15:2</title>
<ellipse fill="none" stroke="black" stroke-width="2" cx="3847" cy="-573.86" rx="39.63" ry="18"/>
<text text-anchor="middle" x="3847" y="-569.19" font-family="Times,serif" font-size="14.00">q15:2</text>
</g>
<!-- q12:10&#45;&gt;q15:2 -->
<g id="edge27" class="edge">
<title>q12:10&#45;&gt;q15:2</title>
<path fill="none" stroke="black" d="M3423,-573.86C3511,-573.86 3703,-573.86 3794.9,-573.86"/>
<polygon fill="black" stroke="black" points="3794.89,-577.36 3804.89,-573.86 3794.89,-570.36 3794.89,-577.36"/>
<text text-anchor="middle" x="3608.5" y="-595.06" font-family="Times,serif" font-size="14.00">λ/451:2</text>
<text text-anchor="middle" x="3608.5" y="-577.81" font-family="Times,serif" font-size="14.00">b0 = Timeout.</text>
</g>
<!-- q0:244 -->
<g id="node24" class="node">
<title>q0:244</title>
<ellipse fill="none" stroke="black" stroke-width="2" cx="53.95" cy="-408.86" rx="49.95" ry="49.95"/>
<ellipse fill="none" stroke="black" stroke-width="2" cx="53.95" cy="-408.86" rx="53.95" ry="53.95"/>
<text text-anchor="middle" x="53.95" y="-404.19" font-family="Times,serif" font-size="14.00">q0:244</text>
</g>
<!-- q0:244&#45;&gt;q1:244 -->
<g id="edge28" class="edge">
<title>q0:244&#45;&gt;q1:244</title>
<path fill="none" stroke="black" d="M104.85,-408.86C133.64,-408.86 169.94,-408.86 199.84,-408.86"/>
<polygon fill="black" stroke="black" points="199.45,-412.36 209.45,-408.86 199.45,-405.36 199.45,-412.36"/>
<text text-anchor="middle" x="157.89" y="-412.82" font-family="Times,serif" font-size="14.00">λ/220:244</text>
</g>
</g>
</svg>
