<?xml version="1.0" encoding="UTF-8" standalone="no"?>
<!DOCTYPE svg PUBLIC "-//W3C//DTD SVG 1.1//EN"
 "http://www.w3.org/Graphics/SVG/1.1/DTD/svg11.dtd">
<!-- Generated by graphviz version 12.0.0 (20240803.0821)
 -->
<!-- Pages: 1 -->
<svg width="2247pt" height="264pt"
 viewBox="0.00 0.00 2247.06 264.25" xmlns="http://www.w3.org/2000/svg" xmlns:xlink="http://www.w3.org/1999/xlink">
<g id="graph0" class="graph" transform="scale(1 1) rotate(0) translate(4 260.25)">
<polygon fill="white" stroke="none" points="-4,4 -4,-260.25 2243.06,-260.25 2243.06,4 -4,4"/>
<!-- q3:1 -->
<g id="node1" class="node">
<title>q3:1</title>
<ellipse fill="none" stroke="black" stroke-width="2" cx="491.48" cy="-140" rx="33.32" ry="18"/>
<text text-anchor="middle" x="491.48" y="-135.32" font-family="Times,serif" font-size="14.00">q3:1</text>
</g>
<!-- q5:231 -->
<g id="node2" class="node">
<title>q5:231</title>
<ellipse fill="none" stroke="black" stroke-width="2" cx="725.13" cy="-141" rx="45.95" ry="18"/>
<text text-anchor="middle" x="725.13" y="-136.32" font-family="Times,serif" font-size="14.00">q5:231</text>
</g>
<!-- q3:1&#45;&gt;q5:231 -->
<g id="edge1" class="edge">
<title>q3:1&#45;&gt;q5:231</title>
<path fill="none" stroke="black" d="M525.67,-140.14C562.42,-140.3 622.33,-140.56 666.72,-140.75"/>
<polygon fill="black" stroke="black" points="666.69,-144.25 676.71,-140.79 666.72,-137.25 666.69,-144.25"/>
<text text-anchor="middle" x="608.31" y="-143.94" font-family="Times,serif" font-size="14.00">AUTH/235:1</text>
</g>
<!-- q9:3 -->
<g id="node3" class="node">
<title>q9:3</title>
<ellipse fill="none" stroke="black" stroke-width="2" cx="954.27" cy="-179" rx="33.32" ry="18"/>
<text text-anchor="middle" x="954.27" y="-174.32" font-family="Times,serif" font-size="14.00">q9:3</text>
</g>
<!-- q5:231&#45;&gt;q9:3 -->
<g id="edge2" class="edge">
<title>q5:231&#45;&gt;q9:3</title>
<path fill="none" stroke="black" d="M768.1,-148.4C775.11,-149.61 782.29,-150.85 789.08,-152 830.22,-158.98 877.22,-166.68 910.36,-172.06"/>
<polygon fill="black" stroke="black" points="909.54,-175.47 919.98,-173.63 910.67,-168.56 909.54,-175.47"/>
<text text-anchor="middle" x="839.7" y="-171.94" font-family="Times,serif" font-size="14.00">MAIL/553:3</text>
</g>
<!-- q8:228 -->
<g id="node4" class="node">
<title>q8:228</title>
<ellipse fill="none" stroke="black" stroke-width="2" cx="954.27" cy="-125" rx="45.95" ry="18"/>
<text text-anchor="middle" x="954.27" y="-120.33" font-family="Times,serif" font-size="14.00">q8:228</text>
</g>
<!-- q5:231&#45;&gt;q8:228 -->
<g id="edge3" class="edge">
<title>q5:231&#45;&gt;q8:228</title>
<path fill="none" stroke="black" d="M770.47,-136.37C776.71,-135.79 783.05,-135.23 789.08,-134.75 824.82,-131.92 865.01,-129.52 896.68,-127.81"/>
<polygon fill="black" stroke="black" points="896.63,-131.32 906.43,-127.29 896.26,-124.33 896.63,-131.32"/>
<text text-anchor="middle" x="839.7" y="-137.94" font-family="Times,serif" font-size="14.00">MAIL/250:228</text>
</g>
<!-- q13:3 -->
<g id="node5" class="node">
<title>q13:3</title>
<ellipse fill="none" stroke="black" stroke-width="2" cx="1190.2" cy="-179" rx="39.63" ry="18"/>
<text text-anchor="middle" x="1190.2" y="-174.32" font-family="Times,serif" font-size="14.00">q13:3</text>
</g>
<!-- q9:3&#45;&gt;q13:3 -->
<g id="edge4" class="edge">
<title>q9:3&#45;&gt;q13:3</title>
<path fill="none" stroke="black" d="M988.29,-179C1027.3,-179 1092.7,-179 1138.3,-179"/>
<polygon fill="black" stroke="black" points="1138.19,-182.5 1148.19,-179 1138.19,-175.5 1138.19,-182.5"/>
<text text-anchor="middle" x="1072.2" y="-182.94" font-family="Times,serif" font-size="14.00">RSET/250:3</text>
</g>
<!-- q7:233 -->
<g id="node6" class="node">
<title>q7:233</title>
<ellipse fill="none" stroke="black" stroke-width="2" cx="1190.2" cy="-123" rx="45.95" ry="18"/>
<text text-anchor="middle" x="1190.2" y="-118.33" font-family="Times,serif" font-size="14.00">q7:233</text>
</g>
<!-- q8:228&#45;&gt;q7:233 -->
<g id="edge5" class="edge">
<title>q8:228&#45;&gt;q7:233</title>
<path fill="none" stroke="black" d="M1001.2,-124.61C1038.6,-124.29 1091.6,-123.83 1131.8,-123.49"/>
<polygon fill="black" stroke="black" points="1131.82,-126.99 1141.79,-123.4 1131.76,-119.99 1131.82,-126.99"/>
<text text-anchor="middle" x="1072.2" y="-127.95" font-family="Times,serif" font-size="14.00">RCPT/250:228</text>
</g>
<!-- q12:144 -->
<g id="node7" class="node">
<title>q12:144</title>
<ellipse fill="none" stroke="black" stroke-width="2" cx="1427.1" cy="-163" rx="52.26" ry="18"/>
<text text-anchor="middle" x="1427.1" y="-158.32" font-family="Times,serif" font-size="14.00">q12:144</text>
</g>
<!-- q7:233&#45;&gt;q12:144 -->
<g id="edge6" class="edge">
<title>q7:233&#45;&gt;q12:144</title>
<path fill="none" stroke="black" d="M1227.5,-134.41C1236.2,-136.84 1245.4,-139.21 1254.1,-141 1290.3,-148.43 1331.2,-153.79 1364.1,-157.36"/>
<polygon fill="black" stroke="black" points="1363.58,-160.82 1373.89,-158.39 1364.32,-153.86 1363.58,-160.82"/>
<text text-anchor="middle" x="1305.5" y="-159.94" font-family="Times,serif" font-size="14.00">RCPT/250:144</text>
</g>
<!-- q11:163 -->
<g id="node8" class="node">
<title>q11:163</title>
<ellipse fill="none" stroke="black" stroke-width="2" cx="1427.1" cy="-74" rx="52.26" ry="18"/>
<text text-anchor="middle" x="1427.1" y="-69.33" font-family="Times,serif" font-size="14.00">q11:163</text>
</g>
<!-- q7:233&#45;&gt;q11:163 -->
<g id="edge7" class="edge">
<title>q7:233&#45;&gt;q11:163</title>
<path fill="none" stroke="black" d="M1217,-107.58C1228,-101.66 1241.3,-95.45 1254.1,-91.75 1289.2,-81.59 1329.8,-77.08 1362.7,-75.14"/>
<polygon fill="black" stroke="black" points="1362.68,-78.65 1372.49,-74.64 1362.32,-71.66 1362.68,-78.65"/>
<text text-anchor="middle" x="1305.5" y="-95.95" font-family="Times,serif" font-size="14.00">DATA/354:89</text>
</g>
<!-- q12:144&#45;&gt;q7:233 -->
<g id="edge9" class="edge">
<title>q12:144&#45;&gt;q7:233</title>
<path fill="none" stroke="black" d="M1395.7,-147.71C1388.8,-144.02 1381.5,-139.99 1374.9,-136 1366.6,-131.02 1366.1,-126.62 1356.9,-123.75 1320.9,-112.57 1278.3,-112.64 1245.3,-115.37"/>
<polygon fill="black" stroke="black" points="1245.23,-111.86 1235.61,-116.3 1245.89,-118.83 1245.23,-111.86"/>
<text text-anchor="middle" x="1305.5" y="-126.95" font-family="Times,serif" font-size="14.00">RCPT/250:4</text>
</g>
<!-- q17:3106 -->
<g id="node11" class="node">
<title>q17:3106</title>
<ellipse fill="none" stroke="black" stroke-width="2" cx="1682" cy="-203" rx="58.57" ry="18"/>
<text text-anchor="middle" x="1682" y="-198.32" font-family="Times,serif" font-size="14.00">q17:3106</text>
</g>
<!-- q12:144&#45;&gt;q17:3106 -->
<g id="edge10" class="edge">
<title>q12:144&#45;&gt;q17:3106</title>
<path fill="none" stroke="black" d="M1475.8,-170.58C1483,-171.73 1490.4,-172.9 1497.4,-174 1537.4,-180.33 1582.2,-187.42 1617.6,-193"/>
<polygon fill="black" stroke="black" points="1616.78,-196.41 1627.2,-194.52 1617.88,-189.5 1616.78,-196.41"/>
<text text-anchor="middle" x="1551.4" y="-193.94" font-family="Times,serif" font-size="14.00">DATA/354:120</text>
</g>
<!-- q18:20 -->
<g id="node12" class="node">
<title>q18:20</title>
<ellipse fill="none" stroke="black" stroke-width="2" cx="1682" cy="-149" rx="45.95" ry="18"/>
<text text-anchor="middle" x="1682" y="-144.32" font-family="Times,serif" font-size="14.00">q18:20</text>
</g>
<!-- q12:144&#45;&gt;q18:20 -->
<g id="edge11" class="edge">
<title>q12:144&#45;&gt;q18:20</title>
<path fill="none" stroke="black" d="M1478.4,-158.18C1484.8,-157.65 1491.2,-157.16 1497.4,-156.75 1539.7,-153.95 1587.7,-151.96 1623.9,-150.7"/>
<polygon fill="black" stroke="black" points="1623.91,-154.2 1633.79,-150.37 1623.68,-147.21 1623.91,-154.2"/>
<text text-anchor="middle" x="1551.4" y="-159.94" font-family="Times,serif" font-size="14.00">DATA/550:20</text>
</g>
<!-- q11:163&#45;&gt;q11:163 -->
<g id="edge16" class="edge">
<title>q11:163&#45;&gt;q11:163</title>
<path fill="none" stroke="black" d="M1405.6,-91.04C1401.2,-100.86 1408.4,-110 1427.1,-110 1438,-110 1445,-106.94 1448.1,-102.47"/>
<polygon fill="black" stroke="black" points="1451.59,-102.72 1448.62,-92.55 1444.6,-102.35 1451.59,-102.72"/>
<text text-anchor="middle" x="1427.1" y="-113.95" font-family="Times,serif" font-size="14.00">content/λ:74</text>
</g>
<!-- q16:24 -->
<g id="node9" class="node">
<title>q16:24</title>
<ellipse fill="none" stroke="black" stroke-width="2" cx="1682" cy="-95" rx="45.95" ry="18"/>
<text text-anchor="middle" x="1682" y="-90.33" font-family="Times,serif" font-size="14.00">q16:24</text>
</g>
<!-- q11:163&#45;&gt;q16:24 -->
<g id="edge15" class="edge">
<title>q11:163&#45;&gt;q16:24</title>
<path fill="none" stroke="black" d="M1479,-78.22C1521.2,-81.73 1581.2,-86.72 1624.8,-90.34"/>
<polygon fill="black" stroke="black" points="1624.34,-93.81 1634.59,-91.15 1624.91,-86.84 1624.34,-93.81"/>
<text text-anchor="middle" x="1551.4" y="-92.95" font-family="Times,serif" font-size="14.00">content/250:24</text>
</g>
<!-- q15:65 -->
<g id="node15" class="node">
<title>q15:65</title>
<ellipse fill="none" stroke="black" stroke-width="2" cx="1682" cy="-41" rx="45.95" ry="18"/>
<text text-anchor="middle" x="1682" y="-36.33" font-family="Times,serif" font-size="14.00">q15:65</text>
</g>
<!-- q11:163&#45;&gt;q15:65 -->
<g id="edge17" class="edge">
<title>q11:163&#45;&gt;q15:65</title>
<path fill="none" stroke="black" d="M1472.3,-64.21C1480.6,-62.57 1489.3,-61 1497.4,-59.75 1539.8,-53.23 1588.1,-48.4 1624.5,-45.28"/>
<polygon fill="black" stroke="black" points="1624.72,-48.77 1634.39,-44.45 1624.13,-41.8 1624.72,-48.77"/>
<text text-anchor="middle" x="1551.4" y="-63.95" font-family="Times,serif" font-size="14.00">content/554:65</text>
</g>
<!-- q21:24 -->
<g id="node10" class="node">
<title>q21:24</title>
<ellipse fill="none" stroke="black" stroke-width="2" cx="1945.8" cy="-95" rx="45.95" ry="18"/>
<text text-anchor="middle" x="1945.8" y="-90.33" font-family="Times,serif" font-size="14.00">q21:24</text>
</g>
<!-- q16:24&#45;&gt;q21:24 -->
<g id="edge8" class="edge">
<title>q16:24&#45;&gt;q21:24</title>
<path fill="none" stroke="black" d="M1728.9,-95C1773,-95 1840,-95 1887.6,-95"/>
<polygon fill="black" stroke="black" points="1887.39,-98.5 1897.39,-95 1887.39,-91.5 1887.39,-98.5"/>
<text text-anchor="middle" x="1817" y="-98.95" font-family="Times,serif" font-size="14.00">QUIT/221:24</text>
</g>
<!-- q17:3106&#45;&gt;q17:3106 -->
<g id="edge12" class="edge">
<title>q17:3106&#45;&gt;q17:3106</title>
<path fill="none" stroke="black" d="M1658.6,-220.41C1654.3,-230.09 1662.1,-239 1682,-239 1693.5,-239 1700.9,-236.02 1704.3,-231.64"/>
<polygon fill="black" stroke="black" points="1707.76,-232.19 1705.17,-221.92 1700.79,-231.57 1707.76,-232.19"/>
<text text-anchor="middle" x="1682" y="-242.94" font-family="Times,serif" font-size="14.00">content/λ:2986</text>
</g>
<!-- q23:111 -->
<g id="node13" class="node">
<title>q23:111</title>
<ellipse fill="none" stroke="black" stroke-width="2" cx="1945.8" cy="-206" rx="52.26" ry="18"/>
<text text-anchor="middle" x="1945.8" y="-201.32" font-family="Times,serif" font-size="14.00">q23:111</text>
</g>
<!-- q17:3106&#45;&gt;q23:111 -->
<g id="edge13" class="edge">
<title>q17:3106&#45;&gt;q23:111</title>
<path fill="none" stroke="black" d="M1741.4,-203.67C1782.9,-204.15 1838.7,-204.78 1881.4,-205.27"/>
<polygon fill="black" stroke="black" points="1881.15,-208.77 1891.19,-205.38 1881.23,-201.77 1881.15,-208.77"/>
<text text-anchor="middle" x="1817" y="-208.94" font-family="Times,serif" font-size="14.00">content/250:111</text>
</g>
<!-- q22:9 -->
<g id="node14" class="node">
<title>q22:9</title>
<ellipse fill="none" stroke="black" stroke-width="2" cx="1945.8" cy="-152" rx="39.63" ry="18"/>
<text text-anchor="middle" x="1945.8" y="-147.32" font-family="Times,serif" font-size="14.00">q22:9</text>
</g>
<!-- q17:3106&#45;&gt;q22:9 -->
<g id="edge14" class="edge">
<title>q17:3106&#45;&gt;q22:9</title>
<path fill="none" stroke="black" d="M1725.5,-190.11C1736.2,-187.12 1747.7,-184.12 1758.5,-181.75 1804.6,-171.63 1857.8,-163.47 1895.6,-158.28"/>
<polygon fill="black" stroke="black" points="1895.76,-161.79 1905.2,-156.97 1894.82,-154.85 1895.76,-161.79"/>
<text text-anchor="middle" x="1817" y="-184.94" font-family="Times,serif" font-size="14.00">content/554:9</text>
</g>
<!-- q25:111 -->
<g id="node16" class="node">
<title>q25:111</title>
<ellipse fill="none" stroke="black" stroke-width="2" cx="2186.8" cy="-206" rx="52.26" ry="18"/>
<text text-anchor="middle" x="2186.8" y="-201.32" font-family="Times,serif" font-size="14.00">q25:111</text>
</g>
<!-- q23:111&#45;&gt;q25:111 -->
<g id="edge18" class="edge">
<title>q23:111&#45;&gt;q25:111</title>
<path fill="none" stroke="black" d="M1998.9,-206C2035.3,-206 2084.1,-206 2122.7,-206"/>
<polygon fill="black" stroke="black" points="2122.29,-209.5 2132.29,-206 2122.29,-202.5 2122.29,-209.5"/>
<text text-anchor="middle" x="2066.3" y="-209.94" font-family="Times,serif" font-size="14.00">QUIT/221:111</text>
</g>
<!-- q24:9 -->
<g id="node17" class="node">
<title>q24:9</title>
<ellipse fill="none" stroke="black" stroke-width="2" cx="2186.8" cy="-152" rx="39.63" ry="18"/>
<text text-anchor="middle" x="2186.8" y="-147.32" font-family="Times,serif" font-size="14.00">q24:9</text>
</g>
<!-- q22:9&#45;&gt;q24:9 -->
<g id="edge19" class="edge">
<title>q22:9&#45;&gt;q24:9</title>
<path fill="none" stroke="black" d="M1986.3,-152C2026.9,-152 2090.4,-152 2134.9,-152"/>
<polygon fill="black" stroke="black" points="2134.79,-155.5 2144.79,-152 2134.79,-148.5 2134.79,-155.5"/>
<text text-anchor="middle" x="2066.3" y="-155.94" font-family="Times,serif" font-size="14.00">RSET/250:9</text>
</g>
<!-- q20:65 -->
<g id="node18" class="node">
<title>q20:65</title>
<ellipse fill="none" stroke="black" stroke-width="2" cx="1945.8" cy="-41" rx="45.95" ry="18"/>
<text text-anchor="middle" x="1945.8" y="-36.33" font-family="Times,serif" font-size="14.00">q20:65</text>
</g>
<!-- q15:65&#45;&gt;q20:65 -->
<g id="edge20" class="edge">
<title>q15:65&#45;&gt;q20:65</title>
<path fill="none" stroke="black" d="M1728.9,-41C1773,-41 1840,-41 1887.6,-41"/>
<polygon fill="black" stroke="black" points="1887.39,-44.5 1897.39,-41 1887.39,-37.5 1887.39,-44.5"/>
<text text-anchor="middle" x="1817" y="-44.95" font-family="Times,serif" font-size="14.00">RSET/250:65</text>
</g>
<!-- q2:243 -->
<g id="node19" class="node">
<title>q2:243</title>
<ellipse fill="none" stroke="black" stroke-width="2" cx="491.48" cy="-80" rx="45.95" ry="18"/>
<text text-anchor="middle" x="491.48" y="-75.33" font-family="Times,serif" font-size="14.00">q2:243</text>
</g>
<!-- q2:243&#45;&gt;q5:231 -->
<g id="edge21" class="edge">
<title>q2:243&#45;&gt;q5:231</title>
<path fill="none" stroke="black" d="M533.73,-88.1C568.09,-95.18 618.18,-106.26 661.18,-118.75 667.16,-120.49 673.41,-122.48 679.54,-124.54"/>
<polygon fill="black" stroke="black" points="678.35,-127.83 688.95,-127.79 680.64,-121.22 678.35,-127.83"/>
<text text-anchor="middle" x="608.31" y="-121.95" font-family="Times,serif" font-size="14.00">AUTH/235:230</text>
</g>
<!-- q4:1 -->
<g id="node20" class="node">
<title>q4:1</title>
<ellipse fill="none" stroke="black" stroke-width="2" cx="839.7" cy="-68" rx="33.32" ry="18"/>
<text text-anchor="middle" x="839.7" y="-63.33" font-family="Times,serif" font-size="14.00">q4:1</text>
</g>
<!-- q2:243&#45;&gt;q4:1 -->
<g id="edge22" class="edge">
<title>q2:243&#45;&gt;q4:1</title>
<path fill="none" stroke="black" d="M536.12,-74.42C542.58,-73.75 549.17,-73.16 555.43,-72.75 639.74,-67.2 738.45,-66.96 794.27,-67.4"/>
<polygon fill="black" stroke="black" points="793.96,-70.9 804,-67.49 794.03,-63.9 793.96,-70.9"/>
<text text-anchor="middle" x="608.31" y="-76.95" font-family="Times,serif" font-size="14.00">AUTH/λ:1</text>
</g>
<!-- q6:12 -->
<g id="node21" class="node">
<title>q6:12</title>
<ellipse fill="none" stroke="black" stroke-width="2" cx="725.13" cy="-21" rx="39.63" ry="18"/>
<text text-anchor="middle" x="725.13" y="-16.32" font-family="Times,serif" font-size="14.00">q6:12</text>
</g>
<!-- q2:243&#45;&gt;q6:12 -->
<g id="edge23" class="edge">
<title>q2:243&#45;&gt;q6:12</title>
<path fill="none" stroke="black" d="M507.61,-62.44C519.29,-50.26 536.6,-34.98 555.43,-27.75 593.66,-13.08 640.41,-12.41 674.99,-14.83"/>
<polygon fill="black" stroke="black" points="674.46,-18.3 684.71,-15.63 675.03,-11.32 674.46,-18.3"/>
<text text-anchor="middle" x="608.31" y="-31.95" font-family="Times,serif" font-size="14.00">AUTH/535:12</text>
</g>
<!-- q4:1&#45;&gt;q7:233 -->
<g id="edge24" class="edge">
<title>q4:1&#45;&gt;q7:233</title>
<path fill="none" stroke="black" d="M873.85,-69.29C906.22,-70.88 956.81,-74.2 1000.22,-80.75 1048.2,-87.99 1102.1,-100.49 1140,-110.02"/>
<polygon fill="black" stroke="black" points="1138.68,-113.3 1149.23,-112.37 1140.4,-106.51 1138.68,-113.3"/>
<text text-anchor="middle" x="954.27" y="-84.95" font-family="Times,serif" font-size="14.00">MAIL/250:1</text>
</g>
<!-- q10:12 -->
<g id="node22" class="node">
<title>q10:12</title>
<ellipse fill="none" stroke="black" stroke-width="2" cx="954.27" cy="-18" rx="45.95" ry="18"/>
<text text-anchor="middle" x="954.27" y="-13.32" font-family="Times,serif" font-size="14.00">q10:12</text>
</g>
<!-- q6:12&#45;&gt;q10:12 -->
<g id="edge25" class="edge">
<title>q6:12&#45;&gt;q10:12</title>
<path fill="none" stroke="black" d="M765.69,-20.48C801.75,-20 855.43,-19.29 896.14,-18.75"/>
<polygon fill="black" stroke="black" points="896.05,-22.26 906.01,-18.62 895.96,-15.26 896.05,-22.26"/>
<text text-anchor="middle" x="839.7" y="-24.95" font-family="Times,serif" font-size="14.00">AUTH/334:12</text>
</g>
<!-- q14:12 -->
<g id="node23" class="node">
<title>q14:12</title>
<ellipse fill="none" stroke="black" stroke-width="2" cx="1190.2" cy="-18" rx="45.95" ry="18"/>
<text text-anchor="middle" x="1190.2" y="-13.32" font-family="Times,serif" font-size="14.00">q14:12</text>
</g>
<!-- q10:12&#45;&gt;q14:12 -->
<g id="edge26" class="edge">
<title>q10:12&#45;&gt;q14:12</title>
<path fill="none" stroke="black" d="M1001.2,-18C1038.6,-18 1091.6,-18 1131.8,-18"/>
<polygon fill="black" stroke="black" points="1131.79,-21.5 1141.79,-18 1131.79,-14.5 1131.79,-21.5"/>
<text text-anchor="middle" x="1072.2" y="-21.95" font-family="Times,serif" font-size="14.00">content/535:12</text>
</g>
<!-- q19:3 -->
<g id="node26" class="node">
<title>q19:3</title>
<ellipse fill="none" stroke="black" stroke-width="2" cx="1427.1" cy="-18" rx="39.63" ry="18"/>
<text text-anchor="middle" x="1427.1" y="-13.32" font-family="Times,serif" font-size="14.00">q19:3</text>
</g>
<!-- q14:12&#45;&gt;q19:3 -->
<g id="edge30" class="edge">
<title>q14:12&#45;&gt;q19:3</title>
<path fill="none" stroke="black" d="M1237,-18C1276.7,-18 1334.1,-18 1375.2,-18"/>
<polygon fill="black" stroke="black" points="1375.09,-21.5 1385.09,-18 1375.09,-14.5 1375.09,-21.5"/>
<text text-anchor="middle" x="1305.5" y="-21.95" font-family="Times,serif" font-size="14.00">λ/451:3</text>
</g>
<!-- q0:244 -->
<g id="node24" class="node">
<title>q0:244</title>
<ellipse fill="none" stroke="black" stroke-width="2" cx="53.95" cy="-107" rx="49.95" ry="49.95"/>
<ellipse fill="none" stroke="black" stroke-width="2" cx="53.95" cy="-107" rx="53.95" ry="53.95"/>
<text text-anchor="middle" x="53.95" y="-102.33" font-family="Times,serif" font-size="14.00">q0:244</text>
</g>
<!-- q1:244 -->
<g id="node25" class="node">
<title>q1:244</title>
<ellipse fill="none" stroke="black" stroke-width="2" cx="257.84" cy="-107" rx="45.95" ry="18"/>
<text text-anchor="middle" x="257.84" y="-102.33" font-family="Times,serif" font-size="14.00">q1:244</text>
</g>
<!-- q0:244&#45;&gt;q1:244 -->
<g id="edge27" class="edge">
<title>q0:244&#45;&gt;q1:244</title>
<path fill="none" stroke="black" d="M104.85,-107C133.64,-107 169.94,-107 199.84,-107"/>
<polygon fill="black" stroke="black" points="199.45,-110.5 209.45,-107 199.45,-103.5 199.45,-110.5"/>
<text text-anchor="middle" x="157.89" y="-110.95" font-family="Times,serif" font-size="14.00">λ/220:244</text>
</g>
<!-- q1:244&#45;&gt;q3:1 -->
<g id="edge28" class="edge">
<title>q1:244&#45;&gt;q3:1</title>
<path fill="none" stroke="black" d="M302.14,-113.17C343.47,-119.06 405.4,-127.88 446.84,-133.78"/>
<polygon fill="black" stroke="black" points="446.33,-137.24 456.72,-135.19 447.31,-130.31 446.33,-137.24"/>
<text text-anchor="middle" x="374.66" y="-133.94" font-family="Times,serif" font-size="14.00">EHLO/λ:1</text>
</g>
<!-- q1:244&#45;&gt;q2:243 -->
<g id="edge29" class="edge">
<title>q1:244&#45;&gt;q2:243</title>
<path fill="none" stroke="black" d="M298.66,-97.83C306.31,-96.29 314.27,-94.84 321.79,-93.75 358.85,-88.36 400.83,-84.93 433.64,-82.84"/>
<polygon fill="black" stroke="black" points="433.56,-86.35 443.33,-82.25 433.13,-79.37 433.56,-86.35"/>
<text text-anchor="middle" x="374.66" y="-97.95" font-family="Times,serif" font-size="14.00">EHLO/250:243</text>
</g>
</g>
</svg>
