<?xml version="1.0" encoding="UTF-8" standalone="no"?>
<!DOCTYPE svg PUBLIC "-//W3C//DTD SVG 1.1//EN"
 "http://www.w3.org/Graphics/SVG/1.1/DTD/svg11.dtd">
<!-- Generated by graphviz version 12.0.0 (20240803.0821)
 -->
<!-- Pages: 1 -->
<svg width="2253pt" height="205pt"
 viewBox="0.00 0.00 2252.96 205.00" xmlns="http://www.w3.org/2000/svg" xmlns:xlink="http://www.w3.org/1999/xlink">
<g id="graph0" class="graph" transform="scale(1 1) rotate(0) translate(4 201)">
<polygon fill="white" stroke="none" points="-4,4 -4,-201 2248.96,-201 2248.96,4 -4,4"/>
<!-- q3:243 -->
<g id="node1" class="node">
<title>q3:243</title>
<ellipse fill="none" stroke="black" stroke-width="2" cx="491.48" cy="-107" rx="45.95" ry="18"/>
<text text-anchor="middle" x="491.48" y="-102.33" font-family="Times,serif" font-size="14.00">q3:243</text>
</g>
<!-- q4:231 -->
<g id="node2" class="node">
<title>q4:231</title>
<ellipse fill="none" stroke="black" stroke-width="2" cx="725.13" cy="-40" rx="45.95" ry="18"/>
<text text-anchor="middle" x="725.13" y="-35.33" font-family="Times,serif" font-size="14.00">q4:231</text>
</g>
<!-- q3:243&#45;&gt;q4:231 -->
<g id="edge1" class="edge">
<title>q3:243&#45;&gt;q4:231</title>
<path fill="none" stroke="black" d="M527.32,-94.82C536.44,-91.75 546.27,-88.53 555.43,-85.75 595.08,-73.69 640.43,-61.48 674.12,-52.71"/>
<polygon fill="black" stroke="black" points="674.8,-56.15 683.6,-50.25 673.05,-49.37 674.8,-56.15"/>
<text text-anchor="middle" x="608.31" y="-88.95" font-family="Times,serif" font-size="14.00">AUTH/235:230</text>
</g>
<!-- q5:12 -->
<g id="node3" class="node">
<title>q5:12</title>
<ellipse fill="none" stroke="black" stroke-width="2" cx="725.13" cy="-165" rx="39.63" ry="18"/>
<text text-anchor="middle" x="725.13" y="-160.32" font-family="Times,serif" font-size="14.00">q5:12</text>
</g>
<!-- q3:243&#45;&gt;q5:12 -->
<g id="edge2" class="edge">
<title>q3:243&#45;&gt;q5:12</title>
<path fill="none" stroke="black" d="M525.18,-119.97C534.83,-123.52 545.47,-127.16 555.43,-130 595.49,-141.41 641.89,-150.76 675.87,-156.92"/>
<polygon fill="black" stroke="black" points="674.94,-160.31 685.4,-158.61 676.17,-153.42 674.94,-160.31"/>
<text text-anchor="middle" x="608.31" y="-156.94" font-family="Times,serif" font-size="14.00">AUTH/535:12</text>
</g>
<!-- q6:1 -->
<g id="node4" class="node">
<title>q6:1</title>
<ellipse fill="none" stroke="black" stroke-width="2" cx="725.13" cy="-110" rx="33.32" ry="18"/>
<text text-anchor="middle" x="725.13" y="-105.33" font-family="Times,serif" font-size="14.00">q6:1</text>
</g>
<!-- q3:243&#45;&gt;q6:1 -->
<g id="edge3" class="edge">
<title>q3:243&#45;&gt;q6:1</title>
<path fill="none" stroke="black" d="M538.25,-107.59C579.17,-108.12 638.78,-108.89 679.39,-109.42"/>
<polygon fill="black" stroke="black" points="679.26,-112.92 689.31,-109.55 679.35,-105.92 679.26,-112.92"/>
<text text-anchor="middle" x="608.31" y="-112.95" font-family="Times,serif" font-size="14.00">AUTH/λ:1</text>
</g>
<!-- q8:232 -->
<g id="node5" class="node">
<title>q8:232</title>
<ellipse fill="none" stroke="black" stroke-width="2" cx="954.27" cy="-91" rx="45.95" ry="18"/>
<text text-anchor="middle" x="954.27" y="-86.33" font-family="Times,serif" font-size="14.00">q8:232</text>
</g>
<!-- q4:231&#45;&gt;q8:232 -->
<g id="edge4" class="edge">
<title>q4:231&#45;&gt;q8:232</title>
<path fill="none" stroke="black" d="M767.4,-48.21C800.68,-54.95 848.63,-64.96 890.33,-74.75 894.84,-75.81 899.52,-76.95 904.21,-78.11"/>
<polygon fill="black" stroke="black" points="903.04,-81.42 913.59,-80.48 904.75,-74.64 903.04,-81.42"/>
<text text-anchor="middle" x="839.7" y="-77.95" font-family="Times,serif" font-size="14.00">MAIL/250:228</text>
</g>
<!-- q7:3 -->
<g id="node6" class="node">
<title>q7:3</title>
<ellipse fill="none" stroke="black" stroke-width="2" cx="954.27" cy="-19" rx="33.32" ry="18"/>
<text text-anchor="middle" x="954.27" y="-14.32" font-family="Times,serif" font-size="14.00">q7:3</text>
</g>
<!-- q4:231&#45;&gt;q7:3 -->
<g id="edge5" class="edge">
<title>q4:231&#45;&gt;q7:3</title>
<path fill="none" stroke="black" d="M767.33,-31.92C774.56,-30.71 782.02,-29.59 789.08,-28.75 829.54,-23.95 875.9,-21.47 909.02,-20.22"/>
<polygon fill="black" stroke="black" points="908.77,-23.73 918.64,-19.88 908.52,-16.73 908.77,-23.73"/>
<text text-anchor="middle" x="839.7" y="-32.95" font-family="Times,serif" font-size="14.00">MAIL/553:3</text>
</g>
<!-- q9:12 -->
<g id="node7" class="node">
<title>q9:12</title>
<ellipse fill="none" stroke="black" stroke-width="2" cx="954.27" cy="-169" rx="39.63" ry="18"/>
<text text-anchor="middle" x="954.27" y="-164.32" font-family="Times,serif" font-size="14.00">q9:12</text>
</g>
<!-- q5:12&#45;&gt;q9:12 -->
<g id="edge6" class="edge">
<title>q5:12&#45;&gt;q9:12</title>
<path fill="none" stroke="black" d="M765.69,-165.7C803.6,-166.36 861,-167.38 902.32,-168.1"/>
<polygon fill="black" stroke="black" points="902.21,-171.6 912.27,-168.27 902.33,-164.6 902.21,-171.6"/>
<text text-anchor="middle" x="839.7" y="-170.94" font-family="Times,serif" font-size="14.00">AUTH/334:12</text>
</g>
<!-- q6:1&#45;&gt;q8:232 -->
<g id="edge7" class="edge">
<title>q6:1&#45;&gt;q8:232</title>
<path fill="none" stroke="black" d="M758.67,-107.28C794.71,-104.26 853.45,-99.35 896.98,-95.71"/>
<polygon fill="black" stroke="black" points="897.08,-99.21 906.75,-94.89 896.49,-92.24 897.08,-99.21"/>
<text text-anchor="middle" x="839.7" y="-107.95" font-family="Times,serif" font-size="14.00">MAIL/250:1</text>
</g>
<!-- q11:232 -->
<g id="node8" class="node">
<title>q11:232</title>
<ellipse fill="none" stroke="black" stroke-width="2" cx="1196.5" cy="-72" rx="52.26" ry="18"/>
<text text-anchor="middle" x="1196.5" y="-67.33" font-family="Times,serif" font-size="14.00">q11:232</text>
</g>
<!-- q8:232&#45;&gt;q11:232 -->
<g id="edge8" class="edge">
<title>q8:232&#45;&gt;q11:232</title>
<path fill="none" stroke="black" d="M1000.17,-87.45C1037.7,-84.48 1091.5,-80.22 1133.2,-76.93"/>
<polygon fill="black" stroke="black" points="1133.4,-80.43 1143.09,-76.15 1132.85,-73.45 1133.4,-80.43"/>
<text text-anchor="middle" x="1072.2" y="-88.95" font-family="Times,serif" font-size="14.00">RCPT/250:232</text>
</g>
<!-- q10:3 -->
<g id="node9" class="node">
<title>q10:3</title>
<ellipse fill="none" stroke="black" stroke-width="2" cx="1196.5" cy="-18" rx="39.63" ry="18"/>
<text text-anchor="middle" x="1196.5" y="-13.32" font-family="Times,serif" font-size="14.00">q10:3</text>
</g>
<!-- q7:3&#45;&gt;q10:3 -->
<g id="edge9" class="edge">
<title>q7:3&#45;&gt;q10:3</title>
<path fill="none" stroke="black" d="M988.42,-18.86C1028.8,-18.69 1097.3,-18.41 1144.4,-18.21"/>
<polygon fill="black" stroke="black" points="1144.4,-21.71 1154.39,-18.17 1144.37,-14.71 1144.4,-21.71"/>
<text text-anchor="middle" x="1072.2" y="-22.95" font-family="Times,serif" font-size="14.00">RSET/250:3</text>
</g>
<!-- q12:12 -->
<g id="node10" class="node">
<title>q12:12</title>
<ellipse fill="none" stroke="black" stroke-width="2" cx="1196.5" cy="-179" rx="45.95" ry="18"/>
<text text-anchor="middle" x="1196.5" y="-174.32" font-family="Times,serif" font-size="14.00">q12:12</text>
</g>
<!-- q9:12&#45;&gt;q12:12 -->
<g id="edge10" class="edge">
<title>q9:12&#45;&gt;q12:12</title>
<path fill="none" stroke="black" d="M994.67,-170.64C1033.8,-172.27 1094.1,-174.78 1138.4,-176.63"/>
<polygon fill="black" stroke="black" points="1138.25,-180.13 1148.39,-177.04 1138.54,-173.13 1138.25,-180.13"/>
<text text-anchor="middle" x="1072.2" y="-179.94" font-family="Times,serif" font-size="14.00">content/535:12</text>
</g>
<!-- q14:3269 -->
<g id="node11" class="node">
<title>q14:3269</title>
<ellipse fill="none" stroke="black" stroke-width="2" cx="1687.8" cy="-61" rx="58.57" ry="18"/>
<text text-anchor="middle" x="1687.8" y="-56.33" font-family="Times,serif" font-size="14.00">q14:3269</text>
</g>
<!-- q11:232&#45;&gt;q14:3269 -->
<g id="edge11" class="edge">
<title>q11:232&#45;&gt;q14:3269</title>
<path fill="none" stroke="black" d="M1249.4,-70.83C1337.9,-68.84 1518,-64.8 1617.3,-62.56"/>
<polygon fill="black" stroke="black" points="1617.27,-66.07 1627.19,-62.34 1617.11,-59.07 1617.27,-66.07"/>
<text text-anchor="middle" x="1439.8" y="-70.95" font-family="Times,serif" font-size="14.00">DATA/354:91</text>
</g>
<!-- q13:141 -->
<g id="node12" class="node">
<title>q13:141</title>
<ellipse fill="none" stroke="black" stroke-width="2" cx="1439.8" cy="-120" rx="52.26" ry="18"/>
<text text-anchor="middle" x="1439.8" y="-115.33" font-family="Times,serif" font-size="14.00">q13:141</text>
</g>
<!-- q11:232&#45;&gt;q13:141 -->
<g id="edge12" class="edge">
<title>q11:232&#45;&gt;q13:141</title>
<path fill="none" stroke="black" d="M1248.4,-75.8C1283,-79.09 1329.4,-84.92 1369.5,-94.75 1377.5,-96.72 1385.9,-99.31 1394,-102.07"/>
<polygon fill="black" stroke="black" points="1392.68,-105.32 1403.27,-105.4 1395.04,-98.73 1392.68,-105.32"/>
<text text-anchor="middle" x="1318.1" y="-97.95" font-family="Times,serif" font-size="14.00">RCPT/250:141</text>
</g>
<!-- q15:3 -->
<g id="node17" class="node">
<title>q15:3</title>
<ellipse fill="none" stroke="black" stroke-width="2" cx="1439.8" cy="-179" rx="39.63" ry="18"/>
<text text-anchor="middle" x="1439.8" y="-174.32" font-family="Times,serif" font-size="14.00">q15:3</text>
</g>
<!-- q12:12&#45;&gt;q15:3 -->
<g id="edge17" class="edge">
<title>q12:12&#45;&gt;q15:3</title>
<path fill="none" stroke="black" d="M1243.1,-179C1284.4,-179 1345.2,-179 1388,-179"/>
<polygon fill="black" stroke="black" points="1387.79,-182.5 1397.79,-179 1387.79,-175.5 1387.79,-182.5"/>
<text text-anchor="middle" x="1318.1" y="-182.94" font-family="Times,serif" font-size="14.00">λ/451:3</text>
</g>
<!-- q14:3269&#45;&gt;q14:3269 -->
<g id="edge19" class="edge">
<title>q14:3269&#45;&gt;q14:3269</title>
<path fill="none" stroke="black" d="M1665.1,-78.41C1660.9,-88.09 1668.5,-97 1687.8,-97 1699,-97 1706.3,-94.02 1709.6,-89.64"/>
<polygon fill="black" stroke="black" points="1713.07,-90.17 1710.38,-79.92 1706.09,-89.61 1713.07,-90.17"/>
<text text-anchor="middle" x="1687.8" y="-100.95" font-family="Times,serif" font-size="14.00">content/λ:3060</text>
</g>
<!-- q18:74 -->
<g id="node13" class="node">
<title>q18:74</title>
<ellipse fill="none" stroke="black" stroke-width="2" cx="1951.7" cy="-88" rx="45.95" ry="18"/>
<text text-anchor="middle" x="1951.7" y="-83.33" font-family="Times,serif" font-size="14.00">q18:74</text>
</g>
<!-- q14:3269&#45;&gt;q18:74 -->
<g id="edge18" class="edge">
<title>q14:3269&#45;&gt;q18:74</title>
<path fill="none" stroke="black" d="M1744.4,-66.73C1788.8,-71.31 1850.9,-77.71 1895.3,-82.29"/>
<polygon fill="black" stroke="black" points="1894.69,-85.75 1904.99,-83.29 1895.4,-78.78 1894.69,-85.75"/>
<text text-anchor="middle" x="1822.9" y="-83.95" font-family="Times,serif" font-size="14.00">content/554:74</text>
</g>
<!-- q17:135 -->
<g id="node18" class="node">
<title>q17:135</title>
<ellipse fill="none" stroke="black" stroke-width="2" cx="1951.7" cy="-34" rx="52.26" ry="18"/>
<text text-anchor="middle" x="1951.7" y="-29.32" font-family="Times,serif" font-size="14.00">q17:135</text>
</g>
<!-- q14:3269&#45;&gt;q17:135 -->
<g id="edge20" class="edge">
<title>q14:3269&#45;&gt;q17:135</title>
<path fill="none" stroke="black" d="M1737.9,-50.88C1746.7,-49.31 1755.8,-47.85 1764.4,-46.75 1805.2,-41.53 1851.2,-38.35 1887.4,-36.48"/>
<polygon fill="black" stroke="black" points="1887.38,-39.98 1897.19,-35.99 1887.03,-32.99 1887.38,-39.98"/>
<text text-anchor="middle" x="1822.9" y="-50.95" font-family="Times,serif" font-size="14.00">content/250:135</text>
</g>
<!-- q13:141&#45;&gt;q8:232 -->
<g id="edge21" class="edge">
<title>q13:141&#45;&gt;q8:232</title>
<path fill="none" stroke="black" d="M1387,-121.6C1307.4,-123.31 1150.2,-123.73 1018.2,-106 1013.6,-105.39 1008.9,-104.58 1004.2,-103.67"/>
<polygon fill="black" stroke="black" points="1005.31,-100.33 994.8,-101.67 1003.85,-107.17 1005.31,-100.33"/>
<text text-anchor="middle" x="1196.5" y="-124.95" font-family="Times,serif" font-size="14.00">RCPT/250:3</text>
</g>
<!-- q13:141&#45;&gt;q14:3269 -->
<g id="edge22" class="edge">
<title>q13:141&#45;&gt;q14:3269</title>
<path fill="none" stroke="black" d="M1484.2,-109.59C1524.4,-99.94 1584.6,-85.52 1628.9,-74.89"/>
<polygon fill="black" stroke="black" points="1629.72,-78.3 1638.63,-72.56 1628.09,-71.49 1629.72,-78.3"/>
<text text-anchor="middle" x="1560.6" y="-105.95" font-family="Times,serif" font-size="14.00">DATA/354:118</text>
</g>
<!-- q16:20 -->
<g id="node19" class="node">
<title>q16:20</title>
<ellipse fill="none" stroke="black" stroke-width="2" cx="1687.8" cy="-150" rx="45.95" ry="18"/>
<text text-anchor="middle" x="1687.8" y="-145.32" font-family="Times,serif" font-size="14.00">q16:20</text>
</g>
<!-- q13:141&#45;&gt;q16:20 -->
<g id="edge23" class="edge">
<title>q13:141&#45;&gt;q16:20</title>
<path fill="none" stroke="black" d="M1490,-126C1530.9,-131 1589.3,-138.11 1631.8,-143.29"/>
<polygon fill="black" stroke="black" points="1631.25,-146.75 1641.6,-144.49 1632.1,-139.8 1631.25,-146.75"/>
<text text-anchor="middle" x="1560.6" y="-143.94" font-family="Times,serif" font-size="14.00">DATA/550:20</text>
</g>
<!-- q20:74 -->
<g id="node14" class="node">
<title>q20:74</title>
<ellipse fill="none" stroke="black" stroke-width="2" cx="2192.7" cy="-88" rx="45.95" ry="18"/>
<text text-anchor="middle" x="2192.7" y="-83.33" font-family="Times,serif" font-size="14.00">q20:74</text>
</g>
<!-- q18:74&#45;&gt;q20:74 -->
<g id="edge13" class="edge">
<title>q18:74&#45;&gt;q20:74</title>
<path fill="none" stroke="black" d="M1998.5,-88C2037.3,-88 2093,-88 2134.7,-88"/>
<polygon fill="black" stroke="black" points="2134.49,-91.5 2144.49,-88 2134.49,-84.5 2134.49,-91.5"/>
<text text-anchor="middle" x="2072.2" y="-91.95" font-family="Times,serif" font-size="14.00">RSET/250:74</text>
</g>
<!-- q1:244 -->
<g id="node15" class="node">
<title>q1:244</title>
<ellipse fill="none" stroke="black" stroke-width="2" cx="257.84" cy="-74" rx="45.95" ry="18"/>
<text text-anchor="middle" x="257.84" y="-69.33" font-family="Times,serif" font-size="14.00">q1:244</text>
</g>
<!-- q1:244&#45;&gt;q3:243 -->
<g id="edge14" class="edge">
<title>q1:244&#45;&gt;q3:243</title>
<path fill="none" stroke="black" d="M302.14,-80.17C340,-85.56 395.17,-93.42 436.02,-99.24"/>
<polygon fill="black" stroke="black" points="435.51,-102.7 445.9,-100.65 436.49,-95.77 435.51,-102.7"/>
<text text-anchor="middle" x="374.66" y="-100.95" font-family="Times,serif" font-size="14.00">EHLO/250:243</text>
</g>
<!-- q2:1 -->
<g id="node16" class="node">
<title>q2:1</title>
<ellipse fill="none" stroke="black" stroke-width="2" cx="491.48" cy="-47" rx="33.32" ry="18"/>
<text text-anchor="middle" x="491.48" y="-42.33" font-family="Times,serif" font-size="14.00">q2:1</text>
</g>
<!-- q1:244&#45;&gt;q2:1 -->
<g id="edge15" class="edge">
<title>q1:244&#45;&gt;q2:1</title>
<path fill="none" stroke="black" d="M296.21,-63.12C304.56,-61.03 313.43,-59.08 321.79,-57.75 363.53,-51.09 411.69,-48.52 445.85,-47.55"/>
<polygon fill="black" stroke="black" points="445.89,-51.05 455.8,-47.31 445.71,-44.05 445.89,-51.05"/>
<text text-anchor="middle" x="374.66" y="-61.95" font-family="Times,serif" font-size="14.00">EHLO/λ:1</text>
</g>
<!-- q2:1&#45;&gt;q4:231 -->
<g id="edge16" class="edge">
<title>q2:1&#45;&gt;q4:231</title>
<path fill="none" stroke="black" d="M523.05,-39.83C533.28,-37.76 544.79,-35.78 555.43,-34.75 593,-31.13 635.47,-32.48 668.4,-34.72"/>
<polygon fill="black" stroke="black" points="667.89,-38.19 678.12,-35.43 668.4,-31.21 667.89,-38.19"/>
<text text-anchor="middle" x="608.31" y="-38.95" font-family="Times,serif" font-size="14.00">AUTH/235:1</text>
</g>
<!-- q19:135 -->
<g id="node20" class="node">
<title>q19:135</title>
<ellipse fill="none" stroke="black" stroke-width="2" cx="2192.7" cy="-34" rx="52.26" ry="18"/>
<text text-anchor="middle" x="2192.7" y="-29.32" font-family="Times,serif" font-size="14.00">q19:135</text>
</g>
<!-- q17:135&#45;&gt;q19:135 -->
<g id="edge24" class="edge">
<title>q17:135&#45;&gt;q19:135</title>
<path fill="none" stroke="black" d="M2004.8,-34C2041.2,-34 2090,-34 2128.5,-34"/>
<polygon fill="black" stroke="black" points="2128.09,-37.5 2138.09,-34 2128.09,-30.5 2128.09,-37.5"/>
<text text-anchor="middle" x="2072.2" y="-37.95" font-family="Times,serif" font-size="14.00">QUIT/221:135</text>
</g>
<!-- q0:244 -->
<g id="node21" class="node">
<title>q0:244</title>
<ellipse fill="none" stroke="black" stroke-width="2" cx="53.95" cy="-74" rx="49.95" ry="49.95"/>
<ellipse fill="none" stroke="black" stroke-width="2" cx="53.95" cy="-74" rx="53.95" ry="53.95"/>
<text text-anchor="middle" x="53.95" y="-69.33" font-family="Times,serif" font-size="14.00">q0:244</text>
</g>
<!-- q0:244&#45;&gt;q1:244 -->
<g id="edge25" class="edge">
<title>q0:244&#45;&gt;q1:244</title>
<path fill="none" stroke="black" d="M104.85,-74C133.64,-74 169.94,-74 199.84,-74"/>
<polygon fill="black" stroke="black" points="199.45,-77.5 209.45,-74 199.45,-70.5 199.45,-77.5"/>
<text text-anchor="middle" x="157.89" y="-77.95" font-family="Times,serif" font-size="14.00">λ/220:244</text>
</g>
</g>
</svg>
