<?xml version="1.0" encoding="UTF-8" standalone="no"?>
<!DOCTYPE svg PUBLIC "-//W3C//DTD SVG 1.1//EN"
 "http://www.w3.org/Graphics/SVG/1.1/DTD/svg11.dtd">
<!-- Generated by graphviz version 12.0.0 (20240803.0821)
 -->
<!-- Pages: 1 -->
<svg width="2012pt" height="364pt"
 viewBox="0.00 0.00 2011.56 364.47" xmlns="http://www.w3.org/2000/svg" xmlns:xlink="http://www.w3.org/1999/xlink">
<g id="graph0" class="graph" transform="scale(1 1) rotate(0) translate(4 360.47)">
<polygon fill="white" stroke="none" points="-4,4 -4,-360.47 2007.56,-360.47 2007.56,4 -4,4"/>
<!-- q16:74 -->
<g id="node1" class="node">
<title>q16:74</title>
<ellipse fill="none" stroke="black" stroke-width="2" cx="1710.3" cy="-338.47" rx="45.95" ry="18"/>
<text text-anchor="middle" x="1710.3" y="-333.8" font-family="Times,serif" font-size="14.00">q16:74</text>
</g>
<!-- q20:74 -->
<g id="node2" class="node">
<title>q20:74</title>
<ellipse fill="none" stroke="black" stroke-width="2" cx="1951.3" cy="-338.47" rx="45.95" ry="18"/>
<text text-anchor="middle" x="1951.3" y="-333.8" font-family="Times,serif" font-size="14.00">q20:74</text>
</g>
<!-- q16:74&#45;&gt;q20:74 -->
<g id="edge1" class="edge">
<title>q16:74&#45;&gt;q20:74</title>
<path fill="none" stroke="black" d="M1757.1,-338.47C1795.8,-338.47 1851.6,-338.47 1893.3,-338.47"/>
<polygon fill="black" stroke="black" points="1893.09,-341.97 1903.09,-338.47 1893.09,-334.97 1893.09,-341.97"/>
<text text-anchor="middle" x="1830.8" y="-342.42" font-family="Times,serif" font-size="14.00">RSET/250:74</text>
</g>
<!-- q13:3030 -->
<g id="node3" class="node">
<title>q13:3030</title>
<ellipse fill="none" stroke="black" stroke-width="2" cx="1446.4" cy="-284.47" rx="58.57" ry="18"/>
<text text-anchor="middle" x="1446.4" y="-279.8" font-family="Times,serif" font-size="14.00">q13:3030</text>
</g>
<!-- q13:3030&#45;&gt;q16:74 -->
<g id="edge2" class="edge">
<title>q13:3030&#45;&gt;q16:74</title>
<path fill="none" stroke="black" d="M1490.4,-297.18C1501,-300.1 1512.4,-303.06 1523,-305.47 1567.1,-315.48 1617.7,-324.28 1655,-330.26"/>
<polygon fill="black" stroke="black" points="1654.18,-333.68 1664.6,-331.8 1655.28,-326.77 1654.18,-333.68"/>
<text text-anchor="middle" x="1581.5" y="-331.42" font-family="Times,serif" font-size="14.00">content/554:74</text>
</g>
<!-- q13:3030&#45;&gt;q13:3030 -->
<g id="edge3" class="edge">
<title>q13:3030&#45;&gt;q13:3030</title>
<path fill="none" stroke="black" d="M1424.5,-301.88C1420.4,-311.56 1427.7,-320.47 1446.4,-320.47 1457.2,-320.47 1464.2,-317.49 1467.4,-313.11"/>
<polygon fill="black" stroke="black" points="1470.87,-313.64 1468.18,-303.39 1463.89,-313.08 1470.87,-313.64"/>
<text text-anchor="middle" x="1446.4" y="-324.42" font-family="Times,serif" font-size="14.00">content/λ:2830</text>
</g>
<!-- q17:125 -->
<g id="node4" class="node">
<title>q17:125</title>
<ellipse fill="none" stroke="black" stroke-width="2" cx="1710.3" cy="-284.47" rx="52.26" ry="18"/>
<text text-anchor="middle" x="1710.3" y="-279.8" font-family="Times,serif" font-size="14.00">q17:125</text>
</g>
<!-- q13:3030&#45;&gt;q17:125 -->
<g id="edge4" class="edge">
<title>q13:3030&#45;&gt;q17:125</title>
<path fill="none" stroke="black" d="M1505.9,-284.47C1547.4,-284.47 1603.2,-284.47 1645.8,-284.47"/>
<polygon fill="black" stroke="black" points="1645.69,-287.97 1655.69,-284.47 1645.69,-280.97 1645.69,-287.97"/>
<text text-anchor="middle" x="1581.5" y="-288.42" font-family="Times,serif" font-size="14.00">content/250:125</text>
</g>
<!-- q18:1 -->
<g id="node5" class="node">
<title>q18:1</title>
<ellipse fill="none" stroke="black" stroke-width="2" cx="1710.3" cy="-230.47" rx="39.63" ry="18"/>
<text text-anchor="middle" x="1710.3" y="-225.8" font-family="Times,serif" font-size="14.00">q18:1</text>
</g>
<!-- q13:3030&#45;&gt;q18:1 -->
<g id="edge5" class="edge">
<title>q13:3030&#45;&gt;q18:1</title>
<path fill="none" stroke="black" d="M1490,-271.69C1500.7,-268.7 1512.2,-265.67 1523,-263.22 1569.3,-252.67 1622.7,-243.6 1660.4,-237.69"/>
<polygon fill="black" stroke="black" points="1660.76,-241.18 1670.1,-236.2 1659.69,-234.26 1660.76,-241.18"/>
<text text-anchor="middle" x="1581.5" y="-266.42" font-family="Times,serif" font-size="14.00">content/550:1</text>
</g>
<!-- q21:125 -->
<g id="node6" class="node">
<title>q21:125</title>
<ellipse fill="none" stroke="black" stroke-width="2" cx="1951.3" cy="-284.47" rx="52.26" ry="18"/>
<text text-anchor="middle" x="1951.3" y="-279.8" font-family="Times,serif" font-size="14.00">q21:125</text>
</g>
<!-- q17:125&#45;&gt;q21:125 -->
<g id="edge6" class="edge">
<title>q17:125&#45;&gt;q21:125</title>
<path fill="none" stroke="black" d="M1763.4,-284.47C1799.8,-284.47 1848.5,-284.47 1887.1,-284.47"/>
<polygon fill="black" stroke="black" points="1886.69,-287.97 1896.69,-284.47 1886.69,-280.97 1886.69,-287.97"/>
<text text-anchor="middle" x="1830.8" y="-288.42" font-family="Times,serif" font-size="14.00">QUIT/221:125</text>
</g>
<!-- q22:1 -->
<g id="node7" class="node">
<title>q22:1</title>
<ellipse fill="none" stroke="black" stroke-width="2" cx="1951.3" cy="-230.47" rx="39.63" ry="18"/>
<text text-anchor="middle" x="1951.3" y="-225.8" font-family="Times,serif" font-size="14.00">q22:1</text>
</g>
<!-- q18:1&#45;&gt;q22:1 -->
<g id="edge7" class="edge">
<title>q18:1&#45;&gt;q22:1</title>
<path fill="none" stroke="black" d="M1750.7,-230.47C1791.4,-230.47 1854.9,-230.47 1899.3,-230.47"/>
<polygon fill="black" stroke="black" points="1899.19,-233.97 1909.19,-230.47 1899.19,-226.97 1899.19,-233.97"/>
<text text-anchor="middle" x="1830.8" y="-234.42" font-family="Times,serif" font-size="14.00">RSET/250:1</text>
</g>
<!-- q12:142 -->
<g id="node8" class="node">
<title>q12:142</title>
<ellipse fill="none" stroke="black" stroke-width="2" cx="731.44" cy="-276.47" rx="52.26" ry="18"/>
<text text-anchor="middle" x="731.44" y="-271.8" font-family="Times,serif" font-size="14.00">q12:142</text>
</g>
<!-- q12:142&#45;&gt;q13:3030 -->
<g id="edge8" class="edge">
<title>q12:142&#45;&gt;q13:3030</title>
<path fill="none" stroke="black" d="M755.97,-293.29C768.87,-301.65 785.49,-311.09 801.7,-316.47 852.35,-333.27 867.68,-327.35 920.95,-330.47 1088.6,-340.28 1285.7,-312.31 1383.7,-295.74"/>
<polygon fill="black" stroke="black" points="1384.14,-299.22 1393.41,-294.09 1382.96,-292.32 1384.14,-299.22"/>
<text text-anchor="middle" x="1095.7" y="-335.42" font-family="Times,serif" font-size="14.00">DATA/354:111</text>
</g>
<!-- q8:230 -->
<g id="node9" class="node">
<title>q8:230</title>
<ellipse fill="none" stroke="black" stroke-width="2" cx="972.33" cy="-196.47" rx="45.95" ry="18"/>
<text text-anchor="middle" x="972.33" y="-191.8" font-family="Times,serif" font-size="14.00">q8:230</text>
</g>
<!-- q12:142&#45;&gt;q8:230 -->
<g id="edge9" class="edge">
<title>q12:142&#45;&gt;q8:230</title>
<path fill="none" stroke="black" d="M748.52,-258.62C761.51,-245.44 780.97,-228.28 801.7,-219.22 837.17,-203.72 880.47,-198.1 914.44,-196.33"/>
<polygon fill="black" stroke="black" points="914.22,-199.85 924.07,-195.93 913.93,-192.85 914.22,-199.85"/>
<text text-anchor="middle" x="852.33" y="-222.42" font-family="Times,serif" font-size="14.00">RCPT/250:3</text>
</g>
<!-- q15:28 -->
<g id="node10" class="node">
<title>q15:28</title>
<ellipse fill="none" stroke="black" stroke-width="2" cx="972.33" cy="-303.47" rx="45.95" ry="18"/>
<text text-anchor="middle" x="972.33" y="-298.8" font-family="Times,serif" font-size="14.00">q15:28</text>
</g>
<!-- q12:142&#45;&gt;q15:28 -->
<g id="edge10" class="edge">
<title>q12:142&#45;&gt;q15:28</title>
<path fill="none" stroke="black" d="M782.23,-282.1C821.27,-286.51 875.56,-292.65 915.96,-297.21"/>
<polygon fill="black" stroke="black" points="915.39,-300.67 925.73,-298.32 916.18,-293.72 915.39,-300.67"/>
<text text-anchor="middle" x="852.33" y="-299.42" font-family="Times,serif" font-size="14.00">DATA/550:28</text>
</g>
<!-- q9:231 -->
<g id="node11" class="node">
<title>q9:231</title>
<ellipse fill="none" stroke="black" stroke-width="2" cx="1213.6" cy="-223.47" rx="45.95" ry="18"/>
<text text-anchor="middle" x="1213.6" y="-218.8" font-family="Times,serif" font-size="14.00">q9:231</text>
</g>
<!-- q8:230&#45;&gt;q9:231 -->
<g id="edge11" class="edge">
<title>q8:230&#45;&gt;q9:231</title>
<path fill="none" stroke="black" d="M1017.5,-201.45C1057,-205.91 1114.9,-212.45 1157.5,-217.24"/>
<polygon fill="black" stroke="black" points="1156.86,-220.69 1167.2,-218.35 1157.66,-213.74 1156.86,-220.69"/>
<text text-anchor="middle" x="1095.7" y="-219.42" font-family="Times,serif" font-size="14.00">RCPT/250:230</text>
</g>
<!-- q9:231&#45;&gt;q13:3030 -->
<g id="edge12" class="edge">
<title>q9:231&#45;&gt;q13:3030</title>
<path fill="none" stroke="black" d="M1253,-233.61C1290.2,-243.44 1347,-258.46 1389.3,-269.63"/>
<polygon fill="black" stroke="black" points="1388.17,-272.96 1398.74,-272.14 1389.97,-266.19 1388.17,-272.96"/>
<text text-anchor="middle" x="1323.7" y="-266.42" font-family="Times,serif" font-size="14.00">DATA/354:89</text>
</g>
<!-- q9:231&#45;&gt;q12:142 -->
<g id="edge13" class="edge">
<title>q9:231&#45;&gt;q12:142</title>
<path fill="none" stroke="black" d="M1172.5,-232.44C1164.9,-233.93 1157.1,-235.36 1149.7,-236.47 1132.4,-239.07 906.46,-260.26 794.48,-270.7"/>
<polygon fill="black" stroke="black" points="794.17,-267.22 784.54,-271.63 794.82,-274.19 794.17,-267.22"/>
<text text-anchor="middle" x="972.33" y="-261.42" font-family="Times,serif" font-size="14.00">RCPT/250:142</text>
</g>
<!-- q1:244 -->
<g id="node12" class="node">
<title>q1:244</title>
<ellipse fill="none" stroke="black" stroke-width="2" cx="257.84" cy="-60.47" rx="45.95" ry="18"/>
<text text-anchor="middle" x="257.84" y="-55.8" font-family="Times,serif" font-size="14.00">q1:244</text>
</g>
<!-- q2:242 -->
<g id="node13" class="node">
<title>q2:242</title>
<ellipse fill="none" stroke="black" stroke-width="2" cx="491.48" cy="-93.47" rx="45.95" ry="18"/>
<text text-anchor="middle" x="491.48" y="-88.8" font-family="Times,serif" font-size="14.00">q2:242</text>
</g>
<!-- q1:244&#45;&gt;q2:242 -->
<g id="edge14" class="edge">
<title>q1:244&#45;&gt;q2:242</title>
<path fill="none" stroke="black" d="M302.14,-66.64C340,-72.04 395.17,-79.9 436.02,-85.71"/>
<polygon fill="black" stroke="black" points="435.51,-89.18 445.9,-87.12 436.49,-82.25 435.51,-89.18"/>
<text text-anchor="middle" x="374.66" y="-87.42" font-family="Times,serif" font-size="14.00">EHLO/250:242</text>
</g>
<!-- q3:2 -->
<g id="node14" class="node">
<title>q3:2</title>
<ellipse fill="none" stroke="black" stroke-width="2" cx="491.48" cy="-33.47" rx="33.32" ry="18"/>
<text text-anchor="middle" x="491.48" y="-28.8" font-family="Times,serif" font-size="14.00">q3:2</text>
</g>
<!-- q1:244&#45;&gt;q3:2 -->
<g id="edge15" class="edge">
<title>q1:244&#45;&gt;q3:2</title>
<path fill="none" stroke="black" d="M298.66,-51.3C306.31,-49.76 314.27,-48.32 321.79,-47.22 363.67,-41.13 411.82,-37.55 445.93,-35.57"/>
<polygon fill="black" stroke="black" points="446.07,-39.07 455.86,-35.02 445.68,-32.08 446.07,-39.07"/>
<text text-anchor="middle" x="374.66" y="-51.42" font-family="Times,serif" font-size="14.00">EHLO/λ:2</text>
</g>
<!-- q5:1 -->
<g id="node15" class="node">
<title>q5:1</title>
<ellipse fill="none" stroke="black" stroke-width="2" cx="852.33" cy="-155.47" rx="33.32" ry="18"/>
<text text-anchor="middle" x="852.33" y="-150.8" font-family="Times,serif" font-size="14.00">q5:1</text>
</g>
<!-- q2:242&#45;&gt;q5:1 -->
<g id="edge16" class="edge">
<title>q2:242&#45;&gt;q5:1</title>
<path fill="none" stroke="black" d="M525.43,-106.39C534.99,-109.75 545.52,-113.09 555.43,-115.47 643.39,-136.56 748.9,-147.48 807.18,-152.3"/>
<polygon fill="black" stroke="black" points="806.77,-155.78 817.02,-153.09 807.33,-148.81 806.77,-155.78"/>
<text text-anchor="middle" x="608.31" y="-138.42" font-family="Times,serif" font-size="14.00">AUTH/λ:1</text>
</g>
<!-- q4:230 -->
<g id="node16" class="node">
<title>q4:230</title>
<ellipse fill="none" stroke="black" stroke-width="2" cx="731.44" cy="-95.47" rx="45.95" ry="18"/>
<text text-anchor="middle" x="731.44" y="-90.8" font-family="Times,serif" font-size="14.00">q4:230</text>
</g>
<!-- q2:242&#45;&gt;q4:230 -->
<g id="edge17" class="edge">
<title>q2:242&#45;&gt;q4:230</title>
<path fill="none" stroke="black" d="M538.37,-93.86C576.88,-94.18 632.08,-94.65 673.43,-95"/>
<polygon fill="black" stroke="black" points="673.16,-98.49 683.19,-95.08 673.22,-91.49 673.16,-98.49"/>
<text text-anchor="middle" x="608.31" y="-98.42" font-family="Times,serif" font-size="14.00">AUTH/235:228</text>
</g>
<!-- q6:13 -->
<g id="node17" class="node">
<title>q6:13</title>
<ellipse fill="none" stroke="black" stroke-width="2" cx="731.44" cy="-33.47" rx="39.63" ry="18"/>
<text text-anchor="middle" x="731.44" y="-28.8" font-family="Times,serif" font-size="14.00">q6:13</text>
</g>
<!-- q2:242&#45;&gt;q6:13 -->
<g id="edge18" class="edge">
<title>q2:242&#45;&gt;q6:13</title>
<path fill="none" stroke="black" d="M526.91,-81.11C536.11,-78.01 546.1,-74.83 555.43,-72.22 598.17,-60.32 647.59,-49.65 682.99,-42.54"/>
<polygon fill="black" stroke="black" points="683.35,-46.04 692.47,-40.66 681.98,-39.17 683.35,-46.04"/>
<text text-anchor="middle" x="608.31" y="-76.42" font-family="Times,serif" font-size="14.00">AUTH/535:13</text>
</g>
<!-- q3:2&#45;&gt;q4:230 -->
<g id="edge19" class="edge">
<title>q3:2&#45;&gt;q4:230</title>
<path fill="none" stroke="black" d="M520.5,-23.41C555.99,-12.53 617.77,0 661.18,-26.22 675.9,-35.12 667.74,-47.63 679.18,-60.47 683.54,-65.37 688.73,-69.92 694.1,-74"/>
<polygon fill="black" stroke="black" points="691.77,-76.65 701.96,-79.55 695.81,-70.93 691.77,-76.65"/>
<text text-anchor="middle" x="608.31" y="-30.42" font-family="Times,serif" font-size="14.00">AUTH/235:2</text>
</g>
<!-- q5:1&#45;&gt;q9:231 -->
<g id="edge20" class="edge">
<title>q5:1&#45;&gt;q9:231</title>
<path fill="none" stroke="black" d="M886.34,-153.57C897.34,-153.02 909.67,-152.49 920.95,-152.22 966.61,-151.12 978.77,-144.07 1023.7,-152.22 1082.6,-162.89 1093.8,-178.32 1149.7,-199.47 1155.9,-201.8 1162.4,-204.27 1168.8,-206.7"/>
<polygon fill="black" stroke="black" points="1167.3,-209.88 1177.89,-210.19 1169.8,-203.34 1167.3,-209.88"/>
<text text-anchor="middle" x="972.33" y="-155.42" font-family="Times,serif" font-size="14.00">MAIL/250:1</text>
</g>
<!-- q4:230&#45;&gt;q8:230 -->
<g id="edge21" class="edge">
<title>q4:230&#45;&gt;q8:230</title>
<path fill="none" stroke="black" d="M778.11,-94.24C821.96,-94 884.23,-96.44 902.95,-111.22 922.56,-126.7 905.53,-144.82 920.95,-164.47 924.26,-168.68 928.28,-172.49 932.59,-175.9"/>
<polygon fill="black" stroke="black" points="930.3,-178.57 940.49,-181.45 934.32,-172.84 930.3,-178.57"/>
<text text-anchor="middle" x="852.33" y="-114.42" font-family="Times,serif" font-size="14.00">MAIL/250:227</text>
</g>
<!-- q7:3 -->
<g id="node18" class="node">
<title>q7:3</title>
<ellipse fill="none" stroke="black" stroke-width="2" cx="972.33" cy="-78.47" rx="33.32" ry="18"/>
<text text-anchor="middle" x="972.33" y="-73.8" font-family="Times,serif" font-size="14.00">q7:3</text>
</g>
<!-- q4:230&#45;&gt;q7:3 -->
<g id="edge22" class="edge">
<title>q4:230&#45;&gt;q7:3</title>
<path fill="none" stroke="black" d="M768,-83.6C778.71,-80.57 790.57,-77.74 801.7,-76.22 844.17,-70.43 893.18,-71.95 927.56,-74.34"/>
<polygon fill="black" stroke="black" points="926.89,-77.8 937.12,-75.07 927.41,-70.82 926.89,-77.8"/>
<text text-anchor="middle" x="852.33" y="-80.42" font-family="Times,serif" font-size="14.00">MAIL/553:3</text>
</g>
<!-- q10:13 -->
<g id="node19" class="node">
<title>q10:13</title>
<ellipse fill="none" stroke="black" stroke-width="2" cx="972.33" cy="-24.47" rx="45.95" ry="18"/>
<text text-anchor="middle" x="972.33" y="-19.8" font-family="Times,serif" font-size="14.00">q10:13</text>
</g>
<!-- q6:13&#45;&gt;q10:13 -->
<g id="edge23" class="edge">
<title>q6:13&#45;&gt;q10:13</title>
<path fill="none" stroke="black" d="M771.89,-31.99C810.69,-30.53 870.35,-28.28 914.31,-26.62"/>
<polygon fill="black" stroke="black" points="914.33,-30.12 924.19,-26.25 914.06,-23.13 914.33,-30.12"/>
<text text-anchor="middle" x="852.33" y="-35.42" font-family="Times,serif" font-size="14.00">AUTH/334:13</text>
</g>
<!-- q11:3 -->
<g id="node20" class="node">
<title>q11:3</title>
<ellipse fill="none" stroke="black" stroke-width="2" cx="1213.6" cy="-78.47" rx="39.63" ry="18"/>
<text text-anchor="middle" x="1213.6" y="-73.8" font-family="Times,serif" font-size="14.00">q11:3</text>
</g>
<!-- q7:3&#45;&gt;q11:3 -->
<g id="edge24" class="edge">
<title>q7:3&#45;&gt;q11:3</title>
<path fill="none" stroke="black" d="M1006.6,-78.47C1046.9,-78.47 1115,-78.47 1161.9,-78.47"/>
<polygon fill="black" stroke="black" points="1161.79,-81.97 1171.79,-78.47 1161.79,-74.97 1161.79,-81.97"/>
<text text-anchor="middle" x="1095.7" y="-82.42" font-family="Times,serif" font-size="14.00">RSET/250:3</text>
</g>
<!-- q14:13 -->
<g id="node21" class="node">
<title>q14:13</title>
<ellipse fill="none" stroke="black" stroke-width="2" cx="1213.6" cy="-24.47" rx="45.95" ry="18"/>
<text text-anchor="middle" x="1213.6" y="-19.8" font-family="Times,serif" font-size="14.00">q14:13</text>
</g>
<!-- q10:13&#45;&gt;q14:13 -->
<g id="edge25" class="edge">
<title>q10:13&#45;&gt;q14:13</title>
<path fill="none" stroke="black" d="M1019.2,-24.47C1058,-24.47 1113.9,-24.47 1155.6,-24.47"/>
<polygon fill="black" stroke="black" points="1155.39,-27.97 1165.39,-24.47 1155.39,-20.97 1155.39,-27.97"/>
<text text-anchor="middle" x="1095.7" y="-28.42" font-family="Times,serif" font-size="14.00">content/535:13</text>
</g>
<!-- q19:4 -->
<g id="node23" class="node">
<title>q19:4</title>
<ellipse fill="none" stroke="black" stroke-width="2" cx="1446.4" cy="-24.47" rx="39.63" ry="18"/>
<text text-anchor="middle" x="1446.4" y="-19.8" font-family="Times,serif" font-size="14.00">q19:4</text>
</g>
<!-- q14:13&#45;&gt;q19:4 -->
<g id="edge27" class="edge">
<title>q14:13&#45;&gt;q19:4</title>
<path fill="none" stroke="black" d="M1260.5,-24.47C1299.2,-24.47 1354.4,-24.47 1394.4,-24.47"/>
<polygon fill="black" stroke="black" points="1394.29,-27.97 1404.29,-24.47 1394.29,-20.97 1394.29,-27.97"/>
<text text-anchor="middle" x="1323.7" y="-28.42" font-family="Times,serif" font-size="14.00">λ/451:4</text>
</g>
<!-- q0:244 -->
<g id="node22" class="node">
<title>q0:244</title>
<ellipse fill="none" stroke="black" stroke-width="2" cx="53.95" cy="-60.47" rx="49.95" ry="49.95"/>
<ellipse fill="none" stroke="black" stroke-width="2" cx="53.95" cy="-60.47" rx="53.95" ry="53.95"/>
<text text-anchor="middle" x="53.95" y="-55.8" font-family="Times,serif" font-size="14.00">q0:244</text>
</g>
<!-- q0:244&#45;&gt;q1:244 -->
<g id="edge26" class="edge">
<title>q0:244&#45;&gt;q1:244</title>
<path fill="none" stroke="black" d="M104.85,-60.47C133.64,-60.47 169.94,-60.47 199.84,-60.47"/>
<polygon fill="black" stroke="black" points="199.45,-63.97 209.45,-60.47 199.45,-56.97 199.45,-63.97"/>
<text text-anchor="middle" x="157.89" y="-64.42" font-family="Times,serif" font-size="14.00">λ/220:244</text>
</g>
</g>
</svg>
