<?xml version="1.0" encoding="UTF-8" standalone="no"?>
<!DOCTYPE svg PUBLIC "-//W3C//DTD SVG 1.1//EN"
 "http://www.w3.org/Graphics/SVG/1.1/DTD/svg11.dtd">
<!-- Generated by graphviz version 12.0.0 (20240803.0821)
 -->
<!-- Pages: 1 -->
<svg width="2013pt" height="485pt"
 viewBox="0.00 0.00 2013.35 484.95" xmlns="http://www.w3.org/2000/svg" xmlns:xlink="http://www.w3.org/1999/xlink">
<g id="graph0" class="graph" transform="scale(1 1) rotate(0) translate(4 480.95)">
<polygon fill="white" stroke="none" points="-4,4 -4,-480.95 2009.35,-480.95 2009.35,4 -4,4"/>
<!-- q23:112 -->
<g id="node1" class="node">
<title>q23:112</title>
<ellipse fill="none" stroke="black" stroke-width="2" cx="1014.2" cy="-458.95" rx="52.26" ry="18"/>
<text text-anchor="middle" x="1014.2" y="-454.27" font-family="Times,serif" font-size="14.00">q23:112</text>
</g>
<!-- q28:112 -->
<g id="node2" class="node">
<title>q28:112</title>
<ellipse fill="none" stroke="black" stroke-width="2" cx="1262.7" cy="-458.95" rx="52.26" ry="18"/>
<text text-anchor="middle" x="1262.7" y="-454.27" font-family="Times,serif" font-size="14.00">q28:112</text>
</g>
<!-- q23:112&#45;&gt;q28:112 -->
<g id="edge1" class="edge">
<title>q23:112&#45;&gt;q28:112</title>
<path fill="none" stroke="black" d="M1067.2,-458.95C1105.5,-458.95 1157.7,-458.95 1198.4,-458.95"/>
<polygon fill="black" stroke="black" points="1198.29,-462.45 1208.29,-458.95 1198.29,-455.45 1198.29,-462.45"/>
<text text-anchor="middle" x="1138.5" y="-462.89" font-family="Times,serif" font-size="14.00">QUIT/221:112</text>
</g>
<!-- q21:6 -->
<g id="node3" class="node">
<title>q21:6</title>
<ellipse fill="none" stroke="black" stroke-width="2" cx="1014.2" cy="-404.95" rx="39.63" ry="18"/>
<text text-anchor="middle" x="1014.2" y="-400.27" font-family="Times,serif" font-size="14.00">q21:6</text>
</g>
<!-- q26:6 -->
<g id="node4" class="node">
<title>q26:6</title>
<ellipse fill="none" stroke="black" stroke-width="2" cx="1262.7" cy="-404.95" rx="39.63" ry="18"/>
<text text-anchor="middle" x="1262.7" y="-400.27" font-family="Times,serif" font-size="14.00">q26:6</text>
</g>
<!-- q21:6&#45;&gt;q26:6 -->
<g id="edge2" class="edge">
<title>q21:6&#45;&gt;q26:6</title>
<path fill="none" stroke="black" d="M1054.8,-404.95C1097.2,-404.95 1164.7,-404.95 1210.9,-404.95"/>
<polygon fill="black" stroke="black" points="1210.69,-408.45 1220.69,-404.95 1210.69,-401.45 1210.69,-408.45"/>
<text text-anchor="middle" x="1138.5" y="-408.89" font-family="Times,serif" font-size="14.00">RSET/250:6</text>
</g>
<!-- q2:242 -->
<g id="node5" class="node">
<title>q2:242</title>
<ellipse fill="none" stroke="black" stroke-width="2" cx="497.8" cy="-86.95" rx="45.95" ry="18"/>
<text text-anchor="middle" x="497.8" y="-82.27" font-family="Times,serif" font-size="14.00">q2:242</text>
</g>
<!-- q4:232 -->
<g id="node6" class="node">
<title>q4:232</title>
<ellipse fill="none" stroke="black" stroke-width="2" cx="750.38" cy="-95.95" rx="45.95" ry="18"/>
<text text-anchor="middle" x="750.38" y="-91.27" font-family="Times,serif" font-size="14.00">q4:232</text>
</g>
<!-- q2:242&#45;&gt;q4:232 -->
<g id="edge3" class="edge">
<title>q2:242&#45;&gt;q4:232</title>
<path fill="none" stroke="black" d="M544.47,-88.59C586.15,-90.08 647.92,-92.3 692.73,-93.91"/>
<polygon fill="black" stroke="black" points="692.4,-97.4 702.52,-94.26 692.65,-90.41 692.4,-97.4"/>
<text text-anchor="middle" x="620.93" y="-96.9" font-family="Times,serif" font-size="14.00">AUTH/235:230</text>
</g>
<!-- q5:11 -->
<g id="node7" class="node">
<title>q5:11</title>
<ellipse fill="none" stroke="black" stroke-width="2" cx="750.38" cy="-40.95" rx="39.63" ry="18"/>
<text text-anchor="middle" x="750.38" y="-36.27" font-family="Times,serif" font-size="14.00">q5:11</text>
</g>
<!-- q2:242&#45;&gt;q5:11 -->
<g id="edge4" class="edge">
<title>q2:242&#45;&gt;q5:11</title>
<path fill="none" stroke="black" d="M535.61,-75.8C546.03,-72.89 557.44,-69.95 568.06,-67.7 612.16,-58.35 662.98,-51.16 699.58,-46.6"/>
<polygon fill="black" stroke="black" points="699.93,-50.08 709.43,-45.39 699.08,-43.13 699.93,-50.08"/>
<text text-anchor="middle" x="620.93" y="-70.9" font-family="Times,serif" font-size="14.00">AUTH/535:11</text>
</g>
<!-- q6:1 -->
<g id="node8" class="node">
<title>q6:1</title>
<ellipse fill="none" stroke="black" stroke-width="2" cx="750.38" cy="-150.95" rx="33.32" ry="18"/>
<text text-anchor="middle" x="750.38" y="-146.27" font-family="Times,serif" font-size="14.00">q6:1</text>
</g>
<!-- q2:242&#45;&gt;q6:1 -->
<g id="edge5" class="edge">
<title>q2:242&#45;&gt;q6:1</title>
<path fill="none" stroke="black" d="M530.13,-100.46C541.87,-105.18 555.43,-110.23 568.06,-113.95 614.56,-127.65 669.24,-138.05 706.3,-144.29"/>
<polygon fill="black" stroke="black" points="705.28,-147.67 715.72,-145.84 706.42,-140.76 705.28,-147.67"/>
<text text-anchor="middle" x="620.93" y="-140.89" font-family="Times,serif" font-size="14.00">AUTH/λ:1</text>
</g>
<!-- q8:233 -->
<g id="node9" class="node">
<title>q8:233</title>
<ellipse fill="none" stroke="black" stroke-width="2" cx="1014.2" cy="-189.95" rx="45.95" ry="18"/>
<text text-anchor="middle" x="1014.2" y="-185.27" font-family="Times,serif" font-size="14.00">q8:233</text>
</g>
<!-- q4:232&#45;&gt;q8:233 -->
<g id="edge6" class="edge">
<title>q4:232&#45;&gt;q8:233</title>
<path fill="none" stroke="black" d="M792.95,-103.48C845.39,-113.15 930.4,-129.42 943.96,-135.7 959.79,-143.04 975.29,-154.63 987.59,-165.22"/>
<polygon fill="black" stroke="black" points="985.03,-167.63 994.82,-171.67 989.69,-162.4 985.03,-167.63"/>
<text text-anchor="middle" x="885.46" y="-138.89" font-family="Times,serif" font-size="14.00">MAIL/250:230</text>
</g>
<!-- q7:2 -->
<g id="node10" class="node">
<title>q7:2</title>
<ellipse fill="none" stroke="black" stroke-width="2" cx="1014.2" cy="-91.95" rx="33.32" ry="18"/>
<text text-anchor="middle" x="1014.2" y="-87.27" font-family="Times,serif" font-size="14.00">q7:2</text>
</g>
<!-- q4:232&#45;&gt;q7:2 -->
<g id="edge7" class="edge">
<title>q4:232&#45;&gt;q7:2</title>
<path fill="none" stroke="black" d="M796.52,-92.99C806.54,-92.45 817.1,-91.97 826.96,-91.7 878.93,-90.24 891.96,-91.6 943.96,-91.7 951.96,-91.71 960.5,-91.73 968.73,-91.76"/>
<polygon fill="black" stroke="black" points="968.57,-95.26 978.59,-91.8 968.6,-88.26 968.57,-95.26"/>
<text text-anchor="middle" x="885.46" y="-94.9" font-family="Times,serif" font-size="14.00">MAIL/553:2</text>
</g>
<!-- q9:11 -->
<g id="node11" class="node">
<title>q9:11</title>
<ellipse fill="none" stroke="black" stroke-width="2" cx="1014.2" cy="-37.95" rx="39.63" ry="18"/>
<text text-anchor="middle" x="1014.2" y="-33.27" font-family="Times,serif" font-size="14.00">q9:11</text>
</g>
<!-- q5:11&#45;&gt;q9:11 -->
<g id="edge8" class="edge">
<title>q5:11&#45;&gt;q9:11</title>
<path fill="none" stroke="black" d="M790.86,-40.49C836.72,-39.97 912.48,-39.1 962.62,-38.53"/>
<polygon fill="black" stroke="black" points="962.37,-42.03 972.33,-38.41 962.29,-35.03 962.37,-42.03"/>
<text text-anchor="middle" x="885.46" y="-44.9" font-family="Times,serif" font-size="14.00">AUTH/334:11</text>
</g>
<!-- q6:1&#45;&gt;q8:233 -->
<g id="edge9" class="edge">
<title>q6:1&#45;&gt;q8:233</title>
<path fill="none" stroke="black" d="M784.28,-153.34C822.78,-156.44 888.33,-162.67 943.96,-172.7 950.52,-173.88 957.38,-175.33 964.13,-176.88"/>
<polygon fill="black" stroke="black" points="963.3,-180.28 973.84,-179.2 964.92,-173.47 963.3,-180.28"/>
<text text-anchor="middle" x="885.46" y="-175.89" font-family="Times,serif" font-size="14.00">MAIL/250:1</text>
</g>
<!-- q11:233 -->
<g id="node12" class="node">
<title>q11:233</title>
<ellipse fill="none" stroke="black" stroke-width="2" cx="1262.7" cy="-277.95" rx="52.26" ry="18"/>
<text text-anchor="middle" x="1262.7" y="-273.27" font-family="Times,serif" font-size="14.00">q11:233</text>
</g>
<!-- q8:233&#45;&gt;q11:233 -->
<g id="edge10" class="edge">
<title>q8:233&#45;&gt;q11:233</title>
<path fill="none" stroke="black" d="M1049.8,-202.28C1092.5,-217.55 1165.7,-243.65 1213.8,-260.85"/>
<polygon fill="black" stroke="black" points="1212.58,-264.13 1223.17,-264.19 1214.93,-257.54 1212.58,-264.13"/>
<text text-anchor="middle" x="1138.5" y="-254.89" font-family="Times,serif" font-size="14.00">RCPT/250:233</text>
</g>
<!-- q10:2 -->
<g id="node13" class="node">
<title>q10:2</title>
<ellipse fill="none" stroke="black" stroke-width="2" cx="1262.7" cy="-91.95" rx="39.63" ry="18"/>
<text text-anchor="middle" x="1262.7" y="-87.27" font-family="Times,serif" font-size="14.00">q10:2</text>
</g>
<!-- q7:2&#45;&gt;q10:2 -->
<g id="edge11" class="edge">
<title>q7:2&#45;&gt;q10:2</title>
<path fill="none" stroke="black" d="M1048.5,-91.95C1090.3,-91.95 1162.6,-91.95 1211.3,-91.95"/>
<polygon fill="black" stroke="black" points="1210.99,-95.45 1220.99,-91.95 1210.99,-88.45 1210.99,-95.45"/>
<text text-anchor="middle" x="1138.5" y="-95.9" font-family="Times,serif" font-size="14.00">RSET/250:2</text>
</g>
<!-- q12:11 -->
<g id="node14" class="node">
<title>q12:11</title>
<ellipse fill="none" stroke="black" stroke-width="2" cx="1262.7" cy="-37.95" rx="45.95" ry="18"/>
<text text-anchor="middle" x="1262.7" y="-33.27" font-family="Times,serif" font-size="14.00">q12:11</text>
</g>
<!-- q9:11&#45;&gt;q12:11 -->
<g id="edge12" class="edge">
<title>q9:11&#45;&gt;q12:11</title>
<path fill="none" stroke="black" d="M1054.8,-37.95C1095.4,-37.95 1158.7,-37.95 1204.7,-37.95"/>
<polygon fill="black" stroke="black" points="1204.39,-41.45 1214.39,-37.95 1204.39,-34.45 1204.39,-41.45"/>
<text text-anchor="middle" x="1138.5" y="-41.9" font-family="Times,serif" font-size="14.00">content/535:11</text>
</g>
<!-- q14:143 -->
<g id="node15" class="node">
<title>q14:143</title>
<ellipse fill="none" stroke="black" stroke-width="2" cx="1495.5" cy="-277.95" rx="52.26" ry="18"/>
<text text-anchor="middle" x="1495.5" y="-273.27" font-family="Times,serif" font-size="14.00">q14:143</text>
</g>
<!-- q11:233&#45;&gt;q14:143 -->
<g id="edge13" class="edge">
<title>q11:233&#45;&gt;q14:143</title>
<path fill="none" stroke="black" d="M1315.8,-277.95C1350,-277.95 1394.9,-277.95 1431.2,-277.95"/>
<polygon fill="black" stroke="black" points="1431.09,-281.45 1441.09,-277.95 1431.09,-274.45 1431.09,-281.45"/>
<text text-anchor="middle" x="1379.1" y="-281.89" font-family="Times,serif" font-size="14.00">DATA/354:69</text>
</g>
<!-- q13:164 -->
<g id="node16" class="node">
<title>q13:164</title>
<ellipse fill="none" stroke="black" stroke-width="2" cx="497.8" cy="-281.95" rx="52.26" ry="18"/>
<text text-anchor="middle" x="497.8" y="-277.27" font-family="Times,serif" font-size="14.00">q13:164</text>
</g>
<!-- q11:233&#45;&gt;q13:164 -->
<g id="edge14" class="edge">
<title>q11:233&#45;&gt;q13:164</title>
<path fill="none" stroke="black" d="M1209.8,-279.48C1107.4,-282.42 871.86,-288.76 673.81,-290.95 626.81,-291.47 614.96,-293.98 568.06,-290.95 564.88,-290.74 561.63,-290.48 558.35,-290.19"/>
<polygon fill="black" stroke="black" points="558.97,-286.73 548.67,-289.19 558.25,-293.7 558.97,-286.73"/>
<text text-anchor="middle" x="885.46" y="-291.89" font-family="Times,serif" font-size="14.00">RCPT/250:164</text>
</g>
<!-- q15:4 -->
<g id="node17" class="node">
<title>q15:4</title>
<ellipse fill="none" stroke="black" stroke-width="2" cx="1495.5" cy="-37.95" rx="39.63" ry="18"/>
<text text-anchor="middle" x="1495.5" y="-33.27" font-family="Times,serif" font-size="14.00">q15:4</text>
</g>
<!-- q12:11&#45;&gt;q15:4 -->
<g id="edge15" class="edge">
<title>q12:11&#45;&gt;q15:4</title>
<path fill="none" stroke="black" d="M1309.6,-37.95C1348.2,-37.95 1403.5,-37.95 1443.5,-37.95"/>
<polygon fill="black" stroke="black" points="1443.39,-41.45 1453.39,-37.95 1443.39,-34.45 1443.39,-41.45"/>
<text text-anchor="middle" x="1379.1" y="-41.9" font-family="Times,serif" font-size="14.00">λ/451:4</text>
</g>
<!-- q14:143&#45;&gt;q14:143 -->
<g id="edge21" class="edge">
<title>q14:143&#45;&gt;q14:143</title>
<path fill="none" stroke="black" d="M1474.7,-295.36C1470.9,-305.03 1477.8,-313.95 1495.5,-313.95 1505.8,-313.95 1512.4,-310.97 1515.4,-306.58"/>
<polygon fill="black" stroke="black" points="1518.87,-307.12 1516.18,-296.87 1511.89,-306.56 1518.87,-307.12"/>
<text text-anchor="middle" x="1495.5" y="-317.89" font-family="Times,serif" font-size="14.00">content/λ:74</text>
</g>
<!-- q19:54 -->
<g id="node21" class="node">
<title>q19:54</title>
<ellipse fill="none" stroke="black" stroke-width="2" cx="1737.7" cy="-302.95" rx="45.95" ry="18"/>
<text text-anchor="middle" x="1737.7" y="-298.27" font-family="Times,serif" font-size="14.00">q19:54</text>
</g>
<!-- q14:143&#45;&gt;q19:54 -->
<g id="edge22" class="edge">
<title>q14:143&#45;&gt;q19:54</title>
<path fill="none" stroke="black" d="M1546.6,-283.16C1585.8,-287.24 1640.4,-292.92 1681,-297.15"/>
<polygon fill="black" stroke="black" points="1680.59,-300.63 1690.89,-298.17 1681.31,-293.66 1680.59,-300.63"/>
<text text-anchor="middle" x="1619.8" y="-299.89" font-family="Times,serif" font-size="14.00">content/554:54</text>
</g>
<!-- q20:15 -->
<g id="node22" class="node">
<title>q20:15</title>
<ellipse fill="none" stroke="black" stroke-width="2" cx="1737.7" cy="-248.95" rx="45.95" ry="18"/>
<text text-anchor="middle" x="1737.7" y="-244.27" font-family="Times,serif" font-size="14.00">q20:15</text>
</g>
<!-- q14:143&#45;&gt;q20:15 -->
<g id="edge23" class="edge">
<title>q14:143&#45;&gt;q20:15</title>
<path fill="none" stroke="black" d="M1540.7,-268.05C1549,-266.42 1557.6,-264.88 1565.8,-263.7 1603.6,-258.19 1646.5,-254.5 1679.8,-252.18"/>
<polygon fill="black" stroke="black" points="1679.94,-255.68 1689.69,-251.52 1679.48,-248.69 1679.94,-255.68"/>
<text text-anchor="middle" x="1619.8" y="-266.89" font-family="Times,serif" font-size="14.00">content/250:15</text>
</g>
<!-- q18:3188 -->
<g id="node18" class="node">
<title>q18:3188</title>
<ellipse fill="none" stroke="black" stroke-width="2" cx="750.38" cy="-382.95" rx="58.57" ry="18"/>
<text text-anchor="middle" x="750.38" y="-378.27" font-family="Times,serif" font-size="14.00">q18:3188</text>
</g>
<!-- q13:164&#45;&gt;q18:3188 -->
<g id="edge26" class="edge">
<title>q13:164&#45;&gt;q18:3188</title>
<path fill="none" stroke="black" d="M526.29,-297.87C538.81,-304.8 553.96,-312.74 568.06,-318.95 610.14,-337.49 659.43,-354.6 696,-366.46"/>
<polygon fill="black" stroke="black" points="694.88,-369.77 705.47,-369.51 697.02,-363.11 694.88,-369.77"/>
<text text-anchor="middle" x="620.93" y="-360.89" font-family="Times,serif" font-size="14.00">DATA/354:119</text>
</g>
<!-- q17:2 -->
<g id="node25" class="node">
<title>q17:2</title>
<ellipse fill="none" stroke="black" stroke-width="2" cx="750.38" cy="-204.95" rx="39.63" ry="18"/>
<text text-anchor="middle" x="750.38" y="-200.27" font-family="Times,serif" font-size="14.00">q17:2</text>
</g>
<!-- q13:164&#45;&gt;q17:2 -->
<g id="edge27" class="edge">
<title>q13:164&#45;&gt;q17:2</title>
<path fill="none" stroke="black" d="M523.53,-265.44C536.35,-257.54 552.54,-248.55 568.06,-242.7 611.14,-226.46 662.76,-216.58 699.88,-211.02"/>
<polygon fill="black" stroke="black" points="700.01,-214.54 709.41,-209.65 699.01,-207.61 700.01,-214.54"/>
<text text-anchor="middle" x="620.93" y="-245.89" font-family="Times,serif" font-size="14.00">RCPT/250:2</text>
</g>
<!-- q16:43 -->
<g id="node26" class="node">
<title>q16:43</title>
<ellipse fill="none" stroke="black" stroke-width="2" cx="750.38" cy="-258.95" rx="45.95" ry="18"/>
<text text-anchor="middle" x="750.38" y="-254.27" font-family="Times,serif" font-size="14.00">q16:43</text>
</g>
<!-- q13:164&#45;&gt;q16:43 -->
<g id="edge28" class="edge">
<title>q13:164&#45;&gt;q16:43</title>
<path fill="none" stroke="black" d="M547.96,-275.86C554.71,-275.09 561.55,-274.35 568.06,-273.7 609.89,-269.51 657.23,-265.69 693.05,-262.98"/>
<polygon fill="black" stroke="black" points="693.04,-266.49 702.75,-262.26 692.52,-259.51 693.04,-266.49"/>
<text text-anchor="middle" x="620.93" y="-276.89" font-family="Times,serif" font-size="14.00">DATA/550:43</text>
</g>
<!-- q18:3188&#45;&gt;q23:112 -->
<g id="edge16" class="edge">
<title>q18:3188&#45;&gt;q23:112</title>
<path fill="none" stroke="black" d="M780.45,-399.29C794.2,-406.47 811.07,-414.49 826.96,-419.95 868.3,-434.15 916.66,-444.09 953.74,-450.38"/>
<polygon fill="black" stroke="black" points="952.94,-453.79 963.38,-451.96 954.08,-446.89 952.94,-453.79"/>
<text text-anchor="middle" x="885.46" y="-451.89" font-family="Times,serif" font-size="14.00">content/250:112</text>
</g>
<!-- q18:3188&#45;&gt;q21:6 -->
<g id="edge17" class="edge">
<title>q18:3188&#45;&gt;q21:6</title>
<path fill="none" stroke="black" d="M807.87,-387.69C853.97,-391.57 918.49,-396.99 962.84,-400.71"/>
<polygon fill="black" stroke="black" points="962.45,-404.19 972.71,-401.54 963.04,-397.21 962.45,-404.19"/>
<text text-anchor="middle" x="885.46" y="-402.89" font-family="Times,serif" font-size="14.00">content/554:6</text>
</g>
<!-- q18:3188&#45;&gt;q18:3188 -->
<g id="edge18" class="edge">
<title>q18:3188&#45;&gt;q18:3188</title>
<path fill="none" stroke="black" d="M727.27,-400.36C722.96,-410.03 730.66,-418.95 750.38,-418.95 761.78,-418.95 769.17,-415.97 772.54,-411.58"/>
<polygon fill="black" stroke="black" points="776.01,-412.13 773.36,-401.87 769.03,-411.54 776.01,-412.13"/>
<text text-anchor="middle" x="750.38" y="-422.89" font-family="Times,serif" font-size="14.00">content/λ:3069</text>
</g>
<!-- q22:1 -->
<g id="node19" class="node">
<title>q22:1</title>
<ellipse fill="none" stroke="black" stroke-width="2" cx="1014.2" cy="-350.95" rx="39.63" ry="18"/>
<text text-anchor="middle" x="1014.2" y="-346.27" font-family="Times,serif" font-size="14.00">q22:1</text>
</g>
<!-- q18:3188&#45;&gt;q22:1 -->
<g id="edge19" class="edge">
<title>q18:3188&#45;&gt;q22:1</title>
<path fill="none" stroke="black" d="M799.62,-372.39C808.68,-370.65 818.08,-368.99 826.96,-367.7 872.82,-361.03 925.44,-356.59 963.03,-353.97"/>
<polygon fill="black" stroke="black" points="962.94,-357.48 972.68,-353.31 962.46,-350.5 962.94,-357.48"/>
<text text-anchor="middle" x="885.46" y="-370.89" font-family="Times,serif" font-size="14.00">content/550:1</text>
</g>
<!-- q27:1 -->
<g id="node20" class="node">
<title>q27:1</title>
<ellipse fill="none" stroke="black" stroke-width="2" cx="1262.7" cy="-350.95" rx="39.63" ry="18"/>
<text text-anchor="middle" x="1262.7" y="-346.27" font-family="Times,serif" font-size="14.00">q27:1</text>
</g>
<!-- q22:1&#45;&gt;q27:1 -->
<g id="edge20" class="edge">
<title>q22:1&#45;&gt;q27:1</title>
<path fill="none" stroke="black" d="M1054.8,-350.95C1097.2,-350.95 1164.7,-350.95 1210.9,-350.95"/>
<polygon fill="black" stroke="black" points="1210.69,-354.45 1220.69,-350.95 1210.69,-347.45 1210.69,-354.45"/>
<text text-anchor="middle" x="1138.5" y="-354.89" font-family="Times,serif" font-size="14.00">RSET/250:1</text>
</g>
<!-- q24:54 -->
<g id="node23" class="node">
<title>q24:54</title>
<ellipse fill="none" stroke="black" stroke-width="2" cx="1959.4" cy="-302.95" rx="45.95" ry="18"/>
<text text-anchor="middle" x="1959.4" y="-298.27" font-family="Times,serif" font-size="14.00">q24:54</text>
</g>
<!-- q19:54&#45;&gt;q24:54 -->
<g id="edge24" class="edge">
<title>q19:54&#45;&gt;q24:54</title>
<path fill="none" stroke="black" d="M1784.5,-302.95C1818.4,-302.95 1864.9,-302.95 1901.2,-302.95"/>
<polygon fill="black" stroke="black" points="1901.09,-306.45 1911.09,-302.95 1901.09,-299.45 1901.09,-306.45"/>
<text text-anchor="middle" x="1848.5" y="-306.89" font-family="Times,serif" font-size="14.00">RSET/250:54</text>
</g>
<!-- q25:15 -->
<g id="node24" class="node">
<title>q25:15</title>
<ellipse fill="none" stroke="black" stroke-width="2" cx="1959.4" cy="-248.95" rx="45.95" ry="18"/>
<text text-anchor="middle" x="1959.4" y="-244.27" font-family="Times,serif" font-size="14.00">q25:15</text>
</g>
<!-- q20:15&#45;&gt;q25:15 -->
<g id="edge25" class="edge">
<title>q20:15&#45;&gt;q25:15</title>
<path fill="none" stroke="black" d="M1784.5,-248.95C1818.4,-248.95 1864.9,-248.95 1901.2,-248.95"/>
<polygon fill="black" stroke="black" points="1901.09,-252.45 1911.09,-248.95 1901.09,-245.45 1901.09,-252.45"/>
<text text-anchor="middle" x="1848.5" y="-252.89" font-family="Times,serif" font-size="14.00">QUIT/221:15</text>
</g>
<!-- q17:2&#45;&gt;q8:233 -->
<g id="edge29" class="edge">
<title>q17:2&#45;&gt;q8:233</title>
<path fill="none" stroke="black" d="M790.58,-202.7C834.65,-200.18 906.6,-196.05 956.73,-193.18"/>
<polygon fill="black" stroke="black" points="956.73,-196.68 966.52,-192.62 956.34,-189.7 956.73,-196.68"/>
<text text-anchor="middle" x="885.46" y="-203.89" font-family="Times,serif" font-size="14.00">RCPT/250:2</text>
</g>
<!-- q0:244 -->
<g id="node27" class="node">
<title>q0:244</title>
<ellipse fill="none" stroke="black" stroke-width="2" cx="53.95" cy="-53.95" rx="49.95" ry="49.95"/>
<ellipse fill="none" stroke="black" stroke-width="2" cx="53.95" cy="-53.95" rx="53.95" ry="53.95"/>
<text text-anchor="middle" x="53.95" y="-49.27" font-family="Times,serif" font-size="14.00">q0:244</text>
</g>
<!-- q1:244 -->
<g id="node28" class="node">
<title>q1:244</title>
<ellipse fill="none" stroke="black" stroke-width="2" cx="257.84" cy="-53.95" rx="45.95" ry="18"/>
<text text-anchor="middle" x="257.84" y="-49.27" font-family="Times,serif" font-size="14.00">q1:244</text>
</g>
<!-- q0:244&#45;&gt;q1:244 -->
<g id="edge30" class="edge">
<title>q0:244&#45;&gt;q1:244</title>
<path fill="none" stroke="black" d="M104.85,-53.95C133.64,-53.95 169.94,-53.95 199.84,-53.95"/>
<polygon fill="black" stroke="black" points="199.45,-57.45 209.45,-53.95 199.45,-50.45 199.45,-57.45"/>
<text text-anchor="middle" x="157.89" y="-57.9" font-family="Times,serif" font-size="14.00">λ/220:244</text>
</g>
<!-- q1:244&#45;&gt;q2:242 -->
<g id="edge31" class="edge">
<title>q1:244&#45;&gt;q2:242</title>
<path fill="none" stroke="black" d="M302.21,-59.96C341.5,-65.41 399.58,-73.46 442.06,-79.36"/>
<polygon fill="black" stroke="black" points="441.44,-82.8 451.83,-80.71 442.41,-75.87 441.44,-82.8"/>
<text text-anchor="middle" x="374.66" y="-80.9" font-family="Times,serif" font-size="14.00">EHLO/250:242</text>
</g>
<!-- q3:2 -->
<g id="node29" class="node">
<title>q3:2</title>
<ellipse fill="none" stroke="black" stroke-width="2" cx="497.8" cy="-26.95" rx="33.32" ry="18"/>
<text text-anchor="middle" x="497.8" y="-22.27" font-family="Times,serif" font-size="14.00">q3:2</text>
</g>
<!-- q1:244&#45;&gt;q3:2 -->
<g id="edge32" class="edge">
<title>q1:244&#45;&gt;q3:2</title>
<path fill="none" stroke="black" d="M296.21,-43.05C304.56,-40.96 313.43,-39.02 321.79,-37.7 365.82,-30.73 416.74,-28.21 452.27,-27.34"/>
<polygon fill="black" stroke="black" points="452.25,-30.84 462.18,-27.13 452.11,-23.84 452.25,-30.84"/>
<text text-anchor="middle" x="374.66" y="-41.9" font-family="Times,serif" font-size="14.00">EHLO/λ:2</text>
</g>
<!-- q3:2&#45;&gt;q4:232 -->
<g id="edge33" class="edge">
<title>q3:2&#45;&gt;q4:232</title>
<path fill="none" stroke="black" d="M528.45,-18.56C565.62,-9.9 629.77,-1.26 673.81,-29.7 689.59,-39.89 678.61,-54.58 691.81,-67.95 695.61,-71.8 700.05,-75.2 704.74,-78.18"/>
<polygon fill="black" stroke="black" points="702.86,-81.14 713.3,-82.97 706.29,-75.03 702.86,-81.14"/>
<text text-anchor="middle" x="620.93" y="-33.9" font-family="Times,serif" font-size="14.00">AUTH/235:2</text>
</g>
</g>
</svg>
