<?xml version="1.0" encoding="UTF-8" standalone="no"?>
<!DOCTYPE svg PUBLIC "-//W3C//DTD SVG 1.1//EN"
 "http://www.w3.org/Graphics/SVG/1.1/DTD/svg11.dtd">
<!-- Generated by graphviz version 12.0.0 (20240803.0821)
 -->
<!-- Pages: 1 -->
<svg width="2253pt" height="210pt"
 viewBox="0.00 0.00 2252.96 210.00" xmlns="http://www.w3.org/2000/svg" xmlns:xlink="http://www.w3.org/1999/xlink">
<g id="graph0" class="graph" transform="scale(1 1) rotate(0) translate(4 206)">
<polygon fill="white" stroke="none" points="-4,4 -4,-206 2248.96,-206 2248.96,4 -4,4"/>
<!-- q9:12 -->
<g id="node1" class="node">
<title>q9:12</title>
<ellipse fill="none" stroke="black" stroke-width="2" cx="1196.5" cy="-18" rx="39.63" ry="18"/>
<text text-anchor="middle" x="1196.5" y="-13.32" font-family="Times,serif" font-size="14.00">q9:12</text>
</g>
<!-- q12:4 -->
<g id="node2" class="node">
<title>q12:4</title>
<ellipse fill="none" stroke="black" stroke-width="2" cx="1439.8" cy="-18" rx="39.63" ry="18"/>
<text text-anchor="middle" x="1439.8" y="-13.32" font-family="Times,serif" font-size="14.00">q12:4</text>
</g>
<!-- q9:12&#45;&gt;q12:4 -->
<g id="edge1" class="edge">
<title>q9:12&#45;&gt;q12:4</title>
<path fill="none" stroke="black" d="M1237.1,-18C1278.2,-18 1342.9,-18 1387.9,-18"/>
<polygon fill="black" stroke="black" points="1387.69,-21.5 1397.69,-18 1387.69,-14.5 1387.69,-21.5"/>
<text text-anchor="middle" x="1318.1" y="-21.95" font-family="Times,serif" font-size="14.00">位/451:4</text>
</g>
<!-- q6:12 -->
<g id="node3" class="node">
<title>q6:12</title>
<ellipse fill="none" stroke="black" stroke-width="2" cx="954.27" cy="-18" rx="39.63" ry="18"/>
<text text-anchor="middle" x="954.27" y="-13.32" font-family="Times,serif" font-size="14.00">q6:12</text>
</g>
<!-- q6:12&#45;&gt;q9:12 -->
<g id="edge2" class="edge">
<title>q6:12&#45;&gt;q9:12</title>
<path fill="none" stroke="black" d="M994.67,-18C1035.6,-18 1099.8,-18 1144.6,-18"/>
<polygon fill="black" stroke="black" points="1144.59,-21.5 1154.59,-18 1144.59,-14.5 1144.59,-21.5"/>
<text text-anchor="middle" x="1072.2" y="-21.95" font-family="Times,serif" font-size="14.00">content/535:12</text>
</g>
<!-- q3:2 -->
<g id="node4" class="node">
<title>q3:2</title>
<ellipse fill="none" stroke="black" stroke-width="2" cx="491.48" cy="-98" rx="33.32" ry="18"/>
<text text-anchor="middle" x="491.48" y="-93.33" font-family="Times,serif" font-size="14.00">q3:2</text>
</g>
<!-- q5:232 -->
<g id="node5" class="node">
<title>q5:232</title>
<ellipse fill="none" stroke="black" stroke-width="2" cx="725.13" cy="-97" rx="45.95" ry="18"/>
<text text-anchor="middle" x="725.13" y="-92.33" font-family="Times,serif" font-size="14.00">q5:232</text>
</g>
<!-- q3:2&#45;&gt;q5:232 -->
<g id="edge3" class="edge">
<title>q3:2&#45;&gt;q5:232</title>
<path fill="none" stroke="black" d="M525.67,-97.86C562.42,-97.7 622.33,-97.44 666.72,-97.25"/>
<polygon fill="black" stroke="black" points="666.72,-100.75 676.71,-97.2 666.69,-93.75 666.72,-100.75"/>
<text text-anchor="middle" x="608.31" y="-100.95" font-family="Times,serif" font-size="14.00">AUTH/235:2</text>
</g>
<!-- q7:3 -->
<g id="node6" class="node">
<title>q7:3</title>
<ellipse fill="none" stroke="black" stroke-width="2" cx="954.27" cy="-148" rx="33.32" ry="18"/>
<text text-anchor="middle" x="954.27" y="-143.32" font-family="Times,serif" font-size="14.00">q7:3</text>
</g>
<!-- q5:232&#45;&gt;q7:3 -->
<g id="edge4" class="edge">
<title>q5:232&#45;&gt;q7:3</title>
<path fill="none" stroke="black" d="M761.2,-108.97C770.22,-111.82 779.96,-114.7 789.08,-117 829.71,-127.25 876.77,-135.81 910.07,-141.31"/>
<polygon fill="black" stroke="black" points="909.31,-144.73 919.75,-142.89 910.44,-137.82 909.31,-144.73"/>
<text text-anchor="middle" x="839.7" y="-140.94" font-family="Times,serif" font-size="14.00">MAIL/553:3</text>
</g>
<!-- q8:229 -->
<g id="node7" class="node">
<title>q8:229</title>
<ellipse fill="none" stroke="black" stroke-width="2" cx="954.27" cy="-94" rx="45.95" ry="18"/>
<text text-anchor="middle" x="954.27" y="-89.33" font-family="Times,serif" font-size="14.00">q8:229</text>
</g>
<!-- q5:232&#45;&gt;q8:229 -->
<g id="edge5" class="edge">
<title>q5:232&#45;&gt;q8:229</title>
<path fill="none" stroke="black" d="M771.82,-96.4C807.78,-95.92 858.09,-95.26 896.61,-94.75"/>
<polygon fill="black" stroke="black" points="896.18,-98.25 906.14,-94.62 896.09,-91.25 896.18,-98.25"/>
<text text-anchor="middle" x="839.7" y="-99.95" font-family="Times,serif" font-size="14.00">MAIL/250:229</text>
</g>
<!-- q10:3 -->
<g id="node8" class="node">
<title>q10:3</title>
<ellipse fill="none" stroke="black" stroke-width="2" cx="1196.5" cy="-148" rx="39.63" ry="18"/>
<text text-anchor="middle" x="1196.5" y="-143.32" font-family="Times,serif" font-size="14.00">q10:3</text>
</g>
<!-- q7:3&#45;&gt;q10:3 -->
<g id="edge6" class="edge">
<title>q7:3&#45;&gt;q10:3</title>
<path fill="none" stroke="black" d="M988.42,-148C1028.8,-148 1097.3,-148 1144.4,-148"/>
<polygon fill="black" stroke="black" points="1144.39,-151.5 1154.39,-148 1144.39,-144.5 1144.39,-151.5"/>
<text text-anchor="middle" x="1072.2" y="-151.94" font-family="Times,serif" font-size="14.00">RSET/250:3</text>
</g>
<!-- q11:229 -->
<g id="node9" class="node">
<title>q11:229</title>
<ellipse fill="none" stroke="black" stroke-width="2" cx="1196.5" cy="-94" rx="52.26" ry="18"/>
<text text-anchor="middle" x="1196.5" y="-89.33" font-family="Times,serif" font-size="14.00">q11:229</text>
</g>
<!-- q8:229&#45;&gt;q11:229 -->
<g id="edge7" class="edge">
<title>q8:229&#45;&gt;q11:229</title>
<path fill="none" stroke="black" d="M1001.02,-94C1038.1,-94 1090.8,-94 1131.9,-94"/>
<polygon fill="black" stroke="black" points="1131.69,-97.5 1141.69,-94 1131.69,-90.5 1131.69,-97.5"/>
<text text-anchor="middle" x="1072.2" y="-97.95" font-family="Times,serif" font-size="14.00">RCPT/250:229</text>
</g>
<!-- q13:3329 -->
<g id="node10" class="node">
<title>q13:3329</title>
<ellipse fill="none" stroke="black" stroke-width="2" cx="1687.8" cy="-130" rx="58.57" ry="18"/>
<text text-anchor="middle" x="1687.8" y="-125.33" font-family="Times,serif" font-size="14.00">q13:3329</text>
</g>
<!-- q11:229&#45;&gt;q13:3329 -->
<g id="edge8" class="edge">
<title>q11:229&#45;&gt;q13:3329</title>
<path fill="none" stroke="black" d="M1237.8,-105.94C1247.3,-108.32 1257.3,-110.53 1266.7,-112 1389,-130.96 1533.6,-132.7 1617.3,-131.72"/>
<polygon fill="black" stroke="black" points="1617.24,-135.22 1627.19,-131.58 1617.14,-128.22 1617.24,-135.22"/>
<text text-anchor="middle" x="1439.8" y="-133.94" font-family="Times,serif" font-size="14.00">DATA/354:68</text>
</g>
<!-- q14:161 -->
<g id="node11" class="node">
<title>q14:161</title>
<ellipse fill="none" stroke="black" stroke-width="2" cx="1439.8" cy="-85" rx="52.26" ry="18"/>
<text text-anchor="middle" x="1439.8" y="-80.33" font-family="Times,serif" font-size="14.00">q14:161</text>
</g>
<!-- q11:229&#45;&gt;q14:161 -->
<g id="edge9" class="edge">
<title>q11:229&#45;&gt;q14:161</title>
<path fill="none" stroke="black" d="M1249.2,-92.07C1286.3,-90.69 1336.4,-88.82 1375.8,-87.35"/>
<polygon fill="black" stroke="black" points="1375.72,-90.86 1385.59,-86.98 1375.46,-83.86 1375.72,-90.86"/>
<text text-anchor="middle" x="1318.1" y="-94.95" font-family="Times,serif" font-size="14.00">RCPT/250:161</text>
</g>
<!-- q13:3329&#45;&gt;q13:3329 -->
<g id="edge13" class="edge">
<title>q13:3329&#45;&gt;q13:3329</title>
<path fill="none" stroke="black" d="M1665.1,-147.41C1660.9,-157.09 1668.5,-166 1687.8,-166 1699,-166 1706.3,-163.02 1709.6,-158.64"/>
<polygon fill="black" stroke="black" points="1713.07,-159.17 1710.38,-148.92 1706.09,-158.61 1713.07,-159.17"/>
<text text-anchor="middle" x="1687.8" y="-169.94" font-family="Times,serif" font-size="14.00">content/位:3143</text>
</g>
<!-- q15:49 -->
<g id="node14" class="node">
<title>q15:49</title>
<ellipse fill="none" stroke="black" stroke-width="2" cx="1951.7" cy="-184" rx="45.95" ry="18"/>
<text text-anchor="middle" x="1951.7" y="-179.32" font-family="Times,serif" font-size="14.00">q15:49</text>
</g>
<!-- q13:3329&#45;&gt;q15:49 -->
<g id="edge14" class="edge">
<title>q13:3329&#45;&gt;q15:49</title>
<path fill="none" stroke="black" d="M1731.8,-142.71C1742.4,-145.63 1753.8,-148.59 1764.4,-151 1808.5,-161.01 1859.1,-169.81 1896.4,-175.79"/>
<polygon fill="black" stroke="black" points="1895.58,-179.2 1906,-177.32 1896.68,-172.29 1895.58,-179.2"/>
<text text-anchor="middle" x="1822.9" y="-176.94" font-family="Times,serif" font-size="14.00">content/554:49</text>
</g>
<!-- q16:136 -->
<g id="node15" class="node">
<title>q16:136</title>
<ellipse fill="none" stroke="black" stroke-width="2" cx="1951.7" cy="-130" rx="52.26" ry="18"/>
<text text-anchor="middle" x="1951.7" y="-125.33" font-family="Times,serif" font-size="14.00">q16:136</text>
</g>
<!-- q13:3329&#45;&gt;q16:136 -->
<g id="edge15" class="edge">
<title>q13:3329&#45;&gt;q16:136</title>
<path fill="none" stroke="black" d="M1747.3,-130C1788.8,-130 1844.6,-130 1887.2,-130"/>
<polygon fill="black" stroke="black" points="1887.09,-133.5 1897.09,-130 1887.09,-126.5 1887.09,-133.5"/>
<text text-anchor="middle" x="1822.9" y="-133.94" font-family="Times,serif" font-size="14.00">content/250:136</text>
</g>
<!-- q17:1 -->
<g id="node16" class="node">
<title>q17:1</title>
<ellipse fill="none" stroke="black" stroke-width="2" cx="1951.7" cy="-76" rx="39.63" ry="18"/>
<text text-anchor="middle" x="1951.7" y="-71.33" font-family="Times,serif" font-size="14.00">q17:1</text>
</g>
<!-- q13:3329&#45;&gt;q17:1 -->
<g id="edge16" class="edge">
<title>q13:3329&#45;&gt;q17:1</title>
<path fill="none" stroke="black" d="M1731.4,-117.22C1742.1,-114.23 1753.6,-111.2 1764.4,-108.75 1810.7,-98.2 1864.1,-89.13 1901.8,-83.22"/>
<polygon fill="black" stroke="black" points="1902.15,-86.71 1911.5,-81.72 1901.09,-79.79 1902.15,-86.71"/>
<text text-anchor="middle" x="1822.9" y="-111.95" font-family="Times,serif" font-size="14.00">content/550:1</text>
</g>
<!-- q14:161&#45;&gt;q13:3329 -->
<g id="edge17" class="edge">
<title>q14:161&#45;&gt;q13:3329</title>
<path fill="none" stroke="black" d="M1491.1,-89.66C1525.2,-93.32 1571.2,-99.24 1611.3,-107.75 1619,-109.39 1627.1,-111.43 1635,-113.59"/>
<polygon fill="black" stroke="black" points="1633.87,-116.91 1644.44,-116.3 1635.8,-110.18 1633.87,-116.91"/>
<text text-anchor="middle" x="1560.6" y="-110.95" font-family="Times,serif" font-size="14.00">DATA/354:118</text>
</g>
<!-- q18:43 -->
<g id="node17" class="node">
<title>q18:43</title>
<ellipse fill="none" stroke="black" stroke-width="2" cx="1687.8" cy="-67" rx="45.95" ry="18"/>
<text text-anchor="middle" x="1687.8" y="-62.33" font-family="Times,serif" font-size="14.00">q18:43</text>
</g>
<!-- q14:161&#45;&gt;q18:43 -->
<g id="edge18" class="edge">
<title>q14:161&#45;&gt;q18:43</title>
<path fill="none" stroke="black" d="M1481.1,-73.23C1490.5,-70.96 1500.5,-68.93 1510,-67.75 1550,-62.76 1595.4,-62.69 1630.2,-63.8"/>
<polygon fill="black" stroke="black" points="1629.97,-67.3 1640.09,-64.17 1630.22,-60.3 1629.97,-67.3"/>
<text text-anchor="middle" x="1560.6" y="-71.95" font-family="Times,serif" font-size="14.00">DATA/550:43</text>
</g>
<!-- q2:242 -->
<g id="node12" class="node">
<title>q2:242</title>
<ellipse fill="none" stroke="black" stroke-width="2" cx="491.48" cy="-44" rx="45.95" ry="18"/>
<text text-anchor="middle" x="491.48" y="-39.33" font-family="Times,serif" font-size="14.00">q2:242</text>
</g>
<!-- q2:242&#45;&gt;q5:232 -->
<g id="edge10" class="edge">
<title>q2:242&#45;&gt;q5:232</title>
<path fill="none" stroke="black" d="M535.49,-50.39C569.8,-55.9 618.94,-64.7 661.18,-75.75 667.11,-77.3 673.29,-79.12 679.36,-81.04"/>
<polygon fill="black" stroke="black" points="678.06,-84.29 688.65,-84.07 680.23,-77.64 678.06,-84.29"/>
<text text-anchor="middle" x="608.31" y="-78.95" font-family="Times,serif" font-size="14.00">AUTH/235:230</text>
</g>
<!-- q4:12 -->
<g id="node13" class="node">
<title>q4:12</title>
<ellipse fill="none" stroke="black" stroke-width="2" cx="725.13" cy="-18" rx="39.63" ry="18"/>
<text text-anchor="middle" x="725.13" y="-13.32" font-family="Times,serif" font-size="14.00">q4:12</text>
</g>
<!-- q2:242&#45;&gt;q4:12 -->
<g id="edge11" class="edge">
<title>q2:242&#45;&gt;q4:12</title>
<path fill="none" stroke="black" d="M521.88,-29.55C532.23,-25.18 544.11,-20.96 555.43,-18.75 594.77,-11.06 640.27,-11.38 674.09,-13.34"/>
<polygon fill="black" stroke="black" points="673.82,-16.83 684.03,-13.99 674.28,-9.85 673.82,-16.83"/>
<text text-anchor="middle" x="608.31" y="-22.95" font-family="Times,serif" font-size="14.00">AUTH/535:12</text>
</g>
<!-- q4:12&#45;&gt;q6:12 -->
<g id="edge12" class="edge">
<title>q4:12&#45;&gt;q6:12</title>
<path fill="none" stroke="black" d="M765.69,-18C803.6,-18 861,-18 902.32,-18"/>
<polygon fill="black" stroke="black" points="902.27,-21.5 912.27,-18 902.27,-14.5 902.27,-21.5"/>
<text text-anchor="middle" x="839.7" y="-21.95" font-family="Times,serif" font-size="14.00">AUTH/334:12</text>
</g>
<!-- q19:49 -->
<g id="node18" class="node">
<title>q19:49</title>
<ellipse fill="none" stroke="black" stroke-width="2" cx="2192.7" cy="-184" rx="45.95" ry="18"/>
<text text-anchor="middle" x="2192.7" y="-179.32" font-family="Times,serif" font-size="14.00">q19:49</text>
</g>
<!-- q15:49&#45;&gt;q19:49 -->
<g id="edge19" class="edge">
<title>q15:49&#45;&gt;q19:49</title>
<path fill="none" stroke="black" d="M1998.5,-184C2037.3,-184 2093,-184 2134.7,-184"/>
<polygon fill="black" stroke="black" points="2134.49,-187.5 2144.49,-184 2134.49,-180.5 2134.49,-187.5"/>
<text text-anchor="middle" x="2072.2" y="-187.94" font-family="Times,serif" font-size="14.00">RSET/250:49</text>
</g>
<!-- q20:136 -->
<g id="node20" class="node">
<title>q20:136</title>
<ellipse fill="none" stroke="black" stroke-width="2" cx="2192.7" cy="-130" rx="52.26" ry="18"/>
<text text-anchor="middle" x="2192.7" y="-125.33" font-family="Times,serif" font-size="14.00">q20:136</text>
</g>
<!-- q16:136&#45;&gt;q20:136 -->
<g id="edge22" class="edge">
<title>q16:136&#45;&gt;q20:136</title>
<path fill="none" stroke="black" d="M2004.8,-130C2041.2,-130 2090,-130 2128.5,-130"/>
<polygon fill="black" stroke="black" points="2128.09,-133.5 2138.09,-130 2128.09,-126.5 2128.09,-133.5"/>
<text text-anchor="middle" x="2072.2" y="-133.94" font-family="Times,serif" font-size="14.00">QUIT/221:136</text>
</g>
<!-- q21:1 -->
<g id="node21" class="node">
<title>q21:1</title>
<ellipse fill="none" stroke="black" stroke-width="2" cx="2192.7" cy="-76" rx="39.63" ry="18"/>
<text text-anchor="middle" x="2192.7" y="-71.33" font-family="Times,serif" font-size="14.00">q21:1</text>
</g>
<!-- q17:1&#45;&gt;q21:1 -->
<g id="edge23" class="edge">
<title>q17:1&#45;&gt;q21:1</title>
<path fill="none" stroke="black" d="M1992.1,-76C2032.8,-76 2096.3,-76 2140.7,-76"/>
<polygon fill="black" stroke="black" points="2140.69,-79.5 2150.69,-76 2140.69,-72.5 2140.69,-79.5"/>
<text text-anchor="middle" x="2072.2" y="-79.95" font-family="Times,serif" font-size="14.00">RSET/250:1</text>
</g>
<!-- q1:244 -->
<g id="node19" class="node">
<title>q1:244</title>
<ellipse fill="none" stroke="black" stroke-width="2" cx="257.84" cy="-71" rx="45.95" ry="18"/>
<text text-anchor="middle" x="257.84" y="-66.33" font-family="Times,serif" font-size="14.00">q1:244</text>
</g>
<!-- q1:244&#45;&gt;q3:2 -->
<g id="edge20" class="edge">
<title>q1:244&#45;&gt;q3:2</title>
<path fill="none" stroke="black" d="M302.96,-76.14C344.26,-80.96 405.63,-88.11 446.8,-92.91"/>
<polygon fill="black" stroke="black" points="446.26,-96.37 456.6,-94.05 447.07,-89.42 446.26,-96.37"/>
<text text-anchor="middle" x="374.66" y="-93.95" font-family="Times,serif" font-size="14.00">EHLO/位:2</text>
</g>
<!-- q1:244&#45;&gt;q2:242 -->
<g id="edge21" class="edge">
<title>q1:244&#45;&gt;q2:242</title>
<path fill="none" stroke="black" d="M297.96,-61.21C305.81,-59.51 314.03,-57.91 321.79,-56.75 358.81,-51.19 400.79,-48.01 433.61,-46.21"/>
<polygon fill="black" stroke="black" points="433.5,-49.72 443.31,-45.71 433.14,-42.73 433.5,-49.72"/>
<text text-anchor="middle" x="374.66" y="-60.95" font-family="Times,serif" font-size="14.00">EHLO/250:242</text>
</g>
<!-- q0:244 -->
<g id="node22" class="node">
<title>q0:244</title>
<ellipse fill="none" stroke="black" stroke-width="2" cx="53.95" cy="-71" rx="49.95" ry="49.95"/>
<ellipse fill="none" stroke="black" stroke-width="2" cx="53.95" cy="-71" rx="53.95" ry="53.95"/>
<text text-anchor="middle" x="53.95" y="-66.33" font-family="Times,serif" font-size="14.00">q0:244</text>
</g>
<!-- q0:244&#45;&gt;q1:244 -->
<g id="edge24" class="edge">
<title>q0:244&#45;&gt;q1:244</title>
<path fill="none" stroke="black" d="M104.85,-71C133.64,-71 169.94,-71 199.84,-71"/>
<polygon fill="black" stroke="black" points="199.45,-74.5 209.45,-71 199.45,-67.5 199.45,-74.5"/>
<text text-anchor="middle" x="157.89" y="-74.95" font-family="Times,serif" font-size="14.00">位/220:244</text>
</g>
</g>
</svg>
