<?xml version="1.0" encoding="UTF-8" standalone="no"?>
<!DOCTYPE svg PUBLIC "-//W3C//DTD SVG 1.1//EN"
 "http://www.w3.org/Graphics/SVG/1.1/DTD/svg11.dtd">
<!-- Generated by graphviz version 12.0.0 (20240803.0821)
 -->
<!-- Pages: 1 -->
<svg width="2260pt" height="304pt"
 viewBox="0.00 0.00 2259.66 304.00" xmlns="http://www.w3.org/2000/svg" xmlns:xlink="http://www.w3.org/1999/xlink">
<g id="graph0" class="graph" transform="scale(1 1) rotate(0) translate(4 300)">
<polygon fill="white" stroke="none" points="-4,4 -4,-300 2255.66,-300 2255.66,4 -4,4"/>
<!-- q0:244 -->
<g id="node1" class="node">
<title>q0:244</title>
<ellipse fill="none" stroke="black" stroke-width="2" cx="53.95" cy="-65" rx="49.95" ry="49.95"/>
<ellipse fill="none" stroke="black" stroke-width="2" cx="53.95" cy="-65" rx="53.95" ry="53.95"/>
<text text-anchor="middle" x="53.95" y="-60.33" font-family="Times,serif" font-size="14.00">q0:244</text>
</g>
<!-- q1:244 -->
<g id="node2" class="node">
<title>q1:244</title>
<ellipse fill="none" stroke="black" stroke-width="2" cx="257.84" cy="-65" rx="45.95" ry="18"/>
<text text-anchor="middle" x="257.84" y="-60.33" font-family="Times,serif" font-size="14.00">q1:244</text>
</g>
<!-- q0:244&#45;&gt;q1:244 -->
<g id="edge1" class="edge">
<title>q0:244&#45;&gt;q1:244</title>
<path fill="none" stroke="black" d="M104.85,-65C133.64,-65 169.94,-65 199.84,-65"/>
<polygon fill="black" stroke="black" points="199.45,-68.5 209.45,-65 199.45,-61.5 199.45,-68.5"/>
<text text-anchor="middle" x="157.89" y="-68.95" font-family="Times,serif" font-size="14.00">λ/220:244</text>
</g>
<!-- q3:242 -->
<g id="node3" class="node">
<title>q3:242</title>
<ellipse fill="none" stroke="black" stroke-width="2" cx="491.48" cy="-98" rx="45.95" ry="18"/>
<text text-anchor="middle" x="491.48" y="-93.33" font-family="Times,serif" font-size="14.00">q3:242</text>
</g>
<!-- q1:244&#45;&gt;q3:242 -->
<g id="edge2" class="edge">
<title>q1:244&#45;&gt;q3:242</title>
<path fill="none" stroke="black" d="M302.14,-71.17C340,-76.56 395.17,-84.42 436.02,-90.24"/>
<polygon fill="black" stroke="black" points="435.51,-93.7 445.9,-91.65 436.49,-86.77 435.51,-93.7"/>
<text text-anchor="middle" x="374.66" y="-91.95" font-family="Times,serif" font-size="14.00">EHLO/250:242</text>
</g>
<!-- q2:2 -->
<g id="node4" class="node">
<title>q2:2</title>
<ellipse fill="none" stroke="black" stroke-width="2" cx="491.48" cy="-38" rx="33.32" ry="18"/>
<text text-anchor="middle" x="491.48" y="-33.33" font-family="Times,serif" font-size="14.00">q2:2</text>
</g>
<!-- q1:244&#45;&gt;q2:2 -->
<g id="edge3" class="edge">
<title>q1:244&#45;&gt;q2:2</title>
<path fill="none" stroke="black" d="M296.21,-54.12C304.56,-52.03 313.43,-50.08 321.79,-48.75 363.53,-42.09 411.69,-39.52 445.85,-38.55"/>
<polygon fill="black" stroke="black" points="445.89,-42.05 455.8,-38.31 445.71,-35.05 445.89,-42.05"/>
<text text-anchor="middle" x="374.66" y="-51.95" font-family="Times,serif" font-size="14.00">EHLO/λ:2</text>
</g>
<!-- q4:230 -->
<g id="node5" class="node">
<title>q4:230</title>
<ellipse fill="none" stroke="black" stroke-width="2" cx="725.13" cy="-101" rx="45.95" ry="18"/>
<text text-anchor="middle" x="725.13" y="-96.33" font-family="Times,serif" font-size="14.00">q4:230</text>
</g>
<!-- q3:242&#45;&gt;q4:230 -->
<g id="edge4" class="edge">
<title>q3:242&#45;&gt;q4:230</title>
<path fill="none" stroke="black" d="M538.25,-98.59C575.21,-99.07 627.42,-99.75 667.1,-100.26"/>
<polygon fill="black" stroke="black" points="666.9,-103.76 676.95,-100.39 666.99,-96.76 666.9,-103.76"/>
<text text-anchor="middle" x="608.31" y="-103.95" font-family="Times,serif" font-size="14.00">AUTH/235:228</text>
</g>
<!-- q5:13 -->
<g id="node6" class="node">
<title>q5:13</title>
<ellipse fill="none" stroke="black" stroke-width="2" cx="725.13" cy="-42" rx="39.63" ry="18"/>
<text text-anchor="middle" x="725.13" y="-37.33" font-family="Times,serif" font-size="14.00">q5:13</text>
</g>
<!-- q3:242&#45;&gt;q5:13 -->
<g id="edge5" class="edge">
<title>q3:242&#45;&gt;q5:13</title>
<path fill="none" stroke="black" d="M526.88,-85.54C536.09,-82.44 546.08,-79.28 555.43,-76.75 595.63,-65.87 642.01,-56.54 675.96,-50.3"/>
<polygon fill="black" stroke="black" points="676.26,-53.8 685.47,-48.57 675.01,-46.92 676.26,-53.8"/>
<text text-anchor="middle" x="608.31" y="-79.95" font-family="Times,serif" font-size="14.00">AUTH/535:13</text>
</g>
<!-- q6:1 -->
<g id="node7" class="node">
<title>q6:1</title>
<ellipse fill="none" stroke="black" stroke-width="2" cx="839.7" cy="-171" rx="33.32" ry="18"/>
<text text-anchor="middle" x="839.7" y="-166.32" font-family="Times,serif" font-size="14.00">q6:1</text>
</g>
<!-- q3:242&#45;&gt;q6:1 -->
<g id="edge6" class="edge">
<title>q3:242&#45;&gt;q6:1</title>
<path fill="none" stroke="black" d="M525.13,-111.16C534.78,-114.71 545.43,-118.31 555.43,-121 638.95,-143.44 739.11,-158.4 795.17,-165.73"/>
<polygon fill="black" stroke="black" points="794.57,-169.18 804.94,-166.99 795.47,-162.24 794.57,-169.18"/>
<text text-anchor="middle" x="608.31" y="-147.94" font-family="Times,serif" font-size="14.00">AUTH/λ:1</text>
</g>
<!-- q2:2&#45;&gt;q4:230 -->
<g id="edge7" class="edge">
<title>q2:2&#45;&gt;q4:230</title>
<path fill="none" stroke="black" d="M520.33,-28.05C555.93,-17.2 618.11,-4.73 661.18,-31.75 676.76,-41.52 667.32,-54.95 679.18,-69 682.09,-72.44 685.44,-75.7 688.98,-78.72"/>
<polygon fill="black" stroke="black" points="686.78,-81.45 696.82,-84.81 691.07,-75.91 686.78,-81.45"/>
<text text-anchor="middle" x="608.31" y="-34.95" font-family="Times,serif" font-size="14.00">AUTH/235:2</text>
</g>
<!-- q7:3 -->
<g id="node8" class="node">
<title>q7:3</title>
<ellipse fill="none" stroke="black" stroke-width="2" cx="954.27" cy="-72" rx="33.32" ry="18"/>
<text text-anchor="middle" x="954.27" y="-67.33" font-family="Times,serif" font-size="14.00">q7:3</text>
</g>
<!-- q4:230&#45;&gt;q7:3 -->
<g id="edge8" class="edge">
<title>q4:230&#45;&gt;q7:3</title>
<path fill="none" stroke="black" d="M765.26,-91.3C773.11,-89.59 781.33,-87.97 789.08,-86.75 829.41,-80.4 875.79,-76.55 908.95,-74.38"/>
<polygon fill="black" stroke="black" points="908.82,-77.9 918.58,-73.78 908.38,-70.91 908.82,-77.9"/>
<text text-anchor="middle" x="839.7" y="-89.95" font-family="Times,serif" font-size="14.00">MAIL/553:3</text>
</g>
<!-- q8:227 -->
<g id="node9" class="node">
<title>q8:227</title>
<ellipse fill="none" stroke="black" stroke-width="2" cx="954.27" cy="-126" rx="45.95" ry="18"/>
<text text-anchor="middle" x="954.27" y="-121.33" font-family="Times,serif" font-size="14.00">q8:227</text>
</g>
<!-- q4:230&#45;&gt;q8:227 -->
<g id="edge9" class="edge">
<title>q4:230&#45;&gt;q8:227</title>
<path fill="none" stroke="black" d="M770.46,-105.88C806.89,-109.89 858.69,-115.59 897.85,-119.9"/>
<polygon fill="black" stroke="black" points="897.22,-123.35 907.54,-120.96 897.99,-116.39 897.22,-123.35"/>
<text text-anchor="middle" x="839.7" y="-121.95" font-family="Times,serif" font-size="14.00">MAIL/250:227</text>
</g>
<!-- q9:13 -->
<g id="node10" class="node">
<title>q9:13</title>
<ellipse fill="none" stroke="black" stroke-width="2" cx="954.27" cy="-18" rx="39.63" ry="18"/>
<text text-anchor="middle" x="954.27" y="-13.32" font-family="Times,serif" font-size="14.00">q9:13</text>
</g>
<!-- q5:13&#45;&gt;q9:13 -->
<g id="edge10" class="edge">
<title>q5:13&#45;&gt;q9:13</title>
<path fill="none" stroke="black" d="M764.66,-37.93C802.96,-33.88 861.85,-27.66 903.63,-23.25"/>
<polygon fill="black" stroke="black" points="903.85,-26.74 913.42,-22.21 903.11,-19.78 903.85,-26.74"/>
<text text-anchor="middle" x="839.7" y="-37.95" font-family="Times,serif" font-size="14.00">AUTH/334:13</text>
</g>
<!-- q10:232 -->
<g id="node11" class="node">
<title>q10:232</title>
<ellipse fill="none" stroke="black" stroke-width="2" cx="1196.5" cy="-137" rx="52.26" ry="18"/>
<text text-anchor="middle" x="1196.5" y="-132.32" font-family="Times,serif" font-size="14.00">q10:232</text>
</g>
<!-- q6:1&#45;&gt;q10:232 -->
<g id="edge11" class="edge">
<title>q6:1&#45;&gt;q10:232</title>
<path fill="none" stroke="black" d="M873.88,-170.97C927.32,-170.48 1035.6,-167.7 1126.2,-154 1131.8,-153.15 1137.6,-152.07 1143.4,-150.86"/>
<polygon fill="black" stroke="black" points="1143.84,-154.35 1152.82,-148.73 1142.3,-147.52 1143.84,-154.35"/>
<text text-anchor="middle" x="954.27" y="-173.94" font-family="Times,serif" font-size="14.00">MAIL/250:1</text>
</g>
<!-- q11:3 -->
<g id="node19" class="node">
<title>q11:3</title>
<ellipse fill="none" stroke="black" stroke-width="2" cx="1196.5" cy="-72" rx="39.63" ry="18"/>
<text text-anchor="middle" x="1196.5" y="-67.33" font-family="Times,serif" font-size="14.00">q11:3</text>
</g>
<!-- q7:3&#45;&gt;q11:3 -->
<g id="edge19" class="edge">
<title>q7:3&#45;&gt;q11:3</title>
<path fill="none" stroke="black" d="M988.42,-72C1028.8,-72 1097.3,-72 1144.4,-72"/>
<polygon fill="black" stroke="black" points="1144.39,-75.5 1154.39,-72 1144.39,-68.5 1144.39,-75.5"/>
<text text-anchor="middle" x="1072.2" y="-75.95" font-family="Times,serif" font-size="14.00">RSET/250:3</text>
</g>
<!-- q8:227&#45;&gt;q10:232 -->
<g id="edge20" class="edge">
<title>q8:227&#45;&gt;q10:232</title>
<path fill="none" stroke="black" d="M1000.74,-128.08C1038,-129.79 1091.2,-132.23 1132.6,-134.12"/>
<polygon fill="black" stroke="black" points="1132.34,-137.61 1142.49,-134.57 1132.66,-130.62 1132.34,-137.61"/>
<text text-anchor="middle" x="1072.2" y="-136.94" font-family="Times,serif" font-size="14.00">RCPT/250:227</text>
</g>
<!-- q12:13 -->
<g id="node20" class="node">
<title>q12:13</title>
<ellipse fill="none" stroke="black" stroke-width="2" cx="1196.5" cy="-18" rx="45.95" ry="18"/>
<text text-anchor="middle" x="1196.5" y="-13.32" font-family="Times,serif" font-size="14.00">q12:13</text>
</g>
<!-- q9:13&#45;&gt;q12:13 -->
<g id="edge21" class="edge">
<title>q9:13&#45;&gt;q12:13</title>
<path fill="none" stroke="black" d="M994.67,-18C1033.8,-18 1094.1,-18 1138.4,-18"/>
<polygon fill="black" stroke="black" points="1138.39,-21.5 1148.39,-18 1138.39,-14.5 1138.39,-21.5"/>
<text text-anchor="middle" x="1072.2" y="-21.95" font-family="Times,serif" font-size="14.00">content/535:13</text>
</g>
<!-- q14:137 -->
<g id="node21" class="node">
<title>q14:137</title>
<ellipse fill="none" stroke="black" stroke-width="2" cx="1439.8" cy="-88" rx="52.26" ry="18"/>
<text text-anchor="middle" x="1439.8" y="-83.33" font-family="Times,serif" font-size="14.00">q14:137</text>
</g>
<!-- q10:232&#45;&gt;q14:137 -->
<g id="edge22" class="edge">
<title>q10:232&#45;&gt;q14:137</title>
<path fill="none" stroke="black" d="M1222.7,-120.59C1235.4,-113.19 1251.3,-105.15 1266.7,-100.75 1301.9,-90.71 1342.7,-87.35 1375.7,-86.58"/>
<polygon fill="black" stroke="black" points="1375.54,-90.08 1385.49,-86.43 1375.43,-83.08 1375.54,-90.08"/>
<text text-anchor="middle" x="1318.1" y="-103.95" font-family="Times,serif" font-size="14.00">DATA/354:88</text>
</g>
<!-- q13:144 -->
<g id="node22" class="node">
<title>q13:144</title>
<ellipse fill="none" stroke="black" stroke-width="2" cx="1439.8" cy="-177" rx="52.26" ry="18"/>
<text text-anchor="middle" x="1439.8" y="-172.32" font-family="Times,serif" font-size="14.00">q13:144</text>
</g>
<!-- q10:232&#45;&gt;q13:144 -->
<g id="edge23" class="edge">
<title>q10:232&#45;&gt;q13:144</title>
<path fill="none" stroke="black" d="M1241.8,-127.22C1277.5,-121.42 1328.4,-117.93 1369.5,-133.75 1379.5,-137.62 1378.7,-143.83 1387.5,-150 1390.7,-152.23 1394.1,-154.4 1397.5,-156.48"/>
<polygon fill="black" stroke="black" points="1395.65,-159.46 1406.08,-161.33 1399.09,-153.36 1395.65,-159.46"/>
<text text-anchor="middle" x="1318.1" y="-136.94" font-family="Times,serif" font-size="14.00">RCPT/250:144</text>
</g>
<!-- q16:2893 -->
<g id="node12" class="node">
<title>q16:2893</title>
<ellipse fill="none" stroke="black" stroke-width="2" cx="1694.6" cy="-224" rx="58.57" ry="18"/>
<text text-anchor="middle" x="1694.6" y="-219.32" font-family="Times,serif" font-size="14.00">q16:2893</text>
</g>
<!-- q16:2893&#45;&gt;q16:2893 -->
<g id="edge12" class="edge">
<title>q16:2893&#45;&gt;q16:2893</title>
<path fill="none" stroke="black" d="M1671.3,-241.41C1666.9,-251.09 1674.7,-260 1694.6,-260 1706.1,-260 1713.5,-257.02 1716.9,-252.64"/>
<polygon fill="black" stroke="black" points="1720.36,-253.19 1717.77,-242.92 1713.39,-252.57 1720.36,-253.19"/>
<text text-anchor="middle" x="1694.6" y="-263.94" font-family="Times,serif" font-size="14.00">content/λ:2781</text>
</g>
<!-- q22:9 -->
<g id="node13" class="node">
<title>q22:9</title>
<ellipse fill="none" stroke="black" stroke-width="2" cx="1958.4" cy="-224" rx="39.63" ry="18"/>
<text text-anchor="middle" x="1958.4" y="-219.32" font-family="Times,serif" font-size="14.00">q22:9</text>
</g>
<!-- q16:2893&#45;&gt;q22:9 -->
<g id="edge13" class="edge">
<title>q16:2893&#45;&gt;q22:9</title>
<path fill="none" stroke="black" d="M1754,-224C1799.7,-224 1862.6,-224 1906.3,-224"/>
<polygon fill="black" stroke="black" points="1906.29,-227.5 1916.29,-224 1906.29,-220.5 1906.29,-227.5"/>
<text text-anchor="middle" x="1829.7" y="-227.94" font-family="Times,serif" font-size="14.00">content/554:9</text>
</g>
<!-- q21:1 -->
<g id="node14" class="node">
<title>q21:1</title>
<ellipse fill="none" stroke="black" stroke-width="2" cx="1958.4" cy="-170" rx="39.63" ry="18"/>
<text text-anchor="middle" x="1958.4" y="-165.32" font-family="Times,serif" font-size="14.00">q21:1</text>
</g>
<!-- q16:2893&#45;&gt;q21:1 -->
<g id="edge14" class="edge">
<title>q16:2893&#45;&gt;q21:1</title>
<path fill="none" stroke="black" d="M1738.2,-211.22C1748.9,-208.23 1760.4,-205.2 1771.2,-202.75 1817.4,-192.2 1870.8,-183.13 1908.6,-177.22"/>
<polygon fill="black" stroke="black" points="1908.86,-180.72 1918.2,-175.72 1907.78,-173.8 1908.86,-180.72"/>
<text text-anchor="middle" x="1829.7" y="-205.94" font-family="Times,serif" font-size="14.00">content/550:1</text>
</g>
<!-- q20:102 -->
<g id="node15" class="node">
<title>q20:102</title>
<ellipse fill="none" stroke="black" stroke-width="2" cx="1958.4" cy="-278" rx="52.26" ry="18"/>
<text text-anchor="middle" x="1958.4" y="-273.32" font-family="Times,serif" font-size="14.00">q20:102</text>
</g>
<!-- q16:2893&#45;&gt;q20:102 -->
<g id="edge15" class="edge">
<title>q16:2893&#45;&gt;q20:102</title>
<path fill="none" stroke="black" d="M1738.6,-236.71C1749.2,-239.63 1760.5,-242.59 1771.2,-245 1813.4,-254.58 1861.5,-263.05 1898.3,-269.01"/>
<polygon fill="black" stroke="black" points="1897.38,-272.41 1907.8,-270.53 1898.48,-265.49 1897.38,-272.41"/>
<text text-anchor="middle" x="1829.7" y="-270.94" font-family="Times,serif" font-size="14.00">content/250:102</text>
</g>
<!-- q27:9 -->
<g id="node16" class="node">
<title>q27:9</title>
<ellipse fill="none" stroke="black" stroke-width="2" cx="2199.4" cy="-224" rx="39.63" ry="18"/>
<text text-anchor="middle" x="2199.4" y="-219.32" font-family="Times,serif" font-size="14.00">q27:9</text>
</g>
<!-- q22:9&#45;&gt;q27:9 -->
<g id="edge16" class="edge">
<title>q22:9&#45;&gt;q27:9</title>
<path fill="none" stroke="black" d="M1998.9,-224C2039.5,-224 2103.1,-224 2147.5,-224"/>
<polygon fill="black" stroke="black" points="2147.39,-227.5 2157.39,-224 2147.39,-220.5 2147.39,-227.5"/>
<text text-anchor="middle" x="2078.9" y="-227.94" font-family="Times,serif" font-size="14.00">RSET/250:9</text>
</g>
<!-- q26:1 -->
<g id="node17" class="node">
<title>q26:1</title>
<ellipse fill="none" stroke="black" stroke-width="2" cx="2199.4" cy="-170" rx="39.63" ry="18"/>
<text text-anchor="middle" x="2199.4" y="-165.32" font-family="Times,serif" font-size="14.00">q26:1</text>
</g>
<!-- q21:1&#45;&gt;q26:1 -->
<g id="edge17" class="edge">
<title>q21:1&#45;&gt;q26:1</title>
<path fill="none" stroke="black" d="M1998.9,-170C2039.5,-170 2103.1,-170 2147.5,-170"/>
<polygon fill="black" stroke="black" points="2147.39,-173.5 2157.39,-170 2147.39,-166.5 2147.39,-173.5"/>
<text text-anchor="middle" x="2078.9" y="-173.94" font-family="Times,serif" font-size="14.00">RSET/250:1</text>
</g>
<!-- q25:102 -->
<g id="node18" class="node">
<title>q25:102</title>
<ellipse fill="none" stroke="black" stroke-width="2" cx="2199.4" cy="-278" rx="52.26" ry="18"/>
<text text-anchor="middle" x="2199.4" y="-273.32" font-family="Times,serif" font-size="14.00">q25:102</text>
</g>
<!-- q20:102&#45;&gt;q25:102 -->
<g id="edge18" class="edge">
<title>q20:102&#45;&gt;q25:102</title>
<path fill="none" stroke="black" d="M2011.6,-278C2048,-278 2096.7,-278 2135.3,-278"/>
<polygon fill="black" stroke="black" points="2134.89,-281.5 2144.89,-278 2134.89,-274.5 2134.89,-281.5"/>
<text text-anchor="middle" x="2078.9" y="-281.94" font-family="Times,serif" font-size="14.00">QUIT/221:102</text>
</g>
<!-- q15:4 -->
<g id="node27" class="node">
<title>q15:4</title>
<ellipse fill="none" stroke="black" stroke-width="2" cx="1439.8" cy="-18" rx="39.63" ry="18"/>
<text text-anchor="middle" x="1439.8" y="-13.32" font-family="Times,serif" font-size="14.00">q15:4</text>
</g>
<!-- q12:13&#45;&gt;q15:4 -->
<g id="edge29" class="edge">
<title>q12:13&#45;&gt;q15:4</title>
<path fill="none" stroke="black" d="M1243.1,-18C1284.4,-18 1345.2,-18 1388,-18"/>
<polygon fill="black" stroke="black" points="1387.79,-21.5 1397.79,-18 1387.79,-14.5 1387.79,-21.5"/>
<text text-anchor="middle" x="1318.1" y="-21.95" font-family="Times,serif" font-size="14.00">λ/451:4</text>
</g>
<!-- q14:137&#45;&gt;q14:137 -->
<g id="edge24" class="edge">
<title>q14:137&#45;&gt;q14:137</title>
<path fill="none" stroke="black" d="M1418.2,-105.04C1413.8,-114.86 1421,-124 1439.8,-124 1450.6,-124 1457.6,-120.94 1460.7,-116.47"/>
<polygon fill="black" stroke="black" points="1464.19,-116.72 1461.22,-106.55 1457.2,-116.35 1464.19,-116.72"/>
<text text-anchor="middle" x="1439.8" y="-127.95" font-family="Times,serif" font-size="14.00">content/λ:49</text>
</g>
<!-- q18:65 -->
<g id="node23" class="node">
<title>q18:65</title>
<ellipse fill="none" stroke="black" stroke-width="2" cx="1694.6" cy="-109" rx="45.95" ry="18"/>
<text text-anchor="middle" x="1694.6" y="-104.33" font-family="Times,serif" font-size="14.00">q18:65</text>
</g>
<!-- q14:137&#45;&gt;q18:65 -->
<g id="edge25" class="edge">
<title>q14:137&#45;&gt;q18:65</title>
<path fill="none" stroke="black" d="M1491.6,-92.22C1533.8,-95.73 1593.8,-100.71 1637.5,-104.34"/>
<polygon fill="black" stroke="black" points="1636.94,-107.81 1647.19,-105.14 1637.52,-100.83 1636.94,-107.81"/>
<text text-anchor="middle" x="1564" y="-105.95" font-family="Times,serif" font-size="14.00">content/554:65</text>
</g>
<!-- q19:23 -->
<g id="node24" class="node">
<title>q19:23</title>
<ellipse fill="none" stroke="black" stroke-width="2" cx="1694.6" cy="-55" rx="45.95" ry="18"/>
<text text-anchor="middle" x="1694.6" y="-50.33" font-family="Times,serif" font-size="14.00">q19:23</text>
</g>
<!-- q14:137&#45;&gt;q19:23 -->
<g id="edge26" class="edge">
<title>q14:137&#45;&gt;q19:23</title>
<path fill="none" stroke="black" d="M1484.2,-77.6C1492.7,-75.79 1501.6,-74.08 1510,-72.75 1552.4,-66.06 1600.7,-61.51 1637.1,-58.69"/>
<polygon fill="black" stroke="black" points="1637.28,-62.19 1646.99,-57.95 1636.76,-55.21 1637.28,-62.19"/>
<text text-anchor="middle" x="1564" y="-75.95" font-family="Times,serif" font-size="14.00">content/250:23</text>
</g>
<!-- q13:144&#45;&gt;q10:232 -->
<g id="edge31" class="edge">
<title>q13:144&#45;&gt;q10:232</title>
<path fill="none" stroke="black" d="M1388.4,-172.27C1354,-168.61 1307.4,-162.85 1266.7,-155 1261.1,-153.91 1255.2,-152.62 1249.4,-151.25"/>
<polygon fill="black" stroke="black" points="1250.32,-147.87 1239.77,-148.89 1248.65,-154.67 1250.32,-147.87"/>
<text text-anchor="middle" x="1318.1" y="-173.94" font-family="Times,serif" font-size="14.00">RCPT/250:4</text>
</g>
<!-- q13:144&#45;&gt;q16:2893 -->
<g id="edge30" class="edge">
<title>q13:144&#45;&gt;q16:2893</title>
<path fill="none" stroke="black" d="M1482,-188.42C1491.2,-190.77 1500.9,-193.1 1510,-195 1549.1,-203.14 1593.2,-210.18 1628.4,-215.28"/>
<polygon fill="black" stroke="black" points="1627.61,-218.7 1638,-216.66 1628.6,-211.77 1627.61,-218.7"/>
<text text-anchor="middle" x="1564" y="-216.94" font-family="Times,serif" font-size="14.00">DATA/354:112</text>
</g>
<!-- q17:28 -->
<g id="node28" class="node">
<title>q17:28</title>
<ellipse fill="none" stroke="black" stroke-width="2" cx="1694.6" cy="-170" rx="45.95" ry="18"/>
<text text-anchor="middle" x="1694.6" y="-165.32" font-family="Times,serif" font-size="14.00">q17:28</text>
</g>
<!-- q13:144&#45;&gt;q17:28 -->
<g id="edge32" class="edge">
<title>q13:144&#45;&gt;q17:28</title>
<path fill="none" stroke="black" d="M1492.8,-175.56C1534.7,-174.4 1593.4,-172.77 1636.5,-171.58"/>
<polygon fill="black" stroke="black" points="1636.49,-175.08 1646.39,-171.3 1636.29,-168.08 1636.49,-175.08"/>
<text text-anchor="middle" x="1564" y="-177.94" font-family="Times,serif" font-size="14.00">DATA/550:28</text>
</g>
<!-- q23:65 -->
<g id="node25" class="node">
<title>q23:65</title>
<ellipse fill="none" stroke="black" stroke-width="2" cx="1958.4" cy="-109" rx="45.95" ry="18"/>
<text text-anchor="middle" x="1958.4" y="-104.33" font-family="Times,serif" font-size="14.00">q23:65</text>
</g>
<!-- q18:65&#45;&gt;q23:65 -->
<g id="edge27" class="edge">
<title>q18:65&#45;&gt;q23:65</title>
<path fill="none" stroke="black" d="M1741.5,-109C1785.7,-109 1852.6,-109 1900.2,-109"/>
<polygon fill="black" stroke="black" points="1900.09,-112.5 1910.09,-109 1900.09,-105.5 1900.09,-112.5"/>
<text text-anchor="middle" x="1829.7" y="-112.95" font-family="Times,serif" font-size="14.00">RSET/250:65</text>
</g>
<!-- q24:23 -->
<g id="node26" class="node">
<title>q24:23</title>
<ellipse fill="none" stroke="black" stroke-width="2" cx="1958.4" cy="-55" rx="45.95" ry="18"/>
<text text-anchor="middle" x="1958.4" y="-50.33" font-family="Times,serif" font-size="14.00">q24:23</text>
</g>
<!-- q19:23&#45;&gt;q24:23 -->
<g id="edge28" class="edge">
<title>q19:23&#45;&gt;q24:23</title>
<path fill="none" stroke="black" d="M1741.5,-55C1785.7,-55 1852.6,-55 1900.2,-55"/>
<polygon fill="black" stroke="black" points="1900.09,-58.5 1910.09,-55 1900.09,-51.5 1900.09,-58.5"/>
<text text-anchor="middle" x="1829.7" y="-58.95" font-family="Times,serif" font-size="14.00">QUIT/221:23</text>
</g>
</g>
</svg>
