<?xml version="1.0" encoding="UTF-8" standalone="no"?>
<!DOCTYPE svg PUBLIC "-//W3C//DTD SVG 1.1//EN"
 "http://www.w3.org/Graphics/SVG/1.1/DTD/svg11.dtd">
<!-- Generated by graphviz version 12.0.0 (20240803.0821)
 -->
<!-- Pages: 1 -->
<svg width="2204pt" height="376pt"
 viewBox="0.00 0.00 2203.85 376.18" xmlns="http://www.w3.org/2000/svg" xmlns:xlink="http://www.w3.org/1999/xlink">
<g id="graph0" class="graph" transform="scale(1 1) rotate(0) translate(4 372.18)">
<polygon fill="white" stroke="none" points="-4,4 -4,-372.18 2199.85,-372.18 2199.85,4 -4,4"/>
<!-- q19:1 -->
<g id="node1" class="node">
<title>q19:1</title>
<ellipse fill="none" stroke="black" stroke-width="2" cx="1930.5" cy="-180" rx="39.63" ry="18"/>
<text text-anchor="middle" x="1930.5" y="-175.32" font-family="Times,serif" font-size="14.00">q19:1</text>
</g>
<!-- q25:1 -->
<g id="node2" class="node">
<title>q25:1</title>
<ellipse fill="none" stroke="black" stroke-width="2" cx="2149.9" cy="-180" rx="39.63" ry="18"/>
<text text-anchor="middle" x="2149.9" y="-175.32" font-family="Times,serif" font-size="14.00">q25:1</text>
</g>
<!-- q19:1&#45;&gt;q25:1 -->
<g id="edge1" class="edge">
<title>q19:1&#45;&gt;q25:1</title>
<path fill="none" stroke="black" d="M1971.1,-180C2006.9,-180 2059.7,-180 2098.5,-180"/>
<polygon fill="black" stroke="black" points="2097.99,-183.5 2107.99,-180 2097.99,-176.5 2097.99,-183.5"/>
<text text-anchor="middle" x="2040.2" y="-183.94" font-family="Times,serif" font-size="14.00">RSET/250:1</text>
</g>
<!-- q0:244 -->
<g id="node3" class="node">
<title>q0:244</title>
<ellipse fill="none" stroke="black" stroke-width="2" cx="53.95" cy="-189" rx="49.95" ry="49.95"/>
<ellipse fill="none" stroke="black" stroke-width="2" cx="53.95" cy="-189" rx="53.95" ry="53.95"/>
<text text-anchor="middle" x="53.95" y="-184.32" font-family="Times,serif" font-size="14.00">q0:244</text>
</g>
<!-- q1:244 -->
<g id="node4" class="node">
<title>q1:244</title>
<ellipse fill="none" stroke="black" stroke-width="2" cx="257.84" cy="-189" rx="45.95" ry="18"/>
<text text-anchor="middle" x="257.84" y="-184.32" font-family="Times,serif" font-size="14.00">q1:244</text>
</g>
<!-- q0:244&#45;&gt;q1:244 -->
<g id="edge2" class="edge">
<title>q0:244&#45;&gt;q1:244</title>
<path fill="none" stroke="black" d="M104.85,-189C133.64,-189 169.94,-189 199.84,-189"/>
<polygon fill="black" stroke="black" points="199.45,-192.5 209.45,-189 199.45,-185.5 199.45,-192.5"/>
<text text-anchor="middle" x="157.89" y="-192.94" font-family="Times,serif" font-size="14.00">λ/220:244</text>
</g>
<!-- q2:1 -->
<g id="node5" class="node">
<title>q2:1</title>
<ellipse fill="none" stroke="black" stroke-width="2" cx="491.48" cy="-162" rx="33.32" ry="18"/>
<text text-anchor="middle" x="491.48" y="-157.32" font-family="Times,serif" font-size="14.00">q2:1</text>
</g>
<!-- q1:244&#45;&gt;q2:1 -->
<g id="edge3" class="edge">
<title>q1:244&#45;&gt;q2:1</title>
<path fill="none" stroke="black" d="M296.21,-178.12C304.56,-176.03 313.43,-174.08 321.79,-172.75 363.53,-166.09 411.69,-163.52 445.85,-162.55"/>
<polygon fill="black" stroke="black" points="445.88,-166.05 455.8,-162.31 445.71,-159.05 445.88,-166.05"/>
<text text-anchor="middle" x="374.66" y="-175.94" font-family="Times,serif" font-size="14.00">EHLO/λ:1</text>
</g>
<!-- q3:243 -->
<g id="node6" class="node">
<title>q3:243</title>
<ellipse fill="none" stroke="black" stroke-width="2" cx="491.48" cy="-222" rx="45.95" ry="18"/>
<text text-anchor="middle" x="491.48" y="-217.32" font-family="Times,serif" font-size="14.00">q3:243</text>
</g>
<!-- q1:244&#45;&gt;q3:243 -->
<g id="edge4" class="edge">
<title>q1:244&#45;&gt;q3:243</title>
<path fill="none" stroke="black" d="M302.14,-195.17C340,-200.56 395.17,-208.42 436.02,-214.24"/>
<polygon fill="black" stroke="black" points="435.51,-217.7 445.9,-215.65 436.49,-210.77 435.51,-217.7"/>
<text text-anchor="middle" x="374.66" y="-215.94" font-family="Times,serif" font-size="14.00">EHLO/250:243</text>
</g>
<!-- q4:231 -->
<g id="node7" class="node">
<title>q4:231</title>
<ellipse fill="none" stroke="black" stroke-width="2" cx="725.13" cy="-149" rx="45.95" ry="18"/>
<text text-anchor="middle" x="725.13" y="-144.32" font-family="Times,serif" font-size="14.00">q4:231</text>
</g>
<!-- q2:1&#45;&gt;q4:231 -->
<g id="edge5" class="edge">
<title>q2:1&#45;&gt;q4:231</title>
<path fill="none" stroke="black" d="M523.05,-154.86C533.28,-152.78 544.8,-150.8 555.43,-149.75 592.58,-146.09 634.56,-145.88 667.35,-146.61"/>
<polygon fill="black" stroke="black" points="666.94,-150.1 677.03,-146.86 667.12,-143.1 666.94,-150.1"/>
<text text-anchor="middle" x="608.31" y="-153.94" font-family="Times,serif" font-size="14.00">AUTH/235:1</text>
</g>
<!-- q3:243&#45;&gt;q4:231 -->
<g id="edge6" class="edge">
<title>q3:243&#45;&gt;q4:231</title>
<path fill="none" stroke="black" d="M528.42,-210.38C537.25,-207.55 546.68,-204.53 555.43,-201.75 596.3,-188.79 642.8,-174.26 676.62,-163.74"/>
<polygon fill="black" stroke="black" points="677.61,-167.1 686.12,-160.79 675.54,-160.41 677.61,-167.1"/>
<text text-anchor="middle" x="608.31" y="-204.94" font-family="Times,serif" font-size="14.00">AUTH/235:230</text>
</g>
<!-- q5:1 -->
<g id="node8" class="node">
<title>q5:1</title>
<ellipse fill="none" stroke="black" stroke-width="2" cx="839.7" cy="-274" rx="33.32" ry="18"/>
<text text-anchor="middle" x="839.7" y="-269.32" font-family="Times,serif" font-size="14.00">q5:1</text>
</g>
<!-- q3:243&#45;&gt;q5:1 -->
<g id="edge7" class="edge">
<title>q3:243&#45;&gt;q5:1</title>
<path fill="none" stroke="black" d="M522.65,-235.99C532.86,-240.18 544.46,-244.35 555.43,-247 638.16,-266.94 737.8,-272.27 794.14,-273.62"/>
<polygon fill="black" stroke="black" points="793.9,-277.12 803.98,-273.83 794.05,-270.12 793.9,-277.12"/>
<text text-anchor="middle" x="608.31" y="-267.94" font-family="Times,serif" font-size="14.00">AUTH/λ:1</text>
</g>
<!-- q6:12 -->
<g id="node9" class="node">
<title>q6:12</title>
<ellipse fill="none" stroke="black" stroke-width="2" cx="725.13" cy="-228" rx="39.63" ry="18"/>
<text text-anchor="middle" x="725.13" y="-223.32" font-family="Times,serif" font-size="14.00">q6:12</text>
</g>
<!-- q3:243&#45;&gt;q6:12 -->
<g id="edge8" class="edge">
<title>q3:243&#45;&gt;q6:12</title>
<path fill="none" stroke="black" d="M538.25,-223.19C577.13,-224.19 632.89,-225.64 673.18,-226.68"/>
<polygon fill="black" stroke="black" points="673.03,-230.18 683.12,-226.94 673.21,-223.18 673.03,-230.18"/>
<text text-anchor="middle" x="608.31" y="-229.94" font-family="Times,serif" font-size="14.00">AUTH/535:12</text>
</g>
<!-- q7:3 -->
<g id="node10" class="node">
<title>q7:3</title>
<ellipse fill="none" stroke="black" stroke-width="2" cx="954.27" cy="-95" rx="33.32" ry="18"/>
<text text-anchor="middle" x="954.27" y="-90.33" font-family="Times,serif" font-size="14.00">q7:3</text>
</g>
<!-- q4:231&#45;&gt;q7:3 -->
<g id="edge9" class="edge">
<title>q4:231&#45;&gt;q7:3</title>
<path fill="none" stroke="black" d="M760.19,-136.61C769.48,-133.48 779.6,-130.28 789.08,-127.75 829.77,-116.87 877.01,-107.81 910.34,-102"/>
<polygon fill="black" stroke="black" points="910.76,-105.48 920.03,-100.34 909.58,-98.58 910.76,-105.48"/>
<text text-anchor="middle" x="839.7" y="-131.94" font-family="Times,serif" font-size="14.00">MAIL/553:3</text>
</g>
<!-- q8:228 -->
<g id="node11" class="node">
<title>q8:228</title>
<ellipse fill="none" stroke="black" stroke-width="2" cx="954.27" cy="-149" rx="45.95" ry="18"/>
<text text-anchor="middle" x="954.27" y="-144.32" font-family="Times,serif" font-size="14.00">q8:228</text>
</g>
<!-- q4:231&#45;&gt;q8:228 -->
<g id="edge10" class="edge">
<title>q4:231&#45;&gt;q8:228</title>
<path fill="none" stroke="black" d="M771.82,-149C807.78,-149 858.09,-149 896.61,-149"/>
<polygon fill="black" stroke="black" points="896.14,-152.5 906.14,-149 896.14,-145.5 896.14,-152.5"/>
<text text-anchor="middle" x="839.7" y="-152.94" font-family="Times,serif" font-size="14.00">MAIL/250:228</text>
</g>
<!-- q9:150 -->
<g id="node12" class="node">
<title>q9:150</title>
<ellipse fill="none" stroke="black" stroke-width="2" cx="1433.4" cy="-152" rx="45.95" ry="18"/>
<text text-anchor="middle" x="1433.4" y="-147.32" font-family="Times,serif" font-size="14.00">q9:150</text>
</g>
<!-- q5:1&#45;&gt;q9:150 -->
<g id="edge11" class="edge">
<title>q5:1&#45;&gt;q9:150</title>
<path fill="none" stroke="black" d="M869.82,-283.1C955.49,-307.98 1210.6,-368.18 1369.5,-258 1386.9,-245.96 1377.2,-232.46 1387.5,-214 1394.2,-201.9 1402.9,-189.39 1410.9,-178.8"/>
<polygon fill="black" stroke="black" points="1413.67,-180.94 1416.98,-170.88 1408.11,-176.68 1413.67,-180.94"/>
<text text-anchor="middle" x="1072.2" y="-325.94" font-family="Times,serif" font-size="14.00">MAIL/250:1</text>
</g>
<!-- q10:12 -->
<g id="node13" class="node">
<title>q10:12</title>
<ellipse fill="none" stroke="black" stroke-width="2" cx="954.27" cy="-228" rx="45.95" ry="18"/>
<text text-anchor="middle" x="954.27" y="-223.32" font-family="Times,serif" font-size="14.00">q10:12</text>
</g>
<!-- q6:12&#45;&gt;q10:12 -->
<g id="edge12" class="edge">
<title>q6:12&#45;&gt;q10:12</title>
<path fill="none" stroke="black" d="M765.69,-228C801.75,-228 855.43,-228 896.14,-228"/>
<polygon fill="black" stroke="black" points="896.01,-231.5 906.01,-228 896.01,-224.5 896.01,-231.5"/>
<text text-anchor="middle" x="839.7" y="-231.94" font-family="Times,serif" font-size="14.00">AUTH/334:12</text>
</g>
<!-- q11:3 -->
<g id="node25" class="node">
<title>q11:3</title>
<ellipse fill="none" stroke="black" stroke-width="2" cx="1196.5" cy="-95" rx="39.63" ry="18"/>
<text text-anchor="middle" x="1196.5" y="-90.33" font-family="Times,serif" font-size="14.00">q11:3</text>
</g>
<!-- q7:3&#45;&gt;q11:3 -->
<g id="edge27" class="edge">
<title>q7:3&#45;&gt;q11:3</title>
<path fill="none" stroke="black" d="M988.42,-95C1028.8,-95 1097.3,-95 1144.4,-95"/>
<polygon fill="black" stroke="black" points="1144.39,-98.5 1154.39,-95 1144.39,-91.5 1144.39,-98.5"/>
<text text-anchor="middle" x="1072.2" y="-98.95" font-family="Times,serif" font-size="14.00">RSET/250:3</text>
</g>
<!-- q12:228 -->
<g id="node26" class="node">
<title>q12:228</title>
<ellipse fill="none" stroke="black" stroke-width="2" cx="1196.5" cy="-149" rx="52.26" ry="18"/>
<text text-anchor="middle" x="1196.5" y="-144.32" font-family="Times,serif" font-size="14.00">q12:228</text>
</g>
<!-- q8:228&#45;&gt;q12:228 -->
<g id="edge28" class="edge">
<title>q8:228&#45;&gt;q12:228</title>
<path fill="none" stroke="black" d="M1001.02,-149C1038.1,-149 1090.8,-149 1131.9,-149"/>
<polygon fill="black" stroke="black" points="1131.69,-152.5 1141.69,-149 1131.69,-145.5 1131.69,-152.5"/>
<text text-anchor="middle" x="1072.2" y="-152.94" font-family="Times,serif" font-size="14.00">RCPT/250:228</text>
</g>
<!-- q9:150&#45;&gt;q9:150 -->
<g id="edge21" class="edge">
<title>q9:150&#45;&gt;q9:150</title>
<path fill="none" stroke="black" d="M1413,-169.04C1408.8,-178.86 1415.6,-188 1433.4,-188 1443.7,-188 1450.3,-184.94 1453.3,-180.47"/>
<polygon fill="black" stroke="black" points="1456.79,-180.72 1453.82,-170.55 1449.8,-180.35 1456.79,-180.72"/>
<text text-anchor="middle" x="1433.4" y="-191.94" font-family="Times,serif" font-size="14.00">RCPT/250:9</text>
</g>
<!-- q14:2552 -->
<g id="node16" class="node">
<title>q14:2552</title>
<ellipse fill="none" stroke="black" stroke-width="2" cx="1682" cy="-145" rx="58.57" ry="18"/>
<text text-anchor="middle" x="1682" y="-140.32" font-family="Times,serif" font-size="14.00">q14:2552</text>
</g>
<!-- q9:150&#45;&gt;q14:2552 -->
<g id="edge20" class="edge">
<title>q9:150&#45;&gt;q14:2552</title>
<path fill="none" stroke="black" d="M1480.2,-150.7C1517.1,-149.65 1569.5,-148.16 1611.5,-146.97"/>
<polygon fill="black" stroke="black" points="1611.39,-150.47 1621.29,-146.69 1611.19,-143.48 1611.39,-150.47"/>
<text text-anchor="middle" x="1551.4" y="-154.94" font-family="Times,serif" font-size="14.00">DATA/354:98</text>
</g>
<!-- q13:43 -->
<g id="node21" class="node">
<title>q13:43</title>
<ellipse fill="none" stroke="black" stroke-width="2" cx="1682" cy="-234" rx="45.95" ry="18"/>
<text text-anchor="middle" x="1682" y="-229.32" font-family="Times,serif" font-size="14.00">q13:43</text>
</g>
<!-- q9:150&#45;&gt;q13:43 -->
<g id="edge22" class="edge">
<title>q9:150&#45;&gt;q13:43</title>
<path fill="none" stroke="black" d="M1470,-163.84C1513.4,-178.28 1587,-202.73 1634.7,-218.62"/>
<polygon fill="black" stroke="black" points="1633.37,-221.87 1643.96,-221.69 1635.57,-215.22 1633.37,-221.87"/>
<text text-anchor="middle" x="1551.4" y="-210.94" font-family="Times,serif" font-size="14.00">DATA/550:43</text>
</g>
<!-- q15:12 -->
<g id="node27" class="node">
<title>q15:12</title>
<ellipse fill="none" stroke="black" stroke-width="2" cx="1196.5" cy="-228" rx="45.95" ry="18"/>
<text text-anchor="middle" x="1196.5" y="-223.32" font-family="Times,serif" font-size="14.00">q15:12</text>
</g>
<!-- q10:12&#45;&gt;q15:12 -->
<g id="edge31" class="edge">
<title>q10:12&#45;&gt;q15:12</title>
<path fill="none" stroke="black" d="M1001.02,-228C1040.1,-228 1096.5,-228 1138.5,-228"/>
<polygon fill="black" stroke="black" points="1138.39,-231.5 1148.39,-228 1138.39,-224.5 1138.39,-231.5"/>
<text text-anchor="middle" x="1072.2" y="-231.94" font-family="Times,serif" font-size="14.00">content/535:12</text>
</g>
<!-- q21:21 -->
<g id="node14" class="node">
<title>q21:21</title>
<ellipse fill="none" stroke="black" stroke-width="2" cx="1682" cy="-18" rx="45.95" ry="18"/>
<text text-anchor="middle" x="1682" y="-13.32" font-family="Times,serif" font-size="14.00">q21:21</text>
</g>
<!-- q26:21 -->
<g id="node15" class="node">
<title>q26:21</title>
<ellipse fill="none" stroke="black" stroke-width="2" cx="1930.5" cy="-18" rx="45.95" ry="18"/>
<text text-anchor="middle" x="1930.5" y="-13.32" font-family="Times,serif" font-size="14.00">q26:21</text>
</g>
<!-- q21:21&#45;&gt;q26:21 -->
<g id="edge13" class="edge">
<title>q21:21&#45;&gt;q26:21</title>
<path fill="none" stroke="black" d="M1728.7,-18C1769.4,-18 1828.9,-18 1872.6,-18"/>
<polygon fill="black" stroke="black" points="1872.39,-21.5 1882.39,-18 1872.39,-14.5 1872.39,-21.5"/>
<text text-anchor="middle" x="1812.5" y="-21.95" font-family="Times,serif" font-size="14.00">QUIT/221:21</text>
</g>
<!-- q14:2552&#45;&gt;q19:1 -->
<g id="edge14" class="edge">
<title>q14:2552&#45;&gt;q19:1</title>
<path fill="none" stroke="black" d="M1736.4,-152.59C1779.3,-158.68 1838.9,-167.14 1880.5,-173.05"/>
<polygon fill="black" stroke="black" points="1879.81,-176.49 1890.2,-174.43 1880.79,-169.56 1879.81,-176.49"/>
<text text-anchor="middle" x="1812.5" y="-173.94" font-family="Times,serif" font-size="14.00">content/550:1</text>
</g>
<!-- q14:2552&#45;&gt;q14:2552 -->
<g id="edge15" class="edge">
<title>q14:2552&#45;&gt;q14:2552</title>
<path fill="none" stroke="black" d="M1658.6,-162.41C1654.3,-172.09 1662.1,-181 1682,-181 1693.5,-181 1700.9,-178.02 1704.3,-173.64"/>
<polygon fill="black" stroke="black" points="1707.76,-174.19 1705.17,-163.92 1700.79,-173.57 1707.76,-174.19"/>
<text text-anchor="middle" x="1682" y="-184.94" font-family="Times,serif" font-size="14.00">content/λ:2452</text>
</g>
<!-- q17:92 -->
<g id="node17" class="node">
<title>q17:92</title>
<ellipse fill="none" stroke="black" stroke-width="2" cx="1930.5" cy="-126" rx="45.95" ry="18"/>
<text text-anchor="middle" x="1930.5" y="-121.33" font-family="Times,serif" font-size="14.00">q17:92</text>
</g>
<!-- q14:2552&#45;&gt;q17:92 -->
<g id="edge16" class="edge">
<title>q14:2552&#45;&gt;q17:92</title>
<path fill="none" stroke="black" d="M1737.8,-138.71C1744.8,-138 1751.8,-137.33 1758.5,-136.75 1796.6,-133.48 1839.4,-130.79 1872.7,-128.91"/>
<polygon fill="black" stroke="black" points="1872.79,-132.41 1882.59,-128.37 1872.41,-125.42 1872.79,-132.41"/>
<text text-anchor="middle" x="1812.5" y="-140.94" font-family="Times,serif" font-size="14.00">content/250:92</text>
</g>
<!-- q18:7 -->
<g id="node18" class="node">
<title>q18:7</title>
<ellipse fill="none" stroke="black" stroke-width="2" cx="1930.5" cy="-234" rx="39.63" ry="18"/>
<text text-anchor="middle" x="1930.5" y="-229.32" font-family="Times,serif" font-size="14.00">q18:7</text>
</g>
<!-- q14:2552&#45;&gt;q18:7 -->
<g id="edge17" class="edge">
<title>q14:2552&#45;&gt;q18:7</title>
<path fill="none" stroke="black" d="M1706.8,-162.08C1721.2,-171.73 1740.3,-183.35 1758.5,-191 1798.4,-207.69 1846.3,-219.05 1881.2,-225.89"/>
<polygon fill="black" stroke="black" points="1880.14,-229.25 1890.61,-227.67 1881.44,-222.37 1880.14,-229.25"/>
<text text-anchor="middle" x="1812.5" y="-225.94" font-family="Times,serif" font-size="14.00">content/554:7</text>
</g>
<!-- q23:92 -->
<g id="node19" class="node">
<title>q23:92</title>
<ellipse fill="none" stroke="black" stroke-width="2" cx="2149.9" cy="-126" rx="45.95" ry="18"/>
<text text-anchor="middle" x="2149.9" y="-121.33" font-family="Times,serif" font-size="14.00">q23:92</text>
</g>
<!-- q17:92&#45;&gt;q23:92 -->
<g id="edge18" class="edge">
<title>q17:92&#45;&gt;q23:92</title>
<path fill="none" stroke="black" d="M1977.3,-126C2010.7,-126 2056.1,-126 2091.9,-126"/>
<polygon fill="black" stroke="black" points="2091.59,-129.5 2101.59,-126 2091.59,-122.5 2091.59,-129.5"/>
<text text-anchor="middle" x="2040.2" y="-129.94" font-family="Times,serif" font-size="14.00">QUIT/221:92</text>
</g>
<!-- q24:7 -->
<g id="node20" class="node">
<title>q24:7</title>
<ellipse fill="none" stroke="black" stroke-width="2" cx="2149.9" cy="-234" rx="39.63" ry="18"/>
<text text-anchor="middle" x="2149.9" y="-229.32" font-family="Times,serif" font-size="14.00">q24:7</text>
</g>
<!-- q18:7&#45;&gt;q24:7 -->
<g id="edge19" class="edge">
<title>q18:7&#45;&gt;q24:7</title>
<path fill="none" stroke="black" d="M1971.1,-234C2006.9,-234 2059.7,-234 2098.5,-234"/>
<polygon fill="black" stroke="black" points="2097.99,-237.5 2107.99,-234 2097.99,-230.5 2097.99,-237.5"/>
<text text-anchor="middle" x="2040.2" y="-237.94" font-family="Times,serif" font-size="14.00">RSET/250:7</text>
</g>
<!-- q16:88 -->
<g id="node22" class="node">
<title>q16:88</title>
<ellipse fill="none" stroke="black" stroke-width="2" cx="1433.4" cy="-85" rx="45.95" ry="18"/>
<text text-anchor="middle" x="1433.4" y="-80.33" font-family="Times,serif" font-size="14.00">q16:88</text>
</g>
<!-- q16:88&#45;&gt;q21:21 -->
<g id="edge23" class="edge">
<title>q16:88&#45;&gt;q21:21</title>
<path fill="none" stroke="black" d="M1457.3,-68.64C1468.8,-61.17 1483.3,-52.85 1497.4,-47.75 1538.5,-32.85 1587.5,-25.39 1624.6,-21.67"/>
<polygon fill="black" stroke="black" points="1624.47,-25.2 1634.09,-20.77 1623.81,-18.23 1624.47,-25.2"/>
<text text-anchor="middle" x="1551.4" y="-51.95" font-family="Times,serif" font-size="14.00">content/250:21</text>
</g>
<!-- q16:88&#45;&gt;q14:2552 -->
<g id="edge24" class="edge">
<title>q16:88&#45;&gt;q14:2552</title>
<path fill="none" stroke="black" d="M1473.8,-94.57C1514.2,-104.42 1577.6,-119.84 1623.6,-131.04"/>
<polygon fill="black" stroke="black" points="1622.58,-134.4 1633.13,-133.36 1624.24,-127.59 1622.58,-134.4"/>
<text text-anchor="middle" x="1551.4" y="-129.94" font-family="Times,serif" font-size="14.00">content/λ:2</text>
</g>
<!-- q22:65 -->
<g id="node23" class="node">
<title>q22:65</title>
<ellipse fill="none" stroke="black" stroke-width="2" cx="1682" cy="-72" rx="45.95" ry="18"/>
<text text-anchor="middle" x="1682" y="-67.33" font-family="Times,serif" font-size="14.00">q22:65</text>
</g>
<!-- q16:88&#45;&gt;q22:65 -->
<g id="edge25" class="edge">
<title>q16:88&#45;&gt;q22:65</title>
<path fill="none" stroke="black" d="M1474.6,-76.02C1482.1,-74.67 1490,-73.48 1497.4,-72.75 1539.7,-68.58 1587.9,-68.56 1624.2,-69.49"/>
<polygon fill="black" stroke="black" points="1623.99,-72.98 1634.09,-69.78 1624.19,-65.99 1623.99,-72.98"/>
<text text-anchor="middle" x="1551.4" y="-76.95" font-family="Times,serif" font-size="14.00">content/554:65</text>
</g>
<!-- q27:65 -->
<g id="node24" class="node">
<title>q27:65</title>
<ellipse fill="none" stroke="black" stroke-width="2" cx="1930.5" cy="-72" rx="45.95" ry="18"/>
<text text-anchor="middle" x="1930.5" y="-67.33" font-family="Times,serif" font-size="14.00">q27:65</text>
</g>
<!-- q22:65&#45;&gt;q27:65 -->
<g id="edge26" class="edge">
<title>q22:65&#45;&gt;q27:65</title>
<path fill="none" stroke="black" d="M1728.7,-72C1769.4,-72 1828.9,-72 1872.6,-72"/>
<polygon fill="black" stroke="black" points="1872.39,-75.5 1882.39,-72 1872.39,-68.5 1872.39,-75.5"/>
<text text-anchor="middle" x="1812.5" y="-75.95" font-family="Times,serif" font-size="14.00">RSET/250:65</text>
</g>
<!-- q12:228&#45;&gt;q9:150 -->
<g id="edge29" class="edge">
<title>q12:228&#45;&gt;q9:150</title>
<path fill="none" stroke="black" d="M1249.6,-149.67C1286.9,-150.14 1337,-150.78 1375.3,-151.27"/>
<polygon fill="black" stroke="black" points="1375.24,-154.77 1385.29,-151.4 1375.33,-147.77 1375.24,-154.77"/>
<text text-anchor="middle" x="1318.1" y="-155.94" font-family="Times,serif" font-size="14.00">RCPT/250:140</text>
</g>
<!-- q12:228&#45;&gt;q16:88 -->
<g id="edge30" class="edge">
<title>q12:228&#45;&gt;q16:88</title>
<path fill="none" stroke="black" d="M1237.7,-137.04C1247.2,-134.27 1257.3,-131.37 1266.7,-128.75 1305.6,-117.93 1349.8,-106.29 1382.8,-97.74"/>
<polygon fill="black" stroke="black" points="1383.23,-101.25 1392.03,-95.35 1381.48,-94.47 1383.23,-101.25"/>
<text text-anchor="middle" x="1318.1" y="-132.94" font-family="Times,serif" font-size="14.00">DATA/354:88</text>
</g>
<!-- q20:4 -->
<g id="node28" class="node">
<title>q20:4</title>
<ellipse fill="none" stroke="black" stroke-width="2" cx="1433.4" cy="-241" rx="39.63" ry="18"/>
<text text-anchor="middle" x="1433.4" y="-236.32" font-family="Times,serif" font-size="14.00">q20:4</text>
</g>
<!-- q15:12&#45;&gt;q20:4 -->
<g id="edge32" class="edge">
<title>q15:12&#45;&gt;q20:4</title>
<path fill="none" stroke="black" d="M1242.8,-230.51C1282.6,-232.71 1340.3,-235.9 1381.7,-238.19"/>
<polygon fill="black" stroke="black" points="1381.41,-241.68 1391.59,-238.75 1381.8,-234.69 1381.41,-241.68"/>
<text text-anchor="middle" x="1318.1" y="-240.94" font-family="Times,serif" font-size="14.00">λ/451:4</text>
</g>
</g>
</svg>
