<?xml version="1.0" encoding="UTF-8" standalone="no"?>
<!DOCTYPE svg PUBLIC "-//W3C//DTD SVG 1.1//EN"
 "http://www.w3.org/Graphics/SVG/1.1/DTD/svg11.dtd">
<!-- Generated by graphviz version 12.0.0 (20240803.0821)
 -->
<!-- Pages: 1 -->
<svg width="2216pt" height="283pt"
 viewBox="0.00 0.00 2216.45 283.00" xmlns="http://www.w3.org/2000/svg" xmlns:xlink="http://www.w3.org/1999/xlink">
<g id="graph0" class="graph" transform="scale(1 1) rotate(0) translate(4 279)">
<polygon fill="white" stroke="none" points="-4,4 -4,-279 2212.45,-279 2212.45,4 -4,4"/>
<!-- q19:89 -->
<g id="node1" class="node">
<title>q19:89</title>
<ellipse fill="none" stroke="black" stroke-width="2" cx="1943.1" cy="-126" rx="45.95" ry="18"/>
<text text-anchor="middle" x="1943.1" y="-121.33" font-family="Times,serif" font-size="14.00">q19:89</text>
</g>
<!-- q24:89 -->
<g id="node2" class="node">
<title>q24:89</title>
<ellipse fill="none" stroke="black" stroke-width="2" cx="2162.5" cy="-126" rx="45.95" ry="18"/>
<text text-anchor="middle" x="2162.5" y="-121.33" font-family="Times,serif" font-size="14.00">q24:89</text>
</g>
<!-- q19:89&#45;&gt;q24:89 -->
<g id="edge1" class="edge">
<title>q19:89&#45;&gt;q24:89</title>
<path fill="none" stroke="black" d="M1989.9,-126C2023.3,-126 2068.8,-126 2104.5,-126"/>
<polygon fill="black" stroke="black" points="2104.19,-129.5 2114.19,-126 2104.19,-122.5 2104.19,-129.5"/>
<text text-anchor="middle" x="2052.8" y="-129.94" font-family="Times,serif" font-size="14.00">QUIT/221:89</text>
</g>
<!-- q16:163 -->
<g id="node3" class="node">
<title>q16:163</title>
<ellipse fill="none" stroke="black" stroke-width="2" cx="1439.8" cy="-72" rx="52.26" ry="18"/>
<text text-anchor="middle" x="1439.8" y="-67.33" font-family="Times,serif" font-size="14.00">q16:163</text>
</g>
<!-- q16:163&#45;&gt;q16:163 -->
<g id="edge2" class="edge">
<title>q16:163&#45;&gt;q16:163</title>
<path fill="none" stroke="black" d="M1418.2,-89.04C1413.8,-98.86 1421,-108 1439.8,-108 1450.6,-108 1457.6,-104.94 1460.7,-100.47"/>
<polygon fill="black" stroke="black" points="1464.19,-100.72 1461.22,-90.55 1457.2,-100.35 1464.19,-100.72"/>
<text text-anchor="middle" x="1439.8" y="-111.95" font-family="Times,serif" font-size="14.00">content/λ:74</text>
</g>
<!-- q22:24 -->
<g id="node4" class="node">
<title>q22:24</title>
<ellipse fill="none" stroke="black" stroke-width="2" cx="1694.6" cy="-72" rx="45.95" ry="18"/>
<text text-anchor="middle" x="1694.6" y="-67.33" font-family="Times,serif" font-size="14.00">q22:24</text>
</g>
<!-- q16:163&#45;&gt;q22:24 -->
<g id="edge3" class="edge">
<title>q16:163&#45;&gt;q22:24</title>
<path fill="none" stroke="black" d="M1492.8,-72C1534.7,-72 1593.4,-72 1636.5,-72"/>
<polygon fill="black" stroke="black" points="1636.39,-75.5 1646.39,-72 1636.39,-68.5 1636.39,-75.5"/>
<text text-anchor="middle" x="1564" y="-75.95" font-family="Times,serif" font-size="14.00">content/250:24</text>
</g>
<!-- q21:65 -->
<g id="node5" class="node">
<title>q21:65</title>
<ellipse fill="none" stroke="black" stroke-width="2" cx="1694.6" cy="-18" rx="45.95" ry="18"/>
<text text-anchor="middle" x="1694.6" y="-13.32" font-family="Times,serif" font-size="14.00">q21:65</text>
</g>
<!-- q16:163&#45;&gt;q21:65 -->
<g id="edge4" class="edge">
<title>q16:163&#45;&gt;q21:65</title>
<path fill="none" stroke="black" d="M1479,-59.36C1489,-56.3 1499.9,-53.2 1510,-50.75 1553.1,-40.34 1602.6,-31.7 1639.3,-25.92"/>
<polygon fill="black" stroke="black" points="1639.46,-29.43 1648.8,-24.45 1638.39,-22.52 1639.46,-29.43"/>
<text text-anchor="middle" x="1564" y="-54.95" font-family="Times,serif" font-size="14.00">content/554:65</text>
</g>
<!-- q27:24 -->
<g id="node6" class="node">
<title>q27:24</title>
<ellipse fill="none" stroke="black" stroke-width="2" cx="1943.1" cy="-72" rx="45.95" ry="18"/>
<text text-anchor="middle" x="1943.1" y="-67.33" font-family="Times,serif" font-size="14.00">q27:24</text>
</g>
<!-- q22:24&#45;&gt;q27:24 -->
<g id="edge5" class="edge">
<title>q22:24&#45;&gt;q27:24</title>
<path fill="none" stroke="black" d="M1741.4,-72C1782,-72 1841.6,-72 1885.3,-72"/>
<polygon fill="black" stroke="black" points="1885.09,-75.5 1895.09,-72 1885.09,-68.5 1885.09,-75.5"/>
<text text-anchor="middle" x="1825.2" y="-75.95" font-family="Times,serif" font-size="14.00">QUIT/221:24</text>
</g>
<!-- q26:65 -->
<g id="node7" class="node">
<title>q26:65</title>
<ellipse fill="none" stroke="black" stroke-width="2" cx="1943.1" cy="-18" rx="45.95" ry="18"/>
<text text-anchor="middle" x="1943.1" y="-13.32" font-family="Times,serif" font-size="14.00">q26:65</text>
</g>
<!-- q21:65&#45;&gt;q26:65 -->
<g id="edge6" class="edge">
<title>q21:65&#45;&gt;q26:65</title>
<path fill="none" stroke="black" d="M1741.4,-18C1782,-18 1841.6,-18 1885.3,-18"/>
<polygon fill="black" stroke="black" points="1885.09,-21.5 1895.09,-18 1885.09,-14.5 1885.09,-21.5"/>
<text text-anchor="middle" x="1825.2" y="-21.95" font-family="Times,serif" font-size="14.00">RSET/250:65</text>
</g>
<!-- q3:241 -->
<g id="node8" class="node">
<title>q3:241</title>
<ellipse fill="none" stroke="black" stroke-width="2" cx="491.48" cy="-185" rx="45.95" ry="18"/>
<text text-anchor="middle" x="491.48" y="-180.32" font-family="Times,serif" font-size="14.00">q3:241</text>
</g>
<!-- q6:1 -->
<g id="node9" class="node">
<title>q6:1</title>
<ellipse fill="none" stroke="black" stroke-width="2" cx="839.7" cy="-192" rx="33.32" ry="18"/>
<text text-anchor="middle" x="839.7" y="-187.32" font-family="Times,serif" font-size="14.00">q6:1</text>
</g>
<!-- q3:241&#45;&gt;q6:1 -->
<g id="edge7" class="edge">
<title>q3:241&#45;&gt;q6:1</title>
<path fill="none" stroke="black" d="M538.1,-185.92C604.79,-187.27 728.13,-189.76 794.18,-191.1"/>
<polygon fill="black" stroke="black" points="793.86,-194.59 803.93,-191.3 794,-187.6 793.86,-194.59"/>
<text text-anchor="middle" x="608.31" y="-191.94" font-family="Times,serif" font-size="14.00">AUTH/λ:1</text>
</g>
<!-- q4:232 -->
<g id="node10" class="node">
<title>q4:232</title>
<ellipse fill="none" stroke="black" stroke-width="2" cx="725.13" cy="-125" rx="45.95" ry="18"/>
<text text-anchor="middle" x="725.13" y="-120.33" font-family="Times,serif" font-size="14.00">q4:232</text>
</g>
<!-- q3:241&#45;&gt;q4:232 -->
<g id="edge8" class="edge">
<title>q3:241&#45;&gt;q4:232</title>
<path fill="none" stroke="black" d="M518.34,-169.45C529.42,-163.41 542.72,-156.94 555.43,-152.75 591.87,-140.75 634.52,-133.79 667.82,-129.84"/>
<polygon fill="black" stroke="black" points="668.13,-133.33 677.68,-128.74 667.35,-126.37 668.13,-133.33"/>
<text text-anchor="middle" x="608.31" y="-155.94" font-family="Times,serif" font-size="14.00">AUTH/235:230</text>
</g>
<!-- q5:10 -->
<g id="node11" class="node">
<title>q5:10</title>
<ellipse fill="none" stroke="black" stroke-width="2" cx="725.13" cy="-238" rx="39.63" ry="18"/>
<text text-anchor="middle" x="725.13" y="-233.32" font-family="Times,serif" font-size="14.00">q5:10</text>
</g>
<!-- q3:241&#45;&gt;q5:10 -->
<g id="edge9" class="edge">
<title>q3:241&#45;&gt;q5:10</title>
<path fill="none" stroke="black" d="M521.01,-199.66C531.59,-204.56 543.83,-209.63 555.43,-213 594.39,-224.32 639.96,-230.68 673.92,-234.16"/>
<polygon fill="black" stroke="black" points="673.16,-237.6 683.45,-235.08 673.83,-230.64 673.16,-237.6"/>
<text text-anchor="middle" x="608.31" y="-235.94" font-family="Times,serif" font-size="14.00">AUTH/535:10</text>
</g>
<!-- q10:151 -->
<g id="node12" class="node">
<title>q10:151</title>
<ellipse fill="none" stroke="black" stroke-width="2" cx="1439.8" cy="-168" rx="52.26" ry="18"/>
<text text-anchor="middle" x="1439.8" y="-163.32" font-family="Times,serif" font-size="14.00">q10:151</text>
</g>
<!-- q6:1&#45;&gt;q10:151 -->
<g id="edge10" class="edge">
<title>q6:1&#45;&gt;q10:151</title>
<path fill="none" stroke="black" d="M873.71,-190.68C969.64,-186.83 1249.6,-175.59 1375.8,-170.53"/>
<polygon fill="black" stroke="black" points="1375.74,-174.04 1385.59,-170.13 1375.45,-167.04 1375.74,-174.04"/>
<text text-anchor="middle" x="1072.2" y="-187.94" font-family="Times,serif" font-size="14.00">MAIL/250:1</text>
</g>
<!-- q8:230 -->
<g id="node13" class="node">
<title>q8:230</title>
<ellipse fill="none" stroke="black" stroke-width="2" cx="954.27" cy="-85" rx="45.95" ry="18"/>
<text text-anchor="middle" x="954.27" y="-80.33" font-family="Times,serif" font-size="14.00">q8:230</text>
</g>
<!-- q4:232&#45;&gt;q8:230 -->
<g id="edge11" class="edge">
<title>q4:232&#45;&gt;q8:230</title>
<path fill="none" stroke="black" d="M763.92,-114.53C772.17,-112.45 780.89,-110.39 789.08,-108.75 825.04,-101.53 865.86,-95.61 897.8,-91.49"/>
<polygon fill="black" stroke="black" points="898.16,-94.98 907.64,-90.25 897.28,-88.03 898.16,-94.98"/>
<text text-anchor="middle" x="839.7" y="-112.95" font-family="Times,serif" font-size="14.00">MAIL/250:230</text>
</g>
<!-- q7:2 -->
<g id="node14" class="node">
<title>q7:2</title>
<ellipse fill="none" stroke="black" stroke-width="2" cx="954.27" cy="-139" rx="33.32" ry="18"/>
<text text-anchor="middle" x="954.27" y="-134.32" font-family="Times,serif" font-size="14.00">q7:2</text>
</g>
<!-- q4:232&#45;&gt;q7:2 -->
<g id="edge12" class="edge">
<title>q4:232&#45;&gt;q7:2</title>
<path fill="none" stroke="black" d="M771.55,-127.8C811.53,-130.26 869.38,-133.83 909.01,-136.27"/>
<polygon fill="black" stroke="black" points="908.72,-139.76 918.92,-136.89 909.16,-132.77 908.72,-139.76"/>
<text text-anchor="middle" x="839.7" y="-138.94" font-family="Times,serif" font-size="14.00">MAIL/553:2</text>
</g>
<!-- q9:10 -->
<g id="node15" class="node">
<title>q9:10</title>
<ellipse fill="none" stroke="black" stroke-width="2" cx="954.27" cy="-238" rx="39.63" ry="18"/>
<text text-anchor="middle" x="954.27" y="-233.32" font-family="Times,serif" font-size="14.00">q9:10</text>
</g>
<!-- q5:10&#45;&gt;q9:10 -->
<g id="edge13" class="edge">
<title>q5:10&#45;&gt;q9:10</title>
<path fill="none" stroke="black" d="M765.69,-238C803.6,-238 861,-238 902.32,-238"/>
<polygon fill="black" stroke="black" points="902.27,-241.5 912.27,-238 902.27,-234.5 902.27,-241.5"/>
<text text-anchor="middle" x="839.7" y="-241.94" font-family="Times,serif" font-size="14.00">AUTH/334:10</text>
</g>
<!-- q10:151&#45;&gt;q10:151 -->
<g id="edge14" class="edge">
<title>q10:151&#45;&gt;q10:151</title>
<path fill="none" stroke="black" d="M1418.2,-185.04C1413.8,-194.86 1421,-204 1439.8,-204 1450.6,-204 1457.6,-200.94 1460.7,-196.47"/>
<polygon fill="black" stroke="black" points="1464.19,-196.72 1461.22,-186.55 1457.2,-196.35 1464.19,-196.72"/>
<text text-anchor="middle" x="1439.8" y="-207.94" font-family="Times,serif" font-size="14.00">RCPT/250:9</text>
</g>
<!-- q14:43 -->
<g id="node16" class="node">
<title>q14:43</title>
<ellipse fill="none" stroke="black" stroke-width="2" cx="1694.6" cy="-257" rx="45.95" ry="18"/>
<text text-anchor="middle" x="1694.6" y="-252.32" font-family="Times,serif" font-size="14.00">q14:43</text>
</g>
<!-- q10:151&#45;&gt;q14:43 -->
<g id="edge15" class="edge">
<title>q10:151&#45;&gt;q14:43</title>
<path fill="none" stroke="black" d="M1478.1,-181.13C1523.3,-197.06 1599.5,-223.89 1648.1,-241"/>
<polygon fill="black" stroke="black" points="1646.98,-244.32 1657.57,-244.32 1649.29,-237.71 1646.98,-244.32"/>
<text text-anchor="middle" x="1564" y="-231.94" font-family="Times,serif" font-size="14.00">DATA/550:43</text>
</g>
<!-- q15:2534 -->
<g id="node17" class="node">
<title>q15:2534</title>
<ellipse fill="none" stroke="black" stroke-width="2" cx="1694.6" cy="-168" rx="58.57" ry="18"/>
<text text-anchor="middle" x="1694.6" y="-163.32" font-family="Times,serif" font-size="14.00">q15:2534</text>
</g>
<!-- q10:151&#45;&gt;q15:2534 -->
<g id="edge16" class="edge">
<title>q10:151&#45;&gt;q15:2534</title>
<path fill="none" stroke="black" d="M1492.8,-168C1530.8,-168 1582.5,-168 1624,-168"/>
<polygon fill="black" stroke="black" points="1623.89,-171.5 1633.89,-168 1623.89,-164.5 1623.89,-171.5"/>
<text text-anchor="middle" x="1564" y="-171.94" font-family="Times,serif" font-size="14.00">DATA/354:99</text>
</g>
<!-- q12:230 -->
<g id="node18" class="node">
<title>q12:230</title>
<ellipse fill="none" stroke="black" stroke-width="2" cx="1196.5" cy="-85" rx="52.26" ry="18"/>
<text text-anchor="middle" x="1196.5" y="-80.33" font-family="Times,serif" font-size="14.00">q12:230</text>
</g>
<!-- q8:230&#45;&gt;q12:230 -->
<g id="edge17" class="edge">
<title>q8:230&#45;&gt;q12:230</title>
<path fill="none" stroke="black" d="M1001.02,-85C1038.1,-85 1090.8,-85 1131.9,-85"/>
<polygon fill="black" stroke="black" points="1131.69,-88.5 1141.69,-85 1131.69,-81.5 1131.69,-88.5"/>
<text text-anchor="middle" x="1072.2" y="-88.95" font-family="Times,serif" font-size="14.00">RCPT/250:230</text>
</g>
<!-- q11:2 -->
<g id="node19" class="node">
<title>q11:2</title>
<ellipse fill="none" stroke="black" stroke-width="2" cx="1196.5" cy="-139" rx="39.63" ry="18"/>
<text text-anchor="middle" x="1196.5" y="-134.32" font-family="Times,serif" font-size="14.00">q11:2</text>
</g>
<!-- q7:2&#45;&gt;q11:2 -->
<g id="edge18" class="edge">
<title>q7:2&#45;&gt;q11:2</title>
<path fill="none" stroke="black" d="M988.42,-139C1028.8,-139 1097.3,-139 1144.4,-139"/>
<polygon fill="black" stroke="black" points="1144.39,-142.5 1154.39,-139 1144.39,-135.5 1144.39,-142.5"/>
<text text-anchor="middle" x="1072.2" y="-142.94" font-family="Times,serif" font-size="14.00">RSET/250:2</text>
</g>
<!-- q13:10 -->
<g id="node20" class="node">
<title>q13:10</title>
<ellipse fill="none" stroke="black" stroke-width="2" cx="1196.5" cy="-250" rx="45.95" ry="18"/>
<text text-anchor="middle" x="1196.5" y="-245.32" font-family="Times,serif" font-size="14.00">q13:10</text>
</g>
<!-- q9:10&#45;&gt;q13:10 -->
<g id="edge19" class="edge">
<title>q9:10&#45;&gt;q13:10</title>
<path fill="none" stroke="black" d="M994.67,-239.97C1033.8,-241.92 1094.1,-244.94 1138.4,-247.15"/>
<polygon fill="black" stroke="black" points="1138.23,-250.65 1148.39,-247.65 1138.57,-243.65 1138.23,-250.65"/>
<text text-anchor="middle" x="1072.2" y="-249.94" font-family="Times,serif" font-size="14.00">content/535:10</text>
</g>
<!-- q15:2534&#45;&gt;q19:89 -->
<g id="edge20" class="edge">
<title>q15:2534&#45;&gt;q19:89</title>
<path fill="none" stroke="black" d="M1741,-156.27C1750.9,-153.92 1761.3,-151.61 1771.2,-149.75 1809.5,-142.48 1853,-136.46 1886.6,-132.31"/>
<polygon fill="black" stroke="black" points="1887,-135.79 1896.5,-131.09 1886.15,-128.84 1887,-135.79"/>
<text text-anchor="middle" x="1825.2" y="-153.94" font-family="Times,serif" font-size="14.00">content/250:89</text>
</g>
<!-- q15:2534&#45;&gt;q15:2534 -->
<g id="edge21" class="edge">
<title>q15:2534&#45;&gt;q15:2534</title>
<path fill="none" stroke="black" d="M1671.3,-185.41C1666.9,-195.09 1674.7,-204 1694.6,-204 1706.1,-204 1713.5,-201.02 1716.9,-196.64"/>
<polygon fill="black" stroke="black" points="1720.36,-197.19 1717.77,-186.92 1713.39,-196.57 1720.36,-197.19"/>
<text text-anchor="middle" x="1694.6" y="-207.94" font-family="Times,serif" font-size="14.00">content/λ:2435</text>
</g>
<!-- q18:1 -->
<g id="node21" class="node">
<title>q18:1</title>
<ellipse fill="none" stroke="black" stroke-width="2" cx="1943.1" cy="-234" rx="39.63" ry="18"/>
<text text-anchor="middle" x="1943.1" y="-229.32" font-family="Times,serif" font-size="14.00">q18:1</text>
</g>
<!-- q15:2534&#45;&gt;q18:1 -->
<g id="edge22" class="edge">
<title>q15:2534&#45;&gt;q18:1</title>
<path fill="none" stroke="black" d="M1730.9,-182.86C1743.5,-187.79 1757.8,-193.02 1771.2,-197 1811.9,-209.16 1859.3,-219.1 1893.8,-225.6"/>
<polygon fill="black" stroke="black" points="1893.04,-229.02 1903.51,-227.39 1894.31,-222.14 1893.04,-229.02"/>
<text text-anchor="middle" x="1825.2" y="-225.94" font-family="Times,serif" font-size="14.00">content/550:1</text>
</g>
<!-- q20:9 -->
<g id="node22" class="node">
<title>q20:9</title>
<ellipse fill="none" stroke="black" stroke-width="2" cx="1943.1" cy="-180" rx="39.63" ry="18"/>
<text text-anchor="middle" x="1943.1" y="-175.32" font-family="Times,serif" font-size="14.00">q20:9</text>
</g>
<!-- q15:2534&#45;&gt;q20:9 -->
<g id="edge23" class="edge">
<title>q15:2534&#45;&gt;q20:9</title>
<path fill="none" stroke="black" d="M1753.4,-170.81C1795.2,-172.85 1851.2,-175.58 1891.3,-177.53"/>
<polygon fill="black" stroke="black" points="1891.03,-181.02 1901.19,-178.01 1891.37,-174.03 1891.03,-181.02"/>
<text text-anchor="middle" x="1825.2" y="-179.94" font-family="Times,serif" font-size="14.00">content/554:9</text>
</g>
<!-- q12:230&#45;&gt;q16:163 -->
<g id="edge30" class="edge">
<title>q12:230&#45;&gt;q16:163</title>
<path fill="none" stroke="black" d="M1248.9,-82.23C1286.1,-80.22 1336.5,-77.51 1376,-75.38"/>
<polygon fill="black" stroke="black" points="1376.09,-78.88 1385.89,-74.85 1375.71,-71.89 1376.09,-78.88"/>
<text text-anchor="middle" x="1318.1" y="-85.95" font-family="Times,serif" font-size="14.00">DATA/354:89</text>
</g>
<!-- q12:230&#45;&gt;q10:151 -->
<g id="edge31" class="edge">
<title>q12:230&#45;&gt;q10:151</title>
<path fill="none" stroke="black" d="M1235.2,-97.97C1277.1,-112.37 1344.8,-135.67 1390.5,-151.4"/>
<polygon fill="black" stroke="black" points="1389.27,-154.68 1399.87,-154.63 1391.55,-148.06 1389.27,-154.68"/>
<text text-anchor="middle" x="1318.1" y="-147.94" font-family="Times,serif" font-size="14.00">RCPT/250:141</text>
</g>
<!-- q17:4 -->
<g id="node25" class="node">
<title>q17:4</title>
<ellipse fill="none" stroke="black" stroke-width="2" cx="1439.8" cy="-257" rx="39.63" ry="18"/>
<text text-anchor="middle" x="1439.8" y="-252.32" font-family="Times,serif" font-size="14.00">q17:4</text>
</g>
<!-- q13:10&#45;&gt;q17:4 -->
<g id="edge26" class="edge">
<title>q13:10&#45;&gt;q17:4</title>
<path fill="none" stroke="black" d="M1243.1,-251.32C1284.4,-252.52 1345.2,-254.28 1388,-255.53"/>
<polygon fill="black" stroke="black" points="1387.69,-259.02 1397.79,-255.81 1387.89,-252.03 1387.69,-259.02"/>
<text text-anchor="middle" x="1318.1" y="-257.94" font-family="Times,serif" font-size="14.00">λ/451:4</text>
</g>
<!-- q23:1 -->
<g id="node23" class="node">
<title>q23:1</title>
<ellipse fill="none" stroke="black" stroke-width="2" cx="2162.5" cy="-234" rx="39.63" ry="18"/>
<text text-anchor="middle" x="2162.5" y="-229.32" font-family="Times,serif" font-size="14.00">q23:1</text>
</g>
<!-- q18:1&#45;&gt;q23:1 -->
<g id="edge24" class="edge">
<title>q18:1&#45;&gt;q23:1</title>
<path fill="none" stroke="black" d="M1983.7,-234C2019.5,-234 2072.3,-234 2111.1,-234"/>
<polygon fill="black" stroke="black" points="2110.69,-237.5 2120.69,-234 2110.69,-230.5 2110.69,-237.5"/>
<text text-anchor="middle" x="2052.8" y="-237.94" font-family="Times,serif" font-size="14.00">RSET/250:1</text>
</g>
<!-- q25:9 -->
<g id="node24" class="node">
<title>q25:9</title>
<ellipse fill="none" stroke="black" stroke-width="2" cx="2162.5" cy="-180" rx="39.63" ry="18"/>
<text text-anchor="middle" x="2162.5" y="-175.32" font-family="Times,serif" font-size="14.00">q25:9</text>
</g>
<!-- q20:9&#45;&gt;q25:9 -->
<g id="edge25" class="edge">
<title>q20:9&#45;&gt;q25:9</title>
<path fill="none" stroke="black" d="M1983.7,-180C2019.5,-180 2072.3,-180 2111.1,-180"/>
<polygon fill="black" stroke="black" points="2110.69,-183.5 2120.69,-180 2110.69,-176.5 2110.69,-183.5"/>
<text text-anchor="middle" x="2052.8" y="-183.94" font-family="Times,serif" font-size="14.00">RSET/250:9</text>
</g>
<!-- q1:243 -->
<g id="node26" class="node">
<title>q1:243</title>
<ellipse fill="none" stroke="black" stroke-width="2" cx="257.84" cy="-152" rx="45.95" ry="18"/>
<text text-anchor="middle" x="257.84" y="-147.32" font-family="Times,serif" font-size="14.00">q1:243</text>
</g>
<!-- q1:243&#45;&gt;q3:241 -->
<g id="edge27" class="edge">
<title>q1:243&#45;&gt;q3:241</title>
<path fill="none" stroke="black" d="M302.14,-158.17C340,-163.56 395.17,-171.42 436.02,-177.24"/>
<polygon fill="black" stroke="black" points="435.51,-180.7 445.9,-178.65 436.49,-173.77 435.51,-180.7"/>
<text text-anchor="middle" x="374.66" y="-178.94" font-family="Times,serif" font-size="14.00">EHLO/250:241</text>
</g>
<!-- q2:2 -->
<g id="node27" class="node">
<title>q2:2</title>
<ellipse fill="none" stroke="black" stroke-width="2" cx="491.48" cy="-125" rx="33.32" ry="18"/>
<text text-anchor="middle" x="491.48" y="-120.33" font-family="Times,serif" font-size="14.00">q2:2</text>
</g>
<!-- q1:243&#45;&gt;q2:2 -->
<g id="edge28" class="edge">
<title>q1:243&#45;&gt;q2:2</title>
<path fill="none" stroke="black" d="M296.21,-141.12C304.56,-139.03 313.43,-137.08 321.79,-135.75 363.53,-129.09 411.69,-126.52 445.85,-125.55"/>
<polygon fill="black" stroke="black" points="445.88,-129.05 455.8,-125.31 445.71,-122.05 445.88,-129.05"/>
<text text-anchor="middle" x="374.66" y="-139.94" font-family="Times,serif" font-size="14.00">EHLO/λ:2</text>
</g>
<!-- q2:2&#45;&gt;q4:232 -->
<g id="edge29" class="edge">
<title>q2:2&#45;&gt;q4:232</title>
<path fill="none" stroke="black" d="M523.05,-117.83C533.28,-115.75 544.79,-113.78 555.43,-112.75 602.21,-108.24 614.4,-108.24 661.18,-112.75 665.01,-113.12 668.95,-113.61 672.91,-114.19"/>
<polygon fill="black" stroke="black" points="672.07,-117.6 682.51,-115.76 673.2,-110.69 672.07,-117.6"/>
<text text-anchor="middle" x="608.31" y="-116.95" font-family="Times,serif" font-size="14.00">AUTH/235:2</text>
</g>
<!-- q0:243 -->
<g id="node28" class="node">
<title>q0:243</title>
<ellipse fill="none" stroke="black" stroke-width="2" cx="53.95" cy="-152" rx="49.95" ry="49.95"/>
<ellipse fill="none" stroke="black" stroke-width="2" cx="53.95" cy="-152" rx="53.95" ry="53.95"/>
<text text-anchor="middle" x="53.95" y="-147.32" font-family="Times,serif" font-size="14.00">q0:243</text>
</g>
<!-- q0:243&#45;&gt;q1:243 -->
<g id="edge32" class="edge">
<title>q0:243&#45;&gt;q1:243</title>
<path fill="none" stroke="black" d="M104.85,-152C133.64,-152 169.94,-152 199.84,-152"/>
<polygon fill="black" stroke="black" points="199.45,-155.5 209.45,-152 199.45,-148.5 199.45,-155.5"/>
<text text-anchor="middle" x="157.89" y="-155.94" font-family="Times,serif" font-size="14.00">λ/220:243</text>
</g>
</g>
</svg>
