<?xml version="1.0" encoding="UTF-8" standalone="no"?>
<!DOCTYPE svg PUBLIC "-//W3C//DTD SVG 1.1//EN"
 "http://www.w3.org/Graphics/SVG/1.1/DTD/svg11.dtd">
<!-- Generated by graphviz version 12.0.0 (20240803.0821)
 -->
<!-- Pages: 1 -->
<svg width="2253pt" height="231pt"
 viewBox="0.00 0.00 2252.96 231.00" xmlns="http://www.w3.org/2000/svg" xmlns:xlink="http://www.w3.org/1999/xlink">
<g id="graph0" class="graph" transform="scale(1 1) rotate(0) translate(4 227)">
<polygon fill="white" stroke="none" points="-4,4 -4,-227 2248.96,-227 2248.96,4 -4,4"/>
<!-- q2:2 -->
<g id="node1" class="node">
<title>q2:2</title>
<ellipse fill="none" stroke="black" stroke-width="2" cx="491.48" cy="-98" rx="33.32" ry="18"/>
<text text-anchor="middle" x="491.48" y="-93.33" font-family="Times,serif" font-size="14.00">q2:2</text>
</g>
<!-- q4:232 -->
<g id="node2" class="node">
<title>q4:232</title>
<ellipse fill="none" stroke="black" stroke-width="2" cx="725.13" cy="-94" rx="45.95" ry="18"/>
<text text-anchor="middle" x="725.13" y="-89.33" font-family="Times,serif" font-size="14.00">q4:232</text>
</g>
<!-- q2:2&#45;&gt;q4:232 -->
<g id="edge1" class="edge">
<title>q2:2&#45;&gt;q4:232</title>
<path fill="none" stroke="black" d="M525.67,-97.43C562.42,-96.79 622.33,-95.76 666.72,-94.99"/>
<polygon fill="black" stroke="black" points="666.77,-98.49 676.71,-94.82 666.65,-91.49 666.77,-98.49"/>
<text text-anchor="middle" x="608.31" y="-99.95" font-family="Times,serif" font-size="14.00">AUTH/235:2</text>
</g>
<!-- q7:229 -->
<g id="node3" class="node">
<title>q7:229</title>
<ellipse fill="none" stroke="black" stroke-width="2" cx="954.27" cy="-139" rx="45.95" ry="18"/>
<text text-anchor="middle" x="954.27" y="-134.32" font-family="Times,serif" font-size="14.00">q7:229</text>
</g>
<!-- q4:232&#45;&gt;q7:229 -->
<g id="edge2" class="edge">
<title>q4:232&#45;&gt;q7:229</title>
<path fill="none" stroke="black" d="M763.6,-104.74C771.95,-106.96 780.78,-109.18 789.08,-111 825.42,-118.99 866.72,-126.02 898.81,-131.04"/>
<polygon fill="black" stroke="black" points="898.28,-134.5 908.69,-132.57 899.35,-127.58 898.28,-134.5"/>
<text text-anchor="middle" x="839.7" y="-132.94" font-family="Times,serif" font-size="14.00">MAIL/250:229</text>
</g>
<!-- q6:3 -->
<g id="node4" class="node">
<title>q6:3</title>
<ellipse fill="none" stroke="black" stroke-width="2" cx="954.27" cy="-85" rx="33.32" ry="18"/>
<text text-anchor="middle" x="954.27" y="-80.33" font-family="Times,serif" font-size="14.00">q6:3</text>
</g>
<!-- q4:232&#45;&gt;q6:3 -->
<g id="edge3" class="edge">
<title>q4:232&#45;&gt;q6:3</title>
<path fill="none" stroke="black" d="M771.82,-92.19C811.71,-90.61 869.24,-88.33 908.77,-86.76"/>
<polygon fill="black" stroke="black" points="908.8,-90.26 918.66,-86.37 908.53,-83.27 908.8,-90.26"/>
<text text-anchor="middle" x="839.7" y="-94.95" font-family="Times,serif" font-size="14.00">MAIL/553:3</text>
</g>
<!-- q10:229 -->
<g id="node5" class="node">
<title>q10:229</title>
<ellipse fill="none" stroke="black" stroke-width="2" cx="1196.5" cy="-139" rx="52.26" ry="18"/>
<text text-anchor="middle" x="1196.5" y="-134.32" font-family="Times,serif" font-size="14.00">q10:229</text>
</g>
<!-- q7:229&#45;&gt;q10:229 -->
<g id="edge4" class="edge">
<title>q7:229&#45;&gt;q10:229</title>
<path fill="none" stroke="black" d="M1001.02,-139C1038.1,-139 1090.8,-139 1131.9,-139"/>
<polygon fill="black" stroke="black" points="1131.69,-142.5 1141.69,-139 1131.69,-135.5 1131.69,-142.5"/>
<text text-anchor="middle" x="1072.2" y="-142.94" font-family="Times,serif" font-size="14.00">RCPT/250:229</text>
</g>
<!-- q9:3 -->
<g id="node6" class="node">
<title>q9:3</title>
<ellipse fill="none" stroke="black" stroke-width="2" cx="1196.5" cy="-85" rx="33.32" ry="18"/>
<text text-anchor="middle" x="1196.5" y="-80.33" font-family="Times,serif" font-size="14.00">q9:3</text>
</g>
<!-- q6:3&#45;&gt;q9:3 -->
<g id="edge5" class="edge">
<title>q6:3&#45;&gt;q9:3</title>
<path fill="none" stroke="black" d="M988.42,-85C1030.7,-85 1103.8,-85 1150.9,-85"/>
<polygon fill="black" stroke="black" points="1150.79,-88.5 1160.79,-85 1150.79,-81.5 1150.79,-88.5"/>
<text text-anchor="middle" x="1072.2" y="-88.95" font-family="Times,serif" font-size="14.00">RSET/250:3</text>
</g>
<!-- q12:3329 -->
<g id="node7" class="node">
<title>q12:3329</title>
<ellipse fill="none" stroke="black" stroke-width="2" cx="1687.8" cy="-151" rx="58.57" ry="18"/>
<text text-anchor="middle" x="1687.8" y="-146.32" font-family="Times,serif" font-size="14.00">q12:3329</text>
</g>
<!-- q10:229&#45;&gt;q12:3329 -->
<g id="edge6" class="edge">
<title>q10:229&#45;&gt;q12:3329</title>
<path fill="none" stroke="black" d="M1247.4,-144.58C1253.9,-145.15 1260.5,-145.65 1266.7,-146 1390,-152.95 1534,-152.89 1617.3,-152.06"/>
<polygon fill="black" stroke="black" points="1617.22,-155.56 1627.19,-151.96 1617.15,-148.56 1617.22,-155.56"/>
<text text-anchor="middle" x="1439.8" y="-155.94" font-family="Times,serif" font-size="14.00">DATA/354:68</text>
</g>
<!-- q13:161 -->
<g id="node8" class="node">
<title>q13:161</title>
<ellipse fill="none" stroke="black" stroke-width="2" cx="1439.8" cy="-106" rx="52.26" ry="18"/>
<text text-anchor="middle" x="1439.8" y="-101.33" font-family="Times,serif" font-size="14.00">q13:161</text>
</g>
<!-- q10:229&#45;&gt;q13:161 -->
<g id="edge7" class="edge">
<title>q10:229&#45;&gt;q13:161</title>
<path fill="none" stroke="black" d="M1245.5,-131.79C1252.6,-130.75 1259.9,-129.71 1266.7,-128.75 1303.8,-123.55 1345.5,-118.04 1378.5,-113.74"/>
<polygon fill="black" stroke="black" points="1378.83,-117.23 1388.3,-112.47 1377.93,-110.28 1378.83,-117.23"/>
<text text-anchor="middle" x="1318.1" y="-131.94" font-family="Times,serif" font-size="14.00">RCPT/250:161</text>
</g>
<!-- q12:3329&#45;&gt;q12:3329 -->
<g id="edge8" class="edge">
<title>q12:3329&#45;&gt;q12:3329</title>
<path fill="none" stroke="black" d="M1665.1,-168.41C1660.9,-178.09 1668.5,-187 1687.8,-187 1699,-187 1706.3,-184.02 1709.6,-179.64"/>
<polygon fill="black" stroke="black" points="1713.07,-180.17 1710.38,-169.92 1706.09,-179.61 1713.07,-180.17"/>
<text text-anchor="middle" x="1687.8" y="-190.94" font-family="Times,serif" font-size="14.00">content/位:3143</text>
</g>
<!-- q17:49 -->
<g id="node9" class="node">
<title>q17:49</title>
<ellipse fill="none" stroke="black" stroke-width="2" cx="1951.7" cy="-205" rx="45.95" ry="18"/>
<text text-anchor="middle" x="1951.7" y="-200.32" font-family="Times,serif" font-size="14.00">q17:49</text>
</g>
<!-- q12:3329&#45;&gt;q17:49 -->
<g id="edge9" class="edge">
<title>q12:3329&#45;&gt;q17:49</title>
<path fill="none" stroke="black" d="M1731.8,-163.71C1742.4,-166.63 1753.8,-169.59 1764.4,-172 1808.5,-182.01 1859.1,-190.81 1896.4,-196.79"/>
<polygon fill="black" stroke="black" points="1895.58,-200.2 1906,-198.32 1896.68,-193.29 1895.58,-200.2"/>
<text text-anchor="middle" x="1822.9" y="-197.94" font-family="Times,serif" font-size="14.00">content/554:49</text>
</g>
<!-- q16:1 -->
<g id="node10" class="node">
<title>q16:1</title>
<ellipse fill="none" stroke="black" stroke-width="2" cx="1951.7" cy="-151" rx="39.63" ry="18"/>
<text text-anchor="middle" x="1951.7" y="-146.32" font-family="Times,serif" font-size="14.00">q16:1</text>
</g>
<!-- q12:3329&#45;&gt;q16:1 -->
<g id="edge10" class="edge">
<title>q12:3329&#45;&gt;q16:1</title>
<path fill="none" stroke="black" d="M1747.3,-151C1793,-151 1855.9,-151 1899.6,-151"/>
<polygon fill="black" stroke="black" points="1899.59,-154.5 1909.59,-151 1899.59,-147.5 1899.59,-154.5"/>
<text text-anchor="middle" x="1822.9" y="-154.94" font-family="Times,serif" font-size="14.00">content/550:1</text>
</g>
<!-- q15:136 -->
<g id="node11" class="node">
<title>q15:136</title>
<ellipse fill="none" stroke="black" stroke-width="2" cx="1951.7" cy="-97" rx="52.26" ry="18"/>
<text text-anchor="middle" x="1951.7" y="-92.33" font-family="Times,serif" font-size="14.00">q15:136</text>
</g>
<!-- q12:3329&#45;&gt;q15:136 -->
<g id="edge11" class="edge">
<title>q12:3329&#45;&gt;q15:136</title>
<path fill="none" stroke="black" d="M1731.4,-138.22C1742.1,-135.23 1753.6,-132.2 1764.4,-129.75 1806.6,-120.13 1854.8,-111.73 1891.5,-105.85"/>
<polygon fill="black" stroke="black" points="1891.77,-109.35 1901.1,-104.34 1890.68,-102.44 1891.77,-109.35"/>
<text text-anchor="middle" x="1822.9" y="-132.94" font-family="Times,serif" font-size="14.00">content/250:136</text>
</g>
<!-- q13:161&#45;&gt;q12:3329 -->
<g id="edge23" class="edge">
<title>q13:161&#45;&gt;q12:3329</title>
<path fill="none" stroke="black" d="M1491.1,-110.66C1525.2,-114.32 1571.2,-120.24 1611.3,-128.75 1619,-130.39 1627.1,-132.43 1635,-134.59"/>
<polygon fill="black" stroke="black" points="1633.87,-137.91 1644.44,-137.3 1635.8,-131.18 1633.87,-137.91"/>
<text text-anchor="middle" x="1560.6" y="-131.94" font-family="Times,serif" font-size="14.00">DATA/354:118</text>
</g>
<!-- q18:43 -->
<g id="node22" class="node">
<title>q18:43</title>
<ellipse fill="none" stroke="black" stroke-width="2" cx="1687.8" cy="-88" rx="45.95" ry="18"/>
<text text-anchor="middle" x="1687.8" y="-83.33" font-family="Times,serif" font-size="14.00">q18:43</text>
</g>
<!-- q13:161&#45;&gt;q18:43 -->
<g id="edge24" class="edge">
<title>q13:161&#45;&gt;q18:43</title>
<path fill="none" stroke="black" d="M1481.1,-94.23C1490.5,-91.96 1500.5,-89.93 1510,-88.75 1550,-83.76 1595.4,-83.69 1630.2,-84.8"/>
<polygon fill="black" stroke="black" points="1629.97,-88.3 1640.09,-85.17 1630.22,-81.3 1629.97,-88.3"/>
<text text-anchor="middle" x="1560.6" y="-91.95" font-family="Times,serif" font-size="14.00">DATA/550:43</text>
</g>
<!-- q21:49 -->
<g id="node12" class="node">
<title>q21:49</title>
<ellipse fill="none" stroke="black" stroke-width="2" cx="2192.7" cy="-205" rx="45.95" ry="18"/>
<text text-anchor="middle" x="2192.7" y="-200.32" font-family="Times,serif" font-size="14.00">q21:49</text>
</g>
<!-- q17:49&#45;&gt;q21:49 -->
<g id="edge12" class="edge">
<title>q17:49&#45;&gt;q21:49</title>
<path fill="none" stroke="black" d="M1998.5,-205C2037.3,-205 2093,-205 2134.7,-205"/>
<polygon fill="black" stroke="black" points="2134.49,-208.5 2144.49,-205 2134.49,-201.5 2134.49,-208.5"/>
<text text-anchor="middle" x="2072.2" y="-208.94" font-family="Times,serif" font-size="14.00">RSET/250:49</text>
</g>
<!-- q20:1 -->
<g id="node13" class="node">
<title>q20:1</title>
<ellipse fill="none" stroke="black" stroke-width="2" cx="2192.7" cy="-151" rx="39.63" ry="18"/>
<text text-anchor="middle" x="2192.7" y="-146.32" font-family="Times,serif" font-size="14.00">q20:1</text>
</g>
<!-- q16:1&#45;&gt;q20:1 -->
<g id="edge13" class="edge">
<title>q16:1&#45;&gt;q20:1</title>
<path fill="none" stroke="black" d="M1992.1,-151C2032.8,-151 2096.3,-151 2140.7,-151"/>
<polygon fill="black" stroke="black" points="2140.69,-154.5 2150.69,-151 2140.69,-147.5 2140.69,-154.5"/>
<text text-anchor="middle" x="2072.2" y="-154.94" font-family="Times,serif" font-size="14.00">RSET/250:1</text>
</g>
<!-- q19:136 -->
<g id="node14" class="node">
<title>q19:136</title>
<ellipse fill="none" stroke="black" stroke-width="2" cx="2192.7" cy="-97" rx="52.26" ry="18"/>
<text text-anchor="middle" x="2192.7" y="-92.33" font-family="Times,serif" font-size="14.00">q19:136</text>
</g>
<!-- q15:136&#45;&gt;q19:136 -->
<g id="edge14" class="edge">
<title>q15:136&#45;&gt;q19:136</title>
<path fill="none" stroke="black" d="M2004.8,-97C2041.2,-97 2090,-97 2128.5,-97"/>
<polygon fill="black" stroke="black" points="2128.09,-100.5 2138.09,-97 2128.09,-93.5 2128.09,-100.5"/>
<text text-anchor="middle" x="2072.2" y="-100.95" font-family="Times,serif" font-size="14.00">QUIT/221:136</text>
</g>
<!-- q3:242 -->
<g id="node15" class="node">
<title>q3:242</title>
<ellipse fill="none" stroke="black" stroke-width="2" cx="491.48" cy="-44" rx="45.95" ry="18"/>
<text text-anchor="middle" x="491.48" y="-39.33" font-family="Times,serif" font-size="14.00">q3:242</text>
</g>
<!-- q3:242&#45;&gt;q4:232 -->
<g id="edge15" class="edge">
<title>q3:242&#45;&gt;q4:232</title>
<path fill="none" stroke="black" d="M535.81,-49.97C570.09,-55.1 619.04,-63.31 661.18,-73.75 666.82,-75.15 672.68,-76.78 678.47,-78.51"/>
<polygon fill="black" stroke="black" points="677.38,-81.83 687.96,-81.45 679.45,-75.15 677.38,-81.83"/>
<text text-anchor="middle" x="608.31" y="-76.95" font-family="Times,serif" font-size="14.00">AUTH/235:230</text>
</g>
<!-- q5:12 -->
<g id="node16" class="node">
<title>q5:12</title>
<ellipse fill="none" stroke="black" stroke-width="2" cx="725.13" cy="-18" rx="39.63" ry="18"/>
<text text-anchor="middle" x="725.13" y="-13.32" font-family="Times,serif" font-size="14.00">q5:12</text>
</g>
<!-- q3:242&#45;&gt;q5:12 -->
<g id="edge16" class="edge">
<title>q3:242&#45;&gt;q5:12</title>
<path fill="none" stroke="black" d="M521.88,-29.55C532.23,-25.18 544.11,-20.96 555.43,-18.75 594.77,-11.06 640.27,-11.38 674.09,-13.34"/>
<polygon fill="black" stroke="black" points="673.82,-16.83 684.03,-13.99 674.28,-9.85 673.82,-16.83"/>
<text text-anchor="middle" x="608.31" y="-22.95" font-family="Times,serif" font-size="14.00">AUTH/535:12</text>
</g>
<!-- q8:12 -->
<g id="node17" class="node">
<title>q8:12</title>
<ellipse fill="none" stroke="black" stroke-width="2" cx="954.27" cy="-18" rx="39.63" ry="18"/>
<text text-anchor="middle" x="954.27" y="-13.32" font-family="Times,serif" font-size="14.00">q8:12</text>
</g>
<!-- q5:12&#45;&gt;q8:12 -->
<g id="edge17" class="edge">
<title>q5:12&#45;&gt;q8:12</title>
<path fill="none" stroke="black" d="M765.69,-18C803.6,-18 861,-18 902.32,-18"/>
<polygon fill="black" stroke="black" points="902.27,-21.5 912.27,-18 902.27,-14.5 902.27,-21.5"/>
<text text-anchor="middle" x="839.7" y="-21.95" font-family="Times,serif" font-size="14.00">AUTH/334:12</text>
</g>
<!-- q11:12 -->
<g id="node18" class="node">
<title>q11:12</title>
<ellipse fill="none" stroke="black" stroke-width="2" cx="1196.5" cy="-18" rx="45.95" ry="18"/>
<text text-anchor="middle" x="1196.5" y="-13.32" font-family="Times,serif" font-size="14.00">q11:12</text>
</g>
<!-- q8:12&#45;&gt;q11:12 -->
<g id="edge18" class="edge">
<title>q8:12&#45;&gt;q11:12</title>
<path fill="none" stroke="black" d="M994.67,-18C1033.8,-18 1094.1,-18 1138.4,-18"/>
<polygon fill="black" stroke="black" points="1138.39,-21.5 1148.39,-18 1138.39,-14.5 1138.39,-21.5"/>
<text text-anchor="middle" x="1072.2" y="-21.95" font-family="Times,serif" font-size="14.00">content/535:12</text>
</g>
<!-- q14:4 -->
<g id="node21" class="node">
<title>q14:4</title>
<ellipse fill="none" stroke="black" stroke-width="2" cx="1439.8" cy="-18" rx="39.63" ry="18"/>
<text text-anchor="middle" x="1439.8" y="-13.32" font-family="Times,serif" font-size="14.00">q14:4</text>
</g>
<!-- q11:12&#45;&gt;q14:4 -->
<g id="edge22" class="edge">
<title>q11:12&#45;&gt;q14:4</title>
<path fill="none" stroke="black" d="M1243.1,-18C1284.4,-18 1345.2,-18 1388,-18"/>
<polygon fill="black" stroke="black" points="1387.79,-21.5 1397.79,-18 1387.79,-14.5 1387.79,-21.5"/>
<text text-anchor="middle" x="1318.1" y="-21.95" font-family="Times,serif" font-size="14.00">位/451:4</text>
</g>
<!-- q1:244 -->
<g id="node19" class="node">
<title>q1:244</title>
<ellipse fill="none" stroke="black" stroke-width="2" cx="257.84" cy="-71" rx="45.95" ry="18"/>
<text text-anchor="middle" x="257.84" y="-66.33" font-family="Times,serif" font-size="14.00">q1:244</text>
</g>
<!-- q1:244&#45;&gt;q2:2 -->
<g id="edge19" class="edge">
<title>q1:244&#45;&gt;q2:2</title>
<path fill="none" stroke="black" d="M302.96,-76.14C344.26,-80.96 405.63,-88.11 446.8,-92.91"/>
<polygon fill="black" stroke="black" points="446.26,-96.37 456.6,-94.05 447.07,-89.42 446.26,-96.37"/>
<text text-anchor="middle" x="374.66" y="-93.95" font-family="Times,serif" font-size="14.00">EHLO/位:2</text>
</g>
<!-- q1:244&#45;&gt;q3:242 -->
<g id="edge20" class="edge">
<title>q1:244&#45;&gt;q3:242</title>
<path fill="none" stroke="black" d="M297.96,-61.21C305.81,-59.51 314.03,-57.91 321.79,-56.75 358.81,-51.19 400.79,-48.01 433.61,-46.21"/>
<polygon fill="black" stroke="black" points="433.5,-49.72 443.31,-45.71 433.14,-42.73 433.5,-49.72"/>
<text text-anchor="middle" x="374.66" y="-60.95" font-family="Times,serif" font-size="14.00">EHLO/250:242</text>
</g>
<!-- q0:244 -->
<g id="node20" class="node">
<title>q0:244</title>
<ellipse fill="none" stroke="black" stroke-width="2" cx="53.95" cy="-71" rx="49.95" ry="49.95"/>
<ellipse fill="none" stroke="black" stroke-width="2" cx="53.95" cy="-71" rx="53.95" ry="53.95"/>
<text text-anchor="middle" x="53.95" y="-66.33" font-family="Times,serif" font-size="14.00">q0:244</text>
</g>
<!-- q0:244&#45;&gt;q1:244 -->
<g id="edge21" class="edge">
<title>q0:244&#45;&gt;q1:244</title>
<path fill="none" stroke="black" d="M104.85,-71C133.64,-71 169.94,-71 199.84,-71"/>
<polygon fill="black" stroke="black" points="199.45,-74.5 209.45,-71 199.45,-67.5 199.45,-74.5"/>
<text text-anchor="middle" x="157.89" y="-74.95" font-family="Times,serif" font-size="14.00">位/220:244</text>
</g>
</g>
</svg>
