<?xml version="1.0" encoding="UTF-8" standalone="no"?>
<!DOCTYPE svg PUBLIC "-//W3C//DTD SVG 1.1//EN"
 "http://www.w3.org/Graphics/SVG/1.1/DTD/svg11.dtd">
<!-- Generated by graphviz version 12.0.0 (20240803.0821)
 -->
<!-- Pages: 1 -->
<svg width="2253pt" height="216pt"
 viewBox="0.00 0.00 2252.96 216.00" xmlns="http://www.w3.org/2000/svg" xmlns:xlink="http://www.w3.org/1999/xlink">
<g id="graph0" class="graph" transform="scale(1 1) rotate(0) translate(4 212)">
<polygon fill="white" stroke="none" points="-4,4 -4,-212 2248.96,-212 2248.96,4 -4,4"/>
<!-- q1:244 -->
<g id="node1" class="node">
<title>q1:244</title>
<ellipse fill="none" stroke="black" stroke-width="2" cx="257.84" cy="-67" rx="45.95" ry="18"/>
<text text-anchor="middle" x="257.84" y="-62.33" font-family="Times,serif" font-size="14.00">q1:244</text>
</g>
<!-- q2:242 -->
<g id="node2" class="node">
<title>q2:242</title>
<ellipse fill="none" stroke="black" stroke-width="2" cx="491.48" cy="-100" rx="45.95" ry="18"/>
<text text-anchor="middle" x="491.48" y="-95.33" font-family="Times,serif" font-size="14.00">q2:242</text>
</g>
<!-- q1:244&#45;&gt;q2:242 -->
<g id="edge1" class="edge">
<title>q1:244&#45;&gt;q2:242</title>
<path fill="none" stroke="black" d="M302.14,-73.17C340,-78.56 395.17,-86.42 436.02,-92.24"/>
<polygon fill="black" stroke="black" points="435.51,-95.7 445.9,-93.65 436.49,-88.77 435.51,-95.7"/>
<text text-anchor="middle" x="374.66" y="-93.95" font-family="Times,serif" font-size="14.00">EHLO/250:242</text>
</g>
<!-- q3:2 -->
<g id="node3" class="node">
<title>q3:2</title>
<ellipse fill="none" stroke="black" stroke-width="2" cx="491.48" cy="-40" rx="33.32" ry="18"/>
<text text-anchor="middle" x="491.48" y="-35.33" font-family="Times,serif" font-size="14.00">q3:2</text>
</g>
<!-- q1:244&#45;&gt;q3:2 -->
<g id="edge2" class="edge">
<title>q1:244&#45;&gt;q3:2</title>
<path fill="none" stroke="black" d="M298.66,-57.83C306.31,-56.29 314.27,-54.84 321.79,-53.75 363.67,-47.66 411.82,-44.07 445.93,-42.1"/>
<polygon fill="black" stroke="black" points="446.07,-45.59 455.86,-41.55 445.68,-38.6 446.07,-45.59"/>
<text text-anchor="middle" x="374.66" y="-57.95" font-family="Times,serif" font-size="14.00">EHLO/λ:2</text>
</g>
<!-- q5:13 -->
<g id="node4" class="node">
<title>q5:13</title>
<ellipse fill="none" stroke="black" stroke-width="2" cx="725.13" cy="-157" rx="39.63" ry="18"/>
<text text-anchor="middle" x="725.13" y="-152.32" font-family="Times,serif" font-size="14.00">q5:13</text>
</g>
<!-- q2:242&#45;&gt;q5:13 -->
<g id="edge3" class="edge">
<title>q2:242&#45;&gt;q5:13</title>
<path fill="none" stroke="black" d="M525.17,-113.01C534.82,-116.56 545.46,-120.19 555.43,-123 595.35,-134.25 641.58,-143.29 675.53,-149.22"/>
<polygon fill="black" stroke="black" points="674.61,-152.61 685.06,-150.85 675.79,-145.71 674.61,-152.61"/>
<text text-anchor="middle" x="608.31" y="-149.94" font-family="Times,serif" font-size="14.00">AUTH/535:13</text>
</g>
<!-- q4:230 -->
<g id="node5" class="node">
<title>q4:230</title>
<ellipse fill="none" stroke="black" stroke-width="2" cx="725.13" cy="-33" rx="45.95" ry="18"/>
<text text-anchor="middle" x="725.13" y="-28.32" font-family="Times,serif" font-size="14.00">q4:230</text>
</g>
<!-- q2:242&#45;&gt;q4:230 -->
<g id="edge4" class="edge">
<title>q2:242&#45;&gt;q4:230</title>
<path fill="none" stroke="black" d="M527.32,-87.82C536.44,-84.75 546.27,-81.53 555.43,-78.75 595.08,-66.69 640.43,-54.48 674.12,-45.71"/>
<polygon fill="black" stroke="black" points="674.8,-49.15 683.6,-43.25 673.05,-42.37 674.8,-49.15"/>
<text text-anchor="middle" x="608.31" y="-81.95" font-family="Times,serif" font-size="14.00">AUTH/235:228</text>
</g>
<!-- q6:1 -->
<g id="node6" class="node">
<title>q6:1</title>
<ellipse fill="none" stroke="black" stroke-width="2" cx="725.13" cy="-103" rx="33.32" ry="18"/>
<text text-anchor="middle" x="725.13" y="-98.33" font-family="Times,serif" font-size="14.00">q6:1</text>
</g>
<!-- q2:242&#45;&gt;q6:1 -->
<g id="edge5" class="edge">
<title>q2:242&#45;&gt;q6:1</title>
<path fill="none" stroke="black" d="M538.25,-100.59C579.17,-101.12 638.78,-101.89 679.39,-102.42"/>
<polygon fill="black" stroke="black" points="679.26,-105.92 689.31,-102.55 679.35,-98.92 679.26,-105.92"/>
<text text-anchor="middle" x="608.31" y="-105.95" font-family="Times,serif" font-size="14.00">AUTH/λ:1</text>
</g>
<!-- q3:2&#45;&gt;q4:230 -->
<g id="edge6" class="edge">
<title>q3:2&#45;&gt;q4:230</title>
<path fill="none" stroke="black" d="M523.05,-32.83C533.28,-30.75 544.79,-28.78 555.43,-27.75 593,-24.13 635.47,-25.48 668.4,-27.72"/>
<polygon fill="black" stroke="black" points="667.89,-31.19 678.12,-28.43 668.4,-24.21 667.89,-31.19"/>
<text text-anchor="middle" x="608.31" y="-31.95" font-family="Times,serif" font-size="14.00">AUTH/235:2</text>
</g>
<!-- q9:13 -->
<g id="node7" class="node">
<title>q9:13</title>
<ellipse fill="none" stroke="black" stroke-width="2" cx="954.27" cy="-166" rx="39.63" ry="18"/>
<text text-anchor="middle" x="954.27" y="-161.32" font-family="Times,serif" font-size="14.00">q9:13</text>
</g>
<!-- q5:13&#45;&gt;q9:13 -->
<g id="edge7" class="edge">
<title>q5:13&#45;&gt;q9:13</title>
<path fill="none" stroke="black" d="M765.43,-158.56C803.42,-160.06 861.15,-162.35 902.58,-163.99"/>
<polygon fill="black" stroke="black" points="902.43,-167.49 912.56,-164.39 902.71,-160.49 902.43,-167.49"/>
<text text-anchor="middle" x="839.7" y="-166.94" font-family="Times,serif" font-size="14.00">AUTH/334:13</text>
</g>
<!-- q7:231 -->
<g id="node8" class="node">
<title>q7:231</title>
<ellipse fill="none" stroke="black" stroke-width="2" cx="954.27" cy="-90" rx="45.95" ry="18"/>
<text text-anchor="middle" x="954.27" y="-85.33" font-family="Times,serif" font-size="14.00">q7:231</text>
</g>
<!-- q4:230&#45;&gt;q7:231 -->
<g id="edge8" class="edge">
<title>q4:230&#45;&gt;q7:231</title>
<path fill="none" stroke="black" d="M766.42,-41.91C799.75,-49.43 848.26,-60.7 890.33,-71.75 895.22,-73.04 900.32,-74.43 905.4,-75.85"/>
<polygon fill="black" stroke="black" points="904.38,-79.2 914.95,-78.56 906.29,-72.46 904.38,-79.2"/>
<text text-anchor="middle" x="839.7" y="-74.95" font-family="Times,serif" font-size="14.00">MAIL/250:227</text>
</g>
<!-- q8:3 -->
<g id="node9" class="node">
<title>q8:3</title>
<ellipse fill="none" stroke="black" stroke-width="2" cx="954.27" cy="-21" rx="33.32" ry="18"/>
<text text-anchor="middle" x="954.27" y="-16.32" font-family="Times,serif" font-size="14.00">q8:3</text>
</g>
<!-- q4:230&#45;&gt;q8:3 -->
<g id="edge9" class="edge">
<title>q4:230&#45;&gt;q8:3</title>
<path fill="none" stroke="black" d="M768,-25.28C775.02,-24.25 782.24,-23.34 789.08,-22.75 829.6,-19.25 875.96,-19.11 909.06,-19.67"/>
<polygon fill="black" stroke="black" points="908.6,-23.16 918.67,-19.86 908.74,-16.16 908.6,-23.16"/>
<text text-anchor="middle" x="839.7" y="-26.95" font-family="Times,serif" font-size="14.00">MAIL/553:3</text>
</g>
<!-- q6:1&#45;&gt;q7:231 -->
<g id="edge10" class="edge">
<title>q6:1&#45;&gt;q7:231</title>
<path fill="none" stroke="black" d="M759.16,-101.11C795.19,-99.05 853.5,-95.71 896.82,-93.23"/>
<polygon fill="black" stroke="black" points="896.75,-96.74 906.54,-92.67 896.35,-89.75 896.75,-96.74"/>
<text text-anchor="middle" x="839.7" y="-102.95" font-family="Times,serif" font-size="14.00">MAIL/250:1</text>
</g>
<!-- q12:13 -->
<g id="node10" class="node">
<title>q12:13</title>
<ellipse fill="none" stroke="black" stroke-width="2" cx="1196.5" cy="-185" rx="45.95" ry="18"/>
<text text-anchor="middle" x="1196.5" y="-180.32" font-family="Times,serif" font-size="14.00">q12:13</text>
</g>
<!-- q9:13&#45;&gt;q12:13 -->
<g id="edge11" class="edge">
<title>q9:13&#45;&gt;q12:13</title>
<path fill="none" stroke="black" d="M994.13,-169.07C1033.5,-172.18 1094.7,-177.03 1139.3,-180.56"/>
<polygon fill="black" stroke="black" points="1138.74,-184.03 1148.99,-181.33 1139.3,-177.05 1138.74,-184.03"/>
<text text-anchor="middle" x="1072.2" y="-182.94" font-family="Times,serif" font-size="14.00">content/535:13</text>
</g>
<!-- q10:231 -->
<g id="node11" class="node">
<title>q10:231</title>
<ellipse fill="none" stroke="black" stroke-width="2" cx="1196.5" cy="-125" rx="52.26" ry="18"/>
<text text-anchor="middle" x="1196.5" y="-120.33" font-family="Times,serif" font-size="14.00">q10:231</text>
</g>
<!-- q7:231&#45;&gt;q10:231 -->
<g id="edge12" class="edge">
<title>q7:231&#45;&gt;q10:231</title>
<path fill="none" stroke="black" d="M998.49,-96.3C1036.8,-101.89 1093.3,-110.1 1135.9,-116.32"/>
<polygon fill="black" stroke="black" points="1135.3,-119.77 1145.7,-117.75 1136.31,-112.84 1135.3,-119.77"/>
<text text-anchor="middle" x="1072.2" y="-117.95" font-family="Times,serif" font-size="14.00">RCPT/250:231</text>
</g>
<!-- q11:3 -->
<g id="node12" class="node">
<title>q11:3</title>
<ellipse fill="none" stroke="black" stroke-width="2" cx="1196.5" cy="-18" rx="39.63" ry="18"/>
<text text-anchor="middle" x="1196.5" y="-13.32" font-family="Times,serif" font-size="14.00">q11:3</text>
</g>
<!-- q8:3&#45;&gt;q11:3 -->
<g id="edge13" class="edge">
<title>q8:3&#45;&gt;q11:3</title>
<path fill="none" stroke="black" d="M988.42,-20.59C1028.8,-20.08 1097.3,-19.23 1144.4,-18.64"/>
<polygon fill="black" stroke="black" points="1144.43,-22.14 1154.39,-18.51 1144.34,-15.14 1144.43,-22.14"/>
<text text-anchor="middle" x="1072.2" y="-24.95" font-family="Times,serif" font-size="14.00">RSET/250:3</text>
</g>
<!-- q15:4 -->
<g id="node20" class="node">
<title>q15:4</title>
<ellipse fill="none" stroke="black" stroke-width="2" cx="1439.8" cy="-190" rx="39.63" ry="18"/>
<text text-anchor="middle" x="1439.8" y="-185.32" font-family="Times,serif" font-size="14.00">q15:4</text>
</g>
<!-- q12:13&#45;&gt;q15:4 -->
<g id="edge21" class="edge">
<title>q12:13&#45;&gt;q15:4</title>
<path fill="none" stroke="black" d="M1243.1,-185.95C1284.4,-186.8 1345.2,-188.06 1388,-188.95"/>
<polygon fill="black" stroke="black" points="1387.72,-192.44 1397.79,-189.15 1387.86,-185.45 1387.72,-192.44"/>
<text text-anchor="middle" x="1318.1" y="-191.94" font-family="Times,serif" font-size="14.00">λ/451:4</text>
</g>
<!-- q13:3213 -->
<g id="node15" class="node">
<title>q13:3213</title>
<ellipse fill="none" stroke="black" stroke-width="2" cx="1687.8" cy="-128" rx="58.57" ry="18"/>
<text text-anchor="middle" x="1687.8" y="-123.33" font-family="Times,serif" font-size="14.00">q13:3213</text>
</g>
<!-- q10:231&#45;&gt;q13:3213 -->
<g id="edge22" class="edge">
<title>q10:231&#45;&gt;q13:3213</title>
<path fill="none" stroke="black" d="M1249.4,-125.32C1337.8,-125.86 1517.5,-126.96 1616.9,-127.57"/>
<polygon fill="black" stroke="black" points="1616.76,-131.07 1626.79,-127.63 1616.81,-124.07 1616.76,-131.07"/>
<text text-anchor="middle" x="1439.8" y="-129.94" font-family="Times,serif" font-size="14.00">DATA/354:67</text>
</g>
<!-- q14:164 -->
<g id="node21" class="node">
<title>q14:164</title>
<ellipse fill="none" stroke="black" stroke-width="2" cx="1439.8" cy="-77" rx="52.26" ry="18"/>
<text text-anchor="middle" x="1439.8" y="-72.33" font-family="Times,serif" font-size="14.00">q14:164</text>
</g>
<!-- q10:231&#45;&gt;q14:164 -->
<g id="edge23" class="edge">
<title>q10:231&#45;&gt;q14:164</title>
<path fill="none" stroke="black" d="M1237.6,-113.08C1247.1,-110.47 1257.2,-107.86 1266.7,-105.75 1303.8,-97.54 1345.7,-90.48 1378.9,-85.41"/>
<polygon fill="black" stroke="black" points="1379.43,-88.87 1388.8,-83.93 1378.39,-81.95 1379.43,-88.87"/>
<text text-anchor="middle" x="1318.1" y="-108.95" font-family="Times,serif" font-size="14.00">RCPT/250:164</text>
</g>
<!-- q17:134 -->
<g id="node13" class="node">
<title>q17:134</title>
<ellipse fill="none" stroke="black" stroke-width="2" cx="1951.7" cy="-182" rx="52.26" ry="18"/>
<text text-anchor="middle" x="1951.7" y="-177.32" font-family="Times,serif" font-size="14.00">q17:134</text>
</g>
<!-- q21:134 -->
<g id="node14" class="node">
<title>q21:134</title>
<ellipse fill="none" stroke="black" stroke-width="2" cx="2192.7" cy="-182" rx="52.26" ry="18"/>
<text text-anchor="middle" x="2192.7" y="-177.32" font-family="Times,serif" font-size="14.00">q21:134</text>
</g>
<!-- q17:134&#45;&gt;q21:134 -->
<g id="edge14" class="edge">
<title>q17:134&#45;&gt;q21:134</title>
<path fill="none" stroke="black" d="M2004.8,-182C2041.2,-182 2090,-182 2128.5,-182"/>
<polygon fill="black" stroke="black" points="2128.09,-185.5 2138.09,-182 2128.09,-178.5 2128.09,-185.5"/>
<text text-anchor="middle" x="2072.2" y="-185.94" font-family="Times,serif" font-size="14.00">QUIT/221:134</text>
</g>
<!-- q13:3213&#45;&gt;q17:134 -->
<g id="edge15" class="edge">
<title>q13:3213&#45;&gt;q17:134</title>
<path fill="none" stroke="black" d="M1731.8,-140.71C1742.4,-143.63 1753.8,-146.59 1764.4,-149 1806.6,-158.58 1854.8,-167.05 1891.5,-173.01"/>
<polygon fill="black" stroke="black" points="1890.68,-176.42 1901.1,-174.53 1891.78,-169.51 1890.68,-176.42"/>
<text text-anchor="middle" x="1822.9" y="-174.94" font-family="Times,serif" font-size="14.00">content/250:134</text>
</g>
<!-- q13:3213&#45;&gt;q13:3213 -->
<g id="edge16" class="edge">
<title>q13:3213&#45;&gt;q13:3213</title>
<path fill="none" stroke="black" d="M1665.1,-145.41C1660.9,-155.09 1668.5,-164 1687.8,-164 1699,-164 1706.3,-161.02 1709.6,-156.64"/>
<polygon fill="black" stroke="black" points="1713.07,-157.17 1710.38,-146.92 1706.09,-156.61 1713.07,-157.17"/>
<text text-anchor="middle" x="1687.8" y="-167.94" font-family="Times,serif" font-size="14.00">content/λ:3028</text>
</g>
<!-- q18:1 -->
<g id="node16" class="node">
<title>q18:1</title>
<ellipse fill="none" stroke="black" stroke-width="2" cx="1951.7" cy="-128" rx="39.63" ry="18"/>
<text text-anchor="middle" x="1951.7" y="-123.33" font-family="Times,serif" font-size="14.00">q18:1</text>
</g>
<!-- q13:3213&#45;&gt;q18:1 -->
<g id="edge17" class="edge">
<title>q13:3213&#45;&gt;q18:1</title>
<path fill="none" stroke="black" d="M1747.3,-128C1793,-128 1855.9,-128 1899.6,-128"/>
<polygon fill="black" stroke="black" points="1899.59,-131.5 1909.59,-128 1899.59,-124.5 1899.59,-131.5"/>
<text text-anchor="middle" x="1822.9" y="-131.94" font-family="Times,serif" font-size="14.00">content/550:1</text>
</g>
<!-- q16:50 -->
<g id="node17" class="node">
<title>q16:50</title>
<ellipse fill="none" stroke="black" stroke-width="2" cx="1951.7" cy="-74" rx="45.95" ry="18"/>
<text text-anchor="middle" x="1951.7" y="-69.33" font-family="Times,serif" font-size="14.00">q16:50</text>
</g>
<!-- q13:3213&#45;&gt;q16:50 -->
<g id="edge18" class="edge">
<title>q13:3213&#45;&gt;q16:50</title>
<path fill="none" stroke="black" d="M1731.4,-115.22C1742.1,-112.23 1753.6,-109.2 1764.4,-106.75 1808.5,-96.7 1859.1,-87.98 1896.4,-82.08"/>
<polygon fill="black" stroke="black" points="1896.67,-85.58 1906,-80.57 1895.58,-78.66 1896.67,-85.58"/>
<text text-anchor="middle" x="1822.9" y="-109.95" font-family="Times,serif" font-size="14.00">content/554:50</text>
</g>
<!-- q22:1 -->
<g id="node18" class="node">
<title>q22:1</title>
<ellipse fill="none" stroke="black" stroke-width="2" cx="2192.7" cy="-128" rx="39.63" ry="18"/>
<text text-anchor="middle" x="2192.7" y="-123.33" font-family="Times,serif" font-size="14.00">q22:1</text>
</g>
<!-- q18:1&#45;&gt;q22:1 -->
<g id="edge19" class="edge">
<title>q18:1&#45;&gt;q22:1</title>
<path fill="none" stroke="black" d="M1992.1,-128C2032.8,-128 2096.3,-128 2140.7,-128"/>
<polygon fill="black" stroke="black" points="2140.69,-131.5 2150.69,-128 2140.69,-124.5 2140.69,-131.5"/>
<text text-anchor="middle" x="2072.2" y="-131.94" font-family="Times,serif" font-size="14.00">RSET/250:1</text>
</g>
<!-- q20:50 -->
<g id="node19" class="node">
<title>q20:50</title>
<ellipse fill="none" stroke="black" stroke-width="2" cx="2192.7" cy="-74" rx="45.95" ry="18"/>
<text text-anchor="middle" x="2192.7" y="-69.33" font-family="Times,serif" font-size="14.00">q20:50</text>
</g>
<!-- q16:50&#45;&gt;q20:50 -->
<g id="edge20" class="edge">
<title>q16:50&#45;&gt;q20:50</title>
<path fill="none" stroke="black" d="M1998.5,-74C2037.3,-74 2093,-74 2134.7,-74"/>
<polygon fill="black" stroke="black" points="2134.49,-77.5 2144.49,-74 2134.49,-70.5 2134.49,-77.5"/>
<text text-anchor="middle" x="2072.2" y="-77.95" font-family="Times,serif" font-size="14.00">RSET/250:50</text>
</g>
<!-- q14:164&#45;&gt;q7:231 -->
<g id="edge24" class="edge">
<title>q14:164&#45;&gt;q7:231</title>
<path fill="none" stroke="black" d="M1386.6,-77.09C1327.7,-77.33 1229.1,-78.13 1144.2,-80.75 1099.7,-82.12 1049.4,-84.63 1011.9,-86.69"/>
<polygon fill="black" stroke="black" points="1011.99,-83.18 1002.2,-87.23 1012.38,-90.17 1011.99,-83.18"/>
<text text-anchor="middle" x="1196.5" y="-83.95" font-family="Times,serif" font-size="14.00">RCPT/250:3</text>
</g>
<!-- q14:164&#45;&gt;q13:3213 -->
<g id="edge25" class="edge">
<title>q14:164&#45;&gt;q13:3213</title>
<path fill="none" stroke="black" d="M1489.6,-83.65C1523.8,-88.7 1570.6,-96.37 1611.3,-105.75 1618.9,-107.51 1626.8,-109.58 1634.6,-111.75"/>
<polygon fill="black" stroke="black" points="1633.47,-115.07 1644.04,-114.44 1635.39,-108.34 1633.47,-115.07"/>
<text text-anchor="middle" x="1560.6" y="-108.95" font-family="Times,serif" font-size="14.00">DATA/354:118</text>
</g>
<!-- q19:43 -->
<g id="node22" class="node">
<title>q19:43</title>
<ellipse fill="none" stroke="black" stroke-width="2" cx="1687.8" cy="-65" rx="45.95" ry="18"/>
<text text-anchor="middle" x="1687.8" y="-60.33" font-family="Times,serif" font-size="14.00">q19:43</text>
</g>
<!-- q14:164&#45;&gt;q19:43 -->
<g id="edge26" class="edge">
<title>q14:164&#45;&gt;q19:43</title>
<path fill="none" stroke="black" d="M1487.2,-68.43C1494.8,-67.32 1502.6,-66.36 1510,-65.75 1550,-62.44 1595.3,-62.31 1630,-62.98"/>
<polygon fill="black" stroke="black" points="1629.71,-66.48 1639.79,-63.2 1629.87,-59.48 1629.71,-66.48"/>
<text text-anchor="middle" x="1560.6" y="-69.95" font-family="Times,serif" font-size="14.00">DATA/550:43</text>
</g>
<!-- q0:244 -->
<g id="node23" class="node">
<title>q0:244</title>
<ellipse fill="none" stroke="black" stroke-width="2" cx="53.95" cy="-67" rx="49.95" ry="49.95"/>
<ellipse fill="none" stroke="black" stroke-width="2" cx="53.95" cy="-67" rx="53.95" ry="53.95"/>
<text text-anchor="middle" x="53.95" y="-62.33" font-family="Times,serif" font-size="14.00">q0:244</text>
</g>
<!-- q0:244&#45;&gt;q1:244 -->
<g id="edge27" class="edge">
<title>q0:244&#45;&gt;q1:244</title>
<path fill="none" stroke="black" d="M104.85,-67C133.64,-67 169.94,-67 199.84,-67"/>
<polygon fill="black" stroke="black" points="199.45,-70.5 209.45,-67 199.45,-63.5 199.45,-70.5"/>
<text text-anchor="middle" x="157.89" y="-70.95" font-family="Times,serif" font-size="14.00">λ/220:244</text>
</g>
</g>
</svg>
