<?xml version="1.0" encoding="UTF-8" standalone="no"?>
<!DOCTYPE svg PUBLIC "-//W3C//DTD SVG 1.1//EN"
 "http://www.w3.org/Graphics/SVG/1.1/DTD/svg11.dtd">
<!-- Generated by graphviz version 12.0.0 (20240803.0821)
 -->
<!-- Pages: 1 -->
<svg width="2216pt" height="274pt"
 viewBox="0.00 0.00 2216.45 274.00" xmlns="http://www.w3.org/2000/svg" xmlns:xlink="http://www.w3.org/1999/xlink">
<g id="graph0" class="graph" transform="scale(1 1) rotate(0) translate(4 270)">
<polygon fill="white" stroke="none" points="-4,4 -4,-270 2212.45,-270 2212.45,4 -4,4"/>
<!-- q1:244 -->
<g id="node1" class="node">
<title>q1:244</title>
<ellipse fill="none" stroke="black" stroke-width="2" cx="257.84" cy="-116" rx="45.95" ry="18"/>
<text text-anchor="middle" x="257.84" y="-111.33" font-family="Times,serif" font-size="14.00">q1:244</text>
</g>
<!-- q3:2 -->
<g id="node2" class="node">
<title>q3:2</title>
<ellipse fill="none" stroke="black" stroke-width="2" cx="491.48" cy="-89" rx="33.32" ry="18"/>
<text text-anchor="middle" x="491.48" y="-84.33" font-family="Times,serif" font-size="14.00">q3:2</text>
</g>
<!-- q1:244&#45;&gt;q3:2 -->
<g id="edge1" class="edge">
<title>q1:244&#45;&gt;q3:2</title>
<path fill="none" stroke="black" d="M298.66,-106.83C306.31,-105.29 314.27,-103.84 321.79,-102.75 363.67,-96.66 411.82,-93.07 445.93,-91.1"/>
<polygon fill="black" stroke="black" points="446.07,-94.59 455.86,-90.55 445.68,-87.6 446.07,-94.59"/>
<text text-anchor="middle" x="374.66" y="-106.95" font-family="Times,serif" font-size="14.00">EHLO/λ:2</text>
</g>
<!-- q2:242 -->
<g id="node3" class="node">
<title>q2:242</title>
<ellipse fill="none" stroke="black" stroke-width="2" cx="491.48" cy="-149" rx="45.95" ry="18"/>
<text text-anchor="middle" x="491.48" y="-144.32" font-family="Times,serif" font-size="14.00">q2:242</text>
</g>
<!-- q1:244&#45;&gt;q2:242 -->
<g id="edge2" class="edge">
<title>q1:244&#45;&gt;q2:242</title>
<path fill="none" stroke="black" d="M302.14,-122.17C340,-127.56 395.17,-135.42 436.02,-141.24"/>
<polygon fill="black" stroke="black" points="435.51,-144.7 445.9,-142.65 436.49,-137.77 435.51,-144.7"/>
<text text-anchor="middle" x="374.66" y="-142.94" font-family="Times,serif" font-size="14.00">EHLO/250:242</text>
</g>
<!-- q6:233 -->
<g id="node4" class="node">
<title>q6:233</title>
<ellipse fill="none" stroke="black" stroke-width="2" cx="725.13" cy="-89" rx="45.95" ry="18"/>
<text text-anchor="middle" x="725.13" y="-84.33" font-family="Times,serif" font-size="14.00">q6:233</text>
</g>
<!-- q3:2&#45;&gt;q6:233 -->
<g id="edge3" class="edge">
<title>q3:2&#45;&gt;q6:233</title>
<path fill="none" stroke="black" d="M523.05,-81.83C533.28,-79.75 544.79,-77.78 555.43,-76.75 602.21,-72.24 614.4,-72.24 661.18,-76.75 665.01,-77.12 668.95,-77.61 672.91,-78.19"/>
<polygon fill="black" stroke="black" points="672.07,-81.6 682.51,-79.75 673.2,-74.69 672.07,-81.6"/>
<text text-anchor="middle" x="608.31" y="-80.95" font-family="Times,serif" font-size="14.00">AUTH/235:2</text>
</g>
<!-- q2:242&#45;&gt;q6:233 -->
<g id="edge4" class="edge">
<title>q2:242&#45;&gt;q6:233</title>
<path fill="none" stroke="black" d="M518.34,-133.45C529.42,-127.41 542.72,-120.94 555.43,-116.75 591.87,-104.75 634.52,-97.79 667.82,-93.84"/>
<polygon fill="black" stroke="black" points="668.13,-97.33 677.68,-92.74 667.35,-90.37 668.13,-97.33"/>
<text text-anchor="middle" x="608.31" y="-119.95" font-family="Times,serif" font-size="14.00">AUTH/235:231</text>
</g>
<!-- q4:1 -->
<g id="node5" class="node">
<title>q4:1</title>
<ellipse fill="none" stroke="black" stroke-width="2" cx="839.7" cy="-154" rx="33.32" ry="18"/>
<text text-anchor="middle" x="839.7" y="-149.32" font-family="Times,serif" font-size="14.00">q4:1</text>
</g>
<!-- q2:242&#45;&gt;q4:1 -->
<g id="edge5" class="edge">
<title>q2:242&#45;&gt;q4:1</title>
<path fill="none" stroke="black" d="M538.1,-149.66C604.79,-150.62 728.13,-152.4 794.18,-153.36"/>
<polygon fill="black" stroke="black" points="793.88,-156.86 803.93,-153.5 793.98,-149.86 793.88,-156.86"/>
<text text-anchor="middle" x="608.31" y="-154.94" font-family="Times,serif" font-size="14.00">AUTH/λ:1</text>
</g>
<!-- q5:10 -->
<g id="node6" class="node">
<title>q5:10</title>
<ellipse fill="none" stroke="black" stroke-width="2" cx="725.13" cy="-203" rx="39.63" ry="18"/>
<text text-anchor="middle" x="725.13" y="-198.32" font-family="Times,serif" font-size="14.00">q5:10</text>
</g>
<!-- q2:242&#45;&gt;q5:10 -->
<g id="edge6" class="edge">
<title>q2:242&#45;&gt;q5:10</title>
<path fill="none" stroke="black" d="M521.02,-163.62C531.6,-168.52 543.84,-173.6 555.43,-177 594.51,-188.48 640.26,-195.13 674.25,-198.82"/>
<polygon fill="black" stroke="black" points="673.49,-202.26 683.79,-199.81 674.21,-195.3 673.49,-202.26"/>
<text text-anchor="middle" x="608.31" y="-200.94" font-family="Times,serif" font-size="14.00">AUTH/535:10</text>
</g>
<!-- q10:230 -->
<g id="node7" class="node">
<title>q10:230</title>
<ellipse fill="none" stroke="black" stroke-width="2" cx="960.59" cy="-97" rx="52.26" ry="18"/>
<text text-anchor="middle" x="960.59" y="-92.33" font-family="Times,serif" font-size="14.00">q10:230</text>
</g>
<!-- q6:233&#45;&gt;q10:230 -->
<g id="edge7" class="edge">
<title>q6:233&#45;&gt;q10:230</title>
<path fill="none" stroke="black" d="M771.7,-90.56C807.2,-91.78 856.92,-93.48 896.29,-94.83"/>
<polygon fill="black" stroke="black" points="895.99,-98.32 906.11,-95.17 896.23,-91.33 895.99,-98.32"/>
<text text-anchor="middle" x="839.7" y="-98.95" font-family="Times,serif" font-size="14.00">MAIL/250:230</text>
</g>
<!-- q9:3 -->
<g id="node8" class="node">
<title>q9:3</title>
<ellipse fill="none" stroke="black" stroke-width="2" cx="960.59" cy="-43" rx="33.32" ry="18"/>
<text text-anchor="middle" x="960.59" y="-38.33" font-family="Times,serif" font-size="14.00">q9:3</text>
</g>
<!-- q6:233&#45;&gt;q9:3 -->
<g id="edge8" class="edge">
<title>q6:233&#45;&gt;q9:3</title>
<path fill="none" stroke="black" d="M762.55,-77.63C771.19,-75.16 780.42,-72.7 789.08,-70.75 831.92,-61.09 881.55,-53.4 916.17,-48.59"/>
<polygon fill="black" stroke="black" points="916.37,-52.09 925.81,-47.27 915.43,-45.16 916.37,-52.09"/>
<text text-anchor="middle" x="839.7" y="-74.95" font-family="Times,serif" font-size="14.00">MAIL/553:3</text>
</g>
<!-- q7:235 -->
<g id="node9" class="node">
<title>q7:235</title>
<ellipse fill="none" stroke="black" stroke-width="2" cx="1202.8" cy="-107" rx="45.95" ry="18"/>
<text text-anchor="middle" x="1202.8" y="-102.33" font-family="Times,serif" font-size="14.00">q7:235</text>
</g>
<!-- q4:1&#45;&gt;q7:235 -->
<g id="edge9" class="edge">
<title>q4:1&#45;&gt;q7:235</title>
<path fill="none" stroke="black" d="M873.65,-153.05C928.95,-150.98 1043.7,-144.63 1138.8,-126 1144.4,-124.92 1150.1,-123.55 1155.8,-122.04"/>
<polygon fill="black" stroke="black" points="1156.38,-125.51 1165.04,-119.42 1154.47,-118.78 1156.38,-125.51"/>
<text text-anchor="middle" x="960.59" y="-154.94" font-family="Times,serif" font-size="14.00">MAIL/250:1</text>
</g>
<!-- q8:10 -->
<g id="node10" class="node">
<title>q8:10</title>
<ellipse fill="none" stroke="black" stroke-width="2" cx="960.59" cy="-204" rx="39.63" ry="18"/>
<text text-anchor="middle" x="960.59" y="-199.32" font-family="Times,serif" font-size="14.00">q8:10</text>
</g>
<!-- q5:10&#45;&gt;q8:10 -->
<g id="edge10" class="edge">
<title>q5:10&#45;&gt;q8:10</title>
<path fill="none" stroke="black" d="M765.73,-203.17C805.17,-203.34 865.88,-203.6 908.84,-203.78"/>
<polygon fill="black" stroke="black" points="908.65,-207.28 918.67,-203.82 908.68,-200.28 908.65,-207.28"/>
<text text-anchor="middle" x="839.7" y="-206.94" font-family="Times,serif" font-size="14.00">AUTH/334:10</text>
</g>
<!-- q10:230&#45;&gt;q7:235 -->
<g id="edge11" class="edge">
<title>q10:230&#45;&gt;q7:235</title>
<path fill="none" stroke="black" d="M1013.4,-99.16C1052.1,-100.77 1104.9,-102.97 1144.7,-104.62"/>
<polygon fill="black" stroke="black" points="1144.45,-108.11 1154.59,-105.04 1144.74,-101.12 1144.45,-108.11"/>
<text text-anchor="middle" x="1084.8" y="-108.95" font-family="Times,serif" font-size="14.00">RCPT/250:230</text>
</g>
<!-- q14:3 -->
<g id="node11" class="node">
<title>q14:3</title>
<ellipse fill="none" stroke="black" stroke-width="2" cx="1202.8" cy="-43" rx="39.63" ry="18"/>
<text text-anchor="middle" x="1202.8" y="-38.33" font-family="Times,serif" font-size="14.00">q14:3</text>
</g>
<!-- q9:3&#45;&gt;q14:3 -->
<g id="edge12" class="edge">
<title>q9:3&#45;&gt;q14:3</title>
<path fill="none" stroke="black" d="M994.73,-43C1035.1,-43 1103.6,-43 1150.7,-43"/>
<polygon fill="black" stroke="black" points="1150.69,-46.5 1160.69,-43 1150.69,-39.5 1150.69,-46.5"/>
<text text-anchor="middle" x="1084.8" y="-46.95" font-family="Times,serif" font-size="14.00">RSET/250:3</text>
</g>
<!-- q11:163 -->
<g id="node19" class="node">
<title>q11:163</title>
<ellipse fill="none" stroke="black" stroke-width="2" cx="1439.8" cy="-58" rx="52.26" ry="18"/>
<text text-anchor="middle" x="1439.8" y="-53.33" font-family="Times,serif" font-size="14.00">q11:163</text>
</g>
<!-- q7:235&#45;&gt;q11:163 -->
<g id="edge28" class="edge">
<title>q7:235&#45;&gt;q11:163</title>
<path fill="none" stroke="black" d="M1230.3,-91.81C1241.2,-86.18 1254.3,-80.31 1266.7,-76.75 1301.9,-66.71 1342.5,-61.98 1375.4,-59.78"/>
<polygon fill="black" stroke="black" points="1375.42,-63.28 1385.19,-59.19 1375,-56.29 1375.42,-63.28"/>
<text text-anchor="middle" x="1318.1" y="-80.95" font-family="Times,serif" font-size="14.00">DATA/354:89</text>
</g>
<!-- q12:146 -->
<g id="node24" class="node">
<title>q12:146</title>
<ellipse fill="none" stroke="black" stroke-width="2" cx="1439.8" cy="-147" rx="52.26" ry="18"/>
<text text-anchor="middle" x="1439.8" y="-142.32" font-family="Times,serif" font-size="14.00">q12:146</text>
</g>
<!-- q7:235&#45;&gt;q12:146 -->
<g id="edge29" class="edge">
<title>q7:235&#45;&gt;q12:146</title>
<path fill="none" stroke="black" d="M1240.2,-118.41C1248.8,-120.84 1258.1,-123.21 1266.7,-125 1302.9,-132.43 1343.8,-137.79 1376.7,-141.36"/>
<polygon fill="black" stroke="black" points="1376.18,-144.82 1386.49,-142.39 1376.92,-137.86 1376.18,-144.82"/>
<text text-anchor="middle" x="1318.1" y="-143.94" font-family="Times,serif" font-size="14.00">RCPT/250:146</text>
</g>
<!-- q13:10 -->
<g id="node26" class="node">
<title>q13:10</title>
<ellipse fill="none" stroke="black" stroke-width="2" cx="1202.8" cy="-204" rx="45.95" ry="18"/>
<text text-anchor="middle" x="1202.8" y="-199.32" font-family="Times,serif" font-size="14.00">q13:10</text>
</g>
<!-- q8:10&#45;&gt;q13:10 -->
<g id="edge30" class="edge">
<title>q8:10&#45;&gt;q13:10</title>
<path fill="none" stroke="black" d="M1000.98,-204C1040.1,-204 1100.4,-204 1144.7,-204"/>
<polygon fill="black" stroke="black" points="1144.69,-207.5 1154.69,-204 1144.69,-200.5 1144.69,-207.5"/>
<text text-anchor="middle" x="1084.8" y="-207.94" font-family="Times,serif" font-size="14.00">content/535:10</text>
</g>
<!-- q18:2520 -->
<g id="node12" class="node">
<title>q18:2520</title>
<ellipse fill="none" stroke="black" stroke-width="2" cx="1694.6" cy="-194" rx="58.57" ry="18"/>
<text text-anchor="middle" x="1694.6" y="-189.32" font-family="Times,serif" font-size="14.00">q18:2520</text>
</g>
<!-- q18:2520&#45;&gt;q18:2520 -->
<g id="edge13" class="edge">
<title>q18:2520&#45;&gt;q18:2520</title>
<path fill="none" stroke="black" d="M1671.3,-211.41C1666.9,-221.09 1674.7,-230 1694.6,-230 1706.1,-230 1713.5,-227.02 1716.9,-222.64"/>
<polygon fill="black" stroke="black" points="1720.36,-223.19 1717.77,-212.92 1713.39,-222.57 1720.36,-223.19"/>
<text text-anchor="middle" x="1694.6" y="-233.94" font-family="Times,serif" font-size="14.00">content/λ:2421</text>
</g>
<!-- q24:89 -->
<g id="node13" class="node">
<title>q24:89</title>
<ellipse fill="none" stroke="black" stroke-width="2" cx="1943.1" cy="-140" rx="45.95" ry="18"/>
<text text-anchor="middle" x="1943.1" y="-135.32" font-family="Times,serif" font-size="14.00">q24:89</text>
</g>
<!-- q18:2520&#45;&gt;q24:89 -->
<g id="edge14" class="edge">
<title>q18:2520&#45;&gt;q24:89</title>
<path fill="none" stroke="black" d="M1738.6,-181.23C1749.2,-178.27 1760.5,-175.25 1771.2,-172.75 1810.3,-163.52 1854.9,-155.05 1888.7,-149.03"/>
<polygon fill="black" stroke="black" points="1888.97,-152.54 1898.21,-147.35 1887.75,-145.64 1888.97,-152.54"/>
<text text-anchor="middle" x="1825.2" y="-175.94" font-family="Times,serif" font-size="14.00">content/250:89</text>
</g>
<!-- q23:1 -->
<g id="node14" class="node">
<title>q23:1</title>
<ellipse fill="none" stroke="black" stroke-width="2" cx="1943.1" cy="-248" rx="39.63" ry="18"/>
<text text-anchor="middle" x="1943.1" y="-243.32" font-family="Times,serif" font-size="14.00">q23:1</text>
</g>
<!-- q18:2520&#45;&gt;q23:1 -->
<g id="edge15" class="edge">
<title>q18:2520&#45;&gt;q23:1</title>
<path fill="none" stroke="black" d="M1738.6,-206.59C1749.2,-209.52 1760.6,-212.51 1771.2,-215 1812.3,-224.66 1859.4,-233.61 1893.8,-239.74"/>
<polygon fill="black" stroke="black" points="1892.95,-243.14 1903.41,-241.45 1894.17,-236.25 1892.95,-243.14"/>
<text text-anchor="middle" x="1825.2" y="-239.94" font-family="Times,serif" font-size="14.00">content/550:1</text>
</g>
<!-- q22:9 -->
<g id="node15" class="node">
<title>q22:9</title>
<ellipse fill="none" stroke="black" stroke-width="2" cx="1943.1" cy="-194" rx="39.63" ry="18"/>
<text text-anchor="middle" x="1943.1" y="-189.32" font-family="Times,serif" font-size="14.00">q22:9</text>
</g>
<!-- q18:2520&#45;&gt;q22:9 -->
<g id="edge16" class="edge">
<title>q18:2520&#45;&gt;q22:9</title>
<path fill="none" stroke="black" d="M1754,-194C1795.7,-194 1851.3,-194 1891.2,-194"/>
<polygon fill="black" stroke="black" points="1891.09,-197.5 1901.09,-194 1891.09,-190.5 1891.09,-197.5"/>
<text text-anchor="middle" x="1825.2" y="-197.94" font-family="Times,serif" font-size="14.00">content/554:9</text>
</g>
<!-- q27:89 -->
<g id="node16" class="node">
<title>q27:89</title>
<ellipse fill="none" stroke="black" stroke-width="2" cx="2162.5" cy="-140" rx="45.95" ry="18"/>
<text text-anchor="middle" x="2162.5" y="-135.32" font-family="Times,serif" font-size="14.00">q27:89</text>
</g>
<!-- q24:89&#45;&gt;q27:89 -->
<g id="edge17" class="edge">
<title>q24:89&#45;&gt;q27:89</title>
<path fill="none" stroke="black" d="M1989.9,-140C2023.3,-140 2068.8,-140 2104.5,-140"/>
<polygon fill="black" stroke="black" points="2104.19,-143.5 2114.19,-140 2104.19,-136.5 2104.19,-143.5"/>
<text text-anchor="middle" x="2052.8" y="-143.94" font-family="Times,serif" font-size="14.00">QUIT/221:89</text>
</g>
<!-- q26:1 -->
<g id="node17" class="node">
<title>q26:1</title>
<ellipse fill="none" stroke="black" stroke-width="2" cx="2162.5" cy="-248" rx="39.63" ry="18"/>
<text text-anchor="middle" x="2162.5" y="-243.32" font-family="Times,serif" font-size="14.00">q26:1</text>
</g>
<!-- q23:1&#45;&gt;q26:1 -->
<g id="edge18" class="edge">
<title>q23:1&#45;&gt;q26:1</title>
<path fill="none" stroke="black" d="M1983.7,-248C2019.5,-248 2072.3,-248 2111.1,-248"/>
<polygon fill="black" stroke="black" points="2110.69,-251.5 2120.69,-248 2110.69,-244.5 2110.69,-251.5"/>
<text text-anchor="middle" x="2052.8" y="-251.94" font-family="Times,serif" font-size="14.00">RSET/250:1</text>
</g>
<!-- q25:9 -->
<g id="node18" class="node">
<title>q25:9</title>
<ellipse fill="none" stroke="black" stroke-width="2" cx="2162.5" cy="-194" rx="39.63" ry="18"/>
<text text-anchor="middle" x="2162.5" y="-189.32" font-family="Times,serif" font-size="14.00">q25:9</text>
</g>
<!-- q22:9&#45;&gt;q25:9 -->
<g id="edge19" class="edge">
<title>q22:9&#45;&gt;q25:9</title>
<path fill="none" stroke="black" d="M1983.7,-194C2019.5,-194 2072.3,-194 2111.1,-194"/>
<polygon fill="black" stroke="black" points="2110.69,-197.5 2120.69,-194 2110.69,-190.5 2110.69,-197.5"/>
<text text-anchor="middle" x="2052.8" y="-197.94" font-family="Times,serif" font-size="14.00">RSET/250:9</text>
</g>
<!-- q11:163&#45;&gt;q11:163 -->
<g id="edge20" class="edge">
<title>q11:163&#45;&gt;q11:163</title>
<path fill="none" stroke="black" d="M1418.2,-75.04C1413.8,-84.86 1421,-94 1439.8,-94 1450.6,-94 1457.6,-90.94 1460.7,-86.47"/>
<polygon fill="black" stroke="black" points="1464.19,-86.72 1461.22,-76.55 1457.2,-86.35 1464.19,-86.72"/>
<text text-anchor="middle" x="1439.8" y="-97.95" font-family="Times,serif" font-size="14.00">content/λ:74</text>
</g>
<!-- q15:24 -->
<g id="node20" class="node">
<title>q15:24</title>
<ellipse fill="none" stroke="black" stroke-width="2" cx="1694.6" cy="-72" rx="45.95" ry="18"/>
<text text-anchor="middle" x="1694.6" y="-67.33" font-family="Times,serif" font-size="14.00">q15:24</text>
</g>
<!-- q11:163&#45;&gt;q15:24 -->
<g id="edge21" class="edge">
<title>q11:163&#45;&gt;q15:24</title>
<path fill="none" stroke="black" d="M1492.2,-60.85C1534.2,-63.18 1593.5,-66.46 1636.9,-68.86"/>
<polygon fill="black" stroke="black" points="1636.41,-72.34 1646.59,-69.4 1636.8,-65.35 1636.41,-72.34"/>
<text text-anchor="middle" x="1564" y="-71.95" font-family="Times,serif" font-size="14.00">content/250:24</text>
</g>
<!-- q16:65 -->
<g id="node21" class="node">
<title>q16:65</title>
<ellipse fill="none" stroke="black" stroke-width="2" cx="1694.6" cy="-18" rx="45.95" ry="18"/>
<text text-anchor="middle" x="1694.6" y="-13.32" font-family="Times,serif" font-size="14.00">q16:65</text>
</g>
<!-- q11:163&#45;&gt;q16:65 -->
<g id="edge22" class="edge">
<title>q11:163&#45;&gt;q16:65</title>
<path fill="none" stroke="black" d="M1483.5,-47.26C1492.2,-45.26 1501.4,-43.32 1510,-41.75 1552.7,-34.01 1601.3,-27.83 1637.8,-23.72"/>
<polygon fill="black" stroke="black" points="1638.14,-27.2 1647.7,-22.62 1637.37,-20.24 1638.14,-27.2"/>
<text text-anchor="middle" x="1564" y="-45.95" font-family="Times,serif" font-size="14.00">content/554:65</text>
</g>
<!-- q20:24 -->
<g id="node22" class="node">
<title>q20:24</title>
<ellipse fill="none" stroke="black" stroke-width="2" cx="1943.1" cy="-72" rx="45.95" ry="18"/>
<text text-anchor="middle" x="1943.1" y="-67.33" font-family="Times,serif" font-size="14.00">q20:24</text>
</g>
<!-- q15:24&#45;&gt;q20:24 -->
<g id="edge23" class="edge">
<title>q15:24&#45;&gt;q20:24</title>
<path fill="none" stroke="black" d="M1741.4,-72C1782,-72 1841.6,-72 1885.3,-72"/>
<polygon fill="black" stroke="black" points="1885.09,-75.5 1895.09,-72 1885.09,-68.5 1885.09,-75.5"/>
<text text-anchor="middle" x="1825.2" y="-75.95" font-family="Times,serif" font-size="14.00">QUIT/221:24</text>
</g>
<!-- q21:65 -->
<g id="node23" class="node">
<title>q21:65</title>
<ellipse fill="none" stroke="black" stroke-width="2" cx="1943.1" cy="-18" rx="45.95" ry="18"/>
<text text-anchor="middle" x="1943.1" y="-13.32" font-family="Times,serif" font-size="14.00">q21:65</text>
</g>
<!-- q16:65&#45;&gt;q21:65 -->
<g id="edge24" class="edge">
<title>q16:65&#45;&gt;q21:65</title>
<path fill="none" stroke="black" d="M1741.4,-18C1782,-18 1841.6,-18 1885.3,-18"/>
<polygon fill="black" stroke="black" points="1885.09,-21.5 1895.09,-18 1885.09,-14.5 1885.09,-21.5"/>
<text text-anchor="middle" x="1825.2" y="-21.95" font-family="Times,serif" font-size="14.00">RSET/250:65</text>
</g>
<!-- q12:146&#45;&gt;q7:235 -->
<g id="edge26" class="edge">
<title>q12:146&#45;&gt;q7:235</title>
<path fill="none" stroke="black" d="M1408.3,-131.71C1401.4,-128.02 1394.1,-123.99 1387.5,-120 1379.2,-115.02 1378.7,-110.62 1369.5,-107.75 1333.5,-96.57 1290.9,-96.64 1258,-99.37"/>
<polygon fill="black" stroke="black" points="1257.83,-95.87 1248.21,-100.3 1258.49,-102.84 1257.83,-95.87"/>
<text text-anchor="middle" x="1318.1" y="-111.95" font-family="Times,serif" font-size="14.00">RCPT/250:4</text>
</g>
<!-- q12:146&#45;&gt;q18:2520 -->
<g id="edge25" class="edge">
<title>q12:146&#45;&gt;q18:2520</title>
<path fill="none" stroke="black" d="M1482,-158.42C1491.2,-160.77 1500.9,-163.1 1510,-165 1549.1,-173.14 1593.2,-180.18 1628.4,-185.28"/>
<polygon fill="black" stroke="black" points="1627.61,-188.7 1638,-186.66 1628.6,-181.77 1627.61,-188.7"/>
<text text-anchor="middle" x="1564" y="-186.94" font-family="Times,serif" font-size="14.00">DATA/354:99</text>
</g>
<!-- q17:43 -->
<g id="node25" class="node">
<title>q17:43</title>
<ellipse fill="none" stroke="black" stroke-width="2" cx="1694.6" cy="-140" rx="45.95" ry="18"/>
<text text-anchor="middle" x="1694.6" y="-135.32" font-family="Times,serif" font-size="14.00">q17:43</text>
</g>
<!-- q12:146&#45;&gt;q17:43 -->
<g id="edge27" class="edge">
<title>q12:146&#45;&gt;q17:43</title>
<path fill="none" stroke="black" d="M1492.8,-145.56C1534.7,-144.4 1593.4,-142.77 1636.5,-141.58"/>
<polygon fill="black" stroke="black" points="1636.49,-145.08 1646.39,-141.3 1636.29,-138.08 1636.49,-145.08"/>
<text text-anchor="middle" x="1564" y="-147.94" font-family="Times,serif" font-size="14.00">DATA/550:43</text>
</g>
<!-- q19:2 -->
<g id="node27" class="node">
<title>q19:2</title>
<ellipse fill="none" stroke="black" stroke-width="2" cx="1439.8" cy="-204" rx="39.63" ry="18"/>
<text text-anchor="middle" x="1439.8" y="-199.32" font-family="Times,serif" font-size="14.00">q19:2</text>
</g>
<!-- q13:10&#45;&gt;q19:2 -->
<g id="edge31" class="edge">
<title>q13:10&#45;&gt;q19:2</title>
<path fill="none" stroke="black" d="M1249.7,-204C1289.4,-204 1346.7,-204 1387.8,-204"/>
<polygon fill="black" stroke="black" points="1387.79,-207.5 1397.79,-204 1387.79,-200.5 1387.79,-207.5"/>
<text text-anchor="middle" x="1318.1" y="-207.94" font-family="Times,serif" font-size="14.00">λ/451:2</text>
</g>
<!-- q0:244 -->
<g id="node28" class="node">
<title>q0:244</title>
<ellipse fill="none" stroke="black" stroke-width="2" cx="53.95" cy="-116" rx="49.95" ry="49.95"/>
<ellipse fill="none" stroke="black" stroke-width="2" cx="53.95" cy="-116" rx="53.95" ry="53.95"/>
<text text-anchor="middle" x="53.95" y="-111.33" font-family="Times,serif" font-size="14.00">q0:244</text>
</g>
<!-- q0:244&#45;&gt;q1:244 -->
<g id="edge32" class="edge">
<title>q0:244&#45;&gt;q1:244</title>
<path fill="none" stroke="black" d="M104.85,-116C133.64,-116 169.94,-116 199.84,-116"/>
<polygon fill="black" stroke="black" points="199.45,-119.5 209.45,-116 199.45,-112.5 199.45,-119.5"/>
<text text-anchor="middle" x="157.89" y="-119.95" font-family="Times,serif" font-size="14.00">λ/220:244</text>
</g>
</g>
</svg>
