<?xml version="1.0" encoding="UTF-8" standalone="no"?>
<!DOCTYPE svg PUBLIC "-//W3C//DTD SVG 1.1//EN"
 "http://www.w3.org/Graphics/SVG/1.1/DTD/svg11.dtd">
<!-- Generated by graphviz version 12.0.0 (20240803.0821)
 -->
<!-- Pages: 1 -->
<svg width="5709pt" height="413pt"
 viewBox="0.00 0.00 5708.96 413.36" xmlns="http://www.w3.org/2000/svg" xmlns:xlink="http://www.w3.org/1999/xlink">
<g id="graph0" class="graph" transform="scale(1 1) rotate(0) translate(4 409.36)">
<polygon fill="white" stroke="none" points="-4,4 -4,-409.36 5704.96,-409.36 5704.96,4 -4,4"/>
<!-- q5:12 -->
<g id="node1" class="node">
<title>q5:12</title>
<ellipse fill="none" stroke="black" stroke-width="2" cx="1681.4" cy="-280.97" rx="39.63" ry="18"/>
<text text-anchor="middle" x="1681.4" y="-276.29" font-family="Times,serif" font-size="14.00">q5:12</text>
</g>
<!-- q8:12 -->
<g id="node2" class="node">
<title>q8:12</title>
<ellipse fill="none" stroke="black" stroke-width="2" cx="2530.8" cy="-280.97" rx="39.63" ry="18"/>
<text text-anchor="middle" x="2530.8" y="-276.29" font-family="Times,serif" font-size="14.00">q8:12</text>
</g>
<!-- q5:12&#45;&gt;q8:12 -->
<g id="edge1" class="edge">
<title>q5:12&#45;&gt;q8:12</title>
<path fill="none" stroke="black" d="M1721.8,-280.97C1860.4,-280.97 2324.4,-280.97 2479.1,-280.97"/>
<polygon fill="black" stroke="black" points="2479.09,-284.47 2489.09,-280.97 2479.09,-277.47 2479.09,-284.47"/>
<text text-anchor="middle" x="2106.1" y="-302.17" font-family="Times,serif" font-size="14.00">AUTH/334:12</text>
<text text-anchor="middle" x="2106.1" y="-284.92" font-family="Times,serif" font-size="14.00">b0 = UGFzc3dvcmQ6</text>
</g>
<!-- q11:12 -->
<g id="node3" class="node">
<title>q11:12</title>
<ellipse fill="none" stroke="black" stroke-width="2" cx="3359.5" cy="-280.97" rx="45.95" ry="18"/>
<text text-anchor="middle" x="3359.5" y="-276.29" font-family="Times,serif" font-size="14.00">q11:12</text>
</g>
<!-- q8:12&#45;&gt;q11:12 -->
<g id="edge2" class="edge">
<title>q8:12&#45;&gt;q11:12</title>
<path fill="none" stroke="black" d="M2571.4,-280.97C2705.6,-280.97 3143.9,-280.97 3301.4,-280.97"/>
<polygon fill="black" stroke="black" points="3301.19,-284.47 3311.19,-280.97 3301.19,-277.47 3301.19,-284.47"/>
<text text-anchor="middle" x="2942" y="-302.17" font-family="Times,serif" font-size="14.00">content/535:12</text>
<text text-anchor="middle" x="2942" y="-284.92" font-family="Times,serif" font-size="14.00">b0 in {&#39;5.7.8 authentication failed&#39;, &#39;Error: authentication failed&#39;}</text>
</g>
<!-- q14:4 -->
<g id="node4" class="node">
<title>q14:4</title>
<ellipse fill="none" stroke="black" stroke-width="2" cx="4194.5" cy="-280.97" rx="39.63" ry="18"/>
<text text-anchor="middle" x="4194.5" y="-276.29" font-family="Times,serif" font-size="14.00">q14:4</text>
</g>
<!-- q11:12&#45;&gt;q14:4 -->
<g id="edge3" class="edge">
<title>q11:12&#45;&gt;q14:4</title>
<path fill="none" stroke="black" d="M3406.2,-280.97C3549.9,-280.97 3992.5,-280.97 4142.9,-280.97"/>
<polygon fill="black" stroke="black" points="4142.59,-284.47 4152.59,-280.97 4142.59,-277.47 4142.59,-284.47"/>
<text text-anchor="middle" x="3777" y="-302.17" font-family="Times,serif" font-size="14.00">λ/451:4</text>
<text text-anchor="middle" x="3777" y="-284.92" font-family="Times,serif" font-size="14.00">b0 = Timeout.</text>
</g>
<!-- q15:3187 -->
<g id="node5" class="node">
<title>q15:3187</title>
<ellipse fill="none" stroke="black" stroke-width="2" cx="4827.3" cy="-239.97" rx="58.57" ry="18"/>
<text text-anchor="middle" x="4827.3" y="-235.29" font-family="Times,serif" font-size="14.00">q15:3187</text>
</g>
<!-- q15:3187&#45;&gt;q15:3187 -->
<g id="edge4" class="edge">
<title>q15:3187&#45;&gt;q15:3187</title>
<path fill="none" stroke="black" d="M4782.5,-252.33C4760,-263.7 4774.9,-275.97 4827.3,-275.97 4869.1,-275.97 4887.1,-268.18 4881.3,-259.26"/>
<polygon fill="black" stroke="black" points="4883.48,-256.52 4873.4,-253.25 4879.24,-262.09 4883.48,-256.52"/>
<text text-anchor="middle" x="4827.3" y="-297.17" font-family="Times,serif" font-size="14.00">content/λ:3069</text>
<text text-anchor="middle" x="4827.3" y="-279.92" font-family="Times,serif" font-size="14.00">a0 = b0</text>
</g>
<!-- q20:5 -->
<g id="node6" class="node">
<title>q20:5</title>
<ellipse fill="none" stroke="black" stroke-width="2" cx="5407.7" cy="-297.97" rx="39.63" ry="18"/>
<text text-anchor="middle" x="5407.7" y="-293.29" font-family="Times,serif" font-size="14.00">q20:5</text>
</g>
<!-- q15:3187&#45;&gt;q20:5 -->
<g id="edge5" class="edge">
<title>q15:3187&#45;&gt;q20:5</title>
<path fill="none" stroke="black" d="M4856,-256.46C4869.9,-263.85 4887.3,-271.82 4903.9,-275.97 5065.3,-316.18 5264.8,-308.74 5356.4,-302.29"/>
<polygon fill="black" stroke="black" points="5356.57,-305.79 5366.29,-301.57 5356.06,-298.8 5356.57,-305.79"/>
<text text-anchor="middle" x="5120.7" y="-310.91" font-family="Times,serif" font-size="14.00">content/554:5</text>
</g>
<!-- q21:1 -->
<g id="node7" class="node">
<title>q21:1</title>
<ellipse fill="none" stroke="black" stroke-width="2" cx="5407.7" cy="-239.97" rx="39.63" ry="18"/>
<text text-anchor="middle" x="5407.7" y="-235.29" font-family="Times,serif" font-size="14.00">q21:1</text>
</g>
<!-- q15:3187&#45;&gt;q21:1 -->
<g id="edge6" class="edge">
<title>q15:3187&#45;&gt;q21:1</title>
<path fill="none" stroke="black" d="M4886.7,-239.97C5000.2,-239.97 5248.8,-239.97 5355.9,-239.97"/>
<polygon fill="black" stroke="black" points="5355.79,-243.47 5365.79,-239.97 5355.79,-236.47 5355.79,-243.47"/>
<text text-anchor="middle" x="5120.7" y="-261.17" font-family="Times,serif" font-size="14.00">content/550:1</text>
<text text-anchor="middle" x="5120.7" y="-243.92" font-family="Times,serif" font-size="14.00">b0 = Sender frequency limited.</text>
</g>
<!-- q19:112 -->
<g id="node8" class="node">
<title>q19:112</title>
<ellipse fill="none" stroke="black" stroke-width="2" cx="5407.7" cy="-185.97" rx="52.26" ry="18"/>
<text text-anchor="middle" x="5407.7" y="-181.29" font-family="Times,serif" font-size="14.00">q19:112</text>
</g>
<!-- q15:3187&#45;&gt;q19:112 -->
<g id="edge7" class="edge">
<title>q15:3187&#45;&gt;q19:112</title>
<path fill="none" stroke="black" d="M4869.6,-226.7C4880.6,-223.6 4892.6,-220.65 4903.9,-218.72 5060.3,-191.94 5247.4,-186.67 5343.3,-185.87"/>
<polygon fill="black" stroke="black" points="5343.01,-189.37 5352.99,-185.8 5342.96,-182.37 5343.01,-189.37"/>
<text text-anchor="middle" x="5120.7" y="-221.91" font-family="Times,serif" font-size="14.00">content/250:112</text>
</g>
<!-- q25:5 -->
<g id="node9" class="node">
<title>q25:5</title>
<ellipse fill="none" stroke="black" stroke-width="2" cx="5648.7" cy="-297.97" rx="39.63" ry="18"/>
<text text-anchor="middle" x="5648.7" y="-293.29" font-family="Times,serif" font-size="14.00">q25:5</text>
</g>
<!-- q20:5&#45;&gt;q25:5 -->
<g id="edge8" class="edge">
<title>q20:5&#45;&gt;q25:5</title>
<path fill="none" stroke="black" d="M5448.1,-297.97C5488.8,-297.97 5552.3,-297.97 5596.7,-297.97"/>
<polygon fill="black" stroke="black" points="5596.69,-301.47 5606.69,-297.97 5596.69,-294.47 5596.69,-301.47"/>
<text text-anchor="middle" x="5528.2" y="-319.17" font-family="Times,serif" font-size="14.00">RSET/250:5</text>
<text text-anchor="middle" x="5528.2" y="-301.92" font-family="Times,serif" font-size="14.00">b0 = OK</text>
</g>
<!-- q26:1 -->
<g id="node10" class="node">
<title>q26:1</title>
<ellipse fill="none" stroke="black" stroke-width="2" cx="5648.7" cy="-239.97" rx="39.63" ry="18"/>
<text text-anchor="middle" x="5648.7" y="-235.29" font-family="Times,serif" font-size="14.00">q26:1</text>
</g>
<!-- q21:1&#45;&gt;q26:1 -->
<g id="edge9" class="edge">
<title>q21:1&#45;&gt;q26:1</title>
<path fill="none" stroke="black" d="M5448.1,-239.97C5488.8,-239.97 5552.3,-239.97 5596.7,-239.97"/>
<polygon fill="black" stroke="black" points="5596.69,-243.47 5606.69,-239.97 5596.69,-236.47 5596.69,-243.47"/>
<text text-anchor="middle" x="5528.2" y="-261.17" font-family="Times,serif" font-size="14.00">RSET/250:1</text>
<text text-anchor="middle" x="5528.2" y="-243.92" font-family="Times,serif" font-size="14.00">a0 = b0</text>
</g>
<!-- q24:112 -->
<g id="node11" class="node">
<title>q24:112</title>
<ellipse fill="none" stroke="black" stroke-width="2" cx="5648.7" cy="-185.97" rx="52.26" ry="18"/>
<text text-anchor="middle" x="5648.7" y="-181.29" font-family="Times,serif" font-size="14.00">q24:112</text>
</g>
<!-- q19:112&#45;&gt;q24:112 -->
<g id="edge10" class="edge">
<title>q19:112&#45;&gt;q24:112</title>
<path fill="none" stroke="black" d="M5460.8,-185.97C5497.2,-185.97 5546,-185.97 5584.5,-185.97"/>
<polygon fill="black" stroke="black" points="5584.09,-189.47 5594.09,-185.97 5584.09,-182.47 5584.09,-189.47"/>
<text text-anchor="middle" x="5528.2" y="-189.91" font-family="Times,serif" font-size="14.00">QUIT/221:112</text>
</g>
<!-- q12:161 -->
<g id="node12" class="node">
<title>q12:161</title>
<ellipse fill="none" stroke="black" stroke-width="2" cx="4194.5" cy="-204.97" rx="52.26" ry="18"/>
<text text-anchor="middle" x="4194.5" y="-200.29" font-family="Times,serif" font-size="14.00">q12:161</text>
</g>
<!-- q12:161&#45;&gt;q15:3187 -->
<g id="edge11" class="edge">
<title>q12:161&#45;&gt;q15:3187</title>
<path fill="none" stroke="black" d="M4240.4,-214.39C4248.5,-215.8 4256.9,-217.08 4264.8,-217.97 4441.1,-237.86 4650.3,-240.59 4756.7,-240.51"/>
<polygon fill="black" stroke="black" points="4756.39,-244.01 4766.39,-240.49 4756.38,-237.01 4756.39,-244.01"/>
<text text-anchor="middle" x="4507.8" y="-261.17" font-family="Times,serif" font-size="14.00">DATA/354:118</text>
<text text-anchor="middle" x="4507.8" y="-243.92" font-family="Times,serif" font-size="14.00">b0 = End data with &lt;CR&gt;&lt;LF&gt;.&lt;CR&gt;&lt;LF&gt;</text>
</g>
<!-- q16:43 -->
<g id="node13" class="node">
<title>q16:43</title>
<ellipse fill="none" stroke="black" stroke-width="2" cx="4827.3" cy="-181.97" rx="45.95" ry="18"/>
<text text-anchor="middle" x="4827.3" y="-177.29" font-family="Times,serif" font-size="14.00">q16:43</text>
</g>
<!-- q12:161&#45;&gt;q16:43 -->
<g id="edge12" class="edge">
<title>q12:161&#45;&gt;q16:43</title>
<path fill="none" stroke="black" d="M4231.7,-191.51C4242.2,-188.21 4253.8,-185.14 4264.8,-183.47 4448.3,-155.39 4669.5,-168.25 4770.8,-176.68"/>
<polygon fill="black" stroke="black" points="4770.13,-180.13 4780.39,-177.51 4770.73,-173.16 4770.13,-180.13"/>
<text text-anchor="middle" x="4507.8" y="-204.17" font-family="Times,serif" font-size="14.00">DATA/550:43</text>
<text text-anchor="middle" x="4507.8" y="-186.92" font-family="Times,serif" font-size="14.00">b0 in {&#39;too many message send today.&#39;, &#39;Sender frequency limited.&#39;}</text>
</g>
<!-- q2:242 -->
<g id="node14" class="node">
<title>q2:242</title>
<ellipse fill="none" stroke="black" stroke-width="2" cx="501.98" cy="-205.97" rx="45.95" ry="18"/>
<text text-anchor="middle" x="501.98" y="-201.29" font-family="Times,serif" font-size="14.00">q2:242</text>
</g>
<!-- q2:242&#45;&gt;q5:12 -->
<g id="edge13" class="edge">
<title>q2:242&#45;&gt;q5:12</title>
<path fill="none" stroke="black" d="M517.77,-223.63C529.41,-236.08 546.81,-251.78 565.93,-258.97 955.13,-405.36 1476.1,-321.5 1633.5,-290.78"/>
<polygon fill="black" stroke="black" points="1633.99,-294.25 1643.11,-288.87 1632.63,-287.38 1633.99,-294.25"/>
<text text-anchor="middle" x="1091.7" y="-363.17" font-family="Times,serif" font-size="14.00">AUTH/535:12</text>
<text text-anchor="middle" x="1091.7" y="-345.92" font-family="Times,serif" font-size="14.00">b0 in {&#39;5.7.8 authentication failed&#39;, &#39;Error: authentication failed&#39;}</text>
</g>
<!-- q4:232 -->
<g id="node15" class="node">
<title>q4:232</title>
<ellipse fill="none" stroke="black" stroke-width="2" cx="1681.4" cy="-153.97" rx="45.95" ry="18"/>
<text text-anchor="middle" x="1681.4" y="-149.29" font-family="Times,serif" font-size="14.00">q4:232</text>
</g>
<!-- q2:242&#45;&gt;q4:232 -->
<g id="edge14" class="edge">
<title>q2:242&#45;&gt;q4:232</title>
<path fill="none" stroke="black" d="M548.86,-206.2C745.58,-207.07 1512.5,-208.78 1617.4,-183.97 1626.4,-181.85 1635.6,-178.35 1644,-174.47"/>
<polygon fill="black" stroke="black" points="1645.49,-177.64 1652.94,-170.1 1642.42,-171.35 1645.49,-177.64"/>
<text text-anchor="middle" x="1091.7" y="-244.41" font-family="Times,serif" font-size="14.00">AUTH/235:230</text>
<text text-anchor="middle" x="1091.7" y="-227.16" font-family="Times,serif" font-size="14.00">a0 in {&#39;PLAIN AEF6NjE2MUBzaW5hLmNvbQA2ZmRiMjVjZmNjODYyZWZj&#39;, &#39;PLAIN AEF6NjE2MUAxMjYuY29tAE1VUVNBT1NUWElURkpDVUU=&#39;}</text>
<text text-anchor="middle" x="1091.7" y="-209.91" font-family="Times,serif" font-size="14.00">b0 in {&#39;Authentication successful&#39;, &#39;OK Authenticated&#39;}</text>
</g>
<!-- q7:229 -->
<g id="node16" class="node">
<title>q7:229</title>
<ellipse fill="none" stroke="black" stroke-width="2" cx="2530.8" cy="-165.97" rx="45.95" ry="18"/>
<text text-anchor="middle" x="2530.8" y="-161.29" font-family="Times,serif" font-size="14.00">q7:229</text>
</g>
<!-- q4:232&#45;&gt;q7:229 -->
<g id="edge15" class="edge">
<title>q4:232&#45;&gt;q7:229</title>
<path fill="none" stroke="black" d="M1728.2,-154.62C1872.1,-156.65 2314.4,-162.92 2472.7,-165.16"/>
<polygon fill="black" stroke="black" points="2472.44,-168.66 2482.49,-165.3 2472.54,-161.66 2472.44,-168.66"/>
<text text-anchor="middle" x="2106.1" y="-203.41" font-family="Times,serif" font-size="14.00">MAIL/250:229</text>
<text text-anchor="middle" x="2106.1" y="-186.16" font-family="Times,serif" font-size="14.00">a0 in {&#39;FROM:&lt;Az6161@126.com&gt;&#39;, &#39;FROM:&lt;Az6161@sina.com&gt;&#39;}</text>
<text text-anchor="middle" x="2106.1" y="-168.91" font-family="Times,serif" font-size="14.00">b0 in {&#39;Mail OK&#39;, &#39;ok&#39;}</text>
</g>
<!-- q6:3 -->
<g id="node17" class="node">
<title>q6:3</title>
<ellipse fill="none" stroke="black" stroke-width="2" cx="2530.8" cy="-90.97" rx="33.32" ry="18"/>
<text text-anchor="middle" x="2530.8" y="-86.29" font-family="Times,serif" font-size="14.00">q6:3</text>
</g>
<!-- q4:232&#45;&gt;q6:3 -->
<g id="edge16" class="edge">
<title>q4:232&#45;&gt;q6:3</title>
<path fill="none" stroke="black" d="M1696.9,-136.28C1708.5,-123.59 1726,-107.49 1745.3,-100.22 2012.2,0 2367,-57.46 2487.6,-81.77"/>
<polygon fill="black" stroke="black" points="2486.92,-85.2 2497.42,-83.77 2488.32,-78.34 2486.92,-85.2"/>
<text text-anchor="middle" x="2106.1" y="-139.42" font-family="Times,serif" font-size="14.00">MAIL/553:3</text>
<text text-anchor="middle" x="2106.1" y="-122.17" font-family="Times,serif" font-size="14.00">a0 in {&#39;FROM:&lt;Az_6161@sina.com&gt;&#39;, &#39;FROM:&lt;Az_6161@126.com&gt;&#39;, &#39;FROM:&lt;Az6161@163.com&gt;&#39;}</text>
<text text-anchor="middle" x="2106.1" y="-104.92" font-family="Times,serif" font-size="14.00">b0 in {&#39;Mail from must equal authorized user&#39;, &#39;Envolope sender mismatch with login user..&#39;}</text>
</g>
<!-- q10:229 -->
<g id="node18" class="node">
<title>q10:229</title>
<ellipse fill="none" stroke="black" stroke-width="2" cx="3359.5" cy="-165.97" rx="52.26" ry="18"/>
<text text-anchor="middle" x="3359.5" y="-161.29" font-family="Times,serif" font-size="14.00">q10:229</text>
</g>
<!-- q7:229&#45;&gt;q10:229 -->
<g id="edge17" class="edge">
<title>q7:229&#45;&gt;q10:229</title>
<path fill="none" stroke="black" d="M2577.7,-165.97C2717,-165.97 3135.1,-165.97 3295.2,-165.97"/>
<polygon fill="black" stroke="black" points="3294.79,-169.47 3304.79,-165.97 3294.79,-162.47 3294.79,-169.47"/>
<text text-anchor="middle" x="2942" y="-204.41" font-family="Times,serif" font-size="14.00">RCPT/250:229</text>
<text text-anchor="middle" x="2942" y="-187.16" font-family="Times,serif" font-size="14.00">a0 in {&#39;TO:&lt;574702257@qq.com&gt;&#39;, &#39;TO:&lt;1542110793@qq.com&gt;&#39;, &#39;TO:&lt;574702256@qq.com&gt;&#39;}</text>
<text text-anchor="middle" x="2942" y="-169.91" font-family="Times,serif" font-size="14.00">b0 in {&#39;Mail OK&#39;, &#39;ok&#39;}</text>
</g>
<!-- q9:3 -->
<g id="node19" class="node">
<title>q9:3</title>
<ellipse fill="none" stroke="black" stroke-width="2" cx="3359.5" cy="-90.97" rx="33.32" ry="18"/>
<text text-anchor="middle" x="3359.5" y="-86.29" font-family="Times,serif" font-size="14.00">q9:3</text>
</g>
<!-- q6:3&#45;&gt;q9:3 -->
<g id="edge18" class="edge">
<title>q6:3&#45;&gt;q9:3</title>
<path fill="none" stroke="black" d="M2564.9,-90.97C2694.6,-90.97 3166.9,-90.97 3314.3,-90.97"/>
<polygon fill="black" stroke="black" points="3313.99,-94.47 3323.99,-90.97 3313.99,-87.47 3313.99,-94.47"/>
<text text-anchor="middle" x="2942" y="-112.17" font-family="Times,serif" font-size="14.00">RSET/250:3</text>
<text text-anchor="middle" x="2942" y="-94.92" font-family="Times,serif" font-size="14.00">b0 in {&#39;flushed&#39;, &#39;OK&#39;}</text>
</g>
<!-- q10:229&#45;&gt;q12:161 -->
<g id="edge22" class="edge">
<title>q10:229&#45;&gt;q12:161</title>
<path fill="none" stroke="black" d="M3412.3,-168.39C3558.1,-175.22 3971.8,-194.59 4130.5,-202.02"/>
<polygon fill="black" stroke="black" points="4130.24,-205.51 4140.39,-202.48 4130.56,-198.52 4130.24,-205.51"/>
<text text-anchor="middle" x="3777" y="-239.41" font-family="Times,serif" font-size="14.00">RCPT/250:161</text>
<text text-anchor="middle" x="3777" y="-222.16" font-family="Times,serif" font-size="14.00">a0 in {&#39;TO:&lt;574702257@qq.com&gt;&#39;, &#39;TO:&lt;1542110793@qq.com&gt;&#39;, &#39;TO:&lt;574702256@qq.com&gt;&#39;}</text>
<text text-anchor="middle" x="3777" y="-204.91" font-family="Times,serif" font-size="14.00">b0 in {&#39;Mail OK&#39;, &#39;ok&#39;}</text>
</g>
<!-- q13:142 -->
<g id="node22" class="node">
<title>q13:142</title>
<ellipse fill="none" stroke="black" stroke-width="2" cx="4194.5" cy="-97.97" rx="52.26" ry="18"/>
<text text-anchor="middle" x="4194.5" y="-93.29" font-family="Times,serif" font-size="14.00">q13:142</text>
</g>
<!-- q10:229&#45;&gt;q13:142 -->
<g id="edge23" class="edge">
<title>q10:229&#45;&gt;q13:142</title>
<path fill="none" stroke="black" d="M3386,-149.5C3398.7,-142.26 3414.5,-134.5 3429.7,-130.47 3683.2,-63.55 4000.3,-80.55 4131.9,-91.81"/>
<polygon fill="black" stroke="black" points="4131.52,-95.29 4141.79,-92.68 4132.14,-88.32 4131.52,-95.29"/>
<text text-anchor="middle" x="3777" y="-152.17" font-family="Times,serif" font-size="14.00">DATA/354:68</text>
<text text-anchor="middle" x="3777" y="-134.92" font-family="Times,serif" font-size="14.00">b0 = End data with &lt;CR&gt;&lt;LF&gt;.&lt;CR&gt;&lt;LF&gt;</text>
</g>
<!-- q1:244 -->
<g id="node20" class="node">
<title>q1:244</title>
<ellipse fill="none" stroke="black" stroke-width="2" cx="257.84" cy="-170.97" rx="45.95" ry="18"/>
<text text-anchor="middle" x="257.84" y="-166.29" font-family="Times,serif" font-size="14.00">q1:244</text>
</g>
<!-- q1:244&#45;&gt;q2:242 -->
<g id="edge19" class="edge">
<title>q1:244&#45;&gt;q2:242</title>
<path fill="none" stroke="black" d="M300.79,-178.54C307.79,-179.73 314.99,-180.92 321.79,-181.97 363.36,-188.38 410.5,-194.66 446,-199.18"/>
<polygon fill="black" stroke="black" points="445.24,-202.61 455.6,-200.4 446.12,-195.67 445.24,-202.61"/>
<text text-anchor="middle" x="379.91" y="-201.91" font-family="Times,serif" font-size="14.00">EHLO/250:242</text>
</g>
<!-- q3:2 -->
<g id="node21" class="node">
<title>q3:2</title>
<ellipse fill="none" stroke="black" stroke-width="2" cx="501.98" cy="-138.97" rx="33.32" ry="18"/>
<text text-anchor="middle" x="501.98" y="-134.29" font-family="Times,serif" font-size="14.00">q3:2</text>
</g>
<!-- q1:244&#45;&gt;q3:2 -->
<g id="edge20" class="edge">
<title>q1:244&#45;&gt;q3:2</title>
<path fill="none" stroke="black" d="M289.98,-157.17C299.95,-153.35 311.16,-149.65 321.79,-147.47 367.08,-138.18 420.09,-136.8 456.65,-137.29"/>
<polygon fill="black" stroke="black" points="456.33,-140.78 466.4,-137.47 456.46,-133.78 456.33,-140.78"/>
<text text-anchor="middle" x="379.91" y="-169.17" font-family="Times,serif" font-size="14.00">EHLO/λ:2</text>
<text text-anchor="middle" x="379.91" y="-151.92" font-family="Times,serif" font-size="14.00">a0 = [127.0.1.1]</text>
</g>
<!-- q3:2&#45;&gt;q4:232 -->
<g id="edge21" class="edge">
<title>q3:2&#45;&gt;q4:232</title>
<path fill="none" stroke="black" d="M535.22,-134.77C669.2,-118.14 1194.8,-61.26 1617.4,-132.22 1624,-133.32 1630.8,-135.03 1637.4,-137.02"/>
<polygon fill="black" stroke="black" points="1636.17,-140.3 1646.76,-140.09 1638.35,-133.65 1636.17,-140.3"/>
<text text-anchor="middle" x="1091.7" y="-171.41" font-family="Times,serif" font-size="14.00">AUTH/235:2</text>
<text text-anchor="middle" x="1091.7" y="-154.16" font-family="Times,serif" font-size="14.00">a0 in {&#39;PLAIN AEF6NjE2MUBzaW5hLmNvbQA2ZmRiMjVjZmNjODYyZWZj&#39;, &#39;PLAIN AEF6NjE2MUAxMjYuY29tAE1VUVNBT1NUWElURkpDVUU=&#39;}</text>
<text text-anchor="middle" x="1091.7" y="-136.91" font-family="Times,serif" font-size="14.00">b0 in {&#39;Authentication successful&#39;, &#39;OK Authenticated&#39;}</text>
</g>
<!-- q13:142&#45;&gt;q13:142 -->
<g id="edge24" class="edge">
<title>q13:142&#45;&gt;q13:142</title>
<path fill="none" stroke="black" d="M4150.9,-108.47C4120.9,-120.33 4135.5,-133.97 4194.5,-133.97 4245.2,-133.97 4263.1,-123.89 4248.1,-113.53"/>
<polygon fill="black" stroke="black" points="4249.95,-110.55 4239.45,-109.15 4246.79,-116.79 4249.95,-110.55"/>
<text text-anchor="middle" x="4194.5" y="-155.17" font-family="Times,serif" font-size="14.00">content/λ:74</text>
<text text-anchor="middle" x="4194.5" y="-137.92" font-family="Times,serif" font-size="14.00">a0 = b0</text>
</g>
<!-- q17:44 -->
<g id="node23" class="node">
<title>q17:44</title>
<ellipse fill="none" stroke="black" stroke-width="2" cx="4827.3" cy="-127.97" rx="45.95" ry="18"/>
<text text-anchor="middle" x="4827.3" y="-123.29" font-family="Times,serif" font-size="14.00">q17:44</text>
</g>
<!-- q13:142&#45;&gt;q17:44 -->
<g id="edge25" class="edge">
<title>q13:142&#45;&gt;q17:44</title>
<path fill="none" stroke="black" d="M4247.1,-100.42C4364,-105.98 4648.1,-119.49 4769.7,-125.27"/>
<polygon fill="black" stroke="black" points="4769.23,-128.75 4779.39,-125.73 4769.57,-121.76 4769.23,-128.75"/>
<text text-anchor="middle" x="4507.8" y="-128.92" font-family="Times,serif" font-size="14.00">content/554:44</text>
</g>
<!-- q18:24 -->
<g id="node24" class="node">
<title>q18:24</title>
<ellipse fill="none" stroke="black" stroke-width="2" cx="4827.3" cy="-73.97" rx="45.95" ry="18"/>
<text text-anchor="middle" x="4827.3" y="-69.29" font-family="Times,serif" font-size="14.00">q18:24</text>
</g>
<!-- q13:142&#45;&gt;q18:24 -->
<g id="edge26" class="edge">
<title>q13:142&#45;&gt;q18:24</title>
<path fill="none" stroke="black" d="M4238.1,-87.17C4246.9,-85.35 4256.1,-83.73 4264.8,-82.72 4448.5,-61.28 4668.3,-66.81 4769.8,-71.11"/>
<polygon fill="black" stroke="black" points="4769.34,-74.59 4779.49,-71.53 4769.65,-67.6 4769.34,-74.59"/>
<text text-anchor="middle" x="4507.8" y="-86.92" font-family="Times,serif" font-size="14.00">content/250:24</text>
</g>
<!-- q22:44 -->
<g id="node25" class="node">
<title>q22:44</title>
<ellipse fill="none" stroke="black" stroke-width="2" cx="5407.7" cy="-129.97" rx="45.95" ry="18"/>
<text text-anchor="middle" x="5407.7" y="-125.29" font-family="Times,serif" font-size="14.00">q22:44</text>
</g>
<!-- q17:44&#45;&gt;q22:44 -->
<g id="edge27" class="edge">
<title>q17:44&#45;&gt;q22:44</title>
<path fill="none" stroke="black" d="M4874.2,-128.12C4978.8,-128.49 5234.8,-129.37 5349.5,-129.77"/>
<polygon fill="black" stroke="black" points="5349.27,-133.27 5359.29,-129.8 5349.3,-126.27 5349.27,-133.27"/>
<text text-anchor="middle" x="5120.7" y="-151.17" font-family="Times,serif" font-size="14.00">RSET/250:44</text>
<text text-anchor="middle" x="5120.7" y="-133.92" font-family="Times,serif" font-size="14.00">b0 = OK</text>
</g>
<!-- q23:24 -->
<g id="node26" class="node">
<title>q23:24</title>
<ellipse fill="none" stroke="black" stroke-width="2" cx="5407.7" cy="-71.97" rx="45.95" ry="18"/>
<text text-anchor="middle" x="5407.7" y="-67.29" font-family="Times,serif" font-size="14.00">q23:24</text>
</g>
<!-- q18:24&#45;&gt;q23:24 -->
<g id="edge28" class="edge">
<title>q18:24&#45;&gt;q23:24</title>
<path fill="none" stroke="black" d="M4874.2,-73.81C4978.8,-73.45 5234.8,-72.56 5349.5,-72.16"/>
<polygon fill="black" stroke="black" points="5349.3,-75.66 5359.29,-72.13 5349.27,-68.66 5349.3,-75.66"/>
<text text-anchor="middle" x="5120.7" y="-95.17" font-family="Times,serif" font-size="14.00">QUIT/221:24</text>
<text text-anchor="middle" x="5120.7" y="-77.92" font-family="Times,serif" font-size="14.00">b0 in {&#39;Bye&#39;, &#39;smtp&#45;97&#45;27.smtpsmail.fmail.bx.sinanode.com&#39;}</text>
</g>
<!-- q0:244 -->
<g id="node27" class="node">
<title>q0:244</title>
<ellipse fill="none" stroke="black" stroke-width="2" cx="53.95" cy="-170.97" rx="49.95" ry="49.95"/>
<ellipse fill="none" stroke="black" stroke-width="2" cx="53.95" cy="-170.97" rx="53.95" ry="53.95"/>
<text text-anchor="middle" x="53.95" y="-166.29" font-family="Times,serif" font-size="14.00">q0:244</text>
</g>
<!-- q0:244&#45;&gt;q1:244 -->
<g id="edge29" class="edge">
<title>q0:244&#45;&gt;q1:244</title>
<path fill="none" stroke="black" d="M104.85,-170.97C133.64,-170.97 169.94,-170.97 199.84,-170.97"/>
<polygon fill="black" stroke="black" points="199.45,-174.47 209.45,-170.97 199.45,-167.47 199.45,-174.47"/>
<text text-anchor="middle" x="157.89" y="-174.91" font-family="Times,serif" font-size="14.00">λ/220:244</text>
</g>
</g>
</svg>
