<?xml version="1.0" encoding="UTF-8" standalone="no"?>
<!DOCTYPE svg PUBLIC "-//W3C//DTD SVG 1.1//EN"
 "http://www.w3.org/Graphics/SVG/1.1/DTD/svg11.dtd">
<!-- Generated by graphviz version 12.0.0 (20240803.0821)
 -->
<!-- Pages: 1 -->
<svg width="2216pt" height="294pt"
 viewBox="0.00 0.00 2216.45 294.00" xmlns="http://www.w3.org/2000/svg" xmlns:xlink="http://www.w3.org/1999/xlink">
<g id="graph0" class="graph" transform="scale(1 1) rotate(0) translate(4 290)">
<polygon fill="white" stroke="none" points="-4,4 -4,-290 2212.45,-290 2212.45,4 -4,4"/>
<!-- q1:243 -->
<g id="node1" class="node">
<title>q1:243</title>
<ellipse fill="none" stroke="black" stroke-width="2" cx="257.84" cy="-89" rx="45.95" ry="18"/>
<text text-anchor="middle" x="257.84" y="-84.33" font-family="Times,serif" font-size="14.00">q1:243</text>
</g>
<!-- q2:2 -->
<g id="node2" class="node">
<title>q2:2</title>
<ellipse fill="none" stroke="black" stroke-width="2" cx="491.48" cy="-62" rx="33.32" ry="18"/>
<text text-anchor="middle" x="491.48" y="-57.33" font-family="Times,serif" font-size="14.00">q2:2</text>
</g>
<!-- q1:243&#45;&gt;q2:2 -->
<g id="edge1" class="edge">
<title>q1:243&#45;&gt;q2:2</title>
<path fill="none" stroke="black" d="M298.66,-79.83C306.31,-78.29 314.27,-76.84 321.79,-75.75 363.67,-69.66 411.82,-66.07 445.93,-64.1"/>
<polygon fill="black" stroke="black" points="446.07,-67.59 455.86,-63.55 445.68,-60.6 446.07,-67.59"/>
<text text-anchor="middle" x="374.66" y="-79.95" font-family="Times,serif" font-size="14.00">EHLO/λ:2</text>
</g>
<!-- q3:241 -->
<g id="node3" class="node">
<title>q3:241</title>
<ellipse fill="none" stroke="black" stroke-width="2" cx="491.48" cy="-122" rx="45.95" ry="18"/>
<text text-anchor="middle" x="491.48" y="-117.33" font-family="Times,serif" font-size="14.00">q3:241</text>
</g>
<!-- q1:243&#45;&gt;q3:241 -->
<g id="edge2" class="edge">
<title>q1:243&#45;&gt;q3:241</title>
<path fill="none" stroke="black" d="M302.14,-95.17C340,-100.56 395.17,-108.42 436.02,-114.24"/>
<polygon fill="black" stroke="black" points="435.51,-117.7 445.9,-115.65 436.49,-110.77 435.51,-117.7"/>
<text text-anchor="middle" x="374.66" y="-116.95" font-family="Times,serif" font-size="14.00">EHLO/250:241</text>
</g>
<!-- q4:232 -->
<g id="node4" class="node">
<title>q4:232</title>
<ellipse fill="none" stroke="black" stroke-width="2" cx="725.13" cy="-55" rx="45.95" ry="18"/>
<text text-anchor="middle" x="725.13" y="-50.33" font-family="Times,serif" font-size="14.00">q4:232</text>
</g>
<!-- q2:2&#45;&gt;q4:232 -->
<g id="edge3" class="edge">
<title>q2:2&#45;&gt;q4:232</title>
<path fill="none" stroke="black" d="M523.05,-54.83C533.28,-52.76 544.79,-50.78 555.43,-49.75 593,-46.13 635.47,-47.48 668.4,-49.72"/>
<polygon fill="black" stroke="black" points="667.89,-53.19 678.12,-50.43 668.4,-46.21 667.89,-53.19"/>
<text text-anchor="middle" x="608.31" y="-53.95" font-family="Times,serif" font-size="14.00">AUTH/235:2</text>
</g>
<!-- q3:241&#45;&gt;q4:232 -->
<g id="edge4" class="edge">
<title>q3:241&#45;&gt;q4:232</title>
<path fill="none" stroke="black" d="M528.03,-110.29C536.95,-107.42 546.52,-104.42 555.43,-101.75 595.45,-89.77 641.14,-77.18 674.86,-68.08"/>
<polygon fill="black" stroke="black" points="675.6,-71.51 684.35,-65.53 673.78,-64.75 675.6,-71.51"/>
<text text-anchor="middle" x="608.31" y="-105.95" font-family="Times,serif" font-size="14.00">AUTH/235:230</text>
</g>
<!-- q5:1 -->
<g id="node5" class="node">
<title>q5:1</title>
<ellipse fill="none" stroke="black" stroke-width="2" cx="725.13" cy="-125" rx="33.32" ry="18"/>
<text text-anchor="middle" x="725.13" y="-120.33" font-family="Times,serif" font-size="14.00">q5:1</text>
</g>
<!-- q3:241&#45;&gt;q5:1 -->
<g id="edge5" class="edge">
<title>q3:241&#45;&gt;q5:1</title>
<path fill="none" stroke="black" d="M538.25,-122.59C579.17,-123.12 638.78,-123.89 679.39,-124.42"/>
<polygon fill="black" stroke="black" points="679.26,-127.92 689.31,-124.55 679.35,-120.92 679.26,-127.92"/>
<text text-anchor="middle" x="608.31" y="-127.95" font-family="Times,serif" font-size="14.00">AUTH/λ:1</text>
</g>
<!-- q6:10 -->
<g id="node6" class="node">
<title>q6:10</title>
<ellipse fill="none" stroke="black" stroke-width="2" cx="725.13" cy="-179" rx="39.63" ry="18"/>
<text text-anchor="middle" x="725.13" y="-174.32" font-family="Times,serif" font-size="14.00">q6:10</text>
</g>
<!-- q3:241&#45;&gt;q6:10 -->
<g id="edge6" class="edge">
<title>q3:241&#45;&gt;q6:10</title>
<path fill="none" stroke="black" d="M525.17,-135.01C534.82,-138.56 545.46,-142.19 555.43,-145 595.35,-156.25 641.58,-165.29 675.53,-171.22"/>
<polygon fill="black" stroke="black" points="674.61,-174.61 685.06,-172.85 675.79,-167.71 674.61,-174.61"/>
<text text-anchor="middle" x="608.31" y="-171.94" font-family="Times,serif" font-size="14.00">AUTH/535:10</text>
</g>
<!-- q8:234 -->
<g id="node7" class="node">
<title>q8:234</title>
<ellipse fill="none" stroke="black" stroke-width="2" cx="954.27" cy="-112" rx="45.95" ry="18"/>
<text text-anchor="middle" x="954.27" y="-107.33" font-family="Times,serif" font-size="14.00">q8:234</text>
</g>
<!-- q4:232&#45;&gt;q8:234 -->
<g id="edge7" class="edge">
<title>q4:232&#45;&gt;q8:234</title>
<path fill="none" stroke="black" d="M766.03,-64.31C799.33,-72.16 848.01,-83.83 890.33,-94.75 894.89,-95.93 899.64,-97.18 904.38,-98.45"/>
<polygon fill="black" stroke="black" points="903.34,-101.79 913.91,-101.03 905.17,-95.04 903.34,-101.79"/>
<text text-anchor="middle" x="839.7" y="-98.95" font-family="Times,serif" font-size="14.00">MAIL/250:230</text>
</g>
<!-- q7:2 -->
<g id="node8" class="node">
<title>q7:2</title>
<ellipse fill="none" stroke="black" stroke-width="2" cx="954.27" cy="-43" rx="33.32" ry="18"/>
<text text-anchor="middle" x="954.27" y="-38.33" font-family="Times,serif" font-size="14.00">q7:2</text>
</g>
<!-- q4:232&#45;&gt;q7:2 -->
<g id="edge8" class="edge">
<title>q4:232&#45;&gt;q7:2</title>
<path fill="none" stroke="black" d="M768,-47.28C775.02,-46.24 782.24,-45.34 789.08,-44.75 829.6,-41.26 875.96,-41.11 909.06,-41.67"/>
<polygon fill="black" stroke="black" points="908.6,-45.16 918.67,-41.86 908.74,-38.16 908.6,-45.16"/>
<text text-anchor="middle" x="839.7" y="-48.95" font-family="Times,serif" font-size="14.00">MAIL/553:2</text>
</g>
<!-- q5:1&#45;&gt;q8:234 -->
<g id="edge9" class="edge">
<title>q5:1&#45;&gt;q8:234</title>
<path fill="none" stroke="black" d="M759.16,-123.11C795.19,-121.05 853.5,-117.71 896.82,-115.23"/>
<polygon fill="black" stroke="black" points="896.75,-118.74 906.54,-114.68 896.36,-111.75 896.75,-118.74"/>
<text text-anchor="middle" x="839.7" y="-125.95" font-family="Times,serif" font-size="14.00">MAIL/250:1</text>
</g>
<!-- q9:10 -->
<g id="node9" class="node">
<title>q9:10</title>
<ellipse fill="none" stroke="black" stroke-width="2" cx="954.27" cy="-188" rx="39.63" ry="18"/>
<text text-anchor="middle" x="954.27" y="-183.32" font-family="Times,serif" font-size="14.00">q9:10</text>
</g>
<!-- q6:10&#45;&gt;q9:10 -->
<g id="edge10" class="edge">
<title>q6:10&#45;&gt;q9:10</title>
<path fill="none" stroke="black" d="M765.43,-180.56C803.42,-182.06 861.15,-184.35 902.58,-185.99"/>
<polygon fill="black" stroke="black" points="902.43,-189.49 912.56,-186.39 902.71,-182.49 902.43,-189.49"/>
<text text-anchor="middle" x="839.7" y="-188.94" font-family="Times,serif" font-size="14.00">AUTH/334:10</text>
</g>
<!-- q11:234 -->
<g id="node10" class="node">
<title>q11:234</title>
<ellipse fill="none" stroke="black" stroke-width="2" cx="1196.5" cy="-147" rx="52.26" ry="18"/>
<text text-anchor="middle" x="1196.5" y="-142.32" font-family="Times,serif" font-size="14.00">q11:234</text>
</g>
<!-- q8:234&#45;&gt;q11:234 -->
<g id="edge11" class="edge">
<title>q8:234&#45;&gt;q11:234</title>
<path fill="none" stroke="black" d="M998.49,-118.3C1036.8,-123.89 1093.3,-132.1 1135.9,-138.32"/>
<polygon fill="black" stroke="black" points="1135.3,-141.77 1145.7,-139.75 1136.31,-134.84 1135.3,-141.77"/>
<text text-anchor="middle" x="1072.2" y="-139.94" font-family="Times,serif" font-size="14.00">RCPT/250:234</text>
</g>
<!-- q10:2 -->
<g id="node11" class="node">
<title>q10:2</title>
<ellipse fill="none" stroke="black" stroke-width="2" cx="1196.5" cy="-40" rx="39.63" ry="18"/>
<text text-anchor="middle" x="1196.5" y="-35.33" font-family="Times,serif" font-size="14.00">q10:2</text>
</g>
<!-- q7:2&#45;&gt;q10:2 -->
<g id="edge12" class="edge">
<title>q7:2&#45;&gt;q10:2</title>
<path fill="none" stroke="black" d="M988.42,-42.59C1028.8,-42.08 1097.3,-41.23 1144.4,-40.64"/>
<polygon fill="black" stroke="black" points="1144.43,-44.14 1154.39,-40.51 1144.34,-37.14 1144.43,-44.14"/>
<text text-anchor="middle" x="1072.2" y="-46.95" font-family="Times,serif" font-size="14.00">RSET/250:2</text>
</g>
<!-- q12:10 -->
<g id="node18" class="node">
<title>q12:10</title>
<ellipse fill="none" stroke="black" stroke-width="2" cx="1196.5" cy="-235" rx="45.95" ry="18"/>
<text text-anchor="middle" x="1196.5" y="-230.32" font-family="Times,serif" font-size="14.00">q12:10</text>
</g>
<!-- q9:10&#45;&gt;q12:10 -->
<g id="edge21" class="edge">
<title>q9:10&#45;&gt;q12:10</title>
<path fill="none" stroke="black" d="M991.75,-195.14C1032,-203.02 1097.3,-215.78 1143,-224.74"/>
<polygon fill="black" stroke="black" points="1142.23,-228.16 1152.71,-226.64 1143.57,-221.29 1142.23,-228.16"/>
<text text-anchor="middle" x="1072.2" y="-224.94" font-family="Times,serif" font-size="14.00">content/535:10</text>
</g>
<!-- q13:143 -->
<g id="node12" class="node">
<title>q13:143</title>
<ellipse fill="none" stroke="black" stroke-width="2" cx="1439.8" cy="-92" rx="52.26" ry="18"/>
<text text-anchor="middle" x="1439.8" y="-87.33" font-family="Times,serif" font-size="14.00">q13:143</text>
</g>
<!-- q11:234&#45;&gt;q13:143 -->
<g id="edge13" class="edge">
<title>q11:234&#45;&gt;q13:143</title>
<path fill="none" stroke="black" d="M1241.7,-137.03C1276.4,-129.18 1326.1,-117.94 1369.5,-108 1374.1,-106.95 1378.9,-105.85 1383.7,-104.75"/>
<polygon fill="black" stroke="black" points="1384.37,-108.19 1393.32,-102.52 1382.79,-101.37 1384.37,-108.19"/>
<text text-anchor="middle" x="1318.1" y="-134.94" font-family="Times,serif" font-size="14.00">RCPT/250:143</text>
</g>
<!-- q14:165 -->
<g id="node13" class="node">
<title>q14:165</title>
<ellipse fill="none" stroke="black" stroke-width="2" cx="1439.8" cy="-179" rx="52.26" ry="18"/>
<text text-anchor="middle" x="1439.8" y="-174.32" font-family="Times,serif" font-size="14.00">q14:165</text>
</g>
<!-- q11:234&#45;&gt;q14:165 -->
<g id="edge14" class="edge">
<title>q11:234&#45;&gt;q14:165</title>
<path fill="none" stroke="black" d="M1246.3,-153.48C1284.6,-158.55 1338,-165.63 1378.8,-171.05"/>
<polygon fill="black" stroke="black" points="1378.13,-174.49 1388.5,-172.33 1379.04,-167.55 1378.13,-174.49"/>
<text text-anchor="middle" x="1318.1" y="-172.94" font-family="Times,serif" font-size="14.00">DATA/354:91</text>
</g>
<!-- q13:143&#45;&gt;q8:234 -->
<g id="edge15" class="edge">
<title>q13:143&#45;&gt;q8:234</title>
<path fill="none" stroke="black" d="M1386.9,-93.7C1328,-95.67 1229.2,-99.12 1144.2,-102.75 1099.8,-104.65 1049.4,-107.13 1011.9,-109.04"/>
<polygon fill="black" stroke="black" points="1012.02,-105.53 1002.21,-109.54 1012.38,-112.52 1012.02,-105.53"/>
<text text-anchor="middle" x="1196.5" y="-106.95" font-family="Times,serif" font-size="14.00">RCPT/250:3</text>
</g>
<!-- q16:2532 -->
<g id="node14" class="node">
<title>q16:2532</title>
<ellipse fill="none" stroke="black" stroke-width="2" cx="1694.6" cy="-91" rx="58.57" ry="18"/>
<text text-anchor="middle" x="1694.6" y="-86.33" font-family="Times,serif" font-size="14.00">q16:2532</text>
</g>
<!-- q13:143&#45;&gt;q16:2532 -->
<g id="edge16" class="edge">
<title>q13:143&#45;&gt;q16:2532</title>
<path fill="none" stroke="black" d="M1492.8,-91.79C1530.8,-91.64 1582.5,-91.44 1624,-91.28"/>
<polygon fill="black" stroke="black" points="1623.9,-94.78 1633.89,-91.24 1623.87,-87.78 1623.9,-94.78"/>
<text text-anchor="middle" x="1564" y="-95.95" font-family="Times,serif" font-size="14.00">DATA/354:97</text>
</g>
<!-- q17:43 -->
<g id="node15" class="node">
<title>q17:43</title>
<ellipse fill="none" stroke="black" stroke-width="2" cx="1694.6" cy="-37" rx="45.95" ry="18"/>
<text text-anchor="middle" x="1694.6" y="-32.33" font-family="Times,serif" font-size="14.00">q17:43</text>
</g>
<!-- q13:143&#45;&gt;q17:43 -->
<g id="edge17" class="edge">
<title>q13:143&#45;&gt;q17:43</title>
<path fill="none" stroke="black" d="M1479,-79.4C1489,-76.33 1499.9,-73.23 1510,-70.75 1553.2,-60.19 1602.9,-51.24 1639.7,-45.23"/>
<polygon fill="black" stroke="black" points="1639.8,-48.76 1649.11,-43.7 1638.67,-41.85 1639.8,-48.76"/>
<text text-anchor="middle" x="1564" y="-74.95" font-family="Times,serif" font-size="14.00">DATA/550:43</text>
</g>
<!-- q14:165&#45;&gt;q14:165 -->
<g id="edge18" class="edge">
<title>q14:165&#45;&gt;q14:165</title>
<path fill="none" stroke="black" d="M1418.2,-196.04C1413.8,-205.86 1421,-215 1439.8,-215 1450.6,-215 1457.6,-211.94 1460.7,-207.47"/>
<polygon fill="black" stroke="black" points="1464.19,-207.72 1461.22,-197.55 1457.2,-207.35 1464.19,-207.72"/>
<text text-anchor="middle" x="1439.8" y="-218.94" font-family="Times,serif" font-size="14.00">content/λ:74</text>
</g>
<!-- q18:24 -->
<g id="node16" class="node">
<title>q18:24</title>
<ellipse fill="none" stroke="black" stroke-width="2" cx="1694.6" cy="-234" rx="45.95" ry="18"/>
<text text-anchor="middle" x="1694.6" y="-229.32" font-family="Times,serif" font-size="14.00">q18:24</text>
</g>
<!-- q14:165&#45;&gt;q18:24 -->
<g id="edge19" class="edge">
<title>q14:165&#45;&gt;q18:24</title>
<path fill="none" stroke="black" d="M1479.4,-191.54C1489.3,-194.53 1500,-197.56 1510,-200 1553.2,-210.52 1602.9,-219.54 1639.7,-225.64"/>
<polygon fill="black" stroke="black" points="1638.67,-229.02 1649.11,-227.18 1639.81,-222.11 1638.67,-229.02"/>
<text text-anchor="middle" x="1564" y="-224.94" font-family="Times,serif" font-size="14.00">content/250:24</text>
</g>
<!-- q19:67 -->
<g id="node17" class="node">
<title>q19:67</title>
<ellipse fill="none" stroke="black" stroke-width="2" cx="1694.6" cy="-180" rx="45.95" ry="18"/>
<text text-anchor="middle" x="1694.6" y="-175.32" font-family="Times,serif" font-size="14.00">q19:67</text>
</g>
<!-- q14:165&#45;&gt;q19:67 -->
<g id="edge20" class="edge">
<title>q14:165&#45;&gt;q19:67</title>
<path fill="none" stroke="black" d="M1492.8,-179.21C1534.7,-179.37 1593.4,-179.6 1636.5,-179.77"/>
<polygon fill="black" stroke="black" points="1636.37,-183.27 1646.39,-179.81 1636.4,-176.27 1636.37,-183.27"/>
<text text-anchor="middle" x="1564" y="-182.94" font-family="Times,serif" font-size="14.00">content/554:67</text>
</g>
<!-- q16:2532&#45;&gt;q16:2532 -->
<g id="edge26" class="edge">
<title>q16:2532&#45;&gt;q16:2532</title>
<path fill="none" stroke="black" d="M1671.3,-108.41C1666.9,-118.09 1674.7,-127 1694.6,-127 1706.1,-127 1713.5,-124.02 1716.9,-119.64"/>
<polygon fill="black" stroke="black" points="1720.36,-120.19 1717.77,-109.92 1713.39,-119.57 1720.36,-120.19"/>
<text text-anchor="middle" x="1694.6" y="-130.94" font-family="Times,serif" font-size="14.00">content/λ:2435</text>
</g>
<!-- q21:1 -->
<g id="node20" class="node">
<title>q21:1</title>
<ellipse fill="none" stroke="black" stroke-width="2" cx="1943.1" cy="-72" rx="39.63" ry="18"/>
<text text-anchor="middle" x="1943.1" y="-67.33" font-family="Times,serif" font-size="14.00">q21:1</text>
</g>
<!-- q16:2532&#45;&gt;q21:1 -->
<g id="edge25" class="edge">
<title>q16:2532&#45;&gt;q21:1</title>
<path fill="none" stroke="black" d="M1751.3,-85.48C1758,-84.87 1764.7,-84.28 1771.2,-83.75 1811.8,-80.41 1857.9,-77.28 1892,-75.09"/>
<polygon fill="black" stroke="black" points="1891.73,-78.61 1901.49,-74.48 1891.29,-71.63 1891.73,-78.61"/>
<text text-anchor="middle" x="1825.2" y="-87.95" font-family="Times,serif" font-size="14.00">content/550:1</text>
</g>
<!-- q22:89 -->
<g id="node23" class="node">
<title>q22:89</title>
<ellipse fill="none" stroke="black" stroke-width="2" cx="1943.1" cy="-18" rx="45.95" ry="18"/>
<text text-anchor="middle" x="1943.1" y="-13.32" font-family="Times,serif" font-size="14.00">q22:89</text>
</g>
<!-- q16:2532&#45;&gt;q22:89 -->
<g id="edge27" class="edge">
<title>q16:2532&#45;&gt;q22:89</title>
<path fill="none" stroke="black" d="M1728.6,-75.49C1748.4,-66.22 1770,-56.15 1771.2,-55.75 1809.4,-42.77 1854.1,-33.09 1888.1,-26.79"/>
<polygon fill="black" stroke="black" points="1888.49,-30.27 1897.71,-25.04 1887.25,-23.38 1888.49,-30.27"/>
<text text-anchor="middle" x="1825.2" y="-59.95" font-family="Times,serif" font-size="14.00">content/250:89</text>
</g>
<!-- q20:7 -->
<g id="node24" class="node">
<title>q20:7</title>
<ellipse fill="none" stroke="black" stroke-width="2" cx="1943.1" cy="-126" rx="39.63" ry="18"/>
<text text-anchor="middle" x="1943.1" y="-121.33" font-family="Times,serif" font-size="14.00">q20:7</text>
</g>
<!-- q16:2532&#45;&gt;q20:7 -->
<g id="edge28" class="edge">
<title>q16:2532&#45;&gt;q20:7</title>
<path fill="none" stroke="black" d="M1749.1,-98.59C1791.9,-104.68 1851.5,-113.14 1893.1,-119.05"/>
<polygon fill="black" stroke="black" points="1892.51,-122.5 1902.9,-120.43 1893.49,-115.57 1892.51,-122.5"/>
<text text-anchor="middle" x="1825.2" y="-120.95" font-family="Times,serif" font-size="14.00">content/554:7</text>
</g>
<!-- q23:24 -->
<g id="node27" class="node">
<title>q23:24</title>
<ellipse fill="none" stroke="black" stroke-width="2" cx="1943.1" cy="-234" rx="45.95" ry="18"/>
<text text-anchor="middle" x="1943.1" y="-229.32" font-family="Times,serif" font-size="14.00">q23:24</text>
</g>
<!-- q18:24&#45;&gt;q23:24 -->
<g id="edge31" class="edge">
<title>q18:24&#45;&gt;q23:24</title>
<path fill="none" stroke="black" d="M1741.4,-234C1782,-234 1841.6,-234 1885.3,-234"/>
<polygon fill="black" stroke="black" points="1885.09,-237.5 1895.09,-234 1885.09,-230.5 1885.09,-237.5"/>
<text text-anchor="middle" x="1825.2" y="-237.94" font-family="Times,serif" font-size="14.00">QUIT/221:24</text>
</g>
<!-- q24:67 -->
<g id="node28" class="node">
<title>q24:67</title>
<ellipse fill="none" stroke="black" stroke-width="2" cx="1943.1" cy="-180" rx="45.95" ry="18"/>
<text text-anchor="middle" x="1943.1" y="-175.32" font-family="Times,serif" font-size="14.00">q24:67</text>
</g>
<!-- q19:67&#45;&gt;q24:67 -->
<g id="edge32" class="edge">
<title>q19:67&#45;&gt;q24:67</title>
<path fill="none" stroke="black" d="M1741.4,-180C1782,-180 1841.6,-180 1885.3,-180"/>
<polygon fill="black" stroke="black" points="1885.09,-183.5 1895.09,-180 1885.09,-176.5 1885.09,-183.5"/>
<text text-anchor="middle" x="1825.2" y="-183.94" font-family="Times,serif" font-size="14.00">RSET/250:67</text>
</g>
<!-- q15:4 -->
<g id="node19" class="node">
<title>q15:4</title>
<ellipse fill="none" stroke="black" stroke-width="2" cx="1439.8" cy="-268" rx="39.63" ry="18"/>
<text text-anchor="middle" x="1439.8" y="-263.32" font-family="Times,serif" font-size="14.00">q15:4</text>
</g>
<!-- q12:10&#45;&gt;q15:4 -->
<g id="edge22" class="edge">
<title>q12:10&#45;&gt;q15:4</title>
<path fill="none" stroke="black" d="M1240.9,-240.94C1282.7,-246.66 1346,-255.31 1389.6,-261.28"/>
<polygon fill="black" stroke="black" points="1388.92,-264.72 1399.3,-262.61 1389.87,-257.78 1388.92,-264.72"/>
<text text-anchor="middle" x="1318.1" y="-261.94" font-family="Times,serif" font-size="14.00">λ/451:4</text>
</g>
<!-- q26:1 -->
<g id="node21" class="node">
<title>q26:1</title>
<ellipse fill="none" stroke="black" stroke-width="2" cx="2162.5" cy="-72" rx="39.63" ry="18"/>
<text text-anchor="middle" x="2162.5" y="-67.33" font-family="Times,serif" font-size="14.00">q26:1</text>
</g>
<!-- q21:1&#45;&gt;q26:1 -->
<g id="edge23" class="edge">
<title>q21:1&#45;&gt;q26:1</title>
<path fill="none" stroke="black" d="M1983.7,-72C2019.5,-72 2072.3,-72 2111.1,-72"/>
<polygon fill="black" stroke="black" points="2110.69,-75.5 2120.69,-72 2110.69,-68.5 2110.69,-75.5"/>
<text text-anchor="middle" x="2052.8" y="-75.95" font-family="Times,serif" font-size="14.00">RSET/250:1</text>
</g>
<!-- q0:243 -->
<g id="node22" class="node">
<title>q0:243</title>
<ellipse fill="none" stroke="black" stroke-width="2" cx="53.95" cy="-89" rx="49.95" ry="49.95"/>
<ellipse fill="none" stroke="black" stroke-width="2" cx="53.95" cy="-89" rx="53.95" ry="53.95"/>
<text text-anchor="middle" x="53.95" y="-84.33" font-family="Times,serif" font-size="14.00">q0:243</text>
</g>
<!-- q0:243&#45;&gt;q1:243 -->
<g id="edge24" class="edge">
<title>q0:243&#45;&gt;q1:243</title>
<path fill="none" stroke="black" d="M104.85,-89C133.64,-89 169.94,-89 199.84,-89"/>
<polygon fill="black" stroke="black" points="199.45,-92.5 209.45,-89 199.45,-85.5 199.45,-92.5"/>
<text text-anchor="middle" x="157.89" y="-92.95" font-family="Times,serif" font-size="14.00">λ/220:243</text>
</g>
<!-- q27:89 -->
<g id="node25" class="node">
<title>q27:89</title>
<ellipse fill="none" stroke="black" stroke-width="2" cx="2162.5" cy="-18" rx="45.95" ry="18"/>
<text text-anchor="middle" x="2162.5" y="-13.32" font-family="Times,serif" font-size="14.00">q27:89</text>
</g>
<!-- q22:89&#45;&gt;q27:89 -->
<g id="edge29" class="edge">
<title>q22:89&#45;&gt;q27:89</title>
<path fill="none" stroke="black" d="M1989.9,-18C2023.3,-18 2068.8,-18 2104.5,-18"/>
<polygon fill="black" stroke="black" points="2104.19,-21.5 2114.19,-18 2104.19,-14.5 2104.19,-21.5"/>
<text text-anchor="middle" x="2052.8" y="-21.95" font-family="Times,serif" font-size="14.00">QUIT/221:89</text>
</g>
<!-- q25:7 -->
<g id="node26" class="node">
<title>q25:7</title>
<ellipse fill="none" stroke="black" stroke-width="2" cx="2162.5" cy="-126" rx="39.63" ry="18"/>
<text text-anchor="middle" x="2162.5" y="-121.33" font-family="Times,serif" font-size="14.00">q25:7</text>
</g>
<!-- q20:7&#45;&gt;q25:7 -->
<g id="edge30" class="edge">
<title>q20:7&#45;&gt;q25:7</title>
<path fill="none" stroke="black" d="M1983.7,-126C2019.5,-126 2072.3,-126 2111.1,-126"/>
<polygon fill="black" stroke="black" points="2110.69,-129.5 2120.69,-126 2110.69,-122.5 2110.69,-129.5"/>
<text text-anchor="middle" x="2052.8" y="-129.94" font-family="Times,serif" font-size="14.00">RSET/250:7</text>
</g>
</g>
</svg>
