<?xml version="1.0" encoding="UTF-8" standalone="no"?>
<!DOCTYPE svg PUBLIC "-//W3C//DTD SVG 1.1//EN"
 "http://www.w3.org/Graphics/SVG/1.1/DTD/svg11.dtd">
<!-- Generated by graphviz version 12.0.0 (20240803.0821)
 -->
<!-- Pages: 1 -->
<svg width="2260pt" height="336pt"
 viewBox="0.00 0.00 2260.06 336.00" xmlns="http://www.w3.org/2000/svg" xmlns:xlink="http://www.w3.org/1999/xlink">
<g id="graph0" class="graph" transform="scale(1 1) rotate(0) translate(4 332)">
<polygon fill="white" stroke="none" points="-4,4 -4,-332 2256.06,-332 2256.06,4 -4,4"/>
<!-- q14:162 -->
<g id="node1" class="node">
<title>q14:162</title>
<ellipse fill="none" stroke="black" stroke-width="2" cx="731.44" cy="-175" rx="52.26" ry="18"/>
<text text-anchor="middle" x="731.44" y="-170.32" font-family="Times,serif" font-size="14.00">q14:162</text>
</g>
<!-- q16:3264 -->
<g id="node2" class="node">
<title>q16:3264</title>
<ellipse fill="none" stroke="black" stroke-width="2" cx="1694.9" cy="-210" rx="58.57" ry="18"/>
<text text-anchor="middle" x="1694.9" y="-205.32" font-family="Times,serif" font-size="14.00">q16:3264</text>
</g>
<!-- q14:162&#45;&gt;q16:3264 -->
<g id="edge1" class="edge">
<title>q14:162&#45;&gt;q16:3264</title>
<path fill="none" stroke="black" d="M775.75,-185.22C823.4,-195.55 902.38,-210 971.33,-210 971.33,-210 971.33,-210 1447.4,-210 1507.1,-210 1574.8,-210 1624.2,-210"/>
<polygon fill="black" stroke="black" points="1624.19,-213.5 1634.19,-210 1624.19,-206.5 1624.19,-213.5"/>
<text text-anchor="middle" x="1220" y="-213.94" font-family="Times,serif" font-size="14.00">DATA/354:121</text>
</g>
<!-- q7:232 -->
<g id="node3" class="node">
<title>q7:232</title>
<ellipse fill="none" stroke="black" stroke-width="2" cx="972.33" cy="-102" rx="45.95" ry="18"/>
<text text-anchor="middle" x="972.33" y="-97.33" font-family="Times,serif" font-size="14.00">q7:232</text>
</g>
<!-- q14:162&#45;&gt;q7:232 -->
<g id="edge2" class="edge">
<title>q14:162&#45;&gt;q7:232</title>
<path fill="none" stroke="black" d="M758.98,-158.96C771.56,-151.92 787.03,-144.07 801.7,-138.75 807.34,-136.71 871.59,-122.99 919.36,-112.91"/>
<polygon fill="black" stroke="black" points="919.95,-116.36 929.01,-110.87 918.5,-109.51 919.95,-116.36"/>
<text text-anchor="middle" x="852.33" y="-141.94" font-family="Times,serif" font-size="14.00">RCPT/250:3</text>
</g>
<!-- q19:38 -->
<g id="node4" class="node">
<title>q19:38</title>
<ellipse fill="none" stroke="black" stroke-width="2" cx="972.33" cy="-256" rx="45.95" ry="18"/>
<text text-anchor="middle" x="972.33" y="-251.32" font-family="Times,serif" font-size="14.00">q19:38</text>
</g>
<!-- q14:162&#45;&gt;q19:38 -->
<g id="edge3" class="edge">
<title>q14:162&#45;&gt;q19:38</title>
<path fill="none" stroke="black" d="M751.96,-192.29C765.14,-203.03 783.4,-216.24 801.7,-224 837.77,-239.3 881.23,-247.31 915.13,-251.5"/>
<polygon fill="black" stroke="black" points="914.4,-254.94 924.74,-252.61 915.2,-247.99 914.4,-254.94"/>
<text text-anchor="middle" x="852.33" y="-252.94" font-family="Times,serif" font-size="14.00">DATA/550:38</text>
</g>
<!-- q16:3264&#45;&gt;q16:3264 -->
<g id="edge4" class="edge">
<title>q16:3264&#45;&gt;q16:3264</title>
<path fill="none" stroke="black" d="M1671.6,-227.41C1667.3,-237.09 1675,-246 1694.9,-246 1706.4,-246 1713.9,-243.02 1717.3,-238.64"/>
<polygon fill="black" stroke="black" points="1720.76,-239.19 1718.17,-228.92 1713.79,-238.57 1720.76,-239.19"/>
<text text-anchor="middle" x="1694.9" y="-249.94" font-family="Times,serif" font-size="14.00">content/λ:3140</text>
</g>
<!-- q22:116 -->
<g id="node5" class="node">
<title>q22:116</title>
<ellipse fill="none" stroke="black" stroke-width="2" cx="1958.8" cy="-231" rx="52.26" ry="18"/>
<text text-anchor="middle" x="1958.8" y="-226.32" font-family="Times,serif" font-size="14.00">q22:116</text>
</g>
<!-- q16:3264&#45;&gt;q22:116 -->
<g id="edge5" class="edge">
<title>q16:3264&#45;&gt;q22:116</title>
<path fill="none" stroke="black" d="M1752.8,-214.56C1794.9,-217.93 1852.2,-222.53 1895.6,-226.01"/>
<polygon fill="black" stroke="black" points="1895.04,-229.48 1905.29,-226.79 1895.6,-222.5 1895.04,-229.48"/>
<text text-anchor="middle" x="1830" y="-228.94" font-family="Times,serif" font-size="14.00">content/250:116</text>
</g>
<!-- q21:7 -->
<g id="node6" class="node">
<title>q21:7</title>
<ellipse fill="none" stroke="black" stroke-width="2" cx="1958.8" cy="-177" rx="39.63" ry="18"/>
<text text-anchor="middle" x="1958.8" y="-172.32" font-family="Times,serif" font-size="14.00">q21:7</text>
</g>
<!-- q16:3264&#45;&gt;q21:7 -->
<g id="edge6" class="edge">
<title>q16:3264&#45;&gt;q21:7</title>
<path fill="none" stroke="black" d="M1744.2,-199.49C1753.2,-197.73 1762.6,-196.06 1771.5,-194.75 1817.4,-187.96 1870,-183.22 1907.6,-180.36"/>
<polygon fill="black" stroke="black" points="1907.48,-183.88 1917.19,-179.64 1906.96,-176.9 1907.48,-183.88"/>
<text text-anchor="middle" x="1830" y="-197.94" font-family="Times,serif" font-size="14.00">content/554:7</text>
</g>
<!-- q20:1 -->
<g id="node7" class="node">
<title>q20:1</title>
<ellipse fill="none" stroke="black" stroke-width="2" cx="1958.8" cy="-285" rx="39.63" ry="18"/>
<text text-anchor="middle" x="1958.8" y="-280.32" font-family="Times,serif" font-size="14.00">q20:1</text>
</g>
<!-- q16:3264&#45;&gt;q20:1 -->
<g id="edge7" class="edge">
<title>q16:3264&#45;&gt;q20:1</title>
<path fill="none" stroke="black" d="M1725.8,-226.23C1739.4,-233.12 1756,-240.75 1771.5,-246 1816.9,-261.32 1870.6,-271.8 1908.7,-278"/>
<polygon fill="black" stroke="black" points="1908.08,-281.45 1918.5,-279.55 1909.18,-274.53 1908.08,-281.45"/>
<text text-anchor="middle" x="1830" y="-277.94" font-family="Times,serif" font-size="14.00">content/550:1</text>
</g>
<!-- q10:232 -->
<g id="node8" class="node">
<title>q10:232</title>
<ellipse fill="none" stroke="black" stroke-width="2" cx="1220" cy="-123" rx="52.26" ry="18"/>
<text text-anchor="middle" x="1220" y="-118.33" font-family="Times,serif" font-size="14.00">q10:232</text>
</g>
<!-- q7:232&#45;&gt;q10:232 -->
<g id="edge8" class="edge">
<title>q7:232&#45;&gt;q10:232</title>
<path fill="none" stroke="black" d="M1018.1,-105.83C1057,-109.15 1113.6,-114 1156.9,-117.69"/>
<polygon fill="black" stroke="black" points="1156.33,-121.15 1166.59,-118.53 1156.93,-114.18 1156.33,-121.15"/>
<text text-anchor="middle" x="1095.7" y="-119.95" font-family="Times,serif" font-size="14.00">RCPT/250:232</text>
</g>
<!-- q27:116 -->
<g id="node9" class="node">
<title>q27:116</title>
<ellipse fill="none" stroke="black" stroke-width="2" cx="2199.8" cy="-231" rx="52.26" ry="18"/>
<text text-anchor="middle" x="2199.8" y="-226.32" font-family="Times,serif" font-size="14.00">q27:116</text>
</g>
<!-- q22:116&#45;&gt;q27:116 -->
<g id="edge9" class="edge">
<title>q22:116&#45;&gt;q27:116</title>
<path fill="none" stroke="black" d="M2011.9,-231C2048.3,-231 2097.1,-231 2135.6,-231"/>
<polygon fill="black" stroke="black" points="2135.19,-234.5 2145.19,-231 2135.19,-227.5 2135.19,-234.5"/>
<text text-anchor="middle" x="2079.3" y="-234.94" font-family="Times,serif" font-size="14.00">QUIT/221:116</text>
</g>
<!-- q26:7 -->
<g id="node10" class="node">
<title>q26:7</title>
<ellipse fill="none" stroke="black" stroke-width="2" cx="2199.8" cy="-177" rx="39.63" ry="18"/>
<text text-anchor="middle" x="2199.8" y="-172.32" font-family="Times,serif" font-size="14.00">q26:7</text>
</g>
<!-- q21:7&#45;&gt;q26:7 -->
<g id="edge10" class="edge">
<title>q21:7&#45;&gt;q26:7</title>
<path fill="none" stroke="black" d="M1999.2,-177C2039.9,-177 2103.4,-177 2147.8,-177"/>
<polygon fill="black" stroke="black" points="2147.79,-180.5 2157.79,-177 2147.79,-173.5 2147.79,-180.5"/>
<text text-anchor="middle" x="2079.3" y="-180.94" font-family="Times,serif" font-size="14.00">RSET/250:7</text>
</g>
<!-- q25:1 -->
<g id="node11" class="node">
<title>q25:1</title>
<ellipse fill="none" stroke="black" stroke-width="2" cx="2199.8" cy="-285" rx="39.63" ry="18"/>
<text text-anchor="middle" x="2199.8" y="-280.32" font-family="Times,serif" font-size="14.00">q25:1</text>
</g>
<!-- q20:1&#45;&gt;q25:1 -->
<g id="edge11" class="edge">
<title>q20:1&#45;&gt;q25:1</title>
<path fill="none" stroke="black" d="M1999.2,-285C2039.9,-285 2103.4,-285 2147.8,-285"/>
<polygon fill="black" stroke="black" points="2147.79,-288.5 2157.79,-285 2147.79,-281.5 2147.79,-288.5"/>
<text text-anchor="middle" x="2079.3" y="-288.94" font-family="Times,serif" font-size="14.00">RSET/250:1</text>
</g>
<!-- q10:232&#45;&gt;q14:162 -->
<g id="edge12" class="edge">
<title>q10:232&#45;&gt;q14:162</title>
<path fill="none" stroke="black" d="M1174.4,-132.75C1166.2,-134.33 1157.7,-135.83 1149.7,-137 1024.7,-155.27 877.31,-166.24 795.4,-171.4"/>
<polygon fill="black" stroke="black" points="795.31,-167.9 785.55,-172.02 795.75,-174.88 795.31,-167.9"/>
<text text-anchor="middle" x="972.33" y="-165.94" font-family="Times,serif" font-size="14.00">RCPT/250:162</text>
</g>
<!-- q13:70 -->
<g id="node12" class="node">
<title>q13:70</title>
<ellipse fill="none" stroke="black" stroke-width="2" cx="1446.4" cy="-123" rx="45.95" ry="18"/>
<text text-anchor="middle" x="1446.4" y="-118.33" font-family="Times,serif" font-size="14.00">q13:70</text>
</g>
<!-- q10:232&#45;&gt;q13:70 -->
<g id="edge13" class="edge">
<title>q10:232&#45;&gt;q13:70</title>
<path fill="none" stroke="black" d="M1273,-123C1307.6,-123 1353,-123 1388.6,-123"/>
<polygon fill="black" stroke="black" points="1388.19,-126.5 1398.19,-123 1388.19,-119.5 1388.19,-126.5"/>
<text text-anchor="middle" x="1336.3" y="-126.95" font-family="Times,serif" font-size="14.00">DATA/354:70</text>
</g>
<!-- q13:70&#45;&gt;q16:3264 -->
<g id="edge25" class="edge">
<title>q13:70&#45;&gt;q16:3264</title>
<path fill="none" stroke="black" d="M1482.7,-134.84C1491.7,-137.85 1501.4,-141.06 1510.4,-144 1558.3,-159.7 1571,-161.38 1618.4,-178.75 1628.3,-182.38 1638.8,-186.53 1648.7,-190.59"/>
<polygon fill="black" stroke="black" points="1647.22,-193.77 1657.8,-194.36 1649.9,-187.3 1647.22,-193.77"/>
<text text-anchor="middle" x="1564.4" y="-181.94" font-family="Times,serif" font-size="14.00">content/λ:3</text>
</g>
<!-- q18:9 -->
<g id="node22" class="node">
<title>q18:9</title>
<ellipse fill="none" stroke="black" stroke-width="2" cx="1694.9" cy="-123" rx="39.63" ry="18"/>
<text text-anchor="middle" x="1694.9" y="-118.33" font-family="Times,serif" font-size="14.00">q18:9</text>
</g>
<!-- q13:70&#45;&gt;q18:9 -->
<g id="edge26" class="edge">
<title>q13:70&#45;&gt;q18:9</title>
<path fill="none" stroke="black" d="M1493.2,-123C1535.8,-123 1599.1,-123 1643.2,-123"/>
<polygon fill="black" stroke="black" points="1642.99,-126.5 1652.99,-123 1642.99,-119.5 1642.99,-126.5"/>
<text text-anchor="middle" x="1564.4" y="-126.95" font-family="Times,serif" font-size="14.00">content/250:9</text>
</g>
<!-- q17:58 -->
<g id="node23" class="node">
<title>q17:58</title>
<ellipse fill="none" stroke="black" stroke-width="2" cx="1694.9" cy="-69" rx="45.95" ry="18"/>
<text text-anchor="middle" x="1694.9" y="-64.33" font-family="Times,serif" font-size="14.00">q17:58</text>
</g>
<!-- q13:70&#45;&gt;q17:58 -->
<g id="edge27" class="edge">
<title>q13:70&#45;&gt;q17:58</title>
<path fill="none" stroke="black" d="M1481.4,-110.48C1490.7,-107.35 1500.9,-104.19 1510.4,-101.75 1553.3,-90.74 1602.8,-82.15 1639.5,-76.53"/>
<polygon fill="black" stroke="black" points="1639.63,-80.05 1649,-75.1 1638.59,-73.12 1639.63,-80.05"/>
<text text-anchor="middle" x="1564.4" y="-104.95" font-family="Times,serif" font-size="14.00">content/554:58</text>
</g>
<!-- q0:244 -->
<g id="node13" class="node">
<title>q0:244</title>
<ellipse fill="none" stroke="black" stroke-width="2" cx="53.95" cy="-82" rx="49.95" ry="49.95"/>
<ellipse fill="none" stroke="black" stroke-width="2" cx="53.95" cy="-82" rx="53.95" ry="53.95"/>
<text text-anchor="middle" x="53.95" y="-77.33" font-family="Times,serif" font-size="14.00">q0:244</text>
</g>
<!-- q1:244 -->
<g id="node14" class="node">
<title>q1:244</title>
<ellipse fill="none" stroke="black" stroke-width="2" cx="257.84" cy="-82" rx="45.95" ry="18"/>
<text text-anchor="middle" x="257.84" y="-77.33" font-family="Times,serif" font-size="14.00">q1:244</text>
</g>
<!-- q0:244&#45;&gt;q1:244 -->
<g id="edge14" class="edge">
<title>q0:244&#45;&gt;q1:244</title>
<path fill="none" stroke="black" d="M104.85,-82C133.64,-82 169.94,-82 199.84,-82"/>
<polygon fill="black" stroke="black" points="199.45,-85.5 209.45,-82 199.45,-78.5 199.45,-85.5"/>
<text text-anchor="middle" x="157.89" y="-85.95" font-family="Times,serif" font-size="14.00">λ/220:244</text>
</g>
<!-- q2:242 -->
<g id="node15" class="node">
<title>q2:242</title>
<ellipse fill="none" stroke="black" stroke-width="2" cx="491.48" cy="-115" rx="45.95" ry="18"/>
<text text-anchor="middle" x="491.48" y="-110.33" font-family="Times,serif" font-size="14.00">q2:242</text>
</g>
<!-- q1:244&#45;&gt;q2:242 -->
<g id="edge15" class="edge">
<title>q1:244&#45;&gt;q2:242</title>
<path fill="none" stroke="black" d="M302.14,-88.17C340,-93.56 395.17,-101.42 436.02,-107.24"/>
<polygon fill="black" stroke="black" points="435.51,-110.7 445.9,-108.65 436.49,-103.77 435.51,-110.7"/>
<text text-anchor="middle" x="374.66" y="-108.95" font-family="Times,serif" font-size="14.00">EHLO/250:242</text>
</g>
<!-- q3:2 -->
<g id="node16" class="node">
<title>q3:2</title>
<ellipse fill="none" stroke="black" stroke-width="2" cx="491.48" cy="-55" rx="33.32" ry="18"/>
<text text-anchor="middle" x="491.48" y="-50.33" font-family="Times,serif" font-size="14.00">q3:2</text>
</g>
<!-- q1:244&#45;&gt;q3:2 -->
<g id="edge16" class="edge">
<title>q1:244&#45;&gt;q3:2</title>
<path fill="none" stroke="black" d="M296.21,-71.12C304.56,-69.03 313.43,-67.08 321.79,-65.75 363.53,-59.09 411.69,-56.52 445.85,-55.55"/>
<polygon fill="black" stroke="black" points="445.89,-59.05 455.8,-55.31 445.71,-52.05 445.89,-59.05"/>
<text text-anchor="middle" x="374.66" y="-68.95" font-family="Times,serif" font-size="14.00">EHLO/λ:2</text>
</g>
<!-- q4:1 -->
<g id="node17" class="node">
<title>q4:1</title>
<ellipse fill="none" stroke="black" stroke-width="2" cx="731.44" cy="-117" rx="33.32" ry="18"/>
<text text-anchor="middle" x="731.44" y="-112.33" font-family="Times,serif" font-size="14.00">q4:1</text>
</g>
<!-- q2:242&#45;&gt;q4:1 -->
<g id="edge17" class="edge">
<title>q2:242&#45;&gt;q4:1</title>
<path fill="none" stroke="black" d="M538.37,-115.39C580.95,-115.74 643.95,-116.27 686.05,-116.63"/>
<polygon fill="black" stroke="black" points="685.8,-120.13 695.83,-116.71 685.85,-113.13 685.8,-120.13"/>
<text text-anchor="middle" x="608.31" y="-119.95" font-family="Times,serif" font-size="14.00">AUTH/λ:1</text>
</g>
<!-- q6:12 -->
<g id="node18" class="node">
<title>q6:12</title>
<ellipse fill="none" stroke="black" stroke-width="2" cx="731.44" cy="-260" rx="39.63" ry="18"/>
<text text-anchor="middle" x="731.44" y="-255.32" font-family="Times,serif" font-size="14.00">q6:12</text>
</g>
<!-- q2:242&#45;&gt;q6:12 -->
<g id="edge18" class="edge">
<title>q2:242&#45;&gt;q6:12</title>
<path fill="none" stroke="black" d="M517.95,-130.52C561.04,-156.78 648.36,-209.98 696.56,-239.36"/>
<polygon fill="black" stroke="black" points="694.57,-242.25 704.94,-244.45 698.21,-236.27 694.57,-242.25"/>
<text text-anchor="middle" x="608.31" y="-220.94" font-family="Times,serif" font-size="14.00">AUTH/535:12</text>
</g>
<!-- q5:231 -->
<g id="node19" class="node">
<title>q5:231</title>
<ellipse fill="none" stroke="black" stroke-width="2" cx="731.44" cy="-53" rx="45.95" ry="18"/>
<text text-anchor="middle" x="731.44" y="-48.33" font-family="Times,serif" font-size="14.00">q5:231</text>
</g>
<!-- q2:242&#45;&gt;q5:231 -->
<g id="edge19" class="edge">
<title>q2:242&#45;&gt;q5:231</title>
<path fill="none" stroke="black" d="M526.93,-102.7C536.13,-99.6 546.11,-96.4 555.43,-93.75 596.45,-82.08 643.57,-71.25 678.57,-63.7"/>
<polygon fill="black" stroke="black" points="678.96,-67.19 688.01,-61.68 677.5,-60.35 678.96,-67.19"/>
<text text-anchor="middle" x="608.31" y="-96.95" font-family="Times,serif" font-size="14.00">AUTH/235:229</text>
</g>
<!-- q3:2&#45;&gt;q5:231 -->
<g id="edge20" class="edge">
<title>q3:2&#45;&gt;q5:231</title>
<path fill="none" stroke="black" d="M523.05,-47.83C533.28,-45.76 544.79,-43.78 555.43,-42.75 602.21,-38.24 614.31,-39.3 661.18,-42.75 666.44,-43.14 671.9,-43.69 677.34,-44.33"/>
<polygon fill="black" stroke="black" points="676.56,-47.76 686.93,-45.58 677.46,-40.82 676.56,-47.76"/>
<text text-anchor="middle" x="608.31" y="-46.95" font-family="Times,serif" font-size="14.00">AUTH/235:2</text>
</g>
<!-- q4:1&#45;&gt;q7:232 -->
<g id="edge21" class="edge">
<title>q4:1&#45;&gt;q7:232</title>
<path fill="none" stroke="black" d="M761.09,-107.68C773.44,-104.12 788.14,-100.51 801.7,-98.75 839.46,-93.86 882.33,-94.74 915.53,-96.8"/>
<polygon fill="black" stroke="black" points="915.11,-100.28 925.33,-97.47 915.59,-93.3 915.11,-100.28"/>
<text text-anchor="middle" x="852.33" y="-101.95" font-family="Times,serif" font-size="14.00">MAIL/250:1</text>
</g>
<!-- q9:12 -->
<g id="node20" class="node">
<title>q9:12</title>
<ellipse fill="none" stroke="black" stroke-width="2" cx="972.33" cy="-310" rx="39.63" ry="18"/>
<text text-anchor="middle" x="972.33" y="-305.32" font-family="Times,serif" font-size="14.00">q9:12</text>
</g>
<!-- q6:12&#45;&gt;q9:12 -->
<g id="edge22" class="edge">
<title>q6:12&#45;&gt;q9:12</title>
<path fill="none" stroke="black" d="M767.24,-268.89C778.24,-271.61 790.46,-274.53 801.7,-277 842.64,-286 889.41,-295.01 923.46,-301.33"/>
<polygon fill="black" stroke="black" points="922.53,-304.72 933,-303.09 923.8,-297.83 922.53,-304.72"/>
<text text-anchor="middle" x="852.33" y="-300.94" font-family="Times,serif" font-size="14.00">AUTH/334:12</text>
</g>
<!-- q5:231&#45;&gt;q7:232 -->
<g id="edge23" class="edge">
<title>q5:231&#45;&gt;q7:232</title>
<path fill="none" stroke="black" d="M777.94,-55.19C812.66,-57.65 861.41,-62.86 902.95,-73.75 912.33,-76.21 922.12,-79.67 931.26,-83.34"/>
<polygon fill="black" stroke="black" points="929.67,-86.46 940.24,-87.09 932.37,-80.01 929.67,-86.46"/>
<text text-anchor="middle" x="852.33" y="-76.95" font-family="Times,serif" font-size="14.00">MAIL/250:228</text>
</g>
<!-- q8:3 -->
<g id="node21" class="node">
<title>q8:3</title>
<ellipse fill="none" stroke="black" stroke-width="2" cx="972.33" cy="-18" rx="33.32" ry="18"/>
<text text-anchor="middle" x="972.33" y="-13.32" font-family="Times,serif" font-size="14.00">q8:3</text>
</g>
<!-- q5:231&#45;&gt;q8:3 -->
<g id="edge24" class="edge">
<title>q5:231&#45;&gt;q8:3</title>
<path fill="none" stroke="black" d="M757.37,-37.22C770.11,-30.08 786.17,-22.42 801.7,-18.75 843.68,-8.84 893.14,-10.02 927.78,-12.85"/>
<polygon fill="black" stroke="black" points="927.15,-16.31 937.42,-13.72 927.78,-9.34 927.15,-16.31"/>
<text text-anchor="middle" x="852.33" y="-22.95" font-family="Times,serif" font-size="14.00">MAIL/553:3</text>
</g>
<!-- q12:12 -->
<g id="node26" class="node">
<title>q12:12</title>
<ellipse fill="none" stroke="black" stroke-width="2" cx="1220" cy="-310" rx="45.95" ry="18"/>
<text text-anchor="middle" x="1220" y="-305.32" font-family="Times,serif" font-size="14.00">q12:12</text>
</g>
<!-- q9:12&#45;&gt;q12:12 -->
<g id="edge30" class="edge">
<title>q9:12&#45;&gt;q12:12</title>
<path fill="none" stroke="black" d="M1012.8,-310C1053.2,-310 1116.3,-310 1162.1,-310"/>
<polygon fill="black" stroke="black" points="1161.79,-313.5 1171.79,-310 1161.79,-306.5 1161.79,-313.5"/>
<text text-anchor="middle" x="1095.7" y="-313.94" font-family="Times,serif" font-size="14.00">content/535:12</text>
</g>
<!-- q11:3 -->
<g id="node27" class="node">
<title>q11:3</title>
<ellipse fill="none" stroke="black" stroke-width="2" cx="1220" cy="-18" rx="39.63" ry="18"/>
<text text-anchor="middle" x="1220" y="-13.32" font-family="Times,serif" font-size="14.00">q11:3</text>
</g>
<!-- q8:3&#45;&gt;q11:3 -->
<g id="edge31" class="edge">
<title>q8:3&#45;&gt;q11:3</title>
<path fill="none" stroke="black" d="M1006.5,-18C1048,-18 1119.5,-18 1168,-18"/>
<polygon fill="black" stroke="black" points="1167.99,-21.5 1177.99,-18 1167.99,-14.5 1167.99,-21.5"/>
<text text-anchor="middle" x="1095.7" y="-21.95" font-family="Times,serif" font-size="14.00">RSET/250:3</text>
</g>
<!-- q24:9 -->
<g id="node24" class="node">
<title>q24:9</title>
<ellipse fill="none" stroke="black" stroke-width="2" cx="1958.8" cy="-123" rx="39.63" ry="18"/>
<text text-anchor="middle" x="1958.8" y="-118.33" font-family="Times,serif" font-size="14.00">q24:9</text>
</g>
<!-- q18:9&#45;&gt;q24:9 -->
<g id="edge28" class="edge">
<title>q18:9&#45;&gt;q24:9</title>
<path fill="none" stroke="black" d="M1735.4,-123C1781.3,-123 1857,-123 1907.2,-123"/>
<polygon fill="black" stroke="black" points="1906.89,-126.5 1916.89,-123 1906.89,-119.5 1906.89,-126.5"/>
<text text-anchor="middle" x="1830" y="-126.95" font-family="Times,serif" font-size="14.00">QUIT/221:9</text>
</g>
<!-- q23:58 -->
<g id="node25" class="node">
<title>q23:58</title>
<ellipse fill="none" stroke="black" stroke-width="2" cx="1958.8" cy="-69" rx="45.95" ry="18"/>
<text text-anchor="middle" x="1958.8" y="-64.33" font-family="Times,serif" font-size="14.00">q23:58</text>
</g>
<!-- q17:58&#45;&gt;q23:58 -->
<g id="edge29" class="edge">
<title>q17:58&#45;&gt;q23:58</title>
<path fill="none" stroke="black" d="M1741.8,-69C1786,-69 1852.9,-69 1900.6,-69"/>
<polygon fill="black" stroke="black" points="1900.39,-72.5 1910.39,-69 1900.39,-65.5 1900.39,-72.5"/>
<text text-anchor="middle" x="1830" y="-72.95" font-family="Times,serif" font-size="14.00">RSET/250:58</text>
</g>
<!-- q15:4 -->
<g id="node28" class="node">
<title>q15:4</title>
<ellipse fill="none" stroke="black" stroke-width="2" cx="1446.4" cy="-310" rx="39.63" ry="18"/>
<text text-anchor="middle" x="1446.4" y="-305.32" font-family="Times,serif" font-size="14.00">q15:4</text>
</g>
<!-- q12:12&#45;&gt;q15:4 -->
<g id="edge32" class="edge">
<title>q12:12&#45;&gt;q15:4</title>
<path fill="none" stroke="black" d="M1266.7,-310C1303.7,-310 1355.9,-310 1394.3,-310"/>
<polygon fill="black" stroke="black" points="1394.29,-313.5 1404.29,-310 1394.29,-306.5 1394.29,-313.5"/>
<text text-anchor="middle" x="1336.3" y="-313.94" font-family="Times,serif" font-size="14.00">λ/451:4</text>
</g>
</g>
</svg>
