<?xml version="1.0" encoding="UTF-8" standalone="no"?>
<!DOCTYPE svg PUBLIC "-//W3C//DTD SVG 1.1//EN"
 "http://www.w3.org/Graphics/SVG/1.1/DTD/svg11.dtd">
<!-- Generated by graphviz version 12.0.0 (20240803.0821)
 -->
<!-- Pages: 1 -->
<svg width="2204pt" height="260pt"
 viewBox="0.00 0.00 2203.85 260.00" xmlns="http://www.w3.org/2000/svg" xmlns:xlink="http://www.w3.org/1999/xlink">
<g id="graph0" class="graph" transform="scale(1 1) rotate(0) translate(4 256)">
<polygon fill="white" stroke="none" points="-4,4 -4,-256 2199.85,-256 2199.85,4 -4,4"/>
<!-- q16:2552 -->
<g id="node1" class="node">
<title>q16:2552</title>
<ellipse fill="none" stroke="black" stroke-width="2" cx="1682" cy="-145" rx="58.57" ry="18"/>
<text text-anchor="middle" x="1682" y="-140.32" font-family="Times,serif" font-size="14.00">q16:2552</text>
</g>
<!-- q16:2552&#45;&gt;q16:2552 -->
<g id="edge1" class="edge">
<title>q16:2552&#45;&gt;q16:2552</title>
<path fill="none" stroke="black" d="M1658.6,-162.41C1654.3,-172.09 1662.1,-181 1682,-181 1693.5,-181 1700.9,-178.02 1704.3,-173.64"/>
<polygon fill="black" stroke="black" points="1707.76,-174.19 1705.17,-163.92 1700.79,-173.57 1707.76,-174.19"/>
<text text-anchor="middle" x="1682" y="-184.94" font-family="Times,serif" font-size="14.00">content/λ:2452</text>
</g>
<!-- q21:1 -->
<g id="node2" class="node">
<title>q21:1</title>
<ellipse fill="none" stroke="black" stroke-width="2" cx="1930.5" cy="-180" rx="39.63" ry="18"/>
<text text-anchor="middle" x="1930.5" y="-175.32" font-family="Times,serif" font-size="14.00">q21:1</text>
</g>
<!-- q16:2552&#45;&gt;q21:1 -->
<g id="edge2" class="edge">
<title>q16:2552&#45;&gt;q21:1</title>
<path fill="none" stroke="black" d="M1736.4,-152.59C1779.3,-158.68 1838.9,-167.14 1880.5,-173.05"/>
<polygon fill="black" stroke="black" points="1879.81,-176.49 1890.2,-174.43 1880.79,-169.56 1879.81,-176.49"/>
<text text-anchor="middle" x="1812.5" y="-173.94" font-family="Times,serif" font-size="14.00">content/550:1</text>
</g>
<!-- q22:92 -->
<g id="node3" class="node">
<title>q22:92</title>
<ellipse fill="none" stroke="black" stroke-width="2" cx="1930.5" cy="-126" rx="45.95" ry="18"/>
<text text-anchor="middle" x="1930.5" y="-121.33" font-family="Times,serif" font-size="14.00">q22:92</text>
</g>
<!-- q16:2552&#45;&gt;q22:92 -->
<g id="edge3" class="edge">
<title>q16:2552&#45;&gt;q22:92</title>
<path fill="none" stroke="black" d="M1737.8,-138.71C1744.8,-138 1751.8,-137.33 1758.5,-136.75 1796.6,-133.48 1839.4,-130.79 1872.7,-128.91"/>
<polygon fill="black" stroke="black" points="1872.79,-132.41 1882.59,-128.37 1872.41,-125.42 1872.79,-132.41"/>
<text text-anchor="middle" x="1812.5" y="-139.94" font-family="Times,serif" font-size="14.00">content/250:92</text>
</g>
<!-- q23:7 -->
<g id="node4" class="node">
<title>q23:7</title>
<ellipse fill="none" stroke="black" stroke-width="2" cx="1930.5" cy="-234" rx="39.63" ry="18"/>
<text text-anchor="middle" x="1930.5" y="-229.32" font-family="Times,serif" font-size="14.00">q23:7</text>
</g>
<!-- q16:2552&#45;&gt;q23:7 -->
<g id="edge4" class="edge">
<title>q16:2552&#45;&gt;q23:7</title>
<path fill="none" stroke="black" d="M1706.8,-162.08C1721.2,-171.73 1740.3,-183.35 1758.5,-191 1798.4,-207.69 1846.3,-219.05 1881.2,-225.89"/>
<polygon fill="black" stroke="black" points="1880.14,-229.25 1890.61,-227.67 1881.44,-222.37 1880.14,-229.25"/>
<text text-anchor="middle" x="1812.5" y="-225.94" font-family="Times,serif" font-size="14.00">content/554:7</text>
</g>
<!-- q25:1 -->
<g id="node5" class="node">
<title>q25:1</title>
<ellipse fill="none" stroke="black" stroke-width="2" cx="2149.9" cy="-180" rx="39.63" ry="18"/>
<text text-anchor="middle" x="2149.9" y="-175.32" font-family="Times,serif" font-size="14.00">q25:1</text>
</g>
<!-- q21:1&#45;&gt;q25:1 -->
<g id="edge5" class="edge">
<title>q21:1&#45;&gt;q25:1</title>
<path fill="none" stroke="black" d="M1971.1,-180C2006.9,-180 2059.7,-180 2098.5,-180"/>
<polygon fill="black" stroke="black" points="2097.99,-183.5 2107.99,-180 2097.99,-176.5 2097.99,-183.5"/>
<text text-anchor="middle" x="2040.2" y="-183.94" font-family="Times,serif" font-size="14.00">RSET/250:1</text>
</g>
<!-- q26:92 -->
<g id="node6" class="node">
<title>q26:92</title>
<ellipse fill="none" stroke="black" stroke-width="2" cx="2149.9" cy="-126" rx="45.95" ry="18"/>
<text text-anchor="middle" x="2149.9" y="-121.33" font-family="Times,serif" font-size="14.00">q26:92</text>
</g>
<!-- q22:92&#45;&gt;q26:92 -->
<g id="edge6" class="edge">
<title>q22:92&#45;&gt;q26:92</title>
<path fill="none" stroke="black" d="M1977.3,-126C2010.7,-126 2056.1,-126 2091.9,-126"/>
<polygon fill="black" stroke="black" points="2091.59,-129.5 2101.59,-126 2091.59,-122.5 2091.59,-129.5"/>
<text text-anchor="middle" x="2040.2" y="-129.94" font-family="Times,serif" font-size="14.00">QUIT/221:92</text>
</g>
<!-- q27:7 -->
<g id="node7" class="node">
<title>q27:7</title>
<ellipse fill="none" stroke="black" stroke-width="2" cx="2149.9" cy="-234" rx="39.63" ry="18"/>
<text text-anchor="middle" x="2149.9" y="-229.32" font-family="Times,serif" font-size="14.00">q27:7</text>
</g>
<!-- q23:7&#45;&gt;q27:7 -->
<g id="edge7" class="edge">
<title>q23:7&#45;&gt;q27:7</title>
<path fill="none" stroke="black" d="M1971.1,-234C2006.9,-234 2059.7,-234 2098.5,-234"/>
<polygon fill="black" stroke="black" points="2097.99,-237.5 2107.99,-234 2097.99,-230.5 2097.99,-237.5"/>
<text text-anchor="middle" x="2040.2" y="-237.94" font-family="Times,serif" font-size="14.00">RSET/250:7</text>
</g>
<!-- q8:12 -->
<g id="node8" class="node">
<title>q8:12</title>
<ellipse fill="none" stroke="black" stroke-width="2" cx="954.27" cy="-213" rx="39.63" ry="18"/>
<text text-anchor="middle" x="954.27" y="-208.32" font-family="Times,serif" font-size="14.00">q8:12</text>
</g>
<!-- q13:12 -->
<g id="node9" class="node">
<title>q13:12</title>
<ellipse fill="none" stroke="black" stroke-width="2" cx="1190.2" cy="-213" rx="45.95" ry="18"/>
<text text-anchor="middle" x="1190.2" y="-208.32" font-family="Times,serif" font-size="14.00">q13:12</text>
</g>
<!-- q8:12&#45;&gt;q13:12 -->
<g id="edge8" class="edge">
<title>q8:12&#45;&gt;q13:12</title>
<path fill="none" stroke="black" d="M994.68,-213C1032.4,-213 1089.6,-213 1132.2,-213"/>
<polygon fill="black" stroke="black" points="1132.09,-216.5 1142.09,-213 1132.09,-209.5 1132.09,-216.5"/>
<text text-anchor="middle" x="1072.2" y="-216.94" font-family="Times,serif" font-size="14.00">content/535:12</text>
</g>
<!-- q19:4 -->
<g id="node10" class="node">
<title>q19:4</title>
<ellipse fill="none" stroke="black" stroke-width="2" cx="1427.1" cy="-213" rx="39.63" ry="18"/>
<text text-anchor="middle" x="1427.1" y="-208.32" font-family="Times,serif" font-size="14.00">q19:4</text>
</g>
<!-- q13:12&#45;&gt;q19:4 -->
<g id="edge9" class="edge">
<title>q13:12&#45;&gt;q19:4</title>
<path fill="none" stroke="black" d="M1237,-213C1276.7,-213 1334.1,-213 1375.2,-213"/>
<polygon fill="black" stroke="black" points="1375.09,-216.5 1385.09,-213 1375.09,-209.5 1375.09,-216.5"/>
<text text-anchor="middle" x="1305.5" y="-216.94" font-family="Times,serif" font-size="14.00">λ/451:4</text>
</g>
<!-- q5:12 -->
<g id="node11" class="node">
<title>q5:12</title>
<ellipse fill="none" stroke="black" stroke-width="2" cx="725.13" cy="-212" rx="39.63" ry="18"/>
<text text-anchor="middle" x="725.13" y="-207.32" font-family="Times,serif" font-size="14.00">q5:12</text>
</g>
<!-- q5:12&#45;&gt;q8:12 -->
<g id="edge10" class="edge">
<title>q5:12&#45;&gt;q8:12</title>
<path fill="none" stroke="black" d="M765.69,-212.17C803.6,-212.34 861,-212.59 902.32,-212.78"/>
<polygon fill="black" stroke="black" points="902.25,-216.28 912.27,-212.82 902.28,-209.28 902.25,-216.28"/>
<text text-anchor="middle" x="839.7" y="-215.94" font-family="Times,serif" font-size="14.00">AUTH/334:12</text>
</g>
<!-- q6:231 -->
<g id="node12" class="node">
<title>q6:231</title>
<ellipse fill="none" stroke="black" stroke-width="2" cx="725.13" cy="-98" rx="45.95" ry="18"/>
<text text-anchor="middle" x="725.13" y="-93.33" font-family="Times,serif" font-size="14.00">q6:231</text>
</g>
<!-- q10:3 -->
<g id="node13" class="node">
<title>q10:3</title>
<ellipse fill="none" stroke="black" stroke-width="2" cx="954.27" cy="-52" rx="39.63" ry="18"/>
<text text-anchor="middle" x="954.27" y="-47.33" font-family="Times,serif" font-size="14.00">q10:3</text>
</g>
<!-- q6:231&#45;&gt;q10:3 -->
<g id="edge11" class="edge">
<title>q6:231&#45;&gt;q10:3</title>
<path fill="none" stroke="black" d="M762.56,-86.67C771.2,-84.19 780.42,-81.73 789.08,-79.75 827.4,-70.99 871.33,-63.7 904.1,-58.8"/>
<polygon fill="black" stroke="black" points="904.32,-62.31 913.7,-57.39 903.3,-55.38 904.32,-62.31"/>
<text text-anchor="middle" x="839.7" y="-83.95" font-family="Times,serif" font-size="14.00">MAIL/553:3</text>
</g>
<!-- q9:228 -->
<g id="node14" class="node">
<title>q9:228</title>
<ellipse fill="none" stroke="black" stroke-width="2" cx="954.27" cy="-106" rx="45.95" ry="18"/>
<text text-anchor="middle" x="954.27" y="-101.33" font-family="Times,serif" font-size="14.00">q9:228</text>
</g>
<!-- q6:231&#45;&gt;q9:228 -->
<g id="edge12" class="edge">
<title>q6:231&#45;&gt;q9:228</title>
<path fill="none" stroke="black" d="M771.82,-99.61C807.78,-100.88 858.09,-102.65 896.61,-104"/>
<polygon fill="black" stroke="black" points="896.02,-107.48 906.14,-104.34 896.27,-100.49 896.02,-107.48"/>
<text text-anchor="middle" x="839.7" y="-107.95" font-family="Times,serif" font-size="14.00">MAIL/250:228</text>
</g>
<!-- q14:3 -->
<g id="node15" class="node">
<title>q14:3</title>
<ellipse fill="none" stroke="black" stroke-width="2" cx="1190.2" cy="-52" rx="39.63" ry="18"/>
<text text-anchor="middle" x="1190.2" y="-47.33" font-family="Times,serif" font-size="14.00">q14:3</text>
</g>
<!-- q10:3&#45;&gt;q14:3 -->
<g id="edge13" class="edge">
<title>q10:3&#45;&gt;q14:3</title>
<path fill="none" stroke="black" d="M994.68,-52C1034.2,-52 1095.1,-52 1138.2,-52"/>
<polygon fill="black" stroke="black" points="1138.09,-55.5 1148.09,-52 1138.09,-48.5 1138.09,-55.5"/>
<text text-anchor="middle" x="1072.2" y="-55.95" font-family="Times,serif" font-size="14.00">RSET/250:3</text>
</g>
<!-- q7:233 -->
<g id="node16" class="node">
<title>q7:233</title>
<ellipse fill="none" stroke="black" stroke-width="2" cx="1190.2" cy="-112" rx="45.95" ry="18"/>
<text text-anchor="middle" x="1190.2" y="-107.33" font-family="Times,serif" font-size="14.00">q7:233</text>
</g>
<!-- q9:228&#45;&gt;q7:233 -->
<g id="edge14" class="edge">
<title>q9:228&#45;&gt;q7:233</title>
<path fill="none" stroke="black" d="M1000.92,-107.17C1038.5,-108.14 1092,-109.51 1132.4,-110.54"/>
<polygon fill="black" stroke="black" points="1132,-114.03 1142.09,-110.79 1132.18,-107.03 1132,-114.03"/>
<text text-anchor="middle" x="1072.2" y="-114.95" font-family="Times,serif" font-size="14.00">RCPT/250:228</text>
</g>
<!-- q11:88 -->
<g id="node17" class="node">
<title>q11:88</title>
<ellipse fill="none" stroke="black" stroke-width="2" cx="1427.1" cy="-72" rx="45.95" ry="18"/>
<text text-anchor="middle" x="1427.1" y="-67.33" font-family="Times,serif" font-size="14.00">q11:88</text>
</g>
<!-- q7:233&#45;&gt;q11:88 -->
<g id="edge15" class="edge">
<title>q7:233&#45;&gt;q11:88</title>
<path fill="none" stroke="black" d="M1211.6,-95.19C1223.3,-86.68 1238.6,-77.21 1254.1,-72.75 1292.4,-61.7 1337.5,-61.97 1371.9,-64.75"/>
<polygon fill="black" stroke="black" points="1371.31,-68.21 1381.59,-65.64 1371.95,-61.24 1371.31,-68.21"/>
<text text-anchor="middle" x="1305.5" y="-76.95" font-family="Times,serif" font-size="14.00">DATA/354:88</text>
</g>
<!-- q12:145 -->
<g id="node18" class="node">
<title>q12:145</title>
<ellipse fill="none" stroke="black" stroke-width="2" cx="1427.1" cy="-152" rx="52.26" ry="18"/>
<text text-anchor="middle" x="1427.1" y="-147.32" font-family="Times,serif" font-size="14.00">q12:145</text>
</g>
<!-- q7:233&#45;&gt;q12:145 -->
<g id="edge16" class="edge">
<title>q7:233&#45;&gt;q12:145</title>
<path fill="none" stroke="black" d="M1234.9,-106.25C1268.7,-103.21 1316.6,-102.02 1356.9,-112.75 1369.6,-116.15 1382.6,-122.49 1393.7,-129.11"/>
<polygon fill="black" stroke="black" points="1391.78,-132.04 1402.12,-134.37 1395.49,-126.1 1391.78,-132.04"/>
<text text-anchor="middle" x="1305.5" y="-116.95" font-family="Times,serif" font-size="14.00">RCPT/250:145</text>
</g>
<!-- q11:88&#45;&gt;q16:2552 -->
<g id="edge21" class="edge">
<title>q11:88&#45;&gt;q16:2552</title>
<path fill="none" stroke="black" d="M1465.4,-82.77C1508,-95.06 1578,-115.27 1626.6,-129.31"/>
<polygon fill="black" stroke="black" points="1625.57,-132.65 1636.14,-132.05 1627.5,-125.93 1625.57,-132.65"/>
<text text-anchor="middle" x="1551.4" y="-124.95" font-family="Times,serif" font-size="14.00">content/λ:2</text>
</g>
<!-- q17:65 -->
<g id="node21" class="node">
<title>q17:65</title>
<ellipse fill="none" stroke="black" stroke-width="2" cx="1682" cy="-18" rx="45.95" ry="18"/>
<text text-anchor="middle" x="1682" y="-13.32" font-family="Times,serif" font-size="14.00">q17:65</text>
</g>
<!-- q11:88&#45;&gt;q17:65 -->
<g id="edge22" class="edge">
<title>q11:88&#45;&gt;q17:65</title>
<path fill="none" stroke="black" d="M1463.5,-60.25C1474.3,-56.9 1486.3,-53.44 1497.4,-50.75 1540.4,-40.34 1589.9,-31.7 1626.7,-25.92"/>
<polygon fill="black" stroke="black" points="1626.76,-29.45 1636.1,-24.45 1625.68,-22.53 1626.76,-29.45"/>
<text text-anchor="middle" x="1551.4" y="-54.95" font-family="Times,serif" font-size="14.00">content/554:65</text>
</g>
<!-- q15:21 -->
<g id="node22" class="node">
<title>q15:21</title>
<ellipse fill="none" stroke="black" stroke-width="2" cx="1682" cy="-72" rx="45.95" ry="18"/>
<text text-anchor="middle" x="1682" y="-67.33" font-family="Times,serif" font-size="14.00">q15:21</text>
</g>
<!-- q11:88&#45;&gt;q15:21 -->
<g id="edge23" class="edge">
<title>q11:88&#45;&gt;q15:21</title>
<path fill="none" stroke="black" d="M1473.9,-72C1515.9,-72 1578.4,-72 1623.7,-72"/>
<polygon fill="black" stroke="black" points="1623.59,-75.5 1633.59,-72 1623.59,-68.5 1623.59,-75.5"/>
<text text-anchor="middle" x="1551.4" y="-75.95" font-family="Times,serif" font-size="14.00">content/250:21</text>
</g>
<!-- q12:145&#45;&gt;q16:2552 -->
<g id="edge24" class="edge">
<title>q12:145&#45;&gt;q16:2552</title>
<path fill="none" stroke="black" d="M1480.2,-150.56C1518.1,-149.51 1569.9,-148.07 1611.4,-146.93"/>
<polygon fill="black" stroke="black" points="1611.39,-150.43 1621.29,-146.65 1611.19,-143.43 1611.39,-150.43"/>
<text text-anchor="middle" x="1551.4" y="-152.94" font-family="Times,serif" font-size="14.00">DATA/354:98</text>
</g>
<!-- q12:145&#45;&gt;q7:233 -->
<g id="edge25" class="edge">
<title>q12:145&#45;&gt;q7:233</title>
<path fill="none" stroke="black" d="M1375.4,-147.55C1340.9,-144.03 1294.5,-138.31 1254.1,-130 1249,-128.94 1243.6,-127.67 1238.3,-126.31"/>
<polygon fill="black" stroke="black" points="1239.53,-123.02 1228.96,-123.8 1237.71,-129.78 1239.53,-123.02"/>
<text text-anchor="middle" x="1305.5" y="-148.94" font-family="Times,serif" font-size="14.00">RCPT/250:4</text>
</g>
<!-- q18:43 -->
<g id="node23" class="node">
<title>q18:43</title>
<ellipse fill="none" stroke="black" stroke-width="2" cx="1682" cy="-234" rx="45.95" ry="18"/>
<text text-anchor="middle" x="1682" y="-229.32" font-family="Times,serif" font-size="14.00">q18:43</text>
</g>
<!-- q12:145&#45;&gt;q18:43 -->
<g id="edge26" class="edge">
<title>q12:145&#45;&gt;q18:43</title>
<path fill="none" stroke="black" d="M1466.8,-164.54C1511.8,-179.15 1586.2,-203.27 1634.4,-218.9"/>
<polygon fill="black" stroke="black" points="1633.07,-222.15 1643.66,-221.92 1635.24,-215.49 1633.07,-222.15"/>
<text text-anchor="middle" x="1551.4" y="-210.94" font-family="Times,serif" font-size="14.00">DATA/550:43</text>
</g>
<!-- q2:243 -->
<g id="node19" class="node">
<title>q2:243</title>
<ellipse fill="none" stroke="black" stroke-width="2" cx="491.48" cy="-158" rx="45.95" ry="18"/>
<text text-anchor="middle" x="491.48" y="-153.32" font-family="Times,serif" font-size="14.00">q2:243</text>
</g>
<!-- q2:243&#45;&gt;q5:12 -->
<g id="edge17" class="edge">
<title>q2:243&#45;&gt;q5:12</title>
<path fill="none" stroke="black" d="M521.02,-172.62C531.6,-177.52 543.84,-182.6 555.43,-186 594.51,-197.48 640.26,-204.13 674.25,-207.82"/>
<polygon fill="black" stroke="black" points="673.49,-211.26 683.79,-208.81 674.21,-204.3 673.49,-211.26"/>
<text text-anchor="middle" x="608.31" y="-209.94" font-family="Times,serif" font-size="14.00">AUTH/535:12</text>
</g>
<!-- q2:243&#45;&gt;q6:231 -->
<g id="edge18" class="edge">
<title>q2:243&#45;&gt;q6:231</title>
<path fill="none" stroke="black" d="M518.34,-142.45C529.42,-136.41 542.72,-129.94 555.43,-125.75 591.87,-113.75 634.52,-106.79 667.82,-102.84"/>
<polygon fill="black" stroke="black" points="668.13,-106.33 677.68,-101.74 667.35,-99.37 668.13,-106.33"/>
<text text-anchor="middle" x="608.31" y="-128.94" font-family="Times,serif" font-size="14.00">AUTH/235:230</text>
</g>
<!-- q4:1 -->
<g id="node20" class="node">
<title>q4:1</title>
<ellipse fill="none" stroke="black" stroke-width="2" cx="839.7" cy="-163" rx="33.32" ry="18"/>
<text text-anchor="middle" x="839.7" y="-158.32" font-family="Times,serif" font-size="14.00">q4:1</text>
</g>
<!-- q2:243&#45;&gt;q4:1 -->
<g id="edge19" class="edge">
<title>q2:243&#45;&gt;q4:1</title>
<path fill="none" stroke="black" d="M538.1,-158.66C604.79,-159.62 728.13,-161.4 794.18,-162.36"/>
<polygon fill="black" stroke="black" points="793.88,-165.86 803.93,-162.5 793.98,-158.86 793.88,-165.86"/>
<text text-anchor="middle" x="608.31" y="-163.94" font-family="Times,serif" font-size="14.00">AUTH/λ:1</text>
</g>
<!-- q4:1&#45;&gt;q7:233 -->
<g id="edge20" class="edge">
<title>q4:1&#45;&gt;q7:233</title>
<path fill="none" stroke="black" d="M873.58,-161.56C927.05,-158.75 1036,-151.04 1126.2,-132 1131.9,-130.8 1137.8,-129.3 1143.6,-127.65"/>
<polygon fill="black" stroke="black" points="1144.49,-131.04 1153.05,-124.8 1142.47,-124.34 1144.49,-131.04"/>
<text text-anchor="middle" x="954.27" y="-162.94" font-family="Times,serif" font-size="14.00">MAIL/250:1</text>
</g>
<!-- q24:65 -->
<g id="node24" class="node">
<title>q24:65</title>
<ellipse fill="none" stroke="black" stroke-width="2" cx="1930.5" cy="-18" rx="45.95" ry="18"/>
<text text-anchor="middle" x="1930.5" y="-13.32" font-family="Times,serif" font-size="14.00">q24:65</text>
</g>
<!-- q17:65&#45;&gt;q24:65 -->
<g id="edge27" class="edge">
<title>q17:65&#45;&gt;q24:65</title>
<path fill="none" stroke="black" d="M1728.7,-18C1769.4,-18 1828.9,-18 1872.6,-18"/>
<polygon fill="black" stroke="black" points="1872.39,-21.5 1882.39,-18 1872.39,-14.5 1872.39,-21.5"/>
<text text-anchor="middle" x="1812.5" y="-21.95" font-family="Times,serif" font-size="14.00">RSET/250:65</text>
</g>
<!-- q20:21 -->
<g id="node25" class="node">
<title>q20:21</title>
<ellipse fill="none" stroke="black" stroke-width="2" cx="1930.5" cy="-72" rx="45.95" ry="18"/>
<text text-anchor="middle" x="1930.5" y="-67.33" font-family="Times,serif" font-size="14.00">q20:21</text>
</g>
<!-- q15:21&#45;&gt;q20:21 -->
<g id="edge28" class="edge">
<title>q15:21&#45;&gt;q20:21</title>
<path fill="none" stroke="black" d="M1728.7,-72C1769.4,-72 1828.9,-72 1872.6,-72"/>
<polygon fill="black" stroke="black" points="1872.39,-75.5 1882.39,-72 1872.39,-68.5 1872.39,-75.5"/>
<text text-anchor="middle" x="1812.5" y="-75.95" font-family="Times,serif" font-size="14.00">QUIT/221:21</text>
</g>
<!-- q1:244 -->
<g id="node26" class="node">
<title>q1:244</title>
<ellipse fill="none" stroke="black" stroke-width="2" cx="257.84" cy="-125" rx="45.95" ry="18"/>
<text text-anchor="middle" x="257.84" y="-120.33" font-family="Times,serif" font-size="14.00">q1:244</text>
</g>
<!-- q1:244&#45;&gt;q2:243 -->
<g id="edge29" class="edge">
<title>q1:244&#45;&gt;q2:243</title>
<path fill="none" stroke="black" d="M302.14,-131.17C340,-136.56 395.17,-144.42 436.02,-150.24"/>
<polygon fill="black" stroke="black" points="435.51,-153.7 445.9,-151.65 436.49,-146.77 435.51,-153.7"/>
<text text-anchor="middle" x="374.66" y="-151.94" font-family="Times,serif" font-size="14.00">EHLO/250:243</text>
</g>
<!-- q3:1 -->
<g id="node27" class="node">
<title>q3:1</title>
<ellipse fill="none" stroke="black" stroke-width="2" cx="491.48" cy="-98" rx="33.32" ry="18"/>
<text text-anchor="middle" x="491.48" y="-93.33" font-family="Times,serif" font-size="14.00">q3:1</text>
</g>
<!-- q1:244&#45;&gt;q3:1 -->
<g id="edge30" class="edge">
<title>q1:244&#45;&gt;q3:1</title>
<path fill="none" stroke="black" d="M298.66,-115.83C306.31,-114.29 314.27,-112.84 321.79,-111.75 363.67,-105.66 411.82,-102.07 445.93,-100.1"/>
<polygon fill="black" stroke="black" points="446.07,-103.6 455.86,-99.55 445.68,-96.61 446.07,-103.6"/>
<text text-anchor="middle" x="374.66" y="-115.95" font-family="Times,serif" font-size="14.00">EHLO/λ:1</text>
</g>
<!-- q3:1&#45;&gt;q6:231 -->
<g id="edge31" class="edge">
<title>q3:1&#45;&gt;q6:231</title>
<path fill="none" stroke="black" d="M523.05,-90.83C533.28,-88.75 544.79,-86.78 555.43,-85.75 602.21,-81.24 614.4,-81.24 661.18,-85.75 665.01,-86.12 668.95,-86.61 672.91,-87.19"/>
<polygon fill="black" stroke="black" points="672.07,-90.6 682.51,-88.75 673.2,-83.69 672.07,-90.6"/>
<text text-anchor="middle" x="608.31" y="-89.95" font-family="Times,serif" font-size="14.00">AUTH/235:1</text>
</g>
<!-- q0:244 -->
<g id="node28" class="node">
<title>q0:244</title>
<ellipse fill="none" stroke="black" stroke-width="2" cx="53.95" cy="-125" rx="49.95" ry="49.95"/>
<ellipse fill="none" stroke="black" stroke-width="2" cx="53.95" cy="-125" rx="53.95" ry="53.95"/>
<text text-anchor="middle" x="53.95" y="-120.33" font-family="Times,serif" font-size="14.00">q0:244</text>
</g>
<!-- q0:244&#45;&gt;q1:244 -->
<g id="edge32" class="edge">
<title>q0:244&#45;&gt;q1:244</title>
<path fill="none" stroke="black" d="M104.85,-125C133.64,-125 169.94,-125 199.84,-125"/>
<polygon fill="black" stroke="black" points="199.45,-128.5 209.45,-125 199.45,-121.5 199.45,-128.5"/>
<text text-anchor="middle" x="157.89" y="-128.94" font-family="Times,serif" font-size="14.00">λ/220:244</text>
</g>
</g>
</svg>
