<?xml version="1.0" encoding="UTF-8" standalone="no"?>
<!DOCTYPE svg PUBLIC "-//W3C//DTD SVG 1.1//EN"
 "http://www.w3.org/Graphics/SVG/1.1/DTD/svg11.dtd">
<!-- Generated by graphviz version 12.0.0 (20240803.0821)
 -->
<!-- Pages: 1 -->
<svg width="2024pt" height="367pt"
 viewBox="0.00 0.00 2024.16 367.00" xmlns="http://www.w3.org/2000/svg" xmlns:xlink="http://www.w3.org/1999/xlink">
<g id="graph0" class="graph" transform="scale(1 1) rotate(0) translate(4 363)">
<polygon fill="white" stroke="none" points="-4,4 -4,-363 2020.16,-363 2020.16,4 -4,4"/>
<!-- q14:2640 -->
<g id="node1" class="node">
<title>q14:2640</title>
<ellipse fill="none" stroke="black" stroke-width="2" cx="1459" cy="-72" rx="58.57" ry="18"/>
<text text-anchor="middle" x="1459" y="-67.33" font-family="Times,serif" font-size="14.00">q14:2640</text>
</g>
<!-- q14:2640&#45;&gt;q14:2640 -->
<g id="edge1" class="edge">
<title>q14:2640&#45;&gt;q14:2640</title>
<path fill="none" stroke="black" d="M1437.1,-89.41C1433.1,-99.09 1440.4,-108 1459,-108 1469.9,-108 1476.9,-105.02 1480,-100.64"/>
<polygon fill="black" stroke="black" points="1483.46,-101.19 1480.87,-90.92 1476.49,-100.57 1483.46,-101.19"/>
<text text-anchor="middle" x="1459" y="-111.95" font-family="Times,serif" font-size="14.00">content/λ:2454</text>
</g>
<!-- q16:1 -->
<g id="node2" class="node">
<title>q16:1</title>
<ellipse fill="none" stroke="black" stroke-width="2" cx="1722.9" cy="-126" rx="39.63" ry="18"/>
<text text-anchor="middle" x="1722.9" y="-121.33" font-family="Times,serif" font-size="14.00">q16:1</text>
</g>
<!-- q14:2640&#45;&gt;q16:1 -->
<g id="edge2" class="edge">
<title>q14:2640&#45;&gt;q16:1</title>
<path fill="none" stroke="black" d="M1503,-84.71C1513.6,-87.63 1525,-90.59 1535.6,-93 1581.9,-103.51 1635.3,-112.67 1673,-118.66"/>
<polygon fill="black" stroke="black" points="1672.28,-122.09 1682.7,-120.18 1673.36,-115.17 1672.28,-122.09"/>
<text text-anchor="middle" x="1594.1" y="-119.95" font-family="Times,serif" font-size="14.00">content/550:1</text>
</g>
<!-- q17:113 -->
<g id="node3" class="node">
<title>q17:113</title>
<ellipse fill="none" stroke="black" stroke-width="2" cx="1722.9" cy="-72" rx="52.26" ry="18"/>
<text text-anchor="middle" x="1722.9" y="-67.33" font-family="Times,serif" font-size="14.00">q17:113</text>
</g>
<!-- q14:2640&#45;&gt;q17:113 -->
<g id="edge3" class="edge">
<title>q14:2640&#45;&gt;q17:113</title>
<path fill="none" stroke="black" d="M1518.5,-72C1560,-72 1615.8,-72 1658.5,-72"/>
<polygon fill="black" stroke="black" points="1658.29,-75.5 1668.29,-72 1658.29,-68.5 1658.29,-75.5"/>
<text text-anchor="middle" x="1594.1" y="-75.95" font-family="Times,serif" font-size="14.00">content/250:113</text>
</g>
<!-- q18:72 -->
<g id="node4" class="node">
<title>q18:72</title>
<ellipse fill="none" stroke="black" stroke-width="2" cx="1722.9" cy="-18" rx="45.95" ry="18"/>
<text text-anchor="middle" x="1722.9" y="-13.32" font-family="Times,serif" font-size="14.00">q18:72</text>
</g>
<!-- q14:2640&#45;&gt;q18:72 -->
<g id="edge4" class="edge">
<title>q14:2640&#45;&gt;q18:72</title>
<path fill="none" stroke="black" d="M1502.6,-59.23C1513.3,-56.23 1524.9,-53.2 1535.6,-50.75 1579.7,-40.7 1630.3,-31.98 1667.6,-26.07"/>
<polygon fill="black" stroke="black" points="1667.87,-29.58 1677.2,-24.57 1666.78,-22.66 1667.87,-29.58"/>
<text text-anchor="middle" x="1594.1" y="-54.95" font-family="Times,serif" font-size="14.00">content/554:72</text>
</g>
<!-- q20:1 -->
<g id="node5" class="node">
<title>q20:1</title>
<ellipse fill="none" stroke="black" stroke-width="2" cx="1963.9" cy="-126" rx="39.63" ry="18"/>
<text text-anchor="middle" x="1963.9" y="-121.33" font-family="Times,serif" font-size="14.00">q20:1</text>
</g>
<!-- q16:1&#45;&gt;q20:1 -->
<g id="edge5" class="edge">
<title>q16:1&#45;&gt;q20:1</title>
<path fill="none" stroke="black" d="M1763.3,-126C1804,-126 1867.5,-126 1912,-126"/>
<polygon fill="black" stroke="black" points="1911.89,-129.5 1921.89,-126 1911.89,-122.5 1911.89,-129.5"/>
<text text-anchor="middle" x="1843.4" y="-129.94" font-family="Times,serif" font-size="14.00">RSET/250:1</text>
</g>
<!-- q21:113 -->
<g id="node6" class="node">
<title>q21:113</title>
<ellipse fill="none" stroke="black" stroke-width="2" cx="1963.9" cy="-72" rx="52.26" ry="18"/>
<text text-anchor="middle" x="1963.9" y="-67.33" font-family="Times,serif" font-size="14.00">q21:113</text>
</g>
<!-- q17:113&#45;&gt;q21:113 -->
<g id="edge6" class="edge">
<title>q17:113&#45;&gt;q21:113</title>
<path fill="none" stroke="black" d="M1776,-72C1812.4,-72 1861.2,-72 1899.7,-72"/>
<polygon fill="black" stroke="black" points="1899.39,-75.5 1909.39,-72 1899.39,-68.5 1899.39,-75.5"/>
<text text-anchor="middle" x="1843.4" y="-75.95" font-family="Times,serif" font-size="14.00">QUIT/221:113</text>
</g>
<!-- q22:72 -->
<g id="node7" class="node">
<title>q22:72</title>
<ellipse fill="none" stroke="black" stroke-width="2" cx="1963.9" cy="-18" rx="45.95" ry="18"/>
<text text-anchor="middle" x="1963.9" y="-13.32" font-family="Times,serif" font-size="14.00">q22:72</text>
</g>
<!-- q18:72&#45;&gt;q22:72 -->
<g id="edge7" class="edge">
<title>q18:72&#45;&gt;q22:72</title>
<path fill="none" stroke="black" d="M1769.7,-18C1808.5,-18 1864.2,-18 1905.9,-18"/>
<polygon fill="black" stroke="black" points="1905.79,-21.5 1915.79,-18 1905.79,-14.5 1905.79,-21.5"/>
<text text-anchor="middle" x="1843.4" y="-21.95" font-family="Times,serif" font-size="14.00">RSET/250:72</text>
</g>
<!-- q15:142 -->
<g id="node8" class="node">
<title>q15:142</title>
<ellipse fill="none" stroke="black" stroke-width="2" cx="731.44" cy="-115" rx="52.26" ry="18"/>
<text text-anchor="middle" x="731.44" y="-110.33" font-family="Times,serif" font-size="14.00">q15:142</text>
</g>
<!-- q15:142&#45;&gt;q14:2640 -->
<g id="edge8" class="edge">
<title>q15:142&#45;&gt;q14:2640</title>
<path fill="none" stroke="black" d="M779.71,-107.15C787.06,-106.03 794.58,-104.94 801.7,-104 963.63,-82.64 1004.5,-76.02 1167.7,-71 1214.1,-69.57 1225.8,-70.88 1272.2,-71 1310.6,-71.1 1353.5,-71.33 1388.4,-71.54"/>
<polygon fill="black" stroke="black" points="1388.36,-75.04 1398.39,-71.6 1388.41,-68.04 1388.36,-75.04"/>
<text text-anchor="middle" x="1095.7" y="-80.95" font-family="Times,serif" font-size="14.00">DATA/354:96</text>
</g>
<!-- q19:43 -->
<g id="node9" class="node">
<title>q19:43</title>
<ellipse fill="none" stroke="black" stroke-width="2" cx="972.33" cy="-151" rx="45.95" ry="18"/>
<text text-anchor="middle" x="972.33" y="-146.32" font-family="Times,serif" font-size="14.00">q19:43</text>
</g>
<!-- q15:142&#45;&gt;q19:43 -->
<g id="edge9" class="edge">
<title>q15:142&#45;&gt;q19:43</title>
<path fill="none" stroke="black" d="M783.89,-117.68C817.9,-120.03 863.34,-124.29 902.95,-131.75 909.87,-133.05 917.11,-134.73 924.17,-136.56"/>
<polygon fill="black" stroke="black" points="923.03,-139.88 933.6,-139.11 924.86,-133.12 923.03,-139.88"/>
<text text-anchor="middle" x="852.33" y="-135.94" font-family="Times,serif" font-size="14.00">DATA/550:43</text>
</g>
<!-- q8:232 -->
<g id="node10" class="node">
<title>q8:232</title>
<ellipse fill="none" stroke="black" stroke-width="2" cx="972.33" cy="-208" rx="45.95" ry="18"/>
<text text-anchor="middle" x="972.33" y="-203.32" font-family="Times,serif" font-size="14.00">q8:232</text>
</g>
<!-- q15:142&#45;&gt;q8:232 -->
<g id="edge10" class="edge">
<title>q15:142&#45;&gt;q8:232</title>
<path fill="none" stroke="black" d="M762.08,-130.53C774.21,-136.63 788.48,-143.48 801.7,-149 842.33,-165.97 889.75,-182.17 924.11,-193.28"/>
<polygon fill="black" stroke="black" points="922.75,-196.52 933.34,-196.25 924.89,-189.85 922.75,-196.52"/>
<text text-anchor="middle" x="852.33" y="-189.94" font-family="Times,serif" font-size="14.00">RCPT/250:3</text>
</g>
<!-- q11:232 -->
<g id="node11" class="node">
<title>q11:232</title>
<ellipse fill="none" stroke="black" stroke-width="2" cx="1220" cy="-98" rx="52.26" ry="18"/>
<text text-anchor="middle" x="1220" y="-93.33" font-family="Times,serif" font-size="14.00">q11:232</text>
</g>
<!-- q8:232&#45;&gt;q11:232 -->
<g id="edge11" class="edge">
<title>q8:232&#45;&gt;q11:232</title>
<path fill="none" stroke="black" d="M1003.94,-194.29C1047.3,-174.87 1126.8,-139.25 1176.1,-117.21"/>
<polygon fill="black" stroke="black" points="1177.33,-120.49 1185.02,-113.2 1174.46,-114.11 1177.33,-120.49"/>
<text text-anchor="middle" x="1095.7" y="-179.94" font-family="Times,serif" font-size="14.00">RCPT/250:232</text>
</g>
<!-- q11:232&#45;&gt;q14:2640 -->
<g id="edge12" class="edge">
<title>q11:232&#45;&gt;q14:2640</title>
<path fill="none" stroke="black" d="M1271,-92.52C1306.1,-88.67 1353.4,-83.47 1391.7,-79.28"/>
<polygon fill="black" stroke="black" points="1391.64,-82.8 1401.19,-78.23 1390.87,-75.85 1391.64,-82.8"/>
<text text-anchor="middle" x="1336.3" y="-94.95" font-family="Times,serif" font-size="14.00">DATA/354:90</text>
</g>
<!-- q11:232&#45;&gt;q15:142 -->
<g id="edge13" class="edge">
<title>q11:232&#45;&gt;q15:142</title>
<path fill="none" stroke="black" d="M1167,-99.3C1107.5,-100.84 1007.2,-103.6 920.95,-106.75 878.97,-108.28 831.75,-110.35 795.07,-112.03"/>
<polygon fill="black" stroke="black" points="795.38,-108.51 785.55,-112.47 795.7,-115.5 795.38,-108.51"/>
<text text-anchor="middle" x="972.33" y="-110.95" font-family="Times,serif" font-size="14.00">RCPT/250:142</text>
</g>
<!-- q10:12 -->
<g id="node12" class="node">
<title>q10:12</title>
<ellipse fill="none" stroke="black" stroke-width="2" cx="1220" cy="-341" rx="45.95" ry="18"/>
<text text-anchor="middle" x="1220" y="-336.32" font-family="Times,serif" font-size="14.00">q10:12</text>
</g>
<!-- q13:4 -->
<g id="node13" class="node">
<title>q13:4</title>
<ellipse fill="none" stroke="black" stroke-width="2" cx="1459" cy="-341" rx="39.63" ry="18"/>
<text text-anchor="middle" x="1459" y="-336.32" font-family="Times,serif" font-size="14.00">q13:4</text>
</g>
<!-- q10:12&#45;&gt;q13:4 -->
<g id="edge14" class="edge">
<title>q10:12&#45;&gt;q13:4</title>
<path fill="none" stroke="black" d="M1266.7,-341C1307,-341 1365.7,-341 1407.5,-341"/>
<polygon fill="black" stroke="black" points="1407.29,-344.5 1417.29,-341 1407.29,-337.5 1407.29,-344.5"/>
<text text-anchor="middle" x="1336.3" y="-344.94" font-family="Times,serif" font-size="14.00">λ/451:4</text>
</g>
<!-- q2:243 -->
<g id="node14" class="node">
<title>q2:243</title>
<ellipse fill="none" stroke="black" stroke-width="2" cx="491.48" cy="-274" rx="45.95" ry="18"/>
<text text-anchor="middle" x="491.48" y="-269.32" font-family="Times,serif" font-size="14.00">q2:243</text>
</g>
<!-- q6:231 -->
<g id="node15" class="node">
<title>q6:231</title>
<ellipse fill="none" stroke="black" stroke-width="2" cx="731.44" cy="-274" rx="45.95" ry="18"/>
<text text-anchor="middle" x="731.44" y="-269.32" font-family="Times,serif" font-size="14.00">q6:231</text>
</g>
<!-- q2:243&#45;&gt;q6:231 -->
<g id="edge15" class="edge">
<title>q2:243&#45;&gt;q6:231</title>
<path fill="none" stroke="black" d="M538.37,-274C576.88,-274 632.08,-274 673.43,-274"/>
<polygon fill="black" stroke="black" points="673.19,-277.5 683.19,-274 673.19,-270.5 673.19,-277.5"/>
<text text-anchor="middle" x="608.31" y="-277.94" font-family="Times,serif" font-size="14.00">AUTH/235:230</text>
</g>
<!-- q5:1 -->
<g id="node16" class="node">
<title>q5:1</title>
<ellipse fill="none" stroke="black" stroke-width="2" cx="731.44" cy="-217" rx="33.32" ry="18"/>
<text text-anchor="middle" x="731.44" y="-212.32" font-family="Times,serif" font-size="14.00">q5:1</text>
</g>
<!-- q2:243&#45;&gt;q5:1 -->
<g id="edge16" class="edge">
<title>q2:243&#45;&gt;q5:1</title>
<path fill="none" stroke="black" d="M526.88,-261.53C536.08,-258.43 546.08,-255.27 555.43,-252.75 600.01,-240.72 651.93,-230.59 687.58,-224.22"/>
<polygon fill="black" stroke="black" points="687.82,-227.73 697.06,-222.55 686.6,-220.84 687.82,-227.73"/>
<text text-anchor="middle" x="608.31" y="-255.94" font-family="Times,serif" font-size="14.00">AUTH/λ:1</text>
</g>
<!-- q4:12 -->
<g id="node17" class="node">
<title>q4:12</title>
<ellipse fill="none" stroke="black" stroke-width="2" cx="731.44" cy="-329" rx="39.63" ry="18"/>
<text text-anchor="middle" x="731.44" y="-324.32" font-family="Times,serif" font-size="14.00">q4:12</text>
</g>
<!-- q2:243&#45;&gt;q4:12 -->
<g id="edge17" class="edge">
<title>q2:243&#45;&gt;q4:12</title>
<path fill="none" stroke="black" d="M526.87,-286.37C536.08,-289.43 546.07,-292.54 555.43,-295 597.71,-306.11 646.6,-315.31 681.94,-321.32"/>
<polygon fill="black" stroke="black" points="680.98,-324.71 691.42,-322.91 682.13,-317.8 680.98,-324.71"/>
<text text-anchor="middle" x="608.31" y="-320.94" font-family="Times,serif" font-size="14.00">AUTH/535:12</text>
</g>
<!-- q6:231&#45;&gt;q8:232 -->
<g id="edge18" class="edge">
<title>q6:231&#45;&gt;q8:232</title>
<path fill="none" stroke="black" d="M771.04,-263.83C820.34,-250.85 899.71,-229.92 902.95,-229 909.85,-227.03 917.11,-224.88 924.23,-222.74"/>
<polygon fill="black" stroke="black" points="925.22,-226.1 933.76,-219.83 923.18,-219.4 925.22,-226.1"/>
<text text-anchor="middle" x="852.33" y="-257.94" font-family="Times,serif" font-size="14.00">MAIL/250:228</text>
</g>
<!-- q9:3 -->
<g id="node18" class="node">
<title>q9:3</title>
<ellipse fill="none" stroke="black" stroke-width="2" cx="972.33" cy="-287" rx="33.32" ry="18"/>
<text text-anchor="middle" x="972.33" y="-282.32" font-family="Times,serif" font-size="14.00">q9:3</text>
</g>
<!-- q6:231&#45;&gt;q9:3 -->
<g id="edge19" class="edge">
<title>q6:231&#45;&gt;q9:3</title>
<path fill="none" stroke="black" d="M777.94,-276.48C820.75,-278.81 884.46,-282.27 926.92,-284.58"/>
<polygon fill="black" stroke="black" points="926.6,-288.07 936.78,-285.12 926.98,-281.08 926.6,-288.07"/>
<text text-anchor="middle" x="852.33" y="-286.94" font-family="Times,serif" font-size="14.00">MAIL/553:3</text>
</g>
<!-- q5:1&#45;&gt;q8:232 -->
<g id="edge20" class="edge">
<title>q5:1&#45;&gt;q8:232</title>
<path fill="none" stroke="black" d="M765.19,-214.16C776.72,-213.25 789.78,-212.33 801.7,-211.75 839.2,-209.92 881.42,-208.98 914.35,-208.5"/>
<polygon fill="black" stroke="black" points="914.12,-212 924.08,-208.37 914.03,-205 914.12,-212"/>
<text text-anchor="middle" x="852.33" y="-215.94" font-family="Times,serif" font-size="14.00">MAIL/250:1</text>
</g>
<!-- q7:12 -->
<g id="node19" class="node">
<title>q7:12</title>
<ellipse fill="none" stroke="black" stroke-width="2" cx="972.33" cy="-341" rx="39.63" ry="18"/>
<text text-anchor="middle" x="972.33" y="-336.32" font-family="Times,serif" font-size="14.00">q7:12</text>
</g>
<!-- q4:12&#45;&gt;q7:12 -->
<g id="edge21" class="edge">
<title>q4:12&#45;&gt;q7:12</title>
<path fill="none" stroke="black" d="M771.62,-330.97C812.33,-333.01 876.18,-336.22 920.69,-338.46"/>
<polygon fill="black" stroke="black" points="920.46,-341.95 930.62,-338.95 920.8,-334.96 920.46,-341.95"/>
<text text-anchor="middle" x="852.33" y="-340.94" font-family="Times,serif" font-size="14.00">AUTH/334:12</text>
</g>
<!-- q12:3 -->
<g id="node20" class="node">
<title>q12:3</title>
<ellipse fill="none" stroke="black" stroke-width="2" cx="1220" cy="-287" rx="39.63" ry="18"/>
<text text-anchor="middle" x="1220" y="-282.32" font-family="Times,serif" font-size="14.00">q12:3</text>
</g>
<!-- q9:3&#45;&gt;q12:3 -->
<g id="edge22" class="edge">
<title>q9:3&#45;&gt;q12:3</title>
<path fill="none" stroke="black" d="M1006.5,-287C1048,-287 1119.5,-287 1168,-287"/>
<polygon fill="black" stroke="black" points="1167.99,-290.5 1177.99,-287 1167.99,-283.5 1167.99,-290.5"/>
<text text-anchor="middle" x="1095.7" y="-290.94" font-family="Times,serif" font-size="14.00">RSET/250:3</text>
</g>
<!-- q7:12&#45;&gt;q10:12 -->
<g id="edge23" class="edge">
<title>q7:12&#45;&gt;q10:12</title>
<path fill="none" stroke="black" d="M1012.8,-341C1053.2,-341 1116.3,-341 1162.1,-341"/>
<polygon fill="black" stroke="black" points="1161.79,-344.5 1171.79,-341 1161.79,-337.5 1161.79,-344.5"/>
<text text-anchor="middle" x="1095.7" y="-344.94" font-family="Times,serif" font-size="14.00">content/535:12</text>
</g>
<!-- q1:244 -->
<g id="node21" class="node">
<title>q1:244</title>
<ellipse fill="none" stroke="black" stroke-width="2" cx="257.84" cy="-241" rx="45.95" ry="18"/>
<text text-anchor="middle" x="257.84" y="-236.32" font-family="Times,serif" font-size="14.00">q1:244</text>
</g>
<!-- q1:244&#45;&gt;q2:243 -->
<g id="edge24" class="edge">
<title>q1:244&#45;&gt;q2:243</title>
<path fill="none" stroke="black" d="M302.14,-247.17C340,-252.56 395.17,-260.42 436.02,-266.24"/>
<polygon fill="black" stroke="black" points="435.51,-269.7 445.9,-267.65 436.49,-262.77 435.51,-269.7"/>
<text text-anchor="middle" x="374.66" y="-267.94" font-family="Times,serif" font-size="14.00">EHLO/250:243</text>
</g>
<!-- q3:1 -->
<g id="node22" class="node">
<title>q3:1</title>
<ellipse fill="none" stroke="black" stroke-width="2" cx="491.48" cy="-214" rx="33.32" ry="18"/>
<text text-anchor="middle" x="491.48" y="-209.32" font-family="Times,serif" font-size="14.00">q3:1</text>
</g>
<!-- q1:244&#45;&gt;q3:1 -->
<g id="edge25" class="edge">
<title>q1:244&#45;&gt;q3:1</title>
<path fill="none" stroke="black" d="M298.66,-231.83C306.31,-230.29 314.27,-228.84 321.79,-227.75 363.67,-221.66 411.82,-218.07 445.93,-216.1"/>
<polygon fill="black" stroke="black" points="446.07,-219.6 455.86,-215.54 445.68,-212.61 446.07,-219.6"/>
<text text-anchor="middle" x="374.66" y="-230.94" font-family="Times,serif" font-size="14.00">EHLO/λ:1</text>
</g>
<!-- q3:1&#45;&gt;q6:231 -->
<g id="edge26" class="edge">
<title>q3:1&#45;&gt;q6:231</title>
<path fill="none" stroke="black" d="M520.6,-204.03C556.2,-193.28 618.09,-181.03 661.18,-207.75 676.47,-217.23 666.91,-230.85 679.18,-244 682.47,-247.52 686.26,-250.75 690.26,-253.69"/>
<polygon fill="black" stroke="black" points="688.3,-256.59 698.58,-259.16 692.15,-250.74 688.3,-256.59"/>
<text text-anchor="middle" x="608.31" y="-211.94" font-family="Times,serif" font-size="14.00">AUTH/235:1</text>
</g>
<!-- q0:244 -->
<g id="node23" class="node">
<title>q0:244</title>
<ellipse fill="none" stroke="black" stroke-width="2" cx="53.95" cy="-241" rx="49.95" ry="49.95"/>
<ellipse fill="none" stroke="black" stroke-width="2" cx="53.95" cy="-241" rx="53.95" ry="53.95"/>
<text text-anchor="middle" x="53.95" y="-236.32" font-family="Times,serif" font-size="14.00">q0:244</text>
</g>
<!-- q0:244&#45;&gt;q1:244 -->
<g id="edge27" class="edge">
<title>q0:244&#45;&gt;q1:244</title>
<path fill="none" stroke="black" d="M104.85,-241C133.64,-241 169.94,-241 199.84,-241"/>
<polygon fill="black" stroke="black" points="199.45,-244.5 209.45,-241 199.45,-237.5 199.45,-244.5"/>
<text text-anchor="middle" x="157.89" y="-244.94" font-family="Times,serif" font-size="14.00">λ/220:244</text>
</g>
</g>
</svg>
