<?xml version="1.0" encoding="UTF-8" standalone="no"?>
<!DOCTYPE svg PUBLIC "-//W3C//DTD SVG 1.1//EN"
 "http://www.w3.org/Graphics/SVG/1.1/DTD/svg11.dtd">
<!-- Generated by graphviz version 12.0.0 (20240803.0821)
 -->
<!-- Pages: 1 -->
<svg width="2460pt" height="348pt"
 viewBox="0.00 0.00 2459.73 348.25" xmlns="http://www.w3.org/2000/svg" xmlns:xlink="http://www.w3.org/1999/xlink">
<g id="graph0" class="graph" transform="scale(1 1) rotate(0) translate(4 344.25)">
<polygon fill="white" stroke="none" points="-4,4 -4,-344.25 2455.73,-344.25 2455.73,4 -4,4"/>
<!-- q1:244 -->
<g id="node1" class="node">
<title>q1:244</title>
<ellipse fill="none" stroke="black" stroke-width="2" cx="257.84" cy="-200" rx="45.95" ry="18"/>
<text text-anchor="middle" x="257.84" y="-195.32" font-family="Times,serif" font-size="14.00">q1:244</text>
</g>
<!-- q2:2 -->
<g id="node2" class="node">
<title>q2:2</title>
<ellipse fill="none" stroke="black" stroke-width="2" cx="491.48" cy="-173" rx="33.32" ry="18"/>
<text text-anchor="middle" x="491.48" y="-168.32" font-family="Times,serif" font-size="14.00">q2:2</text>
</g>
<!-- q1:244&#45;&gt;q2:2 -->
<g id="edge1" class="edge">
<title>q1:244&#45;&gt;q2:2</title>
<path fill="none" stroke="black" d="M298.66,-190.83C306.31,-189.29 314.27,-187.84 321.79,-186.75 363.67,-180.66 411.82,-177.07 445.93,-175.1"/>
<polygon fill="black" stroke="black" points="446.07,-178.6 455.86,-174.54 445.68,-171.61 446.07,-178.6"/>
<text text-anchor="middle" x="374.66" y="-190.94" font-family="Times,serif" font-size="14.00">EHLO/λ:2</text>
</g>
<!-- q3:242 -->
<g id="node3" class="node">
<title>q3:242</title>
<ellipse fill="none" stroke="black" stroke-width="2" cx="491.48" cy="-233" rx="45.95" ry="18"/>
<text text-anchor="middle" x="491.48" y="-228.32" font-family="Times,serif" font-size="14.00">q3:242</text>
</g>
<!-- q1:244&#45;&gt;q3:242 -->
<g id="edge2" class="edge">
<title>q1:244&#45;&gt;q3:242</title>
<path fill="none" stroke="black" d="M302.14,-206.17C340,-211.56 395.17,-219.42 436.02,-225.24"/>
<polygon fill="black" stroke="black" points="435.51,-228.7 445.9,-226.65 436.49,-221.77 435.51,-228.7"/>
<text text-anchor="middle" x="374.66" y="-226.94" font-family="Times,serif" font-size="14.00">EHLO/250:242</text>
</g>
<!-- q4:230 -->
<g id="node4" class="node">
<title>q4:230</title>
<ellipse fill="none" stroke="black" stroke-width="2" cx="725.13" cy="-170" rx="45.95" ry="18"/>
<text text-anchor="middle" x="725.13" y="-165.32" font-family="Times,serif" font-size="14.00">q4:230</text>
</g>
<!-- q2:2&#45;&gt;q4:230 -->
<g id="edge3" class="edge">
<title>q2:2&#45;&gt;q4:230</title>
<path fill="none" stroke="black" d="M523.05,-165.83C533.28,-163.75 544.79,-161.78 555.43,-160.75 602.21,-156.24 614.31,-157.32 661.18,-160.75 664.23,-160.97 667.35,-161.25 670.49,-161.58"/>
<polygon fill="black" stroke="black" points="670.05,-165.05 680.4,-162.75 670.88,-158.1 670.05,-165.05"/>
<text text-anchor="middle" x="608.31" y="-164.94" font-family="Times,serif" font-size="14.00">AUTH/235:2</text>
</g>
<!-- q3:242&#45;&gt;q4:230 -->
<g id="edge4" class="edge">
<title>q3:242&#45;&gt;q4:230</title>
<path fill="none" stroke="black" d="M527.98,-221.15C536.91,-218.29 546.49,-215.32 555.43,-212.75 594.83,-201.43 639.84,-190.11 673.46,-181.96"/>
<polygon fill="black" stroke="black" points="674.03,-185.42 682.93,-179.68 672.39,-178.62 674.03,-185.42"/>
<text text-anchor="middle" x="608.31" y="-216.94" font-family="Times,serif" font-size="14.00">AUTH/235:228</text>
</g>
<!-- q6:13 -->
<g id="node5" class="node">
<title>q6:13</title>
<ellipse fill="none" stroke="black" stroke-width="2" cx="725.13" cy="-237" rx="39.63" ry="18"/>
<text text-anchor="middle" x="725.13" y="-232.32" font-family="Times,serif" font-size="14.00">q6:13</text>
</g>
<!-- q3:242&#45;&gt;q6:13 -->
<g id="edge5" class="edge">
<title>q3:242&#45;&gt;q6:13</title>
<path fill="none" stroke="black" d="M538.25,-233.79C577.13,-234.46 632.89,-235.42 673.18,-236.12"/>
<polygon fill="black" stroke="black" points="673.06,-239.62 683.12,-236.29 673.18,-232.62 673.06,-239.62"/>
<text text-anchor="middle" x="608.31" y="-238.94" font-family="Times,serif" font-size="14.00">AUTH/535:13</text>
</g>
<!-- q5:1 -->
<g id="node6" class="node">
<title>q5:1</title>
<ellipse fill="none" stroke="black" stroke-width="2" cx="839.7" cy="-285" rx="33.32" ry="18"/>
<text text-anchor="middle" x="839.7" y="-280.32" font-family="Times,serif" font-size="14.00">q5:1</text>
</g>
<!-- q3:242&#45;&gt;q5:1 -->
<g id="edge6" class="edge">
<title>q3:242&#45;&gt;q5:1</title>
<path fill="none" stroke="black" d="M524.37,-246.39C534.18,-250.03 545.11,-253.63 555.43,-256 638.41,-275.09 737.97,-281.62 794.23,-283.85"/>
<polygon fill="black" stroke="black" points="793.92,-287.34 804.04,-284.21 794.17,-280.35 793.92,-287.34"/>
<text text-anchor="middle" x="608.31" y="-276.94" font-family="Times,serif" font-size="14.00">AUTH/λ:1</text>
</g>
<!-- q7:227 -->
<g id="node7" class="node">
<title>q7:227</title>
<ellipse fill="none" stroke="black" stroke-width="2" cx="954.27" cy="-179" rx="45.95" ry="18"/>
<text text-anchor="middle" x="954.27" y="-174.32" font-family="Times,serif" font-size="14.00">q7:227</text>
</g>
<!-- q4:230&#45;&gt;q7:227 -->
<g id="edge7" class="edge">
<title>q4:230&#45;&gt;q7:227</title>
<path fill="none" stroke="black" d="M771.82,-171.81C807.78,-173.24 858.09,-175.23 896.61,-176.76"/>
<polygon fill="black" stroke="black" points="896.01,-180.24 906.14,-177.13 896.28,-173.24 896.01,-180.24"/>
<text text-anchor="middle" x="839.7" y="-180.94" font-family="Times,serif" font-size="14.00">MAIL/250:227</text>
</g>
<!-- q8:3 -->
<g id="node8" class="node">
<title>q8:3</title>
<ellipse fill="none" stroke="black" stroke-width="2" cx="954.27" cy="-125" rx="33.32" ry="18"/>
<text text-anchor="middle" x="954.27" y="-120.33" font-family="Times,serif" font-size="14.00">q8:3</text>
</g>
<!-- q4:230&#45;&gt;q8:3 -->
<g id="edge8" class="edge">
<title>q4:230&#45;&gt;q8:3</title>
<path fill="none" stroke="black" d="M762.55,-158.63C771.19,-156.16 780.42,-153.7 789.08,-151.75 829.65,-142.6 876.54,-135.28 909.8,-130.62"/>
<polygon fill="black" stroke="black" points="910.03,-134.12 919.46,-129.3 909.08,-127.19 910.03,-134.12"/>
<text text-anchor="middle" x="839.7" y="-155.94" font-family="Times,serif" font-size="14.00">MAIL/553:3</text>
</g>
<!-- q10:13 -->
<g id="node9" class="node">
<title>q10:13</title>
<ellipse fill="none" stroke="black" stroke-width="2" cx="954.27" cy="-235" rx="45.95" ry="18"/>
<text text-anchor="middle" x="954.27" y="-230.32" font-family="Times,serif" font-size="14.00">q10:13</text>
</g>
<!-- q6:13&#45;&gt;q10:13 -->
<g id="edge9" class="edge">
<title>q6:13&#45;&gt;q10:13</title>
<path fill="none" stroke="black" d="M765.69,-236.65C801.75,-236.33 855.43,-235.86 896.14,-235.5"/>
<polygon fill="black" stroke="black" points="896.04,-239 906.01,-235.41 895.98,-232 896.04,-239"/>
<text text-anchor="middle" x="839.7" y="-239.94" font-family="Times,serif" font-size="14.00">AUTH/334:13</text>
</g>
<!-- q9:10 -->
<g id="node10" class="node">
<title>q9:10</title>
<ellipse fill="none" stroke="black" stroke-width="2" cx="1694.6" cy="-287" rx="39.63" ry="18"/>
<text text-anchor="middle" x="1694.6" y="-282.32" font-family="Times,serif" font-size="14.00">q9:10</text>
</g>
<!-- q5:1&#45;&gt;q9:10 -->
<g id="edge10" class="edge">
<title>q5:1&#45;&gt;q9:10</title>
<path fill="none" stroke="black" d="M873.91,-285.47C918.71,-286.06 1000.98,-287 1071.2,-287 1071.2,-287 1071.2,-287 1440.8,-287 1510.8,-287 1591.8,-287 1642.8,-287"/>
<polygon fill="black" stroke="black" points="1642.69,-290.5 1652.69,-287 1642.69,-283.5 1642.69,-290.5"/>
<text text-anchor="middle" x="1196.5" y="-290.94" font-family="Times,serif" font-size="14.00">MAIL/250:1</text>
</g>
<!-- q11:227 -->
<g id="node11" class="node">
<title>q11:227</title>
<ellipse fill="none" stroke="black" stroke-width="2" cx="1196.5" cy="-179" rx="52.26" ry="18"/>
<text text-anchor="middle" x="1196.5" y="-174.32" font-family="Times,serif" font-size="14.00">q11:227</text>
</g>
<!-- q7:227&#45;&gt;q11:227 -->
<g id="edge11" class="edge">
<title>q7:227&#45;&gt;q11:227</title>
<path fill="none" stroke="black" d="M1001.02,-179C1038.1,-179 1090.8,-179 1131.9,-179"/>
<polygon fill="black" stroke="black" points="1131.69,-182.5 1141.69,-179 1131.69,-175.5 1131.69,-182.5"/>
<text text-anchor="middle" x="1072.2" y="-182.94" font-family="Times,serif" font-size="14.00">RCPT/250:227</text>
</g>
<!-- q12:3 -->
<g id="node12" class="node">
<title>q12:3</title>
<ellipse fill="none" stroke="black" stroke-width="2" cx="1196.5" cy="-125" rx="39.63" ry="18"/>
<text text-anchor="middle" x="1196.5" y="-120.33" font-family="Times,serif" font-size="14.00">q12:3</text>
</g>
<!-- q8:3&#45;&gt;q12:3 -->
<g id="edge12" class="edge">
<title>q8:3&#45;&gt;q12:3</title>
<path fill="none" stroke="black" d="M988.42,-125C1028.8,-125 1097.3,-125 1144.4,-125"/>
<polygon fill="black" stroke="black" points="1144.39,-128.5 1154.39,-125 1144.39,-121.5 1144.39,-128.5"/>
<text text-anchor="middle" x="1072.2" y="-128.94" font-family="Times,serif" font-size="14.00">RSET/250:3</text>
</g>
<!-- q14:13 -->
<g id="node28" class="node">
<title>q14:13</title>
<ellipse fill="none" stroke="black" stroke-width="2" cx="1196.5" cy="-233" rx="45.95" ry="18"/>
<text text-anchor="middle" x="1196.5" y="-228.32" font-family="Times,serif" font-size="14.00">q14:13</text>
</g>
<!-- q10:13&#45;&gt;q14:13 -->
<g id="edge32" class="edge">
<title>q10:13&#45;&gt;q14:13</title>
<path fill="none" stroke="black" d="M1001.02,-234.62C1040.1,-234.29 1096.5,-233.82 1138.5,-233.47"/>
<polygon fill="black" stroke="black" points="1138.41,-236.97 1148.39,-233.39 1138.36,-229.97 1138.41,-236.97"/>
<text text-anchor="middle" x="1072.2" y="-237.94" font-family="Times,serif" font-size="14.00">content/535:13</text>
</g>
<!-- q9:10&#45;&gt;q9:10 -->
<g id="edge27" class="edge">
<title>q9:10&#45;&gt;q9:10</title>
<path fill="none" stroke="black" d="M1672.3,-302.54C1666,-312.91 1673.4,-323 1694.6,-323 1707.5,-323 1715.3,-319.25 1718,-313.98"/>
<polygon fill="black" stroke="black" points="1721.49,-313.67 1717.04,-304.05 1714.52,-314.34 1721.49,-313.67"/>
<text text-anchor="middle" x="1694.6" y="-326.94" font-family="Times,serif" font-size="14.00">RCPT/250:8</text>
</g>
<!-- q13:2 -->
<g id="node24" class="node">
<title>q13:2</title>
<ellipse fill="none" stroke="black" stroke-width="2" cx="1958.4" cy="-288" rx="39.63" ry="18"/>
<text text-anchor="middle" x="1958.4" y="-283.32" font-family="Times,serif" font-size="14.00">q13:2</text>
</g>
<!-- q9:10&#45;&gt;q13:2 -->
<g id="edge28" class="edge">
<title>q9:10&#45;&gt;q13:2</title>
<path fill="none" stroke="black" d="M1735.1,-287.15C1780.9,-287.33 1856.7,-287.62 1906.8,-287.81"/>
<polygon fill="black" stroke="black" points="1906.47,-291.31 1916.49,-287.84 1906.5,-284.31 1906.47,-291.31"/>
<text text-anchor="middle" x="1829.7" y="-290.94" font-family="Times,serif" font-size="14.00">DATA/354:2</text>
</g>
<!-- q15:88 -->
<g id="node13" class="node">
<title>q15:88</title>
<ellipse fill="none" stroke="black" stroke-width="2" cx="1439.8" cy="-89" rx="45.95" ry="18"/>
<text text-anchor="middle" x="1439.8" y="-84.33" font-family="Times,serif" font-size="14.00">q15:88</text>
</g>
<!-- q11:227&#45;&gt;q15:88 -->
<g id="edge13" class="edge">
<title>q11:227&#45;&gt;q15:88</title>
<path fill="none" stroke="black" d="M1233.6,-165.53C1276.6,-149.5 1348.3,-122.76 1394.5,-105.5"/>
<polygon fill="black" stroke="black" points="1395.53,-108.85 1403.68,-102.08 1393.09,-102.29 1395.53,-108.85"/>
<text text-anchor="middle" x="1318.1" y="-156.94" font-family="Times,serif" font-size="14.00">DATA/354:88</text>
</g>
<!-- q16:139 -->
<g id="node14" class="node">
<title>q16:139</title>
<ellipse fill="none" stroke="black" stroke-width="2" cx="1439.8" cy="-179" rx="52.26" ry="18"/>
<text text-anchor="middle" x="1439.8" y="-174.32" font-family="Times,serif" font-size="14.00">q16:139</text>
</g>
<!-- q11:227&#45;&gt;q16:139 -->
<g id="edge14" class="edge">
<title>q11:227&#45;&gt;q16:139</title>
<path fill="none" stroke="black" d="M1249.5,-179C1286.5,-179 1336.3,-179 1375.5,-179"/>
<polygon fill="black" stroke="black" points="1375.29,-182.5 1385.29,-179 1375.29,-175.5 1375.29,-182.5"/>
<text text-anchor="middle" x="1318.1" y="-182.94" font-family="Times,serif" font-size="14.00">RCPT/250:139</text>
</g>
<!-- q20:2940 -->
<g id="node15" class="node">
<title>q20:2940</title>
<ellipse fill="none" stroke="black" stroke-width="2" cx="1694.6" cy="-126" rx="58.57" ry="18"/>
<text text-anchor="middle" x="1694.6" y="-121.33" font-family="Times,serif" font-size="14.00">q20:2940</text>
</g>
<!-- q15:88&#45;&gt;q20:2940 -->
<g id="edge15" class="edge">
<title>q15:88&#45;&gt;q20:2940</title>
<path fill="none" stroke="black" d="M1482.8,-96.54C1491.8,-98.08 1501.2,-99.64 1510,-101 1549.2,-107.06 1593.1,-113.07 1628.2,-117.68"/>
<polygon fill="black" stroke="black" points="1627.43,-121.11 1637.8,-118.93 1628.34,-114.17 1627.43,-121.11"/>
<text text-anchor="middle" x="1564" y="-119.95" font-family="Times,serif" font-size="14.00">content/λ:2</text>
</g>
<!-- q19:65 -->
<g id="node16" class="node">
<title>q19:65</title>
<ellipse fill="none" stroke="black" stroke-width="2" cx="1694.6" cy="-18" rx="45.95" ry="18"/>
<text text-anchor="middle" x="1694.6" y="-13.32" font-family="Times,serif" font-size="14.00">q19:65</text>
</g>
<!-- q15:88&#45;&gt;q19:65 -->
<g id="edge16" class="edge">
<title>q15:88&#45;&gt;q19:65</title>
<path fill="none" stroke="black" d="M1468.1,-73.97C1480.6,-67.61 1495.7,-60.56 1510,-55.75 1552.3,-41.48 1602.1,-31.66 1639.1,-25.62"/>
<polygon fill="black" stroke="black" points="1639.28,-29.13 1648.6,-24.1 1638.18,-22.22 1639.28,-29.13"/>
<text text-anchor="middle" x="1564" y="-59.95" font-family="Times,serif" font-size="14.00">content/554:65</text>
</g>
<!-- q21:21 -->
<g id="node17" class="node">
<title>q21:21</title>
<ellipse fill="none" stroke="black" stroke-width="2" cx="1694.6" cy="-72" rx="45.95" ry="18"/>
<text text-anchor="middle" x="1694.6" y="-67.33" font-family="Times,serif" font-size="14.00">q21:21</text>
</g>
<!-- q15:88&#45;&gt;q21:21 -->
<g id="edge17" class="edge">
<title>q15:88&#45;&gt;q21:21</title>
<path fill="none" stroke="black" d="M1485.8,-85.51C1493.9,-84.9 1502.2,-84.3 1510,-83.75 1552.6,-80.78 1600.7,-77.71 1637,-75.45"/>
<polygon fill="black" stroke="black" points="1637.03,-78.96 1646.79,-74.84 1636.59,-71.97 1637.03,-78.96"/>
<text text-anchor="middle" x="1564" y="-87.95" font-family="Times,serif" font-size="14.00">content/250:21</text>
</g>
<!-- q16:139&#45;&gt;q9:10 -->
<g id="edge19" class="edge">
<title>q16:139&#45;&gt;q9:10</title>
<path fill="none" stroke="black" d="M1473.4,-193.69C1479.9,-197.28 1486.4,-201.42 1492,-206 1501.8,-213.99 1499.4,-221.2 1510,-228 1551.8,-254.67 1571,-240.08 1618,-255.75 1630.2,-259.81 1643.2,-264.89 1654.9,-269.77"/>
<polygon fill="black" stroke="black" points="1653.24,-272.87 1663.81,-273.58 1655.99,-266.43 1653.24,-272.87"/>
<text text-anchor="middle" x="1564" y="-258.94" font-family="Times,serif" font-size="14.00">RCPT/250:1</text>
</g>
<!-- q16:139&#45;&gt;q20:2940 -->
<g id="edge18" class="edge">
<title>q16:139&#45;&gt;q20:2940</title>
<path fill="none" stroke="black" d="M1485.7,-169.59C1526.9,-160.95 1588.2,-148.09 1633.6,-138.57"/>
<polygon fill="black" stroke="black" points="1634.25,-142.01 1643.32,-136.54 1632.81,-135.16 1634.25,-142.01"/>
<text text-anchor="middle" x="1564" y="-167.94" font-family="Times,serif" font-size="14.00">DATA/354:110</text>
</g>
<!-- q22:28 -->
<g id="node18" class="node">
<title>q22:28</title>
<ellipse fill="none" stroke="black" stroke-width="2" cx="1694.6" cy="-215" rx="45.95" ry="18"/>
<text text-anchor="middle" x="1694.6" y="-210.32" font-family="Times,serif" font-size="14.00">q22:28</text>
</g>
<!-- q16:139&#45;&gt;q22:28 -->
<g id="edge20" class="edge">
<title>q16:139&#45;&gt;q22:28</title>
<path fill="none" stroke="black" d="M1486.5,-188C1494.3,-189.42 1502.4,-190.81 1510,-192 1552.8,-198.69 1601.5,-204.72 1638,-208.92"/>
<polygon fill="black" stroke="black" points="1637.46,-212.38 1647.8,-210.05 1638.26,-205.43 1637.46,-212.38"/>
<text text-anchor="middle" x="1564" y="-210.94" font-family="Times,serif" font-size="14.00">DATA/550:28</text>
</g>
<!-- q20:2940&#45;&gt;q20:2940 -->
<g id="edge21" class="edge">
<title>q20:2940&#45;&gt;q20:2940</title>
<path fill="none" stroke="black" d="M1671.3,-143.41C1666.9,-153.09 1674.7,-162 1694.6,-162 1706.1,-162 1713.5,-159.02 1716.9,-154.64"/>
<polygon fill="black" stroke="black" points="1720.36,-155.19 1717.77,-144.92 1713.39,-154.57 1720.36,-155.19"/>
<text text-anchor="middle" x="1694.6" y="-165.94" font-family="Times,serif" font-size="14.00">content/λ:2828</text>
</g>
<!-- q25:7 -->
<g id="node19" class="node">
<title>q25:7</title>
<ellipse fill="none" stroke="black" stroke-width="2" cx="1958.4" cy="-234" rx="39.63" ry="18"/>
<text text-anchor="middle" x="1958.4" y="-229.32" font-family="Times,serif" font-size="14.00">q25:7</text>
</g>
<!-- q20:2940&#45;&gt;q25:7 -->
<g id="edge22" class="edge">
<title>q20:2940&#45;&gt;q25:7</title>
<path fill="none" stroke="black" d="M1711.8,-144.17C1726,-158.98 1748,-179.28 1771.2,-191 1814.4,-212.9 1869,-223.8 1907.8,-229.14"/>
<polygon fill="black" stroke="black" points="1906.93,-232.56 1917.3,-230.37 1907.83,-225.61 1906.93,-232.56"/>
<text text-anchor="middle" x="1829.7" y="-228.94" font-family="Times,serif" font-size="14.00">content/554:7</text>
</g>
<!-- q27:104 -->
<g id="node20" class="node">
<title>q27:104</title>
<ellipse fill="none" stroke="black" stroke-width="2" cx="1958.4" cy="-180" rx="52.26" ry="18"/>
<text text-anchor="middle" x="1958.4" y="-175.32" font-family="Times,serif" font-size="14.00">q27:104</text>
</g>
<!-- q20:2940&#45;&gt;q27:104 -->
<g id="edge23" class="edge">
<title>q20:2940&#45;&gt;q27:104</title>
<path fill="none" stroke="black" d="M1738.6,-138.71C1749.2,-141.63 1760.5,-144.59 1771.2,-147 1813.4,-156.58 1861.5,-165.05 1898.3,-171.01"/>
<polygon fill="black" stroke="black" points="1897.38,-174.41 1907.8,-172.53 1898.48,-167.49 1897.38,-174.41"/>
<text text-anchor="middle" x="1829.7" y="-173.94" font-family="Times,serif" font-size="14.00">content/250:104</text>
</g>
<!-- q26:1 -->
<g id="node21" class="node">
<title>q26:1</title>
<ellipse fill="none" stroke="black" stroke-width="2" cx="1958.4" cy="-126" rx="39.63" ry="18"/>
<text text-anchor="middle" x="1958.4" y="-121.33" font-family="Times,serif" font-size="14.00">q26:1</text>
</g>
<!-- q20:2940&#45;&gt;q26:1 -->
<g id="edge24" class="edge">
<title>q20:2940&#45;&gt;q26:1</title>
<path fill="none" stroke="black" d="M1754,-126C1799.7,-126 1862.6,-126 1906.3,-126"/>
<polygon fill="black" stroke="black" points="1906.29,-129.5 1916.29,-126 1906.29,-122.5 1906.29,-129.5"/>
<text text-anchor="middle" x="1829.7" y="-129.94" font-family="Times,serif" font-size="14.00">content/550:1</text>
</g>
<!-- q24:65 -->
<g id="node22" class="node">
<title>q24:65</title>
<ellipse fill="none" stroke="black" stroke-width="2" cx="1958.4" cy="-18" rx="45.95" ry="18"/>
<text text-anchor="middle" x="1958.4" y="-13.32" font-family="Times,serif" font-size="14.00">q24:65</text>
</g>
<!-- q19:65&#45;&gt;q24:65 -->
<g id="edge25" class="edge">
<title>q19:65&#45;&gt;q24:65</title>
<path fill="none" stroke="black" d="M1741.5,-18C1785.7,-18 1852.6,-18 1900.2,-18"/>
<polygon fill="black" stroke="black" points="1900.09,-21.5 1910.09,-18 1900.09,-14.5 1900.09,-21.5"/>
<text text-anchor="middle" x="1829.7" y="-21.95" font-family="Times,serif" font-size="14.00">RSET/250:65</text>
</g>
<!-- q28:21 -->
<g id="node23" class="node">
<title>q28:21</title>
<ellipse fill="none" stroke="black" stroke-width="2" cx="1958.4" cy="-72" rx="45.95" ry="18"/>
<text text-anchor="middle" x="1958.4" y="-67.33" font-family="Times,serif" font-size="14.00">q28:21</text>
</g>
<!-- q21:21&#45;&gt;q28:21 -->
<g id="edge26" class="edge">
<title>q21:21&#45;&gt;q28:21</title>
<path fill="none" stroke="black" d="M1741.5,-72C1785.7,-72 1852.6,-72 1900.2,-72"/>
<polygon fill="black" stroke="black" points="1900.09,-75.5 1910.09,-72 1900.09,-68.5 1900.09,-75.5"/>
<text text-anchor="middle" x="1829.7" y="-75.95" font-family="Times,serif" font-size="14.00">QUIT/221:21</text>
</g>
<!-- q29:7 -->
<g id="node25" class="node">
<title>q29:7</title>
<ellipse fill="none" stroke="black" stroke-width="2" cx="2199.4" cy="-234" rx="39.63" ry="18"/>
<text text-anchor="middle" x="2199.4" y="-229.32" font-family="Times,serif" font-size="14.00">q29:7</text>
</g>
<!-- q25:7&#45;&gt;q29:7 -->
<g id="edge29" class="edge">
<title>q25:7&#45;&gt;q29:7</title>
<path fill="none" stroke="black" d="M1998.9,-234C2039.5,-234 2103.1,-234 2147.5,-234"/>
<polygon fill="black" stroke="black" points="2147.39,-237.5 2157.39,-234 2147.39,-230.5 2147.39,-237.5"/>
<text text-anchor="middle" x="2078.9" y="-237.94" font-family="Times,serif" font-size="14.00">RSET/250:7</text>
</g>
<!-- q31:104 -->
<g id="node26" class="node">
<title>q31:104</title>
<ellipse fill="none" stroke="black" stroke-width="2" cx="2199.4" cy="-180" rx="52.26" ry="18"/>
<text text-anchor="middle" x="2199.4" y="-175.32" font-family="Times,serif" font-size="14.00">q31:104</text>
</g>
<!-- q27:104&#45;&gt;q31:104 -->
<g id="edge30" class="edge">
<title>q27:104&#45;&gt;q31:104</title>
<path fill="none" stroke="black" d="M2011.6,-180C2048,-180 2096.7,-180 2135.3,-180"/>
<polygon fill="black" stroke="black" points="2134.89,-183.5 2144.89,-180 2134.89,-176.5 2134.89,-183.5"/>
<text text-anchor="middle" x="2078.9" y="-183.94" font-family="Times,serif" font-size="14.00">QUIT/221:104</text>
</g>
<!-- q30:1 -->
<g id="node27" class="node">
<title>q30:1</title>
<ellipse fill="none" stroke="black" stroke-width="2" cx="2199.4" cy="-126" rx="39.63" ry="18"/>
<text text-anchor="middle" x="2199.4" y="-121.33" font-family="Times,serif" font-size="14.00">q30:1</text>
</g>
<!-- q26:1&#45;&gt;q30:1 -->
<g id="edge31" class="edge">
<title>q26:1&#45;&gt;q30:1</title>
<path fill="none" stroke="black" d="M1998.9,-126C2039.5,-126 2103.1,-126 2147.5,-126"/>
<polygon fill="black" stroke="black" points="2147.39,-129.5 2157.39,-126 2147.39,-122.5 2147.39,-129.5"/>
<text text-anchor="middle" x="2078.9" y="-129.94" font-family="Times,serif" font-size="14.00">RSET/250:1</text>
</g>
<!-- q17:2 -->
<g id="node30" class="node">
<title>q17:2</title>
<ellipse fill="none" stroke="black" stroke-width="2" cx="2199.4" cy="-288" rx="39.63" ry="18"/>
<text text-anchor="middle" x="2199.4" y="-283.32" font-family="Times,serif" font-size="14.00">q17:2</text>
</g>
<!-- q13:2&#45;&gt;q17:2 -->
<g id="edge34" class="edge">
<title>q13:2&#45;&gt;q17:2</title>
<path fill="none" stroke="black" d="M1998.9,-288C2039.5,-288 2103.1,-288 2147.5,-288"/>
<polygon fill="black" stroke="black" points="2147.39,-291.5 2157.39,-288 2147.39,-284.5 2147.39,-291.5"/>
<text text-anchor="middle" x="2078.9" y="-291.94" font-family="Times,serif" font-size="14.00">content/554:2</text>
</g>
<!-- q18:4 -->
<g id="node29" class="node">
<title>q18:4</title>
<ellipse fill="none" stroke="black" stroke-width="2" cx="1439.8" cy="-233" rx="39.63" ry="18"/>
<text text-anchor="middle" x="1439.8" y="-228.32" font-family="Times,serif" font-size="14.00">q18:4</text>
</g>
<!-- q14:13&#45;&gt;q18:4 -->
<g id="edge33" class="edge">
<title>q14:13&#45;&gt;q18:4</title>
<path fill="none" stroke="black" d="M1243.1,-233C1284.4,-233 1345.2,-233 1388,-233"/>
<polygon fill="black" stroke="black" points="1387.79,-236.5 1397.79,-233 1387.79,-229.5 1387.79,-236.5"/>
<text text-anchor="middle" x="1318.1" y="-236.94" font-family="Times,serif" font-size="14.00">λ/451:4</text>
</g>
<!-- q23:2 -->
<g id="node31" class="node">
<title>q23:2</title>
<ellipse fill="none" stroke="black" stroke-width="2" cx="2412.1" cy="-288" rx="39.63" ry="18"/>
<text text-anchor="middle" x="2412.1" y="-283.32" font-family="Times,serif" font-size="14.00">q23:2</text>
</g>
<!-- q17:2&#45;&gt;q23:2 -->
<g id="edge35" class="edge">
<title>q17:2&#45;&gt;q23:2</title>
<path fill="none" stroke="black" d="M2240.1,-288C2274.2,-288 2323.6,-288 2360.6,-288"/>
<polygon fill="black" stroke="black" points="2360.09,-291.5 2370.09,-288 2360.09,-284.5 2360.09,-291.5"/>
<text text-anchor="middle" x="2312.1" y="-291.94" font-family="Times,serif" font-size="14.00">RSET/250:2</text>
</g>
<!-- q0:244 -->
<g id="node32" class="node">
<title>q0:244</title>
<ellipse fill="none" stroke="black" stroke-width="2" cx="53.95" cy="-200" rx="49.95" ry="49.95"/>
<ellipse fill="none" stroke="black" stroke-width="2" cx="53.95" cy="-200" rx="53.95" ry="53.95"/>
<text text-anchor="middle" x="53.95" y="-195.32" font-family="Times,serif" font-size="14.00">q0:244</text>
</g>
<!-- q0:244&#45;&gt;q1:244 -->
<g id="edge36" class="edge">
<title>q0:244&#45;&gt;q1:244</title>
<path fill="none" stroke="black" d="M104.85,-200C133.64,-200 169.94,-200 199.84,-200"/>
<polygon fill="black" stroke="black" points="199.45,-203.5 209.45,-200 199.45,-196.5 199.45,-203.5"/>
<text text-anchor="middle" x="157.89" y="-203.94" font-family="Times,serif" font-size="14.00">λ/220:244</text>
</g>
</g>
</svg>
