<?xml version="1.0" encoding="UTF-8" standalone="no"?>
<!DOCTYPE svg PUBLIC "-//W3C//DTD SVG 1.1//EN"
 "http://www.w3.org/Graphics/SVG/1.1/DTD/svg11.dtd">
<!-- Generated by graphviz version 12.0.0 (20240803.0821)
 -->
<!-- Pages: 1 -->
<svg width="2449pt" height="271pt"
 viewBox="0.00 0.00 2449.25 271.00" xmlns="http://www.w3.org/2000/svg" xmlns:xlink="http://www.w3.org/1999/xlink">
<g id="graph0" class="graph" transform="scale(1 1) rotate(0) translate(4 267)">
<polygon fill="white" stroke="none" points="-4,4 -4,-267 2445.25,-267 2445.25,4 -4,4"/>
<!-- q2:241 -->
<g id="node1" class="node">
<title>q2:241</title>
<ellipse fill="none" stroke="black" stroke-width="2" cx="491.48" cy="-117" rx="45.95" ry="18"/>
<text text-anchor="middle" x="491.48" y="-112.33" font-family="Times,serif" font-size="14.00">q2:241</text>
</g>
<!-- q6:232 -->
<g id="node2" class="node">
<title>q6:232</title>
<ellipse fill="none" stroke="black" stroke-width="2" cx="725.13" cy="-50" rx="45.95" ry="18"/>
<text text-anchor="middle" x="725.13" y="-45.33" font-family="Times,serif" font-size="14.00">q6:232</text>
</g>
<!-- q2:241&#45;&gt;q6:232 -->
<g id="edge1" class="edge">
<title>q2:241&#45;&gt;q6:232</title>
<path fill="none" stroke="black" d="M528.03,-105.29C536.95,-102.42 546.52,-99.42 555.43,-96.75 595.45,-84.77 641.14,-72.18 674.86,-63.08"/>
<polygon fill="black" stroke="black" points="675.6,-66.51 684.35,-60.53 673.78,-59.75 675.6,-66.51"/>
<text text-anchor="middle" x="608.31" y="-100.95" font-family="Times,serif" font-size="14.00">AUTH/235:230</text>
</g>
<!-- q5:10 -->
<g id="node3" class="node">
<title>q5:10</title>
<ellipse fill="none" stroke="black" stroke-width="2" cx="725.13" cy="-174" rx="39.63" ry="18"/>
<text text-anchor="middle" x="725.13" y="-169.32" font-family="Times,serif" font-size="14.00">q5:10</text>
</g>
<!-- q2:241&#45;&gt;q5:10 -->
<g id="edge2" class="edge">
<title>q2:241&#45;&gt;q5:10</title>
<path fill="none" stroke="black" d="M524.47,-130.41C534.29,-134.19 545.2,-138.07 555.43,-141 595.26,-152.4 641.49,-161.14 675.48,-166.75"/>
<polygon fill="black" stroke="black" points="674.58,-170.15 685.01,-168.29 675.69,-163.24 674.58,-170.15"/>
<text text-anchor="middle" x="608.31" y="-166.94" font-family="Times,serif" font-size="14.00">AUTH/535:10</text>
</g>
<!-- q4:1 -->
<g id="node4" class="node">
<title>q4:1</title>
<ellipse fill="none" stroke="black" stroke-width="2" cx="725.13" cy="-120" rx="33.32" ry="18"/>
<text text-anchor="middle" x="725.13" y="-115.33" font-family="Times,serif" font-size="14.00">q4:1</text>
</g>
<!-- q2:241&#45;&gt;q4:1 -->
<g id="edge3" class="edge">
<title>q2:241&#45;&gt;q4:1</title>
<path fill="none" stroke="black" d="M538.25,-117.59C579.17,-118.12 638.78,-118.89 679.39,-119.42"/>
<polygon fill="black" stroke="black" points="679.26,-122.92 689.31,-119.55 679.35,-115.92 679.26,-122.92"/>
<text text-anchor="middle" x="608.31" y="-123.95" font-family="Times,serif" font-size="14.00">AUTH/λ:1</text>
</g>
<!-- q7:231 -->
<g id="node5" class="node">
<title>q7:231</title>
<ellipse fill="none" stroke="black" stroke-width="2" cx="954.27" cy="-107" rx="45.95" ry="18"/>
<text text-anchor="middle" x="954.27" y="-102.33" font-family="Times,serif" font-size="14.00">q7:231</text>
</g>
<!-- q6:232&#45;&gt;q7:231 -->
<g id="edge4" class="edge">
<title>q6:232&#45;&gt;q7:231</title>
<path fill="none" stroke="black" d="M766.03,-59.31C799.33,-67.16 848.01,-78.83 890.33,-89.75 894.89,-90.93 899.64,-92.18 904.38,-93.45"/>
<polygon fill="black" stroke="black" points="903.34,-96.79 913.91,-96.02 905.17,-90.04 903.34,-96.79"/>
<text text-anchor="middle" x="839.7" y="-93.95" font-family="Times,serif" font-size="14.00">MAIL/250:230</text>
</g>
<!-- q9:2 -->
<g id="node6" class="node">
<title>q9:2</title>
<ellipse fill="none" stroke="black" stroke-width="2" cx="954.27" cy="-40" rx="33.32" ry="18"/>
<text text-anchor="middle" x="954.27" y="-35.33" font-family="Times,serif" font-size="14.00">q9:2</text>
</g>
<!-- q6:232&#45;&gt;q9:2 -->
<g id="edge5" class="edge">
<title>q6:232&#45;&gt;q9:2</title>
<path fill="none" stroke="black" d="M768.36,-42.96C775.27,-42.05 782.36,-41.26 789.08,-40.75 829.63,-37.69 875.99,-37.81 909.08,-38.51"/>
<polygon fill="black" stroke="black" points="908.6,-42 918.69,-38.75 908.77,-35.01 908.6,-42"/>
<text text-anchor="middle" x="839.7" y="-44.95" font-family="Times,serif" font-size="14.00">MAIL/553:2</text>
</g>
<!-- q8:10 -->
<g id="node7" class="node">
<title>q8:10</title>
<ellipse fill="none" stroke="black" stroke-width="2" cx="954.27" cy="-174" rx="39.63" ry="18"/>
<text text-anchor="middle" x="954.27" y="-169.32" font-family="Times,serif" font-size="14.00">q8:10</text>
</g>
<!-- q5:10&#45;&gt;q8:10 -->
<g id="edge6" class="edge">
<title>q5:10&#45;&gt;q8:10</title>
<path fill="none" stroke="black" d="M765.69,-174C803.6,-174 861,-174 902.32,-174"/>
<polygon fill="black" stroke="black" points="902.27,-177.5 912.27,-174 902.27,-170.5 902.27,-177.5"/>
<text text-anchor="middle" x="839.7" y="-177.94" font-family="Times,serif" font-size="14.00">AUTH/334:10</text>
</g>
<!-- q4:1&#45;&gt;q7:231 -->
<g id="edge7" class="edge">
<title>q4:1&#45;&gt;q7:231</title>
<path fill="none" stroke="black" d="M759.16,-118.11C795.19,-116.05 853.5,-112.71 896.82,-110.23"/>
<polygon fill="black" stroke="black" points="896.75,-113.74 906.54,-109.68 896.36,-106.75 896.75,-113.74"/>
<text text-anchor="middle" x="839.7" y="-120.95" font-family="Times,serif" font-size="14.00">MAIL/250:1</text>
</g>
<!-- q10:231 -->
<g id="node8" class="node">
<title>q10:231</title>
<ellipse fill="none" stroke="black" stroke-width="2" cx="1196.5" cy="-107" rx="52.26" ry="18"/>
<text text-anchor="middle" x="1196.5" y="-102.33" font-family="Times,serif" font-size="14.00">q10:231</text>
</g>
<!-- q7:231&#45;&gt;q10:231 -->
<g id="edge8" class="edge">
<title>q7:231&#45;&gt;q10:231</title>
<path fill="none" stroke="black" d="M1001.02,-107C1038.1,-107 1090.8,-107 1131.9,-107"/>
<polygon fill="black" stroke="black" points="1131.69,-110.5 1141.69,-107 1131.69,-103.5 1131.69,-110.5"/>
<text text-anchor="middle" x="1072.2" y="-110.95" font-family="Times,serif" font-size="14.00">RCPT/250:231</text>
</g>
<!-- q12:2 -->
<g id="node9" class="node">
<title>q12:2</title>
<ellipse fill="none" stroke="black" stroke-width="2" cx="1196.5" cy="-40" rx="39.63" ry="18"/>
<text text-anchor="middle" x="1196.5" y="-35.33" font-family="Times,serif" font-size="14.00">q12:2</text>
</g>
<!-- q9:2&#45;&gt;q12:2 -->
<g id="edge9" class="edge">
<title>q9:2&#45;&gt;q12:2</title>
<path fill="none" stroke="black" d="M988.42,-40C1028.8,-40 1097.3,-40 1144.4,-40"/>
<polygon fill="black" stroke="black" points="1144.39,-43.5 1154.39,-40 1144.39,-36.5 1144.39,-43.5"/>
<text text-anchor="middle" x="1072.2" y="-43.95" font-family="Times,serif" font-size="14.00">RSET/250:2</text>
</g>
<!-- q11:10 -->
<g id="node10" class="node">
<title>q11:10</title>
<ellipse fill="none" stroke="black" stroke-width="2" cx="1196.5" cy="-174" rx="45.95" ry="18"/>
<text text-anchor="middle" x="1196.5" y="-169.32" font-family="Times,serif" font-size="14.00">q11:10</text>
</g>
<!-- q8:10&#45;&gt;q11:10 -->
<g id="edge10" class="edge">
<title>q8:10&#45;&gt;q11:10</title>
<path fill="none" stroke="black" d="M994.67,-174C1033.8,-174 1094.1,-174 1138.4,-174"/>
<polygon fill="black" stroke="black" points="1138.39,-177.5 1148.39,-174 1138.39,-170.5 1138.39,-177.5"/>
<text text-anchor="middle" x="1072.2" y="-177.94" font-family="Times,serif" font-size="14.00">content/535:10</text>
</g>
<!-- q13:149 -->
<g id="node11" class="node">
<title>q13:149</title>
<ellipse fill="none" stroke="black" stroke-width="2" cx="1439.8" cy="-18" rx="52.26" ry="18"/>
<text text-anchor="middle" x="1439.8" y="-13.32" font-family="Times,serif" font-size="14.00">q13:149</text>
</g>
<!-- q10:231&#45;&gt;q13:149 -->
<g id="edge11" class="edge">
<title>q10:231&#45;&gt;q13:149</title>
<path fill="none" stroke="black" d="M1228.9,-92.02C1240.7,-86.62 1254.2,-80.66 1266.7,-75.75 1307.1,-59.92 1353.8,-44.42 1388.3,-33.47"/>
<polygon fill="black" stroke="black" points="1389.16,-36.87 1397.66,-30.54 1387.07,-30.19 1389.16,-36.87"/>
<text text-anchor="middle" x="1318.1" y="-79.95" font-family="Times,serif" font-size="14.00">RCPT/250:141</text>
</g>
<!-- q14:188 -->
<g id="node12" class="node">
<title>q14:188</title>
<ellipse fill="none" stroke="black" stroke-width="2" cx="1672.5" cy="-83" rx="52.26" ry="18"/>
<text text-anchor="middle" x="1672.5" y="-78.33" font-family="Times,serif" font-size="14.00">q14:188</text>
</g>
<!-- q10:231&#45;&gt;q14:188 -->
<g id="edge12" class="edge">
<title>q10:231&#45;&gt;q14:188</title>
<path fill="none" stroke="black" d="M1249.1,-104.39C1336.6,-99.95 1513.9,-90.98 1608.5,-86.19"/>
<polygon fill="black" stroke="black" points="1608.68,-89.68 1618.49,-85.69 1608.32,-82.69 1608.68,-89.68"/>
<text text-anchor="middle" x="1439.8" y="-100.95" font-family="Times,serif" font-size="14.00">DATA/354:90</text>
</g>
<!-- q15:4 -->
<g id="node25" class="node">
<title>q15:4</title>
<ellipse fill="none" stroke="black" stroke-width="2" cx="1439.8" cy="-174" rx="39.63" ry="18"/>
<text text-anchor="middle" x="1439.8" y="-169.32" font-family="Times,serif" font-size="14.00">q15:4</text>
</g>
<!-- q11:10&#45;&gt;q15:4 -->
<g id="edge28" class="edge">
<title>q11:10&#45;&gt;q15:4</title>
<path fill="none" stroke="black" d="M1243.1,-174C1284.4,-174 1345.2,-174 1388,-174"/>
<polygon fill="black" stroke="black" points="1387.79,-177.5 1397.79,-174 1387.79,-170.5 1387.79,-177.5"/>
<text text-anchor="middle" x="1318.1" y="-177.94" font-family="Times,serif" font-size="14.00">λ/451:4</text>
</g>
<!-- q13:149&#45;&gt;q13:149 -->
<g id="edge13" class="edge">
<title>q13:149&#45;&gt;q13:149</title>
<path fill="none" stroke="black" d="M1419,-35.41C1415.1,-45.09 1422,-54 1439.8,-54 1450,-54 1456.6,-51.02 1459.7,-46.64"/>
<polygon fill="black" stroke="black" points="1463.17,-47.14 1460.39,-36.92 1456.19,-46.65 1463.17,-47.14"/>
<text text-anchor="middle" x="1439.8" y="-57.95" font-family="Times,serif" font-size="14.00">RCPT/250:8</text>
</g>
<!-- q13:149&#45;&gt;q14:188 -->
<g id="edge14" class="edge">
<title>q13:149&#45;&gt;q14:188</title>
<path fill="none" stroke="black" d="M1480.2,-30.19C1490,-33.13 1500.4,-36.22 1510,-39 1546.2,-49.42 1587.2,-60.58 1618.8,-69.05"/>
<polygon fill="black" stroke="black" points="1617.57,-72.35 1628.14,-71.54 1619.38,-65.58 1617.57,-72.35"/>
<text text-anchor="middle" x="1556.1" y="-68.95" font-family="Times,serif" font-size="14.00">DATA/354:98</text>
</g>
<!-- q16:43 -->
<g id="node13" class="node">
<title>q16:43</title>
<ellipse fill="none" stroke="black" stroke-width="2" cx="1672.5" cy="-18" rx="45.95" ry="18"/>
<text text-anchor="middle" x="1672.5" y="-13.32" font-family="Times,serif" font-size="14.00">q16:43</text>
</g>
<!-- q13:149&#45;&gt;q16:43 -->
<g id="edge15" class="edge">
<title>q13:149&#45;&gt;q16:43</title>
<path fill="none" stroke="black" d="M1492.8,-18C1529.1,-18 1577.4,-18 1614.7,-18"/>
<polygon fill="black" stroke="black" points="1614.39,-21.5 1624.39,-18 1614.39,-14.5 1614.39,-21.5"/>
<text text-anchor="middle" x="1556.1" y="-21.95" font-family="Times,serif" font-size="14.00">DATA/550:43</text>
</g>
<!-- q17:2509 -->
<g id="node14" class="node">
<title>q17:2509</title>
<ellipse fill="none" stroke="black" stroke-width="2" cx="1927.4" cy="-164" rx="58.57" ry="18"/>
<text text-anchor="middle" x="1927.4" y="-159.32" font-family="Times,serif" font-size="14.00">q17:2509</text>
</g>
<!-- q14:188&#45;&gt;q17:2509 -->
<g id="edge16" class="edge">
<title>q14:188&#45;&gt;q17:2509</title>
<path fill="none" stroke="black" d="M1712.5,-95.48C1755.8,-109.35 1825.9,-131.83 1874,-147.24"/>
<polygon fill="black" stroke="black" points="1872.77,-150.52 1883.36,-150.24 1874.9,-143.85 1872.77,-150.52"/>
<text text-anchor="middle" x="1796.8" y="-140.94" font-family="Times,serif" font-size="14.00">content/λ:92</text>
</g>
<!-- q18:24 -->
<g id="node15" class="node">
<title>q18:24</title>
<ellipse fill="none" stroke="black" stroke-width="2" cx="1927.4" cy="-83" rx="45.95" ry="18"/>
<text text-anchor="middle" x="1927.4" y="-78.33" font-family="Times,serif" font-size="14.00">q18:24</text>
</g>
<!-- q14:188&#45;&gt;q18:24 -->
<g id="edge17" class="edge">
<title>q14:188&#45;&gt;q18:24</title>
<path fill="none" stroke="black" d="M1725.6,-83C1767.4,-83 1826.1,-83 1869.3,-83"/>
<polygon fill="black" stroke="black" points="1869.19,-86.5 1879.19,-83 1869.19,-79.5 1869.19,-86.5"/>
<text text-anchor="middle" x="1796.8" y="-86.95" font-family="Times,serif" font-size="14.00">content/250:24</text>
</g>
<!-- q19:72 -->
<g id="node16" class="node">
<title>q19:72</title>
<ellipse fill="none" stroke="black" stroke-width="2" cx="1927.4" cy="-29" rx="45.95" ry="18"/>
<text text-anchor="middle" x="1927.4" y="-24.32" font-family="Times,serif" font-size="14.00">q19:72</text>
</g>
<!-- q14:188&#45;&gt;q19:72 -->
<g id="edge18" class="edge">
<title>q14:188&#45;&gt;q19:72</title>
<path fill="none" stroke="black" d="M1711.8,-70.36C1721.8,-67.3 1732.6,-64.2 1742.8,-61.75 1785.8,-51.34 1835.3,-42.7 1872.1,-36.92"/>
<polygon fill="black" stroke="black" points="1872.16,-40.45 1881.5,-35.45 1871.08,-33.53 1872.16,-40.45"/>
<text text-anchor="middle" x="1796.8" y="-65.95" font-family="Times,serif" font-size="14.00">content/554:72</text>
</g>
<!-- q17:2509&#45;&gt;q17:2509 -->
<g id="edge19" class="edge">
<title>q17:2509&#45;&gt;q17:2509</title>
<path fill="none" stroke="black" d="M1904,-181.41C1899.7,-191.09 1907.5,-200 1927.4,-200 1938.9,-200 1946.3,-197.02 1949.7,-192.64"/>
<polygon fill="black" stroke="black" points="1953.16,-193.19 1950.57,-182.92 1946.19,-192.57 1953.16,-193.19"/>
<text text-anchor="middle" x="1927.4" y="-203.94" font-family="Times,serif" font-size="14.00">content/λ:2417</text>
</g>
<!-- q21:2 -->
<g id="node17" class="node">
<title>q21:2</title>
<ellipse fill="none" stroke="black" stroke-width="2" cx="2175.9" cy="-245" rx="39.63" ry="18"/>
<text text-anchor="middle" x="2175.9" y="-240.32" font-family="Times,serif" font-size="14.00">q21:2</text>
</g>
<!-- q17:2509&#45;&gt;q21:2 -->
<g id="edge20" class="edge">
<title>q17:2509&#45;&gt;q21:2</title>
<path fill="none" stroke="black" d="M1955.6,-180.54C1969.6,-188.52 1987.3,-197.71 2003.9,-204 2044.1,-219.16 2091.7,-230.04 2126.5,-236.76"/>
<polygon fill="black" stroke="black" points="2125.74,-240.18 2136.21,-238.6 2127.04,-233.3 2125.74,-240.18"/>
<text text-anchor="middle" x="2057.9" y="-236.94" font-family="Times,serif" font-size="14.00">content/554:2</text>
</g>
<!-- q20:1 -->
<g id="node18" class="node">
<title>q20:1</title>
<ellipse fill="none" stroke="black" stroke-width="2" cx="2175.9" cy="-191" rx="39.63" ry="18"/>
<text text-anchor="middle" x="2175.9" y="-186.32" font-family="Times,serif" font-size="14.00">q20:1</text>
</g>
<!-- q17:2509&#45;&gt;q20:1 -->
<g id="edge21" class="edge">
<title>q17:2509&#45;&gt;q20:1</title>
<path fill="none" stroke="black" d="M1983.7,-170.06C2026.1,-174.71 2084.3,-181.08 2125.2,-185.56"/>
<polygon fill="black" stroke="black" points="2124.77,-189.03 2135.09,-186.65 2125.54,-182.08 2124.77,-189.03"/>
<text text-anchor="middle" x="2057.9" y="-186.94" font-family="Times,serif" font-size="14.00">content/550:1</text>
</g>
<!-- q22:89 -->
<g id="node19" class="node">
<title>q22:89</title>
<ellipse fill="none" stroke="black" stroke-width="2" cx="2175.9" cy="-137" rx="45.95" ry="18"/>
<text text-anchor="middle" x="2175.9" y="-132.32" font-family="Times,serif" font-size="14.00">q22:89</text>
</g>
<!-- q17:2509&#45;&gt;q22:89 -->
<g id="edge22" class="edge">
<title>q17:2509&#45;&gt;q22:89</title>
<path fill="none" stroke="black" d="M1978.7,-154.51C1987.1,-153.11 1995.7,-151.8 2003.9,-150.75 2041.8,-145.91 2084.7,-142.47 2118,-140.24"/>
<polygon fill="black" stroke="black" points="2118.14,-143.74 2127.89,-139.6 2117.68,-136.75 2118.14,-143.74"/>
<text text-anchor="middle" x="2057.9" y="-153.94" font-family="Times,serif" font-size="14.00">content/250:89</text>
</g>
<!-- q23:24 -->
<g id="node20" class="node">
<title>q23:24</title>
<ellipse fill="none" stroke="black" stroke-width="2" cx="2175.9" cy="-83" rx="45.95" ry="18"/>
<text text-anchor="middle" x="2175.9" y="-78.33" font-family="Times,serif" font-size="14.00">q23:24</text>
</g>
<!-- q18:24&#45;&gt;q23:24 -->
<g id="edge23" class="edge">
<title>q18:24&#45;&gt;q23:24</title>
<path fill="none" stroke="black" d="M1974.1,-83C2014.8,-83 2074.3,-83 2118,-83"/>
<polygon fill="black" stroke="black" points="2117.79,-86.5 2127.79,-83 2117.79,-79.5 2117.79,-86.5"/>
<text text-anchor="middle" x="2057.9" y="-86.95" font-family="Times,serif" font-size="14.00">QUIT/221:24</text>
</g>
<!-- q24:72 -->
<g id="node21" class="node">
<title>q24:72</title>
<ellipse fill="none" stroke="black" stroke-width="2" cx="2175.9" cy="-29" rx="45.95" ry="18"/>
<text text-anchor="middle" x="2175.9" y="-24.32" font-family="Times,serif" font-size="14.00">q24:72</text>
</g>
<!-- q19:72&#45;&gt;q24:72 -->
<g id="edge24" class="edge">
<title>q19:72&#45;&gt;q24:72</title>
<path fill="none" stroke="black" d="M1974.1,-29C2014.8,-29 2074.3,-29 2118,-29"/>
<polygon fill="black" stroke="black" points="2117.79,-32.5 2127.79,-29 2117.79,-25.5 2117.79,-32.5"/>
<text text-anchor="middle" x="2057.9" y="-32.95" font-family="Times,serif" font-size="14.00">RSET/250:72</text>
</g>
<!-- q26:2 -->
<g id="node22" class="node">
<title>q26:2</title>
<ellipse fill="none" stroke="black" stroke-width="2" cx="2395.3" cy="-245" rx="39.63" ry="18"/>
<text text-anchor="middle" x="2395.3" y="-240.32" font-family="Times,serif" font-size="14.00">q26:2</text>
</g>
<!-- q21:2&#45;&gt;q26:2 -->
<g id="edge25" class="edge">
<title>q21:2&#45;&gt;q26:2</title>
<path fill="none" stroke="black" d="M2216.5,-245C2252.3,-245 2305.1,-245 2343.9,-245"/>
<polygon fill="black" stroke="black" points="2343.39,-248.5 2353.39,-245 2343.39,-241.5 2343.39,-248.5"/>
<text text-anchor="middle" x="2285.6" y="-248.94" font-family="Times,serif" font-size="14.00">RSET/250:2</text>
</g>
<!-- q25:1 -->
<g id="node23" class="node">
<title>q25:1</title>
<ellipse fill="none" stroke="black" stroke-width="2" cx="2395.3" cy="-191" rx="39.63" ry="18"/>
<text text-anchor="middle" x="2395.3" y="-186.32" font-family="Times,serif" font-size="14.00">q25:1</text>
</g>
<!-- q20:1&#45;&gt;q25:1 -->
<g id="edge26" class="edge">
<title>q20:1&#45;&gt;q25:1</title>
<path fill="none" stroke="black" d="M2216.5,-191C2252.3,-191 2305.1,-191 2343.9,-191"/>
<polygon fill="black" stroke="black" points="2343.39,-194.5 2353.39,-191 2343.39,-187.5 2343.39,-194.5"/>
<text text-anchor="middle" x="2285.6" y="-194.94" font-family="Times,serif" font-size="14.00">RSET/250:1</text>
</g>
<!-- q27:89 -->
<g id="node24" class="node">
<title>q27:89</title>
<ellipse fill="none" stroke="black" stroke-width="2" cx="2395.3" cy="-137" rx="45.95" ry="18"/>
<text text-anchor="middle" x="2395.3" y="-132.32" font-family="Times,serif" font-size="14.00">q27:89</text>
</g>
<!-- q22:89&#45;&gt;q27:89 -->
<g id="edge27" class="edge">
<title>q22:89&#45;&gt;q27:89</title>
<path fill="none" stroke="black" d="M2222.7,-137C2256.1,-137 2301.5,-137 2337.3,-137"/>
<polygon fill="black" stroke="black" points="2336.99,-140.5 2346.99,-137 2336.99,-133.5 2336.99,-140.5"/>
<text text-anchor="middle" x="2285.6" y="-140.94" font-family="Times,serif" font-size="14.00">QUIT/221:89</text>
</g>
<!-- q1:243 -->
<g id="node26" class="node">
<title>q1:243</title>
<ellipse fill="none" stroke="black" stroke-width="2" cx="257.84" cy="-84" rx="45.95" ry="18"/>
<text text-anchor="middle" x="257.84" y="-79.33" font-family="Times,serif" font-size="14.00">q1:243</text>
</g>
<!-- q1:243&#45;&gt;q2:241 -->
<g id="edge29" class="edge">
<title>q1:243&#45;&gt;q2:241</title>
<path fill="none" stroke="black" d="M302.14,-90.17C340,-95.56 395.17,-103.42 436.02,-109.24"/>
<polygon fill="black" stroke="black" points="435.51,-112.7 445.9,-110.65 436.49,-105.77 435.51,-112.7"/>
<text text-anchor="middle" x="374.66" y="-111.95" font-family="Times,serif" font-size="14.00">EHLO/250:241</text>
</g>
<!-- q3:2 -->
<g id="node27" class="node">
<title>q3:2</title>
<ellipse fill="none" stroke="black" stroke-width="2" cx="491.48" cy="-57" rx="33.32" ry="18"/>
<text text-anchor="middle" x="491.48" y="-52.33" font-family="Times,serif" font-size="14.00">q3:2</text>
</g>
<!-- q1:243&#45;&gt;q3:2 -->
<g id="edge30" class="edge">
<title>q1:243&#45;&gt;q3:2</title>
<path fill="none" stroke="black" d="M296.21,-73.12C304.56,-71.03 313.43,-69.08 321.79,-67.75 363.53,-61.09 411.69,-58.52 445.85,-57.55"/>
<polygon fill="black" stroke="black" points="445.89,-61.05 455.8,-57.31 445.71,-54.05 445.89,-61.05"/>
<text text-anchor="middle" x="374.66" y="-71.95" font-family="Times,serif" font-size="14.00">EHLO/λ:2</text>
</g>
<!-- q3:2&#45;&gt;q6:232 -->
<g id="edge31" class="edge">
<title>q3:2&#45;&gt;q6:232</title>
<path fill="none" stroke="black" d="M523.05,-49.83C533.28,-47.76 544.79,-45.78 555.43,-44.75 593,-41.13 635.47,-42.48 668.4,-44.72"/>
<polygon fill="black" stroke="black" points="667.89,-48.19 678.12,-45.43 668.4,-41.21 667.89,-48.19"/>
<text text-anchor="middle" x="608.31" y="-48.95" font-family="Times,serif" font-size="14.00">AUTH/235:2</text>
</g>
<!-- q0:243 -->
<g id="node28" class="node">
<title>q0:243</title>
<ellipse fill="none" stroke="black" stroke-width="2" cx="53.95" cy="-84" rx="49.95" ry="49.95"/>
<ellipse fill="none" stroke="black" stroke-width="2" cx="53.95" cy="-84" rx="53.95" ry="53.95"/>
<text text-anchor="middle" x="53.95" y="-79.33" font-family="Times,serif" font-size="14.00">q0:243</text>
</g>
<!-- q0:243&#45;&gt;q1:243 -->
<g id="edge32" class="edge">
<title>q0:243&#45;&gt;q1:243</title>
<path fill="none" stroke="black" d="M104.85,-84C133.64,-84 169.94,-84 199.84,-84"/>
<polygon fill="black" stroke="black" points="199.45,-87.5 209.45,-84 199.45,-80.5 199.45,-87.5"/>
<text text-anchor="middle" x="157.89" y="-87.95" font-family="Times,serif" font-size="14.00">λ/220:243</text>
</g>
</g>
</svg>
