<?xml version="1.0" encoding="UTF-8" standalone="no"?>
<!DOCTYPE svg PUBLIC "-//W3C//DTD SVG 1.1//EN"
 "http://www.w3.org/Graphics/SVG/1.1/DTD/svg11.dtd">
<!-- Generated by graphviz version 12.0.0 (20240803.0821)
 -->
<!-- Pages: 1 -->
<svg width="2204pt" height="267pt"
 viewBox="0.00 0.00 2203.85 267.00" xmlns="http://www.w3.org/2000/svg" xmlns:xlink="http://www.w3.org/1999/xlink">
<g id="graph0" class="graph" transform="scale(1 1) rotate(0) translate(4 263)">
<polygon fill="white" stroke="none" points="-4,4 -4,-263 2199.85,-263 2199.85,4 -4,4"/>
<!-- q0:244 -->
<g id="node1" class="node">
<title>q0:244</title>
<ellipse fill="none" stroke="black" stroke-width="2" cx="53.95" cy="-128" rx="49.95" ry="49.95"/>
<ellipse fill="none" stroke="black" stroke-width="2" cx="53.95" cy="-128" rx="53.95" ry="53.95"/>
<text text-anchor="middle" x="53.95" y="-123.33" font-family="Times,serif" font-size="14.00">q0:244</text>
</g>
<!-- q1:244 -->
<g id="node2" class="node">
<title>q1:244</title>
<ellipse fill="none" stroke="black" stroke-width="2" cx="257.84" cy="-128" rx="45.95" ry="18"/>
<text text-anchor="middle" x="257.84" y="-123.33" font-family="Times,serif" font-size="14.00">q1:244</text>
</g>
<!-- q0:244&#45;&gt;q1:244 -->
<g id="edge1" class="edge">
<title>q0:244&#45;&gt;q1:244</title>
<path fill="none" stroke="black" d="M104.85,-128C133.64,-128 169.94,-128 199.84,-128"/>
<polygon fill="black" stroke="black" points="199.45,-131.5 209.45,-128 199.45,-124.5 199.45,-131.5"/>
<text text-anchor="middle" x="157.89" y="-131.94" font-family="Times,serif" font-size="14.00">λ/220:244</text>
</g>
<!-- q3:243 -->
<g id="node3" class="node">
<title>q3:243</title>
<ellipse fill="none" stroke="black" stroke-width="2" cx="491.48" cy="-161" rx="45.95" ry="18"/>
<text text-anchor="middle" x="491.48" y="-156.32" font-family="Times,serif" font-size="14.00">q3:243</text>
</g>
<!-- q1:244&#45;&gt;q3:243 -->
<g id="edge2" class="edge">
<title>q1:244&#45;&gt;q3:243</title>
<path fill="none" stroke="black" d="M302.14,-134.17C340,-139.56 395.17,-147.42 436.02,-153.24"/>
<polygon fill="black" stroke="black" points="435.51,-156.7 445.9,-154.65 436.49,-149.77 435.51,-156.7"/>
<text text-anchor="middle" x="374.66" y="-154.94" font-family="Times,serif" font-size="14.00">EHLO/250:243</text>
</g>
<!-- q2:1 -->
<g id="node4" class="node">
<title>q2:1</title>
<ellipse fill="none" stroke="black" stroke-width="2" cx="491.48" cy="-101" rx="33.32" ry="18"/>
<text text-anchor="middle" x="491.48" y="-96.33" font-family="Times,serif" font-size="14.00">q2:1</text>
</g>
<!-- q1:244&#45;&gt;q2:1 -->
<g id="edge3" class="edge">
<title>q1:244&#45;&gt;q2:1</title>
<path fill="none" stroke="black" d="M296.21,-117.12C304.56,-115.03 313.43,-113.08 321.79,-111.75 363.53,-105.09 411.69,-102.52 445.85,-101.55"/>
<polygon fill="black" stroke="black" points="445.88,-105.05 455.8,-101.31 445.71,-98.05 445.88,-105.05"/>
<text text-anchor="middle" x="374.66" y="-115.95" font-family="Times,serif" font-size="14.00">EHLO/λ:1</text>
</g>
<!-- q6:12 -->
<g id="node5" class="node">
<title>q6:12</title>
<ellipse fill="none" stroke="black" stroke-width="2" cx="725.13" cy="-214" rx="39.63" ry="18"/>
<text text-anchor="middle" x="725.13" y="-209.32" font-family="Times,serif" font-size="14.00">q6:12</text>
</g>
<!-- q3:243&#45;&gt;q6:12 -->
<g id="edge4" class="edge">
<title>q3:243&#45;&gt;q6:12</title>
<path fill="none" stroke="black" d="M521.01,-175.66C531.59,-180.56 543.83,-185.63 555.43,-189 594.39,-200.32 639.96,-206.68 673.92,-210.16"/>
<polygon fill="black" stroke="black" points="673.16,-213.6 683.45,-211.08 673.83,-206.64 673.16,-213.6"/>
<text text-anchor="middle" x="608.31" y="-211.94" font-family="Times,serif" font-size="14.00">AUTH/535:12</text>
</g>
<!-- q4:231 -->
<g id="node6" class="node">
<title>q4:231</title>
<ellipse fill="none" stroke="black" stroke-width="2" cx="725.13" cy="-105" rx="45.95" ry="18"/>
<text text-anchor="middle" x="725.13" y="-100.33" font-family="Times,serif" font-size="14.00">q4:231</text>
</g>
<!-- q3:243&#45;&gt;q4:231 -->
<g id="edge5" class="edge">
<title>q3:243&#45;&gt;q4:231</title>
<path fill="none" stroke="black" d="M517.99,-145.47C529.12,-139.36 542.55,-132.83 555.43,-128.75 591.75,-117.25 634.23,-111.31 667.48,-108.25"/>
<polygon fill="black" stroke="black" points="667.66,-111.75 677.32,-107.41 667.06,-104.77 667.66,-111.75"/>
<text text-anchor="middle" x="608.31" y="-131.94" font-family="Times,serif" font-size="14.00">AUTH/235:230</text>
</g>
<!-- q5:1 -->
<g id="node7" class="node">
<title>q5:1</title>
<ellipse fill="none" stroke="black" stroke-width="2" cx="839.7" cy="-168" rx="33.32" ry="18"/>
<text text-anchor="middle" x="839.7" y="-163.32" font-family="Times,serif" font-size="14.00">q5:1</text>
</g>
<!-- q3:243&#45;&gt;q5:1 -->
<g id="edge6" class="edge">
<title>q3:243&#45;&gt;q5:1</title>
<path fill="none" stroke="black" d="M538.1,-161.92C604.79,-163.27 728.13,-165.76 794.18,-167.1"/>
<polygon fill="black" stroke="black" points="793.86,-170.59 803.93,-167.3 794,-163.6 793.86,-170.59"/>
<text text-anchor="middle" x="608.31" y="-167.94" font-family="Times,serif" font-size="14.00">AUTH/λ:1</text>
</g>
<!-- q2:1&#45;&gt;q4:231 -->
<g id="edge7" class="edge">
<title>q2:1&#45;&gt;q4:231</title>
<path fill="none" stroke="black" d="M523.05,-93.83C533.28,-91.75 544.79,-89.78 555.43,-88.75 602.21,-84.24 614.56,-82.83 661.18,-88.75 666.17,-89.38 671.32,-90.29 676.43,-91.35"/>
<polygon fill="black" stroke="black" points="675.49,-94.72 686.01,-93.54 677.05,-87.9 675.49,-94.72"/>
<text text-anchor="middle" x="608.31" y="-92.95" font-family="Times,serif" font-size="14.00">AUTH/235:1</text>
</g>
<!-- q10:12 -->
<g id="node8" class="node">
<title>q10:12</title>
<ellipse fill="none" stroke="black" stroke-width="2" cx="954.27" cy="-215" rx="45.95" ry="18"/>
<text text-anchor="middle" x="954.27" y="-210.32" font-family="Times,serif" font-size="14.00">q10:12</text>
</g>
<!-- q6:12&#45;&gt;q10:12 -->
<g id="edge8" class="edge">
<title>q6:12&#45;&gt;q10:12</title>
<path fill="none" stroke="black" d="M765.69,-214.17C801.75,-214.33 855.43,-214.57 896.14,-214.75"/>
<polygon fill="black" stroke="black" points="895.99,-218.25 906.01,-214.79 896.02,-211.25 895.99,-218.25"/>
<text text-anchor="middle" x="839.7" y="-217.94" font-family="Times,serif" font-size="14.00">AUTH/334:12</text>
</g>
<!-- q7:228 -->
<g id="node9" class="node">
<title>q7:228</title>
<ellipse fill="none" stroke="black" stroke-width="2" cx="954.27" cy="-116" rx="45.95" ry="18"/>
<text text-anchor="middle" x="954.27" y="-111.33" font-family="Times,serif" font-size="14.00">q7:228</text>
</g>
<!-- q4:231&#45;&gt;q7:228 -->
<g id="edge9" class="edge">
<title>q4:231&#45;&gt;q7:228</title>
<path fill="none" stroke="black" d="M771.55,-107.2C807.61,-108.95 858.21,-111.4 896.86,-113.27"/>
<polygon fill="black" stroke="black" points="896.26,-116.75 906.42,-113.73 896.6,-109.75 896.26,-116.75"/>
<text text-anchor="middle" x="839.7" y="-116.95" font-family="Times,serif" font-size="14.00">MAIL/250:228</text>
</g>
<!-- q8:3 -->
<g id="node10" class="node">
<title>q8:3</title>
<ellipse fill="none" stroke="black" stroke-width="2" cx="954.27" cy="-62" rx="33.32" ry="18"/>
<text text-anchor="middle" x="954.27" y="-57.33" font-family="Times,serif" font-size="14.00">q8:3</text>
</g>
<!-- q4:231&#45;&gt;q8:3 -->
<g id="edge10" class="edge">
<title>q4:231&#45;&gt;q8:3</title>
<path fill="none" stroke="black" d="M763.24,-94.09C771.69,-91.81 780.66,-89.56 789.08,-87.75 829.71,-79.03 876.59,-71.97 909.83,-67.46"/>
<polygon fill="black" stroke="black" points="910.03,-70.97 919.48,-66.18 909.1,-64.03 910.03,-70.97"/>
<text text-anchor="middle" x="839.7" y="-91.95" font-family="Times,serif" font-size="14.00">MAIL/553:3</text>
</g>
<!-- q9:150 -->
<g id="node11" class="node">
<title>q9:150</title>
<ellipse fill="none" stroke="black" stroke-width="2" cx="1433.4" cy="-152" rx="45.95" ry="18"/>
<text text-anchor="middle" x="1433.4" y="-147.32" font-family="Times,serif" font-size="14.00">q9:150</text>
</g>
<!-- q5:1&#45;&gt;q9:150 -->
<g id="edge11" class="edge">
<title>q5:1&#45;&gt;q9:150</title>
<path fill="none" stroke="black" d="M873.78,-167.11C970.45,-164.49 1253.3,-156.84 1375.3,-153.54"/>
<polygon fill="black" stroke="black" points="1375.18,-157.04 1385.09,-153.28 1375,-150.05 1375.18,-157.04"/>
<text text-anchor="middle" x="1072.2" y="-166.94" font-family="Times,serif" font-size="14.00">MAIL/250:1</text>
</g>
<!-- q15:12 -->
<g id="node12" class="node">
<title>q15:12</title>
<ellipse fill="none" stroke="black" stroke-width="2" cx="1196.5" cy="-236" rx="45.95" ry="18"/>
<text text-anchor="middle" x="1196.5" y="-231.32" font-family="Times,serif" font-size="14.00">q15:12</text>
</g>
<!-- q10:12&#45;&gt;q15:12 -->
<g id="edge12" class="edge">
<title>q10:12&#45;&gt;q15:12</title>
<path fill="none" stroke="black" d="M1000.17,-218.93C1039.6,-222.37 1097.1,-227.4 1139.5,-231.11"/>
<polygon fill="black" stroke="black" points="1139.03,-234.58 1149.29,-231.96 1139.63,-227.61 1139.03,-234.58"/>
<text text-anchor="middle" x="1072.2" y="-232.94" font-family="Times,serif" font-size="14.00">content/535:12</text>
</g>
<!-- q11:228 -->
<g id="node13" class="node">
<title>q11:228</title>
<ellipse fill="none" stroke="black" stroke-width="2" cx="1196.5" cy="-116" rx="52.26" ry="18"/>
<text text-anchor="middle" x="1196.5" y="-111.33" font-family="Times,serif" font-size="14.00">q11:228</text>
</g>
<!-- q7:228&#45;&gt;q11:228 -->
<g id="edge13" class="edge">
<title>q7:228&#45;&gt;q11:228</title>
<path fill="none" stroke="black" d="M1001.02,-116C1038.1,-116 1090.8,-116 1131.9,-116"/>
<polygon fill="black" stroke="black" points="1131.69,-119.5 1141.69,-116 1131.69,-112.5 1131.69,-119.5"/>
<text text-anchor="middle" x="1072.2" y="-119.95" font-family="Times,serif" font-size="14.00">RCPT/250:228</text>
</g>
<!-- q12:3 -->
<g id="node14" class="node">
<title>q12:3</title>
<ellipse fill="none" stroke="black" stroke-width="2" cx="1196.5" cy="-62" rx="39.63" ry="18"/>
<text text-anchor="middle" x="1196.5" y="-57.33" font-family="Times,serif" font-size="14.00">q12:3</text>
</g>
<!-- q8:3&#45;&gt;q12:3 -->
<g id="edge14" class="edge">
<title>q8:3&#45;&gt;q12:3</title>
<path fill="none" stroke="black" d="M988.42,-62C1028.8,-62 1097.3,-62 1144.4,-62"/>
<polygon fill="black" stroke="black" points="1144.39,-65.5 1154.39,-62 1144.39,-58.5 1144.39,-65.5"/>
<text text-anchor="middle" x="1072.2" y="-65.95" font-family="Times,serif" font-size="14.00">RSET/250:3</text>
</g>
<!-- q9:150&#45;&gt;q9:150 -->
<g id="edge15" class="edge">
<title>q9:150&#45;&gt;q9:150</title>
<path fill="none" stroke="black" d="M1413,-169.04C1408.8,-178.86 1415.6,-188 1433.4,-188 1443.7,-188 1450.3,-184.94 1453.3,-180.47"/>
<polygon fill="black" stroke="black" points="1456.79,-180.72 1453.82,-170.55 1449.8,-180.35 1456.79,-180.72"/>
<text text-anchor="middle" x="1433.4" y="-191.94" font-family="Times,serif" font-size="14.00">RCPT/250:9</text>
</g>
<!-- q14:2552 -->
<g id="node15" class="node">
<title>q14:2552</title>
<ellipse fill="none" stroke="black" stroke-width="2" cx="1682" cy="-145" rx="58.57" ry="18"/>
<text text-anchor="middle" x="1682" y="-140.32" font-family="Times,serif" font-size="14.00">q14:2552</text>
</g>
<!-- q9:150&#45;&gt;q14:2552 -->
<g id="edge16" class="edge">
<title>q9:150&#45;&gt;q14:2552</title>
<path fill="none" stroke="black" d="M1480.2,-150.7C1517.1,-149.65 1569.5,-148.16 1611.5,-146.97"/>
<polygon fill="black" stroke="black" points="1611.39,-150.47 1621.29,-146.69 1611.19,-143.48 1611.39,-150.47"/>
<text text-anchor="middle" x="1551.4" y="-153.94" font-family="Times,serif" font-size="14.00">DATA/354:98</text>
</g>
<!-- q13:43 -->
<g id="node16" class="node">
<title>q13:43</title>
<ellipse fill="none" stroke="black" stroke-width="2" cx="1682" cy="-234" rx="45.95" ry="18"/>
<text text-anchor="middle" x="1682" y="-229.32" font-family="Times,serif" font-size="14.00">q13:43</text>
</g>
<!-- q9:150&#45;&gt;q13:43 -->
<g id="edge17" class="edge">
<title>q9:150&#45;&gt;q13:43</title>
<path fill="none" stroke="black" d="M1470,-163.84C1513.4,-178.28 1587,-202.73 1634.7,-218.62"/>
<polygon fill="black" stroke="black" points="1633.37,-221.87 1643.96,-221.69 1635.57,-215.22 1633.37,-221.87"/>
<text text-anchor="middle" x="1551.4" y="-210.94" font-family="Times,serif" font-size="14.00">DATA/550:43</text>
</g>
<!-- q20:4 -->
<g id="node17" class="node">
<title>q20:4</title>
<ellipse fill="none" stroke="black" stroke-width="2" cx="1433.4" cy="-241" rx="39.63" ry="18"/>
<text text-anchor="middle" x="1433.4" y="-236.32" font-family="Times,serif" font-size="14.00">q20:4</text>
</g>
<!-- q15:12&#45;&gt;q20:4 -->
<g id="edge18" class="edge">
<title>q15:12&#45;&gt;q20:4</title>
<path fill="none" stroke="black" d="M1243.3,-236.98C1283,-237.82 1340.4,-239.04 1381.5,-239.92"/>
<polygon fill="black" stroke="black" points="1381.31,-243.42 1391.39,-240.13 1381.46,-236.42 1381.31,-243.42"/>
<text text-anchor="middle" x="1318.1" y="-242.94" font-family="Times,serif" font-size="14.00">λ/451:4</text>
</g>
<!-- q11:228&#45;&gt;q9:150 -->
<g id="edge31" class="edge">
<title>q11:228&#45;&gt;q9:150</title>
<path fill="none" stroke="black" d="M1248.2,-119.96C1282.6,-123.11 1329,-128.24 1369.5,-135.75 1374.1,-136.61 1378.9,-137.62 1383.7,-138.7"/>
<polygon fill="black" stroke="black" points="1382.69,-142.06 1393.23,-141 1384.33,-135.25 1382.69,-142.06"/>
<text text-anchor="middle" x="1318.1" y="-138.94" font-family="Times,serif" font-size="14.00">RCPT/250:140</text>
</g>
<!-- q16:88 -->
<g id="node18" class="node">
<title>q16:88</title>
<ellipse fill="none" stroke="black" stroke-width="2" cx="1433.4" cy="-85" rx="45.95" ry="18"/>
<text text-anchor="middle" x="1433.4" y="-80.33" font-family="Times,serif" font-size="14.00">q16:88</text>
</g>
<!-- q11:228&#45;&gt;q16:88 -->
<g id="edge32" class="edge">
<title>q11:228&#45;&gt;q16:88</title>
<path fill="none" stroke="black" d="M1226.3,-100.3C1238.4,-94.52 1252.9,-88.68 1266.7,-85.75 1302.9,-78.12 1344.4,-77.95 1376.9,-79.68"/>
<polygon fill="black" stroke="black" points="1376.29,-83.15 1386.49,-80.27 1376.72,-76.17 1376.29,-83.15"/>
<text text-anchor="middle" x="1318.1" y="-89.95" font-family="Times,serif" font-size="14.00">DATA/354:88</text>
</g>
<!-- q14:2552&#45;&gt;q14:2552 -->
<g id="edge22" class="edge">
<title>q14:2552&#45;&gt;q14:2552</title>
<path fill="none" stroke="black" d="M1658.6,-162.41C1654.3,-172.09 1662.1,-181 1682,-181 1693.5,-181 1700.9,-178.02 1704.3,-173.64"/>
<polygon fill="black" stroke="black" points="1707.76,-174.19 1705.17,-163.92 1700.79,-173.57 1707.76,-174.19"/>
<text text-anchor="middle" x="1682" y="-184.94" font-family="Times,serif" font-size="14.00">content/λ:2452</text>
</g>
<!-- q18:1 -->
<g id="node21" class="node">
<title>q18:1</title>
<ellipse fill="none" stroke="black" stroke-width="2" cx="1930.5" cy="-234" rx="39.63" ry="18"/>
<text text-anchor="middle" x="1930.5" y="-229.32" font-family="Times,serif" font-size="14.00">q18:1</text>
</g>
<!-- q14:2552&#45;&gt;q18:1 -->
<g id="edge23" class="edge">
<title>q14:2552&#45;&gt;q18:1</title>
<path fill="none" stroke="black" d="M1706.8,-162.08C1721.2,-171.73 1740.3,-183.35 1758.5,-191 1798.4,-207.69 1846.3,-219.05 1881.2,-225.89"/>
<polygon fill="black" stroke="black" points="1880.14,-229.25 1890.61,-227.67 1881.44,-222.37 1880.14,-229.25"/>
<text text-anchor="middle" x="1812.5" y="-225.94" font-family="Times,serif" font-size="14.00">content/550:1</text>
</g>
<!-- q17:92 -->
<g id="node22" class="node">
<title>q17:92</title>
<ellipse fill="none" stroke="black" stroke-width="2" cx="1930.5" cy="-180" rx="45.95" ry="18"/>
<text text-anchor="middle" x="1930.5" y="-175.32" font-family="Times,serif" font-size="14.00">q17:92</text>
</g>
<!-- q14:2552&#45;&gt;q17:92 -->
<g id="edge24" class="edge">
<title>q14:2552&#45;&gt;q17:92</title>
<path fill="none" stroke="black" d="M1736.4,-152.59C1777.5,-158.42 1833.9,-166.43 1875.1,-172.28"/>
<polygon fill="black" stroke="black" points="1874.41,-175.72 1884.8,-173.67 1875.4,-168.79 1874.41,-175.72"/>
<text text-anchor="middle" x="1812.5" y="-173.94" font-family="Times,serif" font-size="14.00">content/250:92</text>
</g>
<!-- q19:7 -->
<g id="node23" class="node">
<title>q19:7</title>
<ellipse fill="none" stroke="black" stroke-width="2" cx="1930.5" cy="-126" rx="39.63" ry="18"/>
<text text-anchor="middle" x="1930.5" y="-121.33" font-family="Times,serif" font-size="14.00">q19:7</text>
</g>
<!-- q14:2552&#45;&gt;q19:7 -->
<g id="edge25" class="edge">
<title>q14:2552&#45;&gt;q19:7</title>
<path fill="none" stroke="black" d="M1737.8,-138.71C1744.8,-138 1751.8,-137.33 1758.5,-136.75 1799.1,-133.26 1845.2,-130.43 1879.3,-128.55"/>
<polygon fill="black" stroke="black" points="1879.09,-132.07 1888.89,-128.03 1878.71,-125.08 1879.09,-132.07"/>
<text text-anchor="middle" x="1812.5" y="-139.94" font-family="Times,serif" font-size="14.00">content/554:7</text>
</g>
<!-- q16:88&#45;&gt;q14:2552 -->
<g id="edge19" class="edge">
<title>q16:88&#45;&gt;q14:2552</title>
<path fill="none" stroke="black" d="M1474.2,-94.3C1508.9,-102.45 1560.5,-114.69 1605.4,-125.75 1611.6,-127.29 1618.1,-128.91 1624.6,-130.55"/>
<polygon fill="black" stroke="black" points="1623.38,-133.85 1633.93,-132.91 1625.09,-127.07 1623.38,-133.85"/>
<text text-anchor="middle" x="1551.4" y="-128.94" font-family="Times,serif" font-size="14.00">content/λ:2</text>
</g>
<!-- q22:65 -->
<g id="node19" class="node">
<title>q22:65</title>
<ellipse fill="none" stroke="black" stroke-width="2" cx="1682" cy="-72" rx="45.95" ry="18"/>
<text text-anchor="middle" x="1682" y="-67.33" font-family="Times,serif" font-size="14.00">q22:65</text>
</g>
<!-- q16:88&#45;&gt;q22:65 -->
<g id="edge20" class="edge">
<title>q16:88&#45;&gt;q22:65</title>
<path fill="none" stroke="black" d="M1474.6,-76.02C1482.1,-74.67 1490,-73.48 1497.4,-72.75 1539.7,-68.58 1587.9,-68.56 1624.2,-69.49"/>
<polygon fill="black" stroke="black" points="1623.99,-72.98 1634.09,-69.78 1624.19,-65.99 1623.99,-72.98"/>
<text text-anchor="middle" x="1551.4" y="-76.95" font-family="Times,serif" font-size="14.00">content/554:65</text>
</g>
<!-- q21:21 -->
<g id="node20" class="node">
<title>q21:21</title>
<ellipse fill="none" stroke="black" stroke-width="2" cx="1682" cy="-18" rx="45.95" ry="18"/>
<text text-anchor="middle" x="1682" y="-13.32" font-family="Times,serif" font-size="14.00">q21:21</text>
</g>
<!-- q16:88&#45;&gt;q21:21 -->
<g id="edge21" class="edge">
<title>q16:88&#45;&gt;q21:21</title>
<path fill="none" stroke="black" d="M1457.3,-68.64C1468.8,-61.17 1483.3,-52.85 1497.4,-47.75 1538.5,-32.85 1587.5,-25.39 1624.6,-21.67"/>
<polygon fill="black" stroke="black" points="1624.47,-25.2 1634.09,-20.77 1623.81,-18.23 1624.47,-25.2"/>
<text text-anchor="middle" x="1551.4" y="-51.95" font-family="Times,serif" font-size="14.00">content/250:21</text>
</g>
<!-- q27:65 -->
<g id="node24" class="node">
<title>q27:65</title>
<ellipse fill="none" stroke="black" stroke-width="2" cx="1930.5" cy="-72" rx="45.95" ry="18"/>
<text text-anchor="middle" x="1930.5" y="-67.33" font-family="Times,serif" font-size="14.00">q27:65</text>
</g>
<!-- q22:65&#45;&gt;q27:65 -->
<g id="edge26" class="edge">
<title>q22:65&#45;&gt;q27:65</title>
<path fill="none" stroke="black" d="M1728.7,-72C1769.4,-72 1828.9,-72 1872.6,-72"/>
<polygon fill="black" stroke="black" points="1872.39,-75.5 1882.39,-72 1872.39,-68.5 1872.39,-75.5"/>
<text text-anchor="middle" x="1812.5" y="-75.95" font-family="Times,serif" font-size="14.00">RSET/250:65</text>
</g>
<!-- q26:21 -->
<g id="node25" class="node">
<title>q26:21</title>
<ellipse fill="none" stroke="black" stroke-width="2" cx="1930.5" cy="-18" rx="45.95" ry="18"/>
<text text-anchor="middle" x="1930.5" y="-13.32" font-family="Times,serif" font-size="14.00">q26:21</text>
</g>
<!-- q21:21&#45;&gt;q26:21 -->
<g id="edge27" class="edge">
<title>q21:21&#45;&gt;q26:21</title>
<path fill="none" stroke="black" d="M1728.7,-18C1769.4,-18 1828.9,-18 1872.6,-18"/>
<polygon fill="black" stroke="black" points="1872.39,-21.5 1882.39,-18 1872.39,-14.5 1872.39,-21.5"/>
<text text-anchor="middle" x="1812.5" y="-21.95" font-family="Times,serif" font-size="14.00">QUIT/221:21</text>
</g>
<!-- q24:1 -->
<g id="node26" class="node">
<title>q24:1</title>
<ellipse fill="none" stroke="black" stroke-width="2" cx="2149.9" cy="-234" rx="39.63" ry="18"/>
<text text-anchor="middle" x="2149.9" y="-229.32" font-family="Times,serif" font-size="14.00">q24:1</text>
</g>
<!-- q18:1&#45;&gt;q24:1 -->
<g id="edge28" class="edge">
<title>q18:1&#45;&gt;q24:1</title>
<path fill="none" stroke="black" d="M1971.1,-234C2006.9,-234 2059.7,-234 2098.5,-234"/>
<polygon fill="black" stroke="black" points="2097.99,-237.5 2107.99,-234 2097.99,-230.5 2097.99,-237.5"/>
<text text-anchor="middle" x="2040.2" y="-237.94" font-family="Times,serif" font-size="14.00">RSET/250:1</text>
</g>
<!-- q23:92 -->
<g id="node27" class="node">
<title>q23:92</title>
<ellipse fill="none" stroke="black" stroke-width="2" cx="2149.9" cy="-180" rx="45.95" ry="18"/>
<text text-anchor="middle" x="2149.9" y="-175.32" font-family="Times,serif" font-size="14.00">q23:92</text>
</g>
<!-- q17:92&#45;&gt;q23:92 -->
<g id="edge29" class="edge">
<title>q17:92&#45;&gt;q23:92</title>
<path fill="none" stroke="black" d="M1977.3,-180C2010.7,-180 2056.1,-180 2091.9,-180"/>
<polygon fill="black" stroke="black" points="2091.59,-183.5 2101.59,-180 2091.59,-176.5 2091.59,-183.5"/>
<text text-anchor="middle" x="2040.2" y="-183.94" font-family="Times,serif" font-size="14.00">QUIT/221:92</text>
</g>
<!-- q25:7 -->
<g id="node28" class="node">
<title>q25:7</title>
<ellipse fill="none" stroke="black" stroke-width="2" cx="2149.9" cy="-126" rx="39.63" ry="18"/>
<text text-anchor="middle" x="2149.9" y="-121.33" font-family="Times,serif" font-size="14.00">q25:7</text>
</g>
<!-- q19:7&#45;&gt;q25:7 -->
<g id="edge30" class="edge">
<title>q19:7&#45;&gt;q25:7</title>
<path fill="none" stroke="black" d="M1971.1,-126C2006.9,-126 2059.7,-126 2098.5,-126"/>
<polygon fill="black" stroke="black" points="2097.99,-129.5 2107.99,-126 2097.99,-122.5 2097.99,-129.5"/>
<text text-anchor="middle" x="2040.2" y="-129.94" font-family="Times,serif" font-size="14.00">RSET/250:7</text>
</g>
</g>
</svg>
