<?xml version="1.0" encoding="UTF-8" standalone="no"?>
<!DOCTYPE svg PUBLIC "-//W3C//DTD SVG 1.1//EN"
 "http://www.w3.org/Graphics/SVG/1.1/DTD/svg11.dtd">
<!-- Generated by graphviz version 12.0.0 (20240803.0821)
 -->
<!-- Pages: 1 -->
<svg width="1986pt" height="314pt"
 viewBox="0.00 0.00 1985.85 314.00" xmlns="http://www.w3.org/2000/svg" xmlns:xlink="http://www.w3.org/1999/xlink">
<g id="graph0" class="graph" transform="scale(1 1) rotate(0) translate(4 310)">
<polygon fill="white" stroke="none" points="-4,4 -4,-310 1981.85,-310 1981.85,4 -4,4"/>
<!-- q13:12 -->
<g id="node1" class="node">
<title>q13:12</title>
<ellipse fill="none" stroke="black" stroke-width="2" cx="1202.8" cy="-287" rx="45.95" ry="18"/>
<text text-anchor="middle" x="1202.8" y="-282.32" font-family="Times,serif" font-size="14.00">q13:12</text>
</g>
<!-- q18:3 -->
<g id="node2" class="node">
<title>q18:3</title>
<ellipse fill="none" stroke="black" stroke-width="2" cx="1463.9" cy="-288" rx="39.63" ry="18"/>
<text text-anchor="middle" x="1463.9" y="-283.32" font-family="Times,serif" font-size="14.00">q18:3</text>
</g>
<!-- q13:12&#45;&gt;q18:3 -->
<g id="edge1" class="edge">
<title>q13:12&#45;&gt;q18:3</title>
<path fill="none" stroke="black" d="M1249.5,-287.18C1295.1,-287.35 1364.8,-287.62 1412.1,-287.8"/>
<polygon fill="black" stroke="black" points="1412.07,-291.3 1422.09,-287.84 1412.1,-284.3 1412.07,-291.3"/>
<text text-anchor="middle" x="1333.4" y="-290.94" font-family="Times,serif" font-size="14.00">λ/451:3</text>
</g>
<!-- q10:1409 -->
<g id="node3" class="node">
<title>q10:1409</title>
<ellipse fill="none" stroke="black" stroke-width="2" cx="1202.8" cy="-142" rx="58.57" ry="18"/>
<text text-anchor="middle" x="1202.8" y="-137.32" font-family="Times,serif" font-size="14.00">q10:1409</text>
</g>
<!-- q15:1 -->
<g id="node4" class="node">
<title>q15:1</title>
<ellipse fill="none" stroke="black" stroke-width="2" cx="1463.9" cy="-234" rx="39.63" ry="18"/>
<text text-anchor="middle" x="1463.9" y="-229.32" font-family="Times,serif" font-size="14.00">q15:1</text>
</g>
<!-- q10:1409&#45;&gt;q15:1 -->
<g id="edge2" class="edge">
<title>q10:1409&#45;&gt;q15:1</title>
<path fill="none" stroke="black" d="M1226.5,-159.24C1241,-169.49 1260.5,-182 1279.4,-190 1323.1,-208.53 1376.2,-220.18 1414,-226.81"/>
<polygon fill="black" stroke="black" points="1413.26,-230.24 1423.71,-228.45 1414.43,-223.33 1413.26,-230.24"/>
<text text-anchor="middle" x="1333.4" y="-224.94" font-family="Times,serif" font-size="14.00">content/550:1</text>
</g>
<!-- q17:75 -->
<g id="node5" class="node">
<title>q17:75</title>
<ellipse fill="none" stroke="black" stroke-width="2" cx="1463.9" cy="-180" rx="45.95" ry="18"/>
<text text-anchor="middle" x="1463.9" y="-175.32" font-family="Times,serif" font-size="14.00">q17:75</text>
</g>
<!-- q10:1409&#45;&gt;q17:75 -->
<g id="edge3" class="edge">
<title>q10:1409&#45;&gt;q17:75</title>
<path fill="none" stroke="black" d="M1255,-151.05C1263.1,-152.42 1271.5,-153.78 1279.4,-155 1322.4,-161.63 1371.2,-168.24 1407.7,-172.99"/>
<polygon fill="black" stroke="black" points="1407.23,-176.46 1417.6,-174.28 1408.13,-169.52 1407.23,-176.46"/>
<text text-anchor="middle" x="1333.4" y="-172.94" font-family="Times,serif" font-size="14.00">content/250:75</text>
</g>
<!-- q14:1260 -->
<g id="node6" class="node">
<title>q14:1260</title>
<ellipse fill="none" stroke="black" stroke-width="2" cx="1463.9" cy="-114" rx="58.57" ry="18"/>
<text text-anchor="middle" x="1463.9" y="-109.33" font-family="Times,serif" font-size="14.00">q14:1260</text>
</g>
<!-- q10:1409&#45;&gt;q14:1260 -->
<g id="edge4" class="edge">
<title>q10:1409&#45;&gt;q14:1260</title>
<path fill="none" stroke="black" d="M1259.1,-136.03C1299.2,-131.69 1353.8,-125.79 1396.4,-121.19"/>
<polygon fill="black" stroke="black" points="1396.63,-124.69 1406.19,-120.12 1395.87,-117.73 1396.63,-124.69"/>
<text text-anchor="middle" x="1333.4" y="-137.94" font-family="Times,serif" font-size="14.00">content/λ:1260</text>
</g>
<!-- q16:73 -->
<g id="node7" class="node">
<title>q16:73</title>
<ellipse fill="none" stroke="black" stroke-width="2" cx="1463.9" cy="-29" rx="45.95" ry="18"/>
<text text-anchor="middle" x="1463.9" y="-24.32" font-family="Times,serif" font-size="14.00">q16:73</text>
</g>
<!-- q10:1409&#45;&gt;q16:73 -->
<g id="edge5" class="edge">
<title>q10:1409&#45;&gt;q16:73</title>
<path fill="none" stroke="black" d="M1243.5,-128.16C1250.1,-124.61 1256.3,-120.26 1261.4,-115 1275.8,-99.96 1263.5,-85.2 1279.4,-71.75 1314.4,-42.11 1366.1,-32.11 1405.7,-29.13"/>
<polygon fill="black" stroke="black" points="1405.82,-32.63 1415.59,-28.53 1405.4,-25.64 1405.82,-32.63"/>
<text text-anchor="middle" x="1333.4" y="-75.95" font-family="Times,serif" font-size="14.00">content/554:73</text>
</g>
<!-- q21:1 -->
<g id="node8" class="node">
<title>q21:1</title>
<ellipse fill="none" stroke="black" stroke-width="2" cx="1712.5" cy="-234" rx="39.63" ry="18"/>
<text text-anchor="middle" x="1712.5" y="-229.32" font-family="Times,serif" font-size="14.00">q21:1</text>
</g>
<!-- q15:1&#45;&gt;q21:1 -->
<g id="edge6" class="edge">
<title>q15:1&#45;&gt;q21:1</title>
<path fill="none" stroke="black" d="M1504.5,-234C1547,-234 1614.4,-234 1660.7,-234"/>
<polygon fill="black" stroke="black" points="1660.49,-237.5 1670.49,-234 1660.49,-230.5 1660.49,-237.5"/>
<text text-anchor="middle" x="1594.5" y="-237.94" font-family="Times,serif" font-size="14.00">RSET/250:1</text>
</g>
<!-- q23:75 -->
<g id="node9" class="node">
<title>q23:75</title>
<ellipse fill="none" stroke="black" stroke-width="2" cx="1712.5" cy="-180" rx="45.95" ry="18"/>
<text text-anchor="middle" x="1712.5" y="-175.32" font-family="Times,serif" font-size="14.00">q23:75</text>
</g>
<!-- q17:75&#45;&gt;q23:75 -->
<g id="edge7" class="edge">
<title>q17:75&#45;&gt;q23:75</title>
<path fill="none" stroke="black" d="M1510.7,-180C1551.4,-180 1610.9,-180 1654.6,-180"/>
<polygon fill="black" stroke="black" points="1654.39,-183.5 1664.39,-180 1654.39,-176.5 1654.39,-183.5"/>
<text text-anchor="middle" x="1594.5" y="-183.94" font-family="Times,serif" font-size="14.00">QUIT/221:75</text>
</g>
<!-- q14:1260&#45;&gt;q10:1409 -->
<g id="edge8" class="edge">
<title>q14:1260&#45;&gt;q10:1409</title>
<path fill="none" stroke="black" d="M1418.4,-101.83C1380.5,-93.62 1325,-86.75 1279.4,-101.75 1269.9,-104.85 1269.9,-109.92 1261.4,-115 1257.4,-117.38 1253.1,-119.71 1248.8,-121.94"/>
<polygon fill="black" stroke="black" points="1247.53,-118.66 1240.15,-126.26 1250.66,-124.92 1247.53,-118.66"/>
<text text-anchor="middle" x="1333.4" y="-105.95" font-family="Times,serif" font-size="14.00">content/λ:1222</text>
</g>
<!-- q20:37 -->
<g id="node10" class="node">
<title>q20:37</title>
<ellipse fill="none" stroke="black" stroke-width="2" cx="1712.5" cy="-72" rx="45.95" ry="18"/>
<text text-anchor="middle" x="1712.5" y="-67.33" font-family="Times,serif" font-size="14.00">q20:37</text>
</g>
<!-- q14:1260&#45;&gt;q20:37 -->
<g id="edge9" class="edge">
<title>q14:1260&#45;&gt;q20:37</title>
<path fill="none" stroke="black" d="M1511.6,-102.73C1521.1,-100.6 1531.1,-98.5 1540.5,-96.75 1579.2,-89.55 1623.1,-83.23 1656.7,-78.78"/>
<polygon fill="black" stroke="black" points="1656.74,-82.3 1666.2,-77.54 1655.83,-75.36 1656.74,-82.3"/>
<text text-anchor="middle" x="1594.5" y="-100.95" font-family="Times,serif" font-size="14.00">content/250:37</text>
</g>
<!-- q19:1 -->
<g id="node11" class="node">
<title>q19:1</title>
<ellipse fill="none" stroke="black" stroke-width="2" cx="1712.5" cy="-126" rx="39.63" ry="18"/>
<text text-anchor="middle" x="1712.5" y="-121.33" font-family="Times,serif" font-size="14.00">q19:1</text>
</g>
<!-- q14:1260&#45;&gt;q19:1 -->
<g id="edge10" class="edge">
<title>q14:1260&#45;&gt;q19:1</title>
<path fill="none" stroke="black" d="M1522.7,-116.81C1564.6,-118.85 1620.6,-121.58 1660.7,-123.53"/>
<polygon fill="black" stroke="black" points="1660.43,-127.02 1670.59,-124.01 1660.77,-120.03 1660.43,-127.02"/>
<text text-anchor="middle" x="1594.5" y="-126.95" font-family="Times,serif" font-size="14.00">content/554:1</text>
</g>
<!-- q22:73 -->
<g id="node12" class="node">
<title>q22:73</title>
<ellipse fill="none" stroke="black" stroke-width="2" cx="1712.5" cy="-18" rx="45.95" ry="18"/>
<text text-anchor="middle" x="1712.5" y="-13.32" font-family="Times,serif" font-size="14.00">q22:73</text>
</g>
<!-- q16:73&#45;&gt;q22:73 -->
<g id="edge11" class="edge">
<title>q16:73&#45;&gt;q22:73</title>
<path fill="none" stroke="black" d="M1510.4,-26.97C1551.1,-25.16 1610.7,-22.5 1654.5,-20.54"/>
<polygon fill="black" stroke="black" points="1654.45,-24.05 1664.29,-20.1 1654.14,-17.06 1654.45,-24.05"/>
<text text-anchor="middle" x="1594.5" y="-29.95" font-family="Times,serif" font-size="14.00">RSET/250:73</text>
</g>
<!-- q25:37 -->
<g id="node13" class="node">
<title>q25:37</title>
<ellipse fill="none" stroke="black" stroke-width="2" cx="1931.9" cy="-72" rx="45.95" ry="18"/>
<text text-anchor="middle" x="1931.9" y="-67.33" font-family="Times,serif" font-size="14.00">q25:37</text>
</g>
<!-- q20:37&#45;&gt;q25:37 -->
<g id="edge12" class="edge">
<title>q20:37&#45;&gt;q25:37</title>
<path fill="none" stroke="black" d="M1759.3,-72C1792.7,-72 1838.1,-72 1873.8,-72"/>
<polygon fill="black" stroke="black" points="1873.59,-75.5 1883.59,-72 1873.59,-68.5 1873.59,-75.5"/>
<text text-anchor="middle" x="1822.2" y="-75.95" font-family="Times,serif" font-size="14.00">QUIT/221:37</text>
</g>
<!-- q24:1 -->
<g id="node14" class="node">
<title>q24:1</title>
<ellipse fill="none" stroke="black" stroke-width="2" cx="1931.9" cy="-126" rx="39.63" ry="18"/>
<text text-anchor="middle" x="1931.9" y="-121.33" font-family="Times,serif" font-size="14.00">q24:1</text>
</g>
<!-- q19:1&#45;&gt;q24:1 -->
<g id="edge13" class="edge">
<title>q19:1&#45;&gt;q24:1</title>
<path fill="none" stroke="black" d="M1753.1,-126C1788.9,-126 1841.7,-126 1880.5,-126"/>
<polygon fill="black" stroke="black" points="1879.99,-129.5 1889.99,-126 1879.99,-122.5 1879.99,-129.5"/>
<text text-anchor="middle" x="1822.2" y="-129.94" font-family="Times,serif" font-size="14.00">RSET/250:1</text>
</g>
<!-- q5:229 -->
<g id="node15" class="node">
<title>q5:229</title>
<ellipse fill="none" stroke="black" stroke-width="2" cx="725.13" cy="-228" rx="45.95" ry="18"/>
<text text-anchor="middle" x="725.13" y="-223.32" font-family="Times,serif" font-size="14.00">q5:229</text>
</g>
<!-- q7:608 -->
<g id="node16" class="node">
<title>q7:608</title>
<ellipse fill="none" stroke="black" stroke-width="2" cx="954.27" cy="-142" rx="45.95" ry="18"/>
<text text-anchor="middle" x="954.27" y="-137.32" font-family="Times,serif" font-size="14.00">q7:608</text>
</g>
<!-- q5:229&#45;&gt;q7:608 -->
<g id="edge14" class="edge">
<title>q5:229&#45;&gt;q7:608</title>
<path fill="none" stroke="black" d="M759.79,-215.33C792.99,-202.82 845.17,-183.13 890.33,-166 896.49,-163.66 902.99,-161.19 909.38,-158.75"/>
<polygon fill="black" stroke="black" points="910.45,-162.09 918.54,-155.26 907.95,-155.55 910.45,-162.09"/>
<text text-anchor="middle" x="839.7" y="-205.94" font-family="Times,serif" font-size="14.00">MAIL/250:227</text>
</g>
<!-- q8:2 -->
<g id="node17" class="node">
<title>q8:2</title>
<ellipse fill="none" stroke="black" stroke-width="2" cx="954.27" cy="-231" rx="33.32" ry="18"/>
<text text-anchor="middle" x="954.27" y="-226.32" font-family="Times,serif" font-size="14.00">q8:2</text>
</g>
<!-- q5:229&#45;&gt;q8:2 -->
<g id="edge15" class="edge">
<title>q5:229&#45;&gt;q8:2</title>
<path fill="none" stroke="black" d="M771.82,-228.6C811.71,-229.13 869.24,-229.89 908.77,-230.41"/>
<polygon fill="black" stroke="black" points="908.61,-233.91 918.66,-230.54 908.7,-226.91 908.61,-233.91"/>
<text text-anchor="middle" x="839.7" y="-233.94" font-family="Times,serif" font-size="14.00">MAIL/553:2</text>
</g>
<!-- q7:608&#45;&gt;q10:1409 -->
<g id="edge16" class="edge">
<title>q7:608&#45;&gt;q10:1409</title>
<path fill="none" stroke="black" d="M1001.06,-142C1037.9,-142 1090.3,-142 1132.4,-142"/>
<polygon fill="black" stroke="black" points="1132.09,-145.5 1142.09,-142 1132.09,-138.5 1132.09,-145.5"/>
<text text-anchor="middle" x="1072.2" y="-145.94" font-family="Times,serif" font-size="14.00">DATA/354:187</text>
</g>
<!-- q7:608&#45;&gt;q7:608 -->
<g id="edge17" class="edge">
<title>q7:608&#45;&gt;q7:608</title>
<path fill="none" stroke="black" d="M933.97,-159.04C929.83,-168.86 936.59,-178 954.27,-178 964.49,-178 971.07,-174.94 973.99,-170.47"/>
<polygon fill="black" stroke="black" points="977.48,-170.72 974.49,-160.55 970.49,-170.36 977.48,-170.72"/>
<text text-anchor="middle" x="954.27" y="-181.94" font-family="Times,serif" font-size="14.00">RCPT/250:378</text>
</g>
<!-- q11:43 -->
<g id="node18" class="node">
<title>q11:43</title>
<ellipse fill="none" stroke="black" stroke-width="2" cx="1202.8" cy="-88" rx="45.95" ry="18"/>
<text text-anchor="middle" x="1202.8" y="-83.33" font-family="Times,serif" font-size="14.00">q11:43</text>
</g>
<!-- q7:608&#45;&gt;q11:43 -->
<g id="edge18" class="edge">
<title>q7:608&#45;&gt;q11:43</title>
<path fill="none" stroke="black" d="M989.3,-129.48C998.59,-126.35 1008.7,-123.19 1018.2,-120.75 1061.1,-109.74 1110.6,-101.15 1147.4,-95.53"/>
<polygon fill="black" stroke="black" points="1147.53,-99.05 1156.9,-94.1 1146.49,-92.12 1147.53,-99.05"/>
<text text-anchor="middle" x="1072.2" y="-124.95" font-family="Times,serif" font-size="14.00">DATA/550:43</text>
</g>
<!-- q12:2 -->
<g id="node19" class="node">
<title>q12:2</title>
<ellipse fill="none" stroke="black" stroke-width="2" cx="1202.8" cy="-231" rx="39.63" ry="18"/>
<text text-anchor="middle" x="1202.8" y="-226.32" font-family="Times,serif" font-size="14.00">q12:2</text>
</g>
<!-- q8:2&#45;&gt;q12:2 -->
<g id="edge19" class="edge">
<title>q8:2&#45;&gt;q12:2</title>
<path fill="none" stroke="black" d="M988.52,-231C1030.4,-231 1102.7,-231 1151.4,-231"/>
<polygon fill="black" stroke="black" points="1151.09,-234.5 1161.09,-231 1151.09,-227.5 1151.09,-234.5"/>
<text text-anchor="middle" x="1072.2" y="-234.94" font-family="Times,serif" font-size="14.00">RSET/250:2</text>
</g>
<!-- q1:244 -->
<g id="node20" class="node">
<title>q1:244</title>
<ellipse fill="none" stroke="black" stroke-width="2" cx="257.84" cy="-188" rx="45.95" ry="18"/>
<text text-anchor="middle" x="257.84" y="-183.32" font-family="Times,serif" font-size="14.00">q1:244</text>
</g>
<!-- q3:242 -->
<g id="node21" class="node">
<title>q3:242</title>
<ellipse fill="none" stroke="black" stroke-width="2" cx="491.48" cy="-221" rx="45.95" ry="18"/>
<text text-anchor="middle" x="491.48" y="-216.32" font-family="Times,serif" font-size="14.00">q3:242</text>
</g>
<!-- q1:244&#45;&gt;q3:242 -->
<g id="edge20" class="edge">
<title>q1:244&#45;&gt;q3:242</title>
<path fill="none" stroke="black" d="M302.14,-194.17C340,-199.56 395.17,-207.42 436.02,-213.24"/>
<polygon fill="black" stroke="black" points="435.51,-216.7 445.9,-214.65 436.49,-209.77 435.51,-216.7"/>
<text text-anchor="middle" x="374.66" y="-214.94" font-family="Times,serif" font-size="14.00">EHLO/250:242</text>
</g>
<!-- q2:2 -->
<g id="node22" class="node">
<title>q2:2</title>
<ellipse fill="none" stroke="black" stroke-width="2" cx="491.48" cy="-161" rx="33.32" ry="18"/>
<text text-anchor="middle" x="491.48" y="-156.32" font-family="Times,serif" font-size="14.00">q2:2</text>
</g>
<!-- q1:244&#45;&gt;q2:2 -->
<g id="edge21" class="edge">
<title>q1:244&#45;&gt;q2:2</title>
<path fill="none" stroke="black" d="M296.21,-177.12C304.56,-175.03 313.43,-173.08 321.79,-171.75 363.53,-165.09 411.69,-162.52 445.85,-161.55"/>
<polygon fill="black" stroke="black" points="445.88,-165.05 455.8,-161.31 445.71,-158.05 445.88,-165.05"/>
<text text-anchor="middle" x="374.66" y="-174.94" font-family="Times,serif" font-size="14.00">EHLO/λ:2</text>
</g>
<!-- q3:242&#45;&gt;q5:229 -->
<g id="edge22" class="edge">
<title>q3:242&#45;&gt;q5:229</title>
<path fill="none" stroke="black" d="M538.25,-222.38C575.21,-223.5 627.42,-225.08 667.1,-226.28"/>
<polygon fill="black" stroke="black" points="666.85,-229.77 676.95,-226.57 667.06,-222.78 666.85,-229.77"/>
<text text-anchor="middle" x="608.31" y="-228.94" font-family="Times,serif" font-size="14.00">AUTH/235:229</text>
</g>
<!-- q4:3 -->
<g id="node23" class="node">
<title>q4:3</title>
<ellipse fill="none" stroke="black" stroke-width="2" cx="725.13" cy="-148" rx="33.32" ry="18"/>
<text text-anchor="middle" x="725.13" y="-143.32" font-family="Times,serif" font-size="14.00">q4:3</text>
</g>
<!-- q3:242&#45;&gt;q4:3 -->
<g id="edge23" class="edge">
<title>q3:242&#45;&gt;q4:3</title>
<path fill="none" stroke="black" d="M528.68,-209.59C570.94,-196.28 640.6,-174.32 684.34,-160.54"/>
<polygon fill="black" stroke="black" points="685.21,-163.93 693.7,-157.59 683.11,-157.26 685.21,-163.93"/>
<text text-anchor="middle" x="608.31" y="-202.94" font-family="Times,serif" font-size="14.00">AUTH/λ:1</text>
</g>
<!-- q6:12 -->
<g id="node24" class="node">
<title>q6:12</title>
<ellipse fill="none" stroke="black" stroke-width="2" cx="725.13" cy="-283" rx="39.63" ry="18"/>
<text text-anchor="middle" x="725.13" y="-278.32" font-family="Times,serif" font-size="14.00">q6:12</text>
</g>
<!-- q3:242&#45;&gt;q6:12 -->
<g id="edge24" class="edge">
<title>q3:242&#45;&gt;q6:12</title>
<path fill="none" stroke="black" d="M523.83,-234.61C533.81,-238.63 544.97,-242.8 555.43,-246 595.49,-258.26 642.07,-268.16 676.12,-274.62"/>
<polygon fill="black" stroke="black" points="675.2,-278.01 685.67,-276.4 676.48,-271.13 675.2,-278.01"/>
<text text-anchor="middle" x="608.31" y="-274.94" font-family="Times,serif" font-size="14.00">AUTH/535:12</text>
</g>
<!-- q2:2&#45;&gt;q4:3 -->
<g id="edge25" class="edge">
<title>q2:2&#45;&gt;q4:3</title>
<path fill="none" stroke="black" d="M523.05,-153.86C533.28,-151.78 544.8,-149.8 555.43,-148.75 597.41,-144.61 645.55,-144.89 679.63,-145.93"/>
<polygon fill="black" stroke="black" points="679.43,-149.43 689.55,-146.27 679.67,-142.43 679.43,-149.43"/>
<text text-anchor="middle" x="608.31" y="-152.94" font-family="Times,serif" font-size="14.00">AUTH/235:2</text>
</g>
<!-- q4:3&#45;&gt;q7:608 -->
<g id="edge26" class="edge">
<title>q4:3&#45;&gt;q7:608</title>
<path fill="none" stroke="black" d="M759.16,-147.13C795,-146.18 852.89,-144.65 896.14,-143.51"/>
<polygon fill="black" stroke="black" points="896.22,-147.01 906.13,-143.25 896.04,-140.01 896.22,-147.01"/>
<text text-anchor="middle" x="839.7" y="-150.94" font-family="Times,serif" font-size="14.00">MAIL/250:3</text>
</g>
<!-- q9:12 -->
<g id="node25" class="node">
<title>q9:12</title>
<ellipse fill="none" stroke="black" stroke-width="2" cx="954.27" cy="-287" rx="39.63" ry="18"/>
<text text-anchor="middle" x="954.27" y="-282.32" font-family="Times,serif" font-size="14.00">q9:12</text>
</g>
<!-- q6:12&#45;&gt;q9:12 -->
<g id="edge27" class="edge">
<title>q6:12&#45;&gt;q9:12</title>
<path fill="none" stroke="black" d="M765.69,-283.7C803.6,-284.36 861,-285.38 902.32,-286.1"/>
<polygon fill="black" stroke="black" points="902.21,-289.6 912.27,-286.27 902.33,-282.6 902.21,-289.6"/>
<text text-anchor="middle" x="839.7" y="-288.94" font-family="Times,serif" font-size="14.00">AUTH/334:12</text>
</g>
<!-- q9:12&#45;&gt;q13:12 -->
<g id="edge28" class="edge">
<title>q9:12&#45;&gt;q13:12</title>
<path fill="none" stroke="black" d="M994.88,-287C1035.4,-287 1098.8,-287 1144.7,-287"/>
<polygon fill="black" stroke="black" points="1144.49,-290.5 1154.49,-287 1144.49,-283.5 1144.49,-290.5"/>
<text text-anchor="middle" x="1072.2" y="-290.94" font-family="Times,serif" font-size="14.00">content/535:12</text>
</g>
<!-- q0:244 -->
<g id="node26" class="node">
<title>q0:244</title>
<ellipse fill="none" stroke="black" stroke-width="2" cx="53.95" cy="-188" rx="49.95" ry="49.95"/>
<ellipse fill="none" stroke="black" stroke-width="2" cx="53.95" cy="-188" rx="53.95" ry="53.95"/>
<text text-anchor="middle" x="53.95" y="-183.32" font-family="Times,serif" font-size="14.00">q0:244</text>
</g>
<!-- q0:244&#45;&gt;q1:244 -->
<g id="edge29" class="edge">
<title>q0:244&#45;&gt;q1:244</title>
<path fill="none" stroke="black" d="M104.85,-188C133.64,-188 169.94,-188 199.84,-188"/>
<polygon fill="black" stroke="black" points="199.45,-191.5 209.45,-188 199.45,-184.5 199.45,-191.5"/>
<text text-anchor="middle" x="157.89" y="-191.94" font-family="Times,serif" font-size="14.00">λ/220:244</text>
</g>
</g>
</svg>
