<?xml version="1.0" encoding="UTF-8" standalone="no"?>
<!DOCTYPE svg PUBLIC "-//W3C//DTD SVG 1.1//EN"
 "http://www.w3.org/Graphics/SVG/1.1/DTD/svg11.dtd">
<!-- Generated by graphviz version 12.0.0 (20240803.0821)
 -->
<!-- Pages: 1 -->
<svg width="1768pt" height="241pt"
 viewBox="0.00 0.00 1767.86 241.00" xmlns="http://www.w3.org/2000/svg" xmlns:xlink="http://www.w3.org/1999/xlink">
<g id="graph0" class="graph" transform="scale(1 1) rotate(0) translate(4 237)">
<polygon fill="white" stroke="none" points="-4,4 -4,-237 1763.86,-237 1763.86,4 -4,4"/>
<!-- q5:1 -->
<g id="node1" class="node">
<title>q5:1</title>
<ellipse fill="none" stroke="black" stroke-width="2" cx="725.13" cy="-134" rx="33.32" ry="18"/>
<text text-anchor="middle" x="725.13" y="-129.32" font-family="Times,serif" font-size="14.00">q5:1</text>
</g>
<!-- q7:605 -->
<g id="node2" class="node">
<title>q7:605</title>
<ellipse fill="none" stroke="black" stroke-width="2" cx="954.27" cy="-99" rx="45.95" ry="18"/>
<text text-anchor="middle" x="954.27" y="-94.33" font-family="Times,serif" font-size="14.00">q7:605</text>
</g>
<!-- q5:1&#45;&gt;q7:605 -->
<g id="edge1" class="edge">
<title>q5:1&#45;&gt;q7:605</title>
<path fill="none" stroke="black" d="M758.19,-129.06C794.79,-123.42 855.25,-114.1 899.17,-107.34"/>
<polygon fill="black" stroke="black" points="899.68,-110.8 909.03,-105.82 898.62,-103.88 899.68,-110.8"/>
<text text-anchor="middle" x="839.7" y="-126.95" font-family="Times,serif" font-size="14.00">MAIL/250:1</text>
</g>
<!-- q7:605&#45;&gt;q7:605 -->
<g id="edge2" class="edge">
<title>q7:605&#45;&gt;q7:605</title>
<path fill="none" stroke="black" d="M933.97,-116.04C929.83,-125.86 936.59,-135 954.27,-135 964.49,-135 971.07,-131.94 973.99,-127.47"/>
<polygon fill="black" stroke="black" points="977.48,-127.72 974.49,-117.55 970.49,-127.36 977.48,-127.72"/>
<text text-anchor="middle" x="954.27" y="-138.94" font-family="Times,serif" font-size="14.00">RCPT/250:376</text>
</g>
<!-- q11:3269 -->
<g id="node3" class="node">
<title>q11:3269</title>
<ellipse fill="none" stroke="black" stroke-width="2" cx="1202.8" cy="-72" rx="58.57" ry="18"/>
<text text-anchor="middle" x="1202.8" y="-67.33" font-family="Times,serif" font-size="14.00">q11:3269</text>
</g>
<!-- q7:605&#45;&gt;q11:3269 -->
<g id="edge3" class="edge">
<title>q7:605&#45;&gt;q11:3269</title>
<path fill="none" stroke="black" d="M999.63,-94.14C1037.4,-90 1092.3,-83.99 1135.3,-79.28"/>
<polygon fill="black" stroke="black" points="1135.53,-82.77 1145.09,-78.21 1134.77,-75.82 1135.53,-82.77"/>
<text text-anchor="middle" x="1072.2" y="-95.95" font-family="Times,serif" font-size="14.00">DATA/354:209</text>
</g>
<!-- q10:20 -->
<g id="node4" class="node">
<title>q10:20</title>
<ellipse fill="none" stroke="black" stroke-width="2" cx="1202.8" cy="-161" rx="45.95" ry="18"/>
<text text-anchor="middle" x="1202.8" y="-156.32" font-family="Times,serif" font-size="14.00">q10:20</text>
</g>
<!-- q7:605&#45;&gt;q10:20 -->
<g id="edge4" class="edge">
<title>q7:605&#45;&gt;q10:20</title>
<path fill="none" stroke="black" d="M994.33,-108.82C1037,-119.55 1105.4,-136.75 1151.9,-148.45"/>
<polygon fill="black" stroke="black" points="1150.88,-151.8 1161.43,-150.85 1152.59,-145.01 1150.88,-151.8"/>
<text text-anchor="middle" x="1072.2" y="-143.94" font-family="Times,serif" font-size="14.00">DATA/550:20</text>
</g>
<!-- q11:3269&#45;&gt;q11:3269 -->
<g id="edge5" class="edge">
<title>q11:3269&#45;&gt;q11:3269</title>
<path fill="none" stroke="black" d="M1179.5,-89.41C1175.1,-99.09 1182.9,-108 1202.8,-108 1214.3,-108 1221.7,-105.02 1225.1,-100.64"/>
<polygon fill="black" stroke="black" points="1228.56,-101.19 1225.97,-90.92 1221.59,-100.57 1228.56,-101.19"/>
<text text-anchor="middle" x="1202.8" y="-111.95" font-family="Times,serif" font-size="14.00">content/λ:3060</text>
</g>
<!-- q14:135 -->
<g id="node5" class="node">
<title>q14:135</title>
<ellipse fill="none" stroke="black" stroke-width="2" cx="1466.6" cy="-99" rx="52.26" ry="18"/>
<text text-anchor="middle" x="1466.6" y="-94.33" font-family="Times,serif" font-size="14.00">q14:135</text>
</g>
<!-- q11:3269&#45;&gt;q14:135 -->
<g id="edge6" class="edge">
<title>q11:3269&#45;&gt;q14:135</title>
<path fill="none" stroke="black" d="M1259.3,-77.73C1301.8,-82.1 1360.2,-88.13 1404.1,-92.66"/>
<polygon fill="black" stroke="black" points="1403.69,-96.13 1413.99,-93.67 1404.4,-89.17 1403.69,-96.13"/>
<text text-anchor="middle" x="1337.9" y="-95.95" font-family="Times,serif" font-size="14.00">content/250:135</text>
</g>
<!-- q15:74 -->
<g id="node6" class="node">
<title>q15:74</title>
<ellipse fill="none" stroke="black" stroke-width="2" cx="1466.6" cy="-45" rx="45.95" ry="18"/>
<text text-anchor="middle" x="1466.6" y="-40.33" font-family="Times,serif" font-size="14.00">q15:74</text>
</g>
<!-- q11:3269&#45;&gt;q15:74 -->
<g id="edge7" class="edge">
<title>q11:3269&#45;&gt;q15:74</title>
<path fill="none" stroke="black" d="M1254.1,-62.46C1262.5,-61.07 1271.2,-59.77 1279.4,-58.75 1322.8,-53.35 1372.3,-49.82 1409.3,-47.69"/>
<polygon fill="black" stroke="black" points="1409,-51.22 1418.79,-47.16 1408.61,-44.23 1409,-51.22"/>
<text text-anchor="middle" x="1337.9" y="-62.95" font-family="Times,serif" font-size="14.00">content/554:74</text>
</g>
<!-- q17:135 -->
<g id="node7" class="node">
<title>q17:135</title>
<ellipse fill="none" stroke="black" stroke-width="2" cx="1707.6" cy="-99" rx="52.26" ry="18"/>
<text text-anchor="middle" x="1707.6" y="-94.33" font-family="Times,serif" font-size="14.00">q17:135</text>
</g>
<!-- q14:135&#45;&gt;q17:135 -->
<g id="edge8" class="edge">
<title>q14:135&#45;&gt;q17:135</title>
<path fill="none" stroke="black" d="M1519.8,-99C1556.2,-99 1604.9,-99 1643.5,-99"/>
<polygon fill="black" stroke="black" points="1643.09,-102.5 1653.09,-99 1643.09,-95.5 1643.09,-102.5"/>
<text text-anchor="middle" x="1587.1" y="-102.95" font-family="Times,serif" font-size="14.00">QUIT/221:135</text>
</g>
<!-- q18:74 -->
<g id="node8" class="node">
<title>q18:74</title>
<ellipse fill="none" stroke="black" stroke-width="2" cx="1707.6" cy="-45" rx="45.95" ry="18"/>
<text text-anchor="middle" x="1707.6" y="-40.33" font-family="Times,serif" font-size="14.00">q18:74</text>
</g>
<!-- q15:74&#45;&gt;q18:74 -->
<g id="edge9" class="edge">
<title>q15:74&#45;&gt;q18:74</title>
<path fill="none" stroke="black" d="M1513.4,-45C1552.2,-45 1608,-45 1649.6,-45"/>
<polygon fill="black" stroke="black" points="1649.49,-48.5 1659.49,-45 1649.49,-41.5 1649.49,-48.5"/>
<text text-anchor="middle" x="1587.1" y="-48.95" font-family="Times,serif" font-size="14.00">RSET/250:74</text>
</g>
<!-- q0:244 -->
<g id="node9" class="node">
<title>q0:244</title>
<ellipse fill="none" stroke="black" stroke-width="2" cx="53.95" cy="-98" rx="49.95" ry="49.95"/>
<ellipse fill="none" stroke="black" stroke-width="2" cx="53.95" cy="-98" rx="53.95" ry="53.95"/>
<text text-anchor="middle" x="53.95" y="-93.33" font-family="Times,serif" font-size="14.00">q0:244</text>
</g>
<!-- q1:244 -->
<g id="node10" class="node">
<title>q1:244</title>
<ellipse fill="none" stroke="black" stroke-width="2" cx="257.84" cy="-98" rx="45.95" ry="18"/>
<text text-anchor="middle" x="257.84" y="-93.33" font-family="Times,serif" font-size="14.00">q1:244</text>
</g>
<!-- q0:244&#45;&gt;q1:244 -->
<g id="edge10" class="edge">
<title>q0:244&#45;&gt;q1:244</title>
<path fill="none" stroke="black" d="M104.85,-98C133.64,-98 169.94,-98 199.84,-98"/>
<polygon fill="black" stroke="black" points="199.45,-101.5 209.45,-98 199.45,-94.5 199.45,-101.5"/>
<text text-anchor="middle" x="157.89" y="-101.95" font-family="Times,serif" font-size="14.00">λ/220:244</text>
</g>
<!-- q3:243 -->
<g id="node11" class="node">
<title>q3:243</title>
<ellipse fill="none" stroke="black" stroke-width="2" cx="491.48" cy="-131" rx="45.95" ry="18"/>
<text text-anchor="middle" x="491.48" y="-126.33" font-family="Times,serif" font-size="14.00">q3:243</text>
</g>
<!-- q1:244&#45;&gt;q3:243 -->
<g id="edge11" class="edge">
<title>q1:244&#45;&gt;q3:243</title>
<path fill="none" stroke="black" d="M302.14,-104.17C340,-109.56 395.17,-117.42 436.02,-123.24"/>
<polygon fill="black" stroke="black" points="435.51,-126.7 445.9,-124.65 436.49,-119.77 435.51,-126.7"/>
<text text-anchor="middle" x="374.66" y="-124.95" font-family="Times,serif" font-size="14.00">EHLO/250:243</text>
</g>
<!-- q2:1 -->
<g id="node12" class="node">
<title>q2:1</title>
<ellipse fill="none" stroke="black" stroke-width="2" cx="491.48" cy="-71" rx="33.32" ry="18"/>
<text text-anchor="middle" x="491.48" y="-66.33" font-family="Times,serif" font-size="14.00">q2:1</text>
</g>
<!-- q1:244&#45;&gt;q2:1 -->
<g id="edge12" class="edge">
<title>q1:244&#45;&gt;q2:1</title>
<path fill="none" stroke="black" d="M298.66,-88.83C306.31,-87.29 314.27,-85.84 321.79,-84.75 363.67,-78.66 411.82,-75.07 445.93,-73.1"/>
<polygon fill="black" stroke="black" points="446.07,-76.59 455.86,-72.55 445.68,-69.6 446.07,-76.59"/>
<text text-anchor="middle" x="374.66" y="-88.95" font-family="Times,serif" font-size="14.00">EHLO/λ:1</text>
</g>
<!-- q3:243&#45;&gt;q5:1 -->
<g id="edge13" class="edge">
<title>q3:243&#45;&gt;q5:1</title>
<path fill="none" stroke="black" d="M538.25,-131.59C579.17,-132.12 638.78,-132.89 679.39,-133.42"/>
<polygon fill="black" stroke="black" points="679.26,-136.92 689.31,-133.55 679.35,-129.92 679.26,-136.92"/>
<text text-anchor="middle" x="608.31" y="-136.94" font-family="Times,serif" font-size="14.00">AUTH/λ:1</text>
</g>
<!-- q4:231 -->
<g id="node13" class="node">
<title>q4:231</title>
<ellipse fill="none" stroke="black" stroke-width="2" cx="725.13" cy="-64" rx="45.95" ry="18"/>
<text text-anchor="middle" x="725.13" y="-59.33" font-family="Times,serif" font-size="14.00">q4:231</text>
</g>
<!-- q3:243&#45;&gt;q4:231 -->
<g id="edge14" class="edge">
<title>q3:243&#45;&gt;q4:231</title>
<path fill="none" stroke="black" d="M527.32,-118.82C536.44,-115.75 546.27,-112.54 555.43,-109.75 595.08,-97.69 640.43,-85.48 674.12,-76.71"/>
<polygon fill="black" stroke="black" points="674.8,-80.15 683.6,-74.25 673.05,-73.37 674.8,-80.15"/>
<text text-anchor="middle" x="608.31" y="-112.95" font-family="Times,serif" font-size="14.00">AUTH/235:230</text>
</g>
<!-- q6:12 -->
<g id="node14" class="node">
<title>q6:12</title>
<ellipse fill="none" stroke="black" stroke-width="2" cx="725.13" cy="-189" rx="39.63" ry="18"/>
<text text-anchor="middle" x="725.13" y="-184.32" font-family="Times,serif" font-size="14.00">q6:12</text>
</g>
<!-- q3:243&#45;&gt;q6:12 -->
<g id="edge15" class="edge">
<title>q3:243&#45;&gt;q6:12</title>
<path fill="none" stroke="black" d="M525.18,-143.97C534.83,-147.52 545.47,-151.16 555.43,-154 595.49,-165.41 641.89,-174.76 675.87,-180.92"/>
<polygon fill="black" stroke="black" points="674.94,-184.31 685.4,-182.61 676.17,-177.42 674.94,-184.31"/>
<text text-anchor="middle" x="608.31" y="-180.94" font-family="Times,serif" font-size="14.00">AUTH/535:12</text>
</g>
<!-- q2:1&#45;&gt;q4:231 -->
<g id="edge16" class="edge">
<title>q2:1&#45;&gt;q4:231</title>
<path fill="none" stroke="black" d="M523.05,-63.83C533.28,-61.76 544.79,-59.78 555.43,-58.75 593,-55.13 635.47,-56.48 668.4,-58.72"/>
<polygon fill="black" stroke="black" points="667.89,-62.19 678.12,-59.43 668.4,-55.21 667.89,-62.19"/>
<text text-anchor="middle" x="608.31" y="-62.95" font-family="Times,serif" font-size="14.00">AUTH/235:1</text>
</g>
<!-- q4:231&#45;&gt;q7:605 -->
<g id="edge17" class="edge">
<title>q4:231&#45;&gt;q7:605</title>
<path fill="none" stroke="black" d="M769.75,-69.91C802.87,-74.49 849.52,-81.16 890.33,-87.75 893.67,-88.29 897.11,-88.86 900.58,-89.45"/>
<polygon fill="black" stroke="black" points="899.72,-92.85 910.17,-91.1 900.91,-85.96 899.72,-92.85"/>
<text text-anchor="middle" x="839.7" y="-91.95" font-family="Times,serif" font-size="14.00">MAIL/250:228</text>
</g>
<!-- q8:3 -->
<g id="node15" class="node">
<title>q8:3</title>
<ellipse fill="none" stroke="black" stroke-width="2" cx="954.27" cy="-31" rx="33.32" ry="18"/>
<text text-anchor="middle" x="954.27" y="-26.32" font-family="Times,serif" font-size="14.00">q8:3</text>
</g>
<!-- q4:231&#45;&gt;q8:3 -->
<g id="edge18" class="edge">
<title>q4:231&#45;&gt;q8:3</title>
<path fill="none" stroke="black" d="M761.79,-52.37C770.63,-49.84 780.13,-47.43 789.08,-45.75 829.33,-38.18 875.9,-34.46 909.14,-32.66"/>
<polygon fill="black" stroke="black" points="908.99,-36.17 918.8,-32.17 908.63,-29.18 908.99,-36.17"/>
<text text-anchor="middle" x="839.7" y="-49.95" font-family="Times,serif" font-size="14.00">MAIL/553:3</text>
</g>
<!-- q9:12 -->
<g id="node16" class="node">
<title>q9:12</title>
<ellipse fill="none" stroke="black" stroke-width="2" cx="954.27" cy="-195" rx="39.63" ry="18"/>
<text text-anchor="middle" x="954.27" y="-190.32" font-family="Times,serif" font-size="14.00">q9:12</text>
</g>
<!-- q6:12&#45;&gt;q9:12 -->
<g id="edge19" class="edge">
<title>q6:12&#45;&gt;q9:12</title>
<path fill="none" stroke="black" d="M765.69,-190.05C803.6,-191.05 861,-192.56 902.32,-193.65"/>
<polygon fill="black" stroke="black" points="902.18,-197.15 912.27,-193.92 902.36,-190.15 902.18,-197.15"/>
<text text-anchor="middle" x="839.7" y="-196.94" font-family="Times,serif" font-size="14.00">AUTH/334:12</text>
</g>
<!-- q12:3 -->
<g id="node17" class="node">
<title>q12:3</title>
<ellipse fill="none" stroke="black" stroke-width="2" cx="1202.8" cy="-18" rx="39.63" ry="18"/>
<text text-anchor="middle" x="1202.8" y="-13.32" font-family="Times,serif" font-size="14.00">q12:3</text>
</g>
<!-- q8:3&#45;&gt;q12:3 -->
<g id="edge20" class="edge">
<title>q8:3&#45;&gt;q12:3</title>
<path fill="none" stroke="black" d="M988.26,-29.26C1030,-27.06 1102.5,-23.24 1151.2,-20.67"/>
<polygon fill="black" stroke="black" points="1151.19,-24.17 1160.99,-20.15 1150.82,-17.18 1151.19,-24.17"/>
<text text-anchor="middle" x="1072.2" y="-31.95" font-family="Times,serif" font-size="14.00">RSET/250:3</text>
</g>
<!-- q13:12 -->
<g id="node18" class="node">
<title>q13:12</title>
<ellipse fill="none" stroke="black" stroke-width="2" cx="1202.8" cy="-215" rx="45.95" ry="18"/>
<text text-anchor="middle" x="1202.8" y="-210.32" font-family="Times,serif" font-size="14.00">q13:12</text>
</g>
<!-- q9:12&#45;&gt;q13:12 -->
<g id="edge21" class="edge">
<title>q9:12&#45;&gt;q13:12</title>
<path fill="none" stroke="black" d="M994.33,-198.17C1035.1,-201.48 1099.5,-206.7 1145.7,-210.45"/>
<polygon fill="black" stroke="black" points="1145.34,-213.93 1155.59,-211.25 1145.9,-206.96 1145.34,-213.93"/>
<text text-anchor="middle" x="1072.2" y="-211.94" font-family="Times,serif" font-size="14.00">content/535:12</text>
</g>
<!-- q16:3 -->
<g id="node19" class="node">
<title>q16:3</title>
<ellipse fill="none" stroke="black" stroke-width="2" cx="1466.6" cy="-215" rx="39.63" ry="18"/>
<text text-anchor="middle" x="1466.6" y="-210.32" font-family="Times,serif" font-size="14.00">q16:3</text>
</g>
<!-- q13:12&#45;&gt;q16:3 -->
<g id="edge22" class="edge">
<title>q13:12&#45;&gt;q16:3</title>
<path fill="none" stroke="black" d="M1249.7,-215C1295.9,-215 1367,-215 1414.9,-215"/>
<polygon fill="black" stroke="black" points="1414.69,-218.5 1424.69,-215 1414.69,-211.5 1414.69,-218.5"/>
<text text-anchor="middle" x="1337.9" y="-218.94" font-family="Times,serif" font-size="14.00">λ/451:3</text>
</g>
</g>
</svg>
