<?xml version="1.0" encoding="UTF-8" standalone="no"?>
<!DOCTYPE svg PUBLIC "-//W3C//DTD SVG 1.1//EN"
 "http://www.w3.org/Graphics/SVG/1.1/DTD/svg11.dtd">
<!-- Generated by graphviz version 12.0.0 (20240803.0821)
 -->
<!-- Pages: 1 -->
<svg width="2491pt" height="348pt"
 viewBox="0.00 0.00 2490.66 348.00" xmlns="http://www.w3.org/2000/svg" xmlns:xlink="http://www.w3.org/1999/xlink">
<g id="graph0" class="graph" transform="scale(1 1) rotate(0) translate(4 344)">
<polygon fill="white" stroke="none" points="-4,4 -4,-344 2486.66,-344 2486.66,4 -4,4"/>
<!-- q16:3265 -->
<g id="node1" class="node">
<title>q16:3265</title>
<ellipse fill="none" stroke="black" stroke-width="2" cx="1925.6" cy="-107" rx="58.57" ry="18"/>
<text text-anchor="middle" x="1925.6" y="-102.33" font-family="Times,serif" font-size="14.00">q16:3265</text>
</g>
<!-- q16:3265&#45;&gt;q16:3265 -->
<g id="edge1" class="edge">
<title>q16:3265&#45;&gt;q16:3265</title>
<path fill="none" stroke="black" d="M1903.5,-124.41C1899.4,-134.09 1906.8,-143 1925.6,-143 1936.5,-143 1943.5,-140.02 1946.7,-135.64"/>
<polygon fill="black" stroke="black" points="1950.17,-136.17 1947.48,-125.92 1943.19,-135.61 1950.17,-136.17"/>
<text text-anchor="middle" x="1925.6" y="-146.94" font-family="Times,serif" font-size="14.00">content/λ:3140</text>
</g>
<!-- q23:116 -->
<g id="node2" class="node">
<title>q23:116</title>
<ellipse fill="none" stroke="black" stroke-width="2" cx="2189.4" cy="-161" rx="52.26" ry="18"/>
<text text-anchor="middle" x="2189.4" y="-156.32" font-family="Times,serif" font-size="14.00">q23:116</text>
</g>
<!-- q16:3265&#45;&gt;q23:116 -->
<g id="edge2" class="edge">
<title>q16:3265&#45;&gt;q23:116</title>
<path fill="none" stroke="black" d="M1969.6,-119.71C1980.2,-122.63 1991.5,-125.59 2002.2,-128 2044.4,-137.58 2092.5,-146.05 2129.3,-152.01"/>
<polygon fill="black" stroke="black" points="2128.38,-155.41 2138.8,-153.53 2129.48,-148.49 2128.38,-155.41"/>
<text text-anchor="middle" x="2060.7" y="-154.94" font-family="Times,serif" font-size="14.00">content/250:116</text>
</g>
<!-- q22:1 -->
<g id="node3" class="node">
<title>q22:1</title>
<ellipse fill="none" stroke="black" stroke-width="2" cx="2189.4" cy="-107" rx="39.63" ry="18"/>
<text text-anchor="middle" x="2189.4" y="-102.33" font-family="Times,serif" font-size="14.00">q22:1</text>
</g>
<!-- q16:3265&#45;&gt;q22:1 -->
<g id="edge3" class="edge">
<title>q16:3265&#45;&gt;q22:1</title>
<path fill="none" stroke="black" d="M1985,-107C2030.7,-107 2093.6,-107 2137.3,-107"/>
<polygon fill="black" stroke="black" points="2137.29,-110.5 2147.29,-107 2137.29,-103.5 2137.29,-110.5"/>
<text text-anchor="middle" x="2060.7" y="-110.95" font-family="Times,serif" font-size="14.00">content/550:1</text>
</g>
<!-- q21:8 -->
<g id="node4" class="node">
<title>q21:8</title>
<ellipse fill="none" stroke="black" stroke-width="2" cx="2189.4" cy="-53" rx="39.63" ry="18"/>
<text text-anchor="middle" x="2189.4" y="-48.33" font-family="Times,serif" font-size="14.00">q21:8</text>
</g>
<!-- q16:3265&#45;&gt;q21:8 -->
<g id="edge4" class="edge">
<title>q16:3265&#45;&gt;q21:8</title>
<path fill="none" stroke="black" d="M1969.2,-94.22C1979.9,-91.23 1991.4,-88.2 2002.2,-85.75 2048.4,-75.2 2101.8,-66.13 2139.6,-60.22"/>
<polygon fill="black" stroke="black" points="2139.86,-63.72 2149.2,-58.72 2138.78,-56.81 2139.86,-63.72"/>
<text text-anchor="middle" x="2060.7" y="-89.95" font-family="Times,serif" font-size="14.00">content/554:8</text>
</g>
<!-- q28:116 -->
<g id="node5" class="node">
<title>q28:116</title>
<ellipse fill="none" stroke="black" stroke-width="2" cx="2430.4" cy="-161" rx="52.26" ry="18"/>
<text text-anchor="middle" x="2430.4" y="-156.32" font-family="Times,serif" font-size="14.00">q28:116</text>
</g>
<!-- q23:116&#45;&gt;q28:116 -->
<g id="edge5" class="edge">
<title>q23:116&#45;&gt;q28:116</title>
<path fill="none" stroke="black" d="M2242.6,-161C2279,-161 2327.7,-161 2366.3,-161"/>
<polygon fill="black" stroke="black" points="2365.89,-164.5 2375.89,-161 2365.89,-157.5 2365.89,-164.5"/>
<text text-anchor="middle" x="2309.9" y="-164.94" font-family="Times,serif" font-size="14.00">QUIT/221:116</text>
</g>
<!-- q27:1 -->
<g id="node6" class="node">
<title>q27:1</title>
<ellipse fill="none" stroke="black" stroke-width="2" cx="2430.4" cy="-107" rx="39.63" ry="18"/>
<text text-anchor="middle" x="2430.4" y="-102.33" font-family="Times,serif" font-size="14.00">q27:1</text>
</g>
<!-- q22:1&#45;&gt;q27:1 -->
<g id="edge6" class="edge">
<title>q22:1&#45;&gt;q27:1</title>
<path fill="none" stroke="black" d="M2229.9,-107C2270.5,-107 2334.1,-107 2378.5,-107"/>
<polygon fill="black" stroke="black" points="2378.39,-110.5 2388.39,-107 2378.39,-103.5 2378.39,-110.5"/>
<text text-anchor="middle" x="2309.9" y="-110.95" font-family="Times,serif" font-size="14.00">RSET/250:1</text>
</g>
<!-- q26:8 -->
<g id="node7" class="node">
<title>q26:8</title>
<ellipse fill="none" stroke="black" stroke-width="2" cx="2430.4" cy="-53" rx="39.63" ry="18"/>
<text text-anchor="middle" x="2430.4" y="-48.33" font-family="Times,serif" font-size="14.00">q26:8</text>
</g>
<!-- q21:8&#45;&gt;q26:8 -->
<g id="edge7" class="edge">
<title>q21:8&#45;&gt;q26:8</title>
<path fill="none" stroke="black" d="M2229.9,-53C2270.5,-53 2334.1,-53 2378.5,-53"/>
<polygon fill="black" stroke="black" points="2378.39,-56.5 2388.39,-53 2378.39,-49.5 2378.39,-56.5"/>
<text text-anchor="middle" x="2309.9" y="-56.95" font-family="Times,serif" font-size="14.00">RSET/250:8</text>
</g>
<!-- q0:244 -->
<g id="node8" class="node">
<title>q0:244</title>
<ellipse fill="none" stroke="black" stroke-width="2" cx="53.95" cy="-228" rx="49.95" ry="49.95"/>
<ellipse fill="none" stroke="black" stroke-width="2" cx="53.95" cy="-228" rx="53.95" ry="53.95"/>
<text text-anchor="middle" x="53.95" y="-223.32" font-family="Times,serif" font-size="14.00">q0:244</text>
</g>
<!-- q1:244 -->
<g id="node9" class="node">
<title>q1:244</title>
<ellipse fill="none" stroke="black" stroke-width="2" cx="257.84" cy="-228" rx="45.95" ry="18"/>
<text text-anchor="middle" x="257.84" y="-223.32" font-family="Times,serif" font-size="14.00">q1:244</text>
</g>
<!-- q0:244&#45;&gt;q1:244 -->
<g id="edge8" class="edge">
<title>q0:244&#45;&gt;q1:244</title>
<path fill="none" stroke="black" d="M104.85,-228C133.64,-228 169.94,-228 199.84,-228"/>
<polygon fill="black" stroke="black" points="199.45,-231.5 209.45,-228 199.45,-224.5 199.45,-231.5"/>
<text text-anchor="middle" x="157.89" y="-231.94" font-family="Times,serif" font-size="14.00">λ/220:244</text>
</g>
<!-- q3:242 -->
<g id="node10" class="node">
<title>q3:242</title>
<ellipse fill="none" stroke="black" stroke-width="2" cx="491.48" cy="-261" rx="45.95" ry="18"/>
<text text-anchor="middle" x="491.48" y="-256.32" font-family="Times,serif" font-size="14.00">q3:242</text>
</g>
<!-- q1:244&#45;&gt;q3:242 -->
<g id="edge9" class="edge">
<title>q1:244&#45;&gt;q3:242</title>
<path fill="none" stroke="black" d="M302.14,-234.17C340,-239.56 395.17,-247.42 436.02,-253.24"/>
<polygon fill="black" stroke="black" points="435.51,-256.7 445.9,-254.65 436.49,-249.77 435.51,-256.7"/>
<text text-anchor="middle" x="374.66" y="-254.94" font-family="Times,serif" font-size="14.00">EHLO/250:242</text>
</g>
<!-- q2:2 -->
<g id="node11" class="node">
<title>q2:2</title>
<ellipse fill="none" stroke="black" stroke-width="2" cx="491.48" cy="-201" rx="33.32" ry="18"/>
<text text-anchor="middle" x="491.48" y="-196.32" font-family="Times,serif" font-size="14.00">q2:2</text>
</g>
<!-- q1:244&#45;&gt;q2:2 -->
<g id="edge10" class="edge">
<title>q1:244&#45;&gt;q2:2</title>
<path fill="none" stroke="black" d="M298.66,-218.83C306.31,-217.29 314.27,-215.84 321.79,-214.75 363.67,-208.66 411.82,-205.07 445.93,-203.1"/>
<polygon fill="black" stroke="black" points="446.07,-206.6 455.86,-202.54 445.68,-199.61 446.07,-206.6"/>
<text text-anchor="middle" x="374.66" y="-218.94" font-family="Times,serif" font-size="14.00">EHLO/λ:2</text>
</g>
<!-- q5:229 -->
<g id="node12" class="node">
<title>q5:229</title>
<ellipse fill="none" stroke="black" stroke-width="2" cx="725.13" cy="-268" rx="45.95" ry="18"/>
<text text-anchor="middle" x="725.13" y="-263.32" font-family="Times,serif" font-size="14.00">q5:229</text>
</g>
<!-- q3:242&#45;&gt;q5:229 -->
<g id="edge11" class="edge">
<title>q3:242&#45;&gt;q5:229</title>
<path fill="none" stroke="black" d="M538.25,-262.38C575.21,-263.5 627.42,-265.08 667.1,-266.28"/>
<polygon fill="black" stroke="black" points="666.85,-269.77 676.95,-266.57 667.06,-262.78 666.85,-269.77"/>
<text text-anchor="middle" x="608.31" y="-268.94" font-family="Times,serif" font-size="14.00">AUTH/235:229</text>
</g>
<!-- q6:12 -->
<g id="node13" class="node">
<title>q6:12</title>
<ellipse fill="none" stroke="black" stroke-width="2" cx="725.13" cy="-322" rx="39.63" ry="18"/>
<text text-anchor="middle" x="725.13" y="-317.32" font-family="Times,serif" font-size="14.00">q6:12</text>
</g>
<!-- q3:242&#45;&gt;q6:12 -->
<g id="edge12" class="edge">
<title>q3:242&#45;&gt;q6:12</title>
<path fill="none" stroke="black" d="M523.82,-274.64C533.8,-278.66 544.97,-282.83 555.43,-286 595.34,-298.09 641.75,-307.68 675.78,-313.91"/>
<polygon fill="black" stroke="black" points="674.87,-317.3 685.33,-315.63 676.11,-310.41 674.87,-317.3"/>
<text text-anchor="middle" x="608.31" y="-313.94" font-family="Times,serif" font-size="14.00">AUTH/535:12</text>
</g>
<!-- q4:3 -->
<g id="node14" class="node">
<title>q4:3</title>
<ellipse fill="none" stroke="black" stroke-width="2" cx="725.13" cy="-188" rx="33.32" ry="18"/>
<text text-anchor="middle" x="725.13" y="-183.32" font-family="Times,serif" font-size="14.00">q4:3</text>
</g>
<!-- q3:242&#45;&gt;q4:3 -->
<g id="edge13" class="edge">
<title>q3:242&#45;&gt;q4:3</title>
<path fill="none" stroke="black" d="M528.68,-249.59C570.94,-236.28 640.6,-214.32 684.34,-200.54"/>
<polygon fill="black" stroke="black" points="685.21,-203.93 693.7,-197.59 683.11,-197.26 685.21,-203.93"/>
<text text-anchor="middle" x="608.31" y="-242.94" font-family="Times,serif" font-size="14.00">AUTH/λ:1</text>
</g>
<!-- q2:2&#45;&gt;q4:3 -->
<g id="edge14" class="edge">
<title>q2:2&#45;&gt;q4:3</title>
<path fill="none" stroke="black" d="M523.05,-193.86C533.28,-191.78 544.8,-189.8 555.43,-188.75 597.41,-184.61 645.55,-184.89 679.63,-185.93"/>
<polygon fill="black" stroke="black" points="679.43,-189.43 689.55,-186.27 679.67,-182.43 679.43,-189.43"/>
<text text-anchor="middle" x="608.31" y="-192.94" font-family="Times,serif" font-size="14.00">AUTH/235:2</text>
</g>
<!-- q7:229 -->
<g id="node15" class="node">
<title>q7:229</title>
<ellipse fill="none" stroke="black" stroke-width="2" cx="954.27" cy="-201" rx="45.95" ry="18"/>
<text text-anchor="middle" x="954.27" y="-196.32" font-family="Times,serif" font-size="14.00">q7:229</text>
</g>
<!-- q5:229&#45;&gt;q7:229 -->
<g id="edge15" class="edge">
<title>q5:229&#45;&gt;q7:229</title>
<path fill="none" stroke="black" d="M760.98,-255.86C770.09,-252.79 779.93,-249.57 789.08,-246.75 827.28,-234.99 870.88,-222.9 903.55,-214.11"/>
<polygon fill="black" stroke="black" points="904.41,-217.5 913.16,-211.53 902.59,-210.74 904.41,-217.5"/>
<text text-anchor="middle" x="839.7" y="-249.94" font-family="Times,serif" font-size="14.00">MAIL/250:226</text>
</g>
<!-- q8:3 -->
<g id="node16" class="node">
<title>q8:3</title>
<ellipse fill="none" stroke="black" stroke-width="2" cx="954.27" cy="-268" rx="33.32" ry="18"/>
<text text-anchor="middle" x="954.27" y="-263.32" font-family="Times,serif" font-size="14.00">q8:3</text>
</g>
<!-- q5:229&#45;&gt;q8:3 -->
<g id="edge16" class="edge">
<title>q5:229&#45;&gt;q8:3</title>
<path fill="none" stroke="black" d="M771.82,-268C811.71,-268 869.24,-268 908.77,-268"/>
<polygon fill="black" stroke="black" points="908.66,-271.5 918.66,-268 908.66,-264.5 908.66,-271.5"/>
<text text-anchor="middle" x="839.7" y="-271.94" font-family="Times,serif" font-size="14.00">MAIL/553:3</text>
</g>
<!-- q9:12 -->
<g id="node17" class="node">
<title>q9:12</title>
<ellipse fill="none" stroke="black" stroke-width="2" cx="954.27" cy="-322" rx="39.63" ry="18"/>
<text text-anchor="middle" x="954.27" y="-317.32" font-family="Times,serif" font-size="14.00">q9:12</text>
</g>
<!-- q6:12&#45;&gt;q9:12 -->
<g id="edge17" class="edge">
<title>q6:12&#45;&gt;q9:12</title>
<path fill="none" stroke="black" d="M765.69,-322C803.6,-322 861,-322 902.32,-322"/>
<polygon fill="black" stroke="black" points="902.27,-325.5 912.27,-322 902.27,-318.5 902.27,-325.5"/>
<text text-anchor="middle" x="839.7" y="-325.94" font-family="Times,serif" font-size="14.00">AUTH/334:12</text>
</g>
<!-- q4:3&#45;&gt;q7:229 -->
<g id="edge18" class="edge">
<title>q4:3&#45;&gt;q7:229</title>
<path fill="none" stroke="black" d="M759.24,-186.34C792.47,-185.09 845.08,-184.28 890.33,-188.75 894.15,-189.13 898.09,-189.63 902.05,-190.21"/>
<polygon fill="black" stroke="black" points="901.21,-193.62 911.65,-191.78 902.34,-186.71 901.21,-193.62"/>
<text text-anchor="middle" x="839.7" y="-192.94" font-family="Times,serif" font-size="14.00">MAIL/250:3</text>
</g>
<!-- q10:229 -->
<g id="node18" class="node">
<title>q10:229</title>
<ellipse fill="none" stroke="black" stroke-width="2" cx="1196.5" cy="-201" rx="52.26" ry="18"/>
<text text-anchor="middle" x="1196.5" y="-196.32" font-family="Times,serif" font-size="14.00">q10:229</text>
</g>
<!-- q7:229&#45;&gt;q10:229 -->
<g id="edge19" class="edge">
<title>q7:229&#45;&gt;q10:229</title>
<path fill="none" stroke="black" d="M1001.02,-201C1038.1,-201 1090.8,-201 1131.9,-201"/>
<polygon fill="black" stroke="black" points="1131.69,-204.5 1141.69,-201 1131.69,-197.5 1131.69,-204.5"/>
<text text-anchor="middle" x="1072.2" y="-204.94" font-family="Times,serif" font-size="14.00">RCPT/250:229</text>
</g>
<!-- q11:3 -->
<g id="node19" class="node">
<title>q11:3</title>
<ellipse fill="none" stroke="black" stroke-width="2" cx="1196.5" cy="-268" rx="39.63" ry="18"/>
<text text-anchor="middle" x="1196.5" y="-263.32" font-family="Times,serif" font-size="14.00">q11:3</text>
</g>
<!-- q8:3&#45;&gt;q11:3 -->
<g id="edge20" class="edge">
<title>q8:3&#45;&gt;q11:3</title>
<path fill="none" stroke="black" d="M988.42,-268C1028.8,-268 1097.3,-268 1144.4,-268"/>
<polygon fill="black" stroke="black" points="1144.39,-271.5 1154.39,-268 1144.39,-264.5 1144.39,-271.5"/>
<text text-anchor="middle" x="1072.2" y="-271.94" font-family="Times,serif" font-size="14.00">RSET/250:3</text>
</g>
<!-- q12:12 -->
<g id="node28" class="node">
<title>q12:12</title>
<ellipse fill="none" stroke="black" stroke-width="2" cx="1196.5" cy="-322" rx="45.95" ry="18"/>
<text text-anchor="middle" x="1196.5" y="-317.32" font-family="Times,serif" font-size="14.00">q12:12</text>
</g>
<!-- q9:12&#45;&gt;q12:12 -->
<g id="edge31" class="edge">
<title>q9:12&#45;&gt;q12:12</title>
<path fill="none" stroke="black" d="M994.67,-322C1033.8,-322 1094.1,-322 1138.4,-322"/>
<polygon fill="black" stroke="black" points="1138.39,-325.5 1148.39,-322 1138.39,-318.5 1138.39,-325.5"/>
<text text-anchor="middle" x="1072.2" y="-325.94" font-family="Times,serif" font-size="14.00">content/535:12</text>
</g>
<!-- q13:69 -->
<g id="node20" class="node">
<title>q13:69</title>
<ellipse fill="none" stroke="black" stroke-width="2" cx="1439.8" cy="-235" rx="45.95" ry="18"/>
<text text-anchor="middle" x="1439.8" y="-230.32" font-family="Times,serif" font-size="14.00">q13:69</text>
</g>
<!-- q10:229&#45;&gt;q13:69 -->
<g id="edge21" class="edge">
<title>q10:229&#45;&gt;q13:69</title>
<path fill="none" stroke="black" d="M1246,-207.84C1286,-213.48 1342.7,-221.47 1384.3,-227.32"/>
<polygon fill="black" stroke="black" points="1383.71,-230.77 1394.1,-228.7 1384.69,-223.84 1383.71,-230.77"/>
<text text-anchor="middle" x="1318.1" y="-228.94" font-family="Times,serif" font-size="14.00">DATA/354:69</text>
</g>
<!-- q14:160 -->
<g id="node21" class="node">
<title>q14:160</title>
<ellipse fill="none" stroke="black" stroke-width="2" cx="1439.8" cy="-117" rx="52.26" ry="18"/>
<text text-anchor="middle" x="1439.8" y="-112.33" font-family="Times,serif" font-size="14.00">q14:160</text>
</g>
<!-- q10:229&#45;&gt;q14:160 -->
<g id="edge22" class="edge">
<title>q10:229&#45;&gt;q14:160</title>
<path fill="none" stroke="black" d="M1234.9,-187.97C1276.7,-173.41 1344.6,-149.79 1390.4,-133.84"/>
<polygon fill="black" stroke="black" points="1391.49,-137.17 1399.77,-130.56 1389.18,-130.56 1391.49,-137.17"/>
<text text-anchor="middle" x="1318.1" y="-180.94" font-family="Times,serif" font-size="14.00">RCPT/250:160</text>
</g>
<!-- q13:69&#45;&gt;q16:3265 -->
<g id="edge23" class="edge">
<title>q13:69&#45;&gt;q16:3265</title>
<path fill="none" stroke="black" d="M1485.7,-231.15C1544.4,-225.35 1650.1,-212.25 1737.3,-187 1789.4,-171.89 1846.4,-146.12 1883.7,-127.92"/>
<polygon fill="black" stroke="black" points="1884.85,-131.26 1892.24,-123.67 1881.73,-124.99 1884.85,-131.26"/>
<text text-anchor="middle" x="1686.6" y="-213.94" font-family="Times,serif" font-size="14.00">content/λ:3</text>
</g>
<!-- q18:9 -->
<g id="node22" class="node">
<title>q18:9</title>
<ellipse fill="none" stroke="black" stroke-width="2" cx="1686.6" cy="-321" rx="39.63" ry="18"/>
<text text-anchor="middle" x="1686.6" y="-316.32" font-family="Times,serif" font-size="14.00">q18:9</text>
</g>
<!-- q13:69&#45;&gt;q18:9 -->
<g id="edge24" class="edge">
<title>q13:69&#45;&gt;q18:9</title>
<path fill="none" stroke="black" d="M1463.2,-251.45C1476.3,-260.4 1493.4,-271.04 1510,-278 1551.1,-295.29 1600.7,-306.63 1636.7,-313.3"/>
<polygon fill="black" stroke="black" points="1635.95,-316.72 1646.41,-315.04 1637.19,-309.83 1635.95,-316.72"/>
<text text-anchor="middle" x="1564" y="-312.94" font-family="Times,serif" font-size="14.00">content/250:9</text>
</g>
<!-- q17:57 -->
<g id="node23" class="node">
<title>q17:57</title>
<ellipse fill="none" stroke="black" stroke-width="2" cx="1686.6" cy="-267" rx="45.95" ry="18"/>
<text text-anchor="middle" x="1686.6" y="-262.32" font-family="Times,serif" font-size="14.00">q17:57</text>
</g>
<!-- q13:69&#45;&gt;q17:57 -->
<g id="edge25" class="edge">
<title>q13:69&#45;&gt;q17:57</title>
<path fill="none" stroke="black" d="M1484.2,-240.68C1525.2,-246.04 1586.7,-254.08 1631,-259.86"/>
<polygon fill="black" stroke="black" points="1630.23,-263.29 1640.6,-261.12 1631.14,-256.35 1630.23,-263.29"/>
<text text-anchor="middle" x="1564" y="-260.94" font-family="Times,serif" font-size="14.00">content/554:57</text>
</g>
<!-- q14:160&#45;&gt;q16:3265 -->
<g id="edge26" class="edge">
<title>q14:160&#45;&gt;q16:3265</title>
<path fill="none" stroke="black" d="M1492.5,-115.93C1580,-114.12 1757,-110.46 1855.2,-108.43"/>
<polygon fill="black" stroke="black" points="1854.96,-111.94 1864.89,-108.23 1854.82,-104.94 1854.96,-111.94"/>
<text text-anchor="middle" x="1686.6" y="-116.95" font-family="Times,serif" font-size="14.00">DATA/354:121</text>
</g>
<!-- q20:38 -->
<g id="node24" class="node">
<title>q20:38</title>
<ellipse fill="none" stroke="black" stroke-width="2" cx="1686.6" cy="-160" rx="45.95" ry="18"/>
<text text-anchor="middle" x="1686.6" y="-155.32" font-family="Times,serif" font-size="14.00">q20:38</text>
</g>
<!-- q14:160&#45;&gt;q20:38 -->
<g id="edge27" class="edge">
<title>q14:160&#45;&gt;q20:38</title>
<path fill="none" stroke="black" d="M1487.7,-125.24C1529.1,-132.52 1589.5,-143.11 1632.6,-150.69"/>
<polygon fill="black" stroke="black" points="1631.85,-154.11 1642.31,-152.39 1633.06,-147.22 1631.85,-154.11"/>
<text text-anchor="middle" x="1564" y="-151.94" font-family="Times,serif" font-size="14.00">DATA/550:38</text>
</g>
<!-- q19:8 -->
<g id="node25" class="node">
<title>q19:8</title>
<ellipse fill="none" stroke="black" stroke-width="2" cx="1686.6" cy="-18" rx="39.63" ry="18"/>
<text text-anchor="middle" x="1686.6" y="-13.32" font-family="Times,serif" font-size="14.00">q19:8</text>
</g>
<!-- q14:160&#45;&gt;q19:8 -->
<g id="edge28" class="edge">
<title>q14:160&#45;&gt;q19:8</title>
<path fill="none" stroke="black" d="M1465.4,-100.54C1478.3,-92.37 1494.6,-82.77 1510,-75.75 1552.9,-56.22 1604.4,-40.09 1640.4,-29.89"/>
<polygon fill="black" stroke="black" points="1640.94,-33.38 1649.64,-27.33 1639.07,-26.63 1640.94,-33.38"/>
<text text-anchor="middle" x="1564" y="-79.95" font-family="Times,serif" font-size="14.00">RCPT/250:1</text>
</g>
<!-- q25:9 -->
<g id="node26" class="node">
<title>q25:9</title>
<ellipse fill="none" stroke="black" stroke-width="2" cx="1925.6" cy="-321" rx="39.63" ry="18"/>
<text text-anchor="middle" x="1925.6" y="-316.32" font-family="Times,serif" font-size="14.00">q25:9</text>
</g>
<!-- q18:9&#45;&gt;q25:9 -->
<g id="edge29" class="edge">
<title>q18:9&#45;&gt;q25:9</title>
<path fill="none" stroke="black" d="M1727,-321C1767.3,-321 1829.9,-321 1873.8,-321"/>
<polygon fill="black" stroke="black" points="1873.59,-324.5 1883.59,-321 1873.59,-317.5 1873.59,-324.5"/>
<text text-anchor="middle" x="1802.1" y="-324.94" font-family="Times,serif" font-size="14.00">QUIT/221:9</text>
</g>
<!-- q24:57 -->
<g id="node27" class="node">
<title>q24:57</title>
<ellipse fill="none" stroke="black" stroke-width="2" cx="1925.6" cy="-267" rx="45.95" ry="18"/>
<text text-anchor="middle" x="1925.6" y="-262.32" font-family="Times,serif" font-size="14.00">q24:57</text>
</g>
<!-- q17:57&#45;&gt;q24:57 -->
<g id="edge30" class="edge">
<title>q17:57&#45;&gt;q24:57</title>
<path fill="none" stroke="black" d="M1733.3,-267C1771.6,-267 1826.4,-267 1867.6,-267"/>
<polygon fill="black" stroke="black" points="1867.49,-270.5 1877.49,-267 1867.49,-263.5 1867.49,-270.5"/>
<text text-anchor="middle" x="1802.1" y="-270.94" font-family="Times,serif" font-size="14.00">RSET/250:57</text>
</g>
<!-- q19:8&#45;&gt;q16:3265 -->
<g id="edge33" class="edge">
<title>q19:8&#45;&gt;q16:3265</title>
<path fill="none" stroke="black" d="M1719.6,-28.94C1752.3,-40.23 1804.4,-58.57 1849,-75.75 1858.7,-79.5 1869.1,-83.67 1878.9,-87.71"/>
<polygon fill="black" stroke="black" points="1877.42,-90.89 1888,-91.44 1880.08,-84.41 1877.42,-90.89"/>
<text text-anchor="middle" x="1802.1" y="-79.95" font-family="Times,serif" font-size="14.00">DATA/354:1</text>
</g>
<!-- q19:8&#45;&gt;q19:8 -->
<g id="edge34" class="edge">
<title>q19:8&#45;&gt;q19:8</title>
<path fill="none" stroke="black" d="M1666.5,-34.29C1661.7,-44.39 1668.4,-54 1686.6,-54 1697.5,-54 1704.3,-50.61 1707,-45.74"/>
<polygon fill="black" stroke="black" points="1710.5,-45.74 1706.83,-35.8 1703.5,-45.86 1710.5,-45.74"/>
<text text-anchor="middle" x="1686.6" y="-57.95" font-family="Times,serif" font-size="14.00">RCPT/250:7</text>
</g>
<!-- q15:4 -->
<g id="node29" class="node">
<title>q15:4</title>
<ellipse fill="none" stroke="black" stroke-width="2" cx="1439.8" cy="-322" rx="39.63" ry="18"/>
<text text-anchor="middle" x="1439.8" y="-317.32" font-family="Times,serif" font-size="14.00">q15:4</text>
</g>
<!-- q12:12&#45;&gt;q15:4 -->
<g id="edge32" class="edge">
<title>q12:12&#45;&gt;q15:4</title>
<path fill="none" stroke="black" d="M1243.1,-322C1284.4,-322 1345.2,-322 1388,-322"/>
<polygon fill="black" stroke="black" points="1387.79,-325.5 1397.79,-322 1387.79,-318.5 1387.79,-325.5"/>
<text text-anchor="middle" x="1318.1" y="-325.94" font-family="Times,serif" font-size="14.00">λ/451:4</text>
</g>
</g>
</svg>
