<?xml version="1.0" encoding="UTF-8" standalone="no"?>
<!DOCTYPE svg PUBLIC "-//W3C//DTD SVG 1.1//EN"
 "http://www.w3.org/Graphics/SVG/1.1/DTD/svg11.dtd">
<!-- Generated by graphviz version 12.0.0 (20240803.0821)
 -->
<!-- Pages: 1 -->
<svg width="2010pt" height="359pt"
 viewBox="0.00 0.00 2009.65 359.00" xmlns="http://www.w3.org/2000/svg" xmlns:xlink="http://www.w3.org/1999/xlink">
<g id="graph0" class="graph" transform="scale(1 1) rotate(0) translate(4 355)">
<polygon fill="white" stroke="none" points="-4,4 -4,-355 2005.65,-355 2005.65,4 -4,4"/>
<!-- q20:111 -->
<g id="node1" class="node">
<title>q20:111</title>
<ellipse fill="none" stroke="black" stroke-width="2" cx="1479.3" cy="-96" rx="52.26" ry="18"/>
<text text-anchor="middle" x="1479.3" y="-91.33" font-family="Times,serif" font-size="14.00">q20:111</text>
</g>
<!-- q25:111 -->
<g id="node2" class="node">
<title>q25:111</title>
<ellipse fill="none" stroke="black" stroke-width="2" cx="1727.8" cy="-96" rx="52.26" ry="18"/>
<text text-anchor="middle" x="1727.8" y="-91.33" font-family="Times,serif" font-size="14.00">q25:111</text>
</g>
<!-- q20:111&#45;&gt;q25:111 -->
<g id="edge1" class="edge">
<title>q20:111&#45;&gt;q25:111</title>
<path fill="none" stroke="black" d="M1532.2,-96C1570.5,-96 1622.7,-96 1663.4,-96"/>
<polygon fill="black" stroke="black" points="1663.39,-99.5 1673.39,-96 1663.39,-92.5 1663.39,-99.5"/>
<text text-anchor="middle" x="1603.5" y="-99.95" font-family="Times,serif" font-size="14.00">QUIT/221:111</text>
</g>
<!-- q22:8 -->
<g id="node3" class="node">
<title>q22:8</title>
<ellipse fill="none" stroke="black" stroke-width="2" cx="1479.3" cy="-42" rx="39.63" ry="18"/>
<text text-anchor="middle" x="1479.3" y="-37.33" font-family="Times,serif" font-size="14.00">q22:8</text>
</g>
<!-- q27:8 -->
<g id="node4" class="node">
<title>q27:8</title>
<ellipse fill="none" stroke="black" stroke-width="2" cx="1727.8" cy="-42" rx="39.63" ry="18"/>
<text text-anchor="middle" x="1727.8" y="-37.33" font-family="Times,serif" font-size="14.00">q27:8</text>
</g>
<!-- q22:8&#45;&gt;q27:8 -->
<g id="edge2" class="edge">
<title>q22:8&#45;&gt;q27:8</title>
<path fill="none" stroke="black" d="M1519.9,-42C1562.3,-42 1629.7,-42 1676,-42"/>
<polygon fill="black" stroke="black" points="1675.79,-45.5 1685.79,-42 1675.79,-38.5 1675.79,-45.5"/>
<text text-anchor="middle" x="1603.5" y="-45.95" font-family="Times,serif" font-size="14.00">RSET/250:8</text>
</g>
<!-- q10:13 -->
<g id="node5" class="node">
<title>q10:13</title>
<ellipse fill="none" stroke="black" stroke-width="2" cx="960.59" cy="-313" rx="45.95" ry="18"/>
<text text-anchor="middle" x="960.59" y="-308.32" font-family="Times,serif" font-size="14.00">q10:13</text>
</g>
<!-- q14:13 -->
<g id="node6" class="node">
<title>q14:13</title>
<ellipse fill="none" stroke="black" stroke-width="2" cx="1215.4" cy="-333" rx="45.95" ry="18"/>
<text text-anchor="middle" x="1215.4" y="-328.32" font-family="Times,serif" font-size="14.00">q14:13</text>
</g>
<!-- q10:13&#45;&gt;q14:13 -->
<g id="edge3" class="edge">
<title>q10:13&#45;&gt;q14:13</title>
<path fill="none" stroke="black" d="M1006.5,-316.55C1048.9,-319.91 1112.6,-324.94 1158.3,-328.56"/>
<polygon fill="black" stroke="black" points="1157.74,-332.03 1167.99,-329.33 1158.3,-325.05 1157.74,-332.03"/>
<text text-anchor="middle" x="1084.8" y="-329.94" font-family="Times,serif" font-size="14.00">content/535:13</text>
</g>
<!-- q19:4 -->
<g id="node7" class="node">
<title>q19:4</title>
<ellipse fill="none" stroke="black" stroke-width="2" cx="1479.3" cy="-333" rx="39.63" ry="18"/>
<text text-anchor="middle" x="1479.3" y="-328.32" font-family="Times,serif" font-size="14.00">q19:4</text>
</g>
<!-- q14:13&#45;&gt;q19:4 -->
<g id="edge4" class="edge">
<title>q14:13&#45;&gt;q19:4</title>
<path fill="none" stroke="black" d="M1262.3,-333C1308.5,-333 1379.6,-333 1427.5,-333"/>
<polygon fill="black" stroke="black" points="1427.29,-336.5 1437.29,-333 1427.29,-329.5 1427.29,-336.5"/>
<text text-anchor="middle" x="1350.5" y="-336.94" font-family="Times,serif" font-size="14.00">λ/451:4</text>
</g>
<!-- q7:3 -->
<g id="node8" class="node">
<title>q7:3</title>
<ellipse fill="none" stroke="black" stroke-width="2" cx="960.59" cy="-18" rx="33.32" ry="18"/>
<text text-anchor="middle" x="960.59" y="-13.32" font-family="Times,serif" font-size="14.00">q7:3</text>
</g>
<!-- q11:3 -->
<g id="node9" class="node">
<title>q11:3</title>
<ellipse fill="none" stroke="black" stroke-width="2" cx="1215.4" cy="-18" rx="39.63" ry="18"/>
<text text-anchor="middle" x="1215.4" y="-13.32" font-family="Times,serif" font-size="14.00">q11:3</text>
</g>
<!-- q7:3&#45;&gt;q11:3 -->
<g id="edge5" class="edge">
<title>q7:3&#45;&gt;q11:3</title>
<path fill="none" stroke="black" d="M994.9,-18C1037.9,-18 1113.3,-18 1163.5,-18"/>
<polygon fill="black" stroke="black" points="1163.29,-21.5 1173.29,-18 1163.29,-14.5 1163.29,-21.5"/>
<text text-anchor="middle" x="1084.8" y="-21.95" font-family="Times,serif" font-size="14.00">RSET/250:3</text>
</g>
<!-- q4:230 -->
<g id="node10" class="node">
<title>q4:230</title>
<ellipse fill="none" stroke="black" stroke-width="2" cx="725.13" cy="-62" rx="45.95" ry="18"/>
<text text-anchor="middle" x="725.13" y="-57.33" font-family="Times,serif" font-size="14.00">q4:230</text>
</g>
<!-- q4:230&#45;&gt;q7:3 -->
<g id="edge6" class="edge">
<title>q4:230&#45;&gt;q7:3</title>
<path fill="none" stroke="black" d="M762.53,-50.56C771.18,-48.09 780.41,-45.65 789.08,-43.75 831.77,-34.38 881.22,-27.32 915.84,-22.99"/>
<polygon fill="black" stroke="black" points="915.98,-26.5 925.48,-21.81 915.13,-19.55 915.98,-26.5"/>
<text text-anchor="middle" x="839.7" y="-47.95" font-family="Times,serif" font-size="14.00">MAIL/553:3</text>
</g>
<!-- q8:227 -->
<g id="node11" class="node">
<title>q8:227</title>
<ellipse fill="none" stroke="black" stroke-width="2" cx="960.59" cy="-72" rx="45.95" ry="18"/>
<text text-anchor="middle" x="960.59" y="-67.33" font-family="Times,serif" font-size="14.00">q8:227</text>
</g>
<!-- q4:230&#45;&gt;q8:227 -->
<g id="edge7" class="edge">
<title>q4:230&#45;&gt;q8:227</title>
<path fill="none" stroke="black" d="M771.7,-63.95C809.22,-65.56 862.6,-67.85 902.88,-69.57"/>
<polygon fill="black" stroke="black" points="902.48,-73.06 912.62,-69.99 902.78,-66.06 902.48,-73.06"/>
<text text-anchor="middle" x="839.7" y="-72.95" font-family="Times,serif" font-size="14.00">MAIL/250:227</text>
</g>
<!-- q9:232 -->
<g id="node12" class="node">
<title>q9:232</title>
<ellipse fill="none" stroke="black" stroke-width="2" cx="1215.4" cy="-199" rx="45.95" ry="18"/>
<text text-anchor="middle" x="1215.4" y="-194.32" font-family="Times,serif" font-size="14.00">q9:232</text>
</g>
<!-- q8:227&#45;&gt;q9:232 -->
<g id="edge8" class="edge">
<title>q8:227&#45;&gt;q9:232</title>
<path fill="none" stroke="black" d="M1004.2,-65.16C1043.9,-61.34 1102.2,-62.62 1138.8,-94.75 1162.4,-115.44 1138.2,-137.74 1156.8,-163 1161.4,-169.19 1167.4,-174.55 1173.7,-179.12"/>
<polygon fill="black" stroke="black" points="1171.62,-181.95 1181.93,-184.42 1175.42,-176.06 1171.62,-181.95"/>
<text text-anchor="middle" x="1084.8" y="-97.95" font-family="Times,serif" font-size="14.00">RCPT/250:227</text>
</g>
<!-- q13:116 -->
<g id="node13" class="node">
<title>q13:116</title>
<ellipse fill="none" stroke="black" stroke-width="2" cx="1479.3" cy="-204" rx="52.26" ry="18"/>
<text text-anchor="middle" x="1479.3" y="-199.32" font-family="Times,serif" font-size="14.00">q13:116</text>
</g>
<!-- q9:232&#45;&gt;q13:116 -->
<g id="edge9" class="edge">
<title>q9:232&#45;&gt;q13:116</title>
<path fill="none" stroke="black" d="M1262,-199.87C1304.4,-200.68 1367.9,-201.89 1415.1,-202.79"/>
<polygon fill="black" stroke="black" points="1414.82,-206.29 1424.89,-202.98 1414.96,-199.29 1414.82,-206.29"/>
<text text-anchor="middle" x="1350.5" y="-205.94" font-family="Times,serif" font-size="14.00">DATA/354:65</text>
</g>
<!-- q12:167 -->
<g id="node14" class="node">
<title>q12:167</title>
<ellipse fill="none" stroke="black" stroke-width="2" cx="960.59" cy="-219" rx="52.26" ry="18"/>
<text text-anchor="middle" x="960.59" y="-214.32" font-family="Times,serif" font-size="14.00">q12:167</text>
</g>
<!-- q9:232&#45;&gt;q12:167 -->
<g id="edge10" class="edge">
<title>q9:232&#45;&gt;q12:167</title>
<path fill="none" stroke="black" d="M1169.3,-195.85C1132,-194.05 1077.7,-193.26 1030.8,-199.75 1024.4,-200.65 1017.6,-201.99 1011,-203.55"/>
<polygon fill="black" stroke="black" points="1010.31,-200.11 1001.5,-205.98 1012.05,-206.89 1010.31,-200.11"/>
<text text-anchor="middle" x="1084.8" y="-202.94" font-family="Times,serif" font-size="14.00">RCPT/250:167</text>
</g>
<!-- q13:116&#45;&gt;q13:116 -->
<g id="edge27" class="edge">
<title>q13:116&#45;&gt;q13:116</title>
<path fill="none" stroke="black" d="M1457.2,-221.04C1452.7,-230.86 1460.1,-240 1479.3,-240 1490.3,-240 1497.5,-236.94 1500.6,-232.47"/>
<polygon fill="black" stroke="black" points="1504.09,-232.75 1501.21,-222.55 1497.1,-232.32 1504.09,-232.75"/>
<text text-anchor="middle" x="1479.3" y="-243.94" font-family="Times,serif" font-size="14.00">content/λ:51</text>
</g>
<!-- q18:23 -->
<g id="node24" class="node">
<title>q18:23</title>
<ellipse fill="none" stroke="black" stroke-width="2" cx="1727.8" cy="-204" rx="45.95" ry="18"/>
<text text-anchor="middle" x="1727.8" y="-199.32" font-family="Times,serif" font-size="14.00">q18:23</text>
</g>
<!-- q13:116&#45;&gt;q18:23 -->
<g id="edge26" class="edge">
<title>q13:116&#45;&gt;q18:23</title>
<path fill="none" stroke="black" d="M1532.2,-204C1572.5,-204 1628.3,-204 1669.8,-204"/>
<polygon fill="black" stroke="black" points="1669.59,-207.5 1679.59,-204 1669.59,-200.5 1669.59,-207.5"/>
<text text-anchor="middle" x="1603.5" y="-207.94" font-family="Times,serif" font-size="14.00">content/250:23</text>
</g>
<!-- q17:42 -->
<g id="node26" class="node">
<title>q17:42</title>
<ellipse fill="none" stroke="black" stroke-width="2" cx="1727.8" cy="-258" rx="45.95" ry="18"/>
<text text-anchor="middle" x="1727.8" y="-253.32" font-family="Times,serif" font-size="14.00">q17:42</text>
</g>
<!-- q13:116&#45;&gt;q17:42 -->
<g id="edge28" class="edge">
<title>q13:116&#45;&gt;q17:42</title>
<path fill="none" stroke="black" d="M1518.9,-216.53C1528.8,-219.53 1539.5,-222.56 1549.5,-225 1590.5,-235.01 1637.5,-243.63 1672.8,-249.55"/>
<polygon fill="black" stroke="black" points="1671.97,-252.96 1682.41,-251.13 1673.11,-246.05 1671.97,-252.96"/>
<text text-anchor="middle" x="1603.5" y="-249.94" font-family="Times,serif" font-size="14.00">content/554:42</text>
</g>
<!-- q12:167&#45;&gt;q9:232 -->
<g id="edge30" class="edge">
<title>q12:167&#45;&gt;q9:232</title>
<path fill="none" stroke="black" d="M1013.4,-221.44C1048.8,-222.37 1096.8,-222.17 1138.8,-217 1147.7,-215.91 1157,-214.18 1166,-212.22"/>
<polygon fill="black" stroke="black" points="1166.59,-215.68 1175.53,-209.99 1164.99,-208.86 1166.59,-215.68"/>
<text text-anchor="middle" x="1084.8" y="-224.94" font-family="Times,serif" font-size="14.00">RCPT/250:4</text>
</g>
<!-- q16:3097 -->
<g id="node21" class="node">
<title>q16:3097</title>
<ellipse fill="none" stroke="black" stroke-width="2" cx="1215.4" cy="-101" rx="58.57" ry="18"/>
<text text-anchor="middle" x="1215.4" y="-96.33" font-family="Times,serif" font-size="14.00">q16:3097</text>
</g>
<!-- q12:167&#45;&gt;q16:3097 -->
<g id="edge31" class="edge">
<title>q12:167&#45;&gt;q16:3097</title>
<path fill="none" stroke="black" d="M984.22,-202.07C997.39,-192.69 1014.6,-181.24 1030.8,-172.75 1073.6,-150.43 1125,-130.92 1162.5,-117.9"/>
<polygon fill="black" stroke="black" points="1163.44,-121.28 1171.77,-114.73 1161.17,-114.65 1163.44,-121.28"/>
<text text-anchor="middle" x="1084.8" y="-175.94" font-family="Times,serif" font-size="14.00">DATA/354:120</text>
</g>
<!-- q15:43 -->
<g id="node28" class="node">
<title>q15:43</title>
<ellipse fill="none" stroke="black" stroke-width="2" cx="1215.4" cy="-279" rx="45.95" ry="18"/>
<text text-anchor="middle" x="1215.4" y="-274.32" font-family="Times,serif" font-size="14.00">q15:43</text>
</g>
<!-- q12:167&#45;&gt;q15:43 -->
<g id="edge32" class="edge">
<title>q12:167&#45;&gt;q15:43</title>
<path fill="none" stroke="black" d="M998.72,-232.25C1009,-235.69 1020.3,-239.2 1030.8,-242 1074.3,-253.54 1124.3,-263.4 1161.2,-270.04"/>
<polygon fill="black" stroke="black" points="1160.25,-273.43 1170.71,-271.73 1161.47,-266.53 1160.25,-273.43"/>
<text text-anchor="middle" x="1084.8" y="-268.94" font-family="Times,serif" font-size="14.00">DATA/550:43</text>
</g>
<!-- q0:244 -->
<g id="node15" class="node">
<title>q0:244</title>
<ellipse fill="none" stroke="black" stroke-width="2" cx="53.95" cy="-93" rx="49.95" ry="49.95"/>
<ellipse fill="none" stroke="black" stroke-width="2" cx="53.95" cy="-93" rx="53.95" ry="53.95"/>
<text text-anchor="middle" x="53.95" y="-88.33" font-family="Times,serif" font-size="14.00">q0:244</text>
</g>
<!-- q1:244 -->
<g id="node16" class="node">
<title>q1:244</title>
<ellipse fill="none" stroke="black" stroke-width="2" cx="257.84" cy="-93" rx="45.95" ry="18"/>
<text text-anchor="middle" x="257.84" y="-88.33" font-family="Times,serif" font-size="14.00">q1:244</text>
</g>
<!-- q0:244&#45;&gt;q1:244 -->
<g id="edge11" class="edge">
<title>q0:244&#45;&gt;q1:244</title>
<path fill="none" stroke="black" d="M104.85,-93C133.64,-93 169.94,-93 199.84,-93"/>
<polygon fill="black" stroke="black" points="199.45,-96.5 209.45,-93 199.45,-89.5 199.45,-96.5"/>
<text text-anchor="middle" x="157.89" y="-96.95" font-family="Times,serif" font-size="14.00">λ/220:244</text>
</g>
<!-- q3:242 -->
<g id="node17" class="node">
<title>q3:242</title>
<ellipse fill="none" stroke="black" stroke-width="2" cx="491.48" cy="-126" rx="45.95" ry="18"/>
<text text-anchor="middle" x="491.48" y="-121.33" font-family="Times,serif" font-size="14.00">q3:242</text>
</g>
<!-- q1:244&#45;&gt;q3:242 -->
<g id="edge12" class="edge">
<title>q1:244&#45;&gt;q3:242</title>
<path fill="none" stroke="black" d="M302.14,-99.17C340,-104.56 395.17,-112.42 436.02,-118.24"/>
<polygon fill="black" stroke="black" points="435.51,-121.7 445.9,-119.65 436.49,-114.77 435.51,-121.7"/>
<text text-anchor="middle" x="374.66" y="-119.95" font-family="Times,serif" font-size="14.00">EHLO/250:242</text>
</g>
<!-- q2:2 -->
<g id="node18" class="node">
<title>q2:2</title>
<ellipse fill="none" stroke="black" stroke-width="2" cx="491.48" cy="-66" rx="33.32" ry="18"/>
<text text-anchor="middle" x="491.48" y="-61.33" font-family="Times,serif" font-size="14.00">q2:2</text>
</g>
<!-- q1:244&#45;&gt;q2:2 -->
<g id="edge13" class="edge">
<title>q1:244&#45;&gt;q2:2</title>
<path fill="none" stroke="black" d="M296.21,-82.12C304.56,-80.03 313.43,-78.08 321.79,-76.75 363.53,-70.09 411.69,-67.53 445.85,-66.55"/>
<polygon fill="black" stroke="black" points="445.89,-70.05 455.8,-66.31 445.71,-63.05 445.89,-70.05"/>
<text text-anchor="middle" x="374.66" y="-80.95" font-family="Times,serif" font-size="14.00">EHLO/λ:2</text>
</g>
<!-- q3:242&#45;&gt;q4:230 -->
<g id="edge14" class="edge">
<title>q3:242&#45;&gt;q4:230</title>
<path fill="none" stroke="black" d="M518.39,-110.6C529.48,-104.57 542.77,-98.08 555.43,-93.75 576.24,-86.63 629.15,-77.16 670.21,-70.42"/>
<polygon fill="black" stroke="black" points="670.64,-73.9 679.95,-68.84 669.51,-66.99 670.64,-73.9"/>
<text text-anchor="middle" x="608.31" y="-96.95" font-family="Times,serif" font-size="14.00">AUTH/235:228</text>
</g>
<!-- q6:13 -->
<g id="node19" class="node">
<title>q6:13</title>
<ellipse fill="none" stroke="black" stroke-width="2" cx="725.13" cy="-197" rx="39.63" ry="18"/>
<text text-anchor="middle" x="725.13" y="-192.32" font-family="Times,serif" font-size="14.00">q6:13</text>
</g>
<!-- q3:242&#45;&gt;q6:13 -->
<g id="edge15" class="edge">
<title>q3:242&#45;&gt;q6:13</title>
<path fill="none" stroke="black" d="M521.85,-140.3C532.3,-145.05 544.25,-150.12 555.43,-154 595.58,-167.93 642.52,-179.53 676.67,-187.16"/>
<polygon fill="black" stroke="black" points="675.74,-190.54 686.26,-189.27 677.24,-183.7 675.74,-190.54"/>
<text text-anchor="middle" x="608.31" y="-186.94" font-family="Times,serif" font-size="14.00">AUTH/535:13</text>
</g>
<!-- q5:1 -->
<g id="node20" class="node">
<title>q5:1</title>
<ellipse fill="none" stroke="black" stroke-width="2" cx="839.7" cy="-128" rx="33.32" ry="18"/>
<text text-anchor="middle" x="839.7" y="-123.33" font-family="Times,serif" font-size="14.00">q5:1</text>
</g>
<!-- q3:242&#45;&gt;q5:1 -->
<g id="edge16" class="edge">
<title>q3:242&#45;&gt;q5:1</title>
<path fill="none" stroke="black" d="M538.1,-126.26C604.79,-126.65 728.13,-127.36 794.18,-127.74"/>
<polygon fill="black" stroke="black" points="793.9,-131.24 803.93,-127.8 793.95,-124.24 793.9,-131.24"/>
<text text-anchor="middle" x="608.31" y="-129.94" font-family="Times,serif" font-size="14.00">AUTH/λ:1</text>
</g>
<!-- q2:2&#45;&gt;q4:230 -->
<g id="edge17" class="edge">
<title>q2:2&#45;&gt;q4:230</title>
<path fill="none" stroke="black" d="M523.05,-58.83C533.28,-56.76 544.79,-54.78 555.43,-53.75 602.21,-49.24 614.28,-50.69 661.18,-53.75 664.02,-53.94 666.93,-54.17 669.86,-54.43"/>
<polygon fill="black" stroke="black" points="669.39,-57.9 679.69,-55.46 670.11,-50.94 669.39,-57.9"/>
<text text-anchor="middle" x="608.31" y="-57.95" font-family="Times,serif" font-size="14.00">AUTH/235:2</text>
</g>
<!-- q6:13&#45;&gt;q10:13 -->
<g id="edge18" class="edge">
<title>q6:13&#45;&gt;q10:13</title>
<path fill="none" stroke="black" d="M753.37,-210.53C794.63,-231.04 873.18,-270.07 920.52,-293.59"/>
<polygon fill="black" stroke="black" points="918.83,-296.66 929.34,-297.98 921.95,-290.39 918.83,-296.66"/>
<text text-anchor="middle" x="839.7" y="-278.94" font-family="Times,serif" font-size="14.00">AUTH/334:13</text>
</g>
<!-- q5:1&#45;&gt;q9:232 -->
<g id="edge19" class="edge">
<title>q5:1&#45;&gt;q9:232</title>
<path fill="none" stroke="black" d="M873.67,-125.91C941.36,-122.17 1093.4,-116.73 1138.8,-140 1150.4,-145.92 1147.2,-154.32 1156.8,-163 1162.9,-168.48 1170,-173.63 1176.9,-178.23"/>
<polygon fill="black" stroke="black" points="1174.78,-181.03 1185.11,-183.35 1178.48,-175.09 1174.78,-181.03"/>
<text text-anchor="middle" x="960.59" y="-127.95" font-family="Times,serif" font-size="14.00">MAIL/250:1</text>
</g>
<!-- q16:3097&#45;&gt;q20:111 -->
<g id="edge20" class="edge">
<title>q16:3097&#45;&gt;q20:111</title>
<path fill="none" stroke="black" d="M1274.9,-99.88C1316.4,-99.09 1372.2,-98.03 1414.8,-97.21"/>
<polygon fill="black" stroke="black" points="1414.75,-100.71 1424.69,-97.02 1414.62,-93.71 1414.75,-100.71"/>
<text text-anchor="middle" x="1350.5" y="-102.95" font-family="Times,serif" font-size="14.00">content/250:111</text>
</g>
<!-- q16:3097&#45;&gt;q22:8 -->
<g id="edge21" class="edge">
<title>q16:3097&#45;&gt;q22:8</title>
<path fill="none" stroke="black" d="M1254.9,-86.95C1266.7,-82.97 1279.8,-78.88 1292,-75.75 1338,-63.96 1391.4,-54.72 1429.2,-48.92"/>
<polygon fill="black" stroke="black" points="1429.63,-52.39 1439,-47.45 1428.59,-45.47 1429.63,-52.39"/>
<text text-anchor="middle" x="1350.5" y="-79.95" font-family="Times,serif" font-size="14.00">content/554:8</text>
</g>
<!-- q16:3097&#45;&gt;q16:3097 -->
<g id="edge22" class="edge">
<title>q16:3097&#45;&gt;q16:3097</title>
<path fill="none" stroke="black" d="M1192.1,-118.41C1187.8,-128.09 1195.5,-137 1215.4,-137 1226.9,-137 1234.4,-134.02 1237.8,-129.64"/>
<polygon fill="black" stroke="black" points="1241.27,-130.17 1238.58,-119.92 1234.29,-129.61 1241.27,-130.17"/>
<text text-anchor="middle" x="1215.4" y="-140.94" font-family="Times,serif" font-size="14.00">content/λ:2977</text>
</g>
<!-- q21:1 -->
<g id="node22" class="node">
<title>q21:1</title>
<ellipse fill="none" stroke="black" stroke-width="2" cx="1479.3" cy="-150" rx="39.63" ry="18"/>
<text text-anchor="middle" x="1479.3" y="-145.32" font-family="Times,serif" font-size="14.00">q21:1</text>
</g>
<!-- q16:3097&#45;&gt;q21:1 -->
<g id="edge23" class="edge">
<title>q16:3097&#45;&gt;q21:1</title>
<path fill="none" stroke="black" d="M1261.4,-113C1271.5,-115.48 1282.1,-117.95 1292,-120 1338.2,-129.52 1391.4,-137.82 1429.1,-143.27"/>
<polygon fill="black" stroke="black" points="1428.41,-146.71 1438.8,-144.65 1429.39,-139.78 1428.41,-146.71"/>
<text text-anchor="middle" x="1350.5" y="-143.94" font-family="Times,serif" font-size="14.00">content/550:1</text>
</g>
<!-- q26:1 -->
<g id="node23" class="node">
<title>q26:1</title>
<ellipse fill="none" stroke="black" stroke-width="2" cx="1727.8" cy="-150" rx="39.63" ry="18"/>
<text text-anchor="middle" x="1727.8" y="-145.32" font-family="Times,serif" font-size="14.00">q26:1</text>
</g>
<!-- q21:1&#45;&gt;q26:1 -->
<g id="edge24" class="edge">
<title>q21:1&#45;&gt;q26:1</title>
<path fill="none" stroke="black" d="M1519.9,-150C1562.3,-150 1629.7,-150 1676,-150"/>
<polygon fill="black" stroke="black" points="1675.79,-153.5 1685.79,-150 1675.79,-146.5 1675.79,-153.5"/>
<text text-anchor="middle" x="1603.5" y="-153.94" font-family="Times,serif" font-size="14.00">RSET/250:1</text>
</g>
<!-- q24:23 -->
<g id="node25" class="node">
<title>q24:23</title>
<ellipse fill="none" stroke="black" stroke-width="2" cx="1955.7" cy="-204" rx="45.95" ry="18"/>
<text text-anchor="middle" x="1955.7" y="-199.32" font-family="Times,serif" font-size="14.00">q24:23</text>
</g>
<!-- q18:23&#45;&gt;q24:23 -->
<g id="edge25" class="edge">
<title>q18:23&#45;&gt;q24:23</title>
<path fill="none" stroke="black" d="M1774.5,-204C1810,-204 1859.5,-204 1897.6,-204"/>
<polygon fill="black" stroke="black" points="1897.59,-207.5 1907.59,-204 1897.59,-200.5 1897.59,-207.5"/>
<text text-anchor="middle" x="1844.9" y="-207.94" font-family="Times,serif" font-size="14.00">QUIT/221:23</text>
</g>
<!-- q23:42 -->
<g id="node27" class="node">
<title>q23:42</title>
<ellipse fill="none" stroke="black" stroke-width="2" cx="1955.7" cy="-258" rx="45.95" ry="18"/>
<text text-anchor="middle" x="1955.7" y="-253.32" font-family="Times,serif" font-size="14.00">q23:42</text>
</g>
<!-- q17:42&#45;&gt;q23:42 -->
<g id="edge29" class="edge">
<title>q17:42&#45;&gt;q23:42</title>
<path fill="none" stroke="black" d="M1774.5,-258C1810,-258 1859.5,-258 1897.6,-258"/>
<polygon fill="black" stroke="black" points="1897.59,-261.5 1907.59,-258 1897.59,-254.5 1897.59,-261.5"/>
<text text-anchor="middle" x="1844.9" y="-261.94" font-family="Times,serif" font-size="14.00">RSET/250:42</text>
</g>
</g>
</svg>
