<?xml version="1.0" encoding="UTF-8" standalone="no"?>
<!DOCTYPE svg PUBLIC "-//W3C//DTD SVG 1.1//EN"
 "http://www.w3.org/Graphics/SVG/1.1/DTD/svg11.dtd">
<!-- Generated by graphviz version 12.0.0 (20240803.0821)
 -->
<!-- Pages: 1 -->
<svg width="1986pt" height="272pt"
 viewBox="0.00 0.00 1985.85 272.00" xmlns="http://www.w3.org/2000/svg" xmlns:xlink="http://www.w3.org/1999/xlink">
<g id="graph0" class="graph" transform="scale(1 1) rotate(0) translate(4 268)">
<polygon fill="white" stroke="none" points="-4,4 -4,-268 1981.85,-268 1981.85,4 -4,4"/>
<!-- q0:244 -->
<g id="node1" class="node">
<title>q0:244</title>
<ellipse fill="none" stroke="black" stroke-width="2" cx="53.95" cy="-76" rx="49.95" ry="49.95"/>
<ellipse fill="none" stroke="black" stroke-width="2" cx="53.95" cy="-76" rx="53.95" ry="53.95"/>
<text text-anchor="middle" x="53.95" y="-71.33" font-family="Times,serif" font-size="14.00">q0:244</text>
</g>
<!-- q1:244 -->
<g id="node2" class="node">
<title>q1:244</title>
<ellipse fill="none" stroke="black" stroke-width="2" cx="257.84" cy="-76" rx="45.95" ry="18"/>
<text text-anchor="middle" x="257.84" y="-71.33" font-family="Times,serif" font-size="14.00">q1:244</text>
</g>
<!-- q0:244&#45;&gt;q1:244 -->
<g id="edge1" class="edge">
<title>q0:244&#45;&gt;q1:244</title>
<path fill="none" stroke="black" d="M104.85,-76C133.64,-76 169.94,-76 199.84,-76"/>
<polygon fill="black" stroke="black" points="199.45,-79.5 209.45,-76 199.45,-72.5 199.45,-79.5"/>
<text text-anchor="middle" x="157.89" y="-79.95" font-family="Times,serif" font-size="14.00">λ/220:244</text>
</g>
<!-- q2:242 -->
<g id="node3" class="node">
<title>q2:242</title>
<ellipse fill="none" stroke="black" stroke-width="2" cx="491.48" cy="-109" rx="45.95" ry="18"/>
<text text-anchor="middle" x="491.48" y="-104.33" font-family="Times,serif" font-size="14.00">q2:242</text>
</g>
<!-- q1:244&#45;&gt;q2:242 -->
<g id="edge2" class="edge">
<title>q1:244&#45;&gt;q2:242</title>
<path fill="none" stroke="black" d="M302.14,-82.17C340,-87.56 395.17,-95.42 436.02,-101.24"/>
<polygon fill="black" stroke="black" points="435.51,-104.7 445.9,-102.65 436.49,-97.77 435.51,-104.7"/>
<text text-anchor="middle" x="374.66" y="-102.95" font-family="Times,serif" font-size="14.00">EHLO/250:242</text>
</g>
<!-- q3:2 -->
<g id="node4" class="node">
<title>q3:2</title>
<ellipse fill="none" stroke="black" stroke-width="2" cx="491.48" cy="-49" rx="33.32" ry="18"/>
<text text-anchor="middle" x="491.48" y="-44.33" font-family="Times,serif" font-size="14.00">q3:2</text>
</g>
<!-- q1:244&#45;&gt;q3:2 -->
<g id="edge3" class="edge">
<title>q1:244&#45;&gt;q3:2</title>
<path fill="none" stroke="black" d="M296.21,-65.12C304.56,-63.03 313.43,-61.08 321.79,-59.75 363.53,-53.09 411.69,-50.52 445.85,-49.55"/>
<polygon fill="black" stroke="black" points="445.89,-53.05 455.8,-49.31 445.71,-46.05 445.89,-53.05"/>
<text text-anchor="middle" x="374.66" y="-62.95" font-family="Times,serif" font-size="14.00">EHLO/λ:2</text>
</g>
<!-- q5:10 -->
<g id="node5" class="node">
<title>q5:10</title>
<ellipse fill="none" stroke="black" stroke-width="2" cx="725.13" cy="-166" rx="39.63" ry="18"/>
<text text-anchor="middle" x="725.13" y="-161.32" font-family="Times,serif" font-size="14.00">q5:10</text>
</g>
<!-- q2:242&#45;&gt;q5:10 -->
<g id="edge4" class="edge">
<title>q2:242&#45;&gt;q5:10</title>
<path fill="none" stroke="black" d="M525.17,-122.01C534.82,-125.56 545.46,-129.19 555.43,-132 595.35,-143.25 641.58,-152.29 675.53,-158.22"/>
<polygon fill="black" stroke="black" points="674.61,-161.61 685.06,-159.85 675.79,-154.71 674.61,-161.61"/>
<text text-anchor="middle" x="608.31" y="-158.94" font-family="Times,serif" font-size="14.00">AUTH/535:10</text>
</g>
<!-- q6:233 -->
<g id="node6" class="node">
<title>q6:233</title>
<ellipse fill="none" stroke="black" stroke-width="2" cx="725.13" cy="-42" rx="45.95" ry="18"/>
<text text-anchor="middle" x="725.13" y="-37.33" font-family="Times,serif" font-size="14.00">q6:233</text>
</g>
<!-- q2:242&#45;&gt;q6:233 -->
<g id="edge5" class="edge">
<title>q2:242&#45;&gt;q6:233</title>
<path fill="none" stroke="black" d="M527.32,-96.82C536.44,-93.75 546.27,-90.53 555.43,-87.75 595.08,-75.69 640.43,-63.48 674.12,-54.71"/>
<polygon fill="black" stroke="black" points="674.8,-58.15 683.6,-52.25 673.05,-51.37 674.8,-58.15"/>
<text text-anchor="middle" x="608.31" y="-90.95" font-family="Times,serif" font-size="14.00">AUTH/235:231</text>
</g>
<!-- q4:1 -->
<g id="node7" class="node">
<title>q4:1</title>
<ellipse fill="none" stroke="black" stroke-width="2" cx="725.13" cy="-112" rx="33.32" ry="18"/>
<text text-anchor="middle" x="725.13" y="-107.33" font-family="Times,serif" font-size="14.00">q4:1</text>
</g>
<!-- q2:242&#45;&gt;q4:1 -->
<g id="edge6" class="edge">
<title>q2:242&#45;&gt;q4:1</title>
<path fill="none" stroke="black" d="M538.25,-109.59C579.17,-110.12 638.78,-110.89 679.39,-111.42"/>
<polygon fill="black" stroke="black" points="679.26,-114.92 689.31,-111.55 679.35,-107.92 679.26,-114.92"/>
<text text-anchor="middle" x="608.31" y="-114.95" font-family="Times,serif" font-size="14.00">AUTH/λ:1</text>
</g>
<!-- q3:2&#45;&gt;q6:233 -->
<g id="edge7" class="edge">
<title>q3:2&#45;&gt;q6:233</title>
<path fill="none" stroke="black" d="M523.05,-41.83C533.28,-39.76 544.79,-37.78 555.43,-36.75 593,-33.13 635.47,-34.48 668.4,-36.72"/>
<polygon fill="black" stroke="black" points="667.89,-40.19 678.12,-37.43 668.4,-33.21 667.89,-40.19"/>
<text text-anchor="middle" x="608.31" y="-40.95" font-family="Times,serif" font-size="14.00">AUTH/235:2</text>
</g>
<!-- q8:10 -->
<g id="node8" class="node">
<title>q8:10</title>
<ellipse fill="none" stroke="black" stroke-width="2" cx="954.27" cy="-171" rx="39.63" ry="18"/>
<text text-anchor="middle" x="954.27" y="-166.32" font-family="Times,serif" font-size="14.00">q8:10</text>
</g>
<!-- q5:10&#45;&gt;q8:10 -->
<g id="edge8" class="edge">
<title>q5:10&#45;&gt;q8:10</title>
<path fill="none" stroke="black" d="M765.69,-166.87C803.6,-167.71 861,-168.97 902.32,-169.88"/>
<polygon fill="black" stroke="black" points="902.19,-173.38 912.27,-170.1 902.34,-166.38 902.19,-173.38"/>
<text text-anchor="middle" x="839.7" y="-172.94" font-family="Times,serif" font-size="14.00">AUTH/334:10</text>
</g>
<!-- q7:611 -->
<g id="node9" class="node">
<title>q7:611</title>
<ellipse fill="none" stroke="black" stroke-width="2" cx="954.27" cy="-80" rx="45.95" ry="18"/>
<text text-anchor="middle" x="954.27" y="-75.33" font-family="Times,serif" font-size="14.00">q7:611</text>
</g>
<!-- q6:233&#45;&gt;q7:611 -->
<g id="edge9" class="edge">
<title>q6:233&#45;&gt;q7:611</title>
<path fill="none" stroke="black" d="M769.07,-48.29C802.24,-53.26 849.26,-60.54 890.33,-67.75 893.72,-68.35 897.22,-68.98 900.75,-69.63"/>
<polygon fill="black" stroke="black" points="900.04,-73.06 910.51,-71.46 901.33,-66.18 900.04,-73.06"/>
<text text-anchor="middle" x="839.7" y="-70.95" font-family="Times,serif" font-size="14.00">MAIL/250:230</text>
</g>
<!-- q9:3 -->
<g id="node10" class="node">
<title>q9:3</title>
<ellipse fill="none" stroke="black" stroke-width="2" cx="954.27" cy="-25" rx="33.32" ry="18"/>
<text text-anchor="middle" x="954.27" y="-20.32" font-family="Times,serif" font-size="14.00">q9:3</text>
</g>
<!-- q6:233&#45;&gt;q9:3 -->
<g id="edge10" class="edge">
<title>q6:233&#45;&gt;q9:3</title>
<path fill="none" stroke="black" d="M767.32,-33.77C774.54,-32.58 782.01,-31.5 789.08,-30.75 829.54,-26.45 875.91,-25.15 909.02,-24.85"/>
<polygon fill="black" stroke="black" points="908.66,-28.36 918.64,-24.79 908.61,-21.36 908.66,-28.36"/>
<text text-anchor="middle" x="839.7" y="-34.95" font-family="Times,serif" font-size="14.00">MAIL/553:3</text>
</g>
<!-- q4:1&#45;&gt;q7:611 -->
<g id="edge11" class="edge">
<title>q4:1&#45;&gt;q7:611</title>
<path fill="none" stroke="black" d="M758.22,-107.53C791.33,-102.92 844.44,-95.49 890.33,-89 893.1,-88.61 895.94,-88.2 898.81,-87.8"/>
<polygon fill="black" stroke="black" points="899.02,-91.3 908.43,-86.43 898.04,-84.37 899.02,-91.3"/>
<text text-anchor="middle" x="839.7" y="-105.95" font-family="Times,serif" font-size="14.00">MAIL/250:1</text>
</g>
<!-- q12:10 -->
<g id="node23" class="node">
<title>q12:10</title>
<ellipse fill="none" stroke="black" stroke-width="2" cx="1202.8" cy="-206" rx="45.95" ry="18"/>
<text text-anchor="middle" x="1202.8" y="-201.32" font-family="Times,serif" font-size="14.00">q12:10</text>
</g>
<!-- q8:10&#45;&gt;q12:10 -->
<g id="edge28" class="edge">
<title>q8:10&#45;&gt;q12:10</title>
<path fill="none" stroke="black" d="M992.98,-176.35C1034.2,-182.21 1100.7,-191.65 1147.5,-198.3"/>
<polygon fill="black" stroke="black" points="1146.81,-201.74 1157.2,-199.67 1147.79,-194.81 1146.81,-201.74"/>
<text text-anchor="middle" x="1072.2" y="-197.94" font-family="Times,serif" font-size="14.00">content/535:10</text>
</g>
<!-- q7:611&#45;&gt;q7:611 -->
<g id="edge26" class="edge">
<title>q7:611&#45;&gt;q7:611</title>
<path fill="none" stroke="black" d="M933.97,-97.04C929.83,-106.86 936.59,-116 954.27,-116 964.49,-116 971.07,-112.94 973.99,-108.47"/>
<polygon fill="black" stroke="black" points="977.48,-108.71 974.49,-98.55 970.49,-108.36 977.48,-108.71"/>
<text text-anchor="middle" x="954.27" y="-119.95" font-family="Times,serif" font-size="14.00">RCPT/250:380</text>
</g>
<!-- q10:1419 -->
<g id="node13" class="node">
<title>q10:1419</title>
<ellipse fill="none" stroke="black" stroke-width="2" cx="1202.8" cy="-132" rx="58.57" ry="18"/>
<text text-anchor="middle" x="1202.8" y="-127.33" font-family="Times,serif" font-size="14.00">q10:1419</text>
</g>
<!-- q7:611&#45;&gt;q10:1419 -->
<g id="edge25" class="edge">
<title>q7:611&#45;&gt;q10:1419</title>
<path fill="none" stroke="black" d="M990.32,-92.06C999.35,-94.91 1009.1,-97.76 1018.2,-100 1057.2,-109.55 1101.5,-117.35 1136.8,-122.87"/>
<polygon fill="black" stroke="black" points="1136.09,-126.3 1146.5,-124.35 1137.15,-119.38 1136.09,-126.3"/>
<text text-anchor="middle" x="1072.2" y="-123.95" font-family="Times,serif" font-size="14.00">DATA/354:188</text>
</g>
<!-- q11:43 -->
<g id="node25" class="node">
<title>q11:43</title>
<ellipse fill="none" stroke="black" stroke-width="2" cx="1202.8" cy="-78" rx="45.95" ry="18"/>
<text text-anchor="middle" x="1202.8" y="-73.33" font-family="Times,serif" font-size="14.00">q11:43</text>
</g>
<!-- q7:611&#45;&gt;q11:43 -->
<g id="edge27" class="edge">
<title>q7:611&#45;&gt;q11:43</title>
<path fill="none" stroke="black" d="M1001.06,-79.63C1041.7,-79.3 1101.3,-78.82 1144.9,-78.46"/>
<polygon fill="black" stroke="black" points="1144.71,-81.96 1154.69,-78.38 1144.66,-74.96 1144.71,-81.96"/>
<text text-anchor="middle" x="1072.2" y="-82.95" font-family="Times,serif" font-size="14.00">DATA/550:43</text>
</g>
<!-- q13:3 -->
<g id="node26" class="node">
<title>q13:3</title>
<ellipse fill="none" stroke="black" stroke-width="2" cx="1202.8" cy="-24" rx="39.63" ry="18"/>
<text text-anchor="middle" x="1202.8" y="-19.32" font-family="Times,serif" font-size="14.00">q13:3</text>
</g>
<!-- q9:3&#45;&gt;q13:3 -->
<g id="edge29" class="edge">
<title>q9:3&#45;&gt;q13:3</title>
<path fill="none" stroke="black" d="M988.52,-24.86C1030.4,-24.7 1102.7,-24.4 1151.4,-24.2"/>
<polygon fill="black" stroke="black" points="1151.1,-27.71 1161.09,-24.17 1151.07,-20.71 1151.1,-27.71"/>
<text text-anchor="middle" x="1072.2" y="-28.95" font-family="Times,serif" font-size="14.00">RSET/250:3</text>
</g>
<!-- q17:1264 -->
<g id="node11" class="node">
<title>q17:1264</title>
<ellipse fill="none" stroke="black" stroke-width="2" cx="1463.9" cy="-135" rx="58.57" ry="18"/>
<text text-anchor="middle" x="1463.9" y="-130.32" font-family="Times,serif" font-size="14.00">q17:1264</text>
</g>
<!-- q22:32 -->
<g id="node12" class="node">
<title>q22:32</title>
<ellipse fill="none" stroke="black" stroke-width="2" cx="1712.5" cy="-180" rx="45.95" ry="18"/>
<text text-anchor="middle" x="1712.5" y="-175.32" font-family="Times,serif" font-size="14.00">q22:32</text>
</g>
<!-- q17:1264&#45;&gt;q22:32 -->
<g id="edge12" class="edge">
<title>q17:1264&#45;&gt;q22:32</title>
<path fill="none" stroke="black" d="M1515.7,-144.27C1557.4,-151.88 1616.3,-162.63 1658.6,-170.34"/>
<polygon fill="black" stroke="black" points="1657.74,-173.74 1668.21,-172.12 1659.01,-166.86 1657.74,-173.74"/>
<text text-anchor="middle" x="1594.5" y="-170.94" font-family="Times,serif" font-size="14.00">content/250:32</text>
</g>
<!-- q17:1264&#45;&gt;q10:1419 -->
<g id="edge13" class="edge">
<title>q17:1264&#45;&gt;q10:1419</title>
<path fill="none" stroke="black" d="M1423.8,-121.17C1412.2,-117.71 1399.4,-114.49 1387.4,-112.75 1339.9,-105.9 1327,-106.78 1279.4,-112.75 1272.3,-113.63 1265,-114.97 1257.8,-116.52"/>
<polygon fill="black" stroke="black" points="1257.02,-113.11 1248.07,-118.79 1258.61,-119.93 1257.02,-113.11"/>
<text text-anchor="middle" x="1333.4" y="-115.95" font-family="Times,serif" font-size="14.00">content/λ:1231</text>
</g>
<!-- q23:1 -->
<g id="node14" class="node">
<title>q23:1</title>
<ellipse fill="none" stroke="black" stroke-width="2" cx="1712.5" cy="-126" rx="39.63" ry="18"/>
<text text-anchor="middle" x="1712.5" y="-121.33" font-family="Times,serif" font-size="14.00">q23:1</text>
</g>
<!-- q17:1264&#45;&gt;q23:1 -->
<g id="edge14" class="edge">
<title>q17:1264&#45;&gt;q23:1</title>
<path fill="none" stroke="black" d="M1522.3,-131.6C1528.4,-131.29 1534.6,-131 1540.5,-130.75 1580.8,-129.06 1626.6,-127.82 1660.6,-127.04"/>
<polygon fill="black" stroke="black" points="1660.67,-130.54 1670.59,-126.81 1660.51,-123.54 1660.67,-130.54"/>
<text text-anchor="middle" x="1594.5" y="-133.94" font-family="Times,serif" font-size="14.00">content/554:1</text>
</g>
<!-- q24:32 -->
<g id="node15" class="node">
<title>q24:32</title>
<ellipse fill="none" stroke="black" stroke-width="2" cx="1931.9" cy="-180" rx="45.95" ry="18"/>
<text text-anchor="middle" x="1931.9" y="-175.32" font-family="Times,serif" font-size="14.00">q24:32</text>
</g>
<!-- q22:32&#45;&gt;q24:32 -->
<g id="edge15" class="edge">
<title>q22:32&#45;&gt;q24:32</title>
<path fill="none" stroke="black" d="M1759.3,-180C1792.7,-180 1838.1,-180 1873.8,-180"/>
<polygon fill="black" stroke="black" points="1873.59,-183.5 1883.59,-180 1873.59,-176.5 1873.59,-183.5"/>
<text text-anchor="middle" x="1822.2" y="-183.94" font-family="Times,serif" font-size="14.00">QUIT/221:32</text>
</g>
<!-- q10:1419&#45;&gt;q17:1264 -->
<g id="edge16" class="edge">
<title>q10:1419&#45;&gt;q17:1264</title>
<path fill="none" stroke="black" d="M1262.3,-132.68C1301.2,-133.13 1352.4,-133.72 1393.4,-134.2"/>
<polygon fill="black" stroke="black" points="1393.15,-137.7 1403.19,-134.31 1393.23,-130.7 1393.15,-137.7"/>
<text text-anchor="middle" x="1333.4" y="-137.94" font-family="Times,serif" font-size="14.00">content/λ:1264</text>
</g>
<!-- q14:1 -->
<g id="node16" class="node">
<title>q14:1</title>
<ellipse fill="none" stroke="black" stroke-width="2" cx="1463.9" cy="-72" rx="39.63" ry="18"/>
<text text-anchor="middle" x="1463.9" y="-67.33" font-family="Times,serif" font-size="14.00">q14:1</text>
</g>
<!-- q10:1419&#45;&gt;q14:1 -->
<g id="edge17" class="edge">
<title>q10:1419&#45;&gt;q14:1</title>
<path fill="none" stroke="black" d="M1240.3,-117.45C1247.6,-113.86 1254.9,-109.67 1261.4,-105 1270.8,-98.11 1268.8,-90.81 1279.4,-85.75 1321.4,-65.6 1375.2,-63.95 1413.6,-66.26"/>
<polygon fill="black" stroke="black" points="1413.26,-69.75 1423.49,-66.98 1413.77,-62.76 1413.26,-69.75"/>
<text text-anchor="middle" x="1333.4" y="-88.95" font-family="Times,serif" font-size="14.00">content/550:1</text>
</g>
<!-- q16:81 -->
<g id="node17" class="node">
<title>q16:81</title>
<ellipse fill="none" stroke="black" stroke-width="2" cx="1463.9" cy="-18" rx="45.95" ry="18"/>
<text text-anchor="middle" x="1463.9" y="-13.32" font-family="Times,serif" font-size="14.00">q16:81</text>
</g>
<!-- q10:1419&#45;&gt;q16:81 -->
<g id="edge18" class="edge">
<title>q10:1419&#45;&gt;q16:81</title>
<path fill="none" stroke="black" d="M1244.3,-118.43C1250.7,-114.87 1256.7,-110.45 1261.4,-105 1279.8,-83.47 1257.9,-62.29 1279.4,-43.75 1314.5,-13.44 1368.2,-9.1 1408.5,-11.09"/>
<polygon fill="black" stroke="black" points="1408.08,-14.57 1418.29,-11.72 1408.54,-7.58 1408.08,-14.57"/>
<text text-anchor="middle" x="1333.4" y="-47.95" font-family="Times,serif" font-size="14.00">content/250:81</text>
</g>
<!-- q15:73 -->
<g id="node18" class="node">
<title>q15:73</title>
<ellipse fill="none" stroke="black" stroke-width="2" cx="1463.9" cy="-192" rx="45.95" ry="18"/>
<text text-anchor="middle" x="1463.9" y="-187.32" font-family="Times,serif" font-size="14.00">q15:73</text>
</g>
<!-- q10:1419&#45;&gt;q15:73 -->
<g id="edge19" class="edge">
<title>q10:1419&#45;&gt;q15:73</title>
<path fill="none" stroke="black" d="M1244.8,-145.26C1255.9,-148.65 1268.1,-152.15 1279.4,-155 1322.9,-165.99 1373,-175.9 1409.8,-182.69"/>
<polygon fill="black" stroke="black" points="1408.85,-186.07 1419.31,-184.42 1410.1,-179.19 1408.85,-186.07"/>
<text text-anchor="middle" x="1333.4" y="-180.94" font-family="Times,serif" font-size="14.00">content/554:73</text>
</g>
<!-- q25:1 -->
<g id="node19" class="node">
<title>q25:1</title>
<ellipse fill="none" stroke="black" stroke-width="2" cx="1931.9" cy="-126" rx="39.63" ry="18"/>
<text text-anchor="middle" x="1931.9" y="-121.33" font-family="Times,serif" font-size="14.00">q25:1</text>
</g>
<!-- q23:1&#45;&gt;q25:1 -->
<g id="edge20" class="edge">
<title>q23:1&#45;&gt;q25:1</title>
<path fill="none" stroke="black" d="M1753.1,-126C1788.9,-126 1841.7,-126 1880.5,-126"/>
<polygon fill="black" stroke="black" points="1879.99,-129.5 1889.99,-126 1879.99,-122.5 1879.99,-129.5"/>
<text text-anchor="middle" x="1822.2" y="-129.94" font-family="Times,serif" font-size="14.00">RSET/250:1</text>
</g>
<!-- q19:1 -->
<g id="node20" class="node">
<title>q19:1</title>
<ellipse fill="none" stroke="black" stroke-width="2" cx="1712.5" cy="-72" rx="39.63" ry="18"/>
<text text-anchor="middle" x="1712.5" y="-67.33" font-family="Times,serif" font-size="14.00">q19:1</text>
</g>
<!-- q14:1&#45;&gt;q19:1 -->
<g id="edge21" class="edge">
<title>q14:1&#45;&gt;q19:1</title>
<path fill="none" stroke="black" d="M1504.5,-72C1547,-72 1614.4,-72 1660.7,-72"/>
<polygon fill="black" stroke="black" points="1660.49,-75.5 1670.49,-72 1660.49,-68.5 1660.49,-75.5"/>
<text text-anchor="middle" x="1594.5" y="-75.95" font-family="Times,serif" font-size="14.00">RSET/250:1</text>
</g>
<!-- q21:81 -->
<g id="node21" class="node">
<title>q21:81</title>
<ellipse fill="none" stroke="black" stroke-width="2" cx="1712.5" cy="-18" rx="45.95" ry="18"/>
<text text-anchor="middle" x="1712.5" y="-13.32" font-family="Times,serif" font-size="14.00">q21:81</text>
</g>
<!-- q16:81&#45;&gt;q21:81 -->
<g id="edge22" class="edge">
<title>q16:81&#45;&gt;q21:81</title>
<path fill="none" stroke="black" d="M1510.7,-18C1551.4,-18 1610.9,-18 1654.6,-18"/>
<polygon fill="black" stroke="black" points="1654.39,-21.5 1664.39,-18 1654.39,-14.5 1654.39,-21.5"/>
<text text-anchor="middle" x="1594.5" y="-21.95" font-family="Times,serif" font-size="14.00">QUIT/221:81</text>
</g>
<!-- q20:73 -->
<g id="node22" class="node">
<title>q20:73</title>
<ellipse fill="none" stroke="black" stroke-width="2" cx="1712.5" cy="-234" rx="45.95" ry="18"/>
<text text-anchor="middle" x="1712.5" y="-229.32" font-family="Times,serif" font-size="14.00">q20:73</text>
</g>
<!-- q15:73&#45;&gt;q20:73 -->
<g id="edge23" class="edge">
<title>q15:73&#45;&gt;q20:73</title>
<path fill="none" stroke="black" d="M1507.3,-199.22C1549,-206.32 1612.7,-217.18 1657.9,-224.87"/>
<polygon fill="black" stroke="black" points="1657.26,-228.31 1667.71,-226.55 1658.44,-221.41 1657.26,-228.31"/>
<text text-anchor="middle" x="1594.5" y="-225.94" font-family="Times,serif" font-size="14.00">RSET/250:73</text>
</g>
<!-- q18:2 -->
<g id="node24" class="node">
<title>q18:2</title>
<ellipse fill="none" stroke="black" stroke-width="2" cx="1463.9" cy="-246" rx="39.63" ry="18"/>
<text text-anchor="middle" x="1463.9" y="-241.32" font-family="Times,serif" font-size="14.00">q18:2</text>
</g>
<!-- q12:10&#45;&gt;q18:2 -->
<g id="edge24" class="edge">
<title>q12:10&#45;&gt;q18:2</title>
<path fill="none" stroke="black" d="M1246.6,-212.61C1292.8,-219.73 1366.2,-231.06 1414.5,-238.52"/>
<polygon fill="black" stroke="black" points="1413.69,-241.94 1424.1,-240 1414.75,-235.02 1413.69,-241.94"/>
<text text-anchor="middle" x="1333.4" y="-237.94" font-family="Times,serif" font-size="14.00">λ/451:2</text>
</g>
</g>
</svg>
