<?xml version="1.0" encoding="UTF-8" standalone="no"?>
<!DOCTYPE svg PUBLIC "-//W3C//DTD SVG 1.1//EN"
 "http://www.w3.org/Graphics/SVG/1.1/DTD/svg11.dtd">
<!-- Generated by graphviz version 12.0.0 (20240803.0821)
 -->
<!-- Pages: 1 -->
<svg width="2260pt" height="260pt"
 viewBox="0.00 0.00 2259.66 260.00" xmlns="http://www.w3.org/2000/svg" xmlns:xlink="http://www.w3.org/1999/xlink">
<g id="graph0" class="graph" transform="scale(1 1) rotate(0) translate(4 256)">
<polygon fill="white" stroke="none" points="-4,4 -4,-256 2255.66,-256 2255.66,4 -4,4"/>
<!-- q4:231 -->
<g id="node1" class="node">
<title>q4:231</title>
<ellipse fill="none" stroke="black" stroke-width="2" cx="725.13" cy="-52" rx="45.95" ry="18"/>
<text text-anchor="middle" x="725.13" y="-47.33" font-family="Times,serif" font-size="14.00">q4:231</text>
</g>
<!-- q7:3 -->
<g id="node2" class="node">
<title>q7:3</title>
<ellipse fill="none" stroke="black" stroke-width="2" cx="954.27" cy="-40" rx="33.32" ry="18"/>
<text text-anchor="middle" x="954.27" y="-35.33" font-family="Times,serif" font-size="14.00">q7:3</text>
</g>
<!-- q4:231&#45;&gt;q7:3 -->
<g id="edge1" class="edge">
<title>q4:231&#45;&gt;q7:3</title>
<path fill="none" stroke="black" d="M768,-44.28C775.02,-43.24 782.24,-42.34 789.08,-41.75 829.6,-38.26 875.96,-38.11 909.06,-38.67"/>
<polygon fill="black" stroke="black" points="908.6,-42.16 918.67,-38.86 908.74,-35.16 908.6,-42.16"/>
<text text-anchor="middle" x="839.7" y="-45.95" font-family="Times,serif" font-size="14.00">MAIL/553:3</text>
</g>
<!-- q8:232 -->
<g id="node3" class="node">
<title>q8:232</title>
<ellipse fill="none" stroke="black" stroke-width="2" cx="954.27" cy="-109" rx="45.95" ry="18"/>
<text text-anchor="middle" x="954.27" y="-104.33" font-family="Times,serif" font-size="14.00">q8:232</text>
</g>
<!-- q4:231&#45;&gt;q8:232 -->
<g id="edge2" class="edge">
<title>q4:231&#45;&gt;q8:232</title>
<path fill="none" stroke="black" d="M766.03,-61.31C799.33,-69.16 848.01,-80.83 890.33,-91.75 894.89,-92.93 899.64,-94.18 904.38,-95.45"/>
<polygon fill="black" stroke="black" points="903.34,-98.79 913.91,-98.02 905.17,-92.04 903.34,-98.79"/>
<text text-anchor="middle" x="839.7" y="-95.95" font-family="Times,serif" font-size="14.00">MAIL/250:228</text>
</g>
<!-- q10:3 -->
<g id="node4" class="node">
<title>q10:3</title>
<ellipse fill="none" stroke="black" stroke-width="2" cx="1196.5" cy="-37" rx="39.63" ry="18"/>
<text text-anchor="middle" x="1196.5" y="-32.33" font-family="Times,serif" font-size="14.00">q10:3</text>
</g>
<!-- q7:3&#45;&gt;q10:3 -->
<g id="edge3" class="edge">
<title>q7:3&#45;&gt;q10:3</title>
<path fill="none" stroke="black" d="M988.42,-39.59C1028.8,-39.08 1097.3,-38.23 1144.4,-37.64"/>
<polygon fill="black" stroke="black" points="1144.43,-41.14 1154.39,-37.51 1144.34,-34.14 1144.43,-41.14"/>
<text text-anchor="middle" x="1072.2" y="-43.95" font-family="Times,serif" font-size="14.00">RSET/250:3</text>
</g>
<!-- q11:232 -->
<g id="node5" class="node">
<title>q11:232</title>
<ellipse fill="none" stroke="black" stroke-width="2" cx="1196.5" cy="-144" rx="52.26" ry="18"/>
<text text-anchor="middle" x="1196.5" y="-139.32" font-family="Times,serif" font-size="14.00">q11:232</text>
</g>
<!-- q8:232&#45;&gt;q11:232 -->
<g id="edge4" class="edge">
<title>q8:232&#45;&gt;q11:232</title>
<path fill="none" stroke="black" d="M998.49,-115.3C1036.8,-120.89 1093.3,-129.1 1135.9,-135.32"/>
<polygon fill="black" stroke="black" points="1135.3,-138.77 1145.7,-136.75 1136.31,-131.84 1135.3,-138.77"/>
<text text-anchor="middle" x="1072.2" y="-136.94" font-family="Times,serif" font-size="14.00">RCPT/250:232</text>
</g>
<!-- q14:162 -->
<g id="node6" class="node">
<title>q14:162</title>
<ellipse fill="none" stroke="black" stroke-width="2" cx="1439.8" cy="-91" rx="52.26" ry="18"/>
<text text-anchor="middle" x="1439.8" y="-86.33" font-family="Times,serif" font-size="14.00">q14:162</text>
</g>
<!-- q11:232&#45;&gt;q14:162 -->
<g id="edge5" class="edge">
<title>q11:232&#45;&gt;q14:162</title>
<path fill="none" stroke="black" d="M1241,-133.64C1249.6,-131.65 1258.4,-129.61 1266.7,-127.75 1305.4,-119.08 1349.1,-109.75 1382.8,-102.66"/>
<polygon fill="black" stroke="black" points="1383.25,-106.14 1392.32,-100.66 1381.81,-99.29 1383.25,-106.14"/>
<text text-anchor="middle" x="1318.1" y="-130.94" font-family="Times,serif" font-size="14.00">RCPT/250:162</text>
</g>
<!-- q13:70 -->
<g id="node7" class="node">
<title>q13:70</title>
<ellipse fill="none" stroke="black" stroke-width="2" cx="1439.8" cy="-164" rx="45.95" ry="18"/>
<text text-anchor="middle" x="1439.8" y="-159.32" font-family="Times,serif" font-size="14.00">q13:70</text>
</g>
<!-- q11:232&#45;&gt;q13:70 -->
<g id="edge6" class="edge">
<title>q11:232&#45;&gt;q13:70</title>
<path fill="none" stroke="black" d="M1248.4,-148.22C1287.7,-151.48 1342.1,-155.99 1382.7,-159.35"/>
<polygon fill="black" stroke="black" points="1382.24,-162.82 1392.49,-160.16 1382.82,-155.85 1382.24,-162.82"/>
<text text-anchor="middle" x="1318.1" y="-161.94" font-family="Times,serif" font-size="14.00">DATA/354:70</text>
</g>
<!-- q14:162&#45;&gt;q8:232 -->
<g id="edge13" class="edge">
<title>q14:162&#45;&gt;q8:232</title>
<path fill="none" stroke="black" d="M1386.9,-92.24C1328,-93.72 1229.2,-96.41 1144.2,-99.75 1099.8,-101.5 1049.4,-103.99 1011.9,-105.94"/>
<polygon fill="black" stroke="black" points="1012,-102.43 1002.2,-106.45 1012.37,-109.42 1012,-102.43"/>
<text text-anchor="middle" x="1196.5" y="-103.95" font-family="Times,serif" font-size="14.00">RCPT/250:3</text>
</g>
<!-- q19:38 -->
<g id="node13" class="node">
<title>q19:38</title>
<ellipse fill="none" stroke="black" stroke-width="2" cx="1694.6" cy="-37" rx="45.95" ry="18"/>
<text text-anchor="middle" x="1694.6" y="-32.33" font-family="Times,serif" font-size="14.00">q19:38</text>
</g>
<!-- q14:162&#45;&gt;q19:38 -->
<g id="edge14" class="edge">
<title>q14:162&#45;&gt;q19:38</title>
<path fill="none" stroke="black" d="M1479,-78.36C1489,-75.3 1499.9,-72.2 1510,-69.75 1553.1,-59.34 1602.6,-50.7 1639.3,-44.92"/>
<polygon fill="black" stroke="black" points="1639.46,-48.43 1648.8,-43.45 1638.39,-41.52 1639.46,-48.43"/>
<text text-anchor="middle" x="1564" y="-73.95" font-family="Times,serif" font-size="14.00">DATA/550:38</text>
</g>
<!-- q16:3264 -->
<g id="node14" class="node">
<title>q16:3264</title>
<ellipse fill="none" stroke="black" stroke-width="2" cx="1694.6" cy="-91" rx="58.57" ry="18"/>
<text text-anchor="middle" x="1694.6" y="-86.33" font-family="Times,serif" font-size="14.00">q16:3264</text>
</g>
<!-- q14:162&#45;&gt;q16:3264 -->
<g id="edge15" class="edge">
<title>q14:162&#45;&gt;q16:3264</title>
<path fill="none" stroke="black" d="M1492.8,-91C1530.8,-91 1582.5,-91 1624,-91"/>
<polygon fill="black" stroke="black" points="1623.89,-94.5 1633.89,-91 1623.89,-87.5 1623.89,-94.5"/>
<text text-anchor="middle" x="1564" y="-94.95" font-family="Times,serif" font-size="14.00">DATA/354:121</text>
</g>
<!-- q13:70&#45;&gt;q16:3264 -->
<g id="edge16" class="edge">
<title>q13:70&#45;&gt;q16:3264</title>
<path fill="none" stroke="black" d="M1478.1,-153.23C1520.6,-140.94 1590.6,-120.73 1639.2,-106.69"/>
<polygon fill="black" stroke="black" points="1640.1,-110.07 1648.74,-103.95 1638.17,-103.35 1640.1,-110.07"/>
<text text-anchor="middle" x="1564" y="-145.94" font-family="Times,serif" font-size="14.00">content/λ:3</text>
</g>
<!-- q18:58 -->
<g id="node15" class="node">
<title>q18:58</title>
<ellipse fill="none" stroke="black" stroke-width="2" cx="1694.6" cy="-234" rx="45.95" ry="18"/>
<text text-anchor="middle" x="1694.6" y="-229.32" font-family="Times,serif" font-size="14.00">q18:58</text>
</g>
<!-- q13:70&#45;&gt;q18:58 -->
<g id="edge17" class="edge">
<title>q13:70&#45;&gt;q18:58</title>
<path fill="none" stroke="black" d="M1469.5,-178.52C1481.8,-184.27 1496.4,-190.55 1510,-195 1552.7,-208.91 1602.6,-219.14 1639.6,-225.63"/>
<polygon fill="black" stroke="black" points="1638.66,-229.02 1649.11,-227.26 1639.84,-222.12 1638.66,-229.02"/>
<text text-anchor="middle" x="1564" y="-223.94" font-family="Times,serif" font-size="14.00">content/554:58</text>
</g>
<!-- q17:9 -->
<g id="node16" class="node">
<title>q17:9</title>
<ellipse fill="none" stroke="black" stroke-width="2" cx="1694.6" cy="-180" rx="39.63" ry="18"/>
<text text-anchor="middle" x="1694.6" y="-175.32" font-family="Times,serif" font-size="14.00">q17:9</text>
</g>
<!-- q13:70&#45;&gt;q17:9 -->
<g id="edge18" class="edge">
<title>q13:70&#45;&gt;q17:9</title>
<path fill="none" stroke="black" d="M1486,-166.86C1530.1,-169.66 1597.2,-173.9 1643.1,-176.81"/>
<polygon fill="black" stroke="black" points="1642.89,-180.3 1653.09,-177.44 1643.33,-173.32 1642.89,-180.3"/>
<text text-anchor="middle" x="1564" y="-177.94" font-family="Times,serif" font-size="14.00">content/250:9</text>
</g>
<!-- q2:242 -->
<g id="node8" class="node">
<title>q2:242</title>
<ellipse fill="none" stroke="black" stroke-width="2" cx="491.48" cy="-119" rx="45.95" ry="18"/>
<text text-anchor="middle" x="491.48" y="-114.33" font-family="Times,serif" font-size="14.00">q2:242</text>
</g>
<!-- q2:242&#45;&gt;q4:231 -->
<g id="edge7" class="edge">
<title>q2:242&#45;&gt;q4:231</title>
<path fill="none" stroke="black" d="M528.03,-107.29C536.95,-104.42 546.52,-101.42 555.43,-98.75 595.45,-86.77 641.14,-74.18 674.86,-65.08"/>
<polygon fill="black" stroke="black" points="675.6,-68.51 684.35,-62.53 673.78,-61.75 675.6,-68.51"/>
<text text-anchor="middle" x="608.31" y="-102.95" font-family="Times,serif" font-size="14.00">AUTH/235:229</text>
</g>
<!-- q5:1 -->
<g id="node9" class="node">
<title>q5:1</title>
<ellipse fill="none" stroke="black" stroke-width="2" cx="725.13" cy="-122" rx="33.32" ry="18"/>
<text text-anchor="middle" x="725.13" y="-117.33" font-family="Times,serif" font-size="14.00">q5:1</text>
</g>
<!-- q2:242&#45;&gt;q5:1 -->
<g id="edge8" class="edge">
<title>q2:242&#45;&gt;q5:1</title>
<path fill="none" stroke="black" d="M538.25,-119.59C579.17,-120.12 638.78,-120.89 679.39,-121.42"/>
<polygon fill="black" stroke="black" points="679.26,-124.92 689.31,-121.55 679.35,-117.92 679.26,-124.92"/>
<text text-anchor="middle" x="608.31" y="-124.95" font-family="Times,serif" font-size="14.00">AUTH/λ:1</text>
</g>
<!-- q6:12 -->
<g id="node10" class="node">
<title>q6:12</title>
<ellipse fill="none" stroke="black" stroke-width="2" cx="725.13" cy="-176" rx="39.63" ry="18"/>
<text text-anchor="middle" x="725.13" y="-171.32" font-family="Times,serif" font-size="14.00">q6:12</text>
</g>
<!-- q2:242&#45;&gt;q6:12 -->
<g id="edge9" class="edge">
<title>q2:242&#45;&gt;q6:12</title>
<path fill="none" stroke="black" d="M525.17,-132.01C534.82,-135.56 545.46,-139.19 555.43,-142 595.35,-153.25 641.58,-162.29 675.53,-168.22"/>
<polygon fill="black" stroke="black" points="674.61,-171.61 685.06,-169.85 675.79,-164.71 674.61,-171.61"/>
<text text-anchor="middle" x="608.31" y="-168.94" font-family="Times,serif" font-size="14.00">AUTH/535:12</text>
</g>
<!-- q5:1&#45;&gt;q8:232 -->
<g id="edge10" class="edge">
<title>q5:1&#45;&gt;q8:232</title>
<path fill="none" stroke="black" d="M759.16,-120.11C795.19,-118.05 853.5,-114.71 896.82,-112.23"/>
<polygon fill="black" stroke="black" points="896.75,-115.74 906.54,-111.68 896.36,-108.75 896.75,-115.74"/>
<text text-anchor="middle" x="839.7" y="-122.95" font-family="Times,serif" font-size="14.00">MAIL/250:1</text>
</g>
<!-- q9:12 -->
<g id="node11" class="node">
<title>q9:12</title>
<ellipse fill="none" stroke="black" stroke-width="2" cx="954.27" cy="-185" rx="39.63" ry="18"/>
<text text-anchor="middle" x="954.27" y="-180.32" font-family="Times,serif" font-size="14.00">q9:12</text>
</g>
<!-- q6:12&#45;&gt;q9:12 -->
<g id="edge11" class="edge">
<title>q6:12&#45;&gt;q9:12</title>
<path fill="none" stroke="black" d="M765.43,-177.56C803.42,-179.06 861.15,-181.35 902.58,-182.99"/>
<polygon fill="black" stroke="black" points="902.43,-186.49 912.56,-183.39 902.71,-179.49 902.43,-186.49"/>
<text text-anchor="middle" x="839.7" y="-185.94" font-family="Times,serif" font-size="14.00">AUTH/334:12</text>
</g>
<!-- q12:12 -->
<g id="node12" class="node">
<title>q12:12</title>
<ellipse fill="none" stroke="black" stroke-width="2" cx="1196.5" cy="-208" rx="45.95" ry="18"/>
<text text-anchor="middle" x="1196.5" y="-203.32" font-family="Times,serif" font-size="14.00">q12:12</text>
</g>
<!-- q9:12&#45;&gt;q12:12 -->
<g id="edge12" class="edge">
<title>q9:12&#45;&gt;q12:12</title>
<path fill="none" stroke="black" d="M993.87,-188.7C1033.3,-192.47 1094.8,-198.36 1139.6,-202.65"/>
<polygon fill="black" stroke="black" points="1139.11,-206.12 1149.39,-203.59 1139.77,-199.15 1139.11,-206.12"/>
<text text-anchor="middle" x="1072.2" y="-204.94" font-family="Times,serif" font-size="14.00">content/535:12</text>
</g>
<!-- q15:4 -->
<g id="node28" class="node">
<title>q15:4</title>
<ellipse fill="none" stroke="black" stroke-width="2" cx="1439.8" cy="-218" rx="39.63" ry="18"/>
<text text-anchor="middle" x="1439.8" y="-213.32" font-family="Times,serif" font-size="14.00">q15:4</text>
</g>
<!-- q12:12&#45;&gt;q15:4 -->
<g id="edge32" class="edge">
<title>q12:12&#45;&gt;q15:4</title>
<path fill="none" stroke="black" d="M1243.1,-209.89C1284.6,-211.61 1345.5,-214.14 1388.4,-215.91"/>
<polygon fill="black" stroke="black" points="1388.05,-219.4 1398.19,-216.32 1388.34,-212.4 1388.05,-219.4"/>
<text text-anchor="middle" x="1318.1" y="-218.94" font-family="Times,serif" font-size="14.00">λ/451:4</text>
</g>
<!-- q16:3264&#45;&gt;q16:3264 -->
<g id="edge22" class="edge">
<title>q16:3264&#45;&gt;q16:3264</title>
<path fill="none" stroke="black" d="M1671.3,-108.41C1666.9,-118.09 1674.7,-127 1694.6,-127 1706.1,-127 1713.5,-124.02 1716.9,-119.64"/>
<polygon fill="black" stroke="black" points="1720.36,-120.19 1717.77,-109.92 1713.39,-119.57 1720.36,-120.19"/>
<text text-anchor="middle" x="1694.6" y="-130.94" font-family="Times,serif" font-size="14.00">content/λ:3140</text>
</g>
<!-- q21:7 -->
<g id="node19" class="node">
<title>q21:7</title>
<ellipse fill="none" stroke="black" stroke-width="2" cx="1958.4" cy="-72" rx="39.63" ry="18"/>
<text text-anchor="middle" x="1958.4" y="-67.33" font-family="Times,serif" font-size="14.00">q21:7</text>
</g>
<!-- q16:3264&#45;&gt;q21:7 -->
<g id="edge23" class="edge">
<title>q16:3264&#45;&gt;q21:7</title>
<path fill="none" stroke="black" d="M1751.3,-85.45C1758,-84.84 1764.7,-84.26 1771.2,-83.75 1817.1,-80.1 1869.5,-76.88 1907,-74.73"/>
<polygon fill="black" stroke="black" points="1906.8,-78.25 1916.59,-74.19 1906.41,-71.26 1906.8,-78.25"/>
<text text-anchor="middle" x="1829.7" y="-87.95" font-family="Times,serif" font-size="14.00">content/554:7</text>
</g>
<!-- q20:116 -->
<g id="node20" class="node">
<title>q20:116</title>
<ellipse fill="none" stroke="black" stroke-width="2" cx="1958.4" cy="-18" rx="52.26" ry="18"/>
<text text-anchor="middle" x="1958.4" y="-13.32" font-family="Times,serif" font-size="14.00">q20:116</text>
</g>
<!-- q16:3264&#45;&gt;q20:116 -->
<g id="edge24" class="edge">
<title>q16:3264&#45;&gt;q20:116</title>
<path fill="none" stroke="black" d="M1728.9,-75.64C1736.8,-71.89 1745.3,-67.84 1753.2,-64 1761.2,-60.03 1762.7,-57.7 1771.2,-54.75 1812.1,-40.52 1860.1,-31.22 1897.1,-25.53"/>
<polygon fill="black" stroke="black" points="1897.33,-29.03 1906.7,-24.1 1896.3,-22.11 1897.33,-29.03"/>
<text text-anchor="middle" x="1829.7" y="-58.95" font-family="Times,serif" font-size="14.00">content/250:116</text>
</g>
<!-- q22:1 -->
<g id="node21" class="node">
<title>q22:1</title>
<ellipse fill="none" stroke="black" stroke-width="2" cx="1958.4" cy="-126" rx="39.63" ry="18"/>
<text text-anchor="middle" x="1958.4" y="-121.33" font-family="Times,serif" font-size="14.00">q22:1</text>
</g>
<!-- q16:3264&#45;&gt;q22:1 -->
<g id="edge25" class="edge">
<title>q16:3264&#45;&gt;q22:1</title>
<path fill="none" stroke="black" d="M1749.5,-98.21C1796.2,-104.45 1863.1,-113.4 1908.3,-119.44"/>
<polygon fill="black" stroke="black" points="1907.72,-122.89 1918.1,-120.75 1908.65,-115.96 1907.72,-122.89"/>
<text text-anchor="middle" x="1829.7" y="-120.95" font-family="Times,serif" font-size="14.00">content/550:1</text>
</g>
<!-- q24:58 -->
<g id="node26" class="node">
<title>q24:58</title>
<ellipse fill="none" stroke="black" stroke-width="2" cx="1958.4" cy="-234" rx="45.95" ry="18"/>
<text text-anchor="middle" x="1958.4" y="-229.32" font-family="Times,serif" font-size="14.00">q24:58</text>
</g>
<!-- q18:58&#45;&gt;q24:58 -->
<g id="edge30" class="edge">
<title>q18:58&#45;&gt;q24:58</title>
<path fill="none" stroke="black" d="M1741.5,-234C1785.7,-234 1852.6,-234 1900.2,-234"/>
<polygon fill="black" stroke="black" points="1900.09,-237.5 1910.09,-234 1900.09,-230.5 1900.09,-237.5"/>
<text text-anchor="middle" x="1829.7" y="-237.94" font-family="Times,serif" font-size="14.00">RSET/250:58</text>
</g>
<!-- q23:9 -->
<g id="node27" class="node">
<title>q23:9</title>
<ellipse fill="none" stroke="black" stroke-width="2" cx="1958.4" cy="-180" rx="39.63" ry="18"/>
<text text-anchor="middle" x="1958.4" y="-175.32" font-family="Times,serif" font-size="14.00">q23:9</text>
</g>
<!-- q17:9&#45;&gt;q23:9 -->
<g id="edge31" class="edge">
<title>q17:9&#45;&gt;q23:9</title>
<path fill="none" stroke="black" d="M1735.1,-180C1780.9,-180 1856.7,-180 1906.8,-180"/>
<polygon fill="black" stroke="black" points="1906.49,-183.5 1916.49,-180 1906.49,-176.5 1906.49,-183.5"/>
<text text-anchor="middle" x="1829.7" y="-183.94" font-family="Times,serif" font-size="14.00">QUIT/221:9</text>
</g>
<!-- q1:244 -->
<g id="node17" class="node">
<title>q1:244</title>
<ellipse fill="none" stroke="black" stroke-width="2" cx="257.84" cy="-86" rx="45.95" ry="18"/>
<text text-anchor="middle" x="257.84" y="-81.33" font-family="Times,serif" font-size="14.00">q1:244</text>
</g>
<!-- q1:244&#45;&gt;q2:242 -->
<g id="edge19" class="edge">
<title>q1:244&#45;&gt;q2:242</title>
<path fill="none" stroke="black" d="M302.14,-92.17C340,-97.56 395.17,-105.42 436.02,-111.24"/>
<polygon fill="black" stroke="black" points="435.51,-114.7 445.9,-112.65 436.49,-107.77 435.51,-114.7"/>
<text text-anchor="middle" x="374.66" y="-113.95" font-family="Times,serif" font-size="14.00">EHLO/250:242</text>
</g>
<!-- q3:2 -->
<g id="node18" class="node">
<title>q3:2</title>
<ellipse fill="none" stroke="black" stroke-width="2" cx="491.48" cy="-59" rx="33.32" ry="18"/>
<text text-anchor="middle" x="491.48" y="-54.33" font-family="Times,serif" font-size="14.00">q3:2</text>
</g>
<!-- q1:244&#45;&gt;q3:2 -->
<g id="edge20" class="edge">
<title>q1:244&#45;&gt;q3:2</title>
<path fill="none" stroke="black" d="M298.66,-76.83C306.31,-75.29 314.27,-73.84 321.79,-72.75 363.67,-66.66 411.82,-63.07 445.93,-61.1"/>
<polygon fill="black" stroke="black" points="446.07,-64.59 455.86,-60.55 445.68,-57.6 446.07,-64.59"/>
<text text-anchor="middle" x="374.66" y="-76.95" font-family="Times,serif" font-size="14.00">EHLO/λ:2</text>
</g>
<!-- q3:2&#45;&gt;q4:231 -->
<g id="edge21" class="edge">
<title>q3:2&#45;&gt;q4:231</title>
<path fill="none" stroke="black" d="M523.05,-51.83C533.28,-49.76 544.79,-47.78 555.43,-46.75 593,-43.13 635.47,-44.48 668.4,-46.72"/>
<polygon fill="black" stroke="black" points="667.89,-50.19 678.12,-47.43 668.4,-43.21 667.89,-50.19"/>
<text text-anchor="middle" x="608.31" y="-50.95" font-family="Times,serif" font-size="14.00">AUTH/235:2</text>
</g>
<!-- q26:7 -->
<g id="node22" class="node">
<title>q26:7</title>
<ellipse fill="none" stroke="black" stroke-width="2" cx="2199.4" cy="-72" rx="39.63" ry="18"/>
<text text-anchor="middle" x="2199.4" y="-67.33" font-family="Times,serif" font-size="14.00">q26:7</text>
</g>
<!-- q21:7&#45;&gt;q26:7 -->
<g id="edge26" class="edge">
<title>q21:7&#45;&gt;q26:7</title>
<path fill="none" stroke="black" d="M1998.9,-72C2039.5,-72 2103.1,-72 2147.5,-72"/>
<polygon fill="black" stroke="black" points="2147.39,-75.5 2157.39,-72 2147.39,-68.5 2147.39,-75.5"/>
<text text-anchor="middle" x="2078.9" y="-75.95" font-family="Times,serif" font-size="14.00">RSET/250:7</text>
</g>
<!-- q25:116 -->
<g id="node23" class="node">
<title>q25:116</title>
<ellipse fill="none" stroke="black" stroke-width="2" cx="2199.4" cy="-18" rx="52.26" ry="18"/>
<text text-anchor="middle" x="2199.4" y="-13.32" font-family="Times,serif" font-size="14.00">q25:116</text>
</g>
<!-- q20:116&#45;&gt;q25:116 -->
<g id="edge27" class="edge">
<title>q20:116&#45;&gt;q25:116</title>
<path fill="none" stroke="black" d="M2011.6,-18C2048,-18 2096.7,-18 2135.3,-18"/>
<polygon fill="black" stroke="black" points="2134.89,-21.5 2144.89,-18 2134.89,-14.5 2134.89,-21.5"/>
<text text-anchor="middle" x="2078.9" y="-21.95" font-family="Times,serif" font-size="14.00">QUIT/221:116</text>
</g>
<!-- q27:1 -->
<g id="node24" class="node">
<title>q27:1</title>
<ellipse fill="none" stroke="black" stroke-width="2" cx="2199.4" cy="-126" rx="39.63" ry="18"/>
<text text-anchor="middle" x="2199.4" y="-121.33" font-family="Times,serif" font-size="14.00">q27:1</text>
</g>
<!-- q22:1&#45;&gt;q27:1 -->
<g id="edge28" class="edge">
<title>q22:1&#45;&gt;q27:1</title>
<path fill="none" stroke="black" d="M1998.9,-126C2039.5,-126 2103.1,-126 2147.5,-126"/>
<polygon fill="black" stroke="black" points="2147.39,-129.5 2157.39,-126 2147.39,-122.5 2147.39,-129.5"/>
<text text-anchor="middle" x="2078.9" y="-129.94" font-family="Times,serif" font-size="14.00">RSET/250:1</text>
</g>
<!-- q0:244 -->
<g id="node25" class="node">
<title>q0:244</title>
<ellipse fill="none" stroke="black" stroke-width="2" cx="53.95" cy="-86" rx="49.95" ry="49.95"/>
<ellipse fill="none" stroke="black" stroke-width="2" cx="53.95" cy="-86" rx="53.95" ry="53.95"/>
<text text-anchor="middle" x="53.95" y="-81.33" font-family="Times,serif" font-size="14.00">q0:244</text>
</g>
<!-- q0:244&#45;&gt;q1:244 -->
<g id="edge29" class="edge">
<title>q0:244&#45;&gt;q1:244</title>
<path fill="none" stroke="black" d="M104.85,-86C133.64,-86 169.94,-86 199.84,-86"/>
<polygon fill="black" stroke="black" points="199.45,-89.5 209.45,-86 199.45,-82.5 199.45,-89.5"/>
<text text-anchor="middle" x="157.89" y="-89.95" font-family="Times,serif" font-size="14.00">λ/220:244</text>
</g>
</g>
</svg>
