<?xml version="1.0" encoding="UTF-8" standalone="no"?>
<!DOCTYPE svg PUBLIC "-//W3C//DTD SVG 1.1//EN"
 "http://www.w3.org/Graphics/SVG/1.1/DTD/svg11.dtd">
<!-- Generated by graphviz version 12.0.0 (20240803.0821)
 -->
<!-- Pages: 1 -->
<svg width="2204pt" height="280pt"
 viewBox="0.00 0.00 2203.85 280.00" xmlns="http://www.w3.org/2000/svg" xmlns:xlink="http://www.w3.org/1999/xlink">
<g id="graph0" class="graph" transform="scale(1 1) rotate(0) translate(4 276)">
<polygon fill="white" stroke="none" points="-4,4 -4,-276 2199.85,-276 2199.85,4 -4,4"/>
<!-- q7:150 -->
<g id="node1" class="node">
<title>q7:150</title>
<ellipse fill="none" stroke="black" stroke-width="2" cx="1433.4" cy="-172" rx="45.95" ry="18"/>
<text text-anchor="middle" x="1433.4" y="-167.32" font-family="Times,serif" font-size="14.00">q7:150</text>
</g>
<!-- q7:150&#45;&gt;q7:150 -->
<g id="edge1" class="edge">
<title>q7:150&#45;&gt;q7:150</title>
<path fill="none" stroke="black" d="M1413,-189.04C1408.8,-198.86 1415.6,-208 1433.4,-208 1443.7,-208 1450.3,-204.94 1453.3,-200.47"/>
<polygon fill="black" stroke="black" points="1456.79,-200.72 1453.82,-190.55 1449.8,-200.35 1456.79,-200.72"/>
<text text-anchor="middle" x="1433.4" y="-211.94" font-family="Times,serif" font-size="14.00">RCPT/250:9</text>
</g>
<!-- q11:2580 -->
<g id="node2" class="node">
<title>q11:2580</title>
<ellipse fill="none" stroke="black" stroke-width="2" cx="1682" cy="-165" rx="58.57" ry="18"/>
<text text-anchor="middle" x="1682" y="-160.32" font-family="Times,serif" font-size="14.00">q11:2580</text>
</g>
<!-- q7:150&#45;&gt;q11:2580 -->
<g id="edge2" class="edge">
<title>q7:150&#45;&gt;q11:2580</title>
<path fill="none" stroke="black" d="M1480.2,-170.7C1517.1,-169.65 1569.5,-168.16 1611.5,-166.97"/>
<polygon fill="black" stroke="black" points="1611.39,-170.47 1621.29,-166.69 1611.19,-163.48 1611.39,-170.47"/>
<text text-anchor="middle" x="1551.4" y="-173.94" font-family="Times,serif" font-size="14.00">DATA/354:98</text>
</g>
<!-- q12:43 -->
<g id="node3" class="node">
<title>q12:43</title>
<ellipse fill="none" stroke="black" stroke-width="2" cx="1682" cy="-254" rx="45.95" ry="18"/>
<text text-anchor="middle" x="1682" y="-249.32" font-family="Times,serif" font-size="14.00">q12:43</text>
</g>
<!-- q7:150&#45;&gt;q12:43 -->
<g id="edge3" class="edge">
<title>q7:150&#45;&gt;q12:43</title>
<path fill="none" stroke="black" d="M1470,-183.84C1513.4,-198.28 1587,-222.73 1634.7,-238.62"/>
<polygon fill="black" stroke="black" points="1633.37,-241.87 1643.96,-241.69 1635.57,-235.22 1633.37,-241.87"/>
<text text-anchor="middle" x="1551.4" y="-230.94" font-family="Times,serif" font-size="14.00">DATA/550:43</text>
</g>
<!-- q11:2580&#45;&gt;q11:2580 -->
<g id="edge4" class="edge">
<title>q11:2580&#45;&gt;q11:2580</title>
<path fill="none" stroke="black" d="M1658.6,-182.41C1654.3,-192.09 1662.1,-201 1682,-201 1693.5,-201 1700.9,-198.02 1704.3,-193.64"/>
<polygon fill="black" stroke="black" points="1707.76,-194.19 1705.17,-183.92 1700.79,-193.57 1707.76,-194.19"/>
<text text-anchor="middle" x="1682" y="-204.94" font-family="Times,serif" font-size="14.00">content/λ:2479</text>
</g>
<!-- q17:91 -->
<g id="node4" class="node">
<title>q17:91</title>
<ellipse fill="none" stroke="black" stroke-width="2" cx="1930.5" cy="-200" rx="45.95" ry="18"/>
<text text-anchor="middle" x="1930.5" y="-195.32" font-family="Times,serif" font-size="14.00">q17:91</text>
</g>
<!-- q11:2580&#45;&gt;q17:91 -->
<g id="edge5" class="edge">
<title>q11:2580&#45;&gt;q17:91</title>
<path fill="none" stroke="black" d="M1736.4,-172.59C1777.5,-178.42 1833.9,-186.43 1875.1,-192.28"/>
<polygon fill="black" stroke="black" points="1874.41,-195.72 1884.8,-193.67 1875.4,-188.79 1874.41,-195.72"/>
<text text-anchor="middle" x="1812.5" y="-193.94" font-family="Times,serif" font-size="14.00">content/250:91</text>
</g>
<!-- q18:1 -->
<g id="node5" class="node">
<title>q18:1</title>
<ellipse fill="none" stroke="black" stroke-width="2" cx="1930.5" cy="-146" rx="39.63" ry="18"/>
<text text-anchor="middle" x="1930.5" y="-141.32" font-family="Times,serif" font-size="14.00">q18:1</text>
</g>
<!-- q11:2580&#45;&gt;q18:1 -->
<g id="edge6" class="edge">
<title>q11:2580&#45;&gt;q18:1</title>
<path fill="none" stroke="black" d="M1737.8,-158.71C1744.8,-158 1751.8,-157.33 1758.5,-156.75 1799.1,-153.26 1845.2,-150.43 1879.3,-148.55"/>
<polygon fill="black" stroke="black" points="1879.09,-152.07 1888.89,-148.03 1878.71,-145.08 1879.09,-152.07"/>
<text text-anchor="middle" x="1812.5" y="-159.94" font-family="Times,serif" font-size="14.00">content/550:1</text>
</g>
<!-- q16:9 -->
<g id="node6" class="node">
<title>q16:9</title>
<ellipse fill="none" stroke="black" stroke-width="2" cx="1930.5" cy="-254" rx="39.63" ry="18"/>
<text text-anchor="middle" x="1930.5" y="-249.32" font-family="Times,serif" font-size="14.00">q16:9</text>
</g>
<!-- q11:2580&#45;&gt;q16:9 -->
<g id="edge7" class="edge">
<title>q11:2580&#45;&gt;q16:9</title>
<path fill="none" stroke="black" d="M1706.8,-182.08C1721.2,-191.73 1740.3,-203.35 1758.5,-211 1798.4,-227.69 1846.3,-239.05 1881.2,-245.89"/>
<polygon fill="black" stroke="black" points="1880.14,-249.25 1890.61,-247.67 1881.44,-242.37 1880.14,-249.25"/>
<text text-anchor="middle" x="1812.5" y="-245.94" font-family="Times,serif" font-size="14.00">content/554:9</text>
</g>
<!-- q22:91 -->
<g id="node7" class="node">
<title>q22:91</title>
<ellipse fill="none" stroke="black" stroke-width="2" cx="2149.9" cy="-200" rx="45.95" ry="18"/>
<text text-anchor="middle" x="2149.9" y="-195.32" font-family="Times,serif" font-size="14.00">q22:91</text>
</g>
<!-- q17:91&#45;&gt;q22:91 -->
<g id="edge8" class="edge">
<title>q17:91&#45;&gt;q22:91</title>
<path fill="none" stroke="black" d="M1977.3,-200C2010.7,-200 2056.1,-200 2091.9,-200"/>
<polygon fill="black" stroke="black" points="2091.59,-203.5 2101.59,-200 2091.59,-196.5 2091.59,-203.5"/>
<text text-anchor="middle" x="2040.2" y="-203.94" font-family="Times,serif" font-size="14.00">QUIT/221:91</text>
</g>
<!-- q23:1 -->
<g id="node8" class="node">
<title>q23:1</title>
<ellipse fill="none" stroke="black" stroke-width="2" cx="2149.9" cy="-146" rx="39.63" ry="18"/>
<text text-anchor="middle" x="2149.9" y="-141.32" font-family="Times,serif" font-size="14.00">q23:1</text>
</g>
<!-- q18:1&#45;&gt;q23:1 -->
<g id="edge9" class="edge">
<title>q18:1&#45;&gt;q23:1</title>
<path fill="none" stroke="black" d="M1971.1,-146C2006.9,-146 2059.7,-146 2098.5,-146"/>
<polygon fill="black" stroke="black" points="2097.99,-149.5 2107.99,-146 2097.99,-142.5 2097.99,-149.5"/>
<text text-anchor="middle" x="2040.2" y="-149.94" font-family="Times,serif" font-size="14.00">RSET/250:1</text>
</g>
<!-- q21:9 -->
<g id="node9" class="node">
<title>q21:9</title>
<ellipse fill="none" stroke="black" stroke-width="2" cx="2149.9" cy="-254" rx="39.63" ry="18"/>
<text text-anchor="middle" x="2149.9" y="-249.32" font-family="Times,serif" font-size="14.00">q21:9</text>
</g>
<!-- q16:9&#45;&gt;q21:9 -->
<g id="edge10" class="edge">
<title>q16:9&#45;&gt;q21:9</title>
<path fill="none" stroke="black" d="M1971.1,-254C2006.9,-254 2059.7,-254 2098.5,-254"/>
<polygon fill="black" stroke="black" points="2097.99,-257.5 2107.99,-254 2097.99,-250.5 2097.99,-257.5"/>
<text text-anchor="middle" x="2040.2" y="-257.94" font-family="Times,serif" font-size="14.00">RSET/250:9</text>
</g>
<!-- q9:229 -->
<g id="node10" class="node">
<title>q9:229</title>
<ellipse fill="none" stroke="black" stroke-width="2" cx="954.27" cy="-126" rx="45.95" ry="18"/>
<text text-anchor="middle" x="954.27" y="-121.33" font-family="Times,serif" font-size="14.00">q9:229</text>
</g>
<!-- q14:229 -->
<g id="node11" class="node">
<title>q14:229</title>
<ellipse fill="none" stroke="black" stroke-width="2" cx="1196.5" cy="-126" rx="52.26" ry="18"/>
<text text-anchor="middle" x="1196.5" y="-121.33" font-family="Times,serif" font-size="14.00">q14:229</text>
</g>
<!-- q9:229&#45;&gt;q14:229 -->
<g id="edge11" class="edge">
<title>q9:229&#45;&gt;q14:229</title>
<path fill="none" stroke="black" d="M1001.02,-126C1038.1,-126 1090.8,-126 1131.9,-126"/>
<polygon fill="black" stroke="black" points="1131.69,-129.5 1141.69,-126 1131.69,-122.5 1131.69,-129.5"/>
<text text-anchor="middle" x="1072.2" y="-129.94" font-family="Times,serif" font-size="14.00">RCPT/250:229</text>
</g>
<!-- q14:229&#45;&gt;q7:150 -->
<g id="edge12" class="edge">
<title>q14:229&#45;&gt;q7:150</title>
<path fill="none" stroke="black" d="M1249.6,-125.44C1284.1,-126.28 1330.2,-129.75 1369.5,-140.75 1378.6,-143.3 1388,-147.17 1396.6,-151.33"/>
<polygon fill="black" stroke="black" points="1394.85,-154.37 1405.35,-155.78 1398.03,-148.13 1394.85,-154.37"/>
<text text-anchor="middle" x="1318.1" y="-143.94" font-family="Times,serif" font-size="14.00">RCPT/250:140</text>
</g>
<!-- q20:89 -->
<g id="node12" class="node">
<title>q20:89</title>
<ellipse fill="none" stroke="black" stroke-width="2" cx="1433.4" cy="-93" rx="45.95" ry="18"/>
<text text-anchor="middle" x="1433.4" y="-88.33" font-family="Times,serif" font-size="14.00">q20:89</text>
</g>
<!-- q14:229&#45;&gt;q20:89 -->
<g id="edge13" class="edge">
<title>q14:229&#45;&gt;q20:89</title>
<path fill="none" stroke="black" d="M1230,-111.23C1241.3,-106.71 1254.4,-102.27 1266.7,-99.75 1302.4,-92.46 1343.3,-90.73 1375.5,-90.84"/>
<polygon fill="black" stroke="black" points="1375.45,-94.34 1385.49,-90.94 1375.52,-87.34 1375.45,-94.34"/>
<text text-anchor="middle" x="1318.1" y="-103.95" font-family="Times,serif" font-size="14.00">DATA/354:89</text>
</g>
<!-- q20:89&#45;&gt;q11:2580 -->
<g id="edge14" class="edge">
<title>q20:89&#45;&gt;q11:2580</title>
<path fill="none" stroke="black" d="M1471.6,-103.86C1512.8,-115.9 1579.7,-135.43 1626.7,-149.17"/>
<polygon fill="black" stroke="black" points="1625.67,-152.51 1636.25,-151.93 1627.61,-145.79 1625.67,-152.51"/>
<text text-anchor="middle" x="1551.4" y="-144.94" font-family="Times,serif" font-size="14.00">content/λ:3</text>
</g>
<!-- q25:65 -->
<g id="node13" class="node">
<title>q25:65</title>
<ellipse fill="none" stroke="black" stroke-width="2" cx="1682" cy="-38" rx="45.95" ry="18"/>
<text text-anchor="middle" x="1682" y="-33.33" font-family="Times,serif" font-size="14.00">q25:65</text>
</g>
<!-- q20:89&#45;&gt;q25:65 -->
<g id="edge15" class="edge">
<title>q20:89&#45;&gt;q25:65</title>
<path fill="none" stroke="black" d="M1468.5,-80.52C1477.8,-77.38 1487.9,-74.21 1497.4,-71.75 1540.5,-60.58 1590.1,-51.69 1626.9,-45.84"/>
<polygon fill="black" stroke="black" points="1627.06,-49.35 1636.4,-44.35 1625.98,-42.44 1627.06,-49.35"/>
<text text-anchor="middle" x="1551.4" y="-75.95" font-family="Times,serif" font-size="14.00">content/554:65</text>
</g>
<!-- q24:21 -->
<g id="node14" class="node">
<title>q24:21</title>
<ellipse fill="none" stroke="black" stroke-width="2" cx="1682" cy="-92" rx="45.95" ry="18"/>
<text text-anchor="middle" x="1682" y="-87.33" font-family="Times,serif" font-size="14.00">q24:21</text>
</g>
<!-- q20:89&#45;&gt;q24:21 -->
<g id="edge16" class="edge">
<title>q20:89&#45;&gt;q24:21</title>
<path fill="none" stroke="black" d="M1480.2,-92.81C1520.9,-92.65 1580.4,-92.41 1624.1,-92.23"/>
<polygon fill="black" stroke="black" points="1623.9,-95.73 1633.89,-92.19 1623.87,-88.73 1623.9,-95.73"/>
<text text-anchor="middle" x="1551.4" y="-96.95" font-family="Times,serif" font-size="14.00">content/250:21</text>
</g>
<!-- q27:65 -->
<g id="node15" class="node">
<title>q27:65</title>
<ellipse fill="none" stroke="black" stroke-width="2" cx="1930.5" cy="-38" rx="45.95" ry="18"/>
<text text-anchor="middle" x="1930.5" y="-33.33" font-family="Times,serif" font-size="14.00">q27:65</text>
</g>
<!-- q25:65&#45;&gt;q27:65 -->
<g id="edge17" class="edge">
<title>q25:65&#45;&gt;q27:65</title>
<path fill="none" stroke="black" d="M1728.7,-38C1769.4,-38 1828.9,-38 1872.6,-38"/>
<polygon fill="black" stroke="black" points="1872.39,-41.5 1882.39,-38 1872.39,-34.5 1872.39,-41.5"/>
<text text-anchor="middle" x="1812.5" y="-41.95" font-family="Times,serif" font-size="14.00">RSET/250:65</text>
</g>
<!-- q26:21 -->
<g id="node16" class="node">
<title>q26:21</title>
<ellipse fill="none" stroke="black" stroke-width="2" cx="1930.5" cy="-92" rx="45.95" ry="18"/>
<text text-anchor="middle" x="1930.5" y="-87.33" font-family="Times,serif" font-size="14.00">q26:21</text>
</g>
<!-- q24:21&#45;&gt;q26:21 -->
<g id="edge18" class="edge">
<title>q24:21&#45;&gt;q26:21</title>
<path fill="none" stroke="black" d="M1728.7,-92C1769.4,-92 1828.9,-92 1872.6,-92"/>
<polygon fill="black" stroke="black" points="1872.39,-95.5 1882.39,-92 1872.39,-88.5 1872.39,-95.5"/>
<text text-anchor="middle" x="1812.5" y="-95.95" font-family="Times,serif" font-size="14.00">QUIT/221:21</text>
</g>
<!-- q1:244 -->
<g id="node17" class="node">
<title>q1:244</title>
<ellipse fill="none" stroke="black" stroke-width="2" cx="257.84" cy="-66" rx="45.95" ry="18"/>
<text text-anchor="middle" x="257.84" y="-61.33" font-family="Times,serif" font-size="14.00">q1:244</text>
</g>
<!-- q3:2 -->
<g id="node18" class="node">
<title>q3:2</title>
<ellipse fill="none" stroke="black" stroke-width="2" cx="491.48" cy="-39" rx="33.32" ry="18"/>
<text text-anchor="middle" x="491.48" y="-34.33" font-family="Times,serif" font-size="14.00">q3:2</text>
</g>
<!-- q1:244&#45;&gt;q3:2 -->
<g id="edge19" class="edge">
<title>q1:244&#45;&gt;q3:2</title>
<path fill="none" stroke="black" d="M298.66,-56.83C306.31,-55.29 314.27,-53.84 321.79,-52.75 363.67,-46.66 411.82,-43.07 445.93,-41.1"/>
<polygon fill="black" stroke="black" points="446.07,-44.59 455.86,-40.55 445.68,-37.6 446.07,-44.59"/>
<text text-anchor="middle" x="374.66" y="-56.95" font-family="Times,serif" font-size="14.00">EHLO/λ:2</text>
</g>
<!-- q2:242 -->
<g id="node19" class="node">
<title>q2:242</title>
<ellipse fill="none" stroke="black" stroke-width="2" cx="491.48" cy="-99" rx="45.95" ry="18"/>
<text text-anchor="middle" x="491.48" y="-94.33" font-family="Times,serif" font-size="14.00">q2:242</text>
</g>
<!-- q1:244&#45;&gt;q2:242 -->
<g id="edge20" class="edge">
<title>q1:244&#45;&gt;q2:242</title>
<path fill="none" stroke="black" d="M302.14,-72.17C340,-77.56 395.17,-85.42 436.02,-91.24"/>
<polygon fill="black" stroke="black" points="435.51,-94.7 445.9,-92.65 436.49,-87.77 435.51,-94.7"/>
<text text-anchor="middle" x="374.66" y="-93.95" font-family="Times,serif" font-size="14.00">EHLO/250:242</text>
</g>
<!-- q6:231 -->
<g id="node20" class="node">
<title>q6:231</title>
<ellipse fill="none" stroke="black" stroke-width="2" cx="725.13" cy="-101" rx="45.95" ry="18"/>
<text text-anchor="middle" x="725.13" y="-96.33" font-family="Times,serif" font-size="14.00">q6:231</text>
</g>
<!-- q3:2&#45;&gt;q6:231 -->
<g id="edge21" class="edge">
<title>q3:2&#45;&gt;q6:231</title>
<path fill="none" stroke="black" d="M520.86,-29.27C556.46,-18.92 618.07,-7.36 661.18,-33.75 676.18,-42.94 667.69,-55.68 679.18,-69 682.13,-72.41 685.5,-75.65 689.06,-78.66"/>
<polygon fill="black" stroke="black" points="686.86,-81.38 696.91,-84.73 691.14,-75.85 686.86,-81.38"/>
<text text-anchor="middle" x="608.31" y="-37.95" font-family="Times,serif" font-size="14.00">AUTH/235:2</text>
</g>
<!-- q2:242&#45;&gt;q6:231 -->
<g id="edge22" class="edge">
<title>q2:242&#45;&gt;q6:231</title>
<path fill="none" stroke="black" d="M538.25,-99.39C575.21,-99.71 627.42,-100.17 667.1,-100.51"/>
<polygon fill="black" stroke="black" points="666.92,-104.01 676.95,-100.6 666.98,-97.01 666.92,-104.01"/>
<text text-anchor="middle" x="608.31" y="-104.95" font-family="Times,serif" font-size="14.00">AUTH/235:229</text>
</g>
<!-- q4:1 -->
<g id="node21" class="node">
<title>q4:1</title>
<ellipse fill="none" stroke="black" stroke-width="2" cx="839.7" cy="-167" rx="33.32" ry="18"/>
<text text-anchor="middle" x="839.7" y="-162.32" font-family="Times,serif" font-size="14.00">q4:1</text>
</g>
<!-- q2:242&#45;&gt;q4:1 -->
<g id="edge23" class="edge">
<title>q2:242&#45;&gt;q4:1</title>
<path fill="none" stroke="black" d="M524.78,-112.15C534.51,-115.75 545.3,-119.37 555.43,-122 638.68,-143.61 738.53,-156.54 794.7,-162.67"/>
<polygon fill="black" stroke="black" points="794.18,-166.13 804.49,-163.72 794.92,-159.17 794.18,-166.13"/>
<text text-anchor="middle" x="608.31" y="-146.94" font-family="Times,serif" font-size="14.00">AUTH/λ:1</text>
</g>
<!-- q5:12 -->
<g id="node22" class="node">
<title>q5:12</title>
<ellipse fill="none" stroke="black" stroke-width="2" cx="725.13" cy="-42" rx="39.63" ry="18"/>
<text text-anchor="middle" x="725.13" y="-37.33" font-family="Times,serif" font-size="14.00">q5:12</text>
</g>
<!-- q2:242&#45;&gt;q5:12 -->
<g id="edge24" class="edge">
<title>q2:242&#45;&gt;q5:12</title>
<path fill="none" stroke="black" d="M527.6,-87.04C536.62,-84.15 546.34,-81.2 555.43,-78.75 595.87,-67.87 642.41,-57.92 676.35,-51.12"/>
<polygon fill="black" stroke="black" points="676.74,-54.62 685.86,-49.24 675.38,-47.75 676.74,-54.62"/>
<text text-anchor="middle" x="608.31" y="-82.95" font-family="Times,serif" font-size="14.00">AUTH/535:12</text>
</g>
<!-- q6:231&#45;&gt;q9:229 -->
<g id="edge25" class="edge">
<title>q6:231&#45;&gt;q9:229</title>
<path fill="none" stroke="black" d="M770.46,-105.88C806.89,-109.89 858.69,-115.59 897.85,-119.9"/>
<polygon fill="black" stroke="black" points="897.22,-123.35 907.54,-120.96 897.99,-116.39 897.22,-123.35"/>
<text text-anchor="middle" x="839.7" y="-121.95" font-family="Times,serif" font-size="14.00">MAIL/250:229</text>
</g>
<!-- q10:2 -->
<g id="node23" class="node">
<title>q10:2</title>
<ellipse fill="none" stroke="black" stroke-width="2" cx="954.27" cy="-72" rx="39.63" ry="18"/>
<text text-anchor="middle" x="954.27" y="-67.33" font-family="Times,serif" font-size="14.00">q10:2</text>
</g>
<!-- q6:231&#45;&gt;q10:2 -->
<g id="edge26" class="edge">
<title>q6:231&#45;&gt;q10:2</title>
<path fill="none" stroke="black" d="M765.26,-91.3C773.11,-89.59 781.33,-87.97 789.08,-86.75 826.85,-80.81 869.91,-77.05 902.46,-74.81"/>
<polygon fill="black" stroke="black" points="902.68,-78.31 912.43,-74.16 902.22,-71.32 902.68,-78.31"/>
<text text-anchor="middle" x="839.7" y="-90.95" font-family="Times,serif" font-size="14.00">MAIL/553:2</text>
</g>
<!-- q4:1&#45;&gt;q7:150 -->
<g id="edge27" class="edge">
<title>q4:1&#45;&gt;q7:150</title>
<path fill="none" stroke="black" d="M873.78,-167.28C970.45,-168.1 1253.3,-170.49 1375.3,-171.52"/>
<polygon fill="black" stroke="black" points="1375.06,-175.02 1385.09,-171.6 1375.11,-168.02 1375.06,-175.02"/>
<text text-anchor="middle" x="1072.2" y="-172.94" font-family="Times,serif" font-size="14.00">MAIL/250:1</text>
</g>
<!-- q8:12 -->
<g id="node24" class="node">
<title>q8:12</title>
<ellipse fill="none" stroke="black" stroke-width="2" cx="954.27" cy="-18" rx="39.63" ry="18"/>
<text text-anchor="middle" x="954.27" y="-13.32" font-family="Times,serif" font-size="14.00">q8:12</text>
</g>
<!-- q5:12&#45;&gt;q8:12 -->
<g id="edge28" class="edge">
<title>q5:12&#45;&gt;q8:12</title>
<path fill="none" stroke="black" d="M764.66,-37.93C802.96,-33.88 861.85,-27.66 903.63,-23.25"/>
<polygon fill="black" stroke="black" points="903.85,-26.74 913.42,-22.21 903.11,-19.78 903.85,-26.74"/>
<text text-anchor="middle" x="839.7" y="-38.95" font-family="Times,serif" font-size="14.00">AUTH/334:12</text>
</g>
<!-- q15:2 -->
<g id="node25" class="node">
<title>q15:2</title>
<ellipse fill="none" stroke="black" stroke-width="2" cx="1196.5" cy="-72" rx="39.63" ry="18"/>
<text text-anchor="middle" x="1196.5" y="-67.33" font-family="Times,serif" font-size="14.00">q15:2</text>
</g>
<!-- q10:2&#45;&gt;q15:2 -->
<g id="edge29" class="edge">
<title>q10:2&#45;&gt;q15:2</title>
<path fill="none" stroke="black" d="M994.67,-72C1035.6,-72 1099.8,-72 1144.6,-72"/>
<polygon fill="black" stroke="black" points="1144.59,-75.5 1154.59,-72 1144.59,-68.5 1144.59,-75.5"/>
<text text-anchor="middle" x="1072.2" y="-75.95" font-family="Times,serif" font-size="14.00">RSET/250:2</text>
</g>
<!-- q13:12 -->
<g id="node26" class="node">
<title>q13:12</title>
<ellipse fill="none" stroke="black" stroke-width="2" cx="1196.5" cy="-18" rx="45.95" ry="18"/>
<text text-anchor="middle" x="1196.5" y="-13.32" font-family="Times,serif" font-size="14.00">q13:12</text>
</g>
<!-- q8:12&#45;&gt;q13:12 -->
<g id="edge30" class="edge">
<title>q8:12&#45;&gt;q13:12</title>
<path fill="none" stroke="black" d="M994.67,-18C1033.8,-18 1094.1,-18 1138.4,-18"/>
<polygon fill="black" stroke="black" points="1138.39,-21.5 1148.39,-18 1138.39,-14.5 1138.39,-21.5"/>
<text text-anchor="middle" x="1072.2" y="-21.95" font-family="Times,serif" font-size="14.00">content/535:12</text>
</g>
<!-- q19:3 -->
<g id="node28" class="node">
<title>q19:3</title>
<ellipse fill="none" stroke="black" stroke-width="2" cx="1433.4" cy="-18" rx="39.63" ry="18"/>
<text text-anchor="middle" x="1433.4" y="-13.32" font-family="Times,serif" font-size="14.00">q19:3</text>
</g>
<!-- q13:12&#45;&gt;q19:3 -->
<g id="edge32" class="edge">
<title>q13:12&#45;&gt;q19:3</title>
<path fill="none" stroke="black" d="M1243.3,-18C1283,-18 1340.4,-18 1381.5,-18"/>
<polygon fill="black" stroke="black" points="1381.39,-21.5 1391.39,-18 1381.39,-14.5 1381.39,-21.5"/>
<text text-anchor="middle" x="1318.1" y="-21.95" font-family="Times,serif" font-size="14.00">λ/451:3</text>
</g>
<!-- q0:244 -->
<g id="node27" class="node">
<title>q0:244</title>
<ellipse fill="none" stroke="black" stroke-width="2" cx="53.95" cy="-66" rx="49.95" ry="49.95"/>
<ellipse fill="none" stroke="black" stroke-width="2" cx="53.95" cy="-66" rx="53.95" ry="53.95"/>
<text text-anchor="middle" x="53.95" y="-61.33" font-family="Times,serif" font-size="14.00">q0:244</text>
</g>
<!-- q0:244&#45;&gt;q1:244 -->
<g id="edge31" class="edge">
<title>q0:244&#45;&gt;q1:244</title>
<path fill="none" stroke="black" d="M104.85,-66C133.64,-66 169.94,-66 199.84,-66"/>
<polygon fill="black" stroke="black" points="199.45,-69.5 209.45,-66 199.45,-62.5 199.45,-69.5"/>
<text text-anchor="middle" x="157.89" y="-69.95" font-family="Times,serif" font-size="14.00">λ/220:244</text>
</g>
</g>
</svg>
