<?xml version="1.0" encoding="UTF-8" standalone="no"?>
<!DOCTYPE svg PUBLIC "-//W3C//DTD SVG 1.1//EN"
 "http://www.w3.org/Graphics/SVG/1.1/DTD/svg11.dtd">
<!-- Generated by graphviz version 12.0.0 (20240803.0821)
 -->
<!-- Pages: 1 -->
<svg width="1986pt" height="272pt"
 viewBox="0.00 0.00 1985.85 272.00" xmlns="http://www.w3.org/2000/svg" xmlns:xlink="http://www.w3.org/1999/xlink">
<g id="graph0" class="graph" transform="scale(1 1) rotate(0) translate(4 268)">
<polygon fill="white" stroke="none" points="-4,4 -4,-268 1981.85,-268 1981.85,4 -4,4"/>
<!-- q13:10 -->
<g id="node1" class="node">
<title>q13:10</title>
<ellipse fill="none" stroke="black" stroke-width="2" cx="1202.8" cy="-206" rx="45.95" ry="18"/>
<text text-anchor="middle" x="1202.8" y="-201.32" font-family="Times,serif" font-size="14.00">q13:10</text>
</g>
<!-- q18:2 -->
<g id="node2" class="node">
<title>q18:2</title>
<ellipse fill="none" stroke="black" stroke-width="2" cx="1463.9" cy="-246" rx="39.63" ry="18"/>
<text text-anchor="middle" x="1463.9" y="-241.32" font-family="Times,serif" font-size="14.00">q18:2</text>
</g>
<!-- q13:10&#45;&gt;q18:2 -->
<g id="edge1" class="edge">
<title>q13:10&#45;&gt;q18:2</title>
<path fill="none" stroke="black" d="M1246.6,-212.61C1292.8,-219.73 1366.2,-231.06 1414.5,-238.52"/>
<polygon fill="black" stroke="black" points="1413.69,-241.94 1424.1,-240 1414.75,-235.02 1413.69,-241.94"/>
<text text-anchor="middle" x="1333.4" y="-237.94" font-family="Times,serif" font-size="14.00">λ/451:2</text>
</g>
<!-- q11:1419 -->
<g id="node3" class="node">
<title>q11:1419</title>
<ellipse fill="none" stroke="black" stroke-width="2" cx="1202.8" cy="-132" rx="58.57" ry="18"/>
<text text-anchor="middle" x="1202.8" y="-127.33" font-family="Times,serif" font-size="14.00">q11:1419</text>
</g>
<!-- q15:1 -->
<g id="node4" class="node">
<title>q15:1</title>
<ellipse fill="none" stroke="black" stroke-width="2" cx="1463.9" cy="-192" rx="39.63" ry="18"/>
<text text-anchor="middle" x="1463.9" y="-187.32" font-family="Times,serif" font-size="14.00">q15:1</text>
</g>
<!-- q11:1419&#45;&gt;q15:1 -->
<g id="edge2" class="edge">
<title>q11:1419&#45;&gt;q15:1</title>
<path fill="none" stroke="black" d="M1244.8,-145.26C1255.9,-148.65 1268.1,-152.15 1279.4,-155 1324.9,-166.5 1377.6,-176.81 1414.8,-183.6"/>
<polygon fill="black" stroke="black" points="1413.85,-186.98 1424.31,-185.33 1415.1,-180.1 1413.85,-186.98"/>
<text text-anchor="middle" x="1333.4" y="-180.94" font-family="Times,serif" font-size="14.00">content/550:1</text>
</g>
<!-- q17:81 -->
<g id="node5" class="node">
<title>q17:81</title>
<ellipse fill="none" stroke="black" stroke-width="2" cx="1463.9" cy="-72" rx="45.95" ry="18"/>
<text text-anchor="middle" x="1463.9" y="-67.33" font-family="Times,serif" font-size="14.00">q17:81</text>
</g>
<!-- q11:1419&#45;&gt;q17:81 -->
<g id="edge3" class="edge">
<title>q11:1419&#45;&gt;q17:81</title>
<path fill="none" stroke="black" d="M1240.3,-117.45C1247.6,-113.86 1254.9,-109.67 1261.4,-105 1270.8,-98.11 1268.8,-90.81 1279.4,-85.75 1319.3,-66.6 1369.9,-64.16 1407.8,-65.95"/>
<polygon fill="black" stroke="black" points="1407.4,-69.43 1417.59,-66.53 1407.82,-62.44 1407.4,-69.43"/>
<text text-anchor="middle" x="1333.4" y="-88.95" font-family="Times,serif" font-size="14.00">content/250:81</text>
</g>
<!-- q16:73 -->
<g id="node6" class="node">
<title>q16:73</title>
<ellipse fill="none" stroke="black" stroke-width="2" cx="1463.9" cy="-18" rx="45.95" ry="18"/>
<text text-anchor="middle" x="1463.9" y="-13.32" font-family="Times,serif" font-size="14.00">q16:73</text>
</g>
<!-- q11:1419&#45;&gt;q16:73 -->
<g id="edge4" class="edge">
<title>q11:1419&#45;&gt;q16:73</title>
<path fill="none" stroke="black" d="M1244.3,-118.42C1250.7,-114.85 1256.7,-110.44 1261.4,-105 1279.6,-83.83 1258.2,-63.02 1279.4,-44.75 1314.3,-14.56 1367.7,-9.8 1407.9,-11.45"/>
<polygon fill="black" stroke="black" points="1407.7,-14.94 1417.89,-12.02 1408.1,-7.95 1407.7,-14.94"/>
<text text-anchor="middle" x="1333.4" y="-48.95" font-family="Times,serif" font-size="14.00">content/554:73</text>
</g>
<!-- q14:1264 -->
<g id="node7" class="node">
<title>q14:1264</title>
<ellipse fill="none" stroke="black" stroke-width="2" cx="1463.9" cy="-135" rx="58.57" ry="18"/>
<text text-anchor="middle" x="1463.9" y="-130.32" font-family="Times,serif" font-size="14.00">q14:1264</text>
</g>
<!-- q11:1419&#45;&gt;q14:1264 -->
<g id="edge5" class="edge">
<title>q11:1419&#45;&gt;q14:1264</title>
<path fill="none" stroke="black" d="M1246.6,-119.13C1257.2,-116.48 1268.6,-114.1 1279.4,-112.75 1327,-106.78 1339.9,-105.9 1387.4,-112.75 1395.7,-113.96 1404.5,-115.88 1412.9,-118.1"/>
<polygon fill="black" stroke="black" points="1411.77,-121.42 1422.34,-120.76 1413.67,-114.68 1411.77,-121.42"/>
<text text-anchor="middle" x="1333.4" y="-115.95" font-family="Times,serif" font-size="14.00">content/λ:1264</text>
</g>
<!-- q21:1 -->
<g id="node8" class="node">
<title>q21:1</title>
<ellipse fill="none" stroke="black" stroke-width="2" cx="1712.5" cy="-234" rx="39.63" ry="18"/>
<text text-anchor="middle" x="1712.5" y="-229.32" font-family="Times,serif" font-size="14.00">q21:1</text>
</g>
<!-- q15:1&#45;&gt;q21:1 -->
<g id="edge6" class="edge">
<title>q15:1&#45;&gt;q21:1</title>
<path fill="none" stroke="black" d="M1502.1,-198.33C1545.1,-205.66 1616,-217.74 1663.2,-225.78"/>
<polygon fill="black" stroke="black" points="1662.46,-229.2 1672.91,-227.43 1663.63,-222.3 1662.46,-229.2"/>
<text text-anchor="middle" x="1594.5" y="-225.94" font-family="Times,serif" font-size="14.00">RSET/250:1</text>
</g>
<!-- q23:81 -->
<g id="node9" class="node">
<title>q23:81</title>
<ellipse fill="none" stroke="black" stroke-width="2" cx="1712.5" cy="-72" rx="45.95" ry="18"/>
<text text-anchor="middle" x="1712.5" y="-67.33" font-family="Times,serif" font-size="14.00">q23:81</text>
</g>
<!-- q17:81&#45;&gt;q23:81 -->
<g id="edge7" class="edge">
<title>q17:81&#45;&gt;q23:81</title>
<path fill="none" stroke="black" d="M1510.7,-72C1551.4,-72 1610.9,-72 1654.6,-72"/>
<polygon fill="black" stroke="black" points="1654.39,-75.5 1664.39,-72 1654.39,-68.5 1654.39,-75.5"/>
<text text-anchor="middle" x="1594.5" y="-75.95" font-family="Times,serif" font-size="14.00">QUIT/221:81</text>
</g>
<!-- q22:73 -->
<g id="node10" class="node">
<title>q22:73</title>
<ellipse fill="none" stroke="black" stroke-width="2" cx="1712.5" cy="-18" rx="45.95" ry="18"/>
<text text-anchor="middle" x="1712.5" y="-13.32" font-family="Times,serif" font-size="14.00">q22:73</text>
</g>
<!-- q16:73&#45;&gt;q22:73 -->
<g id="edge8" class="edge">
<title>q16:73&#45;&gt;q22:73</title>
<path fill="none" stroke="black" d="M1510.7,-18C1551.4,-18 1610.9,-18 1654.6,-18"/>
<polygon fill="black" stroke="black" points="1654.39,-21.5 1664.39,-18 1654.39,-14.5 1654.39,-21.5"/>
<text text-anchor="middle" x="1594.5" y="-21.95" font-family="Times,serif" font-size="14.00">RSET/250:73</text>
</g>
<!-- q14:1264&#45;&gt;q11:1419 -->
<g id="edge9" class="edge">
<title>q14:1264&#45;&gt;q11:1419</title>
<path fill="none" stroke="black" d="M1404.7,-134.33C1365.8,-133.88 1314.6,-133.28 1273.6,-132.81"/>
<polygon fill="black" stroke="black" points="1273.85,-129.31 1263.81,-132.7 1273.77,-136.31 1273.85,-129.31"/>
<text text-anchor="middle" x="1333.4" y="-137.94" font-family="Times,serif" font-size="14.00">content/λ:1231</text>
</g>
<!-- q20:1 -->
<g id="node11" class="node">
<title>q20:1</title>
<ellipse fill="none" stroke="black" stroke-width="2" cx="1712.5" cy="-126" rx="39.63" ry="18"/>
<text text-anchor="middle" x="1712.5" y="-121.33" font-family="Times,serif" font-size="14.00">q20:1</text>
</g>
<!-- q14:1264&#45;&gt;q20:1 -->
<g id="edge10" class="edge">
<title>q14:1264&#45;&gt;q20:1</title>
<path fill="none" stroke="black" d="M1523,-132.88C1564.9,-131.35 1620.8,-129.31 1660.8,-127.85"/>
<polygon fill="black" stroke="black" points="1660.82,-131.35 1670.69,-127.49 1660.56,-124.36 1660.82,-131.35"/>
<text text-anchor="middle" x="1594.5" y="-135.94" font-family="Times,serif" font-size="14.00">content/554:1</text>
</g>
<!-- q19:32 -->
<g id="node12" class="node">
<title>q19:32</title>
<ellipse fill="none" stroke="black" stroke-width="2" cx="1712.5" cy="-180" rx="45.95" ry="18"/>
<text text-anchor="middle" x="1712.5" y="-175.32" font-family="Times,serif" font-size="14.00">q19:32</text>
</g>
<!-- q14:1264&#45;&gt;q19:32 -->
<g id="edge11" class="edge">
<title>q14:1264&#45;&gt;q19:32</title>
<path fill="none" stroke="black" d="M1510.8,-146.52C1520.6,-148.81 1530.9,-151.09 1540.5,-153 1579.3,-160.67 1623.4,-167.59 1657.1,-172.51"/>
<polygon fill="black" stroke="black" points="1656.21,-175.92 1666.6,-173.87 1657.2,-168.99 1656.21,-175.92"/>
<text text-anchor="middle" x="1594.5" y="-173.94" font-family="Times,serif" font-size="14.00">content/250:32</text>
</g>
<!-- q25:1 -->
<g id="node13" class="node">
<title>q25:1</title>
<ellipse fill="none" stroke="black" stroke-width="2" cx="1931.9" cy="-126" rx="39.63" ry="18"/>
<text text-anchor="middle" x="1931.9" y="-121.33" font-family="Times,serif" font-size="14.00">q25:1</text>
</g>
<!-- q20:1&#45;&gt;q25:1 -->
<g id="edge12" class="edge">
<title>q20:1&#45;&gt;q25:1</title>
<path fill="none" stroke="black" d="M1753.1,-126C1788.9,-126 1841.7,-126 1880.5,-126"/>
<polygon fill="black" stroke="black" points="1879.99,-129.5 1889.99,-126 1879.99,-122.5 1879.99,-129.5"/>
<text text-anchor="middle" x="1822.2" y="-129.94" font-family="Times,serif" font-size="14.00">RSET/250:1</text>
</g>
<!-- q24:32 -->
<g id="node14" class="node">
<title>q24:32</title>
<ellipse fill="none" stroke="black" stroke-width="2" cx="1931.9" cy="-180" rx="45.95" ry="18"/>
<text text-anchor="middle" x="1931.9" y="-175.32" font-family="Times,serif" font-size="14.00">q24:32</text>
</g>
<!-- q19:32&#45;&gt;q24:32 -->
<g id="edge13" class="edge">
<title>q19:32&#45;&gt;q24:32</title>
<path fill="none" stroke="black" d="M1759.3,-180C1792.7,-180 1838.1,-180 1873.8,-180"/>
<polygon fill="black" stroke="black" points="1873.59,-183.5 1883.59,-180 1873.59,-176.5 1873.59,-183.5"/>
<text text-anchor="middle" x="1822.2" y="-183.94" font-family="Times,serif" font-size="14.00">QUIT/221:32</text>
</g>
<!-- q7:611 -->
<g id="node15" class="node">
<title>q7:611</title>
<ellipse fill="none" stroke="black" stroke-width="2" cx="954.27" cy="-80" rx="45.95" ry="18"/>
<text text-anchor="middle" x="954.27" y="-75.33" font-family="Times,serif" font-size="14.00">q7:611</text>
</g>
<!-- q7:611&#45;&gt;q11:1419 -->
<g id="edge14" class="edge">
<title>q7:611&#45;&gt;q11:1419</title>
<path fill="none" stroke="black" d="M990.32,-92.06C999.35,-94.91 1009.1,-97.76 1018.2,-100 1057.2,-109.55 1101.5,-117.35 1136.8,-122.87"/>
<polygon fill="black" stroke="black" points="1136.09,-126.3 1146.5,-124.35 1137.15,-119.38 1136.09,-126.3"/>
<text text-anchor="middle" x="1072.2" y="-123.95" font-family="Times,serif" font-size="14.00">DATA/354:188</text>
</g>
<!-- q7:611&#45;&gt;q7:611 -->
<g id="edge15" class="edge">
<title>q7:611&#45;&gt;q7:611</title>
<path fill="none" stroke="black" d="M933.97,-97.04C929.83,-106.86 936.59,-116 954.27,-116 964.49,-116 971.07,-112.94 973.99,-108.47"/>
<polygon fill="black" stroke="black" points="977.48,-108.71 974.49,-98.55 970.49,-108.36 977.48,-108.71"/>
<text text-anchor="middle" x="954.27" y="-119.95" font-family="Times,serif" font-size="14.00">RCPT/250:380</text>
</g>
<!-- q10:43 -->
<g id="node16" class="node">
<title>q10:43</title>
<ellipse fill="none" stroke="black" stroke-width="2" cx="1202.8" cy="-78" rx="45.95" ry="18"/>
<text text-anchor="middle" x="1202.8" y="-73.33" font-family="Times,serif" font-size="14.00">q10:43</text>
</g>
<!-- q7:611&#45;&gt;q10:43 -->
<g id="edge16" class="edge">
<title>q7:611&#45;&gt;q10:43</title>
<path fill="none" stroke="black" d="M1001.06,-79.63C1041.7,-79.3 1101.3,-78.82 1144.9,-78.46"/>
<polygon fill="black" stroke="black" points="1144.71,-81.96 1154.69,-78.38 1144.66,-74.96 1144.71,-81.96"/>
<text text-anchor="middle" x="1072.2" y="-82.95" font-family="Times,serif" font-size="14.00">DATA/550:43</text>
</g>
<!-- q2:242 -->
<g id="node17" class="node">
<title>q2:242</title>
<ellipse fill="none" stroke="black" stroke-width="2" cx="491.48" cy="-112" rx="45.95" ry="18"/>
<text text-anchor="middle" x="491.48" y="-107.33" font-family="Times,serif" font-size="14.00">q2:242</text>
</g>
<!-- q6:10 -->
<g id="node18" class="node">
<title>q6:10</title>
<ellipse fill="none" stroke="black" stroke-width="2" cx="725.13" cy="-169" rx="39.63" ry="18"/>
<text text-anchor="middle" x="725.13" y="-164.32" font-family="Times,serif" font-size="14.00">q6:10</text>
</g>
<!-- q2:242&#45;&gt;q6:10 -->
<g id="edge17" class="edge">
<title>q2:242&#45;&gt;q6:10</title>
<path fill="none" stroke="black" d="M525.17,-125.01C534.82,-128.56 545.46,-132.19 555.43,-135 595.35,-146.25 641.58,-155.29 675.53,-161.22"/>
<polygon fill="black" stroke="black" points="674.61,-164.61 685.06,-162.85 675.79,-157.71 674.61,-164.61"/>
<text text-anchor="middle" x="608.31" y="-161.94" font-family="Times,serif" font-size="14.00">AUTH/535:10</text>
</g>
<!-- q5:233 -->
<g id="node19" class="node">
<title>q5:233</title>
<ellipse fill="none" stroke="black" stroke-width="2" cx="725.13" cy="-45" rx="45.95" ry="18"/>
<text text-anchor="middle" x="725.13" y="-40.33" font-family="Times,serif" font-size="14.00">q5:233</text>
</g>
<!-- q2:242&#45;&gt;q5:233 -->
<g id="edge18" class="edge">
<title>q2:242&#45;&gt;q5:233</title>
<path fill="none" stroke="black" d="M527.32,-99.82C536.44,-96.75 546.27,-93.53 555.43,-90.75 595.08,-78.69 640.43,-66.48 674.12,-57.71"/>
<polygon fill="black" stroke="black" points="674.8,-61.15 683.6,-55.25 673.05,-54.37 674.8,-61.15"/>
<text text-anchor="middle" x="608.31" y="-93.95" font-family="Times,serif" font-size="14.00">AUTH/235:231</text>
</g>
<!-- q4:1 -->
<g id="node20" class="node">
<title>q4:1</title>
<ellipse fill="none" stroke="black" stroke-width="2" cx="725.13" cy="-115" rx="33.32" ry="18"/>
<text text-anchor="middle" x="725.13" y="-110.33" font-family="Times,serif" font-size="14.00">q4:1</text>
</g>
<!-- q2:242&#45;&gt;q4:1 -->
<g id="edge19" class="edge">
<title>q2:242&#45;&gt;q4:1</title>
<path fill="none" stroke="black" d="M538.25,-112.59C579.17,-113.12 638.78,-113.89 679.39,-114.42"/>
<polygon fill="black" stroke="black" points="679.26,-117.92 689.31,-114.55 679.35,-110.92 679.26,-117.92"/>
<text text-anchor="middle" x="608.31" y="-117.95" font-family="Times,serif" font-size="14.00">AUTH/λ:1</text>
</g>
<!-- q9:10 -->
<g id="node21" class="node">
<title>q9:10</title>
<ellipse fill="none" stroke="black" stroke-width="2" cx="954.27" cy="-171" rx="39.63" ry="18"/>
<text text-anchor="middle" x="954.27" y="-166.32" font-family="Times,serif" font-size="14.00">q9:10</text>
</g>
<!-- q6:10&#45;&gt;q9:10 -->
<g id="edge20" class="edge">
<title>q6:10&#45;&gt;q9:10</title>
<path fill="none" stroke="black" d="M765.69,-169.35C803.6,-169.68 861,-170.19 902.32,-170.55"/>
<polygon fill="black" stroke="black" points="902.24,-174.05 912.27,-170.64 902.3,-167.05 902.24,-174.05"/>
<text text-anchor="middle" x="839.7" y="-173.94" font-family="Times,serif" font-size="14.00">AUTH/334:10</text>
</g>
<!-- q5:233&#45;&gt;q7:611 -->
<g id="edge21" class="edge">
<title>q5:233&#45;&gt;q7:611</title>
<path fill="none" stroke="black" d="M769.12,-51.62C805.99,-57.31 859.31,-65.52 899.1,-71.65"/>
<polygon fill="black" stroke="black" points="898.55,-75.11 908.96,-73.17 899.61,-68.19 898.55,-75.11"/>
<text text-anchor="middle" x="839.7" y="-73.95" font-family="Times,serif" font-size="14.00">MAIL/250:230</text>
</g>
<!-- q8:3 -->
<g id="node22" class="node">
<title>q8:3</title>
<ellipse fill="none" stroke="black" stroke-width="2" cx="954.27" cy="-25" rx="33.32" ry="18"/>
<text text-anchor="middle" x="954.27" y="-20.32" font-family="Times,serif" font-size="14.00">q8:3</text>
</g>
<!-- q5:233&#45;&gt;q8:3 -->
<g id="edge22" class="edge">
<title>q5:233&#45;&gt;q8:3</title>
<path fill="none" stroke="black" d="M767.33,-36.88C774.55,-35.68 782.02,-34.57 789.08,-33.75 829.54,-29.07 875.9,-26.89 909.02,-25.88"/>
<polygon fill="black" stroke="black" points="908.74,-29.39 918.64,-25.61 908.54,-22.39 908.74,-29.39"/>
<text text-anchor="middle" x="839.7" y="-37.95" font-family="Times,serif" font-size="14.00">MAIL/553:3</text>
</g>
<!-- q4:1&#45;&gt;q7:611 -->
<g id="edge23" class="edge">
<title>q4:1&#45;&gt;q7:611</title>
<path fill="none" stroke="black" d="M758.26,-110.57C791.39,-105.95 844.53,-98.35 890.33,-91 893.51,-90.49 896.78,-89.95 900.08,-89.4"/>
<polygon fill="black" stroke="black" points="900.54,-92.87 909.82,-87.75 899.37,-85.97 900.54,-92.87"/>
<text text-anchor="middle" x="839.7" y="-108.95" font-family="Times,serif" font-size="14.00">MAIL/250:1</text>
</g>
<!-- q9:10&#45;&gt;q13:10 -->
<g id="edge24" class="edge">
<title>q9:10&#45;&gt;q13:10</title>
<path fill="none" stroke="black" d="M992.98,-176.35C1034.2,-182.21 1100.7,-191.65 1147.5,-198.3"/>
<polygon fill="black" stroke="black" points="1146.81,-201.74 1157.2,-199.67 1147.79,-194.81 1146.81,-201.74"/>
<text text-anchor="middle" x="1072.2" y="-197.94" font-family="Times,serif" font-size="14.00">content/535:10</text>
</g>
<!-- q12:3 -->
<g id="node23" class="node">
<title>q12:3</title>
<ellipse fill="none" stroke="black" stroke-width="2" cx="1202.8" cy="-24" rx="39.63" ry="18"/>
<text text-anchor="middle" x="1202.8" y="-19.32" font-family="Times,serif" font-size="14.00">q12:3</text>
</g>
<!-- q8:3&#45;&gt;q12:3 -->
<g id="edge25" class="edge">
<title>q8:3&#45;&gt;q12:3</title>
<path fill="none" stroke="black" d="M988.52,-24.86C1030.4,-24.7 1102.7,-24.4 1151.4,-24.2"/>
<polygon fill="black" stroke="black" points="1151.1,-27.71 1161.09,-24.17 1151.07,-20.71 1151.1,-27.71"/>
<text text-anchor="middle" x="1072.2" y="-28.95" font-family="Times,serif" font-size="14.00">RSET/250:3</text>
</g>
<!-- q1:244 -->
<g id="node24" class="node">
<title>q1:244</title>
<ellipse fill="none" stroke="black" stroke-width="2" cx="257.84" cy="-79" rx="45.95" ry="18"/>
<text text-anchor="middle" x="257.84" y="-74.33" font-family="Times,serif" font-size="14.00">q1:244</text>
</g>
<!-- q1:244&#45;&gt;q2:242 -->
<g id="edge26" class="edge">
<title>q1:244&#45;&gt;q2:242</title>
<path fill="none" stroke="black" d="M302.14,-85.17C340,-90.56 395.17,-98.42 436.02,-104.24"/>
<polygon fill="black" stroke="black" points="435.51,-107.7 445.9,-105.65 436.49,-100.77 435.51,-107.7"/>
<text text-anchor="middle" x="374.66" y="-105.95" font-family="Times,serif" font-size="14.00">EHLO/250:242</text>
</g>
<!-- q3:2 -->
<g id="node25" class="node">
<title>q3:2</title>
<ellipse fill="none" stroke="black" stroke-width="2" cx="491.48" cy="-52" rx="33.32" ry="18"/>
<text text-anchor="middle" x="491.48" y="-47.33" font-family="Times,serif" font-size="14.00">q3:2</text>
</g>
<!-- q1:244&#45;&gt;q3:2 -->
<g id="edge27" class="edge">
<title>q1:244&#45;&gt;q3:2</title>
<path fill="none" stroke="black" d="M298.66,-69.83C306.31,-68.29 314.27,-66.84 321.79,-65.75 363.67,-59.66 411.82,-56.07 445.93,-54.1"/>
<polygon fill="black" stroke="black" points="446.07,-57.59 455.86,-53.55 445.68,-50.6 446.07,-57.59"/>
<text text-anchor="middle" x="374.66" y="-69.95" font-family="Times,serif" font-size="14.00">EHLO/λ:2</text>
</g>
<!-- q3:2&#45;&gt;q5:233 -->
<g id="edge28" class="edge">
<title>q3:2&#45;&gt;q5:233</title>
<path fill="none" stroke="black" d="M523.05,-44.83C533.28,-42.76 544.79,-40.78 555.43,-39.75 593,-36.13 635.47,-37.48 668.4,-39.72"/>
<polygon fill="black" stroke="black" points="667.89,-43.19 678.12,-40.43 668.4,-36.21 667.89,-43.19"/>
<text text-anchor="middle" x="608.31" y="-43.95" font-family="Times,serif" font-size="14.00">AUTH/235:2</text>
</g>
<!-- q0:244 -->
<g id="node26" class="node">
<title>q0:244</title>
<ellipse fill="none" stroke="black" stroke-width="2" cx="53.95" cy="-79" rx="49.95" ry="49.95"/>
<ellipse fill="none" stroke="black" stroke-width="2" cx="53.95" cy="-79" rx="53.95" ry="53.95"/>
<text text-anchor="middle" x="53.95" y="-74.33" font-family="Times,serif" font-size="14.00">q0:244</text>
</g>
<!-- q0:244&#45;&gt;q1:244 -->
<g id="edge29" class="edge">
<title>q0:244&#45;&gt;q1:244</title>
<path fill="none" stroke="black" d="M104.85,-79C133.64,-79 169.94,-79 199.84,-79"/>
<polygon fill="black" stroke="black" points="199.45,-82.5 209.45,-79 199.45,-75.5 199.45,-82.5"/>
<text text-anchor="middle" x="157.89" y="-82.95" font-family="Times,serif" font-size="14.00">λ/220:244</text>
</g>
</g>
</svg>
