<?xml version="1.0" encoding="UTF-8" standalone="no"?>
<!DOCTYPE svg PUBLIC "-//W3C//DTD SVG 1.1//EN"
 "http://www.w3.org/Graphics/SVG/1.1/DTD/svg11.dtd">
<!-- Generated by graphviz version 12.0.0 (20240803.0821)
 -->
<!-- Pages: 1 -->
<svg width="2253pt" height="240pt"
 viewBox="0.00 0.00 2253.26 240.00" xmlns="http://www.w3.org/2000/svg" xmlns:xlink="http://www.w3.org/1999/xlink">
<g id="graph0" class="graph" transform="scale(1 1) rotate(0) translate(4 236)">
<polygon fill="white" stroke="none" points="-4,4 -4,-236 2249.26,-236 2249.26,4 -4,4"/>
<!-- q0:244 -->
<g id="node1" class="node">
<title>q0:244</title>
<ellipse fill="none" stroke="black" stroke-width="2" cx="53.95" cy="-112" rx="49.95" ry="49.95"/>
<ellipse fill="none" stroke="black" stroke-width="2" cx="53.95" cy="-112" rx="53.95" ry="53.95"/>
<text text-anchor="middle" x="53.95" y="-107.33" font-family="Times,serif" font-size="14.00">q0:244</text>
</g>
<!-- q1:244 -->
<g id="node2" class="node">
<title>q1:244</title>
<ellipse fill="none" stroke="black" stroke-width="2" cx="257.84" cy="-112" rx="45.95" ry="18"/>
<text text-anchor="middle" x="257.84" y="-107.33" font-family="Times,serif" font-size="14.00">q1:244</text>
</g>
<!-- q0:244&#45;&gt;q1:244 -->
<g id="edge1" class="edge">
<title>q0:244&#45;&gt;q1:244</title>
<path fill="none" stroke="black" d="M104.85,-112C133.64,-112 169.94,-112 199.84,-112"/>
<polygon fill="black" stroke="black" points="199.45,-115.5 209.45,-112 199.45,-108.5 199.45,-115.5"/>
<text text-anchor="middle" x="157.89" y="-115.95" font-family="Times,serif" font-size="14.00">λ/220:244</text>
</g>
<!-- q2:242 -->
<g id="node3" class="node">
<title>q2:242</title>
<ellipse fill="none" stroke="black" stroke-width="2" cx="491.48" cy="-145" rx="45.95" ry="18"/>
<text text-anchor="middle" x="491.48" y="-140.32" font-family="Times,serif" font-size="14.00">q2:242</text>
</g>
<!-- q1:244&#45;&gt;q2:242 -->
<g id="edge2" class="edge">
<title>q1:244&#45;&gt;q2:242</title>
<path fill="none" stroke="black" d="M302.14,-118.17C340,-123.56 395.17,-131.42 436.02,-137.24"/>
<polygon fill="black" stroke="black" points="435.51,-140.7 445.9,-138.65 436.49,-133.77 435.51,-140.7"/>
<text text-anchor="middle" x="374.66" y="-138.94" font-family="Times,serif" font-size="14.00">EHLO/250:242</text>
</g>
<!-- q3:2 -->
<g id="node4" class="node">
<title>q3:2</title>
<ellipse fill="none" stroke="black" stroke-width="2" cx="491.48" cy="-85" rx="33.32" ry="18"/>
<text text-anchor="middle" x="491.48" y="-80.33" font-family="Times,serif" font-size="14.00">q3:2</text>
</g>
<!-- q1:244&#45;&gt;q3:2 -->
<g id="edge3" class="edge">
<title>q1:244&#45;&gt;q3:2</title>
<path fill="none" stroke="black" d="M296.21,-101.12C304.56,-99.03 313.43,-97.08 321.79,-95.75 363.53,-89.09 411.69,-86.53 445.85,-85.55"/>
<polygon fill="black" stroke="black" points="445.89,-89.05 455.8,-85.31 445.71,-82.05 445.89,-89.05"/>
<text text-anchor="middle" x="374.66" y="-98.95" font-family="Times,serif" font-size="14.00">EHLO/λ:2</text>
</g>
<!-- q6:230 -->
<g id="node5" class="node">
<title>q6:230</title>
<ellipse fill="none" stroke="black" stroke-width="2" cx="725.13" cy="-85" rx="45.95" ry="18"/>
<text text-anchor="middle" x="725.13" y="-80.33" font-family="Times,serif" font-size="14.00">q6:230</text>
</g>
<!-- q2:242&#45;&gt;q6:230 -->
<g id="edge4" class="edge">
<title>q2:242&#45;&gt;q6:230</title>
<path fill="none" stroke="black" d="M518.34,-129.45C529.42,-123.41 542.72,-116.94 555.43,-112.75 591.87,-100.75 634.52,-93.79 667.82,-89.84"/>
<polygon fill="black" stroke="black" points="668.13,-93.33 677.68,-88.74 667.35,-86.37 668.13,-93.33"/>
<text text-anchor="middle" x="608.31" y="-115.95" font-family="Times,serif" font-size="14.00">AUTH/235:228</text>
</g>
<!-- q5:13 -->
<g id="node6" class="node">
<title>q5:13</title>
<ellipse fill="none" stroke="black" stroke-width="2" cx="725.13" cy="-199" rx="39.63" ry="18"/>
<text text-anchor="middle" x="725.13" y="-194.32" font-family="Times,serif" font-size="14.00">q5:13</text>
</g>
<!-- q2:242&#45;&gt;q5:13 -->
<g id="edge5" class="edge">
<title>q2:242&#45;&gt;q5:13</title>
<path fill="none" stroke="black" d="M521.02,-159.62C531.6,-164.52 543.84,-169.6 555.43,-173 594.51,-184.48 640.26,-191.13 674.25,-194.82"/>
<polygon fill="black" stroke="black" points="673.49,-198.26 683.79,-195.81 674.21,-191.3 673.49,-198.26"/>
<text text-anchor="middle" x="608.31" y="-196.94" font-family="Times,serif" font-size="14.00">AUTH/535:13</text>
</g>
<!-- q4:1 -->
<g id="node7" class="node">
<title>q4:1</title>
<ellipse fill="none" stroke="black" stroke-width="2" cx="839.7" cy="-151" rx="33.32" ry="18"/>
<text text-anchor="middle" x="839.7" y="-146.32" font-family="Times,serif" font-size="14.00">q4:1</text>
</g>
<!-- q2:242&#45;&gt;q4:1 -->
<g id="edge6" class="edge">
<title>q2:242&#45;&gt;q4:1</title>
<path fill="none" stroke="black" d="M538.1,-145.79C604.79,-146.95 728.13,-149.08 794.18,-150.23"/>
<polygon fill="black" stroke="black" points="793.87,-153.73 803.93,-150.39 793.99,-146.73 793.87,-153.73"/>
<text text-anchor="middle" x="608.31" y="-150.94" font-family="Times,serif" font-size="14.00">AUTH/λ:1</text>
</g>
<!-- q3:2&#45;&gt;q6:230 -->
<g id="edge7" class="edge">
<title>q3:2&#45;&gt;q6:230</title>
<path fill="none" stroke="black" d="M523.05,-77.83C533.28,-75.75 544.79,-73.78 555.43,-72.75 602.21,-68.24 614.4,-68.24 661.18,-72.75 665.01,-73.12 668.95,-73.61 672.91,-74.19"/>
<polygon fill="black" stroke="black" points="672.07,-77.6 682.51,-75.75 673.2,-70.69 672.07,-77.6"/>
<text text-anchor="middle" x="608.31" y="-76.95" font-family="Times,serif" font-size="14.00">AUTH/235:2</text>
</g>
<!-- q10:227 -->
<g id="node8" class="node">
<title>q10:227</title>
<ellipse fill="none" stroke="black" stroke-width="2" cx="960.59" cy="-105" rx="52.26" ry="18"/>
<text text-anchor="middle" x="960.59" y="-100.33" font-family="Times,serif" font-size="14.00">q10:227</text>
</g>
<!-- q6:230&#45;&gt;q10:227 -->
<g id="edge8" class="edge">
<title>q6:230&#45;&gt;q10:227</title>
<path fill="none" stroke="black" d="M770.87,-88.83C806.78,-91.91 857.6,-96.26 897.46,-99.68"/>
<polygon fill="black" stroke="black" points="897.15,-103.16 907.41,-100.53 897.75,-96.19 897.15,-103.16"/>
<text text-anchor="middle" x="839.7" y="-101.95" font-family="Times,serif" font-size="14.00">MAIL/250:227</text>
</g>
<!-- q9:3 -->
<g id="node9" class="node">
<title>q9:3</title>
<ellipse fill="none" stroke="black" stroke-width="2" cx="960.59" cy="-51" rx="33.32" ry="18"/>
<text text-anchor="middle" x="960.59" y="-46.33" font-family="Times,serif" font-size="14.00">q9:3</text>
</g>
<!-- q6:230&#45;&gt;q9:3 -->
<g id="edge9" class="edge">
<title>q6:230&#45;&gt;q9:3</title>
<path fill="none" stroke="black" d="M764.58,-74.86C772.63,-72.97 781.1,-71.15 789.08,-69.75 831.77,-62.26 881.03,-57.23 915.59,-54.28"/>
<polygon fill="black" stroke="black" points="915.53,-57.79 925.21,-53.48 914.96,-50.82 915.53,-57.79"/>
<text text-anchor="middle" x="839.7" y="-73.95" font-family="Times,serif" font-size="14.00">MAIL/553:3</text>
</g>
<!-- q8:13 -->
<g id="node10" class="node">
<title>q8:13</title>
<ellipse fill="none" stroke="black" stroke-width="2" cx="960.59" cy="-201" rx="39.63" ry="18"/>
<text text-anchor="middle" x="960.59" y="-196.32" font-family="Times,serif" font-size="14.00">q8:13</text>
</g>
<!-- q5:13&#45;&gt;q8:13 -->
<g id="edge10" class="edge">
<title>q5:13&#45;&gt;q8:13</title>
<path fill="none" stroke="black" d="M765.73,-199.34C805.17,-199.68 865.88,-200.2 908.84,-200.57"/>
<polygon fill="black" stroke="black" points="908.64,-204.07 918.67,-200.65 908.69,-197.07 908.64,-204.07"/>
<text text-anchor="middle" x="839.7" y="-203.94" font-family="Times,serif" font-size="14.00">AUTH/334:13</text>
</g>
<!-- q7:149 -->
<g id="node11" class="node">
<title>q7:149</title>
<ellipse fill="none" stroke="black" stroke-width="2" cx="1446.2" cy="-125" rx="45.95" ry="18"/>
<text text-anchor="middle" x="1446.2" y="-120.33" font-family="Times,serif" font-size="14.00">q7:149</text>
</g>
<!-- q4:1&#45;&gt;q7:149 -->
<g id="edge11" class="edge">
<title>q4:1&#45;&gt;q7:149</title>
<path fill="none" stroke="black" d="M873.78,-152C958.57,-154.17 1190.5,-157.56 1382.1,-137 1385.8,-136.61 1389.5,-136.12 1393.3,-135.56"/>
<polygon fill="black" stroke="black" points="1393.8,-139.02 1403.11,-133.96 1392.67,-132.12 1393.8,-139.02"/>
<text text-anchor="middle" x="1084.8" y="-156.94" font-family="Times,serif" font-size="14.00">MAIL/250:1</text>
</g>
<!-- q15:227 -->
<g id="node12" class="node">
<title>q15:227</title>
<ellipse fill="none" stroke="black" stroke-width="2" cx="1209.1" cy="-105" rx="52.26" ry="18"/>
<text text-anchor="middle" x="1209.1" y="-100.33" font-family="Times,serif" font-size="14.00">q15:227</text>
</g>
<!-- q10:227&#45;&gt;q15:227 -->
<g id="edge12" class="edge">
<title>q10:227&#45;&gt;q15:227</title>
<path fill="none" stroke="black" d="M1013.6,-105C1051.8,-105 1104.1,-105 1144.8,-105"/>
<polygon fill="black" stroke="black" points="1144.69,-108.5 1154.69,-105 1144.69,-101.5 1144.69,-108.5"/>
<text text-anchor="middle" x="1084.8" y="-108.95" font-family="Times,serif" font-size="14.00">RCPT/250:227</text>
</g>
<!-- q14:3 -->
<g id="node21" class="node">
<title>q14:3</title>
<ellipse fill="none" stroke="black" stroke-width="2" cx="1209.1" cy="-51" rx="39.63" ry="18"/>
<text text-anchor="middle" x="1209.1" y="-46.33" font-family="Times,serif" font-size="14.00">q14:3</text>
</g>
<!-- q9:3&#45;&gt;q14:3 -->
<g id="edge25" class="edge">
<title>q9:3&#45;&gt;q14:3</title>
<path fill="none" stroke="black" d="M994.83,-51C1036.7,-51 1109,-51 1157.7,-51"/>
<polygon fill="black" stroke="black" points="1157.39,-54.5 1167.39,-51 1157.39,-47.5 1157.39,-54.5"/>
<text text-anchor="middle" x="1084.8" y="-54.95" font-family="Times,serif" font-size="14.00">RSET/250:3</text>
</g>
<!-- q13:13 -->
<g id="node22" class="node">
<title>q13:13</title>
<ellipse fill="none" stroke="black" stroke-width="2" cx="1209.1" cy="-205" rx="45.95" ry="18"/>
<text text-anchor="middle" x="1209.1" y="-200.32" font-family="Times,serif" font-size="14.00">q13:13</text>
</g>
<!-- q8:13&#45;&gt;q13:13 -->
<g id="edge27" class="edge">
<title>q8:13&#45;&gt;q13:13</title>
<path fill="none" stroke="black" d="M1001.19,-201.64C1041.7,-202.3 1105.1,-203.33 1151,-204.07"/>
<polygon fill="black" stroke="black" points="1150.73,-207.57 1160.79,-204.23 1150.85,-200.57 1150.73,-207.57"/>
<text text-anchor="middle" x="1084.8" y="-206.94" font-family="Times,serif" font-size="14.00">content/535:13</text>
</g>
<!-- q7:149&#45;&gt;q7:149 -->
<g id="edge15" class="edge">
<title>q7:149&#45;&gt;q7:149</title>
<path fill="none" stroke="black" d="M1425.9,-142.04C1421.8,-151.86 1428.5,-161 1446.2,-161 1456.5,-161 1463.1,-157.94 1466,-153.47"/>
<polygon fill="black" stroke="black" points="1469.49,-153.72 1466.52,-143.55 1462.5,-153.35 1469.49,-153.72"/>
<text text-anchor="middle" x="1446.2" y="-164.94" font-family="Times,serif" font-size="14.00">RCPT/250:9</text>
</g>
<!-- q11:3030 -->
<g id="node13" class="node">
<title>q11:3030</title>
<ellipse fill="none" stroke="black" stroke-width="2" cx="1688.2" cy="-72" rx="58.57" ry="18"/>
<text text-anchor="middle" x="1688.2" y="-67.33" font-family="Times,serif" font-size="14.00">q11:3030</text>
</g>
<!-- q7:149&#45;&gt;q11:3030 -->
<g id="edge16" class="edge">
<title>q7:149&#45;&gt;q11:3030</title>
<path fill="none" stroke="black" d="M1487.7,-116.07C1526.1,-107.57 1584.4,-94.7 1628.1,-85.05"/>
<polygon fill="black" stroke="black" points="1628.62,-88.52 1637.62,-82.94 1627.1,-81.69 1628.62,-88.52"/>
<text text-anchor="middle" x="1561" y="-113.95" font-family="Times,serif" font-size="14.00">DATA/354:112</text>
</g>
<!-- q12:28 -->
<g id="node14" class="node">
<title>q12:28</title>
<ellipse fill="none" stroke="black" stroke-width="2" cx="1688.2" cy="-161" rx="45.95" ry="18"/>
<text text-anchor="middle" x="1688.2" y="-156.32" font-family="Times,serif" font-size="14.00">q12:28</text>
</g>
<!-- q7:149&#45;&gt;q12:28 -->
<g id="edge17" class="edge">
<title>q7:149&#45;&gt;q12:28</title>
<path fill="none" stroke="black" d="M1490.1,-131.44C1530.1,-137.43 1589.9,-146.4 1633.1,-152.88"/>
<polygon fill="black" stroke="black" points="1632.39,-156.31 1642.8,-154.34 1633.43,-149.39 1632.39,-156.31"/>
<text text-anchor="middle" x="1561" y="-152.94" font-family="Times,serif" font-size="14.00">DATA/550:28</text>
</g>
<!-- q15:227&#45;&gt;q7:149 -->
<g id="edge13" class="edge">
<title>q15:227&#45;&gt;q7:149</title>
<path fill="none" stroke="black" d="M1260.8,-109.32C1298.6,-112.53 1350.1,-116.91 1389.1,-120.23"/>
<polygon fill="black" stroke="black" points="1388.73,-123.71 1398.99,-121.07 1389.32,-116.74 1388.73,-123.71"/>
<text text-anchor="middle" x="1330.7" y="-122.95" font-family="Times,serif" font-size="14.00">RCPT/250:139</text>
</g>
<!-- q15:227&#45;&gt;q11:3030 -->
<g id="edge14" class="edge">
<title>q15:227&#45;&gt;q11:3030</title>
<path fill="none" stroke="black" d="M1258,-97.59C1296.3,-91.97 1351.5,-84.58 1400.1,-80.75 1474.2,-74.91 1559.4,-72.9 1617.5,-72.25"/>
<polygon fill="black" stroke="black" points="1617.32,-75.75 1627.29,-72.15 1617.25,-68.75 1617.32,-75.75"/>
<text text-anchor="middle" x="1446.2" y="-84.95" font-family="Times,serif" font-size="14.00">DATA/354:88</text>
</g>
<!-- q11:3030&#45;&gt;q11:3030 -->
<g id="edge18" class="edge">
<title>q11:3030&#45;&gt;q11:3030</title>
<path fill="none" stroke="black" d="M1665.5,-89.41C1661.2,-99.09 1668.8,-108 1688.2,-108 1699.4,-108 1706.6,-105.02 1710,-100.64"/>
<polygon fill="black" stroke="black" points="1713.47,-101.17 1710.78,-90.92 1706.49,-100.61 1713.47,-101.17"/>
<text text-anchor="middle" x="1688.2" y="-111.95" font-family="Times,serif" font-size="14.00">content/λ:2830</text>
</g>
<!-- q16:1 -->
<g id="node15" class="node">
<title>q16:1</title>
<ellipse fill="none" stroke="black" stroke-width="2" cx="1952" cy="-126" rx="39.63" ry="18"/>
<text text-anchor="middle" x="1952" y="-121.33" font-family="Times,serif" font-size="14.00">q16:1</text>
</g>
<!-- q11:3030&#45;&gt;q16:1 -->
<g id="edge19" class="edge">
<title>q11:3030&#45;&gt;q16:1</title>
<path fill="none" stroke="black" d="M1732.2,-84.71C1742.8,-87.63 1754.1,-90.59 1764.8,-93 1811.1,-103.51 1864.5,-112.67 1902.2,-118.66"/>
<polygon fill="black" stroke="black" points="1901.48,-122.09 1911.9,-120.18 1902.56,-115.17 1901.48,-122.09"/>
<text text-anchor="middle" x="1823.3" y="-118.95" font-family="Times,serif" font-size="14.00">content/550:1</text>
</g>
<!-- q17:125 -->
<g id="node16" class="node">
<title>q17:125</title>
<ellipse fill="none" stroke="black" stroke-width="2" cx="1952" cy="-72" rx="52.26" ry="18"/>
<text text-anchor="middle" x="1952" y="-67.33" font-family="Times,serif" font-size="14.00">q17:125</text>
</g>
<!-- q11:3030&#45;&gt;q17:125 -->
<g id="edge20" class="edge">
<title>q11:3030&#45;&gt;q17:125</title>
<path fill="none" stroke="black" d="M1747.6,-72C1789.2,-72 1845,-72 1887.6,-72"/>
<polygon fill="black" stroke="black" points="1887.49,-75.5 1897.49,-72 1887.49,-68.5 1887.49,-75.5"/>
<text text-anchor="middle" x="1823.3" y="-75.95" font-family="Times,serif" font-size="14.00">content/250:125</text>
</g>
<!-- q18:74 -->
<g id="node17" class="node">
<title>q18:74</title>
<ellipse fill="none" stroke="black" stroke-width="2" cx="1952" cy="-18" rx="45.95" ry="18"/>
<text text-anchor="middle" x="1952" y="-13.32" font-family="Times,serif" font-size="14.00">q18:74</text>
</g>
<!-- q11:3030&#45;&gt;q18:74 -->
<g id="edge21" class="edge">
<title>q11:3030&#45;&gt;q18:74</title>
<path fill="none" stroke="black" d="M1731.8,-59.23C1742.5,-56.23 1754,-53.2 1764.8,-50.75 1808.9,-40.7 1859.4,-31.98 1896.7,-26.07"/>
<polygon fill="black" stroke="black" points="1897.06,-29.56 1906.4,-24.57 1895.98,-22.64 1897.06,-29.56"/>
<text text-anchor="middle" x="1823.3" y="-54.95" font-family="Times,serif" font-size="14.00">content/554:74</text>
</g>
<!-- q20:1 -->
<g id="node18" class="node">
<title>q20:1</title>
<ellipse fill="none" stroke="black" stroke-width="2" cx="2193" cy="-126" rx="39.63" ry="18"/>
<text text-anchor="middle" x="2193" y="-121.33" font-family="Times,serif" font-size="14.00">q20:1</text>
</g>
<!-- q16:1&#45;&gt;q20:1 -->
<g id="edge22" class="edge">
<title>q16:1&#45;&gt;q20:1</title>
<path fill="none" stroke="black" d="M1992.5,-126C2033.1,-126 2096.7,-126 2141.1,-126"/>
<polygon fill="black" stroke="black" points="2140.99,-129.5 2150.99,-126 2140.99,-122.5 2140.99,-129.5"/>
<text text-anchor="middle" x="2072.5" y="-129.94" font-family="Times,serif" font-size="14.00">RSET/250:1</text>
</g>
<!-- q21:125 -->
<g id="node19" class="node">
<title>q21:125</title>
<ellipse fill="none" stroke="black" stroke-width="2" cx="2193" cy="-72" rx="52.26" ry="18"/>
<text text-anchor="middle" x="2193" y="-67.33" font-family="Times,serif" font-size="14.00">q21:125</text>
</g>
<!-- q17:125&#45;&gt;q21:125 -->
<g id="edge23" class="edge">
<title>q17:125&#45;&gt;q21:125</title>
<path fill="none" stroke="black" d="M2005.2,-72C2041.6,-72 2090.3,-72 2128.9,-72"/>
<polygon fill="black" stroke="black" points="2128.49,-75.5 2138.49,-72 2128.49,-68.5 2128.49,-75.5"/>
<text text-anchor="middle" x="2072.5" y="-75.95" font-family="Times,serif" font-size="14.00">QUIT/221:125</text>
</g>
<!-- q22:74 -->
<g id="node20" class="node">
<title>q22:74</title>
<ellipse fill="none" stroke="black" stroke-width="2" cx="2193" cy="-18" rx="45.95" ry="18"/>
<text text-anchor="middle" x="2193" y="-13.32" font-family="Times,serif" font-size="14.00">q22:74</text>
</g>
<!-- q18:74&#45;&gt;q22:74 -->
<g id="edge24" class="edge">
<title>q18:74&#45;&gt;q22:74</title>
<path fill="none" stroke="black" d="M1998.8,-18C2037.6,-18 2093.4,-18 2135,-18"/>
<polygon fill="black" stroke="black" points="2134.89,-21.5 2144.89,-18 2134.89,-14.5 2134.89,-21.5"/>
<text text-anchor="middle" x="2072.5" y="-21.95" font-family="Times,serif" font-size="14.00">RSET/250:74</text>
</g>
<!-- q19:4 -->
<g id="node23" class="node">
<title>q19:4</title>
<ellipse fill="none" stroke="black" stroke-width="2" cx="1446.2" cy="-214" rx="39.63" ry="18"/>
<text text-anchor="middle" x="1446.2" y="-209.32" font-family="Times,serif" font-size="14.00">q19:4</text>
</g>
<!-- q13:13&#45;&gt;q19:4 -->
<g id="edge26" class="edge">
<title>q13:13&#45;&gt;q19:4</title>
<path fill="none" stroke="black" d="M1255.7,-206.75C1295.6,-208.27 1353.3,-210.48 1394.6,-212.06"/>
<polygon fill="black" stroke="black" points="1394.36,-215.55 1404.49,-212.44 1394.63,-208.56 1394.36,-215.55"/>
<text text-anchor="middle" x="1330.7" y="-214.94" font-family="Times,serif" font-size="14.00">λ/451:4</text>
</g>
</g>
</svg>
