<?xml version="1.0" encoding="UTF-8" standalone="no"?>
<!DOCTYPE svg PUBLIC "-//W3C//DTD SVG 1.1//EN"
 "http://www.w3.org/Graphics/SVG/1.1/DTD/svg11.dtd">
<!-- Generated by graphviz version 12.0.0 (20240803.0821)
 -->
<!-- Pages: 1 -->
<svg width="2471pt" height="246pt"
 viewBox="0.00 0.00 2470.85 246.00" xmlns="http://www.w3.org/2000/svg" xmlns:xlink="http://www.w3.org/1999/xlink">
<g id="graph0" class="graph" transform="scale(1 1) rotate(0) translate(4 242)">
<polygon fill="white" stroke="none" points="-4,4 -4,-242 2466.85,-242 2466.85,4 -4,4"/>
<!-- q14:1716 -->
<g id="node1" class="node">
<title>q14:1716</title>
<ellipse fill="none" stroke="black" stroke-width="2" cx="1687.8" cy="-88" rx="58.57" ry="18"/>
<text text-anchor="middle" x="1687.8" y="-83.33" font-family="Times,serif" font-size="14.00">q14:1716</text>
</g>
<!-- q18:1553 -->
<g id="node2" class="node">
<title>q18:1553</title>
<ellipse fill="none" stroke="black" stroke-width="2" cx="1949" cy="-142" rx="58.57" ry="18"/>
<text text-anchor="middle" x="1949" y="-137.32" font-family="Times,serif" font-size="14.00">q18:1553</text>
</g>
<!-- q14:1716&#45;&gt;q18:1553 -->
<g id="edge1" class="edge">
<title>q14:1716&#45;&gt;q18:1553</title>
<path fill="none" stroke="black" d="M1715.8,-104.71C1729.8,-112.54 1747.5,-121.19 1764.4,-126 1801,-136.39 1843.3,-140.58 1878,-142.09"/>
<polygon fill="black" stroke="black" points="1877.87,-145.59 1887.99,-142.45 1878.12,-138.59 1877.87,-145.59"/>
<text text-anchor="middle" x="1818.4" y="-145.94" font-family="Times,serif" font-size="14.00">content/λ:1553</text>
</g>
<!-- q19:90 -->
<g id="node3" class="node">
<title>q19:90</title>
<ellipse fill="none" stroke="black" stroke-width="2" cx="1949" cy="-72" rx="45.95" ry="18"/>
<text text-anchor="middle" x="1949" y="-67.33" font-family="Times,serif" font-size="14.00">q19:90</text>
</g>
<!-- q14:1716&#45;&gt;q19:90 -->
<g id="edge2" class="edge">
<title>q14:1716&#45;&gt;q19:90</title>
<path fill="none" stroke="black" d="M1731.6,-75.12C1742.2,-72.48 1753.7,-70.1 1764.4,-68.75 1806.9,-63.42 1855.4,-64.58 1891.9,-66.89"/>
<polygon fill="black" stroke="black" points="1891.57,-70.38 1901.79,-67.57 1892.05,-63.39 1891.57,-70.38"/>
<text text-anchor="middle" x="1818.4" y="-72.95" font-family="Times,serif" font-size="14.00">content/250:90</text>
</g>
<!-- q17:73 -->
<g id="node4" class="node">
<title>q17:73</title>
<ellipse fill="none" stroke="black" stroke-width="2" cx="1949" cy="-18" rx="45.95" ry="18"/>
<text text-anchor="middle" x="1949" y="-13.32" font-family="Times,serif" font-size="14.00">q17:73</text>
</g>
<!-- q14:1716&#45;&gt;q17:73 -->
<g id="edge3" class="edge">
<title>q14:1716&#45;&gt;q17:73</title>
<path fill="none" stroke="black" d="M1712.5,-70.89C1726.8,-61.38 1745.9,-50.19 1764.4,-43.75 1805.5,-29.48 1854.3,-23.1 1891.2,-20.26"/>
<polygon fill="black" stroke="black" points="1891.06,-23.78 1900.79,-19.59 1890.57,-16.79 1891.06,-23.78"/>
<text text-anchor="middle" x="1818.4" y="-47.95" font-family="Times,serif" font-size="14.00">content/554:73</text>
</g>
<!-- q18:1553&#45;&gt;q14:1716 -->
<g id="edge4" class="edge">
<title>q18:1553&#45;&gt;q14:1716</title>
<path fill="none" stroke="black" d="M1920.6,-125.47C1906.7,-117.85 1889.2,-109.47 1872.4,-104.75 1835.7,-94.42 1793.5,-90.08 1758.8,-88.39"/>
<polygon fill="black" stroke="black" points="1758.95,-84.89 1748.81,-87.97 1758.66,-91.88 1758.95,-84.89"/>
<text text-anchor="middle" x="1818.4" y="-108.95" font-family="Times,serif" font-size="14.00">content/λ:1507</text>
</g>
<!-- q21:1 -->
<g id="node5" class="node">
<title>q21:1</title>
<ellipse fill="none" stroke="black" stroke-width="2" cx="2197.5" cy="-189" rx="39.63" ry="18"/>
<text text-anchor="middle" x="2197.5" y="-184.32" font-family="Times,serif" font-size="14.00">q21:1</text>
</g>
<!-- q18:1553&#45;&gt;q21:1 -->
<g id="edge5" class="edge">
<title>q18:1553&#45;&gt;q21:1</title>
<path fill="none" stroke="black" d="M1995,-153.98C2005,-156.46 2015.6,-158.94 2025.6,-161 2066.4,-169.47 2113.2,-176.99 2147.5,-182.09"/>
<polygon fill="black" stroke="black" points="2146.7,-185.51 2157.1,-183.51 2147.72,-178.58 2146.7,-185.51"/>
<text text-anchor="middle" x="2079.6" y="-182.94" font-family="Times,serif" font-size="14.00">content/554:1</text>
</g>
<!-- q22:45 -->
<g id="node6" class="node">
<title>q22:45</title>
<ellipse fill="none" stroke="black" stroke-width="2" cx="2197.5" cy="-135" rx="45.95" ry="18"/>
<text text-anchor="middle" x="2197.5" y="-130.32" font-family="Times,serif" font-size="14.00">q22:45</text>
</g>
<!-- q18:1553&#45;&gt;q22:45 -->
<g id="edge6" class="edge">
<title>q18:1553&#45;&gt;q22:45</title>
<path fill="none" stroke="black" d="M2008.1,-140.35C2047.7,-139.22 2100,-137.74 2139.4,-136.62"/>
<polygon fill="black" stroke="black" points="2139.29,-140.12 2149.19,-136.34 2139.09,-133.13 2139.29,-140.12"/>
<text text-anchor="middle" x="2079.6" y="-143.94" font-family="Times,serif" font-size="14.00">content/250:45</text>
</g>
<!-- q23:90 -->
<g id="node7" class="node">
<title>q23:90</title>
<ellipse fill="none" stroke="black" stroke-width="2" cx="2197.5" cy="-72" rx="45.95" ry="18"/>
<text text-anchor="middle" x="2197.5" y="-67.33" font-family="Times,serif" font-size="14.00">q23:90</text>
</g>
<!-- q19:90&#45;&gt;q23:90 -->
<g id="edge7" class="edge">
<title>q19:90&#45;&gt;q23:90</title>
<path fill="none" stroke="black" d="M1995.8,-72C2036.4,-72 2096,-72 2139.6,-72"/>
<polygon fill="black" stroke="black" points="2139.49,-75.5 2149.49,-72 2139.49,-68.5 2139.49,-75.5"/>
<text text-anchor="middle" x="2079.6" y="-75.95" font-family="Times,serif" font-size="14.00">QUIT/221:90</text>
</g>
<!-- q20:73 -->
<g id="node8" class="node">
<title>q20:73</title>
<ellipse fill="none" stroke="black" stroke-width="2" cx="2197.5" cy="-18" rx="45.95" ry="18"/>
<text text-anchor="middle" x="2197.5" y="-13.32" font-family="Times,serif" font-size="14.00">q20:73</text>
</g>
<!-- q17:73&#45;&gt;q20:73 -->
<g id="edge8" class="edge">
<title>q17:73&#45;&gt;q20:73</title>
<path fill="none" stroke="black" d="M1995.8,-18C2036.4,-18 2096,-18 2139.6,-18"/>
<polygon fill="black" stroke="black" points="2139.49,-21.5 2149.49,-18 2139.49,-14.5 2139.49,-21.5"/>
<text text-anchor="middle" x="2079.6" y="-21.95" font-family="Times,serif" font-size="14.00">RSET/250:73</text>
</g>
<!-- q24:1 -->
<g id="node9" class="node">
<title>q24:1</title>
<ellipse fill="none" stroke="black" stroke-width="2" cx="2416.9" cy="-189" rx="39.63" ry="18"/>
<text text-anchor="middle" x="2416.9" y="-184.32" font-family="Times,serif" font-size="14.00">q24:1</text>
</g>
<!-- q21:1&#45;&gt;q24:1 -->
<g id="edge9" class="edge">
<title>q21:1&#45;&gt;q24:1</title>
<path fill="none" stroke="black" d="M2238.1,-189C2273.9,-189 2326.7,-189 2365.5,-189"/>
<polygon fill="black" stroke="black" points="2364.99,-192.5 2374.99,-189 2364.99,-185.5 2364.99,-192.5"/>
<text text-anchor="middle" x="2307.2" y="-192.94" font-family="Times,serif" font-size="14.00">RSET/250:1</text>
</g>
<!-- q25:45 -->
<g id="node10" class="node">
<title>q25:45</title>
<ellipse fill="none" stroke="black" stroke-width="2" cx="2416.9" cy="-135" rx="45.95" ry="18"/>
<text text-anchor="middle" x="2416.9" y="-130.32" font-family="Times,serif" font-size="14.00">q25:45</text>
</g>
<!-- q22:45&#45;&gt;q25:45 -->
<g id="edge10" class="edge">
<title>q22:45&#45;&gt;q25:45</title>
<path fill="none" stroke="black" d="M2244.3,-135C2277.7,-135 2323.2,-135 2358.9,-135"/>
<polygon fill="black" stroke="black" points="2358.59,-138.5 2368.59,-135 2358.59,-131.5 2358.59,-138.5"/>
<text text-anchor="middle" x="2307.2" y="-138.94" font-family="Times,serif" font-size="14.00">QUIT/221:45</text>
</g>
<!-- q3:243 -->
<g id="node11" class="node">
<title>q3:243</title>
<ellipse fill="none" stroke="black" stroke-width="2" cx="491.48" cy="-158" rx="45.95" ry="18"/>
<text text-anchor="middle" x="491.48" y="-153.32" font-family="Times,serif" font-size="14.00">q3:243</text>
</g>
<!-- q4:231 -->
<g id="node12" class="node">
<title>q4:231</title>
<ellipse fill="none" stroke="black" stroke-width="2" cx="725.13" cy="-91" rx="45.95" ry="18"/>
<text text-anchor="middle" x="725.13" y="-86.33" font-family="Times,serif" font-size="14.00">q4:231</text>
</g>
<!-- q3:243&#45;&gt;q4:231 -->
<g id="edge11" class="edge">
<title>q3:243&#45;&gt;q4:231</title>
<path fill="none" stroke="black" d="M527.32,-145.82C536.44,-142.75 546.27,-139.54 555.43,-136.75 595.08,-124.69 640.43,-112.48 674.12,-103.71"/>
<polygon fill="black" stroke="black" points="674.8,-107.15 683.6,-101.25 673.05,-100.37 674.8,-107.15"/>
<text text-anchor="middle" x="608.31" y="-140.94" font-family="Times,serif" font-size="14.00">AUTH/235:230</text>
</g>
<!-- q6:12 -->
<g id="node13" class="node">
<title>q6:12</title>
<ellipse fill="none" stroke="black" stroke-width="2" cx="725.13" cy="-215" rx="39.63" ry="18"/>
<text text-anchor="middle" x="725.13" y="-210.32" font-family="Times,serif" font-size="14.00">q6:12</text>
</g>
<!-- q3:243&#45;&gt;q6:12 -->
<g id="edge12" class="edge">
<title>q3:243&#45;&gt;q6:12</title>
<path fill="none" stroke="black" d="M525.17,-171.01C534.82,-174.56 545.46,-178.19 555.43,-181 595.35,-192.25 641.58,-201.29 675.53,-207.22"/>
<polygon fill="black" stroke="black" points="674.61,-210.61 685.06,-208.85 675.79,-203.71 674.61,-210.61"/>
<text text-anchor="middle" x="608.31" y="-207.94" font-family="Times,serif" font-size="14.00">AUTH/535:12</text>
</g>
<!-- q5:1 -->
<g id="node14" class="node">
<title>q5:1</title>
<ellipse fill="none" stroke="black" stroke-width="2" cx="725.13" cy="-161" rx="33.32" ry="18"/>
<text text-anchor="middle" x="725.13" y="-156.32" font-family="Times,serif" font-size="14.00">q5:1</text>
</g>
<!-- q3:243&#45;&gt;q5:1 -->
<g id="edge13" class="edge">
<title>q3:243&#45;&gt;q5:1</title>
<path fill="none" stroke="black" d="M538.25,-158.59C579.17,-159.12 638.78,-159.89 679.39,-160.42"/>
<polygon fill="black" stroke="black" points="679.26,-163.92 689.31,-160.55 679.35,-156.92 679.26,-163.92"/>
<text text-anchor="middle" x="608.31" y="-163.94" font-family="Times,serif" font-size="14.00">AUTH/λ:1</text>
</g>
<!-- q8:3 -->
<g id="node15" class="node">
<title>q8:3</title>
<ellipse fill="none" stroke="black" stroke-width="2" cx="954.27" cy="-77" rx="33.32" ry="18"/>
<text text-anchor="middle" x="954.27" y="-72.33" font-family="Times,serif" font-size="14.00">q8:3</text>
</g>
<!-- q4:231&#45;&gt;q8:3 -->
<g id="edge14" class="edge">
<title>q4:231&#45;&gt;q8:3</title>
<path fill="none" stroke="black" d="M768.71,-84.05C775.51,-83.14 782.47,-82.33 789.08,-81.75 829.61,-78.2 875.96,-77.13 909.06,-76.88"/>
<polygon fill="black" stroke="black" points="908.68,-80.38 918.67,-76.83 908.65,-73.38 908.68,-80.38"/>
<text text-anchor="middle" x="839.7" y="-85.95" font-family="Times,serif" font-size="14.00">MAIL/553:3</text>
</g>
<!-- q7:229 -->
<g id="node16" class="node">
<title>q7:229</title>
<ellipse fill="none" stroke="black" stroke-width="2" cx="954.27" cy="-131" rx="45.95" ry="18"/>
<text text-anchor="middle" x="954.27" y="-126.33" font-family="Times,serif" font-size="14.00">q7:229</text>
</g>
<!-- q4:231&#45;&gt;q7:229 -->
<g id="edge15" class="edge">
<title>q4:231&#45;&gt;q7:229</title>
<path fill="none" stroke="black" d="M768.71,-97.9C801.88,-103.35 849.08,-111.25 890.33,-118.75 893.72,-119.37 897.22,-120.01 900.74,-120.68"/>
<polygon fill="black" stroke="black" points="900.03,-124.11 910.5,-122.53 901.33,-117.23 900.03,-124.11"/>
<text text-anchor="middle" x="839.7" y="-122.95" font-family="Times,serif" font-size="14.00">MAIL/250:228</text>
</g>
<!-- q9:12 -->
<g id="node17" class="node">
<title>q9:12</title>
<ellipse fill="none" stroke="black" stroke-width="2" cx="954.27" cy="-217" rx="39.63" ry="18"/>
<text text-anchor="middle" x="954.27" y="-212.32" font-family="Times,serif" font-size="14.00">q9:12</text>
</g>
<!-- q6:12&#45;&gt;q9:12 -->
<g id="edge16" class="edge">
<title>q6:12&#45;&gt;q9:12</title>
<path fill="none" stroke="black" d="M765.69,-215.35C803.6,-215.68 861,-216.19 902.32,-216.55"/>
<polygon fill="black" stroke="black" points="902.24,-220.05 912.27,-216.64 902.3,-213.05 902.24,-220.05"/>
<text text-anchor="middle" x="839.7" y="-219.94" font-family="Times,serif" font-size="14.00">AUTH/334:12</text>
</g>
<!-- q5:1&#45;&gt;q7:229 -->
<g id="edge17" class="edge">
<title>q5:1&#45;&gt;q7:229</title>
<path fill="none" stroke="black" d="M758.19,-156.77C794.56,-151.96 854.51,-144.04 898.36,-138.25"/>
<polygon fill="black" stroke="black" points="898.75,-141.73 908.21,-136.95 897.84,-134.79 898.75,-141.73"/>
<text text-anchor="middle" x="839.7" y="-155.94" font-family="Times,serif" font-size="14.00">MAIL/250:1</text>
</g>
<!-- q11:3 -->
<g id="node18" class="node">
<title>q11:3</title>
<ellipse fill="none" stroke="black" stroke-width="2" cx="1196.5" cy="-77" rx="39.63" ry="18"/>
<text text-anchor="middle" x="1196.5" y="-72.33" font-family="Times,serif" font-size="14.00">q11:3</text>
</g>
<!-- q8:3&#45;&gt;q11:3 -->
<g id="edge18" class="edge">
<title>q8:3&#45;&gt;q11:3</title>
<path fill="none" stroke="black" d="M988.42,-77C1028.8,-77 1097.3,-77 1144.4,-77"/>
<polygon fill="black" stroke="black" points="1144.39,-80.5 1154.39,-77 1144.39,-73.5 1144.39,-80.5"/>
<text text-anchor="middle" x="1072.2" y="-80.95" font-family="Times,serif" font-size="14.00">RSET/250:3</text>
</g>
<!-- q10:229 -->
<g id="node19" class="node">
<title>q10:229</title>
<ellipse fill="none" stroke="black" stroke-width="2" cx="1196.5" cy="-131" rx="52.26" ry="18"/>
<text text-anchor="middle" x="1196.5" y="-126.33" font-family="Times,serif" font-size="14.00">q10:229</text>
</g>
<!-- q7:229&#45;&gt;q10:229 -->
<g id="edge19" class="edge">
<title>q7:229&#45;&gt;q10:229</title>
<path fill="none" stroke="black" d="M1001.02,-131C1038.1,-131 1090.8,-131 1131.9,-131"/>
<polygon fill="black" stroke="black" points="1131.69,-134.5 1141.69,-131 1131.69,-127.5 1131.69,-134.5"/>
<text text-anchor="middle" x="1072.2" y="-134.94" font-family="Times,serif" font-size="14.00">RCPT/250:229</text>
</g>
<!-- q12:12 -->
<g id="node20" class="node">
<title>q12:12</title>
<ellipse fill="none" stroke="black" stroke-width="2" cx="1196.5" cy="-220" rx="45.95" ry="18"/>
<text text-anchor="middle" x="1196.5" y="-215.32" font-family="Times,serif" font-size="14.00">q12:12</text>
</g>
<!-- q9:12&#45;&gt;q12:12 -->
<g id="edge20" class="edge">
<title>q9:12&#45;&gt;q12:12</title>
<path fill="none" stroke="black" d="M994.67,-217.49C1033.8,-217.98 1094.1,-218.73 1138.4,-219.29"/>
<polygon fill="black" stroke="black" points="1138.34,-222.79 1148.39,-219.41 1138.43,-215.79 1138.34,-222.79"/>
<text text-anchor="middle" x="1072.2" y="-222.94" font-family="Times,serif" font-size="14.00">content/535:12</text>
</g>
<!-- q10:229&#45;&gt;q14:1716 -->
<g id="edge21" class="edge">
<title>q10:229&#45;&gt;q14:1716</title>
<path fill="none" stroke="black" d="M1237.4,-118.88C1275.5,-107.99 1334.8,-92.8 1387.5,-86.75 1466.3,-77.69 1557.6,-79.88 1618.4,-83.13"/>
<polygon fill="black" stroke="black" points="1618.11,-86.62 1628.29,-83.68 1618.5,-79.63 1618.11,-86.62"/>
<text text-anchor="middle" x="1439.8" y="-90.95" font-family="Times,serif" font-size="14.00">DATA/354:90</text>
</g>
<!-- q13:147 -->
<g id="node21" class="node">
<title>q13:147</title>
<ellipse fill="none" stroke="black" stroke-width="2" cx="1439.8" cy="-131" rx="52.26" ry="18"/>
<text text-anchor="middle" x="1439.8" y="-126.33" font-family="Times,serif" font-size="14.00">q13:147</text>
</g>
<!-- q10:229&#45;&gt;q13:147 -->
<g id="edge22" class="edge">
<title>q10:229&#45;&gt;q13:147</title>
<path fill="none" stroke="black" d="M1249.5,-131C1286.5,-131 1336.3,-131 1375.5,-131"/>
<polygon fill="black" stroke="black" points="1375.29,-134.5 1385.29,-131 1375.29,-127.5 1375.29,-134.5"/>
<text text-anchor="middle" x="1318.1" y="-134.94" font-family="Times,serif" font-size="14.00">RCPT/250:139</text>
</g>
<!-- q15:3 -->
<g id="node22" class="node">
<title>q15:3</title>
<ellipse fill="none" stroke="black" stroke-width="2" cx="1439.8" cy="-220" rx="39.63" ry="18"/>
<text text-anchor="middle" x="1439.8" y="-215.32" font-family="Times,serif" font-size="14.00">q15:3</text>
</g>
<!-- q12:12&#45;&gt;q15:3 -->
<g id="edge23" class="edge">
<title>q12:12&#45;&gt;q15:3</title>
<path fill="none" stroke="black" d="M1243.1,-220C1284.4,-220 1345.2,-220 1388,-220"/>
<polygon fill="black" stroke="black" points="1387.79,-223.5 1397.79,-220 1387.79,-216.5 1387.79,-223.5"/>
<text text-anchor="middle" x="1318.1" y="-223.94" font-family="Times,serif" font-size="14.00">λ/451:3</text>
</g>
<!-- q13:147&#45;&gt;q14:1716 -->
<g id="edge27" class="edge">
<title>q13:147&#45;&gt;q14:1716</title>
<path fill="none" stroke="black" d="M1484.6,-120.91C1493,-119.1 1501.8,-117.3 1510,-115.75 1547,-108.77 1588.7,-102.18 1622.2,-97.17"/>
<polygon fill="black" stroke="black" points="1622.42,-100.67 1631.8,-95.75 1621.4,-93.75 1622.42,-100.67"/>
<text text-anchor="middle" x="1560.6" y="-119.95" font-family="Times,serif" font-size="14.00">DATA/354:119</text>
</g>
<!-- q13:147&#45;&gt;q13:147 -->
<g id="edge28" class="edge">
<title>q13:147&#45;&gt;q13:147</title>
<path fill="none" stroke="black" d="M1418.3,-148.04C1414,-157.86 1421.1,-167 1439.8,-167 1450.5,-167 1457.5,-163.94 1460.6,-159.47"/>
<polygon fill="black" stroke="black" points="1464.09,-159.72 1461.12,-149.55 1457.1,-159.35 1464.09,-159.72"/>
<text text-anchor="middle" x="1439.8" y="-170.94" font-family="Times,serif" font-size="14.00">RCPT/250:8</text>
</g>
<!-- q16:20 -->
<g id="node25" class="node">
<title>q16:20</title>
<ellipse fill="none" stroke="black" stroke-width="2" cx="1687.8" cy="-151" rx="45.95" ry="18"/>
<text text-anchor="middle" x="1687.8" y="-146.32" font-family="Times,serif" font-size="14.00">q16:20</text>
</g>
<!-- q13:147&#45;&gt;q16:20 -->
<g id="edge29" class="edge">
<title>q13:147&#45;&gt;q16:20</title>
<path fill="none" stroke="black" d="M1491.4,-135.12C1532,-138.41 1588.7,-143.02 1630.6,-146.43"/>
<polygon fill="black" stroke="black" points="1630.24,-149.91 1640.49,-147.24 1630.81,-142.94 1630.24,-149.91"/>
<text text-anchor="middle" x="1560.6" y="-148.94" font-family="Times,serif" font-size="14.00">DATA/550:20</text>
</g>
<!-- q1:244 -->
<g id="node23" class="node">
<title>q1:244</title>
<ellipse fill="none" stroke="black" stroke-width="2" cx="257.84" cy="-125" rx="45.95" ry="18"/>
<text text-anchor="middle" x="257.84" y="-120.33" font-family="Times,serif" font-size="14.00">q1:244</text>
</g>
<!-- q1:244&#45;&gt;q3:243 -->
<g id="edge24" class="edge">
<title>q1:244&#45;&gt;q3:243</title>
<path fill="none" stroke="black" d="M302.14,-131.17C340,-136.56 395.17,-144.42 436.02,-150.24"/>
<polygon fill="black" stroke="black" points="435.51,-153.7 445.9,-151.65 436.49,-146.77 435.51,-153.7"/>
<text text-anchor="middle" x="374.66" y="-151.94" font-family="Times,serif" font-size="14.00">EHLO/250:243</text>
</g>
<!-- q2:1 -->
<g id="node24" class="node">
<title>q2:1</title>
<ellipse fill="none" stroke="black" stroke-width="2" cx="491.48" cy="-98" rx="33.32" ry="18"/>
<text text-anchor="middle" x="491.48" y="-93.33" font-family="Times,serif" font-size="14.00">q2:1</text>
</g>
<!-- q1:244&#45;&gt;q2:1 -->
<g id="edge25" class="edge">
<title>q1:244&#45;&gt;q2:1</title>
<path fill="none" stroke="black" d="M298.66,-115.83C306.31,-114.29 314.27,-112.84 321.79,-111.75 363.67,-105.66 411.82,-102.07 445.93,-100.1"/>
<polygon fill="black" stroke="black" points="446.07,-103.6 455.86,-99.55 445.68,-96.61 446.07,-103.6"/>
<text text-anchor="middle" x="374.66" y="-115.95" font-family="Times,serif" font-size="14.00">EHLO/λ:1</text>
</g>
<!-- q2:1&#45;&gt;q4:231 -->
<g id="edge26" class="edge">
<title>q2:1&#45;&gt;q4:231</title>
<path fill="none" stroke="black" d="M523.05,-90.83C533.28,-88.75 544.79,-86.78 555.43,-85.75 593,-82.13 635.47,-83.48 668.4,-85.72"/>
<polygon fill="black" stroke="black" points="667.89,-89.19 678.12,-86.43 668.4,-82.21 667.89,-89.19"/>
<text text-anchor="middle" x="608.31" y="-89.95" font-family="Times,serif" font-size="14.00">AUTH/235:1</text>
</g>
<!-- q0:244 -->
<g id="node26" class="node">
<title>q0:244</title>
<ellipse fill="none" stroke="black" stroke-width="2" cx="53.95" cy="-125" rx="49.95" ry="49.95"/>
<ellipse fill="none" stroke="black" stroke-width="2" cx="53.95" cy="-125" rx="53.95" ry="53.95"/>
<text text-anchor="middle" x="53.95" y="-120.33" font-family="Times,serif" font-size="14.00">q0:244</text>
</g>
<!-- q0:244&#45;&gt;q1:244 -->
<g id="edge30" class="edge">
<title>q0:244&#45;&gt;q1:244</title>
<path fill="none" stroke="black" d="M104.85,-125C133.64,-125 169.94,-125 199.84,-125"/>
<polygon fill="black" stroke="black" points="199.45,-128.5 209.45,-125 199.45,-121.5 199.45,-128.5"/>
<text text-anchor="middle" x="157.89" y="-128.94" font-family="Times,serif" font-size="14.00">λ/220:244</text>
</g>
</g>
</svg>
