<?xml version="1.0" encoding="UTF-8" standalone="no"?>
<!DOCTYPE svg PUBLIC "-//W3C//DTD SVG 1.1//EN"
 "http://www.w3.org/Graphics/SVG/1.1/DTD/svg11.dtd">
<!-- Generated by graphviz version 12.0.0 (20240803.0821)
 -->
<!-- Pages: 1 -->
<svg width="2231pt" height="232pt"
 viewBox="0.00 0.00 2231.36 232.00" xmlns="http://www.w3.org/2000/svg" xmlns:xlink="http://www.w3.org/1999/xlink">
<g id="graph0" class="graph" transform="scale(1 1) rotate(0) translate(4 228)">
<polygon fill="white" stroke="none" points="-4,4 -4,-228 2227.36,-228 2227.36,4 -4,4"/>
<!-- q10:12 -->
<g id="node1" class="node">
<title>q10:12</title>
<ellipse fill="none" stroke="black" stroke-width="2" cx="954.27" cy="-193" rx="45.95" ry="18"/>
<text text-anchor="middle" x="954.27" y="-188.32" font-family="Times,serif" font-size="14.00">q10:12</text>
</g>
<!-- q14:12 -->
<g id="node2" class="node">
<title>q14:12</title>
<ellipse fill="none" stroke="black" stroke-width="2" cx="1190.2" cy="-206" rx="45.95" ry="18"/>
<text text-anchor="middle" x="1190.2" y="-201.32" font-family="Times,serif" font-size="14.00">q14:12</text>
</g>
<!-- q10:12&#45;&gt;q14:12 -->
<g id="edge1" class="edge">
<title>q10:12&#45;&gt;q14:12</title>
<path fill="none" stroke="black" d="M1000.65,-195.52C1038.3,-197.62 1092.1,-200.61 1132.6,-202.86"/>
<polygon fill="black" stroke="black" points="1132.21,-206.34 1142.39,-203.41 1132.6,-199.35 1132.21,-206.34"/>
<text text-anchor="middle" x="1072.2" y="-205.94" font-family="Times,serif" font-size="14.00">content/535:12</text>
</g>
<!-- q20:3 -->
<g id="node3" class="node">
<title>q20:3</title>
<ellipse fill="none" stroke="black" stroke-width="2" cx="1427.1" cy="-206" rx="39.63" ry="18"/>
<text text-anchor="middle" x="1427.1" y="-201.32" font-family="Times,serif" font-size="14.00">q20:3</text>
</g>
<!-- q14:12&#45;&gt;q20:3 -->
<g id="edge2" class="edge">
<title>q14:12&#45;&gt;q20:3</title>
<path fill="none" stroke="black" d="M1237,-206C1276.7,-206 1334.1,-206 1375.2,-206"/>
<polygon fill="black" stroke="black" points="1375.09,-209.5 1385.09,-206 1375.09,-202.5 1375.09,-209.5"/>
<text text-anchor="middle" x="1305.5" y="-209.94" font-family="Times,serif" font-size="14.00">λ/451:3</text>
</g>
<!-- q12:2669 -->
<g id="node4" class="node">
<title>q12:2669</title>
<ellipse fill="none" stroke="black" stroke-width="2" cx="1666.2" cy="-144" rx="58.57" ry="18"/>
<text text-anchor="middle" x="1666.2" y="-139.32" font-family="Times,serif" font-size="14.00">q12:2669</text>
</g>
<!-- q12:2669&#45;&gt;q12:2669 -->
<g id="edge3" class="edge">
<title>q12:2669&#45;&gt;q12:2669</title>
<path fill="none" stroke="black" d="M1644.3,-161.41C1640.2,-171.09 1647.5,-180 1666.2,-180 1677,-180 1684,-177.02 1687.2,-172.64"/>
<polygon fill="black" stroke="black" points="1690.67,-173.17 1687.98,-162.92 1683.69,-172.61 1690.67,-173.17"/>
<text text-anchor="middle" x="1666.2" y="-183.94" font-family="Times,serif" font-size="14.00">content/λ:2482</text>
</g>
<!-- q15:74 -->
<g id="node5" class="node">
<title>q15:74</title>
<ellipse fill="none" stroke="black" stroke-width="2" cx="1930" cy="-198" rx="45.95" ry="18"/>
<text text-anchor="middle" x="1930" y="-193.32" font-family="Times,serif" font-size="14.00">q15:74</text>
</g>
<!-- q12:2669&#45;&gt;q15:74 -->
<g id="edge4" class="edge">
<title>q12:2669&#45;&gt;q15:74</title>
<path fill="none" stroke="black" d="M1710.2,-156.71C1720.8,-159.63 1732.2,-162.59 1742.8,-165 1786.9,-175.01 1837.5,-183.81 1874.8,-189.79"/>
<polygon fill="black" stroke="black" points="1873.98,-193.2 1884.4,-191.32 1875.08,-186.29 1873.98,-193.2"/>
<text text-anchor="middle" x="1801.3" y="-190.94" font-family="Times,serif" font-size="14.00">content/554:74</text>
</g>
<!-- q16:112 -->
<g id="node6" class="node">
<title>q16:112</title>
<ellipse fill="none" stroke="black" stroke-width="2" cx="1930" cy="-144" rx="52.26" ry="18"/>
<text text-anchor="middle" x="1930" y="-139.32" font-family="Times,serif" font-size="14.00">q16:112</text>
</g>
<!-- q12:2669&#45;&gt;q16:112 -->
<g id="edge5" class="edge">
<title>q12:2669&#45;&gt;q16:112</title>
<path fill="none" stroke="black" d="M1725.6,-144C1767.2,-144 1823,-144 1865.6,-144"/>
<polygon fill="black" stroke="black" points="1865.49,-147.5 1875.49,-144 1865.49,-140.5 1865.49,-147.5"/>
<text text-anchor="middle" x="1801.3" y="-147.94" font-family="Times,serif" font-size="14.00">content/250:112</text>
</g>
<!-- q17:1 -->
<g id="node7" class="node">
<title>q17:1</title>
<ellipse fill="none" stroke="black" stroke-width="2" cx="1930" cy="-90" rx="39.63" ry="18"/>
<text text-anchor="middle" x="1930" y="-85.33" font-family="Times,serif" font-size="14.00">q17:1</text>
</g>
<!-- q12:2669&#45;&gt;q17:1 -->
<g id="edge6" class="edge">
<title>q12:2669&#45;&gt;q17:1</title>
<path fill="none" stroke="black" d="M1709.8,-131.22C1720.5,-128.23 1732,-125.2 1742.8,-122.75 1789.1,-112.2 1842.5,-103.13 1880.2,-97.22"/>
<polygon fill="black" stroke="black" points="1880.55,-100.71 1889.9,-95.72 1879.49,-93.79 1880.55,-100.71"/>
<text text-anchor="middle" x="1801.3" y="-125.95" font-family="Times,serif" font-size="14.00">content/550:1</text>
</g>
<!-- q21:74 -->
<g id="node8" class="node">
<title>q21:74</title>
<ellipse fill="none" stroke="black" stroke-width="2" cx="2171.1" cy="-198" rx="45.95" ry="18"/>
<text text-anchor="middle" x="2171.1" y="-193.32" font-family="Times,serif" font-size="14.00">q21:74</text>
</g>
<!-- q15:74&#45;&gt;q21:74 -->
<g id="edge7" class="edge">
<title>q15:74&#45;&gt;q21:74</title>
<path fill="none" stroke="black" d="M1976.8,-198C2015.6,-198 2071.4,-198 2113.1,-198"/>
<polygon fill="black" stroke="black" points="2112.89,-201.5 2122.89,-198 2112.89,-194.5 2112.89,-201.5"/>
<text text-anchor="middle" x="2050.6" y="-201.94" font-family="Times,serif" font-size="14.00">RSET/250:74</text>
</g>
<!-- q22:112 -->
<g id="node9" class="node">
<title>q22:112</title>
<ellipse fill="none" stroke="black" stroke-width="2" cx="2171.1" cy="-144" rx="52.26" ry="18"/>
<text text-anchor="middle" x="2171.1" y="-139.32" font-family="Times,serif" font-size="14.00">q22:112</text>
</g>
<!-- q16:112&#45;&gt;q22:112 -->
<g id="edge8" class="edge">
<title>q16:112&#45;&gt;q22:112</title>
<path fill="none" stroke="black" d="M1983.2,-144C2019.6,-144 2068.3,-144 2106.9,-144"/>
<polygon fill="black" stroke="black" points="2106.49,-147.5 2116.49,-144 2106.49,-140.5 2106.49,-147.5"/>
<text text-anchor="middle" x="2050.6" y="-147.94" font-family="Times,serif" font-size="14.00">QUIT/221:112</text>
</g>
<!-- q23:1 -->
<g id="node10" class="node">
<title>q23:1</title>
<ellipse fill="none" stroke="black" stroke-width="2" cx="2171.1" cy="-90" rx="39.63" ry="18"/>
<text text-anchor="middle" x="2171.1" y="-85.33" font-family="Times,serif" font-size="14.00">q23:1</text>
</g>
<!-- q17:1&#45;&gt;q23:1 -->
<g id="edge9" class="edge">
<title>q17:1&#45;&gt;q23:1</title>
<path fill="none" stroke="black" d="M1970.5,-90C2011.2,-90 2074.7,-90 2119.1,-90"/>
<polygon fill="black" stroke="black" points="2118.99,-93.5 2128.99,-90 2118.99,-86.5 2118.99,-93.5"/>
<text text-anchor="middle" x="2050.6" y="-93.95" font-family="Times,serif" font-size="14.00">RSET/250:1</text>
</g>
<!-- q9:233 -->
<g id="node11" class="node">
<title>q9:233</title>
<ellipse fill="none" stroke="black" stroke-width="2" cx="1190.2" cy="-83" rx="45.95" ry="18"/>
<text text-anchor="middle" x="1190.2" y="-78.33" font-family="Times,serif" font-size="14.00">q9:233</text>
</g>
<!-- q9:233&#45;&gt;q12:2669 -->
<g id="edge10" class="edge">
<title>q9:233&#45;&gt;q12:2669</title>
<path fill="none" stroke="black" d="M1225.1,-95.57C1234.4,-98.67 1244.6,-101.74 1254.1,-104 1360.4,-129.16 1388.6,-129.58 1497.4,-139 1529.6,-141.79 1565.3,-143.1 1595.6,-143.69"/>
<polygon fill="black" stroke="black" points="1595.33,-147.19 1605.39,-143.85 1595.45,-140.19 1595.33,-147.19"/>
<text text-anchor="middle" x="1427.1" y="-140.94" font-family="Times,serif" font-size="14.00">DATA/354:90</text>
</g>
<!-- q13:143 -->
<g id="node12" class="node">
<title>q13:143</title>
<ellipse fill="none" stroke="black" stroke-width="2" cx="1427.1" cy="-81" rx="52.26" ry="18"/>
<text text-anchor="middle" x="1427.1" y="-76.33" font-family="Times,serif" font-size="14.00">q13:143</text>
</g>
<!-- q9:233&#45;&gt;q13:143 -->
<g id="edge11" class="edge">
<title>q9:233&#45;&gt;q13:143</title>
<path fill="none" stroke="black" d="M1237,-82.61C1272.9,-82.3 1323.1,-81.88 1362.8,-81.54"/>
<polygon fill="black" stroke="black" points="1362.72,-85.04 1372.69,-81.45 1362.66,-78.04 1362.72,-85.04"/>
<text text-anchor="middle" x="1305.5" y="-86.95" font-family="Times,serif" font-size="14.00">RCPT/250:143</text>
</g>
<!-- q13:143&#45;&gt;q12:2669 -->
<g id="edge12" class="edge">
<title>q13:143&#45;&gt;q12:2669</title>
<path fill="none" stroke="black" d="M1470.2,-92.03C1479.2,-94.35 1488.6,-96.77 1497.4,-99 1538.3,-109.37 1548.9,-110.73 1589.6,-121.75 1596.9,-123.72 1604.6,-125.87 1612.1,-128.03"/>
<polygon fill="black" stroke="black" points="1610.87,-131.32 1621.45,-130.76 1612.83,-124.6 1610.87,-131.32"/>
<text text-anchor="middle" x="1543.5" y="-124.95" font-family="Times,serif" font-size="14.00">DATA/354:97</text>
</g>
<!-- q19:3 -->
<g id="node13" class="node">
<title>q19:3</title>
<ellipse fill="none" stroke="black" stroke-width="2" cx="1666.2" cy="-18" rx="39.63" ry="18"/>
<text text-anchor="middle" x="1666.2" y="-13.32" font-family="Times,serif" font-size="14.00">q19:3</text>
</g>
<!-- q13:143&#45;&gt;q19:3 -->
<g id="edge13" class="edge">
<title>q13:143&#45;&gt;q19:3</title>
<path fill="none" stroke="black" d="M1467.2,-68.61C1477,-65.6 1487.6,-62.48 1497.4,-59.75 1538.2,-48.42 1585,-36.9 1618.8,-28.84"/>
<polygon fill="black" stroke="black" points="1619.31,-32.32 1628.23,-26.6 1617.69,-25.51 1619.31,-32.32"/>
<text text-anchor="middle" x="1543.5" y="-63.95" font-family="Times,serif" font-size="14.00">RCPT/250:3</text>
</g>
<!-- q18:43 -->
<g id="node14" class="node">
<title>q18:43</title>
<ellipse fill="none" stroke="black" stroke-width="2" cx="1666.2" cy="-81" rx="45.95" ry="18"/>
<text text-anchor="middle" x="1666.2" y="-76.33" font-family="Times,serif" font-size="14.00">q18:43</text>
</g>
<!-- q13:143&#45;&gt;q18:43 -->
<g id="edge14" class="edge">
<title>q13:143&#45;&gt;q18:43</title>
<path fill="none" stroke="black" d="M1480.2,-81C1517.9,-81 1569,-81 1607.9,-81"/>
<polygon fill="black" stroke="black" points="1607.79,-84.5 1617.79,-81 1607.79,-77.5 1607.79,-84.5"/>
<text text-anchor="middle" x="1543.5" y="-84.95" font-family="Times,serif" font-size="14.00">DATA/550:43</text>
</g>
<!-- q19:3&#45;&gt;q9:233 -->
<g id="edge15" class="edge">
<title>q19:3&#45;&gt;q9:233</title>
<path fill="none" stroke="black" d="M1626,-18.27C1570,-19.18 1463.9,-22.78 1374.9,-36.75 1327.9,-44.12 1275.4,-57.91 1238.6,-68.52"/>
<polygon fill="black" stroke="black" points="1237.77,-65.12 1229.15,-71.28 1239.73,-71.84 1237.77,-65.12"/>
<text text-anchor="middle" x="1427.1" y="-40.95" font-family="Times,serif" font-size="14.00">RCPT/250:3</text>
</g>
<!-- q4:231 -->
<g id="node15" class="node">
<title>q4:231</title>
<ellipse fill="none" stroke="black" stroke-width="2" cx="725.13" cy="-75" rx="45.95" ry="18"/>
<text text-anchor="middle" x="725.13" y="-70.33" font-family="Times,serif" font-size="14.00">q4:231</text>
</g>
<!-- q8:2 -->
<g id="node16" class="node">
<title>q8:2</title>
<ellipse fill="none" stroke="black" stroke-width="2" cx="954.27" cy="-29" rx="33.32" ry="18"/>
<text text-anchor="middle" x="954.27" y="-24.32" font-family="Times,serif" font-size="14.00">q8:2</text>
</g>
<!-- q4:231&#45;&gt;q8:2 -->
<g id="edge16" class="edge">
<title>q4:231&#45;&gt;q8:2</title>
<path fill="none" stroke="black" d="M762.56,-63.67C771.2,-61.2 780.42,-58.73 789.08,-56.75 829.66,-47.47 876.55,-39.85 909.8,-34.96"/>
<polygon fill="black" stroke="black" points="910.07,-38.45 919.47,-33.56 909.07,-31.52 910.07,-38.45"/>
<text text-anchor="middle" x="839.7" y="-60.95" font-family="Times,serif" font-size="14.00">MAIL/553:2</text>
</g>
<!-- q7:229 -->
<g id="node17" class="node">
<title>q7:229</title>
<ellipse fill="none" stroke="black" stroke-width="2" cx="954.27" cy="-83" rx="45.95" ry="18"/>
<text text-anchor="middle" x="954.27" y="-78.33" font-family="Times,serif" font-size="14.00">q7:229</text>
</g>
<!-- q4:231&#45;&gt;q7:229 -->
<g id="edge17" class="edge">
<title>q4:231&#45;&gt;q7:229</title>
<path fill="none" stroke="black" d="M771.82,-76.61C807.78,-77.88 858.09,-79.65 896.61,-81"/>
<polygon fill="black" stroke="black" points="896.02,-84.49 906.14,-81.34 896.27,-77.49 896.02,-84.49"/>
<text text-anchor="middle" x="839.7" y="-84.95" font-family="Times,serif" font-size="14.00">MAIL/250:229</text>
</g>
<!-- q11:2 -->
<g id="node18" class="node">
<title>q11:2</title>
<ellipse fill="none" stroke="black" stroke-width="2" cx="1190.2" cy="-29" rx="39.63" ry="18"/>
<text text-anchor="middle" x="1190.2" y="-24.32" font-family="Times,serif" font-size="14.00">q11:2</text>
</g>
<!-- q8:2&#45;&gt;q11:2 -->
<g id="edge18" class="edge">
<title>q8:2&#45;&gt;q11:2</title>
<path fill="none" stroke="black" d="M988.29,-29C1027.3,-29 1092.7,-29 1138.3,-29"/>
<polygon fill="black" stroke="black" points="1138.19,-32.5 1148.19,-29 1138.19,-25.5 1138.19,-32.5"/>
<text text-anchor="middle" x="1072.2" y="-32.95" font-family="Times,serif" font-size="14.00">RSET/250:2</text>
</g>
<!-- q7:229&#45;&gt;q9:233 -->
<g id="edge19" class="edge">
<title>q7:229&#45;&gt;q9:233</title>
<path fill="none" stroke="black" d="M1001.2,-83C1038.6,-83 1091.6,-83 1131.8,-83"/>
<polygon fill="black" stroke="black" points="1131.79,-86.5 1141.79,-83 1131.79,-79.5 1131.79,-86.5"/>
<text text-anchor="middle" x="1072.2" y="-86.95" font-family="Times,serif" font-size="14.00">RCPT/250:229</text>
</g>
<!-- q1:244 -->
<g id="node19" class="node">
<title>q1:244</title>
<ellipse fill="none" stroke="black" stroke-width="2" cx="257.84" cy="-102" rx="45.95" ry="18"/>
<text text-anchor="middle" x="257.84" y="-97.33" font-family="Times,serif" font-size="14.00">q1:244</text>
</g>
<!-- q2:2 -->
<g id="node20" class="node">
<title>q2:2</title>
<ellipse fill="none" stroke="black" stroke-width="2" cx="491.48" cy="-75" rx="33.32" ry="18"/>
<text text-anchor="middle" x="491.48" y="-70.33" font-family="Times,serif" font-size="14.00">q2:2</text>
</g>
<!-- q1:244&#45;&gt;q2:2 -->
<g id="edge20" class="edge">
<title>q1:244&#45;&gt;q2:2</title>
<path fill="none" stroke="black" d="M298.66,-92.83C306.31,-91.29 314.27,-89.84 321.79,-88.75 363.67,-82.66 411.82,-79.07 445.93,-77.1"/>
<polygon fill="black" stroke="black" points="446.07,-80.59 455.86,-76.55 445.68,-73.6 446.07,-80.59"/>
<text text-anchor="middle" x="374.66" y="-92.95" font-family="Times,serif" font-size="14.00">EHLO/λ:2</text>
</g>
<!-- q3:242 -->
<g id="node21" class="node">
<title>q3:242</title>
<ellipse fill="none" stroke="black" stroke-width="2" cx="491.48" cy="-135" rx="45.95" ry="18"/>
<text text-anchor="middle" x="491.48" y="-130.32" font-family="Times,serif" font-size="14.00">q3:242</text>
</g>
<!-- q1:244&#45;&gt;q3:242 -->
<g id="edge21" class="edge">
<title>q1:244&#45;&gt;q3:242</title>
<path fill="none" stroke="black" d="M302.14,-108.17C340,-113.56 395.17,-121.42 436.02,-127.24"/>
<polygon fill="black" stroke="black" points="435.51,-130.7 445.9,-128.65 436.49,-123.77 435.51,-130.7"/>
<text text-anchor="middle" x="374.66" y="-128.94" font-family="Times,serif" font-size="14.00">EHLO/250:242</text>
</g>
<!-- q2:2&#45;&gt;q4:231 -->
<g id="edge22" class="edge">
<title>q2:2&#45;&gt;q4:231</title>
<path fill="none" stroke="black" d="M523.05,-67.83C533.28,-65.75 544.79,-63.78 555.43,-62.75 602.21,-58.24 614.4,-58.24 661.18,-62.75 665.01,-63.12 668.95,-63.61 672.91,-64.19"/>
<polygon fill="black" stroke="black" points="672.07,-67.6 682.51,-65.75 673.2,-60.69 672.07,-67.6"/>
<text text-anchor="middle" x="608.31" y="-66.95" font-family="Times,serif" font-size="14.00">AUTH/235:2</text>
</g>
<!-- q3:242&#45;&gt;q4:231 -->
<g id="edge23" class="edge">
<title>q3:242&#45;&gt;q4:231</title>
<path fill="none" stroke="black" d="M518.34,-119.45C529.42,-113.41 542.72,-106.94 555.43,-102.75 591.87,-90.75 634.52,-83.79 667.82,-79.84"/>
<polygon fill="black" stroke="black" points="668.13,-83.33 677.68,-78.74 667.35,-76.37 668.13,-83.33"/>
<text text-anchor="middle" x="608.31" y="-105.95" font-family="Times,serif" font-size="14.00">AUTH/235:229</text>
</g>
<!-- q6:12 -->
<g id="node22" class="node">
<title>q6:12</title>
<ellipse fill="none" stroke="black" stroke-width="2" cx="725.13" cy="-190" rx="39.63" ry="18"/>
<text text-anchor="middle" x="725.13" y="-185.32" font-family="Times,serif" font-size="14.00">q6:12</text>
</g>
<!-- q3:242&#45;&gt;q6:12 -->
<g id="edge24" class="edge">
<title>q3:242&#45;&gt;q6:12</title>
<path fill="none" stroke="black" d="M521.03,-149.58C531.61,-154.48 543.85,-159.56 555.43,-163 594.52,-174.6 640.27,-181.53 674.26,-185.46"/>
<polygon fill="black" stroke="black" points="673.47,-188.89 683.8,-186.51 674.24,-181.94 673.47,-188.89"/>
<text text-anchor="middle" x="608.31" y="-186.94" font-family="Times,serif" font-size="14.00">AUTH/535:12</text>
</g>
<!-- q5:1 -->
<g id="node23" class="node">
<title>q5:1</title>
<ellipse fill="none" stroke="black" stroke-width="2" cx="839.7" cy="-141" rx="33.32" ry="18"/>
<text text-anchor="middle" x="839.7" y="-136.32" font-family="Times,serif" font-size="14.00">q5:1</text>
</g>
<!-- q3:242&#45;&gt;q5:1 -->
<g id="edge25" class="edge">
<title>q3:242&#45;&gt;q5:1</title>
<path fill="none" stroke="black" d="M538.1,-135.79C604.79,-136.95 728.13,-139.08 794.18,-140.23"/>
<polygon fill="black" stroke="black" points="793.87,-143.73 803.93,-140.39 793.99,-136.73 793.87,-143.73"/>
<text text-anchor="middle" x="608.31" y="-140.94" font-family="Times,serif" font-size="14.00">AUTH/λ:1</text>
</g>
<!-- q6:12&#45;&gt;q10:12 -->
<g id="edge26" class="edge">
<title>q6:12&#45;&gt;q10:12</title>
<path fill="none" stroke="black" d="M765.69,-190.52C801.75,-191 855.43,-191.71 896.14,-192.25"/>
<polygon fill="black" stroke="black" points="895.96,-195.75 906.01,-192.38 896.05,-188.75 895.96,-195.75"/>
<text text-anchor="middle" x="839.7" y="-195.94" font-family="Times,serif" font-size="14.00">AUTH/334:12</text>
</g>
<!-- q5:1&#45;&gt;q9:233 -->
<g id="edge27" class="edge">
<title>q5:1&#45;&gt;q9:233</title>
<path fill="none" stroke="black" d="M873.61,-138.81C927.12,-134.79 1036.1,-124.67 1126.2,-104 1132.2,-102.63 1138.4,-100.93 1144.5,-99.08"/>
<polygon fill="black" stroke="black" points="1145.3,-102.5 1153.76,-96.12 1143.17,-95.84 1145.3,-102.5"/>
<text text-anchor="middle" x="954.27" y="-138.94" font-family="Times,serif" font-size="14.00">MAIL/250:1</text>
</g>
<!-- q0:244 -->
<g id="node24" class="node">
<title>q0:244</title>
<ellipse fill="none" stroke="black" stroke-width="2" cx="53.95" cy="-102" rx="49.95" ry="49.95"/>
<ellipse fill="none" stroke="black" stroke-width="2" cx="53.95" cy="-102" rx="53.95" ry="53.95"/>
<text text-anchor="middle" x="53.95" y="-97.33" font-family="Times,serif" font-size="14.00">q0:244</text>
</g>
<!-- q0:244&#45;&gt;q1:244 -->
<g id="edge28" class="edge">
<title>q0:244&#45;&gt;q1:244</title>
<path fill="none" stroke="black" d="M104.85,-102C133.64,-102 169.94,-102 199.84,-102"/>
<polygon fill="black" stroke="black" points="199.45,-105.5 209.45,-102 199.45,-98.5 199.45,-105.5"/>
<text text-anchor="middle" x="157.89" y="-105.95" font-family="Times,serif" font-size="14.00">λ/220:244</text>
</g>
</g>
</svg>
