<?xml version="1.0" encoding="UTF-8" standalone="no"?>
<!DOCTYPE svg PUBLIC "-//W3C//DTD SVG 1.1//EN"
 "http://www.w3.org/Graphics/SVG/1.1/DTD/svg11.dtd">
<!-- Generated by graphviz version 12.0.0 (20240803.0821)
 -->
<!-- Pages: 1 -->
<svg width="2204pt" height="322pt"
 viewBox="0.00 0.00 2203.85 322.00" xmlns="http://www.w3.org/2000/svg" xmlns:xlink="http://www.w3.org/1999/xlink">
<g id="graph0" class="graph" transform="scale(1 1) rotate(0) translate(4 318)">
<polygon fill="white" stroke="none" points="-4,4 -4,-318 2199.85,-318 2199.85,4 -4,4"/>
<!-- q11:145 -->
<g id="node1" class="node">
<title>q11:145</title>
<ellipse fill="none" stroke="black" stroke-width="2" cx="1427.1" cy="-202" rx="52.26" ry="18"/>
<text text-anchor="middle" x="1427.1" y="-197.32" font-family="Times,serif" font-size="14.00">q11:145</text>
</g>
<!-- q15:2506 -->
<g id="node2" class="node">
<title>q15:2506</title>
<ellipse fill="none" stroke="black" stroke-width="2" cx="1682" cy="-153" rx="58.57" ry="18"/>
<text text-anchor="middle" x="1682" y="-148.32" font-family="Times,serif" font-size="14.00">q15:2506</text>
</g>
<!-- q11:145&#45;&gt;q15:2506 -->
<g id="edge1" class="edge">
<title>q11:145&#45;&gt;q15:2506</title>
<path fill="none" stroke="black" d="M1457,-186.42C1469.1,-180.55 1483.6,-174.41 1497.4,-170.75 1534.2,-160.95 1576.5,-156.42 1611.2,-154.39"/>
<polygon fill="black" stroke="black" points="1611.29,-157.89 1621.09,-153.87 1610.92,-150.9 1611.29,-157.89"/>
<text text-anchor="middle" x="1551.4" y="-174.94" font-family="Times,serif" font-size="14.00">DATA/354:98</text>
</g>
<!-- q16:4 -->
<g id="node3" class="node">
<title>q16:4</title>
<ellipse fill="none" stroke="black" stroke-width="2" cx="1682" cy="-242" rx="39.63" ry="18"/>
<text text-anchor="middle" x="1682" y="-237.32" font-family="Times,serif" font-size="14.00">q16:4</text>
</g>
<!-- q11:145&#45;&gt;q16:4 -->
<g id="edge2" class="edge">
<title>q11:145&#45;&gt;q16:4</title>
<path fill="none" stroke="black" d="M1476.3,-194.72C1512.6,-191.01 1563.2,-189.66 1605.4,-202.75 1614.6,-205.62 1615,-210.21 1623.4,-215 1629.2,-218.29 1635.4,-221.53 1641.6,-224.56"/>
<polygon fill="black" stroke="black" points="1639.9,-227.63 1650.43,-228.77 1642.91,-221.31 1639.9,-227.63"/>
<text text-anchor="middle" x="1551.4" y="-205.94" font-family="Times,serif" font-size="14.00">RCPT/250:4</text>
</g>
<!-- q17:43 -->
<g id="node4" class="node">
<title>q17:43</title>
<ellipse fill="none" stroke="black" stroke-width="2" cx="1682" cy="-296" rx="45.95" ry="18"/>
<text text-anchor="middle" x="1682" y="-291.32" font-family="Times,serif" font-size="14.00">q17:43</text>
</g>
<!-- q11:145&#45;&gt;q17:43 -->
<g id="edge3" class="edge">
<title>q11:145&#45;&gt;q17:43</title>
<path fill="none" stroke="black" d="M1450,-219.08C1469.3,-234.09 1494.7,-253.74 1497.4,-255 1538,-273.95 1587.9,-284.37 1625.4,-289.95"/>
<polygon fill="black" stroke="black" points="1624.71,-293.39 1635.1,-291.33 1625.69,-286.46 1624.71,-293.39"/>
<text text-anchor="middle" x="1551.4" y="-289.94" font-family="Times,serif" font-size="14.00">DATA/550:43</text>
</g>
<!-- q15:2506&#45;&gt;q15:2506 -->
<g id="edge4" class="edge">
<title>q15:2506&#45;&gt;q15:2506</title>
<path fill="none" stroke="black" d="M1658.6,-170.41C1654.3,-180.09 1662.1,-189 1682,-189 1693.5,-189 1700.9,-186.02 1704.3,-181.64"/>
<polygon fill="black" stroke="black" points="1707.76,-182.19 1705.17,-171.92 1700.79,-181.57 1707.76,-182.19"/>
<text text-anchor="middle" x="1682" y="-192.94" font-family="Times,serif" font-size="14.00">content/λ:2408</text>
</g>
<!-- q23:9 -->
<g id="node5" class="node">
<title>q23:9</title>
<ellipse fill="none" stroke="black" stroke-width="2" cx="1930.5" cy="-126" rx="39.63" ry="18"/>
<text text-anchor="middle" x="1930.5" y="-121.33" font-family="Times,serif" font-size="14.00">q23:9</text>
</g>
<!-- q15:2506&#45;&gt;q23:9 -->
<g id="edge5" class="edge">
<title>q15:2506&#45;&gt;q23:9</title>
<path fill="none" stroke="black" d="M1729.9,-141.77C1739.4,-139.83 1749.2,-138.04 1758.5,-136.75 1798.8,-131.19 1844.7,-128.5 1878.8,-127.21"/>
<polygon fill="black" stroke="black" points="1878.52,-130.72 1888.39,-126.87 1878.27,-123.73 1878.52,-130.72"/>
<text text-anchor="middle" x="1812.5" y="-140.94" font-family="Times,serif" font-size="14.00">content/554:9</text>
</g>
<!-- q22:88 -->
<g id="node6" class="node">
<title>q22:88</title>
<ellipse fill="none" stroke="black" stroke-width="2" cx="1930.5" cy="-234" rx="45.95" ry="18"/>
<text text-anchor="middle" x="1930.5" y="-229.32" font-family="Times,serif" font-size="14.00">q22:88</text>
</g>
<!-- q15:2506&#45;&gt;q22:88 -->
<g id="edge6" class="edge">
<title>q15:2506&#45;&gt;q22:88</title>
<path fill="none" stroke="black" d="M1709.4,-169.62C1723.5,-177.91 1741.5,-187.53 1758.5,-194 1796.5,-208.46 1841.4,-218.71 1875.6,-225.21"/>
<polygon fill="black" stroke="black" points="1874.74,-228.61 1885.21,-227 1876.02,-221.73 1874.74,-228.61"/>
<text text-anchor="middle" x="1812.5" y="-225.94" font-family="Times,serif" font-size="14.00">content/250:88</text>
</g>
<!-- q21:1 -->
<g id="node7" class="node">
<title>q21:1</title>
<ellipse fill="none" stroke="black" stroke-width="2" cx="1930.5" cy="-180" rx="39.63" ry="18"/>
<text text-anchor="middle" x="1930.5" y="-175.32" font-family="Times,serif" font-size="14.00">q21:1</text>
</g>
<!-- q15:2506&#45;&gt;q21:1 -->
<g id="edge7" class="edge">
<title>q15:2506&#45;&gt;q21:1</title>
<path fill="none" stroke="black" d="M1738.3,-159.06C1780.8,-163.71 1838.9,-170.08 1879.8,-174.56"/>
<polygon fill="black" stroke="black" points="1879.37,-178.03 1889.69,-175.65 1880.14,-171.08 1879.37,-178.03"/>
<text text-anchor="middle" x="1812.5" y="-176.94" font-family="Times,serif" font-size="14.00">content/550:1</text>
</g>
<!-- q16:4&#45;&gt;q11:145 -->
<g id="edge8" class="edge">
<title>q16:4&#45;&gt;q11:145</title>
<path fill="none" stroke="black" d="M1642,-238.87C1604.7,-235.51 1546.9,-229.36 1497.4,-220 1491.7,-218.93 1485.9,-217.66 1480,-216.3"/>
<polygon fill="black" stroke="black" points="1480.92,-212.92 1470.37,-213.94 1479.25,-219.72 1480.92,-212.92"/>
<text text-anchor="middle" x="1551.4" y="-237.94" font-family="Times,serif" font-size="14.00">RCPT/250:4</text>
</g>
<!-- q28:9 -->
<g id="node8" class="node">
<title>q28:9</title>
<ellipse fill="none" stroke="black" stroke-width="2" cx="2149.9" cy="-126" rx="39.63" ry="18"/>
<text text-anchor="middle" x="2149.9" y="-121.33" font-family="Times,serif" font-size="14.00">q28:9</text>
</g>
<!-- q23:9&#45;&gt;q28:9 -->
<g id="edge9" class="edge">
<title>q23:9&#45;&gt;q28:9</title>
<path fill="none" stroke="black" d="M1971.1,-126C2006.9,-126 2059.7,-126 2098.5,-126"/>
<polygon fill="black" stroke="black" points="2097.99,-129.5 2107.99,-126 2097.99,-122.5 2097.99,-129.5"/>
<text text-anchor="middle" x="2040.2" y="-129.94" font-family="Times,serif" font-size="14.00">RSET/250:9</text>
</g>
<!-- q27:88 -->
<g id="node9" class="node">
<title>q27:88</title>
<ellipse fill="none" stroke="black" stroke-width="2" cx="2149.9" cy="-234" rx="45.95" ry="18"/>
<text text-anchor="middle" x="2149.9" y="-229.32" font-family="Times,serif" font-size="14.00">q27:88</text>
</g>
<!-- q22:88&#45;&gt;q27:88 -->
<g id="edge10" class="edge">
<title>q22:88&#45;&gt;q27:88</title>
<path fill="none" stroke="black" d="M1977.3,-234C2010.7,-234 2056.1,-234 2091.9,-234"/>
<polygon fill="black" stroke="black" points="2091.59,-237.5 2101.59,-234 2091.59,-230.5 2091.59,-237.5"/>
<text text-anchor="middle" x="2040.2" y="-237.94" font-family="Times,serif" font-size="14.00">QUIT/221:88</text>
</g>
<!-- q26:1 -->
<g id="node10" class="node">
<title>q26:1</title>
<ellipse fill="none" stroke="black" stroke-width="2" cx="2149.9" cy="-180" rx="39.63" ry="18"/>
<text text-anchor="middle" x="2149.9" y="-175.32" font-family="Times,serif" font-size="14.00">q26:1</text>
</g>
<!-- q21:1&#45;&gt;q26:1 -->
<g id="edge11" class="edge">
<title>q21:1&#45;&gt;q26:1</title>
<path fill="none" stroke="black" d="M1971.1,-180C2006.9,-180 2059.7,-180 2098.5,-180"/>
<polygon fill="black" stroke="black" points="2097.99,-183.5 2107.99,-180 2097.99,-176.5 2097.99,-183.5"/>
<text text-anchor="middle" x="2040.2" y="-183.94" font-family="Times,serif" font-size="14.00">RSET/250:1</text>
</g>
<!-- q0:244 -->
<g id="node11" class="node">
<title>q0:244</title>
<ellipse fill="none" stroke="black" stroke-width="2" cx="53.95" cy="-178" rx="49.95" ry="49.95"/>
<ellipse fill="none" stroke="black" stroke-width="2" cx="53.95" cy="-178" rx="53.95" ry="53.95"/>
<text text-anchor="middle" x="53.95" y="-173.32" font-family="Times,serif" font-size="14.00">q0:244</text>
</g>
<!-- q1:244 -->
<g id="node12" class="node">
<title>q1:244</title>
<ellipse fill="none" stroke="black" stroke-width="2" cx="257.84" cy="-178" rx="45.95" ry="18"/>
<text text-anchor="middle" x="257.84" y="-173.32" font-family="Times,serif" font-size="14.00">q1:244</text>
</g>
<!-- q0:244&#45;&gt;q1:244 -->
<g id="edge12" class="edge">
<title>q0:244&#45;&gt;q1:244</title>
<path fill="none" stroke="black" d="M104.85,-178C133.64,-178 169.94,-178 199.84,-178"/>
<polygon fill="black" stroke="black" points="199.45,-181.5 209.45,-178 199.45,-174.5 199.45,-181.5"/>
<text text-anchor="middle" x="157.89" y="-181.94" font-family="Times,serif" font-size="14.00">λ/220:244</text>
</g>
<!-- q2:242 -->
<g id="node13" class="node">
<title>q2:242</title>
<ellipse fill="none" stroke="black" stroke-width="2" cx="491.48" cy="-211" rx="45.95" ry="18"/>
<text text-anchor="middle" x="491.48" y="-206.32" font-family="Times,serif" font-size="14.00">q2:242</text>
</g>
<!-- q1:244&#45;&gt;q2:242 -->
<g id="edge13" class="edge">
<title>q1:244&#45;&gt;q2:242</title>
<path fill="none" stroke="black" d="M302.14,-184.17C340,-189.56 395.17,-197.42 436.02,-203.24"/>
<polygon fill="black" stroke="black" points="435.51,-206.7 445.9,-204.65 436.49,-199.77 435.51,-206.7"/>
<text text-anchor="middle" x="374.66" y="-204.94" font-family="Times,serif" font-size="14.00">EHLO/250:242</text>
</g>
<!-- q3:2 -->
<g id="node14" class="node">
<title>q3:2</title>
<ellipse fill="none" stroke="black" stroke-width="2" cx="491.48" cy="-151" rx="33.32" ry="18"/>
<text text-anchor="middle" x="491.48" y="-146.32" font-family="Times,serif" font-size="14.00">q3:2</text>
</g>
<!-- q1:244&#45;&gt;q3:2 -->
<g id="edge14" class="edge">
<title>q1:244&#45;&gt;q3:2</title>
<path fill="none" stroke="black" d="M296.21,-167.12C304.56,-165.03 313.43,-163.08 321.79,-161.75 363.53,-155.09 411.69,-152.52 445.85,-151.55"/>
<polygon fill="black" stroke="black" points="445.88,-155.05 455.8,-151.31 445.71,-148.05 445.88,-155.05"/>
<text text-anchor="middle" x="374.66" y="-165.94" font-family="Times,serif" font-size="14.00">EHLO/λ:2</text>
</g>
<!-- q5:231 -->
<g id="node15" class="node">
<title>q5:231</title>
<ellipse fill="none" stroke="black" stroke-width="2" cx="725.13" cy="-147" rx="45.95" ry="18"/>
<text text-anchor="middle" x="725.13" y="-142.32" font-family="Times,serif" font-size="14.00">q5:231</text>
</g>
<!-- q2:242&#45;&gt;q5:231 -->
<g id="edge15" class="edge">
<title>q2:242&#45;&gt;q5:231</title>
<path fill="none" stroke="black" d="M518.39,-195.6C529.48,-189.57 542.77,-183.08 555.43,-178.75 576.24,-171.63 629.15,-162.16 670.21,-155.42"/>
<polygon fill="black" stroke="black" points="670.63,-158.9 679.95,-153.84 669.51,-151.99 670.63,-158.9"/>
<text text-anchor="middle" x="608.31" y="-182.94" font-family="Times,serif" font-size="14.00">AUTH/235:229</text>
</g>
<!-- q4:1 -->
<g id="node16" class="node">
<title>q4:1</title>
<ellipse fill="none" stroke="black" stroke-width="2" cx="839.7" cy="-216" rx="33.32" ry="18"/>
<text text-anchor="middle" x="839.7" y="-211.32" font-family="Times,serif" font-size="14.00">q4:1</text>
</g>
<!-- q2:242&#45;&gt;q4:1 -->
<g id="edge16" class="edge">
<title>q2:242&#45;&gt;q4:1</title>
<path fill="none" stroke="black" d="M538.1,-211.66C604.79,-212.62 728.13,-214.4 794.18,-215.36"/>
<polygon fill="black" stroke="black" points="793.88,-218.86 803.93,-215.5 793.98,-211.86 793.88,-218.86"/>
<text text-anchor="middle" x="608.31" y="-216.94" font-family="Times,serif" font-size="14.00">AUTH/λ:1</text>
</g>
<!-- q6:12 -->
<g id="node17" class="node">
<title>q6:12</title>
<ellipse fill="none" stroke="black" stroke-width="2" cx="725.13" cy="-265" rx="39.63" ry="18"/>
<text text-anchor="middle" x="725.13" y="-260.32" font-family="Times,serif" font-size="14.00">q6:12</text>
</g>
<!-- q2:242&#45;&gt;q6:12 -->
<g id="edge17" class="edge">
<title>q2:242&#45;&gt;q6:12</title>
<path fill="none" stroke="black" d="M521.02,-225.62C531.6,-230.52 543.84,-235.6 555.43,-239 594.51,-250.48 640.26,-257.13 674.25,-260.82"/>
<polygon fill="black" stroke="black" points="673.49,-264.26 683.79,-261.81 674.21,-257.3 673.49,-264.26"/>
<text text-anchor="middle" x="608.31" y="-262.94" font-family="Times,serif" font-size="14.00">AUTH/535:12</text>
</g>
<!-- q3:2&#45;&gt;q5:231 -->
<g id="edge18" class="edge">
<title>q3:2&#45;&gt;q5:231</title>
<path fill="none" stroke="black" d="M523.05,-143.83C533.28,-141.75 544.79,-139.78 555.43,-138.75 602.21,-134.24 614.28,-135.69 661.18,-138.75 664.02,-138.94 666.93,-139.17 669.86,-139.43"/>
<polygon fill="black" stroke="black" points="669.39,-142.9 679.69,-140.45 670.11,-135.94 669.39,-142.9"/>
<text text-anchor="middle" x="608.31" y="-142.94" font-family="Times,serif" font-size="14.00">AUTH/235:2</text>
</g>
<!-- q8:229 -->
<g id="node18" class="node">
<title>q8:229</title>
<ellipse fill="none" stroke="black" stroke-width="2" cx="954.27" cy="-162" rx="45.95" ry="18"/>
<text text-anchor="middle" x="954.27" y="-157.32" font-family="Times,serif" font-size="14.00">q8:229</text>
</g>
<!-- q5:231&#45;&gt;q8:229 -->
<g id="edge19" class="edge">
<title>q5:231&#45;&gt;q8:229</title>
<path fill="none" stroke="black" d="M771.28,-149.98C807.43,-152.37 858.32,-155.73 897.11,-158.29"/>
<polygon fill="black" stroke="black" points="896.49,-161.76 906.7,-158.92 896.95,-154.77 896.49,-161.76"/>
<text text-anchor="middle" x="839.7" y="-161.94" font-family="Times,serif" font-size="14.00">MAIL/250:229</text>
</g>
<!-- q9:2 -->
<g id="node19" class="node">
<title>q9:2</title>
<ellipse fill="none" stroke="black" stroke-width="2" cx="954.27" cy="-108" rx="33.32" ry="18"/>
<text text-anchor="middle" x="954.27" y="-103.33" font-family="Times,serif" font-size="14.00">q9:2</text>
</g>
<!-- q5:231&#45;&gt;q9:2 -->
<g id="edge20" class="edge">
<title>q5:231&#45;&gt;q9:2</title>
<path fill="none" stroke="black" d="M763.91,-136.49C772.17,-134.41 780.88,-132.37 789.08,-130.75 829.61,-122.74 876.32,-116.56 909.54,-112.67"/>
<polygon fill="black" stroke="black" points="909.65,-116.18 919.19,-111.57 908.85,-109.23 909.65,-116.18"/>
<text text-anchor="middle" x="839.7" y="-134.94" font-family="Times,serif" font-size="14.00">MAIL/553:2</text>
</g>
<!-- q7:230 -->
<g id="node20" class="node">
<title>q7:230</title>
<ellipse fill="none" stroke="black" stroke-width="2" cx="1190.2" cy="-169" rx="45.95" ry="18"/>
<text text-anchor="middle" x="1190.2" y="-164.32" font-family="Times,serif" font-size="14.00">q7:230</text>
</g>
<!-- q4:1&#45;&gt;q7:230 -->
<g id="edge21" class="edge">
<title>q4:1&#45;&gt;q7:230</title>
<path fill="none" stroke="black" d="M873.55,-214.86C926.97,-212.55 1035.8,-205.89 1126.2,-188 1131.7,-186.91 1137.5,-185.53 1143.1,-184.01"/>
<polygon fill="black" stroke="black" points="1143.76,-187.46 1152.44,-181.39 1141.87,-180.72 1143.76,-187.46"/>
<text text-anchor="middle" x="954.27" y="-216.94" font-family="Times,serif" font-size="14.00">MAIL/250:1</text>
</g>
<!-- q10:12 -->
<g id="node21" class="node">
<title>q10:12</title>
<ellipse fill="none" stroke="black" stroke-width="2" cx="954.27" cy="-269" rx="45.95" ry="18"/>
<text text-anchor="middle" x="954.27" y="-264.32" font-family="Times,serif" font-size="14.00">q10:12</text>
</g>
<!-- q6:12&#45;&gt;q10:12 -->
<g id="edge22" class="edge">
<title>q6:12&#45;&gt;q10:12</title>
<path fill="none" stroke="black" d="M765.69,-265.7C801.75,-266.33 855.43,-267.28 896.14,-267.99"/>
<polygon fill="black" stroke="black" points="895.95,-271.49 906.01,-268.16 896.07,-264.49 895.95,-271.49"/>
<text text-anchor="middle" x="839.7" y="-270.94" font-family="Times,serif" font-size="14.00">AUTH/334:12</text>
</g>
<!-- q8:229&#45;&gt;q7:230 -->
<g id="edge28" class="edge">
<title>q8:229&#45;&gt;q7:230</title>
<path fill="none" stroke="black" d="M1000.92,-163.37C1038.5,-164.49 1092,-166.09 1132.4,-167.3"/>
<polygon fill="black" stroke="black" points="1131.98,-170.79 1142.09,-167.59 1132.2,-163.79 1131.98,-170.79"/>
<text text-anchor="middle" x="1072.2" y="-170.94" font-family="Times,serif" font-size="14.00">RCPT/250:229</text>
</g>
<!-- q13:2 -->
<g id="node27" class="node">
<title>q13:2</title>
<ellipse fill="none" stroke="black" stroke-width="2" cx="1190.2" cy="-108" rx="39.63" ry="18"/>
<text text-anchor="middle" x="1190.2" y="-103.33" font-family="Times,serif" font-size="14.00">q13:2</text>
</g>
<!-- q9:2&#45;&gt;q13:2 -->
<g id="edge29" class="edge">
<title>q9:2&#45;&gt;q13:2</title>
<path fill="none" stroke="black" d="M988.29,-108C1027.3,-108 1092.7,-108 1138.3,-108"/>
<polygon fill="black" stroke="black" points="1138.19,-111.5 1148.19,-108 1138.19,-104.5 1138.19,-111.5"/>
<text text-anchor="middle" x="1072.2" y="-111.95" font-family="Times,serif" font-size="14.00">RSET/250:2</text>
</g>
<!-- q7:230&#45;&gt;q11:145 -->
<g id="edge30" class="edge">
<title>q7:230&#45;&gt;q11:145</title>
<path fill="none" stroke="black" d="M1234.5,-175.09C1271.6,-180.3 1325.4,-187.85 1366.5,-193.63"/>
<polygon fill="black" stroke="black" points="1365.81,-197.07 1376.2,-194.99 1366.78,-190.14 1365.81,-197.07"/>
<text text-anchor="middle" x="1305.5" y="-195.94" font-family="Times,serif" font-size="14.00">RCPT/250:141</text>
</g>
<!-- q12:163 -->
<g id="node22" class="node">
<title>q12:163</title>
<ellipse fill="none" stroke="black" stroke-width="2" cx="1427.1" cy="-72" rx="52.26" ry="18"/>
<text text-anchor="middle" x="1427.1" y="-67.33" font-family="Times,serif" font-size="14.00">q12:163</text>
</g>
<!-- q7:230&#45;&gt;q12:163 -->
<g id="edge31" class="edge">
<title>q7:230&#45;&gt;q12:163</title>
<path fill="none" stroke="black" d="M1223.3,-155.72C1264.3,-138.81 1335.3,-109.51 1381.5,-90.44"/>
<polygon fill="black" stroke="black" points="1382.79,-93.7 1390.7,-86.64 1380.12,-87.23 1382.79,-93.7"/>
<text text-anchor="middle" x="1305.5" y="-146.94" font-family="Times,serif" font-size="14.00">DATA/354:89</text>
</g>
<!-- q14:12 -->
<g id="node28" class="node">
<title>q14:12</title>
<ellipse fill="none" stroke="black" stroke-width="2" cx="1190.2" cy="-269" rx="45.95" ry="18"/>
<text text-anchor="middle" x="1190.2" y="-264.32" font-family="Times,serif" font-size="14.00">q14:12</text>
</g>
<!-- q10:12&#45;&gt;q14:12 -->
<g id="edge32" class="edge">
<title>q10:12&#45;&gt;q14:12</title>
<path fill="none" stroke="black" d="M1001.2,-269C1038.6,-269 1091.6,-269 1131.8,-269"/>
<polygon fill="black" stroke="black" points="1131.79,-272.5 1141.79,-269 1131.79,-265.5 1131.79,-272.5"/>
<text text-anchor="middle" x="1072.2" y="-272.94" font-family="Times,serif" font-size="14.00">content/535:12</text>
</g>
<!-- q12:163&#45;&gt;q12:163 -->
<g id="edge23" class="edge">
<title>q12:163&#45;&gt;q12:163</title>
<path fill="none" stroke="black" d="M1405.6,-89.04C1401.2,-98.86 1408.4,-108 1427.1,-108 1438,-108 1445,-104.94 1448.1,-100.47"/>
<polygon fill="black" stroke="black" points="1451.59,-100.72 1448.62,-90.55 1444.6,-100.35 1451.59,-100.72"/>
<text text-anchor="middle" x="1427.1" y="-111.95" font-family="Times,serif" font-size="14.00">content/λ:74</text>
</g>
<!-- q18:24 -->
<g id="node23" class="node">
<title>q18:24</title>
<ellipse fill="none" stroke="black" stroke-width="2" cx="1682" cy="-72" rx="45.95" ry="18"/>
<text text-anchor="middle" x="1682" y="-67.33" font-family="Times,serif" font-size="14.00">q18:24</text>
</g>
<!-- q12:163&#45;&gt;q18:24 -->
<g id="edge24" class="edge">
<title>q12:163&#45;&gt;q18:24</title>
<path fill="none" stroke="black" d="M1480.2,-72C1522,-72 1580.7,-72 1623.9,-72"/>
<polygon fill="black" stroke="black" points="1623.79,-75.5 1633.79,-72 1623.79,-68.5 1623.79,-75.5"/>
<text text-anchor="middle" x="1551.4" y="-75.95" font-family="Times,serif" font-size="14.00">content/250:24</text>
</g>
<!-- q19:65 -->
<g id="node24" class="node">
<title>q19:65</title>
<ellipse fill="none" stroke="black" stroke-width="2" cx="1682" cy="-18" rx="45.95" ry="18"/>
<text text-anchor="middle" x="1682" y="-13.32" font-family="Times,serif" font-size="14.00">q19:65</text>
</g>
<!-- q12:163&#45;&gt;q19:65 -->
<g id="edge25" class="edge">
<title>q12:163&#45;&gt;q19:65</title>
<path fill="none" stroke="black" d="M1466.4,-59.36C1476.4,-56.3 1487.2,-53.2 1497.4,-50.75 1540.4,-40.34 1589.9,-31.7 1626.7,-25.92"/>
<polygon fill="black" stroke="black" points="1626.76,-29.45 1636.1,-24.45 1625.68,-22.53 1626.76,-29.45"/>
<text text-anchor="middle" x="1551.4" y="-54.95" font-family="Times,serif" font-size="14.00">content/554:65</text>
</g>
<!-- q24:24 -->
<g id="node25" class="node">
<title>q24:24</title>
<ellipse fill="none" stroke="black" stroke-width="2" cx="1930.5" cy="-72" rx="45.95" ry="18"/>
<text text-anchor="middle" x="1930.5" y="-67.33" font-family="Times,serif" font-size="14.00">q24:24</text>
</g>
<!-- q18:24&#45;&gt;q24:24 -->
<g id="edge26" class="edge">
<title>q18:24&#45;&gt;q24:24</title>
<path fill="none" stroke="black" d="M1728.7,-72C1769.4,-72 1828.9,-72 1872.6,-72"/>
<polygon fill="black" stroke="black" points="1872.39,-75.5 1882.39,-72 1872.39,-68.5 1872.39,-75.5"/>
<text text-anchor="middle" x="1812.5" y="-75.95" font-family="Times,serif" font-size="14.00">QUIT/221:24</text>
</g>
<!-- q25:65 -->
<g id="node26" class="node">
<title>q25:65</title>
<ellipse fill="none" stroke="black" stroke-width="2" cx="1930.5" cy="-18" rx="45.95" ry="18"/>
<text text-anchor="middle" x="1930.5" y="-13.32" font-family="Times,serif" font-size="14.00">q25:65</text>
</g>
<!-- q19:65&#45;&gt;q25:65 -->
<g id="edge27" class="edge">
<title>q19:65&#45;&gt;q25:65</title>
<path fill="none" stroke="black" d="M1728.7,-18C1769.4,-18 1828.9,-18 1872.6,-18"/>
<polygon fill="black" stroke="black" points="1872.39,-21.5 1882.39,-18 1872.39,-14.5 1872.39,-21.5"/>
<text text-anchor="middle" x="1812.5" y="-21.95" font-family="Times,serif" font-size="14.00">RSET/250:65</text>
</g>
<!-- q20:3 -->
<g id="node29" class="node">
<title>q20:3</title>
<ellipse fill="none" stroke="black" stroke-width="2" cx="1427.1" cy="-269" rx="39.63" ry="18"/>
<text text-anchor="middle" x="1427.1" y="-264.32" font-family="Times,serif" font-size="14.00">q20:3</text>
</g>
<!-- q14:12&#45;&gt;q20:3 -->
<g id="edge33" class="edge">
<title>q14:12&#45;&gt;q20:3</title>
<path fill="none" stroke="black" d="M1237,-269C1276.7,-269 1334.1,-269 1375.2,-269"/>
<polygon fill="black" stroke="black" points="1375.09,-272.5 1385.09,-269 1375.09,-265.5 1375.09,-272.5"/>
<text text-anchor="middle" x="1305.5" y="-272.94" font-family="Times,serif" font-size="14.00">λ/451:3</text>
</g>
</g>
</svg>
