<?xml version="1.0" encoding="UTF-8" standalone="no"?>
<!DOCTYPE svg PUBLIC "-//W3C//DTD SVG 1.1//EN"
 "http://www.w3.org/Graphics/SVG/1.1/DTD/svg11.dtd">
<!-- Generated by graphviz version 12.0.0 (20240803.0821)
 -->
<!-- Pages: 1 -->
<svg width="2260pt" height="305pt"
 viewBox="0.00 0.00 2259.66 305.00" xmlns="http://www.w3.org/2000/svg" xmlns:xlink="http://www.w3.org/1999/xlink">
<g id="graph0" class="graph" transform="scale(1 1) rotate(0) translate(4 301)">
<polygon fill="white" stroke="none" points="-4,4 -4,-301 2255.66,-301 2255.66,4 -4,4"/>
<!-- q5:12 -->
<g id="node1" class="node">
<title>q5:12</title>
<ellipse fill="none" stroke="black" stroke-width="2" cx="725.13" cy="-245" rx="39.63" ry="18"/>
<text text-anchor="middle" x="725.13" y="-240.32" font-family="Times,serif" font-size="14.00">q5:12</text>
</g>
<!-- q9:12 -->
<g id="node2" class="node">
<title>q9:12</title>
<ellipse fill="none" stroke="black" stroke-width="2" cx="954.27" cy="-246" rx="39.63" ry="18"/>
<text text-anchor="middle" x="954.27" y="-241.32" font-family="Times,serif" font-size="14.00">q9:12</text>
</g>
<!-- q5:12&#45;&gt;q9:12 -->
<g id="edge1" class="edge">
<title>q5:12&#45;&gt;q9:12</title>
<path fill="none" stroke="black" d="M765.69,-245.17C803.6,-245.34 861,-245.59 902.32,-245.78"/>
<polygon fill="black" stroke="black" points="902.25,-249.28 912.27,-245.82 902.28,-242.28 902.25,-249.28"/>
<text text-anchor="middle" x="839.7" y="-248.94" font-family="Times,serif" font-size="14.00">AUTH/334:12</text>
</g>
<!-- q12:12 -->
<g id="node3" class="node">
<title>q12:12</title>
<ellipse fill="none" stroke="black" stroke-width="2" cx="1196.5" cy="-246" rx="45.95" ry="18"/>
<text text-anchor="middle" x="1196.5" y="-241.32" font-family="Times,serif" font-size="14.00">q12:12</text>
</g>
<!-- q9:12&#45;&gt;q12:12 -->
<g id="edge2" class="edge">
<title>q9:12&#45;&gt;q12:12</title>
<path fill="none" stroke="black" d="M994.67,-246C1033.8,-246 1094.1,-246 1138.4,-246"/>
<polygon fill="black" stroke="black" points="1138.39,-249.5 1148.39,-246 1138.39,-242.5 1138.39,-249.5"/>
<text text-anchor="middle" x="1072.2" y="-249.94" font-family="Times,serif" font-size="14.00">content/535:12</text>
</g>
<!-- q15:4 -->
<g id="node4" class="node">
<title>q15:4</title>
<ellipse fill="none" stroke="black" stroke-width="2" cx="1439.8" cy="-246" rx="39.63" ry="18"/>
<text text-anchor="middle" x="1439.8" y="-241.32" font-family="Times,serif" font-size="14.00">q15:4</text>
</g>
<!-- q12:12&#45;&gt;q15:4 -->
<g id="edge3" class="edge">
<title>q12:12&#45;&gt;q15:4</title>
<path fill="none" stroke="black" d="M1243.1,-246C1284.4,-246 1345.2,-246 1388,-246"/>
<polygon fill="black" stroke="black" points="1387.79,-249.5 1397.79,-246 1387.79,-242.5 1387.79,-249.5"/>
<text text-anchor="middle" x="1318.1" y="-249.94" font-family="Times,serif" font-size="14.00">λ/451:4</text>
</g>
<!-- q3:242 -->
<g id="node5" class="node">
<title>q3:242</title>
<ellipse fill="none" stroke="black" stroke-width="2" cx="491.48" cy="-191" rx="45.95" ry="18"/>
<text text-anchor="middle" x="491.48" y="-186.32" font-family="Times,serif" font-size="14.00">q3:242</text>
</g>
<!-- q3:242&#45;&gt;q5:12 -->
<g id="edge4" class="edge">
<title>q3:242&#45;&gt;q5:12</title>
<path fill="none" stroke="black" d="M521.02,-205.62C531.6,-210.52 543.84,-215.6 555.43,-219 594.51,-230.48 640.26,-237.13 674.25,-240.82"/>
<polygon fill="black" stroke="black" points="673.49,-244.26 683.79,-241.81 674.21,-237.3 673.49,-244.26"/>
<text text-anchor="middle" x="608.31" y="-242.94" font-family="Times,serif" font-size="14.00">AUTH/535:12</text>
</g>
<!-- q4:231 -->
<g id="node6" class="node">
<title>q4:231</title>
<ellipse fill="none" stroke="black" stroke-width="2" cx="725.13" cy="-131" rx="45.95" ry="18"/>
<text text-anchor="middle" x="725.13" y="-126.33" font-family="Times,serif" font-size="14.00">q4:231</text>
</g>
<!-- q3:242&#45;&gt;q4:231 -->
<g id="edge5" class="edge">
<title>q3:242&#45;&gt;q4:231</title>
<path fill="none" stroke="black" d="M518.34,-175.45C529.42,-169.41 542.72,-162.94 555.43,-158.75 591.87,-146.75 634.52,-139.79 667.82,-135.84"/>
<polygon fill="black" stroke="black" points="668.13,-139.33 677.68,-134.74 667.35,-132.37 668.13,-139.33"/>
<text text-anchor="middle" x="608.31" y="-162.94" font-family="Times,serif" font-size="14.00">AUTH/235:229</text>
</g>
<!-- q6:1 -->
<g id="node7" class="node">
<title>q6:1</title>
<ellipse fill="none" stroke="black" stroke-width="2" cx="839.7" cy="-196" rx="33.32" ry="18"/>
<text text-anchor="middle" x="839.7" y="-191.32" font-family="Times,serif" font-size="14.00">q6:1</text>
</g>
<!-- q3:242&#45;&gt;q6:1 -->
<g id="edge6" class="edge">
<title>q3:242&#45;&gt;q6:1</title>
<path fill="none" stroke="black" d="M538.1,-191.66C604.79,-192.62 728.13,-194.4 794.18,-195.36"/>
<polygon fill="black" stroke="black" points="793.88,-198.86 803.93,-195.5 793.98,-191.86 793.88,-198.86"/>
<text text-anchor="middle" x="608.31" y="-196.94" font-family="Times,serif" font-size="14.00">AUTH/λ:1</text>
</g>
<!-- q8:228 -->
<g id="node8" class="node">
<title>q8:228</title>
<ellipse fill="none" stroke="black" stroke-width="2" cx="954.27" cy="-85" rx="45.95" ry="18"/>
<text text-anchor="middle" x="954.27" y="-80.33" font-family="Times,serif" font-size="14.00">q8:228</text>
</g>
<!-- q4:231&#45;&gt;q8:228 -->
<g id="edge7" class="edge">
<title>q4:231&#45;&gt;q8:228</title>
<path fill="none" stroke="black" d="M762.56,-119.67C771.2,-117.2 780.42,-114.73 789.08,-112.75 825.22,-104.48 866.36,-97.54 898.42,-92.66"/>
<polygon fill="black" stroke="black" points="898.92,-96.12 908.29,-91.18 897.88,-89.2 898.92,-96.12"/>
<text text-anchor="middle" x="839.7" y="-116.95" font-family="Times,serif" font-size="14.00">MAIL/250:228</text>
</g>
<!-- q7:3 -->
<g id="node9" class="node">
<title>q7:3</title>
<ellipse fill="none" stroke="black" stroke-width="2" cx="954.27" cy="-139" rx="33.32" ry="18"/>
<text text-anchor="middle" x="954.27" y="-134.32" font-family="Times,serif" font-size="14.00">q7:3</text>
</g>
<!-- q4:231&#45;&gt;q7:3 -->
<g id="edge8" class="edge">
<title>q4:231&#45;&gt;q7:3</title>
<path fill="none" stroke="black" d="M771.82,-132.61C811.71,-134.01 869.24,-136.04 908.77,-137.43"/>
<polygon fill="black" stroke="black" points="908.54,-140.92 918.66,-137.78 908.79,-133.93 908.54,-140.92"/>
<text text-anchor="middle" x="839.7" y="-140.94" font-family="Times,serif" font-size="14.00">MAIL/553:3</text>
</g>
<!-- q10:229 -->
<g id="node10" class="node">
<title>q10:229</title>
<ellipse fill="none" stroke="black" stroke-width="2" cx="1196.5" cy="-192" rx="52.26" ry="18"/>
<text text-anchor="middle" x="1196.5" y="-187.32" font-family="Times,serif" font-size="14.00">q10:229</text>
</g>
<!-- q6:1&#45;&gt;q10:229 -->
<g id="edge9" class="edge">
<title>q6:1&#45;&gt;q10:229</title>
<path fill="none" stroke="black" d="M873.76,-195.63C932.58,-194.96 1056.3,-193.57 1132.1,-192.72"/>
<polygon fill="black" stroke="black" points="1131.83,-196.22 1141.79,-192.61 1131.75,-189.22 1131.83,-196.22"/>
<text text-anchor="middle" x="954.27" y="-198.94" font-family="Times,serif" font-size="14.00">MAIL/250:1</text>
</g>
<!-- q8:228&#45;&gt;q10:229 -->
<g id="edge10" class="edge">
<title>q8:228&#45;&gt;q10:229</title>
<path fill="none" stroke="black" d="M1000.69,-82.21C1038.4,-82.34 1091.4,-88.52 1126.2,-117.75 1143.4,-132.19 1129.3,-148.18 1144.2,-165 1146.4,-167.44 1148.8,-169.69 1151.4,-171.76"/>
<polygon fill="black" stroke="black" points="1149.31,-174.57 1159.55,-177.29 1153.24,-168.78 1149.31,-174.57"/>
<text text-anchor="middle" x="1072.2" y="-121.95" font-family="Times,serif" font-size="14.00">RCPT/250:228</text>
</g>
<!-- q11:3 -->
<g id="node11" class="node">
<title>q11:3</title>
<ellipse fill="none" stroke="black" stroke-width="2" cx="1196.5" cy="-138" rx="39.63" ry="18"/>
<text text-anchor="middle" x="1196.5" y="-133.32" font-family="Times,serif" font-size="14.00">q11:3</text>
</g>
<!-- q7:3&#45;&gt;q11:3 -->
<g id="edge11" class="edge">
<title>q7:3&#45;&gt;q11:3</title>
<path fill="none" stroke="black" d="M988.42,-138.86C1028.8,-138.69 1097.3,-138.41 1144.4,-138.21"/>
<polygon fill="black" stroke="black" points="1144.4,-141.71 1154.39,-138.17 1144.37,-134.71 1144.4,-141.71"/>
<text text-anchor="middle" x="1072.2" y="-142.94" font-family="Times,serif" font-size="14.00">RSET/250:3</text>
</g>
<!-- q14:165 -->
<g id="node12" class="node">
<title>q14:165</title>
<ellipse fill="none" stroke="black" stroke-width="2" cx="1439.8" cy="-192" rx="52.26" ry="18"/>
<text text-anchor="middle" x="1439.8" y="-187.32" font-family="Times,serif" font-size="14.00">q14:165</text>
</g>
<!-- q10:229&#45;&gt;q14:165 -->
<g id="edge12" class="edge">
<title>q10:229&#45;&gt;q14:165</title>
<path fill="none" stroke="black" d="M1249.5,-192C1286.5,-192 1336.3,-192 1375.5,-192"/>
<polygon fill="black" stroke="black" points="1375.29,-195.5 1385.29,-192 1375.29,-188.5 1375.29,-195.5"/>
<text text-anchor="middle" x="1318.1" y="-195.94" font-family="Times,serif" font-size="14.00">RCPT/250:161</text>
</g>
<!-- q13:68 -->
<g id="node13" class="node">
<title>q13:68</title>
<ellipse fill="none" stroke="black" stroke-width="2" cx="1439.8" cy="-92" rx="45.95" ry="18"/>
<text text-anchor="middle" x="1439.8" y="-87.33" font-family="Times,serif" font-size="14.00">q13:68</text>
</g>
<!-- q10:229&#45;&gt;q13:68 -->
<g id="edge13" class="edge">
<title>q10:229&#45;&gt;q13:68</title>
<path fill="none" stroke="black" d="M1231.8,-177.78C1275,-159.87 1349.2,-129.1 1396.1,-109.69"/>
<polygon fill="black" stroke="black" points="1397.21,-113.02 1405.1,-105.95 1394.52,-106.55 1397.21,-113.02"/>
<text text-anchor="middle" x="1318.1" y="-166.94" font-family="Times,serif" font-size="14.00">DATA/354:68</text>
</g>
<!-- q17:3266 -->
<g id="node18" class="node">
<title>q17:3266</title>
<ellipse fill="none" stroke="black" stroke-width="2" cx="1694.6" cy="-136" rx="58.57" ry="18"/>
<text text-anchor="middle" x="1694.6" y="-131.32" font-family="Times,serif" font-size="14.00">q17:3266</text>
</g>
<!-- q14:165&#45;&gt;q17:3266 -->
<g id="edge24" class="edge">
<title>q14:165&#45;&gt;q17:3266</title>
<path fill="none" stroke="black" d="M1472.6,-177.15C1484.2,-172.26 1497.5,-167.2 1510,-163.75 1547.9,-153.33 1591.3,-146.54 1626.4,-142.29"/>
<polygon fill="black" stroke="black" points="1626.37,-145.82 1635.9,-141.18 1625.56,-138.86 1626.37,-145.82"/>
<text text-anchor="middle" x="1564" y="-167.94" font-family="Times,serif" font-size="14.00">DATA/354:123</text>
</g>
<!-- q20:38 -->
<g id="node23" class="node">
<title>q20:38</title>
<ellipse fill="none" stroke="black" stroke-width="2" cx="1694.6" cy="-279" rx="45.95" ry="18"/>
<text text-anchor="middle" x="1694.6" y="-274.32" font-family="Times,serif" font-size="14.00">q20:38</text>
</g>
<!-- q14:165&#45;&gt;q20:38 -->
<g id="edge25" class="edge">
<title>q14:165&#45;&gt;q20:38</title>
<path fill="none" stroke="black" d="M1473.5,-206.6C1480,-210.19 1486.5,-214.36 1492,-219 1502,-227.32 1499,-235.18 1510,-242 1548,-265.44 1598,-274.38 1636.3,-277.63"/>
<polygon fill="black" stroke="black" points="1635.96,-281.11 1646.19,-278.36 1636.47,-274.13 1635.96,-281.11"/>
<text text-anchor="middle" x="1564" y="-278.94" font-family="Times,serif" font-size="14.00">DATA/550:38</text>
</g>
<!-- q19:4 -->
<g id="node24" class="node">
<title>q19:4</title>
<ellipse fill="none" stroke="black" stroke-width="2" cx="1694.6" cy="-225" rx="39.63" ry="18"/>
<text text-anchor="middle" x="1694.6" y="-220.32" font-family="Times,serif" font-size="14.00">q19:4</text>
</g>
<!-- q14:165&#45;&gt;q19:4 -->
<g id="edge26" class="edge">
<title>q14:165&#45;&gt;q19:4</title>
<path fill="none" stroke="black" d="M1491,-186.95C1526.8,-184.62 1575.8,-184.03 1618,-192.75 1625.8,-194.36 1641.1,-200.66 1655.9,-207.28"/>
<polygon fill="black" stroke="black" points="1654.07,-210.29 1664.62,-211.23 1656.95,-203.91 1654.07,-210.29"/>
<text text-anchor="middle" x="1564" y="-195.94" font-family="Times,serif" font-size="14.00">RCPT/250:4</text>
</g>
<!-- q13:68&#45;&gt;q17:3266 -->
<g id="edge27" class="edge">
<title>q13:68&#45;&gt;q17:3266</title>
<path fill="none" stroke="black" d="M1485.9,-95.01C1522,-97.95 1573.6,-103.4 1618,-112.75 1626.2,-114.48 1634.8,-116.71 1643.2,-119.11"/>
<polygon fill="black" stroke="black" points="1641.87,-122.36 1652.45,-121.89 1643.88,-115.66 1641.87,-122.36"/>
<text text-anchor="middle" x="1564" y="-116.95" font-family="Times,serif" font-size="14.00">content/λ:3</text>
</g>
<!-- q18:9 -->
<g id="node25" class="node">
<title>q18:9</title>
<ellipse fill="none" stroke="black" stroke-width="2" cx="1694.6" cy="-18" rx="39.63" ry="18"/>
<text text-anchor="middle" x="1694.6" y="-13.32" font-family="Times,serif" font-size="14.00">q18:9</text>
</g>
<!-- q13:68&#45;&gt;q18:9 -->
<g id="edge28" class="edge">
<title>q13:68&#45;&gt;q18:9</title>
<path fill="none" stroke="black" d="M1461.3,-75.22C1474.5,-65.37 1492.3,-53.55 1510,-46.75 1553.1,-30.18 1605.4,-23.15 1643.2,-20.17"/>
<polygon fill="black" stroke="black" points="1643.16,-23.68 1652.89,-19.48 1642.67,-16.7 1643.16,-23.68"/>
<text text-anchor="middle" x="1564" y="-50.95" font-family="Times,serif" font-size="14.00">content/250:9</text>
</g>
<!-- q16:56 -->
<g id="node26" class="node">
<title>q16:56</title>
<ellipse fill="none" stroke="black" stroke-width="2" cx="1694.6" cy="-72" rx="45.95" ry="18"/>
<text text-anchor="middle" x="1694.6" y="-67.33" font-family="Times,serif" font-size="14.00">q16:56</text>
</g>
<!-- q13:68&#45;&gt;q16:56 -->
<g id="edge29" class="edge">
<title>q13:68&#45;&gt;q16:56</title>
<path fill="none" stroke="black" d="M1476.3,-80.16C1487,-77.13 1498.9,-74.29 1510,-72.75 1552.3,-66.89 1600.6,-66.96 1637.1,-68.36"/>
<polygon fill="black" stroke="black" points="1636.85,-71.85 1646.99,-68.79 1637.15,-64.86 1636.85,-71.85"/>
<text text-anchor="middle" x="1564" y="-76.95" font-family="Times,serif" font-size="14.00">content/554:56</text>
</g>
<!-- q1:244 -->
<g id="node14" class="node">
<title>q1:244</title>
<ellipse fill="none" stroke="black" stroke-width="2" cx="257.84" cy="-158" rx="45.95" ry="18"/>
<text text-anchor="middle" x="257.84" y="-153.32" font-family="Times,serif" font-size="14.00">q1:244</text>
</g>
<!-- q1:244&#45;&gt;q3:242 -->
<g id="edge14" class="edge">
<title>q1:244&#45;&gt;q3:242</title>
<path fill="none" stroke="black" d="M302.14,-164.17C340,-169.56 395.17,-177.42 436.02,-183.24"/>
<polygon fill="black" stroke="black" points="435.51,-186.7 445.9,-184.65 436.49,-179.77 435.51,-186.7"/>
<text text-anchor="middle" x="374.66" y="-184.94" font-family="Times,serif" font-size="14.00">EHLO/250:242</text>
</g>
<!-- q2:2 -->
<g id="node15" class="node">
<title>q2:2</title>
<ellipse fill="none" stroke="black" stroke-width="2" cx="491.48" cy="-131" rx="33.32" ry="18"/>
<text text-anchor="middle" x="491.48" y="-126.33" font-family="Times,serif" font-size="14.00">q2:2</text>
</g>
<!-- q1:244&#45;&gt;q2:2 -->
<g id="edge15" class="edge">
<title>q1:244&#45;&gt;q2:2</title>
<path fill="none" stroke="black" d="M298.66,-148.83C306.31,-147.29 314.27,-145.84 321.79,-144.75 363.67,-138.66 411.82,-135.07 445.93,-133.1"/>
<polygon fill="black" stroke="black" points="446.07,-136.6 455.86,-132.54 445.68,-129.61 446.07,-136.6"/>
<text text-anchor="middle" x="374.66" y="-148.94" font-family="Times,serif" font-size="14.00">EHLO/λ:2</text>
</g>
<!-- q2:2&#45;&gt;q4:231 -->
<g id="edge16" class="edge">
<title>q2:2&#45;&gt;q4:231</title>
<path fill="none" stroke="black" d="M523.05,-123.83C533.28,-121.75 544.79,-119.78 555.43,-118.75 602.21,-114.24 614.4,-114.24 661.18,-118.75 665.01,-119.12 668.95,-119.61 672.91,-120.19"/>
<polygon fill="black" stroke="black" points="672.07,-123.6 682.51,-121.76 673.2,-116.69 672.07,-123.6"/>
<text text-anchor="middle" x="608.31" y="-122.95" font-family="Times,serif" font-size="14.00">AUTH/235:2</text>
</g>
<!-- q24:1 -->
<g id="node16" class="node">
<title>q24:1</title>
<ellipse fill="none" stroke="black" stroke-width="2" cx="1958.4" cy="-126" rx="39.63" ry="18"/>
<text text-anchor="middle" x="1958.4" y="-121.33" font-family="Times,serif" font-size="14.00">q24:1</text>
</g>
<!-- q28:1 -->
<g id="node17" class="node">
<title>q28:1</title>
<ellipse fill="none" stroke="black" stroke-width="2" cx="2199.4" cy="-126" rx="39.63" ry="18"/>
<text text-anchor="middle" x="2199.4" y="-121.33" font-family="Times,serif" font-size="14.00">q28:1</text>
</g>
<!-- q24:1&#45;&gt;q28:1 -->
<g id="edge17" class="edge">
<title>q24:1&#45;&gt;q28:1</title>
<path fill="none" stroke="black" d="M1998.9,-126C2039.5,-126 2103.1,-126 2147.5,-126"/>
<polygon fill="black" stroke="black" points="2147.39,-129.5 2157.39,-126 2147.39,-122.5 2147.39,-129.5"/>
<text text-anchor="middle" x="2078.9" y="-129.94" font-family="Times,serif" font-size="14.00">RSET/250:1</text>
</g>
<!-- q17:3266&#45;&gt;q24:1 -->
<g id="edge18" class="edge">
<title>q17:3266&#45;&gt;q24:1</title>
<path fill="none" stroke="black" d="M1753.7,-133.78C1799.6,-132.03 1863,-129.6 1906.9,-127.93"/>
<polygon fill="black" stroke="black" points="1906.73,-131.44 1916.59,-127.56 1906.46,-124.44 1906.73,-131.44"/>
<text text-anchor="middle" x="1829.7" y="-137.94" font-family="Times,serif" font-size="14.00">content/550:1</text>
</g>
<!-- q17:3266&#45;&gt;q17:3266 -->
<g id="edge19" class="edge">
<title>q17:3266&#45;&gt;q17:3266</title>
<path fill="none" stroke="black" d="M1671.3,-153.41C1666.9,-163.09 1674.7,-172 1694.6,-172 1706.1,-172 1713.5,-169.02 1716.9,-164.64"/>
<polygon fill="black" stroke="black" points="1720.36,-165.19 1717.77,-154.92 1713.39,-164.57 1720.36,-165.19"/>
<text text-anchor="middle" x="1694.6" y="-175.94" font-family="Times,serif" font-size="14.00">content/λ:3140</text>
</g>
<!-- q23:9 -->
<g id="node19" class="node">
<title>q23:9</title>
<ellipse fill="none" stroke="black" stroke-width="2" cx="1958.4" cy="-234" rx="39.63" ry="18"/>
<text text-anchor="middle" x="1958.4" y="-229.32" font-family="Times,serif" font-size="14.00">q23:9</text>
</g>
<!-- q17:3266&#45;&gt;q23:9 -->
<g id="edge20" class="edge">
<title>q17:3266&#45;&gt;q23:9</title>
<path fill="none" stroke="black" d="M1715,-153.58C1729.5,-165.78 1750.3,-181.5 1771.2,-191 1815.1,-211.06 1869.3,-222.21 1907.9,-228.1"/>
<polygon fill="black" stroke="black" points="1907,-231.51 1917.4,-229.47 1908.01,-224.58 1907,-231.51"/>
<text text-anchor="middle" x="1829.7" y="-227.94" font-family="Times,serif" font-size="14.00">content/554:9</text>
</g>
<!-- q22:116 -->
<g id="node20" class="node">
<title>q22:116</title>
<ellipse fill="none" stroke="black" stroke-width="2" cx="1958.4" cy="-180" rx="52.26" ry="18"/>
<text text-anchor="middle" x="1958.4" y="-175.32" font-family="Times,serif" font-size="14.00">q22:116</text>
</g>
<!-- q17:3266&#45;&gt;q22:116 -->
<g id="edge21" class="edge">
<title>q17:3266&#45;&gt;q22:116</title>
<path fill="none" stroke="black" d="M1742.6,-147.17C1752.1,-149.24 1761.9,-151.29 1771.2,-153 1813.1,-160.74 1860.7,-167.61 1897.2,-172.48"/>
<polygon fill="black" stroke="black" points="1896.33,-175.9 1906.7,-173.72 1897.24,-168.96 1896.33,-175.9"/>
<text text-anchor="middle" x="1829.7" y="-173.94" font-family="Times,serif" font-size="14.00">content/250:116</text>
</g>
<!-- q27:9 -->
<g id="node21" class="node">
<title>q27:9</title>
<ellipse fill="none" stroke="black" stroke-width="2" cx="2199.4" cy="-234" rx="39.63" ry="18"/>
<text text-anchor="middle" x="2199.4" y="-229.32" font-family="Times,serif" font-size="14.00">q27:9</text>
</g>
<!-- q23:9&#45;&gt;q27:9 -->
<g id="edge22" class="edge">
<title>q23:9&#45;&gt;q27:9</title>
<path fill="none" stroke="black" d="M1998.9,-234C2039.5,-234 2103.1,-234 2147.5,-234"/>
<polygon fill="black" stroke="black" points="2147.39,-237.5 2157.39,-234 2147.39,-230.5 2147.39,-237.5"/>
<text text-anchor="middle" x="2078.9" y="-237.94" font-family="Times,serif" font-size="14.00">RSET/250:9</text>
</g>
<!-- q26:116 -->
<g id="node22" class="node">
<title>q26:116</title>
<ellipse fill="none" stroke="black" stroke-width="2" cx="2199.4" cy="-180" rx="52.26" ry="18"/>
<text text-anchor="middle" x="2199.4" y="-175.32" font-family="Times,serif" font-size="14.00">q26:116</text>
</g>
<!-- q22:116&#45;&gt;q26:116 -->
<g id="edge23" class="edge">
<title>q22:116&#45;&gt;q26:116</title>
<path fill="none" stroke="black" d="M2011.6,-180C2048,-180 2096.7,-180 2135.3,-180"/>
<polygon fill="black" stroke="black" points="2134.89,-183.5 2144.89,-180 2134.89,-176.5 2134.89,-183.5"/>
<text text-anchor="middle" x="2078.9" y="-183.94" font-family="Times,serif" font-size="14.00">QUIT/221:116</text>
</g>
<!-- q19:4&#45;&gt;q14:165 -->
<g id="edge30" class="edge">
<title>q19:4&#45;&gt;q14:165</title>
<path fill="none" stroke="black" d="M1654.3,-223.75C1617,-222.11 1559.4,-218.36 1510,-210 1504.1,-209 1498,-207.74 1491.9,-206.35"/>
<polygon fill="black" stroke="black" points="1493.11,-203.04 1482.57,-204.1 1491.47,-209.85 1493.11,-203.04"/>
<text text-anchor="middle" x="1564" y="-224.94" font-family="Times,serif" font-size="14.00">RCPT/250:4</text>
</g>
<!-- q25:9 -->
<g id="node27" class="node">
<title>q25:9</title>
<ellipse fill="none" stroke="black" stroke-width="2" cx="1958.4" cy="-18" rx="39.63" ry="18"/>
<text text-anchor="middle" x="1958.4" y="-13.32" font-family="Times,serif" font-size="14.00">q25:9</text>
</g>
<!-- q18:9&#45;&gt;q25:9 -->
<g id="edge31" class="edge">
<title>q18:9&#45;&gt;q25:9</title>
<path fill="none" stroke="black" d="M1735.1,-18C1780.9,-18 1856.7,-18 1906.8,-18"/>
<polygon fill="black" stroke="black" points="1906.49,-21.5 1916.49,-18 1906.49,-14.5 1906.49,-21.5"/>
<text text-anchor="middle" x="1829.7" y="-21.95" font-family="Times,serif" font-size="14.00">QUIT/221:9</text>
</g>
<!-- q21:56 -->
<g id="node28" class="node">
<title>q21:56</title>
<ellipse fill="none" stroke="black" stroke-width="2" cx="1958.4" cy="-72" rx="45.95" ry="18"/>
<text text-anchor="middle" x="1958.4" y="-67.33" font-family="Times,serif" font-size="14.00">q21:56</text>
</g>
<!-- q16:56&#45;&gt;q21:56 -->
<g id="edge32" class="edge">
<title>q16:56&#45;&gt;q21:56</title>
<path fill="none" stroke="black" d="M1741.5,-72C1785.7,-72 1852.6,-72 1900.2,-72"/>
<polygon fill="black" stroke="black" points="1900.09,-75.5 1910.09,-72 1900.09,-68.5 1900.09,-75.5"/>
<text text-anchor="middle" x="1829.7" y="-75.95" font-family="Times,serif" font-size="14.00">RSET/250:56</text>
</g>
<!-- q0:244 -->
<g id="node29" class="node">
<title>q0:244</title>
<ellipse fill="none" stroke="black" stroke-width="2" cx="53.95" cy="-158" rx="49.95" ry="49.95"/>
<ellipse fill="none" stroke="black" stroke-width="2" cx="53.95" cy="-158" rx="53.95" ry="53.95"/>
<text text-anchor="middle" x="53.95" y="-153.32" font-family="Times,serif" font-size="14.00">q0:244</text>
</g>
<!-- q0:244&#45;&gt;q1:244 -->
<g id="edge33" class="edge">
<title>q0:244&#45;&gt;q1:244</title>
<path fill="none" stroke="black" d="M104.85,-158C133.64,-158 169.94,-158 199.84,-158"/>
<polygon fill="black" stroke="black" points="199.45,-161.5 209.45,-158 199.45,-154.5 199.45,-161.5"/>
<text text-anchor="middle" x="157.89" y="-161.94" font-family="Times,serif" font-size="14.00">λ/220:244</text>
</g>
</g>
</svg>
