<?xml version="1.0" encoding="UTF-8" standalone="no"?>
<!DOCTYPE svg PUBLIC "-//W3C//DTD SVG 1.1//EN"
 "http://www.w3.org/Graphics/SVG/1.1/DTD/svg11.dtd">
<!-- Generated by graphviz version 12.0.0 (20240803.0821)
 -->
<!-- Pages: 1 -->
<svg width="2001pt" height="320pt"
 viewBox="0.00 0.00 2001.06 320.21" xmlns="http://www.w3.org/2000/svg" xmlns:xlink="http://www.w3.org/1999/xlink">
<g id="graph0" class="graph" transform="scale(1 1) rotate(0) translate(4 316.21)">
<polygon fill="white" stroke="none" points="-4,4 -4,-316.21 1997.06,-316.21 1997.06,4 -4,4"/>
<!-- q17:113 -->
<g id="node1" class="node">
<title>q17:113</title>
<ellipse fill="none" stroke="black" stroke-width="2" cx="1699.8" cy="-196" rx="52.26" ry="18"/>
<text text-anchor="middle" x="1699.8" y="-191.32" font-family="Times,serif" font-size="14.00">q17:113</text>
</g>
<!-- q21:113 -->
<g id="node2" class="node">
<title>q21:113</title>
<ellipse fill="none" stroke="black" stroke-width="2" cx="1940.8" cy="-196" rx="52.26" ry="18"/>
<text text-anchor="middle" x="1940.8" y="-191.32" font-family="Times,serif" font-size="14.00">q21:113</text>
</g>
<!-- q17:113&#45;&gt;q21:113 -->
<g id="edge1" class="edge">
<title>q17:113&#45;&gt;q21:113</title>
<path fill="none" stroke="black" d="M1752.9,-196C1789.3,-196 1838,-196 1876.6,-196"/>
<polygon fill="black" stroke="black" points="1876.19,-199.5 1886.19,-196 1876.19,-192.5 1876.19,-199.5"/>
<text text-anchor="middle" x="1820.3" y="-199.94" font-family="Times,serif" font-size="14.00">QUIT/221:113</text>
</g>
<!-- q11:146 -->
<g id="node3" class="node">
<title>q11:146</title>
<ellipse fill="none" stroke="black" stroke-width="2" cx="960.59" cy="-179" rx="52.26" ry="18"/>
<text text-anchor="middle" x="960.59" y="-174.32" font-family="Times,serif" font-size="14.00">q11:146</text>
</g>
<!-- q7:235 -->
<g id="node4" class="node">
<title>q7:235</title>
<ellipse fill="none" stroke="black" stroke-width="2" cx="1203" cy="-239" rx="45.95" ry="18"/>
<text text-anchor="middle" x="1203" y="-234.32" font-family="Times,serif" font-size="14.00">q7:235</text>
</g>
<!-- q11:146&#45;&gt;q7:235 -->
<g id="edge2" class="edge">
<title>q11:146&#45;&gt;q7:235</title>
<path fill="none" stroke="black" d="M1013.7,-179.15C1049.8,-180.67 1098.3,-185.58 1138.8,-199.75 1150.1,-203.68 1161.4,-209.87 1171.3,-216.19"/>
<polygon fill="black" stroke="black" points="1169.18,-218.98 1179.44,-221.63 1173.07,-213.16 1169.18,-218.98"/>
<text text-anchor="middle" x="1084.8" y="-202.94" font-family="Times,serif" font-size="14.00">RCPT/250:4</text>
</g>
<!-- q12:2683 -->
<g id="node5" class="node">
<title>q12:2683</title>
<ellipse fill="none" stroke="black" stroke-width="2" cx="1435.9" cy="-142" rx="58.57" ry="18"/>
<text text-anchor="middle" x="1435.9" y="-137.32" font-family="Times,serif" font-size="14.00">q12:2683</text>
</g>
<!-- q11:146&#45;&gt;q12:2683 -->
<g id="edge3" class="edge">
<title>q11:146&#45;&gt;q12:2683</title>
<path fill="none" stroke="black" d="M992.32,-163.98C1004.1,-158.8 1017.9,-153.43 1030.8,-150 1147,-119.29 1288.5,-126.08 1369.5,-133.94"/>
<polygon fill="black" stroke="black" points="1368.69,-137.38 1378.99,-134.91 1369.4,-130.41 1368.69,-137.38"/>
<text text-anchor="middle" x="1203" y="-133.94" font-family="Times,serif" font-size="14.00">DATA/354:99</text>
</g>
<!-- q15:43 -->
<g id="node6" class="node">
<title>q15:43</title>
<ellipse fill="none" stroke="black" stroke-width="2" cx="1203" cy="-179" rx="45.95" ry="18"/>
<text text-anchor="middle" x="1203" y="-174.32" font-family="Times,serif" font-size="14.00">q15:43</text>
</g>
<!-- q11:146&#45;&gt;q15:43 -->
<g id="edge4" class="edge">
<title>q11:146&#45;&gt;q15:43</title>
<path fill="none" stroke="black" d="M1000.03,-166.33C1010,-163.6 1020.7,-161.13 1030.8,-159.75 1078.4,-153.26 1091.4,-152.67 1138.8,-159.75 1144.8,-160.64 1151,-161.97 1157,-163.53"/>
<polygon fill="black" stroke="black" points="1155.67,-166.79 1166.24,-166.12 1157.56,-160.05 1155.67,-166.79"/>
<text text-anchor="middle" x="1084.8" y="-162.94" font-family="Times,serif" font-size="14.00">DATA/550:43</text>
</g>
<!-- q7:235&#45;&gt;q11:146 -->
<g id="edge5" class="edge">
<title>q7:235&#45;&gt;q11:146</title>
<path fill="none" stroke="black" d="M1157,-235.13C1114.4,-231.12 1053.6,-224.4 1030.8,-217 1019,-213.14 1006.8,-207.22 996.05,-201.2"/>
<polygon fill="black" stroke="black" points="997.92,-198.24 987.52,-196.22 994.39,-204.28 997.92,-198.24"/>
<text text-anchor="middle" x="1084.8" y="-235.94" font-family="Times,serif" font-size="14.00">RCPT/250:146</text>
</g>
<!-- q7:235&#45;&gt;q12:2683 -->
<g id="edge6" class="edge">
<title>q7:235&#45;&gt;q12:2683</title>
<path fill="none" stroke="black" d="M1235.6,-225.72C1275.3,-209.05 1343.6,-180.34 1389.1,-161.26"/>
<polygon fill="black" stroke="black" points="1390.25,-164.57 1398.1,-157.46 1387.53,-158.12 1390.25,-164.57"/>
<text text-anchor="middle" x="1313.2" y="-213.94" font-family="Times,serif" font-size="14.00">DATA/354:89</text>
</g>
<!-- q12:2683&#45;&gt;q17:113 -->
<g id="edge7" class="edge">
<title>q12:2683&#45;&gt;q17:113</title>
<path fill="none" stroke="black" d="M1479.9,-154.71C1490.5,-157.63 1501.9,-160.59 1512.5,-163 1554.7,-172.58 1602.9,-181.05 1639.6,-187.01"/>
<polygon fill="black" stroke="black" points="1638.68,-190.41 1649.1,-188.53 1639.78,-183.49 1638.68,-190.41"/>
<text text-anchor="middle" x="1571" y="-188.94" font-family="Times,serif" font-size="14.00">content/250:113</text>
</g>
<!-- q12:2683&#45;&gt;q12:2683 -->
<g id="edge8" class="edge">
<title>q12:2683&#45;&gt;q12:2683</title>
<path fill="none" stroke="black" d="M1414,-159.41C1409.9,-169.09 1417.2,-178 1435.9,-178 1446.7,-178 1453.7,-175.02 1456.9,-170.64"/>
<polygon fill="black" stroke="black" points="1460.37,-171.17 1457.68,-160.92 1453.39,-170.61 1460.37,-171.17"/>
<text text-anchor="middle" x="1435.9" y="-181.94" font-family="Times,serif" font-size="14.00">content/λ:2495</text>
</g>
<!-- q18:1 -->
<g id="node7" class="node">
<title>q18:1</title>
<ellipse fill="none" stroke="black" stroke-width="2" cx="1699.8" cy="-142" rx="39.63" ry="18"/>
<text text-anchor="middle" x="1699.8" y="-137.32" font-family="Times,serif" font-size="14.00">q18:1</text>
</g>
<!-- q12:2683&#45;&gt;q18:1 -->
<g id="edge9" class="edge">
<title>q12:2683&#45;&gt;q18:1</title>
<path fill="none" stroke="black" d="M1495.4,-142C1541.1,-142 1604,-142 1647.7,-142"/>
<polygon fill="black" stroke="black" points="1647.69,-145.5 1657.69,-142 1647.69,-138.5 1647.69,-145.5"/>
<text text-anchor="middle" x="1571" y="-145.94" font-family="Times,serif" font-size="14.00">content/550:1</text>
</g>
<!-- q16:74 -->
<g id="node8" class="node">
<title>q16:74</title>
<ellipse fill="none" stroke="black" stroke-width="2" cx="1699.8" cy="-88" rx="45.95" ry="18"/>
<text text-anchor="middle" x="1699.8" y="-83.33" font-family="Times,serif" font-size="14.00">q16:74</text>
</g>
<!-- q12:2683&#45;&gt;q16:74 -->
<g id="edge10" class="edge">
<title>q12:2683&#45;&gt;q16:74</title>
<path fill="none" stroke="black" d="M1479.5,-129.22C1490.2,-126.23 1501.7,-123.2 1512.5,-120.75 1556.6,-110.7 1607.2,-101.98 1644.5,-96.08"/>
<polygon fill="black" stroke="black" points="1644.77,-99.58 1654.1,-94.57 1643.68,-92.66 1644.77,-99.58"/>
<text text-anchor="middle" x="1571" y="-123.95" font-family="Times,serif" font-size="14.00">content/554:74</text>
</g>
<!-- q22:1 -->
<g id="node9" class="node">
<title>q22:1</title>
<ellipse fill="none" stroke="black" stroke-width="2" cx="1940.8" cy="-142" rx="39.63" ry="18"/>
<text text-anchor="middle" x="1940.8" y="-137.32" font-family="Times,serif" font-size="14.00">q22:1</text>
</g>
<!-- q18:1&#45;&gt;q22:1 -->
<g id="edge11" class="edge">
<title>q18:1&#45;&gt;q22:1</title>
<path fill="none" stroke="black" d="M1740.2,-142C1780.9,-142 1844.4,-142 1888.8,-142"/>
<polygon fill="black" stroke="black" points="1888.69,-145.5 1898.69,-142 1888.69,-138.5 1888.69,-145.5"/>
<text text-anchor="middle" x="1820.3" y="-145.94" font-family="Times,serif" font-size="14.00">RSET/250:1</text>
</g>
<!-- q20:74 -->
<g id="node10" class="node">
<title>q20:74</title>
<ellipse fill="none" stroke="black" stroke-width="2" cx="1940.8" cy="-88" rx="45.95" ry="18"/>
<text text-anchor="middle" x="1940.8" y="-83.33" font-family="Times,serif" font-size="14.00">q20:74</text>
</g>
<!-- q16:74&#45;&gt;q20:74 -->
<g id="edge12" class="edge">
<title>q16:74&#45;&gt;q20:74</title>
<path fill="none" stroke="black" d="M1746.6,-88C1785.3,-88 1841.1,-88 1882.8,-88"/>
<polygon fill="black" stroke="black" points="1882.59,-91.5 1892.59,-88 1882.59,-84.5 1882.59,-91.5"/>
<text text-anchor="middle" x="1820.3" y="-91.95" font-family="Times,serif" font-size="14.00">RSET/250:74</text>
</g>
<!-- q2:242 -->
<g id="node11" class="node">
<title>q2:242</title>
<ellipse fill="none" stroke="black" stroke-width="2" cx="491.48" cy="-215" rx="45.95" ry="18"/>
<text text-anchor="middle" x="491.48" y="-210.32" font-family="Times,serif" font-size="14.00">q2:242</text>
</g>
<!-- q5:10 -->
<g id="node12" class="node">
<title>q5:10</title>
<ellipse fill="none" stroke="black" stroke-width="2" cx="725.13" cy="-123" rx="39.63" ry="18"/>
<text text-anchor="middle" x="725.13" y="-118.33" font-family="Times,serif" font-size="14.00">q5:10</text>
</g>
<!-- q2:242&#45;&gt;q5:10 -->
<g id="edge13" class="edge">
<title>q2:242&#45;&gt;q5:10</title>
<path fill="none" stroke="black" d="M522.19,-200.95C527.78,-197.32 533.19,-192.99 537.43,-188 551.44,-171.5 538.26,-155.92 555.43,-142.75 589.21,-116.84 638.54,-113.87 675.14,-116.21"/>
<polygon fill="black" stroke="black" points="674.78,-119.69 685.03,-117.01 675.34,-112.72 674.78,-119.69"/>
<text text-anchor="middle" x="608.31" y="-145.94" font-family="Times,serif" font-size="14.00">AUTH/535:10</text>
</g>
<!-- q6:233 -->
<g id="node13" class="node">
<title>q6:233</title>
<ellipse fill="none" stroke="black" stroke-width="2" cx="725.13" cy="-190" rx="45.95" ry="18"/>
<text text-anchor="middle" x="725.13" y="-185.32" font-family="Times,serif" font-size="14.00">q6:233</text>
</g>
<!-- q2:242&#45;&gt;q6:233 -->
<g id="edge14" class="edge">
<title>q2:242&#45;&gt;q6:233</title>
<path fill="none" stroke="black" d="M536.87,-210.21C574.38,-206.16 628.28,-200.34 668.63,-195.99"/>
<polygon fill="black" stroke="black" points="668.82,-199.49 678.38,-194.93 668.07,-192.53 668.82,-199.49"/>
<text text-anchor="middle" x="608.31" y="-210.94" font-family="Times,serif" font-size="14.00">AUTH/235:231</text>
</g>
<!-- q4:1 -->
<g id="node14" class="node">
<title>q4:1</title>
<ellipse fill="none" stroke="black" stroke-width="2" cx="839.7" cy="-249" rx="33.32" ry="18"/>
<text text-anchor="middle" x="839.7" y="-244.32" font-family="Times,serif" font-size="14.00">q4:1</text>
</g>
<!-- q2:242&#45;&gt;q4:1 -->
<g id="edge15" class="edge">
<title>q2:242&#45;&gt;q4:1</title>
<path fill="none" stroke="black" d="M533.35,-223.47C540.68,-224.8 548.26,-226.04 555.43,-227 639.65,-238.26 738.78,-244.33 794.62,-247.09"/>
<polygon fill="black" stroke="black" points="794.19,-250.57 804.35,-247.56 794.53,-243.58 794.19,-250.57"/>
<text text-anchor="middle" x="608.31" y="-241.94" font-family="Times,serif" font-size="14.00">AUTH/λ:1</text>
</g>
<!-- q8:10 -->
<g id="node15" class="node">
<title>q8:10</title>
<ellipse fill="none" stroke="black" stroke-width="2" cx="960.59" cy="-37" rx="39.63" ry="18"/>
<text text-anchor="middle" x="960.59" y="-32.33" font-family="Times,serif" font-size="14.00">q8:10</text>
</g>
<!-- q5:10&#45;&gt;q8:10 -->
<g id="edge16" class="edge">
<title>q5:10&#45;&gt;q8:10</title>
<path fill="none" stroke="black" d="M757.13,-111.58C798.47,-96.35 871.77,-69.35 917.91,-52.35"/>
<polygon fill="black" stroke="black" points="918.86,-55.73 927.04,-48.99 916.45,-49.16 918.86,-55.73"/>
<text text-anchor="middle" x="839.7" y="-100.95" font-family="Times,serif" font-size="14.00">AUTH/334:10</text>
</g>
<!-- q10:230 -->
<g id="node16" class="node">
<title>q10:230</title>
<ellipse fill="none" stroke="black" stroke-width="2" cx="960.59" cy="-245" rx="52.26" ry="18"/>
<text text-anchor="middle" x="960.59" y="-240.32" font-family="Times,serif" font-size="14.00">q10:230</text>
</g>
<!-- q6:233&#45;&gt;q10:230 -->
<g id="edge17" class="edge">
<title>q6:233&#45;&gt;q10:230</title>
<path fill="none" stroke="black" d="M771.77,-188.84C805.31,-189.24 851.6,-192.43 890.33,-204.75 902.91,-208.75 915.68,-215.32 926.78,-222"/>
<polygon fill="black" stroke="black" points="924.84,-224.91 935.16,-227.29 928.57,-218.99 924.84,-224.91"/>
<text text-anchor="middle" x="839.7" y="-207.94" font-family="Times,serif" font-size="14.00">MAIL/250:230</text>
</g>
<!-- q9:3 -->
<g id="node17" class="node">
<title>q9:3</title>
<ellipse fill="none" stroke="black" stroke-width="2" cx="960.59" cy="-114" rx="33.32" ry="18"/>
<text text-anchor="middle" x="960.59" y="-109.33" font-family="Times,serif" font-size="14.00">q9:3</text>
</g>
<!-- q6:233&#45;&gt;q9:3 -->
<g id="edge18" class="edge">
<title>q6:233&#45;&gt;q9:3</title>
<path fill="none" stroke="black" d="M760.34,-177.59C769.63,-174.31 779.72,-170.82 789.08,-167.75 833.76,-153.08 845.51,-151.25 890.33,-137 900.15,-133.88 910.73,-130.42 920.59,-127.15"/>
<polygon fill="black" stroke="black" points="921.52,-130.53 929.89,-124.04 919.3,-123.89 921.52,-130.53"/>
<text text-anchor="middle" x="839.7" y="-170.94" font-family="Times,serif" font-size="14.00">MAIL/553:3</text>
</g>
<!-- q4:1&#45;&gt;q7:235 -->
<g id="edge19" class="edge">
<title>q4:1&#45;&gt;q7:235</title>
<path fill="none" stroke="black" d="M867.59,-259.85C879.82,-264.34 894.6,-269.15 908.33,-272 1008.7,-292.84 1040.8,-312.21 1138.8,-282 1151.6,-278.08 1164,-270.63 1174.4,-263.02"/>
<polygon fill="black" stroke="black" points="1176.42,-265.88 1182.2,-257 1172.14,-260.34 1176.42,-265.88"/>
<text text-anchor="middle" x="960.59" y="-297.94" font-family="Times,serif" font-size="14.00">MAIL/250:1</text>
</g>
<!-- q13:10 -->
<g id="node18" class="node">
<title>q13:10</title>
<ellipse fill="none" stroke="black" stroke-width="2" cx="1203" cy="-18" rx="45.95" ry="18"/>
<text text-anchor="middle" x="1203" y="-13.32" font-family="Times,serif" font-size="14.00">q13:10</text>
</g>
<!-- q8:10&#45;&gt;q13:10 -->
<g id="edge20" class="edge">
<title>q8:10&#45;&gt;q13:10</title>
<path fill="none" stroke="black" d="M1000.47,-33.93C1039.8,-30.82 1101.1,-25.97 1145.7,-22.44"/>
<polygon fill="black" stroke="black" points="1145.8,-25.95 1155.49,-21.67 1145.25,-18.97 1145.8,-25.95"/>
<text text-anchor="middle" x="1084.8" y="-35.95" font-family="Times,serif" font-size="14.00">content/535:10</text>
</g>
<!-- q10:230&#45;&gt;q7:235 -->
<g id="edge21" class="edge">
<title>q10:230&#45;&gt;q7:235</title>
<path fill="none" stroke="black" d="M1007.3,-254.05C1015.1,-255.28 1023.2,-256.34 1030.8,-257 1078.7,-261.11 1091.3,-263.65 1138.8,-257 1144.4,-256.22 1150.2,-255.07 1155.9,-253.73"/>
<polygon fill="black" stroke="black" points="1156.34,-257.23 1165.13,-251.32 1154.58,-250.46 1156.34,-257.23"/>
<text text-anchor="middle" x="1084.8" y="-264.94" font-family="Times,serif" font-size="14.00">RCPT/250:230</text>
</g>
<!-- q14:3 -->
<g id="node19" class="node">
<title>q14:3</title>
<ellipse fill="none" stroke="black" stroke-width="2" cx="1203" cy="-72" rx="39.63" ry="18"/>
<text text-anchor="middle" x="1203" y="-67.33" font-family="Times,serif" font-size="14.00">q14:3</text>
</g>
<!-- q9:3&#45;&gt;q14:3 -->
<g id="edge22" class="edge">
<title>q9:3&#45;&gt;q14:3</title>
<path fill="none" stroke="black" d="M990.69,-104.94C1002.98,-101.37 1017.5,-97.47 1030.8,-94.75 1071.3,-86.47 1117.9,-80.51 1152.2,-76.77"/>
<polygon fill="black" stroke="black" points="1152.22,-80.29 1161.79,-75.75 1151.48,-73.33 1152.22,-80.29"/>
<text text-anchor="middle" x="1084.8" y="-97.95" font-family="Times,serif" font-size="14.00">RSET/250:3</text>
</g>
<!-- q19:2 -->
<g id="node20" class="node">
<title>q19:2</title>
<ellipse fill="none" stroke="black" stroke-width="2" cx="1435.9" cy="-18" rx="39.63" ry="18"/>
<text text-anchor="middle" x="1435.9" y="-13.32" font-family="Times,serif" font-size="14.00">q19:2</text>
</g>
<!-- q13:10&#45;&gt;q19:2 -->
<g id="edge23" class="edge">
<title>q13:10&#45;&gt;q19:2</title>
<path fill="none" stroke="black" d="M1249.9,-18C1288.7,-18 1344.2,-18 1384.2,-18"/>
<polygon fill="black" stroke="black" points="1384.09,-21.5 1394.09,-18 1384.09,-14.5 1384.09,-21.5"/>
<text text-anchor="middle" x="1313.2" y="-21.95" font-family="Times,serif" font-size="14.00">λ/451:2</text>
</g>
<!-- q1:244 -->
<g id="node21" class="node">
<title>q1:244</title>
<ellipse fill="none" stroke="black" stroke-width="2" cx="257.84" cy="-188" rx="45.95" ry="18"/>
<text text-anchor="middle" x="257.84" y="-183.32" font-family="Times,serif" font-size="14.00">q1:244</text>
</g>
<!-- q1:244&#45;&gt;q2:242 -->
<g id="edge24" class="edge">
<title>q1:244&#45;&gt;q2:242</title>
<path fill="none" stroke="black" d="M302.96,-193.14C340.55,-197.52 394.77,-203.84 435.24,-208.56"/>
<polygon fill="black" stroke="black" points="434.69,-212.02 445.03,-209.7 435.5,-205.07 434.69,-212.02"/>
<text text-anchor="middle" x="374.66" y="-210.94" font-family="Times,serif" font-size="14.00">EHLO/250:242</text>
</g>
<!-- q3:2 -->
<g id="node22" class="node">
<title>q3:2</title>
<ellipse fill="none" stroke="black" stroke-width="2" cx="491.48" cy="-161" rx="33.32" ry="18"/>
<text text-anchor="middle" x="491.48" y="-156.32" font-family="Times,serif" font-size="14.00">q3:2</text>
</g>
<!-- q1:244&#45;&gt;q3:2 -->
<g id="edge25" class="edge">
<title>q1:244&#45;&gt;q3:2</title>
<path fill="none" stroke="black" d="M297.96,-178.21C305.81,-176.51 314.03,-174.91 321.79,-173.75 363.62,-167.47 411.78,-164.22 445.9,-162.58"/>
<polygon fill="black" stroke="black" points="446.01,-166.08 455.84,-162.13 445.69,-159.09 446.01,-166.08"/>
<text text-anchor="middle" x="374.66" y="-176.94" font-family="Times,serif" font-size="14.00">EHLO/λ:2</text>
</g>
<!-- q3:2&#45;&gt;q6:233 -->
<g id="edge26" class="edge">
<title>q3:2&#45;&gt;q6:233</title>
<path fill="none" stroke="black" d="M525.62,-162.57C559.75,-164.5 614.42,-168.45 661.18,-175.75 665.3,-176.39 669.55,-177.15 673.8,-177.97"/>
<polygon fill="black" stroke="black" points="673.02,-181.38 683.52,-179.97 674.43,-174.53 673.02,-181.38"/>
<text text-anchor="middle" x="608.31" y="-178.94" font-family="Times,serif" font-size="14.00">AUTH/235:2</text>
</g>
<!-- q0:244 -->
<g id="node23" class="node">
<title>q0:244</title>
<ellipse fill="none" stroke="black" stroke-width="2" cx="53.95" cy="-188" rx="49.95" ry="49.95"/>
<ellipse fill="none" stroke="black" stroke-width="2" cx="53.95" cy="-188" rx="53.95" ry="53.95"/>
<text text-anchor="middle" x="53.95" y="-183.32" font-family="Times,serif" font-size="14.00">q0:244</text>
</g>
<!-- q0:244&#45;&gt;q1:244 -->
<g id="edge27" class="edge">
<title>q0:244&#45;&gt;q1:244</title>
<path fill="none" stroke="black" d="M104.85,-188C133.64,-188 169.94,-188 199.84,-188"/>
<polygon fill="black" stroke="black" points="199.45,-191.5 209.45,-188 199.45,-184.5 199.45,-191.5"/>
<text text-anchor="middle" x="157.89" y="-191.94" font-family="Times,serif" font-size="14.00">λ/220:244</text>
</g>
</g>
</svg>
