<?xml version="1.0" encoding="UTF-8" standalone="no"?>
<!DOCTYPE svg PUBLIC "-//W3C//DTD SVG 1.1//EN"
 "http://www.w3.org/Graphics/SVG/1.1/DTD/svg11.dtd">
<!-- Generated by graphviz version 12.0.0 (20240803.0821)
 -->
<!-- Pages: 1 -->
<svg width="2015pt" height="375pt"
 viewBox="0.00 0.00 2015.16 375.00" xmlns="http://www.w3.org/2000/svg" xmlns:xlink="http://www.w3.org/1999/xlink">
<g id="graph0" class="graph" transform="scale(1 1) rotate(0) translate(4 371)">
<polygon fill="white" stroke="none" points="-4,4 -4,-371 2011.16,-371 2011.16,4 -4,4"/>
<!-- q18:113 -->
<g id="node1" class="node">
<title>q18:113</title>
<ellipse fill="none" stroke="black" stroke-width="2" cx="1713.9" cy="-126" rx="52.26" ry="18"/>
<text text-anchor="middle" x="1713.9" y="-121.33" font-family="Times,serif" font-size="14.00">q18:113</text>
</g>
<!-- q21:113 -->
<g id="node2" class="node">
<title>q21:113</title>
<ellipse fill="none" stroke="black" stroke-width="2" cx="1954.9" cy="-126" rx="52.26" ry="18"/>
<text text-anchor="middle" x="1954.9" y="-121.33" font-family="Times,serif" font-size="14.00">q21:113</text>
</g>
<!-- q18:113&#45;&gt;q21:113 -->
<g id="edge1" class="edge">
<title>q18:113&#45;&gt;q21:113</title>
<path fill="none" stroke="black" d="M1767,-126C1803.4,-126 1852.2,-126 1890.7,-126"/>
<polygon fill="black" stroke="black" points="1890.39,-129.5 1900.39,-126 1890.39,-122.5 1890.39,-129.5"/>
<text text-anchor="middle" x="1834.4" y="-129.94" font-family="Times,serif" font-size="14.00">QUIT/221:113</text>
</g>
<!-- q13:143 -->
<g id="node3" class="node">
<title>q13:143</title>
<ellipse fill="none" stroke="black" stroke-width="2" cx="497.8" cy="-109" rx="52.26" ry="18"/>
<text text-anchor="middle" x="497.8" y="-104.33" font-family="Times,serif" font-size="14.00">q13:143</text>
</g>
<!-- q16:43 -->
<g id="node4" class="node">
<title>q16:43</title>
<ellipse fill="none" stroke="black" stroke-width="2" cx="737.76" cy="-86" rx="45.95" ry="18"/>
<text text-anchor="middle" x="737.76" y="-81.33" font-family="Times,serif" font-size="14.00">q16:43</text>
</g>
<!-- q13:143&#45;&gt;q16:43 -->
<g id="edge2" class="edge">
<title>q13:143&#45;&gt;q16:43</title>
<path fill="none" stroke="black" d="M547.96,-102.95C554.71,-102.18 561.55,-101.42 568.06,-100.75 605.6,-96.87 647.91,-93.18 680.76,-90.45"/>
<polygon fill="black" stroke="black" points="680.78,-93.96 690.46,-89.66 680.21,-86.99 680.78,-93.96"/>
<text text-anchor="middle" x="620.93" y="-104.95" font-family="Times,serif" font-size="14.00">DATA/550:43</text>
</g>
<!-- q14:2683 -->
<g id="node5" class="node">
<title>q14:2683</title>
<ellipse fill="none" stroke="black" stroke-width="2" cx="1450" cy="-72" rx="58.57" ry="18"/>
<text text-anchor="middle" x="1450" y="-67.33" font-family="Times,serif" font-size="14.00">q14:2683</text>
</g>
<!-- q13:143&#45;&gt;q14:2683 -->
<g id="edge3" class="edge">
<title>q13:143&#45;&gt;q14:2683</title>
<path fill="none" stroke="black" d="M529.91,-93.86C574.58,-73.55 659.98,-40 736.76,-40 736.76,-40 736.76,-40 1212,-40 1272.9,-40 1341.9,-50.51 1389.7,-59.49"/>
<polygon fill="black" stroke="black" points="1388.73,-62.87 1399.21,-61.32 1390.06,-55.99 1388.73,-62.87"/>
<text text-anchor="middle" x="968.58" y="-43.95" font-family="Times,serif" font-size="14.00">DATA/354:98</text>
</g>
<!-- q17:2 -->
<g id="node6" class="node">
<title>q17:2</title>
<ellipse fill="none" stroke="black" stroke-width="2" cx="737.76" cy="-178" rx="39.63" ry="18"/>
<text text-anchor="middle" x="737.76" y="-173.32" font-family="Times,serif" font-size="14.00">q17:2</text>
</g>
<!-- q13:143&#45;&gt;q17:2 -->
<g id="edge4" class="edge">
<title>q13:143&#45;&gt;q17:2</title>
<path fill="none" stroke="black" d="M524.58,-125.19C537.26,-132.51 553.02,-140.7 568.06,-146 606.83,-159.67 652.78,-167.9 686.93,-172.58"/>
<polygon fill="black" stroke="black" points="686.16,-176.01 696.53,-173.84 687.07,-169.07 686.16,-176.01"/>
<text text-anchor="middle" x="620.93" y="-174.94" font-family="Times,serif" font-size="14.00">RCPT/250:2</text>
</g>
<!-- q14:2683&#45;&gt;q18:113 -->
<g id="edge5" class="edge">
<title>q14:2683&#45;&gt;q18:113</title>
<path fill="none" stroke="black" d="M1494,-84.71C1504.6,-87.63 1516,-90.59 1526.6,-93 1568.8,-102.58 1617,-111.05 1653.8,-117.01"/>
<polygon fill="black" stroke="black" points="1652.88,-120.41 1663.3,-118.53 1653.98,-113.49 1652.88,-120.41"/>
<text text-anchor="middle" x="1585.1" y="-119.95" font-family="Times,serif" font-size="14.00">content/250:113</text>
</g>
<!-- q14:2683&#45;&gt;q14:2683 -->
<g id="edge6" class="edge">
<title>q14:2683&#45;&gt;q14:2683</title>
<path fill="none" stroke="black" d="M1428.1,-89.41C1424.1,-99.09 1431.4,-108 1450,-108 1460.9,-108 1467.9,-105.02 1471,-100.64"/>
<polygon fill="black" stroke="black" points="1474.46,-101.19 1471.87,-90.92 1467.49,-100.57 1474.46,-101.19"/>
<text text-anchor="middle" x="1450" y="-111.95" font-family="Times,serif" font-size="14.00">content/λ:2495</text>
</g>
<!-- q19:74 -->
<g id="node7" class="node">
<title>q19:74</title>
<ellipse fill="none" stroke="black" stroke-width="2" cx="1713.9" cy="-72" rx="45.95" ry="18"/>
<text text-anchor="middle" x="1713.9" y="-67.33" font-family="Times,serif" font-size="14.00">q19:74</text>
</g>
<!-- q14:2683&#45;&gt;q19:74 -->
<g id="edge7" class="edge">
<title>q14:2683&#45;&gt;q19:74</title>
<path fill="none" stroke="black" d="M1509.5,-72C1553.1,-72 1612.4,-72 1655.7,-72"/>
<polygon fill="black" stroke="black" points="1655.69,-75.5 1665.69,-72 1655.69,-68.5 1655.69,-75.5"/>
<text text-anchor="middle" x="1585.1" y="-75.95" font-family="Times,serif" font-size="14.00">content/554:74</text>
</g>
<!-- q20:1 -->
<g id="node8" class="node">
<title>q20:1</title>
<ellipse fill="none" stroke="black" stroke-width="2" cx="1713.9" cy="-18" rx="39.63" ry="18"/>
<text text-anchor="middle" x="1713.9" y="-13.32" font-family="Times,serif" font-size="14.00">q20:1</text>
</g>
<!-- q14:2683&#45;&gt;q20:1 -->
<g id="edge8" class="edge">
<title>q14:2683&#45;&gt;q20:1</title>
<path fill="none" stroke="black" d="M1493.6,-59.23C1504.3,-56.23 1515.9,-53.2 1526.6,-50.75 1572.9,-40.2 1626.3,-31.13 1664,-25.22"/>
<polygon fill="black" stroke="black" points="1664.35,-28.71 1673.7,-23.72 1663.29,-21.79 1664.35,-28.71"/>
<text text-anchor="middle" x="1585.1" y="-54.95" font-family="Times,serif" font-size="14.00">content/550:1</text>
</g>
<!-- q7:233 -->
<g id="node9" class="node">
<title>q7:233</title>
<ellipse fill="none" stroke="black" stroke-width="2" cx="968.58" cy="-196" rx="45.95" ry="18"/>
<text text-anchor="middle" x="968.58" y="-191.32" font-family="Times,serif" font-size="14.00">q7:233</text>
</g>
<!-- q17:2&#45;&gt;q7:233 -->
<g id="edge9" class="edge">
<title>q17:2&#45;&gt;q7:233</title>
<path fill="none" stroke="black" d="M777.5,-174.33C811.23,-171.94 861.35,-170.32 904.45,-176.75 910.4,-177.64 916.57,-178.97 922.61,-180.53"/>
<polygon fill="black" stroke="black" points="921.24,-183.78 931.81,-183.12 923.13,-177.04 921.24,-183.78"/>
<text text-anchor="middle" x="853.08" y="-180.94" font-family="Times,serif" font-size="14.00">RCPT/250:2</text>
</g>
<!-- q22:74 -->
<g id="node10" class="node">
<title>q22:74</title>
<ellipse fill="none" stroke="black" stroke-width="2" cx="1954.9" cy="-72" rx="45.95" ry="18"/>
<text text-anchor="middle" x="1954.9" y="-67.33" font-family="Times,serif" font-size="14.00">q22:74</text>
</g>
<!-- q19:74&#45;&gt;q22:74 -->
<g id="edge10" class="edge">
<title>q19:74&#45;&gt;q22:74</title>
<path fill="none" stroke="black" d="M1760.7,-72C1799.5,-72 1855.2,-72 1896.9,-72"/>
<polygon fill="black" stroke="black" points="1896.79,-75.5 1906.79,-72 1896.79,-68.5 1896.79,-75.5"/>
<text text-anchor="middle" x="1834.4" y="-75.95" font-family="Times,serif" font-size="14.00">RSET/250:74</text>
</g>
<!-- q23:1 -->
<g id="node11" class="node">
<title>q23:1</title>
<ellipse fill="none" stroke="black" stroke-width="2" cx="1954.9" cy="-18" rx="39.63" ry="18"/>
<text text-anchor="middle" x="1954.9" y="-13.32" font-family="Times,serif" font-size="14.00">q23:1</text>
</g>
<!-- q20:1&#45;&gt;q23:1 -->
<g id="edge11" class="edge">
<title>q20:1&#45;&gt;q23:1</title>
<path fill="none" stroke="black" d="M1754.3,-18C1795,-18 1858.5,-18 1903,-18"/>
<polygon fill="black" stroke="black" points="1902.89,-21.5 1912.89,-18 1902.89,-14.5 1902.89,-21.5"/>
<text text-anchor="middle" x="1834.4" y="-21.95" font-family="Times,serif" font-size="14.00">RSET/250:1</text>
</g>
<!-- q10:233 -->
<g id="node12" class="node">
<title>q10:233</title>
<ellipse fill="none" stroke="black" stroke-width="2" cx="1211" cy="-132" rx="52.26" ry="18"/>
<text text-anchor="middle" x="1211" y="-127.33" font-family="Times,serif" font-size="14.00">q10:233</text>
</g>
<!-- q7:233&#45;&gt;q10:233 -->
<g id="edge12" class="edge">
<title>q7:233&#45;&gt;q10:233</title>
<path fill="none" stroke="black" d="M1007.9,-185.79C1048.3,-175.05 1112,-158.08 1157.1,-146.08"/>
<polygon fill="black" stroke="black" points="1157.88,-149.49 1166.64,-143.53 1156.07,-142.73 1157.88,-149.49"/>
<text text-anchor="middle" x="1086.7" y="-182.94" font-family="Times,serif" font-size="14.00">RCPT/250:233</text>
</g>
<!-- q10:233&#45;&gt;q13:143 -->
<g id="edge13" class="edge">
<title>q10:233&#45;&gt;q13:143</title>
<path fill="none" stroke="black" d="M1157.9,-132.76C1048.4,-133.93 786.75,-134.55 568.06,-118 564.88,-117.76 561.63,-117.47 558.35,-117.16"/>
<polygon fill="black" stroke="black" points="558.99,-113.71 548.67,-116.12 558.24,-120.67 558.99,-113.71"/>
<text text-anchor="middle" x="853.08" y="-136.94" font-family="Times,serif" font-size="14.00">RCPT/250:143</text>
</g>
<!-- q10:233&#45;&gt;q14:2683 -->
<g id="edge14" class="edge">
<title>q10:233&#45;&gt;q14:2683</title>
<path fill="none" stroke="black" d="M1254.6,-121.2C1293,-111.48 1349.8,-97.11 1392.1,-86.41"/>
<polygon fill="black" stroke="black" points="1392.79,-89.84 1401.63,-84 1391.08,-83.05 1392.79,-89.84"/>
<text text-anchor="middle" x="1327.3" y="-118.95" font-family="Times,serif" font-size="14.00">DATA/354:90</text>
</g>
<!-- q3:2 -->
<g id="node13" class="node">
<title>q3:2</title>
<ellipse fill="none" stroke="black" stroke-width="2" cx="497.8" cy="-229" rx="33.32" ry="18"/>
<text text-anchor="middle" x="497.8" y="-224.32" font-family="Times,serif" font-size="14.00">q3:2</text>
</g>
<!-- q4:233 -->
<g id="node14" class="node">
<title>q4:233</title>
<ellipse fill="none" stroke="black" stroke-width="2" cx="737.76" cy="-290" rx="45.95" ry="18"/>
<text text-anchor="middle" x="737.76" y="-285.32" font-family="Times,serif" font-size="14.00">q4:233</text>
</g>
<!-- q3:2&#45;&gt;q4:233 -->
<g id="edge15" class="edge">
<title>q3:2&#45;&gt;q4:233</title>
<path fill="none" stroke="black" d="M526.78,-219.2C563.6,-208.17 628.89,-195.25 673.81,-223.75 689.67,-233.82 679.32,-247.96 691.81,-262 693.98,-264.45 696.43,-266.76 699.02,-268.92"/>
<polygon fill="black" stroke="black" points="696.88,-271.69 707.01,-274.78 701.02,-266.05 696.88,-271.69"/>
<text text-anchor="middle" x="620.93" y="-226.94" font-family="Times,serif" font-size="14.00">AUTH/235:2</text>
</g>
<!-- q4:233&#45;&gt;q7:233 -->
<g id="edge16" class="edge">
<title>q4:233&#45;&gt;q7:233</title>
<path fill="none" stroke="black" d="M774.4,-278.41C819.39,-263.7 892.4,-239.59 904.45,-234 914.34,-229.42 924.64,-223.68 933.98,-218.06"/>
<polygon fill="black" stroke="black" points="935.72,-221.1 942.38,-212.87 932.04,-215.15 935.72,-221.1"/>
<text text-anchor="middle" x="853.08" y="-271.94" font-family="Times,serif" font-size="14.00">MAIL/250:230</text>
</g>
<!-- q8:3 -->
<g id="node15" class="node">
<title>q8:3</title>
<ellipse fill="none" stroke="black" stroke-width="2" cx="968.58" cy="-295" rx="33.32" ry="18"/>
<text text-anchor="middle" x="968.58" y="-290.32" font-family="Times,serif" font-size="14.00">q8:3</text>
</g>
<!-- q4:233&#45;&gt;q8:3 -->
<g id="edge17" class="edge">
<title>q4:233&#45;&gt;q8:3</title>
<path fill="none" stroke="black" d="M784.51,-291C824.78,-291.88 883.07,-293.15 922.99,-294.03"/>
<polygon fill="black" stroke="black" points="922.9,-297.53 932.98,-294.25 923.05,-290.53 922.9,-297.53"/>
<text text-anchor="middle" x="853.08" y="-296.94" font-family="Times,serif" font-size="14.00">MAIL/553:3</text>
</g>
<!-- q11:3 -->
<g id="node16" class="node">
<title>q11:3</title>
<ellipse fill="none" stroke="black" stroke-width="2" cx="1211" cy="-295" rx="39.63" ry="18"/>
<text text-anchor="middle" x="1211" y="-290.32" font-family="Times,serif" font-size="14.00">q11:3</text>
</g>
<!-- q8:3&#45;&gt;q11:3 -->
<g id="edge18" class="edge">
<title>q8:3&#45;&gt;q11:3</title>
<path fill="none" stroke="black" d="M1002.75,-295C1043.1,-295 1111.7,-295 1158.9,-295"/>
<polygon fill="black" stroke="black" points="1158.79,-298.5 1168.79,-295 1158.79,-291.5 1158.79,-298.5"/>
<text text-anchor="middle" x="1086.7" y="-298.94" font-family="Times,serif" font-size="14.00">RSET/250:3</text>
</g>
<!-- q1:244 -->
<g id="node17" class="node">
<title>q1:244</title>
<ellipse fill="none" stroke="black" stroke-width="2" cx="257.84" cy="-256" rx="45.95" ry="18"/>
<text text-anchor="middle" x="257.84" y="-251.32" font-family="Times,serif" font-size="14.00">q1:244</text>
</g>
<!-- q1:244&#45;&gt;q3:2 -->
<g id="edge19" class="edge">
<title>q1:244&#45;&gt;q3:2</title>
<path fill="none" stroke="black" d="M296.21,-245.1C304.56,-243.02 313.43,-241.07 321.79,-239.75 365.82,-232.78 416.74,-230.27 452.27,-229.39"/>
<polygon fill="black" stroke="black" points="452.25,-232.89 462.18,-229.18 452.1,-225.89 452.25,-232.89"/>
<text text-anchor="middle" x="374.66" y="-242.94" font-family="Times,serif" font-size="14.00">EHLO/λ:2</text>
</g>
<!-- q2:242 -->
<g id="node18" class="node">
<title>q2:242</title>
<ellipse fill="none" stroke="black" stroke-width="2" cx="497.8" cy="-289" rx="45.95" ry="18"/>
<text text-anchor="middle" x="497.8" y="-284.32" font-family="Times,serif" font-size="14.00">q2:242</text>
</g>
<!-- q1:244&#45;&gt;q2:242 -->
<g id="edge20" class="edge">
<title>q1:244&#45;&gt;q2:242</title>
<path fill="none" stroke="black" d="M302.21,-262.01C341.5,-267.46 399.58,-275.52 442.06,-281.41"/>
<polygon fill="black" stroke="black" points="441.44,-284.86 451.83,-282.76 442.4,-277.92 441.44,-284.86"/>
<text text-anchor="middle" x="374.66" y="-282.94" font-family="Times,serif" font-size="14.00">EHLO/250:242</text>
</g>
<!-- q2:242&#45;&gt;q4:233 -->
<g id="edge21" class="edge">
<title>q2:242&#45;&gt;q4:233</title>
<path fill="none" stroke="black" d="M544.68,-289.19C583.19,-289.35 638.4,-289.59 679.75,-289.76"/>
<polygon fill="black" stroke="black" points="679.49,-293.26 689.51,-289.8 679.52,-286.26 679.49,-293.26"/>
<text text-anchor="middle" x="620.93" y="-292.94" font-family="Times,serif" font-size="14.00">AUTH/235:231</text>
</g>
<!-- q6:10 -->
<g id="node19" class="node">
<title>q6:10</title>
<ellipse fill="none" stroke="black" stroke-width="2" cx="737.76" cy="-348" rx="39.63" ry="18"/>
<text text-anchor="middle" x="737.76" y="-343.32" font-family="Times,serif" font-size="14.00">q6:10</text>
</g>
<!-- q2:242&#45;&gt;q6:10 -->
<g id="edge22" class="edge">
<title>q2:242&#45;&gt;q6:10</title>
<path fill="none" stroke="black" d="M534.96,-300.51C545.58,-303.74 557.25,-307.15 568.06,-310 608.74,-320.73 655.44,-331.11 689.38,-338.29"/>
<polygon fill="black" stroke="black" points="688.38,-341.66 698.89,-340.29 689.82,-334.81 688.38,-341.66"/>
<text text-anchor="middle" x="620.93" y="-337.94" font-family="Times,serif" font-size="14.00">AUTH/535:10</text>
</g>
<!-- q5:1 -->
<g id="node20" class="node">
<title>q5:1</title>
<ellipse fill="none" stroke="black" stroke-width="2" cx="737.76" cy="-235" rx="33.32" ry="18"/>
<text text-anchor="middle" x="737.76" y="-230.32" font-family="Times,serif" font-size="14.00">q5:1</text>
</g>
<!-- q2:242&#45;&gt;q5:1 -->
<g id="edge23" class="edge">
<title>q2:242&#45;&gt;q5:1</title>
<path fill="none" stroke="black" d="M534.54,-277.24C545.25,-273.93 557.08,-270.49 568.06,-267.75 610.45,-257.16 659.54,-247.97 693.8,-242.04"/>
<polygon fill="black" stroke="black" points="694.06,-245.55 703.33,-240.41 692.88,-238.65 694.06,-245.55"/>
<text text-anchor="middle" x="620.93" y="-270.94" font-family="Times,serif" font-size="14.00">AUTH/λ:1</text>
</g>
<!-- q9:10 -->
<g id="node21" class="node">
<title>q9:10</title>
<ellipse fill="none" stroke="black" stroke-width="2" cx="968.58" cy="-349" rx="39.63" ry="18"/>
<text text-anchor="middle" x="968.58" y="-344.32" font-family="Times,serif" font-size="14.00">q9:10</text>
</g>
<!-- q6:10&#45;&gt;q9:10 -->
<g id="edge24" class="edge">
<title>q6:10&#45;&gt;q9:10</title>
<path fill="none" stroke="black" d="M778.35,-348.17C816.7,-348.34 875.02,-348.6 916.78,-348.78"/>
<polygon fill="black" stroke="black" points="916.55,-352.28 926.57,-348.82 916.58,-345.28 916.55,-352.28"/>
<text text-anchor="middle" x="853.08" y="-351.94" font-family="Times,serif" font-size="14.00">AUTH/334:10</text>
</g>
<!-- q5:1&#45;&gt;q7:233 -->
<g id="edge25" class="edge">
<title>q5:1&#45;&gt;q7:233</title>
<path fill="none" stroke="black" d="M767.35,-225.68C778.03,-222.47 790.34,-219.09 801.7,-216.75 837.78,-209.31 878.85,-204.15 911.1,-200.83"/>
<polygon fill="black" stroke="black" points="911.44,-204.31 921.05,-199.85 910.76,-197.35 911.44,-204.31"/>
<text text-anchor="middle" x="853.08" y="-219.94" font-family="Times,serif" font-size="14.00">MAIL/250:1</text>
</g>
<!-- q12:10 -->
<g id="node22" class="node">
<title>q12:10</title>
<ellipse fill="none" stroke="black" stroke-width="2" cx="1211" cy="-349" rx="45.95" ry="18"/>
<text text-anchor="middle" x="1211" y="-344.32" font-family="Times,serif" font-size="14.00">q12:10</text>
</g>
<!-- q9:10&#45;&gt;q12:10 -->
<g id="edge26" class="edge">
<title>q9:10&#45;&gt;q12:10</title>
<path fill="none" stroke="black" d="M1009,-349C1048.1,-349 1108.5,-349 1152.9,-349"/>
<polygon fill="black" stroke="black" points="1152.89,-352.5 1162.89,-349 1152.89,-345.5 1152.89,-352.5"/>
<text text-anchor="middle" x="1086.7" y="-352.94" font-family="Times,serif" font-size="14.00">content/535:10</text>
</g>
<!-- q15:2 -->
<g id="node23" class="node">
<title>q15:2</title>
<ellipse fill="none" stroke="black" stroke-width="2" cx="1450" cy="-349" rx="39.63" ry="18"/>
<text text-anchor="middle" x="1450" y="-344.32" font-family="Times,serif" font-size="14.00">q15:2</text>
</g>
<!-- q12:10&#45;&gt;q15:2 -->
<g id="edge27" class="edge">
<title>q12:10&#45;&gt;q15:2</title>
<path fill="none" stroke="black" d="M1257.7,-349C1298,-349 1356.7,-349 1398.5,-349"/>
<polygon fill="black" stroke="black" points="1398.29,-352.5 1408.29,-349 1398.29,-345.5 1398.29,-352.5"/>
<text text-anchor="middle" x="1327.3" y="-352.94" font-family="Times,serif" font-size="14.00">λ/451:2</text>
</g>
<!-- q0:244 -->
<g id="node24" class="node">
<title>q0:244</title>
<ellipse fill="none" stroke="black" stroke-width="2" cx="53.95" cy="-256" rx="49.95" ry="49.95"/>
<ellipse fill="none" stroke="black" stroke-width="2" cx="53.95" cy="-256" rx="53.95" ry="53.95"/>
<text text-anchor="middle" x="53.95" y="-251.32" font-family="Times,serif" font-size="14.00">q0:244</text>
</g>
<!-- q0:244&#45;&gt;q1:244 -->
<g id="edge28" class="edge">
<title>q0:244&#45;&gt;q1:244</title>
<path fill="none" stroke="black" d="M104.85,-256C133.64,-256 169.94,-256 199.84,-256"/>
<polygon fill="black" stroke="black" points="199.45,-259.5 209.45,-256 199.45,-252.5 199.45,-259.5"/>
<text text-anchor="middle" x="157.89" y="-259.94" font-family="Times,serif" font-size="14.00">λ/220:244</text>
</g>
</g>
</svg>
