<?xml version="1.0" encoding="UTF-8" standalone="no"?>
<!DOCTYPE svg PUBLIC "-//W3C//DTD SVG 1.1//EN"
 "http://www.w3.org/Graphics/SVG/1.1/DTD/svg11.dtd">
<!-- Generated by graphviz version 12.0.0 (20240803.0821)
 -->
<!-- Pages: 1 -->
<svg width="2244pt" height="236pt"
 viewBox="0.00 0.00 2243.96 236.00" xmlns="http://www.w3.org/2000/svg" xmlns:xlink="http://www.w3.org/1999/xlink">
<g id="graph0" class="graph" transform="scale(1 1) rotate(0) translate(4 232)">
<polygon fill="white" stroke="none" points="-4,4 -4,-232 2239.96,-232 2239.96,4 -4,4"/>
<!-- q1:243 -->
<g id="node1" class="node">
<title>q1:243</title>
<ellipse fill="none" stroke="black" stroke-width="2" cx="257.84" cy="-114" rx="45.95" ry="18"/>
<text text-anchor="middle" x="257.84" y="-109.33" font-family="Times,serif" font-size="14.00">q1:243</text>
</g>
<!-- q2:241 -->
<g id="node2" class="node">
<title>q2:241</title>
<ellipse fill="none" stroke="black" stroke-width="2" cx="491.48" cy="-147" rx="45.95" ry="18"/>
<text text-anchor="middle" x="491.48" y="-142.32" font-family="Times,serif" font-size="14.00">q2:241</text>
</g>
<!-- q1:243&#45;&gt;q2:241 -->
<g id="edge1" class="edge">
<title>q1:243&#45;&gt;q2:241</title>
<path fill="none" stroke="black" d="M302.14,-120.17C340,-125.56 395.17,-133.42 436.02,-139.24"/>
<polygon fill="black" stroke="black" points="435.51,-142.7 445.9,-140.65 436.49,-135.77 435.51,-142.7"/>
<text text-anchor="middle" x="374.66" y="-140.94" font-family="Times,serif" font-size="14.00">EHLO/250:241</text>
</g>
<!-- q3:2 -->
<g id="node3" class="node">
<title>q3:2</title>
<ellipse fill="none" stroke="black" stroke-width="2" cx="491.48" cy="-87" rx="33.32" ry="18"/>
<text text-anchor="middle" x="491.48" y="-82.33" font-family="Times,serif" font-size="14.00">q3:2</text>
</g>
<!-- q1:243&#45;&gt;q3:2 -->
<g id="edge2" class="edge">
<title>q1:243&#45;&gt;q3:2</title>
<path fill="none" stroke="black" d="M298.66,-104.83C306.31,-103.29 314.27,-101.84 321.79,-100.75 363.67,-94.66 411.82,-91.07 445.93,-89.1"/>
<polygon fill="black" stroke="black" points="446.07,-92.59 455.86,-88.55 445.68,-85.6 446.07,-92.59"/>
<text text-anchor="middle" x="374.66" y="-104.95" font-family="Times,serif" font-size="14.00">EHLO/λ:2</text>
</g>
<!-- q6:232 -->
<g id="node4" class="node">
<title>q6:232</title>
<ellipse fill="none" stroke="black" stroke-width="2" cx="725.13" cy="-149" rx="45.95" ry="18"/>
<text text-anchor="middle" x="725.13" y="-144.32" font-family="Times,serif" font-size="14.00">q6:232</text>
</g>
<!-- q2:241&#45;&gt;q6:232 -->
<g id="edge3" class="edge">
<title>q2:241&#45;&gt;q6:232</title>
<path fill="none" stroke="black" d="M538.25,-147.4C575.21,-147.71 627.42,-148.17 667.1,-148.51"/>
<polygon fill="black" stroke="black" points="666.92,-152.01 676.95,-148.6 666.98,-145.01 666.92,-152.01"/>
<text text-anchor="middle" x="608.31" y="-151.94" font-family="Times,serif" font-size="14.00">AUTH/235:230</text>
</g>
<!-- q5:1 -->
<g id="node5" class="node">
<title>q5:1</title>
<ellipse fill="none" stroke="black" stroke-width="2" cx="725.13" cy="-89" rx="33.32" ry="18"/>
<text text-anchor="middle" x="725.13" y="-84.33" font-family="Times,serif" font-size="14.00">q5:1</text>
</g>
<!-- q2:241&#45;&gt;q5:1 -->
<g id="edge4" class="edge">
<title>q2:241&#45;&gt;q5:1</title>
<path fill="none" stroke="black" d="M526.9,-134.61C536.11,-131.51 546.09,-128.33 555.43,-125.75 597.87,-114 647.15,-103.64 681.44,-96.94"/>
<polygon fill="black" stroke="black" points="681.83,-100.42 690.98,-95.09 680.5,-93.55 681.83,-100.42"/>
<text text-anchor="middle" x="608.31" y="-129.94" font-family="Times,serif" font-size="14.00">AUTH/λ:1</text>
</g>
<!-- q4:10 -->
<g id="node6" class="node">
<title>q4:10</title>
<ellipse fill="none" stroke="black" stroke-width="2" cx="725.13" cy="-206" rx="39.63" ry="18"/>
<text text-anchor="middle" x="725.13" y="-201.32" font-family="Times,serif" font-size="14.00">q4:10</text>
</g>
<!-- q2:241&#45;&gt;q4:10 -->
<g id="edge5" class="edge">
<title>q2:241&#45;&gt;q4:10</title>
<path fill="none" stroke="black" d="M526.22,-159.63C535.61,-162.91 545.85,-166.29 555.43,-169 595.73,-180.42 642.29,-190.39 676.27,-197.1"/>
<polygon fill="black" stroke="black" points="675.32,-200.48 685.8,-198.96 676.66,-193.61 675.32,-200.48"/>
<text text-anchor="middle" x="608.31" y="-196.94" font-family="Times,serif" font-size="14.00">AUTH/535:10</text>
</g>
<!-- q3:2&#45;&gt;q6:232 -->
<g id="edge6" class="edge">
<title>q3:2&#45;&gt;q6:232</title>
<path fill="none" stroke="black" d="M520.55,-77.11C556.1,-66.44 617.94,-54.28 661.18,-80.75 676.18,-89.94 667.78,-102.6 679.18,-116 682.29,-119.65 685.87,-123.12 689.63,-126.35"/>
<polygon fill="black" stroke="black" points="687.38,-129.03 697.4,-132.46 691.71,-123.53 687.38,-129.03"/>
<text text-anchor="middle" x="608.31" y="-84.95" font-family="Times,serif" font-size="14.00">AUTH/235:2</text>
</g>
<!-- q9:2 -->
<g id="node7" class="node">
<title>q9:2</title>
<ellipse fill="none" stroke="black" stroke-width="2" cx="954.27" cy="-156" rx="33.32" ry="18"/>
<text text-anchor="middle" x="954.27" y="-151.32" font-family="Times,serif" font-size="14.00">q9:2</text>
</g>
<!-- q6:232&#45;&gt;q9:2 -->
<g id="edge7" class="edge">
<title>q6:232&#45;&gt;q9:2</title>
<path fill="none" stroke="black" d="M771.82,-150.41C811.71,-151.64 869.24,-153.41 908.77,-154.63"/>
<polygon fill="black" stroke="black" points="908.55,-158.12 918.66,-154.93 908.77,-151.13 908.55,-158.12"/>
<text text-anchor="middle" x="839.7" y="-156.94" font-family="Times,serif" font-size="14.00">MAIL/553:2</text>
</g>
<!-- q8:233 -->
<g id="node8" class="node">
<title>q8:233</title>
<ellipse fill="none" stroke="black" stroke-width="2" cx="954.27" cy="-78" rx="45.95" ry="18"/>
<text text-anchor="middle" x="954.27" y="-73.33" font-family="Times,serif" font-size="14.00">q8:233</text>
</g>
<!-- q6:232&#45;&gt;q8:233 -->
<g id="edge8" class="edge">
<title>q6:232&#45;&gt;q8:233</title>
<path fill="none" stroke="black" d="M762.62,-137.59C801.53,-125.43 863.3,-106.12 905.93,-92.8"/>
<polygon fill="black" stroke="black" points="906.92,-96.15 915.42,-89.83 904.84,-89.47 906.92,-96.15"/>
<text text-anchor="middle" x="839.7" y="-131.94" font-family="Times,serif" font-size="14.00">MAIL/250:230</text>
</g>
<!-- q5:1&#45;&gt;q8:233 -->
<g id="edge9" class="edge">
<title>q5:1&#45;&gt;q8:233</title>
<path fill="none" stroke="black" d="M757.04,-82.35C767.19,-80.47 778.57,-78.68 789.08,-77.75 824.73,-74.59 864.92,-74.59 896.61,-75.41"/>
<polygon fill="black" stroke="black" points="896.27,-78.9 906.37,-75.7 896.47,-71.9 896.27,-78.9"/>
<text text-anchor="middle" x="839.7" y="-81.95" font-family="Times,serif" font-size="14.00">MAIL/250:1</text>
</g>
<!-- q7:10 -->
<g id="node9" class="node">
<title>q7:10</title>
<ellipse fill="none" stroke="black" stroke-width="2" cx="954.27" cy="-210" rx="39.63" ry="18"/>
<text text-anchor="middle" x="954.27" y="-205.32" font-family="Times,serif" font-size="14.00">q7:10</text>
</g>
<!-- q4:10&#45;&gt;q7:10 -->
<g id="edge10" class="edge">
<title>q4:10&#45;&gt;q7:10</title>
<path fill="none" stroke="black" d="M765.69,-206.7C803.6,-207.36 861,-208.38 902.32,-209.1"/>
<polygon fill="black" stroke="black" points="902.21,-212.6 912.27,-209.27 902.33,-205.6 902.21,-212.6"/>
<text text-anchor="middle" x="839.7" y="-211.94" font-family="Times,serif" font-size="14.00">AUTH/334:10</text>
</g>
<!-- q12:2 -->
<g id="node10" class="node">
<title>q12:2</title>
<ellipse fill="none" stroke="black" stroke-width="2" cx="1196.5" cy="-156" rx="39.63" ry="18"/>
<text text-anchor="middle" x="1196.5" y="-151.32" font-family="Times,serif" font-size="14.00">q12:2</text>
</g>
<!-- q9:2&#45;&gt;q12:2 -->
<g id="edge11" class="edge">
<title>q9:2&#45;&gt;q12:2</title>
<path fill="none" stroke="black" d="M988.42,-156C1028.8,-156 1097.3,-156 1144.4,-156"/>
<polygon fill="black" stroke="black" points="1144.39,-159.5 1154.39,-156 1144.39,-152.5 1144.39,-159.5"/>
<text text-anchor="middle" x="1072.2" y="-159.94" font-family="Times,serif" font-size="14.00">RSET/250:2</text>
</g>
<!-- q11:233 -->
<g id="node11" class="node">
<title>q11:233</title>
<ellipse fill="none" stroke="black" stroke-width="2" cx="1196.5" cy="-81" rx="52.26" ry="18"/>
<text text-anchor="middle" x="1196.5" y="-76.33" font-family="Times,serif" font-size="14.00">q11:233</text>
</g>
<!-- q8:233&#45;&gt;q11:233 -->
<g id="edge12" class="edge">
<title>q8:233&#45;&gt;q11:233</title>
<path fill="none" stroke="black" d="M1001.02,-78.57C1038.2,-79.04 1091.1,-79.7 1132.4,-80.21"/>
<polygon fill="black" stroke="black" points="1132.04,-83.71 1142.09,-80.33 1132.13,-76.71 1132.04,-83.71"/>
<text text-anchor="middle" x="1072.2" y="-84.95" font-family="Times,serif" font-size="14.00">RCPT/250:233</text>
</g>
<!-- q10:10 -->
<g id="node12" class="node">
<title>q10:10</title>
<ellipse fill="none" stroke="black" stroke-width="2" cx="1196.5" cy="-210" rx="45.95" ry="18"/>
<text text-anchor="middle" x="1196.5" y="-205.32" font-family="Times,serif" font-size="14.00">q10:10</text>
</g>
<!-- q7:10&#45;&gt;q10:10 -->
<g id="edge13" class="edge">
<title>q7:10&#45;&gt;q10:10</title>
<path fill="none" stroke="black" d="M994.67,-210C1033.8,-210 1094.1,-210 1138.4,-210"/>
<polygon fill="black" stroke="black" points="1138.39,-213.5 1148.39,-210 1138.39,-206.5 1138.39,-213.5"/>
<text text-anchor="middle" x="1072.2" y="-213.94" font-family="Times,serif" font-size="14.00">content/535:10</text>
</g>
<!-- q14:2697 -->
<g id="node13" class="node">
<title>q14:2697</title>
<ellipse fill="none" stroke="black" stroke-width="2" cx="1678.8" cy="-144" rx="58.57" ry="18"/>
<text text-anchor="middle" x="1678.8" y="-139.32" font-family="Times,serif" font-size="14.00">q14:2697</text>
</g>
<!-- q11:233&#45;&gt;q14:2697 -->
<g id="edge14" class="edge">
<title>q11:233&#45;&gt;q14:2697</title>
<path fill="none" stroke="black" d="M1235.7,-93.65C1245.7,-96.68 1256.6,-99.7 1266.7,-102 1373.4,-126.15 1401.1,-129.13 1510,-139 1542.2,-141.92 1578,-143.24 1608.2,-143.81"/>
<polygon fill="black" stroke="black" points="1607.93,-147.31 1617.99,-143.97 1608.05,-140.31 1607.93,-147.31"/>
<text text-anchor="middle" x="1439.8" y="-140.94" font-family="Times,serif" font-size="14.00">DATA/354:90</text>
</g>
<!-- q15:143 -->
<g id="node14" class="node">
<title>q15:143</title>
<ellipse fill="none" stroke="black" stroke-width="2" cx="1439.8" cy="-81" rx="52.26" ry="18"/>
<text text-anchor="middle" x="1439.8" y="-76.33" font-family="Times,serif" font-size="14.00">q15:143</text>
</g>
<!-- q11:233&#45;&gt;q15:143 -->
<g id="edge15" class="edge">
<title>q11:233&#45;&gt;q15:143</title>
<path fill="none" stroke="black" d="M1249.5,-81C1286.5,-81 1336.3,-81 1375.5,-81"/>
<polygon fill="black" stroke="black" points="1375.29,-84.5 1385.29,-81 1375.29,-77.5 1375.29,-84.5"/>
<text text-anchor="middle" x="1318.1" y="-84.95" font-family="Times,serif" font-size="14.00">RCPT/250:143</text>
</g>
<!-- q13:4 -->
<g id="node23" class="node">
<title>q13:4</title>
<ellipse fill="none" stroke="black" stroke-width="2" cx="1439.8" cy="-210" rx="39.63" ry="18"/>
<text text-anchor="middle" x="1439.8" y="-205.32" font-family="Times,serif" font-size="14.00">q13:4</text>
</g>
<!-- q10:10&#45;&gt;q13:4 -->
<g id="edge27" class="edge">
<title>q10:10&#45;&gt;q13:4</title>
<path fill="none" stroke="black" d="M1243.1,-210C1284.4,-210 1345.2,-210 1388,-210"/>
<polygon fill="black" stroke="black" points="1387.79,-213.5 1397.79,-210 1387.79,-206.5 1387.79,-213.5"/>
<text text-anchor="middle" x="1318.1" y="-213.94" font-family="Times,serif" font-size="14.00">λ/451:4</text>
</g>
<!-- q14:2697&#45;&gt;q14:2697 -->
<g id="edge16" class="edge">
<title>q14:2697&#45;&gt;q14:2697</title>
<path fill="none" stroke="black" d="M1656.9,-161.41C1652.8,-171.09 1660.1,-180 1678.8,-180 1689.6,-180 1696.6,-177.02 1699.8,-172.64"/>
<polygon fill="black" stroke="black" points="1703.27,-173.17 1700.58,-162.92 1696.29,-172.61 1703.27,-173.17"/>
<text text-anchor="middle" x="1678.8" y="-183.94" font-family="Times,serif" font-size="14.00">content/λ:2509</text>
</g>
<!-- q16:113 -->
<g id="node15" class="node">
<title>q16:113</title>
<ellipse fill="none" stroke="black" stroke-width="2" cx="1942.7" cy="-198" rx="52.26" ry="18"/>
<text text-anchor="middle" x="1942.7" y="-193.32" font-family="Times,serif" font-size="14.00">q16:113</text>
</g>
<!-- q14:2697&#45;&gt;q16:113 -->
<g id="edge17" class="edge">
<title>q14:2697&#45;&gt;q16:113</title>
<path fill="none" stroke="black" d="M1722.8,-156.71C1733.4,-159.63 1744.8,-162.59 1755.4,-165 1797.6,-174.58 1845.8,-183.05 1882.5,-189.01"/>
<polygon fill="black" stroke="black" points="1881.68,-192.42 1892.1,-190.53 1882.78,-185.51 1881.68,-192.42"/>
<text text-anchor="middle" x="1813.9" y="-190.94" font-family="Times,serif" font-size="14.00">content/250:113</text>
</g>
<!-- q17:74 -->
<g id="node16" class="node">
<title>q17:74</title>
<ellipse fill="none" stroke="black" stroke-width="2" cx="1942.7" cy="-144" rx="45.95" ry="18"/>
<text text-anchor="middle" x="1942.7" y="-139.32" font-family="Times,serif" font-size="14.00">q17:74</text>
</g>
<!-- q14:2697&#45;&gt;q17:74 -->
<g id="edge18" class="edge">
<title>q14:2697&#45;&gt;q17:74</title>
<path fill="none" stroke="black" d="M1738.3,-144C1781.9,-144 1841.2,-144 1884.5,-144"/>
<polygon fill="black" stroke="black" points="1884.49,-147.5 1894.49,-144 1884.49,-140.5 1884.49,-147.5"/>
<text text-anchor="middle" x="1813.9" y="-147.94" font-family="Times,serif" font-size="14.00">content/554:74</text>
</g>
<!-- q18:1 -->
<g id="node17" class="node">
<title>q18:1</title>
<ellipse fill="none" stroke="black" stroke-width="2" cx="1942.7" cy="-90" rx="39.63" ry="18"/>
<text text-anchor="middle" x="1942.7" y="-85.33" font-family="Times,serif" font-size="14.00">q18:1</text>
</g>
<!-- q14:2697&#45;&gt;q18:1 -->
<g id="edge19" class="edge">
<title>q14:2697&#45;&gt;q18:1</title>
<path fill="none" stroke="black" d="M1722.4,-131.22C1733.1,-128.23 1744.6,-125.2 1755.4,-122.75 1801.7,-112.2 1855.1,-103.13 1892.8,-97.22"/>
<polygon fill="black" stroke="black" points="1893.15,-100.71 1902.5,-95.72 1892.09,-93.79 1893.15,-100.71"/>
<text text-anchor="middle" x="1813.9" y="-126.95" font-family="Times,serif" font-size="14.00">content/550:1</text>
</g>
<!-- q15:143&#45;&gt;q14:2697 -->
<g id="edge20" class="edge">
<title>q15:143&#45;&gt;q14:2697</title>
<path fill="none" stroke="black" d="M1482.8,-92.03C1491.8,-94.35 1501.2,-96.77 1510,-99 1550.9,-109.37 1561.5,-110.73 1602.3,-121.75 1609.5,-123.72 1617.2,-125.87 1624.7,-128.03"/>
<polygon fill="black" stroke="black" points="1623.57,-131.35 1634.15,-130.77 1625.52,-124.62 1623.57,-131.35"/>
<text text-anchor="middle" x="1556.1" y="-125.95" font-family="Times,serif" font-size="14.00">DATA/354:98</text>
</g>
<!-- q19:2 -->
<g id="node18" class="node">
<title>q19:2</title>
<ellipse fill="none" stroke="black" stroke-width="2" cx="1678.8" cy="-18" rx="39.63" ry="18"/>
<text text-anchor="middle" x="1678.8" y="-13.32" font-family="Times,serif" font-size="14.00">q19:2</text>
</g>
<!-- q15:143&#45;&gt;q19:2 -->
<g id="edge21" class="edge">
<title>q15:143&#45;&gt;q19:2</title>
<path fill="none" stroke="black" d="M1479.8,-68.61C1489.7,-65.6 1500.2,-62.48 1510,-59.75 1550.8,-48.42 1597.6,-36.9 1631.4,-28.84"/>
<polygon fill="black" stroke="black" points="1631.91,-32.32 1640.83,-26.6 1630.29,-25.51 1631.91,-32.32"/>
<text text-anchor="middle" x="1556.1" y="-63.95" font-family="Times,serif" font-size="14.00">RCPT/250:2</text>
</g>
<!-- q20:43 -->
<g id="node19" class="node">
<title>q20:43</title>
<ellipse fill="none" stroke="black" stroke-width="2" cx="1678.8" cy="-81" rx="45.95" ry="18"/>
<text text-anchor="middle" x="1678.8" y="-76.33" font-family="Times,serif" font-size="14.00">q20:43</text>
</g>
<!-- q15:143&#45;&gt;q20:43 -->
<g id="edge22" class="edge">
<title>q15:143&#45;&gt;q20:43</title>
<path fill="none" stroke="black" d="M1492.8,-81C1530.5,-81 1581.6,-81 1620.5,-81"/>
<polygon fill="black" stroke="black" points="1620.39,-84.5 1630.39,-81 1620.39,-77.5 1620.39,-84.5"/>
<text text-anchor="middle" x="1556.1" y="-84.95" font-family="Times,serif" font-size="14.00">DATA/550:43</text>
</g>
<!-- q21:113 -->
<g id="node20" class="node">
<title>q21:113</title>
<ellipse fill="none" stroke="black" stroke-width="2" cx="2183.7" cy="-198" rx="52.26" ry="18"/>
<text text-anchor="middle" x="2183.7" y="-193.32" font-family="Times,serif" font-size="14.00">q21:113</text>
</g>
<!-- q16:113&#45;&gt;q21:113 -->
<g id="edge23" class="edge">
<title>q16:113&#45;&gt;q21:113</title>
<path fill="none" stroke="black" d="M1995.8,-198C2032.2,-198 2081,-198 2119.5,-198"/>
<polygon fill="black" stroke="black" points="2119.09,-201.5 2129.09,-198 2119.09,-194.5 2119.09,-201.5"/>
<text text-anchor="middle" x="2063.2" y="-201.94" font-family="Times,serif" font-size="14.00">QUIT/221:113</text>
</g>
<!-- q22:74 -->
<g id="node21" class="node">
<title>q22:74</title>
<ellipse fill="none" stroke="black" stroke-width="2" cx="2183.7" cy="-144" rx="45.95" ry="18"/>
<text text-anchor="middle" x="2183.7" y="-139.32" font-family="Times,serif" font-size="14.00">q22:74</text>
</g>
<!-- q17:74&#45;&gt;q22:74 -->
<g id="edge24" class="edge">
<title>q17:74&#45;&gt;q22:74</title>
<path fill="none" stroke="black" d="M1989.5,-144C2028.3,-144 2084,-144 2125.7,-144"/>
<polygon fill="black" stroke="black" points="2125.49,-147.5 2135.49,-144 2125.49,-140.5 2125.49,-147.5"/>
<text text-anchor="middle" x="2063.2" y="-147.94" font-family="Times,serif" font-size="14.00">RSET/250:74</text>
</g>
<!-- q23:1 -->
<g id="node22" class="node">
<title>q23:1</title>
<ellipse fill="none" stroke="black" stroke-width="2" cx="2183.7" cy="-90" rx="39.63" ry="18"/>
<text text-anchor="middle" x="2183.7" y="-85.33" font-family="Times,serif" font-size="14.00">q23:1</text>
</g>
<!-- q18:1&#45;&gt;q23:1 -->
<g id="edge25" class="edge">
<title>q18:1&#45;&gt;q23:1</title>
<path fill="none" stroke="black" d="M1983.1,-90C2023.8,-90 2087.3,-90 2131.7,-90"/>
<polygon fill="black" stroke="black" points="2131.69,-93.5 2141.69,-90 2131.69,-86.5 2131.69,-93.5"/>
<text text-anchor="middle" x="2063.2" y="-93.95" font-family="Times,serif" font-size="14.00">RSET/250:1</text>
</g>
<!-- q19:2&#45;&gt;q8:233 -->
<g id="edge26" class="edge">
<title>q19:2&#45;&gt;q8:233</title>
<path fill="none" stroke="black" d="M1638.6,-19.85C1550.2,-24.2 1328.8,-36.06 1144.2,-54 1098.7,-58.42 1047.3,-65.06 1009.6,-70.24"/>
<polygon fill="black" stroke="black" points="1009.27,-66.75 999.84,-71.59 1010.22,-73.69 1009.27,-66.75"/>
<text text-anchor="middle" x="1318.1" y="-47.95" font-family="Times,serif" font-size="14.00">RCPT/250:2</text>
</g>
<!-- q0:243 -->
<g id="node24" class="node">
<title>q0:243</title>
<ellipse fill="none" stroke="black" stroke-width="2" cx="53.95" cy="-114" rx="49.95" ry="49.95"/>
<ellipse fill="none" stroke="black" stroke-width="2" cx="53.95" cy="-114" rx="53.95" ry="53.95"/>
<text text-anchor="middle" x="53.95" y="-109.33" font-family="Times,serif" font-size="14.00">q0:243</text>
</g>
<!-- q0:243&#45;&gt;q1:243 -->
<g id="edge28" class="edge">
<title>q0:243&#45;&gt;q1:243</title>
<path fill="none" stroke="black" d="M104.85,-114C133.64,-114 169.94,-114 199.84,-114"/>
<polygon fill="black" stroke="black" points="199.45,-117.5 209.45,-114 199.45,-110.5 199.45,-117.5"/>
<text text-anchor="middle" x="157.89" y="-117.95" font-family="Times,serif" font-size="14.00">λ/220:243</text>
</g>
</g>
</svg>
