<?xml version="1.0" encoding="UTF-8" standalone="no"?>
<!DOCTYPE svg PUBLIC "-//W3C//DTD SVG 1.1//EN"
 "http://www.w3.org/Graphics/SVG/1.1/DTD/svg11.dtd">
<!-- Generated by graphviz version 12.0.0 (20240803.0821)
 -->
<!-- Pages: 1 -->
<svg width="2016pt" height="253pt"
 viewBox="0.00 0.00 2016.46 253.00" xmlns="http://www.w3.org/2000/svg" xmlns:xlink="http://www.w3.org/1999/xlink">
<g id="graph0" class="graph" transform="scale(1 1) rotate(0) translate(4 249)">
<polygon fill="white" stroke="none" points="-4,4 -4,-249 2012.46,-249 2012.46,4 -4,4"/>
<!-- q2:243 -->
<g id="node1" class="node">
<title>q2:243</title>
<ellipse fill="none" stroke="black" stroke-width="2" cx="491.48" cy="-114" rx="45.95" ry="18"/>
<text text-anchor="middle" x="491.48" y="-109.33" font-family="Times,serif" font-size="14.00">q2:243</text>
</g>
<!-- q6:231 -->
<g id="node2" class="node">
<title>q6:231</title>
<ellipse fill="none" stroke="black" stroke-width="2" cx="725.13" cy="-170" rx="45.95" ry="18"/>
<text text-anchor="middle" x="725.13" y="-165.32" font-family="Times,serif" font-size="14.00">q6:231</text>
</g>
<!-- q2:243&#45;&gt;q6:231 -->
<g id="edge1" class="edge">
<title>q2:243&#45;&gt;q6:231</title>
<path fill="none" stroke="black" d="M534.36,-121.64C568.67,-128.19 618.36,-138.36 661.18,-149.75 666.73,-151.22 672.5,-152.9 678.21,-154.63"/>
<polygon fill="black" stroke="black" points="677,-157.92 687.58,-157.56 679.08,-151.24 677,-157.92"/>
<text text-anchor="middle" x="608.31" y="-152.94" font-family="Times,serif" font-size="14.00">AUTH/235:230</text>
</g>
<!-- q5:12 -->
<g id="node3" class="node">
<title>q5:12</title>
<ellipse fill="none" stroke="black" stroke-width="2" cx="725.13" cy="-51" rx="39.63" ry="18"/>
<text text-anchor="middle" x="725.13" y="-46.33" font-family="Times,serif" font-size="14.00">q5:12</text>
</g>
<!-- q2:243&#45;&gt;q5:12 -->
<g id="edge2" class="edge">
<title>q2:243&#45;&gt;q5:12</title>
<path fill="none" stroke="black" d="M515.7,-97.89C527.18,-90.66 541.52,-82.67 555.43,-77.75 593.86,-64.16 639.66,-57.45 673.83,-54.15"/>
<polygon fill="black" stroke="black" points="673.79,-57.67 683.44,-53.3 673.17,-50.7 673.79,-57.67"/>
<text text-anchor="middle" x="608.31" y="-80.95" font-family="Times,serif" font-size="14.00">AUTH/535:12</text>
</g>
<!-- q4:1 -->
<g id="node4" class="node">
<title>q4:1</title>
<ellipse fill="none" stroke="black" stroke-width="2" cx="725.13" cy="-105" rx="33.32" ry="18"/>
<text text-anchor="middle" x="725.13" y="-100.33" font-family="Times,serif" font-size="14.00">q4:1</text>
</g>
<!-- q2:243&#45;&gt;q4:1 -->
<g id="edge3" class="edge">
<title>q2:243&#45;&gt;q4:1</title>
<path fill="none" stroke="black" d="M532.61,-105C540.16,-103.65 548.01,-102.47 555.43,-101.75 597.56,-97.69 645.86,-99.25 679.95,-101.37"/>
<polygon fill="black" stroke="black" points="679.67,-104.86 689.88,-102.04 680.14,-97.87 679.67,-104.86"/>
<text text-anchor="middle" x="608.31" y="-104.95" font-family="Times,serif" font-size="14.00">AUTH/λ:1</text>
</g>
<!-- q7:605 -->
<g id="node5" class="node">
<title>q7:605</title>
<ellipse fill="none" stroke="black" stroke-width="2" cx="954.27" cy="-105" rx="45.95" ry="18"/>
<text text-anchor="middle" x="954.27" y="-100.33" font-family="Times,serif" font-size="14.00">q7:605</text>
</g>
<!-- q6:231&#45;&gt;q7:605 -->
<g id="edge4" class="edge">
<title>q6:231&#45;&gt;q7:605</title>
<path fill="none" stroke="black" d="M765.13,-160.25C798.52,-151.74 847.79,-138.78 890.33,-126 895.91,-124.32 901.74,-122.49 907.51,-120.63"/>
<polygon fill="black" stroke="black" points="908.58,-123.96 916.99,-117.51 906.4,-117.31 908.58,-123.96"/>
<text text-anchor="middle" x="839.7" y="-156.94" font-family="Times,serif" font-size="14.00">MAIL/250:228</text>
</g>
<!-- q9:3 -->
<g id="node6" class="node">
<title>q9:3</title>
<ellipse fill="none" stroke="black" stroke-width="2" cx="954.27" cy="-206" rx="33.32" ry="18"/>
<text text-anchor="middle" x="954.27" y="-201.32" font-family="Times,serif" font-size="14.00">q9:3</text>
</g>
<!-- q6:231&#45;&gt;q9:3 -->
<g id="edge5" class="edge">
<title>q6:231&#45;&gt;q9:3</title>
<path fill="none" stroke="black" d="M768.85,-176.77C809.29,-183.18 869.69,-192.75 910.23,-199.18"/>
<polygon fill="black" stroke="black" points="909.44,-202.6 919.86,-200.7 910.53,-195.68 909.44,-202.6"/>
<text text-anchor="middle" x="839.7" y="-198.94" font-family="Times,serif" font-size="14.00">MAIL/553:3</text>
</g>
<!-- q8:12 -->
<g id="node7" class="node">
<title>q8:12</title>
<ellipse fill="none" stroke="black" stroke-width="2" cx="954.27" cy="-51" rx="39.63" ry="18"/>
<text text-anchor="middle" x="954.27" y="-46.33" font-family="Times,serif" font-size="14.00">q8:12</text>
</g>
<!-- q5:12&#45;&gt;q8:12 -->
<g id="edge6" class="edge">
<title>q5:12&#45;&gt;q8:12</title>
<path fill="none" stroke="black" d="M765.69,-51C803.6,-51 861,-51 902.32,-51"/>
<polygon fill="black" stroke="black" points="902.27,-54.5 912.27,-51 902.27,-47.5 902.27,-54.5"/>
<text text-anchor="middle" x="839.7" y="-54.95" font-family="Times,serif" font-size="14.00">AUTH/334:12</text>
</g>
<!-- q4:1&#45;&gt;q7:605 -->
<g id="edge7" class="edge">
<title>q4:1&#45;&gt;q7:605</title>
<path fill="none" stroke="black" d="M759.16,-105C795,-105 852.89,-105 896.14,-105"/>
<polygon fill="black" stroke="black" points="896.13,-108.5 906.13,-105 896.13,-101.5 896.13,-108.5"/>
<text text-anchor="middle" x="839.7" y="-108.95" font-family="Times,serif" font-size="14.00">MAIL/250:1</text>
</g>
<!-- q7:605&#45;&gt;q7:605 -->
<g id="edge8" class="edge">
<title>q7:605&#45;&gt;q7:605</title>
<path fill="none" stroke="black" d="M933.97,-122.04C929.83,-131.86 936.59,-141 954.27,-141 964.49,-141 971.07,-137.94 973.99,-133.47"/>
<polygon fill="black" stroke="black" points="977.48,-133.72 974.49,-123.55 970.49,-133.36 977.48,-133.72"/>
<text text-anchor="middle" x="954.27" y="-144.94" font-family="Times,serif" font-size="14.00">RCPT/250:376</text>
</g>
<!-- q11:209 -->
<g id="node8" class="node">
<title>q11:209</title>
<ellipse fill="none" stroke="black" stroke-width="2" cx="1196.5" cy="-99" rx="52.26" ry="18"/>
<text text-anchor="middle" x="1196.5" y="-94.33" font-family="Times,serif" font-size="14.00">q11:209</text>
</g>
<!-- q7:605&#45;&gt;q11:209 -->
<g id="edge9" class="edge">
<title>q7:605&#45;&gt;q11:209</title>
<path fill="none" stroke="black" d="M1001.02,-103.86C1038.2,-102.93 1091.1,-101.61 1132.4,-100.58"/>
<polygon fill="black" stroke="black" points="1132.18,-104.09 1142.09,-100.33 1132,-97.09 1132.18,-104.09"/>
<text text-anchor="middle" x="1072.2" y="-106.95" font-family="Times,serif" font-size="14.00">DATA/354:209</text>
</g>
<!-- q10:20 -->
<g id="node9" class="node">
<title>q10:20</title>
<ellipse fill="none" stroke="black" stroke-width="2" cx="1196.5" cy="-153" rx="45.95" ry="18"/>
<text text-anchor="middle" x="1196.5" y="-148.32" font-family="Times,serif" font-size="14.00">q10:20</text>
</g>
<!-- q7:605&#45;&gt;q10:20 -->
<g id="edge10" class="edge">
<title>q7:605&#45;&gt;q10:20</title>
<path fill="none" stroke="black" d="M991,-116.67C999.84,-119.31 1009.3,-121.94 1018.2,-124 1058.9,-133.43 1105.6,-140.93 1140.8,-145.94"/>
<polygon fill="black" stroke="black" points="1139.91,-149.35 1150.3,-147.27 1140.88,-142.42 1139.91,-149.35"/>
<text text-anchor="middle" x="1072.2" y="-146.94" font-family="Times,serif" font-size="14.00">DATA/550:20</text>
</g>
<!-- q13:3 -->
<g id="node10" class="node">
<title>q13:3</title>
<ellipse fill="none" stroke="black" stroke-width="2" cx="1196.5" cy="-207" rx="39.63" ry="18"/>
<text text-anchor="middle" x="1196.5" y="-202.32" font-family="Times,serif" font-size="14.00">q13:3</text>
</g>
<!-- q9:3&#45;&gt;q13:3 -->
<g id="edge11" class="edge">
<title>q9:3&#45;&gt;q13:3</title>
<path fill="none" stroke="black" d="M988.42,-206.14C1028.8,-206.31 1097.3,-206.59 1144.4,-206.79"/>
<polygon fill="black" stroke="black" points="1144.37,-210.29 1154.39,-206.83 1144.4,-203.29 1144.37,-210.29"/>
<text text-anchor="middle" x="1072.2" y="-209.94" font-family="Times,serif" font-size="14.00">RSET/250:3</text>
</g>
<!-- q12:12 -->
<g id="node11" class="node">
<title>q12:12</title>
<ellipse fill="none" stroke="black" stroke-width="2" cx="1196.5" cy="-45" rx="45.95" ry="18"/>
<text text-anchor="middle" x="1196.5" y="-40.33" font-family="Times,serif" font-size="14.00">q12:12</text>
</g>
<!-- q8:12&#45;&gt;q12:12 -->
<g id="edge12" class="edge">
<title>q8:12&#45;&gt;q12:12</title>
<path fill="none" stroke="black" d="M994.67,-50.02C1033.8,-49.04 1094.1,-47.53 1138.4,-46.42"/>
<polygon fill="black" stroke="black" points="1138.48,-49.92 1148.39,-46.18 1138.3,-42.93 1138.48,-49.92"/>
<text text-anchor="middle" x="1072.2" y="-52.95" font-family="Times,serif" font-size="14.00">content/535:12</text>
</g>
<!-- q15:3060 -->
<g id="node12" class="node">
<title>q15:3060</title>
<ellipse fill="none" stroke="black" stroke-width="2" cx="1451.3" cy="-126" rx="58.57" ry="18"/>
<text text-anchor="middle" x="1451.3" y="-121.33" font-family="Times,serif" font-size="14.00">q15:3060</text>
</g>
<!-- q11:209&#45;&gt;q15:3060 -->
<g id="edge13" class="edge">
<title>q11:209&#45;&gt;q15:3060</title>
<path fill="none" stroke="black" d="M1247.4,-104.33C1286.3,-108.49 1340.7,-114.29 1383.3,-118.85"/>
<polygon fill="black" stroke="black" points="1382.98,-122.34 1393.29,-119.91 1383.72,-115.37 1382.98,-122.34"/>
<text text-anchor="middle" x="1320.7" y="-120.95" font-family="Times,serif" font-size="14.00">content/λ:113</text>
</g>
<!-- q14:24 -->
<g id="node13" class="node">
<title>q14:24</title>
<ellipse fill="none" stroke="black" stroke-width="2" cx="1451.3" cy="-72" rx="45.95" ry="18"/>
<text text-anchor="middle" x="1451.3" y="-67.33" font-family="Times,serif" font-size="14.00">q14:24</text>
</g>
<!-- q11:209&#45;&gt;q14:24 -->
<g id="edge14" class="edge">
<title>q11:209&#45;&gt;q14:24</title>
<path fill="none" stroke="black" d="M1241.7,-88.99C1250,-87.37 1258.6,-85.87 1266.7,-84.75 1309,-78.96 1357.1,-75.74 1393.5,-73.99"/>
<polygon fill="black" stroke="black" points="1393.56,-77.49 1403.39,-73.54 1393.24,-70.5 1393.56,-77.49"/>
<text text-anchor="middle" x="1320.7" y="-87.95" font-family="Times,serif" font-size="14.00">content/250:24</text>
</g>
<!-- q16:72 -->
<g id="node14" class="node">
<title>q16:72</title>
<ellipse fill="none" stroke="black" stroke-width="2" cx="1451.3" cy="-224" rx="45.95" ry="18"/>
<text text-anchor="middle" x="1451.3" y="-219.32" font-family="Times,serif" font-size="14.00">q16:72</text>
</g>
<!-- q11:209&#45;&gt;q16:72 -->
<g id="edge15" class="edge">
<title>q11:209&#45;&gt;q16:72</title>
<path fill="none" stroke="black" d="M1227.9,-114.34C1234.8,-118.02 1242.1,-122.04 1248.7,-126 1257,-130.91 1258.4,-133.28 1266.7,-138 1313.7,-164.45 1370.1,-190.02 1407.9,-206.31"/>
<polygon fill="black" stroke="black" points="1406.13,-209.36 1416.71,-210.06 1408.88,-202.92 1406.13,-209.36"/>
<text text-anchor="middle" x="1320.7" y="-194.94" font-family="Times,serif" font-size="14.00">content/554:72</text>
</g>
<!-- q17:3 -->
<g id="node24" class="node">
<title>q17:3</title>
<ellipse fill="none" stroke="black" stroke-width="2" cx="1451.3" cy="-18" rx="39.63" ry="18"/>
<text text-anchor="middle" x="1451.3" y="-13.32" font-family="Times,serif" font-size="14.00">q17:3</text>
</g>
<!-- q12:12&#45;&gt;q17:3 -->
<g id="edge27" class="edge">
<title>q12:12&#45;&gt;q17:3</title>
<path fill="none" stroke="black" d="M1241.8,-40.27C1286.2,-35.53 1354.4,-28.25 1400.6,-23.31"/>
<polygon fill="black" stroke="black" points="1400.72,-26.82 1410.29,-22.27 1399.98,-19.86 1400.72,-26.82"/>
<text text-anchor="middle" x="1320.7" y="-40.95" font-family="Times,serif" font-size="14.00">λ/451:3</text>
</g>
<!-- q15:3060&#45;&gt;q15:3060 -->
<g id="edge16" class="edge">
<title>q15:3060&#45;&gt;q15:3060</title>
<path fill="none" stroke="black" d="M1428,-143.41C1423.7,-153.09 1431.4,-162 1451.3,-162 1462.8,-162 1470.3,-159.02 1473.7,-154.64"/>
<polygon fill="black" stroke="black" points="1477.17,-155.17 1474.48,-144.92 1470.19,-154.61 1477.17,-155.17"/>
<text text-anchor="middle" x="1451.3" y="-165.94" font-family="Times,serif" font-size="14.00">content/λ:2947</text>
</g>
<!-- q20:111 -->
<g id="node15" class="node">
<title>q20:111</title>
<ellipse fill="none" stroke="black" stroke-width="2" cx="1715.1" cy="-119" rx="52.26" ry="18"/>
<text text-anchor="middle" x="1715.1" y="-114.33" font-family="Times,serif" font-size="14.00">q20:111</text>
</g>
<!-- q15:3060&#45;&gt;q20:111 -->
<g id="edge17" class="edge">
<title>q15:3060&#45;&gt;q20:111</title>
<path fill="none" stroke="black" d="M1510.4,-124.45C1552.1,-123.33 1608.2,-121.83 1651,-120.69"/>
<polygon fill="black" stroke="black" points="1650.99,-124.19 1660.89,-120.42 1650.79,-117.19 1650.99,-124.19"/>
<text text-anchor="middle" x="1586.4" y="-126.95" font-family="Times,serif" font-size="14.00">content/250:111</text>
</g>
<!-- q19:2 -->
<g id="node16" class="node">
<title>q19:2</title>
<ellipse fill="none" stroke="black" stroke-width="2" cx="1715.1" cy="-173" rx="39.63" ry="18"/>
<text text-anchor="middle" x="1715.1" y="-168.32" font-family="Times,serif" font-size="14.00">q19:2</text>
</g>
<!-- q15:3060&#45;&gt;q19:2 -->
<g id="edge18" class="edge">
<title>q15:3060&#45;&gt;q19:2</title>
<path fill="none" stroke="black" d="M1498.1,-137.53C1507.9,-139.82 1518.2,-142.1 1527.9,-144 1574.2,-153.1 1627.4,-161.14 1665,-166.44"/>
<polygon fill="black" stroke="black" points="1664.31,-169.88 1674.7,-167.78 1665.27,-162.94 1664.31,-169.88"/>
<text text-anchor="middle" x="1586.4" y="-166.94" font-family="Times,serif" font-size="14.00">content/554:2</text>
</g>
<!-- q18:24 -->
<g id="node17" class="node">
<title>q18:24</title>
<ellipse fill="none" stroke="black" stroke-width="2" cx="1715.1" cy="-65" rx="45.95" ry="18"/>
<text text-anchor="middle" x="1715.1" y="-60.33" font-family="Times,serif" font-size="14.00">q18:24</text>
</g>
<!-- q14:24&#45;&gt;q18:24 -->
<g id="edge19" class="edge">
<title>q14:24&#45;&gt;q18:24</title>
<path fill="none" stroke="black" d="M1497.9,-70.78C1542.2,-69.6 1609.5,-67.8 1657.2,-66.52"/>
<polygon fill="black" stroke="black" points="1657.18,-70.02 1667.09,-66.26 1657,-63.03 1657.18,-70.02"/>
<text text-anchor="middle" x="1586.4" y="-72.95" font-family="Times,serif" font-size="14.00">QUIT/221:24</text>
</g>
<!-- q21:72 -->
<g id="node18" class="node">
<title>q21:72</title>
<ellipse fill="none" stroke="black" stroke-width="2" cx="1715.1" cy="-227" rx="45.95" ry="18"/>
<text text-anchor="middle" x="1715.1" y="-222.32" font-family="Times,serif" font-size="14.00">q21:72</text>
</g>
<!-- q16:72&#45;&gt;q21:72 -->
<g id="edge20" class="edge">
<title>q16:72&#45;&gt;q21:72</title>
<path fill="none" stroke="black" d="M1498.2,-224.53C1542.4,-225.03 1609.3,-225.8 1656.9,-226.34"/>
<polygon fill="black" stroke="black" points="1656.75,-229.84 1666.79,-226.45 1656.83,-222.84 1656.75,-229.84"/>
<text text-anchor="middle" x="1586.4" y="-229.94" font-family="Times,serif" font-size="14.00">RSET/250:72</text>
</g>
<!-- q23:111 -->
<g id="node19" class="node">
<title>q23:111</title>
<ellipse fill="none" stroke="black" stroke-width="2" cx="1956.2" cy="-119" rx="52.26" ry="18"/>
<text text-anchor="middle" x="1956.2" y="-114.33" font-family="Times,serif" font-size="14.00">q23:111</text>
</g>
<!-- q20:111&#45;&gt;q23:111 -->
<g id="edge21" class="edge">
<title>q20:111&#45;&gt;q23:111</title>
<path fill="none" stroke="black" d="M1768.3,-119C1804.7,-119 1853.4,-119 1892,-119"/>
<polygon fill="black" stroke="black" points="1891.59,-122.5 1901.59,-119 1891.59,-115.5 1891.59,-122.5"/>
<text text-anchor="middle" x="1835.7" y="-122.95" font-family="Times,serif" font-size="14.00">QUIT/221:111</text>
</g>
<!-- q22:2 -->
<g id="node20" class="node">
<title>q22:2</title>
<ellipse fill="none" stroke="black" stroke-width="2" cx="1956.2" cy="-173" rx="39.63" ry="18"/>
<text text-anchor="middle" x="1956.2" y="-168.32" font-family="Times,serif" font-size="14.00">q22:2</text>
</g>
<!-- q19:2&#45;&gt;q22:2 -->
<g id="edge22" class="edge">
<title>q19:2&#45;&gt;q22:2</title>
<path fill="none" stroke="black" d="M1755.6,-173C1796.3,-173 1859.8,-173 1904.2,-173"/>
<polygon fill="black" stroke="black" points="1904.09,-176.5 1914.09,-173 1904.09,-169.5 1904.09,-176.5"/>
<text text-anchor="middle" x="1835.7" y="-176.94" font-family="Times,serif" font-size="14.00">RSET/250:2</text>
</g>
<!-- q0:244 -->
<g id="node21" class="node">
<title>q0:244</title>
<ellipse fill="none" stroke="black" stroke-width="2" cx="53.95" cy="-141" rx="49.95" ry="49.95"/>
<ellipse fill="none" stroke="black" stroke-width="2" cx="53.95" cy="-141" rx="53.95" ry="53.95"/>
<text text-anchor="middle" x="53.95" y="-136.32" font-family="Times,serif" font-size="14.00">q0:244</text>
</g>
<!-- q1:244 -->
<g id="node22" class="node">
<title>q1:244</title>
<ellipse fill="none" stroke="black" stroke-width="2" cx="257.84" cy="-141" rx="45.95" ry="18"/>
<text text-anchor="middle" x="257.84" y="-136.32" font-family="Times,serif" font-size="14.00">q1:244</text>
</g>
<!-- q0:244&#45;&gt;q1:244 -->
<g id="edge23" class="edge">
<title>q0:244&#45;&gt;q1:244</title>
<path fill="none" stroke="black" d="M104.85,-141C133.64,-141 169.94,-141 199.84,-141"/>
<polygon fill="black" stroke="black" points="199.45,-144.5 209.45,-141 199.45,-137.5 199.45,-144.5"/>
<text text-anchor="middle" x="157.89" y="-144.94" font-family="Times,serif" font-size="14.00">λ/220:244</text>
</g>
<!-- q1:244&#45;&gt;q2:243 -->
<g id="edge24" class="edge">
<title>q1:244&#45;&gt;q2:243</title>
<path fill="none" stroke="black" d="M296.21,-130.12C304.56,-128.03 313.43,-126.08 321.79,-124.75 358.73,-118.86 400.71,-116.17 433.55,-114.95"/>
<polygon fill="black" stroke="black" points="433.37,-118.46 443.25,-114.63 433.14,-111.46 433.37,-118.46"/>
<text text-anchor="middle" x="374.66" y="-127.95" font-family="Times,serif" font-size="14.00">EHLO/250:243</text>
</g>
<!-- q3:1 -->
<g id="node23" class="node">
<title>q3:1</title>
<ellipse fill="none" stroke="black" stroke-width="2" cx="491.48" cy="-174" rx="33.32" ry="18"/>
<text text-anchor="middle" x="491.48" y="-169.32" font-family="Times,serif" font-size="14.00">q3:1</text>
</g>
<!-- q1:244&#45;&gt;q3:1 -->
<g id="edge25" class="edge">
<title>q1:244&#45;&gt;q3:1</title>
<path fill="none" stroke="black" d="M302.14,-147.17C343.47,-153.06 405.4,-161.88 446.84,-167.78"/>
<polygon fill="black" stroke="black" points="446.33,-171.24 456.72,-169.19 447.31,-164.31 446.33,-171.24"/>
<text text-anchor="middle" x="374.66" y="-167.94" font-family="Times,serif" font-size="14.00">EHLO/λ:1</text>
</g>
<!-- q3:1&#45;&gt;q6:231 -->
<g id="edge26" class="edge">
<title>q3:1&#45;&gt;q6:231</title>
<path fill="none" stroke="black" d="M525.67,-173.43C562.42,-172.79 622.33,-171.76 666.72,-170.99"/>
<polygon fill="black" stroke="black" points="666.77,-174.49 676.71,-170.82 666.65,-167.49 666.77,-174.49"/>
<text text-anchor="middle" x="608.31" y="-175.94" font-family="Times,serif" font-size="14.00">AUTH/235:1</text>
</g>
</g>
</svg>
