<?xml version="1.0" encoding="UTF-8" standalone="no"?>
<!DOCTYPE svg PUBLIC "-//W3C//DTD SVG 1.1//EN"
 "http://www.w3.org/Graphics/SVG/1.1/DTD/svg11.dtd">
<!-- Generated by graphviz version 12.0.0 (20240803.0821)
 -->
<!-- Pages: 1 -->
<svg width="5331pt" height="532pt"
 viewBox="0.00 0.00 5331.06 531.54" xmlns="http://www.w3.org/2000/svg" xmlns:xlink="http://www.w3.org/1999/xlink">
<g id="graph0" class="graph" transform="scale(1 1) rotate(0) translate(4 527.54)">
<polygon fill="white" stroke="none" points="-4,4 -4,-527.54 5327.06,-527.54 5327.06,4 -4,4"/>
<!-- q2:2 -->
<g id="node1" class="node">
<title>q2:2</title>
<ellipse fill="none" stroke="black" stroke-width="2" cx="501.98" cy="-196.13" rx="33.32" ry="18"/>
<text text-anchor="middle" x="501.98" y="-191.46" font-family="Times,serif" font-size="14.00">q2:2</text>
</g>
<!-- q4:231 -->
<g id="node2" class="node">
<title>q4:231</title>
<ellipse fill="none" stroke="black" stroke-width="2" cx="1681.4" cy="-193.13" rx="45.95" ry="18"/>
<text text-anchor="middle" x="1681.4" y="-188.46" font-family="Times,serif" font-size="14.00">q4:231</text>
</g>
<!-- q2:2&#45;&gt;q4:231 -->
<g id="edge1" class="edge">
<title>q2:2&#45;&gt;q4:231</title>
<path fill="none" stroke="black" d="M521.78,-180.71C533.65,-172 549.76,-161.96 565.93,-157.38 1015.6,-30.07 1165.6,-38.03 1617.4,-157.38 1628.1,-160.19 1638.8,-165.24 1648.2,-170.69"/>
<polygon fill="black" stroke="black" points="1646.35,-173.66 1656.71,-175.87 1649.99,-167.68 1646.35,-173.66"/>
<text text-anchor="middle" x="1091.7" y="-195.59" font-family="Times,serif" font-size="14.00">AUTH/235:2</text>
<text text-anchor="middle" x="1091.7" y="-178.34" font-family="Times,serif" font-size="14.00">a0 in {&#39;PLAIN AEF6NjE2MUBzaW5hLmNvbQA2ZmRiMjVjZmNjODYyZWZj&#39;, &#39;PLAIN AEF6NjE2MUAxMjYuY29tAE1VUVNBT1NUWElURkpDVUU=&#39;}</text>
<text text-anchor="middle" x="1091.7" y="-161.09" font-family="Times,serif" font-size="14.00">b0 in {&#39;Authentication successful&#39;, &#39;OK Authenticated&#39;}</text>
</g>
<!-- q7:228 -->
<g id="node3" class="node">
<title>q7:228</title>
<ellipse fill="none" stroke="black" stroke-width="2" cx="2605.2" cy="-225.13" rx="45.95" ry="18"/>
<text text-anchor="middle" x="2605.2" y="-220.46" font-family="Times,serif" font-size="14.00">q7:228</text>
</g>
<!-- q4:231&#45;&gt;q7:228 -->
<g id="edge2" class="edge">
<title>q4:231&#45;&gt;q7:228</title>
<path fill="none" stroke="black" d="M1724.3,-200.58C1731.3,-201.6 1738.5,-202.51 1745.3,-203.13 1901.6,-217.49 2381.4,-223.11 2547.1,-224.65"/>
<polygon fill="black" stroke="black" points="2546.95,-228.15 2556.99,-224.75 2547.02,-221.15 2546.95,-228.15"/>
<text text-anchor="middle" x="2106.1" y="-261.59" font-family="Times,serif" font-size="14.00">MAIL/250:228</text>
<text text-anchor="middle" x="2106.1" y="-244.34" font-family="Times,serif" font-size="14.00">a0 in {&#39;FROM:&lt;Az6161@126.com&gt;&#39;, &#39;FROM:&lt;Az6161@sina.com&gt;&#39;}</text>
<text text-anchor="middle" x="2106.1" y="-227.09" font-family="Times,serif" font-size="14.00">b0 in {&#39;Mail OK&#39;, &#39;ok&#39;}</text>
</g>
<!-- q8:3 -->
<g id="node4" class="node">
<title>q8:3</title>
<ellipse fill="none" stroke="black" stroke-width="2" cx="2605.2" cy="-150.13" rx="33.32" ry="18"/>
<text text-anchor="middle" x="2605.2" y="-145.46" font-family="Times,serif" font-size="14.00">q8:3</text>
</g>
<!-- q4:231&#45;&gt;q8:3 -->
<g id="edge3" class="edge">
<title>q4:231&#45;&gt;q8:3</title>
<path fill="none" stroke="black" d="M1699.9,-175.68C1711.7,-165.25 1728.1,-152.98 1745.3,-147.38 2050.3,-48.27 2146.2,-144.17 2466.8,-147.38 2497.9,-147.69 2532.9,-148.4 2559.8,-149.02"/>
<polygon fill="black" stroke="black" points="2559.61,-152.52 2569.69,-149.26 2559.77,-145.52 2559.61,-152.52"/>
<text text-anchor="middle" x="2106.1" y="-186.59" font-family="Times,serif" font-size="14.00">MAIL/553:3</text>
<text text-anchor="middle" x="2106.1" y="-169.34" font-family="Times,serif" font-size="14.00">a0 in {&#39;FROM:&lt;Az_6161@sina.com&gt;&#39;, &#39;FROM:&lt;Az_6161@126.com&gt;&#39;, &#39;FROM:&lt;Az6161@163.com&gt;&#39;}</text>
<text text-anchor="middle" x="2106.1" y="-152.09" font-family="Times,serif" font-size="14.00">b0 in {&#39;Mail from must equal authorized user&#39;, &#39;Envolope sender mismatch with login user..&#39;}</text>
</g>
<!-- q10:229 -->
<g id="node5" class="node">
<title>q10:229</title>
<ellipse fill="none" stroke="black" stroke-width="2" cx="3508.3" cy="-258.13" rx="52.26" ry="18"/>
<text text-anchor="middle" x="3508.3" y="-253.46" font-family="Times,serif" font-size="14.00">q10:229</text>
</g>
<!-- q7:228&#45;&gt;q10:229 -->
<g id="edge4" class="edge">
<title>q7:228&#45;&gt;q10:229</title>
<path fill="none" stroke="black" d="M2649.3,-218.83C2773.6,-202.02 3142.5,-161.63 3438.1,-226.38 3448.6,-228.69 3459.5,-232.75 3469.3,-237.21"/>
<polygon fill="black" stroke="black" points="3467.8,-240.37 3478.33,-241.49 3470.79,-234.05 3467.8,-240.37"/>
<text text-anchor="middle" x="3090.8" y="-264.59" font-family="Times,serif" font-size="14.00">RCPT/250:228</text>
<text text-anchor="middle" x="3090.8" y="-247.34" font-family="Times,serif" font-size="14.00">a0 in {&#39;TO:&lt;574702257@qq.com&gt;&#39;, &#39;TO:&lt;1542110793@qq.com&gt;&#39;, &#39;TO:&lt;574702256@qq.com&gt;&#39;}</text>
<text text-anchor="middle" x="3090.8" y="-230.09" font-family="Times,serif" font-size="14.00">b0 in {&#39;Mail OK&#39;, &#39;ok&#39;}</text>
</g>
<!-- q11:3 -->
<g id="node6" class="node">
<title>q11:3</title>
<ellipse fill="none" stroke="black" stroke-width="2" cx="3508.3" cy="-150.13" rx="39.63" ry="18"/>
<text text-anchor="middle" x="3508.3" y="-145.46" font-family="Times,serif" font-size="14.00">q11:3</text>
</g>
<!-- q8:3&#45;&gt;q11:3 -->
<g id="edge5" class="edge">
<title>q8:3&#45;&gt;q11:3</title>
<path fill="none" stroke="black" d="M2639.3,-150.13C2775.5,-150.13 3292.2,-150.13 3456.7,-150.13"/>
<polygon fill="black" stroke="black" points="3456.39,-153.63 3466.39,-150.13 3456.39,-146.63 3456.39,-153.63"/>
<text text-anchor="middle" x="3090.8" y="-171.33" font-family="Times,serif" font-size="14.00">RSET/250:3</text>
<text text-anchor="middle" x="3090.8" y="-154.08" font-family="Times,serif" font-size="14.00">b0 in {&#39;flushed&#39;, &#39;OK&#39;}</text>
</g>
<!-- q14:165 -->
<g id="node7" class="node">
<title>q14:165</title>
<ellipse fill="none" stroke="black" stroke-width="2" cx="3915.3" cy="-175.13" rx="52.26" ry="18"/>
<text text-anchor="middle" x="3915.3" y="-170.46" font-family="Times,serif" font-size="14.00">q14:165</text>
</g>
<!-- q10:229&#45;&gt;q14:165 -->
<g id="edge6" class="edge">
<title>q10:229&#45;&gt;q14:165</title>
<path fill="none" stroke="black" d="M3545.7,-244.64C3556.2,-241.06 3567.8,-237.41 3578.6,-234.63 3673.6,-210.25 3786.2,-192.51 3853.9,-183.02"/>
<polygon fill="black" stroke="black" points="3854.27,-186.5 3863.7,-181.67 3853.32,-179.57 3854.27,-186.5"/>
<text text-anchor="middle" x="3657" y="-255.33" font-family="Times,serif" font-size="14.00">RCPT/250:161</text>
<text text-anchor="middle" x="3657" y="-238.08" font-family="Times,serif" font-size="14.00">b0 in {&#39;Mail OK&#39;, &#39;ok&#39;}</text>
</g>
<!-- q13:3334 -->
<g id="node8" class="node">
<title>q13:3334</title>
<ellipse fill="none" stroke="black" stroke-width="2" cx="4657.9" cy="-258.13" rx="58.57" ry="18"/>
<text text-anchor="middle" x="4657.9" y="-253.46" font-family="Times,serif" font-size="14.00">q13:3334</text>
</g>
<!-- q10:229&#45;&gt;q13:3334 -->
<g id="edge7" class="edge">
<title>q10:229&#45;&gt;q13:3334</title>
<path fill="none" stroke="black" d="M3555.8,-266.54C3563.4,-267.62 3571.2,-268.55 3578.6,-269.13 4022.9,-304.19 4136.8,-301.31 4581.3,-269.13 4585.4,-268.84 4589.6,-268.45 4593.8,-268.01"/>
<polygon fill="black" stroke="black" points="4593.97,-271.51 4603.5,-266.88 4593.16,-264.56 4593.97,-271.51"/>
<text text-anchor="middle" x="3915.3" y="-315.33" font-family="Times,serif" font-size="14.00">DATA/354:68</text>
<text text-anchor="middle" x="3915.3" y="-298.08" font-family="Times,serif" font-size="14.00">b0 = End data with &lt;CR&gt;&lt;LF&gt;.&lt;CR&gt;&lt;LF&gt;</text>
</g>
<!-- q14:165&#45;&gt;q13:3334 -->
<g id="edge10" class="edge">
<title>q14:165&#45;&gt;q13:3334</title>
<path fill="none" stroke="black" d="M3959.5,-185.7C3995.5,-194.08 4048.5,-205.32 4095.3,-211.13 4310,-237.75 4368.4,-197 4581.3,-234.63 4589.8,-236.13 4598.7,-238.3 4607.2,-240.72"/>
<polygon fill="black" stroke="black" points="4606.17,-244.06 4616.75,-243.59 4608.18,-237.36 4606.17,-244.06"/>
<text text-anchor="middle" x="4338.3" y="-255.33" font-family="Times,serif" font-size="14.00">DATA/354:123</text>
<text text-anchor="middle" x="4338.3" y="-238.08" font-family="Times,serif" font-size="14.00">b0 = End data with &lt;CR&gt;&lt;LF&gt;.&lt;CR&gt;&lt;LF&gt;</text>
</g>
<!-- q20:4 -->
<g id="node9" class="node">
<title>q20:4</title>
<ellipse fill="none" stroke="black" stroke-width="2" cx="4657.9" cy="-88.13" rx="39.63" ry="18"/>
<text text-anchor="middle" x="4657.9" y="-83.46" font-family="Times,serif" font-size="14.00">q20:4</text>
</g>
<!-- q14:165&#45;&gt;q20:4 -->
<g id="edge9" class="edge">
<title>q14:165&#45;&gt;q20:4</title>
<path fill="none" stroke="black" d="M3959.1,-164.34C3995.2,-155.61 4048.3,-143.67 4095.3,-136.63 4309.7,-104.56 4365.4,-114.35 4581.3,-95.13 4589.6,-94.4 4598.3,-93.61 4606.7,-92.83"/>
<polygon fill="black" stroke="black" points="4606.95,-96.32 4616.59,-91.92 4606.31,-89.35 4606.95,-96.32"/>
<text text-anchor="middle" x="4338.3" y="-158.33" font-family="Times,serif" font-size="14.00">RCPT/250:4</text>
<text text-anchor="middle" x="4338.3" y="-141.08" font-family="Times,serif" font-size="14.00">b0 = Mail OK</text>
</g>
<!-- q19:38 -->
<g id="node10" class="node">
<title>q19:38</title>
<ellipse fill="none" stroke="black" stroke-width="2" cx="4657.9" cy="-175.13" rx="45.95" ry="18"/>
<text text-anchor="middle" x="4657.9" y="-170.46" font-family="Times,serif" font-size="14.00">q19:38</text>
</g>
<!-- q14:165&#45;&gt;q19:38 -->
<g id="edge11" class="edge">
<title>q14:165&#45;&gt;q19:38</title>
<path fill="none" stroke="black" d="M3968.4,-175.13C4102.8,-175.13 4460.2,-175.13 4599.9,-175.13"/>
<polygon fill="black" stroke="black" points="4599.59,-178.63 4609.59,-175.13 4599.59,-171.63 4599.59,-178.63"/>
<text text-anchor="middle" x="4338.3" y="-196.33" font-family="Times,serif" font-size="14.00">DATA/550:38</text>
<text text-anchor="middle" x="4338.3" y="-179.08" font-family="Times,serif" font-size="14.00">b0 in {&#39;too many message send today.&#39;, &#39;Sender frequency limited.&#39;}</text>
</g>
<!-- q13:3334&#45;&gt;q13:3334 -->
<g id="edge12" class="edge">
<title>q13:3334&#45;&gt;q13:3334</title>
<path fill="none" stroke="black" d="M4625.6,-273.67C4616.5,-284.04 4627.3,-294.13 4657.9,-294.13 4677.1,-294.13 4688.5,-290.19 4692.1,-284.7"/>
<polygon fill="black" stroke="black" points="4695.6,-284.42 4690.46,-275.16 4688.7,-285.61 4695.6,-284.42"/>
<text text-anchor="middle" x="4657.9" y="-315.33" font-family="Times,serif" font-size="14.00">content/λ:3143</text>
<text text-anchor="middle" x="4657.9" y="-298.08" font-family="Times,serif" font-size="14.00">a0 = b0</text>
</g>
<!-- q18:1 -->
<g id="node11" class="node">
<title>q18:1</title>
<ellipse fill="none" stroke="black" stroke-width="2" cx="5029.8" cy="-312.13" rx="39.63" ry="18"/>
<text text-anchor="middle" x="5029.8" y="-307.46" font-family="Times,serif" font-size="14.00">q18:1</text>
</g>
<!-- q13:3334&#45;&gt;q18:1 -->
<g id="edge13" class="edge">
<title>q13:3334&#45;&gt;q18:1</title>
<path fill="none" stroke="black" d="M4701,-271.11C4711.8,-274.09 4723.5,-277.01 4734.5,-279.13 4819.4,-295.59 4919.8,-304.67 4978.7,-308.96"/>
<polygon fill="black" stroke="black" points="4978.17,-312.43 4988.39,-309.65 4978.66,-305.45 4978.17,-312.43"/>
<text text-anchor="middle" x="4847" y="-328.33" font-family="Times,serif" font-size="14.00">content/550:1</text>
<text text-anchor="middle" x="4847" y="-311.08" font-family="Times,serif" font-size="14.00">b0 = Sender frequency limited.</text>
</g>
<!-- q16:125 -->
<g id="node12" class="node">
<title>q16:125</title>
<ellipse fill="none" stroke="black" stroke-width="2" cx="5029.8" cy="-258.13" rx="52.26" ry="18"/>
<text text-anchor="middle" x="5029.8" y="-253.46" font-family="Times,serif" font-size="14.00">q16:125</text>
</g>
<!-- q13:3334&#45;&gt;q16:125 -->
<g id="edge14" class="edge">
<title>q13:3334&#45;&gt;q16:125</title>
<path fill="none" stroke="black" d="M4717.1,-258.13C4784.7,-258.13 4895.6,-258.13 4965.3,-258.13"/>
<polygon fill="black" stroke="black" points="4965.09,-261.63 4975.09,-258.13 4965.09,-254.63 4965.09,-261.63"/>
<text text-anchor="middle" x="4847" y="-262.09" font-family="Times,serif" font-size="14.00">content/250:125</text>
</g>
<!-- q17:65 -->
<g id="node13" class="node">
<title>q17:65</title>
<ellipse fill="none" stroke="black" stroke-width="2" cx="5029.8" cy="-202.13" rx="45.95" ry="18"/>
<text text-anchor="middle" x="5029.8" y="-197.46" font-family="Times,serif" font-size="14.00">q17:65</text>
</g>
<!-- q13:3334&#45;&gt;q17:65 -->
<g id="edge15" class="edge">
<title>q13:3334&#45;&gt;q17:65</title>
<path fill="none" stroke="black" d="M4701,-245.04C4711.8,-242.02 4723.5,-239.06 4734.5,-236.88 4816.3,-220.65 4912.6,-211.04 4972.1,-206.17"/>
<polygon fill="black" stroke="black" points="4972.3,-209.67 4981.99,-205.38 4971.74,-202.69 4972.3,-209.67"/>
<text text-anchor="middle" x="4847" y="-240.09" font-family="Times,serif" font-size="14.00">content/554:65</text>
</g>
<!-- q20:4&#45;&gt;q14:165 -->
<g id="edge8" class="edge">
<title>q20:4&#45;&gt;q14:165</title>
<path fill="none" stroke="black" d="M4628.5,-75.12C4614.6,-69.46 4597.4,-63.47 4581.3,-60.63 4368.6,-23.13 4302.7,0 4095.3,-60.63 4035.8,-78.05 3977.2,-122 3944.1,-150.11"/>
<polygon fill="black" stroke="black" points="3941.85,-147.43 3936.55,-156.6 3946.41,-152.74 3941.85,-147.43"/>
<text text-anchor="middle" x="4338.3" y="-82.33" font-family="Times,serif" font-size="14.00">RCPT/250:4</text>
<text text-anchor="middle" x="4338.3" y="-65.08" font-family="Times,serif" font-size="14.00">b0 = Mail OK</text>
</g>
<!-- q23:1 -->
<g id="node14" class="node">
<title>q23:1</title>
<ellipse fill="none" stroke="black" stroke-width="2" cx="5270.8" cy="-312.13" rx="39.63" ry="18"/>
<text text-anchor="middle" x="5270.8" y="-307.46" font-family="Times,serif" font-size="14.00">q23:1</text>
</g>
<!-- q18:1&#45;&gt;q23:1 -->
<g id="edge16" class="edge">
<title>q18:1&#45;&gt;q23:1</title>
<path fill="none" stroke="black" d="M5070.2,-312.13C5110.9,-312.13 5174.4,-312.13 5218.8,-312.13"/>
<polygon fill="black" stroke="black" points="5218.69,-315.63 5228.69,-312.13 5218.69,-308.63 5218.69,-315.63"/>
<text text-anchor="middle" x="5150.3" y="-333.33" font-family="Times,serif" font-size="14.00">RSET/250:1</text>
<text text-anchor="middle" x="5150.3" y="-316.08" font-family="Times,serif" font-size="14.00">a0 = b0</text>
</g>
<!-- q21:125 -->
<g id="node15" class="node">
<title>q21:125</title>
<ellipse fill="none" stroke="black" stroke-width="2" cx="5270.8" cy="-258.13" rx="52.26" ry="18"/>
<text text-anchor="middle" x="5270.8" y="-253.46" font-family="Times,serif" font-size="14.00">q21:125</text>
</g>
<!-- q16:125&#45;&gt;q21:125 -->
<g id="edge17" class="edge">
<title>q16:125&#45;&gt;q21:125</title>
<path fill="none" stroke="black" d="M5082.9,-258.13C5119.3,-258.13 5168,-258.13 5206.6,-258.13"/>
<polygon fill="black" stroke="black" points="5206.19,-261.63 5216.19,-258.13 5206.19,-254.63 5206.19,-261.63"/>
<text text-anchor="middle" x="5150.3" y="-262.09" font-family="Times,serif" font-size="14.00">QUIT/221:125</text>
</g>
<!-- q22:65 -->
<g id="node16" class="node">
<title>q22:65</title>
<ellipse fill="none" stroke="black" stroke-width="2" cx="5270.8" cy="-200.13" rx="45.95" ry="18"/>
<text text-anchor="middle" x="5270.8" y="-195.46" font-family="Times,serif" font-size="14.00">q22:65</text>
</g>
<!-- q17:65&#45;&gt;q22:65 -->
<g id="edge18" class="edge">
<title>q17:65&#45;&gt;q22:65</title>
<path fill="none" stroke="black" d="M5076.6,-201.75C5115.3,-201.43 5171.1,-200.96 5212.8,-200.61"/>
<polygon fill="black" stroke="black" points="5212.61,-204.11 5222.59,-200.53 5212.56,-197.11 5212.61,-204.11"/>
<text text-anchor="middle" x="5150.3" y="-222.33" font-family="Times,serif" font-size="14.00">RSET/250:65</text>
<text text-anchor="middle" x="5150.3" y="-205.08" font-family="Times,serif" font-size="14.00">b0 = OK</text>
</g>
<!-- q0:244 -->
<g id="node17" class="node">
<title>q0:244</title>
<ellipse fill="none" stroke="black" stroke-width="2" cx="53.95" cy="-233.13" rx="49.95" ry="49.95"/>
<ellipse fill="none" stroke="black" stroke-width="2" cx="53.95" cy="-233.13" rx="53.95" ry="53.95"/>
<text text-anchor="middle" x="53.95" y="-228.46" font-family="Times,serif" font-size="14.00">q0:244</text>
</g>
<!-- q1:244 -->
<g id="node18" class="node">
<title>q1:244</title>
<ellipse fill="none" stroke="black" stroke-width="2" cx="257.84" cy="-233.13" rx="45.95" ry="18"/>
<text text-anchor="middle" x="257.84" y="-228.46" font-family="Times,serif" font-size="14.00">q1:244</text>
</g>
<!-- q0:244&#45;&gt;q1:244 -->
<g id="edge19" class="edge">
<title>q0:244&#45;&gt;q1:244</title>
<path fill="none" stroke="black" d="M104.85,-233.13C133.64,-233.13 169.94,-233.13 199.84,-233.13"/>
<polygon fill="black" stroke="black" points="199.45,-236.63 209.45,-233.13 199.45,-229.63 199.45,-236.63"/>
<text text-anchor="middle" x="157.89" y="-237.09" font-family="Times,serif" font-size="14.00">λ/220:244</text>
</g>
<!-- q1:244&#45;&gt;q2:2 -->
<g id="edge20" class="edge">
<title>q1:244&#45;&gt;q2:2</title>
<path fill="none" stroke="black" d="M286.23,-218.01C297,-212.8 309.66,-207.55 321.79,-204.63 366.87,-193.78 420.13,-192.67 456.8,-193.65"/>
<polygon fill="black" stroke="black" points="456.46,-197.14 466.58,-193.98 456.7,-190.15 456.46,-197.14"/>
<text text-anchor="middle" x="379.91" y="-225.33" font-family="Times,serif" font-size="14.00">EHLO/λ:2</text>
<text text-anchor="middle" x="379.91" y="-208.08" font-family="Times,serif" font-size="14.00">a0 = [127.0.1.1]</text>
</g>
<!-- q3:242 -->
<g id="node19" class="node">
<title>q3:242</title>
<ellipse fill="none" stroke="black" stroke-width="2" cx="501.98" cy="-268.13" rx="45.95" ry="18"/>
<text text-anchor="middle" x="501.98" y="-263.46" font-family="Times,serif" font-size="14.00">q3:242</text>
</g>
<!-- q1:244&#45;&gt;q3:242 -->
<g id="edge21" class="edge">
<title>q1:244&#45;&gt;q3:242</title>
<path fill="none" stroke="black" d="M301.49,-240.02C308.27,-241.08 315.22,-242.15 321.79,-243.13 363.56,-249.36 410.88,-255.95 446.4,-260.79"/>
<polygon fill="black" stroke="black" points="445.62,-264.22 456,-262.1 446.56,-257.28 445.62,-264.22"/>
<text text-anchor="middle" x="379.91" y="-263.09" font-family="Times,serif" font-size="14.00">EHLO/250:242</text>
</g>
<!-- q3:242&#45;&gt;q4:231 -->
<g id="edge22" class="edge">
<title>q3:242&#45;&gt;q4:231</title>
<path fill="none" stroke="black" d="M525.39,-251.79C536.9,-244.37 551.52,-236.36 565.93,-232.38 678.58,-201.29 1501.6,-224.92 1617.4,-209.13 1622.3,-208.46 1627.4,-207.55 1632.5,-206.5"/>
<polygon fill="black" stroke="black" points="1632.95,-209.99 1641.92,-204.36 1631.4,-203.16 1632.95,-209.99"/>
<text text-anchor="middle" x="1091.7" y="-270.59" font-family="Times,serif" font-size="14.00">AUTH/235:229</text>
<text text-anchor="middle" x="1091.7" y="-253.34" font-family="Times,serif" font-size="14.00">a0 in {&#39;PLAIN AEF6NjE2MUBzaW5hLmNvbQA2ZmRiMjVjZmNjODYyZWZj&#39;, &#39;PLAIN AEF6NjE2MUAxMjYuY29tAE1VUVNBT1NUWElURkpDVUU=&#39;}</text>
<text text-anchor="middle" x="1091.7" y="-236.09" font-family="Times,serif" font-size="14.00">b0 in {&#39;Authentication successful&#39;, &#39;OK Authenticated&#39;}</text>
</g>
<!-- q6:1 -->
<g id="node20" class="node">
<title>q6:1</title>
<ellipse fill="none" stroke="black" stroke-width="2" cx="2106.1" cy="-305.13" rx="33.32" ry="18"/>
<text text-anchor="middle" x="2106.1" y="-300.46" font-family="Times,serif" font-size="14.00">q6:1</text>
</g>
<!-- q3:242&#45;&gt;q6:1 -->
<g id="edge23" class="edge">
<title>q3:242&#45;&gt;q6:1</title>
<path fill="none" stroke="black" d="M539.98,-279.08C548.44,-281.15 557.44,-283.01 565.93,-284.13 717.21,-304.11 1823.7,-305.16 2060.5,-305.15"/>
<polygon fill="black" stroke="black" points="2060.29,-308.65 2070.29,-305.15 2060.29,-301.65 2060.29,-308.65"/>
<text text-anchor="middle" x="1091.7" y="-325.33" font-family="Times,serif" font-size="14.00">AUTH/λ:1</text>
<text text-anchor="middle" x="1091.7" y="-308.08" font-family="Times,serif" font-size="14.00">a0 = PLAIN AEF6NjE2MUAxMjYuY29tAE1VUVNBT1NUWElURkpDVUU=</text>
</g>
<!-- q5:12 -->
<g id="node21" class="node">
<title>q5:12</title>
<ellipse fill="none" stroke="black" stroke-width="2" cx="1681.4" cy="-366.13" rx="39.63" ry="18"/>
<text text-anchor="middle" x="1681.4" y="-361.46" font-family="Times,serif" font-size="14.00">q5:12</text>
</g>
<!-- q3:242&#45;&gt;q5:12 -->
<g id="edge24" class="edge">
<title>q3:242&#45;&gt;q5:12</title>
<path fill="none" stroke="black" d="M512.36,-286.57C522.71,-304.7 541.25,-331.31 565.93,-343.13 942.68,-523.54 1476.4,-416.08 1634.5,-377.93"/>
<polygon fill="black" stroke="black" points="1635.34,-381.33 1644.23,-375.56 1633.68,-374.53 1635.34,-381.33"/>
<text text-anchor="middle" x="1091.7" y="-465.33" font-family="Times,serif" font-size="14.00">AUTH/535:12</text>
<text text-anchor="middle" x="1091.7" y="-448.08" font-family="Times,serif" font-size="14.00">b0 in {&#39;5.7.8 authentication failed&#39;, &#39;Error: authentication failed&#39;}</text>
</g>
<!-- q6:1&#45;&gt;q10:229 -->
<g id="edge25" class="edge">
<title>q6:1&#45;&gt;q10:229</title>
<path fill="none" stroke="black" d="M2140.1,-304.71C2339.2,-302.1 3372,-288.16 3438.1,-278.13 3444.9,-277.1 3452,-275.58 3458.9,-273.84"/>
<polygon fill="black" stroke="black" points="3459.4,-277.33 3468.14,-271.35 3457.57,-270.57 3459.4,-277.33"/>
<text text-anchor="middle" x="2605.2" y="-337.59" font-family="Times,serif" font-size="14.00">MAIL/250:1</text>
<text text-anchor="middle" x="2605.2" y="-320.34" font-family="Times,serif" font-size="14.00">a0 = FROM:&lt;Az6161@126.com&gt;</text>
<text text-anchor="middle" x="2605.2" y="-303.09" font-family="Times,serif" font-size="14.00">b0 = Mail OK</text>
</g>
<!-- q9:12 -->
<g id="node22" class="node">
<title>q9:12</title>
<ellipse fill="none" stroke="black" stroke-width="2" cx="2605.2" cy="-380.13" rx="39.63" ry="18"/>
<text text-anchor="middle" x="2605.2" y="-375.46" font-family="Times,serif" font-size="14.00">q9:12</text>
</g>
<!-- q5:12&#45;&gt;q9:12 -->
<g id="edge26" class="edge">
<title>q5:12&#45;&gt;q9:12</title>
<path fill="none" stroke="black" d="M1722,-366.73C1869.7,-368.98 2388.6,-376.86 2553.5,-379.36"/>
<polygon fill="black" stroke="black" points="2553.13,-382.86 2563.19,-379.51 2553.24,-375.86 2553.13,-382.86"/>
<text text-anchor="middle" x="2106.1" y="-398.33" font-family="Times,serif" font-size="14.00">AUTH/334:12</text>
<text text-anchor="middle" x="2106.1" y="-381.08" font-family="Times,serif" font-size="14.00">b0 = UGFzc3dvcmQ6</text>
</g>
<!-- q12:12 -->
<g id="node23" class="node">
<title>q12:12</title>
<ellipse fill="none" stroke="black" stroke-width="2" cx="3508.3" cy="-380.13" rx="45.95" ry="18"/>
<text text-anchor="middle" x="3508.3" y="-375.46" font-family="Times,serif" font-size="14.00">q12:12</text>
</g>
<!-- q9:12&#45;&gt;q12:12 -->
<g id="edge27" class="edge">
<title>q9:12&#45;&gt;q12:12</title>
<path fill="none" stroke="black" d="M2645.8,-380.13C2789.2,-380.13 3281.7,-380.13 3450.2,-380.13"/>
<polygon fill="black" stroke="black" points="3450.09,-383.63 3460.09,-380.13 3450.09,-376.63 3450.09,-383.63"/>
<text text-anchor="middle" x="3090.8" y="-401.33" font-family="Times,serif" font-size="14.00">content/535:12</text>
<text text-anchor="middle" x="3090.8" y="-384.08" font-family="Times,serif" font-size="14.00">b0 in {&#39;5.7.8 authentication failed&#39;, &#39;Error: authentication failed&#39;}</text>
</g>
<!-- q15:4 -->
<g id="node24" class="node">
<title>q15:4</title>
<ellipse fill="none" stroke="black" stroke-width="2" cx="3915.3" cy="-380.13" rx="39.63" ry="18"/>
<text text-anchor="middle" x="3915.3" y="-375.46" font-family="Times,serif" font-size="14.00">q15:4</text>
</g>
<!-- q12:12&#45;&gt;q15:4 -->
<g id="edge28" class="edge">
<title>q12:12&#45;&gt;q15:4</title>
<path fill="none" stroke="black" d="M3555,-380.13C3631.3,-380.13 3784.2,-380.13 3863.7,-380.13"/>
<polygon fill="black" stroke="black" points="3863.39,-383.63 3873.39,-380.13 3863.39,-376.63 3863.39,-383.63"/>
<text text-anchor="middle" x="3657" y="-401.33" font-family="Times,serif" font-size="14.00">λ/451:4</text>
<text text-anchor="middle" x="3657" y="-384.08" font-family="Times,serif" font-size="14.00">b0 = Timeout.</text>
</g>
</g>
</svg>
