<?xml version="1.0" encoding="UTF-8" standalone="no"?>
<!DOCTYPE svg PUBLIC "-//W3C//DTD SVG 1.1//EN"
 "http://www.w3.org/Graphics/SVG/1.1/DTD/svg11.dtd">
<!-- Generated by graphviz version 12.0.0 (20240803.0821)
 -->
<!-- Pages: 1 -->
<svg width="2204pt" height="356pt"
 viewBox="0.00 0.00 2203.85 356.00" xmlns="http://www.w3.org/2000/svg" xmlns:xlink="http://www.w3.org/1999/xlink">
<g id="graph0" class="graph" transform="scale(1 1) rotate(0) translate(4 352)">
<polygon fill="white" stroke="none" points="-4,4 -4,-352 2199.85,-352 2199.85,4 -4,4"/>
<!-- q3:243 -->
<g id="node1" class="node">
<title>q3:243</title>
<ellipse fill="none" stroke="black" stroke-width="2" cx="491.48" cy="-267" rx="45.95" ry="18"/>
<text text-anchor="middle" x="491.48" y="-262.32" font-family="Times,serif" font-size="14.00">q3:243</text>
</g>
<!-- q5:1 -->
<g id="node2" class="node">
<title>q5:1</title>
<ellipse fill="none" stroke="black" stroke-width="2" cx="839.7" cy="-272" rx="33.32" ry="18"/>
<text text-anchor="middle" x="839.7" y="-267.32" font-family="Times,serif" font-size="14.00">q5:1</text>
</g>
<!-- q3:243&#45;&gt;q5:1 -->
<g id="edge1" class="edge">
<title>q3:243&#45;&gt;q5:1</title>
<path fill="none" stroke="black" d="M538.1,-267.66C604.79,-268.62 728.13,-270.4 794.18,-271.36"/>
<polygon fill="black" stroke="black" points="793.88,-274.86 803.93,-271.5 793.98,-267.86 793.88,-274.86"/>
<text text-anchor="middle" x="608.31" y="-272.94" font-family="Times,serif" font-size="14.00">AUTH/λ:1</text>
</g>
<!-- q6:12 -->
<g id="node3" class="node">
<title>q6:12</title>
<ellipse fill="none" stroke="black" stroke-width="2" cx="725.13" cy="-321" rx="39.63" ry="18"/>
<text text-anchor="middle" x="725.13" y="-316.32" font-family="Times,serif" font-size="14.00">q6:12</text>
</g>
<!-- q3:243&#45;&gt;q6:12 -->
<g id="edge2" class="edge">
<title>q3:243&#45;&gt;q6:12</title>
<path fill="none" stroke="black" d="M521.02,-281.62C531.6,-286.52 543.84,-291.6 555.43,-295 594.51,-306.48 640.26,-313.13 674.25,-316.82"/>
<polygon fill="black" stroke="black" points="673.49,-320.26 683.79,-317.81 674.21,-313.3 673.49,-320.26"/>
<text text-anchor="middle" x="608.31" y="-318.94" font-family="Times,serif" font-size="14.00">AUTH/535:12</text>
</g>
<!-- q4:231 -->
<g id="node4" class="node">
<title>q4:231</title>
<ellipse fill="none" stroke="black" stroke-width="2" cx="725.13" cy="-203" rx="45.95" ry="18"/>
<text text-anchor="middle" x="725.13" y="-198.32" font-family="Times,serif" font-size="14.00">q4:231</text>
</g>
<!-- q3:243&#45;&gt;q4:231 -->
<g id="edge3" class="edge">
<title>q3:243&#45;&gt;q4:231</title>
<path fill="none" stroke="black" d="M518.39,-251.6C529.48,-245.57 542.77,-239.08 555.43,-234.75 576.24,-227.63 629.15,-218.16 670.21,-211.42"/>
<polygon fill="black" stroke="black" points="670.63,-214.9 679.95,-209.84 669.51,-207.99 670.63,-214.9"/>
<text text-anchor="middle" x="608.31" y="-237.94" font-family="Times,serif" font-size="14.00">AUTH/235:230</text>
</g>
<!-- q9:232 -->
<g id="node5" class="node">
<title>q9:232</title>
<ellipse fill="none" stroke="black" stroke-width="2" cx="1190.2" cy="-217" rx="45.95" ry="18"/>
<text text-anchor="middle" x="1190.2" y="-212.32" font-family="Times,serif" font-size="14.00">q9:232</text>
</g>
<!-- q5:1&#45;&gt;q9:232 -->
<g id="edge4" class="edge">
<title>q5:1&#45;&gt;q9:232</title>
<path fill="none" stroke="black" d="M873.61,-270.26C927.12,-266.95 1036.1,-258.18 1126.2,-238 1132.3,-236.65 1138.5,-234.94 1144.7,-233.08"/>
<polygon fill="black" stroke="black" points="1145.6,-236.47 1154.06,-230.08 1143.47,-229.8 1145.6,-236.47"/>
<text text-anchor="middle" x="954.27" y="-270.94" font-family="Times,serif" font-size="14.00">MAIL/250:1</text>
</g>
<!-- q10:12 -->
<g id="node6" class="node">
<title>q10:12</title>
<ellipse fill="none" stroke="black" stroke-width="2" cx="954.27" cy="-325" rx="45.95" ry="18"/>
<text text-anchor="middle" x="954.27" y="-320.32" font-family="Times,serif" font-size="14.00">q10:12</text>
</g>
<!-- q6:12&#45;&gt;q10:12 -->
<g id="edge5" class="edge">
<title>q6:12&#45;&gt;q10:12</title>
<path fill="none" stroke="black" d="M765.69,-321.7C801.75,-322.33 855.43,-323.28 896.14,-323.99"/>
<polygon fill="black" stroke="black" points="895.95,-327.49 906.01,-324.16 896.07,-320.49 895.95,-327.49"/>
<text text-anchor="middle" x="839.7" y="-326.94" font-family="Times,serif" font-size="14.00">AUTH/334:12</text>
</g>
<!-- q8:228 -->
<g id="node7" class="node">
<title>q8:228</title>
<ellipse fill="none" stroke="black" stroke-width="2" cx="954.27" cy="-217" rx="45.95" ry="18"/>
<text text-anchor="middle" x="954.27" y="-212.32" font-family="Times,serif" font-size="14.00">q8:228</text>
</g>
<!-- q4:231&#45;&gt;q8:228 -->
<g id="edge6" class="edge">
<title>q4:231&#45;&gt;q8:228</title>
<path fill="none" stroke="black" d="M771.55,-205.8C807.61,-208.02 858.21,-211.14 896.86,-213.52"/>
<polygon fill="black" stroke="black" points="896.22,-216.99 906.42,-214.12 896.66,-210 896.22,-216.99"/>
<text text-anchor="middle" x="839.7" y="-216.94" font-family="Times,serif" font-size="14.00">MAIL/250:228</text>
</g>
<!-- q7:3 -->
<g id="node8" class="node">
<title>q7:3</title>
<ellipse fill="none" stroke="black" stroke-width="2" cx="954.27" cy="-163" rx="33.32" ry="18"/>
<text text-anchor="middle" x="954.27" y="-158.32" font-family="Times,serif" font-size="14.00">q7:3</text>
</g>
<!-- q4:231&#45;&gt;q7:3 -->
<g id="edge7" class="edge">
<title>q4:231&#45;&gt;q7:3</title>
<path fill="none" stroke="black" d="M763.92,-192.53C772.17,-190.45 780.89,-188.39 789.08,-186.75 829.62,-178.61 876.33,-172.13 909.54,-168.01"/>
<polygon fill="black" stroke="black" points="909.68,-171.52 919.19,-166.83 908.84,-164.57 909.68,-171.52"/>
<text text-anchor="middle" x="839.7" y="-190.94" font-family="Times,serif" font-size="14.00">MAIL/553:3</text>
</g>
<!-- q12:89 -->
<g id="node9" class="node">
<title>q12:89</title>
<ellipse fill="none" stroke="black" stroke-width="2" cx="1427.1" cy="-100" rx="45.95" ry="18"/>
<text text-anchor="middle" x="1427.1" y="-95.33" font-family="Times,serif" font-size="14.00">q12:89</text>
</g>
<!-- q9:232&#45;&gt;q12:89 -->
<g id="edge8" class="edge">
<title>q9:232&#45;&gt;q12:89</title>
<path fill="none" stroke="black" d="M1220,-202.65C1261.9,-181.78 1339.8,-142.96 1386.9,-119.51"/>
<polygon fill="black" stroke="black" points="1388.33,-122.71 1395.74,-115.13 1385.23,-116.43 1388.33,-122.71"/>
<text text-anchor="middle" x="1305.5" y="-189.94" font-family="Times,serif" font-size="14.00">DATA/354:89</text>
</g>
<!-- q13:143 -->
<g id="node10" class="node">
<title>q13:143</title>
<ellipse fill="none" stroke="black" stroke-width="2" cx="1427.1" cy="-214" rx="52.26" ry="18"/>
<text text-anchor="middle" x="1427.1" y="-209.32" font-family="Times,serif" font-size="14.00">q13:143</text>
</g>
<!-- q9:232&#45;&gt;q13:143 -->
<g id="edge9" class="edge">
<title>q9:232&#45;&gt;q13:143</title>
<path fill="none" stroke="black" d="M1237,-216.41C1272.9,-215.96 1323.1,-215.31 1362.8,-214.81"/>
<polygon fill="black" stroke="black" points="1362.73,-218.31 1372.69,-214.68 1362.64,-211.31 1362.73,-218.31"/>
<text text-anchor="middle" x="1305.5" y="-220.94" font-family="Times,serif" font-size="14.00">RCPT/250:143</text>
</g>
<!-- q14:12 -->
<g id="node11" class="node">
<title>q14:12</title>
<ellipse fill="none" stroke="black" stroke-width="2" cx="1190.2" cy="-326" rx="45.95" ry="18"/>
<text text-anchor="middle" x="1190.2" y="-321.32" font-family="Times,serif" font-size="14.00">q14:12</text>
</g>
<!-- q10:12&#45;&gt;q14:12 -->
<g id="edge10" class="edge">
<title>q10:12&#45;&gt;q14:12</title>
<path fill="none" stroke="black" d="M1001.2,-325.2C1038.6,-325.36 1091.6,-325.58 1131.8,-325.75"/>
<polygon fill="black" stroke="black" points="1131.77,-329.25 1141.79,-325.79 1131.8,-322.25 1131.77,-329.25"/>
<text text-anchor="middle" x="1072.2" y="-328.94" font-family="Times,serif" font-size="14.00">content/535:12</text>
</g>
<!-- q8:228&#45;&gt;q9:232 -->
<g id="edge11" class="edge">
<title>q8:228&#45;&gt;q9:232</title>
<path fill="none" stroke="black" d="M1001.2,-217C1038.6,-217 1091.6,-217 1131.8,-217"/>
<polygon fill="black" stroke="black" points="1131.79,-220.5 1141.79,-217 1131.79,-213.5 1131.79,-220.5"/>
<text text-anchor="middle" x="1072.2" y="-220.94" font-family="Times,serif" font-size="14.00">RCPT/250:228</text>
</g>
<!-- q11:3 -->
<g id="node12" class="node">
<title>q11:3</title>
<ellipse fill="none" stroke="black" stroke-width="2" cx="1190.2" cy="-163" rx="39.63" ry="18"/>
<text text-anchor="middle" x="1190.2" y="-158.32" font-family="Times,serif" font-size="14.00">q11:3</text>
</g>
<!-- q7:3&#45;&gt;q11:3 -->
<g id="edge12" class="edge">
<title>q7:3&#45;&gt;q11:3</title>
<path fill="none" stroke="black" d="M988.29,-163C1027.3,-163 1092.7,-163 1138.3,-163"/>
<polygon fill="black" stroke="black" points="1138.19,-166.5 1148.19,-163 1138.19,-159.5 1138.19,-166.5"/>
<text text-anchor="middle" x="1072.2" y="-166.94" font-family="Times,serif" font-size="14.00">RSET/250:3</text>
</g>
<!-- q17:2551 -->
<g id="node13" class="node">
<title>q17:2551</title>
<ellipse fill="none" stroke="black" stroke-width="2" cx="1682" cy="-126" rx="58.57" ry="18"/>
<text text-anchor="middle" x="1682" y="-121.33" font-family="Times,serif" font-size="14.00">q17:2551</text>
</g>
<!-- q12:89&#45;&gt;q17:2551 -->
<g id="edge13" class="edge">
<title>q12:89&#45;&gt;q17:2551</title>
<path fill="none" stroke="black" d="M1472.5,-104.56C1511.5,-108.58 1569.1,-114.49 1613.8,-119.09"/>
<polygon fill="black" stroke="black" points="1613.39,-122.57 1623.69,-120.11 1614.1,-115.6 1613.39,-122.57"/>
<text text-anchor="middle" x="1551.4" y="-121.95" font-family="Times,serif" font-size="14.00">content/λ:2</text>
</g>
<!-- q16:66 -->
<g id="node14" class="node">
<title>q16:66</title>
<ellipse fill="none" stroke="black" stroke-width="2" cx="1682" cy="-72" rx="45.95" ry="18"/>
<text text-anchor="middle" x="1682" y="-67.33" font-family="Times,serif" font-size="14.00">q16:66</text>
</g>
<!-- q12:89&#45;&gt;q16:66 -->
<g id="edge14" class="edge">
<title>q12:89&#45;&gt;q16:66</title>
<path fill="none" stroke="black" d="M1468.7,-91.48C1478.1,-89.72 1488,-88.02 1497.4,-86.75 1539.7,-81.02 1587.8,-77.25 1624.2,-74.96"/>
<polygon fill="black" stroke="black" points="1624.22,-78.47 1633.99,-74.36 1623.79,-71.48 1624.22,-78.47"/>
<text text-anchor="middle" x="1551.4" y="-90.95" font-family="Times,serif" font-size="14.00">content/554:66</text>
</g>
<!-- q15:21 -->
<g id="node15" class="node">
<title>q15:21</title>
<ellipse fill="none" stroke="black" stroke-width="2" cx="1682" cy="-18" rx="45.95" ry="18"/>
<text text-anchor="middle" x="1682" y="-13.32" font-family="Times,serif" font-size="14.00">q15:21</text>
</g>
<!-- q12:89&#45;&gt;q15:21 -->
<g id="edge15" class="edge">
<title>q12:89&#45;&gt;q15:21</title>
<path fill="none" stroke="black" d="M1449.5,-83.47C1462.6,-74.03 1480.2,-62.73 1497.4,-55.75 1538.6,-39 1588.2,-29.37 1625.5,-24.04"/>
<polygon fill="black" stroke="black" points="1625.67,-27.55 1635.1,-22.72 1624.72,-20.61 1625.67,-27.55"/>
<text text-anchor="middle" x="1551.4" y="-59.95" font-family="Times,serif" font-size="14.00">content/250:21</text>
</g>
<!-- q13:143&#45;&gt;q17:2551 -->
<g id="edge16" class="edge">
<title>q13:143&#45;&gt;q17:2551</title>
<path fill="none" stroke="black" d="M1459.2,-199.01C1471,-193.56 1484.7,-187.56 1497.4,-182.75 1539.7,-166.75 1588.6,-151.79 1625.3,-141.25"/>
<polygon fill="black" stroke="black" points="1626.18,-144.64 1634.84,-138.54 1624.27,-137.9 1626.18,-144.64"/>
<text text-anchor="middle" x="1551.4" y="-186.94" font-family="Times,serif" font-size="14.00">DATA/354:97</text>
</g>
<!-- q18:43 -->
<g id="node16" class="node">
<title>q18:43</title>
<ellipse fill="none" stroke="black" stroke-width="2" cx="1682" cy="-215" rx="45.95" ry="18"/>
<text text-anchor="middle" x="1682" y="-210.32" font-family="Times,serif" font-size="14.00">q18:43</text>
</g>
<!-- q13:143&#45;&gt;q18:43 -->
<g id="edge17" class="edge">
<title>q13:143&#45;&gt;q18:43</title>
<path fill="none" stroke="black" d="M1476.9,-207.46C1483.7,-206.75 1490.7,-206.14 1497.4,-205.75 1545.3,-202.91 1557.5,-202.83 1605.4,-205.75 1612.2,-206.17 1619.4,-206.8 1626.5,-207.53"/>
<polygon fill="black" stroke="black" points="1626.07,-211 1636.4,-208.64 1626.85,-204.05 1626.07,-211"/>
<text text-anchor="middle" x="1551.4" y="-209.94" font-family="Times,serif" font-size="14.00">DATA/550:43</text>
</g>
<!-- q19:3 -->
<g id="node17" class="node">
<title>q19:3</title>
<ellipse fill="none" stroke="black" stroke-width="2" cx="1682" cy="-273" rx="39.63" ry="18"/>
<text text-anchor="middle" x="1682" y="-268.32" font-family="Times,serif" font-size="14.00">q19:3</text>
</g>
<!-- q13:143&#45;&gt;q19:3 -->
<g id="edge18" class="edge">
<title>q13:143&#45;&gt;q19:3</title>
<path fill="none" stroke="black" d="M1477.1,-220.51C1513,-225.81 1562.7,-234.31 1605.4,-245.75 1616.8,-248.81 1628.9,-252.83 1640.1,-256.84"/>
<polygon fill="black" stroke="black" points="1638.79,-260.09 1649.38,-260.28 1641.22,-253.52 1638.79,-260.09"/>
<text text-anchor="middle" x="1551.4" y="-248.94" font-family="Times,serif" font-size="14.00">RCPT/250:3</text>
</g>
<!-- q20:4 -->
<g id="node29" class="node">
<title>q20:4</title>
<ellipse fill="none" stroke="black" stroke-width="2" cx="1427.1" cy="-330" rx="39.63" ry="18"/>
<text text-anchor="middle" x="1427.1" y="-325.32" font-family="Times,serif" font-size="14.00">q20:4</text>
</g>
<!-- q14:12&#45;&gt;q20:4 -->
<g id="edge32" class="edge">
<title>q14:12&#45;&gt;q20:4</title>
<path fill="none" stroke="black" d="M1237,-326.78C1276.7,-327.46 1334.1,-328.43 1375.2,-329.13"/>
<polygon fill="black" stroke="black" points="1375.03,-332.63 1385.09,-329.3 1375.15,-325.63 1375.03,-332.63"/>
<text text-anchor="middle" x="1305.5" y="-331.94" font-family="Times,serif" font-size="14.00">λ/451:4</text>
</g>
<!-- q17:2551&#45;&gt;q17:2551 -->
<g id="edge23" class="edge">
<title>q17:2551&#45;&gt;q17:2551</title>
<path fill="none" stroke="black" d="M1658.6,-143.41C1654.3,-153.09 1662.1,-162 1682,-162 1693.5,-162 1700.9,-159.02 1704.3,-154.64"/>
<polygon fill="black" stroke="black" points="1707.76,-155.19 1705.17,-144.92 1700.79,-154.57 1707.76,-155.19"/>
<text text-anchor="middle" x="1682" y="-165.94" font-family="Times,serif" font-size="14.00">content/λ:2452</text>
</g>
<!-- q25:92 -->
<g id="node21" class="node">
<title>q25:92</title>
<ellipse fill="none" stroke="black" stroke-width="2" cx="1930.5" cy="-126" rx="45.95" ry="18"/>
<text text-anchor="middle" x="1930.5" y="-121.33" font-family="Times,serif" font-size="14.00">q25:92</text>
</g>
<!-- q17:2551&#45;&gt;q25:92 -->
<g id="edge24" class="edge">
<title>q17:2551&#45;&gt;q25:92</title>
<path fill="none" stroke="black" d="M1741.4,-126C1780.9,-126 1833,-126 1872.3,-126"/>
<polygon fill="black" stroke="black" points="1872.29,-129.5 1882.29,-126 1872.29,-122.5 1872.29,-129.5"/>
<text text-anchor="middle" x="1812.5" y="-129.94" font-family="Times,serif" font-size="14.00">content/250:92</text>
</g>
<!-- q24:1 -->
<g id="node22" class="node">
<title>q24:1</title>
<ellipse fill="none" stroke="black" stroke-width="2" cx="1930.5" cy="-234" rx="39.63" ry="18"/>
<text text-anchor="middle" x="1930.5" y="-229.32" font-family="Times,serif" font-size="14.00">q24:1</text>
</g>
<!-- q17:2551&#45;&gt;q24:1 -->
<g id="edge25" class="edge">
<title>q17:2551&#45;&gt;q24:1</title>
<path fill="none" stroke="black" d="M1699.6,-144.03C1713.9,-158.48 1735.8,-178.23 1758.5,-190 1797,-209.88 1845,-221.22 1880.4,-227.39"/>
<polygon fill="black" stroke="black" points="1879.47,-230.78 1889.91,-228.96 1880.61,-223.88 1879.47,-230.78"/>
<text text-anchor="middle" x="1812.5" y="-228.94" font-family="Times,serif" font-size="14.00">content/550:1</text>
</g>
<!-- q23:6 -->
<g id="node23" class="node">
<title>q23:6</title>
<ellipse fill="none" stroke="black" stroke-width="2" cx="1930.5" cy="-180" rx="39.63" ry="18"/>
<text text-anchor="middle" x="1930.5" y="-175.32" font-family="Times,serif" font-size="14.00">q23:6</text>
</g>
<!-- q17:2551&#45;&gt;q23:6 -->
<g id="edge26" class="edge">
<title>q17:2551&#45;&gt;q23:6</title>
<path fill="none" stroke="black" d="M1726,-138.59C1736.6,-141.52 1747.9,-144.51 1758.5,-147 1799.6,-156.66 1846.8,-165.61 1881.1,-171.74"/>
<polygon fill="black" stroke="black" points="1880.35,-175.16 1890.81,-173.45 1881.57,-168.27 1880.35,-175.16"/>
<text text-anchor="middle" x="1812.5" y="-172.94" font-family="Times,serif" font-size="14.00">content/554:6</text>
</g>
<!-- q22:66 -->
<g id="node24" class="node">
<title>q22:66</title>
<ellipse fill="none" stroke="black" stroke-width="2" cx="1930.5" cy="-72" rx="45.95" ry="18"/>
<text text-anchor="middle" x="1930.5" y="-67.33" font-family="Times,serif" font-size="14.00">q22:66</text>
</g>
<!-- q16:66&#45;&gt;q22:66 -->
<g id="edge27" class="edge">
<title>q16:66&#45;&gt;q22:66</title>
<path fill="none" stroke="black" d="M1728.7,-72C1769.4,-72 1828.9,-72 1872.6,-72"/>
<polygon fill="black" stroke="black" points="1872.39,-75.5 1882.39,-72 1872.39,-68.5 1872.39,-75.5"/>
<text text-anchor="middle" x="1812.5" y="-75.95" font-family="Times,serif" font-size="14.00">RSET/250:66</text>
</g>
<!-- q21:21 -->
<g id="node25" class="node">
<title>q21:21</title>
<ellipse fill="none" stroke="black" stroke-width="2" cx="1930.5" cy="-18" rx="45.95" ry="18"/>
<text text-anchor="middle" x="1930.5" y="-13.32" font-family="Times,serif" font-size="14.00">q21:21</text>
</g>
<!-- q15:21&#45;&gt;q21:21 -->
<g id="edge28" class="edge">
<title>q15:21&#45;&gt;q21:21</title>
<path fill="none" stroke="black" d="M1728.7,-18C1769.4,-18 1828.9,-18 1872.6,-18"/>
<polygon fill="black" stroke="black" points="1872.39,-21.5 1882.39,-18 1872.39,-14.5 1872.39,-21.5"/>
<text text-anchor="middle" x="1812.5" y="-21.95" font-family="Times,serif" font-size="14.00">QUIT/221:21</text>
</g>
<!-- q19:3&#45;&gt;q9:232 -->
<g id="edge33" class="edge">
<title>q19:3&#45;&gt;q9:232</title>
<path fill="none" stroke="black" d="M1641.6,-273.18C1565.8,-272.77 1394.4,-268.22 1254.1,-238 1248.1,-236.7 1241.8,-235.01 1235.6,-233.17"/>
<polygon fill="black" stroke="black" points="1236.83,-229.89 1226.24,-230.18 1234.7,-236.56 1236.83,-229.89"/>
<text text-anchor="middle" x="1427.1" y="-270.94" font-family="Times,serif" font-size="14.00">RCPT/250:3</text>
</g>
<!-- q0:244 -->
<g id="node18" class="node">
<title>q0:244</title>
<ellipse fill="none" stroke="black" stroke-width="2" cx="53.95" cy="-234" rx="49.95" ry="49.95"/>
<ellipse fill="none" stroke="black" stroke-width="2" cx="53.95" cy="-234" rx="53.95" ry="53.95"/>
<text text-anchor="middle" x="53.95" y="-229.32" font-family="Times,serif" font-size="14.00">q0:244</text>
</g>
<!-- q1:244 -->
<g id="node19" class="node">
<title>q1:244</title>
<ellipse fill="none" stroke="black" stroke-width="2" cx="257.84" cy="-234" rx="45.95" ry="18"/>
<text text-anchor="middle" x="257.84" y="-229.32" font-family="Times,serif" font-size="14.00">q1:244</text>
</g>
<!-- q0:244&#45;&gt;q1:244 -->
<g id="edge19" class="edge">
<title>q0:244&#45;&gt;q1:244</title>
<path fill="none" stroke="black" d="M104.85,-234C133.64,-234 169.94,-234 199.84,-234"/>
<polygon fill="black" stroke="black" points="199.45,-237.5 209.45,-234 199.45,-230.5 199.45,-237.5"/>
<text text-anchor="middle" x="157.89" y="-237.94" font-family="Times,serif" font-size="14.00">λ/220:244</text>
</g>
<!-- q1:244&#45;&gt;q3:243 -->
<g id="edge20" class="edge">
<title>q1:244&#45;&gt;q3:243</title>
<path fill="none" stroke="black" d="M302.14,-240.17C340,-245.56 395.17,-253.42 436.02,-259.24"/>
<polygon fill="black" stroke="black" points="435.51,-262.7 445.9,-260.65 436.49,-255.77 435.51,-262.7"/>
<text text-anchor="middle" x="374.66" y="-260.94" font-family="Times,serif" font-size="14.00">EHLO/250:243</text>
</g>
<!-- q2:1 -->
<g id="node20" class="node">
<title>q2:1</title>
<ellipse fill="none" stroke="black" stroke-width="2" cx="491.48" cy="-207" rx="33.32" ry="18"/>
<text text-anchor="middle" x="491.48" y="-202.32" font-family="Times,serif" font-size="14.00">q2:1</text>
</g>
<!-- q1:244&#45;&gt;q2:1 -->
<g id="edge21" class="edge">
<title>q1:244&#45;&gt;q2:1</title>
<path fill="none" stroke="black" d="M296.21,-223.12C304.56,-221.03 313.43,-219.08 321.79,-217.75 363.53,-211.09 411.69,-208.52 445.85,-207.55"/>
<polygon fill="black" stroke="black" points="445.88,-211.05 455.8,-207.31 445.71,-204.05 445.88,-211.05"/>
<text text-anchor="middle" x="374.66" y="-221.94" font-family="Times,serif" font-size="14.00">EHLO/λ:1</text>
</g>
<!-- q2:1&#45;&gt;q4:231 -->
<g id="edge22" class="edge">
<title>q2:1&#45;&gt;q4:231</title>
<path fill="none" stroke="black" d="M523.05,-199.83C533.28,-197.75 544.79,-195.78 555.43,-194.75 602.21,-190.24 614.28,-191.69 661.18,-194.75 664.02,-194.94 666.93,-195.17 669.86,-195.43"/>
<polygon fill="black" stroke="black" points="669.39,-198.9 679.69,-196.45 670.11,-191.94 669.39,-198.9"/>
<text text-anchor="middle" x="608.31" y="-198.94" font-family="Times,serif" font-size="14.00">AUTH/235:1</text>
</g>
<!-- q28:92 -->
<g id="node26" class="node">
<title>q28:92</title>
<ellipse fill="none" stroke="black" stroke-width="2" cx="2149.9" cy="-126" rx="45.95" ry="18"/>
<text text-anchor="middle" x="2149.9" y="-121.33" font-family="Times,serif" font-size="14.00">q28:92</text>
</g>
<!-- q25:92&#45;&gt;q28:92 -->
<g id="edge29" class="edge">
<title>q25:92&#45;&gt;q28:92</title>
<path fill="none" stroke="black" d="M1977.3,-126C2010.7,-126 2056.1,-126 2091.9,-126"/>
<polygon fill="black" stroke="black" points="2091.59,-129.5 2101.59,-126 2091.59,-122.5 2091.59,-129.5"/>
<text text-anchor="middle" x="2040.2" y="-129.94" font-family="Times,serif" font-size="14.00">QUIT/221:92</text>
</g>
<!-- q27:1 -->
<g id="node27" class="node">
<title>q27:1</title>
<ellipse fill="none" stroke="black" stroke-width="2" cx="2149.9" cy="-234" rx="39.63" ry="18"/>
<text text-anchor="middle" x="2149.9" y="-229.32" font-family="Times,serif" font-size="14.00">q27:1</text>
</g>
<!-- q24:1&#45;&gt;q27:1 -->
<g id="edge30" class="edge">
<title>q24:1&#45;&gt;q27:1</title>
<path fill="none" stroke="black" d="M1971.1,-234C2006.9,-234 2059.7,-234 2098.5,-234"/>
<polygon fill="black" stroke="black" points="2097.99,-237.5 2107.99,-234 2097.99,-230.5 2097.99,-237.5"/>
<text text-anchor="middle" x="2040.2" y="-237.94" font-family="Times,serif" font-size="14.00">RSET/250:1</text>
</g>
<!-- q26:6 -->
<g id="node28" class="node">
<title>q26:6</title>
<ellipse fill="none" stroke="black" stroke-width="2" cx="2149.9" cy="-180" rx="39.63" ry="18"/>
<text text-anchor="middle" x="2149.9" y="-175.32" font-family="Times,serif" font-size="14.00">q26:6</text>
</g>
<!-- q23:6&#45;&gt;q26:6 -->
<g id="edge31" class="edge">
<title>q23:6&#45;&gt;q26:6</title>
<path fill="none" stroke="black" d="M1971.1,-180C2006.9,-180 2059.7,-180 2098.5,-180"/>
<polygon fill="black" stroke="black" points="2097.99,-183.5 2107.99,-180 2097.99,-176.5 2097.99,-183.5"/>
<text text-anchor="middle" x="2040.2" y="-183.94" font-family="Times,serif" font-size="14.00">RSET/250:6</text>
</g>
</g>
</svg>
