<?xml version="1.0" encoding="UTF-8" standalone="no"?>
<!DOCTYPE svg PUBLIC "-//W3C//DTD SVG 1.1//EN"
 "http://www.w3.org/Graphics/SVG/1.1/DTD/svg11.dtd">
<!-- Generated by graphviz version 12.0.0 (20240803.0821)
 -->
<!-- Pages: 1 -->
<svg width="2253pt" height="219pt"
 viewBox="0.00 0.00 2252.96 219.00" xmlns="http://www.w3.org/2000/svg" xmlns:xlink="http://www.w3.org/1999/xlink">
<g id="graph0" class="graph" transform="scale(1 1) rotate(0) translate(4 215)">
<polygon fill="white" stroke="none" points="-4,4 -4,-215 2248.96,-215 2248.96,4 -4,4"/>
<!-- q8:230 -->
<g id="node1" class="node">
<title>q8:230</title>
<ellipse fill="none" stroke="black" stroke-width="2" cx="954.27" cy="-86" rx="45.95" ry="18"/>
<text text-anchor="middle" x="954.27" y="-81.33" font-family="Times,serif" font-size="14.00">q8:230</text>
</g>
<!-- q10:235 -->
<g id="node2" class="node">
<title>q10:235</title>
<ellipse fill="none" stroke="black" stroke-width="2" cx="1196.5" cy="-105" rx="52.26" ry="18"/>
<text text-anchor="middle" x="1196.5" y="-100.33" font-family="Times,serif" font-size="14.00">q10:235</text>
</g>
<!-- q8:230&#45;&gt;q10:235 -->
<g id="edge1" class="edge">
<title>q8:230&#45;&gt;q10:235</title>
<path fill="none" stroke="black" d="M1000.17,-89.55C1037.7,-92.52 1091.5,-96.78 1133.2,-100.07"/>
<polygon fill="black" stroke="black" points="1132.85,-103.55 1143.09,-100.85 1133.4,-96.57 1132.85,-103.55"/>
<text text-anchor="middle" x="1072.2" y="-103.95" font-family="Times,serif" font-size="14.00">RCPT/250:230</text>
</g>
<!-- q14:167 -->
<g id="node3" class="node">
<title>q14:167</title>
<ellipse fill="none" stroke="black" stroke-width="2" cx="1439.8" cy="-128" rx="52.26" ry="18"/>
<text text-anchor="middle" x="1439.8" y="-123.33" font-family="Times,serif" font-size="14.00">q14:167</text>
</g>
<!-- q10:235&#45;&gt;q14:167 -->
<g id="edge2" class="edge">
<title>q10:235&#45;&gt;q14:167</title>
<path fill="none" stroke="black" d="M1237.5,-117.02C1247,-119.43 1257.1,-121.63 1266.7,-123 1302.6,-128.11 1343.1,-129.5 1375.7,-129.55"/>
<polygon fill="black" stroke="black" points="1375.4,-133.05 1385.39,-129.52 1375.38,-126.05 1375.4,-133.05"/>
<text text-anchor="middle" x="1318.1" y="-132.94" font-family="Times,serif" font-size="14.00">RCPT/250:167</text>
</g>
<!-- q13:3331 -->
<g id="node4" class="node">
<title>q13:3331</title>
<ellipse fill="none" stroke="black" stroke-width="2" cx="1687.8" cy="-72" rx="58.57" ry="18"/>
<text text-anchor="middle" x="1687.8" y="-67.33" font-family="Times,serif" font-size="14.00">q13:3331</text>
</g>
<!-- q10:235&#45;&gt;q13:3331 -->
<g id="edge3" class="edge">
<title>q10:235&#45;&gt;q13:3331</title>
<path fill="none" stroke="black" d="M1243.6,-96.38C1251.3,-95.12 1259.2,-93.94 1266.7,-93 1389.4,-77.71 1533.5,-73.46 1617.1,-72.33"/>
<polygon fill="black" stroke="black" points="1617.03,-75.83 1626.99,-72.21 1616.94,-68.83 1617.03,-75.83"/>
<text text-anchor="middle" x="1439.8" y="-85.95" font-family="Times,serif" font-size="14.00">DATA/354:68</text>
</g>
<!-- q14:167&#45;&gt;q10:235 -->
<g id="edge4" class="edge">
<title>q14:167&#45;&gt;q10:235</title>
<path fill="none" stroke="black" d="M1407,-113.22C1395.5,-108.58 1382.1,-104.07 1369.5,-101.75 1333,-95.06 1291.3,-95.64 1258.2,-98"/>
<polygon fill="black" stroke="black" points="1258,-94.5 1248.31,-98.78 1258.55,-101.48 1258,-94.5"/>
<text text-anchor="middle" x="1318.1" y="-105.95" font-family="Times,serif" font-size="14.00">RCPT/250:4</text>
</g>
<!-- q14:167&#45;&gt;q13:3331 -->
<g id="edge5" class="edge">
<title>q14:167&#45;&gt;q13:3331</title>
<path fill="none" stroke="black" d="M1484.7,-117.99C1524.7,-108.9 1583.9,-95.43 1627.9,-85.41"/>
<polygon fill="black" stroke="black" points="1628.55,-88.85 1637.52,-83.22 1627,-82.03 1628.55,-88.85"/>
<text text-anchor="middle" x="1560.6" y="-114.95" font-family="Times,serif" font-size="14.00">DATA/354:120</text>
</g>
<!-- q19:43 -->
<g id="node5" class="node">
<title>q19:43</title>
<ellipse fill="none" stroke="black" stroke-width="2" cx="1687.8" cy="-161" rx="45.95" ry="18"/>
<text text-anchor="middle" x="1687.8" y="-156.32" font-family="Times,serif" font-size="14.00">q19:43</text>
</g>
<!-- q14:167&#45;&gt;q19:43 -->
<g id="edge6" class="edge">
<title>q14:167&#45;&gt;q19:43</title>
<path fill="none" stroke="black" d="M1489.7,-134.56C1530.7,-140.07 1589.4,-147.94 1632.1,-153.66"/>
<polygon fill="black" stroke="black" points="1631.52,-157.11 1641.9,-154.97 1632.45,-150.18 1631.52,-157.11"/>
<text text-anchor="middle" x="1560.6" y="-153.94" font-family="Times,serif" font-size="14.00">DATA/550:43</text>
</g>
<!-- q13:3331&#45;&gt;q13:3331 -->
<g id="edge7" class="edge">
<title>q13:3331&#45;&gt;q13:3331</title>
<path fill="none" stroke="black" d="M1665.1,-89.41C1660.9,-99.09 1668.5,-108 1687.8,-108 1699,-108 1706.3,-105.02 1709.6,-100.64"/>
<polygon fill="black" stroke="black" points="1713.07,-101.17 1710.38,-90.92 1706.09,-100.61 1713.07,-101.17"/>
<text text-anchor="middle" x="1687.8" y="-111.95" font-family="Times,serif" font-size="14.00">content/λ:3143</text>
</g>
<!-- q17:127 -->
<g id="node6" class="node">
<title>q17:127</title>
<ellipse fill="none" stroke="black" stroke-width="2" cx="1951.7" cy="-126" rx="52.26" ry="18"/>
<text text-anchor="middle" x="1951.7" y="-121.33" font-family="Times,serif" font-size="14.00">q17:127</text>
</g>
<!-- q13:3331&#45;&gt;q17:127 -->
<g id="edge8" class="edge">
<title>q13:3331&#45;&gt;q17:127</title>
<path fill="none" stroke="black" d="M1731.8,-84.71C1742.4,-87.63 1753.8,-90.59 1764.4,-93 1806.6,-102.58 1854.8,-111.05 1891.5,-117.01"/>
<polygon fill="black" stroke="black" points="1890.68,-120.42 1901.1,-118.53 1891.78,-113.51 1890.68,-120.42"/>
<text text-anchor="middle" x="1822.9" y="-118.95" font-family="Times,serif" font-size="14.00">content/250:127</text>
</g>
<!-- q16:1 -->
<g id="node7" class="node">
<title>q16:1</title>
<ellipse fill="none" stroke="black" stroke-width="2" cx="1951.7" cy="-72" rx="39.63" ry="18"/>
<text text-anchor="middle" x="1951.7" y="-67.33" font-family="Times,serif" font-size="14.00">q16:1</text>
</g>
<!-- q13:3331&#45;&gt;q16:1 -->
<g id="edge9" class="edge">
<title>q13:3331&#45;&gt;q16:1</title>
<path fill="none" stroke="black" d="M1747.3,-72C1793,-72 1855.9,-72 1899.6,-72"/>
<polygon fill="black" stroke="black" points="1899.59,-75.5 1909.59,-72 1899.59,-68.5 1899.59,-75.5"/>
<text text-anchor="middle" x="1822.9" y="-75.95" font-family="Times,serif" font-size="14.00">content/550:1</text>
</g>
<!-- q18:60 -->
<g id="node8" class="node">
<title>q18:60</title>
<ellipse fill="none" stroke="black" stroke-width="2" cx="1951.7" cy="-18" rx="45.95" ry="18"/>
<text text-anchor="middle" x="1951.7" y="-13.32" font-family="Times,serif" font-size="14.00">q18:60</text>
</g>
<!-- q13:3331&#45;&gt;q18:60 -->
<g id="edge10" class="edge">
<title>q13:3331&#45;&gt;q18:60</title>
<path fill="none" stroke="black" d="M1731.4,-59.23C1742.1,-56.23 1753.6,-53.2 1764.4,-50.75 1808.5,-40.7 1859.1,-31.98 1896.4,-26.07"/>
<polygon fill="black" stroke="black" points="1896.67,-29.58 1906,-24.57 1895.58,-22.66 1896.67,-29.58"/>
<text text-anchor="middle" x="1822.9" y="-54.95" font-family="Times,serif" font-size="14.00">content/554:60</text>
</g>
<!-- q21:127 -->
<g id="node9" class="node">
<title>q21:127</title>
<ellipse fill="none" stroke="black" stroke-width="2" cx="2192.7" cy="-126" rx="52.26" ry="18"/>
<text text-anchor="middle" x="2192.7" y="-121.33" font-family="Times,serif" font-size="14.00">q21:127</text>
</g>
<!-- q17:127&#45;&gt;q21:127 -->
<g id="edge11" class="edge">
<title>q17:127&#45;&gt;q21:127</title>
<path fill="none" stroke="black" d="M2004.8,-126C2041.2,-126 2090,-126 2128.5,-126"/>
<polygon fill="black" stroke="black" points="2128.09,-129.5 2138.09,-126 2128.09,-122.5 2128.09,-129.5"/>
<text text-anchor="middle" x="2072.2" y="-129.94" font-family="Times,serif" font-size="14.00">QUIT/221:127</text>
</g>
<!-- q20:1 -->
<g id="node10" class="node">
<title>q20:1</title>
<ellipse fill="none" stroke="black" stroke-width="2" cx="2192.7" cy="-72" rx="39.63" ry="18"/>
<text text-anchor="middle" x="2192.7" y="-67.33" font-family="Times,serif" font-size="14.00">q20:1</text>
</g>
<!-- q16:1&#45;&gt;q20:1 -->
<g id="edge12" class="edge">
<title>q16:1&#45;&gt;q20:1</title>
<path fill="none" stroke="black" d="M1992.1,-72C2032.8,-72 2096.3,-72 2140.7,-72"/>
<polygon fill="black" stroke="black" points="2140.69,-75.5 2150.69,-72 2140.69,-68.5 2140.69,-75.5"/>
<text text-anchor="middle" x="2072.2" y="-75.95" font-family="Times,serif" font-size="14.00">RSET/250:1</text>
</g>
<!-- q22:60 -->
<g id="node11" class="node">
<title>q22:60</title>
<ellipse fill="none" stroke="black" stroke-width="2" cx="2192.7" cy="-18" rx="45.95" ry="18"/>
<text text-anchor="middle" x="2192.7" y="-13.32" font-family="Times,serif" font-size="14.00">q22:60</text>
</g>
<!-- q18:60&#45;&gt;q22:60 -->
<g id="edge13" class="edge">
<title>q18:60&#45;&gt;q22:60</title>
<path fill="none" stroke="black" d="M1998.5,-18C2037.3,-18 2093,-18 2134.7,-18"/>
<polygon fill="black" stroke="black" points="2134.49,-21.5 2144.49,-18 2134.49,-14.5 2134.49,-21.5"/>
<text text-anchor="middle" x="2072.2" y="-21.95" font-family="Times,serif" font-size="14.00">RSET/250:60</text>
</g>
<!-- q0:244 -->
<g id="node12" class="node">
<title>q0:244</title>
<ellipse fill="none" stroke="black" stroke-width="2" cx="53.95" cy="-105" rx="49.95" ry="49.95"/>
<ellipse fill="none" stroke="black" stroke-width="2" cx="53.95" cy="-105" rx="53.95" ry="53.95"/>
<text text-anchor="middle" x="53.95" y="-100.33" font-family="Times,serif" font-size="14.00">q0:244</text>
</g>
<!-- q1:244 -->
<g id="node13" class="node">
<title>q1:244</title>
<ellipse fill="none" stroke="black" stroke-width="2" cx="257.84" cy="-105" rx="45.95" ry="18"/>
<text text-anchor="middle" x="257.84" y="-100.33" font-family="Times,serif" font-size="14.00">q1:244</text>
</g>
<!-- q0:244&#45;&gt;q1:244 -->
<g id="edge14" class="edge">
<title>q0:244&#45;&gt;q1:244</title>
<path fill="none" stroke="black" d="M104.85,-105C133.64,-105 169.94,-105 199.84,-105"/>
<polygon fill="black" stroke="black" points="199.45,-108.5 209.45,-105 199.45,-101.5 199.45,-108.5"/>
<text text-anchor="middle" x="157.89" y="-108.95" font-family="Times,serif" font-size="14.00">λ/220:244</text>
</g>
<!-- q3:242 -->
<g id="node14" class="node">
<title>q3:242</title>
<ellipse fill="none" stroke="black" stroke-width="2" cx="491.48" cy="-138" rx="45.95" ry="18"/>
<text text-anchor="middle" x="491.48" y="-133.32" font-family="Times,serif" font-size="14.00">q3:242</text>
</g>
<!-- q1:244&#45;&gt;q3:242 -->
<g id="edge15" class="edge">
<title>q1:244&#45;&gt;q3:242</title>
<path fill="none" stroke="black" d="M302.14,-111.17C340,-116.56 395.17,-124.42 436.02,-130.24"/>
<polygon fill="black" stroke="black" points="435.51,-133.7 445.9,-131.65 436.49,-126.77 435.51,-133.7"/>
<text text-anchor="middle" x="374.66" y="-131.94" font-family="Times,serif" font-size="14.00">EHLO/250:242</text>
</g>
<!-- q2:2 -->
<g id="node15" class="node">
<title>q2:2</title>
<ellipse fill="none" stroke="black" stroke-width="2" cx="491.48" cy="-78" rx="33.32" ry="18"/>
<text text-anchor="middle" x="491.48" y="-73.33" font-family="Times,serif" font-size="14.00">q2:2</text>
</g>
<!-- q1:244&#45;&gt;q2:2 -->
<g id="edge16" class="edge">
<title>q1:244&#45;&gt;q2:2</title>
<path fill="none" stroke="black" d="M298.66,-95.83C306.31,-94.29 314.27,-92.84 321.79,-91.75 363.67,-85.66 411.82,-82.07 445.93,-80.1"/>
<polygon fill="black" stroke="black" points="446.07,-83.59 455.86,-79.55 445.68,-76.6 446.07,-83.59"/>
<text text-anchor="middle" x="374.66" y="-95.95" font-family="Times,serif" font-size="14.00">EHLO/λ:2</text>
</g>
<!-- q6:1 -->
<g id="node16" class="node">
<title>q6:1</title>
<ellipse fill="none" stroke="black" stroke-width="2" cx="839.7" cy="-143" rx="33.32" ry="18"/>
<text text-anchor="middle" x="839.7" y="-138.32" font-family="Times,serif" font-size="14.00">q6:1</text>
</g>
<!-- q3:242&#45;&gt;q6:1 -->
<g id="edge17" class="edge">
<title>q3:242&#45;&gt;q6:1</title>
<path fill="none" stroke="black" d="M538.1,-138.66C604.79,-139.62 728.13,-141.4 794.18,-142.36"/>
<polygon fill="black" stroke="black" points="793.88,-145.86 803.93,-142.5 793.98,-138.86 793.88,-145.86"/>
<text text-anchor="middle" x="608.31" y="-143.94" font-family="Times,serif" font-size="14.00">AUTH/λ:1</text>
</g>
<!-- q5:11 -->
<g id="node17" class="node">
<title>q5:11</title>
<ellipse fill="none" stroke="black" stroke-width="2" cx="725.13" cy="-192" rx="39.63" ry="18"/>
<text text-anchor="middle" x="725.13" y="-187.32" font-family="Times,serif" font-size="14.00">q5:11</text>
</g>
<!-- q3:242&#45;&gt;q5:11 -->
<g id="edge18" class="edge">
<title>q3:242&#45;&gt;q5:11</title>
<path fill="none" stroke="black" d="M521.02,-152.62C531.6,-157.52 543.84,-162.6 555.43,-166 594.51,-177.48 640.26,-184.13 674.25,-187.82"/>
<polygon fill="black" stroke="black" points="673.49,-191.26 683.79,-188.81 674.21,-184.3 673.49,-191.26"/>
<text text-anchor="middle" x="608.31" y="-189.94" font-family="Times,serif" font-size="14.00">AUTH/535:11</text>
</g>
<!-- q4:232 -->
<g id="node18" class="node">
<title>q4:232</title>
<ellipse fill="none" stroke="black" stroke-width="2" cx="725.13" cy="-78" rx="45.95" ry="18"/>
<text text-anchor="middle" x="725.13" y="-73.33" font-family="Times,serif" font-size="14.00">q4:232</text>
</g>
<!-- q3:242&#45;&gt;q4:232 -->
<g id="edge19" class="edge">
<title>q3:242&#45;&gt;q4:232</title>
<path fill="none" stroke="black" d="M518.34,-122.45C529.42,-116.41 542.72,-109.94 555.43,-105.75 591.87,-93.75 634.52,-86.79 667.82,-82.84"/>
<polygon fill="black" stroke="black" points="668.13,-86.33 677.68,-81.74 667.35,-79.37 668.13,-86.33"/>
<text text-anchor="middle" x="608.31" y="-108.95" font-family="Times,serif" font-size="14.00">AUTH/235:230</text>
</g>
<!-- q2:2&#45;&gt;q4:232 -->
<g id="edge20" class="edge">
<title>q2:2&#45;&gt;q4:232</title>
<path fill="none" stroke="black" d="M523.05,-70.83C533.28,-68.75 544.79,-66.78 555.43,-65.75 602.21,-61.24 614.4,-61.24 661.18,-65.75 665.01,-66.12 668.95,-66.61 672.91,-67.19"/>
<polygon fill="black" stroke="black" points="672.07,-70.6 682.51,-68.75 673.2,-63.69 672.07,-70.6"/>
<text text-anchor="middle" x="608.31" y="-69.95" font-family="Times,serif" font-size="14.00">AUTH/235:2</text>
</g>
<!-- q6:1&#45;&gt;q10:235 -->
<g id="edge21" class="edge">
<title>q6:1&#45;&gt;q10:235</title>
<path fill="none" stroke="black" d="M873.86,-142.06C927.27,-140.18 1035.6,-134.89 1126.2,-121 1131.4,-120.2 1136.8,-119.22 1142.2,-118.15"/>
<polygon fill="black" stroke="black" points="1142.66,-121.63 1151.72,-116.14 1141.21,-114.78 1142.66,-121.63"/>
<text text-anchor="middle" x="954.27" y="-143.94" font-family="Times,serif" font-size="14.00">MAIL/250:1</text>
</g>
<!-- q9:11 -->
<g id="node19" class="node">
<title>q9:11</title>
<ellipse fill="none" stroke="black" stroke-width="2" cx="954.27" cy="-193" rx="39.63" ry="18"/>
<text text-anchor="middle" x="954.27" y="-188.32" font-family="Times,serif" font-size="14.00">q9:11</text>
</g>
<!-- q5:11&#45;&gt;q9:11 -->
<g id="edge22" class="edge">
<title>q5:11&#45;&gt;q9:11</title>
<path fill="none" stroke="black" d="M765.69,-192.17C803.6,-192.34 861,-192.59 902.32,-192.78"/>
<polygon fill="black" stroke="black" points="902.25,-196.28 912.27,-192.82 902.28,-189.28 902.25,-196.28"/>
<text text-anchor="middle" x="839.7" y="-195.94" font-family="Times,serif" font-size="14.00">AUTH/334:11</text>
</g>
<!-- q4:232&#45;&gt;q8:230 -->
<g id="edge23" class="edge">
<title>q4:232&#45;&gt;q8:230</title>
<path fill="none" stroke="black" d="M771.82,-79.61C807.78,-80.88 858.09,-82.65 896.61,-84"/>
<polygon fill="black" stroke="black" points="896.02,-87.49 906.14,-84.34 896.27,-80.49 896.02,-87.49"/>
<text text-anchor="middle" x="839.7" y="-87.95" font-family="Times,serif" font-size="14.00">MAIL/250:230</text>
</g>
<!-- q7:2 -->
<g id="node20" class="node">
<title>q7:2</title>
<ellipse fill="none" stroke="black" stroke-width="2" cx="954.27" cy="-32" rx="33.32" ry="18"/>
<text text-anchor="middle" x="954.27" y="-27.32" font-family="Times,serif" font-size="14.00">q7:2</text>
</g>
<!-- q4:232&#45;&gt;q7:2 -->
<g id="edge24" class="edge">
<title>q4:232&#45;&gt;q7:2</title>
<path fill="none" stroke="black" d="M762.56,-66.67C771.2,-64.19 780.42,-61.73 789.08,-59.75 829.66,-50.47 876.55,-42.85 909.8,-37.96"/>
<polygon fill="black" stroke="black" points="910.07,-41.45 919.47,-36.56 909.07,-34.52 910.07,-41.45"/>
<text text-anchor="middle" x="839.7" y="-63.95" font-family="Times,serif" font-size="14.00">MAIL/553:2</text>
</g>
<!-- q12:11 -->
<g id="node22" class="node">
<title>q12:11</title>
<ellipse fill="none" stroke="black" stroke-width="2" cx="1196.5" cy="-193" rx="45.95" ry="18"/>
<text text-anchor="middle" x="1196.5" y="-188.32" font-family="Times,serif" font-size="14.00">q12:11</text>
</g>
<!-- q9:11&#45;&gt;q12:11 -->
<g id="edge27" class="edge">
<title>q9:11&#45;&gt;q12:11</title>
<path fill="none" stroke="black" d="M994.67,-193C1033.8,-193 1094.1,-193 1138.4,-193"/>
<polygon fill="black" stroke="black" points="1138.39,-196.5 1148.39,-193 1138.39,-189.5 1138.39,-196.5"/>
<text text-anchor="middle" x="1072.2" y="-196.94" font-family="Times,serif" font-size="14.00">content/535:11</text>
</g>
<!-- q11:2 -->
<g id="node21" class="node">
<title>q11:2</title>
<ellipse fill="none" stroke="black" stroke-width="2" cx="1196.5" cy="-32" rx="39.63" ry="18"/>
<text text-anchor="middle" x="1196.5" y="-27.32" font-family="Times,serif" font-size="14.00">q11:2</text>
</g>
<!-- q7:2&#45;&gt;q11:2 -->
<g id="edge25" class="edge">
<title>q7:2&#45;&gt;q11:2</title>
<path fill="none" stroke="black" d="M988.42,-32C1028.8,-32 1097.3,-32 1144.4,-32"/>
<polygon fill="black" stroke="black" points="1144.39,-35.5 1154.39,-32 1144.39,-28.5 1144.39,-35.5"/>
<text text-anchor="middle" x="1072.2" y="-35.95" font-family="Times,serif" font-size="14.00">RSET/250:2</text>
</g>
<!-- q15:4 -->
<g id="node23" class="node">
<title>q15:4</title>
<ellipse fill="none" stroke="black" stroke-width="2" cx="1439.8" cy="-193" rx="39.63" ry="18"/>
<text text-anchor="middle" x="1439.8" y="-188.32" font-family="Times,serif" font-size="14.00">q15:4</text>
</g>
<!-- q12:11&#45;&gt;q15:4 -->
<g id="edge26" class="edge">
<title>q12:11&#45;&gt;q15:4</title>
<path fill="none" stroke="black" d="M1243.1,-193C1284.4,-193 1345.2,-193 1388,-193"/>
<polygon fill="black" stroke="black" points="1387.79,-196.5 1397.79,-193 1387.79,-189.5 1387.79,-196.5"/>
<text text-anchor="middle" x="1318.1" y="-196.94" font-family="Times,serif" font-size="14.00">λ/451:4</text>
</g>
</g>
</svg>
