<?xml version="1.0" encoding="UTF-8" standalone="no"?>
<!DOCTYPE svg PUBLIC "-//W3C//DTD SVG 1.1//EN"
 "http://www.w3.org/Graphics/SVG/1.1/DTD/svg11.dtd">
<!-- Generated by graphviz version 12.0.0 (20240803.0821)
 -->
<!-- Pages: 1 -->
<svg width="2016pt" height="295pt"
 viewBox="0.00 0.00 2016.46 295.00" xmlns="http://www.w3.org/2000/svg" xmlns:xlink="http://www.w3.org/1999/xlink">
<g id="graph0" class="graph" transform="scale(1 1) rotate(0) translate(4 291)">
<polygon fill="white" stroke="none" points="-4,4 -4,-291 2012.46,-291 2012.46,4 -4,4"/>
<!-- q7:626 -->
<g id="node1" class="node">
<title>q7:626</title>
<ellipse fill="none" stroke="black" stroke-width="2" cx="954.27" cy="-153" rx="45.95" ry="18"/>
<text text-anchor="middle" x="954.27" y="-148.32" font-family="Times,serif" font-size="14.00">q7:626</text>
</g>
<!-- q7:626&#45;&gt;q7:626 -->
<g id="edge1" class="edge">
<title>q7:626&#45;&gt;q7:626</title>
<path fill="none" stroke="black" d="M933.97,-170.04C929.83,-179.86 936.59,-189 954.27,-189 964.49,-189 971.07,-185.94 973.99,-181.47"/>
<polygon fill="black" stroke="black" points="977.48,-181.72 974.49,-171.55 970.49,-181.36 977.48,-181.72"/>
<text text-anchor="middle" x="954.27" y="-192.94" font-family="Times,serif" font-size="14.00">RCPT/250:397</text>
</g>
<!-- q10:191 -->
<g id="node2" class="node">
<title>q10:191</title>
<ellipse fill="none" stroke="black" stroke-width="2" cx="1196.5" cy="-141" rx="52.26" ry="18"/>
<text text-anchor="middle" x="1196.5" y="-136.32" font-family="Times,serif" font-size="14.00">q10:191</text>
</g>
<!-- q7:626&#45;&gt;q10:191 -->
<g id="edge2" class="edge">
<title>q7:626&#45;&gt;q10:191</title>
<path fill="none" stroke="black" d="M1000.74,-150.73C1038,-148.87 1091.2,-146.21 1132.6,-144.14"/>
<polygon fill="black" stroke="black" points="1132.68,-147.64 1142.49,-143.65 1132.33,-140.65 1132.68,-147.64"/>
<text text-anchor="middle" x="1072.2" y="-153.94" font-family="Times,serif" font-size="14.00">DATA/354:191</text>
</g>
<!-- q11:38 -->
<g id="node3" class="node">
<title>q11:38</title>
<ellipse fill="none" stroke="black" stroke-width="2" cx="1196.5" cy="-195" rx="45.95" ry="18"/>
<text text-anchor="middle" x="1196.5" y="-190.32" font-family="Times,serif" font-size="14.00">q11:38</text>
</g>
<!-- q7:626&#45;&gt;q11:38 -->
<g id="edge3" class="edge">
<title>q7:626&#45;&gt;q11:38</title>
<path fill="none" stroke="black" d="M991.66,-164.37C1000.31,-166.8 1009.5,-169.18 1018.2,-171 1058.4,-179.41 1104.3,-185.53 1139.3,-189.49"/>
<polygon fill="black" stroke="black" points="1138.87,-192.96 1149.19,-190.58 1139.64,-186.01 1138.87,-192.96"/>
<text text-anchor="middle" x="1072.2" y="-190.94" font-family="Times,serif" font-size="14.00">DATA/550:38</text>
</g>
<!-- q16:3143 -->
<g id="node4" class="node">
<title>q16:3143</title>
<ellipse fill="none" stroke="black" stroke-width="2" cx="1451.3" cy="-126" rx="58.57" ry="18"/>
<text text-anchor="middle" x="1451.3" y="-121.33" font-family="Times,serif" font-size="14.00">q16:3143</text>
</g>
<!-- q10:191&#45;&gt;q16:3143 -->
<g id="edge4" class="edge">
<title>q10:191&#45;&gt;q16:3143</title>
<path fill="none" stroke="black" d="M1248.9,-137.95C1287.1,-135.68 1339.5,-132.58 1381.3,-130.1"/>
<polygon fill="black" stroke="black" points="1381.41,-133.6 1391.19,-129.51 1381,-126.61 1381.41,-133.6"/>
<text text-anchor="middle" x="1320.7" y="-140.94" font-family="Times,serif" font-size="14.00">content/λ:116</text>
</g>
<!-- q15:12 -->
<g id="node5" class="node">
<title>q15:12</title>
<ellipse fill="none" stroke="black" stroke-width="2" cx="1451.3" cy="-45" rx="45.95" ry="18"/>
<text text-anchor="middle" x="1451.3" y="-40.33" font-family="Times,serif" font-size="14.00">q15:12</text>
</g>
<!-- q10:191&#45;&gt;q15:12 -->
<g id="edge5" class="edge">
<title>q10:191&#45;&gt;q15:12</title>
<path fill="none" stroke="black" d="M1229,-126.12C1240.7,-120.74 1254.3,-114.76 1266.7,-109.75 1312.8,-91.26 1366.5,-72.65 1403.9,-60.16"/>
<polygon fill="black" stroke="black" points="1404.59,-63.62 1412.96,-57.13 1402.37,-56.98 1404.59,-63.62"/>
<text text-anchor="middle" x="1320.7" y="-113.95" font-family="Times,serif" font-size="14.00">content/250:12</text>
</g>
<!-- q14:63 -->
<g id="node6" class="node">
<title>q14:63</title>
<ellipse fill="none" stroke="black" stroke-width="2" cx="1451.3" cy="-215" rx="45.95" ry="18"/>
<text text-anchor="middle" x="1451.3" y="-210.32" font-family="Times,serif" font-size="14.00">q14:63</text>
</g>
<!-- q10:191&#45;&gt;q14:63 -->
<g id="edge6" class="edge">
<title>q10:191&#45;&gt;q14:63</title>
<path fill="none" stroke="black" d="M1237.8,-152.81C1282.5,-165.88 1354.4,-186.94 1402,-200.87"/>
<polygon fill="black" stroke="black" points="1400.97,-204.21 1411.55,-203.66 1402.93,-197.49 1400.97,-204.21"/>
<text text-anchor="middle" x="1320.7" y="-194.94" font-family="Times,serif" font-size="14.00">content/554:63</text>
</g>
<!-- q16:3143&#45;&gt;q16:3143 -->
<g id="edge7" class="edge">
<title>q16:3143&#45;&gt;q16:3143</title>
<path fill="none" stroke="black" d="M1428,-143.41C1423.7,-153.09 1431.4,-162 1451.3,-162 1462.8,-162 1470.3,-159.02 1473.7,-154.64"/>
<polygon fill="black" stroke="black" points="1477.17,-155.17 1474.48,-144.92 1470.19,-154.61 1477.17,-155.17"/>
<text text-anchor="middle" x="1451.3" y="-165.94" font-family="Times,serif" font-size="14.00">content/λ:3027</text>
</g>
<!-- q20:113 -->
<g id="node7" class="node">
<title>q20:113</title>
<ellipse fill="none" stroke="black" stroke-width="2" cx="1715.1" cy="-72" rx="52.26" ry="18"/>
<text text-anchor="middle" x="1715.1" y="-67.33" font-family="Times,serif" font-size="14.00">q20:113</text>
</g>
<!-- q16:3143&#45;&gt;q20:113 -->
<g id="edge8" class="edge">
<title>q16:3143&#45;&gt;q20:113</title>
<path fill="none" stroke="black" d="M1494.9,-113.22C1505.6,-110.23 1517.1,-107.2 1527.9,-104.75 1570.1,-95.13 1618.2,-86.73 1655,-80.85"/>
<polygon fill="black" stroke="black" points="1655.18,-84.36 1664.5,-79.34 1654.08,-77.45 1655.18,-84.36"/>
<text text-anchor="middle" x="1586.4" y="-108.95" font-family="Times,serif" font-size="14.00">content/250:113</text>
</g>
<!-- q21:1 -->
<g id="node8" class="node">
<title>q21:1</title>
<ellipse fill="none" stroke="black" stroke-width="2" cx="1715.1" cy="-180" rx="39.63" ry="18"/>
<text text-anchor="middle" x="1715.1" y="-175.32" font-family="Times,serif" font-size="14.00">q21:1</text>
</g>
<!-- q16:3143&#45;&gt;q21:1 -->
<g id="edge9" class="edge">
<title>q16:3143&#45;&gt;q21:1</title>
<path fill="none" stroke="black" d="M1495.3,-138.71C1505.9,-141.63 1517.3,-144.59 1527.9,-147 1574.2,-157.51 1627.6,-166.67 1665.3,-172.66"/>
<polygon fill="black" stroke="black" points="1664.58,-176.09 1675,-174.18 1665.66,-169.17 1664.58,-176.09"/>
<text text-anchor="middle" x="1586.4" y="-172.94" font-family="Times,serif" font-size="14.00">content/550:1</text>
</g>
<!-- q22:2 -->
<g id="node9" class="node">
<title>q22:2</title>
<ellipse fill="none" stroke="black" stroke-width="2" cx="1715.1" cy="-126" rx="39.63" ry="18"/>
<text text-anchor="middle" x="1715.1" y="-121.33" font-family="Times,serif" font-size="14.00">q22:2</text>
</g>
<!-- q16:3143&#45;&gt;q22:2 -->
<g id="edge10" class="edge">
<title>q16:3143&#45;&gt;q22:2</title>
<path fill="none" stroke="black" d="M1510.7,-126C1556.4,-126 1619.4,-126 1663.1,-126"/>
<polygon fill="black" stroke="black" points="1663.09,-129.5 1673.09,-126 1663.09,-122.5 1663.09,-129.5"/>
<text text-anchor="middle" x="1586.4" y="-129.94" font-family="Times,serif" font-size="14.00">content/554:2</text>
</g>
<!-- q19:12 -->
<g id="node10" class="node">
<title>q19:12</title>
<ellipse fill="none" stroke="black" stroke-width="2" cx="1715.1" cy="-18" rx="45.95" ry="18"/>
<text text-anchor="middle" x="1715.1" y="-13.32" font-family="Times,serif" font-size="14.00">q19:12</text>
</g>
<!-- q15:12&#45;&gt;q19:12 -->
<g id="edge11" class="edge">
<title>q15:12&#45;&gt;q19:12</title>
<path fill="none" stroke="black" d="M1496.7,-40.42C1541.4,-35.81 1610.5,-28.69 1658.8,-23.71"/>
<polygon fill="black" stroke="black" points="1658.9,-27.22 1668.49,-22.71 1658.19,-20.26 1658.9,-27.22"/>
<text text-anchor="middle" x="1586.4" y="-41.95" font-family="Times,serif" font-size="14.00">QUIT/221:12</text>
</g>
<!-- q18:63 -->
<g id="node11" class="node">
<title>q18:63</title>
<ellipse fill="none" stroke="black" stroke-width="2" cx="1715.1" cy="-234" rx="45.95" ry="18"/>
<text text-anchor="middle" x="1715.1" y="-229.32" font-family="Times,serif" font-size="14.00">q18:63</text>
</g>
<!-- q14:63&#45;&gt;q18:63 -->
<g id="edge12" class="edge">
<title>q14:63&#45;&gt;q18:63</title>
<path fill="none" stroke="black" d="M1497.3,-218.27C1541.8,-221.49 1609.9,-226.43 1657.8,-229.91"/>
<polygon fill="black" stroke="black" points="1657.56,-233.4 1667.79,-230.63 1658.07,-226.42 1657.56,-233.4"/>
<text text-anchor="middle" x="1586.4" y="-231.94" font-family="Times,serif" font-size="14.00">RSET/250:63</text>
</g>
<!-- q23:113 -->
<g id="node12" class="node">
<title>q23:113</title>
<ellipse fill="none" stroke="black" stroke-width="2" cx="1956.2" cy="-72" rx="52.26" ry="18"/>
<text text-anchor="middle" x="1956.2" y="-67.33" font-family="Times,serif" font-size="14.00">q23:113</text>
</g>
<!-- q20:113&#45;&gt;q23:113 -->
<g id="edge13" class="edge">
<title>q20:113&#45;&gt;q23:113</title>
<path fill="none" stroke="black" d="M1768.3,-72C1804.7,-72 1853.4,-72 1892,-72"/>
<polygon fill="black" stroke="black" points="1891.59,-75.5 1901.59,-72 1891.59,-68.5 1891.59,-75.5"/>
<text text-anchor="middle" x="1835.7" y="-75.95" font-family="Times,serif" font-size="14.00">QUIT/221:113</text>
</g>
<!-- q24:1 -->
<g id="node13" class="node">
<title>q24:1</title>
<ellipse fill="none" stroke="black" stroke-width="2" cx="1956.2" cy="-180" rx="39.63" ry="18"/>
<text text-anchor="middle" x="1956.2" y="-175.32" font-family="Times,serif" font-size="14.00">q24:1</text>
</g>
<!-- q21:1&#45;&gt;q24:1 -->
<g id="edge14" class="edge">
<title>q21:1&#45;&gt;q24:1</title>
<path fill="none" stroke="black" d="M1755.6,-180C1796.3,-180 1859.8,-180 1904.2,-180"/>
<polygon fill="black" stroke="black" points="1904.09,-183.5 1914.09,-180 1904.09,-176.5 1904.09,-183.5"/>
<text text-anchor="middle" x="1835.7" y="-183.94" font-family="Times,serif" font-size="14.00">RSET/250:1</text>
</g>
<!-- q25:2 -->
<g id="node14" class="node">
<title>q25:2</title>
<ellipse fill="none" stroke="black" stroke-width="2" cx="1956.2" cy="-126" rx="39.63" ry="18"/>
<text text-anchor="middle" x="1956.2" y="-121.33" font-family="Times,serif" font-size="14.00">q25:2</text>
</g>
<!-- q22:2&#45;&gt;q25:2 -->
<g id="edge15" class="edge">
<title>q22:2&#45;&gt;q25:2</title>
<path fill="none" stroke="black" d="M1755.6,-126C1796.3,-126 1859.8,-126 1904.2,-126"/>
<polygon fill="black" stroke="black" points="1904.09,-129.5 1914.09,-126 1904.09,-122.5 1904.09,-129.5"/>
<text text-anchor="middle" x="1835.7" y="-129.94" font-family="Times,serif" font-size="14.00">RSET/250:2</text>
</g>
<!-- q2:242 -->
<g id="node15" class="node">
<title>q2:242</title>
<ellipse fill="none" stroke="black" stroke-width="2" cx="491.48" cy="-183" rx="45.95" ry="18"/>
<text text-anchor="middle" x="491.48" y="-178.32" font-family="Times,serif" font-size="14.00">q2:242</text>
</g>
<!-- q5:231 -->
<g id="node16" class="node">
<title>q5:231</title>
<ellipse fill="none" stroke="black" stroke-width="2" cx="725.13" cy="-116" rx="45.95" ry="18"/>
<text text-anchor="middle" x="725.13" y="-111.33" font-family="Times,serif" font-size="14.00">q5:231</text>
</g>
<!-- q2:242&#45;&gt;q5:231 -->
<g id="edge16" class="edge">
<title>q2:242&#45;&gt;q5:231</title>
<path fill="none" stroke="black" d="M527.32,-170.82C536.44,-167.75 546.27,-164.54 555.43,-161.75 595.08,-149.69 640.43,-137.48 674.12,-128.71"/>
<polygon fill="black" stroke="black" points="674.8,-132.15 683.6,-126.25 673.05,-125.37 674.8,-132.15"/>
<text text-anchor="middle" x="608.31" y="-164.94" font-family="Times,serif" font-size="14.00">AUTH/235:229</text>
</g>
<!-- q4:1 -->
<g id="node17" class="node">
<title>q4:1</title>
<ellipse fill="none" stroke="black" stroke-width="2" cx="725.13" cy="-186" rx="33.32" ry="18"/>
<text text-anchor="middle" x="725.13" y="-181.32" font-family="Times,serif" font-size="14.00">q4:1</text>
</g>
<!-- q2:242&#45;&gt;q4:1 -->
<g id="edge17" class="edge">
<title>q2:242&#45;&gt;q4:1</title>
<path fill="none" stroke="black" d="M538.25,-183.59C579.17,-184.12 638.78,-184.89 679.39,-185.42"/>
<polygon fill="black" stroke="black" points="679.26,-188.92 689.31,-185.55 679.35,-181.92 679.26,-188.92"/>
<text text-anchor="middle" x="608.31" y="-188.94" font-family="Times,serif" font-size="14.00">AUTH/λ:1</text>
</g>
<!-- q6:12 -->
<g id="node18" class="node">
<title>q6:12</title>
<ellipse fill="none" stroke="black" stroke-width="2" cx="725.13" cy="-241" rx="39.63" ry="18"/>
<text text-anchor="middle" x="725.13" y="-236.32" font-family="Times,serif" font-size="14.00">q6:12</text>
</g>
<!-- q2:242&#45;&gt;q6:12 -->
<g id="edge18" class="edge">
<title>q2:242&#45;&gt;q6:12</title>
<path fill="none" stroke="black" d="M525.18,-195.97C534.83,-199.52 545.47,-203.16 555.43,-206 595.49,-217.41 641.89,-226.76 675.87,-232.92"/>
<polygon fill="black" stroke="black" points="674.94,-236.31 685.4,-234.61 676.17,-229.42 674.94,-236.31"/>
<text text-anchor="middle" x="608.31" y="-232.94" font-family="Times,serif" font-size="14.00">AUTH/535:12</text>
</g>
<!-- q5:231&#45;&gt;q7:626 -->
<g id="edge19" class="edge">
<title>q5:231&#45;&gt;q7:626</title>
<path fill="none" stroke="black" d="M769.42,-122.01C802.58,-126.74 849.42,-133.69 890.33,-140.75 893.89,-141.37 897.57,-142.02 901.26,-142.7"/>
<polygon fill="black" stroke="black" points="900.39,-146.1 910.86,-144.49 901.67,-139.22 900.39,-146.1"/>
<text text-anchor="middle" x="839.7" y="-144.94" font-family="Times,serif" font-size="14.00">MAIL/250:228</text>
</g>
<!-- q8:3 -->
<g id="node19" class="node">
<title>q8:3</title>
<ellipse fill="none" stroke="black" stroke-width="2" cx="954.27" cy="-91" rx="33.32" ry="18"/>
<text text-anchor="middle" x="954.27" y="-86.33" font-family="Times,serif" font-size="14.00">q8:3</text>
</g>
<!-- q5:231&#45;&gt;q8:3 -->
<g id="edge20" class="edge">
<title>q5:231&#45;&gt;q8:3</title>
<path fill="none" stroke="black" d="M764.19,-105.62C772.35,-103.73 780.96,-101.96 789.08,-100.75 829.37,-94.72 875.75,-92.38 908.92,-91.5"/>
<polygon fill="black" stroke="black" points="908.64,-95 918.56,-91.27 908.48,-88.01 908.64,-95"/>
<text text-anchor="middle" x="839.7" y="-104.95" font-family="Times,serif" font-size="14.00">MAIL/553:3</text>
</g>
<!-- q4:1&#45;&gt;q7:626 -->
<g id="edge21" class="edge">
<title>q4:1&#45;&gt;q7:626</title>
<path fill="none" stroke="black" d="M758.19,-181.34C794.67,-176.04 854.88,-167.3 898.77,-160.92"/>
<polygon fill="black" stroke="black" points="899.23,-164.39 908.62,-159.49 898.22,-157.46 899.23,-164.39"/>
<text text-anchor="middle" x="839.7" y="-179.94" font-family="Times,serif" font-size="14.00">MAIL/250:1</text>
</g>
<!-- q9:12 -->
<g id="node20" class="node">
<title>q9:12</title>
<ellipse fill="none" stroke="black" stroke-width="2" cx="954.27" cy="-246" rx="39.63" ry="18"/>
<text text-anchor="middle" x="954.27" y="-241.32" font-family="Times,serif" font-size="14.00">q9:12</text>
</g>
<!-- q6:12&#45;&gt;q9:12 -->
<g id="edge22" class="edge">
<title>q6:12&#45;&gt;q9:12</title>
<path fill="none" stroke="black" d="M765.69,-241.87C803.6,-242.71 861,-243.97 902.32,-244.88"/>
<polygon fill="black" stroke="black" points="902.19,-248.38 912.27,-245.1 902.34,-241.38 902.19,-248.38"/>
<text text-anchor="middle" x="839.7" y="-247.94" font-family="Times,serif" font-size="14.00">AUTH/334:12</text>
</g>
<!-- q12:3 -->
<g id="node21" class="node">
<title>q12:3</title>
<ellipse fill="none" stroke="black" stroke-width="2" cx="1196.5" cy="-87" rx="39.63" ry="18"/>
<text text-anchor="middle" x="1196.5" y="-82.33" font-family="Times,serif" font-size="14.00">q12:3</text>
</g>
<!-- q8:3&#45;&gt;q12:3 -->
<g id="edge23" class="edge">
<title>q8:3&#45;&gt;q12:3</title>
<path fill="none" stroke="black" d="M988.42,-90.45C1028.8,-89.78 1097.3,-88.64 1144.4,-87.85"/>
<polygon fill="black" stroke="black" points="1144.45,-91.35 1154.39,-87.68 1144.33,-84.35 1144.45,-91.35"/>
<text text-anchor="middle" x="1072.2" y="-93.95" font-family="Times,serif" font-size="14.00">RSET/250:3</text>
</g>
<!-- q13:12 -->
<g id="node22" class="node">
<title>q13:12</title>
<ellipse fill="none" stroke="black" stroke-width="2" cx="1196.5" cy="-263" rx="45.95" ry="18"/>
<text text-anchor="middle" x="1196.5" y="-258.32" font-family="Times,serif" font-size="14.00">q13:12</text>
</g>
<!-- q9:12&#45;&gt;q13:12 -->
<g id="edge24" class="edge">
<title>q9:12&#45;&gt;q13:12</title>
<path fill="none" stroke="black" d="M994.4,-248.77C1033.7,-251.55 1094.5,-255.85 1139,-259"/>
<polygon fill="black" stroke="black" points="1138.47,-262.47 1148.69,-259.69 1138.96,-255.49 1138.47,-262.47"/>
<text text-anchor="middle" x="1072.2" y="-260.94" font-family="Times,serif" font-size="14.00">content/535:12</text>
</g>
<!-- q17:4 -->
<g id="node25" class="node">
<title>q17:4</title>
<ellipse fill="none" stroke="black" stroke-width="2" cx="1451.3" cy="-269" rx="39.63" ry="18"/>
<text text-anchor="middle" x="1451.3" y="-264.32" font-family="Times,serif" font-size="14.00">q17:4</text>
</g>
<!-- q13:12&#45;&gt;q17:4 -->
<g id="edge28" class="edge">
<title>q13:12&#45;&gt;q17:4</title>
<path fill="none" stroke="black" d="M1243.3,-264.09C1287.4,-265.13 1354,-266.71 1399.7,-267.8"/>
<polygon fill="black" stroke="black" points="1399.51,-271.3 1409.59,-268.03 1399.67,-264.3 1399.51,-271.3"/>
<text text-anchor="middle" x="1320.7" y="-270.94" font-family="Times,serif" font-size="14.00">λ/451:4</text>
</g>
<!-- q1:244 -->
<g id="node23" class="node">
<title>q1:244</title>
<ellipse fill="none" stroke="black" stroke-width="2" cx="257.84" cy="-150" rx="45.95" ry="18"/>
<text text-anchor="middle" x="257.84" y="-145.32" font-family="Times,serif" font-size="14.00">q1:244</text>
</g>
<!-- q1:244&#45;&gt;q2:242 -->
<g id="edge25" class="edge">
<title>q1:244&#45;&gt;q2:242</title>
<path fill="none" stroke="black" d="M302.14,-156.17C340,-161.56 395.17,-169.42 436.02,-175.24"/>
<polygon fill="black" stroke="black" points="435.51,-178.7 445.9,-176.65 436.49,-171.77 435.51,-178.7"/>
<text text-anchor="middle" x="374.66" y="-176.94" font-family="Times,serif" font-size="14.00">EHLO/250:242</text>
</g>
<!-- q3:2 -->
<g id="node24" class="node">
<title>q3:2</title>
<ellipse fill="none" stroke="black" stroke-width="2" cx="491.48" cy="-123" rx="33.32" ry="18"/>
<text text-anchor="middle" x="491.48" y="-118.33" font-family="Times,serif" font-size="14.00">q3:2</text>
</g>
<!-- q1:244&#45;&gt;q3:2 -->
<g id="edge26" class="edge">
<title>q1:244&#45;&gt;q3:2</title>
<path fill="none" stroke="black" d="M298.66,-140.83C306.31,-139.29 314.27,-137.84 321.79,-136.75 363.67,-130.66 411.82,-127.07 445.93,-125.1"/>
<polygon fill="black" stroke="black" points="446.07,-128.6 455.86,-124.54 445.68,-121.61 446.07,-128.6"/>
<text text-anchor="middle" x="374.66" y="-140.94" font-family="Times,serif" font-size="14.00">EHLO/λ:2</text>
</g>
<!-- q3:2&#45;&gt;q5:231 -->
<g id="edge27" class="edge">
<title>q3:2&#45;&gt;q5:231</title>
<path fill="none" stroke="black" d="M523.05,-115.83C533.28,-113.75 544.79,-111.78 555.43,-110.75 593,-107.13 635.47,-108.48 668.4,-110.72"/>
<polygon fill="black" stroke="black" points="667.89,-114.19 678.12,-111.43 668.4,-107.21 667.89,-114.19"/>
<text text-anchor="middle" x="608.31" y="-114.95" font-family="Times,serif" font-size="14.00">AUTH/235:2</text>
</g>
<!-- q0:244 -->
<g id="node26" class="node">
<title>q0:244</title>
<ellipse fill="none" stroke="black" stroke-width="2" cx="53.95" cy="-150" rx="49.95" ry="49.95"/>
<ellipse fill="none" stroke="black" stroke-width="2" cx="53.95" cy="-150" rx="53.95" ry="53.95"/>
<text text-anchor="middle" x="53.95" y="-145.32" font-family="Times,serif" font-size="14.00">q0:244</text>
</g>
<!-- q0:244&#45;&gt;q1:244 -->
<g id="edge29" class="edge">
<title>q0:244&#45;&gt;q1:244</title>
<path fill="none" stroke="black" d="M104.85,-150C133.64,-150 169.94,-150 199.84,-150"/>
<polygon fill="black" stroke="black" points="199.45,-153.5 209.45,-150 199.45,-146.5 199.45,-153.5"/>
<text text-anchor="middle" x="157.89" y="-153.94" font-family="Times,serif" font-size="14.00">λ/220:244</text>
</g>
</g>
</svg>
