<?xml version="1.0" encoding="UTF-8" standalone="no"?>
<!DOCTYPE svg PUBLIC "-//W3C//DTD SVG 1.1//EN"
 "http://www.w3.org/Graphics/SVG/1.1/DTD/svg11.dtd">
<!-- Generated by graphviz version 12.0.0 (20240803.0821)
 -->
<!-- Pages: 1 -->
<svg width="2216pt" height="305pt"
 viewBox="0.00 0.00 2216.45 305.00" xmlns="http://www.w3.org/2000/svg" xmlns:xlink="http://www.w3.org/1999/xlink">
<g id="graph0" class="graph" transform="scale(1 1) rotate(0) translate(4 301)">
<polygon fill="white" stroke="none" points="-4,4 -4,-301 2212.45,-301 2212.45,4 -4,4"/>
<!-- q10:229 -->
<g id="node1" class="node">
<title>q10:229</title>
<ellipse fill="none" stroke="black" stroke-width="2" cx="1196.5" cy="-193" rx="52.26" ry="18"/>
<text text-anchor="middle" x="1196.5" y="-188.32" font-family="Times,serif" font-size="14.00">q10:229</text>
</g>
<!-- q14:144 -->
<g id="node2" class="node">
<title>q14:144</title>
<ellipse fill="none" stroke="black" stroke-width="2" cx="1439.8" cy="-98" rx="52.26" ry="18"/>
<text text-anchor="middle" x="1439.8" y="-93.33" font-family="Times,serif" font-size="14.00">q14:144</text>
</g>
<!-- q10:229&#45;&gt;q14:144 -->
<g id="edge1" class="edge">
<title>q10:229&#45;&gt;q14:144</title>
<path fill="none" stroke="black" d="M1232.6,-179.19C1275,-162.48 1346.5,-134.31 1393.2,-115.94"/>
<polygon fill="black" stroke="black" points="1394.18,-119.32 1402.19,-112.39 1391.61,-112.81 1394.18,-119.32"/>
<text text-anchor="middle" x="1318.1" y="-168.94" font-family="Times,serif" font-size="14.00">RCPT/250:140</text>
</g>
<!-- q13:89 -->
<g id="node3" class="node">
<title>q13:89</title>
<ellipse fill="none" stroke="black" stroke-width="2" cx="1439.8" cy="-200" rx="45.95" ry="18"/>
<text text-anchor="middle" x="1439.8" y="-195.32" font-family="Times,serif" font-size="14.00">q13:89</text>
</g>
<!-- q10:229&#45;&gt;q13:89 -->
<g id="edge2" class="edge">
<title>q10:229&#45;&gt;q13:89</title>
<path fill="none" stroke="black" d="M1249.5,-194.51C1288.5,-195.64 1341.7,-197.19 1381.8,-198.35"/>
<polygon fill="black" stroke="black" points="1381.69,-201.85 1391.79,-198.64 1381.89,-194.85 1381.69,-201.85"/>
<text text-anchor="middle" x="1318.1" y="-200.94" font-family="Times,serif" font-size="14.00">DATA/354:89</text>
</g>
<!-- q20:4 -->
<g id="node4" class="node">
<title>q20:4</title>
<ellipse fill="none" stroke="black" stroke-width="2" cx="1694.6" cy="-81" rx="39.63" ry="18"/>
<text text-anchor="middle" x="1694.6" y="-76.33" font-family="Times,serif" font-size="14.00">q20:4</text>
</g>
<!-- q14:144&#45;&gt;q20:4 -->
<g id="edge3" class="edge">
<title>q14:144&#45;&gt;q20:4</title>
<path fill="none" stroke="black" d="M1463.5,-81.14C1476.4,-72.62 1493.3,-63.15 1510,-58.75 1556.4,-46.51 1570.5,-51.9 1618,-58.75 1629.1,-60.34 1640.8,-63.18 1651.5,-66.31"/>
<polygon fill="black" stroke="black" points="1650.37,-69.63 1660.95,-69.2 1652.41,-62.93 1650.37,-69.63"/>
<text text-anchor="middle" x="1564" y="-62.95" font-family="Times,serif" font-size="14.00">RCPT/250:4</text>
</g>
<!-- q17:2551 -->
<g id="node5" class="node">
<title>q17:2551</title>
<ellipse fill="none" stroke="black" stroke-width="2" cx="1694.6" cy="-136" rx="58.57" ry="18"/>
<text text-anchor="middle" x="1694.6" y="-131.32" font-family="Times,serif" font-size="14.00">q17:2551</text>
</g>
<!-- q14:144&#45;&gt;q17:2551 -->
<g id="edge4" class="edge">
<title>q14:144&#45;&gt;q17:2551</title>
<path fill="none" stroke="black" d="M1483.5,-108.63C1492.2,-110.59 1501.4,-112.49 1510,-114 1548.4,-120.71 1591.6,-126 1626.5,-129.71"/>
<polygon fill="black" stroke="black" points="1625.68,-133.14 1635.99,-130.7 1626.41,-126.18 1625.68,-133.14"/>
<text text-anchor="middle" x="1564" y="-132.94" font-family="Times,serif" font-size="14.00">DATA/354:97</text>
</g>
<!-- q19:43 -->
<g id="node6" class="node">
<title>q19:43</title>
<ellipse fill="none" stroke="black" stroke-width="2" cx="1694.6" cy="-18" rx="45.95" ry="18"/>
<text text-anchor="middle" x="1694.6" y="-13.32" font-family="Times,serif" font-size="14.00">q19:43</text>
</g>
<!-- q14:144&#45;&gt;q19:43 -->
<g id="edge5" class="edge">
<title>q14:144&#45;&gt;q19:43</title>
<path fill="none" stroke="black" d="M1453.5,-79.8C1465.9,-63.76 1486.3,-41.34 1510,-30.75 1550.3,-12.75 1600.6,-10.46 1638.4,-12.18"/>
<polygon fill="black" stroke="black" points="1637.9,-15.66 1648.09,-12.74 1638.31,-8.67 1637.9,-15.66"/>
<text text-anchor="middle" x="1564" y="-34.95" font-family="Times,serif" font-size="14.00">DATA/550:43</text>
</g>
<!-- q13:89&#45;&gt;q17:2551 -->
<g id="edge6" class="edge">
<title>q13:89&#45;&gt;q17:2551</title>
<path fill="none" stroke="black" d="M1479.7,-190.14C1521.6,-179.53 1588.8,-162.54 1636.6,-150.42"/>
<polygon fill="black" stroke="black" points="1637.4,-153.83 1646.23,-147.98 1635.68,-147.04 1637.4,-153.83"/>
<text text-anchor="middle" x="1564" y="-185.94" font-family="Times,serif" font-size="14.00">content/λ:2</text>
</g>
<!-- q16:21 -->
<g id="node7" class="node">
<title>q16:21</title>
<ellipse fill="none" stroke="black" stroke-width="2" cx="1694.6" cy="-225" rx="45.95" ry="18"/>
<text text-anchor="middle" x="1694.6" y="-220.32" font-family="Times,serif" font-size="14.00">q16:21</text>
</g>
<!-- q13:89&#45;&gt;q16:21 -->
<g id="edge7" class="edge">
<title>q13:89&#45;&gt;q16:21</title>
<path fill="none" stroke="black" d="M1485.4,-204.41C1527.8,-208.61 1591.9,-214.95 1637.7,-219.48"/>
<polygon fill="black" stroke="black" points="1637.2,-222.95 1647.49,-220.44 1637.88,-215.98 1637.2,-222.95"/>
<text text-anchor="middle" x="1564" y="-219.94" font-family="Times,serif" font-size="14.00">content/250:21</text>
</g>
<!-- q18:66 -->
<g id="node8" class="node">
<title>q18:66</title>
<ellipse fill="none" stroke="black" stroke-width="2" cx="1694.6" cy="-279" rx="45.95" ry="18"/>
<text text-anchor="middle" x="1694.6" y="-274.32" font-family="Times,serif" font-size="14.00">q18:66</text>
</g>
<!-- q13:89&#45;&gt;q18:66 -->
<g id="edge8" class="edge">
<title>q13:89&#45;&gt;q18:66</title>
<path fill="none" stroke="black" d="M1466,-215.57C1478.8,-222.92 1494.8,-231.32 1510,-237 1552.3,-252.82 1602.5,-263.8 1639.6,-270.56"/>
<polygon fill="black" stroke="black" points="1638.75,-273.96 1649.21,-272.26 1639.97,-267.07 1638.75,-273.96"/>
<text text-anchor="middle" x="1564" y="-269.94" font-family="Times,serif" font-size="14.00">content/554:66</text>
</g>
<!-- q20:4&#45;&gt;q14:144 -->
<g id="edge9" class="edge">
<title>q20:4&#45;&gt;q14:144</title>
<path fill="none" stroke="black" d="M1654.5,-83.63C1614.1,-86.34 1550.6,-90.61 1503.3,-93.8"/>
<polygon fill="black" stroke="black" points="1503.15,-90.3 1493.41,-94.46 1503.62,-97.28 1503.15,-90.3"/>
<text text-anchor="middle" x="1564" y="-96.95" font-family="Times,serif" font-size="14.00">RCPT/250:4</text>
</g>
<!-- q17:2551&#45;&gt;q17:2551 -->
<g id="edge10" class="edge">
<title>q17:2551&#45;&gt;q17:2551</title>
<path fill="none" stroke="black" d="M1671.3,-153.41C1666.9,-163.09 1674.7,-172 1694.6,-172 1706.1,-172 1713.5,-169.02 1716.9,-164.64"/>
<polygon fill="black" stroke="black" points="1720.36,-165.19 1717.77,-154.92 1713.39,-164.57 1720.36,-165.19"/>
<text text-anchor="middle" x="1694.6" y="-175.94" font-family="Times,serif" font-size="14.00">content/λ:2452</text>
</g>
<!-- q23:6 -->
<g id="node9" class="node">
<title>q23:6</title>
<ellipse fill="none" stroke="black" stroke-width="2" cx="1943.1" cy="-117" rx="39.63" ry="18"/>
<text text-anchor="middle" x="1943.1" y="-112.33" font-family="Times,serif" font-size="14.00">q23:6</text>
</g>
<!-- q17:2551&#45;&gt;q23:6 -->
<g id="edge11" class="edge">
<title>q17:2551&#45;&gt;q23:6</title>
<path fill="none" stroke="black" d="M1750.5,-129.71C1757.4,-129 1764.5,-128.33 1771.2,-127.75 1811.8,-124.26 1857.9,-121.43 1892,-119.55"/>
<polygon fill="black" stroke="black" points="1891.69,-123.07 1901.49,-119.03 1891.31,-116.08 1891.69,-123.07"/>
<text text-anchor="middle" x="1825.2" y="-131.94" font-family="Times,serif" font-size="14.00">content/554:6</text>
</g>
<!-- q24:1 -->
<g id="node10" class="node">
<title>q24:1</title>
<ellipse fill="none" stroke="black" stroke-width="2" cx="1943.1" cy="-63" rx="39.63" ry="18"/>
<text text-anchor="middle" x="1943.1" y="-58.33" font-family="Times,serif" font-size="14.00">q24:1</text>
</g>
<!-- q17:2551&#45;&gt;q24:1 -->
<g id="edge12" class="edge">
<title>q17:2551&#45;&gt;q24:1</title>
<path fill="none" stroke="black" d="M1727.9,-120.31C1747.3,-110.88 1768.8,-100.56 1771.2,-99.75 1811.3,-86.03 1858.5,-76.34 1893.2,-70.37"/>
<polygon fill="black" stroke="black" points="1893.63,-73.84 1902.91,-68.73 1892.46,-66.94 1893.63,-73.84"/>
<text text-anchor="middle" x="1825.2" y="-103.95" font-family="Times,serif" font-size="14.00">content/550:1</text>
</g>
<!-- q22:92 -->
<g id="node11" class="node">
<title>q22:92</title>
<ellipse fill="none" stroke="black" stroke-width="2" cx="1943.1" cy="-171" rx="45.95" ry="18"/>
<text text-anchor="middle" x="1943.1" y="-166.32" font-family="Times,serif" font-size="14.00">q22:92</text>
</g>
<!-- q17:2551&#45;&gt;q22:92 -->
<g id="edge13" class="edge">
<title>q17:2551&#45;&gt;q22:92</title>
<path fill="none" stroke="black" d="M1749.1,-143.59C1790.1,-149.42 1846.5,-157.43 1887.8,-163.28"/>
<polygon fill="black" stroke="black" points="1887.11,-166.72 1897.5,-164.67 1888.1,-159.79 1887.11,-166.72"/>
<text text-anchor="middle" x="1825.2" y="-165.94" font-family="Times,serif" font-size="14.00">content/250:92</text>
</g>
<!-- q21:21 -->
<g id="node12" class="node">
<title>q21:21</title>
<ellipse fill="none" stroke="black" stroke-width="2" cx="1943.1" cy="-225" rx="45.95" ry="18"/>
<text text-anchor="middle" x="1943.1" y="-220.32" font-family="Times,serif" font-size="14.00">q21:21</text>
</g>
<!-- q16:21&#45;&gt;q21:21 -->
<g id="edge14" class="edge">
<title>q16:21&#45;&gt;q21:21</title>
<path fill="none" stroke="black" d="M1741.4,-225C1782,-225 1841.6,-225 1885.3,-225"/>
<polygon fill="black" stroke="black" points="1885.09,-228.5 1895.09,-225 1885.09,-221.5 1885.09,-228.5"/>
<text text-anchor="middle" x="1825.2" y="-228.94" font-family="Times,serif" font-size="14.00">QUIT/221:21</text>
</g>
<!-- q25:66 -->
<g id="node13" class="node">
<title>q25:66</title>
<ellipse fill="none" stroke="black" stroke-width="2" cx="1943.1" cy="-279" rx="45.95" ry="18"/>
<text text-anchor="middle" x="1943.1" y="-274.32" font-family="Times,serif" font-size="14.00">q25:66</text>
</g>
<!-- q18:66&#45;&gt;q25:66 -->
<g id="edge15" class="edge">
<title>q18:66&#45;&gt;q25:66</title>
<path fill="none" stroke="black" d="M1741.4,-279C1782,-279 1841.6,-279 1885.3,-279"/>
<polygon fill="black" stroke="black" points="1885.09,-282.5 1895.09,-279 1885.09,-275.5 1885.09,-282.5"/>
<text text-anchor="middle" x="1825.2" y="-282.94" font-family="Times,serif" font-size="14.00">RSET/250:66</text>
</g>
<!-- q27:6 -->
<g id="node14" class="node">
<title>q27:6</title>
<ellipse fill="none" stroke="black" stroke-width="2" cx="2162.5" cy="-117" rx="39.63" ry="18"/>
<text text-anchor="middle" x="2162.5" y="-112.33" font-family="Times,serif" font-size="14.00">q27:6</text>
</g>
<!-- q23:6&#45;&gt;q27:6 -->
<g id="edge16" class="edge">
<title>q23:6&#45;&gt;q27:6</title>
<path fill="none" stroke="black" d="M1983.7,-117C2019.5,-117 2072.3,-117 2111.1,-117"/>
<polygon fill="black" stroke="black" points="2110.69,-120.5 2120.69,-117 2110.69,-113.5 2110.69,-120.5"/>
<text text-anchor="middle" x="2052.8" y="-120.95" font-family="Times,serif" font-size="14.00">RSET/250:6</text>
</g>
<!-- q28:1 -->
<g id="node15" class="node">
<title>q28:1</title>
<ellipse fill="none" stroke="black" stroke-width="2" cx="2162.5" cy="-63" rx="39.63" ry="18"/>
<text text-anchor="middle" x="2162.5" y="-58.33" font-family="Times,serif" font-size="14.00">q28:1</text>
</g>
<!-- q24:1&#45;&gt;q28:1 -->
<g id="edge17" class="edge">
<title>q24:1&#45;&gt;q28:1</title>
<path fill="none" stroke="black" d="M1983.7,-63C2019.5,-63 2072.3,-63 2111.1,-63"/>
<polygon fill="black" stroke="black" points="2110.69,-66.5 2120.69,-63 2110.69,-59.5 2110.69,-66.5"/>
<text text-anchor="middle" x="2052.8" y="-66.95" font-family="Times,serif" font-size="14.00">RSET/250:1</text>
</g>
<!-- q26:92 -->
<g id="node16" class="node">
<title>q26:92</title>
<ellipse fill="none" stroke="black" stroke-width="2" cx="2162.5" cy="-171" rx="45.95" ry="18"/>
<text text-anchor="middle" x="2162.5" y="-166.32" font-family="Times,serif" font-size="14.00">q26:92</text>
</g>
<!-- q22:92&#45;&gt;q26:92 -->
<g id="edge18" class="edge">
<title>q22:92&#45;&gt;q26:92</title>
<path fill="none" stroke="black" d="M1989.9,-171C2023.3,-171 2068.8,-171 2104.5,-171"/>
<polygon fill="black" stroke="black" points="2104.19,-174.5 2114.19,-171 2104.19,-167.5 2104.19,-174.5"/>
<text text-anchor="middle" x="2052.8" y="-174.94" font-family="Times,serif" font-size="14.00">QUIT/221:92</text>
</g>
<!-- q8:3 -->
<g id="node17" class="node">
<title>q8:3</title>
<ellipse fill="none" stroke="black" stroke-width="2" cx="954.27" cy="-126" rx="33.32" ry="18"/>
<text text-anchor="middle" x="954.27" y="-121.33" font-family="Times,serif" font-size="14.00">q8:3</text>
</g>
<!-- q11:3 -->
<g id="node18" class="node">
<title>q11:3</title>
<ellipse fill="none" stroke="black" stroke-width="2" cx="1196.5" cy="-126" rx="39.63" ry="18"/>
<text text-anchor="middle" x="1196.5" y="-121.33" font-family="Times,serif" font-size="14.00">q11:3</text>
</g>
<!-- q8:3&#45;&gt;q11:3 -->
<g id="edge19" class="edge">
<title>q8:3&#45;&gt;q11:3</title>
<path fill="none" stroke="black" d="M988.42,-126C1028.8,-126 1097.3,-126 1144.4,-126"/>
<polygon fill="black" stroke="black" points="1144.39,-129.5 1154.39,-126 1144.39,-122.5 1144.39,-129.5"/>
<text text-anchor="middle" x="1072.2" y="-129.94" font-family="Times,serif" font-size="14.00">RSET/250:3</text>
</g>
<!-- q1:244 -->
<g id="node19" class="node">
<title>q1:244</title>
<ellipse fill="none" stroke="black" stroke-width="2" cx="257.84" cy="-170" rx="45.95" ry="18"/>
<text text-anchor="middle" x="257.84" y="-165.32" font-family="Times,serif" font-size="14.00">q1:244</text>
</g>
<!-- q3:1 -->
<g id="node20" class="node">
<title>q3:1</title>
<ellipse fill="none" stroke="black" stroke-width="2" cx="491.48" cy="-143" rx="33.32" ry="18"/>
<text text-anchor="middle" x="491.48" y="-138.32" font-family="Times,serif" font-size="14.00">q3:1</text>
</g>
<!-- q1:244&#45;&gt;q3:1 -->
<g id="edge20" class="edge">
<title>q1:244&#45;&gt;q3:1</title>
<path fill="none" stroke="black" d="M298.66,-160.83C306.31,-159.29 314.27,-157.84 321.79,-156.75 363.67,-150.66 411.82,-147.07 445.93,-145.1"/>
<polygon fill="black" stroke="black" points="446.07,-148.6 455.86,-144.54 445.68,-141.61 446.07,-148.6"/>
<text text-anchor="middle" x="374.66" y="-160.94" font-family="Times,serif" font-size="14.00">EHLO/λ:1</text>
</g>
<!-- q2:243 -->
<g id="node21" class="node">
<title>q2:243</title>
<ellipse fill="none" stroke="black" stroke-width="2" cx="491.48" cy="-203" rx="45.95" ry="18"/>
<text text-anchor="middle" x="491.48" y="-198.32" font-family="Times,serif" font-size="14.00">q2:243</text>
</g>
<!-- q1:244&#45;&gt;q2:243 -->
<g id="edge21" class="edge">
<title>q1:244&#45;&gt;q2:243</title>
<path fill="none" stroke="black" d="M302.14,-176.17C340,-181.56 395.17,-189.42 436.02,-195.24"/>
<polygon fill="black" stroke="black" points="435.51,-198.7 445.9,-196.65 436.49,-191.77 435.51,-198.7"/>
<text text-anchor="middle" x="374.66" y="-196.94" font-family="Times,serif" font-size="14.00">EHLO/250:243</text>
</g>
<!-- q4:231 -->
<g id="node22" class="node">
<title>q4:231</title>
<ellipse fill="none" stroke="black" stroke-width="2" cx="725.13" cy="-136" rx="45.95" ry="18"/>
<text text-anchor="middle" x="725.13" y="-131.32" font-family="Times,serif" font-size="14.00">q4:231</text>
</g>
<!-- q3:1&#45;&gt;q4:231 -->
<g id="edge22" class="edge">
<title>q3:1&#45;&gt;q4:231</title>
<path fill="none" stroke="black" d="M523.05,-135.83C533.28,-133.75 544.79,-131.78 555.43,-130.75 593,-127.13 635.47,-128.48 668.4,-130.72"/>
<polygon fill="black" stroke="black" points="667.89,-134.19 678.12,-131.43 668.4,-127.21 667.89,-134.19"/>
<text text-anchor="middle" x="608.31" y="-134.94" font-family="Times,serif" font-size="14.00">AUTH/235:1</text>
</g>
<!-- q2:243&#45;&gt;q4:231 -->
<g id="edge23" class="edge">
<title>q2:243&#45;&gt;q4:231</title>
<path fill="none" stroke="black" d="M527.32,-190.82C536.44,-187.75 546.27,-184.54 555.43,-181.75 595.08,-169.69 640.43,-157.48 674.12,-148.71"/>
<polygon fill="black" stroke="black" points="674.8,-152.15 683.6,-146.25 673.05,-145.37 674.8,-152.15"/>
<text text-anchor="middle" x="608.31" y="-185.94" font-family="Times,serif" font-size="14.00">AUTH/235:230</text>
</g>
<!-- q5:12 -->
<g id="node23" class="node">
<title>q5:12</title>
<ellipse fill="none" stroke="black" stroke-width="2" cx="725.13" cy="-260" rx="39.63" ry="18"/>
<text text-anchor="middle" x="725.13" y="-255.32" font-family="Times,serif" font-size="14.00">q5:12</text>
</g>
<!-- q2:243&#45;&gt;q5:12 -->
<g id="edge24" class="edge">
<title>q2:243&#45;&gt;q5:12</title>
<path fill="none" stroke="black" d="M525.17,-216.01C534.82,-219.56 545.46,-223.19 555.43,-226 595.35,-237.25 641.58,-246.29 675.53,-252.22"/>
<polygon fill="black" stroke="black" points="674.61,-255.61 685.06,-253.85 675.79,-248.71 674.61,-255.61"/>
<text text-anchor="middle" x="608.31" y="-252.94" font-family="Times,serif" font-size="14.00">AUTH/535:12</text>
</g>
<!-- q6:1 -->
<g id="node24" class="node">
<title>q6:1</title>
<ellipse fill="none" stroke="black" stroke-width="2" cx="725.13" cy="-206" rx="33.32" ry="18"/>
<text text-anchor="middle" x="725.13" y="-201.32" font-family="Times,serif" font-size="14.00">q6:1</text>
</g>
<!-- q2:243&#45;&gt;q6:1 -->
<g id="edge25" class="edge">
<title>q2:243&#45;&gt;q6:1</title>
<path fill="none" stroke="black" d="M538.25,-203.59C579.17,-204.12 638.78,-204.89 679.39,-205.42"/>
<polygon fill="black" stroke="black" points="679.26,-208.92 689.31,-205.55 679.35,-201.92 679.26,-208.92"/>
<text text-anchor="middle" x="608.31" y="-208.94" font-family="Times,serif" font-size="14.00">AUTH/λ:1</text>
</g>
<!-- q4:231&#45;&gt;q8:3 -->
<g id="edge26" class="edge">
<title>q4:231&#45;&gt;q8:3</title>
<path fill="none" stroke="black" d="M768.36,-128.96C775.27,-128.05 782.36,-127.26 789.08,-126.75 829.63,-123.69 875.99,-123.81 909.08,-124.51"/>
<polygon fill="black" stroke="black" points="908.6,-128 918.69,-124.74 908.77,-121 908.6,-128"/>
<text text-anchor="middle" x="839.7" y="-130.94" font-family="Times,serif" font-size="14.00">MAIL/553:3</text>
</g>
<!-- q7:229 -->
<g id="node25" class="node">
<title>q7:229</title>
<ellipse fill="none" stroke="black" stroke-width="2" cx="954.27" cy="-193" rx="45.95" ry="18"/>
<text text-anchor="middle" x="954.27" y="-188.32" font-family="Times,serif" font-size="14.00">q7:229</text>
</g>
<!-- q4:231&#45;&gt;q7:229 -->
<g id="edge27" class="edge">
<title>q4:231&#45;&gt;q7:229</title>
<path fill="none" stroke="black" d="M766.42,-144.91C799.75,-152.43 848.26,-163.7 890.33,-174.75 895.22,-176.04 900.32,-177.43 905.4,-178.85"/>
<polygon fill="black" stroke="black" points="904.38,-182.2 914.95,-181.57 906.29,-175.46 904.38,-182.2"/>
<text text-anchor="middle" x="839.7" y="-178.94" font-family="Times,serif" font-size="14.00">MAIL/250:228</text>
</g>
<!-- q9:12 -->
<g id="node26" class="node">
<title>q9:12</title>
<ellipse fill="none" stroke="black" stroke-width="2" cx="954.27" cy="-260" rx="39.63" ry="18"/>
<text text-anchor="middle" x="954.27" y="-255.32" font-family="Times,serif" font-size="14.00">q9:12</text>
</g>
<!-- q5:12&#45;&gt;q9:12 -->
<g id="edge28" class="edge">
<title>q5:12&#45;&gt;q9:12</title>
<path fill="none" stroke="black" d="M765.69,-260C803.6,-260 861,-260 902.32,-260"/>
<polygon fill="black" stroke="black" points="902.27,-263.5 912.27,-260 902.27,-256.5 902.27,-263.5"/>
<text text-anchor="middle" x="839.7" y="-263.94" font-family="Times,serif" font-size="14.00">AUTH/334:12</text>
</g>
<!-- q6:1&#45;&gt;q7:229 -->
<g id="edge29" class="edge">
<title>q6:1&#45;&gt;q7:229</title>
<path fill="none" stroke="black" d="M759.16,-204.11C795.19,-202.05 853.5,-198.71 896.82,-196.23"/>
<polygon fill="black" stroke="black" points="896.75,-199.74 906.54,-195.68 896.36,-192.75 896.75,-199.74"/>
<text text-anchor="middle" x="839.7" y="-205.94" font-family="Times,serif" font-size="14.00">MAIL/250:1</text>
</g>
<!-- q7:229&#45;&gt;q10:229 -->
<g id="edge30" class="edge">
<title>q7:229&#45;&gt;q10:229</title>
<path fill="none" stroke="black" d="M1001.02,-193C1038.1,-193 1090.8,-193 1131.9,-193"/>
<polygon fill="black" stroke="black" points="1131.69,-196.5 1141.69,-193 1131.69,-189.5 1131.69,-196.5"/>
<text text-anchor="middle" x="1072.2" y="-196.94" font-family="Times,serif" font-size="14.00">RCPT/250:229</text>
</g>
<!-- q12:12 -->
<g id="node27" class="node">
<title>q12:12</title>
<ellipse fill="none" stroke="black" stroke-width="2" cx="1196.5" cy="-260" rx="45.95" ry="18"/>
<text text-anchor="middle" x="1196.5" y="-255.32" font-family="Times,serif" font-size="14.00">q12:12</text>
</g>
<!-- q9:12&#45;&gt;q12:12 -->
<g id="edge31" class="edge">
<title>q9:12&#45;&gt;q12:12</title>
<path fill="none" stroke="black" d="M994.67,-260C1033.8,-260 1094.1,-260 1138.4,-260"/>
<polygon fill="black" stroke="black" points="1138.39,-263.5 1148.39,-260 1138.39,-256.5 1138.39,-263.5"/>
<text text-anchor="middle" x="1072.2" y="-263.94" font-family="Times,serif" font-size="14.00">content/535:12</text>
</g>
<!-- q15:4 -->
<g id="node28" class="node">
<title>q15:4</title>
<ellipse fill="none" stroke="black" stroke-width="2" cx="1439.8" cy="-260" rx="39.63" ry="18"/>
<text text-anchor="middle" x="1439.8" y="-255.32" font-family="Times,serif" font-size="14.00">q15:4</text>
</g>
<!-- q12:12&#45;&gt;q15:4 -->
<g id="edge32" class="edge">
<title>q12:12&#45;&gt;q15:4</title>
<path fill="none" stroke="black" d="M1243.1,-260C1284.4,-260 1345.2,-260 1388,-260"/>
<polygon fill="black" stroke="black" points="1387.79,-263.5 1397.79,-260 1387.79,-256.5 1387.79,-263.5"/>
<text text-anchor="middle" x="1318.1" y="-263.94" font-family="Times,serif" font-size="14.00">λ/451:4</text>
</g>
<!-- q0:244 -->
<g id="node29" class="node">
<title>q0:244</title>
<ellipse fill="none" stroke="black" stroke-width="2" cx="53.95" cy="-170" rx="49.95" ry="49.95"/>
<ellipse fill="none" stroke="black" stroke-width="2" cx="53.95" cy="-170" rx="53.95" ry="53.95"/>
<text text-anchor="middle" x="53.95" y="-165.32" font-family="Times,serif" font-size="14.00">q0:244</text>
</g>
<!-- q0:244&#45;&gt;q1:244 -->
<g id="edge33" class="edge">
<title>q0:244&#45;&gt;q1:244</title>
<path fill="none" stroke="black" d="M104.85,-170C133.64,-170 169.94,-170 199.84,-170"/>
<polygon fill="black" stroke="black" points="199.45,-173.5 209.45,-170 199.45,-166.5 199.45,-173.5"/>
<text text-anchor="middle" x="157.89" y="-173.94" font-family="Times,serif" font-size="14.00">λ/220:244</text>
</g>
</g>
</svg>
