<?xml version="1.0" encoding="UTF-8" standalone="no"?>
<!DOCTYPE svg PUBLIC "-//W3C//DTD SVG 1.1//EN"
 "http://www.w3.org/Graphics/SVG/1.1/DTD/svg11.dtd">
<!-- Generated by graphviz version 12.0.0 (20240803.0821)
 -->
<!-- Pages: 1 -->
<svg width="2453pt" height="250pt"
 viewBox="0.00 0.00 2452.93 250.00" xmlns="http://www.w3.org/2000/svg" xmlns:xlink="http://www.w3.org/1999/xlink">
<g id="graph0" class="graph" transform="scale(1 1) rotate(0) translate(4 246)">
<polygon fill="white" stroke="none" points="-4,4 -4,-246 2448.93,-246 2448.93,4 -4,4"/>
<!-- q6:11 -->
<g id="node1" class="node">
<title>q6:11</title>
<ellipse fill="none" stroke="black" stroke-width="2" cx="725.13" cy="-67" rx="39.63" ry="18"/>
<text text-anchor="middle" x="725.13" y="-62.33" font-family="Times,serif" font-size="14.00">q6:11</text>
</g>
<!-- q10:11 -->
<g id="node2" class="node">
<title>q10:11</title>
<ellipse fill="none" stroke="black" stroke-width="2" cx="954.27" cy="-70" rx="45.95" ry="18"/>
<text text-anchor="middle" x="954.27" y="-65.33" font-family="Times,serif" font-size="14.00">q10:11</text>
</g>
<!-- q6:11&#45;&gt;q10:11 -->
<g id="edge1" class="edge">
<title>q6:11&#45;&gt;q10:11</title>
<path fill="none" stroke="black" d="M765.69,-67.52C801.75,-68 855.43,-68.71 896.14,-69.25"/>
<polygon fill="black" stroke="black" points="895.96,-72.74 906.01,-69.38 896.05,-65.74 895.96,-72.74"/>
<text text-anchor="middle" x="839.7" y="-73.95" font-family="Times,serif" font-size="14.00">AUTH/334:11</text>
</g>
<!-- q14:11 -->
<g id="node3" class="node">
<title>q14:11</title>
<ellipse fill="none" stroke="black" stroke-width="2" cx="1196.5" cy="-71" rx="45.95" ry="18"/>
<text text-anchor="middle" x="1196.5" y="-66.33" font-family="Times,serif" font-size="14.00">q14:11</text>
</g>
<!-- q10:11&#45;&gt;q14:11 -->
<g id="edge2" class="edge">
<title>q10:11&#45;&gt;q14:11</title>
<path fill="none" stroke="black" d="M1001.02,-70.19C1040.1,-70.35 1096.5,-70.59 1138.5,-70.76"/>
<polygon fill="black" stroke="black" points="1138.37,-74.26 1148.39,-70.8 1138.4,-67.26 1138.37,-74.26"/>
<text text-anchor="middle" x="1072.2" y="-74.95" font-family="Times,serif" font-size="14.00">content/535:11</text>
</g>
<!-- q18:4 -->
<g id="node4" class="node">
<title>q18:4</title>
<ellipse fill="none" stroke="black" stroke-width="2" cx="1439.8" cy="-71" rx="39.63" ry="18"/>
<text text-anchor="middle" x="1439.8" y="-66.33" font-family="Times,serif" font-size="14.00">q18:4</text>
</g>
<!-- q14:11&#45;&gt;q18:4 -->
<g id="edge3" class="edge">
<title>q14:11&#45;&gt;q18:4</title>
<path fill="none" stroke="black" d="M1243.1,-71C1284.4,-71 1345.2,-71 1388,-71"/>
<polygon fill="black" stroke="black" points="1387.79,-74.5 1397.79,-71 1387.79,-67.5 1387.79,-74.5"/>
<text text-anchor="middle" x="1318.1" y="-74.95" font-family="Times,serif" font-size="14.00">λ/451:4</text>
</g>
<!-- q4:232 -->
<g id="node5" class="node">
<title>q4:232</title>
<ellipse fill="none" stroke="black" stroke-width="2" cx="725.13" cy="-139" rx="45.95" ry="18"/>
<text text-anchor="middle" x="725.13" y="-134.32" font-family="Times,serif" font-size="14.00">q4:232</text>
</g>
<!-- q8:2 -->
<g id="node6" class="node">
<title>q8:2</title>
<ellipse fill="none" stroke="black" stroke-width="2" cx="954.27" cy="-187" rx="33.32" ry="18"/>
<text text-anchor="middle" x="954.27" y="-182.32" font-family="Times,serif" font-size="14.00">q8:2</text>
</g>
<!-- q4:232&#45;&gt;q8:2 -->
<g id="edge4" class="edge">
<title>q4:232&#45;&gt;q8:2</title>
<path fill="none" stroke="black" d="M761.88,-150.59C770.71,-153.23 780.19,-155.88 789.08,-158 829.76,-167.7 876.81,-175.68 910.09,-180.8"/>
<polygon fill="black" stroke="black" points="909.35,-184.23 919.76,-182.26 910.4,-177.31 909.35,-184.23"/>
<text text-anchor="middle" x="839.7" y="-180.94" font-family="Times,serif" font-size="14.00">MAIL/553:2</text>
</g>
<!-- q7:230 -->
<g id="node7" class="node">
<title>q7:230</title>
<ellipse fill="none" stroke="black" stroke-width="2" cx="954.27" cy="-133" rx="45.95" ry="18"/>
<text text-anchor="middle" x="954.27" y="-128.32" font-family="Times,serif" font-size="14.00">q7:230</text>
</g>
<!-- q4:232&#45;&gt;q7:230 -->
<g id="edge5" class="edge">
<title>q4:232&#45;&gt;q7:230</title>
<path fill="none" stroke="black" d="M771.82,-137.79C807.78,-136.84 858.09,-135.51 896.61,-134.5"/>
<polygon fill="black" stroke="black" points="896.23,-138.01 906.14,-134.25 896.05,-131.01 896.23,-138.01"/>
<text text-anchor="middle" x="839.7" y="-140.94" font-family="Times,serif" font-size="14.00">MAIL/250:230</text>
</g>
<!-- q12:2 -->
<g id="node8" class="node">
<title>q12:2</title>
<ellipse fill="none" stroke="black" stroke-width="2" cx="1196.5" cy="-187" rx="39.63" ry="18"/>
<text text-anchor="middle" x="1196.5" y="-182.32" font-family="Times,serif" font-size="14.00">q12:2</text>
</g>
<!-- q8:2&#45;&gt;q12:2 -->
<g id="edge6" class="edge">
<title>q8:2&#45;&gt;q12:2</title>
<path fill="none" stroke="black" d="M988.42,-187C1028.8,-187 1097.3,-187 1144.4,-187"/>
<polygon fill="black" stroke="black" points="1144.39,-190.5 1154.39,-187 1144.39,-183.5 1144.39,-190.5"/>
<text text-anchor="middle" x="1072.2" y="-190.94" font-family="Times,serif" font-size="14.00">RSET/250:2</text>
</g>
<!-- q11:230 -->
<g id="node9" class="node">
<title>q11:230</title>
<ellipse fill="none" stroke="black" stroke-width="2" cx="1196.5" cy="-133" rx="52.26" ry="18"/>
<text text-anchor="middle" x="1196.5" y="-128.32" font-family="Times,serif" font-size="14.00">q11:230</text>
</g>
<!-- q7:230&#45;&gt;q11:230 -->
<g id="edge7" class="edge">
<title>q7:230&#45;&gt;q11:230</title>
<path fill="none" stroke="black" d="M1001.02,-133C1038.1,-133 1090.8,-133 1131.9,-133"/>
<polygon fill="black" stroke="black" points="1131.69,-136.5 1141.69,-133 1131.69,-129.5 1131.69,-136.5"/>
<text text-anchor="middle" x="1072.2" y="-136.94" font-family="Times,serif" font-size="14.00">RCPT/250:230</text>
</g>
<!-- q16:3329 -->
<g id="node10" class="node">
<title>q16:3329</title>
<ellipse fill="none" stroke="black" stroke-width="2" cx="1687.8" cy="-170" rx="58.57" ry="18"/>
<text text-anchor="middle" x="1687.8" y="-165.32" font-family="Times,serif" font-size="14.00">q16:3329</text>
</g>
<!-- q11:230&#45;&gt;q16:3329 -->
<g id="edge8" class="edge">
<title>q11:230&#45;&gt;q16:3329</title>
<path fill="none" stroke="black" d="M1237.9,-144.92C1247.3,-147.29 1257.3,-149.51 1266.7,-151 1389,-170.21 1533.6,-172.31 1617.3,-171.54"/>
<polygon fill="black" stroke="black" points="1617.23,-175.04 1627.19,-171.43 1617.15,-168.04 1617.23,-175.04"/>
<text text-anchor="middle" x="1439.8" y="-173.94" font-family="Times,serif" font-size="14.00">DATA/354:68</text>
</g>
<!-- q15:162 -->
<g id="node11" class="node">
<title>q15:162</title>
<ellipse fill="none" stroke="black" stroke-width="2" cx="1439.8" cy="-125" rx="52.26" ry="18"/>
<text text-anchor="middle" x="1439.8" y="-120.33" font-family="Times,serif" font-size="14.00">q15:162</text>
</g>
<!-- q11:230&#45;&gt;q15:162 -->
<g id="edge9" class="edge">
<title>q11:230&#45;&gt;q15:162</title>
<path fill="none" stroke="black" d="M1249.2,-131.28C1286.3,-130.06 1336.4,-128.39 1375.8,-127.09"/>
<polygon fill="black" stroke="black" points="1375.71,-130.6 1385.59,-126.76 1375.47,-123.6 1375.71,-130.6"/>
<text text-anchor="middle" x="1318.1" y="-133.94" font-family="Times,serif" font-size="14.00">RCPT/250:162</text>
</g>
<!-- q16:3329&#45;&gt;q16:3329 -->
<g id="edge10" class="edge">
<title>q16:3329&#45;&gt;q16:3329</title>
<path fill="none" stroke="black" d="M1665.1,-187.41C1660.9,-197.09 1668.5,-206 1687.8,-206 1699,-206 1706.3,-203.02 1709.6,-198.64"/>
<polygon fill="black" stroke="black" points="1713.07,-199.17 1710.38,-188.92 1706.09,-198.61 1713.07,-199.17"/>
<text text-anchor="middle" x="1687.8" y="-209.94" font-family="Times,serif" font-size="14.00">content/λ:3143</text>
</g>
<!-- q20:58 -->
<g id="node12" class="node">
<title>q20:58</title>
<ellipse fill="none" stroke="black" stroke-width="2" cx="1951.7" cy="-224" rx="45.95" ry="18"/>
<text text-anchor="middle" x="1951.7" y="-219.32" font-family="Times,serif" font-size="14.00">q20:58</text>
</g>
<!-- q16:3329&#45;&gt;q20:58 -->
<g id="edge11" class="edge">
<title>q16:3329&#45;&gt;q20:58</title>
<path fill="none" stroke="black" d="M1731.8,-182.71C1742.4,-185.63 1753.8,-188.59 1764.4,-191 1808.5,-201.01 1859.1,-209.81 1896.4,-215.79"/>
<polygon fill="black" stroke="black" points="1895.58,-219.2 1906,-217.32 1896.68,-212.29 1895.58,-219.2"/>
<text text-anchor="middle" x="1822.9" y="-216.94" font-family="Times,serif" font-size="14.00">content/554:58</text>
</g>
<!-- q22:1 -->
<g id="node13" class="node">
<title>q22:1</title>
<ellipse fill="none" stroke="black" stroke-width="2" cx="1951.7" cy="-170" rx="39.63" ry="18"/>
<text text-anchor="middle" x="1951.7" y="-165.32" font-family="Times,serif" font-size="14.00">q22:1</text>
</g>
<!-- q16:3329&#45;&gt;q22:1 -->
<g id="edge12" class="edge">
<title>q16:3329&#45;&gt;q22:1</title>
<path fill="none" stroke="black" d="M1747.3,-170C1793,-170 1855.9,-170 1899.6,-170"/>
<polygon fill="black" stroke="black" points="1899.59,-173.5 1909.59,-170 1899.59,-166.5 1899.59,-173.5"/>
<text text-anchor="middle" x="1822.9" y="-173.94" font-family="Times,serif" font-size="14.00">content/550:1</text>
</g>
<!-- q21:127 -->
<g id="node14" class="node">
<title>q21:127</title>
<ellipse fill="none" stroke="black" stroke-width="2" cx="1951.7" cy="-116" rx="52.26" ry="18"/>
<text text-anchor="middle" x="1951.7" y="-111.33" font-family="Times,serif" font-size="14.00">q21:127</text>
</g>
<!-- q16:3329&#45;&gt;q21:127 -->
<g id="edge13" class="edge">
<title>q16:3329&#45;&gt;q21:127</title>
<path fill="none" stroke="black" d="M1731.4,-157.22C1742.1,-154.23 1753.6,-151.2 1764.4,-148.75 1806.6,-139.13 1854.8,-130.73 1891.5,-124.85"/>
<polygon fill="black" stroke="black" points="1891.77,-128.35 1901.1,-123.34 1890.68,-121.44 1891.77,-128.35"/>
<text text-anchor="middle" x="1822.9" y="-151.94" font-family="Times,serif" font-size="14.00">content/250:127</text>
</g>
<!-- q15:162&#45;&gt;q16:3329 -->
<g id="edge27" class="edge">
<title>q15:162&#45;&gt;q16:3329</title>
<path fill="none" stroke="black" d="M1491.1,-129.66C1525.2,-133.32 1571.2,-139.24 1611.3,-147.75 1619,-149.39 1627.1,-151.43 1635,-153.59"/>
<polygon fill="black" stroke="black" points="1633.87,-156.91 1644.44,-156.3 1635.8,-150.18 1633.87,-156.91"/>
<text text-anchor="middle" x="1560.6" y="-150.94" font-family="Times,serif" font-size="14.00">DATA/354:118</text>
</g>
<!-- q9:10 -->
<g id="node23" class="node">
<title>q9:10</title>
<ellipse fill="none" stroke="black" stroke-width="2" cx="1687.8" cy="-18" rx="39.63" ry="18"/>
<text text-anchor="middle" x="1687.8" y="-13.32" font-family="Times,serif" font-size="14.00">q9:10</text>
</g>
<!-- q15:162&#45;&gt;q9:10 -->
<g id="edge28" class="edge">
<title>q15:162&#45;&gt;q9:10</title>
<path fill="none" stroke="black" d="M1472,-109.92C1478.8,-106.29 1485.8,-102.22 1492,-98 1500.7,-92.13 1500.9,-88.02 1510,-82.75 1551.8,-58.46 1604.2,-40.65 1641.1,-29.92"/>
<polygon fill="black" stroke="black" points="1641.88,-33.33 1650.54,-27.23 1639.97,-26.6 1641.88,-33.33"/>
<text text-anchor="middle" x="1560.6" y="-86.95" font-family="Times,serif" font-size="14.00">RCPT/250:1</text>
</g>
<!-- q19:43 -->
<g id="node25" class="node">
<title>q19:43</title>
<ellipse fill="none" stroke="black" stroke-width="2" cx="1687.8" cy="-107" rx="45.95" ry="18"/>
<text text-anchor="middle" x="1687.8" y="-102.33" font-family="Times,serif" font-size="14.00">q19:43</text>
</g>
<!-- q15:162&#45;&gt;q19:43 -->
<g id="edge29" class="edge">
<title>q15:162&#45;&gt;q19:43</title>
<path fill="none" stroke="black" d="M1481.1,-113.23C1490.5,-110.96 1500.5,-108.93 1510,-107.75 1550,-102.76 1595.4,-102.69 1630.2,-103.8"/>
<polygon fill="black" stroke="black" points="1629.96,-107.29 1640.09,-104.16 1630.22,-100.3 1629.96,-107.29"/>
<text text-anchor="middle" x="1560.6" y="-110.95" font-family="Times,serif" font-size="14.00">DATA/550:43</text>
</g>
<!-- q24:58 -->
<g id="node15" class="node">
<title>q24:58</title>
<ellipse fill="none" stroke="black" stroke-width="2" cx="2192.7" cy="-224" rx="45.95" ry="18"/>
<text text-anchor="middle" x="2192.7" y="-219.32" font-family="Times,serif" font-size="14.00">q24:58</text>
</g>
<!-- q20:58&#45;&gt;q24:58 -->
<g id="edge14" class="edge">
<title>q20:58&#45;&gt;q24:58</title>
<path fill="none" stroke="black" d="M1998.5,-224C2037.3,-224 2093,-224 2134.7,-224"/>
<polygon fill="black" stroke="black" points="2134.49,-227.5 2144.49,-224 2134.49,-220.5 2134.49,-227.5"/>
<text text-anchor="middle" x="2072.2" y="-227.94" font-family="Times,serif" font-size="14.00">RSET/250:58</text>
</g>
<!-- q26:1 -->
<g id="node16" class="node">
<title>q26:1</title>
<ellipse fill="none" stroke="black" stroke-width="2" cx="2192.7" cy="-170" rx="39.63" ry="18"/>
<text text-anchor="middle" x="2192.7" y="-165.32" font-family="Times,serif" font-size="14.00">q26:1</text>
</g>
<!-- q22:1&#45;&gt;q26:1 -->
<g id="edge15" class="edge">
<title>q22:1&#45;&gt;q26:1</title>
<path fill="none" stroke="black" d="M1992.1,-170C2032.8,-170 2096.3,-170 2140.7,-170"/>
<polygon fill="black" stroke="black" points="2140.69,-173.5 2150.69,-170 2140.69,-166.5 2140.69,-173.5"/>
<text text-anchor="middle" x="2072.2" y="-173.94" font-family="Times,serif" font-size="14.00">RSET/250:1</text>
</g>
<!-- q25:127 -->
<g id="node17" class="node">
<title>q25:127</title>
<ellipse fill="none" stroke="black" stroke-width="2" cx="2192.7" cy="-116" rx="52.26" ry="18"/>
<text text-anchor="middle" x="2192.7" y="-111.33" font-family="Times,serif" font-size="14.00">q25:127</text>
</g>
<!-- q21:127&#45;&gt;q25:127 -->
<g id="edge16" class="edge">
<title>q21:127&#45;&gt;q25:127</title>
<path fill="none" stroke="black" d="M2004.8,-116C2041.2,-116 2090,-116 2128.5,-116"/>
<polygon fill="black" stroke="black" points="2128.09,-119.5 2138.09,-116 2128.09,-112.5 2128.09,-119.5"/>
<text text-anchor="middle" x="2072.2" y="-119.95" font-family="Times,serif" font-size="14.00">QUIT/221:127</text>
</g>
<!-- q0:244 -->
<g id="node18" class="node">
<title>q0:244</title>
<ellipse fill="none" stroke="black" stroke-width="2" cx="53.95" cy="-104" rx="49.95" ry="49.95"/>
<ellipse fill="none" stroke="black" stroke-width="2" cx="53.95" cy="-104" rx="53.95" ry="53.95"/>
<text text-anchor="middle" x="53.95" y="-99.33" font-family="Times,serif" font-size="14.00">q0:244</text>
</g>
<!-- q1:244 -->
<g id="node19" class="node">
<title>q1:244</title>
<ellipse fill="none" stroke="black" stroke-width="2" cx="257.84" cy="-104" rx="45.95" ry="18"/>
<text text-anchor="middle" x="257.84" y="-99.33" font-family="Times,serif" font-size="14.00">q1:244</text>
</g>
<!-- q0:244&#45;&gt;q1:244 -->
<g id="edge17" class="edge">
<title>q0:244&#45;&gt;q1:244</title>
<path fill="none" stroke="black" d="M104.85,-104C133.64,-104 169.94,-104 199.84,-104"/>
<polygon fill="black" stroke="black" points="199.45,-107.5 209.45,-104 199.45,-100.5 199.45,-107.5"/>
<text text-anchor="middle" x="157.89" y="-107.95" font-family="Times,serif" font-size="14.00">λ/220:244</text>
</g>
<!-- q2:2 -->
<g id="node20" class="node">
<title>q2:2</title>
<ellipse fill="none" stroke="black" stroke-width="2" cx="491.48" cy="-137" rx="33.32" ry="18"/>
<text text-anchor="middle" x="491.48" y="-132.32" font-family="Times,serif" font-size="14.00">q2:2</text>
</g>
<!-- q1:244&#45;&gt;q2:2 -->
<g id="edge18" class="edge">
<title>q1:244&#45;&gt;q2:2</title>
<path fill="none" stroke="black" d="M302.14,-110.17C343.47,-116.06 405.4,-124.88 446.84,-130.78"/>
<polygon fill="black" stroke="black" points="446.33,-134.24 456.72,-132.19 447.31,-127.31 446.33,-134.24"/>
<text text-anchor="middle" x="374.66" y="-130.94" font-family="Times,serif" font-size="14.00">EHLO/λ:2</text>
</g>
<!-- q3:242 -->
<g id="node21" class="node">
<title>q3:242</title>
<ellipse fill="none" stroke="black" stroke-width="2" cx="491.48" cy="-77" rx="45.95" ry="18"/>
<text text-anchor="middle" x="491.48" y="-72.33" font-family="Times,serif" font-size="14.00">q3:242</text>
</g>
<!-- q1:244&#45;&gt;q3:242 -->
<g id="edge19" class="edge">
<title>q1:244&#45;&gt;q3:242</title>
<path fill="none" stroke="black" d="M298.66,-94.83C306.31,-93.29 314.27,-91.84 321.79,-90.75 358.85,-85.36 400.83,-81.93 433.64,-79.84"/>
<polygon fill="black" stroke="black" points="433.56,-83.35 443.33,-79.25 433.13,-76.37 433.56,-83.35"/>
<text text-anchor="middle" x="374.66" y="-94.95" font-family="Times,serif" font-size="14.00">EHLO/250:242</text>
</g>
<!-- q2:2&#45;&gt;q4:232 -->
<g id="edge20" class="edge">
<title>q2:2&#45;&gt;q4:232</title>
<path fill="none" stroke="black" d="M525.67,-137.29C562.42,-137.6 622.33,-138.12 666.72,-138.5"/>
<polygon fill="black" stroke="black" points="666.68,-142 676.71,-138.59 666.74,-135 666.68,-142"/>
<text text-anchor="middle" x="608.31" y="-141.94" font-family="Times,serif" font-size="14.00">AUTH/235:2</text>
</g>
<!-- q3:242&#45;&gt;q6:11 -->
<g id="edge21" class="edge">
<title>q3:242&#45;&gt;q6:11</title>
<path fill="none" stroke="black" d="M532.61,-68C540.16,-66.65 548.01,-65.47 555.43,-64.75 595.07,-60.93 640.19,-61.8 673.79,-63.46"/>
<polygon fill="black" stroke="black" points="673.48,-66.95 683.66,-63.99 673.86,-59.96 673.48,-66.95"/>
<text text-anchor="middle" x="608.31" y="-68.95" font-family="Times,serif" font-size="14.00">AUTH/535:11</text>
</g>
<!-- q3:242&#45;&gt;q4:232 -->
<g id="edge22" class="edge">
<title>q3:242&#45;&gt;q4:232</title>
<path fill="none" stroke="black" d="M533.77,-84.94C568.17,-91.93 618.27,-102.96 661.18,-115.75 667.55,-117.65 674.2,-119.85 680.69,-122.14"/>
<polygon fill="black" stroke="black" points="679.38,-125.39 689.98,-125.5 681.76,-118.81 679.38,-125.39"/>
<text text-anchor="middle" x="608.31" y="-118.95" font-family="Times,serif" font-size="14.00">AUTH/235:230</text>
</g>
<!-- q5:1 -->
<g id="node22" class="node">
<title>q5:1</title>
<ellipse fill="none" stroke="black" stroke-width="2" cx="839.7" cy="-20" rx="33.32" ry="18"/>
<text text-anchor="middle" x="839.7" y="-15.32" font-family="Times,serif" font-size="14.00">q5:1</text>
</g>
<!-- q3:242&#45;&gt;q5:1 -->
<g id="edge23" class="edge">
<title>q3:242&#45;&gt;q5:1</title>
<path fill="none" stroke="black" d="M515.6,-60.86C527.05,-53.72 541.4,-45.99 555.43,-41.75 636.98,-17.1 737.43,-15.81 794.16,-17.58"/>
<polygon fill="black" stroke="black" points="793.95,-21.08 804.07,-17.94 794.2,-14.08 793.95,-21.08"/>
<text text-anchor="middle" x="608.31" y="-45.95" font-family="Times,serif" font-size="14.00">AUTH/λ:1</text>
</g>
<!-- q5:1&#45;&gt;q9:10 -->
<g id="edge24" class="edge">
<title>q5:1&#45;&gt;q9:10</title>
<path fill="none" stroke="black" d="M873.91,-19.53C918.71,-18.94 1000.98,-18 1071.2,-18 1071.2,-18 1071.2,-18 1440.8,-18 1508.4,-18 1586.5,-18 1636.2,-18"/>
<polygon fill="black" stroke="black" points="1636.09,-21.5 1646.09,-18 1636.09,-14.5 1636.09,-21.5"/>
<text text-anchor="middle" x="1196.5" y="-21.95" font-family="Times,serif" font-size="14.00">MAIL/250:1</text>
</g>
<!-- q9:10&#45;&gt;q9:10 -->
<g id="edge25" class="edge">
<title>q9:10&#45;&gt;q9:10</title>
<path fill="none" stroke="black" d="M1665.9,-33.92C1660.1,-44.15 1667.5,-54 1687.8,-54 1700.2,-54 1707.8,-50.34 1710.5,-45.17"/>
<polygon fill="black" stroke="black" points="1714.01,-45.19 1709.89,-35.43 1707.02,-45.62 1714.01,-45.19"/>
<text text-anchor="middle" x="1687.8" y="-57.95" font-family="Times,serif" font-size="14.00">RCPT/250:8</text>
</g>
<!-- q13:2 -->
<g id="node24" class="node">
<title>q13:2</title>
<ellipse fill="none" stroke="black" stroke-width="2" cx="1951.7" cy="-18" rx="39.63" ry="18"/>
<text text-anchor="middle" x="1951.7" y="-13.32" font-family="Times,serif" font-size="14.00">q13:2</text>
</g>
<!-- q9:10&#45;&gt;q13:2 -->
<g id="edge26" class="edge">
<title>q9:10&#45;&gt;q13:2</title>
<path fill="none" stroke="black" d="M1728.3,-18C1774.2,-18 1849.9,-18 1900.1,-18"/>
<polygon fill="black" stroke="black" points="1899.79,-21.5 1909.79,-18 1899.79,-14.5 1899.79,-21.5"/>
<text text-anchor="middle" x="1822.9" y="-21.95" font-family="Times,serif" font-size="14.00">DATA/354:2</text>
</g>
<!-- q17:2 -->
<g id="node26" class="node">
<title>q17:2</title>
<ellipse fill="none" stroke="black" stroke-width="2" cx="2192.7" cy="-18" rx="39.63" ry="18"/>
<text text-anchor="middle" x="2192.7" y="-13.32" font-family="Times,serif" font-size="14.00">q17:2</text>
</g>
<!-- q13:2&#45;&gt;q17:2 -->
<g id="edge30" class="edge">
<title>q13:2&#45;&gt;q17:2</title>
<path fill="none" stroke="black" d="M1992.1,-18C2032.8,-18 2096.3,-18 2140.7,-18"/>
<polygon fill="black" stroke="black" points="2140.69,-21.5 2150.69,-18 2140.69,-14.5 2140.69,-21.5"/>
<text text-anchor="middle" x="2072.2" y="-21.95" font-family="Times,serif" font-size="14.00">content/554:2</text>
</g>
<!-- q23:2 -->
<g id="node27" class="node">
<title>q23:2</title>
<ellipse fill="none" stroke="black" stroke-width="2" cx="2405.3" cy="-18" rx="39.63" ry="18"/>
<text text-anchor="middle" x="2405.3" y="-13.32" font-family="Times,serif" font-size="14.00">q23:2</text>
</g>
<!-- q17:2&#45;&gt;q23:2 -->
<g id="edge31" class="edge">
<title>q17:2&#45;&gt;q23:2</title>
<path fill="none" stroke="black" d="M2233.3,-18C2267.4,-18 2316.9,-18 2353.9,-18"/>
<polygon fill="black" stroke="black" points="2353.39,-21.5 2363.39,-18 2353.39,-14.5 2353.39,-21.5"/>
<text text-anchor="middle" x="2305.3" y="-21.95" font-family="Times,serif" font-size="14.00">RSET/250:2</text>
</g>
</g>
</svg>
