<?xml version="1.0" encoding="UTF-8" standalone="no"?>
<!DOCTYPE svg PUBLIC "-//W3C//DTD SVG 1.1//EN"
 "http://www.w3.org/Graphics/SVG/1.1/DTD/svg11.dtd">
<!-- Generated by graphviz version 12.0.0 (20240803.0821)
 -->
<!-- Pages: 1 -->
<svg width="5783pt" height="594pt"
 viewBox="0.00 0.00 5782.96 593.67" xmlns="http://www.w3.org/2000/svg" xmlns:xlink="http://www.w3.org/1999/xlink">
<g id="graph0" class="graph" transform="scale(1 1) rotate(0) translate(4 589.67)">
<polygon fill="white" stroke="none" points="-4,4 -4,-589.67 5778.96,-589.67 5778.96,4 -4,4"/>
<!-- q6:230 -->
<g id="node1" class="node">
<title>q6:230</title>
<ellipse fill="none" stroke="black" stroke-width="2" cx="1681.4" cy="-249.63" rx="45.95" ry="18"/>
<text text-anchor="middle" x="1681.4" y="-244.96" font-family="Times,serif" font-size="14.00">q6:230</text>
</g>
<!-- q9:227 -->
<g id="node2" class="node">
<title>q9:227</title>
<ellipse fill="none" stroke="black" stroke-width="2" cx="2530.8" cy="-283.63" rx="45.95" ry="18"/>
<text text-anchor="middle" x="2530.8" y="-278.96" font-family="Times,serif" font-size="14.00">q9:227</text>
</g>
<!-- q6:230&#45;&gt;q9:227 -->
<g id="edge1" class="edge">
<title>q6:230&#45;&gt;q9:227</title>
<path fill="none" stroke="black" d="M1722.9,-258.34C1730.3,-259.65 1738,-260.83 1745.3,-261.63 1816.8,-269.4 2304.1,-279.32 2472.6,-282.56"/>
<polygon fill="black" stroke="black" points="2472.32,-286.05 2482.39,-282.75 2472.46,-279.05 2472.32,-286.05"/>
<text text-anchor="middle" x="2106.1" y="-320.08" font-family="Times,serif" font-size="14.00">MAIL/250:227</text>
<text text-anchor="middle" x="2106.1" y="-302.83" font-family="Times,serif" font-size="14.00">a0 in {&#39;FROM:&lt;Az6161@126.com&gt;&#39;, &#39;FROM:&lt;Az6161@sina.com&gt;&#39;}</text>
<text text-anchor="middle" x="2106.1" y="-285.58" font-family="Times,serif" font-size="14.00">b0 in {&#39;Mail OK&#39;, &#39;ok&#39;}</text>
</g>
<!-- q10:3 -->
<g id="node3" class="node">
<title>q10:3</title>
<ellipse fill="none" stroke="black" stroke-width="2" cx="2530.8" cy="-208.64" rx="39.63" ry="18"/>
<text text-anchor="middle" x="2530.8" y="-203.96" font-family="Times,serif" font-size="14.00">q10:3</text>
</g>
<!-- q6:230&#45;&gt;q10:3 -->
<g id="edge2" class="edge">
<title>q6:230&#45;&gt;q10:3</title>
<path fill="none" stroke="black" d="M1700.6,-232.49C1712.4,-222.61 1728.6,-211.14 1745.3,-205.89 2013.4,-121.86 2358.9,-175.06 2482.9,-198.87"/>
<polygon fill="black" stroke="black" points="2481.83,-202.22 2492.31,-200.71 2483.18,-195.35 2481.83,-202.22"/>
<text text-anchor="middle" x="2106.1" y="-245.08" font-family="Times,serif" font-size="14.00">MAIL/553:3</text>
<text text-anchor="middle" x="2106.1" y="-227.83" font-family="Times,serif" font-size="14.00">a0 in {&#39;FROM:&lt;Az_6161@sina.com&gt;&#39;, &#39;FROM:&lt;Az_6161@126.com&gt;&#39;, &#39;FROM:&lt;Az6161@163.com&gt;&#39;}</text>
<text text-anchor="middle" x="2106.1" y="-210.58" font-family="Times,serif" font-size="14.00">b0 in {&#39;Mail from must equal authorized user&#39;, &#39;Envolope sender mismatch with login user..&#39;}</text>
</g>
<!-- q13:227 -->
<g id="node4" class="node">
<title>q13:227</title>
<ellipse fill="none" stroke="black" stroke-width="2" cx="3427.6" cy="-283.63" rx="52.26" ry="18"/>
<text text-anchor="middle" x="3427.6" y="-278.96" font-family="Times,serif" font-size="14.00">q13:227</text>
</g>
<!-- q9:227&#45;&gt;q13:227 -->
<g id="edge3" class="edge">
<title>q9:227&#45;&gt;q13:227</title>
<path fill="none" stroke="black" d="M2577.7,-283.63C2726,-283.63 3192.6,-283.63 3363.2,-283.63"/>
<polygon fill="black" stroke="black" points="3362.99,-287.14 3372.99,-283.64 3362.99,-280.14 3362.99,-287.14"/>
<text text-anchor="middle" x="2942" y="-322.08" font-family="Times,serif" font-size="14.00">RCPT/250:227</text>
<text text-anchor="middle" x="2942" y="-304.83" font-family="Times,serif" font-size="14.00">a0 in {&#39;TO:&lt;574702257@qq.com&gt;&#39;, &#39;TO:&lt;1542110793@qq.com&gt;&#39;, &#39;TO:&lt;574702256@qq.com&gt;&#39;}</text>
<text text-anchor="middle" x="2942" y="-287.58" font-family="Times,serif" font-size="14.00">b0 in {&#39;Mail OK&#39;, &#39;ok&#39;}</text>
</g>
<!-- q14:3 -->
<g id="node5" class="node">
<title>q14:3</title>
<ellipse fill="none" stroke="black" stroke-width="2" cx="3427.6" cy="-208.64" rx="39.63" ry="18"/>
<text text-anchor="middle" x="3427.6" y="-203.96" font-family="Times,serif" font-size="14.00">q14:3</text>
</g>
<!-- q10:3&#45;&gt;q14:3 -->
<g id="edge4" class="edge">
<title>q10:3&#45;&gt;q14:3</title>
<path fill="none" stroke="black" d="M2571.4,-208.64C2715.8,-208.64 3214.3,-208.64 3375.7,-208.64"/>
<polygon fill="black" stroke="black" points="3375.69,-212.14 3385.69,-208.64 3375.69,-205.14 3375.69,-212.14"/>
<text text-anchor="middle" x="2942" y="-229.84" font-family="Times,serif" font-size="14.00">RSET/250:3</text>
<text text-anchor="middle" x="2942" y="-212.59" font-family="Times,serif" font-size="14.00">b0 in {&#39;flushed&#39;, &#39;OK&#39;}</text>
</g>
<!-- q19:162 -->
<g id="node6" class="node">
<title>q19:162</title>
<ellipse fill="none" stroke="black" stroke-width="2" cx="3793" cy="-153.63" rx="52.26" ry="18"/>
<text text-anchor="middle" x="3793" y="-148.96" font-family="Times,serif" font-size="14.00">q19:162</text>
</g>
<!-- q13:227&#45;&gt;q19:162 -->
<g id="edge5" class="edge">
<title>q13:227&#45;&gt;q19:162</title>
<path fill="none" stroke="black" d="M3465.4,-270.45C3531.7,-246.75 3670.8,-196.98 3744.3,-170.71"/>
<polygon fill="black" stroke="black" points="3745.36,-174.04 3753.58,-167.36 3742.98,-167.46 3745.36,-174.04"/>
<text text-anchor="middle" x="3644.3" y="-254.83" font-family="Times,serif" font-size="14.00">RCPT/250:162</text>
<text text-anchor="middle" x="3644.3" y="-237.58" font-family="Times,serif" font-size="14.00">b0 in {&#39;Mail OK&#39;, &#39;ok&#39;}</text>
</g>
<!-- q11:3213 -->
<g id="node7" class="node">
<title>q11:3213</title>
<ellipse fill="none" stroke="black" stroke-width="2" cx="5109.8" cy="-206.63" rx="58.57" ry="18"/>
<text text-anchor="middle" x="5109.8" y="-201.96" font-family="Times,serif" font-size="14.00">q11:3213</text>
</g>
<!-- q13:227&#45;&gt;q11:3213 -->
<g id="edge6" class="edge">
<title>q13:227&#45;&gt;q11:3213</title>
<path fill="none" stroke="black" d="M3480.4,-286.06C3652.6,-293.62 4221.9,-314.67 4691.2,-286.63 4844.1,-277.5 4886.9,-290.56 5033.2,-245.64 5046.4,-241.58 5060.1,-235.28 5072.1,-228.92"/>
<polygon fill="black" stroke="black" points="5073.8,-231.97 5080.87,-224.08 5070.43,-225.84 5073.8,-231.97"/>
<text text-anchor="middle" x="4106.2" y="-321.83" font-family="Times,serif" font-size="14.00">DATA/354:65</text>
<text text-anchor="middle" x="4106.2" y="-304.58" font-family="Times,serif" font-size="14.00">b0 = End data with &lt;CR&gt;&lt;LF&gt;.&lt;CR&gt;&lt;LF&gt;</text>
</g>
<!-- q19:162&#45;&gt;q11:3213 -->
<g id="edge7" class="edge">
<title>q19:162&#45;&gt;q11:3213</title>
<path fill="none" stroke="black" d="M3845.2,-150.19C3982.4,-141.62 4370,-121.6 4691.2,-145.13 4819,-154.49 4966.9,-179.74 5048,-194.81"/>
<polygon fill="black" stroke="black" points="5046.94,-198.18 5057.41,-196.59 5048.24,-191.3 5046.94,-198.18"/>
<text text-anchor="middle" x="4529.2" y="-166.83" font-family="Times,serif" font-size="14.00">DATA/354:118</text>
<text text-anchor="middle" x="4529.2" y="-149.58" font-family="Times,serif" font-size="14.00">b0 = End data with &lt;CR&gt;&lt;LF&gt;.&lt;CR&gt;&lt;LF&gt;</text>
</g>
<!-- q7:10 -->
<g id="node8" class="node">
<title>q7:10</title>
<ellipse fill="none" stroke="black" stroke-width="2" cx="4529.2" cy="-206.63" rx="39.63" ry="18"/>
<text text-anchor="middle" x="4529.2" y="-201.96" font-family="Times,serif" font-size="14.00">q7:10</text>
</g>
<!-- q19:162&#45;&gt;q7:10 -->
<g id="edge8" class="edge">
<title>q19:162&#45;&gt;q7:10</title>
<path fill="none" stroke="black" d="M3845,-157.31C3979.8,-167.05 4344.1,-193.34 4478,-203"/>
<polygon fill="black" stroke="black" points="4477.76,-206.5 4487.99,-203.73 4478.27,-199.52 4477.76,-206.5"/>
<text text-anchor="middle" x="4106.2" y="-231.08" font-family="Times,serif" font-size="14.00">RCPT/250:1</text>
<text text-anchor="middle" x="4106.2" y="-213.83" font-family="Times,serif" font-size="14.00">a0 = TO:&lt;1542110795@qq.com&gt;</text>
<text text-anchor="middle" x="4106.2" y="-196.58" font-family="Times,serif" font-size="14.00">b0 = Mail OK</text>
</g>
<!-- q23:43 -->
<g id="node9" class="node">
<title>q23:43</title>
<ellipse fill="none" stroke="black" stroke-width="2" cx="4529.2" cy="-81.63" rx="45.95" ry="18"/>
<text text-anchor="middle" x="4529.2" y="-76.96" font-family="Times,serif" font-size="14.00">q23:43</text>
</g>
<!-- q19:162&#45;&gt;q23:43 -->
<g id="edge9" class="edge">
<title>q19:162&#45;&gt;q23:43</title>
<path fill="none" stroke="black" d="M3806.6,-135.3C3819,-119.2 3839.3,-96.88 3863.2,-87.13 4077.2,0 4363.1,-45.74 4477.6,-69.85"/>
<polygon fill="black" stroke="black" points="4476.81,-73.26 4487.32,-71.94 4478.28,-66.42 4476.81,-73.26"/>
<text text-anchor="middle" x="4106.2" y="-108.83" font-family="Times,serif" font-size="14.00">DATA/550:43</text>
<text text-anchor="middle" x="4106.2" y="-91.58" font-family="Times,serif" font-size="14.00">b0 in {&#39;too many message send today.&#39;, &#39;Sender frequency limited.&#39;}</text>
</g>
<!-- q11:3213&#45;&gt;q11:3213 -->
<g id="edge10" class="edge">
<title>q11:3213&#45;&gt;q11:3213</title>
<path fill="none" stroke="black" d="M5077.5,-222.18C5068.4,-232.55 5079.2,-242.64 5109.8,-242.64 5129,-242.64 5140.4,-238.7 5144,-233.21"/>
<polygon fill="black" stroke="black" points="5147.5,-232.93 5142.36,-223.67 5140.6,-234.12 5147.5,-232.93"/>
<text text-anchor="middle" x="5109.8" y="-263.83" font-family="Times,serif" font-size="14.00">content/λ:3028</text>
<text text-anchor="middle" x="5109.8" y="-246.58" font-family="Times,serif" font-size="14.00">a0 = b0</text>
</g>
<!-- q17:134 -->
<g id="node10" class="node">
<title>q17:134</title>
<ellipse fill="none" stroke="black" stroke-width="2" cx="5481.6" cy="-262.63" rx="52.26" ry="18"/>
<text text-anchor="middle" x="5481.6" y="-257.96" font-family="Times,serif" font-size="14.00">q17:134</text>
</g>
<!-- q11:3213&#45;&gt;q17:134 -->
<g id="edge11" class="edge">
<title>q11:3213&#45;&gt;q17:134</title>
<path fill="none" stroke="black" d="M5152.9,-219.56C5163.7,-222.55 5175.4,-225.48 5186.4,-227.64 5265.7,-243.28 5358.5,-252.9 5418.4,-258"/>
<polygon fill="black" stroke="black" points="5417.73,-261.46 5427.99,-258.81 5418.32,-254.49 5417.73,-261.46"/>
<text text-anchor="middle" x="5298.9" y="-260.58" font-family="Times,serif" font-size="14.00">content/250:134</text>
</g>
<!-- q16:50 -->
<g id="node11" class="node">
<title>q16:50</title>
<ellipse fill="none" stroke="black" stroke-width="2" cx="5481.6" cy="-206.63" rx="45.95" ry="18"/>
<text text-anchor="middle" x="5481.6" y="-201.96" font-family="Times,serif" font-size="14.00">q16:50</text>
</g>
<!-- q11:3213&#45;&gt;q16:50 -->
<g id="edge12" class="edge">
<title>q11:3213&#45;&gt;q16:50</title>
<path fill="none" stroke="black" d="M5169,-206.64C5238.7,-206.64 5354.5,-206.64 5423.7,-206.64"/>
<polygon fill="black" stroke="black" points="5423.29,-210.14 5433.29,-206.64 5423.29,-203.14 5423.29,-210.14"/>
<text text-anchor="middle" x="5298.9" y="-210.58" font-family="Times,serif" font-size="14.00">content/554:50</text>
</g>
<!-- q15:1 -->
<g id="node12" class="node">
<title>q15:1</title>
<ellipse fill="none" stroke="black" stroke-width="2" cx="5481.6" cy="-148.63" rx="39.63" ry="18"/>
<text text-anchor="middle" x="5481.6" y="-143.96" font-family="Times,serif" font-size="14.00">q15:1</text>
</g>
<!-- q11:3213&#45;&gt;q15:1 -->
<g id="edge13" class="edge">
<title>q11:3213&#45;&gt;q15:1</title>
<path fill="none" stroke="black" d="M5137,-189.95C5151.1,-181.87 5169.1,-172.91 5186.4,-168.14 5269.7,-145.19 5371,-144.03 5430.4,-145.9"/>
<polygon fill="black" stroke="black" points="5430.07,-149.39 5440.19,-146.24 5430.32,-142.39 5430.07,-149.39"/>
<text text-anchor="middle" x="5298.9" y="-189.84" font-family="Times,serif" font-size="14.00">content/550:1</text>
<text text-anchor="middle" x="5298.9" y="-172.59" font-family="Times,serif" font-size="14.00">b0 = Sender frequency limited.</text>
</g>
<!-- q7:10&#45;&gt;q11:3213 -->
<g id="edge14" class="edge">
<title>q7:10&#45;&gt;q11:3213</title>
<path fill="none" stroke="black" d="M4569.6,-206.64C4666.1,-206.64 4916.1,-206.64 5038.8,-206.64"/>
<polygon fill="black" stroke="black" points="5038.79,-210.14 5048.79,-206.64 5038.79,-203.14 5038.79,-210.14"/>
<text text-anchor="middle" x="4871.2" y="-227.84" font-family="Times,serif" font-size="14.00">DATA/354:2</text>
<text text-anchor="middle" x="4871.2" y="-210.59" font-family="Times,serif" font-size="14.00">b0 = End data with &lt;CR&gt;&lt;LF&gt;.&lt;CR&gt;&lt;LF&gt;</text>
</g>
<!-- q7:10&#45;&gt;q7:10 -->
<g id="edge15" class="edge">
<title>q7:10&#45;&gt;q7:10</title>
<path fill="none" stroke="black" d="M4492.1,-213.88C4446.4,-226.33 4458.8,-242.64 4529.2,-242.64 4593.4,-242.64 4609.4,-229.12 4577.3,-217.31"/>
<polygon fill="black" stroke="black" points="4578.43,-214 4567.84,-214.33 4576.33,-220.68 4578.43,-214"/>
<text text-anchor="middle" x="4529.2" y="-263.83" font-family="Times,serif" font-size="14.00">RCPT/250:8</text>
<text text-anchor="middle" x="4529.2" y="-246.58" font-family="Times,serif" font-size="14.00">b0 = Mail OK</text>
</g>
<!-- q22:134 -->
<g id="node13" class="node">
<title>q22:134</title>
<ellipse fill="none" stroke="black" stroke-width="2" cx="5722.7" cy="-264.63" rx="52.26" ry="18"/>
<text text-anchor="middle" x="5722.7" y="-259.96" font-family="Times,serif" font-size="14.00">q22:134</text>
</g>
<!-- q17:134&#45;&gt;q22:134 -->
<g id="edge16" class="edge">
<title>q17:134&#45;&gt;q22:134</title>
<path fill="none" stroke="black" d="M5534.8,-263.06C5571.2,-263.38 5619.9,-263.78 5658.5,-264.11"/>
<polygon fill="black" stroke="black" points="5658.06,-267.6 5668.09,-264.18 5658.11,-260.6 5658.06,-267.6"/>
<text text-anchor="middle" x="5602.2" y="-267.58" font-family="Times,serif" font-size="14.00">QUIT/221:134</text>
</g>
<!-- q21:50 -->
<g id="node14" class="node">
<title>q21:50</title>
<ellipse fill="none" stroke="black" stroke-width="2" cx="5722.7" cy="-206.63" rx="45.95" ry="18"/>
<text text-anchor="middle" x="5722.7" y="-201.96" font-family="Times,serif" font-size="14.00">q21:50</text>
</g>
<!-- q16:50&#45;&gt;q21:50 -->
<g id="edge17" class="edge">
<title>q16:50&#45;&gt;q21:50</title>
<path fill="none" stroke="black" d="M5528.4,-206.64C5567.2,-206.64 5623,-206.64 5664.7,-206.64"/>
<polygon fill="black" stroke="black" points="5664.49,-210.14 5674.49,-206.64 5664.49,-203.14 5664.49,-210.14"/>
<text text-anchor="middle" x="5602.2" y="-227.84" font-family="Times,serif" font-size="14.00">RSET/250:50</text>
<text text-anchor="middle" x="5602.2" y="-210.59" font-family="Times,serif" font-size="14.00">b0 = OK</text>
</g>
<!-- q20:1 -->
<g id="node15" class="node">
<title>q20:1</title>
<ellipse fill="none" stroke="black" stroke-width="2" cx="5722.7" cy="-148.63" rx="39.63" ry="18"/>
<text text-anchor="middle" x="5722.7" y="-143.96" font-family="Times,serif" font-size="14.00">q20:1</text>
</g>
<!-- q15:1&#45;&gt;q20:1 -->
<g id="edge18" class="edge">
<title>q15:1&#45;&gt;q20:1</title>
<path fill="none" stroke="black" d="M5522.1,-148.63C5562.8,-148.63 5626.3,-148.63 5670.7,-148.63"/>
<polygon fill="black" stroke="black" points="5670.59,-152.14 5680.59,-148.64 5670.59,-145.14 5670.59,-152.14"/>
<text text-anchor="middle" x="5602.2" y="-169.84" font-family="Times,serif" font-size="14.00">RSET/250:1</text>
<text text-anchor="middle" x="5602.2" y="-152.59" font-family="Times,serif" font-size="14.00">a0 = b0</text>
</g>
<!-- q4:1 -->
<g id="node16" class="node">
<title>q4:1</title>
<ellipse fill="none" stroke="black" stroke-width="2" cx="2106.1" cy="-361.63" rx="33.32" ry="18"/>
<text text-anchor="middle" x="2106.1" y="-356.96" font-family="Times,serif" font-size="14.00">q4:1</text>
</g>
<!-- q4:1&#45;&gt;q7:10 -->
<g id="edge19" class="edge">
<title>q4:1&#45;&gt;q7:10</title>
<path fill="none" stroke="black" d="M2140,-361.23C2252.2,-359.88 2629.3,-355.63 2941,-355.63 2941,-355.63 2941,-355.63 3794,-355.63 4040.9,-355.63 4116,-420.55 4349.2,-339.63 4413,-317.5 4473,-263.8 4504.7,-231.81"/>
<polygon fill="black" stroke="black" points="4506.98,-234.48 4511.44,-224.87 4501.96,-229.6 4506.98,-234.48"/>
<text text-anchor="middle" x="3427.6" y="-394.08" font-family="Times,serif" font-size="14.00">MAIL/250:1</text>
<text text-anchor="middle" x="3427.6" y="-376.83" font-family="Times,serif" font-size="14.00">a0 = FROM:&lt;Az6161@126.com&gt;</text>
<text text-anchor="middle" x="3427.6" y="-359.58" font-family="Times,serif" font-size="14.00">b0 = Mail OK</text>
</g>
<!-- q2:242 -->
<g id="node17" class="node">
<title>q2:242</title>
<ellipse fill="none" stroke="black" stroke-width="2" cx="501.98" cy="-324.63" rx="45.95" ry="18"/>
<text text-anchor="middle" x="501.98" y="-319.96" font-family="Times,serif" font-size="14.00">q2:242</text>
</g>
<!-- q2:242&#45;&gt;q6:230 -->
<g id="edge20" class="edge">
<title>q2:242&#45;&gt;q6:230</title>
<path fill="none" stroke="black" d="M525.39,-308.3C536.9,-300.87 551.52,-292.87 565.93,-288.88 678.58,-257.78 1501.6,-281.43 1617.4,-265.63 1622.3,-264.96 1627.4,-264.06 1632.5,-263"/>
<polygon fill="black" stroke="black" points="1632.95,-266.49 1641.92,-260.86 1631.4,-259.67 1632.95,-266.49"/>
<text text-anchor="middle" x="1091.7" y="-327.08" font-family="Times,serif" font-size="14.00">AUTH/235:228</text>
<text text-anchor="middle" x="1091.7" y="-309.83" font-family="Times,serif" font-size="14.00">a0 in {&#39;PLAIN AEF6NjE2MUBzaW5hLmNvbQA2ZmRiMjVjZmNjODYyZWZj&#39;, &#39;PLAIN AEF6NjE2MUAxMjYuY29tAE1VUVNBT1NUWElURkpDVUU=&#39;}</text>
<text text-anchor="middle" x="1091.7" y="-292.58" font-family="Times,serif" font-size="14.00">b0 in {&#39;Authentication successful&#39;, &#39;OK Authenticated&#39;}</text>
</g>
<!-- q2:242&#45;&gt;q4:1 -->
<g id="edge21" class="edge">
<title>q2:242&#45;&gt;q4:1</title>
<path fill="none" stroke="black" d="M539.98,-335.57C548.44,-337.64 557.44,-339.51 565.93,-340.63 717.21,-360.61 1823.7,-361.66 2060.5,-361.64"/>
<polygon fill="black" stroke="black" points="2060.29,-365.15 2070.29,-361.65 2060.29,-358.15 2060.29,-365.15"/>
<text text-anchor="middle" x="1091.7" y="-381.83" font-family="Times,serif" font-size="14.00">AUTH/λ:1</text>
<text text-anchor="middle" x="1091.7" y="-364.58" font-family="Times,serif" font-size="14.00">a0 = PLAIN AEF6NjE2MUAxMjYuY29tAE1VUVNBT1NUWElURkpDVUU=</text>
</g>
<!-- q5:13 -->
<g id="node18" class="node">
<title>q5:13</title>
<ellipse fill="none" stroke="black" stroke-width="2" cx="1681.4" cy="-431.63" rx="39.63" ry="18"/>
<text text-anchor="middle" x="1681.4" y="-426.96" font-family="Times,serif" font-size="14.00">q5:13</text>
</g>
<!-- q2:242&#45;&gt;q5:13 -->
<g id="edge22" class="edge">
<title>q2:242&#45;&gt;q5:13</title>
<path fill="none" stroke="black" d="M512.06,-343.17C522.28,-361.75 540.82,-389.31 565.93,-401.63 940.98,-585.67 1475.9,-480.69 1634.4,-443.24"/>
<polygon fill="black" stroke="black" points="1635.22,-446.64 1644.13,-440.91 1633.59,-439.83 1635.22,-446.64"/>
<text text-anchor="middle" x="1091.7" y="-527.84" font-family="Times,serif" font-size="14.00">AUTH/535:13</text>
<text text-anchor="middle" x="1091.7" y="-510.58" font-family="Times,serif" font-size="14.00">b0 in {&#39;5.7.8 authentication failed&#39;, &#39;Error: authentication failed&#39;}</text>
</g>
<!-- q8:13 -->
<g id="node19" class="node">
<title>q8:13</title>
<ellipse fill="none" stroke="black" stroke-width="2" cx="2530.8" cy="-438.63" rx="39.63" ry="18"/>
<text text-anchor="middle" x="2530.8" y="-433.96" font-family="Times,serif" font-size="14.00">q8:13</text>
</g>
<!-- q5:13&#45;&gt;q8:13 -->
<g id="edge23" class="edge">
<title>q5:13&#45;&gt;q8:13</title>
<path fill="none" stroke="black" d="M1721.8,-431.95C1860.4,-433.11 2324.4,-436.94 2479.1,-438.22"/>
<polygon fill="black" stroke="black" points="2479.06,-441.71 2489.09,-438.29 2479.11,-434.71 2479.06,-441.71"/>
<text text-anchor="middle" x="2106.1" y="-458.83" font-family="Times,serif" font-size="14.00">AUTH/334:13</text>
<text text-anchor="middle" x="2106.1" y="-441.58" font-family="Times,serif" font-size="14.00">b0 = UGFzc3dvcmQ6</text>
</g>
<!-- q12:13 -->
<g id="node20" class="node">
<title>q12:13</title>
<ellipse fill="none" stroke="black" stroke-width="2" cx="3427.6" cy="-443.63" rx="45.95" ry="18"/>
<text text-anchor="middle" x="3427.6" y="-438.96" font-family="Times,serif" font-size="14.00">q12:13</text>
</g>
<!-- q8:13&#45;&gt;q12:13 -->
<g id="edge24" class="edge">
<title>q8:13&#45;&gt;q12:13</title>
<path fill="none" stroke="black" d="M2571.4,-438.86C2714.1,-439.66 3202.2,-442.38 3369.7,-443.31"/>
<polygon fill="black" stroke="black" points="3369.37,-446.81 3379.39,-443.37 3369.4,-439.81 3369.37,-446.81"/>
<text text-anchor="middle" x="2942" y="-463.83" font-family="Times,serif" font-size="14.00">content/535:13</text>
<text text-anchor="middle" x="2942" y="-446.58" font-family="Times,serif" font-size="14.00">b0 in {&#39;5.7.8 authentication failed&#39;, &#39;Error: authentication failed&#39;}</text>
</g>
<!-- q18:4 -->
<g id="node21" class="node">
<title>q18:4</title>
<ellipse fill="none" stroke="black" stroke-width="2" cx="3793" cy="-443.63" rx="39.63" ry="18"/>
<text text-anchor="middle" x="3793" y="-438.96" font-family="Times,serif" font-size="14.00">q18:4</text>
</g>
<!-- q12:13&#45;&gt;q18:4 -->
<g id="edge25" class="edge">
<title>q12:13&#45;&gt;q18:4</title>
<path fill="none" stroke="black" d="M3474.2,-443.63C3542.3,-443.63 3670,-443.63 3741,-443.63"/>
<polygon fill="black" stroke="black" points="3740.79,-447.14 3750.79,-443.64 3740.79,-440.14 3740.79,-447.14"/>
<text text-anchor="middle" x="3644.3" y="-464.83" font-family="Times,serif" font-size="14.00">λ/451:4</text>
<text text-anchor="middle" x="3644.3" y="-447.58" font-family="Times,serif" font-size="14.00">b0 = Timeout.</text>
</g>
<!-- q0:244 -->
<g id="node22" class="node">
<title>q0:244</title>
<ellipse fill="none" stroke="black" stroke-width="2" cx="53.95" cy="-253.64" rx="49.95" ry="49.95"/>
<ellipse fill="none" stroke="black" stroke-width="2" cx="53.95" cy="-253.64" rx="53.95" ry="53.95"/>
<text text-anchor="middle" x="53.95" y="-248.96" font-family="Times,serif" font-size="14.00">q0:244</text>
</g>
<!-- q1:244 -->
<g id="node23" class="node">
<title>q1:244</title>
<ellipse fill="none" stroke="black" stroke-width="2" cx="257.84" cy="-253.63" rx="45.95" ry="18"/>
<text text-anchor="middle" x="257.84" y="-248.96" font-family="Times,serif" font-size="14.00">q1:244</text>
</g>
<!-- q0:244&#45;&gt;q1:244 -->
<g id="edge26" class="edge">
<title>q0:244&#45;&gt;q1:244</title>
<path fill="none" stroke="black" d="M104.85,-253.64C133.64,-253.64 169.94,-253.64 199.84,-253.64"/>
<polygon fill="black" stroke="black" points="199.45,-257.14 209.45,-253.64 199.45,-250.14 199.45,-257.14"/>
<text text-anchor="middle" x="157.89" y="-257.58" font-family="Times,serif" font-size="14.00">λ/220:244</text>
</g>
<!-- q1:244&#45;&gt;q2:242 -->
<g id="edge27" class="edge">
<title>q1:244&#45;&gt;q2:242</title>
<path fill="none" stroke="black" d="M296.15,-264.57C338.18,-276.89 406.65,-296.98 452.72,-310.49"/>
<polygon fill="black" stroke="black" points="451.61,-313.81 462.19,-313.26 453.57,-307.09 451.61,-313.81"/>
<text text-anchor="middle" x="379.91" y="-308.58" font-family="Times,serif" font-size="14.00">EHLO/250:242</text>
</g>
<!-- q3:2 -->
<g id="node24" class="node">
<title>q3:2</title>
<ellipse fill="none" stroke="black" stroke-width="2" cx="501.98" cy="-220.63" rx="33.32" ry="18"/>
<text text-anchor="middle" x="501.98" y="-215.96" font-family="Times,serif" font-size="14.00">q3:2</text>
</g>
<!-- q1:244&#45;&gt;q3:2 -->
<g id="edge28" class="edge">
<title>q1:244&#45;&gt;q3:2</title>
<path fill="none" stroke="black" d="M288.27,-239.28C298.62,-234.89 310.49,-230.58 321.79,-228.14 366.96,-218.34 419.99,-217.39 456.59,-218.31"/>
<polygon fill="black" stroke="black" points="456.24,-221.8 466.35,-218.62 456.46,-214.8 456.24,-221.8"/>
<text text-anchor="middle" x="379.91" y="-248.83" font-family="Times,serif" font-size="14.00">EHLO/λ:2</text>
<text text-anchor="middle" x="379.91" y="-231.58" font-family="Times,serif" font-size="14.00">a0 = [127.0.1.1]</text>
</g>
<!-- q3:2&#45;&gt;q6:230 -->
<g id="edge29" class="edge">
<title>q3:2&#45;&gt;q6:230</title>
<path fill="none" stroke="black" d="M534.31,-214.59C667.84,-190.02 1201.7,-104.06 1617.4,-213.89 1628.1,-216.69 1638.8,-221.75 1648.2,-227.19"/>
<polygon fill="black" stroke="black" points="1646.35,-230.15 1656.71,-232.37 1649.99,-224.18 1646.35,-230.15"/>
<text text-anchor="middle" x="1091.7" y="-252.08" font-family="Times,serif" font-size="14.00">AUTH/235:2</text>
<text text-anchor="middle" x="1091.7" y="-234.83" font-family="Times,serif" font-size="14.00">a0 in {&#39;PLAIN AEF6NjE2MUBzaW5hLmNvbQA2ZmRiMjVjZmNjODYyZWZj&#39;, &#39;PLAIN AEF6NjE2MUAxMjYuY29tAE1VUVNBT1NUWElURkpDVUU=&#39;}</text>
<text text-anchor="middle" x="1091.7" y="-217.58" font-family="Times,serif" font-size="14.00">b0 in {&#39;Authentication successful&#39;, &#39;OK Authenticated&#39;}</text>
</g>
</g>
</svg>
