<?xml version="1.0" encoding="UTF-8" standalone="no"?>
<!DOCTYPE svg PUBLIC "-//W3C//DTD SVG 1.1//EN"
 "http://www.w3.org/Graphics/SVG/1.1/DTD/svg11.dtd">
<!-- Generated by graphviz version 12.0.0 (20240803.0821)
 -->
<!-- Pages: 1 -->
<svg width="2260pt" height="260pt"
 viewBox="0.00 0.00 2259.66 260.00" xmlns="http://www.w3.org/2000/svg" xmlns:xlink="http://www.w3.org/1999/xlink">
<g id="graph0" class="graph" transform="scale(1 1) rotate(0) translate(4 256)">
<polygon fill="white" stroke="none" points="-4,4 -4,-256 2255.66,-256 2255.66,4 -4,4"/>
<!-- q17:3261 -->
<g id="node1" class="node">
<title>q17:3261</title>
<ellipse fill="none" stroke="black" stroke-width="2" cx="1694.6" cy="-91" rx="58.57" ry="18"/>
<text text-anchor="middle" x="1694.6" y="-86.33" font-family="Times,serif" font-size="14.00">q17:3261</text>
</g>
<!-- q17:3261&#45;&gt;q17:3261 -->
<g id="edge1" class="edge">
<title>q17:3261&#45;&gt;q17:3261</title>
<path fill="none" stroke="black" d="M1671.3,-108.41C1666.9,-118.09 1674.7,-127 1694.6,-127 1706.1,-127 1713.5,-124.02 1716.9,-119.64"/>
<polygon fill="black" stroke="black" points="1720.36,-120.19 1717.77,-109.92 1713.39,-119.57 1720.36,-120.19"/>
<text text-anchor="middle" x="1694.6" y="-130.94" font-family="Times,serif" font-size="14.00">content/λ:3140</text>
</g>
<!-- q22:115 -->
<g id="node2" class="node">
<title>q22:115</title>
<ellipse fill="none" stroke="black" stroke-width="2" cx="1958.4" cy="-126" rx="52.26" ry="18"/>
<text text-anchor="middle" x="1958.4" y="-121.33" font-family="Times,serif" font-size="14.00">q22:115</text>
</g>
<!-- q17:3261&#45;&gt;q22:115 -->
<g id="edge2" class="edge">
<title>q17:3261&#45;&gt;q22:115</title>
<path fill="none" stroke="black" d="M1749.5,-98.21C1792.6,-103.97 1853,-112.04 1897.6,-118"/>
<polygon fill="black" stroke="black" points="1896.92,-121.44 1907.3,-119.31 1897.86,-114.5 1896.92,-121.44"/>
<text text-anchor="middle" x="1829.7" y="-119.95" font-family="Times,serif" font-size="14.00">content/250:115</text>
</g>
<!-- q20:1 -->
<g id="node3" class="node">
<title>q20:1</title>
<ellipse fill="none" stroke="black" stroke-width="2" cx="1958.4" cy="-72" rx="39.63" ry="18"/>
<text text-anchor="middle" x="1958.4" y="-67.33" font-family="Times,serif" font-size="14.00">q20:1</text>
</g>
<!-- q17:3261&#45;&gt;q20:1 -->
<g id="edge3" class="edge">
<title>q17:3261&#45;&gt;q20:1</title>
<path fill="none" stroke="black" d="M1751.3,-85.45C1758,-84.84 1764.7,-84.26 1771.2,-83.75 1817.1,-80.1 1869.5,-76.88 1907,-74.73"/>
<polygon fill="black" stroke="black" points="1906.8,-78.25 1916.59,-74.19 1906.41,-71.26 1906.8,-78.25"/>
<text text-anchor="middle" x="1829.7" y="-87.95" font-family="Times,serif" font-size="14.00">content/550:1</text>
</g>
<!-- q21:5 -->
<g id="node4" class="node">
<title>q21:5</title>
<ellipse fill="none" stroke="black" stroke-width="2" cx="1958.4" cy="-18" rx="39.63" ry="18"/>
<text text-anchor="middle" x="1958.4" y="-13.32" font-family="Times,serif" font-size="14.00">q21:5</text>
</g>
<!-- q17:3261&#45;&gt;q21:5 -->
<g id="edge4" class="edge">
<title>q17:3261&#45;&gt;q21:5</title>
<path fill="none" stroke="black" d="M1728.9,-75.64C1736.8,-71.89 1745.3,-67.84 1753.2,-64 1761.2,-60.03 1762.7,-57.7 1771.2,-54.75 1816.2,-39.1 1869.7,-29.41 1907.8,-23.93"/>
<polygon fill="black" stroke="black" points="1908.17,-27.41 1917.6,-22.57 1907.21,-20.48 1908.17,-27.41"/>
<text text-anchor="middle" x="1829.7" y="-58.95" font-family="Times,serif" font-size="14.00">content/554:5</text>
</g>
<!-- q27:115 -->
<g id="node5" class="node">
<title>q27:115</title>
<ellipse fill="none" stroke="black" stroke-width="2" cx="2199.4" cy="-126" rx="52.26" ry="18"/>
<text text-anchor="middle" x="2199.4" y="-121.33" font-family="Times,serif" font-size="14.00">q27:115</text>
</g>
<!-- q22:115&#45;&gt;q27:115 -->
<g id="edge5" class="edge">
<title>q22:115&#45;&gt;q27:115</title>
<path fill="none" stroke="black" d="M2011.6,-126C2048,-126 2096.7,-126 2135.3,-126"/>
<polygon fill="black" stroke="black" points="2134.89,-129.5 2144.89,-126 2134.89,-122.5 2134.89,-129.5"/>
<text text-anchor="middle" x="2078.9" y="-129.94" font-family="Times,serif" font-size="14.00">QUIT/221:115</text>
</g>
<!-- q25:1 -->
<g id="node6" class="node">
<title>q25:1</title>
<ellipse fill="none" stroke="black" stroke-width="2" cx="2199.4" cy="-72" rx="39.63" ry="18"/>
<text text-anchor="middle" x="2199.4" y="-67.33" font-family="Times,serif" font-size="14.00">q25:1</text>
</g>
<!-- q20:1&#45;&gt;q25:1 -->
<g id="edge6" class="edge">
<title>q20:1&#45;&gt;q25:1</title>
<path fill="none" stroke="black" d="M1998.9,-72C2039.5,-72 2103.1,-72 2147.5,-72"/>
<polygon fill="black" stroke="black" points="2147.39,-75.5 2157.39,-72 2147.39,-68.5 2147.39,-75.5"/>
<text text-anchor="middle" x="2078.9" y="-75.95" font-family="Times,serif" font-size="14.00">RSET/250:1</text>
</g>
<!-- q26:5 -->
<g id="node7" class="node">
<title>q26:5</title>
<ellipse fill="none" stroke="black" stroke-width="2" cx="2199.4" cy="-18" rx="39.63" ry="18"/>
<text text-anchor="middle" x="2199.4" y="-13.32" font-family="Times,serif" font-size="14.00">q26:5</text>
</g>
<!-- q21:5&#45;&gt;q26:5 -->
<g id="edge7" class="edge">
<title>q21:5&#45;&gt;q26:5</title>
<path fill="none" stroke="black" d="M1998.9,-18C2039.5,-18 2103.1,-18 2147.5,-18"/>
<polygon fill="black" stroke="black" points="2147.39,-21.5 2157.39,-18 2147.39,-14.5 2147.39,-21.5"/>
<text text-anchor="middle" x="2078.9" y="-21.95" font-family="Times,serif" font-size="14.00">RSET/250:5</text>
</g>
<!-- q10:229 -->
<g id="node8" class="node">
<title>q10:229</title>
<ellipse fill="none" stroke="black" stroke-width="2" cx="1196.5" cy="-91" rx="52.26" ry="18"/>
<text text-anchor="middle" x="1196.5" y="-86.33" font-family="Times,serif" font-size="14.00">q10:229</text>
</g>
<!-- q14:68 -->
<g id="node9" class="node">
<title>q14:68</title>
<ellipse fill="none" stroke="black" stroke-width="2" cx="1439.8" cy="-151" rx="45.95" ry="18"/>
<text text-anchor="middle" x="1439.8" y="-146.32" font-family="Times,serif" font-size="14.00">q14:68</text>
</g>
<!-- q10:229&#45;&gt;q14:68 -->
<g id="edge8" class="edge">
<title>q10:229&#45;&gt;q14:68</title>
<path fill="none" stroke="black" d="M1236.5,-103.37C1246.4,-106.34 1256.9,-109.4 1266.7,-112 1306.8,-122.59 1352.5,-132.87 1386.7,-140.22"/>
<polygon fill="black" stroke="black" points="1385.91,-143.63 1396.42,-142.28 1387.36,-136.78 1385.91,-143.63"/>
<text text-anchor="middle" x="1318.1" y="-139.94" font-family="Times,serif" font-size="14.00">DATA/354:68</text>
</g>
<!-- q13:161 -->
<g id="node10" class="node">
<title>q13:161</title>
<ellipse fill="none" stroke="black" stroke-width="2" cx="1439.8" cy="-91" rx="52.26" ry="18"/>
<text text-anchor="middle" x="1439.8" y="-86.33" font-family="Times,serif" font-size="14.00">q13:161</text>
</g>
<!-- q10:229&#45;&gt;q13:161 -->
<g id="edge9" class="edge">
<title>q10:229&#45;&gt;q13:161</title>
<path fill="none" stroke="black" d="M1249.5,-91C1286.5,-91 1336.3,-91 1375.5,-91"/>
<polygon fill="black" stroke="black" points="1375.29,-94.5 1385.29,-91 1375.29,-87.5 1375.29,-94.5"/>
<text text-anchor="middle" x="1318.1" y="-94.95" font-family="Times,serif" font-size="14.00">RCPT/250:161</text>
</g>
<!-- q14:68&#45;&gt;q17:3261 -->
<g id="edge10" class="edge">
<title>q14:68&#45;&gt;q17:3261</title>
<path fill="none" stroke="black" d="M1481.7,-142.64C1517.8,-135.14 1571.5,-123.56 1618,-112 1624.9,-110.3 1632,-108.42 1639.1,-106.51"/>
<polygon fill="black" stroke="black" points="1639.91,-109.92 1648.64,-103.91 1638.07,-103.16 1639.91,-109.92"/>
<text text-anchor="middle" x="1564" y="-139.94" font-family="Times,serif" font-size="14.00">content/λ:3</text>
</g>
<!-- q19:21 -->
<g id="node11" class="node">
<title>q19:21</title>
<ellipse fill="none" stroke="black" stroke-width="2" cx="1694.6" cy="-234" rx="45.95" ry="18"/>
<text text-anchor="middle" x="1694.6" y="-229.32" font-family="Times,serif" font-size="14.00">q19:21</text>
</g>
<!-- q14:68&#45;&gt;q19:21 -->
<g id="edge11" class="edge">
<title>q14:68&#45;&gt;q19:21</title>
<path fill="none" stroke="black" d="M1466.8,-166.29C1485.5,-177.19 1507.7,-190.07 1510,-191 1552.1,-207.65 1602.2,-218.85 1639.5,-225.64"/>
<polygon fill="black" stroke="black" points="1638.65,-229.04 1649.11,-227.35 1639.87,-222.15 1638.65,-229.04"/>
<text text-anchor="middle" x="1564" y="-224.94" font-family="Times,serif" font-size="14.00">content/250:21</text>
</g>
<!-- q18:44 -->
<g id="node12" class="node">
<title>q18:44</title>
<ellipse fill="none" stroke="black" stroke-width="2" cx="1694.6" cy="-180" rx="45.95" ry="18"/>
<text text-anchor="middle" x="1694.6" y="-175.32" font-family="Times,serif" font-size="14.00">q18:44</text>
</g>
<!-- q14:68&#45;&gt;q18:44 -->
<g id="edge12" class="edge">
<title>q14:68&#45;&gt;q18:44</title>
<path fill="none" stroke="black" d="M1484.8,-156.05C1527.4,-160.94 1592.2,-168.38 1638.3,-173.66"/>
<polygon fill="black" stroke="black" points="1637.76,-177.12 1648.1,-174.79 1638.56,-170.17 1637.76,-177.12"/>
<text text-anchor="middle" x="1564" y="-173.94" font-family="Times,serif" font-size="14.00">content/554:44</text>
</g>
<!-- q13:161&#45;&gt;q17:3261 -->
<g id="edge13" class="edge">
<title>q13:161&#45;&gt;q17:3261</title>
<path fill="none" stroke="black" d="M1492.8,-91C1530.8,-91 1582.5,-91 1624,-91"/>
<polygon fill="black" stroke="black" points="1623.89,-94.5 1633.89,-91 1623.89,-87.5 1623.89,-94.5"/>
<text text-anchor="middle" x="1564" y="-94.95" font-family="Times,serif" font-size="14.00">DATA/354:118</text>
</g>
<!-- q16:43 -->
<g id="node13" class="node">
<title>q16:43</title>
<ellipse fill="none" stroke="black" stroke-width="2" cx="1694.6" cy="-37" rx="45.95" ry="18"/>
<text text-anchor="middle" x="1694.6" y="-32.33" font-family="Times,serif" font-size="14.00">q16:43</text>
</g>
<!-- q13:161&#45;&gt;q16:43 -->
<g id="edge14" class="edge">
<title>q13:161&#45;&gt;q16:43</title>
<path fill="none" stroke="black" d="M1479,-78.36C1489,-75.3 1499.9,-72.2 1510,-69.75 1553.1,-59.34 1602.6,-50.7 1639.3,-44.92"/>
<polygon fill="black" stroke="black" points="1639.46,-48.43 1648.8,-43.45 1638.39,-41.52 1639.46,-48.43"/>
<text text-anchor="middle" x="1564" y="-73.95" font-family="Times,serif" font-size="14.00">DATA/550:43</text>
</g>
<!-- q24:21 -->
<g id="node14" class="node">
<title>q24:21</title>
<ellipse fill="none" stroke="black" stroke-width="2" cx="1958.4" cy="-234" rx="45.95" ry="18"/>
<text text-anchor="middle" x="1958.4" y="-229.32" font-family="Times,serif" font-size="14.00">q24:21</text>
</g>
<!-- q19:21&#45;&gt;q24:21 -->
<g id="edge15" class="edge">
<title>q19:21&#45;&gt;q24:21</title>
<path fill="none" stroke="black" d="M1741.5,-234C1785.7,-234 1852.6,-234 1900.2,-234"/>
<polygon fill="black" stroke="black" points="1900.09,-237.5 1910.09,-234 1900.09,-230.5 1900.09,-237.5"/>
<text text-anchor="middle" x="1829.7" y="-237.94" font-family="Times,serif" font-size="14.00">QUIT/221:21</text>
</g>
<!-- q23:44 -->
<g id="node15" class="node">
<title>q23:44</title>
<ellipse fill="none" stroke="black" stroke-width="2" cx="1958.4" cy="-180" rx="45.95" ry="18"/>
<text text-anchor="middle" x="1958.4" y="-175.32" font-family="Times,serif" font-size="14.00">q23:44</text>
</g>
<!-- q18:44&#45;&gt;q23:44 -->
<g id="edge16" class="edge">
<title>q18:44&#45;&gt;q23:44</title>
<path fill="none" stroke="black" d="M1741.5,-180C1785.7,-180 1852.6,-180 1900.2,-180"/>
<polygon fill="black" stroke="black" points="1900.09,-183.5 1910.09,-180 1900.09,-176.5 1900.09,-183.5"/>
<text text-anchor="middle" x="1829.7" y="-183.94" font-family="Times,serif" font-size="14.00">RSET/250:44</text>
</g>
<!-- q5:230 -->
<g id="node16" class="node">
<title>q5:230</title>
<ellipse fill="none" stroke="black" stroke-width="2" cx="725.13" cy="-143" rx="45.95" ry="18"/>
<text text-anchor="middle" x="725.13" y="-138.32" font-family="Times,serif" font-size="14.00">q5:230</text>
</g>
<!-- q7:229 -->
<g id="node17" class="node">
<title>q7:229</title>
<ellipse fill="none" stroke="black" stroke-width="2" cx="954.27" cy="-91" rx="45.95" ry="18"/>
<text text-anchor="middle" x="954.27" y="-86.33" font-family="Times,serif" font-size="14.00">q7:229</text>
</g>
<!-- q5:230&#45;&gt;q7:229 -->
<g id="edge17" class="edge">
<title>q5:230&#45;&gt;q7:229</title>
<path fill="none" stroke="black" d="M762.94,-131.8C771.49,-129.34 780.57,-126.85 789.08,-124.75 826.1,-115.59 868.24,-106.97 900.57,-100.73"/>
<polygon fill="black" stroke="black" points="900.92,-104.23 910.08,-98.91 899.6,-97.35 900.92,-104.23"/>
<text text-anchor="middle" x="839.7" y="-127.95" font-family="Times,serif" font-size="14.00">MAIL/250:227</text>
</g>
<!-- q8:3 -->
<g id="node18" class="node">
<title>q8:3</title>
<ellipse fill="none" stroke="black" stroke-width="2" cx="954.27" cy="-154" rx="33.32" ry="18"/>
<text text-anchor="middle" x="954.27" y="-149.32" font-family="Times,serif" font-size="14.00">q8:3</text>
</g>
<!-- q5:230&#45;&gt;q8:3 -->
<g id="edge18" class="edge">
<title>q5:230&#45;&gt;q8:3</title>
<path fill="none" stroke="black" d="M771.55,-145.2C811.41,-147.13 869.04,-149.92 908.66,-151.84"/>
<polygon fill="black" stroke="black" points="908.41,-155.33 918.57,-152.32 908.75,-148.34 908.41,-155.33"/>
<text text-anchor="middle" x="839.7" y="-153.94" font-family="Times,serif" font-size="14.00">MAIL/553:3</text>
</g>
<!-- q7:229&#45;&gt;q10:229 -->
<g id="edge19" class="edge">
<title>q7:229&#45;&gt;q10:229</title>
<path fill="none" stroke="black" d="M1001.02,-91C1038.1,-91 1090.8,-91 1131.9,-91"/>
<polygon fill="black" stroke="black" points="1131.69,-94.5 1141.69,-91 1131.69,-87.5 1131.69,-94.5"/>
<text text-anchor="middle" x="1072.2" y="-94.95" font-family="Times,serif" font-size="14.00">RCPT/250:229</text>
</g>
<!-- q11:3 -->
<g id="node19" class="node">
<title>q11:3</title>
<ellipse fill="none" stroke="black" stroke-width="2" cx="1196.5" cy="-154" rx="39.63" ry="18"/>
<text text-anchor="middle" x="1196.5" y="-149.32" font-family="Times,serif" font-size="14.00">q11:3</text>
</g>
<!-- q8:3&#45;&gt;q11:3 -->
<g id="edge20" class="edge">
<title>q8:3&#45;&gt;q11:3</title>
<path fill="none" stroke="black" d="M988.42,-154C1028.8,-154 1097.3,-154 1144.4,-154"/>
<polygon fill="black" stroke="black" points="1144.39,-157.5 1154.39,-154 1144.39,-150.5 1144.39,-157.5"/>
<text text-anchor="middle" x="1072.2" y="-157.94" font-family="Times,serif" font-size="14.00">RSET/250:3</text>
</g>
<!-- q3:242 -->
<g id="node20" class="node">
<title>q3:242</title>
<ellipse fill="none" stroke="black" stroke-width="2" cx="491.48" cy="-143" rx="45.95" ry="18"/>
<text text-anchor="middle" x="491.48" y="-138.32" font-family="Times,serif" font-size="14.00">q3:242</text>
</g>
<!-- q3:242&#45;&gt;q5:230 -->
<g id="edge21" class="edge">
<title>q3:242&#45;&gt;q5:230</title>
<path fill="none" stroke="black" d="M538.25,-143C575.21,-143 627.42,-143 667.1,-143"/>
<polygon fill="black" stroke="black" points="666.95,-146.5 676.95,-143 666.95,-139.5 666.95,-146.5"/>
<text text-anchor="middle" x="608.31" y="-146.94" font-family="Times,serif" font-size="14.00">AUTH/235:230</text>
</g>
<!-- q6:12 -->
<g id="node21" class="node">
<title>q6:12</title>
<ellipse fill="none" stroke="black" stroke-width="2" cx="725.13" cy="-199" rx="39.63" ry="18"/>
<text text-anchor="middle" x="725.13" y="-194.32" font-family="Times,serif" font-size="14.00">q6:12</text>
</g>
<!-- q3:242&#45;&gt;q6:12 -->
<g id="edge22" class="edge">
<title>q3:242&#45;&gt;q6:12</title>
<path fill="none" stroke="black" d="M526.89,-155.29C536.1,-158.35 546.09,-161.48 555.43,-164 595.65,-174.84 642.03,-184.24 675.97,-190.57"/>
<polygon fill="black" stroke="black" points="675.02,-193.95 685.49,-192.32 676.29,-187.07 675.02,-193.95"/>
<text text-anchor="middle" x="608.31" y="-190.94" font-family="Times,serif" font-size="14.00">AUTH/535:12</text>
</g>
<!-- q9:12 -->
<g id="node22" class="node">
<title>q9:12</title>
<ellipse fill="none" stroke="black" stroke-width="2" cx="954.27" cy="-208" rx="39.63" ry="18"/>
<text text-anchor="middle" x="954.27" y="-203.32" font-family="Times,serif" font-size="14.00">q9:12</text>
</g>
<!-- q6:12&#45;&gt;q9:12 -->
<g id="edge23" class="edge">
<title>q6:12&#45;&gt;q9:12</title>
<path fill="none" stroke="black" d="M765.43,-200.56C803.42,-202.06 861.15,-204.35 902.58,-205.99"/>
<polygon fill="black" stroke="black" points="902.43,-209.49 912.56,-206.39 902.71,-202.49 902.43,-209.49"/>
<text text-anchor="middle" x="839.7" y="-208.94" font-family="Times,serif" font-size="14.00">AUTH/334:12</text>
</g>
<!-- q12:12 -->
<g id="node23" class="node">
<title>q12:12</title>
<ellipse fill="none" stroke="black" stroke-width="2" cx="1196.5" cy="-208" rx="45.95" ry="18"/>
<text text-anchor="middle" x="1196.5" y="-203.32" font-family="Times,serif" font-size="14.00">q12:12</text>
</g>
<!-- q9:12&#45;&gt;q12:12 -->
<g id="edge24" class="edge">
<title>q9:12&#45;&gt;q12:12</title>
<path fill="none" stroke="black" d="M994.67,-208C1033.8,-208 1094.1,-208 1138.4,-208"/>
<polygon fill="black" stroke="black" points="1138.39,-211.5 1148.39,-208 1138.39,-204.5 1138.39,-211.5"/>
<text text-anchor="middle" x="1072.2" y="-211.94" font-family="Times,serif" font-size="14.00">content/535:12</text>
</g>
<!-- q15:4 -->
<g id="node28" class="node">
<title>q15:4</title>
<ellipse fill="none" stroke="black" stroke-width="2" cx="1439.8" cy="-208" rx="39.63" ry="18"/>
<text text-anchor="middle" x="1439.8" y="-203.32" font-family="Times,serif" font-size="14.00">q15:4</text>
</g>
<!-- q12:12&#45;&gt;q15:4 -->
<g id="edge30" class="edge">
<title>q12:12&#45;&gt;q15:4</title>
<path fill="none" stroke="black" d="M1243.1,-208C1284.4,-208 1345.2,-208 1388,-208"/>
<polygon fill="black" stroke="black" points="1387.79,-211.5 1397.79,-208 1387.79,-204.5 1387.79,-211.5"/>
<text text-anchor="middle" x="1318.1" y="-211.94" font-family="Times,serif" font-size="14.00">λ/451:4</text>
</g>
<!-- q0:244 -->
<g id="node24" class="node">
<title>q0:244</title>
<ellipse fill="none" stroke="black" stroke-width="2" cx="53.95" cy="-115" rx="49.95" ry="49.95"/>
<ellipse fill="none" stroke="black" stroke-width="2" cx="53.95" cy="-115" rx="53.95" ry="53.95"/>
<text text-anchor="middle" x="53.95" y="-110.33" font-family="Times,serif" font-size="14.00">q0:244</text>
</g>
<!-- q1:244 -->
<g id="node25" class="node">
<title>q1:244</title>
<ellipse fill="none" stroke="black" stroke-width="2" cx="257.84" cy="-115" rx="45.95" ry="18"/>
<text text-anchor="middle" x="257.84" y="-110.33" font-family="Times,serif" font-size="14.00">q1:244</text>
</g>
<!-- q0:244&#45;&gt;q1:244 -->
<g id="edge25" class="edge">
<title>q0:244&#45;&gt;q1:244</title>
<path fill="none" stroke="black" d="M104.85,-115C133.64,-115 169.94,-115 199.84,-115"/>
<polygon fill="black" stroke="black" points="199.45,-118.5 209.45,-115 199.45,-111.5 199.45,-118.5"/>
<text text-anchor="middle" x="157.89" y="-118.95" font-family="Times,serif" font-size="14.00">λ/220:244</text>
</g>
<!-- q1:244&#45;&gt;q3:242 -->
<g id="edge26" class="edge">
<title>q1:244&#45;&gt;q3:242</title>
<path fill="none" stroke="black" d="M302.68,-120.3C340.25,-124.84 394.55,-131.4 435.11,-136.31"/>
<polygon fill="black" stroke="black" points="434.58,-139.77 444.93,-137.49 435.42,-132.82 434.58,-139.77"/>
<text text-anchor="middle" x="374.66" y="-137.94" font-family="Times,serif" font-size="14.00">EHLO/250:242</text>
</g>
<!-- q2:2 -->
<g id="node26" class="node">
<title>q2:2</title>
<ellipse fill="none" stroke="black" stroke-width="2" cx="491.48" cy="-88" rx="33.32" ry="18"/>
<text text-anchor="middle" x="491.48" y="-83.33" font-family="Times,serif" font-size="14.00">q2:2</text>
</g>
<!-- q1:244&#45;&gt;q2:2 -->
<g id="edge27" class="edge">
<title>q1:244&#45;&gt;q2:2</title>
<path fill="none" stroke="black" d="M296.92,-104.69C305.07,-102.79 313.68,-101.01 321.79,-99.75 363.57,-93.28 411.73,-90.37 445.87,-89.06"/>
<polygon fill="black" stroke="black" points="445.94,-92.56 455.82,-88.72 445.7,-85.57 445.94,-92.56"/>
<text text-anchor="middle" x="374.66" y="-103.95" font-family="Times,serif" font-size="14.00">EHLO/λ:2</text>
</g>
<!-- q4:2 -->
<g id="node27" class="node">
<title>q4:2</title>
<ellipse fill="none" stroke="black" stroke-width="2" cx="725.13" cy="-79" rx="33.32" ry="18"/>
<text text-anchor="middle" x="725.13" y="-74.33" font-family="Times,serif" font-size="14.00">q4:2</text>
</g>
<!-- q2:2&#45;&gt;q4:2 -->
<g id="edge28" class="edge">
<title>q2:2&#45;&gt;q4:2</title>
<path fill="none" stroke="black" d="M525.67,-86.71C566.1,-85.14 634.54,-82.48 679.54,-80.73"/>
<polygon fill="black" stroke="black" points="679.63,-84.23 689.49,-80.35 679.36,-77.24 679.63,-84.23"/>
<text text-anchor="middle" x="608.31" y="-89.95" font-family="Times,serif" font-size="14.00">AUTH/235:2</text>
</g>
<!-- q4:2&#45;&gt;q7:229 -->
<g id="edge29" class="edge">
<title>q4:2&#45;&gt;q7:229</title>
<path fill="none" stroke="black" d="M759.24,-77.06C792.47,-75.56 845.07,-74.39 890.33,-78.75 894.15,-79.12 898.1,-79.61 902.05,-80.19"/>
<polygon fill="black" stroke="black" points="901.21,-83.6 911.65,-81.75 902.34,-76.69 901.21,-83.6"/>
<text text-anchor="middle" x="839.7" y="-82.95" font-family="Times,serif" font-size="14.00">MAIL/250:2</text>
</g>
</g>
</svg>
