<?xml version="1.0" encoding="UTF-8" standalone="no"?>
<!DOCTYPE svg PUBLIC "-//W3C//DTD SVG 1.1//EN"
 "http://www.w3.org/Graphics/SVG/1.1/DTD/svg11.dtd">
<!-- Generated by graphviz version 12.0.0 (20240803.0821)
 -->
<!-- Pages: 1 -->
<svg width="2206pt" height="351pt"
 viewBox="0.00 0.00 2205.95 351.00" xmlns="http://www.w3.org/2000/svg" xmlns:xlink="http://www.w3.org/1999/xlink">
<g id="graph0" class="graph" transform="scale(1 1) rotate(0) translate(4 347)">
<polygon fill="white" stroke="none" points="-4,4 -4,-347 2201.95,-347 2201.95,4 -4,4"/>
<!-- q13:89 -->
<g id="node1" class="node">
<title>q13:89</title>
<ellipse fill="none" stroke="black" stroke-width="2" cx="1435.6" cy="-160" rx="45.95" ry="18"/>
<text text-anchor="middle" x="1435.6" y="-155.32" font-family="Times,serif" font-size="14.00">q13:89</text>
</g>
<!-- q16:21 -->
<g id="node2" class="node">
<title>q16:21</title>
<ellipse fill="none" stroke="black" stroke-width="2" cx="1684.1" cy="-163" rx="45.95" ry="18"/>
<text text-anchor="middle" x="1684.1" y="-158.32" font-family="Times,serif" font-size="14.00">q16:21</text>
</g>
<!-- q13:89&#45;&gt;q16:21 -->
<g id="edge1" class="edge">
<title>q13:89&#45;&gt;q16:21</title>
<path fill="none" stroke="black" d="M1482.4,-160.56C1523,-161.05 1582.5,-161.78 1626.2,-162.31"/>
<polygon fill="black" stroke="black" points="1625.94,-165.81 1635.99,-162.43 1626.03,-158.81 1625.94,-165.81"/>
<text text-anchor="middle" x="1553.5" y="-165.94" font-family="Times,serif" font-size="14.00">content/250:21</text>
</g>
<!-- q17:2594 -->
<g id="node3" class="node">
<title>q17:2594</title>
<ellipse fill="none" stroke="black" stroke-width="2" cx="1684.1" cy="-271" rx="58.57" ry="18"/>
<text text-anchor="middle" x="1684.1" y="-266.32" font-family="Times,serif" font-size="14.00">q17:2594</text>
</g>
<!-- q13:89&#45;&gt;q17:2594 -->
<g id="edge2" class="edge">
<title>q13:89&#45;&gt;q17:2594</title>
<path fill="none" stroke="black" d="M1467.3,-173.83C1510.5,-193.27 1589.3,-228.78 1638.8,-251.06"/>
<polygon fill="black" stroke="black" points="1637.26,-254.21 1647.82,-255.12 1640.14,-247.82 1637.26,-254.21"/>
<text text-anchor="middle" x="1553.5" y="-238.94" font-family="Times,serif" font-size="14.00">content/λ:3</text>
</g>
<!-- q18:65 -->
<g id="node4" class="node">
<title>q18:65</title>
<ellipse fill="none" stroke="black" stroke-width="2" cx="1684.1" cy="-109" rx="45.95" ry="18"/>
<text text-anchor="middle" x="1684.1" y="-104.33" font-family="Times,serif" font-size="14.00">q18:65</text>
</g>
<!-- q13:89&#45;&gt;q18:65 -->
<g id="edge3" class="edge">
<title>q13:89&#45;&gt;q18:65</title>
<path fill="none" stroke="black" d="M1470.6,-147.38C1479.9,-144.25 1490,-141.11 1499.5,-138.75 1542.1,-128.18 1591.2,-120.45 1627.9,-115.52"/>
<polygon fill="black" stroke="black" points="1627.94,-119.04 1637.4,-114.28 1627.03,-112.1 1627.94,-119.04"/>
<text text-anchor="middle" x="1553.5" y="-141.94" font-family="Times,serif" font-size="14.00">content/554:65</text>
</g>
<!-- q20:21 -->
<g id="node5" class="node">
<title>q20:21</title>
<ellipse fill="none" stroke="black" stroke-width="2" cx="1932.6" cy="-163" rx="45.95" ry="18"/>
<text text-anchor="middle" x="1932.6" y="-158.32" font-family="Times,serif" font-size="14.00">q20:21</text>
</g>
<!-- q16:21&#45;&gt;q20:21 -->
<g id="edge4" class="edge">
<title>q16:21&#45;&gt;q20:21</title>
<path fill="none" stroke="black" d="M1730.9,-163C1771.5,-163 1831.1,-163 1874.8,-163"/>
<polygon fill="black" stroke="black" points="1874.59,-166.5 1884.59,-163 1874.59,-159.5 1874.59,-166.5"/>
<text text-anchor="middle" x="1814.7" y="-166.94" font-family="Times,serif" font-size="14.00">QUIT/221:21</text>
</g>
<!-- q17:2594&#45;&gt;q17:2594 -->
<g id="edge5" class="edge">
<title>q17:2594&#45;&gt;q17:2594</title>
<path fill="none" stroke="black" d="M1660.8,-288.41C1656.4,-298.09 1664.2,-307 1684.1,-307 1695.6,-307 1703,-304.02 1706.4,-299.64"/>
<polygon fill="black" stroke="black" points="1709.86,-300.19 1707.27,-289.92 1702.89,-299.57 1709.86,-300.19"/>
<text text-anchor="middle" x="1684.1" y="-310.94" font-family="Times,serif" font-size="14.00">content/λ:2492</text>
</g>
<!-- q23:9 -->
<g id="node6" class="node">
<title>q23:9</title>
<ellipse fill="none" stroke="black" stroke-width="2" cx="1932.6" cy="-217" rx="39.63" ry="18"/>
<text text-anchor="middle" x="1932.6" y="-212.32" font-family="Times,serif" font-size="14.00">q23:9</text>
</g>
<!-- q17:2594&#45;&gt;q23:9 -->
<g id="edge6" class="edge">
<title>q17:2594&#45;&gt;q23:9</title>
<path fill="none" stroke="black" d="M1728.1,-258.23C1738.7,-255.27 1750,-252.25 1760.7,-249.75 1801.7,-240.06 1848.9,-231.19 1883.3,-225.13"/>
<polygon fill="black" stroke="black" points="1883.66,-228.62 1892.91,-223.45 1882.46,-221.72 1883.66,-228.62"/>
<text text-anchor="middle" x="1814.7" y="-252.94" font-family="Times,serif" font-size="14.00">content/554:9</text>
</g>
<!-- q22:92 -->
<g id="node7" class="node">
<title>q22:92</title>
<ellipse fill="none" stroke="black" stroke-width="2" cx="1932.6" cy="-325" rx="45.95" ry="18"/>
<text text-anchor="middle" x="1932.6" y="-320.32" font-family="Times,serif" font-size="14.00">q22:92</text>
</g>
<!-- q17:2594&#45;&gt;q22:92 -->
<g id="edge7" class="edge">
<title>q17:2594&#45;&gt;q22:92</title>
<path fill="none" stroke="black" d="M1728.1,-283.59C1738.7,-286.52 1750.1,-289.51 1760.7,-292 1799.8,-301.2 1844.4,-309.74 1878.2,-315.83"/>
<polygon fill="black" stroke="black" points="1877.35,-319.23 1887.81,-317.54 1878.57,-312.34 1877.35,-319.23"/>
<text text-anchor="middle" x="1814.7" y="-316.94" font-family="Times,serif" font-size="14.00">content/250:92</text>
</g>
<!-- q21:1 -->
<g id="node8" class="node">
<title>q21:1</title>
<ellipse fill="none" stroke="black" stroke-width="2" cx="1932.6" cy="-271" rx="39.63" ry="18"/>
<text text-anchor="middle" x="1932.6" y="-266.32" font-family="Times,serif" font-size="14.00">q21:1</text>
</g>
<!-- q17:2594&#45;&gt;q21:1 -->
<g id="edge8" class="edge">
<title>q17:2594&#45;&gt;q21:1</title>
<path fill="none" stroke="black" d="M1743.5,-271C1785.2,-271 1840.8,-271 1880.7,-271"/>
<polygon fill="black" stroke="black" points="1880.59,-274.5 1890.59,-271 1880.59,-267.5 1880.59,-274.5"/>
<text text-anchor="middle" x="1814.7" y="-274.94" font-family="Times,serif" font-size="14.00">content/550:1</text>
</g>
<!-- q24:65 -->
<g id="node9" class="node">
<title>q24:65</title>
<ellipse fill="none" stroke="black" stroke-width="2" cx="1932.6" cy="-109" rx="45.95" ry="18"/>
<text text-anchor="middle" x="1932.6" y="-104.33" font-family="Times,serif" font-size="14.00">q24:65</text>
</g>
<!-- q18:65&#45;&gt;q24:65 -->
<g id="edge9" class="edge">
<title>q18:65&#45;&gt;q24:65</title>
<path fill="none" stroke="black" d="M1730.9,-109C1771.5,-109 1831.1,-109 1874.8,-109"/>
<polygon fill="black" stroke="black" points="1874.59,-112.5 1884.59,-109 1874.59,-105.5 1874.59,-112.5"/>
<text text-anchor="middle" x="1814.7" y="-112.95" font-family="Times,serif" font-size="14.00">RSET/250:65</text>
</g>
<!-- q27:9 -->
<g id="node10" class="node">
<title>q27:9</title>
<ellipse fill="none" stroke="black" stroke-width="2" cx="2152" cy="-217" rx="39.63" ry="18"/>
<text text-anchor="middle" x="2152" y="-212.32" font-family="Times,serif" font-size="14.00">q27:9</text>
</g>
<!-- q23:9&#45;&gt;q27:9 -->
<g id="edge10" class="edge">
<title>q23:9&#45;&gt;q27:9</title>
<path fill="none" stroke="black" d="M1973.2,-217C2009,-217 2061.8,-217 2100.6,-217"/>
<polygon fill="black" stroke="black" points="2100.19,-220.5 2110.19,-217 2100.19,-213.5 2100.19,-220.5"/>
<text text-anchor="middle" x="2042.3" y="-220.94" font-family="Times,serif" font-size="14.00">RSET/250:9</text>
</g>
<!-- q26:92 -->
<g id="node11" class="node">
<title>q26:92</title>
<ellipse fill="none" stroke="black" stroke-width="2" cx="2152" cy="-325" rx="45.95" ry="18"/>
<text text-anchor="middle" x="2152" y="-320.32" font-family="Times,serif" font-size="14.00">q26:92</text>
</g>
<!-- q22:92&#45;&gt;q26:92 -->
<g id="edge11" class="edge">
<title>q22:92&#45;&gt;q26:92</title>
<path fill="none" stroke="black" d="M1979.4,-325C2012.8,-325 2058.3,-325 2094,-325"/>
<polygon fill="black" stroke="black" points="2093.69,-328.5 2103.69,-325 2093.69,-321.5 2093.69,-328.5"/>
<text text-anchor="middle" x="2042.3" y="-328.94" font-family="Times,serif" font-size="14.00">QUIT/221:92</text>
</g>
<!-- q25:1 -->
<g id="node12" class="node">
<title>q25:1</title>
<ellipse fill="none" stroke="black" stroke-width="2" cx="2152" cy="-271" rx="39.63" ry="18"/>
<text text-anchor="middle" x="2152" y="-266.32" font-family="Times,serif" font-size="14.00">q25:1</text>
</g>
<!-- q21:1&#45;&gt;q25:1 -->
<g id="edge12" class="edge">
<title>q21:1&#45;&gt;q25:1</title>
<path fill="none" stroke="black" d="M1973.2,-271C2009,-271 2061.8,-271 2100.6,-271"/>
<polygon fill="black" stroke="black" points="2100.19,-274.5 2110.19,-271 2100.19,-267.5 2100.19,-274.5"/>
<text text-anchor="middle" x="2042.3" y="-274.94" font-family="Times,serif" font-size="14.00">RSET/250:1</text>
</g>
<!-- q7:10 -->
<g id="node13" class="node">
<title>q7:10</title>
<ellipse fill="none" stroke="black" stroke-width="2" cx="960.59" cy="-301" rx="39.63" ry="18"/>
<text text-anchor="middle" x="960.59" y="-296.32" font-family="Times,serif" font-size="14.00">q7:10</text>
</g>
<!-- q11:10 -->
<g id="node14" class="node">
<title>q11:10</title>
<ellipse fill="none" stroke="black" stroke-width="2" cx="1209.1" cy="-317" rx="45.95" ry="18"/>
<text text-anchor="middle" x="1209.1" y="-312.32" font-family="Times,serif" font-size="14.00">q11:10</text>
</g>
<!-- q7:10&#45;&gt;q11:10 -->
<g id="edge13" class="edge">
<title>q7:10&#45;&gt;q11:10</title>
<path fill="none" stroke="black" d="M1000.65,-303.54C1041.3,-306.18 1105.4,-310.34 1151.6,-313.33"/>
<polygon fill="black" stroke="black" points="1151.28,-316.82 1161.49,-313.97 1151.74,-309.83 1151.28,-316.82"/>
<text text-anchor="middle" x="1084.8" y="-315.94" font-family="Times,serif" font-size="14.00">content/535:10</text>
</g>
<!-- q15:2 -->
<g id="node15" class="node">
<title>q15:2</title>
<ellipse fill="none" stroke="black" stroke-width="2" cx="1435.6" cy="-317" rx="39.63" ry="18"/>
<text text-anchor="middle" x="1435.6" y="-312.32" font-family="Times,serif" font-size="14.00">q15:2</text>
</g>
<!-- q11:10&#45;&gt;q15:2 -->
<g id="edge14" class="edge">
<title>q11:10&#45;&gt;q15:2</title>
<path fill="none" stroke="black" d="M1255.8,-317C1292.9,-317 1345.1,-317 1383.5,-317"/>
<polygon fill="black" stroke="black" points="1383.39,-320.5 1393.39,-317 1383.39,-313.5 1383.39,-320.5"/>
<text text-anchor="middle" x="1325.5" y="-320.94" font-family="Times,serif" font-size="14.00">λ/451:2</text>
</g>
<!-- q8:230 -->
<g id="node16" class="node">
<title>q8:230</title>
<ellipse fill="none" stroke="black" stroke-width="2" cx="960.59" cy="-72" rx="45.95" ry="18"/>
<text text-anchor="middle" x="960.59" y="-67.33" font-family="Times,serif" font-size="14.00">q8:230</text>
</g>
<!-- q10:235 -->
<g id="node17" class="node">
<title>q10:235</title>
<ellipse fill="none" stroke="black" stroke-width="2" cx="1209.1" cy="-159" rx="52.26" ry="18"/>
<text text-anchor="middle" x="1209.1" y="-154.32" font-family="Times,serif" font-size="14.00">q10:235</text>
</g>
<!-- q8:230&#45;&gt;q10:235 -->
<g id="edge15" class="edge">
<title>q8:230&#45;&gt;q10:235</title>
<path fill="none" stroke="black" d="M1007,-70.33C1044.2,-70.69 1097.1,-75.22 1138.8,-94.75 1157.4,-103.42 1174.3,-118.89 1186.8,-132.47"/>
<polygon fill="black" stroke="black" points="1184.08,-134.68 1193.3,-139.9 1189.35,-130.07 1184.08,-134.68"/>
<text text-anchor="middle" x="1084.8" y="-97.95" font-family="Times,serif" font-size="14.00">RCPT/250:230</text>
</g>
<!-- q10:235&#45;&gt;q13:89 -->
<g id="edge16" class="edge">
<title>q10:235&#45;&gt;q13:89</title>
<path fill="none" stroke="black" d="M1262.2,-159.23C1296.8,-159.39 1342.2,-159.59 1377.7,-159.75"/>
<polygon fill="black" stroke="black" points="1377.37,-163.25 1387.39,-159.79 1377.4,-156.25 1377.37,-163.25"/>
<text text-anchor="middle" x="1325.5" y="-162.94" font-family="Times,serif" font-size="14.00">DATA/354:89</text>
</g>
<!-- q14:146 -->
<g id="node18" class="node">
<title>q14:146</title>
<ellipse fill="none" stroke="black" stroke-width="2" cx="960.59" cy="-215" rx="52.26" ry="18"/>
<text text-anchor="middle" x="960.59" y="-210.32" font-family="Times,serif" font-size="14.00">q14:146</text>
</g>
<!-- q10:235&#45;&gt;q14:146 -->
<g id="edge17" class="edge">
<title>q10:235&#45;&gt;q14:146</title>
<path fill="none" stroke="black" d="M1161.1,-150.98C1124.6,-146.66 1073.1,-144.87 1030.8,-159.75 1013.9,-165.71 998.03,-177.72 985.76,-189.02"/>
<polygon fill="black" stroke="black" points="983.32,-186.51 978.58,-195.98 988.19,-191.53 983.32,-186.51"/>
<text text-anchor="middle" x="1084.8" y="-162.94" font-family="Times,serif" font-size="14.00">RCPT/250:146</text>
</g>
<!-- q14:146&#45;&gt;q17:2594 -->
<g id="edge18" class="edge">
<title>q14:146&#45;&gt;q17:2594</title>
<path fill="none" stroke="black" d="M992.63,-229.96C1004.3,-234.96 1018,-240.01 1030.8,-243 1085.5,-255.68 1100.8,-248.99 1156.8,-252 1320.6,-260.8 1513.2,-266.59 1613.8,-269.28"/>
<polygon fill="black" stroke="black" points="1613.4,-272.77 1623.49,-269.53 1613.58,-265.77 1613.4,-272.77"/>
<text text-anchor="middle" x="1325.5" y="-264.94" font-family="Times,serif" font-size="14.00">DATA/354:99</text>
</g>
<!-- q14:146&#45;&gt;q10:235 -->
<g id="edge19" class="edge">
<title>q14:146&#45;&gt;q10:235</title>
<path fill="none" stroke="black" d="M1001.7,-203.12C1011.2,-200.51 1021.3,-197.89 1030.8,-195.75 1078.4,-185.05 1091.2,-187.3 1138.8,-177 1144.4,-175.8 1150.2,-174.45 1155.9,-173.05"/>
<polygon fill="black" stroke="black" points="1156.57,-176.49 1165.43,-170.68 1154.88,-169.7 1156.57,-176.49"/>
<text text-anchor="middle" x="1084.8" y="-198.94" font-family="Times,serif" font-size="14.00">RCPT/250:4</text>
</g>
<!-- q19:43 -->
<g id="node19" class="node">
<title>q19:43</title>
<ellipse fill="none" stroke="black" stroke-width="2" cx="1209.1" cy="-225" rx="45.95" ry="18"/>
<text text-anchor="middle" x="1209.1" y="-220.32" font-family="Times,serif" font-size="14.00">q19:43</text>
</g>
<!-- q14:146&#45;&gt;q19:43 -->
<g id="edge20" class="edge">
<title>q14:146&#45;&gt;q19:43</title>
<path fill="none" stroke="black" d="M1013.3,-217.1C1053.7,-218.73 1109.7,-221.01 1151.4,-222.7"/>
<polygon fill="black" stroke="black" points="1151.05,-226.19 1161.19,-223.1 1151.34,-219.19 1151.05,-226.19"/>
<text text-anchor="middle" x="1084.8" y="-225.94" font-family="Times,serif" font-size="14.00">DATA/550:43</text>
</g>
<!-- q9:3 -->
<g id="node20" class="node">
<title>q9:3</title>
<ellipse fill="none" stroke="black" stroke-width="2" cx="960.59" cy="-18" rx="33.32" ry="18"/>
<text text-anchor="middle" x="960.59" y="-13.32" font-family="Times,serif" font-size="14.00">q9:3</text>
</g>
<!-- q12:3 -->
<g id="node21" class="node">
<title>q12:3</title>
<ellipse fill="none" stroke="black" stroke-width="2" cx="1209.1" cy="-18" rx="39.63" ry="18"/>
<text text-anchor="middle" x="1209.1" y="-13.32" font-family="Times,serif" font-size="14.00">q12:3</text>
</g>
<!-- q9:3&#45;&gt;q12:3 -->
<g id="edge21" class="edge">
<title>q9:3&#45;&gt;q12:3</title>
<path fill="none" stroke="black" d="M994.83,-18C1036.7,-18 1109,-18 1157.7,-18"/>
<polygon fill="black" stroke="black" points="1157.39,-21.5 1167.39,-18 1157.39,-14.5 1157.39,-21.5"/>
<text text-anchor="middle" x="1084.8" y="-21.95" font-family="Times,serif" font-size="14.00">RSET/250:3</text>
</g>
<!-- q5:233 -->
<g id="node22" class="node">
<title>q5:233</title>
<ellipse fill="none" stroke="black" stroke-width="2" cx="725.13" cy="-62" rx="45.95" ry="18"/>
<text text-anchor="middle" x="725.13" y="-57.33" font-family="Times,serif" font-size="14.00">q5:233</text>
</g>
<!-- q5:233&#45;&gt;q8:230 -->
<g id="edge22" class="edge">
<title>q5:233&#45;&gt;q8:230</title>
<path fill="none" stroke="black" d="M771.7,-63.95C809.22,-65.56 862.6,-67.85 902.88,-69.57"/>
<polygon fill="black" stroke="black" points="902.48,-73.06 912.62,-69.99 902.78,-66.06 902.48,-73.06"/>
<text text-anchor="middle" x="839.7" y="-71.95" font-family="Times,serif" font-size="14.00">MAIL/250:230</text>
</g>
<!-- q5:233&#45;&gt;q9:3 -->
<g id="edge23" class="edge">
<title>q5:233&#45;&gt;q9:3</title>
<path fill="none" stroke="black" d="M761.5,-50.15C770.42,-47.45 780.04,-44.77 789.08,-42.75 831.69,-33.2 881.16,-26.49 915.8,-22.49"/>
<polygon fill="black" stroke="black" points="915.9,-26 925.45,-21.41 915.12,-19.05 915.9,-26"/>
<text text-anchor="middle" x="839.7" y="-46.95" font-family="Times,serif" font-size="14.00">MAIL/553:3</text>
</g>
<!-- q0:244 -->
<g id="node23" class="node">
<title>q0:244</title>
<ellipse fill="none" stroke="black" stroke-width="2" cx="53.95" cy="-93" rx="49.95" ry="49.95"/>
<ellipse fill="none" stroke="black" stroke-width="2" cx="53.95" cy="-93" rx="53.95" ry="53.95"/>
<text text-anchor="middle" x="53.95" y="-88.33" font-family="Times,serif" font-size="14.00">q0:244</text>
</g>
<!-- q1:244 -->
<g id="node24" class="node">
<title>q1:244</title>
<ellipse fill="none" stroke="black" stroke-width="2" cx="257.84" cy="-93" rx="45.95" ry="18"/>
<text text-anchor="middle" x="257.84" y="-88.33" font-family="Times,serif" font-size="14.00">q1:244</text>
</g>
<!-- q0:244&#45;&gt;q1:244 -->
<g id="edge24" class="edge">
<title>q0:244&#45;&gt;q1:244</title>
<path fill="none" stroke="black" d="M104.85,-93C133.64,-93 169.94,-93 199.84,-93"/>
<polygon fill="black" stroke="black" points="199.45,-96.5 209.45,-93 199.45,-89.5 199.45,-96.5"/>
<text text-anchor="middle" x="157.89" y="-96.95" font-family="Times,serif" font-size="14.00">λ/220:244</text>
</g>
<!-- q2:242 -->
<g id="node25" class="node">
<title>q2:242</title>
<ellipse fill="none" stroke="black" stroke-width="2" cx="491.48" cy="-126" rx="45.95" ry="18"/>
<text text-anchor="middle" x="491.48" y="-121.33" font-family="Times,serif" font-size="14.00">q2:242</text>
</g>
<!-- q1:244&#45;&gt;q2:242 -->
<g id="edge25" class="edge">
<title>q1:244&#45;&gt;q2:242</title>
<path fill="none" stroke="black" d="M302.14,-99.17C340,-104.56 395.17,-112.42 436.02,-118.24"/>
<polygon fill="black" stroke="black" points="435.51,-121.7 445.9,-119.65 436.49,-114.77 435.51,-121.7"/>
<text text-anchor="middle" x="374.66" y="-119.95" font-family="Times,serif" font-size="14.00">EHLO/250:242</text>
</g>
<!-- q3:2 -->
<g id="node26" class="node">
<title>q3:2</title>
<ellipse fill="none" stroke="black" stroke-width="2" cx="491.48" cy="-66" rx="33.32" ry="18"/>
<text text-anchor="middle" x="491.48" y="-61.33" font-family="Times,serif" font-size="14.00">q3:2</text>
</g>
<!-- q1:244&#45;&gt;q3:2 -->
<g id="edge26" class="edge">
<title>q1:244&#45;&gt;q3:2</title>
<path fill="none" stroke="black" d="M296.21,-82.12C304.56,-80.03 313.43,-78.08 321.79,-76.75 363.53,-70.09 411.69,-67.53 445.85,-66.55"/>
<polygon fill="black" stroke="black" points="445.89,-70.05 455.8,-66.31 445.71,-63.05 445.89,-70.05"/>
<text text-anchor="middle" x="374.66" y="-79.95" font-family="Times,serif" font-size="14.00">EHLO/λ:2</text>
</g>
<!-- q2:242&#45;&gt;q5:233 -->
<g id="edge27" class="edge">
<title>q2:242&#45;&gt;q5:233</title>
<path fill="none" stroke="black" d="M518.39,-110.6C529.48,-104.57 542.77,-98.08 555.43,-93.75 576.24,-86.63 629.15,-77.16 670.21,-70.42"/>
<polygon fill="black" stroke="black" points="670.64,-73.9 679.95,-68.84 669.51,-66.99 670.64,-73.9"/>
<text text-anchor="middle" x="608.31" y="-96.95" font-family="Times,serif" font-size="14.00">AUTH/235:231</text>
</g>
<!-- q6:1 -->
<g id="node27" class="node">
<title>q6:1</title>
<ellipse fill="none" stroke="black" stroke-width="2" cx="839.7" cy="-128" rx="33.32" ry="18"/>
<text text-anchor="middle" x="839.7" y="-123.33" font-family="Times,serif" font-size="14.00">q6:1</text>
</g>
<!-- q2:242&#45;&gt;q6:1 -->
<g id="edge28" class="edge">
<title>q2:242&#45;&gt;q6:1</title>
<path fill="none" stroke="black" d="M538.1,-126.26C604.79,-126.65 728.13,-127.36 794.18,-127.74"/>
<polygon fill="black" stroke="black" points="793.9,-131.24 803.93,-127.8 793.95,-124.24 793.9,-131.24"/>
<text text-anchor="middle" x="608.31" y="-129.94" font-family="Times,serif" font-size="14.00">AUTH/λ:1</text>
</g>
<!-- q4:10 -->
<g id="node28" class="node">
<title>q4:10</title>
<ellipse fill="none" stroke="black" stroke-width="2" cx="725.13" cy="-197" rx="39.63" ry="18"/>
<text text-anchor="middle" x="725.13" y="-192.32" font-family="Times,serif" font-size="14.00">q4:10</text>
</g>
<!-- q2:242&#45;&gt;q4:10 -->
<g id="edge29" class="edge">
<title>q2:242&#45;&gt;q4:10</title>
<path fill="none" stroke="black" d="M521.85,-140.3C532.3,-145.05 544.25,-150.12 555.43,-154 595.58,-167.93 642.52,-179.53 676.67,-187.16"/>
<polygon fill="black" stroke="black" points="675.74,-190.54 686.26,-189.27 677.24,-183.7 675.74,-190.54"/>
<text text-anchor="middle" x="608.31" y="-186.94" font-family="Times,serif" font-size="14.00">AUTH/535:10</text>
</g>
<!-- q3:2&#45;&gt;q5:233 -->
<g id="edge30" class="edge">
<title>q3:2&#45;&gt;q5:233</title>
<path fill="none" stroke="black" d="M523.05,-58.83C533.28,-56.76 544.79,-54.78 555.43,-53.75 602.21,-49.24 614.28,-50.69 661.18,-53.75 664.02,-53.94 666.93,-54.17 669.86,-54.43"/>
<polygon fill="black" stroke="black" points="669.39,-57.9 679.69,-55.46 670.11,-50.94 669.39,-57.9"/>
<text text-anchor="middle" x="608.31" y="-57.95" font-family="Times,serif" font-size="14.00">AUTH/235:2</text>
</g>
<!-- q6:1&#45;&gt;q10:235 -->
<g id="edge31" class="edge">
<title>q6:1&#45;&gt;q10:235</title>
<path fill="none" stroke="black" d="M873.97,-127.76C929.25,-127.8 1043.4,-129.68 1138.8,-143 1144.1,-143.73 1149.5,-144.66 1154.9,-145.71"/>
<polygon fill="black" stroke="black" points="1153.81,-149.06 1164.32,-147.68 1155.25,-142.21 1153.81,-149.06"/>
<text text-anchor="middle" x="960.59" y="-134.94" font-family="Times,serif" font-size="14.00">MAIL/250:1</text>
</g>
<!-- q4:10&#45;&gt;q7:10 -->
<g id="edge32" class="edge">
<title>q4:10&#45;&gt;q7:10</title>
<path fill="none" stroke="black" d="M754.75,-209.75C796.32,-228.27 873.53,-262.66 920.36,-283.53"/>
<polygon fill="black" stroke="black" points="918.79,-286.66 929.35,-287.53 921.63,-280.26 918.79,-286.66"/>
<text text-anchor="middle" x="839.7" y="-270.94" font-family="Times,serif" font-size="14.00">AUTH/334:10</text>
</g>
</g>
</svg>
