<?xml version="1.0" encoding="UTF-8" standalone="no"?>
<!DOCTYPE svg PUBLIC "-//W3C//DTD SVG 1.1//EN"
 "http://www.w3.org/Graphics/SVG/1.1/DTD/svg11.dtd">
<!-- Generated by graphviz version 12.0.0 (20240803.0821)
 -->
<!-- Pages: 1 -->
<svg width="2244pt" height="294pt"
 viewBox="0.00 0.00 2243.96 294.11" xmlns="http://www.w3.org/2000/svg" xmlns:xlink="http://www.w3.org/1999/xlink">
<g id="graph0" class="graph" transform="scale(1 1) rotate(0) translate(4 290.11)">
<polygon fill="white" stroke="none" points="-4,4 -4,-290.11 2239.96,-290.11 2239.96,4 -4,4"/>
<!-- q10:229 -->
<g id="node1" class="node">
<title>q10:229</title>
<ellipse fill="none" stroke="black" stroke-width="2" cx="1196.5" cy="-138.11" rx="52.26" ry="18"/>
<text text-anchor="middle" x="1196.5" y="-133.43" font-family="Times,serif" font-size="14.00">q10:229</text>
</g>
<!-- q13:144 -->
<g id="node2" class="node">
<title>q13:144</title>
<ellipse fill="none" stroke="black" stroke-width="2" cx="1439.8" cy="-188.11" rx="52.26" ry="18"/>
<text text-anchor="middle" x="1439.8" y="-183.43" font-family="Times,serif" font-size="14.00">q13:144</text>
</g>
<!-- q10:229&#45;&gt;q13:144 -->
<g id="edge1" class="edge">
<title>q10:229&#45;&gt;q13:144</title>
<path fill="none" stroke="black" d="M1242.6,-147.46C1282.1,-155.66 1339.8,-167.61 1382.4,-176.44"/>
<polygon fill="black" stroke="black" points="1381.52,-179.83 1392.02,-178.42 1382.93,-172.97 1381.52,-179.83"/>
<text text-anchor="middle" x="1318.1" y="-177.05" font-family="Times,serif" font-size="14.00">RCPT/250:140</text>
</g>
<!-- q14:2640 -->
<g id="node3" class="node">
<title>q14:2640</title>
<ellipse fill="none" stroke="black" stroke-width="2" cx="1678.8" cy="-117.11" rx="58.57" ry="18"/>
<text text-anchor="middle" x="1678.8" y="-112.43" font-family="Times,serif" font-size="14.00">q14:2640</text>
</g>
<!-- q10:229&#45;&gt;q14:2640 -->
<g id="edge2" class="edge">
<title>q10:229&#45;&gt;q14:2640</title>
<path fill="none" stroke="black" d="M1249.3,-135.84C1336.2,-132.05 1511,-124.4 1608.4,-120.15"/>
<polygon fill="black" stroke="black" points="1608.55,-123.65 1618.39,-119.71 1608.24,-116.65 1608.55,-123.65"/>
<text text-anchor="middle" x="1439.8" y="-133.05" font-family="Times,serif" font-size="14.00">DATA/354:89</text>
</g>
<!-- q13:144&#45;&gt;q14:2640 -->
<g id="edge3" class="edge">
<title>q13:144&#45;&gt;q14:2640</title>
<path fill="none" stroke="black" d="M1475.4,-174.19C1486.4,-169.99 1498.6,-165.52 1510,-161.86 1546.1,-150.25 1587.2,-139.25 1619.7,-131.06"/>
<polygon fill="black" stroke="black" points="1620.48,-134.47 1629.33,-128.66 1618.78,-127.68 1620.48,-134.47"/>
<text text-anchor="middle" x="1556.1" y="-165.05" font-family="Times,serif" font-size="14.00">DATA/354:97</text>
</g>
<!-- q17:4 -->
<g id="node4" class="node">
<title>q17:4</title>
<ellipse fill="none" stroke="black" stroke-width="2" cx="1678.8" cy="-211.11" rx="39.63" ry="18"/>
<text text-anchor="middle" x="1678.8" y="-206.43" font-family="Times,serif" font-size="14.00">q17:4</text>
</g>
<!-- q13:144&#45;&gt;q17:4 -->
<g id="edge4" class="edge">
<title>q13:144&#45;&gt;q17:4</title>
<path fill="none" stroke="black" d="M1491.9,-184.69C1523.8,-183.46 1565.6,-183.49 1602.3,-188.86 1613.3,-190.48 1625,-193.33 1635.8,-196.46"/>
<polygon fill="black" stroke="black" points="1634.67,-199.77 1645.25,-199.34 1636.71,-193.08 1634.67,-199.77"/>
<text text-anchor="middle" x="1556.1" y="-192.05" font-family="Times,serif" font-size="14.00">RCPT/250:4</text>
</g>
<!-- q16:43 -->
<g id="node5" class="node">
<title>q16:43</title>
<ellipse fill="none" stroke="black" stroke-width="2" cx="1678.8" cy="-268.11" rx="45.95" ry="18"/>
<text text-anchor="middle" x="1678.8" y="-263.43" font-family="Times,serif" font-size="14.00">q16:43</text>
</g>
<!-- q13:144&#45;&gt;q16:43 -->
<g id="edge5" class="edge">
<title>q13:144&#45;&gt;q16:43</title>
<path fill="none" stroke="black" d="M1462.3,-205.14C1475.5,-214.69 1492.9,-226.06 1510,-233.11 1546,-247.93 1589,-256.74 1622.4,-261.82"/>
<polygon fill="black" stroke="black" points="1621.51,-265.23 1631.9,-263.18 1622.5,-258.3 1621.51,-265.23"/>
<text text-anchor="middle" x="1556.1" y="-261.05" font-family="Times,serif" font-size="14.00">DATA/550:43</text>
</g>
<!-- q14:2640&#45;&gt;q14:2640 -->
<g id="edge6" class="edge">
<title>q14:2640&#45;&gt;q14:2640</title>
<path fill="none" stroke="black" d="M1656.9,-134.52C1652.8,-144.2 1660.1,-153.11 1678.8,-153.11 1689.6,-153.11 1696.6,-150.13 1699.8,-145.75"/>
<polygon fill="black" stroke="black" points="1703.27,-146.28 1700.58,-136.03 1696.29,-145.72 1703.27,-146.28"/>
<text text-anchor="middle" x="1678.8" y="-157.05" font-family="Times,serif" font-size="14.00">content/λ:2454</text>
</g>
<!-- q19:113 -->
<g id="node6" class="node">
<title>q19:113</title>
<ellipse fill="none" stroke="black" stroke-width="2" cx="1942.7" cy="-171.11" rx="52.26" ry="18"/>
<text text-anchor="middle" x="1942.7" y="-166.43" font-family="Times,serif" font-size="14.00">q19:113</text>
</g>
<!-- q14:2640&#45;&gt;q19:113 -->
<g id="edge7" class="edge">
<title>q14:2640&#45;&gt;q19:113</title>
<path fill="none" stroke="black" d="M1722.8,-129.82C1733.4,-132.74 1744.8,-135.7 1755.4,-138.11 1797.6,-147.69 1845.8,-156.16 1882.5,-162.12"/>
<polygon fill="black" stroke="black" points="1881.68,-165.53 1892.1,-163.64 1882.78,-158.62 1881.68,-165.53"/>
<text text-anchor="middle" x="1813.9" y="-164.05" font-family="Times,serif" font-size="14.00">content/250:113</text>
</g>
<!-- q18:1 -->
<g id="node7" class="node">
<title>q18:1</title>
<ellipse fill="none" stroke="black" stroke-width="2" cx="1942.7" cy="-117.11" rx="39.63" ry="18"/>
<text text-anchor="middle" x="1942.7" y="-112.43" font-family="Times,serif" font-size="14.00">q18:1</text>
</g>
<!-- q14:2640&#45;&gt;q18:1 -->
<g id="edge8" class="edge">
<title>q14:2640&#45;&gt;q18:1</title>
<path fill="none" stroke="black" d="M1738.3,-117.11C1784,-117.11 1846.9,-117.11 1890.6,-117.11"/>
<polygon fill="black" stroke="black" points="1890.59,-120.61 1900.59,-117.11 1890.59,-113.61 1890.59,-120.61"/>
<text text-anchor="middle" x="1813.9" y="-121.05" font-family="Times,serif" font-size="14.00">content/550:1</text>
</g>
<!-- q20:72 -->
<g id="node8" class="node">
<title>q20:72</title>
<ellipse fill="none" stroke="black" stroke-width="2" cx="1942.7" cy="-63.11" rx="45.95" ry="18"/>
<text text-anchor="middle" x="1942.7" y="-58.43" font-family="Times,serif" font-size="14.00">q20:72</text>
</g>
<!-- q14:2640&#45;&gt;q20:72 -->
<g id="edge9" class="edge">
<title>q14:2640&#45;&gt;q20:72</title>
<path fill="none" stroke="black" d="M1722.4,-104.33C1733.1,-101.34 1744.6,-98.31 1755.4,-95.86 1799.5,-85.81 1850.1,-77.09 1887.4,-71.18"/>
<polygon fill="black" stroke="black" points="1887.67,-74.68 1897,-69.68 1886.58,-67.77 1887.67,-74.68"/>
<text text-anchor="middle" x="1813.9" y="-99.06" font-family="Times,serif" font-size="14.00">content/554:72</text>
</g>
<!-- q17:4&#45;&gt;q13:144 -->
<g id="edge10" class="edge">
<title>q17:4&#45;&gt;q13:144</title>
<path fill="none" stroke="black" d="M1638.6,-212.42C1604.5,-212.96 1553.7,-212.36 1510,-206.11 1504,-205.25 1497.8,-204.07 1491.6,-202.71"/>
<polygon fill="black" stroke="black" points="1492.71,-199.37 1482.17,-200.48 1491.1,-206.19 1492.71,-199.37"/>
<text text-anchor="middle" x="1556.1" y="-216.05" font-family="Times,serif" font-size="14.00">RCPT/250:4</text>
</g>
<!-- q22:113 -->
<g id="node9" class="node">
<title>q22:113</title>
<ellipse fill="none" stroke="black" stroke-width="2" cx="2183.7" cy="-171.11" rx="52.26" ry="18"/>
<text text-anchor="middle" x="2183.7" y="-166.43" font-family="Times,serif" font-size="14.00">q22:113</text>
</g>
<!-- q19:113&#45;&gt;q22:113 -->
<g id="edge11" class="edge">
<title>q19:113&#45;&gt;q22:113</title>
<path fill="none" stroke="black" d="M1995.8,-171.11C2032.2,-171.11 2081,-171.11 2119.5,-171.11"/>
<polygon fill="black" stroke="black" points="2119.09,-174.61 2129.09,-171.11 2119.09,-167.61 2119.09,-174.61"/>
<text text-anchor="middle" x="2063.2" y="-175.05" font-family="Times,serif" font-size="14.00">QUIT/221:113</text>
</g>
<!-- q21:1 -->
<g id="node10" class="node">
<title>q21:1</title>
<ellipse fill="none" stroke="black" stroke-width="2" cx="2183.7" cy="-117.11" rx="39.63" ry="18"/>
<text text-anchor="middle" x="2183.7" y="-112.43" font-family="Times,serif" font-size="14.00">q21:1</text>
</g>
<!-- q18:1&#45;&gt;q21:1 -->
<g id="edge12" class="edge">
<title>q18:1&#45;&gt;q21:1</title>
<path fill="none" stroke="black" d="M1983.1,-117.11C2023.8,-117.11 2087.3,-117.11 2131.7,-117.11"/>
<polygon fill="black" stroke="black" points="2131.69,-120.61 2141.69,-117.11 2131.69,-113.61 2131.69,-120.61"/>
<text text-anchor="middle" x="2063.2" y="-121.05" font-family="Times,serif" font-size="14.00">RSET/250:1</text>
</g>
<!-- q23:72 -->
<g id="node11" class="node">
<title>q23:72</title>
<ellipse fill="none" stroke="black" stroke-width="2" cx="2183.7" cy="-63.11" rx="45.95" ry="18"/>
<text text-anchor="middle" x="2183.7" y="-58.43" font-family="Times,serif" font-size="14.00">q23:72</text>
</g>
<!-- q20:72&#45;&gt;q23:72 -->
<g id="edge13" class="edge">
<title>q20:72&#45;&gt;q23:72</title>
<path fill="none" stroke="black" d="M1989.5,-63.11C2028.3,-63.11 2084,-63.11 2125.7,-63.11"/>
<polygon fill="black" stroke="black" points="2125.49,-66.61 2135.49,-63.11 2125.49,-59.61 2125.49,-66.61"/>
<text text-anchor="middle" x="2063.2" y="-67.06" font-family="Times,serif" font-size="14.00">RSET/250:72</text>
</g>
<!-- q12:12 -->
<g id="node12" class="node">
<title>q12:12</title>
<ellipse fill="none" stroke="black" stroke-width="2" cx="1196.5" cy="-24.11" rx="45.95" ry="18"/>
<text text-anchor="middle" x="1196.5" y="-19.43" font-family="Times,serif" font-size="14.00">q12:12</text>
</g>
<!-- q15:4 -->
<g id="node13" class="node">
<title>q15:4</title>
<ellipse fill="none" stroke="black" stroke-width="2" cx="1439.8" cy="-24.11" rx="39.63" ry="18"/>
<text text-anchor="middle" x="1439.8" y="-19.43" font-family="Times,serif" font-size="14.00">q15:4</text>
</g>
<!-- q12:12&#45;&gt;q15:4 -->
<g id="edge14" class="edge">
<title>q12:12&#45;&gt;q15:4</title>
<path fill="none" stroke="black" d="M1243.1,-24.11C1284.4,-24.11 1345.2,-24.11 1388,-24.11"/>
<polygon fill="black" stroke="black" points="1387.79,-27.61 1397.79,-24.11 1387.79,-20.61 1387.79,-27.61"/>
<text text-anchor="middle" x="1318.1" y="-28.06" font-family="Times,serif" font-size="14.00">λ/451:4</text>
</g>
<!-- q2:1 -->
<g id="node14" class="node">
<title>q2:1</title>
<ellipse fill="none" stroke="black" stroke-width="2" cx="491.48" cy="-31.11" rx="33.32" ry="18"/>
<text text-anchor="middle" x="491.48" y="-26.43" font-family="Times,serif" font-size="14.00">q2:1</text>
</g>
<!-- q4:231 -->
<g id="node15" class="node">
<title>q4:231</title>
<ellipse fill="none" stroke="black" stroke-width="2" cx="725.13" cy="-94.11" rx="45.95" ry="18"/>
<text text-anchor="middle" x="725.13" y="-89.43" font-family="Times,serif" font-size="14.00">q4:231</text>
</g>
<!-- q2:1&#45;&gt;q4:231 -->
<g id="edge15" class="edge">
<title>q2:1&#45;&gt;q4:231</title>
<path fill="none" stroke="black" d="M520.96,-21.47C556.66,-11.27 618.37,0 661.18,-26.86 676.76,-36.63 667.11,-50.24 679.18,-64.11 681.72,-67.03 684.61,-69.79 687.67,-72.36"/>
<polygon fill="black" stroke="black" points="685.29,-74.95 695.38,-78.18 689.51,-69.36 685.29,-74.95"/>
<text text-anchor="middle" x="608.31" y="-31.06" font-family="Times,serif" font-size="14.00">AUTH/235:1</text>
</g>
<!-- q8:3 -->
<g id="node16" class="node">
<title>q8:3</title>
<ellipse fill="none" stroke="black" stroke-width="2" cx="954.27" cy="-78.11" rx="33.32" ry="18"/>
<text text-anchor="middle" x="954.27" y="-73.43" font-family="Times,serif" font-size="14.00">q8:3</text>
</g>
<!-- q4:231&#45;&gt;q8:3 -->
<g id="edge16" class="edge">
<title>q4:231&#45;&gt;q8:3</title>
<path fill="none" stroke="black" d="M760.33,-81.64C769.54,-78.84 779.58,-76.28 789.08,-74.86 829.56,-68.81 876.28,-70.56 909.51,-73.28"/>
<polygon fill="black" stroke="black" points="908.89,-76.74 919.16,-74.13 909.51,-69.76 908.89,-76.74"/>
<text text-anchor="middle" x="839.7" y="-78.06" font-family="Times,serif" font-size="14.00">MAIL/553:3</text>
</g>
<!-- q7:229 -->
<g id="node17" class="node">
<title>q7:229</title>
<ellipse fill="none" stroke="black" stroke-width="2" cx="954.27" cy="-138.11" rx="45.95" ry="18"/>
<text text-anchor="middle" x="954.27" y="-133.43" font-family="Times,serif" font-size="14.00">q7:229</text>
</g>
<!-- q4:231&#45;&gt;q7:229 -->
<g id="edge17" class="edge">
<title>q4:231&#45;&gt;q7:229</title>
<path fill="none" stroke="black" d="M769.97,-99.45C803.21,-103.87 849.91,-110.87 890.33,-119.86 895.47,-121 900.81,-122.33 906.11,-123.74"/>
<polygon fill="black" stroke="black" points="904.83,-127.02 915.4,-126.31 906.69,-120.27 904.83,-127.02"/>
<text text-anchor="middle" x="839.7" y="-123.05" font-family="Times,serif" font-size="14.00">MAIL/250:228</text>
</g>
<!-- q11:3 -->
<g id="node18" class="node">
<title>q11:3</title>
<ellipse fill="none" stroke="black" stroke-width="2" cx="1196.5" cy="-78.11" rx="39.63" ry="18"/>
<text text-anchor="middle" x="1196.5" y="-73.43" font-family="Times,serif" font-size="14.00">q11:3</text>
</g>
<!-- q8:3&#45;&gt;q11:3 -->
<g id="edge18" class="edge">
<title>q8:3&#45;&gt;q11:3</title>
<path fill="none" stroke="black" d="M988.42,-78.11C1028.8,-78.11 1097.3,-78.11 1144.4,-78.11"/>
<polygon fill="black" stroke="black" points="1144.39,-81.61 1154.39,-78.11 1144.39,-74.61 1144.39,-81.61"/>
<text text-anchor="middle" x="1072.2" y="-82.06" font-family="Times,serif" font-size="14.00">RSET/250:3</text>
</g>
<!-- q7:229&#45;&gt;q10:229 -->
<g id="edge19" class="edge">
<title>q7:229&#45;&gt;q10:229</title>
<path fill="none" stroke="black" d="M1001.02,-138.11C1038.1,-138.11 1090.8,-138.11 1131.9,-138.11"/>
<polygon fill="black" stroke="black" points="1131.69,-141.61 1141.69,-138.11 1131.69,-134.61 1131.69,-141.61"/>
<text text-anchor="middle" x="1072.2" y="-142.05" font-family="Times,serif" font-size="14.00">RCPT/250:229</text>
</g>
<!-- q1:244 -->
<g id="node19" class="node">
<title>q1:244</title>
<ellipse fill="none" stroke="black" stroke-width="2" cx="257.84" cy="-58.11" rx="45.95" ry="18"/>
<text text-anchor="middle" x="257.84" y="-53.43" font-family="Times,serif" font-size="14.00">q1:244</text>
</g>
<!-- q1:244&#45;&gt;q2:1 -->
<g id="edge20" class="edge">
<title>q1:244&#45;&gt;q2:1</title>
<path fill="none" stroke="black" d="M298.66,-48.93C306.31,-47.4 314.27,-45.95 321.79,-44.86 363.67,-38.77 411.82,-35.18 445.93,-33.2"/>
<polygon fill="black" stroke="black" points="446.07,-36.7 455.86,-32.66 445.68,-29.71 446.07,-36.7"/>
<text text-anchor="middle" x="374.66" y="-49.06" font-family="Times,serif" font-size="14.00">EHLO/λ:1</text>
</g>
<!-- q3:243 -->
<g id="node20" class="node">
<title>q3:243</title>
<ellipse fill="none" stroke="black" stroke-width="2" cx="491.48" cy="-91.11" rx="45.95" ry="18"/>
<text text-anchor="middle" x="491.48" y="-86.43" font-family="Times,serif" font-size="14.00">q3:243</text>
</g>
<!-- q1:244&#45;&gt;q3:243 -->
<g id="edge21" class="edge">
<title>q1:244&#45;&gt;q3:243</title>
<path fill="none" stroke="black" d="M302.14,-64.28C340,-69.67 395.17,-77.53 436.02,-83.35"/>
<polygon fill="black" stroke="black" points="435.51,-86.81 445.9,-84.76 436.49,-79.88 435.51,-86.81"/>
<text text-anchor="middle" x="374.66" y="-85.06" font-family="Times,serif" font-size="14.00">EHLO/250:243</text>
</g>
<!-- q3:243&#45;&gt;q4:231 -->
<g id="edge22" class="edge">
<title>q3:243&#45;&gt;q4:231</title>
<path fill="none" stroke="black" d="M538.25,-91.7C575.21,-92.18 627.42,-92.86 667.1,-93.37"/>
<polygon fill="black" stroke="black" points="666.9,-96.87 676.95,-93.5 666.99,-89.87 666.9,-96.87"/>
<text text-anchor="middle" x="608.31" y="-97.06" font-family="Times,serif" font-size="14.00">AUTH/235:230</text>
</g>
<!-- q5:12 -->
<g id="node21" class="node">
<title>q5:12</title>
<ellipse fill="none" stroke="black" stroke-width="2" cx="725.13" cy="-37.11" rx="39.63" ry="18"/>
<text text-anchor="middle" x="725.13" y="-32.43" font-family="Times,serif" font-size="14.00">q5:12</text>
</g>
<!-- q3:243&#45;&gt;q5:12 -->
<g id="edge23" class="edge">
<title>q3:243&#45;&gt;q5:12</title>
<path fill="none" stroke="black" d="M526.53,-78.69C535.83,-75.55 545.95,-72.37 555.43,-69.86 595.47,-59.27 641.68,-50.53 675.61,-44.75"/>
<polygon fill="black" stroke="black" points="675.83,-48.27 685.12,-43.16 674.68,-41.36 675.83,-48.27"/>
<text text-anchor="middle" x="608.31" y="-74.06" font-family="Times,serif" font-size="14.00">AUTH/535:12</text>
</g>
<!-- q6:1 -->
<g id="node22" class="node">
<title>q6:1</title>
<ellipse fill="none" stroke="black" stroke-width="2" cx="725.13" cy="-149.11" rx="33.32" ry="18"/>
<text text-anchor="middle" x="725.13" y="-144.43" font-family="Times,serif" font-size="14.00">q6:1</text>
</g>
<!-- q3:243&#45;&gt;q6:1 -->
<g id="edge24" class="edge">
<title>q3:243&#45;&gt;q6:1</title>
<path fill="none" stroke="black" d="M525.18,-104.08C534.83,-107.63 545.47,-111.27 555.43,-114.11 597.69,-126.14 647,-135.89 681.35,-142.01"/>
<polygon fill="black" stroke="black" points="680.44,-145.4 690.9,-143.69 681.66,-138.51 680.44,-145.4"/>
<text text-anchor="middle" x="608.31" y="-141.05" font-family="Times,serif" font-size="14.00">AUTH/λ:1</text>
</g>
<!-- q9:12 -->
<g id="node23" class="node">
<title>q9:12</title>
<ellipse fill="none" stroke="black" stroke-width="2" cx="954.27" cy="-24.11" rx="39.63" ry="18"/>
<text text-anchor="middle" x="954.27" y="-19.43" font-family="Times,serif" font-size="14.00">q9:12</text>
</g>
<!-- q5:12&#45;&gt;q9:12 -->
<g id="edge25" class="edge">
<title>q5:12&#45;&gt;q9:12</title>
<path fill="none" stroke="black" d="M765.43,-34.86C803.42,-32.68 861.15,-29.38 902.58,-27.01"/>
<polygon fill="black" stroke="black" points="902.77,-30.5 912.56,-26.44 902.37,-23.52 902.77,-30.5"/>
<text text-anchor="middle" x="839.7" y="-38.06" font-family="Times,serif" font-size="14.00">AUTH/334:12</text>
</g>
<!-- q6:1&#45;&gt;q7:229 -->
<g id="edge26" class="edge">
<title>q6:1&#45;&gt;q7:229</title>
<path fill="none" stroke="black" d="M759.16,-147.51C795.19,-145.77 853.5,-142.94 896.82,-140.84"/>
<polygon fill="black" stroke="black" points="896.72,-144.35 906.54,-140.37 896.38,-137.36 896.72,-144.35"/>
<text text-anchor="middle" x="839.7" y="-149.05" font-family="Times,serif" font-size="14.00">MAIL/250:1</text>
</g>
<!-- q9:12&#45;&gt;q12:12 -->
<g id="edge27" class="edge">
<title>q9:12&#45;&gt;q12:12</title>
<path fill="none" stroke="black" d="M994.67,-24.11C1033.8,-24.11 1094.1,-24.11 1138.4,-24.11"/>
<polygon fill="black" stroke="black" points="1138.39,-27.61 1148.39,-24.11 1138.39,-20.61 1138.39,-27.61"/>
<text text-anchor="middle" x="1072.2" y="-28.06" font-family="Times,serif" font-size="14.00">content/535:12</text>
</g>
<!-- q0:244 -->
<g id="node24" class="node">
<title>q0:244</title>
<ellipse fill="none" stroke="black" stroke-width="2" cx="53.95" cy="-58.11" rx="49.95" ry="49.95"/>
<ellipse fill="none" stroke="black" stroke-width="2" cx="53.95" cy="-58.11" rx="53.95" ry="53.95"/>
<text text-anchor="middle" x="53.95" y="-53.43" font-family="Times,serif" font-size="14.00">q0:244</text>
</g>
<!-- q0:244&#45;&gt;q1:244 -->
<g id="edge28" class="edge">
<title>q0:244&#45;&gt;q1:244</title>
<path fill="none" stroke="black" d="M104.85,-58.11C133.64,-58.11 169.94,-58.11 199.84,-58.11"/>
<polygon fill="black" stroke="black" points="199.45,-61.61 209.45,-58.11 199.45,-54.61 199.45,-61.61"/>
<text text-anchor="middle" x="157.89" y="-62.06" font-family="Times,serif" font-size="14.00">λ/220:244</text>
</g>
</g>
</svg>
