<?xml version="1.0" encoding="UTF-8" standalone="no"?>
<!DOCTYPE svg PUBLIC "-//W3C//DTD SVG 1.1//EN"
 "http://www.w3.org/Graphics/SVG/1.1/DTD/svg11.dtd">
<!-- Generated by graphviz version 12.0.0 (20240803.0821)
 -->
<!-- Pages: 1 -->
<svg width="5176pt" height="657pt"
 viewBox="0.00 0.00 5176.45 656.99" xmlns="http://www.w3.org/2000/svg" xmlns:xlink="http://www.w3.org/1999/xlink">
<g id="graph0" class="graph" transform="scale(1 1) rotate(0) translate(4 652.99)">
<polygon fill="white" stroke="none" points="-4,4 -4,-652.99 5172.45,-652.99 5172.45,4 -4,4"/>
<!-- q18:89 -->
<g id="node1" class="node">
<title>q18:89</title>
<ellipse fill="none" stroke="black" stroke-width="2" cx="3904.7" cy="-119.29" rx="45.95" ry="18"/>
<text text-anchor="middle" x="3904.7" y="-114.61" font-family="Times,serif" font-size="14.00">q18:89</text>
</g>
<!-- q22:65 -->
<g id="node2" class="node">
<title>q22:65</title>
<ellipse fill="none" stroke="black" stroke-width="2" cx="4537.6" cy="-41.28" rx="45.95" ry="18"/>
<text text-anchor="middle" x="4537.6" y="-36.61" font-family="Times,serif" font-size="14.00">q22:65</text>
</g>
<!-- q18:89&#45;&gt;q22:65 -->
<g id="edge1" class="edge">
<title>q18:89&#45;&gt;q22:65</title>
<path fill="none" stroke="black" d="M3921.8,-101.85C3934.8,-89.08 3954.2,-72.69 3975,-65.03 4151.3,0 4380.1,-19.37 4482.7,-32.96"/>
<polygon fill="black" stroke="black" points="4482.12,-36.41 4492.5,-34.29 4483.06,-29.48 4482.12,-36.41"/>
<text text-anchor="middle" x="4218" y="-68.23" font-family="Times,serif" font-size="14.00">content/554:65</text>
</g>
<!-- q16:2608 -->
<g id="node3" class="node">
<title>q16:2608</title>
<ellipse fill="none" stroke="black" stroke-width="2" cx="4537.6" cy="-154.28" rx="58.57" ry="18"/>
<text text-anchor="middle" x="4537.6" y="-149.61" font-family="Times,serif" font-size="14.00">q16:2608</text>
</g>
<!-- q18:89&#45;&gt;q16:2608 -->
<g id="edge2" class="edge">
<title>q18:89&#45;&gt;q16:2608</title>
<path fill="none" stroke="black" d="M3951.5,-120.16C4046.6,-122.24 4272.3,-128.62 4461,-144.78 4464.4,-145.07 4468,-145.41 4471.5,-145.78"/>
<polygon fill="black" stroke="black" points="4471.08,-149.25 4481.39,-146.84 4471.83,-142.29 4471.08,-149.25"/>
<text text-anchor="middle" x="4218" y="-165.48" font-family="Times,serif" font-size="14.00">content/λ:3</text>
<text text-anchor="middle" x="4218" y="-148.23" font-family="Times,serif" font-size="14.00">a0 = b0</text>
</g>
<!-- q23:21 -->
<g id="node4" class="node">
<title>q23:21</title>
<ellipse fill="none" stroke="black" stroke-width="2" cx="4537.6" cy="-97.28" rx="45.95" ry="18"/>
<text text-anchor="middle" x="4537.6" y="-92.61" font-family="Times,serif" font-size="14.00">q23:21</text>
</g>
<!-- q18:89&#45;&gt;q23:21 -->
<g id="edge3" class="edge">
<title>q18:89&#45;&gt;q23:21</title>
<path fill="none" stroke="black" d="M3942.8,-108.34C3953.1,-105.76 3964.4,-103.37 3975,-102.03 4158.7,-78.71 4378.9,-87.38 4480.4,-93.41"/>
<polygon fill="black" stroke="black" points="4479.89,-96.88 4490.09,-94 4480.32,-89.9 4479.89,-96.88"/>
<text text-anchor="middle" x="4218" y="-105.23" font-family="Times,serif" font-size="14.00">content/250:21</text>
</g>
<!-- q27:65 -->
<g id="node5" class="node">
<title>q27:65</title>
<ellipse fill="none" stroke="black" stroke-width="2" cx="4903.1" cy="-38.28" rx="45.95" ry="18"/>
<text text-anchor="middle" x="4903.1" y="-33.61" font-family="Times,serif" font-size="14.00">q27:65</text>
</g>
<!-- q22:65&#45;&gt;q27:65 -->
<g id="edge4" class="edge">
<title>q22:65&#45;&gt;q27:65</title>
<path fill="none" stroke="black" d="M4584.2,-40.9C4650.5,-40.36 4773.2,-39.34 4845.2,-38.75"/>
<polygon fill="black" stroke="black" points="4844.82,-42.25 4854.79,-38.67 4844.76,-35.25 4844.82,-42.25"/>
<text text-anchor="middle" x="4726.6" y="-62.48" font-family="Times,serif" font-size="14.00">RSET/250:65</text>
<text text-anchor="middle" x="4726.6" y="-45.23" font-family="Times,serif" font-size="14.00">b0 = OK</text>
</g>
<!-- q16:2608&#45;&gt;q16:2608 -->
<g id="edge5" class="edge">
<title>q16:2608&#45;&gt;q16:2608</title>
<path fill="none" stroke="black" d="M4505.2,-169.83C4496.1,-180.2 4506.9,-190.28 4537.6,-190.28 4556.7,-190.28 4568.1,-186.34 4571.7,-180.86"/>
<polygon fill="black" stroke="black" points="4575.21,-180.62 4570.14,-171.32 4568.3,-181.75 4575.21,-180.62"/>
<text text-anchor="middle" x="4537.6" y="-211.48" font-family="Times,serif" font-size="14.00">content/λ:2506</text>
<text text-anchor="middle" x="4537.6" y="-194.23" font-family="Times,serif" font-size="14.00">a0 = b0</text>
</g>
<!-- q21:92 -->
<g id="node6" class="node">
<title>q21:92</title>
<ellipse fill="none" stroke="black" stroke-width="2" cx="4903.1" cy="-150.28" rx="45.95" ry="18"/>
<text text-anchor="middle" x="4903.1" y="-145.61" font-family="Times,serif" font-size="14.00">q21:92</text>
</g>
<!-- q16:2608&#45;&gt;q21:92 -->
<g id="edge6" class="edge">
<title>q16:2608&#45;&gt;q21:92</title>
<path fill="none" stroke="black" d="M4597,-153.64C4665.2,-152.89 4777.3,-151.66 4844.9,-150.92"/>
<polygon fill="black" stroke="black" points="4844.73,-154.42 4854.69,-150.8 4844.65,-147.42 4844.73,-154.42"/>
<text text-anchor="middle" x="4726.6" y="-157.23" font-family="Times,serif" font-size="14.00">content/250:92</text>
</g>
<!-- q20:1 -->
<g id="node7" class="node">
<title>q20:1</title>
<ellipse fill="none" stroke="black" stroke-width="2" cx="4903.1" cy="-260.29" rx="39.63" ry="18"/>
<text text-anchor="middle" x="4903.1" y="-255.61" font-family="Times,serif" font-size="14.00">q20:1</text>
</g>
<!-- q16:2608&#45;&gt;q20:1 -->
<g id="edge7" class="edge">
<title>q16:2608&#45;&gt;q20:1</title>
<path fill="none" stroke="black" d="M4553.3,-172.36C4567.2,-188.06 4589.6,-210.03 4614.1,-221.28 4691.5,-256.76 4792,-262.42 4851.5,-262.14"/>
<polygon fill="black" stroke="black" points="4851.33,-265.65 4861.29,-262.03 4851.25,-258.65 4851.33,-265.65"/>
<text text-anchor="middle" x="4726.6" y="-282.49" font-family="Times,serif" font-size="14.00">content/550:1</text>
<text text-anchor="middle" x="4726.6" y="-265.24" font-family="Times,serif" font-size="14.00">b0 = Sender frequency limited.</text>
</g>
<!-- q19:9 -->
<g id="node8" class="node">
<title>q19:9</title>
<ellipse fill="none" stroke="black" stroke-width="2" cx="4903.1" cy="-204.28" rx="39.63" ry="18"/>
<text text-anchor="middle" x="4903.1" y="-199.61" font-family="Times,serif" font-size="14.00">q19:9</text>
</g>
<!-- q16:2608&#45;&gt;q19:9 -->
<g id="edge8" class="edge">
<title>q16:2608&#45;&gt;q19:9</title>
<path fill="none" stroke="black" d="M4581.9,-166.98C4592.4,-169.71 4603.6,-172.34 4614.1,-174.28 4696.7,-189.42 4794.1,-197.56 4851.8,-201.42"/>
<polygon fill="black" stroke="black" points="4851.49,-204.9 4861.69,-202.05 4851.93,-197.92 4851.49,-204.9"/>
<text text-anchor="middle" x="4726.6" y="-204.23" font-family="Times,serif" font-size="14.00">content/554:9</text>
</g>
<!-- q28:21 -->
<g id="node9" class="node">
<title>q28:21</title>
<ellipse fill="none" stroke="black" stroke-width="2" cx="4903.1" cy="-96.28" rx="45.95" ry="18"/>
<text text-anchor="middle" x="4903.1" y="-91.61" font-family="Times,serif" font-size="14.00">q28:21</text>
</g>
<!-- q23:21&#45;&gt;q28:21 -->
<g id="edge9" class="edge">
<title>q23:21&#45;&gt;q28:21</title>
<path fill="none" stroke="black" d="M4584.2,-97.16C4650.5,-96.97 4773.2,-96.64 4845.2,-96.44"/>
<polygon fill="black" stroke="black" points="4844.8,-99.94 4854.79,-96.41 4844.78,-92.94 4844.8,-99.94"/>
<text text-anchor="middle" x="4726.6" y="-117.48" font-family="Times,serif" font-size="14.00">QUIT/221:21</text>
<text text-anchor="middle" x="4726.6" y="-100.23" font-family="Times,serif" font-size="14.00">b0 = Bye</text>
</g>
<!-- q26:92 -->
<g id="node10" class="node">
<title>q26:92</title>
<ellipse fill="none" stroke="black" stroke-width="2" cx="5122.5" cy="-150.28" rx="45.95" ry="18"/>
<text text-anchor="middle" x="5122.5" y="-145.61" font-family="Times,serif" font-size="14.00">q26:92</text>
</g>
<!-- q21:92&#45;&gt;q26:92 -->
<g id="edge10" class="edge">
<title>q21:92&#45;&gt;q26:92</title>
<path fill="none" stroke="black" d="M4949.9,-150.28C4983.3,-150.28 5028.7,-150.28 5064.5,-150.28"/>
<polygon fill="black" stroke="black" points="5064.19,-153.79 5074.19,-150.29 5064.19,-146.79 5064.19,-153.79"/>
<text text-anchor="middle" x="5012.8" y="-154.23" font-family="Times,serif" font-size="14.00">QUIT/221:92</text>
</g>
<!-- q25:1 -->
<g id="node11" class="node">
<title>q25:1</title>
<ellipse fill="none" stroke="black" stroke-width="2" cx="5122.5" cy="-262.28" rx="39.63" ry="18"/>
<text text-anchor="middle" x="5122.5" y="-257.61" font-family="Times,serif" font-size="14.00">q25:1</text>
</g>
<!-- q20:1&#45;&gt;q25:1 -->
<g id="edge11" class="edge">
<title>q20:1&#45;&gt;q25:1</title>
<path fill="none" stroke="black" d="M4943.7,-260.64C4979.5,-260.98 5032.3,-261.46 5071.1,-261.81"/>
<polygon fill="black" stroke="black" points="5070.55,-265.31 5080.59,-261.9 5070.62,-258.31 5070.55,-265.31"/>
<text text-anchor="middle" x="5012.8" y="-282.49" font-family="Times,serif" font-size="14.00">RSET/250:1</text>
<text text-anchor="middle" x="5012.8" y="-265.24" font-family="Times,serif" font-size="14.00">a0 = b0</text>
</g>
<!-- q24:9 -->
<g id="node12" class="node">
<title>q24:9</title>
<ellipse fill="none" stroke="black" stroke-width="2" cx="5122.5" cy="-204.28" rx="39.63" ry="18"/>
<text text-anchor="middle" x="5122.5" y="-199.61" font-family="Times,serif" font-size="14.00">q24:9</text>
</g>
<!-- q19:9&#45;&gt;q24:9 -->
<g id="edge12" class="edge">
<title>q19:9&#45;&gt;q24:9</title>
<path fill="none" stroke="black" d="M4943.7,-204.28C4979.5,-204.28 5032.3,-204.28 5071.1,-204.28"/>
<polygon fill="black" stroke="black" points="5070.59,-207.79 5080.59,-204.29 5070.59,-200.79 5070.59,-207.79"/>
<text text-anchor="middle" x="5012.8" y="-225.48" font-family="Times,serif" font-size="14.00">RSET/250:9</text>
<text text-anchor="middle" x="5012.8" y="-208.23" font-family="Times,serif" font-size="14.00">b0 = OK</text>
</g>
<!-- q12:146 -->
<g id="node13" class="node">
<title>q12:146</title>
<ellipse fill="none" stroke="black" stroke-width="2" cx="3904.7" cy="-262.28" rx="52.26" ry="18"/>
<text text-anchor="middle" x="3904.7" y="-257.61" font-family="Times,serif" font-size="14.00">q12:146</text>
</g>
<!-- q12:146&#45;&gt;q16:2608 -->
<g id="edge13" class="edge">
<title>q12:146&#45;&gt;q16:2608</title>
<path fill="none" stroke="black" d="M3928.5,-245.47C3941.5,-236.84 3958.4,-227.06 3975,-221.78 4181.6,-156.02 4248.6,-223.06 4461,-179.28 4469.9,-177.44 4479.3,-174.88 4488.3,-172.09"/>
<polygon fill="black" stroke="black" points="4489.13,-175.51 4497.56,-169.09 4486.97,-168.85 4489.13,-175.51"/>
<text text-anchor="middle" x="4218" y="-242.48" font-family="Times,serif" font-size="14.00">DATA/354:99</text>
<text text-anchor="middle" x="4218" y="-225.23" font-family="Times,serif" font-size="14.00">b0 = End data with &lt;CR&gt;&lt;LF&gt;.&lt;CR&gt;&lt;LF&gt;</text>
</g>
<!-- q8:5 -->
<g id="node14" class="node">
<title>q8:5</title>
<ellipse fill="none" stroke="black" stroke-width="2" cx="4537.6" cy="-376.29" rx="33.32" ry="18"/>
<text text-anchor="middle" x="4537.6" y="-371.61" font-family="Times,serif" font-size="14.00">q8:5</text>
</g>
<!-- q12:146&#45;&gt;q8:5 -->
<g id="edge14" class="edge">
<title>q12:146&#45;&gt;q8:5</title>
<path fill="none" stroke="black" d="M3913.5,-280.73C3924,-302.7 3944.7,-338.43 3975,-354.29 4020.3,-377.99 4367.5,-377.62 4492.2,-376.72"/>
<polygon fill="black" stroke="black" points="4492.01,-380.22 4501.99,-376.64 4491.96,-373.22 4492.01,-380.22"/>
<text text-anchor="middle" x="4218" y="-397.49" font-family="Times,serif" font-size="14.00">RCPT/250:4</text>
<text text-anchor="middle" x="4218" y="-380.24" font-family="Times,serif" font-size="14.00">b0 = Mail OK</text>
</g>
<!-- q17:43 -->
<g id="node15" class="node">
<title>q17:43</title>
<ellipse fill="none" stroke="black" stroke-width="2" cx="4537.6" cy="-261.28" rx="45.95" ry="18"/>
<text text-anchor="middle" x="4537.6" y="-256.61" font-family="Times,serif" font-size="14.00">q17:43</text>
</g>
<!-- q12:146&#45;&gt;q17:43 -->
<g id="edge15" class="edge">
<title>q12:146&#45;&gt;q17:43</title>
<path fill="none" stroke="black" d="M3957.9,-261.87C3963.7,-261.83 3969.5,-261.81 3975,-261.78 4159.3,-261.03 4377.6,-261.12 4479.2,-261.21"/>
<polygon fill="black" stroke="black" points="4479.18,-264.71 4489.19,-261.22 4479.19,-257.71 4479.18,-264.71"/>
<text text-anchor="middle" x="4218" y="-282.49" font-family="Times,serif" font-size="14.00">DATA/550:43</text>
<text text-anchor="middle" x="4218" y="-265.24" font-family="Times,serif" font-size="14.00">b0 in {&#39;too many message send today.&#39;, &#39;Sender frequency limited.&#39;}</text>
</g>
<!-- q8:5&#45;&gt;q12:146 -->
<g id="edge16" class="edge">
<title>q8:5&#45;&gt;q12:146</title>
<path fill="none" stroke="black" d="M4522,-359.72C4507.9,-345.16 4485.4,-324.89 4461,-315.79 4359.7,-277.94 4079.8,-322.84 3975,-296.29 3963.8,-293.44 3952.3,-288.66 3941.9,-283.56"/>
<polygon fill="black" stroke="black" points="3943.83,-280.61 3933.34,-279.11 3940.61,-286.83 3943.83,-280.61"/>
<text text-anchor="middle" x="4218" y="-336.49" font-family="Times,serif" font-size="14.00">RCPT/250:5</text>
<text text-anchor="middle" x="4218" y="-319.24" font-family="Times,serif" font-size="14.00">b0 = Mail OK</text>
</g>
<!-- q13:230 -->
<g id="node16" class="node">
<title>q13:230</title>
<ellipse fill="none" stroke="black" stroke-width="2" cx="3372.1" cy="-262.28" rx="52.26" ry="18"/>
<text text-anchor="middle" x="3372.1" y="-257.61" font-family="Times,serif" font-size="14.00">q13:230</text>
</g>
<!-- q13:230&#45;&gt;q18:89 -->
<g id="edge17" class="edge">
<title>q13:230&#45;&gt;q18:89</title>
<path fill="none" stroke="black" d="M3413.9,-250.69C3441.2,-242.97 3478,-232.66 3510.5,-223.78 3634,-190.08 3779.7,-151.73 3854.3,-132.19"/>
<polygon fill="black" stroke="black" points="3854.95,-135.64 3863.74,-129.73 3853.17,-128.87 3854.95,-135.64"/>
<text text-anchor="middle" x="3672.5" y="-244.48" font-family="Times,serif" font-size="14.00">DATA/354:89</text>
<text text-anchor="middle" x="3672.5" y="-227.23" font-family="Times,serif" font-size="14.00">b0 = End data with &lt;CR&gt;&lt;LF&gt;.&lt;CR&gt;&lt;LF&gt;</text>
</g>
<!-- q13:230&#45;&gt;q12:146 -->
<g id="edge18" class="edge">
<title>q13:230&#45;&gt;q12:146</title>
<path fill="none" stroke="black" d="M3424.9,-262.28C3522.7,-262.28 3734.1,-262.28 3840.2,-262.28"/>
<polygon fill="black" stroke="black" points="3840.19,-265.79 3850.19,-262.29 3840.19,-258.79 3840.19,-265.79"/>
<text text-anchor="middle" x="3672.5" y="-283.49" font-family="Times,serif" font-size="14.00">RCPT/250:141</text>
<text text-anchor="middle" x="3672.5" y="-266.24" font-family="Times,serif" font-size="14.00">b0 in {&#39;Mail OK&#39;, &#39;ok&#39;}</text>
</g>
<!-- q10:2 -->
<g id="node17" class="node">
<title>q10:2</title>
<ellipse fill="none" stroke="black" stroke-width="2" cx="2475.3" cy="-201.28" rx="39.63" ry="18"/>
<text text-anchor="middle" x="2475.3" y="-196.61" font-family="Times,serif" font-size="14.00">q10:2</text>
</g>
<!-- q14:2 -->
<g id="node18" class="node">
<title>q14:2</title>
<ellipse fill="none" stroke="black" stroke-width="2" cx="3372.1" cy="-201.28" rx="39.63" ry="18"/>
<text text-anchor="middle" x="3372.1" y="-196.61" font-family="Times,serif" font-size="14.00">q14:2</text>
</g>
<!-- q10:2&#45;&gt;q14:2 -->
<g id="edge19" class="edge">
<title>q10:2&#45;&gt;q14:2</title>
<path fill="none" stroke="black" d="M2515.9,-201.28C2660.3,-201.28 3158.8,-201.28 3320.2,-201.28"/>
<polygon fill="black" stroke="black" points="3320.19,-204.79 3330.19,-201.29 3320.19,-197.79 3320.19,-204.79"/>
<text text-anchor="middle" x="2886.5" y="-222.48" font-family="Times,serif" font-size="14.00">RSET/250:2</text>
<text text-anchor="middle" x="2886.5" y="-205.23" font-family="Times,serif" font-size="14.00">b0 in {&#39;flushed&#39;, &#39;OK&#39;}</text>
</g>
<!-- q5:1 -->
<g id="node19" class="node">
<title>q5:1</title>
<ellipse fill="none" stroke="black" stroke-width="2" cx="2078.3" cy="-426.28" rx="33.32" ry="18"/>
<text text-anchor="middle" x="2078.3" y="-421.61" font-family="Times,serif" font-size="14.00">q5:1</text>
</g>
<!-- q5:1&#45;&gt;q8:5 -->
<g id="edge20" class="edge">
<title>q5:1&#45;&gt;q8:5</title>
<path fill="none" stroke="black" d="M2112.3,-426.29C2222.2,-426.29 2585.3,-426.29 2885.5,-426.29 2885.5,-426.29 2885.5,-426.29 3905.7,-426.29 4152.6,-426.29 4220.9,-469.74 4461,-412.29 4475.9,-408.7 4491.4,-401.94 4504.5,-395.24"/>
<polygon fill="black" stroke="black" points="4505.84,-398.49 4512.97,-390.65 4502.51,-392.33 4505.84,-398.49"/>
<text text-anchor="middle" x="3372.1" y="-464.73" font-family="Times,serif" font-size="14.00">MAIL/250:1</text>
<text text-anchor="middle" x="3372.1" y="-447.48" font-family="Times,serif" font-size="14.00">a0 = FROM:&lt;Az6161@126.com&gt;</text>
<text text-anchor="middle" x="3372.1" y="-430.23" font-family="Times,serif" font-size="14.00">b0 = Mail OK</text>
</g>
<!-- q2:241 -->
<g id="node20" class="node">
<title>q2:241</title>
<ellipse fill="none" stroke="black" stroke-width="2" cx="501.98" cy="-388.29" rx="45.95" ry="18"/>
<text text-anchor="middle" x="501.98" y="-383.61" font-family="Times,serif" font-size="14.00">q2:241</text>
</g>
<!-- q2:241&#45;&gt;q5:1 -->
<g id="edge21" class="edge">
<title>q2:241&#45;&gt;q5:1</title>
<path fill="none" stroke="black" d="M539.98,-399.22C548.44,-401.29 557.44,-403.16 565.93,-404.29 714.32,-423.94 1798.7,-426.04 2032.8,-426.25"/>
<polygon fill="black" stroke="black" points="2032.78,-429.75 2042.79,-426.26 2032.79,-422.75 2032.78,-429.75"/>
<text text-anchor="middle" x="1091.7" y="-445.49" font-family="Times,serif" font-size="14.00">AUTH/λ:1</text>
<text text-anchor="middle" x="1091.7" y="-428.24" font-family="Times,serif" font-size="14.00">a0 = PLAIN AEF6NjE2MUAxMjYuY29tAE1VUVNBT1NUWElURkpDVUU=</text>
</g>
<!-- q6:232 -->
<g id="node21" class="node">
<title>q6:232</title>
<ellipse fill="none" stroke="black" stroke-width="2" cx="1681.4" cy="-276.29" rx="45.95" ry="18"/>
<text text-anchor="middle" x="1681.4" y="-271.61" font-family="Times,serif" font-size="14.00">q6:232</text>
</g>
<!-- q2:241&#45;&gt;q6:232 -->
<g id="edge22" class="edge">
<title>q2:241&#45;&gt;q6:232</title>
<path fill="none" stroke="black" d="M525.39,-371.94C536.9,-364.51 551.52,-356.51 565.93,-352.54 678.58,-321.44 1508.1,-370.56 1617.4,-329.29 1632.7,-323.54 1646.8,-312.39 1657.8,-301.81"/>
<polygon fill="black" stroke="black" points="1659.99,-304.57 1664.54,-295 1655.02,-299.65 1659.99,-304.57"/>
<text text-anchor="middle" x="1091.7" y="-390.73" font-family="Times,serif" font-size="14.00">AUTH/235:230</text>
<text text-anchor="middle" x="1091.7" y="-373.48" font-family="Times,serif" font-size="14.00">a0 in {&#39;PLAIN AEF6NjE2MUBzaW5hLmNvbQA2ZmRiMjVjZmNjODYyZWZj&#39;, &#39;PLAIN AEF6NjE2MUAxMjYuY29tAE1VUVNBT1NUWElURkpDVUU=&#39;}</text>
<text text-anchor="middle" x="1091.7" y="-356.23" font-family="Times,serif" font-size="14.00">b0 in {&#39;Authentication successful&#39;, &#39;OK Authenticated&#39;}</text>
</g>
<!-- q4:10 -->
<g id="node22" class="node">
<title>q4:10</title>
<ellipse fill="none" stroke="black" stroke-width="2" cx="1681.4" cy="-493.29" rx="39.63" ry="18"/>
<text text-anchor="middle" x="1681.4" y="-488.61" font-family="Times,serif" font-size="14.00">q4:10</text>
</g>
<!-- q2:241&#45;&gt;q4:10 -->
<g id="edge23" class="edge">
<title>q2:241&#45;&gt;q4:10</title>
<path fill="none" stroke="black" d="M512.05,-406.82C522.28,-425.42 540.81,-452.99 565.93,-465.29 941.13,-648.99 1475.9,-542.82 1634.4,-504.99"/>
<polygon fill="black" stroke="black" points="1635.23,-508.39 1644.13,-502.64 1633.59,-501.58 1635.23,-508.39"/>
<text text-anchor="middle" x="1091.7" y="-590.49" font-family="Times,serif" font-size="14.00">AUTH/535:10</text>
<text text-anchor="middle" x="1091.7" y="-573.24" font-family="Times,serif" font-size="14.00">b0 in {&#39;5.7.8 authentication failed&#39;, &#39;Error: authentication failed&#39;}</text>
</g>
<!-- q6:232&#45;&gt;q10:2 -->
<g id="edge24" class="edge">
<title>q6:232&#45;&gt;q10:2</title>
<path fill="none" stroke="black" d="M1695.3,-258.17C1706.6,-243.91 1724.6,-225.06 1745.3,-216.53 1985.2,-117.88 2308.2,-167.4 2427.5,-191.09"/>
<polygon fill="black" stroke="black" points="2426.72,-194.5 2437.22,-193.05 2428.11,-187.64 2426.72,-194.5"/>
<text text-anchor="middle" x="2078.3" y="-254.73" font-family="Times,serif" font-size="14.00">MAIL/553:2</text>
<text text-anchor="middle" x="2078.3" y="-237.48" font-family="Times,serif" font-size="14.00">a0 in {&#39;FROM:&lt;Az_6161@sina.com&gt;&#39;, &#39;FROM:&lt;Az6161@163.com&gt;&#39;}</text>
<text text-anchor="middle" x="2078.3" y="-220.23" font-family="Times,serif" font-size="14.00">b0 in {&#39;Mail from must equal authorized user&#39;, &#39;Envolope sender mismatch with login user..&#39;}</text>
</g>
<!-- q9:230 -->
<g id="node23" class="node">
<title>q9:230</title>
<ellipse fill="none" stroke="black" stroke-width="2" cx="2475.3" cy="-272.28" rx="45.95" ry="18"/>
<text text-anchor="middle" x="2475.3" y="-267.61" font-family="Times,serif" font-size="14.00">q9:230</text>
</g>
<!-- q6:232&#45;&gt;q9:230 -->
<g id="edge25" class="edge">
<title>q6:232&#45;&gt;q9:230</title>
<path fill="none" stroke="black" d="M1728.1,-276.06C1864.4,-275.37 2267.6,-273.32 2417.4,-272.56"/>
<polygon fill="black" stroke="black" points="2417.1,-276.07 2427.09,-272.52 2417.07,-269.07 2417.1,-276.07"/>
<text text-anchor="middle" x="2078.3" y="-313.73" font-family="Times,serif" font-size="14.00">MAIL/250:230</text>
<text text-anchor="middle" x="2078.3" y="-296.48" font-family="Times,serif" font-size="14.00">a0 in {&#39;FROM:&lt;Az6161@126.com&gt;&#39;, &#39;FROM:&lt;Az6161@sina.com&gt;&#39;}</text>
<text text-anchor="middle" x="2078.3" y="-279.23" font-family="Times,serif" font-size="14.00">b0 in {&#39;Mail OK&#39;, &#39;ok&#39;}</text>
</g>
<!-- q7:10 -->
<g id="node24" class="node">
<title>q7:10</title>
<ellipse fill="none" stroke="black" stroke-width="2" cx="2475.3" cy="-509.29" rx="39.63" ry="18"/>
<text text-anchor="middle" x="2475.3" y="-504.61" font-family="Times,serif" font-size="14.00">q7:10</text>
</g>
<!-- q4:10&#45;&gt;q7:10 -->
<g id="edge26" class="edge">
<title>q4:10&#45;&gt;q7:10</title>
<path fill="none" stroke="black" d="M1721.9,-494.09C1853.5,-496.74 2276.6,-505.29 2423.5,-508.25"/>
<polygon fill="black" stroke="black" points="2423.22,-511.75 2433.29,-508.45 2423.36,-504.75 2423.22,-511.75"/>
<text text-anchor="middle" x="2078.3" y="-528.49" font-family="Times,serif" font-size="14.00">AUTH/334:10</text>
<text text-anchor="middle" x="2078.3" y="-511.23" font-family="Times,serif" font-size="14.00">b0 = UGFzc3dvcmQ6</text>
</g>
<!-- q9:230&#45;&gt;q13:230 -->
<g id="edge27" class="edge">
<title>q9:230&#45;&gt;q13:230</title>
<path fill="none" stroke="black" d="M2522.2,-271.76C2670.5,-270.12 3137.1,-264.89 3307.7,-262.99"/>
<polygon fill="black" stroke="black" points="3307.52,-266.49 3317.49,-262.88 3307.45,-259.49 3307.52,-266.49"/>
<text text-anchor="middle" x="2886.5" y="-309.73" font-family="Times,serif" font-size="14.00">RCPT/250:230</text>
<text text-anchor="middle" x="2886.5" y="-292.48" font-family="Times,serif" font-size="14.00">a0 in {&#39;TO:&lt;574702257@qq.com&gt;&#39;, &#39;TO:&lt;1542110793@qq.com&gt;&#39;, &#39;TO:&lt;574702256@qq.com&gt;&#39;}</text>
<text text-anchor="middle" x="2886.5" y="-275.23" font-family="Times,serif" font-size="14.00">b0 in {&#39;Mail OK&#39;, &#39;ok&#39;}</text>
</g>
<!-- q11:10 -->
<g id="node25" class="node">
<title>q11:10</title>
<ellipse fill="none" stroke="black" stroke-width="2" cx="3372.1" cy="-514.29" rx="45.95" ry="18"/>
<text text-anchor="middle" x="3372.1" y="-509.61" font-family="Times,serif" font-size="14.00">q11:10</text>
</g>
<!-- q7:10&#45;&gt;q11:10 -->
<g id="edge28" class="edge">
<title>q7:10&#45;&gt;q11:10</title>
<path fill="none" stroke="black" d="M2515.9,-509.5C2658.6,-510.3 3146.7,-513.02 3314.2,-513.97"/>
<polygon fill="black" stroke="black" points="3313.87,-517.46 3323.89,-514.02 3313.9,-510.46 3313.87,-517.46"/>
<text text-anchor="middle" x="2886.5" y="-534.49" font-family="Times,serif" font-size="14.00">content/535:10</text>
<text text-anchor="middle" x="2886.5" y="-517.24" font-family="Times,serif" font-size="14.00">b0 in {&#39;5.7.8 authentication failed&#39;, &#39;Error: authentication failed&#39;}</text>
</g>
<!-- q15:4 -->
<g id="node28" class="node">
<title>q15:4</title>
<ellipse fill="none" stroke="black" stroke-width="2" cx="3904.7" cy="-514.29" rx="39.63" ry="18"/>
<text text-anchor="middle" x="3904.7" y="-509.61" font-family="Times,serif" font-size="14.00">q15:4</text>
</g>
<!-- q11:10&#45;&gt;q15:4 -->
<g id="edge32" class="edge">
<title>q11:10&#45;&gt;q15:4</title>
<path fill="none" stroke="black" d="M3418.8,-514.28C3517.4,-514.28 3749.7,-514.28 3852.8,-514.28"/>
<polygon fill="black" stroke="black" points="3852.69,-517.79 3862.69,-514.29 3852.69,-510.79 3852.69,-517.79"/>
<text text-anchor="middle" x="3672.5" y="-535.49" font-family="Times,serif" font-size="14.00">λ/451:4</text>
<text text-anchor="middle" x="3672.5" y="-518.24" font-family="Times,serif" font-size="14.00">b0 = Timeout.</text>
</g>
<!-- q3:2 -->
<g id="node26" class="node">
<title>q3:2</title>
<ellipse fill="none" stroke="black" stroke-width="2" cx="501.98" cy="-280.29" rx="33.32" ry="18"/>
<text text-anchor="middle" x="501.98" y="-275.61" font-family="Times,serif" font-size="14.00">q3:2</text>
</g>
<!-- q3:2&#45;&gt;q6:232 -->
<g id="edge29" class="edge">
<title>q3:2&#45;&gt;q6:232</title>
<path fill="none" stroke="black" d="M535.97,-278.57C545.62,-278.14 556.2,-277.75 565.93,-277.54 971.12,-268.45 1459.4,-273.39 1623.5,-275.5"/>
<polygon fill="black" stroke="black" points="1623.14,-278.99 1633.19,-275.62 1623.23,-271.99 1623.14,-278.99"/>
<text text-anchor="middle" x="1091.7" y="-315.73" font-family="Times,serif" font-size="14.00">AUTH/235:2</text>
<text text-anchor="middle" x="1091.7" y="-298.48" font-family="Times,serif" font-size="14.00">a0 in {&#39;PLAIN AEF6NjE2MUBzaW5hLmNvbQA2ZmRiMjVjZmNjODYyZWZj&#39;, &#39;PLAIN AEF6NjE2MUAxMjYuY29tAE1VUVNBT1NUWElURkpDVUU=&#39;}</text>
<text text-anchor="middle" x="1091.7" y="-281.23" font-family="Times,serif" font-size="14.00">b0 in {&#39;Authentication successful&#39;, &#39;OK Authenticated&#39;}</text>
</g>
<!-- q1:243 -->
<g id="node27" class="node">
<title>q1:243</title>
<ellipse fill="none" stroke="black" stroke-width="2" cx="257.84" cy="-317.29" rx="45.95" ry="18"/>
<text text-anchor="middle" x="257.84" y="-312.61" font-family="Times,serif" font-size="14.00">q1:243</text>
</g>
<!-- q1:243&#45;&gt;q2:241 -->
<g id="edge30" class="edge">
<title>q1:243&#45;&gt;q2:241</title>
<path fill="none" stroke="black" d="M296.15,-328.22C338.18,-340.55 406.65,-360.62 452.72,-374.13"/>
<polygon fill="black" stroke="black" points="451.61,-377.46 462.19,-376.91 453.57,-370.74 451.61,-377.46"/>
<text text-anchor="middle" x="379.91" y="-372.23" font-family="Times,serif" font-size="14.00">EHLO/250:241</text>
</g>
<!-- q1:243&#45;&gt;q3:2 -->
<g id="edge31" class="edge">
<title>q1:243&#45;&gt;q3:2</title>
<path fill="none" stroke="black" d="M288.62,-302.94C298.9,-298.61 310.64,-294.32 321.79,-291.79 366.9,-281.49 419.94,-279.25 456.55,-279.22"/>
<polygon fill="black" stroke="black" points="456.3,-282.71 466.32,-279.26 456.33,-275.71 456.3,-282.71"/>
<text text-anchor="middle" x="379.91" y="-312.49" font-family="Times,serif" font-size="14.00">EHLO/λ:2</text>
<text text-anchor="middle" x="379.91" y="-295.24" font-family="Times,serif" font-size="14.00">a0 = [127.0.1.1]</text>
</g>
<!-- q0:243 -->
<g id="node29" class="node">
<title>q0:243</title>
<ellipse fill="none" stroke="black" stroke-width="2" cx="53.95" cy="-317.29" rx="49.95" ry="49.95"/>
<ellipse fill="none" stroke="black" stroke-width="2" cx="53.95" cy="-317.29" rx="53.95" ry="53.95"/>
<text text-anchor="middle" x="53.95" y="-312.61" font-family="Times,serif" font-size="14.00">q0:243</text>
</g>
<!-- q0:243&#45;&gt;q1:243 -->
<g id="edge33" class="edge">
<title>q0:243&#45;&gt;q1:243</title>
<path fill="none" stroke="black" d="M104.85,-317.29C133.64,-317.29 169.94,-317.29 199.84,-317.29"/>
<polygon fill="black" stroke="black" points="199.45,-320.79 209.45,-317.29 199.45,-313.79 199.45,-320.79"/>
<text text-anchor="middle" x="157.89" y="-321.23" font-family="Times,serif" font-size="14.00">λ/220:243</text>
</g>
</g>
</svg>
