<?xml version="1.0" encoding="UTF-8" standalone="no"?>
<!DOCTYPE svg PUBLIC "-//W3C//DTD SVG 1.1//EN"
 "http://www.w3.org/Graphics/SVG/1.1/DTD/svg11.dtd">
<!-- Generated by graphviz version 12.0.0 (20240803.0821)
 -->
<!-- Pages: 1 -->
<svg width="2253pt" height="222pt"
 viewBox="0.00 0.00 2252.96 222.24" xmlns="http://www.w3.org/2000/svg" xmlns:xlink="http://www.w3.org/1999/xlink">
<g id="graph0" class="graph" transform="scale(1 1) rotate(0) translate(4 218.24)">
<polygon fill="white" stroke="none" points="-4,4 -4,-218.24 2248.96,-218.24 2248.96,4 -4,4"/>
<!-- q2:242 -->
<g id="node1" class="node">
<title>q2:242</title>
<ellipse fill="none" stroke="black" stroke-width="2" cx="491.48" cy="-100.24" rx="45.95" ry="18"/>
<text text-anchor="middle" x="491.48" y="-95.56" font-family="Times,serif" font-size="14.00">q2:242</text>
</g>
<!-- q4:13 -->
<g id="node2" class="node">
<title>q4:13</title>
<ellipse fill="none" stroke="black" stroke-width="2" cx="725.13" cy="-167.24" rx="39.63" ry="18"/>
<text text-anchor="middle" x="725.13" y="-162.56" font-family="Times,serif" font-size="14.00">q4:13</text>
</g>
<!-- q2:242&#45;&gt;q4:13 -->
<g id="edge1" class="edge">
<title>q2:242&#45;&gt;q4:13</title>
<path fill="none" stroke="black" d="M523.19,-114.02C533.33,-118.28 544.75,-122.76 555.43,-126.24 595.72,-139.37 642.65,-150.45 676.76,-157.76"/>
<polygon fill="black" stroke="black" points="675.82,-161.14 686.33,-159.79 677.27,-154.29 675.82,-161.14"/>
<text text-anchor="middle" x="608.31" y="-157.19" font-family="Times,serif" font-size="14.00">AUTH/535:13</text>
</g>
<!-- q5:230 -->
<g id="node3" class="node">
<title>q5:230</title>
<ellipse fill="none" stroke="black" stroke-width="2" cx="725.13" cy="-108.24" rx="45.95" ry="18"/>
<text text-anchor="middle" x="725.13" y="-103.56" font-family="Times,serif" font-size="14.00">q5:230</text>
</g>
<!-- q2:242&#45;&gt;q5:230 -->
<g id="edge2" class="edge">
<title>q2:242&#45;&gt;q5:230</title>
<path fill="none" stroke="black" d="M538.25,-101.82C575.21,-103.09 627.42,-104.9 667.1,-106.27"/>
<polygon fill="black" stroke="black" points="666.83,-109.76 676.95,-106.61 667.07,-102.77 666.83,-109.76"/>
<text text-anchor="middle" x="608.31" y="-109.19" font-family="Times,serif" font-size="14.00">AUTH/235:228</text>
</g>
<!-- q6:1 -->
<g id="node4" class="node">
<title>q6:1</title>
<ellipse fill="none" stroke="black" stroke-width="2" cx="839.7" cy="-52.24" rx="33.32" ry="18"/>
<text text-anchor="middle" x="839.7" y="-47.56" font-family="Times,serif" font-size="14.00">q6:1</text>
</g>
<!-- q2:242&#45;&gt;q6:1 -->
<g id="edge3" class="edge">
<title>q2:242&#45;&gt;q6:1</title>
<path fill="none" stroke="black" d="M527.46,-88.22C536.49,-85.48 546.25,-82.84 555.43,-80.99 638.9,-64.16 738.28,-56.96 794.38,-54.05"/>
<polygon fill="black" stroke="black" points="794.34,-57.56 804.16,-53.57 794,-50.57 794.34,-57.56"/>
<text text-anchor="middle" x="608.31" y="-85.19" font-family="Times,serif" font-size="14.00">AUTH/λ:1</text>
</g>
<!-- q7:13 -->
<g id="node5" class="node">
<title>q7:13</title>
<ellipse fill="none" stroke="black" stroke-width="2" cx="954.27" cy="-196.24" rx="39.63" ry="18"/>
<text text-anchor="middle" x="954.27" y="-191.56" font-family="Times,serif" font-size="14.00">q7:13</text>
</g>
<!-- q4:13&#45;&gt;q7:13 -->
<g id="edge4" class="edge">
<title>q4:13&#45;&gt;q7:13</title>
<path fill="none" stroke="black" d="M764.15,-172.09C802.47,-176.99 861.81,-184.56 903.78,-189.92"/>
<polygon fill="black" stroke="black" points="903.27,-193.38 913.63,-191.18 904.15,-186.44 903.27,-193.38"/>
<text text-anchor="middle" x="839.7" y="-191.19" font-family="Times,serif" font-size="14.00">AUTH/334:13</text>
</g>
<!-- q9:227 -->
<g id="node6" class="node">
<title>q9:227</title>
<ellipse fill="none" stroke="black" stroke-width="2" cx="954.27" cy="-142.24" rx="45.95" ry="18"/>
<text text-anchor="middle" x="954.27" y="-137.56" font-family="Times,serif" font-size="14.00">q9:227</text>
</g>
<!-- q5:230&#45;&gt;q9:227 -->
<g id="edge5" class="edge">
<title>q5:230&#45;&gt;q9:227</title>
<path fill="none" stroke="black" d="M769.12,-114.67C805.99,-120.19 859.31,-128.17 899.1,-134.13"/>
<polygon fill="black" stroke="black" points="898.55,-137.59 908.96,-135.61 899.59,-130.66 898.55,-137.59"/>
<text text-anchor="middle" x="839.7" y="-135.19" font-family="Times,serif" font-size="14.00">MAIL/250:227</text>
</g>
<!-- q8:3 -->
<g id="node7" class="node">
<title>q8:3</title>
<ellipse fill="none" stroke="black" stroke-width="2" cx="954.27" cy="-88.24" rx="33.32" ry="18"/>
<text text-anchor="middle" x="954.27" y="-83.56" font-family="Times,serif" font-size="14.00">q8:3</text>
</g>
<!-- q5:230&#45;&gt;q8:3 -->
<g id="edge6" class="edge">
<title>q5:230&#45;&gt;q8:3</title>
<path fill="none" stroke="black" d="M768.73,-101.5C775.53,-100.57 782.49,-99.69 789.08,-98.99 829.61,-94.69 875.96,-91.84 909.06,-90.17"/>
<polygon fill="black" stroke="black" points="908.85,-93.68 918.67,-89.7 908.51,-86.69 908.85,-93.68"/>
<text text-anchor="middle" x="839.7" y="-102.19" font-family="Times,serif" font-size="14.00">MAIL/553:3</text>
</g>
<!-- q10:149 -->
<g id="node8" class="node">
<title>q10:149</title>
<ellipse fill="none" stroke="black" stroke-width="2" cx="1439.8" cy="-53.24" rx="52.26" ry="18"/>
<text text-anchor="middle" x="1439.8" y="-48.56" font-family="Times,serif" font-size="14.00">q10:149</text>
</g>
<!-- q6:1&#45;&gt;q10:149 -->
<g id="edge7" class="edge">
<title>q6:1&#45;&gt;q10:149</title>
<path fill="none" stroke="black" d="M873.71,-52.29C969.52,-52.45 1248.9,-52.92 1375.3,-53.13"/>
<polygon fill="black" stroke="black" points="1375.18,-56.63 1385.19,-53.15 1375.19,-49.63 1375.18,-56.63"/>
<text text-anchor="middle" x="1072.2" y="-57.19" font-family="Times,serif" font-size="14.00">MAIL/250:1</text>
</g>
<!-- q11:13 -->
<g id="node9" class="node">
<title>q11:13</title>
<ellipse fill="none" stroke="black" stroke-width="2" cx="1196.5" cy="-196.24" rx="45.95" ry="18"/>
<text text-anchor="middle" x="1196.5" y="-191.56" font-family="Times,serif" font-size="14.00">q11:13</text>
</g>
<!-- q7:13&#45;&gt;q11:13 -->
<g id="edge8" class="edge">
<title>q7:13&#45;&gt;q11:13</title>
<path fill="none" stroke="black" d="M994.67,-196.24C1033.8,-196.24 1094.1,-196.24 1138.4,-196.24"/>
<polygon fill="black" stroke="black" points="1138.39,-199.74 1148.39,-196.24 1138.39,-192.74 1138.39,-199.74"/>
<text text-anchor="middle" x="1072.2" y="-200.19" font-family="Times,serif" font-size="14.00">content/535:13</text>
</g>
<!-- q13:227 -->
<g id="node10" class="node">
<title>q13:227</title>
<ellipse fill="none" stroke="black" stroke-width="2" cx="1196.5" cy="-142.24" rx="52.26" ry="18"/>
<text text-anchor="middle" x="1196.5" y="-137.56" font-family="Times,serif" font-size="14.00">q13:227</text>
</g>
<!-- q9:227&#45;&gt;q13:227 -->
<g id="edge9" class="edge">
<title>q9:227&#45;&gt;q13:227</title>
<path fill="none" stroke="black" d="M1001.02,-142.24C1038.1,-142.24 1090.8,-142.24 1131.9,-142.24"/>
<polygon fill="black" stroke="black" points="1131.69,-145.74 1141.69,-142.24 1131.69,-138.74 1131.69,-145.74"/>
<text text-anchor="middle" x="1072.2" y="-146.19" font-family="Times,serif" font-size="14.00">RCPT/250:227</text>
</g>
<!-- q12:3 -->
<g id="node11" class="node">
<title>q12:3</title>
<ellipse fill="none" stroke="black" stroke-width="2" cx="1196.5" cy="-88.24" rx="39.63" ry="18"/>
<text text-anchor="middle" x="1196.5" y="-83.56" font-family="Times,serif" font-size="14.00">q12:3</text>
</g>
<!-- q8:3&#45;&gt;q12:3 -->
<g id="edge10" class="edge">
<title>q8:3&#45;&gt;q12:3</title>
<path fill="none" stroke="black" d="M988.42,-88.24C1028.8,-88.24 1097.3,-88.24 1144.4,-88.24"/>
<polygon fill="black" stroke="black" points="1144.39,-91.74 1154.39,-88.24 1144.39,-84.74 1144.39,-91.74"/>
<text text-anchor="middle" x="1072.2" y="-92.19" font-family="Times,serif" font-size="14.00">RSET/250:3</text>
</g>
<!-- q10:149&#45;&gt;q10:149 -->
<g id="edge11" class="edge">
<title>q10:149&#45;&gt;q10:149</title>
<path fill="none" stroke="black" d="M1418.3,-70.28C1414,-80.1 1421.1,-89.24 1439.8,-89.24 1450.5,-89.24 1457.5,-86.18 1460.6,-81.71"/>
<polygon fill="black" stroke="black" points="1464.09,-81.96 1461.12,-71.79 1457.1,-81.59 1464.09,-81.96"/>
<text text-anchor="middle" x="1439.8" y="-93.19" font-family="Times,serif" font-size="14.00">RCPT/250:9</text>
</g>
<!-- q15:3030 -->
<g id="node12" class="node">
<title>q15:3030</title>
<ellipse fill="none" stroke="black" stroke-width="2" cx="1687.8" cy="-118.24" rx="58.57" ry="18"/>
<text text-anchor="middle" x="1687.8" y="-113.57" font-family="Times,serif" font-size="14.00">q15:3030</text>
</g>
<!-- q10:149&#45;&gt;q15:3030 -->
<g id="edge12" class="edge">
<title>q10:149&#45;&gt;q15:3030</title>
<path fill="none" stroke="black" d="M1480.2,-65.58C1489.9,-68.51 1500.3,-71.56 1510,-74.24 1549.5,-85.13 1594.3,-96.26 1628.9,-104.6"/>
<polygon fill="black" stroke="black" points="1627.79,-107.93 1638.33,-106.86 1629.42,-101.13 1627.79,-107.93"/>
<text text-anchor="middle" x="1560.6" y="-103.19" font-family="Times,serif" font-size="14.00">DATA/354:112</text>
</g>
<!-- q14:28 -->
<g id="node13" class="node">
<title>q14:28</title>
<ellipse fill="none" stroke="black" stroke-width="2" cx="1687.8" cy="-53.24" rx="45.95" ry="18"/>
<text text-anchor="middle" x="1687.8" y="-48.56" font-family="Times,serif" font-size="14.00">q14:28</text>
</g>
<!-- q10:149&#45;&gt;q14:28 -->
<g id="edge13" class="edge">
<title>q10:149&#45;&gt;q14:28</title>
<path fill="none" stroke="black" d="M1492.9,-53.24C1533,-53.24 1588.4,-53.24 1629.7,-53.24"/>
<polygon fill="black" stroke="black" points="1629.39,-56.74 1639.39,-53.24 1629.39,-49.74 1629.39,-56.74"/>
<text text-anchor="middle" x="1560.6" y="-57.19" font-family="Times,serif" font-size="14.00">DATA/550:28</text>
</g>
<!-- q16:4 -->
<g id="node14" class="node">
<title>q16:4</title>
<ellipse fill="none" stroke="black" stroke-width="2" cx="1439.8" cy="-196.24" rx="39.63" ry="18"/>
<text text-anchor="middle" x="1439.8" y="-191.56" font-family="Times,serif" font-size="14.00">q16:4</text>
</g>
<!-- q11:13&#45;&gt;q16:4 -->
<g id="edge14" class="edge">
<title>q11:13&#45;&gt;q16:4</title>
<path fill="none" stroke="black" d="M1243.1,-196.24C1284.4,-196.24 1345.2,-196.24 1388,-196.24"/>
<polygon fill="black" stroke="black" points="1387.79,-199.74 1397.79,-196.24 1387.79,-192.74 1387.79,-199.74"/>
<text text-anchor="middle" x="1318.1" y="-200.19" font-family="Times,serif" font-size="14.00">λ/451:4</text>
</g>
<!-- q13:227&#45;&gt;q10:149 -->
<g id="edge16" class="edge">
<title>q13:227&#45;&gt;q10:149</title>
<path fill="none" stroke="black" d="M1228.9,-127.25C1240.7,-121.86 1254.2,-115.9 1266.7,-110.99 1307.1,-95.16 1353.8,-79.66 1388.3,-68.71"/>
<polygon fill="black" stroke="black" points="1389.16,-72.11 1397.66,-65.77 1387.07,-65.43 1389.16,-72.11"/>
<text text-anchor="middle" x="1318.1" y="-114.19" font-family="Times,serif" font-size="14.00">RCPT/250:139</text>
</g>
<!-- q13:227&#45;&gt;q15:3030 -->
<g id="edge17" class="edge">
<title>q13:227&#45;&gt;q15:3030</title>
<path fill="none" stroke="black" d="M1248.9,-139.72C1337.3,-135.38 1518.1,-126.51 1617.5,-121.64"/>
<polygon fill="black" stroke="black" points="1617.57,-125.14 1627.39,-121.15 1617.23,-118.15 1617.57,-125.14"/>
<text text-anchor="middle" x="1439.8" y="-136.19" font-family="Times,serif" font-size="14.00">DATA/354:88</text>
</g>
<!-- q15:3030&#45;&gt;q15:3030 -->
<g id="edge20" class="edge">
<title>q15:3030&#45;&gt;q15:3030</title>
<path fill="none" stroke="black" d="M1665.1,-135.65C1660.9,-145.33 1668.5,-154.24 1687.8,-154.24 1699,-154.24 1706.3,-151.26 1709.6,-146.88"/>
<polygon fill="black" stroke="black" points="1713.07,-147.41 1710.38,-137.16 1706.09,-146.85 1713.07,-147.41"/>
<text text-anchor="middle" x="1687.8" y="-158.19" font-family="Times,serif" font-size="14.00">content/λ:2830</text>
</g>
<!-- q17:74 -->
<g id="node17" class="node">
<title>q17:74</title>
<ellipse fill="none" stroke="black" stroke-width="2" cx="1951.7" cy="-172.24" rx="45.95" ry="18"/>
<text text-anchor="middle" x="1951.7" y="-167.56" font-family="Times,serif" font-size="14.00">q17:74</text>
</g>
<!-- q15:3030&#45;&gt;q17:74 -->
<g id="edge21" class="edge">
<title>q15:3030&#45;&gt;q17:74</title>
<path fill="none" stroke="black" d="M1731.8,-130.95C1742.4,-133.87 1753.8,-136.83 1764.4,-139.24 1808.5,-149.25 1859.1,-158.04 1896.4,-164.03"/>
<polygon fill="black" stroke="black" points="1895.58,-167.44 1906,-165.56 1896.68,-160.53 1895.58,-167.44"/>
<text text-anchor="middle" x="1822.9" y="-165.19" font-family="Times,serif" font-size="14.00">content/554:74</text>
</g>
<!-- q19:125 -->
<g id="node18" class="node">
<title>q19:125</title>
<ellipse fill="none" stroke="black" stroke-width="2" cx="1951.7" cy="-118.24" rx="52.26" ry="18"/>
<text text-anchor="middle" x="1951.7" y="-113.57" font-family="Times,serif" font-size="14.00">q19:125</text>
</g>
<!-- q15:3030&#45;&gt;q19:125 -->
<g id="edge22" class="edge">
<title>q15:3030&#45;&gt;q19:125</title>
<path fill="none" stroke="black" d="M1747.3,-118.24C1788.8,-118.24 1844.6,-118.24 1887.2,-118.24"/>
<polygon fill="black" stroke="black" points="1887.09,-121.74 1897.09,-118.24 1887.09,-114.74 1887.09,-121.74"/>
<text text-anchor="middle" x="1822.9" y="-122.19" font-family="Times,serif" font-size="14.00">content/250:125</text>
</g>
<!-- q18:1 -->
<g id="node19" class="node">
<title>q18:1</title>
<ellipse fill="none" stroke="black" stroke-width="2" cx="1951.7" cy="-64.24" rx="39.63" ry="18"/>
<text text-anchor="middle" x="1951.7" y="-59.56" font-family="Times,serif" font-size="14.00">q18:1</text>
</g>
<!-- q15:3030&#45;&gt;q18:1 -->
<g id="edge23" class="edge">
<title>q15:3030&#45;&gt;q18:1</title>
<path fill="none" stroke="black" d="M1731.4,-105.46C1742.1,-102.47 1753.6,-99.44 1764.4,-96.99 1810.7,-86.44 1864.1,-77.36 1901.8,-71.46"/>
<polygon fill="black" stroke="black" points="1902.15,-74.95 1911.5,-69.96 1901.09,-68.03 1902.15,-74.95"/>
<text text-anchor="middle" x="1822.9" y="-100.19" font-family="Times,serif" font-size="14.00">content/550:1</text>
</g>
<!-- q3:2 -->
<g id="node15" class="node">
<title>q3:2</title>
<ellipse fill="none" stroke="black" stroke-width="2" cx="491.48" cy="-38.24" rx="33.32" ry="18"/>
<text text-anchor="middle" x="491.48" y="-33.56" font-family="Times,serif" font-size="14.00">q3:2</text>
</g>
<!-- q3:2&#45;&gt;q5:230 -->
<g id="edge15" class="edge">
<title>q3:2&#45;&gt;q5:230</title>
<path fill="none" stroke="black" d="M519.56,-27.34C554.34,-15.18 615.63,0 661.18,-22.99 684.57,-34.79 701.42,-59.84 711.76,-79.75"/>
<polygon fill="black" stroke="black" points="708.51,-81.07 716.04,-88.52 714.8,-78 708.51,-81.07"/>
<text text-anchor="middle" x="608.31" y="-27.19" font-family="Times,serif" font-size="14.00">AUTH/235:2</text>
</g>
<!-- q1:244 -->
<g id="node16" class="node">
<title>q1:244</title>
<ellipse fill="none" stroke="black" stroke-width="2" cx="257.84" cy="-65.24" rx="45.95" ry="18"/>
<text text-anchor="middle" x="257.84" y="-60.56" font-family="Times,serif" font-size="14.00">q1:244</text>
</g>
<!-- q1:244&#45;&gt;q2:242 -->
<g id="edge18" class="edge">
<title>q1:244&#45;&gt;q2:242</title>
<path fill="none" stroke="black" d="M301.87,-71.74C339.9,-77.49 395.54,-85.89 436.54,-92.09"/>
<polygon fill="black" stroke="black" points="435.78,-95.51 446.19,-93.55 436.83,-88.59 435.78,-95.51"/>
<text text-anchor="middle" x="374.66" y="-93.19" font-family="Times,serif" font-size="14.00">EHLO/250:242</text>
</g>
<!-- q1:244&#45;&gt;q3:2 -->
<g id="edge19" class="edge">
<title>q1:244&#45;&gt;q3:2</title>
<path fill="none" stroke="black" d="M299.37,-56.7C306.8,-55.32 314.51,-54.01 321.79,-52.99 363.72,-47.09 411.86,-43.16 445.96,-40.85"/>
<polygon fill="black" stroke="black" points="446.14,-44.35 455.89,-40.2 445.68,-37.36 446.14,-44.35"/>
<text text-anchor="middle" x="374.66" y="-57.19" font-family="Times,serif" font-size="14.00">EHLO/λ:2</text>
</g>
<!-- q20:74 -->
<g id="node20" class="node">
<title>q20:74</title>
<ellipse fill="none" stroke="black" stroke-width="2" cx="2192.7" cy="-172.24" rx="45.95" ry="18"/>
<text text-anchor="middle" x="2192.7" y="-167.56" font-family="Times,serif" font-size="14.00">q20:74</text>
</g>
<!-- q17:74&#45;&gt;q20:74 -->
<g id="edge24" class="edge">
<title>q17:74&#45;&gt;q20:74</title>
<path fill="none" stroke="black" d="M1998.5,-172.24C2037.3,-172.24 2093,-172.24 2134.7,-172.24"/>
<polygon fill="black" stroke="black" points="2134.49,-175.74 2144.49,-172.24 2134.49,-168.74 2134.49,-175.74"/>
<text text-anchor="middle" x="2072.2" y="-176.19" font-family="Times,serif" font-size="14.00">RSET/250:74</text>
</g>
<!-- q22:125 -->
<g id="node21" class="node">
<title>q22:125</title>
<ellipse fill="none" stroke="black" stroke-width="2" cx="2192.7" cy="-118.24" rx="52.26" ry="18"/>
<text text-anchor="middle" x="2192.7" y="-113.57" font-family="Times,serif" font-size="14.00">q22:125</text>
</g>
<!-- q19:125&#45;&gt;q22:125 -->
<g id="edge25" class="edge">
<title>q19:125&#45;&gt;q22:125</title>
<path fill="none" stroke="black" d="M2004.8,-118.24C2041.2,-118.24 2090,-118.24 2128.5,-118.24"/>
<polygon fill="black" stroke="black" points="2128.09,-121.74 2138.09,-118.24 2128.09,-114.74 2128.09,-121.74"/>
<text text-anchor="middle" x="2072.2" y="-122.19" font-family="Times,serif" font-size="14.00">QUIT/221:125</text>
</g>
<!-- q21:1 -->
<g id="node22" class="node">
<title>q21:1</title>
<ellipse fill="none" stroke="black" stroke-width="2" cx="2192.7" cy="-64.24" rx="39.63" ry="18"/>
<text text-anchor="middle" x="2192.7" y="-59.56" font-family="Times,serif" font-size="14.00">q21:1</text>
</g>
<!-- q18:1&#45;&gt;q21:1 -->
<g id="edge26" class="edge">
<title>q18:1&#45;&gt;q21:1</title>
<path fill="none" stroke="black" d="M1992.1,-64.24C2032.8,-64.24 2096.3,-64.24 2140.7,-64.24"/>
<polygon fill="black" stroke="black" points="2140.69,-67.74 2150.69,-64.24 2140.69,-60.74 2140.69,-67.74"/>
<text text-anchor="middle" x="2072.2" y="-68.19" font-family="Times,serif" font-size="14.00">RSET/250:1</text>
</g>
<!-- q0:244 -->
<g id="node23" class="node">
<title>q0:244</title>
<ellipse fill="none" stroke="black" stroke-width="2" cx="53.95" cy="-65.24" rx="49.95" ry="49.95"/>
<ellipse fill="none" stroke="black" stroke-width="2" cx="53.95" cy="-65.24" rx="53.95" ry="53.95"/>
<text text-anchor="middle" x="53.95" y="-60.56" font-family="Times,serif" font-size="14.00">q0:244</text>
</g>
<!-- q0:244&#45;&gt;q1:244 -->
<g id="edge27" class="edge">
<title>q0:244&#45;&gt;q1:244</title>
<path fill="none" stroke="black" d="M104.85,-65.24C133.64,-65.24 169.94,-65.24 199.84,-65.24"/>
<polygon fill="black" stroke="black" points="199.45,-68.74 209.45,-65.24 199.45,-61.74 199.45,-68.74"/>
<text text-anchor="middle" x="157.89" y="-69.19" font-family="Times,serif" font-size="14.00">λ/220:244</text>
</g>
</g>
</svg>
