<?xml version="1.0" encoding="UTF-8" standalone="no"?>
<!DOCTYPE svg PUBLIC "-//W3C//DTD SVG 1.1//EN"
 "http://www.w3.org/Graphics/SVG/1.1/DTD/svg11.dtd">
<!-- Generated by graphviz version 12.0.0 (20240803.0821)
 -->
<!-- Pages: 1 -->
<svg width="1768pt" height="241pt"
 viewBox="0.00 0.00 1767.86 241.00" xmlns="http://www.w3.org/2000/svg" xmlns:xlink="http://www.w3.org/1999/xlink">
<g id="graph0" class="graph" transform="scale(1 1) rotate(0) translate(4 237)">
<polygon fill="white" stroke="none" points="-4,4 -4,-237 1763.86,-237 1763.86,4 -4,4"/>
<!-- q2:242 -->
<g id="node1" class="node">
<title>q2:242</title>
<ellipse fill="none" stroke="black" stroke-width="2" cx="491.48" cy="-151" rx="45.95" ry="18"/>
<text text-anchor="middle" x="491.48" y="-146.32" font-family="Times,serif" font-size="14.00">q2:242</text>
</g>
<!-- q4:228 -->
<g id="node2" class="node">
<title>q4:228</title>
<ellipse fill="none" stroke="black" stroke-width="2" cx="725.13" cy="-158" rx="45.95" ry="18"/>
<text text-anchor="middle" x="725.13" y="-153.32" font-family="Times,serif" font-size="14.00">q4:228</text>
</g>
<!-- q2:242&#45;&gt;q4:228 -->
<g id="edge1" class="edge">
<title>q2:242&#45;&gt;q4:228</title>
<path fill="none" stroke="black" d="M538.25,-152.38C575.21,-153.5 627.42,-155.08 667.1,-156.28"/>
<polygon fill="black" stroke="black" points="666.85,-159.77 676.95,-156.57 667.06,-152.78 666.85,-159.77"/>
<text text-anchor="middle" x="608.31" y="-158.94" font-family="Times,serif" font-size="14.00">AUTH/235:228</text>
</g>
<!-- q5:3 -->
<g id="node3" class="node">
<title>q5:3</title>
<ellipse fill="none" stroke="black" stroke-width="2" cx="725.13" cy="-78" rx="33.32" ry="18"/>
<text text-anchor="middle" x="725.13" y="-73.33" font-family="Times,serif" font-size="14.00">q5:3</text>
</g>
<!-- q2:242&#45;&gt;q5:3 -->
<g id="edge2" class="edge">
<title>q2:242&#45;&gt;q5:3</title>
<path fill="none" stroke="black" d="M528.68,-139.59C570.94,-126.28 640.6,-104.32 684.34,-90.54"/>
<polygon fill="black" stroke="black" points="685.21,-93.93 693.7,-87.59 683.11,-87.26 685.21,-93.93"/>
<text text-anchor="middle" x="608.31" y="-132.94" font-family="Times,serif" font-size="14.00">AUTH/λ:1</text>
</g>
<!-- q6:13 -->
<g id="node4" class="node">
<title>q6:13</title>
<ellipse fill="none" stroke="black" stroke-width="2" cx="725.13" cy="-213" rx="39.63" ry="18"/>
<text text-anchor="middle" x="725.13" y="-208.32" font-family="Times,serif" font-size="14.00">q6:13</text>
</g>
<!-- q2:242&#45;&gt;q6:13 -->
<g id="edge3" class="edge">
<title>q2:242&#45;&gt;q6:13</title>
<path fill="none" stroke="black" d="M523.83,-164.61C533.81,-168.63 544.97,-172.8 555.43,-176 595.49,-188.26 642.07,-198.16 676.12,-204.62"/>
<polygon fill="black" stroke="black" points="675.2,-208.01 685.67,-206.4 676.48,-201.13 675.2,-208.01"/>
<text text-anchor="middle" x="608.31" y="-204.94" font-family="Times,serif" font-size="14.00">AUTH/535:13</text>
</g>
<!-- q8:603 -->
<g id="node5" class="node">
<title>q8:603</title>
<ellipse fill="none" stroke="black" stroke-width="2" cx="954.27" cy="-72" rx="45.95" ry="18"/>
<text text-anchor="middle" x="954.27" y="-67.33" font-family="Times,serif" font-size="14.00">q8:603</text>
</g>
<!-- q4:228&#45;&gt;q8:603 -->
<g id="edge4" class="edge">
<title>q4:228&#45;&gt;q8:603</title>
<path fill="none" stroke="black" d="M759.79,-145.33C792.99,-132.82 845.17,-113.13 890.33,-96 896.49,-93.66 902.99,-91.19 909.38,-88.75"/>
<polygon fill="black" stroke="black" points="910.45,-92.09 918.54,-85.26 907.95,-85.55 910.45,-92.09"/>
<text text-anchor="middle" x="839.7" y="-135.94" font-family="Times,serif" font-size="14.00">MAIL/250:225</text>
</g>
<!-- q7:3 -->
<g id="node6" class="node">
<title>q7:3</title>
<ellipse fill="none" stroke="black" stroke-width="2" cx="954.27" cy="-161" rx="33.32" ry="18"/>
<text text-anchor="middle" x="954.27" y="-156.32" font-family="Times,serif" font-size="14.00">q7:3</text>
</g>
<!-- q4:228&#45;&gt;q7:3 -->
<g id="edge5" class="edge">
<title>q4:228&#45;&gt;q7:3</title>
<path fill="none" stroke="black" d="M771.82,-158.6C811.71,-159.13 869.24,-159.89 908.77,-160.41"/>
<polygon fill="black" stroke="black" points="908.61,-163.91 918.66,-160.54 908.7,-156.91 908.61,-163.91"/>
<text text-anchor="middle" x="839.7" y="-163.94" font-family="Times,serif" font-size="14.00">MAIL/553:3</text>
</g>
<!-- q5:3&#45;&gt;q8:603 -->
<g id="edge6" class="edge">
<title>q5:3&#45;&gt;q8:603</title>
<path fill="none" stroke="black" d="M759.16,-77.13C795,-76.18 852.89,-74.65 896.14,-73.51"/>
<polygon fill="black" stroke="black" points="896.22,-77.01 906.13,-73.25 896.04,-70.01 896.22,-77.01"/>
<text text-anchor="middle" x="839.7" y="-80.95" font-family="Times,serif" font-size="14.00">MAIL/250:3</text>
</g>
<!-- q9:13 -->
<g id="node7" class="node">
<title>q9:13</title>
<ellipse fill="none" stroke="black" stroke-width="2" cx="954.27" cy="-215" rx="39.63" ry="18"/>
<text text-anchor="middle" x="954.27" y="-210.32" font-family="Times,serif" font-size="14.00">q9:13</text>
</g>
<!-- q6:13&#45;&gt;q9:13 -->
<g id="edge7" class="edge">
<title>q6:13&#45;&gt;q9:13</title>
<path fill="none" stroke="black" d="M765.69,-213.35C803.6,-213.68 861,-214.19 902.32,-214.55"/>
<polygon fill="black" stroke="black" points="902.24,-218.05 912.27,-214.64 902.3,-211.05 902.24,-218.05"/>
<text text-anchor="middle" x="839.7" y="-217.94" font-family="Times,serif" font-size="14.00">AUTH/334:13</text>
</g>
<!-- q8:603&#45;&gt;q8:603 -->
<g id="edge8" class="edge">
<title>q8:603&#45;&gt;q8:603</title>
<path fill="none" stroke="black" d="M933.97,-89.04C929.83,-98.86 936.59,-108 954.27,-108 964.49,-108 971.07,-104.94 973.99,-100.47"/>
<polygon fill="black" stroke="black" points="977.48,-100.71 974.49,-90.55 970.49,-100.36 977.48,-100.71"/>
<text text-anchor="middle" x="954.27" y="-111.95" font-family="Times,serif" font-size="14.00">RCPT/250:375</text>
</g>
<!-- q11:3030 -->
<g id="node8" class="node">
<title>q11:3030</title>
<ellipse fill="none" stroke="black" stroke-width="2" cx="1202.8" cy="-72" rx="58.57" ry="18"/>
<text text-anchor="middle" x="1202.8" y="-67.33" font-family="Times,serif" font-size="14.00">q11:3030</text>
</g>
<!-- q8:603&#45;&gt;q11:3030 -->
<g id="edge9" class="edge">
<title>q8:603&#45;&gt;q11:3030</title>
<path fill="none" stroke="black" d="M1001.06,-72C1037.9,-72 1090.3,-72 1132.4,-72"/>
<polygon fill="black" stroke="black" points="1132.09,-75.5 1142.09,-72 1132.09,-68.5 1132.09,-75.5"/>
<text text-anchor="middle" x="1072.2" y="-75.95" font-family="Times,serif" font-size="14.00">DATA/354:200</text>
</g>
<!-- q12:28 -->
<g id="node9" class="node">
<title>q12:28</title>
<ellipse fill="none" stroke="black" stroke-width="2" cx="1202.8" cy="-18" rx="45.95" ry="18"/>
<text text-anchor="middle" x="1202.8" y="-13.32" font-family="Times,serif" font-size="14.00">q12:28</text>
</g>
<!-- q8:603&#45;&gt;q12:28 -->
<g id="edge10" class="edge">
<title>q8:603&#45;&gt;q12:28</title>
<path fill="none" stroke="black" d="M989.3,-59.48C998.59,-56.35 1008.7,-53.19 1018.2,-50.75 1061.1,-39.74 1110.6,-31.15 1147.4,-25.53"/>
<polygon fill="black" stroke="black" points="1147.53,-29.05 1156.9,-24.1 1146.49,-22.12 1147.53,-29.05"/>
<text text-anchor="middle" x="1072.2" y="-54.95" font-family="Times,serif" font-size="14.00">DATA/550:28</text>
</g>
<!-- q10:3 -->
<g id="node10" class="node">
<title>q10:3</title>
<ellipse fill="none" stroke="black" stroke-width="2" cx="1202.8" cy="-161" rx="39.63" ry="18"/>
<text text-anchor="middle" x="1202.8" y="-156.32" font-family="Times,serif" font-size="14.00">q10:3</text>
</g>
<!-- q7:3&#45;&gt;q10:3 -->
<g id="edge11" class="edge">
<title>q7:3&#45;&gt;q10:3</title>
<path fill="none" stroke="black" d="M988.52,-161C1030.4,-161 1102.7,-161 1151.4,-161"/>
<polygon fill="black" stroke="black" points="1151.09,-164.5 1161.09,-161 1151.09,-157.5 1151.09,-164.5"/>
<text text-anchor="middle" x="1072.2" y="-164.94" font-family="Times,serif" font-size="14.00">RSET/250:3</text>
</g>
<!-- q13:13 -->
<g id="node11" class="node">
<title>q13:13</title>
<ellipse fill="none" stroke="black" stroke-width="2" cx="1202.8" cy="-215" rx="45.95" ry="18"/>
<text text-anchor="middle" x="1202.8" y="-210.32" font-family="Times,serif" font-size="14.00">q13:13</text>
</g>
<!-- q9:13&#45;&gt;q13:13 -->
<g id="edge12" class="edge">
<title>q9:13&#45;&gt;q13:13</title>
<path fill="none" stroke="black" d="M994.88,-215C1035.4,-215 1098.8,-215 1144.7,-215"/>
<polygon fill="black" stroke="black" points="1144.49,-218.5 1154.49,-215 1144.49,-211.5 1144.49,-218.5"/>
<text text-anchor="middle" x="1072.2" y="-218.94" font-family="Times,serif" font-size="14.00">content/535:13</text>
</g>
<!-- q11:3030&#45;&gt;q11:3030 -->
<g id="edge13" class="edge">
<title>q11:3030&#45;&gt;q11:3030</title>
<path fill="none" stroke="black" d="M1179.5,-89.41C1175.1,-99.09 1182.9,-108 1202.8,-108 1214.3,-108 1221.7,-105.02 1225.1,-100.64"/>
<polygon fill="black" stroke="black" points="1228.56,-101.19 1225.97,-90.92 1221.59,-100.57 1228.56,-101.19"/>
<text text-anchor="middle" x="1202.8" y="-111.95" font-family="Times,serif" font-size="14.00">content/λ:2830</text>
</g>
<!-- q16:74 -->
<g id="node12" class="node">
<title>q16:74</title>
<ellipse fill="none" stroke="black" stroke-width="2" cx="1466.6" cy="-126" rx="45.95" ry="18"/>
<text text-anchor="middle" x="1466.6" y="-121.33" font-family="Times,serif" font-size="14.00">q16:74</text>
</g>
<!-- q11:3030&#45;&gt;q16:74 -->
<g id="edge14" class="edge">
<title>q11:3030&#45;&gt;q16:74</title>
<path fill="none" stroke="black" d="M1246.8,-84.71C1257.4,-87.63 1268.7,-90.59 1279.4,-93 1323.5,-103.01 1374.1,-111.81 1411.4,-117.79"/>
<polygon fill="black" stroke="black" points="1410.58,-121.2 1421,-119.32 1411.68,-114.29 1410.58,-121.2"/>
<text text-anchor="middle" x="1337.9" y="-118.95" font-family="Times,serif" font-size="14.00">content/554:74</text>
</g>
<!-- q15:125 -->
<g id="node13" class="node">
<title>q15:125</title>
<ellipse fill="none" stroke="black" stroke-width="2" cx="1466.6" cy="-72" rx="52.26" ry="18"/>
<text text-anchor="middle" x="1466.6" y="-67.33" font-family="Times,serif" font-size="14.00">q15:125</text>
</g>
<!-- q11:3030&#45;&gt;q15:125 -->
<g id="edge15" class="edge">
<title>q11:3030&#45;&gt;q15:125</title>
<path fill="none" stroke="black" d="M1262.2,-72C1303.8,-72 1359.6,-72 1402.2,-72"/>
<polygon fill="black" stroke="black" points="1402.09,-75.5 1412.09,-72 1402.09,-68.5 1402.09,-75.5"/>
<text text-anchor="middle" x="1337.9" y="-75.95" font-family="Times,serif" font-size="14.00">content/250:125</text>
</g>
<!-- q14:1 -->
<g id="node14" class="node">
<title>q14:1</title>
<ellipse fill="none" stroke="black" stroke-width="2" cx="1466.6" cy="-18" rx="39.63" ry="18"/>
<text text-anchor="middle" x="1466.6" y="-13.32" font-family="Times,serif" font-size="14.00">q14:1</text>
</g>
<!-- q11:3030&#45;&gt;q14:1 -->
<g id="edge16" class="edge">
<title>q11:3030&#45;&gt;q14:1</title>
<path fill="none" stroke="black" d="M1246.4,-59.23C1257.1,-56.23 1268.6,-53.2 1279.4,-50.75 1325.6,-40.2 1379,-31.13 1416.8,-25.22"/>
<polygon fill="black" stroke="black" points="1417.06,-28.72 1426.4,-23.72 1415.98,-21.81 1417.06,-28.72"/>
<text text-anchor="middle" x="1337.9" y="-54.95" font-family="Times,serif" font-size="14.00">content/550:1</text>
</g>
<!-- q17:4 -->
<g id="node20" class="node">
<title>q17:4</title>
<ellipse fill="none" stroke="black" stroke-width="2" cx="1466.6" cy="-215" rx="39.63" ry="18"/>
<text text-anchor="middle" x="1466.6" y="-210.32" font-family="Times,serif" font-size="14.00">q17:4</text>
</g>
<!-- q13:13&#45;&gt;q17:4 -->
<g id="edge23" class="edge">
<title>q13:13&#45;&gt;q17:4</title>
<path fill="none" stroke="black" d="M1249.7,-215C1295.9,-215 1367,-215 1414.9,-215"/>
<polygon fill="black" stroke="black" points="1414.69,-218.5 1424.69,-215 1414.69,-211.5 1414.69,-218.5"/>
<text text-anchor="middle" x="1337.9" y="-218.94" font-family="Times,serif" font-size="14.00">λ/451:4</text>
</g>
<!-- q20:74 -->
<g id="node15" class="node">
<title>q20:74</title>
<ellipse fill="none" stroke="black" stroke-width="2" cx="1707.6" cy="-126" rx="45.95" ry="18"/>
<text text-anchor="middle" x="1707.6" y="-121.33" font-family="Times,serif" font-size="14.00">q20:74</text>
</g>
<!-- q16:74&#45;&gt;q20:74 -->
<g id="edge17" class="edge">
<title>q16:74&#45;&gt;q20:74</title>
<path fill="none" stroke="black" d="M1513.4,-126C1552.2,-126 1608,-126 1649.6,-126"/>
<polygon fill="black" stroke="black" points="1649.49,-129.5 1659.49,-126 1649.49,-122.5 1649.49,-129.5"/>
<text text-anchor="middle" x="1587.1" y="-129.94" font-family="Times,serif" font-size="14.00">RSET/250:74</text>
</g>
<!-- q19:125 -->
<g id="node16" class="node">
<title>q19:125</title>
<ellipse fill="none" stroke="black" stroke-width="2" cx="1707.6" cy="-72" rx="52.26" ry="18"/>
<text text-anchor="middle" x="1707.6" y="-67.33" font-family="Times,serif" font-size="14.00">q19:125</text>
</g>
<!-- q15:125&#45;&gt;q19:125 -->
<g id="edge18" class="edge">
<title>q15:125&#45;&gt;q19:125</title>
<path fill="none" stroke="black" d="M1519.8,-72C1556.2,-72 1604.9,-72 1643.5,-72"/>
<polygon fill="black" stroke="black" points="1643.09,-75.5 1653.09,-72 1643.09,-68.5 1643.09,-75.5"/>
<text text-anchor="middle" x="1587.1" y="-75.95" font-family="Times,serif" font-size="14.00">QUIT/221:125</text>
</g>
<!-- q18:1 -->
<g id="node17" class="node">
<title>q18:1</title>
<ellipse fill="none" stroke="black" stroke-width="2" cx="1707.6" cy="-18" rx="39.63" ry="18"/>
<text text-anchor="middle" x="1707.6" y="-13.32" font-family="Times,serif" font-size="14.00">q18:1</text>
</g>
<!-- q14:1&#45;&gt;q18:1 -->
<g id="edge19" class="edge">
<title>q14:1&#45;&gt;q18:1</title>
<path fill="none" stroke="black" d="M1507.1,-18C1547.7,-18 1611.3,-18 1655.7,-18"/>
<polygon fill="black" stroke="black" points="1655.59,-21.5 1665.59,-18 1655.59,-14.5 1655.59,-21.5"/>
<text text-anchor="middle" x="1587.1" y="-21.95" font-family="Times,serif" font-size="14.00">RSET/250:1</text>
</g>
<!-- q1:244 -->
<g id="node18" class="node">
<title>q1:244</title>
<ellipse fill="none" stroke="black" stroke-width="2" cx="257.84" cy="-118" rx="45.95" ry="18"/>
<text text-anchor="middle" x="257.84" y="-113.33" font-family="Times,serif" font-size="14.00">q1:244</text>
</g>
<!-- q1:244&#45;&gt;q2:242 -->
<g id="edge20" class="edge">
<title>q1:244&#45;&gt;q2:242</title>
<path fill="none" stroke="black" d="M302.14,-124.17C340,-129.56 395.17,-137.42 436.02,-143.24"/>
<polygon fill="black" stroke="black" points="435.51,-146.7 445.9,-144.65 436.49,-139.77 435.51,-146.7"/>
<text text-anchor="middle" x="374.66" y="-144.94" font-family="Times,serif" font-size="14.00">EHLO/250:242</text>
</g>
<!-- q3:2 -->
<g id="node19" class="node">
<title>q3:2</title>
<ellipse fill="none" stroke="black" stroke-width="2" cx="491.48" cy="-91" rx="33.32" ry="18"/>
<text text-anchor="middle" x="491.48" y="-86.33" font-family="Times,serif" font-size="14.00">q3:2</text>
</g>
<!-- q1:244&#45;&gt;q3:2 -->
<g id="edge21" class="edge">
<title>q1:244&#45;&gt;q3:2</title>
<path fill="none" stroke="black" d="M296.21,-107.12C304.56,-105.03 313.43,-103.08 321.79,-101.75 363.53,-95.09 411.69,-92.53 445.85,-91.55"/>
<polygon fill="black" stroke="black" points="445.89,-95.05 455.8,-91.31 445.71,-88.05 445.89,-95.05"/>
<text text-anchor="middle" x="374.66" y="-104.95" font-family="Times,serif" font-size="14.00">EHLO/λ:2</text>
</g>
<!-- q3:2&#45;&gt;q5:3 -->
<g id="edge22" class="edge">
<title>q3:2&#45;&gt;q5:3</title>
<path fill="none" stroke="black" d="M523.05,-83.86C533.28,-81.78 544.8,-79.8 555.43,-78.75 597.41,-74.61 645.55,-74.89 679.63,-75.93"/>
<polygon fill="black" stroke="black" points="679.43,-79.42 689.55,-76.27 679.67,-72.43 679.43,-79.42"/>
<text text-anchor="middle" x="608.31" y="-82.95" font-family="Times,serif" font-size="14.00">AUTH/235:2</text>
</g>
<!-- q0:244 -->
<g id="node21" class="node">
<title>q0:244</title>
<ellipse fill="none" stroke="black" stroke-width="2" cx="53.95" cy="-118" rx="49.95" ry="49.95"/>
<ellipse fill="none" stroke="black" stroke-width="2" cx="53.95" cy="-118" rx="53.95" ry="53.95"/>
<text text-anchor="middle" x="53.95" y="-113.33" font-family="Times,serif" font-size="14.00">q0:244</text>
</g>
<!-- q0:244&#45;&gt;q1:244 -->
<g id="edge24" class="edge">
<title>q0:244&#45;&gt;q1:244</title>
<path fill="none" stroke="black" d="M104.85,-118C133.64,-118 169.94,-118 199.84,-118"/>
<polygon fill="black" stroke="black" points="199.45,-121.5 209.45,-118 199.45,-114.5 199.45,-121.5"/>
<text text-anchor="middle" x="157.89" y="-121.95" font-family="Times,serif" font-size="14.00">λ/220:244</text>
</g>
</g>
</svg>
