<?xml version="1.0" encoding="UTF-8" standalone="no"?>
<!DOCTYPE svg PUBLIC "-//W3C//DTD SVG 1.1//EN"
 "http://www.w3.org/Graphics/SVG/1.1/DTD/svg11.dtd">
<!-- Generated by graphviz version 12.0.0 (20240803.0821)
 -->
<!-- Pages: 1 -->
<svg width="2460pt" height="348pt"
 viewBox="0.00 0.00 2459.73 348.25" xmlns="http://www.w3.org/2000/svg" xmlns:xlink="http://www.w3.org/1999/xlink">
<g id="graph0" class="graph" transform="scale(1 1) rotate(0) translate(4 344.25)">
<polygon fill="white" stroke="none" points="-4,4 -4,-344.25 2455.73,-344.25 2455.73,4 -4,4"/>
<!-- q2:242 -->
<g id="node1" class="node">
<title>q2:242</title>
<ellipse fill="none" stroke="black" stroke-width="2" cx="491.48" cy="-234" rx="45.95" ry="18"/>
<text text-anchor="middle" x="491.48" y="-229.32" font-family="Times,serif" font-size="14.00">q2:242</text>
</g>
<!-- q6:1 -->
<g id="node2" class="node">
<title>q6:1</title>
<ellipse fill="none" stroke="black" stroke-width="2" cx="839.7" cy="-286" rx="33.32" ry="18"/>
<text text-anchor="middle" x="839.7" y="-281.32" font-family="Times,serif" font-size="14.00">q6:1</text>
</g>
<!-- q2:242&#45;&gt;q6:1 -->
<g id="edge1" class="edge">
<title>q2:242&#45;&gt;q6:1</title>
<path fill="none" stroke="black" d="M524.37,-247.39C534.18,-251.03 545.11,-254.63 555.43,-257 638.41,-276.09 737.97,-282.62 794.23,-284.85"/>
<polygon fill="black" stroke="black" points="793.92,-288.34 804.04,-285.21 794.17,-281.35 793.92,-288.34"/>
<text text-anchor="middle" x="608.31" y="-277.94" font-family="Times,serif" font-size="14.00">AUTH/λ:1</text>
</g>
<!-- q4:230 -->
<g id="node3" class="node">
<title>q4:230</title>
<ellipse fill="none" stroke="black" stroke-width="2" cx="725.13" cy="-165" rx="45.95" ry="18"/>
<text text-anchor="middle" x="725.13" y="-160.32" font-family="Times,serif" font-size="14.00">q4:230</text>
</g>
<!-- q2:242&#45;&gt;q4:230 -->
<g id="edge2" class="edge">
<title>q2:242&#45;&gt;q4:230</title>
<path fill="none" stroke="black" d="M528.05,-222.35C536.97,-219.49 546.54,-216.46 555.43,-213.75 595.77,-201.43 641.79,-188.19 675.56,-178.62"/>
<polygon fill="black" stroke="black" points="676.38,-182.02 685.05,-175.93 674.48,-175.29 676.38,-182.02"/>
<text text-anchor="middle" x="608.31" y="-216.94" font-family="Times,serif" font-size="14.00">AUTH/235:228</text>
</g>
<!-- q5:13 -->
<g id="node4" class="node">
<title>q5:13</title>
<ellipse fill="none" stroke="black" stroke-width="2" cx="725.13" cy="-238" rx="39.63" ry="18"/>
<text text-anchor="middle" x="725.13" y="-233.32" font-family="Times,serif" font-size="14.00">q5:13</text>
</g>
<!-- q2:242&#45;&gt;q5:13 -->
<g id="edge3" class="edge">
<title>q2:242&#45;&gt;q5:13</title>
<path fill="none" stroke="black" d="M538.25,-234.79C577.13,-235.46 632.89,-236.42 673.18,-237.12"/>
<polygon fill="black" stroke="black" points="673.06,-240.62 683.12,-237.29 673.18,-233.62 673.06,-240.62"/>
<text text-anchor="middle" x="608.31" y="-239.94" font-family="Times,serif" font-size="14.00">AUTH/535:13</text>
</g>
<!-- q10:10 -->
<g id="node5" class="node">
<title>q10:10</title>
<ellipse fill="none" stroke="black" stroke-width="2" cx="1694.6" cy="-287" rx="45.95" ry="18"/>
<text text-anchor="middle" x="1694.6" y="-282.32" font-family="Times,serif" font-size="14.00">q10:10</text>
</g>
<!-- q6:1&#45;&gt;q10:10 -->
<g id="edge4" class="edge">
<title>q6:1&#45;&gt;q10:10</title>
<path fill="none" stroke="black" d="M873.91,-286.23C918.71,-286.53 1000.98,-287 1071.2,-287 1071.2,-287 1071.2,-287 1440.8,-287 1507.9,-287 1585.2,-287 1636.4,-287"/>
<polygon fill="black" stroke="black" points="1636.39,-290.5 1646.39,-287 1636.39,-283.5 1636.39,-290.5"/>
<text text-anchor="middle" x="1196.5" y="-290.94" font-family="Times,serif" font-size="14.00">MAIL/250:1</text>
</g>
<!-- q7:227 -->
<g id="node6" class="node">
<title>q7:227</title>
<ellipse fill="none" stroke="black" stroke-width="2" cx="954.27" cy="-176" rx="45.95" ry="18"/>
<text text-anchor="middle" x="954.27" y="-171.32" font-family="Times,serif" font-size="14.00">q7:227</text>
</g>
<!-- q4:230&#45;&gt;q7:227 -->
<g id="edge5" class="edge">
<title>q4:230&#45;&gt;q7:227</title>
<path fill="none" stroke="black" d="M771.55,-167.2C807.61,-168.95 858.21,-171.4 896.86,-173.27"/>
<polygon fill="black" stroke="black" points="896.26,-176.75 906.42,-173.73 896.6,-169.75 896.26,-176.75"/>
<text text-anchor="middle" x="839.7" y="-175.94" font-family="Times,serif" font-size="14.00">MAIL/250:227</text>
</g>
<!-- q8:3 -->
<g id="node7" class="node">
<title>q8:3</title>
<ellipse fill="none" stroke="black" stroke-width="2" cx="954.27" cy="-122" rx="33.32" ry="18"/>
<text text-anchor="middle" x="954.27" y="-117.33" font-family="Times,serif" font-size="14.00">q8:3</text>
</g>
<!-- q4:230&#45;&gt;q8:3 -->
<g id="edge6" class="edge">
<title>q4:230&#45;&gt;q8:3</title>
<path fill="none" stroke="black" d="M762.53,-153.56C771.18,-151.09 780.41,-148.65 789.08,-146.75 829.5,-137.88 876.23,-131.18 909.47,-127"/>
<polygon fill="black" stroke="black" points="909.64,-130.51 919.14,-125.81 908.78,-123.56 909.64,-130.51"/>
<text text-anchor="middle" x="839.7" y="-150.94" font-family="Times,serif" font-size="14.00">MAIL/553:3</text>
</g>
<!-- q9:13 -->
<g id="node8" class="node">
<title>q9:13</title>
<ellipse fill="none" stroke="black" stroke-width="2" cx="954.27" cy="-237" rx="39.63" ry="18"/>
<text text-anchor="middle" x="954.27" y="-232.32" font-family="Times,serif" font-size="14.00">q9:13</text>
</g>
<!-- q5:13&#45;&gt;q9:13 -->
<g id="edge7" class="edge">
<title>q5:13&#45;&gt;q9:13</title>
<path fill="none" stroke="black" d="M765.69,-237.83C803.6,-237.66 861,-237.41 902.32,-237.22"/>
<polygon fill="black" stroke="black" points="902.28,-240.72 912.27,-237.18 902.25,-233.72 902.28,-240.72"/>
<text text-anchor="middle" x="839.7" y="-240.94" font-family="Times,serif" font-size="14.00">AUTH/334:13</text>
</g>
<!-- q10:10&#45;&gt;q10:10 -->
<g id="edge8" class="edge">
<title>q10:10&#45;&gt;q10:10</title>
<path fill="none" stroke="black" d="M1671.8,-303.29C1666.3,-313.39 1673.9,-323 1694.6,-323 1706.8,-323 1714.5,-319.61 1717.6,-314.74"/>
<polygon fill="black" stroke="black" points="1721.1,-314.71 1717.34,-304.8 1714.1,-314.89 1721.1,-314.71"/>
<text text-anchor="middle" x="1694.6" y="-326.94" font-family="Times,serif" font-size="14.00">RCPT/250:8</text>
</g>
<!-- q14:2 -->
<g id="node9" class="node">
<title>q14:2</title>
<ellipse fill="none" stroke="black" stroke-width="2" cx="1958.4" cy="-288" rx="39.63" ry="18"/>
<text text-anchor="middle" x="1958.4" y="-283.32" font-family="Times,serif" font-size="14.00">q14:2</text>
</g>
<!-- q10:10&#45;&gt;q14:2 -->
<g id="edge9" class="edge">
<title>q10:10&#45;&gt;q14:2</title>
<path fill="none" stroke="black" d="M1741.5,-287.18C1787.7,-287.35 1858.8,-287.62 1906.6,-287.81"/>
<polygon fill="black" stroke="black" points="1906.47,-291.31 1916.49,-287.84 1906.5,-284.31 1906.47,-291.31"/>
<text text-anchor="middle" x="1829.7" y="-290.94" font-family="Times,serif" font-size="14.00">DATA/354:2</text>
</g>
<!-- q11:227 -->
<g id="node10" class="node">
<title>q11:227</title>
<ellipse fill="none" stroke="black" stroke-width="2" cx="1196.5" cy="-176" rx="52.26" ry="18"/>
<text text-anchor="middle" x="1196.5" y="-171.32" font-family="Times,serif" font-size="14.00">q11:227</text>
</g>
<!-- q7:227&#45;&gt;q11:227 -->
<g id="edge10" class="edge">
<title>q7:227&#45;&gt;q11:227</title>
<path fill="none" stroke="black" d="M1001.02,-176C1038.1,-176 1090.8,-176 1131.9,-176"/>
<polygon fill="black" stroke="black" points="1131.69,-179.5 1141.69,-176 1131.69,-172.5 1131.69,-179.5"/>
<text text-anchor="middle" x="1072.2" y="-179.94" font-family="Times,serif" font-size="14.00">RCPT/250:227</text>
</g>
<!-- q12:3 -->
<g id="node11" class="node">
<title>q12:3</title>
<ellipse fill="none" stroke="black" stroke-width="2" cx="1196.5" cy="-122" rx="39.63" ry="18"/>
<text text-anchor="middle" x="1196.5" y="-117.33" font-family="Times,serif" font-size="14.00">q12:3</text>
</g>
<!-- q8:3&#45;&gt;q12:3 -->
<g id="edge11" class="edge">
<title>q8:3&#45;&gt;q12:3</title>
<path fill="none" stroke="black" d="M988.42,-122C1028.8,-122 1097.3,-122 1144.4,-122"/>
<polygon fill="black" stroke="black" points="1144.39,-125.5 1154.39,-122 1144.39,-118.5 1144.39,-125.5"/>
<text text-anchor="middle" x="1072.2" y="-125.95" font-family="Times,serif" font-size="14.00">RSET/250:3</text>
</g>
<!-- q13:13 -->
<g id="node12" class="node">
<title>q13:13</title>
<ellipse fill="none" stroke="black" stroke-width="2" cx="1196.5" cy="-233" rx="45.95" ry="18"/>
<text text-anchor="middle" x="1196.5" y="-228.32" font-family="Times,serif" font-size="14.00">q13:13</text>
</g>
<!-- q9:13&#45;&gt;q13:13 -->
<g id="edge12" class="edge">
<title>q9:13&#45;&gt;q13:13</title>
<path fill="none" stroke="black" d="M994.67,-236.34C1033.8,-235.69 1094.1,-234.69 1138.4,-233.95"/>
<polygon fill="black" stroke="black" points="1138.45,-237.45 1148.39,-233.79 1138.33,-230.45 1138.45,-237.45"/>
<text text-anchor="middle" x="1072.2" y="-238.94" font-family="Times,serif" font-size="14.00">content/535:13</text>
</g>
<!-- q18:2 -->
<g id="node13" class="node">
<title>q18:2</title>
<ellipse fill="none" stroke="black" stroke-width="2" cx="2199.4" cy="-288" rx="39.63" ry="18"/>
<text text-anchor="middle" x="2199.4" y="-283.32" font-family="Times,serif" font-size="14.00">q18:2</text>
</g>
<!-- q14:2&#45;&gt;q18:2 -->
<g id="edge13" class="edge">
<title>q14:2&#45;&gt;q18:2</title>
<path fill="none" stroke="black" d="M1998.9,-288C2039.5,-288 2103.1,-288 2147.5,-288"/>
<polygon fill="black" stroke="black" points="2147.39,-291.5 2157.39,-288 2147.39,-284.5 2147.39,-291.5"/>
<text text-anchor="middle" x="2078.9" y="-291.94" font-family="Times,serif" font-size="14.00">content/554:2</text>
</g>
<!-- q15:139 -->
<g id="node23" class="node">
<title>q15:139</title>
<ellipse fill="none" stroke="black" stroke-width="2" cx="1439.8" cy="-179" rx="52.26" ry="18"/>
<text text-anchor="middle" x="1439.8" y="-174.32" font-family="Times,serif" font-size="14.00">q15:139</text>
</g>
<!-- q11:227&#45;&gt;q15:139 -->
<g id="edge23" class="edge">
<title>q11:227&#45;&gt;q15:139</title>
<path fill="none" stroke="black" d="M1249.5,-176.65C1286.5,-177.11 1336.3,-177.73 1375.5,-178.21"/>
<polygon fill="black" stroke="black" points="1375.24,-181.71 1385.29,-178.33 1375.33,-174.71 1375.24,-181.71"/>
<text text-anchor="middle" x="1318.1" y="-181.94" font-family="Times,serif" font-size="14.00">RCPT/250:139</text>
</g>
<!-- q16:88 -->
<g id="node24" class="node">
<title>q16:88</title>
<ellipse fill="none" stroke="black" stroke-width="2" cx="1439.8" cy="-94" rx="45.95" ry="18"/>
<text text-anchor="middle" x="1439.8" y="-89.33" font-family="Times,serif" font-size="14.00">q16:88</text>
</g>
<!-- q11:227&#45;&gt;q16:88 -->
<g id="edge24" class="edge">
<title>q11:227&#45;&gt;q16:88</title>
<path fill="none" stroke="black" d="M1235.4,-163.1C1278.1,-148.6 1347.4,-125.06 1393,-109.56"/>
<polygon fill="black" stroke="black" points="1393.94,-112.94 1402.27,-106.39 1391.67,-106.31 1393.94,-112.94"/>
<text text-anchor="middle" x="1318.1" y="-155.94" font-family="Times,serif" font-size="14.00">DATA/354:88</text>
</g>
<!-- q17:4 -->
<g id="node22" class="node">
<title>q17:4</title>
<ellipse fill="none" stroke="black" stroke-width="2" cx="1439.8" cy="-233" rx="39.63" ry="18"/>
<text text-anchor="middle" x="1439.8" y="-228.32" font-family="Times,serif" font-size="14.00">q17:4</text>
</g>
<!-- q13:13&#45;&gt;q17:4 -->
<g id="edge22" class="edge">
<title>q13:13&#45;&gt;q17:4</title>
<path fill="none" stroke="black" d="M1243.1,-233C1284.4,-233 1345.2,-233 1388,-233"/>
<polygon fill="black" stroke="black" points="1387.79,-236.5 1397.79,-233 1387.79,-229.5 1387.79,-236.5"/>
<text text-anchor="middle" x="1318.1" y="-236.94" font-family="Times,serif" font-size="14.00">λ/451:4</text>
</g>
<!-- q23:2 -->
<g id="node21" class="node">
<title>q23:2</title>
<ellipse fill="none" stroke="black" stroke-width="2" cx="2412.1" cy="-288" rx="39.63" ry="18"/>
<text text-anchor="middle" x="2412.1" y="-283.32" font-family="Times,serif" font-size="14.00">q23:2</text>
</g>
<!-- q18:2&#45;&gt;q23:2 -->
<g id="edge21" class="edge">
<title>q18:2&#45;&gt;q23:2</title>
<path fill="none" stroke="black" d="M2240.1,-288C2274.2,-288 2323.6,-288 2360.6,-288"/>
<polygon fill="black" stroke="black" points="2360.09,-291.5 2370.09,-288 2360.09,-284.5 2360.09,-291.5"/>
<text text-anchor="middle" x="2312.1" y="-291.94" font-family="Times,serif" font-size="14.00">RSET/250:2</text>
</g>
<!-- q19:2940 -->
<g id="node14" class="node">
<title>q19:2940</title>
<ellipse fill="none" stroke="black" stroke-width="2" cx="1694.6" cy="-126" rx="58.57" ry="18"/>
<text text-anchor="middle" x="1694.6" y="-121.33" font-family="Times,serif" font-size="14.00">q19:2940</text>
</g>
<!-- q19:2940&#45;&gt;q19:2940 -->
<g id="edge14" class="edge">
<title>q19:2940&#45;&gt;q19:2940</title>
<path fill="none" stroke="black" d="M1671.3,-143.41C1666.9,-153.09 1674.7,-162 1694.6,-162 1706.1,-162 1713.5,-159.02 1716.9,-154.64"/>
<polygon fill="black" stroke="black" points="1720.36,-155.19 1717.77,-144.92 1713.39,-154.57 1720.36,-155.19"/>
<text text-anchor="middle" x="1694.6" y="-165.94" font-family="Times,serif" font-size="14.00">content/λ:2828</text>
</g>
<!-- q24:104 -->
<g id="node15" class="node">
<title>q24:104</title>
<ellipse fill="none" stroke="black" stroke-width="2" cx="1958.4" cy="-234" rx="52.26" ry="18"/>
<text text-anchor="middle" x="1958.4" y="-229.32" font-family="Times,serif" font-size="14.00">q24:104</text>
</g>
<!-- q19:2940&#45;&gt;q24:104 -->
<g id="edge15" class="edge">
<title>q19:2940&#45;&gt;q24:104</title>
<path fill="none" stroke="black" d="M1712.2,-144.15C1726.4,-158.67 1748.3,-178.46 1771.2,-190 1810.3,-209.74 1858.5,-220.82 1896.1,-226.92"/>
<polygon fill="black" stroke="black" points="1895.49,-230.37 1905.9,-228.43 1896.55,-223.45 1895.49,-230.37"/>
<text text-anchor="middle" x="1829.7" y="-227.94" font-family="Times,serif" font-size="14.00">content/250:104</text>
</g>
<!-- q25:1 -->
<g id="node16" class="node">
<title>q25:1</title>
<ellipse fill="none" stroke="black" stroke-width="2" cx="1958.4" cy="-180" rx="39.63" ry="18"/>
<text text-anchor="middle" x="1958.4" y="-175.32" font-family="Times,serif" font-size="14.00">q25:1</text>
</g>
<!-- q19:2940&#45;&gt;q25:1 -->
<g id="edge16" class="edge">
<title>q19:2940&#45;&gt;q25:1</title>
<path fill="none" stroke="black" d="M1738.6,-138.71C1749.2,-141.63 1760.5,-144.59 1771.2,-147 1817.4,-157.51 1870.8,-166.67 1908.6,-172.66"/>
<polygon fill="black" stroke="black" points="1907.78,-176.07 1918.2,-174.17 1908.87,-169.16 1907.78,-176.07"/>
<text text-anchor="middle" x="1829.7" y="-172.94" font-family="Times,serif" font-size="14.00">content/550:1</text>
</g>
<!-- q26:7 -->
<g id="node17" class="node">
<title>q26:7</title>
<ellipse fill="none" stroke="black" stroke-width="2" cx="1958.4" cy="-126" rx="39.63" ry="18"/>
<text text-anchor="middle" x="1958.4" y="-121.33" font-family="Times,serif" font-size="14.00">q26:7</text>
</g>
<!-- q19:2940&#45;&gt;q26:7 -->
<g id="edge17" class="edge">
<title>q19:2940&#45;&gt;q26:7</title>
<path fill="none" stroke="black" d="M1754,-126C1799.7,-126 1862.6,-126 1906.3,-126"/>
<polygon fill="black" stroke="black" points="1906.29,-129.5 1916.29,-126 1906.29,-122.5 1906.29,-129.5"/>
<text text-anchor="middle" x="1829.7" y="-129.94" font-family="Times,serif" font-size="14.00">content/554:7</text>
</g>
<!-- q29:104 -->
<g id="node18" class="node">
<title>q29:104</title>
<ellipse fill="none" stroke="black" stroke-width="2" cx="2199.4" cy="-234" rx="52.26" ry="18"/>
<text text-anchor="middle" x="2199.4" y="-229.32" font-family="Times,serif" font-size="14.00">q29:104</text>
</g>
<!-- q24:104&#45;&gt;q29:104 -->
<g id="edge18" class="edge">
<title>q24:104&#45;&gt;q29:104</title>
<path fill="none" stroke="black" d="M2011.6,-234C2048,-234 2096.7,-234 2135.3,-234"/>
<polygon fill="black" stroke="black" points="2134.89,-237.5 2144.89,-234 2134.89,-230.5 2134.89,-237.5"/>
<text text-anchor="middle" x="2078.9" y="-237.94" font-family="Times,serif" font-size="14.00">QUIT/221:104</text>
</g>
<!-- q30:1 -->
<g id="node19" class="node">
<title>q30:1</title>
<ellipse fill="none" stroke="black" stroke-width="2" cx="2199.4" cy="-180" rx="39.63" ry="18"/>
<text text-anchor="middle" x="2199.4" y="-175.32" font-family="Times,serif" font-size="14.00">q30:1</text>
</g>
<!-- q25:1&#45;&gt;q30:1 -->
<g id="edge19" class="edge">
<title>q25:1&#45;&gt;q30:1</title>
<path fill="none" stroke="black" d="M1998.9,-180C2039.5,-180 2103.1,-180 2147.5,-180"/>
<polygon fill="black" stroke="black" points="2147.39,-183.5 2157.39,-180 2147.39,-176.5 2147.39,-183.5"/>
<text text-anchor="middle" x="2078.9" y="-183.94" font-family="Times,serif" font-size="14.00">RSET/250:1</text>
</g>
<!-- q31:7 -->
<g id="node20" class="node">
<title>q31:7</title>
<ellipse fill="none" stroke="black" stroke-width="2" cx="2199.4" cy="-126" rx="39.63" ry="18"/>
<text text-anchor="middle" x="2199.4" y="-121.33" font-family="Times,serif" font-size="14.00">q31:7</text>
</g>
<!-- q26:7&#45;&gt;q31:7 -->
<g id="edge20" class="edge">
<title>q26:7&#45;&gt;q31:7</title>
<path fill="none" stroke="black" d="M1998.9,-126C2039.5,-126 2103.1,-126 2147.5,-126"/>
<polygon fill="black" stroke="black" points="2147.39,-129.5 2157.39,-126 2147.39,-122.5 2147.39,-129.5"/>
<text text-anchor="middle" x="2078.9" y="-129.94" font-family="Times,serif" font-size="14.00">RSET/250:7</text>
</g>
<!-- q15:139&#45;&gt;q10:10 -->
<g id="edge25" class="edge">
<title>q15:139&#45;&gt;q10:10</title>
<path fill="none" stroke="black" d="M1472.6,-193.84C1479.2,-197.47 1486,-201.58 1492,-206 1501.1,-212.71 1500.3,-218.23 1510,-224 1553,-249.54 1570.8,-239.11 1618,-255.75 1629.2,-259.68 1641,-264.36 1652,-268.88"/>
<polygon fill="black" stroke="black" points="1650.63,-272.1 1661.2,-272.74 1653.33,-265.64 1650.63,-272.1"/>
<text text-anchor="middle" x="1564" y="-258.94" font-family="Times,serif" font-size="14.00">RCPT/250:1</text>
</g>
<!-- q15:139&#45;&gt;q19:2940 -->
<g id="edge26" class="edge">
<title>q15:139&#45;&gt;q19:2940</title>
<path fill="none" stroke="black" d="M1485.7,-169.59C1526.9,-160.95 1588.2,-148.09 1633.6,-138.57"/>
<polygon fill="black" stroke="black" points="1634.25,-142.01 1643.32,-136.54 1632.81,-135.16 1634.25,-142.01"/>
<text text-anchor="middle" x="1564" y="-166.94" font-family="Times,serif" font-size="14.00">DATA/354:110</text>
</g>
<!-- q20:28 -->
<g id="node25" class="node">
<title>q20:28</title>
<ellipse fill="none" stroke="black" stroke-width="2" cx="1694.6" cy="-215" rx="45.95" ry="18"/>
<text text-anchor="middle" x="1694.6" y="-210.32" font-family="Times,serif" font-size="14.00">q20:28</text>
</g>
<!-- q15:139&#45;&gt;q20:28 -->
<g id="edge27" class="edge">
<title>q15:139&#45;&gt;q20:28</title>
<path fill="none" stroke="black" d="M1489.2,-185.9C1532.1,-192 1594.6,-200.9 1639.1,-207.25"/>
<polygon fill="black" stroke="black" points="1638.51,-210.7 1648.9,-208.64 1639.49,-203.77 1638.51,-210.7"/>
<text text-anchor="middle" x="1564" y="-206.94" font-family="Times,serif" font-size="14.00">DATA/550:28</text>
</g>
<!-- q16:88&#45;&gt;q19:2940 -->
<g id="edge28" class="edge">
<title>q16:88&#45;&gt;q19:2940</title>
<path fill="none" stroke="black" d="M1484.5,-99.54C1524.1,-104.55 1583,-112 1628.2,-117.72"/>
<polygon fill="black" stroke="black" points="1627.54,-121.16 1637.9,-118.95 1628.42,-114.22 1627.54,-121.16"/>
<text text-anchor="middle" x="1564" y="-119.95" font-family="Times,serif" font-size="14.00">content/λ:2</text>
</g>
<!-- q22:21 -->
<g id="node26" class="node">
<title>q22:21</title>
<ellipse fill="none" stroke="black" stroke-width="2" cx="1694.6" cy="-18" rx="45.95" ry="18"/>
<text text-anchor="middle" x="1694.6" y="-13.32" font-family="Times,serif" font-size="14.00">q22:21</text>
</g>
<!-- q16:88&#45;&gt;q22:21 -->
<g id="edge29" class="edge">
<title>q16:88&#45;&gt;q22:21</title>
<path fill="none" stroke="black" d="M1462.7,-77.7C1475.9,-68.74 1493.2,-58.18 1510,-51.75 1551.2,-36.03 1600.4,-27.49 1637.5,-22.94"/>
<polygon fill="black" stroke="black" points="1637.57,-26.45 1647.1,-21.82 1636.76,-19.5 1637.57,-26.45"/>
<text text-anchor="middle" x="1564" y="-55.95" font-family="Times,serif" font-size="14.00">content/250:21</text>
</g>
<!-- q21:65 -->
<g id="node27" class="node">
<title>q21:65</title>
<ellipse fill="none" stroke="black" stroke-width="2" cx="1694.6" cy="-72" rx="45.95" ry="18"/>
<text text-anchor="middle" x="1694.6" y="-67.33" font-family="Times,serif" font-size="14.00">q21:65</text>
</g>
<!-- q16:88&#45;&gt;q21:65 -->
<g id="edge30" class="edge">
<title>q16:88&#45;&gt;q21:65</title>
<path fill="none" stroke="black" d="M1480.5,-84.68C1490.1,-82.75 1500.4,-80.94 1510,-79.75 1552.1,-74.56 1600.1,-72.67 1636.4,-72.06"/>
<polygon fill="black" stroke="black" points="1636.34,-75.56 1646.29,-71.92 1636.24,-68.56 1636.34,-75.56"/>
<text text-anchor="middle" x="1564" y="-83.95" font-family="Times,serif" font-size="14.00">content/554:65</text>
</g>
<!-- q28:21 -->
<g id="node28" class="node">
<title>q28:21</title>
<ellipse fill="none" stroke="black" stroke-width="2" cx="1958.4" cy="-18" rx="45.95" ry="18"/>
<text text-anchor="middle" x="1958.4" y="-13.32" font-family="Times,serif" font-size="14.00">q28:21</text>
</g>
<!-- q22:21&#45;&gt;q28:21 -->
<g id="edge31" class="edge">
<title>q22:21&#45;&gt;q28:21</title>
<path fill="none" stroke="black" d="M1741.5,-18C1785.7,-18 1852.6,-18 1900.2,-18"/>
<polygon fill="black" stroke="black" points="1900.09,-21.5 1910.09,-18 1900.09,-14.5 1900.09,-21.5"/>
<text text-anchor="middle" x="1829.7" y="-21.95" font-family="Times,serif" font-size="14.00">QUIT/221:21</text>
</g>
<!-- q27:65 -->
<g id="node29" class="node">
<title>q27:65</title>
<ellipse fill="none" stroke="black" stroke-width="2" cx="1958.4" cy="-72" rx="45.95" ry="18"/>
<text text-anchor="middle" x="1958.4" y="-67.33" font-family="Times,serif" font-size="14.00">q27:65</text>
</g>
<!-- q21:65&#45;&gt;q27:65 -->
<g id="edge32" class="edge">
<title>q21:65&#45;&gt;q27:65</title>
<path fill="none" stroke="black" d="M1741.5,-72C1785.7,-72 1852.6,-72 1900.2,-72"/>
<polygon fill="black" stroke="black" points="1900.09,-75.5 1910.09,-72 1900.09,-68.5 1900.09,-75.5"/>
<text text-anchor="middle" x="1829.7" y="-75.95" font-family="Times,serif" font-size="14.00">RSET/250:65</text>
</g>
<!-- q0:244 -->
<g id="node30" class="node">
<title>q0:244</title>
<ellipse fill="none" stroke="black" stroke-width="2" cx="53.95" cy="-201" rx="49.95" ry="49.95"/>
<ellipse fill="none" stroke="black" stroke-width="2" cx="53.95" cy="-201" rx="53.95" ry="53.95"/>
<text text-anchor="middle" x="53.95" y="-196.32" font-family="Times,serif" font-size="14.00">q0:244</text>
</g>
<!-- q1:244 -->
<g id="node31" class="node">
<title>q1:244</title>
<ellipse fill="none" stroke="black" stroke-width="2" cx="257.84" cy="-201" rx="45.95" ry="18"/>
<text text-anchor="middle" x="257.84" y="-196.32" font-family="Times,serif" font-size="14.00">q1:244</text>
</g>
<!-- q0:244&#45;&gt;q1:244 -->
<g id="edge33" class="edge">
<title>q0:244&#45;&gt;q1:244</title>
<path fill="none" stroke="black" d="M104.85,-201C133.64,-201 169.94,-201 199.84,-201"/>
<polygon fill="black" stroke="black" points="199.45,-204.5 209.45,-201 199.45,-197.5 199.45,-204.5"/>
<text text-anchor="middle" x="157.89" y="-204.94" font-family="Times,serif" font-size="14.00">λ/220:244</text>
</g>
<!-- q1:244&#45;&gt;q2:242 -->
<g id="edge34" class="edge">
<title>q1:244&#45;&gt;q2:242</title>
<path fill="none" stroke="black" d="M302.14,-207.17C340,-212.56 395.17,-220.42 436.02,-226.24"/>
<polygon fill="black" stroke="black" points="435.51,-229.7 445.9,-227.65 436.49,-222.77 435.51,-229.7"/>
<text text-anchor="middle" x="374.66" y="-227.94" font-family="Times,serif" font-size="14.00">EHLO/250:242</text>
</g>
<!-- q3:2 -->
<g id="node32" class="node">
<title>q3:2</title>
<ellipse fill="none" stroke="black" stroke-width="2" cx="491.48" cy="-174" rx="33.32" ry="18"/>
<text text-anchor="middle" x="491.48" y="-169.32" font-family="Times,serif" font-size="14.00">q3:2</text>
</g>
<!-- q1:244&#45;&gt;q3:2 -->
<g id="edge35" class="edge">
<title>q1:244&#45;&gt;q3:2</title>
<path fill="none" stroke="black" d="M296.21,-190.12C304.56,-188.03 313.43,-186.08 321.79,-184.75 363.53,-178.09 411.69,-175.52 445.85,-174.55"/>
<polygon fill="black" stroke="black" points="445.88,-178.05 455.8,-174.31 445.71,-171.05 445.88,-178.05"/>
<text text-anchor="middle" x="374.66" y="-187.94" font-family="Times,serif" font-size="14.00">EHLO/λ:2</text>
</g>
<!-- q3:2&#45;&gt;q4:230 -->
<g id="edge36" class="edge">
<title>q3:2&#45;&gt;q4:230</title>
<path fill="none" stroke="black" d="M523.05,-166.83C533.28,-164.75 544.79,-162.78 555.43,-161.75 592.86,-158.14 635.17,-158.97 668.05,-160.69"/>
<polygon fill="black" stroke="black" points="667.58,-164.17 677.76,-161.24 667.97,-157.18 667.58,-164.17"/>
<text text-anchor="middle" x="608.31" y="-164.94" font-family="Times,serif" font-size="14.00">AUTH/235:2</text>
</g>
</g>
</svg>
