<?xml version="1.0" encoding="UTF-8" standalone="no"?>
<!DOCTYPE svg PUBLIC "-//W3C//DTD SVG 1.1//EN"
 "http://www.w3.org/Graphics/SVG/1.1/DTD/svg11.dtd">
<!-- Generated by graphviz version 12.0.0 (20240803.0821)
 -->
<!-- Pages: 1 -->
<svg width="2240pt" height="232pt"
 viewBox="0.00 0.00 2240.36 232.00" xmlns="http://www.w3.org/2000/svg" xmlns:xlink="http://www.w3.org/1999/xlink">
<g id="graph0" class="graph" transform="scale(1 1) rotate(0) translate(4 228)">
<polygon fill="white" stroke="none" points="-4,4 -4,-228 2236.36,-228 2236.36,4 -4,4"/>
<!-- q1:244 -->
<g id="node1" class="node">
<title>q1:244</title>
<ellipse fill="none" stroke="black" stroke-width="2" cx="257.84" cy="-102" rx="45.95" ry="18"/>
<text text-anchor="middle" x="257.84" y="-97.33" font-family="Times,serif" font-size="14.00">q1:244</text>
</g>
<!-- q2:242 -->
<g id="node2" class="node">
<title>q2:242</title>
<ellipse fill="none" stroke="black" stroke-width="2" cx="491.48" cy="-135" rx="45.95" ry="18"/>
<text text-anchor="middle" x="491.48" y="-130.32" font-family="Times,serif" font-size="14.00">q2:242</text>
</g>
<!-- q1:244&#45;&gt;q2:242 -->
<g id="edge1" class="edge">
<title>q1:244&#45;&gt;q2:242</title>
<path fill="none" stroke="black" d="M302.14,-108.17C340,-113.56 395.17,-121.42 436.02,-127.24"/>
<polygon fill="black" stroke="black" points="435.51,-130.7 445.9,-128.65 436.49,-123.77 435.51,-130.7"/>
<text text-anchor="middle" x="374.66" y="-128.94" font-family="Times,serif" font-size="14.00">EHLO/250:242</text>
</g>
<!-- q3:2 -->
<g id="node3" class="node">
<title>q3:2</title>
<ellipse fill="none" stroke="black" stroke-width="2" cx="491.48" cy="-75" rx="33.32" ry="18"/>
<text text-anchor="middle" x="491.48" y="-70.33" font-family="Times,serif" font-size="14.00">q3:2</text>
</g>
<!-- q1:244&#45;&gt;q3:2 -->
<g id="edge2" class="edge">
<title>q1:244&#45;&gt;q3:2</title>
<path fill="none" stroke="black" d="M298.66,-92.83C306.31,-91.29 314.27,-89.84 321.79,-88.75 363.67,-82.66 411.82,-79.07 445.93,-77.1"/>
<polygon fill="black" stroke="black" points="446.07,-80.59 455.86,-76.55 445.68,-73.6 446.07,-80.59"/>
<text text-anchor="middle" x="374.66" y="-92.95" font-family="Times,serif" font-size="14.00">EHLO/λ:2</text>
</g>
<!-- q5:1 -->
<g id="node4" class="node">
<title>q5:1</title>
<ellipse fill="none" stroke="black" stroke-width="2" cx="839.7" cy="-141" rx="33.32" ry="18"/>
<text text-anchor="middle" x="839.7" y="-136.32" font-family="Times,serif" font-size="14.00">q5:1</text>
</g>
<!-- q2:242&#45;&gt;q5:1 -->
<g id="edge3" class="edge">
<title>q2:242&#45;&gt;q5:1</title>
<path fill="none" stroke="black" d="M538.1,-135.79C604.79,-136.95 728.13,-139.08 794.18,-140.23"/>
<polygon fill="black" stroke="black" points="793.87,-143.73 803.93,-140.39 793.99,-136.73 793.87,-143.73"/>
<text text-anchor="middle" x="608.31" y="-140.94" font-family="Times,serif" font-size="14.00">AUTH/λ:1</text>
</g>
<!-- q4:12 -->
<g id="node5" class="node">
<title>q4:12</title>
<ellipse fill="none" stroke="black" stroke-width="2" cx="725.13" cy="-190" rx="39.63" ry="18"/>
<text text-anchor="middle" x="725.13" y="-185.32" font-family="Times,serif" font-size="14.00">q4:12</text>
</g>
<!-- q2:242&#45;&gt;q4:12 -->
<g id="edge4" class="edge">
<title>q2:242&#45;&gt;q4:12</title>
<path fill="none" stroke="black" d="M521.03,-149.58C531.61,-154.48 543.85,-159.56 555.43,-163 594.52,-174.6 640.27,-181.53 674.26,-185.46"/>
<polygon fill="black" stroke="black" points="673.47,-188.89 683.8,-186.51 674.24,-181.94 673.47,-188.89"/>
<text text-anchor="middle" x="608.31" y="-186.94" font-family="Times,serif" font-size="14.00">AUTH/535:12</text>
</g>
<!-- q6:231 -->
<g id="node6" class="node">
<title>q6:231</title>
<ellipse fill="none" stroke="black" stroke-width="2" cx="725.13" cy="-75" rx="45.95" ry="18"/>
<text text-anchor="middle" x="725.13" y="-70.33" font-family="Times,serif" font-size="14.00">q6:231</text>
</g>
<!-- q2:242&#45;&gt;q6:231 -->
<g id="edge5" class="edge">
<title>q2:242&#45;&gt;q6:231</title>
<path fill="none" stroke="black" d="M518.34,-119.45C529.42,-113.41 542.72,-106.94 555.43,-102.75 591.87,-90.75 634.52,-83.79 667.82,-79.84"/>
<polygon fill="black" stroke="black" points="668.13,-83.33 677.68,-78.74 667.35,-76.37 668.13,-83.33"/>
<text text-anchor="middle" x="608.31" y="-105.95" font-family="Times,serif" font-size="14.00">AUTH/235:229</text>
</g>
<!-- q3:2&#45;&gt;q6:231 -->
<g id="edge6" class="edge">
<title>q3:2&#45;&gt;q6:231</title>
<path fill="none" stroke="black" d="M523.05,-67.83C533.28,-65.75 544.79,-63.78 555.43,-62.75 602.21,-58.24 614.4,-58.24 661.18,-62.75 665.01,-63.12 668.95,-63.61 672.91,-64.19"/>
<polygon fill="black" stroke="black" points="672.07,-67.6 682.51,-65.75 673.2,-60.69 672.07,-67.6"/>
<text text-anchor="middle" x="608.31" y="-66.95" font-family="Times,serif" font-size="14.00">AUTH/235:2</text>
</g>
<!-- q8:232 -->
<g id="node7" class="node">
<title>q8:232</title>
<ellipse fill="none" stroke="black" stroke-width="2" cx="1190.2" cy="-83" rx="45.95" ry="18"/>
<text text-anchor="middle" x="1190.2" y="-78.33" font-family="Times,serif" font-size="14.00">q8:232</text>
</g>
<!-- q5:1&#45;&gt;q8:232 -->
<g id="edge7" class="edge">
<title>q5:1&#45;&gt;q8:232</title>
<path fill="none" stroke="black" d="M873.61,-138.81C927.12,-134.79 1036.1,-124.67 1126.2,-104 1132.2,-102.63 1138.4,-100.93 1144.5,-99.08"/>
<polygon fill="black" stroke="black" points="1145.3,-102.5 1153.76,-96.12 1143.17,-95.84 1145.3,-102.5"/>
<text text-anchor="middle" x="954.27" y="-138.94" font-family="Times,serif" font-size="14.00">MAIL/250:1</text>
</g>
<!-- q7:12 -->
<g id="node8" class="node">
<title>q7:12</title>
<ellipse fill="none" stroke="black" stroke-width="2" cx="954.27" cy="-193" rx="39.63" ry="18"/>
<text text-anchor="middle" x="954.27" y="-188.32" font-family="Times,serif" font-size="14.00">q7:12</text>
</g>
<!-- q4:12&#45;&gt;q7:12 -->
<g id="edge8" class="edge">
<title>q4:12&#45;&gt;q7:12</title>
<path fill="none" stroke="black" d="M765.69,-190.52C803.6,-191.02 861,-191.78 902.32,-192.33"/>
<polygon fill="black" stroke="black" points="902.22,-195.83 912.27,-192.46 902.31,-188.83 902.22,-195.83"/>
<text text-anchor="middle" x="839.7" y="-195.94" font-family="Times,serif" font-size="14.00">AUTH/334:12</text>
</g>
<!-- q9:228 -->
<g id="node9" class="node">
<title>q9:228</title>
<ellipse fill="none" stroke="black" stroke-width="2" cx="954.27" cy="-83" rx="45.95" ry="18"/>
<text text-anchor="middle" x="954.27" y="-78.33" font-family="Times,serif" font-size="14.00">q9:228</text>
</g>
<!-- q6:231&#45;&gt;q9:228 -->
<g id="edge9" class="edge">
<title>q6:231&#45;&gt;q9:228</title>
<path fill="none" stroke="black" d="M771.82,-76.61C807.78,-77.88 858.09,-79.65 896.61,-81"/>
<polygon fill="black" stroke="black" points="896.02,-84.49 906.14,-81.34 896.27,-77.49 896.02,-84.49"/>
<text text-anchor="middle" x="839.7" y="-84.95" font-family="Times,serif" font-size="14.00">MAIL/250:228</text>
</g>
<!-- q10:3 -->
<g id="node10" class="node">
<title>q10:3</title>
<ellipse fill="none" stroke="black" stroke-width="2" cx="954.27" cy="-29" rx="39.63" ry="18"/>
<text text-anchor="middle" x="954.27" y="-24.32" font-family="Times,serif" font-size="14.00">q10:3</text>
</g>
<!-- q6:231&#45;&gt;q10:3 -->
<g id="edge10" class="edge">
<title>q6:231&#45;&gt;q10:3</title>
<path fill="none" stroke="black" d="M762.56,-63.67C771.2,-61.2 780.42,-58.73 789.08,-56.75 827.4,-47.99 871.33,-40.7 904.1,-35.8"/>
<polygon fill="black" stroke="black" points="904.32,-39.31 913.7,-34.39 903.3,-32.38 904.32,-39.31"/>
<text text-anchor="middle" x="839.7" y="-60.95" font-family="Times,serif" font-size="14.00">MAIL/553:3</text>
</g>
<!-- q13:3334 -->
<g id="node11" class="node">
<title>q13:3334</title>
<ellipse fill="none" stroke="black" stroke-width="2" cx="1675.2" cy="-144" rx="58.57" ry="18"/>
<text text-anchor="middle" x="1675.2" y="-139.32" font-family="Times,serif" font-size="14.00">q13:3334</text>
</g>
<!-- q8:232&#45;&gt;q13:3334 -->
<g id="edge11" class="edge">
<title>q8:232&#45;&gt;q13:3334</title>
<path fill="none" stroke="black" d="M1225.1,-95.57C1234.4,-98.67 1244.6,-101.74 1254.1,-104 1360.4,-129.16 1388.5,-129.66 1497.4,-139 1532.7,-142.03 1572.1,-143.34 1604.7,-143.87"/>
<polygon fill="black" stroke="black" points="1604.44,-147.37 1614.49,-144.01 1604.54,-140.37 1604.44,-147.37"/>
<text text-anchor="middle" x="1427.1" y="-140.94" font-family="Times,serif" font-size="14.00">DATA/354:69</text>
</g>
<!-- q12:163 -->
<g id="node12" class="node">
<title>q12:163</title>
<ellipse fill="none" stroke="black" stroke-width="2" cx="1427.1" cy="-82" rx="52.26" ry="18"/>
<text text-anchor="middle" x="1427.1" y="-77.33" font-family="Times,serif" font-size="14.00">q12:163</text>
</g>
<!-- q8:232&#45;&gt;q12:163 -->
<g id="edge12" class="edge">
<title>q8:232&#45;&gt;q12:163</title>
<path fill="none" stroke="black" d="M1237,-82.81C1272.9,-82.65 1323.1,-82.44 1362.8,-82.27"/>
<polygon fill="black" stroke="black" points="1362.7,-85.77 1372.69,-82.23 1362.67,-78.77 1362.7,-85.77"/>
<text text-anchor="middle" x="1305.5" y="-86.95" font-family="Times,serif" font-size="14.00">RCPT/250:163</text>
</g>
<!-- q11:12 -->
<g id="node13" class="node">
<title>q11:12</title>
<ellipse fill="none" stroke="black" stroke-width="2" cx="1190.2" cy="-206" rx="45.95" ry="18"/>
<text text-anchor="middle" x="1190.2" y="-201.32" font-family="Times,serif" font-size="14.00">q11:12</text>
</g>
<!-- q7:12&#45;&gt;q11:12 -->
<g id="edge13" class="edge">
<title>q7:12&#45;&gt;q11:12</title>
<path fill="none" stroke="black" d="M994.42,-195.18C1032.2,-197.27 1089.8,-200.47 1132.5,-202.85"/>
<polygon fill="black" stroke="black" points="1132.21,-206.34 1142.39,-203.4 1132.6,-199.35 1132.21,-206.34"/>
<text text-anchor="middle" x="1072.2" y="-205.94" font-family="Times,serif" font-size="14.00">content/535:12</text>
</g>
<!-- q9:228&#45;&gt;q8:232 -->
<g id="edge14" class="edge">
<title>q9:228&#45;&gt;q8:232</title>
<path fill="none" stroke="black" d="M1001.2,-83C1038.6,-83 1091.6,-83 1131.8,-83"/>
<polygon fill="black" stroke="black" points="1131.79,-86.5 1141.79,-83 1131.79,-79.5 1131.79,-86.5"/>
<text text-anchor="middle" x="1072.2" y="-86.95" font-family="Times,serif" font-size="14.00">RCPT/250:228</text>
</g>
<!-- q14:3 -->
<g id="node14" class="node">
<title>q14:3</title>
<ellipse fill="none" stroke="black" stroke-width="2" cx="1190.2" cy="-29" rx="39.63" ry="18"/>
<text text-anchor="middle" x="1190.2" y="-24.32" font-family="Times,serif" font-size="14.00">q14:3</text>
</g>
<!-- q10:3&#45;&gt;q14:3 -->
<g id="edge15" class="edge">
<title>q10:3&#45;&gt;q14:3</title>
<path fill="none" stroke="black" d="M994.68,-29C1034.2,-29 1095.1,-29 1138.2,-29"/>
<polygon fill="black" stroke="black" points="1138.09,-32.5 1148.09,-29 1138.09,-25.5 1138.09,-32.5"/>
<text text-anchor="middle" x="1072.2" y="-32.95" font-family="Times,serif" font-size="14.00">RSET/250:3</text>
</g>
<!-- q13:3334&#45;&gt;q13:3334 -->
<g id="edge16" class="edge">
<title>q13:3334&#45;&gt;q13:3334</title>
<path fill="none" stroke="black" d="M1652.5,-161.41C1648.3,-171.09 1655.8,-180 1675.2,-180 1686.4,-180 1693.7,-177.02 1697,-172.64"/>
<polygon fill="black" stroke="black" points="1700.47,-173.17 1697.78,-162.92 1693.49,-172.61 1700.47,-173.17"/>
<text text-anchor="middle" x="1675.2" y="-183.94" font-family="Times,serif" font-size="14.00">content/λ:3143</text>
</g>
<!-- q19:1 -->
<g id="node15" class="node">
<title>q19:1</title>
<ellipse fill="none" stroke="black" stroke-width="2" cx="1939" cy="-198" rx="39.63" ry="18"/>
<text text-anchor="middle" x="1939" y="-193.32" font-family="Times,serif" font-size="14.00">q19:1</text>
</g>
<!-- q13:3334&#45;&gt;q19:1 -->
<g id="edge17" class="edge">
<title>q13:3334&#45;&gt;q19:1</title>
<path fill="none" stroke="black" d="M1719.2,-156.71C1729.8,-159.63 1741.2,-162.59 1751.8,-165 1798.1,-175.51 1851.5,-184.67 1889.2,-190.66"/>
<polygon fill="black" stroke="black" points="1888.48,-194.09 1898.9,-192.18 1889.56,-187.17 1888.48,-194.09"/>
<text text-anchor="middle" x="1810.3" y="-190.94" font-family="Times,serif" font-size="14.00">content/550:1</text>
</g>
<!-- q18:125 -->
<g id="node16" class="node">
<title>q18:125</title>
<ellipse fill="none" stroke="black" stroke-width="2" cx="1939" cy="-144" rx="52.26" ry="18"/>
<text text-anchor="middle" x="1939" y="-139.32" font-family="Times,serif" font-size="14.00">q18:125</text>
</g>
<!-- q13:3334&#45;&gt;q18:125 -->
<g id="edge18" class="edge">
<title>q13:3334&#45;&gt;q18:125</title>
<path fill="none" stroke="black" d="M1734.6,-144C1776.2,-144 1832,-144 1874.6,-144"/>
<polygon fill="black" stroke="black" points="1874.49,-147.5 1884.49,-144 1874.49,-140.5 1874.49,-147.5"/>
<text text-anchor="middle" x="1810.3" y="-147.94" font-family="Times,serif" font-size="14.00">content/250:125</text>
</g>
<!-- q20:65 -->
<g id="node17" class="node">
<title>q20:65</title>
<ellipse fill="none" stroke="black" stroke-width="2" cx="1939" cy="-90" rx="45.95" ry="18"/>
<text text-anchor="middle" x="1939" y="-85.33" font-family="Times,serif" font-size="14.00">q20:65</text>
</g>
<!-- q13:3334&#45;&gt;q20:65 -->
<g id="edge19" class="edge">
<title>q13:3334&#45;&gt;q20:65</title>
<path fill="none" stroke="black" d="M1718.8,-131.22C1729.5,-128.23 1741,-125.2 1751.8,-122.75 1795.9,-112.7 1846.4,-103.98 1883.8,-98.08"/>
<polygon fill="black" stroke="black" points="1884.07,-101.58 1893.4,-96.57 1882.98,-94.66 1884.07,-101.58"/>
<text text-anchor="middle" x="1810.3" y="-125.95" font-family="Times,serif" font-size="14.00">content/554:65</text>
</g>
<!-- q12:163&#45;&gt;q13:3334 -->
<g id="edge23" class="edge">
<title>q12:163&#45;&gt;q13:3334</title>
<path fill="none" stroke="black" d="M1470.9,-92.65C1479.7,-94.78 1488.8,-96.99 1497.4,-99 1542.3,-109.55 1554,-110.18 1598.6,-121.75 1605.9,-123.64 1613.6,-125.75 1621.1,-127.89"/>
<polygon fill="black" stroke="black" points="1619.97,-131.21 1630.55,-130.62 1621.91,-124.48 1619.97,-131.21"/>
<text text-anchor="middle" x="1548" y="-124.95" font-family="Times,serif" font-size="14.00">DATA/354:122</text>
</g>
<!-- q17:3 -->
<g id="node21" class="node">
<title>q17:3</title>
<ellipse fill="none" stroke="black" stroke-width="2" cx="1675.2" cy="-18" rx="39.63" ry="18"/>
<text text-anchor="middle" x="1675.2" y="-13.32" font-family="Times,serif" font-size="14.00">q17:3</text>
</g>
<!-- q12:163&#45;&gt;q17:3 -->
<g id="edge24" class="edge">
<title>q12:163&#45;&gt;q17:3</title>
<path fill="none" stroke="black" d="M1467.2,-69.56C1477,-66.56 1487.6,-63.44 1497.4,-60.75 1541.2,-48.74 1591.7,-36.72 1627.4,-28.5"/>
<polygon fill="black" stroke="black" points="1628.05,-31.94 1637.02,-26.31 1626.5,-25.12 1628.05,-31.94"/>
<text text-anchor="middle" x="1548" y="-64.95" font-family="Times,serif" font-size="14.00">RCPT/250:3</text>
</g>
<!-- q16:38 -->
<g id="node22" class="node">
<title>q16:38</title>
<ellipse fill="none" stroke="black" stroke-width="2" cx="1675.2" cy="-81" rx="45.95" ry="18"/>
<text text-anchor="middle" x="1675.2" y="-76.33" font-family="Times,serif" font-size="14.00">q16:38</text>
</g>
<!-- q12:163&#45;&gt;q16:38 -->
<g id="edge25" class="edge">
<title>q12:163&#45;&gt;q16:38</title>
<path fill="none" stroke="black" d="M1480.3,-81.79C1520.4,-81.62 1575.8,-81.4 1617.1,-81.23"/>
<polygon fill="black" stroke="black" points="1616.8,-84.73 1626.79,-81.19 1616.77,-77.73 1616.8,-84.73"/>
<text text-anchor="middle" x="1548" y="-85.95" font-family="Times,serif" font-size="14.00">DATA/550:38</text>
</g>
<!-- q15:4 -->
<g id="node23" class="node">
<title>q15:4</title>
<ellipse fill="none" stroke="black" stroke-width="2" cx="1427.1" cy="-206" rx="39.63" ry="18"/>
<text text-anchor="middle" x="1427.1" y="-201.32" font-family="Times,serif" font-size="14.00">q15:4</text>
</g>
<!-- q11:12&#45;&gt;q15:4 -->
<g id="edge27" class="edge">
<title>q11:12&#45;&gt;q15:4</title>
<path fill="none" stroke="black" d="M1237,-206C1276.7,-206 1334.1,-206 1375.2,-206"/>
<polygon fill="black" stroke="black" points="1375.09,-209.5 1385.09,-206 1375.09,-202.5 1375.09,-209.5"/>
<text text-anchor="middle" x="1305.5" y="-209.94" font-family="Times,serif" font-size="14.00">λ/451:4</text>
</g>
<!-- q22:1 -->
<g id="node18" class="node">
<title>q22:1</title>
<ellipse fill="none" stroke="black" stroke-width="2" cx="2180.1" cy="-198" rx="39.63" ry="18"/>
<text text-anchor="middle" x="2180.1" y="-193.32" font-family="Times,serif" font-size="14.00">q22:1</text>
</g>
<!-- q19:1&#45;&gt;q22:1 -->
<g id="edge20" class="edge">
<title>q19:1&#45;&gt;q22:1</title>
<path fill="none" stroke="black" d="M1979.5,-198C2020.2,-198 2083.7,-198 2128.1,-198"/>
<polygon fill="black" stroke="black" points="2127.99,-201.5 2137.99,-198 2127.99,-194.5 2127.99,-201.5"/>
<text text-anchor="middle" x="2059.6" y="-201.94" font-family="Times,serif" font-size="14.00">RSET/250:1</text>
</g>
<!-- q21:125 -->
<g id="node19" class="node">
<title>q21:125</title>
<ellipse fill="none" stroke="black" stroke-width="2" cx="2180.1" cy="-144" rx="52.26" ry="18"/>
<text text-anchor="middle" x="2180.1" y="-139.32" font-family="Times,serif" font-size="14.00">q21:125</text>
</g>
<!-- q18:125&#45;&gt;q21:125 -->
<g id="edge21" class="edge">
<title>q18:125&#45;&gt;q21:125</title>
<path fill="none" stroke="black" d="M1992.2,-144C2028.6,-144 2077.3,-144 2115.9,-144"/>
<polygon fill="black" stroke="black" points="2115.49,-147.5 2125.49,-144 2115.49,-140.5 2115.49,-147.5"/>
<text text-anchor="middle" x="2059.6" y="-147.94" font-family="Times,serif" font-size="14.00">QUIT/221:125</text>
</g>
<!-- q23:65 -->
<g id="node20" class="node">
<title>q23:65</title>
<ellipse fill="none" stroke="black" stroke-width="2" cx="2180.1" cy="-90" rx="45.95" ry="18"/>
<text text-anchor="middle" x="2180.1" y="-85.33" font-family="Times,serif" font-size="14.00">q23:65</text>
</g>
<!-- q20:65&#45;&gt;q23:65 -->
<g id="edge22" class="edge">
<title>q20:65&#45;&gt;q23:65</title>
<path fill="none" stroke="black" d="M1985.8,-90C2024.6,-90 2080.4,-90 2122.1,-90"/>
<polygon fill="black" stroke="black" points="2121.89,-93.5 2131.89,-90 2121.89,-86.5 2121.89,-93.5"/>
<text text-anchor="middle" x="2059.6" y="-93.95" font-family="Times,serif" font-size="14.00">RSET/250:65</text>
</g>
<!-- q17:3&#45;&gt;q8:232 -->
<g id="edge26" class="edge">
<title>q17:3&#45;&gt;q8:232</title>
<path fill="none" stroke="black" d="M1634.7,-18.4C1577.2,-19.49 1467.2,-23.44 1374.9,-37.75 1328.1,-45 1275.8,-58.42 1239,-68.77"/>
<polygon fill="black" stroke="black" points="1238.21,-65.36 1229.56,-71.46 1240.13,-72.09 1238.21,-65.36"/>
<text text-anchor="middle" x="1427.1" y="-41.95" font-family="Times,serif" font-size="14.00">RCPT/250:3</text>
</g>
<!-- q0:244 -->
<g id="node24" class="node">
<title>q0:244</title>
<ellipse fill="none" stroke="black" stroke-width="2" cx="53.95" cy="-102" rx="49.95" ry="49.95"/>
<ellipse fill="none" stroke="black" stroke-width="2" cx="53.95" cy="-102" rx="53.95" ry="53.95"/>
<text text-anchor="middle" x="53.95" y="-97.33" font-family="Times,serif" font-size="14.00">q0:244</text>
</g>
<!-- q0:244&#45;&gt;q1:244 -->
<g id="edge28" class="edge">
<title>q0:244&#45;&gt;q1:244</title>
<path fill="none" stroke="black" d="M104.85,-102C133.64,-102 169.94,-102 199.84,-102"/>
<polygon fill="black" stroke="black" points="199.45,-105.5 209.45,-102 199.45,-98.5 199.45,-105.5"/>
<text text-anchor="middle" x="157.89" y="-105.95" font-family="Times,serif" font-size="14.00">λ/220:244</text>
</g>
</g>
</svg>
