<?xml version="1.0" encoding="UTF-8" standalone="no"?>
<!DOCTYPE svg PUBLIC "-//W3C//DTD SVG 1.1//EN"
 "http://www.w3.org/Graphics/SVG/1.1/DTD/svg11.dtd">
<!-- Generated by graphviz version 12.0.0 (20240803.0821)
 -->
<!-- Pages: 1 -->
<svg width="2231pt" height="288pt"
 viewBox="0.00 0.00 2231.36 288.00" xmlns="http://www.w3.org/2000/svg" xmlns:xlink="http://www.w3.org/1999/xlink">
<g id="graph0" class="graph" transform="scale(1 1) rotate(0) translate(4 284)">
<polygon fill="white" stroke="none" points="-4,4 -4,-284 2227.36,-284 2227.36,4 -4,4"/>
<!-- q10:2 -->
<g id="node1" class="node">
<title>q10:2</title>
<ellipse fill="none" stroke="black" stroke-width="2" cx="954.27" cy="-196" rx="39.63" ry="18"/>
<text text-anchor="middle" x="954.27" y="-191.32" font-family="Times,serif" font-size="14.00">q10:2</text>
</g>
<!-- q14:2 -->
<g id="node2" class="node">
<title>q14:2</title>
<ellipse fill="none" stroke="black" stroke-width="2" cx="1190.2" cy="-196" rx="39.63" ry="18"/>
<text text-anchor="middle" x="1190.2" y="-191.32" font-family="Times,serif" font-size="14.00">q14:2</text>
</g>
<!-- q10:2&#45;&gt;q14:2 -->
<g id="edge1" class="edge">
<title>q10:2&#45;&gt;q14:2</title>
<path fill="none" stroke="black" d="M994.68,-196C1034.2,-196 1095.1,-196 1138.2,-196"/>
<polygon fill="black" stroke="black" points="1138.09,-199.5 1148.09,-196 1138.09,-192.5 1138.09,-199.5"/>
<text text-anchor="middle" x="1072.2" y="-199.94" font-family="Times,serif" font-size="14.00">RSET/250:2</text>
</g>
<!-- q6:232 -->
<g id="node3" class="node">
<title>q6:232</title>
<ellipse fill="none" stroke="black" stroke-width="2" cx="725.13" cy="-158" rx="45.95" ry="18"/>
<text text-anchor="middle" x="725.13" y="-153.32" font-family="Times,serif" font-size="14.00">q6:232</text>
</g>
<!-- q6:232&#45;&gt;q10:2 -->
<g id="edge2" class="edge">
<title>q6:232&#45;&gt;q10:2</title>
<path fill="none" stroke="black" d="M768.1,-165.4C775.11,-166.61 782.29,-167.85 789.08,-169 828.06,-175.61 872.29,-182.87 905.02,-188.2"/>
<polygon fill="black" stroke="black" points="904.15,-191.61 914.59,-189.75 905.27,-184.7 904.15,-191.61"/>
<text text-anchor="middle" x="839.7" y="-188.94" font-family="Times,serif" font-size="14.00">MAIL/553:2</text>
</g>
<!-- q9:230 -->
<g id="node4" class="node">
<title>q9:230</title>
<ellipse fill="none" stroke="black" stroke-width="2" cx="954.27" cy="-142" rx="45.95" ry="18"/>
<text text-anchor="middle" x="954.27" y="-137.32" font-family="Times,serif" font-size="14.00">q9:230</text>
</g>
<!-- q6:232&#45;&gt;q9:230 -->
<g id="edge3" class="edge">
<title>q6:232&#45;&gt;q9:230</title>
<path fill="none" stroke="black" d="M770.47,-153.37C776.71,-152.79 783.05,-152.23 789.08,-151.75 824.82,-148.92 865.01,-146.52 896.68,-144.81"/>
<polygon fill="black" stroke="black" points="896.63,-148.32 906.43,-144.29 896.26,-141.33 896.63,-148.32"/>
<text text-anchor="middle" x="839.7" y="-154.94" font-family="Times,serif" font-size="14.00">MAIL/250:230</text>
</g>
<!-- q7:234 -->
<g id="node5" class="node">
<title>q7:234</title>
<ellipse fill="none" stroke="black" stroke-width="2" cx="1190.2" cy="-142" rx="45.95" ry="18"/>
<text text-anchor="middle" x="1190.2" y="-137.32" font-family="Times,serif" font-size="14.00">q7:234</text>
</g>
<!-- q9:230&#45;&gt;q7:234 -->
<g id="edge4" class="edge">
<title>q9:230&#45;&gt;q7:234</title>
<path fill="none" stroke="black" d="M1001.2,-142C1038.6,-142 1091.6,-142 1131.8,-142"/>
<polygon fill="black" stroke="black" points="1131.79,-145.5 1141.79,-142 1131.79,-138.5 1131.79,-145.5"/>
<text text-anchor="middle" x="1072.2" y="-145.94" font-family="Times,serif" font-size="14.00">RCPT/250:230</text>
</g>
<!-- q12:2697 -->
<g id="node6" class="node">
<title>q12:2697</title>
<ellipse fill="none" stroke="black" stroke-width="2" cx="1666.2" cy="-208" rx="58.57" ry="18"/>
<text text-anchor="middle" x="1666.2" y="-203.32" font-family="Times,serif" font-size="14.00">q12:2697</text>
</g>
<!-- q7:234&#45;&gt;q12:2697 -->
<g id="edge5" class="edge">
<title>q7:234&#45;&gt;q12:2697</title>
<path fill="none" stroke="black" d="M1223.5,-155.17C1233.2,-158.76 1244,-162.38 1254.1,-165 1360.1,-192.35 1388.4,-192.91 1497.4,-203 1529.6,-205.98 1565.3,-207.32 1595.6,-207.87"/>
<polygon fill="black" stroke="black" points="1595.23,-211.36 1605.29,-208.03 1595.34,-204.37 1595.23,-211.36"/>
<text text-anchor="middle" x="1427.1" y="-204.94" font-family="Times,serif" font-size="14.00">DATA/354:90</text>
</g>
<!-- q11:144 -->
<g id="node7" class="node">
<title>q11:144</title>
<ellipse fill="none" stroke="black" stroke-width="2" cx="1427.1" cy="-145" rx="52.26" ry="18"/>
<text text-anchor="middle" x="1427.1" y="-140.32" font-family="Times,serif" font-size="14.00">q11:144</text>
</g>
<!-- q7:234&#45;&gt;q11:144 -->
<g id="edge6" class="edge">
<title>q7:234&#45;&gt;q11:144</title>
<path fill="none" stroke="black" d="M1237,-142.59C1272.9,-143.04 1323.1,-143.69 1362.8,-144.19"/>
<polygon fill="black" stroke="black" points="1362.64,-147.69 1372.69,-144.32 1362.73,-140.69 1362.64,-147.69"/>
<text text-anchor="middle" x="1305.5" y="-147.94" font-family="Times,serif" font-size="14.00">RCPT/250:144</text>
</g>
<!-- q12:2697&#45;&gt;q12:2697 -->
<g id="edge15" class="edge">
<title>q12:2697&#45;&gt;q12:2697</title>
<path fill="none" stroke="black" d="M1644.3,-225.41C1640.2,-235.09 1647.5,-244 1666.2,-244 1677,-244 1684,-241.02 1687.2,-236.64"/>
<polygon fill="black" stroke="black" points="1690.67,-237.17 1687.98,-226.92 1683.69,-236.61 1690.67,-237.17"/>
<text text-anchor="middle" x="1666.2" y="-247.94" font-family="Times,serif" font-size="14.00">content/λ:2509</text>
</g>
<!-- q19:1 -->
<g id="node14" class="node">
<title>q19:1</title>
<ellipse fill="none" stroke="black" stroke-width="2" cx="1930" cy="-262" rx="39.63" ry="18"/>
<text text-anchor="middle" x="1930" y="-257.32" font-family="Times,serif" font-size="14.00">q19:1</text>
</g>
<!-- q12:2697&#45;&gt;q19:1 -->
<g id="edge16" class="edge">
<title>q12:2697&#45;&gt;q19:1</title>
<path fill="none" stroke="black" d="M1710.2,-220.71C1720.8,-223.63 1732.2,-226.59 1742.8,-229 1789.1,-239.51 1842.5,-248.67 1880.2,-254.66"/>
<polygon fill="black" stroke="black" points="1879.48,-258.09 1889.9,-256.18 1880.56,-251.17 1879.48,-258.09"/>
<text text-anchor="middle" x="1801.3" y="-254.94" font-family="Times,serif" font-size="14.00">content/550:1</text>
</g>
<!-- q17:74 -->
<g id="node15" class="node">
<title>q17:74</title>
<ellipse fill="none" stroke="black" stroke-width="2" cx="1930" cy="-208" rx="45.95" ry="18"/>
<text text-anchor="middle" x="1930" y="-203.32" font-family="Times,serif" font-size="14.00">q17:74</text>
</g>
<!-- q12:2697&#45;&gt;q17:74 -->
<g id="edge17" class="edge">
<title>q12:2697&#45;&gt;q17:74</title>
<path fill="none" stroke="black" d="M1725.6,-208C1769.3,-208 1828.6,-208 1871.9,-208"/>
<polygon fill="black" stroke="black" points="1871.89,-211.5 1881.89,-208 1871.89,-204.5 1871.89,-211.5"/>
<text text-anchor="middle" x="1801.3" y="-211.94" font-family="Times,serif" font-size="14.00">content/554:74</text>
</g>
<!-- q18:113 -->
<g id="node16" class="node">
<title>q18:113</title>
<ellipse fill="none" stroke="black" stroke-width="2" cx="1930" cy="-154" rx="52.26" ry="18"/>
<text text-anchor="middle" x="1930" y="-149.32" font-family="Times,serif" font-size="14.00">q18:113</text>
</g>
<!-- q12:2697&#45;&gt;q18:113 -->
<g id="edge18" class="edge">
<title>q12:2697&#45;&gt;q18:113</title>
<path fill="none" stroke="black" d="M1709.8,-195.22C1720.5,-192.23 1732,-189.2 1742.8,-186.75 1785,-177.13 1833.1,-168.73 1869.9,-162.85"/>
<polygon fill="black" stroke="black" points="1870.08,-166.37 1879.4,-161.34 1868.98,-159.45 1870.08,-166.37"/>
<text text-anchor="middle" x="1801.3" y="-189.94" font-family="Times,serif" font-size="14.00">content/250:113</text>
</g>
<!-- q11:144&#45;&gt;q12:2697 -->
<g id="edge19" class="edge">
<title>q11:144&#45;&gt;q12:2697</title>
<path fill="none" stroke="black" d="M1470.2,-156.03C1479.2,-158.35 1488.6,-160.77 1497.4,-163 1538.3,-173.37 1548.9,-174.73 1589.6,-185.75 1596.9,-187.72 1604.6,-189.87 1612.1,-192.03"/>
<polygon fill="black" stroke="black" points="1610.87,-195.32 1621.45,-194.76 1612.83,-188.6 1610.87,-195.32"/>
<text text-anchor="middle" x="1543.5" y="-188.94" font-family="Times,serif" font-size="14.00">DATA/354:98</text>
</g>
<!-- q15:43 -->
<g id="node17" class="node">
<title>q15:43</title>
<ellipse fill="none" stroke="black" stroke-width="2" cx="1666.2" cy="-145" rx="45.95" ry="18"/>
<text text-anchor="middle" x="1666.2" y="-140.32" font-family="Times,serif" font-size="14.00">q15:43</text>
</g>
<!-- q11:144&#45;&gt;q15:43 -->
<g id="edge20" class="edge">
<title>q11:144&#45;&gt;q15:43</title>
<path fill="none" stroke="black" d="M1480.2,-145C1517.9,-145 1569,-145 1607.9,-145"/>
<polygon fill="black" stroke="black" points="1607.79,-148.5 1617.79,-145 1607.79,-141.5 1607.79,-148.5"/>
<text text-anchor="middle" x="1543.5" y="-148.94" font-family="Times,serif" font-size="14.00">DATA/550:43</text>
</g>
<!-- q16:3 -->
<g id="node18" class="node">
<title>q16:3</title>
<ellipse fill="none" stroke="black" stroke-width="2" cx="1666.2" cy="-82" rx="39.63" ry="18"/>
<text text-anchor="middle" x="1666.2" y="-77.33" font-family="Times,serif" font-size="14.00">q16:3</text>
</g>
<!-- q11:144&#45;&gt;q16:3 -->
<g id="edge21" class="edge">
<title>q11:144&#45;&gt;q16:3</title>
<path fill="none" stroke="black" d="M1467.2,-132.61C1477,-129.6 1487.6,-126.47 1497.4,-123.75 1538.2,-112.42 1585,-100.9 1618.8,-92.84"/>
<polygon fill="black" stroke="black" points="1619.31,-96.32 1628.23,-90.6 1617.69,-89.51 1619.31,-96.32"/>
<text text-anchor="middle" x="1543.5" y="-127.95" font-family="Times,serif" font-size="14.00">RCPT/250:3</text>
</g>
<!-- q1:243 -->
<g id="node8" class="node">
<title>q1:243</title>
<ellipse fill="none" stroke="black" stroke-width="2" cx="257.84" cy="-124" rx="45.95" ry="18"/>
<text text-anchor="middle" x="257.84" y="-119.33" font-family="Times,serif" font-size="14.00">q1:243</text>
</g>
<!-- q3:2 -->
<g id="node9" class="node">
<title>q3:2</title>
<ellipse fill="none" stroke="black" stroke-width="2" cx="491.48" cy="-157" rx="33.32" ry="18"/>
<text text-anchor="middle" x="491.48" y="-152.32" font-family="Times,serif" font-size="14.00">q3:2</text>
</g>
<!-- q1:243&#45;&gt;q3:2 -->
<g id="edge7" class="edge">
<title>q1:243&#45;&gt;q3:2</title>
<path fill="none" stroke="black" d="M302.14,-130.17C343.47,-136.06 405.4,-144.88 446.84,-150.78"/>
<polygon fill="black" stroke="black" points="446.33,-154.24 456.72,-152.19 447.31,-147.31 446.33,-154.24"/>
<text text-anchor="middle" x="374.66" y="-150.94" font-family="Times,serif" font-size="14.00">EHLO/λ:2</text>
</g>
<!-- q2:241 -->
<g id="node10" class="node">
<title>q2:241</title>
<ellipse fill="none" stroke="black" stroke-width="2" cx="491.48" cy="-97" rx="45.95" ry="18"/>
<text text-anchor="middle" x="491.48" y="-92.33" font-family="Times,serif" font-size="14.00">q2:241</text>
</g>
<!-- q1:243&#45;&gt;q2:241 -->
<g id="edge8" class="edge">
<title>q1:243&#45;&gt;q2:241</title>
<path fill="none" stroke="black" d="M298.66,-114.83C306.31,-113.29 314.27,-111.84 321.79,-110.75 358.85,-105.36 400.83,-101.93 433.64,-99.84"/>
<polygon fill="black" stroke="black" points="433.56,-103.35 443.33,-99.25 433.13,-96.37 433.56,-103.35"/>
<text text-anchor="middle" x="374.66" y="-114.95" font-family="Times,serif" font-size="14.00">EHLO/250:241</text>
</g>
<!-- q3:2&#45;&gt;q6:232 -->
<g id="edge9" class="edge">
<title>q3:2&#45;&gt;q6:232</title>
<path fill="none" stroke="black" d="M525.67,-157.14C562.42,-157.3 622.33,-157.56 666.72,-157.75"/>
<polygon fill="black" stroke="black" points="666.69,-161.25 676.71,-157.79 666.72,-154.25 666.69,-161.25"/>
<text text-anchor="middle" x="608.31" y="-160.94" font-family="Times,serif" font-size="14.00">AUTH/235:2</text>
</g>
<!-- q2:241&#45;&gt;q6:232 -->
<g id="edge10" class="edge">
<title>q2:241&#45;&gt;q6:232</title>
<path fill="none" stroke="black" d="M533.73,-105.1C568.09,-112.18 618.18,-123.26 661.18,-135.75 667.16,-137.49 673.41,-139.48 679.54,-141.54"/>
<polygon fill="black" stroke="black" points="678.35,-144.83 688.95,-144.79 680.64,-138.22 678.35,-144.83"/>
<text text-anchor="middle" x="608.31" y="-138.94" font-family="Times,serif" font-size="14.00">AUTH/235:230</text>
</g>
<!-- q5:10 -->
<g id="node11" class="node">
<title>q5:10</title>
<ellipse fill="none" stroke="black" stroke-width="2" cx="725.13" cy="-37" rx="39.63" ry="18"/>
<text text-anchor="middle" x="725.13" y="-32.33" font-family="Times,serif" font-size="14.00">q5:10</text>
</g>
<!-- q2:241&#45;&gt;q5:10 -->
<g id="edge11" class="edge">
<title>q2:241&#45;&gt;q5:10</title>
<path fill="none" stroke="black" d="M507.87,-79.22C519.56,-67.1 536.76,-51.98 555.43,-44.75 593.63,-29.96 640.38,-29.01 674.97,-31.19"/>
<polygon fill="black" stroke="black" points="674.46,-34.66 684.69,-31.92 674.98,-27.68 674.46,-34.66"/>
<text text-anchor="middle" x="608.31" y="-48.95" font-family="Times,serif" font-size="14.00">AUTH/535:10</text>
</g>
<!-- q4:1 -->
<g id="node12" class="node">
<title>q4:1</title>
<ellipse fill="none" stroke="black" stroke-width="2" cx="839.7" cy="-85" rx="33.32" ry="18"/>
<text text-anchor="middle" x="839.7" y="-80.33" font-family="Times,serif" font-size="14.00">q4:1</text>
</g>
<!-- q2:241&#45;&gt;q4:1 -->
<g id="edge12" class="edge">
<title>q2:241&#45;&gt;q4:1</title>
<path fill="none" stroke="black" d="M536.12,-91.42C542.58,-90.75 549.17,-90.16 555.43,-89.75 639.74,-84.2 738.45,-83.96 794.27,-84.4"/>
<polygon fill="black" stroke="black" points="793.96,-87.9 804,-84.49 794.03,-80.9 793.96,-87.9"/>
<text text-anchor="middle" x="608.31" y="-93.95" font-family="Times,serif" font-size="14.00">AUTH/λ:1</text>
</g>
<!-- q8:10 -->
<g id="node13" class="node">
<title>q8:10</title>
<ellipse fill="none" stroke="black" stroke-width="2" cx="954.27" cy="-34" rx="39.63" ry="18"/>
<text text-anchor="middle" x="954.27" y="-29.32" font-family="Times,serif" font-size="14.00">q8:10</text>
</g>
<!-- q5:10&#45;&gt;q8:10 -->
<g id="edge13" class="edge">
<title>q5:10&#45;&gt;q8:10</title>
<path fill="none" stroke="black" d="M765.69,-36.48C803.6,-35.98 861,-35.22 902.32,-34.67"/>
<polygon fill="black" stroke="black" points="902.31,-38.17 912.27,-34.54 902.22,-31.17 902.31,-38.17"/>
<text text-anchor="middle" x="839.7" y="-40.95" font-family="Times,serif" font-size="14.00">AUTH/334:10</text>
</g>
<!-- q4:1&#45;&gt;q7:234 -->
<g id="edge14" class="edge">
<title>q4:1&#45;&gt;q7:234</title>
<path fill="none" stroke="black" d="M873.87,-86.2C906.25,-87.71 956.85,-90.98 1000.22,-97.75 1048.5,-105.3 1102.8,-118.51 1140.8,-128.54"/>
<polygon fill="black" stroke="black" points="1139.47,-131.81 1150.04,-131.02 1141.29,-125.05 1139.47,-131.81"/>
<text text-anchor="middle" x="954.27" y="-101.95" font-family="Times,serif" font-size="14.00">MAIL/250:1</text>
</g>
<!-- q13:10 -->
<g id="node22" class="node">
<title>q13:10</title>
<ellipse fill="none" stroke="black" stroke-width="2" cx="1190.2" cy="-19" rx="45.95" ry="18"/>
<text text-anchor="middle" x="1190.2" y="-14.32" font-family="Times,serif" font-size="14.00">q13:10</text>
</g>
<!-- q8:10&#45;&gt;q13:10 -->
<g id="edge26" class="edge">
<title>q8:10&#45;&gt;q13:10</title>
<path fill="none" stroke="black" d="M994.42,-31.49C1032.2,-29.07 1089.8,-25.38 1132.5,-22.63"/>
<polygon fill="black" stroke="black" points="1132.63,-26.13 1142.39,-22 1132.19,-19.15 1132.63,-26.13"/>
<text text-anchor="middle" x="1072.2" y="-33.95" font-family="Times,serif" font-size="14.00">content/535:10</text>
</g>
<!-- q23:1 -->
<g id="node19" class="node">
<title>q23:1</title>
<ellipse fill="none" stroke="black" stroke-width="2" cx="2171.1" cy="-262" rx="39.63" ry="18"/>
<text text-anchor="middle" x="2171.1" y="-257.32" font-family="Times,serif" font-size="14.00">q23:1</text>
</g>
<!-- q19:1&#45;&gt;q23:1 -->
<g id="edge22" class="edge">
<title>q19:1&#45;&gt;q23:1</title>
<path fill="none" stroke="black" d="M1970.5,-262C2011.2,-262 2074.7,-262 2119.1,-262"/>
<polygon fill="black" stroke="black" points="2118.99,-265.5 2128.99,-262 2118.99,-258.5 2118.99,-265.5"/>
<text text-anchor="middle" x="2050.6" y="-265.94" font-family="Times,serif" font-size="14.00">RSET/250:1</text>
</g>
<!-- q21:74 -->
<g id="node20" class="node">
<title>q21:74</title>
<ellipse fill="none" stroke="black" stroke-width="2" cx="2171.1" cy="-208" rx="45.95" ry="18"/>
<text text-anchor="middle" x="2171.1" y="-203.32" font-family="Times,serif" font-size="14.00">q21:74</text>
</g>
<!-- q17:74&#45;&gt;q21:74 -->
<g id="edge23" class="edge">
<title>q17:74&#45;&gt;q21:74</title>
<path fill="none" stroke="black" d="M1976.8,-208C2015.6,-208 2071.4,-208 2113.1,-208"/>
<polygon fill="black" stroke="black" points="2112.89,-211.5 2122.89,-208 2112.89,-204.5 2112.89,-211.5"/>
<text text-anchor="middle" x="2050.6" y="-211.94" font-family="Times,serif" font-size="14.00">RSET/250:74</text>
</g>
<!-- q22:113 -->
<g id="node21" class="node">
<title>q22:113</title>
<ellipse fill="none" stroke="black" stroke-width="2" cx="2171.1" cy="-154" rx="52.26" ry="18"/>
<text text-anchor="middle" x="2171.1" y="-149.32" font-family="Times,serif" font-size="14.00">q22:113</text>
</g>
<!-- q18:113&#45;&gt;q22:113 -->
<g id="edge24" class="edge">
<title>q18:113&#45;&gt;q22:113</title>
<path fill="none" stroke="black" d="M1983.2,-154C2019.6,-154 2068.3,-154 2106.9,-154"/>
<polygon fill="black" stroke="black" points="2106.49,-157.5 2116.49,-154 2106.49,-150.5 2106.49,-157.5"/>
<text text-anchor="middle" x="2050.6" y="-157.94" font-family="Times,serif" font-size="14.00">QUIT/221:113</text>
</g>
<!-- q16:3&#45;&gt;q7:234 -->
<g id="edge25" class="edge">
<title>q16:3&#45;&gt;q7:234</title>
<path fill="none" stroke="black" d="M1626,-82.59C1570.1,-83.87 1464.1,-87.93 1374.9,-100.75 1328.7,-107.38 1276.9,-119.44 1240.1,-128.82"/>
<polygon fill="black" stroke="black" points="1239.47,-125.37 1230.67,-131.25 1241.22,-132.14 1239.47,-125.37"/>
<text text-anchor="middle" x="1427.1" y="-104.95" font-family="Times,serif" font-size="14.00">RCPT/250:3</text>
</g>
<!-- q20:4 -->
<g id="node23" class="node">
<title>q20:4</title>
<ellipse fill="none" stroke="black" stroke-width="2" cx="1427.1" cy="-18" rx="39.63" ry="18"/>
<text text-anchor="middle" x="1427.1" y="-13.32" font-family="Times,serif" font-size="14.00">q20:4</text>
</g>
<!-- q13:10&#45;&gt;q20:4 -->
<g id="edge27" class="edge">
<title>q13:10&#45;&gt;q20:4</title>
<path fill="none" stroke="black" d="M1237,-18.8C1276.7,-18.64 1334.1,-18.39 1375.2,-18.22"/>
<polygon fill="black" stroke="black" points="1375.1,-21.72 1385.09,-18.17 1375.07,-14.72 1375.1,-21.72"/>
<text text-anchor="middle" x="1305.5" y="-22.95" font-family="Times,serif" font-size="14.00">λ/451:4</text>
</g>
<!-- q0:243 -->
<g id="node24" class="node">
<title>q0:243</title>
<ellipse fill="none" stroke="black" stroke-width="2" cx="53.95" cy="-124" rx="49.95" ry="49.95"/>
<ellipse fill="none" stroke="black" stroke-width="2" cx="53.95" cy="-124" rx="53.95" ry="53.95"/>
<text text-anchor="middle" x="53.95" y="-119.33" font-family="Times,serif" font-size="14.00">q0:243</text>
</g>
<!-- q0:243&#45;&gt;q1:243 -->
<g id="edge28" class="edge">
<title>q0:243&#45;&gt;q1:243</title>
<path fill="none" stroke="black" d="M104.85,-124C133.64,-124 169.94,-124 199.84,-124"/>
<polygon fill="black" stroke="black" points="199.45,-127.5 209.45,-124 199.45,-120.5 199.45,-127.5"/>
<text text-anchor="middle" x="157.89" y="-127.95" font-family="Times,serif" font-size="14.00">λ/220:243</text>
</g>
</g>
</svg>
