<?xml version="1.0" encoding="UTF-8" standalone="no"?>
<!DOCTYPE svg PUBLIC "-//W3C//DTD SVG 1.1//EN"
 "http://www.w3.org/Graphics/SVG/1.1/DTD/svg11.dtd">
<!-- Generated by graphviz version 12.0.0 (20240803.0821)
 -->
<!-- Pages: 1 -->
<svg width="1557pt" height="399pt"
 viewBox="0.00 0.00 1557.26 399.00" xmlns="http://www.w3.org/2000/svg" xmlns:xlink="http://www.w3.org/1999/xlink">
<g id="graph0" class="graph" transform="scale(1 1) rotate(0) translate(4 395)">
<polygon fill="white" stroke="none" points="-4,4 -4,-395 1553.26,-395 1553.26,4 -4,4"/>
<!-- q10:234 -->
<g id="node1" class="node">
<title>q10:234</title>
<ellipse fill="none" stroke="black" stroke-width="2" cx="497.8" cy="-256" rx="52.26" ry="18"/>
<text text-anchor="middle" x="497.8" y="-251.32" font-family="Times,serif" font-size="14.00">q10:234</text>
</g>
<!-- q13:143 -->
<g id="node2" class="node">
<title>q13:143</title>
<ellipse fill="none" stroke="black" stroke-width="2" cx="744.07" cy="-256" rx="52.26" ry="18"/>
<text text-anchor="middle" x="744.07" y="-251.32" font-family="Times,serif" font-size="14.00">q13:143</text>
</g>
<!-- q10:234&#45;&gt;q13:143 -->
<g id="edge1" class="edge">
<title>q10:234&#45;&gt;q13:143</title>
<path fill="none" stroke="black" d="M550.9,-256C588.52,-256 639.53,-256 679.54,-256"/>
<polygon fill="black" stroke="black" points="679.54,-259.5 689.54,-256 679.54,-252.5 679.54,-259.5"/>
<text text-anchor="middle" x="620.93" y="-259.94" font-family="Times,serif" font-size="14.00">RCPT/250:143</text>
</g>
<!-- q14:2697 -->
<g id="node3" class="node">
<title>q14:2697</title>
<ellipse fill="none" stroke="black" stroke-width="2" cx="992.15" cy="-319" rx="58.57" ry="18"/>
<text text-anchor="middle" x="992.15" y="-314.32" font-family="Times,serif" font-size="14.00">q14:2697</text>
</g>
<!-- q10:234&#45;&gt;q14:2697 -->
<g id="edge2" class="edge">
<title>q10:234&#45;&gt;q14:2697</title>
<path fill="none" stroke="black" d="M537,-268.67C547.03,-271.69 557.88,-274.71 568.06,-277 676.03,-301.34 704.08,-304.2 814.33,-314 849.63,-317.14 889.03,-318.46 921.67,-318.97"/>
<polygon fill="black" stroke="black" points="921.35,-322.47 931.4,-319.1 921.44,-315.47 921.35,-322.47"/>
<text text-anchor="middle" x="744.07" y="-315.94" font-family="Times,serif" font-size="14.00">DATA/354:91</text>
</g>
<!-- q13:143&#45;&gt;q14:2697 -->
<g id="edge3" class="edge">
<title>q13:143&#45;&gt;q14:2697</title>
<path fill="none" stroke="black" d="M787.13,-267.17C796.09,-269.48 805.51,-271.86 814.33,-274 859.15,-284.86 870.93,-285.18 915.58,-296.75 922.87,-298.64 930.53,-300.75 938.05,-302.89"/>
<polygon fill="black" stroke="black" points="936.89,-306.2 947.47,-305.62 938.84,-299.47 936.89,-306.2"/>
<text text-anchor="middle" x="864.95" y="-299.94" font-family="Times,serif" font-size="14.00">DATA/354:97</text>
</g>
<!-- q7:234 -->
<g id="node4" class="node">
<title>q7:234</title>
<ellipse fill="none" stroke="black" stroke-width="2" cx="992.15" cy="-167" rx="45.95" ry="18"/>
<text text-anchor="middle" x="992.15" y="-162.32" font-family="Times,serif" font-size="14.00">q7:234</text>
</g>
<!-- q13:143&#45;&gt;q7:234 -->
<g id="edge4" class="edge">
<title>q13:143&#45;&gt;q7:234</title>
<path fill="none" stroke="black" d="M781.91,-242.68C825.73,-226.83 898.86,-200.38 946.03,-183.32"/>
<polygon fill="black" stroke="black" points="947.2,-186.62 955.42,-179.92 944.82,-180.03 947.2,-186.62"/>
<text text-anchor="middle" x="864.95" y="-232.94" font-family="Times,serif" font-size="14.00">RCPT/250:3</text>
</g>
<!-- q16:43 -->
<g id="node5" class="node">
<title>q16:43</title>
<ellipse fill="none" stroke="black" stroke-width="2" cx="992.15" cy="-256" rx="45.95" ry="18"/>
<text text-anchor="middle" x="992.15" y="-251.32" font-family="Times,serif" font-size="14.00">q16:43</text>
</g>
<!-- q13:143&#45;&gt;q16:43 -->
<g id="edge5" class="edge">
<title>q13:143&#45;&gt;q16:43</title>
<path fill="none" stroke="black" d="M797.26,-256C837.36,-256 892.71,-256 934,-256"/>
<polygon fill="black" stroke="black" points="933.74,-259.5 943.74,-256 933.74,-252.5 933.74,-259.5"/>
<text text-anchor="middle" x="864.95" y="-259.94" font-family="Times,serif" font-size="14.00">DATA/550:43</text>
</g>
<!-- q14:2697&#45;&gt;q14:2697 -->
<g id="edge6" class="edge">
<title>q14:2697&#45;&gt;q14:2697</title>
<path fill="none" stroke="black" d="M969.44,-336.41C965.2,-346.09 972.77,-355 992.15,-355 1003.36,-355 1010.6,-352.02 1013.9,-347.64"/>
<polygon fill="black" stroke="black" points="1017.36,-348.19 1014.77,-337.92 1010.39,-347.57 1017.36,-348.19"/>
<text text-anchor="middle" x="992.15" y="-358.94" font-family="Times,serif" font-size="14.00">content/λ:2509</text>
</g>
<!-- q18:74 -->
<g id="node6" class="node">
<title>q18:74</title>
<ellipse fill="none" stroke="black" stroke-width="2" cx="1256" cy="-373" rx="45.95" ry="18"/>
<text text-anchor="middle" x="1256" y="-368.32" font-family="Times,serif" font-size="14.00">q18:74</text>
</g>
<!-- q14:2697&#45;&gt;q18:74 -->
<g id="edge7" class="edge">
<title>q14:2697&#45;&gt;q18:74</title>
<path fill="none" stroke="black" d="M1036.1,-331.71C1046.7,-334.63 1058.1,-337.59 1068.7,-340 1112.8,-350.01 1163.4,-358.81 1200.7,-364.79"/>
<polygon fill="black" stroke="black" points="1199.88,-368.2 1210.3,-366.32 1200.98,-361.29 1199.88,-368.2"/>
<text text-anchor="middle" x="1127.2" y="-365.94" font-family="Times,serif" font-size="14.00">content/554:74</text>
</g>
<!-- q19:113 -->
<g id="node7" class="node">
<title>q19:113</title>
<ellipse fill="none" stroke="black" stroke-width="2" cx="1256" cy="-319" rx="52.26" ry="18"/>
<text text-anchor="middle" x="1256" y="-314.32" font-family="Times,serif" font-size="14.00">q19:113</text>
</g>
<!-- q14:2697&#45;&gt;q19:113 -->
<g id="edge8" class="edge">
<title>q14:2697&#45;&gt;q19:113</title>
<path fill="none" stroke="black" d="M1051.6,-319C1093.1,-319 1148.9,-319 1191.6,-319"/>
<polygon fill="black" stroke="black" points="1191.39,-322.5 1201.39,-319 1191.39,-315.5 1191.39,-322.5"/>
<text text-anchor="middle" x="1127.2" y="-322.94" font-family="Times,serif" font-size="14.00">content/250:113</text>
</g>
<!-- q17:1 -->
<g id="node8" class="node">
<title>q17:1</title>
<ellipse fill="none" stroke="black" stroke-width="2" cx="1256" cy="-265" rx="39.63" ry="18"/>
<text text-anchor="middle" x="1256" y="-260.32" font-family="Times,serif" font-size="14.00">q17:1</text>
</g>
<!-- q14:2697&#45;&gt;q17:1 -->
<g id="edge9" class="edge">
<title>q14:2697&#45;&gt;q17:1</title>
<path fill="none" stroke="black" d="M1035.7,-306.22C1046.4,-303.23 1058,-300.2 1068.7,-297.75 1115,-287.2 1168.4,-278.13 1206.1,-272.22"/>
<polygon fill="black" stroke="black" points="1206.46,-275.71 1215.8,-270.72 1205.39,-268.79 1206.46,-275.71"/>
<text text-anchor="middle" x="1127.2" y="-300.94" font-family="Times,serif" font-size="14.00">content/550:1</text>
</g>
<!-- q7:234&#45;&gt;q10:234 -->
<g id="edge10" class="edge">
<title>q7:234&#45;&gt;q10:234</title>
<path fill="none" stroke="black" d="M947.35,-172.47C888.87,-180.03 782.16,-194.66 691.81,-211.75 644.46,-220.7 591.1,-233.12 552.51,-242.52"/>
<polygon fill="black" stroke="black" points="551.88,-239.07 543,-244.85 553.55,-245.87 551.88,-239.07"/>
<text text-anchor="middle" x="744.07" y="-214.94" font-family="Times,serif" font-size="14.00">RCPT/250:234</text>
</g>
<!-- q21:74 -->
<g id="node9" class="node">
<title>q21:74</title>
<ellipse fill="none" stroke="black" stroke-width="2" cx="1497" cy="-373" rx="45.95" ry="18"/>
<text text-anchor="middle" x="1497" y="-368.32" font-family="Times,serif" font-size="14.00">q21:74</text>
</g>
<!-- q18:74&#45;&gt;q21:74 -->
<g id="edge11" class="edge">
<title>q18:74&#45;&gt;q21:74</title>
<path fill="none" stroke="black" d="M1302.8,-373C1341.6,-373 1397.3,-373 1439,-373"/>
<polygon fill="black" stroke="black" points="1438.89,-376.5 1448.89,-373 1438.89,-369.5 1438.89,-376.5"/>
<text text-anchor="middle" x="1376.5" y="-376.94" font-family="Times,serif" font-size="14.00">RSET/250:74</text>
</g>
<!-- q22:113 -->
<g id="node10" class="node">
<title>q22:113</title>
<ellipse fill="none" stroke="black" stroke-width="2" cx="1497" cy="-319" rx="52.26" ry="18"/>
<text text-anchor="middle" x="1497" y="-314.32" font-family="Times,serif" font-size="14.00">q22:113</text>
</g>
<!-- q19:113&#45;&gt;q22:113 -->
<g id="edge12" class="edge">
<title>q19:113&#45;&gt;q22:113</title>
<path fill="none" stroke="black" d="M1309.1,-319C1345.5,-319 1394.3,-319 1432.9,-319"/>
<polygon fill="black" stroke="black" points="1432.49,-322.5 1442.49,-319 1432.49,-315.5 1432.49,-322.5"/>
<text text-anchor="middle" x="1376.5" y="-322.94" font-family="Times,serif" font-size="14.00">QUIT/221:113</text>
</g>
<!-- q20:1 -->
<g id="node11" class="node">
<title>q20:1</title>
<ellipse fill="none" stroke="black" stroke-width="2" cx="1497" cy="-265" rx="39.63" ry="18"/>
<text text-anchor="middle" x="1497" y="-260.32" font-family="Times,serif" font-size="14.00">q20:1</text>
</g>
<!-- q17:1&#45;&gt;q20:1 -->
<g id="edge13" class="edge">
<title>q17:1&#45;&gt;q20:1</title>
<path fill="none" stroke="black" d="M1296.5,-265C1337.1,-265 1400.6,-265 1445.1,-265"/>
<polygon fill="black" stroke="black" points="1444.99,-268.5 1454.99,-265 1444.99,-261.5 1444.99,-268.5"/>
<text text-anchor="middle" x="1376.5" y="-268.94" font-family="Times,serif" font-size="14.00">RSET/250:1</text>
</g>
<!-- q3:2 -->
<g id="node12" class="node">
<title>q3:2</title>
<ellipse fill="none" stroke="black" stroke-width="2" cx="497.8" cy="-143" rx="33.32" ry="18"/>
<text text-anchor="middle" x="497.8" y="-138.32" font-family="Times,serif" font-size="14.00">q3:2</text>
</g>
<!-- q6:232 -->
<g id="node13" class="node">
<title>q6:232</title>
<ellipse fill="none" stroke="black" stroke-width="2" cx="744.07" cy="-75" rx="45.95" ry="18"/>
<text text-anchor="middle" x="744.07" y="-70.33" font-family="Times,serif" font-size="14.00">q6:232</text>
</g>
<!-- q3:2&#45;&gt;q6:232 -->
<g id="edge14" class="edge">
<title>q3:2&#45;&gt;q6:232</title>
<path fill="none" stroke="black" d="M530.84,-147.64C567.84,-151.37 629.3,-152.42 673.81,-127 685.7,-120.21 681.48,-110.98 691.81,-102 694.95,-99.27 698.42,-96.71 702.03,-94.34"/>
<polygon fill="black" stroke="black" points="703.67,-97.44 710.47,-89.32 700.09,-91.43 703.67,-97.44"/>
<text text-anchor="middle" x="620.93" y="-152.94" font-family="Times,serif" font-size="14.00">AUTH/235:2</text>
</g>
<!-- q6:232&#45;&gt;q7:234 -->
<g id="edge15" class="edge">
<title>q6:232&#45;&gt;q7:234</title>
<path fill="none" stroke="black" d="M785.45,-83.85C832.01,-94.18 903.71,-110.52 915.58,-115.75 931.8,-122.9 948.28,-133.59 961.69,-143.36"/>
<polygon fill="black" stroke="black" points="959.55,-146.13 969.65,-149.33 963.75,-140.53 959.55,-146.13"/>
<text text-anchor="middle" x="864.95" y="-118.95" font-family="Times,serif" font-size="14.00">MAIL/250:230</text>
</g>
<!-- q9:2 -->
<g id="node14" class="node">
<title>q9:2</title>
<ellipse fill="none" stroke="black" stroke-width="2" cx="992.15" cy="-72" rx="33.32" ry="18"/>
<text text-anchor="middle" x="992.15" y="-67.33" font-family="Times,serif" font-size="14.00">q9:2</text>
</g>
<!-- q6:232&#45;&gt;q9:2 -->
<g id="edge16" class="edge">
<title>q6:232&#45;&gt;q9:2</title>
<path fill="none" stroke="black" d="M790.51,-72.56C798.45,-72.22 806.63,-71.93 814.33,-71.75 859.27,-70.7 910.66,-70.93 946.41,-71.32"/>
<polygon fill="black" stroke="black" points="946.35,-74.82 956.4,-71.44 946.44,-67.82 946.35,-74.82"/>
<text text-anchor="middle" x="864.95" y="-75.95" font-family="Times,serif" font-size="14.00">MAIL/553:2</text>
</g>
<!-- q12:2 -->
<g id="node15" class="node">
<title>q12:2</title>
<ellipse fill="none" stroke="black" stroke-width="2" cx="1256" cy="-72" rx="39.63" ry="18"/>
<text text-anchor="middle" x="1256" y="-67.33" font-family="Times,serif" font-size="14.00">q12:2</text>
</g>
<!-- q9:2&#45;&gt;q12:2 -->
<g id="edge17" class="edge">
<title>q9:2&#45;&gt;q12:2</title>
<path fill="none" stroke="black" d="M1026.3,-72C1071.2,-72 1151.8,-72 1204.3,-72"/>
<polygon fill="black" stroke="black" points="1204.19,-75.5 1214.19,-72 1204.19,-68.5 1204.19,-75.5"/>
<text text-anchor="middle" x="1127.2" y="-75.95" font-family="Times,serif" font-size="14.00">RSET/250:2</text>
</g>
<!-- q11:10 -->
<g id="node16" class="node">
<title>q11:10</title>
<ellipse fill="none" stroke="black" stroke-width="2" cx="1256" cy="-18" rx="45.95" ry="18"/>
<text text-anchor="middle" x="1256" y="-13.32" font-family="Times,serif" font-size="14.00">q11:10</text>
</g>
<!-- q15:4 -->
<g id="node17" class="node">
<title>q15:4</title>
<ellipse fill="none" stroke="black" stroke-width="2" cx="1497" cy="-18" rx="39.63" ry="18"/>
<text text-anchor="middle" x="1497" y="-13.32" font-family="Times,serif" font-size="14.00">q15:4</text>
</g>
<!-- q11:10&#45;&gt;q15:4 -->
<g id="edge18" class="edge">
<title>q11:10&#45;&gt;q15:4</title>
<path fill="none" stroke="black" d="M1302.8,-18C1343.6,-18 1403.1,-18 1445.3,-18"/>
<polygon fill="black" stroke="black" points="1445.19,-21.5 1455.19,-18 1445.19,-14.5 1445.19,-21.5"/>
<text text-anchor="middle" x="1376.5" y="-21.95" font-family="Times,serif" font-size="14.00">λ/451:4</text>
</g>
<!-- q0:243 -->
<g id="node18" class="node">
<title>q0:243</title>
<ellipse fill="none" stroke="black" stroke-width="2" cx="53.95" cy="-103" rx="49.95" ry="49.95"/>
<ellipse fill="none" stroke="black" stroke-width="2" cx="53.95" cy="-103" rx="53.95" ry="53.95"/>
<text text-anchor="middle" x="53.95" y="-98.33" font-family="Times,serif" font-size="14.00">q0:243</text>
</g>
<!-- q1:243 -->
<g id="node19" class="node">
<title>q1:243</title>
<ellipse fill="none" stroke="black" stroke-width="2" cx="257.84" cy="-103" rx="45.95" ry="18"/>
<text text-anchor="middle" x="257.84" y="-98.33" font-family="Times,serif" font-size="14.00">q1:243</text>
</g>
<!-- q0:243&#45;&gt;q1:243 -->
<g id="edge19" class="edge">
<title>q0:243&#45;&gt;q1:243</title>
<path fill="none" stroke="black" d="M104.85,-103C133.64,-103 169.94,-103 199.84,-103"/>
<polygon fill="black" stroke="black" points="199.45,-106.5 209.45,-103 199.45,-99.5 199.45,-106.5"/>
<text text-anchor="middle" x="157.89" y="-106.95" font-family="Times,serif" font-size="14.00">λ/220:243</text>
</g>
<!-- q1:243&#45;&gt;q3:2 -->
<g id="edge20" class="edge">
<title>q1:243&#45;&gt;q3:2</title>
<path fill="none" stroke="black" d="M301.11,-110.11C344.17,-117.34 410.61,-128.51 453.9,-135.79"/>
<polygon fill="black" stroke="black" points="453.24,-139.23 463.69,-137.44 454.41,-132.33 453.24,-139.23"/>
<text text-anchor="middle" x="374.66" y="-134.94" font-family="Times,serif" font-size="14.00">EHLO/λ:2</text>
</g>
<!-- q2:241 -->
<g id="node20" class="node">
<title>q2:241</title>
<ellipse fill="none" stroke="black" stroke-width="2" cx="497.8" cy="-76" rx="45.95" ry="18"/>
<text text-anchor="middle" x="497.8" y="-71.33" font-family="Times,serif" font-size="14.00">q2:241</text>
</g>
<!-- q1:243&#45;&gt;q2:241 -->
<g id="edge21" class="edge">
<title>q1:243&#45;&gt;q2:241</title>
<path fill="none" stroke="black" d="M296.21,-92.1C304.56,-90.02 313.43,-88.07 321.79,-86.75 360.96,-80.55 405.58,-77.88 439.97,-76.75"/>
<polygon fill="black" stroke="black" points="439.8,-80.25 449.7,-76.46 439.6,-73.25 439.8,-80.25"/>
<text text-anchor="middle" x="374.66" y="-90.95" font-family="Times,serif" font-size="14.00">EHLO/250:241</text>
</g>
<!-- q2:241&#45;&gt;q6:232 -->
<g id="edge22" class="edge">
<title>q2:241&#45;&gt;q6:232</title>
<path fill="none" stroke="black" d="M543.1,-71.41C551.38,-70.72 559.98,-70.11 568.06,-69.75 615.01,-67.64 626.84,-67.97 673.81,-69.75 678.16,-69.92 682.66,-70.14 687.18,-70.4"/>
<polygon fill="black" stroke="black" points="686.68,-73.87 696.88,-71.02 687.12,-66.89 686.68,-73.87"/>
<text text-anchor="middle" x="620.93" y="-73.95" font-family="Times,serif" font-size="14.00">AUTH/235:230</text>
</g>
<!-- q5:10 -->
<g id="node21" class="node">
<title>q5:10</title>
<ellipse fill="none" stroke="black" stroke-width="2" cx="744.07" cy="-21" rx="39.63" ry="18"/>
<text text-anchor="middle" x="744.07" y="-16.32" font-family="Times,serif" font-size="14.00">q5:10</text>
</g>
<!-- q2:241&#45;&gt;q5:10 -->
<g id="edge23" class="edge">
<title>q2:241&#45;&gt;q5:10</title>
<path fill="none" stroke="black" d="M528.94,-61.9C540.9,-56.78 554.91,-51.38 568.06,-47.75 609.5,-36.3 657.89,-29.38 693.28,-25.45"/>
<polygon fill="black" stroke="black" points="693.2,-28.98 702.77,-24.44 692.46,-22.02 693.2,-28.98"/>
<text text-anchor="middle" x="620.93" y="-51.95" font-family="Times,serif" font-size="14.00">AUTH/535:10</text>
</g>
<!-- q4:1 -->
<g id="node22" class="node">
<title>q4:1</title>
<ellipse fill="none" stroke="black" stroke-width="2" cx="744.07" cy="-129" rx="33.32" ry="18"/>
<text text-anchor="middle" x="744.07" y="-124.33" font-family="Times,serif" font-size="14.00">q4:1</text>
</g>
<!-- q2:241&#45;&gt;q4:1 -->
<g id="edge24" class="edge">
<title>q2:241&#45;&gt;q4:1</title>
<path fill="none" stroke="black" d="M541.08,-83.17C576.65,-89.44 628.77,-99.17 673.81,-109.75 683.33,-111.99 693.51,-114.66 703.05,-117.29"/>
<polygon fill="black" stroke="black" points="701.85,-120.59 712.42,-119.92 703.74,-113.85 701.85,-120.59"/>
<text text-anchor="middle" x="620.93" y="-112.95" font-family="Times,serif" font-size="14.00">AUTH/λ:1</text>
</g>
<!-- q8:10 -->
<g id="node23" class="node">
<title>q8:10</title>
<ellipse fill="none" stroke="black" stroke-width="2" cx="992.15" cy="-18" rx="39.63" ry="18"/>
<text text-anchor="middle" x="992.15" y="-13.32" font-family="Times,serif" font-size="14.00">q8:10</text>
</g>
<!-- q5:10&#45;&gt;q8:10 -->
<g id="edge25" class="edge">
<title>q5:10&#45;&gt;q8:10</title>
<path fill="none" stroke="black" d="M784.61,-20.52C826.94,-20 894.25,-19.18 940.45,-18.62"/>
<polygon fill="black" stroke="black" points="940.24,-22.12 950.2,-18.5 940.15,-15.12 940.24,-22.12"/>
<text text-anchor="middle" x="864.95" y="-24.95" font-family="Times,serif" font-size="14.00">AUTH/334:10</text>
</g>
<!-- q4:1&#45;&gt;q7:234 -->
<g id="edge26" class="edge">
<title>q4:1&#45;&gt;q7:234</title>
<path fill="none" stroke="black" d="M777.54,-132.68C811.91,-136.73 867.71,-143.74 915.58,-151.75 923.3,-153.04 931.43,-154.54 939.38,-156.08"/>
<polygon fill="black" stroke="black" points="938.48,-159.47 948.96,-157.98 939.83,-152.6 938.48,-159.47"/>
<text text-anchor="middle" x="864.95" y="-154.94" font-family="Times,serif" font-size="14.00">MAIL/250:1</text>
</g>
<!-- q8:10&#45;&gt;q11:10 -->
<g id="edge27" class="edge">
<title>q8:10&#45;&gt;q11:10</title>
<path fill="none" stroke="black" d="M1032.6,-18C1076.6,-18 1148.2,-18 1198.2,-18"/>
<polygon fill="black" stroke="black" points="1197.99,-21.5 1207.99,-18 1197.99,-14.5 1197.99,-21.5"/>
<text text-anchor="middle" x="1127.2" y="-21.95" font-family="Times,serif" font-size="14.00">content/535:10</text>
</g>
</g>
</svg>
