<?xml version="1.0" encoding="UTF-8" standalone="no"?>
<!DOCTYPE svg PUBLIC "-//W3C//DTD SVG 1.1//EN"
 "http://www.w3.org/Graphics/SVG/1.1/DTD/svg11.dtd">
<!-- Generated by graphviz version 12.0.0 (20240803.0821)
 -->
<!-- Pages: 1 -->
<svg width="2456pt" height="438pt"
 viewBox="0.00 0.00 2455.95 438.25" xmlns="http://www.w3.org/2000/svg" xmlns:xlink="http://www.w3.org/1999/xlink">
<g id="graph0" class="graph" transform="scale(1 1) rotate(0) translate(4 434.25)">
<polygon fill="white" stroke="none" points="-4,4 -4,-434.25 2451.95,-434.25 2451.95,4 -4,4"/>
<!-- q13:13 -->
<g id="node1" class="node">
<title>q13:13</title>
<ellipse fill="none" stroke="black" stroke-width="2" cx="1202.8" cy="-367" rx="45.95" ry="18"/>
<text text-anchor="middle" x="1202.8" y="-362.32" font-family="Times,serif" font-size="14.00">q13:13</text>
</g>
<!-- q20:4 -->
<g id="node2" class="node">
<title>q20:4</title>
<ellipse fill="none" stroke="black" stroke-width="2" cx="1439.8" cy="-367" rx="39.63" ry="18"/>
<text text-anchor="middle" x="1439.8" y="-362.32" font-family="Times,serif" font-size="14.00">q20:4</text>
</g>
<!-- q13:13&#45;&gt;q20:4 -->
<g id="edge1" class="edge">
<title>q13:13&#45;&gt;q20:4</title>
<path fill="none" stroke="black" d="M1249.7,-367C1289.4,-367 1346.7,-367 1387.8,-367"/>
<polygon fill="black" stroke="black" points="1387.79,-370.5 1397.79,-367 1387.79,-363.5 1387.79,-370.5"/>
<text text-anchor="middle" x="1318.1" y="-370.94" font-family="Times,serif" font-size="14.00">λ/451:4</text>
</g>
<!-- q22:2756 -->
<g id="node3" class="node">
<title>q22:2756</title>
<ellipse fill="none" stroke="black" stroke-width="2" cx="1934.1" cy="-180" rx="58.57" ry="18"/>
<text text-anchor="middle" x="1934.1" y="-175.32" font-family="Times,serif" font-size="14.00">q22:2756</text>
</g>
<!-- q22:2756&#45;&gt;q22:2756 -->
<g id="edge2" class="edge">
<title>q22:2756&#45;&gt;q22:2756</title>
<path fill="none" stroke="black" d="M1911.6,-197.41C1907.4,-207.09 1914.9,-216 1934.1,-216 1945.2,-216 1952.4,-213.02 1955.7,-208.64"/>
<polygon fill="black" stroke="black" points="1959.17,-209.17 1956.48,-198.92 1952.19,-208.61 1959.17,-209.17"/>
<text text-anchor="middle" x="1934.1" y="-219.94" font-family="Times,serif" font-size="14.00">content/λ:2655</text>
</g>
<!-- q31:98 -->
<g id="node4" class="node">
<title>q31:98</title>
<ellipse fill="none" stroke="black" stroke-width="2" cx="2182.6" cy="-126" rx="45.95" ry="18"/>
<text text-anchor="middle" x="2182.6" y="-121.33" font-family="Times,serif" font-size="14.00">q31:98</text>
</g>
<!-- q22:2756&#45;&gt;q31:98 -->
<g id="edge3" class="edge">
<title>q22:2756&#45;&gt;q31:98</title>
<path fill="none" stroke="black" d="M1978.1,-167.23C1988.7,-164.27 2000.1,-161.25 2010.7,-158.75 2049.8,-149.52 2094.4,-141.05 2128.2,-135.03"/>
<polygon fill="black" stroke="black" points="2128.56,-138.52 2137.81,-133.35 2127.36,-131.62 2128.56,-138.52"/>
<text text-anchor="middle" x="2064.7" y="-162.94" font-family="Times,serif" font-size="14.00">content/250:98</text>
</g>
<!-- q29:1 -->
<g id="node5" class="node">
<title>q29:1</title>
<ellipse fill="none" stroke="black" stroke-width="2" cx="2182.6" cy="-234" rx="39.63" ry="18"/>
<text text-anchor="middle" x="2182.6" y="-229.32" font-family="Times,serif" font-size="14.00">q29:1</text>
</g>
<!-- q22:2756&#45;&gt;q29:1 -->
<g id="edge4" class="edge">
<title>q22:2756&#45;&gt;q29:1</title>
<path fill="none" stroke="black" d="M1978.1,-192.59C1988.7,-195.52 2000.1,-198.51 2010.7,-201 2051.8,-210.66 2098.9,-219.61 2133.3,-225.74"/>
<polygon fill="black" stroke="black" points="2132.45,-229.14 2142.91,-227.45 2133.67,-222.25 2132.45,-229.14"/>
<text text-anchor="middle" x="2064.7" y="-226.94" font-family="Times,serif" font-size="14.00">content/550:1</text>
</g>
<!-- q30:2 -->
<g id="node6" class="node">
<title>q30:2</title>
<ellipse fill="none" stroke="black" stroke-width="2" cx="2182.6" cy="-180" rx="39.63" ry="18"/>
<text text-anchor="middle" x="2182.6" y="-175.32" font-family="Times,serif" font-size="14.00">q30:2</text>
</g>
<!-- q22:2756&#45;&gt;q30:2 -->
<g id="edge5" class="edge">
<title>q22:2756&#45;&gt;q30:2</title>
<path fill="none" stroke="black" d="M1993.5,-180C2035.3,-180 2090.8,-180 2130.7,-180"/>
<polygon fill="black" stroke="black" points="2130.59,-183.5 2140.59,-180 2130.59,-176.5 2130.59,-183.5"/>
<text text-anchor="middle" x="2064.7" y="-183.94" font-family="Times,serif" font-size="14.00">content/554:2</text>
</g>
<!-- q36:98 -->
<g id="node7" class="node">
<title>q36:98</title>
<ellipse fill="none" stroke="black" stroke-width="2" cx="2402" cy="-126" rx="45.95" ry="18"/>
<text text-anchor="middle" x="2402" y="-121.33" font-family="Times,serif" font-size="14.00">q36:98</text>
</g>
<!-- q31:98&#45;&gt;q36:98 -->
<g id="edge6" class="edge">
<title>q31:98&#45;&gt;q36:98</title>
<path fill="none" stroke="black" d="M2229.5,-126C2262.8,-126 2308.3,-126 2344,-126"/>
<polygon fill="black" stroke="black" points="2343.69,-129.5 2353.69,-126 2343.69,-122.5 2343.69,-129.5"/>
<text text-anchor="middle" x="2292.3" y="-129.94" font-family="Times,serif" font-size="14.00">QUIT/221:98</text>
</g>
<!-- q34:1 -->
<g id="node8" class="node">
<title>q34:1</title>
<ellipse fill="none" stroke="black" stroke-width="2" cx="2402" cy="-234" rx="39.63" ry="18"/>
<text text-anchor="middle" x="2402" y="-229.32" font-family="Times,serif" font-size="14.00">q34:1</text>
</g>
<!-- q29:1&#45;&gt;q34:1 -->
<g id="edge7" class="edge">
<title>q29:1&#45;&gt;q34:1</title>
<path fill="none" stroke="black" d="M2223.2,-234C2259,-234 2311.9,-234 2350.6,-234"/>
<polygon fill="black" stroke="black" points="2350.19,-237.5 2360.19,-234 2350.19,-230.5 2350.19,-237.5"/>
<text text-anchor="middle" x="2292.3" y="-237.94" font-family="Times,serif" font-size="14.00">RSET/250:1</text>
</g>
<!-- q35:2 -->
<g id="node9" class="node">
<title>q35:2</title>
<ellipse fill="none" stroke="black" stroke-width="2" cx="2402" cy="-180" rx="39.63" ry="18"/>
<text text-anchor="middle" x="2402" y="-175.32" font-family="Times,serif" font-size="14.00">q35:2</text>
</g>
<!-- q30:2&#45;&gt;q35:2 -->
<g id="edge8" class="edge">
<title>q30:2&#45;&gt;q35:2</title>
<path fill="none" stroke="black" d="M2223.2,-180C2259,-180 2311.9,-180 2350.6,-180"/>
<polygon fill="black" stroke="black" points="2350.19,-183.5 2360.19,-180 2350.19,-176.5 2350.19,-183.5"/>
<text text-anchor="middle" x="2292.3" y="-183.94" font-family="Times,serif" font-size="14.00">RSET/250:2</text>
</g>
<!-- q11:142 -->
<g id="node10" class="node">
<title>q11:142</title>
<ellipse fill="none" stroke="black" stroke-width="2" cx="1439.8" cy="-242" rx="52.26" ry="18"/>
<text text-anchor="middle" x="1439.8" y="-237.32" font-family="Times,serif" font-size="14.00">q11:142</text>
</g>
<!-- q16:27 -->
<g id="node11" class="node">
<title>q16:27</title>
<ellipse fill="none" stroke="black" stroke-width="2" cx="1688.3" cy="-242" rx="45.95" ry="18"/>
<text text-anchor="middle" x="1688.3" y="-237.32" font-family="Times,serif" font-size="14.00">q16:27</text>
</g>
<!-- q11:142&#45;&gt;q16:27 -->
<g id="edge9" class="edge">
<title>q11:142&#45;&gt;q16:27</title>
<path fill="none" stroke="black" d="M1492.7,-242C1533,-242 1588.8,-242 1630.3,-242"/>
<polygon fill="black" stroke="black" points="1630.09,-245.5 1640.09,-242 1630.09,-238.5 1630.09,-245.5"/>
<text text-anchor="middle" x="1564" y="-245.94" font-family="Times,serif" font-size="14.00">DATA/550:27</text>
</g>
<!-- q17:5 -->
<g id="node12" class="node">
<title>q17:5</title>
<ellipse fill="none" stroke="black" stroke-width="2" cx="1688.3" cy="-322" rx="39.63" ry="18"/>
<text text-anchor="middle" x="1688.3" y="-317.32" font-family="Times,serif" font-size="14.00">q17:5</text>
</g>
<!-- q11:142&#45;&gt;q17:5 -->
<g id="edge10" class="edge">
<title>q11:142&#45;&gt;q17:5</title>
<path fill="none" stroke="black" d="M1482.4,-253.17C1491.5,-255.5 1501.1,-257.9 1510,-260 1557.8,-271.23 1572.1,-265.4 1618,-282.75 1630.5,-287.47 1643.4,-294.2 1654.6,-300.77"/>
<polygon fill="black" stroke="black" points="1652.73,-303.73 1663.1,-305.9 1656.35,-297.74 1652.73,-303.73"/>
<text text-anchor="middle" x="1564" y="-285.94" font-family="Times,serif" font-size="14.00">RCPT/250:5</text>
</g>
<!-- q15:110 -->
<g id="node13" class="node">
<title>q15:110</title>
<ellipse fill="none" stroke="black" stroke-width="2" cx="1688.3" cy="-186" rx="52.26" ry="18"/>
<text text-anchor="middle" x="1688.3" y="-181.32" font-family="Times,serif" font-size="14.00">q15:110</text>
</g>
<!-- q11:142&#45;&gt;q15:110 -->
<g id="edge11" class="edge">
<title>q11:142&#45;&gt;q15:110</title>
<path fill="none" stroke="black" d="M1479.4,-229.37C1489.3,-226.34 1500,-223.26 1510,-220.75 1549.4,-210.88 1594.3,-202.1 1629,-195.84"/>
<polygon fill="black" stroke="black" points="1629.27,-199.35 1638.51,-194.15 1628.05,-192.45 1629.27,-199.35"/>
<text text-anchor="middle" x="1564" y="-224.94" font-family="Times,serif" font-size="14.00">DATA/354:110</text>
</g>
<!-- q24:1 -->
<g id="node14" class="node">
<title>q24:1</title>
<ellipse fill="none" stroke="black" stroke-width="2" cx="1934.1" cy="-323" rx="39.63" ry="18"/>
<text text-anchor="middle" x="1934.1" y="-318.32" font-family="Times,serif" font-size="14.00">q24:1</text>
</g>
<!-- q17:5&#45;&gt;q24:1 -->
<g id="edge12" class="edge">
<title>q17:5&#45;&gt;q24:1</title>
<path fill="none" stroke="black" d="M1728.7,-322.16C1770.5,-322.33 1836.6,-322.6 1882.3,-322.79"/>
<polygon fill="black" stroke="black" points="1882.17,-326.29 1892.19,-322.83 1882.2,-319.29 1882.17,-326.29"/>
<text text-anchor="middle" x="1808" y="-325.94" font-family="Times,serif" font-size="14.00">DATA/550:1</text>
</g>
<!-- q7:231 -->
<g id="node15" class="node">
<title>q7:231</title>
<ellipse fill="none" stroke="black" stroke-width="2" cx="1202.8" cy="-243" rx="45.95" ry="18"/>
<text text-anchor="middle" x="1202.8" y="-238.32" font-family="Times,serif" font-size="14.00">q7:231</text>
</g>
<!-- q17:5&#45;&gt;q7:231 -->
<g id="edge13" class="edge">
<title>q17:5&#45;&gt;q7:231</title>
<path fill="none" stroke="black" d="M1648.2,-319.17C1573.4,-313.19 1404.9,-297 1266.7,-264 1260.8,-262.58 1254.6,-260.84 1248.5,-258.98"/>
<polygon fill="black" stroke="black" points="1249.83,-255.73 1239.24,-256.01 1247.69,-262.4 1249.83,-255.73"/>
<text text-anchor="middle" x="1439.8" y="-305.94" font-family="Times,serif" font-size="14.00">RCPT/250:3</text>
</g>
<!-- q25:26 -->
<g id="node16" class="node">
<title>q25:26</title>
<ellipse fill="none" stroke="black" stroke-width="2" cx="1934.1" cy="-377" rx="45.95" ry="18"/>
<text text-anchor="middle" x="1934.1" y="-372.32" font-family="Times,serif" font-size="14.00">q25:26</text>
</g>
<!-- q17:5&#45;&gt;q25:26 -->
<g id="edge14" class="edge">
<title>q17:5&#45;&gt;q25:26</title>
<path fill="none" stroke="black" d="M1721.8,-332.63C1733.4,-336.18 1746.5,-340 1758.5,-343 1798.6,-352.96 1844.5,-361.8 1879.2,-367.97"/>
<polygon fill="black" stroke="black" points="1878.55,-371.41 1889.01,-369.7 1879.77,-364.52 1878.55,-371.41"/>
<text text-anchor="middle" x="1808" y="-366.94" font-family="Times,serif" font-size="14.00">DATA/354:1</text>
</g>
<!-- q15:110&#45;&gt;q22:2756 -->
<g id="edge15" class="edge">
<title>q15:110&#45;&gt;q22:2756</title>
<path fill="none" stroke="black" d="M1741.3,-184.72C1776.8,-183.85 1824.4,-182.67 1863.3,-181.72"/>
<polygon fill="black" stroke="black" points="1863.37,-185.22 1873.29,-181.48 1863.2,-178.22 1863.37,-185.22"/>
<text text-anchor="middle" x="1808" y="-188.94" font-family="Times,serif" font-size="14.00">content/λ:101</text>
</g>
<!-- q21:3 -->
<g id="node17" class="node">
<title>q21:3</title>
<ellipse fill="none" stroke="black" stroke-width="2" cx="1934.1" cy="-126" rx="39.63" ry="18"/>
<text text-anchor="middle" x="1934.1" y="-121.33" font-family="Times,serif" font-size="14.00">q21:3</text>
</g>
<!-- q15:110&#45;&gt;q21:3 -->
<g id="edge16" class="edge">
<title>q15:110&#45;&gt;q21:3</title>
<path fill="none" stroke="black" d="M1724.2,-172.1C1735.1,-168.08 1747.2,-163.93 1758.5,-160.75 1800.6,-148.98 1849.3,-139.62 1884.6,-133.6"/>
<polygon fill="black" stroke="black" points="1884.82,-137.11 1894.11,-132.01 1883.67,-130.21 1884.82,-137.11"/>
<text text-anchor="middle" x="1808" y="-164.94" font-family="Times,serif" font-size="14.00">content/250:3</text>
</g>
<!-- q23:6 -->
<g id="node18" class="node">
<title>q23:6</title>
<ellipse fill="none" stroke="black" stroke-width="2" cx="1934.1" cy="-269" rx="39.63" ry="18"/>
<text text-anchor="middle" x="1934.1" y="-264.32" font-family="Times,serif" font-size="14.00">q23:6</text>
</g>
<!-- q15:110&#45;&gt;q23:6 -->
<g id="edge17" class="edge">
<title>q15:110&#45;&gt;q23:6</title>
<path fill="none" stroke="black" d="M1727.1,-198.88C1771.2,-213.89 1844,-238.66 1890.2,-254.39"/>
<polygon fill="black" stroke="black" points="1888.97,-257.67 1899.57,-257.59 1891.24,-251.05 1888.97,-257.67"/>
<text text-anchor="middle" x="1808" y="-246.94" font-family="Times,serif" font-size="14.00">content/554:6</text>
</g>
<!-- q7:231&#45;&gt;q11:142 -->
<g id="edge18" class="edge">
<title>q7:231&#45;&gt;q11:142</title>
<path fill="none" stroke="black" d="M1249.7,-242.8C1285.5,-242.65 1335.8,-242.44 1375.5,-242.27"/>
<polygon fill="black" stroke="black" points="1375.4,-245.77 1385.39,-242.23 1375.37,-238.77 1375.4,-245.77"/>
<text text-anchor="middle" x="1318.1" y="-246.94" font-family="Times,serif" font-size="14.00">RCPT/250:142</text>
</g>
<!-- q12:138 -->
<g id="node19" class="node">
<title>q12:138</title>
<ellipse fill="none" stroke="black" stroke-width="2" cx="1439.8" cy="-72" rx="52.26" ry="18"/>
<text text-anchor="middle" x="1439.8" y="-67.33" font-family="Times,serif" font-size="14.00">q12:138</text>
</g>
<!-- q7:231&#45;&gt;q12:138 -->
<g id="edge19" class="edge">
<title>q7:231&#45;&gt;q12:138</title>
<path fill="none" stroke="black" d="M1230.2,-227.76C1236.4,-224.04 1242.9,-219.98 1248.7,-216 1307.2,-176.45 1372.1,-125.69 1408.9,-96.2"/>
<polygon fill="black" stroke="black" points="1410.84,-99.14 1416.42,-90.14 1406.44,-93.69 1410.84,-99.14"/>
<text text-anchor="middle" x="1318.1" y="-205.94" font-family="Times,serif" font-size="14.00">DATA/354:89</text>
</g>
<!-- q25:26&#45;&gt;q25:26 -->
<g id="edge20" class="edge">
<title>q25:26&#45;&gt;q25:26</title>
<path fill="none" stroke="black" d="M1911.9,-393.66C1907,-403.62 1914.4,-413 1934.1,-413 1945.8,-413 1953.2,-409.69 1956.2,-404.92"/>
<polygon fill="black" stroke="black" points="1959.7,-405.2 1956.29,-395.17 1952.7,-405.14 1959.7,-405.2"/>
<text text-anchor="middle" x="1934.1" y="-416.94" font-family="Times,serif" font-size="14.00">content/λ:25</text>
</g>
<!-- q33:1 -->
<g id="node20" class="node">
<title>q33:1</title>
<ellipse fill="none" stroke="black" stroke-width="2" cx="2182.6" cy="-377" rx="39.63" ry="18"/>
<text text-anchor="middle" x="2182.6" y="-372.32" font-family="Times,serif" font-size="14.00">q33:1</text>
</g>
<!-- q25:26&#45;&gt;q33:1 -->
<g id="edge21" class="edge">
<title>q25:26&#45;&gt;q33:1</title>
<path fill="none" stroke="black" d="M1980.9,-377C2023.5,-377 2086.7,-377 2130.8,-377"/>
<polygon fill="black" stroke="black" points="2130.69,-380.5 2140.69,-377 2130.69,-373.5 2130.69,-380.5"/>
<text text-anchor="middle" x="2064.7" y="-380.94" font-family="Times,serif" font-size="14.00">content/250:1</text>
</g>
<!-- q28:3 -->
<g id="node21" class="node">
<title>q28:3</title>
<ellipse fill="none" stroke="black" stroke-width="2" cx="2182.6" cy="-72" rx="39.63" ry="18"/>
<text text-anchor="middle" x="2182.6" y="-67.33" font-family="Times,serif" font-size="14.00">q28:3</text>
</g>
<!-- q21:3&#45;&gt;q28:3 -->
<g id="edge22" class="edge">
<title>q21:3&#45;&gt;q28:3</title>
<path fill="none" stroke="black" d="M1971,-118.15C2014.2,-108.67 2087.1,-92.71 2134.8,-82.26"/>
<polygon fill="black" stroke="black" points="2135.21,-85.76 2144.22,-80.19 2133.7,-78.92 2135.21,-85.76"/>
<text text-anchor="middle" x="2064.7" y="-112.95" font-family="Times,serif" font-size="14.00">QUIT/221:3</text>
</g>
<!-- q32:6 -->
<g id="node22" class="node">
<title>q32:6</title>
<ellipse fill="none" stroke="black" stroke-width="2" cx="2182.6" cy="-288" rx="39.63" ry="18"/>
<text text-anchor="middle" x="2182.6" y="-283.32" font-family="Times,serif" font-size="14.00">q32:6</text>
</g>
<!-- q23:6&#45;&gt;q32:6 -->
<g id="edge23" class="edge">
<title>q23:6&#45;&gt;q32:6</title>
<path fill="none" stroke="black" d="M1974.2,-272.01C2016.7,-275.29 2084.9,-280.55 2131.4,-284.13"/>
<polygon fill="black" stroke="black" points="2130.95,-287.61 2141.19,-284.88 2131.49,-280.63 2130.95,-287.61"/>
<text text-anchor="middle" x="2064.7" y="-285.94" font-family="Times,serif" font-size="14.00">RSET/250:6</text>
</g>
<!-- q12:138&#45;&gt;q12:138 -->
<g id="edge24" class="edge">
<title>q12:138&#45;&gt;q12:138</title>
<path fill="none" stroke="black" d="M1418.2,-89.04C1413.8,-98.86 1421,-108 1439.8,-108 1450.6,-108 1457.6,-104.94 1460.7,-100.47"/>
<polygon fill="black" stroke="black" points="1464.19,-100.72 1461.22,-90.55 1457.2,-100.35 1464.19,-100.72"/>
<text text-anchor="middle" x="1439.8" y="-111.95" font-family="Times,serif" font-size="14.00">content/λ:49</text>
</g>
<!-- q19:23 -->
<g id="node23" class="node">
<title>q19:23</title>
<ellipse fill="none" stroke="black" stroke-width="2" cx="1688.3" cy="-72" rx="45.95" ry="18"/>
<text text-anchor="middle" x="1688.3" y="-67.33" font-family="Times,serif" font-size="14.00">q19:23</text>
</g>
<!-- q12:138&#45;&gt;q19:23 -->
<g id="edge25" class="edge">
<title>q12:138&#45;&gt;q19:23</title>
<path fill="none" stroke="black" d="M1492.7,-72C1533,-72 1588.8,-72 1630.3,-72"/>
<polygon fill="black" stroke="black" points="1630.09,-75.5 1640.09,-72 1630.09,-68.5 1630.09,-75.5"/>
<text text-anchor="middle" x="1564" y="-75.95" font-family="Times,serif" font-size="14.00">content/250:23</text>
</g>
<!-- q18:66 -->
<g id="node24" class="node">
<title>q18:66</title>
<ellipse fill="none" stroke="black" stroke-width="2" cx="1688.3" cy="-18" rx="45.95" ry="18"/>
<text text-anchor="middle" x="1688.3" y="-13.32" font-family="Times,serif" font-size="14.00">q18:66</text>
</g>
<!-- q12:138&#45;&gt;q18:66 -->
<g id="edge26" class="edge">
<title>q12:138&#45;&gt;q18:66</title>
<path fill="none" stroke="black" d="M1479,-59.41C1489,-56.34 1499.9,-53.23 1510,-50.75 1551,-40.71 1598,-32.15 1633.3,-26.31"/>
<polygon fill="black" stroke="black" points="1633.6,-29.81 1642.91,-24.75 1632.47,-22.9 1633.6,-29.81"/>
<text text-anchor="middle" x="1564" y="-54.95" font-family="Times,serif" font-size="14.00">content/554:66</text>
</g>
<!-- q37:1 -->
<g id="node27" class="node">
<title>q37:1</title>
<ellipse fill="none" stroke="black" stroke-width="2" cx="2402" cy="-377" rx="39.63" ry="18"/>
<text text-anchor="middle" x="2402" y="-372.32" font-family="Times,serif" font-size="14.00">q37:1</text>
</g>
<!-- q33:1&#45;&gt;q37:1 -->
<g id="edge29" class="edge">
<title>q33:1&#45;&gt;q37:1</title>
<path fill="none" stroke="black" d="M2223.2,-377C2259,-377 2311.9,-377 2350.6,-377"/>
<polygon fill="black" stroke="black" points="2350.19,-380.5 2360.19,-377 2350.19,-373.5 2350.19,-380.5"/>
<text text-anchor="middle" x="2292.3" y="-380.94" font-family="Times,serif" font-size="14.00">QUIT/221:1</text>
</g>
<!-- q27:23 -->
<g id="node25" class="node">
<title>q27:23</title>
<ellipse fill="none" stroke="black" stroke-width="2" cx="1934.1" cy="-72" rx="45.95" ry="18"/>
<text text-anchor="middle" x="1934.1" y="-67.33" font-family="Times,serif" font-size="14.00">q27:23</text>
</g>
<!-- q19:23&#45;&gt;q27:23 -->
<g id="edge27" class="edge">
<title>q19:23&#45;&gt;q27:23</title>
<path fill="none" stroke="black" d="M1735.1,-72C1775.1,-72 1833.1,-72 1876,-72"/>
<polygon fill="black" stroke="black" points="1875.89,-75.5 1885.89,-72 1875.89,-68.5 1875.89,-75.5"/>
<text text-anchor="middle" x="1808" y="-75.95" font-family="Times,serif" font-size="14.00">QUIT/221:23</text>
</g>
<!-- q26:66 -->
<g id="node26" class="node">
<title>q26:66</title>
<ellipse fill="none" stroke="black" stroke-width="2" cx="1934.1" cy="-18" rx="45.95" ry="18"/>
<text text-anchor="middle" x="1934.1" y="-13.32" font-family="Times,serif" font-size="14.00">q26:66</text>
</g>
<!-- q18:66&#45;&gt;q26:66 -->
<g id="edge28" class="edge">
<title>q18:66&#45;&gt;q26:66</title>
<path fill="none" stroke="black" d="M1735.1,-18C1775.1,-18 1833.1,-18 1876,-18"/>
<polygon fill="black" stroke="black" points="1875.89,-21.5 1885.89,-18 1875.89,-14.5 1875.89,-21.5"/>
<text text-anchor="middle" x="1808" y="-21.95" font-family="Times,serif" font-size="14.00">RSET/250:66</text>
</g>
<!-- q3:242 -->
<g id="node28" class="node">
<title>q3:242</title>
<ellipse fill="none" stroke="black" stroke-width="2" cx="491.48" cy="-294" rx="45.95" ry="18"/>
<text text-anchor="middle" x="491.48" y="-289.32" font-family="Times,serif" font-size="14.00">q3:242</text>
</g>
<!-- q4:3 -->
<g id="node29" class="node">
<title>q4:3</title>
<ellipse fill="none" stroke="black" stroke-width="2" cx="725.13" cy="-297" rx="33.32" ry="18"/>
<text text-anchor="middle" x="725.13" y="-292.32" font-family="Times,serif" font-size="14.00">q4:3</text>
</g>
<!-- q3:242&#45;&gt;q4:3 -->
<g id="edge30" class="edge">
<title>q3:242&#45;&gt;q4:3</title>
<path fill="none" stroke="black" d="M538.25,-294.59C579.17,-295.12 638.78,-295.89 679.39,-296.42"/>
<polygon fill="black" stroke="black" points="679.26,-299.92 689.31,-296.55 679.35,-292.92 679.26,-299.92"/>
<text text-anchor="middle" x="608.31" y="-299.94" font-family="Times,serif" font-size="14.00">AUTH/λ:1</text>
</g>
<!-- q6:228 -->
<g id="node30" class="node">
<title>q6:228</title>
<ellipse fill="none" stroke="black" stroke-width="2" cx="725.13" cy="-243" rx="45.95" ry="18"/>
<text text-anchor="middle" x="725.13" y="-238.32" font-family="Times,serif" font-size="14.00">q6:228</text>
</g>
<!-- q3:242&#45;&gt;q6:228 -->
<g id="edge31" class="edge">
<title>q3:242&#45;&gt;q6:228</title>
<path fill="none" stroke="black" d="M526.51,-281.47C535.8,-278.33 545.93,-275.18 555.43,-272.75 593.06,-263.14 636.21,-255.59 669.44,-250.5"/>
<polygon fill="black" stroke="black" points="669.89,-253.97 679.26,-249.03 668.86,-247.05 669.89,-253.97"/>
<text text-anchor="middle" x="608.31" y="-276.94" font-family="Times,serif" font-size="14.00">AUTH/235:228</text>
</g>
<!-- q5:13 -->
<g id="node31" class="node">
<title>q5:13</title>
<ellipse fill="none" stroke="black" stroke-width="2" cx="725.13" cy="-352" rx="39.63" ry="18"/>
<text text-anchor="middle" x="725.13" y="-347.32" font-family="Times,serif" font-size="14.00">q5:13</text>
</g>
<!-- q3:242&#45;&gt;q5:13 -->
<g id="edge32" class="edge">
<title>q3:242&#45;&gt;q5:13</title>
<path fill="none" stroke="black" d="M525.18,-306.97C534.83,-310.52 545.47,-314.16 555.43,-317 595.49,-328.41 641.89,-337.76 675.87,-343.92"/>
<polygon fill="black" stroke="black" points="674.94,-347.31 685.4,-345.61 676.17,-340.42 674.94,-347.31"/>
<text text-anchor="middle" x="608.31" y="-343.94" font-family="Times,serif" font-size="14.00">AUTH/535:13</text>
</g>
<!-- q4:3&#45;&gt;q7:231 -->
<g id="edge33" class="edge">
<title>q4:3&#45;&gt;q7:231</title>
<path fill="none" stroke="black" d="M759.41,-297.05C830.05,-296.58 999.91,-292.29 1138.8,-264 1145,-262.75 1151.4,-261.08 1157.6,-259.23"/>
<polygon fill="black" stroke="black" points="1158.67,-262.56 1167.16,-256.22 1156.57,-255.89 1158.67,-262.56"/>
<text text-anchor="middle" x="960.59" y="-294.94" font-family="Times,serif" font-size="14.00">MAIL/250:3</text>
</g>
<!-- q10:225 -->
<g id="node32" class="node">
<title>q10:225</title>
<ellipse fill="none" stroke="black" stroke-width="2" cx="960.59" cy="-243" rx="52.26" ry="18"/>
<text text-anchor="middle" x="960.59" y="-238.32" font-family="Times,serif" font-size="14.00">q10:225</text>
</g>
<!-- q6:228&#45;&gt;q10:225 -->
<g id="edge34" class="edge">
<title>q6:228&#45;&gt;q10:225</title>
<path fill="none" stroke="black" d="M771.97,-243C807.39,-243 856.81,-243 896.03,-243"/>
<polygon fill="black" stroke="black" points="895.82,-246.5 905.82,-243 895.82,-239.5 895.82,-246.5"/>
<text text-anchor="middle" x="839.7" y="-246.94" font-family="Times,serif" font-size="14.00">MAIL/250:225</text>
</g>
<!-- q9:3 -->
<g id="node33" class="node">
<title>q9:3</title>
<ellipse fill="none" stroke="black" stroke-width="2" cx="960.59" cy="-189" rx="33.32" ry="18"/>
<text text-anchor="middle" x="960.59" y="-184.32" font-family="Times,serif" font-size="14.00">q9:3</text>
</g>
<!-- q6:228&#45;&gt;q9:3 -->
<g id="edge35" class="edge">
<title>q6:228&#45;&gt;q9:3</title>
<path fill="none" stroke="black" d="M760.18,-230.57C769.47,-227.43 779.6,-224.25 789.08,-221.75 831.89,-210.47 881.71,-201.35 916.4,-195.63"/>
<polygon fill="black" stroke="black" points="916.75,-199.12 926.06,-194.06 915.62,-192.21 916.75,-199.12"/>
<text text-anchor="middle" x="839.7" y="-225.94" font-family="Times,serif" font-size="14.00">MAIL/553:3</text>
</g>
<!-- q8:13 -->
<g id="node34" class="node">
<title>q8:13</title>
<ellipse fill="none" stroke="black" stroke-width="2" cx="960.59" cy="-355" rx="39.63" ry="18"/>
<text text-anchor="middle" x="960.59" y="-350.32" font-family="Times,serif" font-size="14.00">q8:13</text>
</g>
<!-- q5:13&#45;&gt;q8:13 -->
<g id="edge36" class="edge">
<title>q5:13&#45;&gt;q8:13</title>
<path fill="none" stroke="black" d="M765.73,-352.51C805.17,-353.02 865.88,-353.8 908.84,-354.35"/>
<polygon fill="black" stroke="black" points="908.62,-357.85 918.67,-354.47 908.71,-350.85 908.62,-357.85"/>
<text text-anchor="middle" x="839.7" y="-357.94" font-family="Times,serif" font-size="14.00">AUTH/334:13</text>
</g>
<!-- q10:225&#45;&gt;q7:231 -->
<g id="edge37" class="edge">
<title>q10:225&#45;&gt;q7:231</title>
<path fill="none" stroke="black" d="M1013.7,-243C1052.3,-243 1104.8,-243 1144.5,-243"/>
<polygon fill="black" stroke="black" points="1144.39,-246.5 1154.39,-243 1144.39,-239.5 1144.39,-246.5"/>
<text text-anchor="middle" x="1084.8" y="-246.94" font-family="Times,serif" font-size="14.00">RCPT/250:225</text>
</g>
<!-- q14:3 -->
<g id="node35" class="node">
<title>q14:3</title>
<ellipse fill="none" stroke="black" stroke-width="2" cx="1202.8" cy="-189" rx="39.63" ry="18"/>
<text text-anchor="middle" x="1202.8" y="-184.32" font-family="Times,serif" font-size="14.00">q14:3</text>
</g>
<!-- q9:3&#45;&gt;q14:3 -->
<g id="edge38" class="edge">
<title>q9:3&#45;&gt;q14:3</title>
<path fill="none" stroke="black" d="M994.73,-189C1035.1,-189 1103.6,-189 1150.7,-189"/>
<polygon fill="black" stroke="black" points="1150.69,-192.5 1160.69,-189 1150.69,-185.5 1150.69,-192.5"/>
<text text-anchor="middle" x="1084.8" y="-192.94" font-family="Times,serif" font-size="14.00">RSET/250:3</text>
</g>
<!-- q8:13&#45;&gt;q13:13 -->
<g id="edge39" class="edge">
<title>q8:13&#45;&gt;q13:13</title>
<path fill="none" stroke="black" d="M1000.98,-356.97C1040.1,-358.92 1100.4,-361.94 1144.7,-364.15"/>
<polygon fill="black" stroke="black" points="1144.53,-367.65 1154.69,-364.65 1144.87,-360.65 1144.53,-367.65"/>
<text text-anchor="middle" x="1084.8" y="-366.94" font-family="Times,serif" font-size="14.00">content/535:13</text>
</g>
<!-- q1:244 -->
<g id="node36" class="node">
<title>q1:244</title>
<ellipse fill="none" stroke="black" stroke-width="2" cx="257.84" cy="-261" rx="45.95" ry="18"/>
<text text-anchor="middle" x="257.84" y="-256.32" font-family="Times,serif" font-size="14.00">q1:244</text>
</g>
<!-- q1:244&#45;&gt;q3:242 -->
<g id="edge40" class="edge">
<title>q1:244&#45;&gt;q3:242</title>
<path fill="none" stroke="black" d="M302.14,-267.17C340,-272.56 395.17,-280.42 436.02,-286.24"/>
<polygon fill="black" stroke="black" points="435.51,-289.7 445.9,-287.65 436.49,-282.77 435.51,-289.7"/>
<text text-anchor="middle" x="374.66" y="-287.94" font-family="Times,serif" font-size="14.00">EHLO/250:242</text>
</g>
<!-- q2:2 -->
<g id="node37" class="node">
<title>q2:2</title>
<ellipse fill="none" stroke="black" stroke-width="2" cx="491.48" cy="-234" rx="33.32" ry="18"/>
<text text-anchor="middle" x="491.48" y="-229.32" font-family="Times,serif" font-size="14.00">q2:2</text>
</g>
<!-- q1:244&#45;&gt;q2:2 -->
<g id="edge41" class="edge">
<title>q1:244&#45;&gt;q2:2</title>
<path fill="none" stroke="black" d="M298.66,-251.83C306.31,-250.29 314.27,-248.84 321.79,-247.75 363.67,-241.66 411.82,-238.07 445.93,-236.1"/>
<polygon fill="black" stroke="black" points="446.07,-239.6 455.86,-235.54 445.68,-232.61 446.07,-239.6"/>
<text text-anchor="middle" x="374.66" y="-251.94" font-family="Times,serif" font-size="14.00">EHLO/λ:2</text>
</g>
<!-- q2:2&#45;&gt;q4:3 -->
<g id="edge42" class="edge">
<title>q2:2&#45;&gt;q4:3</title>
<path fill="none" stroke="black" d="M521.31,-224.71C557.11,-215.05 618.64,-204.76 661.18,-231.75 677.05,-241.82 666.58,-256.06 679.18,-270 682.19,-273.32 685.7,-276.37 689.41,-279.12"/>
<polygon fill="black" stroke="black" points="687.32,-281.94 697.6,-284.5 691.17,-276.09 687.32,-281.94"/>
<text text-anchor="middle" x="608.31" y="-235.94" font-family="Times,serif" font-size="14.00">AUTH/235:2</text>
</g>
<!-- q0:244 -->
<g id="node38" class="node">
<title>q0:244</title>
<ellipse fill="none" stroke="black" stroke-width="2" cx="53.95" cy="-261" rx="49.95" ry="49.95"/>
<ellipse fill="none" stroke="black" stroke-width="2" cx="53.95" cy="-261" rx="53.95" ry="53.95"/>
<text text-anchor="middle" x="53.95" y="-256.32" font-family="Times,serif" font-size="14.00">q0:244</text>
</g>
<!-- q0:244&#45;&gt;q1:244 -->
<g id="edge43" class="edge">
<title>q0:244&#45;&gt;q1:244</title>
<path fill="none" stroke="black" d="M104.85,-261C133.64,-261 169.94,-261 199.84,-261"/>
<polygon fill="black" stroke="black" points="199.45,-264.5 209.45,-261 199.45,-257.5 199.45,-264.5"/>
<text text-anchor="middle" x="157.89" y="-264.94" font-family="Times,serif" font-size="14.00">λ/220:244</text>
</g>
</g>
</svg>
