<?xml version="1.0" encoding="UTF-8" standalone="no"?>
<!DOCTYPE svg PUBLIC "-//W3C//DTD SVG 1.1//EN"
 "http://www.w3.org/Graphics/SVG/1.1/DTD/svg11.dtd">
<!-- Generated by graphviz version 12.0.0 (20240803.0821)
 -->
<!-- Pages: 1 -->
<svg width="2260pt" height="294pt"
 viewBox="0.00 0.00 2259.66 294.00" xmlns="http://www.w3.org/2000/svg" xmlns:xlink="http://www.w3.org/1999/xlink">
<g id="graph0" class="graph" transform="scale(1 1) rotate(0) translate(4 290)">
<polygon fill="white" stroke="none" points="-4,4 -4,-290 2255.66,-290 2255.66,4 -4,4"/>
<!-- q2:242 -->
<g id="node1" class="node">
<title>q2:242</title>
<ellipse fill="none" stroke="black" stroke-width="2" cx="491.48" cy="-134" rx="45.95" ry="18"/>
<text text-anchor="middle" x="491.48" y="-129.32" font-family="Times,serif" font-size="14.00">q2:242</text>
</g>
<!-- q5:230 -->
<g id="node2" class="node">
<title>q5:230</title>
<ellipse fill="none" stroke="black" stroke-width="2" cx="725.13" cy="-67" rx="45.95" ry="18"/>
<text text-anchor="middle" x="725.13" y="-62.33" font-family="Times,serif" font-size="14.00">q5:230</text>
</g>
<!-- q2:242&#45;&gt;q5:230 -->
<g id="edge1" class="edge">
<title>q2:242&#45;&gt;q5:230</title>
<path fill="none" stroke="black" d="M528.03,-122.29C536.95,-119.42 546.52,-116.42 555.43,-113.75 595.45,-101.77 641.14,-89.18 674.86,-80.08"/>
<polygon fill="black" stroke="black" points="675.6,-83.51 684.35,-77.53 673.78,-76.75 675.6,-83.51"/>
<text text-anchor="middle" x="608.31" y="-117.95" font-family="Times,serif" font-size="14.00">AUTH/235:228</text>
</g>
<!-- q6:1 -->
<g id="node3" class="node">
<title>q6:1</title>
<ellipse fill="none" stroke="black" stroke-width="2" cx="725.13" cy="-136" rx="33.32" ry="18"/>
<text text-anchor="middle" x="725.13" y="-131.32" font-family="Times,serif" font-size="14.00">q6:1</text>
</g>
<!-- q2:242&#45;&gt;q6:1 -->
<g id="edge2" class="edge">
<title>q2:242&#45;&gt;q6:1</title>
<path fill="none" stroke="black" d="M538.25,-134.4C579.17,-134.75 638.78,-135.26 679.39,-135.61"/>
<polygon fill="black" stroke="black" points="679.28,-139.11 689.31,-135.7 679.34,-132.11 679.28,-139.11"/>
<text text-anchor="middle" x="608.31" y="-139.94" font-family="Times,serif" font-size="14.00">AUTH/λ:1</text>
</g>
<!-- q4:13 -->
<g id="node4" class="node">
<title>q4:13</title>
<ellipse fill="none" stroke="black" stroke-width="2" cx="725.13" cy="-192" rx="39.63" ry="18"/>
<text text-anchor="middle" x="725.13" y="-187.32" font-family="Times,serif" font-size="14.00">q4:13</text>
</g>
<!-- q2:242&#45;&gt;q4:13 -->
<g id="edge3" class="edge">
<title>q2:242&#45;&gt;q4:13</title>
<path fill="none" stroke="black" d="M525.18,-146.97C534.83,-150.52 545.47,-154.16 555.43,-157 595.49,-168.41 641.89,-177.76 675.87,-183.92"/>
<polygon fill="black" stroke="black" points="674.94,-187.31 685.4,-185.61 676.17,-180.42 674.94,-187.31"/>
<text text-anchor="middle" x="608.31" y="-183.94" font-family="Times,serif" font-size="14.00">AUTH/535:13</text>
</g>
<!-- q8:231 -->
<g id="node5" class="node">
<title>q8:231</title>
<ellipse fill="none" stroke="black" stroke-width="2" cx="954.27" cy="-119" rx="45.95" ry="18"/>
<text text-anchor="middle" x="954.27" y="-114.33" font-family="Times,serif" font-size="14.00">q8:231</text>
</g>
<!-- q5:230&#45;&gt;q8:231 -->
<g id="edge4" class="edge">
<title>q5:230&#45;&gt;q8:231</title>
<path fill="none" stroke="black" d="M766.32,-75.79C799.59,-83.12 848.08,-93.91 890.33,-103.75 894.4,-104.7 898.62,-105.69 902.85,-106.7"/>
<polygon fill="black" stroke="black" points="902,-110.09 912.54,-109.03 903.63,-103.29 902,-110.09"/>
<text text-anchor="middle" x="839.7" y="-107.95" font-family="Times,serif" font-size="14.00">MAIL/250:227</text>
</g>
<!-- q9:3 -->
<g id="node6" class="node">
<title>q9:3</title>
<ellipse fill="none" stroke="black" stroke-width="2" cx="954.27" cy="-40" rx="33.32" ry="18"/>
<text text-anchor="middle" x="954.27" y="-35.33" font-family="Times,serif" font-size="14.00">q9:3</text>
</g>
<!-- q5:230&#45;&gt;q9:3 -->
<g id="edge5" class="edge">
<title>q5:230&#45;&gt;q9:3</title>
<path fill="none" stroke="black" d="M765.25,-57.22C773.1,-55.52 781.32,-53.92 789.08,-52.75 829.41,-46.65 875.79,-43.39 908.95,-41.7"/>
<polygon fill="black" stroke="black" points="908.76,-45.21 918.58,-41.24 908.42,-38.22 908.76,-45.21"/>
<text text-anchor="middle" x="839.7" y="-56.95" font-family="Times,serif" font-size="14.00">MAIL/553:3</text>
</g>
<!-- q6:1&#45;&gt;q8:231 -->
<g id="edge6" class="edge">
<title>q6:1&#45;&gt;q8:231</title>
<path fill="none" stroke="black" d="M758.67,-133.56C794.71,-130.87 853.45,-126.47 896.98,-123.21"/>
<polygon fill="black" stroke="black" points="897.04,-126.72 906.75,-122.48 896.52,-119.73 897.04,-126.72"/>
<text text-anchor="middle" x="839.7" y="-134.94" font-family="Times,serif" font-size="14.00">MAIL/250:1</text>
</g>
<!-- q7:13 -->
<g id="node7" class="node">
<title>q7:13</title>
<ellipse fill="none" stroke="black" stroke-width="2" cx="954.27" cy="-200" rx="39.63" ry="18"/>
<text text-anchor="middle" x="954.27" y="-195.32" font-family="Times,serif" font-size="14.00">q7:13</text>
</g>
<!-- q4:13&#45;&gt;q7:13 -->
<g id="edge7" class="edge">
<title>q4:13&#45;&gt;q7:13</title>
<path fill="none" stroke="black" d="M765.43,-193.38C803.42,-194.72 861.15,-196.76 902.58,-198.21"/>
<polygon fill="black" stroke="black" points="902.44,-201.71 912.56,-198.57 902.69,-194.71 902.44,-201.71"/>
<text text-anchor="middle" x="839.7" y="-200.94" font-family="Times,serif" font-size="14.00">AUTH/334:13</text>
</g>
<!-- q11:231 -->
<g id="node8" class="node">
<title>q11:231</title>
<ellipse fill="none" stroke="black" stroke-width="2" cx="1196.5" cy="-147" rx="52.26" ry="18"/>
<text text-anchor="middle" x="1196.5" y="-142.32" font-family="Times,serif" font-size="14.00">q11:231</text>
</g>
<!-- q8:231&#45;&gt;q11:231 -->
<g id="edge8" class="edge">
<title>q8:231&#45;&gt;q11:231</title>
<path fill="none" stroke="black" d="M999.33,-124.14C1037.3,-128.56 1092.5,-134.99 1134.7,-139.91"/>
<polygon fill="black" stroke="black" points="1134.06,-143.36 1144.4,-141.04 1134.87,-136.41 1134.06,-143.36"/>
<text text-anchor="middle" x="1072.2" y="-142.94" font-family="Times,serif" font-size="14.00">RCPT/250:231</text>
</g>
<!-- q12:3 -->
<g id="node9" class="node">
<title>q12:3</title>
<ellipse fill="none" stroke="black" stroke-width="2" cx="1196.5" cy="-40" rx="39.63" ry="18"/>
<text text-anchor="middle" x="1196.5" y="-35.33" font-family="Times,serif" font-size="14.00">q12:3</text>
</g>
<!-- q9:3&#45;&gt;q12:3 -->
<g id="edge9" class="edge">
<title>q9:3&#45;&gt;q12:3</title>
<path fill="none" stroke="black" d="M988.42,-40C1028.8,-40 1097.3,-40 1144.4,-40"/>
<polygon fill="black" stroke="black" points="1144.39,-43.5 1154.39,-40 1144.39,-36.5 1144.39,-43.5"/>
<text text-anchor="middle" x="1072.2" y="-43.95" font-family="Times,serif" font-size="14.00">RSET/250:3</text>
</g>
<!-- q10:13 -->
<g id="node10" class="node">
<title>q10:13</title>
<ellipse fill="none" stroke="black" stroke-width="2" cx="1196.5" cy="-234" rx="45.95" ry="18"/>
<text text-anchor="middle" x="1196.5" y="-229.32" font-family="Times,serif" font-size="14.00">q10:13</text>
</g>
<!-- q7:13&#45;&gt;q10:13 -->
<g id="edge10" class="edge">
<title>q7:13&#45;&gt;q10:13</title>
<path fill="none" stroke="black" d="M993.07,-205.35C1032.8,-210.98 1095.7,-219.88 1140.9,-226.27"/>
<polygon fill="black" stroke="black" points="1140.31,-229.72 1150.7,-227.67 1141.29,-222.79 1140.31,-229.72"/>
<text text-anchor="middle" x="1072.2" y="-226.94" font-family="Times,serif" font-size="14.00">content/535:13</text>
</g>
<!-- q14:164 -->
<g id="node11" class="node">
<title>q14:164</title>
<ellipse fill="none" stroke="black" stroke-width="2" cx="1439.8" cy="-92" rx="52.26" ry="18"/>
<text text-anchor="middle" x="1439.8" y="-87.33" font-family="Times,serif" font-size="14.00">q14:164</text>
</g>
<!-- q11:231&#45;&gt;q14:164 -->
<g id="edge11" class="edge">
<title>q11:231&#45;&gt;q14:164</title>
<path fill="none" stroke="black" d="M1241.7,-137.03C1276.4,-129.18 1326.1,-117.94 1369.5,-108 1374.1,-106.95 1378.9,-105.85 1383.7,-104.75"/>
<polygon fill="black" stroke="black" points="1384.37,-108.19 1393.32,-102.52 1382.79,-101.37 1384.37,-108.19"/>
<text text-anchor="middle" x="1318.1" y="-135.94" font-family="Times,serif" font-size="14.00">RCPT/250:164</text>
</g>
<!-- q15:118 -->
<g id="node12" class="node">
<title>q15:118</title>
<ellipse fill="none" stroke="black" stroke-width="2" cx="1439.8" cy="-179" rx="52.26" ry="18"/>
<text text-anchor="middle" x="1439.8" y="-174.32" font-family="Times,serif" font-size="14.00">q15:118</text>
</g>
<!-- q11:231&#45;&gt;q15:118 -->
<g id="edge12" class="edge">
<title>q11:231&#45;&gt;q15:118</title>
<path fill="none" stroke="black" d="M1246.3,-153.48C1284.6,-158.55 1338,-165.63 1378.8,-171.05"/>
<polygon fill="black" stroke="black" points="1378.13,-174.49 1388.5,-172.33 1379.04,-167.55 1378.13,-174.49"/>
<text text-anchor="middle" x="1318.1" y="-172.94" font-family="Times,serif" font-size="14.00">DATA/354:67</text>
</g>
<!-- q13:4 -->
<g id="node13" class="node">
<title>q13:4</title>
<ellipse fill="none" stroke="black" stroke-width="2" cx="1439.8" cy="-268" rx="39.63" ry="18"/>
<text text-anchor="middle" x="1439.8" y="-263.32" font-family="Times,serif" font-size="14.00">q13:4</text>
</g>
<!-- q10:13&#45;&gt;q13:4 -->
<g id="edge13" class="edge">
<title>q10:13&#45;&gt;q13:4</title>
<path fill="none" stroke="black" d="M1240.9,-240.12C1282.7,-246.01 1346,-254.93 1389.6,-261.08"/>
<polygon fill="black" stroke="black" points="1388.91,-264.52 1399.3,-262.45 1389.89,-257.59 1388.91,-264.52"/>
<text text-anchor="middle" x="1318.1" y="-260.94" font-family="Times,serif" font-size="14.00">λ/451:4</text>
</g>
<!-- q14:164&#45;&gt;q8:231 -->
<g id="edge21" class="edge">
<title>q14:164&#45;&gt;q8:231</title>
<path fill="none" stroke="black" d="M1386.8,-93.12C1328,-94.57 1229.1,-97.55 1144.2,-102.75 1099.4,-105.49 1048.7,-109.93 1011.1,-113.47"/>
<polygon fill="black" stroke="black" points="1011.02,-109.96 1001.4,-114.4 1011.68,-116.93 1011.02,-109.96"/>
<text text-anchor="middle" x="1196.5" y="-106.95" font-family="Times,serif" font-size="14.00">RCPT/250:3</text>
</g>
<!-- q16:3095 -->
<g id="node16" class="node">
<title>q16:3095</title>
<ellipse fill="none" stroke="black" stroke-width="2" cx="1694.6" cy="-91" rx="58.57" ry="18"/>
<text text-anchor="middle" x="1694.6" y="-86.33" font-family="Times,serif" font-size="14.00">q16:3095</text>
</g>
<!-- q14:164&#45;&gt;q16:3095 -->
<g id="edge22" class="edge">
<title>q14:164&#45;&gt;q16:3095</title>
<path fill="none" stroke="black" d="M1492.8,-91.79C1530.8,-91.64 1582.5,-91.44 1624,-91.28"/>
<polygon fill="black" stroke="black" points="1623.9,-94.78 1633.89,-91.24 1623.87,-87.78 1623.9,-94.78"/>
<text text-anchor="middle" x="1564" y="-95.95" font-family="Times,serif" font-size="14.00">DATA/354:118</text>
</g>
<!-- q17:43 -->
<g id="node21" class="node">
<title>q17:43</title>
<ellipse fill="none" stroke="black" stroke-width="2" cx="1694.6" cy="-37" rx="45.95" ry="18"/>
<text text-anchor="middle" x="1694.6" y="-32.33" font-family="Times,serif" font-size="14.00">q17:43</text>
</g>
<!-- q14:164&#45;&gt;q17:43 -->
<g id="edge23" class="edge">
<title>q14:164&#45;&gt;q17:43</title>
<path fill="none" stroke="black" d="M1479,-79.4C1489,-76.33 1499.9,-73.23 1510,-70.75 1553.2,-60.19 1602.9,-51.24 1639.7,-45.23"/>
<polygon fill="black" stroke="black" points="1639.8,-48.76 1649.11,-43.7 1638.67,-41.85 1639.8,-48.76"/>
<text text-anchor="middle" x="1564" y="-74.95" font-family="Times,serif" font-size="14.00">DATA/550:43</text>
</g>
<!-- q15:118&#45;&gt;q15:118 -->
<g id="edge24" class="edge">
<title>q15:118&#45;&gt;q15:118</title>
<path fill="none" stroke="black" d="M1418.2,-196.04C1413.8,-205.86 1421,-215 1439.8,-215 1450.6,-215 1457.6,-211.94 1460.7,-207.47"/>
<polygon fill="black" stroke="black" points="1464.19,-207.72 1461.22,-197.55 1457.2,-207.35 1464.19,-207.72"/>
<text text-anchor="middle" x="1439.8" y="-218.94" font-family="Times,serif" font-size="14.00">content/λ:51</text>
</g>
<!-- q19:44 -->
<g id="node22" class="node">
<title>q19:44</title>
<ellipse fill="none" stroke="black" stroke-width="2" cx="1694.6" cy="-234" rx="45.95" ry="18"/>
<text text-anchor="middle" x="1694.6" y="-229.32" font-family="Times,serif" font-size="14.00">q19:44</text>
</g>
<!-- q15:118&#45;&gt;q19:44 -->
<g id="edge25" class="edge">
<title>q15:118&#45;&gt;q19:44</title>
<path fill="none" stroke="black" d="M1479.4,-191.54C1489.3,-194.53 1500,-197.56 1510,-200 1553.2,-210.52 1602.9,-219.54 1639.7,-225.64"/>
<polygon fill="black" stroke="black" points="1638.67,-229.02 1649.11,-227.18 1639.81,-222.11 1638.67,-229.02"/>
<text text-anchor="middle" x="1564" y="-224.94" font-family="Times,serif" font-size="14.00">content/554:44</text>
</g>
<!-- q18:23 -->
<g id="node23" class="node">
<title>q18:23</title>
<ellipse fill="none" stroke="black" stroke-width="2" cx="1694.6" cy="-180" rx="45.95" ry="18"/>
<text text-anchor="middle" x="1694.6" y="-175.32" font-family="Times,serif" font-size="14.00">q18:23</text>
</g>
<!-- q15:118&#45;&gt;q18:23 -->
<g id="edge26" class="edge">
<title>q15:118&#45;&gt;q18:23</title>
<path fill="none" stroke="black" d="M1492.8,-179.21C1534.7,-179.37 1593.4,-179.6 1636.5,-179.77"/>
<polygon fill="black" stroke="black" points="1636.37,-183.27 1646.39,-179.81 1636.4,-176.27 1636.37,-183.27"/>
<text text-anchor="middle" x="1564" y="-182.94" font-family="Times,serif" font-size="14.00">content/250:23</text>
</g>
<!-- q21:6 -->
<g id="node14" class="node">
<title>q21:6</title>
<ellipse fill="none" stroke="black" stroke-width="2" cx="1958.4" cy="-72" rx="39.63" ry="18"/>
<text text-anchor="middle" x="1958.4" y="-67.33" font-family="Times,serif" font-size="14.00">q21:6</text>
</g>
<!-- q26:6 -->
<g id="node15" class="node">
<title>q26:6</title>
<ellipse fill="none" stroke="black" stroke-width="2" cx="2199.4" cy="-72" rx="39.63" ry="18"/>
<text text-anchor="middle" x="2199.4" y="-67.33" font-family="Times,serif" font-size="14.00">q26:6</text>
</g>
<!-- q21:6&#45;&gt;q26:6 -->
<g id="edge14" class="edge">
<title>q21:6&#45;&gt;q26:6</title>
<path fill="none" stroke="black" d="M1998.9,-72C2039.5,-72 2103.1,-72 2147.5,-72"/>
<polygon fill="black" stroke="black" points="2147.39,-75.5 2157.39,-72 2147.39,-68.5 2147.39,-75.5"/>
<text text-anchor="middle" x="2078.9" y="-75.95" font-family="Times,serif" font-size="14.00">RSET/250:6</text>
</g>
<!-- q16:3095&#45;&gt;q21:6 -->
<g id="edge15" class="edge">
<title>q16:3095&#45;&gt;q21:6</title>
<path fill="none" stroke="black" d="M1751.3,-85.45C1758,-84.84 1764.7,-84.26 1771.2,-83.75 1817.1,-80.1 1869.5,-76.88 1907,-74.73"/>
<polygon fill="black" stroke="black" points="1906.8,-78.25 1916.59,-74.19 1906.41,-71.26 1906.8,-78.25"/>
<text text-anchor="middle" x="1829.7" y="-87.95" font-family="Times,serif" font-size="14.00">content/554:6</text>
</g>
<!-- q16:3095&#45;&gt;q16:3095 -->
<g id="edge16" class="edge">
<title>q16:3095&#45;&gt;q16:3095</title>
<path fill="none" stroke="black" d="M1671.3,-108.41C1666.9,-118.09 1674.7,-127 1694.6,-127 1706.1,-127 1713.5,-124.02 1716.9,-119.64"/>
<polygon fill="black" stroke="black" points="1720.36,-120.19 1717.77,-109.92 1713.39,-119.57 1720.36,-120.19"/>
<text text-anchor="middle" x="1694.6" y="-130.94" font-family="Times,serif" font-size="14.00">content/λ:2977</text>
</g>
<!-- q20:111 -->
<g id="node17" class="node">
<title>q20:111</title>
<ellipse fill="none" stroke="black" stroke-width="2" cx="1958.4" cy="-18" rx="52.26" ry="18"/>
<text text-anchor="middle" x="1958.4" y="-13.32" font-family="Times,serif" font-size="14.00">q20:111</text>
</g>
<!-- q16:3095&#45;&gt;q20:111 -->
<g id="edge17" class="edge">
<title>q16:3095&#45;&gt;q20:111</title>
<path fill="none" stroke="black" d="M1728.9,-75.64C1736.8,-71.89 1745.3,-67.84 1753.2,-64 1761.2,-60.03 1762.7,-57.7 1771.2,-54.75 1812.1,-40.52 1860.1,-31.22 1897.1,-25.53"/>
<polygon fill="black" stroke="black" points="1897.33,-29.03 1906.7,-24.1 1896.3,-22.11 1897.33,-29.03"/>
<text text-anchor="middle" x="1829.7" y="-58.95" font-family="Times,serif" font-size="14.00">content/250:111</text>
</g>
<!-- q22:1 -->
<g id="node18" class="node">
<title>q22:1</title>
<ellipse fill="none" stroke="black" stroke-width="2" cx="1958.4" cy="-126" rx="39.63" ry="18"/>
<text text-anchor="middle" x="1958.4" y="-121.33" font-family="Times,serif" font-size="14.00">q22:1</text>
</g>
<!-- q16:3095&#45;&gt;q22:1 -->
<g id="edge18" class="edge">
<title>q16:3095&#45;&gt;q22:1</title>
<path fill="none" stroke="black" d="M1749.5,-98.21C1796.2,-104.45 1863.1,-113.4 1908.3,-119.44"/>
<polygon fill="black" stroke="black" points="1907.72,-122.89 1918.1,-120.75 1908.65,-115.96 1907.72,-122.89"/>
<text text-anchor="middle" x="1829.7" y="-120.95" font-family="Times,serif" font-size="14.00">content/550:1</text>
</g>
<!-- q25:111 -->
<g id="node19" class="node">
<title>q25:111</title>
<ellipse fill="none" stroke="black" stroke-width="2" cx="2199.4" cy="-18" rx="52.26" ry="18"/>
<text text-anchor="middle" x="2199.4" y="-13.32" font-family="Times,serif" font-size="14.00">q25:111</text>
</g>
<!-- q20:111&#45;&gt;q25:111 -->
<g id="edge19" class="edge">
<title>q20:111&#45;&gt;q25:111</title>
<path fill="none" stroke="black" d="M2011.6,-18C2048,-18 2096.7,-18 2135.3,-18"/>
<polygon fill="black" stroke="black" points="2134.89,-21.5 2144.89,-18 2134.89,-14.5 2134.89,-21.5"/>
<text text-anchor="middle" x="2078.9" y="-21.95" font-family="Times,serif" font-size="14.00">QUIT/221:111</text>
</g>
<!-- q27:1 -->
<g id="node20" class="node">
<title>q27:1</title>
<ellipse fill="none" stroke="black" stroke-width="2" cx="2199.4" cy="-126" rx="39.63" ry="18"/>
<text text-anchor="middle" x="2199.4" y="-121.33" font-family="Times,serif" font-size="14.00">q27:1</text>
</g>
<!-- q22:1&#45;&gt;q27:1 -->
<g id="edge20" class="edge">
<title>q22:1&#45;&gt;q27:1</title>
<path fill="none" stroke="black" d="M1998.9,-126C2039.5,-126 2103.1,-126 2147.5,-126"/>
<polygon fill="black" stroke="black" points="2147.39,-129.5 2157.39,-126 2147.39,-122.5 2147.39,-129.5"/>
<text text-anchor="middle" x="2078.9" y="-129.94" font-family="Times,serif" font-size="14.00">RSET/250:1</text>
</g>
<!-- q24:44 -->
<g id="node24" class="node">
<title>q24:44</title>
<ellipse fill="none" stroke="black" stroke-width="2" cx="1958.4" cy="-234" rx="45.95" ry="18"/>
<text text-anchor="middle" x="1958.4" y="-229.32" font-family="Times,serif" font-size="14.00">q24:44</text>
</g>
<!-- q19:44&#45;&gt;q24:44 -->
<g id="edge27" class="edge">
<title>q19:44&#45;&gt;q24:44</title>
<path fill="none" stroke="black" d="M1741.5,-234C1785.7,-234 1852.6,-234 1900.2,-234"/>
<polygon fill="black" stroke="black" points="1900.09,-237.5 1910.09,-234 1900.09,-230.5 1900.09,-237.5"/>
<text text-anchor="middle" x="1829.7" y="-237.94" font-family="Times,serif" font-size="14.00">RSET/250:44</text>
</g>
<!-- q23:23 -->
<g id="node25" class="node">
<title>q23:23</title>
<ellipse fill="none" stroke="black" stroke-width="2" cx="1958.4" cy="-180" rx="45.95" ry="18"/>
<text text-anchor="middle" x="1958.4" y="-175.32" font-family="Times,serif" font-size="14.00">q23:23</text>
</g>
<!-- q18:23&#45;&gt;q23:23 -->
<g id="edge28" class="edge">
<title>q18:23&#45;&gt;q23:23</title>
<path fill="none" stroke="black" d="M1741.5,-180C1785.7,-180 1852.6,-180 1900.2,-180"/>
<polygon fill="black" stroke="black" points="1900.09,-183.5 1910.09,-180 1900.09,-176.5 1900.09,-183.5"/>
<text text-anchor="middle" x="1829.7" y="-183.94" font-family="Times,serif" font-size="14.00">QUIT/221:23</text>
</g>
<!-- q1:244 -->
<g id="node26" class="node">
<title>q1:244</title>
<ellipse fill="none" stroke="black" stroke-width="2" cx="257.84" cy="-101" rx="45.95" ry="18"/>
<text text-anchor="middle" x="257.84" y="-96.33" font-family="Times,serif" font-size="14.00">q1:244</text>
</g>
<!-- q1:244&#45;&gt;q2:242 -->
<g id="edge29" class="edge">
<title>q1:244&#45;&gt;q2:242</title>
<path fill="none" stroke="black" d="M302.14,-107.17C340,-112.56 395.17,-120.42 436.02,-126.24"/>
<polygon fill="black" stroke="black" points="435.51,-129.7 445.9,-127.65 436.49,-122.77 435.51,-129.7"/>
<text text-anchor="middle" x="374.66" y="-128.94" font-family="Times,serif" font-size="14.00">EHLO/250:242</text>
</g>
<!-- q3:2 -->
<g id="node27" class="node">
<title>q3:2</title>
<ellipse fill="none" stroke="black" stroke-width="2" cx="491.48" cy="-74" rx="33.32" ry="18"/>
<text text-anchor="middle" x="491.48" y="-69.33" font-family="Times,serif" font-size="14.00">q3:2</text>
</g>
<!-- q1:244&#45;&gt;q3:2 -->
<g id="edge30" class="edge">
<title>q1:244&#45;&gt;q3:2</title>
<path fill="none" stroke="black" d="M296.21,-90.12C304.56,-88.03 313.43,-86.08 321.79,-84.75 363.53,-78.09 411.69,-75.53 445.85,-74.55"/>
<polygon fill="black" stroke="black" points="445.89,-78.05 455.8,-74.31 445.71,-71.05 445.89,-78.05"/>
<text text-anchor="middle" x="374.66" y="-88.95" font-family="Times,serif" font-size="14.00">EHLO/λ:2</text>
</g>
<!-- q3:2&#45;&gt;q5:230 -->
<g id="edge31" class="edge">
<title>q3:2&#45;&gt;q5:230</title>
<path fill="none" stroke="black" d="M523.05,-66.83C533.28,-64.75 544.79,-62.78 555.43,-61.75 593,-58.13 635.47,-59.48 668.4,-61.72"/>
<polygon fill="black" stroke="black" points="667.89,-65.19 678.12,-62.43 668.4,-58.21 667.89,-65.19"/>
<text text-anchor="middle" x="608.31" y="-65.95" font-family="Times,serif" font-size="14.00">AUTH/235:2</text>
</g>
<!-- q0:244 -->
<g id="node28" class="node">
<title>q0:244</title>
<ellipse fill="none" stroke="black" stroke-width="2" cx="53.95" cy="-101" rx="49.95" ry="49.95"/>
<ellipse fill="none" stroke="black" stroke-width="2" cx="53.95" cy="-101" rx="53.95" ry="53.95"/>
<text text-anchor="middle" x="53.95" y="-96.33" font-family="Times,serif" font-size="14.00">q0:244</text>
</g>
<!-- q0:244&#45;&gt;q1:244 -->
<g id="edge32" class="edge">
<title>q0:244&#45;&gt;q1:244</title>
<path fill="none" stroke="black" d="M104.85,-101C133.64,-101 169.94,-101 199.84,-101"/>
<polygon fill="black" stroke="black" points="199.45,-104.5 209.45,-101 199.45,-97.5 199.45,-104.5"/>
<text text-anchor="middle" x="157.89" y="-104.95" font-family="Times,serif" font-size="14.00">λ/220:244</text>
</g>
</g>
</svg>
