<?xml version="1.0" encoding="UTF-8" standalone="no"?>
<!DOCTYPE svg PUBLIC "-//W3C//DTD SVG 1.1//EN"
 "http://www.w3.org/Graphics/SVG/1.1/DTD/svg11.dtd">
<!-- Generated by graphviz version 12.0.0 (20240803.0821)
 -->
<!-- Pages: 1 -->
<svg width="2240pt" height="246pt"
 viewBox="0.00 0.00 2240.36 246.00" xmlns="http://www.w3.org/2000/svg" xmlns:xlink="http://www.w3.org/1999/xlink">
<g id="graph0" class="graph" transform="scale(1 1) rotate(0) translate(4 242)">
<polygon fill="white" stroke="none" points="-4,4 -4,-242 2236.36,-242 2236.36,4 -4,4"/>
<!-- q8:2 -->
<g id="node1" class="node">
<title>q8:2</title>
<ellipse fill="none" stroke="black" stroke-width="2" cx="954.27" cy="-79" rx="33.32" ry="18"/>
<text text-anchor="middle" x="954.27" y="-74.33" font-family="Times,serif" font-size="14.00">q8:2</text>
</g>
<!-- q11:2 -->
<g id="node2" class="node">
<title>q11:2</title>
<ellipse fill="none" stroke="black" stroke-width="2" cx="1190.2" cy="-79" rx="39.63" ry="18"/>
<text text-anchor="middle" x="1190.2" y="-74.33" font-family="Times,serif" font-size="14.00">q11:2</text>
</g>
<!-- q8:2&#45;&gt;q11:2 -->
<g id="edge1" class="edge">
<title>q8:2&#45;&gt;q11:2</title>
<path fill="none" stroke="black" d="M988.29,-79C1027.3,-79 1092.7,-79 1138.3,-79"/>
<polygon fill="black" stroke="black" points="1138.19,-82.5 1148.19,-79 1138.19,-75.5 1138.19,-82.5"/>
<text text-anchor="middle" x="1072.2" y="-82.95" font-family="Times,serif" font-size="14.00">RSET/250:2</text>
</g>
<!-- q4:232 -->
<g id="node3" class="node">
<title>q4:232</title>
<ellipse fill="none" stroke="black" stroke-width="2" cx="725.13" cy="-108" rx="45.95" ry="18"/>
<text text-anchor="middle" x="725.13" y="-103.33" font-family="Times,serif" font-size="14.00">q4:232</text>
</g>
<!-- q4:232&#45;&gt;q8:2 -->
<g id="edge2" class="edge">
<title>q4:232&#45;&gt;q8:2</title>
<path fill="none" stroke="black" d="M765.26,-98.3C773.11,-96.59 781.33,-94.97 789.08,-93.75 829.41,-87.4 875.79,-83.55 908.95,-81.38"/>
<polygon fill="black" stroke="black" points="908.82,-84.9 918.58,-80.78 908.38,-77.91 908.82,-84.9"/>
<text text-anchor="middle" x="839.7" y="-96.95" font-family="Times,serif" font-size="14.00">MAIL/553:2</text>
</g>
<!-- q7:230 -->
<g id="node4" class="node">
<title>q7:230</title>
<ellipse fill="none" stroke="black" stroke-width="2" cx="954.27" cy="-133" rx="45.95" ry="18"/>
<text text-anchor="middle" x="954.27" y="-128.32" font-family="Times,serif" font-size="14.00">q7:230</text>
</g>
<!-- q4:232&#45;&gt;q7:230 -->
<g id="edge3" class="edge">
<title>q4:232&#45;&gt;q7:230</title>
<path fill="none" stroke="black" d="M770.46,-112.88C806.89,-116.89 858.69,-122.59 897.85,-126.9"/>
<polygon fill="black" stroke="black" points="897.22,-130.35 907.54,-127.96 897.99,-123.39 897.22,-130.35"/>
<text text-anchor="middle" x="839.7" y="-128.94" font-family="Times,serif" font-size="14.00">MAIL/250:230</text>
</g>
<!-- q9:234 -->
<g id="node5" class="node">
<title>q9:234</title>
<ellipse fill="none" stroke="black" stroke-width="2" cx="1190.2" cy="-159" rx="45.95" ry="18"/>
<text text-anchor="middle" x="1190.2" y="-154.32" font-family="Times,serif" font-size="14.00">q9:234</text>
</g>
<!-- q7:230&#45;&gt;q9:234 -->
<g id="edge4" class="edge">
<title>q7:230&#45;&gt;q9:234</title>
<path fill="none" stroke="black" d="M999.54,-137.92C1037.6,-142.15 1092.7,-148.27 1133.6,-152.83"/>
<polygon fill="black" stroke="black" points="1133.27,-156.31 1143.6,-153.93 1134.04,-149.36 1133.27,-156.31"/>
<text text-anchor="middle" x="1072.2" y="-154.94" font-family="Times,serif" font-size="14.00">RCPT/250:230</text>
</g>
<!-- q13:165 -->
<g id="node6" class="node">
<title>q13:165</title>
<ellipse fill="none" stroke="black" stroke-width="2" cx="1427.1" cy="-159" rx="52.26" ry="18"/>
<text text-anchor="middle" x="1427.1" y="-154.32" font-family="Times,serif" font-size="14.00">q13:165</text>
</g>
<!-- q9:234&#45;&gt;q13:165 -->
<g id="edge5" class="edge">
<title>q9:234&#45;&gt;q13:165</title>
<path fill="none" stroke="black" d="M1237,-159C1272.9,-159 1323.1,-159 1362.8,-159"/>
<polygon fill="black" stroke="black" points="1362.69,-162.5 1372.69,-159 1362.69,-155.5 1362.69,-162.5"/>
<text text-anchor="middle" x="1305.5" y="-162.94" font-family="Times,serif" font-size="14.00">RCPT/250:165</text>
</g>
<!-- q12:3331 -->
<g id="node7" class="node">
<title>q12:3331</title>
<ellipse fill="none" stroke="black" stroke-width="2" cx="1675.2" cy="-72" rx="58.57" ry="18"/>
<text text-anchor="middle" x="1675.2" y="-67.33" font-family="Times,serif" font-size="14.00">q12:3331</text>
</g>
<!-- q9:234&#45;&gt;q12:3331 -->
<g id="edge6" class="edge">
<title>q9:234&#45;&gt;q12:3331</title>
<path fill="none" stroke="black" d="M1229.3,-148.81C1266.3,-139.17 1324.2,-124.72 1374.9,-114.75 1428.9,-104.12 1442.9,-103.87 1497.4,-96 1534.3,-90.67 1575.6,-85.05 1609,-80.58"/>
<polygon fill="black" stroke="black" points="1609.05,-84.11 1618.5,-79.32 1608.12,-77.17 1609.05,-84.11"/>
<text text-anchor="middle" x="1427.1" y="-117.95" font-family="Times,serif" font-size="14.00">DATA/354:69</text>
</g>
<!-- q13:165&#45;&gt;q12:3331 -->
<g id="edge19" class="edge">
<title>q13:165&#45;&gt;q12:3331</title>
<path fill="none" stroke="black" d="M1465.2,-145.88C1507.6,-130.91 1577.1,-106.34 1624.2,-89.69"/>
<polygon fill="black" stroke="black" points="1625.11,-93.08 1633.37,-86.45 1622.78,-86.48 1625.11,-93.08"/>
<text text-anchor="middle" x="1548" y="-136.94" font-family="Times,serif" font-size="14.00">DATA/354:119</text>
</g>
<!-- q18:43 -->
<g id="node17" class="node">
<title>q18:43</title>
<ellipse fill="none" stroke="black" stroke-width="2" cx="1675.2" cy="-161" rx="45.95" ry="18"/>
<text text-anchor="middle" x="1675.2" y="-156.32" font-family="Times,serif" font-size="14.00">q18:43</text>
</g>
<!-- q13:165&#45;&gt;q18:43 -->
<g id="edge17" class="edge">
<title>q13:165&#45;&gt;q18:43</title>
<path fill="none" stroke="black" d="M1480.4,-159.07C1514.1,-159.15 1559,-159.33 1598.6,-159.75 1604.7,-159.81 1611,-159.89 1617.4,-159.99"/>
<polygon fill="black" stroke="black" points="1617.13,-163.49 1627.19,-160.14 1617.24,-156.49 1617.13,-163.49"/>
<text text-anchor="middle" x="1548" y="-162.94" font-family="Times,serif" font-size="14.00">DATA/550:43</text>
</g>
<!-- q19:3 -->
<g id="node18" class="node">
<title>q19:3</title>
<ellipse fill="none" stroke="black" stroke-width="2" cx="1675.2" cy="-220" rx="39.63" ry="18"/>
<text text-anchor="middle" x="1675.2" y="-215.32" font-family="Times,serif" font-size="14.00">q19:3</text>
</g>
<!-- q13:165&#45;&gt;q19:3 -->
<g id="edge18" class="edge">
<title>q13:165&#45;&gt;q19:3</title>
<path fill="none" stroke="black" d="M1470.2,-170.17C1479.1,-172.48 1488.6,-174.86 1497.4,-177 1542.2,-187.86 1553.8,-188.72 1598.6,-199.75 1608.5,-202.18 1619.1,-204.92 1629.1,-207.58"/>
<polygon fill="black" stroke="black" points="1627.97,-210.9 1638.54,-210.13 1629.8,-204.14 1627.97,-210.9"/>
<text text-anchor="middle" x="1548" y="-202.94" font-family="Times,serif" font-size="14.00">RCPT/250:3</text>
</g>
<!-- q12:3331&#45;&gt;q12:3331 -->
<g id="edge22" class="edge">
<title>q12:3331&#45;&gt;q12:3331</title>
<path fill="none" stroke="black" d="M1652.5,-89.41C1648.3,-99.09 1655.8,-108 1675.2,-108 1686.4,-108 1693.7,-105.02 1697,-100.64"/>
<polygon fill="black" stroke="black" points="1700.47,-101.17 1697.78,-90.92 1693.49,-100.61 1700.47,-101.17"/>
<text text-anchor="middle" x="1675.2" y="-111.95" font-family="Times,serif" font-size="14.00">content/λ:3143</text>
</g>
<!-- q15:60 -->
<g id="node8" class="node">
<title>q15:60</title>
<ellipse fill="none" stroke="black" stroke-width="2" cx="1939" cy="-126" rx="45.95" ry="18"/>
<text text-anchor="middle" x="1939" y="-121.33" font-family="Times,serif" font-size="14.00">q15:60</text>
</g>
<!-- q12:3331&#45;&gt;q15:60 -->
<g id="edge21" class="edge">
<title>q12:3331&#45;&gt;q15:60</title>
<path fill="none" stroke="black" d="M1719.2,-84.71C1729.8,-87.63 1741.2,-90.59 1751.8,-93 1795.9,-103.01 1846.5,-111.81 1883.8,-117.79"/>
<polygon fill="black" stroke="black" points="1882.98,-121.2 1893.4,-119.32 1884.08,-114.29 1882.98,-121.2"/>
<text text-anchor="middle" x="1810.3" y="-118.95" font-family="Times,serif" font-size="14.00">content/554:60</text>
</g>
<!-- q17:127 -->
<g id="node19" class="node">
<title>q17:127</title>
<ellipse fill="none" stroke="black" stroke-width="2" cx="1939" cy="-72" rx="52.26" ry="18"/>
<text text-anchor="middle" x="1939" y="-67.33" font-family="Times,serif" font-size="14.00">q17:127</text>
</g>
<!-- q12:3331&#45;&gt;q17:127 -->
<g id="edge23" class="edge">
<title>q12:3331&#45;&gt;q17:127</title>
<path fill="none" stroke="black" d="M1734.6,-72C1776.2,-72 1832,-72 1874.6,-72"/>
<polygon fill="black" stroke="black" points="1874.49,-75.5 1884.49,-72 1874.49,-68.5 1874.49,-75.5"/>
<text text-anchor="middle" x="1810.3" y="-75.95" font-family="Times,serif" font-size="14.00">content/250:127</text>
</g>
<!-- q16:1 -->
<g id="node20" class="node">
<title>q16:1</title>
<ellipse fill="none" stroke="black" stroke-width="2" cx="1939" cy="-18" rx="39.63" ry="18"/>
<text text-anchor="middle" x="1939" y="-13.32" font-family="Times,serif" font-size="14.00">q16:1</text>
</g>
<!-- q12:3331&#45;&gt;q16:1 -->
<g id="edge24" class="edge">
<title>q12:3331&#45;&gt;q16:1</title>
<path fill="none" stroke="black" d="M1718.8,-59.23C1729.5,-56.23 1741,-53.2 1751.8,-50.75 1798.1,-40.2 1851.5,-31.13 1889.2,-25.22"/>
<polygon fill="black" stroke="black" points="1889.55,-28.71 1898.9,-23.72 1888.49,-21.79 1889.55,-28.71"/>
<text text-anchor="middle" x="1810.3" y="-54.95" font-family="Times,serif" font-size="14.00">content/550:1</text>
</g>
<!-- q21:60 -->
<g id="node9" class="node">
<title>q21:60</title>
<ellipse fill="none" stroke="black" stroke-width="2" cx="2180.1" cy="-126" rx="45.95" ry="18"/>
<text text-anchor="middle" x="2180.1" y="-121.33" font-family="Times,serif" font-size="14.00">q21:60</text>
</g>
<!-- q15:60&#45;&gt;q21:60 -->
<g id="edge7" class="edge">
<title>q15:60&#45;&gt;q21:60</title>
<path fill="none" stroke="black" d="M1985.8,-126C2024.6,-126 2080.4,-126 2122.1,-126"/>
<polygon fill="black" stroke="black" points="2121.89,-129.5 2131.89,-126 2121.89,-122.5 2121.89,-129.5"/>
<text text-anchor="middle" x="2059.6" y="-129.94" font-family="Times,serif" font-size="14.00">RSET/250:60</text>
</g>
<!-- q1:244 -->
<g id="node10" class="node">
<title>q1:244</title>
<ellipse fill="none" stroke="black" stroke-width="2" cx="257.84" cy="-73" rx="45.95" ry="18"/>
<text text-anchor="middle" x="257.84" y="-68.33" font-family="Times,serif" font-size="14.00">q1:244</text>
</g>
<!-- q2:242 -->
<g id="node11" class="node">
<title>q2:242</title>
<ellipse fill="none" stroke="black" stroke-width="2" cx="491.48" cy="-106" rx="45.95" ry="18"/>
<text text-anchor="middle" x="491.48" y="-101.33" font-family="Times,serif" font-size="14.00">q2:242</text>
</g>
<!-- q1:244&#45;&gt;q2:242 -->
<g id="edge8" class="edge">
<title>q1:244&#45;&gt;q2:242</title>
<path fill="none" stroke="black" d="M302.14,-79.17C340,-84.56 395.17,-92.42 436.02,-98.24"/>
<polygon fill="black" stroke="black" points="435.51,-101.7 445.9,-99.65 436.49,-94.77 435.51,-101.7"/>
<text text-anchor="middle" x="374.66" y="-99.95" font-family="Times,serif" font-size="14.00">EHLO/250:242</text>
</g>
<!-- q3:2 -->
<g id="node12" class="node">
<title>q3:2</title>
<ellipse fill="none" stroke="black" stroke-width="2" cx="491.48" cy="-46" rx="33.32" ry="18"/>
<text text-anchor="middle" x="491.48" y="-41.33" font-family="Times,serif" font-size="14.00">q3:2</text>
</g>
<!-- q1:244&#45;&gt;q3:2 -->
<g id="edge9" class="edge">
<title>q1:244&#45;&gt;q3:2</title>
<path fill="none" stroke="black" d="M298.66,-63.83C306.31,-62.29 314.27,-60.84 321.79,-59.75 363.67,-53.66 411.82,-50.07 445.93,-48.1"/>
<polygon fill="black" stroke="black" points="446.07,-51.59 455.86,-47.55 445.68,-44.6 446.07,-51.59"/>
<text text-anchor="middle" x="374.66" y="-63.95" font-family="Times,serif" font-size="14.00">EHLO/λ:2</text>
</g>
<!-- q2:242&#45;&gt;q4:232 -->
<g id="edge10" class="edge">
<title>q2:242&#45;&gt;q4:232</title>
<path fill="none" stroke="black" d="M538.25,-106.4C575.21,-106.71 627.42,-107.17 667.1,-107.51"/>
<polygon fill="black" stroke="black" points="666.92,-111.01 676.95,-107.6 666.98,-104.01 666.92,-111.01"/>
<text text-anchor="middle" x="608.31" y="-110.95" font-family="Times,serif" font-size="14.00">AUTH/235:230</text>
</g>
<!-- q6:11 -->
<g id="node13" class="node">
<title>q6:11</title>
<ellipse fill="none" stroke="black" stroke-width="2" cx="725.13" cy="-49" rx="39.63" ry="18"/>
<text text-anchor="middle" x="725.13" y="-44.33" font-family="Times,serif" font-size="14.00">q6:11</text>
</g>
<!-- q2:242&#45;&gt;q6:11 -->
<g id="edge11" class="edge">
<title>q2:242&#45;&gt;q6:11</title>
<path fill="none" stroke="black" d="M526.89,-93.58C536.1,-90.47 546.09,-87.31 555.43,-84.75 595.77,-73.71 642.32,-64.07 676.29,-57.59"/>
<polygon fill="black" stroke="black" points="676.63,-61.09 685.81,-55.8 675.34,-54.21 676.63,-61.09"/>
<text text-anchor="middle" x="608.31" y="-88.95" font-family="Times,serif" font-size="14.00">AUTH/535:11</text>
</g>
<!-- q5:1 -->
<g id="node14" class="node">
<title>q5:1</title>
<ellipse fill="none" stroke="black" stroke-width="2" cx="839.7" cy="-178" rx="33.32" ry="18"/>
<text text-anchor="middle" x="839.7" y="-173.32" font-family="Times,serif" font-size="14.00">q5:1</text>
</g>
<!-- q2:242&#45;&gt;q5:1 -->
<g id="edge12" class="edge">
<title>q2:242&#45;&gt;q5:1</title>
<path fill="none" stroke="black" d="M525.82,-118.78C535.3,-122.1 545.69,-125.45 555.43,-128 639.11,-149.85 739.21,-165.02 795.22,-172.55"/>
<polygon fill="black" stroke="black" points="794.61,-176 804.98,-173.84 795.52,-169.06 794.61,-176"/>
<text text-anchor="middle" x="608.31" y="-154.94" font-family="Times,serif" font-size="14.00">AUTH/λ:1</text>
</g>
<!-- q3:2&#45;&gt;q4:232 -->
<g id="edge13" class="edge">
<title>q3:2&#45;&gt;q4:232</title>
<path fill="none" stroke="black" d="M520.6,-36.03C556.2,-25.28 618.09,-13.04 661.18,-39.75 676.47,-49.23 667.5,-62.32 679.18,-76 682.11,-79.43 685.47,-82.67 689.02,-85.69"/>
<polygon fill="black" stroke="black" points="686.82,-88.42 696.87,-91.77 691.11,-82.88 686.82,-88.42"/>
<text text-anchor="middle" x="608.31" y="-43.95" font-family="Times,serif" font-size="14.00">AUTH/235:2</text>
</g>
<!-- q10:11 -->
<g id="node15" class="node">
<title>q10:11</title>
<ellipse fill="none" stroke="black" stroke-width="2" cx="954.27" cy="-25" rx="45.95" ry="18"/>
<text text-anchor="middle" x="954.27" y="-20.32" font-family="Times,serif" font-size="14.00">q10:11</text>
</g>
<!-- q6:11&#45;&gt;q10:11 -->
<g id="edge14" class="edge">
<title>q6:11&#45;&gt;q10:11</title>
<path fill="none" stroke="black" d="M764.66,-44.93C801.22,-41.07 856.56,-35.22 897.85,-30.86"/>
<polygon fill="black" stroke="black" points="898.02,-34.36 907.59,-29.83 897.28,-27.4 898.02,-34.36"/>
<text text-anchor="middle" x="839.7" y="-45.95" font-family="Times,serif" font-size="14.00">AUTH/334:11</text>
</g>
<!-- q5:1&#45;&gt;q9:234 -->
<g id="edge15" class="edge">
<title>q5:1&#45;&gt;q9:234</title>
<path fill="none" stroke="black" d="M873.8,-179.26C927.14,-180.84 1035.3,-182.25 1126.2,-172 1130.1,-171.56 1134.1,-171 1138.1,-170.36"/>
<polygon fill="black" stroke="black" points="1138.67,-173.81 1147.91,-168.62 1137.45,-166.92 1138.67,-173.81"/>
<text text-anchor="middle" x="954.27" y="-183.94" font-family="Times,serif" font-size="14.00">MAIL/250:1</text>
</g>
<!-- q14:11 -->
<g id="node16" class="node">
<title>q14:11</title>
<ellipse fill="none" stroke="black" stroke-width="2" cx="1190.2" cy="-25" rx="45.95" ry="18"/>
<text text-anchor="middle" x="1190.2" y="-20.32" font-family="Times,serif" font-size="14.00">q14:11</text>
</g>
<!-- q10:11&#45;&gt;q14:11 -->
<g id="edge16" class="edge">
<title>q10:11&#45;&gt;q14:11</title>
<path fill="none" stroke="black" d="M1001.2,-25C1038.6,-25 1091.6,-25 1131.8,-25"/>
<polygon fill="black" stroke="black" points="1131.79,-28.5 1141.79,-25 1131.79,-21.5 1131.79,-28.5"/>
<text text-anchor="middle" x="1072.2" y="-28.95" font-family="Times,serif" font-size="14.00">content/535:11</text>
</g>
<!-- q20:4 -->
<g id="node23" class="node">
<title>q20:4</title>
<ellipse fill="none" stroke="black" stroke-width="2" cx="1427.1" cy="-25" rx="39.63" ry="18"/>
<text text-anchor="middle" x="1427.1" y="-20.32" font-family="Times,serif" font-size="14.00">q20:4</text>
</g>
<!-- q14:11&#45;&gt;q20:4 -->
<g id="edge27" class="edge">
<title>q14:11&#45;&gt;q20:4</title>
<path fill="none" stroke="black" d="M1237,-25C1276.7,-25 1334.1,-25 1375.2,-25"/>
<polygon fill="black" stroke="black" points="1375.09,-28.5 1385.09,-25 1375.09,-21.5 1375.09,-28.5"/>
<text text-anchor="middle" x="1305.5" y="-28.95" font-family="Times,serif" font-size="14.00">λ/451:4</text>
</g>
<!-- q19:3&#45;&gt;q9:234 -->
<g id="edge20" class="edge">
<title>q19:3&#45;&gt;q9:234</title>
<path fill="none" stroke="black" d="M1634.8,-220.84C1598.9,-221.25 1544.5,-220.96 1497.4,-217 1388.4,-207.83 1360.4,-205.62 1254.1,-180 1248.2,-178.57 1242,-176.82 1235.9,-174.96"/>
<polygon fill="black" stroke="black" points="1237.23,-171.71 1226.64,-171.98 1235.09,-178.38 1237.23,-171.71"/>
<text text-anchor="middle" x="1427.1" y="-218.94" font-family="Times,serif" font-size="14.00">RCPT/250:3</text>
</g>
<!-- q23:127 -->
<g id="node21" class="node">
<title>q23:127</title>
<ellipse fill="none" stroke="black" stroke-width="2" cx="2180.1" cy="-72" rx="52.26" ry="18"/>
<text text-anchor="middle" x="2180.1" y="-67.33" font-family="Times,serif" font-size="14.00">q23:127</text>
</g>
<!-- q17:127&#45;&gt;q23:127 -->
<g id="edge25" class="edge">
<title>q17:127&#45;&gt;q23:127</title>
<path fill="none" stroke="black" d="M1992.2,-72C2028.6,-72 2077.3,-72 2115.9,-72"/>
<polygon fill="black" stroke="black" points="2115.49,-75.5 2125.49,-72 2115.49,-68.5 2115.49,-75.5"/>
<text text-anchor="middle" x="2059.6" y="-75.95" font-family="Times,serif" font-size="14.00">QUIT/221:127</text>
</g>
<!-- q22:1 -->
<g id="node22" class="node">
<title>q22:1</title>
<ellipse fill="none" stroke="black" stroke-width="2" cx="2180.1" cy="-18" rx="39.63" ry="18"/>
<text text-anchor="middle" x="2180.1" y="-13.32" font-family="Times,serif" font-size="14.00">q22:1</text>
</g>
<!-- q16:1&#45;&gt;q22:1 -->
<g id="edge26" class="edge">
<title>q16:1&#45;&gt;q22:1</title>
<path fill="none" stroke="black" d="M1979.5,-18C2020.2,-18 2083.7,-18 2128.1,-18"/>
<polygon fill="black" stroke="black" points="2127.99,-21.5 2137.99,-18 2127.99,-14.5 2127.99,-21.5"/>
<text text-anchor="middle" x="2059.6" y="-21.95" font-family="Times,serif" font-size="14.00">RSET/250:1</text>
</g>
<!-- q0:244 -->
<g id="node24" class="node">
<title>q0:244</title>
<ellipse fill="none" stroke="black" stroke-width="2" cx="53.95" cy="-73" rx="49.95" ry="49.95"/>
<ellipse fill="none" stroke="black" stroke-width="2" cx="53.95" cy="-73" rx="53.95" ry="53.95"/>
<text text-anchor="middle" x="53.95" y="-68.33" font-family="Times,serif" font-size="14.00">q0:244</text>
</g>
<!-- q0:244&#45;&gt;q1:244 -->
<g id="edge28" class="edge">
<title>q0:244&#45;&gt;q1:244</title>
<path fill="none" stroke="black" d="M104.85,-73C133.64,-73 169.94,-73 199.84,-73"/>
<polygon fill="black" stroke="black" points="199.45,-76.5 209.45,-73 199.45,-69.5 199.45,-76.5"/>
<text text-anchor="middle" x="157.89" y="-76.95" font-family="Times,serif" font-size="14.00">λ/220:244</text>
</g>
</g>
</svg>
