<?xml version="1.0" encoding="UTF-8" standalone="no"?>
<!DOCTYPE svg PUBLIC "-//W3C//DTD SVG 1.1//EN"
 "http://www.w3.org/Graphics/SVG/1.1/DTD/svg11.dtd">
<!-- Generated by graphviz version 12.0.0 (20240803.0821)
 -->
<!-- Pages: 1 -->
<svg width="2260pt" height="267pt"
 viewBox="0.00 0.00 2259.66 267.00" xmlns="http://www.w3.org/2000/svg" xmlns:xlink="http://www.w3.org/1999/xlink">
<g id="graph0" class="graph" transform="scale(1 1) rotate(0) translate(4 263)">
<polygon fill="white" stroke="none" points="-4,4 -4,-263 2255.66,-263 2255.66,4 -4,4"/>
<!-- q5:12 -->
<g id="node1" class="node">
<title>q5:12</title>
<ellipse fill="none" stroke="black" stroke-width="2" cx="725.13" cy="-202" rx="39.63" ry="18"/>
<text text-anchor="middle" x="725.13" y="-197.32" font-family="Times,serif" font-size="14.00">q5:12</text>
</g>
<!-- q8:12 -->
<g id="node2" class="node">
<title>q8:12</title>
<ellipse fill="none" stroke="black" stroke-width="2" cx="954.27" cy="-202" rx="39.63" ry="18"/>
<text text-anchor="middle" x="954.27" y="-197.32" font-family="Times,serif" font-size="14.00">q8:12</text>
</g>
<!-- q5:12&#45;&gt;q8:12 -->
<g id="edge1" class="edge">
<title>q5:12&#45;&gt;q8:12</title>
<path fill="none" stroke="black" d="M765.69,-202C803.6,-202 861,-202 902.32,-202"/>
<polygon fill="black" stroke="black" points="902.27,-205.5 912.27,-202 902.27,-198.5 902.27,-205.5"/>
<text text-anchor="middle" x="839.7" y="-205.94" font-family="Times,serif" font-size="14.00">AUTH/334:12</text>
</g>
<!-- q11:12 -->
<g id="node3" class="node">
<title>q11:12</title>
<ellipse fill="none" stroke="black" stroke-width="2" cx="1196.5" cy="-202" rx="45.95" ry="18"/>
<text text-anchor="middle" x="1196.5" y="-197.32" font-family="Times,serif" font-size="14.00">q11:12</text>
</g>
<!-- q8:12&#45;&gt;q11:12 -->
<g id="edge2" class="edge">
<title>q8:12&#45;&gt;q11:12</title>
<path fill="none" stroke="black" d="M994.67,-202C1033.8,-202 1094.1,-202 1138.4,-202"/>
<polygon fill="black" stroke="black" points="1138.39,-205.5 1148.39,-202 1138.39,-198.5 1138.39,-205.5"/>
<text text-anchor="middle" x="1072.2" y="-205.94" font-family="Times,serif" font-size="14.00">content/535:12</text>
</g>
<!-- q14:4 -->
<g id="node4" class="node">
<title>q14:4</title>
<ellipse fill="none" stroke="black" stroke-width="2" cx="1439.8" cy="-202" rx="39.63" ry="18"/>
<text text-anchor="middle" x="1439.8" y="-197.32" font-family="Times,serif" font-size="14.00">q14:4</text>
</g>
<!-- q11:12&#45;&gt;q14:4 -->
<g id="edge3" class="edge">
<title>q11:12&#45;&gt;q14:4</title>
<path fill="none" stroke="black" d="M1243.1,-202C1284.4,-202 1345.2,-202 1388,-202"/>
<polygon fill="black" stroke="black" points="1387.79,-205.5 1397.79,-202 1387.79,-198.5 1387.79,-205.5"/>
<text text-anchor="middle" x="1318.1" y="-205.94" font-family="Times,serif" font-size="14.00">λ/451:4</text>
</g>
<!-- q15:3187 -->
<g id="node5" class="node">
<title>q15:3187</title>
<ellipse fill="none" stroke="black" stroke-width="2" cx="1694.6" cy="-187" rx="58.57" ry="18"/>
<text text-anchor="middle" x="1694.6" y="-182.32" font-family="Times,serif" font-size="14.00">q15:3187</text>
</g>
<!-- q15:3187&#45;&gt;q15:3187 -->
<g id="edge4" class="edge">
<title>q15:3187&#45;&gt;q15:3187</title>
<path fill="none" stroke="black" d="M1671.3,-204.41C1666.9,-214.09 1674.7,-223 1694.6,-223 1706.1,-223 1713.5,-220.02 1716.9,-215.64"/>
<polygon fill="black" stroke="black" points="1720.36,-216.19 1717.77,-205.92 1713.39,-215.57 1720.36,-216.19"/>
<text text-anchor="middle" x="1694.6" y="-226.94" font-family="Times,serif" font-size="14.00">content/λ:3069</text>
</g>
<!-- q20:5 -->
<g id="node6" class="node">
<title>q20:5</title>
<ellipse fill="none" stroke="black" stroke-width="2" cx="1958.4" cy="-241" rx="39.63" ry="18"/>
<text text-anchor="middle" x="1958.4" y="-236.32" font-family="Times,serif" font-size="14.00">q20:5</text>
</g>
<!-- q15:3187&#45;&gt;q20:5 -->
<g id="edge5" class="edge">
<title>q15:3187&#45;&gt;q20:5</title>
<path fill="none" stroke="black" d="M1738.6,-199.71C1749.2,-202.63 1760.5,-205.59 1771.2,-208 1817.4,-218.51 1870.8,-227.67 1908.6,-233.66"/>
<polygon fill="black" stroke="black" points="1907.78,-237.07 1918.2,-235.17 1908.87,-230.16 1907.78,-237.07"/>
<text text-anchor="middle" x="1829.7" y="-233.94" font-family="Times,serif" font-size="14.00">content/554:5</text>
</g>
<!-- q21:1 -->
<g id="node7" class="node">
<title>q21:1</title>
<ellipse fill="none" stroke="black" stroke-width="2" cx="1958.4" cy="-187" rx="39.63" ry="18"/>
<text text-anchor="middle" x="1958.4" y="-182.32" font-family="Times,serif" font-size="14.00">q21:1</text>
</g>
<!-- q15:3187&#45;&gt;q21:1 -->
<g id="edge6" class="edge">
<title>q15:3187&#45;&gt;q21:1</title>
<path fill="none" stroke="black" d="M1754,-187C1799.7,-187 1862.6,-187 1906.3,-187"/>
<polygon fill="black" stroke="black" points="1906.29,-190.5 1916.29,-187 1906.29,-183.5 1906.29,-190.5"/>
<text text-anchor="middle" x="1829.7" y="-190.94" font-family="Times,serif" font-size="14.00">content/550:1</text>
</g>
<!-- q19:112 -->
<g id="node8" class="node">
<title>q19:112</title>
<ellipse fill="none" stroke="black" stroke-width="2" cx="1958.4" cy="-133" rx="52.26" ry="18"/>
<text text-anchor="middle" x="1958.4" y="-128.32" font-family="Times,serif" font-size="14.00">q19:112</text>
</g>
<!-- q15:3187&#45;&gt;q19:112 -->
<g id="edge7" class="edge">
<title>q15:3187&#45;&gt;q19:112</title>
<path fill="none" stroke="black" d="M1738.2,-174.22C1748.9,-171.23 1760.4,-168.2 1771.2,-165.75 1813.4,-156.13 1861.5,-147.73 1898.3,-141.85"/>
<polygon fill="black" stroke="black" points="1898.48,-145.37 1907.8,-140.34 1897.38,-138.45 1898.48,-145.37"/>
<text text-anchor="middle" x="1829.7" y="-168.94" font-family="Times,serif" font-size="14.00">content/250:112</text>
</g>
<!-- q25:5 -->
<g id="node9" class="node">
<title>q25:5</title>
<ellipse fill="none" stroke="black" stroke-width="2" cx="2199.4" cy="-241" rx="39.63" ry="18"/>
<text text-anchor="middle" x="2199.4" y="-236.32" font-family="Times,serif" font-size="14.00">q25:5</text>
</g>
<!-- q20:5&#45;&gt;q25:5 -->
<g id="edge8" class="edge">
<title>q20:5&#45;&gt;q25:5</title>
<path fill="none" stroke="black" d="M1998.9,-241C2039.5,-241 2103.1,-241 2147.5,-241"/>
<polygon fill="black" stroke="black" points="2147.39,-244.5 2157.39,-241 2147.39,-237.5 2147.39,-244.5"/>
<text text-anchor="middle" x="2078.9" y="-244.94" font-family="Times,serif" font-size="14.00">RSET/250:5</text>
</g>
<!-- q26:1 -->
<g id="node10" class="node">
<title>q26:1</title>
<ellipse fill="none" stroke="black" stroke-width="2" cx="2199.4" cy="-187" rx="39.63" ry="18"/>
<text text-anchor="middle" x="2199.4" y="-182.32" font-family="Times,serif" font-size="14.00">q26:1</text>
</g>
<!-- q21:1&#45;&gt;q26:1 -->
<g id="edge9" class="edge">
<title>q21:1&#45;&gt;q26:1</title>
<path fill="none" stroke="black" d="M1998.9,-187C2039.5,-187 2103.1,-187 2147.5,-187"/>
<polygon fill="black" stroke="black" points="2147.39,-190.5 2157.39,-187 2147.39,-183.5 2147.39,-190.5"/>
<text text-anchor="middle" x="2078.9" y="-190.94" font-family="Times,serif" font-size="14.00">RSET/250:1</text>
</g>
<!-- q24:112 -->
<g id="node11" class="node">
<title>q24:112</title>
<ellipse fill="none" stroke="black" stroke-width="2" cx="2199.4" cy="-133" rx="52.26" ry="18"/>
<text text-anchor="middle" x="2199.4" y="-128.32" font-family="Times,serif" font-size="14.00">q24:112</text>
</g>
<!-- q19:112&#45;&gt;q24:112 -->
<g id="edge10" class="edge">
<title>q19:112&#45;&gt;q24:112</title>
<path fill="none" stroke="black" d="M2011.6,-133C2048,-133 2096.7,-133 2135.3,-133"/>
<polygon fill="black" stroke="black" points="2134.89,-136.5 2144.89,-133 2134.89,-129.5 2134.89,-136.5"/>
<text text-anchor="middle" x="2078.9" y="-136.94" font-family="Times,serif" font-size="14.00">QUIT/221:112</text>
</g>
<!-- q12:161 -->
<g id="node12" class="node">
<title>q12:161</title>
<ellipse fill="none" stroke="black" stroke-width="2" cx="1439.8" cy="-147" rx="52.26" ry="18"/>
<text text-anchor="middle" x="1439.8" y="-142.32" font-family="Times,serif" font-size="14.00">q12:161</text>
</g>
<!-- q12:161&#45;&gt;q15:3187 -->
<g id="edge11" class="edge">
<title>q12:161&#45;&gt;q15:3187</title>
<path fill="none" stroke="black" d="M1488.4,-154.58C1495.7,-155.73 1503,-156.9 1510,-158 1550,-164.33 1594.9,-171.42 1630.2,-177"/>
<polygon fill="black" stroke="black" points="1629.48,-180.43 1639.9,-178.53 1630.57,-173.52 1629.48,-180.43"/>
<text text-anchor="middle" x="1564" y="-177.94" font-family="Times,serif" font-size="14.00">DATA/354:118</text>
</g>
<!-- q16:43 -->
<g id="node13" class="node">
<title>q16:43</title>
<ellipse fill="none" stroke="black" stroke-width="2" cx="1694.6" cy="-133" rx="45.95" ry="18"/>
<text text-anchor="middle" x="1694.6" y="-128.32" font-family="Times,serif" font-size="14.00">q16:43</text>
</g>
<!-- q12:161&#45;&gt;q16:43 -->
<g id="edge12" class="edge">
<title>q12:161&#45;&gt;q16:43</title>
<path fill="none" stroke="black" d="M1491,-142.18C1497.4,-141.65 1503.9,-141.16 1510,-140.75 1552.4,-137.95 1600.3,-135.96 1636.6,-134.7"/>
<polygon fill="black" stroke="black" points="1636.51,-138.21 1646.39,-134.37 1636.27,-131.21 1636.51,-138.21"/>
<text text-anchor="middle" x="1564" y="-144.94" font-family="Times,serif" font-size="14.00">DATA/550:43</text>
</g>
<!-- q2:242 -->
<g id="node14" class="node">
<title>q2:242</title>
<ellipse fill="none" stroke="black" stroke-width="2" cx="491.48" cy="-176" rx="45.95" ry="18"/>
<text text-anchor="middle" x="491.48" y="-171.32" font-family="Times,serif" font-size="14.00">q2:242</text>
</g>
<!-- q2:242&#45;&gt;q5:12 -->
<g id="edge13" class="edge">
<title>q2:242&#45;&gt;q5:12</title>
<path fill="none" stroke="black" d="M536.6,-180.95C575.99,-185.37 633.63,-191.84 674.59,-196.44"/>
<polygon fill="black" stroke="black" points="674.11,-199.91 684.44,-197.54 674.89,-192.95 674.11,-199.91"/>
<text text-anchor="middle" x="608.31" y="-197.94" font-family="Times,serif" font-size="14.00">AUTH/535:12</text>
</g>
<!-- q4:232 -->
<g id="node15" class="node">
<title>q4:232</title>
<ellipse fill="none" stroke="black" stroke-width="2" cx="725.13" cy="-135" rx="45.95" ry="18"/>
<text text-anchor="middle" x="725.13" y="-130.32" font-family="Times,serif" font-size="14.00">q4:232</text>
</g>
<!-- q2:242&#45;&gt;q4:232 -->
<g id="edge14" class="edge">
<title>q2:242&#45;&gt;q4:232</title>
<path fill="none" stroke="black" d="M532.02,-166.63C539.77,-164.92 547.84,-163.21 555.43,-161.75 593.46,-154.44 636.6,-147.62 669.73,-142.7"/>
<polygon fill="black" stroke="black" points="670.12,-146.18 679.5,-141.26 669.1,-139.26 670.12,-146.18"/>
<text text-anchor="middle" x="608.31" y="-165.94" font-family="Times,serif" font-size="14.00">AUTH/235:230</text>
</g>
<!-- q7:229 -->
<g id="node16" class="node">
<title>q7:229</title>
<ellipse fill="none" stroke="black" stroke-width="2" cx="954.27" cy="-142" rx="45.95" ry="18"/>
<text text-anchor="middle" x="954.27" y="-137.32" font-family="Times,serif" font-size="14.00">q7:229</text>
</g>
<!-- q4:232&#45;&gt;q7:229 -->
<g id="edge15" class="edge">
<title>q4:232&#45;&gt;q7:229</title>
<path fill="none" stroke="black" d="M771.82,-136.41C807.78,-137.52 858.09,-139.07 896.61,-140.25"/>
<polygon fill="black" stroke="black" points="896.03,-143.73 906.14,-140.54 896.25,-136.74 896.03,-143.73"/>
<text text-anchor="middle" x="839.7" y="-143.94" font-family="Times,serif" font-size="14.00">MAIL/250:229</text>
</g>
<!-- q6:3 -->
<g id="node17" class="node">
<title>q6:3</title>
<ellipse fill="none" stroke="black" stroke-width="2" cx="954.27" cy="-88" rx="33.32" ry="18"/>
<text text-anchor="middle" x="954.27" y="-83.33" font-family="Times,serif" font-size="14.00">q6:3</text>
</g>
<!-- q4:232&#45;&gt;q6:3 -->
<g id="edge16" class="edge">
<title>q4:232&#45;&gt;q6:3</title>
<path fill="none" stroke="black" d="M762.57,-123.71C771.21,-121.23 780.43,-118.75 789.08,-116.75 829.68,-107.34 876.56,-99.42 909.81,-94.29"/>
<polygon fill="black" stroke="black" points="910.11,-97.78 919.47,-92.82 909.06,-90.86 910.11,-97.78"/>
<text text-anchor="middle" x="839.7" y="-120.95" font-family="Times,serif" font-size="14.00">MAIL/553:3</text>
</g>
<!-- q10:229 -->
<g id="node18" class="node">
<title>q10:229</title>
<ellipse fill="none" stroke="black" stroke-width="2" cx="1196.5" cy="-142" rx="52.26" ry="18"/>
<text text-anchor="middle" x="1196.5" y="-137.32" font-family="Times,serif" font-size="14.00">q10:229</text>
</g>
<!-- q7:229&#45;&gt;q10:229 -->
<g id="edge17" class="edge">
<title>q7:229&#45;&gt;q10:229</title>
<path fill="none" stroke="black" d="M1001.02,-142C1038.1,-142 1090.8,-142 1131.9,-142"/>
<polygon fill="black" stroke="black" points="1131.69,-145.5 1141.69,-142 1131.69,-138.5 1131.69,-145.5"/>
<text text-anchor="middle" x="1072.2" y="-145.94" font-family="Times,serif" font-size="14.00">RCPT/250:229</text>
</g>
<!-- q9:3 -->
<g id="node19" class="node">
<title>q9:3</title>
<ellipse fill="none" stroke="black" stroke-width="2" cx="1196.5" cy="-88" rx="33.32" ry="18"/>
<text text-anchor="middle" x="1196.5" y="-83.33" font-family="Times,serif" font-size="14.00">q9:3</text>
</g>
<!-- q6:3&#45;&gt;q9:3 -->
<g id="edge18" class="edge">
<title>q6:3&#45;&gt;q9:3</title>
<path fill="none" stroke="black" d="M988.42,-88C1030.7,-88 1103.8,-88 1150.9,-88"/>
<polygon fill="black" stroke="black" points="1150.79,-91.5 1160.79,-88 1150.79,-84.5 1150.79,-91.5"/>
<text text-anchor="middle" x="1072.2" y="-91.95" font-family="Times,serif" font-size="14.00">RSET/250:3</text>
</g>
<!-- q10:229&#45;&gt;q12:161 -->
<g id="edge22" class="edge">
<title>q10:229&#45;&gt;q12:161</title>
<path fill="none" stroke="black" d="M1249.5,-143.08C1286.5,-143.84 1336.3,-144.88 1375.5,-145.69"/>
<polygon fill="black" stroke="black" points="1375.22,-149.18 1385.29,-145.89 1375.36,-142.19 1375.22,-149.18"/>
<text text-anchor="middle" x="1318.1" y="-149.94" font-family="Times,serif" font-size="14.00">RCPT/250:161</text>
</g>
<!-- q13:142 -->
<g id="node22" class="node">
<title>q13:142</title>
<ellipse fill="none" stroke="black" stroke-width="2" cx="1439.8" cy="-58" rx="52.26" ry="18"/>
<text text-anchor="middle" x="1439.8" y="-53.33" font-family="Times,serif" font-size="14.00">q13:142</text>
</g>
<!-- q10:229&#45;&gt;q13:142 -->
<g id="edge23" class="edge">
<title>q10:229&#45;&gt;q13:142</title>
<path fill="none" stroke="black" d="M1234.9,-128.97C1276.7,-114.41 1344.6,-90.79 1390.4,-74.84"/>
<polygon fill="black" stroke="black" points="1391.49,-78.17 1399.77,-71.56 1389.18,-71.56 1391.49,-78.17"/>
<text text-anchor="middle" x="1318.1" y="-121.95" font-family="Times,serif" font-size="14.00">DATA/354:68</text>
</g>
<!-- q1:244 -->
<g id="node20" class="node">
<title>q1:244</title>
<ellipse fill="none" stroke="black" stroke-width="2" cx="257.84" cy="-149" rx="45.95" ry="18"/>
<text text-anchor="middle" x="257.84" y="-144.32" font-family="Times,serif" font-size="14.00">q1:244</text>
</g>
<!-- q1:244&#45;&gt;q2:242 -->
<g id="edge19" class="edge">
<title>q1:244&#45;&gt;q2:242</title>
<path fill="none" stroke="black" d="M302.96,-154.14C340.55,-158.52 394.77,-164.84 435.24,-169.56"/>
<polygon fill="black" stroke="black" points="434.69,-173.02 445.03,-170.7 435.5,-166.07 434.69,-173.02"/>
<text text-anchor="middle" x="374.66" y="-171.94" font-family="Times,serif" font-size="14.00">EHLO/250:242</text>
</g>
<!-- q3:2 -->
<g id="node21" class="node">
<title>q3:2</title>
<ellipse fill="none" stroke="black" stroke-width="2" cx="491.48" cy="-122" rx="33.32" ry="18"/>
<text text-anchor="middle" x="491.48" y="-117.33" font-family="Times,serif" font-size="14.00">q3:2</text>
</g>
<!-- q1:244&#45;&gt;q3:2 -->
<g id="edge20" class="edge">
<title>q1:244&#45;&gt;q3:2</title>
<path fill="none" stroke="black" d="M298.66,-139.83C306.31,-138.29 314.27,-136.84 321.79,-135.75 363.67,-129.66 411.82,-126.07 445.93,-124.1"/>
<polygon fill="black" stroke="black" points="446.07,-127.6 455.86,-123.54 445.68,-120.61 446.07,-127.6"/>
<text text-anchor="middle" x="374.66" y="-139.94" font-family="Times,serif" font-size="14.00">EHLO/λ:2</text>
</g>
<!-- q3:2&#45;&gt;q4:232 -->
<g id="edge21" class="edge">
<title>q3:2&#45;&gt;q4:232</title>
<path fill="none" stroke="black" d="M525.55,-120.32C559.63,-119.02 614.26,-118.12 661.18,-122.75 665.01,-123.13 668.95,-123.63 672.9,-124.21"/>
<polygon fill="black" stroke="black" points="672.07,-127.62 682.51,-125.79 673.2,-120.71 672.07,-127.62"/>
<text text-anchor="middle" x="608.31" y="-126.95" font-family="Times,serif" font-size="14.00">AUTH/235:2</text>
</g>
<!-- q13:142&#45;&gt;q13:142 -->
<g id="edge24" class="edge">
<title>q13:142&#45;&gt;q13:142</title>
<path fill="none" stroke="black" d="M1418.2,-75.04C1413.8,-84.86 1421,-94 1439.8,-94 1450.6,-94 1457.6,-90.94 1460.7,-86.47"/>
<polygon fill="black" stroke="black" points="1464.19,-86.72 1461.22,-76.55 1457.2,-86.35 1464.19,-86.72"/>
<text text-anchor="middle" x="1439.8" y="-97.95" font-family="Times,serif" font-size="14.00">content/λ:74</text>
</g>
<!-- q17:44 -->
<g id="node23" class="node">
<title>q17:44</title>
<ellipse fill="none" stroke="black" stroke-width="2" cx="1694.6" cy="-72" rx="45.95" ry="18"/>
<text text-anchor="middle" x="1694.6" y="-67.33" font-family="Times,serif" font-size="14.00">q17:44</text>
</g>
<!-- q13:142&#45;&gt;q17:44 -->
<g id="edge25" class="edge">
<title>q13:142&#45;&gt;q17:44</title>
<path fill="none" stroke="black" d="M1492.2,-60.85C1534.2,-63.18 1593.5,-66.46 1636.9,-68.86"/>
<polygon fill="black" stroke="black" points="1636.41,-72.34 1646.59,-69.4 1636.8,-65.35 1636.41,-72.34"/>
<text text-anchor="middle" x="1564" y="-71.95" font-family="Times,serif" font-size="14.00">content/554:44</text>
</g>
<!-- q18:24 -->
<g id="node24" class="node">
<title>q18:24</title>
<ellipse fill="none" stroke="black" stroke-width="2" cx="1694.6" cy="-18" rx="45.95" ry="18"/>
<text text-anchor="middle" x="1694.6" y="-13.32" font-family="Times,serif" font-size="14.00">q18:24</text>
</g>
<!-- q13:142&#45;&gt;q18:24 -->
<g id="edge26" class="edge">
<title>q13:142&#45;&gt;q18:24</title>
<path fill="none" stroke="black" d="M1483.5,-47.26C1492.2,-45.26 1501.4,-43.32 1510,-41.75 1552.7,-34.01 1601.3,-27.83 1637.8,-23.72"/>
<polygon fill="black" stroke="black" points="1638.14,-27.2 1647.7,-22.62 1637.37,-20.24 1638.14,-27.2"/>
<text text-anchor="middle" x="1564" y="-45.95" font-family="Times,serif" font-size="14.00">content/250:24</text>
</g>
<!-- q22:44 -->
<g id="node25" class="node">
<title>q22:44</title>
<ellipse fill="none" stroke="black" stroke-width="2" cx="1958.4" cy="-72" rx="45.95" ry="18"/>
<text text-anchor="middle" x="1958.4" y="-67.33" font-family="Times,serif" font-size="14.00">q22:44</text>
</g>
<!-- q17:44&#45;&gt;q22:44 -->
<g id="edge27" class="edge">
<title>q17:44&#45;&gt;q22:44</title>
<path fill="none" stroke="black" d="M1741.5,-72C1785.7,-72 1852.6,-72 1900.2,-72"/>
<polygon fill="black" stroke="black" points="1900.09,-75.5 1910.09,-72 1900.09,-68.5 1900.09,-75.5"/>
<text text-anchor="middle" x="1829.7" y="-75.95" font-family="Times,serif" font-size="14.00">RSET/250:44</text>
</g>
<!-- q23:24 -->
<g id="node26" class="node">
<title>q23:24</title>
<ellipse fill="none" stroke="black" stroke-width="2" cx="1958.4" cy="-18" rx="45.95" ry="18"/>
<text text-anchor="middle" x="1958.4" y="-13.32" font-family="Times,serif" font-size="14.00">q23:24</text>
</g>
<!-- q18:24&#45;&gt;q23:24 -->
<g id="edge28" class="edge">
<title>q18:24&#45;&gt;q23:24</title>
<path fill="none" stroke="black" d="M1741.5,-18C1785.7,-18 1852.6,-18 1900.2,-18"/>
<polygon fill="black" stroke="black" points="1900.09,-21.5 1910.09,-18 1900.09,-14.5 1900.09,-21.5"/>
<text text-anchor="middle" x="1829.7" y="-21.95" font-family="Times,serif" font-size="14.00">QUIT/221:24</text>
</g>
<!-- q0:244 -->
<g id="node27" class="node">
<title>q0:244</title>
<ellipse fill="none" stroke="black" stroke-width="2" cx="53.95" cy="-149" rx="49.95" ry="49.95"/>
<ellipse fill="none" stroke="black" stroke-width="2" cx="53.95" cy="-149" rx="53.95" ry="53.95"/>
<text text-anchor="middle" x="53.95" y="-144.32" font-family="Times,serif" font-size="14.00">q0:244</text>
</g>
<!-- q0:244&#45;&gt;q1:244 -->
<g id="edge29" class="edge">
<title>q0:244&#45;&gt;q1:244</title>
<path fill="none" stroke="black" d="M104.85,-149C133.64,-149 169.94,-149 199.84,-149"/>
<polygon fill="black" stroke="black" points="199.45,-152.5 209.45,-149 199.45,-145.5 199.45,-152.5"/>
<text text-anchor="middle" x="157.89" y="-152.94" font-family="Times,serif" font-size="14.00">λ/220:244</text>
</g>
</g>
</svg>
