<?xml version="1.0" encoding="UTF-8" standalone="no"?>
<!DOCTYPE svg PUBLIC "-//W3C//DTD SVG 1.1//EN"
 "http://www.w3.org/Graphics/SVG/1.1/DTD/svg11.dtd">
<!-- Generated by graphviz version 12.0.0 (20240803.0821)
 -->
<!-- Pages: 1 -->
<svg width="2247pt" height="295pt"
 viewBox="0.00 0.00 2247.06 295.00" xmlns="http://www.w3.org/2000/svg" xmlns:xlink="http://www.w3.org/1999/xlink">
<g id="graph0" class="graph" transform="scale(1 1) rotate(0) translate(4 291)">
<polygon fill="white" stroke="none" points="-4,4 -4,-291 2243.06,-291 2243.06,4 -4,4"/>
<!-- q4:231 -->
<g id="node1" class="node">
<title>q4:231</title>
<ellipse fill="none" stroke="black" stroke-width="2" cx="725.13" cy="-167" rx="45.95" ry="18"/>
<text text-anchor="middle" x="725.13" y="-162.32" font-family="Times,serif" font-size="14.00">q4:231</text>
</g>
<!-- q7:3 -->
<g id="node2" class="node">
<title>q7:3</title>
<ellipse fill="none" stroke="black" stroke-width="2" cx="954.27" cy="-205" rx="33.32" ry="18"/>
<text text-anchor="middle" x="954.27" y="-200.32" font-family="Times,serif" font-size="14.00">q7:3</text>
</g>
<!-- q4:231&#45;&gt;q7:3 -->
<g id="edge1" class="edge">
<title>q4:231&#45;&gt;q7:3</title>
<path fill="none" stroke="black" d="M767.4,-175.06C774.62,-176.41 782.06,-177.78 789.08,-179 830.02,-186.14 876.87,-193.48 910.01,-198.53"/>
<polygon fill="black" stroke="black" points="909.22,-201.95 919.63,-199.99 910.27,-195.03 909.22,-201.95"/>
<text text-anchor="middle" x="839.7" y="-197.94" font-family="Times,serif" font-size="14.00">MAIL/553:3</text>
</g>
<!-- q8:228 -->
<g id="node3" class="node">
<title>q8:228</title>
<ellipse fill="none" stroke="black" stroke-width="2" cx="954.27" cy="-151" rx="45.95" ry="18"/>
<text text-anchor="middle" x="954.27" y="-146.32" font-family="Times,serif" font-size="14.00">q8:228</text>
</g>
<!-- q4:231&#45;&gt;q8:228 -->
<g id="edge2" class="edge">
<title>q4:231&#45;&gt;q8:228</title>
<path fill="none" stroke="black" d="M770.82,-163.17C776.96,-162.68 783.17,-162.19 789.08,-161.75 824.85,-159.09 865.04,-156.45 896.7,-154.45"/>
<polygon fill="black" stroke="black" points="896.69,-157.96 906.45,-153.84 896.25,-150.97 896.69,-157.96"/>
<text text-anchor="middle" x="839.7" y="-164.94" font-family="Times,serif" font-size="14.00">MAIL/250:228</text>
</g>
<!-- q11:3 -->
<g id="node4" class="node">
<title>q11:3</title>
<ellipse fill="none" stroke="black" stroke-width="2" cx="1190.2" cy="-205" rx="39.63" ry="18"/>
<text text-anchor="middle" x="1190.2" y="-200.32" font-family="Times,serif" font-size="14.00">q11:3</text>
</g>
<!-- q7:3&#45;&gt;q11:3 -->
<g id="edge3" class="edge">
<title>q7:3&#45;&gt;q11:3</title>
<path fill="none" stroke="black" d="M988.29,-205C1027.3,-205 1092.7,-205 1138.3,-205"/>
<polygon fill="black" stroke="black" points="1138.19,-208.5 1148.19,-205 1138.19,-201.5 1138.19,-208.5"/>
<text text-anchor="middle" x="1072.2" y="-208.94" font-family="Times,serif" font-size="14.00">RSET/250:3</text>
</g>
<!-- q9:232 -->
<g id="node5" class="node">
<title>q9:232</title>
<ellipse fill="none" stroke="black" stroke-width="2" cx="1190.2" cy="-142" rx="45.95" ry="18"/>
<text text-anchor="middle" x="1190.2" y="-137.32" font-family="Times,serif" font-size="14.00">q9:232</text>
</g>
<!-- q8:228&#45;&gt;q9:232 -->
<g id="edge4" class="edge">
<title>q8:228&#45;&gt;q9:232</title>
<path fill="none" stroke="black" d="M1000.92,-149.24C1038.5,-147.8 1092,-145.74 1132.4,-144.19"/>
<polygon fill="black" stroke="black" points="1132.23,-147.7 1142.09,-143.81 1131.96,-140.7 1132.23,-147.7"/>
<text text-anchor="middle" x="1072.2" y="-151.94" font-family="Times,serif" font-size="14.00">RCPT/250:228</text>
</g>
<!-- q12:142 -->
<g id="node6" class="node">
<title>q12:142</title>
<ellipse fill="none" stroke="black" stroke-width="2" cx="1427.1" cy="-79" rx="52.26" ry="18"/>
<text text-anchor="middle" x="1427.1" y="-74.33" font-family="Times,serif" font-size="14.00">q12:142</text>
</g>
<!-- q9:232&#45;&gt;q12:142 -->
<g id="edge5" class="edge">
<title>q9:232&#45;&gt;q12:142</title>
<path fill="none" stroke="black" d="M1217.7,-126.76C1228.7,-121.01 1241.7,-114.88 1254.1,-110.75 1290.1,-98.76 1331.9,-90.91 1365.3,-86.02"/>
<polygon fill="black" stroke="black" points="1365.39,-89.54 1374.8,-84.68 1364.41,-82.61 1365.39,-89.54"/>
<text text-anchor="middle" x="1305.5" y="-114.95" font-family="Times,serif" font-size="14.00">RCPT/250:142</text>
</g>
<!-- q13:90 -->
<g id="node7" class="node">
<title>q13:90</title>
<ellipse fill="none" stroke="black" stroke-width="2" cx="1427.1" cy="-200" rx="45.95" ry="18"/>
<text text-anchor="middle" x="1427.1" y="-195.32" font-family="Times,serif" font-size="14.00">q13:90</text>
</g>
<!-- q9:232&#45;&gt;q13:90 -->
<g id="edge6" class="edge">
<title>q9:232&#45;&gt;q13:90</title>
<path fill="none" stroke="black" d="M1230.5,-151.71C1270.5,-161.59 1332.7,-176.93 1376.2,-187.67"/>
<polygon fill="black" stroke="black" points="1375.08,-191 1385.63,-190 1376.76,-184.2 1375.08,-191"/>
<text text-anchor="middle" x="1305.5" y="-185.94" font-family="Times,serif" font-size="14.00">DATA/354:90</text>
</g>
<!-- q15:20 -->
<g id="node8" class="node">
<title>q15:20</title>
<ellipse fill="none" stroke="black" stroke-width="2" cx="1682" cy="-18" rx="45.95" ry="18"/>
<text text-anchor="middle" x="1682" y="-13.32" font-family="Times,serif" font-size="14.00">q15:20</text>
</g>
<!-- q12:142&#45;&gt;q15:20 -->
<g id="edge7" class="edge">
<title>q12:142&#45;&gt;q15:20</title>
<path fill="none" stroke="black" d="M1457.8,-63.54C1469.8,-57.83 1484,-51.78 1497.4,-47.75 1539.3,-35.15 1588.2,-27.55 1625.1,-23.19"/>
<polygon fill="black" stroke="black" points="1625.06,-26.72 1634.6,-22.11 1624.26,-19.77 1625.06,-26.72"/>
<text text-anchor="middle" x="1551.4" y="-51.95" font-family="Times,serif" font-size="14.00">DATA/550:20</text>
</g>
<!-- q16:3179 -->
<g id="node9" class="node">
<title>q16:3179</title>
<ellipse fill="none" stroke="black" stroke-width="2" cx="1682" cy="-126" rx="58.57" ry="18"/>
<text text-anchor="middle" x="1682" y="-121.33" font-family="Times,serif" font-size="14.00">q16:3179</text>
</g>
<!-- q12:142&#45;&gt;q16:3179 -->
<g id="edge8" class="edge">
<title>q12:142&#45;&gt;q16:3179</title>
<path fill="none" stroke="black" d="M1474.5,-87.62C1515.2,-95.18 1574.6,-106.22 1619.2,-114.53"/>
<polygon fill="black" stroke="black" points="1618.54,-117.97 1629.01,-116.35 1619.82,-111.09 1618.54,-117.97"/>
<text text-anchor="middle" x="1551.4" y="-114.95" font-family="Times,serif" font-size="14.00">DATA/354:119</text>
</g>
<!-- q17:3 -->
<g id="node10" class="node">
<title>q17:3</title>
<ellipse fill="none" stroke="black" stroke-width="2" cx="1682" cy="-72" rx="39.63" ry="18"/>
<text text-anchor="middle" x="1682" y="-67.33" font-family="Times,serif" font-size="14.00">q17:3</text>
</g>
<!-- q12:142&#45;&gt;q17:3 -->
<g id="edge9" class="edge">
<title>q12:142&#45;&gt;q17:3</title>
<path fill="none" stroke="black" d="M1476.9,-72.46C1483.7,-71.75 1490.7,-71.14 1497.4,-70.75 1542.2,-68.09 1593.2,-68.73 1630.1,-69.85"/>
<polygon fill="black" stroke="black" points="1629.88,-73.35 1639.99,-70.18 1630.11,-66.35 1629.88,-73.35"/>
<text text-anchor="middle" x="1551.4" y="-74.95" font-family="Times,serif" font-size="14.00">RCPT/250:3</text>
</g>
<!-- q13:90&#45;&gt;q16:3179 -->
<g id="edge17" class="edge">
<title>q13:90&#45;&gt;q16:3179</title>
<path fill="none" stroke="black" d="M1467.1,-190.07C1511.1,-178.8 1579.8,-160.96 1605.4,-153 1614.2,-150.27 1623.5,-147.15 1632.4,-144.02"/>
<polygon fill="black" stroke="black" points="1633.42,-147.37 1641.67,-140.73 1631.08,-140.78 1633.42,-147.37"/>
<text text-anchor="middle" x="1551.4" y="-185.94" font-family="Times,serif" font-size="14.00">content/λ:3</text>
</g>
<!-- q18:21 -->
<g id="node16" class="node">
<title>q18:21</title>
<ellipse fill="none" stroke="black" stroke-width="2" cx="1682" cy="-269" rx="45.95" ry="18"/>
<text text-anchor="middle" x="1682" y="-264.32" font-family="Times,serif" font-size="14.00">q18:21</text>
</g>
<!-- q13:90&#45;&gt;q18:21 -->
<g id="edge18" class="edge">
<title>q13:90&#45;&gt;q18:21</title>
<path fill="none" stroke="black" d="M1456.9,-214.56C1469.1,-220.31 1483.7,-226.59 1497.4,-231 1540,-244.78 1589.9,-254.73 1626.9,-260.99"/>
<polygon fill="black" stroke="black" points="1626.07,-264.4 1636.51,-262.57 1627.2,-257.49 1626.07,-264.4"/>
<text text-anchor="middle" x="1551.4" y="-259.94" font-family="Times,serif" font-size="14.00">content/250:21</text>
</g>
<!-- q19:66 -->
<g id="node17" class="node">
<title>q19:66</title>
<ellipse fill="none" stroke="black" stroke-width="2" cx="1682" cy="-215" rx="45.95" ry="18"/>
<text text-anchor="middle" x="1682" y="-210.32" font-family="Times,serif" font-size="14.00">q19:66</text>
</g>
<!-- q13:90&#45;&gt;q19:66 -->
<g id="edge19" class="edge">
<title>q13:90&#45;&gt;q19:66</title>
<path fill="none" stroke="black" d="M1473.3,-202.68C1515.5,-205.19 1578.7,-208.93 1624.2,-211.64"/>
<polygon fill="black" stroke="black" points="1624,-215.13 1634.19,-212.23 1624.41,-208.15 1624,-215.13"/>
<text text-anchor="middle" x="1551.4" y="-213.94" font-family="Times,serif" font-size="14.00">content/554:66</text>
</g>
<!-- q16:3179&#45;&gt;q16:3179 -->
<g id="edge10" class="edge">
<title>q16:3179&#45;&gt;q16:3179</title>
<path fill="none" stroke="black" d="M1658.6,-143.41C1654.3,-153.09 1662.1,-162 1682,-162 1693.5,-162 1700.9,-159.02 1704.3,-154.64"/>
<polygon fill="black" stroke="black" points="1707.76,-155.19 1705.17,-144.92 1700.79,-154.57 1707.76,-155.19"/>
<text text-anchor="middle" x="1682" y="-165.94" font-family="Times,serif" font-size="14.00">content/λ:3057</text>
</g>
<!-- q21:114 -->
<g id="node11" class="node">
<title>q21:114</title>
<ellipse fill="none" stroke="black" stroke-width="2" cx="1945.8" cy="-145" rx="52.26" ry="18"/>
<text text-anchor="middle" x="1945.8" y="-140.32" font-family="Times,serif" font-size="14.00">q21:114</text>
</g>
<!-- q16:3179&#45;&gt;q21:114 -->
<g id="edge11" class="edge">
<title>q16:3179&#45;&gt;q21:114</title>
<path fill="none" stroke="black" d="M1740.1,-130.15C1782.2,-133.2 1839.5,-137.36 1882.7,-140.5"/>
<polygon fill="black" stroke="black" points="1882.27,-143.98 1892.49,-141.2 1882.77,-137 1882.27,-143.98"/>
<text text-anchor="middle" x="1817" y="-143.94" font-family="Times,serif" font-size="14.00">content/250:114</text>
</g>
<!-- q22:8 -->
<g id="node12" class="node">
<title>q22:8</title>
<ellipse fill="none" stroke="black" stroke-width="2" cx="1945.8" cy="-91" rx="39.63" ry="18"/>
<text text-anchor="middle" x="1945.8" y="-86.33" font-family="Times,serif" font-size="14.00">q22:8</text>
</g>
<!-- q16:3179&#45;&gt;q22:8 -->
<g id="edge12" class="edge">
<title>q16:3179&#45;&gt;q22:8</title>
<path fill="none" stroke="black" d="M1731.2,-115.56C1740.3,-113.8 1749.7,-112.11 1758.5,-110.75 1804.4,-103.7 1857,-98.38 1894.6,-95.04"/>
<polygon fill="black" stroke="black" points="1894.63,-98.55 1904.29,-94.2 1894.03,-91.58 1894.63,-98.55"/>
<text text-anchor="middle" x="1817" y="-114.95" font-family="Times,serif" font-size="14.00">content/554:8</text>
</g>
<!-- q17:3&#45;&gt;q9:232 -->
<g id="edge13" class="edge">
<title>q17:3&#45;&gt;q9:232</title>
<path fill="none" stroke="black" d="M1649.1,-83.01C1640.1,-87.1 1630.8,-92.4 1623.4,-99 1612,-109.08 1618.5,-120.4 1605.4,-128 1546.1,-162.27 1346.2,-153.34 1247.4,-146.49"/>
<polygon fill="black" stroke="black" points="1247.93,-143.02 1237.71,-145.8 1247.43,-150 1247.93,-143.02"/>
<text text-anchor="middle" x="1427.1" y="-155.94" font-family="Times,serif" font-size="14.00">RCPT/250:3</text>
</g>
<!-- q25:114 -->
<g id="node13" class="node">
<title>q25:114</title>
<ellipse fill="none" stroke="black" stroke-width="2" cx="2186.8" cy="-145" rx="52.26" ry="18"/>
<text text-anchor="middle" x="2186.8" y="-140.32" font-family="Times,serif" font-size="14.00">q25:114</text>
</g>
<!-- q21:114&#45;&gt;q25:114 -->
<g id="edge14" class="edge">
<title>q21:114&#45;&gt;q25:114</title>
<path fill="none" stroke="black" d="M1998.9,-145C2035.3,-145 2084.1,-145 2122.7,-145"/>
<polygon fill="black" stroke="black" points="2122.29,-148.5 2132.29,-145 2122.29,-141.5 2122.29,-148.5"/>
<text text-anchor="middle" x="2066.3" y="-148.94" font-family="Times,serif" font-size="14.00">QUIT/221:114</text>
</g>
<!-- q26:8 -->
<g id="node14" class="node">
<title>q26:8</title>
<ellipse fill="none" stroke="black" stroke-width="2" cx="2186.8" cy="-91" rx="39.63" ry="18"/>
<text text-anchor="middle" x="2186.8" y="-86.33" font-family="Times,serif" font-size="14.00">q26:8</text>
</g>
<!-- q22:8&#45;&gt;q26:8 -->
<g id="edge15" class="edge">
<title>q22:8&#45;&gt;q26:8</title>
<path fill="none" stroke="black" d="M1986.3,-91C2026.9,-91 2090.4,-91 2134.9,-91"/>
<polygon fill="black" stroke="black" points="2134.79,-94.5 2144.79,-91 2134.79,-87.5 2134.79,-94.5"/>
<text text-anchor="middle" x="2066.3" y="-94.95" font-family="Times,serif" font-size="14.00">RSET/250:8</text>
</g>
<!-- q5:1 -->
<g id="node15" class="node">
<title>q5:1</title>
<ellipse fill="none" stroke="black" stroke-width="2" cx="839.7" cy="-111" rx="33.32" ry="18"/>
<text text-anchor="middle" x="839.7" y="-106.33" font-family="Times,serif" font-size="14.00">q5:1</text>
</g>
<!-- q5:1&#45;&gt;q9:232 -->
<g id="edge16" class="edge">
<title>q5:1&#45;&gt;q9:232</title>
<path fill="none" stroke="black" d="M873.7,-108.51C884.71,-107.79 897.04,-107.1 908.33,-106.75 949.15,-105.47 959.55,-102.99 1000.22,-106.75 1047.5,-111.12 1100.6,-121.52 1138.4,-129.9"/>
<polygon fill="black" stroke="black" points="1137.7,-133.33 1148.22,-132.1 1139.23,-126.5 1137.7,-133.33"/>
<text text-anchor="middle" x="954.27" y="-110.95" font-family="Times,serif" font-size="14.00">MAIL/250:1</text>
</g>
<!-- q23:21 -->
<g id="node18" class="node">
<title>q23:21</title>
<ellipse fill="none" stroke="black" stroke-width="2" cx="1945.8" cy="-269" rx="45.95" ry="18"/>
<text text-anchor="middle" x="1945.8" y="-264.32" font-family="Times,serif" font-size="14.00">q23:21</text>
</g>
<!-- q18:21&#45;&gt;q23:21 -->
<g id="edge20" class="edge">
<title>q18:21&#45;&gt;q23:21</title>
<path fill="none" stroke="black" d="M1728.9,-269C1773,-269 1840,-269 1887.6,-269"/>
<polygon fill="black" stroke="black" points="1887.39,-272.5 1897.39,-269 1887.39,-265.5 1887.39,-272.5"/>
<text text-anchor="middle" x="1817" y="-272.94" font-family="Times,serif" font-size="14.00">QUIT/221:21</text>
</g>
<!-- q24:66 -->
<g id="node19" class="node">
<title>q24:66</title>
<ellipse fill="none" stroke="black" stroke-width="2" cx="1945.8" cy="-215" rx="45.95" ry="18"/>
<text text-anchor="middle" x="1945.8" y="-210.32" font-family="Times,serif" font-size="14.00">q24:66</text>
</g>
<!-- q19:66&#45;&gt;q24:66 -->
<g id="edge21" class="edge">
<title>q19:66&#45;&gt;q24:66</title>
<path fill="none" stroke="black" d="M1728.9,-215C1773,-215 1840,-215 1887.6,-215"/>
<polygon fill="black" stroke="black" points="1887.39,-218.5 1897.39,-215 1887.39,-211.5 1887.39,-218.5"/>
<text text-anchor="middle" x="1817" y="-218.94" font-family="Times,serif" font-size="14.00">RSET/250:66</text>
</g>
<!-- q3:243 -->
<g id="node20" class="node">
<title>q3:243</title>
<ellipse fill="none" stroke="black" stroke-width="2" cx="491.48" cy="-159" rx="45.95" ry="18"/>
<text text-anchor="middle" x="491.48" y="-154.32" font-family="Times,serif" font-size="14.00">q3:243</text>
</g>
<!-- q3:243&#45;&gt;q4:231 -->
<g id="edge22" class="edge">
<title>q3:243&#45;&gt;q4:231</title>
<path fill="none" stroke="black" d="M538.25,-160.58C575.21,-161.86 627.42,-163.66 667.1,-165.03"/>
<polygon fill="black" stroke="black" points="666.83,-168.52 676.95,-165.37 667.07,-161.53 666.83,-168.52"/>
<text text-anchor="middle" x="608.31" y="-167.94" font-family="Times,serif" font-size="14.00">AUTH/235:230</text>
</g>
<!-- q3:243&#45;&gt;q5:1 -->
<g id="edge23" class="edge">
<title>q3:243&#45;&gt;q5:1</title>
<path fill="none" stroke="black" d="M527.46,-146.98C536.49,-144.24 546.25,-141.6 555.43,-139.75 638.9,-122.92 738.28,-115.72 794.38,-112.81"/>
<polygon fill="black" stroke="black" points="794.34,-116.32 804.16,-112.33 794,-109.32 794.34,-116.32"/>
<text text-anchor="middle" x="608.31" y="-143.94" font-family="Times,serif" font-size="14.00">AUTH/λ:1</text>
</g>
<!-- q6:12 -->
<g id="node21" class="node">
<title>q6:12</title>
<ellipse fill="none" stroke="black" stroke-width="2" cx="725.13" cy="-226" rx="39.63" ry="18"/>
<text text-anchor="middle" x="725.13" y="-221.32" font-family="Times,serif" font-size="14.00">q6:12</text>
</g>
<!-- q3:243&#45;&gt;q6:12 -->
<g id="edge24" class="edge">
<title>q3:243&#45;&gt;q6:12</title>
<path fill="none" stroke="black" d="M523.19,-172.79C533.33,-177.04 544.75,-181.52 555.43,-185 595.72,-198.13 642.65,-209.21 676.76,-216.52"/>
<polygon fill="black" stroke="black" points="675.82,-219.9 686.33,-218.55 677.27,-213.05 675.82,-219.9"/>
<text text-anchor="middle" x="608.31" y="-215.94" font-family="Times,serif" font-size="14.00">AUTH/535:12</text>
</g>
<!-- q10:12 -->
<g id="node22" class="node">
<title>q10:12</title>
<ellipse fill="none" stroke="black" stroke-width="2" cx="954.27" cy="-259" rx="45.95" ry="18"/>
<text text-anchor="middle" x="954.27" y="-254.32" font-family="Times,serif" font-size="14.00">q10:12</text>
</g>
<!-- q6:12&#45;&gt;q10:12 -->
<g id="edge25" class="edge">
<title>q6:12&#45;&gt;q10:12</title>
<path fill="none" stroke="black" d="M763.89,-231.49C800.68,-236.83 856.99,-245.01 898.65,-251.06"/>
<polygon fill="black" stroke="black" points="898.08,-254.51 908.48,-252.49 899.09,-247.59 898.08,-254.51"/>
<text text-anchor="middle" x="839.7" y="-252.94" font-family="Times,serif" font-size="14.00">AUTH/334:12</text>
</g>
<!-- q14:12 -->
<g id="node23" class="node">
<title>q14:12</title>
<ellipse fill="none" stroke="black" stroke-width="2" cx="1190.2" cy="-259" rx="45.95" ry="18"/>
<text text-anchor="middle" x="1190.2" y="-254.32" font-family="Times,serif" font-size="14.00">q14:12</text>
</g>
<!-- q10:12&#45;&gt;q14:12 -->
<g id="edge26" class="edge">
<title>q10:12&#45;&gt;q14:12</title>
<path fill="none" stroke="black" d="M1001.2,-259C1038.6,-259 1091.6,-259 1131.8,-259"/>
<polygon fill="black" stroke="black" points="1131.79,-262.5 1141.79,-259 1131.79,-255.5 1131.79,-262.5"/>
<text text-anchor="middle" x="1072.2" y="-262.94" font-family="Times,serif" font-size="14.00">content/535:12</text>
</g>
<!-- q20:3 -->
<g id="node24" class="node">
<title>q20:3</title>
<ellipse fill="none" stroke="black" stroke-width="2" cx="1427.1" cy="-259" rx="39.63" ry="18"/>
<text text-anchor="middle" x="1427.1" y="-254.32" font-family="Times,serif" font-size="14.00">q20:3</text>
</g>
<!-- q14:12&#45;&gt;q20:3 -->
<g id="edge27" class="edge">
<title>q14:12&#45;&gt;q20:3</title>
<path fill="none" stroke="black" d="M1237,-259C1276.7,-259 1334.1,-259 1375.2,-259"/>
<polygon fill="black" stroke="black" points="1375.09,-262.5 1385.09,-259 1375.09,-255.5 1375.09,-262.5"/>
<text text-anchor="middle" x="1305.5" y="-262.94" font-family="Times,serif" font-size="14.00">λ/451:3</text>
</g>
<!-- q2:1 -->
<g id="node25" class="node">
<title>q2:1</title>
<ellipse fill="none" stroke="black" stroke-width="2" cx="491.48" cy="-97" rx="33.32" ry="18"/>
<text text-anchor="middle" x="491.48" y="-92.33" font-family="Times,serif" font-size="14.00">q2:1</text>
</g>
<!-- q2:1&#45;&gt;q4:231 -->
<g id="edge28" class="edge">
<title>q2:1&#45;&gt;q4:231</title>
<path fill="none" stroke="black" d="M519.56,-86.11C554.34,-73.94 615.63,-58.76 661.18,-81.75 684.57,-93.55 701.42,-118.61 711.76,-138.51"/>
<polygon fill="black" stroke="black" points="708.51,-139.83 716.04,-147.28 714.8,-136.76 708.51,-139.83"/>
<text text-anchor="middle" x="608.31" y="-85.95" font-family="Times,serif" font-size="14.00">AUTH/235:1</text>
</g>
<!-- q1:244 -->
<g id="node26" class="node">
<title>q1:244</title>
<ellipse fill="none" stroke="black" stroke-width="2" cx="257.84" cy="-124" rx="45.95" ry="18"/>
<text text-anchor="middle" x="257.84" y="-119.33" font-family="Times,serif" font-size="14.00">q1:244</text>
</g>
<!-- q1:244&#45;&gt;q3:243 -->
<g id="edge29" class="edge">
<title>q1:244&#45;&gt;q3:243</title>
<path fill="none" stroke="black" d="M301.87,-130.5C339.9,-136.25 395.54,-144.65 436.54,-150.85"/>
<polygon fill="black" stroke="black" points="435.78,-154.28 446.19,-152.3 436.83,-147.35 435.78,-154.28"/>
<text text-anchor="middle" x="374.66" y="-151.94" font-family="Times,serif" font-size="14.00">EHLO/250:243</text>
</g>
<!-- q1:244&#45;&gt;q2:1 -->
<g id="edge30" class="edge">
<title>q1:244&#45;&gt;q2:1</title>
<path fill="none" stroke="black" d="M299.37,-115.46C306.8,-114.08 314.51,-112.77 321.79,-111.75 363.72,-105.85 411.86,-101.92 445.96,-99.61"/>
<polygon fill="black" stroke="black" points="446.14,-103.11 455.89,-98.96 445.68,-96.12 446.14,-103.11"/>
<text text-anchor="middle" x="374.66" y="-115.95" font-family="Times,serif" font-size="14.00">EHLO/λ:1</text>
</g>
<!-- q0:244 -->
<g id="node27" class="node">
<title>q0:244</title>
<ellipse fill="none" stroke="black" stroke-width="2" cx="53.95" cy="-124" rx="49.95" ry="49.95"/>
<ellipse fill="none" stroke="black" stroke-width="2" cx="53.95" cy="-124" rx="53.95" ry="53.95"/>
<text text-anchor="middle" x="53.95" y="-119.33" font-family="Times,serif" font-size="14.00">q0:244</text>
</g>
<!-- q0:244&#45;&gt;q1:244 -->
<g id="edge31" class="edge">
<title>q0:244&#45;&gt;q1:244</title>
<path fill="none" stroke="black" d="M104.85,-124C133.64,-124 169.94,-124 199.84,-124"/>
<polygon fill="black" stroke="black" points="199.45,-127.5 209.45,-124 199.45,-120.5 199.45,-127.5"/>
<text text-anchor="middle" x="157.89" y="-127.95" font-family="Times,serif" font-size="14.00">λ/220:244</text>
</g>
</g>
</svg>
