<?xml version="1.0" encoding="UTF-8" standalone="no"?>
<!DOCTYPE svg PUBLIC "-//W3C//DTD SVG 1.1//EN"
 "http://www.w3.org/Graphics/SVG/1.1/DTD/svg11.dtd">
<!-- Generated by graphviz version 12.0.0 (20240803.0821)
 -->
<!-- Pages: 1 -->
<svg width="2253pt" height="197pt"
 viewBox="0.00 0.00 2252.96 197.00" xmlns="http://www.w3.org/2000/svg" xmlns:xlink="http://www.w3.org/1999/xlink">
<g id="graph0" class="graph" transform="scale(1 1) rotate(0) translate(4 193)">
<polygon fill="white" stroke="none" points="-4,4 -4,-193 2248.96,-193 2248.96,4 -4,4"/>
<!-- q15:49 -->
<g id="node1" class="node">
<title>q15:49</title>
<ellipse fill="none" stroke="black" stroke-width="2" cx="1951.7" cy="-171" rx="45.95" ry="18"/>
<text text-anchor="middle" x="1951.7" y="-166.32" font-family="Times,serif" font-size="14.00">q15:49</text>
</g>
<!-- q19:49 -->
<g id="node2" class="node">
<title>q19:49</title>
<ellipse fill="none" stroke="black" stroke-width="2" cx="2192.7" cy="-171" rx="45.95" ry="18"/>
<text text-anchor="middle" x="2192.7" y="-166.32" font-family="Times,serif" font-size="14.00">q19:49</text>
</g>
<!-- q15:49&#45;&gt;q19:49 -->
<g id="edge1" class="edge">
<title>q15:49&#45;&gt;q19:49</title>
<path fill="none" stroke="black" d="M1998.5,-171C2037.3,-171 2093,-171 2134.7,-171"/>
<polygon fill="black" stroke="black" points="2134.49,-174.5 2144.49,-171 2134.49,-167.5 2134.49,-174.5"/>
<text text-anchor="middle" x="2072.2" y="-174.94" font-family="Times,serif" font-size="14.00">RSET/250:49</text>
</g>
<!-- q8:12 -->
<g id="node3" class="node">
<title>q8:12</title>
<ellipse fill="none" stroke="black" stroke-width="2" cx="954.27" cy="-18" rx="39.63" ry="18"/>
<text text-anchor="middle" x="954.27" y="-13.32" font-family="Times,serif" font-size="14.00">q8:12</text>
</g>
<!-- q11:12 -->
<g id="node4" class="node">
<title>q11:12</title>
<ellipse fill="none" stroke="black" stroke-width="2" cx="1196.5" cy="-18" rx="45.95" ry="18"/>
<text text-anchor="middle" x="1196.5" y="-13.32" font-family="Times,serif" font-size="14.00">q11:12</text>
</g>
<!-- q8:12&#45;&gt;q11:12 -->
<g id="edge2" class="edge">
<title>q8:12&#45;&gt;q11:12</title>
<path fill="none" stroke="black" d="M994.67,-18C1033.8,-18 1094.1,-18 1138.4,-18"/>
<polygon fill="black" stroke="black" points="1138.39,-21.5 1148.39,-18 1138.39,-14.5 1138.39,-21.5"/>
<text text-anchor="middle" x="1072.2" y="-21.95" font-family="Times,serif" font-size="14.00">content/535:12</text>
</g>
<!-- q14:4 -->
<g id="node5" class="node">
<title>q14:4</title>
<ellipse fill="none" stroke="black" stroke-width="2" cx="1439.8" cy="-18" rx="39.63" ry="18"/>
<text text-anchor="middle" x="1439.8" y="-13.32" font-family="Times,serif" font-size="14.00">q14:4</text>
</g>
<!-- q11:12&#45;&gt;q14:4 -->
<g id="edge3" class="edge">
<title>q11:12&#45;&gt;q14:4</title>
<path fill="none" stroke="black" d="M1243.1,-18C1284.4,-18 1345.2,-18 1388,-18"/>
<polygon fill="black" stroke="black" points="1387.79,-21.5 1397.79,-18 1387.79,-14.5 1387.79,-21.5"/>
<text text-anchor="middle" x="1318.1" y="-21.95" font-family="Times,serif" font-size="14.00">位/451:4</text>
</g>
<!-- q13:161 -->
<g id="node6" class="node">
<title>q13:161</title>
<ellipse fill="none" stroke="black" stroke-width="2" cx="1439.8" cy="-72" rx="52.26" ry="18"/>
<text text-anchor="middle" x="1439.8" y="-67.33" font-family="Times,serif" font-size="14.00">q13:161</text>
</g>
<!-- q12:3329 -->
<g id="node7" class="node">
<title>q12:3329</title>
<ellipse fill="none" stroke="black" stroke-width="2" cx="1687.8" cy="-117" rx="58.57" ry="18"/>
<text text-anchor="middle" x="1687.8" y="-112.33" font-family="Times,serif" font-size="14.00">q12:3329</text>
</g>
<!-- q13:161&#45;&gt;q12:3329 -->
<g id="edge4" class="edge">
<title>q13:161&#45;&gt;q12:3329</title>
<path fill="none" stroke="black" d="M1491.1,-76.66C1525.2,-80.32 1571.2,-86.24 1611.3,-94.75 1619,-96.39 1627.1,-98.43 1635,-100.59"/>
<polygon fill="black" stroke="black" points="1633.87,-103.91 1644.44,-103.3 1635.8,-97.18 1633.87,-103.91"/>
<text text-anchor="middle" x="1560.6" y="-97.95" font-family="Times,serif" font-size="14.00">DATA/354:118</text>
</g>
<!-- q18:43 -->
<g id="node8" class="node">
<title>q18:43</title>
<ellipse fill="none" stroke="black" stroke-width="2" cx="1687.8" cy="-54" rx="45.95" ry="18"/>
<text text-anchor="middle" x="1687.8" y="-49.33" font-family="Times,serif" font-size="14.00">q18:43</text>
</g>
<!-- q13:161&#45;&gt;q18:43 -->
<g id="edge5" class="edge">
<title>q13:161&#45;&gt;q18:43</title>
<path fill="none" stroke="black" d="M1481.1,-60.23C1490.5,-57.96 1500.5,-55.93 1510,-54.75 1550,-49.76 1595.4,-49.69 1630.2,-50.8"/>
<polygon fill="black" stroke="black" points="1629.97,-54.3 1640.09,-51.17 1630.22,-47.3 1629.97,-54.3"/>
<text text-anchor="middle" x="1560.6" y="-58.95" font-family="Times,serif" font-size="14.00">DATA/550:43</text>
</g>
<!-- q12:3329&#45;&gt;q15:49 -->
<g id="edge6" class="edge">
<title>q12:3329&#45;&gt;q15:49</title>
<path fill="none" stroke="black" d="M1731.8,-129.71C1742.4,-132.63 1753.8,-135.59 1764.4,-138 1808.5,-148.01 1859.1,-156.81 1896.4,-162.79"/>
<polygon fill="black" stroke="black" points="1895.58,-166.2 1906,-164.32 1896.68,-159.29 1895.58,-166.2"/>
<text text-anchor="middle" x="1822.9" y="-163.94" font-family="Times,serif" font-size="14.00">content/554:49</text>
</g>
<!-- q12:3329&#45;&gt;q12:3329 -->
<g id="edge7" class="edge">
<title>q12:3329&#45;&gt;q12:3329</title>
<path fill="none" stroke="black" d="M1665.1,-134.41C1660.9,-144.09 1668.5,-153 1687.8,-153 1699,-153 1706.3,-150.02 1709.6,-145.64"/>
<polygon fill="black" stroke="black" points="1713.07,-146.17 1710.38,-135.92 1706.09,-145.61 1713.07,-146.17"/>
<text text-anchor="middle" x="1687.8" y="-156.94" font-family="Times,serif" font-size="14.00">content/位:3143</text>
</g>
<!-- q17:1 -->
<g id="node9" class="node">
<title>q17:1</title>
<ellipse fill="none" stroke="black" stroke-width="2" cx="1951.7" cy="-117" rx="39.63" ry="18"/>
<text text-anchor="middle" x="1951.7" y="-112.33" font-family="Times,serif" font-size="14.00">q17:1</text>
</g>
<!-- q12:3329&#45;&gt;q17:1 -->
<g id="edge8" class="edge">
<title>q12:3329&#45;&gt;q17:1</title>
<path fill="none" stroke="black" d="M1747.3,-117C1793,-117 1855.9,-117 1899.6,-117"/>
<polygon fill="black" stroke="black" points="1899.59,-120.5 1909.59,-117 1899.59,-113.5 1899.59,-120.5"/>
<text text-anchor="middle" x="1822.9" y="-120.95" font-family="Times,serif" font-size="14.00">content/550:1</text>
</g>
<!-- q16:136 -->
<g id="node10" class="node">
<title>q16:136</title>
<ellipse fill="none" stroke="black" stroke-width="2" cx="1951.7" cy="-63" rx="52.26" ry="18"/>
<text text-anchor="middle" x="1951.7" y="-58.33" font-family="Times,serif" font-size="14.00">q16:136</text>
</g>
<!-- q12:3329&#45;&gt;q16:136 -->
<g id="edge9" class="edge">
<title>q12:3329&#45;&gt;q16:136</title>
<path fill="none" stroke="black" d="M1731.4,-104.22C1742.1,-101.23 1753.6,-98.2 1764.4,-95.75 1806.6,-86.13 1854.8,-77.73 1891.5,-71.85"/>
<polygon fill="black" stroke="black" points="1891.77,-75.35 1901.1,-70.34 1890.68,-68.43 1891.77,-75.35"/>
<text text-anchor="middle" x="1822.9" y="-98.95" font-family="Times,serif" font-size="14.00">content/250:136</text>
</g>
<!-- q21:1 -->
<g id="node11" class="node">
<title>q21:1</title>
<ellipse fill="none" stroke="black" stroke-width="2" cx="2192.7" cy="-117" rx="39.63" ry="18"/>
<text text-anchor="middle" x="2192.7" y="-112.33" font-family="Times,serif" font-size="14.00">q21:1</text>
</g>
<!-- q17:1&#45;&gt;q21:1 -->
<g id="edge10" class="edge">
<title>q17:1&#45;&gt;q21:1</title>
<path fill="none" stroke="black" d="M1992.1,-117C2032.8,-117 2096.3,-117 2140.7,-117"/>
<polygon fill="black" stroke="black" points="2140.69,-120.5 2150.69,-117 2140.69,-113.5 2140.69,-120.5"/>
<text text-anchor="middle" x="2072.2" y="-120.95" font-family="Times,serif" font-size="14.00">RSET/250:1</text>
</g>
<!-- q20:136 -->
<g id="node12" class="node">
<title>q20:136</title>
<ellipse fill="none" stroke="black" stroke-width="2" cx="2192.7" cy="-63" rx="52.26" ry="18"/>
<text text-anchor="middle" x="2192.7" y="-58.33" font-family="Times,serif" font-size="14.00">q20:136</text>
</g>
<!-- q16:136&#45;&gt;q20:136 -->
<g id="edge11" class="edge">
<title>q16:136&#45;&gt;q20:136</title>
<path fill="none" stroke="black" d="M2004.8,-63C2041.2,-63 2090,-63 2128.5,-63"/>
<polygon fill="black" stroke="black" points="2128.09,-66.5 2138.09,-63 2128.09,-59.5 2128.09,-66.5"/>
<text text-anchor="middle" x="2072.2" y="-66.95" font-family="Times,serif" font-size="14.00">QUIT/221:136</text>
</g>
<!-- q1:244 -->
<g id="node13" class="node">
<title>q1:244</title>
<ellipse fill="none" stroke="black" stroke-width="2" cx="257.84" cy="-71" rx="45.95" ry="18"/>
<text text-anchor="middle" x="257.84" y="-66.33" font-family="Times,serif" font-size="14.00">q1:244</text>
</g>
<!-- q2:2 -->
<g id="node14" class="node">
<title>q2:2</title>
<ellipse fill="none" stroke="black" stroke-width="2" cx="491.48" cy="-98" rx="33.32" ry="18"/>
<text text-anchor="middle" x="491.48" y="-93.33" font-family="Times,serif" font-size="14.00">q2:2</text>
</g>
<!-- q1:244&#45;&gt;q2:2 -->
<g id="edge12" class="edge">
<title>q1:244&#45;&gt;q2:2</title>
<path fill="none" stroke="black" d="M302.96,-76.14C344.26,-80.96 405.63,-88.11 446.8,-92.91"/>
<polygon fill="black" stroke="black" points="446.26,-96.37 456.6,-94.05 447.07,-89.42 446.26,-96.37"/>
<text text-anchor="middle" x="374.66" y="-93.95" font-family="Times,serif" font-size="14.00">EHLO/位:2</text>
</g>
<!-- q3:242 -->
<g id="node15" class="node">
<title>q3:242</title>
<ellipse fill="none" stroke="black" stroke-width="2" cx="491.48" cy="-44" rx="45.95" ry="18"/>
<text text-anchor="middle" x="491.48" y="-39.33" font-family="Times,serif" font-size="14.00">q3:242</text>
</g>
<!-- q1:244&#45;&gt;q3:242 -->
<g id="edge13" class="edge">
<title>q1:244&#45;&gt;q3:242</title>
<path fill="none" stroke="black" d="M297.96,-61.21C305.81,-59.51 314.03,-57.91 321.79,-56.75 358.81,-51.19 400.79,-48.01 433.61,-46.21"/>
<polygon fill="black" stroke="black" points="433.5,-49.72 443.31,-45.71 433.14,-42.73 433.5,-49.72"/>
<text text-anchor="middle" x="374.66" y="-60.95" font-family="Times,serif" font-size="14.00">EHLO/250:242</text>
</g>
<!-- q4:232 -->
<g id="node16" class="node">
<title>q4:232</title>
<ellipse fill="none" stroke="black" stroke-width="2" cx="725.13" cy="-85" rx="45.95" ry="18"/>
<text text-anchor="middle" x="725.13" y="-80.33" font-family="Times,serif" font-size="14.00">q4:232</text>
</g>
<!-- q2:2&#45;&gt;q4:232 -->
<g id="edge14" class="edge">
<title>q2:2&#45;&gt;q4:232</title>
<path fill="none" stroke="black" d="M525.18,-96.17C562.12,-94.09 622.91,-90.68 667.59,-88.17"/>
<polygon fill="black" stroke="black" points="667.56,-91.68 677.35,-87.62 667.17,-84.69 667.56,-91.68"/>
<text text-anchor="middle" x="608.31" y="-97.95" font-family="Times,serif" font-size="14.00">AUTH/235:2</text>
</g>
<!-- q3:242&#45;&gt;q4:232 -->
<g id="edge15" class="edge">
<title>q3:242&#45;&gt;q4:232</title>
<path fill="none" stroke="black" d="M537.19,-48.2C571.37,-51.86 619.54,-57.96 661.18,-66.75 666.4,-67.85 671.83,-69.16 677.2,-70.57"/>
<polygon fill="black" stroke="black" points="676.05,-73.88 686.62,-73.15 677.9,-67.13 676.05,-73.88"/>
<text text-anchor="middle" x="608.31" y="-70.95" font-family="Times,serif" font-size="14.00">AUTH/235:230</text>
</g>
<!-- q5:12 -->
<g id="node17" class="node">
<title>q5:12</title>
<ellipse fill="none" stroke="black" stroke-width="2" cx="725.13" cy="-18" rx="39.63" ry="18"/>
<text text-anchor="middle" x="725.13" y="-13.32" font-family="Times,serif" font-size="14.00">q5:12</text>
</g>
<!-- q3:242&#45;&gt;q5:12 -->
<g id="edge16" class="edge">
<title>q3:242&#45;&gt;q5:12</title>
<path fill="none" stroke="black" d="M521.88,-29.55C532.23,-25.18 544.11,-20.96 555.43,-18.75 594.77,-11.06 640.27,-11.38 674.09,-13.34"/>
<polygon fill="black" stroke="black" points="673.82,-16.83 684.03,-13.99 674.28,-9.85 673.82,-16.83"/>
<text text-anchor="middle" x="608.31" y="-22.95" font-family="Times,serif" font-size="14.00">AUTH/535:12</text>
</g>
<!-- q7:229 -->
<g id="node18" class="node">
<title>q7:229</title>
<ellipse fill="none" stroke="black" stroke-width="2" cx="954.27" cy="-72" rx="45.95" ry="18"/>
<text text-anchor="middle" x="954.27" y="-67.33" font-family="Times,serif" font-size="14.00">q7:229</text>
</g>
<!-- q4:232&#45;&gt;q7:229 -->
<g id="edge17" class="edge">
<title>q4:232&#45;&gt;q7:229</title>
<path fill="none" stroke="black" d="M770.82,-81.07C776.95,-80.59 783.17,-80.14 789.08,-79.75 824.71,-77.42 864.74,-75.52 896.35,-74.18"/>
<polygon fill="black" stroke="black" points="896.24,-77.69 906.09,-73.78 895.95,-70.69 896.24,-77.69"/>
<text text-anchor="middle" x="839.7" y="-82.95" font-family="Times,serif" font-size="14.00">MAIL/250:229</text>
</g>
<!-- q6:3 -->
<g id="node19" class="node">
<title>q6:3</title>
<ellipse fill="none" stroke="black" stroke-width="2" cx="954.27" cy="-126" rx="33.32" ry="18"/>
<text text-anchor="middle" x="954.27" y="-121.33" font-family="Times,serif" font-size="14.00">q6:3</text>
</g>
<!-- q4:232&#45;&gt;q6:3 -->
<g id="edge18" class="edge">
<title>q4:232&#45;&gt;q6:3</title>
<path fill="none" stroke="black" d="M767.42,-92.95C774.64,-94.32 782.07,-95.71 789.08,-97 830.21,-104.55 877.21,-112.82 910.35,-118.58"/>
<polygon fill="black" stroke="black" points="909.53,-121.99 919.98,-120.25 910.72,-115.09 909.53,-121.99"/>
<text text-anchor="middle" x="839.7" y="-117.95" font-family="Times,serif" font-size="14.00">MAIL/553:3</text>
</g>
<!-- q5:12&#45;&gt;q8:12 -->
<g id="edge19" class="edge">
<title>q5:12&#45;&gt;q8:12</title>
<path fill="none" stroke="black" d="M765.69,-18C803.6,-18 861,-18 902.32,-18"/>
<polygon fill="black" stroke="black" points="902.27,-21.5 912.27,-18 902.27,-14.5 902.27,-21.5"/>
<text text-anchor="middle" x="839.7" y="-21.95" font-family="Times,serif" font-size="14.00">AUTH/334:12</text>
</g>
<!-- q10:229 -->
<g id="node20" class="node">
<title>q10:229</title>
<ellipse fill="none" stroke="black" stroke-width="2" cx="1196.5" cy="-72" rx="52.26" ry="18"/>
<text text-anchor="middle" x="1196.5" y="-67.33" font-family="Times,serif" font-size="14.00">q10:229</text>
</g>
<!-- q7:229&#45;&gt;q10:229 -->
<g id="edge20" class="edge">
<title>q7:229&#45;&gt;q10:229</title>
<path fill="none" stroke="black" d="M1001.02,-72C1038.1,-72 1090.8,-72 1131.9,-72"/>
<polygon fill="black" stroke="black" points="1131.69,-75.5 1141.69,-72 1131.69,-68.5 1131.69,-75.5"/>
<text text-anchor="middle" x="1072.2" y="-75.95" font-family="Times,serif" font-size="14.00">RCPT/250:229</text>
</g>
<!-- q9:3 -->
<g id="node21" class="node">
<title>q9:3</title>
<ellipse fill="none" stroke="black" stroke-width="2" cx="1196.5" cy="-126" rx="33.32" ry="18"/>
<text text-anchor="middle" x="1196.5" y="-121.33" font-family="Times,serif" font-size="14.00">q9:3</text>
</g>
<!-- q6:3&#45;&gt;q9:3 -->
<g id="edge21" class="edge">
<title>q6:3&#45;&gt;q9:3</title>
<path fill="none" stroke="black" d="M988.42,-126C1030.7,-126 1103.8,-126 1150.9,-126"/>
<polygon fill="black" stroke="black" points="1150.79,-129.5 1160.79,-126 1150.79,-122.5 1150.79,-129.5"/>
<text text-anchor="middle" x="1072.2" y="-129.94" font-family="Times,serif" font-size="14.00">RSET/250:3</text>
</g>
<!-- q10:229&#45;&gt;q13:161 -->
<g id="edge22" class="edge">
<title>q10:229&#45;&gt;q13:161</title>
<path fill="none" stroke="black" d="M1249.5,-72C1286.5,-72 1336.3,-72 1375.5,-72"/>
<polygon fill="black" stroke="black" points="1375.29,-75.5 1385.29,-72 1375.29,-68.5 1375.29,-75.5"/>
<text text-anchor="middle" x="1318.1" y="-75.95" font-family="Times,serif" font-size="14.00">RCPT/250:161</text>
</g>
<!-- q10:229&#45;&gt;q12:3329 -->
<g id="edge23" class="edge">
<title>q10:229&#45;&gt;q12:3329</title>
<path fill="none" stroke="black" d="M1234.9,-84.95C1245.1,-88.04 1256.2,-91.02 1266.7,-93 1388.4,-115.92 1533.2,-119.01 1617.1,-118.48"/>
<polygon fill="black" stroke="black" points="1617.02,-121.98 1626.99,-118.39 1616.96,-114.98 1617.02,-121.98"/>
<text text-anchor="middle" x="1439.8" y="-119.95" font-family="Times,serif" font-size="14.00">DATA/354:68</text>
</g>
<!-- q0:244 -->
<g id="node22" class="node">
<title>q0:244</title>
<ellipse fill="none" stroke="black" stroke-width="2" cx="53.95" cy="-71" rx="49.95" ry="49.95"/>
<ellipse fill="none" stroke="black" stroke-width="2" cx="53.95" cy="-71" rx="53.95" ry="53.95"/>
<text text-anchor="middle" x="53.95" y="-66.33" font-family="Times,serif" font-size="14.00">q0:244</text>
</g>
<!-- q0:244&#45;&gt;q1:244 -->
<g id="edge24" class="edge">
<title>q0:244&#45;&gt;q1:244</title>
<path fill="none" stroke="black" d="M104.85,-71C133.64,-71 169.94,-71 199.84,-71"/>
<polygon fill="black" stroke="black" points="199.45,-74.5 209.45,-71 199.45,-67.5 199.45,-74.5"/>
<text text-anchor="middle" x="157.89" y="-74.95" font-family="Times,serif" font-size="14.00">位/220:244</text>
</g>
</g>
</svg>
