<?xml version="1.0" encoding="UTF-8" standalone="no"?>
<!DOCTYPE svg PUBLIC "-//W3C//DTD SVG 1.1//EN"
 "http://www.w3.org/Graphics/SVG/1.1/DTD/svg11.dtd">
<!-- Generated by graphviz version 12.0.0 (20240803.0821)
 -->
<!-- Pages: 1 -->
<svg width="1992pt" height="485pt"
 viewBox="0.00 0.00 1991.65 484.95" xmlns="http://www.w3.org/2000/svg" xmlns:xlink="http://www.w3.org/1999/xlink">
<g id="graph0" class="graph" transform="scale(1 1) rotate(0) translate(4 480.95)">
<polygon fill="white" stroke="none" points="-4,4 -4,-480.95 1987.65,-480.95 1987.65,4 -4,4"/>
<!-- q18:2519 -->
<g id="node1" class="node">
<title>q18:2519</title>
<ellipse fill="none" stroke="black" stroke-width="2" cx="750.38" cy="-382.95" rx="58.57" ry="18"/>
<text text-anchor="middle" x="750.38" y="-378.27" font-family="Times,serif" font-size="14.00">q18:2519</text>
</g>
<!-- q18:2519&#45;&gt;q18:2519 -->
<g id="edge1" class="edge">
<title>q18:2519&#45;&gt;q18:2519</title>
<path fill="none" stroke="black" d="M727.27,-400.36C722.96,-410.03 730.66,-418.95 750.38,-418.95 761.78,-418.95 769.17,-415.97 772.54,-411.58"/>
<polygon fill="black" stroke="black" points="776.01,-412.13 773.36,-401.87 769.03,-411.54 776.01,-412.13"/>
<text text-anchor="middle" x="750.38" y="-422.89" font-family="Times,serif" font-size="14.00">content/λ:2421</text>
</g>
<!-- q22:89 -->
<g id="node2" class="node">
<title>q22:89</title>
<ellipse fill="none" stroke="black" stroke-width="2" cx="998.9" cy="-458.95" rx="45.95" ry="18"/>
<text text-anchor="middle" x="998.9" y="-454.27" font-family="Times,serif" font-size="14.00">q22:89</text>
</g>
<!-- q18:2519&#45;&gt;q22:89 -->
<g id="edge2" class="edge">
<title>q18:2519&#45;&gt;q22:89</title>
<path fill="none" stroke="black" d="M780.49,-399.16C794.26,-406.31 811.12,-414.35 826.96,-419.95 865.25,-433.48 910.06,-443.5 944.19,-450"/>
<polygon fill="black" stroke="black" points="943.37,-453.41 953.84,-451.78 944.64,-446.52 943.37,-453.41"/>
<text text-anchor="middle" x="880.96" y="-450.89" font-family="Times,serif" font-size="14.00">content/250:89</text>
</g>
<!-- q21:1 -->
<g id="node3" class="node">
<title>q21:1</title>
<ellipse fill="none" stroke="black" stroke-width="2" cx="998.9" cy="-404.95" rx="39.63" ry="18"/>
<text text-anchor="middle" x="998.9" y="-400.27" font-family="Times,serif" font-size="14.00">q21:1</text>
</g>
<!-- q18:2519&#45;&gt;q21:1 -->
<g id="edge3" class="edge">
<title>q18:2519&#45;&gt;q21:1</title>
<path fill="none" stroke="black" d="M807.63,-387.97C849.88,-391.74 907.23,-396.86 947.9,-400.48"/>
<polygon fill="black" stroke="black" points="947.38,-403.95 957.65,-401.35 948,-396.97 947.38,-403.95"/>
<text text-anchor="middle" x="880.96" y="-402.89" font-family="Times,serif" font-size="14.00">content/550:1</text>
</g>
<!-- q23:8 -->
<g id="node4" class="node">
<title>q23:8</title>
<ellipse fill="none" stroke="black" stroke-width="2" cx="998.9" cy="-350.95" rx="39.63" ry="18"/>
<text text-anchor="middle" x="998.9" y="-346.27" font-family="Times,serif" font-size="14.00">q23:8</text>
</g>
<!-- q18:2519&#45;&gt;q23:8 -->
<g id="edge4" class="edge">
<title>q18:2519&#45;&gt;q23:8</title>
<path fill="none" stroke="black" d="M800.88,-373.01C809.55,-371.44 818.5,-369.93 826.96,-368.7 867.54,-362.77 913.83,-358.09 947.99,-355.03"/>
<polygon fill="black" stroke="black" points="947.93,-358.55 957.58,-354.18 947.31,-351.58 947.93,-358.55"/>
<text text-anchor="middle" x="880.96" y="-371.89" font-family="Times,serif" font-size="14.00">content/554:8</text>
</g>
<!-- q27:89 -->
<g id="node5" class="node">
<title>q27:89</title>
<ellipse fill="none" stroke="black" stroke-width="2" cx="1241.1" cy="-458.95" rx="45.95" ry="18"/>
<text text-anchor="middle" x="1241.1" y="-454.27" font-family="Times,serif" font-size="14.00">q27:89</text>
</g>
<!-- q22:89&#45;&gt;q27:89 -->
<g id="edge5" class="edge">
<title>q22:89&#45;&gt;q27:89</title>
<path fill="none" stroke="black" d="M1045.6,-458.95C1084.7,-458.95 1141.1,-458.95 1183.1,-458.95"/>
<polygon fill="black" stroke="black" points="1182.99,-462.45 1192.99,-458.95 1182.99,-455.45 1182.99,-462.45"/>
<text text-anchor="middle" x="1116.8" y="-462.89" font-family="Times,serif" font-size="14.00">QUIT/221:89</text>
</g>
<!-- q26:1 -->
<g id="node6" class="node">
<title>q26:1</title>
<ellipse fill="none" stroke="black" stroke-width="2" cx="1241.1" cy="-404.95" rx="39.63" ry="18"/>
<text text-anchor="middle" x="1241.1" y="-400.27" font-family="Times,serif" font-size="14.00">q26:1</text>
</g>
<!-- q21:1&#45;&gt;q26:1 -->
<g id="edge6" class="edge">
<title>q21:1&#45;&gt;q26:1</title>
<path fill="none" stroke="black" d="M1039.3,-404.95C1080.2,-404.95 1144.4,-404.95 1189.2,-404.95"/>
<polygon fill="black" stroke="black" points="1189.19,-408.45 1199.19,-404.95 1189.19,-401.45 1189.19,-408.45"/>
<text text-anchor="middle" x="1116.8" y="-408.89" font-family="Times,serif" font-size="14.00">RSET/250:1</text>
</g>
<!-- q28:8 -->
<g id="node7" class="node">
<title>q28:8</title>
<ellipse fill="none" stroke="black" stroke-width="2" cx="1241.1" cy="-350.95" rx="39.63" ry="18"/>
<text text-anchor="middle" x="1241.1" y="-346.27" font-family="Times,serif" font-size="14.00">q28:8</text>
</g>
<!-- q23:8&#45;&gt;q28:8 -->
<g id="edge7" class="edge">
<title>q23:8&#45;&gt;q28:8</title>
<path fill="none" stroke="black" d="M1039.3,-350.95C1080.2,-350.95 1144.4,-350.95 1189.2,-350.95"/>
<polygon fill="black" stroke="black" points="1189.19,-354.45 1199.19,-350.95 1189.19,-347.45 1189.19,-354.45"/>
<text text-anchor="middle" x="1116.8" y="-354.89" font-family="Times,serif" font-size="14.00">RSET/250:8</text>
</g>
<!-- q10:233 -->
<g id="node8" class="node">
<title>q10:233</title>
<ellipse fill="none" stroke="black" stroke-width="2" cx="1241.1" cy="-277.95" rx="52.26" ry="18"/>
<text text-anchor="middle" x="1241.1" y="-273.27" font-family="Times,serif" font-size="14.00">q10:233</text>
</g>
<!-- q14:164 -->
<g id="node9" class="node">
<title>q14:164</title>
<ellipse fill="none" stroke="black" stroke-width="2" cx="1473.9" cy="-277.95" rx="52.26" ry="18"/>
<text text-anchor="middle" x="1473.9" y="-273.27" font-family="Times,serif" font-size="14.00">q14:164</text>
</g>
<!-- q10:233&#45;&gt;q14:164 -->
<g id="edge8" class="edge">
<title>q10:233&#45;&gt;q14:164</title>
<path fill="none" stroke="black" d="M1294.2,-277.95C1328.4,-277.95 1373.3,-277.95 1409.6,-277.95"/>
<polygon fill="black" stroke="black" points="1409.49,-281.45 1419.49,-277.95 1409.49,-274.45 1409.49,-281.45"/>
<text text-anchor="middle" x="1357.5" y="-281.89" font-family="Times,serif" font-size="14.00">DATA/354:90</text>
</g>
<!-- q13:143 -->
<g id="node10" class="node">
<title>q13:143</title>
<ellipse fill="none" stroke="black" stroke-width="2" cx="497.8" cy="-281.95" rx="52.26" ry="18"/>
<text text-anchor="middle" x="497.8" y="-277.27" font-family="Times,serif" font-size="14.00">q13:143</text>
</g>
<!-- q10:233&#45;&gt;q13:143 -->
<g id="edge9" class="edge">
<title>q10:233&#45;&gt;q13:143</title>
<path fill="none" stroke="black" d="M1188.2,-279.54C1088.5,-282.5 863.35,-288.77 673.81,-290.95 626.81,-291.49 614.96,-293.98 568.06,-290.95 564.88,-290.74 561.63,-290.48 558.35,-290.19"/>
<polygon fill="black" stroke="black" points="558.97,-286.73 548.67,-289.19 558.25,-293.7 558.97,-286.73"/>
<text text-anchor="middle" x="880.96" y="-291.89" font-family="Times,serif" font-size="14.00">RCPT/250:143</text>
</g>
<!-- q14:164&#45;&gt;q14:164 -->
<g id="edge10" class="edge">
<title>q14:164&#45;&gt;q14:164</title>
<path fill="none" stroke="black" d="M1453.1,-295.36C1449.2,-305.03 1456.1,-313.95 1473.9,-313.95 1484.1,-313.95 1490.8,-310.97 1493.8,-306.58"/>
<polygon fill="black" stroke="black" points="1497.27,-307.12 1494.58,-296.87 1490.29,-306.56 1497.27,-307.12"/>
<text text-anchor="middle" x="1473.9" y="-317.89" font-family="Times,serif" font-size="14.00">content/λ:74</text>
</g>
<!-- q20:66 -->
<g id="node11" class="node">
<title>q20:66</title>
<ellipse fill="none" stroke="black" stroke-width="2" cx="1716.1" cy="-302.95" rx="45.95" ry="18"/>
<text text-anchor="middle" x="1716.1" y="-298.27" font-family="Times,serif" font-size="14.00">q20:66</text>
</g>
<!-- q14:164&#45;&gt;q20:66 -->
<g id="edge11" class="edge">
<title>q14:164&#45;&gt;q20:66</title>
<path fill="none" stroke="black" d="M1524.9,-283.16C1564.2,-287.24 1618.8,-292.92 1659.4,-297.15"/>
<polygon fill="black" stroke="black" points="1658.88,-300.61 1669.19,-298.17 1659.61,-293.65 1658.88,-300.61"/>
<text text-anchor="middle" x="1598.1" y="-299.89" font-family="Times,serif" font-size="14.00">content/554:66</text>
</g>
<!-- q19:24 -->
<g id="node12" class="node">
<title>q19:24</title>
<ellipse fill="none" stroke="black" stroke-width="2" cx="1716.1" cy="-248.95" rx="45.95" ry="18"/>
<text text-anchor="middle" x="1716.1" y="-244.27" font-family="Times,serif" font-size="14.00">q19:24</text>
</g>
<!-- q14:164&#45;&gt;q19:24 -->
<g id="edge12" class="edge">
<title>q14:164&#45;&gt;q19:24</title>
<path fill="none" stroke="black" d="M1519.1,-268.05C1527.4,-266.42 1536,-264.88 1544.1,-263.7 1582,-258.19 1624.9,-254.5 1658.2,-252.18"/>
<polygon fill="black" stroke="black" points="1658.34,-255.68 1668.09,-251.52 1657.88,-248.69 1658.34,-255.68"/>
<text text-anchor="middle" x="1598.1" y="-266.89" font-family="Times,serif" font-size="14.00">content/250:24</text>
</g>
<!-- q13:143&#45;&gt;q18:2519 -->
<g id="edge13" class="edge">
<title>q13:143&#45;&gt;q18:2519</title>
<path fill="none" stroke="black" d="M526.29,-297.87C538.81,-304.8 553.96,-312.74 568.06,-318.95 610.14,-337.49 659.43,-354.6 696,-366.46"/>
<polygon fill="black" stroke="black" points="694.88,-369.77 705.47,-369.51 697.02,-363.11 694.88,-369.77"/>
<text text-anchor="middle" x="620.93" y="-360.89" font-family="Times,serif" font-size="14.00">DATA/354:98</text>
</g>
<!-- q16:43 -->
<g id="node13" class="node">
<title>q16:43</title>
<ellipse fill="none" stroke="black" stroke-width="2" cx="750.38" cy="-258.95" rx="45.95" ry="18"/>
<text text-anchor="middle" x="750.38" y="-254.27" font-family="Times,serif" font-size="14.00">q16:43</text>
</g>
<!-- q13:143&#45;&gt;q16:43 -->
<g id="edge14" class="edge">
<title>q13:143&#45;&gt;q16:43</title>
<path fill="none" stroke="black" d="M547.96,-275.86C554.71,-275.09 561.55,-274.35 568.06,-273.7 609.89,-269.51 657.23,-265.69 693.05,-262.98"/>
<polygon fill="black" stroke="black" points="693.04,-266.49 702.75,-262.26 692.52,-259.51 693.04,-266.49"/>
<text text-anchor="middle" x="620.93" y="-276.89" font-family="Times,serif" font-size="14.00">DATA/550:43</text>
</g>
<!-- q17:2 -->
<g id="node14" class="node">
<title>q17:2</title>
<ellipse fill="none" stroke="black" stroke-width="2" cx="750.38" cy="-204.95" rx="39.63" ry="18"/>
<text text-anchor="middle" x="750.38" y="-200.27" font-family="Times,serif" font-size="14.00">q17:2</text>
</g>
<!-- q13:143&#45;&gt;q17:2 -->
<g id="edge15" class="edge">
<title>q13:143&#45;&gt;q17:2</title>
<path fill="none" stroke="black" d="M523.53,-265.44C536.35,-257.54 552.54,-248.55 568.06,-242.7 611.14,-226.46 662.76,-216.58 699.88,-211.02"/>
<polygon fill="black" stroke="black" points="700.01,-214.54 709.41,-209.65 699.01,-207.61 700.01,-214.54"/>
<text text-anchor="middle" x="620.93" y="-245.89" font-family="Times,serif" font-size="14.00">RCPT/250:2</text>
</g>
<!-- q25:66 -->
<g id="node15" class="node">
<title>q25:66</title>
<ellipse fill="none" stroke="black" stroke-width="2" cx="1937.7" cy="-302.95" rx="45.95" ry="18"/>
<text text-anchor="middle" x="1937.7" y="-298.27" font-family="Times,serif" font-size="14.00">q25:66</text>
</g>
<!-- q20:66&#45;&gt;q25:66 -->
<g id="edge16" class="edge">
<title>q20:66&#45;&gt;q25:66</title>
<path fill="none" stroke="black" d="M1762.9,-302.95C1796.8,-302.95 1843.2,-302.95 1879.6,-302.95"/>
<polygon fill="black" stroke="black" points="1879.49,-306.45 1889.49,-302.95 1879.49,-299.45 1879.49,-306.45"/>
<text text-anchor="middle" x="1826.9" y="-306.89" font-family="Times,serif" font-size="14.00">RSET/250:66</text>
</g>
<!-- q24:24 -->
<g id="node16" class="node">
<title>q24:24</title>
<ellipse fill="none" stroke="black" stroke-width="2" cx="1937.7" cy="-248.95" rx="45.95" ry="18"/>
<text text-anchor="middle" x="1937.7" y="-244.27" font-family="Times,serif" font-size="14.00">q24:24</text>
</g>
<!-- q19:24&#45;&gt;q24:24 -->
<g id="edge17" class="edge">
<title>q19:24&#45;&gt;q24:24</title>
<path fill="none" stroke="black" d="M1762.9,-248.95C1796.8,-248.95 1843.2,-248.95 1879.6,-248.95"/>
<polygon fill="black" stroke="black" points="1879.49,-252.45 1889.49,-248.95 1879.49,-245.45 1879.49,-252.45"/>
<text text-anchor="middle" x="1826.9" y="-252.89" font-family="Times,serif" font-size="14.00">QUIT/221:24</text>
</g>
<!-- q7:233 -->
<g id="node17" class="node">
<title>q7:233</title>
<ellipse fill="none" stroke="black" stroke-width="2" cx="998.9" cy="-189.95" rx="45.95" ry="18"/>
<text text-anchor="middle" x="998.9" y="-185.27" font-family="Times,serif" font-size="14.00">q7:233</text>
</g>
<!-- q17:2&#45;&gt;q7:233 -->
<g id="edge18" class="edge">
<title>q17:2&#45;&gt;q7:233</title>
<path fill="none" stroke="black" d="M790.44,-202.57C831.12,-200.1 895.23,-196.19 941.42,-193.38"/>
<polygon fill="black" stroke="black" points="941.47,-196.88 951.24,-192.78 941.04,-189.9 941.47,-196.88"/>
<text text-anchor="middle" x="880.96" y="-203.89" font-family="Times,serif" font-size="14.00">RCPT/250:2</text>
</g>
<!-- q7:233&#45;&gt;q10:233 -->
<g id="edge27" class="edge">
<title>q7:233&#45;&gt;q10:233</title>
<path fill="none" stroke="black" d="M1034.1,-202.46C1075.7,-217.71 1146.2,-243.54 1192.9,-260.67"/>
<polygon fill="black" stroke="black" points="1191.68,-263.95 1202.28,-264.09 1194.08,-257.38 1191.68,-263.95"/>
<text text-anchor="middle" x="1116.8" y="-254.89" font-family="Times,serif" font-size="14.00">RCPT/250:233</text>
</g>
<!-- q2:242 -->
<g id="node18" class="node">
<title>q2:242</title>
<ellipse fill="none" stroke="black" stroke-width="2" cx="497.8" cy="-86.95" rx="45.95" ry="18"/>
<text text-anchor="middle" x="497.8" y="-82.27" font-family="Times,serif" font-size="14.00">q2:242</text>
</g>
<!-- q6:233 -->
<g id="node19" class="node">
<title>q6:233</title>
<ellipse fill="none" stroke="black" stroke-width="2" cx="750.38" cy="-95.95" rx="45.95" ry="18"/>
<text text-anchor="middle" x="750.38" y="-91.27" font-family="Times,serif" font-size="14.00">q6:233</text>
</g>
<!-- q2:242&#45;&gt;q6:233 -->
<g id="edge19" class="edge">
<title>q2:242&#45;&gt;q6:233</title>
<path fill="none" stroke="black" d="M544.47,-88.59C586.15,-90.08 647.92,-92.3 692.73,-93.91"/>
<polygon fill="black" stroke="black" points="692.4,-97.4 702.52,-94.26 692.65,-90.41 692.4,-97.4"/>
<text text-anchor="middle" x="620.93" y="-96.9" font-family="Times,serif" font-size="14.00">AUTH/235:231</text>
</g>
<!-- q5:10 -->
<g id="node20" class="node">
<title>q5:10</title>
<ellipse fill="none" stroke="black" stroke-width="2" cx="750.38" cy="-40.95" rx="39.63" ry="18"/>
<text text-anchor="middle" x="750.38" y="-36.27" font-family="Times,serif" font-size="14.00">q5:10</text>
</g>
<!-- q2:242&#45;&gt;q5:10 -->
<g id="edge20" class="edge">
<title>q2:242&#45;&gt;q5:10</title>
<path fill="none" stroke="black" d="M535.61,-75.8C546.03,-72.89 557.44,-69.95 568.06,-67.7 612.16,-58.35 662.98,-51.16 699.58,-46.6"/>
<polygon fill="black" stroke="black" points="699.93,-50.08 709.43,-45.39 699.08,-43.13 699.93,-50.08"/>
<text text-anchor="middle" x="620.93" y="-70.9" font-family="Times,serif" font-size="14.00">AUTH/535:10</text>
</g>
<!-- q4:1 -->
<g id="node21" class="node">
<title>q4:1</title>
<ellipse fill="none" stroke="black" stroke-width="2" cx="750.38" cy="-150.95" rx="33.32" ry="18"/>
<text text-anchor="middle" x="750.38" y="-146.27" font-family="Times,serif" font-size="14.00">q4:1</text>
</g>
<!-- q2:242&#45;&gt;q4:1 -->
<g id="edge21" class="edge">
<title>q2:242&#45;&gt;q4:1</title>
<path fill="none" stroke="black" d="M530.13,-100.46C541.87,-105.18 555.43,-110.23 568.06,-113.95 614.56,-127.65 669.24,-138.05 706.3,-144.29"/>
<polygon fill="black" stroke="black" points="705.28,-147.67 715.72,-145.84 706.42,-140.76 705.28,-147.67"/>
<text text-anchor="middle" x="620.93" y="-140.89" font-family="Times,serif" font-size="14.00">AUTH/λ:1</text>
</g>
<!-- q6:233&#45;&gt;q7:233 -->
<g id="edge23" class="edge">
<title>q6:233&#45;&gt;q7:233</title>
<path fill="none" stroke="black" d="M792.78,-103.79C842.94,-113.47 922.33,-129.41 934.96,-135.7 949.32,-142.86 963.09,-154.04 974.07,-164.4"/>
<polygon fill="black" stroke="black" points="971.57,-166.85 981.15,-171.37 976.48,-161.86 971.57,-166.85"/>
<text text-anchor="middle" x="880.96" y="-138.89" font-family="Times,serif" font-size="14.00">MAIL/250:230</text>
</g>
<!-- q9:3 -->
<g id="node22" class="node">
<title>q9:3</title>
<ellipse fill="none" stroke="black" stroke-width="2" cx="998.9" cy="-91.95" rx="33.32" ry="18"/>
<text text-anchor="middle" x="998.9" y="-87.27" font-family="Times,serif" font-size="14.00">q9:3</text>
</g>
<!-- q6:233&#45;&gt;q9:3 -->
<g id="edge22" class="edge">
<title>q6:233&#45;&gt;q9:3</title>
<path fill="none" stroke="black" d="M796.52,-92.99C806.54,-92.45 817.1,-91.97 826.96,-91.7 874.94,-90.35 886.96,-91.6 934.96,-91.7 941.03,-91.71 947.44,-91.73 953.75,-91.75"/>
<polygon fill="black" stroke="black" points="953.38,-95.25 963.4,-91.78 953.41,-88.25 953.38,-95.25"/>
<text text-anchor="middle" x="880.96" y="-94.9" font-family="Times,serif" font-size="14.00">MAIL/553:3</text>
</g>
<!-- q8:10 -->
<g id="node23" class="node">
<title>q8:10</title>
<ellipse fill="none" stroke="black" stroke-width="2" cx="998.9" cy="-37.95" rx="39.63" ry="18"/>
<text text-anchor="middle" x="998.9" y="-33.27" font-family="Times,serif" font-size="14.00">q8:10</text>
</g>
<!-- q5:10&#45;&gt;q8:10 -->
<g id="edge24" class="edge">
<title>q5:10&#45;&gt;q8:10</title>
<path fill="none" stroke="black" d="M790.99,-40.46C833.4,-39.95 900.82,-39.13 947.11,-38.56"/>
<polygon fill="black" stroke="black" points="946.92,-42.07 956.88,-38.45 946.83,-35.07 946.92,-42.07"/>
<text text-anchor="middle" x="880.96" y="-44.9" font-family="Times,serif" font-size="14.00">AUTH/334:10</text>
</g>
<!-- q4:1&#45;&gt;q7:233 -->
<g id="edge25" class="edge">
<title>q4:1&#45;&gt;q7:233</title>
<path fill="none" stroke="black" d="M784.11,-153.34C821,-156.38 882.67,-162.49 934.96,-172.7 939.91,-173.66 945.04,-174.81 950.14,-176.06"/>
<polygon fill="black" stroke="black" points="949.15,-179.42 959.7,-178.51 950.89,-172.64 949.15,-179.42"/>
<text text-anchor="middle" x="880.96" y="-175.89" font-family="Times,serif" font-size="14.00">MAIL/250:1</text>
</g>
<!-- q12:3 -->
<g id="node24" class="node">
<title>q12:3</title>
<ellipse fill="none" stroke="black" stroke-width="2" cx="1241.1" cy="-91.95" rx="39.63" ry="18"/>
<text text-anchor="middle" x="1241.1" y="-87.27" font-family="Times,serif" font-size="14.00">q12:3</text>
</g>
<!-- q9:3&#45;&gt;q12:3 -->
<g id="edge26" class="edge">
<title>q9:3&#45;&gt;q12:3</title>
<path fill="none" stroke="black" d="M1033,-91.95C1073.4,-91.95 1141.9,-91.95 1189,-91.95"/>
<polygon fill="black" stroke="black" points="1188.99,-95.45 1198.99,-91.95 1188.99,-88.45 1188.99,-95.45"/>
<text text-anchor="middle" x="1116.8" y="-95.9" font-family="Times,serif" font-size="14.00">RSET/250:3</text>
</g>
<!-- q11:10 -->
<g id="node25" class="node">
<title>q11:10</title>
<ellipse fill="none" stroke="black" stroke-width="2" cx="1241.1" cy="-37.95" rx="45.95" ry="18"/>
<text text-anchor="middle" x="1241.1" y="-33.27" font-family="Times,serif" font-size="14.00">q11:10</text>
</g>
<!-- q8:10&#45;&gt;q11:10 -->
<g id="edge28" class="edge">
<title>q8:10&#45;&gt;q11:10</title>
<path fill="none" stroke="black" d="M1039.3,-37.95C1078.4,-37.95 1138.7,-37.95 1183.1,-37.95"/>
<polygon fill="black" stroke="black" points="1182.99,-41.45 1192.99,-37.95 1182.99,-34.45 1182.99,-41.45"/>
<text text-anchor="middle" x="1116.8" y="-41.9" font-family="Times,serif" font-size="14.00">content/535:10</text>
</g>
<!-- q15:2 -->
<g id="node26" class="node">
<title>q15:2</title>
<ellipse fill="none" stroke="black" stroke-width="2" cx="1473.9" cy="-37.95" rx="39.63" ry="18"/>
<text text-anchor="middle" x="1473.9" y="-33.27" font-family="Times,serif" font-size="14.00">q15:2</text>
</g>
<!-- q11:10&#45;&gt;q15:2 -->
<g id="edge29" class="edge">
<title>q11:10&#45;&gt;q15:2</title>
<path fill="none" stroke="black" d="M1288,-37.95C1326.6,-37.95 1381.8,-37.95 1421.9,-37.95"/>
<polygon fill="black" stroke="black" points="1421.79,-41.45 1431.79,-37.95 1421.79,-34.45 1421.79,-41.45"/>
<text text-anchor="middle" x="1357.5" y="-41.9" font-family="Times,serif" font-size="14.00">λ/451:2</text>
</g>
<!-- q1:244 -->
<g id="node27" class="node">
<title>q1:244</title>
<ellipse fill="none" stroke="black" stroke-width="2" cx="257.84" cy="-53.95" rx="45.95" ry="18"/>
<text text-anchor="middle" x="257.84" y="-49.27" font-family="Times,serif" font-size="14.00">q1:244</text>
</g>
<!-- q1:244&#45;&gt;q2:242 -->
<g id="edge30" class="edge">
<title>q1:244&#45;&gt;q2:242</title>
<path fill="none" stroke="black" d="M302.21,-59.96C341.5,-65.41 399.58,-73.46 442.06,-79.36"/>
<polygon fill="black" stroke="black" points="441.44,-82.8 451.83,-80.71 442.41,-75.87 441.44,-82.8"/>
<text text-anchor="middle" x="374.66" y="-80.9" font-family="Times,serif" font-size="14.00">EHLO/250:242</text>
</g>
<!-- q3:2 -->
<g id="node28" class="node">
<title>q3:2</title>
<ellipse fill="none" stroke="black" stroke-width="2" cx="497.8" cy="-26.95" rx="33.32" ry="18"/>
<text text-anchor="middle" x="497.8" y="-22.27" font-family="Times,serif" font-size="14.00">q3:2</text>
</g>
<!-- q1:244&#45;&gt;q3:2 -->
<g id="edge31" class="edge">
<title>q1:244&#45;&gt;q3:2</title>
<path fill="none" stroke="black" d="M296.21,-43.05C304.56,-40.96 313.43,-39.02 321.79,-37.7 365.82,-30.73 416.74,-28.21 452.27,-27.34"/>
<polygon fill="black" stroke="black" points="452.25,-30.84 462.18,-27.13 452.11,-23.84 452.25,-30.84"/>
<text text-anchor="middle" x="374.66" y="-41.9" font-family="Times,serif" font-size="14.00">EHLO/λ:2</text>
</g>
<!-- q3:2&#45;&gt;q6:233 -->
<g id="edge32" class="edge">
<title>q3:2&#45;&gt;q6:233</title>
<path fill="none" stroke="black" d="M528.45,-18.56C565.62,-9.9 629.77,-1.26 673.81,-29.7 689.59,-39.89 678.61,-54.58 691.81,-67.95 695.61,-71.8 700.05,-75.2 704.74,-78.18"/>
<polygon fill="black" stroke="black" points="702.86,-81.14 713.3,-82.97 706.29,-75.03 702.86,-81.14"/>
<text text-anchor="middle" x="620.93" y="-33.9" font-family="Times,serif" font-size="14.00">AUTH/235:2</text>
</g>
<!-- q0:244 -->
<g id="node29" class="node">
<title>q0:244</title>
<ellipse fill="none" stroke="black" stroke-width="2" cx="53.95" cy="-53.95" rx="49.95" ry="49.95"/>
<ellipse fill="none" stroke="black" stroke-width="2" cx="53.95" cy="-53.95" rx="53.95" ry="53.95"/>
<text text-anchor="middle" x="53.95" y="-49.27" font-family="Times,serif" font-size="14.00">q0:244</text>
</g>
<!-- q0:244&#45;&gt;q1:244 -->
<g id="edge33" class="edge">
<title>q0:244&#45;&gt;q1:244</title>
<path fill="none" stroke="black" d="M104.85,-53.95C133.64,-53.95 169.94,-53.95 199.84,-53.95"/>
<polygon fill="black" stroke="black" points="199.45,-57.45 209.45,-53.95 199.45,-50.45 199.45,-57.45"/>
<text text-anchor="middle" x="157.89" y="-57.9" font-family="Times,serif" font-size="14.00">λ/220:244</text>
</g>
</g>
</svg>
