<?xml version="1.0" encoding="UTF-8" standalone="no"?>
<!DOCTYPE svg PUBLIC "-//W3C//DTD SVG 1.1//EN"
 "http://www.w3.org/Graphics/SVG/1.1/DTD/svg11.dtd">
<!-- Generated by graphviz version 12.0.0 (20240803.0821)
 -->
<!-- Pages: 1 -->
<svg width="2260pt" height="295pt"
 viewBox="0.00 0.00 2259.66 295.00" xmlns="http://www.w3.org/2000/svg" xmlns:xlink="http://www.w3.org/1999/xlink">
<g id="graph0" class="graph" transform="scale(1 1) rotate(0) translate(4 291)">
<polygon fill="white" stroke="none" points="-4,4 -4,-291 2255.66,-291 2255.66,4 -4,4"/>
<!-- q14:164 -->
<g id="node1" class="node">
<title>q14:164</title>
<ellipse fill="none" stroke="black" stroke-width="2" cx="1439.8" cy="-72" rx="52.26" ry="18"/>
<text text-anchor="middle" x="1439.8" y="-67.33" font-family="Times,serif" font-size="14.00">q14:164</text>
</g>
<!-- q14:164&#45;&gt;q14:164 -->
<g id="edge1" class="edge">
<title>q14:164&#45;&gt;q14:164</title>
<path fill="none" stroke="black" d="M1418.2,-89.04C1413.8,-98.86 1421,-108 1439.8,-108 1450.6,-108 1457.6,-104.94 1460.7,-100.47"/>
<polygon fill="black" stroke="black" points="1464.19,-100.72 1461.22,-90.55 1457.2,-100.35 1464.19,-100.72"/>
<text text-anchor="middle" x="1439.8" y="-111.95" font-family="Times,serif" font-size="14.00">content/λ:74</text>
</g>
<!-- q20:66 -->
<g id="node2" class="node">
<title>q20:66</title>
<ellipse fill="none" stroke="black" stroke-width="2" cx="1694.6" cy="-72" rx="45.95" ry="18"/>
<text text-anchor="middle" x="1694.6" y="-67.33" font-family="Times,serif" font-size="14.00">q20:66</text>
</g>
<!-- q14:164&#45;&gt;q20:66 -->
<g id="edge2" class="edge">
<title>q14:164&#45;&gt;q20:66</title>
<path fill="none" stroke="black" d="M1492.8,-72C1534.7,-72 1593.4,-72 1636.5,-72"/>
<polygon fill="black" stroke="black" points="1636.39,-75.5 1646.39,-72 1636.39,-68.5 1636.39,-75.5"/>
<text text-anchor="middle" x="1564" y="-75.95" font-family="Times,serif" font-size="14.00">content/554:66</text>
</g>
<!-- q19:24 -->
<g id="node3" class="node">
<title>q19:24</title>
<ellipse fill="none" stroke="black" stroke-width="2" cx="1694.6" cy="-18" rx="45.95" ry="18"/>
<text text-anchor="middle" x="1694.6" y="-13.32" font-family="Times,serif" font-size="14.00">q19:24</text>
</g>
<!-- q14:164&#45;&gt;q19:24 -->
<g id="edge3" class="edge">
<title>q14:164&#45;&gt;q19:24</title>
<path fill="none" stroke="black" d="M1479,-59.36C1489,-56.3 1499.9,-53.2 1510,-50.75 1553.1,-40.34 1602.6,-31.7 1639.3,-25.92"/>
<polygon fill="black" stroke="black" points="1639.46,-29.43 1648.8,-24.45 1638.39,-22.52 1639.46,-29.43"/>
<text text-anchor="middle" x="1564" y="-54.95" font-family="Times,serif" font-size="14.00">content/250:24</text>
</g>
<!-- q24:66 -->
<g id="node4" class="node">
<title>q24:66</title>
<ellipse fill="none" stroke="black" stroke-width="2" cx="1958.4" cy="-72" rx="45.95" ry="18"/>
<text text-anchor="middle" x="1958.4" y="-67.33" font-family="Times,serif" font-size="14.00">q24:66</text>
</g>
<!-- q20:66&#45;&gt;q24:66 -->
<g id="edge4" class="edge">
<title>q20:66&#45;&gt;q24:66</title>
<path fill="none" stroke="black" d="M1741.5,-72C1785.7,-72 1852.6,-72 1900.2,-72"/>
<polygon fill="black" stroke="black" points="1900.09,-75.5 1910.09,-72 1900.09,-68.5 1900.09,-75.5"/>
<text text-anchor="middle" x="1829.7" y="-75.95" font-family="Times,serif" font-size="14.00">RSET/250:66</text>
</g>
<!-- q23:24 -->
<g id="node5" class="node">
<title>q23:24</title>
<ellipse fill="none" stroke="black" stroke-width="2" cx="1958.4" cy="-18" rx="45.95" ry="18"/>
<text text-anchor="middle" x="1958.4" y="-13.32" font-family="Times,serif" font-size="14.00">q23:24</text>
</g>
<!-- q19:24&#45;&gt;q23:24 -->
<g id="edge5" class="edge">
<title>q19:24&#45;&gt;q23:24</title>
<path fill="none" stroke="black" d="M1741.5,-18C1785.7,-18 1852.6,-18 1900.2,-18"/>
<polygon fill="black" stroke="black" points="1900.09,-21.5 1910.09,-18 1900.09,-14.5 1900.09,-21.5"/>
<text text-anchor="middle" x="1829.7" y="-21.95" font-family="Times,serif" font-size="14.00">QUIT/221:24</text>
</g>
<!-- q1:244 -->
<g id="node6" class="node">
<title>q1:244</title>
<ellipse fill="none" stroke="black" stroke-width="2" cx="257.84" cy="-145" rx="45.95" ry="18"/>
<text text-anchor="middle" x="257.84" y="-140.32" font-family="Times,serif" font-size="14.00">q1:244</text>
</g>
<!-- q2:1 -->
<g id="node7" class="node">
<title>q2:1</title>
<ellipse fill="none" stroke="black" stroke-width="2" cx="491.48" cy="-118" rx="33.32" ry="18"/>
<text text-anchor="middle" x="491.48" y="-113.33" font-family="Times,serif" font-size="14.00">q2:1</text>
</g>
<!-- q1:244&#45;&gt;q2:1 -->
<g id="edge6" class="edge">
<title>q1:244&#45;&gt;q2:1</title>
<path fill="none" stroke="black" d="M298.66,-135.83C306.31,-134.29 314.27,-132.84 321.79,-131.75 363.67,-125.66 411.82,-122.07 445.93,-120.1"/>
<polygon fill="black" stroke="black" points="446.07,-123.6 455.86,-119.54 445.68,-116.61 446.07,-123.6"/>
<text text-anchor="middle" x="374.66" y="-135.94" font-family="Times,serif" font-size="14.00">EHLO/λ:1</text>
</g>
<!-- q3:243 -->
<g id="node8" class="node">
<title>q3:243</title>
<ellipse fill="none" stroke="black" stroke-width="2" cx="491.48" cy="-178" rx="45.95" ry="18"/>
<text text-anchor="middle" x="491.48" y="-173.32" font-family="Times,serif" font-size="14.00">q3:243</text>
</g>
<!-- q1:244&#45;&gt;q3:243 -->
<g id="edge7" class="edge">
<title>q1:244&#45;&gt;q3:243</title>
<path fill="none" stroke="black" d="M302.14,-151.17C340,-156.56 395.17,-164.42 436.02,-170.24"/>
<polygon fill="black" stroke="black" points="435.51,-173.7 445.9,-171.65 436.49,-166.77 435.51,-173.7"/>
<text text-anchor="middle" x="374.66" y="-171.94" font-family="Times,serif" font-size="14.00">EHLO/250:243</text>
</g>
<!-- q4:231 -->
<g id="node9" class="node">
<title>q4:231</title>
<ellipse fill="none" stroke="black" stroke-width="2" cx="725.13" cy="-111" rx="45.95" ry="18"/>
<text text-anchor="middle" x="725.13" y="-106.33" font-family="Times,serif" font-size="14.00">q4:231</text>
</g>
<!-- q2:1&#45;&gt;q4:231 -->
<g id="edge8" class="edge">
<title>q2:1&#45;&gt;q4:231</title>
<path fill="none" stroke="black" d="M523.05,-110.83C533.28,-108.75 544.79,-106.78 555.43,-105.75 593,-102.13 635.47,-103.48 668.4,-105.72"/>
<polygon fill="black" stroke="black" points="667.89,-109.19 678.12,-106.43 668.4,-102.21 667.89,-109.19"/>
<text text-anchor="middle" x="608.31" y="-109.95" font-family="Times,serif" font-size="14.00">AUTH/235:1</text>
</g>
<!-- q3:243&#45;&gt;q4:231 -->
<g id="edge9" class="edge">
<title>q3:243&#45;&gt;q4:231</title>
<path fill="none" stroke="black" d="M527.32,-165.82C536.44,-162.75 546.27,-159.54 555.43,-156.75 595.08,-144.69 640.43,-132.48 674.12,-123.71"/>
<polygon fill="black" stroke="black" points="674.8,-127.15 683.6,-121.25 673.05,-120.37 674.8,-127.15"/>
<text text-anchor="middle" x="608.31" y="-160.94" font-family="Times,serif" font-size="14.00">AUTH/235:230</text>
</g>
<!-- q5:1 -->
<g id="node10" class="node">
<title>q5:1</title>
<ellipse fill="none" stroke="black" stroke-width="2" cx="725.13" cy="-181" rx="33.32" ry="18"/>
<text text-anchor="middle" x="725.13" y="-176.32" font-family="Times,serif" font-size="14.00">q5:1</text>
</g>
<!-- q3:243&#45;&gt;q5:1 -->
<g id="edge10" class="edge">
<title>q3:243&#45;&gt;q5:1</title>
<path fill="none" stroke="black" d="M538.25,-178.59C579.17,-179.12 638.78,-179.89 679.39,-180.42"/>
<polygon fill="black" stroke="black" points="679.26,-183.92 689.31,-180.55 679.35,-176.92 679.26,-183.92"/>
<text text-anchor="middle" x="608.31" y="-183.94" font-family="Times,serif" font-size="14.00">AUTH/λ:1</text>
</g>
<!-- q6:12 -->
<g id="node11" class="node">
<title>q6:12</title>
<ellipse fill="none" stroke="black" stroke-width="2" cx="725.13" cy="-235" rx="39.63" ry="18"/>
<text text-anchor="middle" x="725.13" y="-230.32" font-family="Times,serif" font-size="14.00">q6:12</text>
</g>
<!-- q3:243&#45;&gt;q6:12 -->
<g id="edge11" class="edge">
<title>q3:243&#45;&gt;q6:12</title>
<path fill="none" stroke="black" d="M525.17,-191.01C534.82,-194.56 545.46,-198.19 555.43,-201 595.35,-212.25 641.58,-221.29 675.53,-227.22"/>
<polygon fill="black" stroke="black" points="674.61,-230.61 685.06,-228.85 675.79,-223.71 674.61,-230.61"/>
<text text-anchor="middle" x="608.31" y="-227.94" font-family="Times,serif" font-size="14.00">AUTH/535:12</text>
</g>
<!-- q8:229 -->
<g id="node12" class="node">
<title>q8:229</title>
<ellipse fill="none" stroke="black" stroke-width="2" cx="954.27" cy="-168" rx="45.95" ry="18"/>
<text text-anchor="middle" x="954.27" y="-163.32" font-family="Times,serif" font-size="14.00">q8:229</text>
</g>
<!-- q4:231&#45;&gt;q8:229 -->
<g id="edge12" class="edge">
<title>q4:231&#45;&gt;q8:229</title>
<path fill="none" stroke="black" d="M766.42,-119.91C799.75,-127.43 848.26,-138.7 890.33,-149.75 895.22,-151.04 900.32,-152.43 905.4,-153.85"/>
<polygon fill="black" stroke="black" points="904.38,-157.2 914.95,-156.57 906.29,-150.46 904.38,-157.2"/>
<text text-anchor="middle" x="839.7" y="-153.94" font-family="Times,serif" font-size="14.00">MAIL/250:228</text>
</g>
<!-- q7:3 -->
<g id="node13" class="node">
<title>q7:3</title>
<ellipse fill="none" stroke="black" stroke-width="2" cx="954.27" cy="-101" rx="33.32" ry="18"/>
<text text-anchor="middle" x="954.27" y="-96.33" font-family="Times,serif" font-size="14.00">q7:3</text>
</g>
<!-- q4:231&#45;&gt;q7:3 -->
<g id="edge13" class="edge">
<title>q4:231&#45;&gt;q7:3</title>
<path fill="none" stroke="black" d="M768.36,-103.96C775.27,-103.05 782.36,-102.26 789.08,-101.75 829.63,-98.69 875.99,-98.81 909.08,-99.51"/>
<polygon fill="black" stroke="black" points="908.6,-103 918.69,-99.75 908.77,-96.01 908.6,-103"/>
<text text-anchor="middle" x="839.7" y="-105.95" font-family="Times,serif" font-size="14.00">MAIL/553:3</text>
</g>
<!-- q5:1&#45;&gt;q8:229 -->
<g id="edge14" class="edge">
<title>q5:1&#45;&gt;q8:229</title>
<path fill="none" stroke="black" d="M759.16,-179.11C795.19,-177.05 853.5,-173.71 896.82,-171.23"/>
<polygon fill="black" stroke="black" points="896.75,-174.74 906.54,-170.68 896.36,-167.75 896.75,-174.74"/>
<text text-anchor="middle" x="839.7" y="-180.94" font-family="Times,serif" font-size="14.00">MAIL/250:1</text>
</g>
<!-- q9:12 -->
<g id="node14" class="node">
<title>q9:12</title>
<ellipse fill="none" stroke="black" stroke-width="2" cx="954.27" cy="-235" rx="39.63" ry="18"/>
<text text-anchor="middle" x="954.27" y="-230.32" font-family="Times,serif" font-size="14.00">q9:12</text>
</g>
<!-- q6:12&#45;&gt;q9:12 -->
<g id="edge15" class="edge">
<title>q6:12&#45;&gt;q9:12</title>
<path fill="none" stroke="black" d="M765.69,-235C803.6,-235 861,-235 902.32,-235"/>
<polygon fill="black" stroke="black" points="902.27,-238.5 912.27,-235 902.27,-231.5 902.27,-238.5"/>
<text text-anchor="middle" x="839.7" y="-238.94" font-family="Times,serif" font-size="14.00">AUTH/334:12</text>
</g>
<!-- q11:229 -->
<g id="node15" class="node">
<title>q11:229</title>
<ellipse fill="none" stroke="black" stroke-width="2" cx="1196.5" cy="-168" rx="52.26" ry="18"/>
<text text-anchor="middle" x="1196.5" y="-163.32" font-family="Times,serif" font-size="14.00">q11:229</text>
</g>
<!-- q8:229&#45;&gt;q11:229 -->
<g id="edge16" class="edge">
<title>q8:229&#45;&gt;q11:229</title>
<path fill="none" stroke="black" d="M1001.02,-168C1038.1,-168 1090.8,-168 1131.9,-168"/>
<polygon fill="black" stroke="black" points="1131.69,-171.5 1141.69,-168 1131.69,-164.5 1131.69,-171.5"/>
<text text-anchor="middle" x="1072.2" y="-171.94" font-family="Times,serif" font-size="14.00">RCPT/250:229</text>
</g>
<!-- q10:3 -->
<g id="node16" class="node">
<title>q10:3</title>
<ellipse fill="none" stroke="black" stroke-width="2" cx="1196.5" cy="-101" rx="39.63" ry="18"/>
<text text-anchor="middle" x="1196.5" y="-96.33" font-family="Times,serif" font-size="14.00">q10:3</text>
</g>
<!-- q7:3&#45;&gt;q10:3 -->
<g id="edge17" class="edge">
<title>q7:3&#45;&gt;q10:3</title>
<path fill="none" stroke="black" d="M988.42,-101C1028.8,-101 1097.3,-101 1144.4,-101"/>
<polygon fill="black" stroke="black" points="1144.39,-104.5 1154.39,-101 1144.39,-97.5 1144.39,-104.5"/>
<text text-anchor="middle" x="1072.2" y="-104.95" font-family="Times,serif" font-size="14.00">RSET/250:3</text>
</g>
<!-- q12:12 -->
<g id="node17" class="node">
<title>q12:12</title>
<ellipse fill="none" stroke="black" stroke-width="2" cx="1196.5" cy="-235" rx="45.95" ry="18"/>
<text text-anchor="middle" x="1196.5" y="-230.32" font-family="Times,serif" font-size="14.00">q12:12</text>
</g>
<!-- q9:12&#45;&gt;q12:12 -->
<g id="edge18" class="edge">
<title>q9:12&#45;&gt;q12:12</title>
<path fill="none" stroke="black" d="M994.67,-235C1033.8,-235 1094.1,-235 1138.4,-235"/>
<polygon fill="black" stroke="black" points="1138.39,-238.5 1148.39,-235 1138.39,-231.5 1138.39,-238.5"/>
<text text-anchor="middle" x="1072.2" y="-238.94" font-family="Times,serif" font-size="14.00">content/535:12</text>
</g>
<!-- q11:229&#45;&gt;q14:164 -->
<g id="edge25" class="edge">
<title>q11:229&#45;&gt;q14:164</title>
<path fill="none" stroke="black" d="M1232.6,-154.04C1275.1,-137.11 1346.9,-108.53 1393.6,-89.97"/>
<polygon fill="black" stroke="black" points="1394.6,-93.33 1402.59,-86.38 1392.01,-86.83 1394.6,-93.33"/>
<text text-anchor="middle" x="1318.1" y="-143.94" font-family="Times,serif" font-size="14.00">DATA/354:90</text>
</g>
<!-- q13:143 -->
<g id="node24" class="node">
<title>q13:143</title>
<ellipse fill="none" stroke="black" stroke-width="2" cx="1439.8" cy="-175" rx="52.26" ry="18"/>
<text text-anchor="middle" x="1439.8" y="-170.32" font-family="Times,serif" font-size="14.00">q13:143</text>
</g>
<!-- q11:229&#45;&gt;q13:143 -->
<g id="edge26" class="edge">
<title>q11:229&#45;&gt;q13:143</title>
<path fill="none" stroke="black" d="M1249.5,-169.51C1286.5,-170.58 1336.3,-172.03 1375.5,-173.16"/>
<polygon fill="black" stroke="black" points="1375.19,-176.65 1385.29,-173.45 1375.39,-169.66 1375.19,-176.65"/>
<text text-anchor="middle" x="1318.1" y="-175.94" font-family="Times,serif" font-size="14.00">RCPT/250:139</text>
</g>
<!-- q15:3 -->
<g id="node18" class="node">
<title>q15:3</title>
<ellipse fill="none" stroke="black" stroke-width="2" cx="1439.8" cy="-235" rx="39.63" ry="18"/>
<text text-anchor="middle" x="1439.8" y="-230.32" font-family="Times,serif" font-size="14.00">q15:3</text>
</g>
<!-- q12:12&#45;&gt;q15:3 -->
<g id="edge19" class="edge">
<title>q12:12&#45;&gt;q15:3</title>
<path fill="none" stroke="black" d="M1243.1,-235C1284.4,-235 1345.2,-235 1388,-235"/>
<polygon fill="black" stroke="black" points="1387.79,-238.5 1397.79,-235 1387.79,-231.5 1387.79,-238.5"/>
<text text-anchor="middle" x="1318.1" y="-238.94" font-family="Times,serif" font-size="14.00">λ/451:3</text>
</g>
<!-- q18:3105 -->
<g id="node19" class="node">
<title>q18:3105</title>
<ellipse fill="none" stroke="black" stroke-width="2" cx="1694.6" cy="-126" rx="58.57" ry="18"/>
<text text-anchor="middle" x="1694.6" y="-121.33" font-family="Times,serif" font-size="14.00">q18:3105</text>
</g>
<!-- q18:3105&#45;&gt;q18:3105 -->
<g id="edge20" class="edge">
<title>q18:3105&#45;&gt;q18:3105</title>
<path fill="none" stroke="black" d="M1671.3,-143.41C1666.9,-153.09 1674.7,-162 1694.6,-162 1706.1,-162 1713.5,-159.02 1716.9,-154.64"/>
<polygon fill="black" stroke="black" points="1720.36,-155.19 1717.77,-144.92 1713.39,-154.57 1720.36,-155.19"/>
<text text-anchor="middle" x="1694.6" y="-165.94" font-family="Times,serif" font-size="14.00">content/λ:2986</text>
</g>
<!-- q22:111 -->
<g id="node20" class="node">
<title>q22:111</title>
<ellipse fill="none" stroke="black" stroke-width="2" cx="1958.4" cy="-180" rx="52.26" ry="18"/>
<text text-anchor="middle" x="1958.4" y="-175.32" font-family="Times,serif" font-size="14.00">q22:111</text>
</g>
<!-- q18:3105&#45;&gt;q22:111 -->
<g id="edge21" class="edge">
<title>q18:3105&#45;&gt;q22:111</title>
<path fill="none" stroke="black" d="M1738.6,-138.71C1749.2,-141.63 1760.5,-144.59 1771.2,-147 1813.4,-156.58 1861.5,-165.05 1898.3,-171.01"/>
<polygon fill="black" stroke="black" points="1897.38,-174.41 1907.8,-172.53 1898.48,-167.49 1897.38,-174.41"/>
<text text-anchor="middle" x="1829.7" y="-172.94" font-family="Times,serif" font-size="14.00">content/250:111</text>
</g>
<!-- q21:8 -->
<g id="node21" class="node">
<title>q21:8</title>
<ellipse fill="none" stroke="black" stroke-width="2" cx="1958.4" cy="-126" rx="39.63" ry="18"/>
<text text-anchor="middle" x="1958.4" y="-121.33" font-family="Times,serif" font-size="14.00">q21:8</text>
</g>
<!-- q18:3105&#45;&gt;q21:8 -->
<g id="edge22" class="edge">
<title>q18:3105&#45;&gt;q21:8</title>
<path fill="none" stroke="black" d="M1754,-126C1799.7,-126 1862.6,-126 1906.3,-126"/>
<polygon fill="black" stroke="black" points="1906.29,-129.5 1916.29,-126 1906.29,-122.5 1906.29,-129.5"/>
<text text-anchor="middle" x="1829.7" y="-129.94" font-family="Times,serif" font-size="14.00">content/554:8</text>
</g>
<!-- q26:111 -->
<g id="node22" class="node">
<title>q26:111</title>
<ellipse fill="none" stroke="black" stroke-width="2" cx="2199.4" cy="-180" rx="52.26" ry="18"/>
<text text-anchor="middle" x="2199.4" y="-175.32" font-family="Times,serif" font-size="14.00">q26:111</text>
</g>
<!-- q22:111&#45;&gt;q26:111 -->
<g id="edge23" class="edge">
<title>q22:111&#45;&gt;q26:111</title>
<path fill="none" stroke="black" d="M2011.6,-180C2048,-180 2096.7,-180 2135.3,-180"/>
<polygon fill="black" stroke="black" points="2134.89,-183.5 2144.89,-180 2134.89,-176.5 2134.89,-183.5"/>
<text text-anchor="middle" x="2078.9" y="-183.94" font-family="Times,serif" font-size="14.00">QUIT/221:111</text>
</g>
<!-- q25:8 -->
<g id="node23" class="node">
<title>q25:8</title>
<ellipse fill="none" stroke="black" stroke-width="2" cx="2199.4" cy="-126" rx="39.63" ry="18"/>
<text text-anchor="middle" x="2199.4" y="-121.33" font-family="Times,serif" font-size="14.00">q25:8</text>
</g>
<!-- q21:8&#45;&gt;q25:8 -->
<g id="edge24" class="edge">
<title>q21:8&#45;&gt;q25:8</title>
<path fill="none" stroke="black" d="M1998.9,-126C2039.5,-126 2103.1,-126 2147.5,-126"/>
<polygon fill="black" stroke="black" points="2147.39,-129.5 2157.39,-126 2147.39,-122.5 2147.39,-129.5"/>
<text text-anchor="middle" x="2078.9" y="-129.94" font-family="Times,serif" font-size="14.00">RSET/250:8</text>
</g>
<!-- q13:143&#45;&gt;q18:3105 -->
<g id="edge27" class="edge">
<title>q13:143&#45;&gt;q18:3105</title>
<path fill="none" stroke="black" d="M1469.6,-159.42C1481.8,-153.55 1496.2,-147.41 1510,-143.75 1546.8,-133.95 1589.1,-129.42 1623.8,-127.39"/>
<polygon fill="black" stroke="black" points="1623.98,-130.89 1633.79,-126.87 1623.62,-123.89 1623.98,-130.89"/>
<text text-anchor="middle" x="1564" y="-147.94" font-family="Times,serif" font-size="14.00">DATA/354:119</text>
</g>
<!-- q17:4 -->
<g id="node25" class="node">
<title>q17:4</title>
<ellipse fill="none" stroke="black" stroke-width="2" cx="1694.6" cy="-215" rx="39.63" ry="18"/>
<text text-anchor="middle" x="1694.6" y="-210.32" font-family="Times,serif" font-size="14.00">q17:4</text>
</g>
<!-- q13:143&#45;&gt;q17:4 -->
<g id="edge28" class="edge">
<title>q13:143&#45;&gt;q17:4</title>
<path fill="none" stroke="black" d="M1488.9,-167.72C1525.2,-164.01 1575.8,-162.66 1618,-175.75 1627.3,-178.62 1627.6,-183.21 1636,-188 1641.8,-191.29 1648,-194.53 1654.2,-197.56"/>
<polygon fill="black" stroke="black" points="1652.5,-200.63 1663.03,-201.77 1655.51,-194.31 1652.5,-200.63"/>
<text text-anchor="middle" x="1564" y="-178.94" font-family="Times,serif" font-size="14.00">RCPT/250:4</text>
</g>
<!-- q16:20 -->
<g id="node26" class="node">
<title>q16:20</title>
<ellipse fill="none" stroke="black" stroke-width="2" cx="1694.6" cy="-269" rx="45.95" ry="18"/>
<text text-anchor="middle" x="1694.6" y="-264.32" font-family="Times,serif" font-size="14.00">q16:20</text>
</g>
<!-- q13:143&#45;&gt;q16:20 -->
<g id="edge29" class="edge">
<title>q13:143&#45;&gt;q16:20</title>
<path fill="none" stroke="black" d="M1468.3,-190.85C1476.3,-195.92 1484.8,-201.83 1492,-208 1501.1,-215.75 1499.7,-221.97 1510,-228 1548.7,-250.62 1598.7,-260.77 1636.7,-265.32"/>
<polygon fill="black" stroke="black" points="1636.27,-268.79 1646.59,-266.4 1637.03,-261.84 1636.27,-268.79"/>
<text text-anchor="middle" x="1564" y="-265.94" font-family="Times,serif" font-size="14.00">DATA/550:20</text>
</g>
<!-- q17:4&#45;&gt;q13:143 -->
<g id="edge30" class="edge">
<title>q17:4&#45;&gt;q13:143</title>
<path fill="none" stroke="black" d="M1654.7,-211.87C1617.4,-208.51 1559.5,-202.36 1510,-193 1504.4,-191.93 1498.5,-190.66 1492.7,-189.3"/>
<polygon fill="black" stroke="black" points="1493.62,-185.92 1483.07,-186.94 1491.95,-192.72 1493.62,-185.92"/>
<text text-anchor="middle" x="1564" y="-210.94" font-family="Times,serif" font-size="14.00">RCPT/250:4</text>
</g>
<!-- q0:244 -->
<g id="node27" class="node">
<title>q0:244</title>
<ellipse fill="none" stroke="black" stroke-width="2" cx="53.95" cy="-145" rx="49.95" ry="49.95"/>
<ellipse fill="none" stroke="black" stroke-width="2" cx="53.95" cy="-145" rx="53.95" ry="53.95"/>
<text text-anchor="middle" x="53.95" y="-140.32" font-family="Times,serif" font-size="14.00">q0:244</text>
</g>
<!-- q0:244&#45;&gt;q1:244 -->
<g id="edge31" class="edge">
<title>q0:244&#45;&gt;q1:244</title>
<path fill="none" stroke="black" d="M104.85,-145C133.64,-145 169.94,-145 199.84,-145"/>
<polygon fill="black" stroke="black" points="199.45,-148.5 209.45,-145 199.45,-141.5 199.45,-148.5"/>
<text text-anchor="middle" x="157.89" y="-148.94" font-family="Times,serif" font-size="14.00">λ/220:244</text>
</g>
</g>
</svg>
