<?xml version="1.0" encoding="UTF-8" standalone="no"?>
<!DOCTYPE svg PUBLIC "-//W3C//DTD SVG 1.1//EN"
 "http://www.w3.org/Graphics/SVG/1.1/DTD/svg11.dtd">
<!-- Generated by graphviz version 12.0.0 (20240803.0821)
 -->
<!-- Pages: 1 -->
<svg width="2024pt" height="370pt"
 viewBox="0.00 0.00 2024.16 370.00" xmlns="http://www.w3.org/2000/svg" xmlns:xlink="http://www.w3.org/1999/xlink">
<g id="graph0" class="graph" transform="scale(1 1) rotate(0) translate(4 366)">
<polygon fill="white" stroke="none" points="-4,4 -4,-366 2020.16,-366 2020.16,4 -4,4"/>
<!-- q17:50 -->
<g id="node1" class="node">
<title>q17:50</title>
<ellipse fill="none" stroke="black" stroke-width="2" cx="1722.9" cy="-126" rx="45.95" ry="18"/>
<text text-anchor="middle" x="1722.9" y="-121.33" font-family="Times,serif" font-size="14.00">q17:50</text>
</g>
<!-- q21:50 -->
<g id="node2" class="node">
<title>q21:50</title>
<ellipse fill="none" stroke="black" stroke-width="2" cx="1963.9" cy="-126" rx="45.95" ry="18"/>
<text text-anchor="middle" x="1963.9" y="-121.33" font-family="Times,serif" font-size="14.00">q21:50</text>
</g>
<!-- q17:50&#45;&gt;q21:50 -->
<g id="edge1" class="edge">
<title>q17:50&#45;&gt;q21:50</title>
<path fill="none" stroke="black" d="M1769.7,-126C1808.5,-126 1864.2,-126 1905.9,-126"/>
<polygon fill="black" stroke="black" points="1905.79,-129.5 1915.79,-126 1905.79,-122.5 1905.79,-129.5"/>
<text text-anchor="middle" x="1843.4" y="-129.94" font-family="Times,serif" font-size="14.00">RSET/250:50</text>
</g>
<!-- q14:164 -->
<g id="node3" class="node">
<title>q14:164</title>
<ellipse fill="none" stroke="black" stroke-width="2" cx="731.44" cy="-118" rx="52.26" ry="18"/>
<text text-anchor="middle" x="731.44" y="-113.33" font-family="Times,serif" font-size="14.00">q14:164</text>
</g>
<!-- q7:231 -->
<g id="node4" class="node">
<title>q7:231</title>
<ellipse fill="none" stroke="black" stroke-width="2" cx="972.33" cy="-211" rx="45.95" ry="18"/>
<text text-anchor="middle" x="972.33" y="-206.32" font-family="Times,serif" font-size="14.00">q7:231</text>
</g>
<!-- q14:164&#45;&gt;q7:231 -->
<g id="edge2" class="edge">
<title>q14:164&#45;&gt;q7:231</title>
<path fill="none" stroke="black" d="M762.08,-133.53C774.21,-139.63 788.48,-146.48 801.7,-152 842.33,-168.97 889.75,-185.17 924.11,-196.28"/>
<polygon fill="black" stroke="black" points="922.75,-199.52 933.34,-199.25 924.89,-192.85 922.75,-199.52"/>
<text text-anchor="middle" x="852.33" y="-191.94" font-family="Times,serif" font-size="14.00">RCPT/250:3</text>
</g>
<!-- q13:3213 -->
<g id="node5" class="node">
<title>q13:3213</title>
<ellipse fill="none" stroke="black" stroke-width="2" cx="1459" cy="-72" rx="58.57" ry="18"/>
<text text-anchor="middle" x="1459" y="-67.33" font-family="Times,serif" font-size="14.00">q13:3213</text>
</g>
<!-- q14:164&#45;&gt;q13:3213 -->
<g id="edge3" class="edge">
<title>q14:164&#45;&gt;q13:3213</title>
<path fill="none" stroke="black" d="M778.94,-109.5C786.54,-108.24 794.33,-107.03 801.7,-106 963.43,-83.51 1004.5,-78.93 1167.7,-74 1243,-71.72 1329.4,-71.42 1388.3,-71.57"/>
<polygon fill="black" stroke="black" points="1388.08,-75.07 1398.09,-71.6 1388.1,-68.07 1388.08,-75.07"/>
<text text-anchor="middle" x="1095.7" y="-82.95" font-family="Times,serif" font-size="14.00">DATA/354:118</text>
</g>
<!-- q19:43 -->
<g id="node6" class="node">
<title>q19:43</title>
<ellipse fill="none" stroke="black" stroke-width="2" cx="972.33" cy="-154" rx="45.95" ry="18"/>
<text text-anchor="middle" x="972.33" y="-149.32" font-family="Times,serif" font-size="14.00">q19:43</text>
</g>
<!-- q14:164&#45;&gt;q19:43 -->
<g id="edge4" class="edge">
<title>q14:164&#45;&gt;q19:43</title>
<path fill="none" stroke="black" d="M783.89,-120.68C817.9,-123.03 863.34,-127.29 902.95,-134.75 909.87,-136.05 917.11,-137.73 924.17,-139.56"/>
<polygon fill="black" stroke="black" points="923.03,-142.88 933.6,-142.11 924.86,-136.12 923.03,-142.88"/>
<text text-anchor="middle" x="852.33" y="-137.94" font-family="Times,serif" font-size="14.00">DATA/550:43</text>
</g>
<!-- q10:231 -->
<g id="node7" class="node">
<title>q10:231</title>
<ellipse fill="none" stroke="black" stroke-width="2" cx="1220" cy="-101" rx="52.26" ry="18"/>
<text text-anchor="middle" x="1220" y="-96.33" font-family="Times,serif" font-size="14.00">q10:231</text>
</g>
<!-- q7:231&#45;&gt;q10:231 -->
<g id="edge5" class="edge">
<title>q7:231&#45;&gt;q10:231</title>
<path fill="none" stroke="black" d="M1003.94,-197.29C1047.3,-177.87 1126.8,-142.25 1176.1,-120.21"/>
<polygon fill="black" stroke="black" points="1177.33,-123.49 1185.02,-116.2 1174.46,-117.11 1177.33,-123.49"/>
<text text-anchor="middle" x="1095.7" y="-181.94" font-family="Times,serif" font-size="14.00">RCPT/250:231</text>
</g>
<!-- q13:3213&#45;&gt;q17:50 -->
<g id="edge6" class="edge">
<title>q13:3213&#45;&gt;q17:50</title>
<path fill="none" stroke="black" d="M1503,-84.71C1513.6,-87.63 1525,-90.59 1535.6,-93 1579.7,-103.01 1630.3,-111.81 1667.6,-117.79"/>
<polygon fill="black" stroke="black" points="1666.78,-121.2 1677.2,-119.32 1667.88,-114.29 1666.78,-121.2"/>
<text text-anchor="middle" x="1594.1" y="-118.95" font-family="Times,serif" font-size="14.00">content/554:50</text>
</g>
<!-- q13:3213&#45;&gt;q13:3213 -->
<g id="edge7" class="edge">
<title>q13:3213&#45;&gt;q13:3213</title>
<path fill="none" stroke="black" d="M1437.1,-89.41C1433.1,-99.09 1440.4,-108 1459,-108 1469.9,-108 1476.9,-105.02 1480,-100.64"/>
<polygon fill="black" stroke="black" points="1483.46,-101.19 1480.87,-90.92 1476.49,-100.57 1483.46,-101.19"/>
<text text-anchor="middle" x="1459" y="-111.95" font-family="Times,serif" font-size="14.00">content/λ:3028</text>
</g>
<!-- q16:1 -->
<g id="node8" class="node">
<title>q16:1</title>
<ellipse fill="none" stroke="black" stroke-width="2" cx="1722.9" cy="-72" rx="39.63" ry="18"/>
<text text-anchor="middle" x="1722.9" y="-67.33" font-family="Times,serif" font-size="14.00">q16:1</text>
</g>
<!-- q13:3213&#45;&gt;q16:1 -->
<g id="edge8" class="edge">
<title>q13:3213&#45;&gt;q16:1</title>
<path fill="none" stroke="black" d="M1518.5,-72C1564.2,-72 1627.1,-72 1670.8,-72"/>
<polygon fill="black" stroke="black" points="1670.79,-75.5 1680.79,-72 1670.79,-68.5 1670.79,-75.5"/>
<text text-anchor="middle" x="1594.1" y="-75.95" font-family="Times,serif" font-size="14.00">content/550:1</text>
</g>
<!-- q18:134 -->
<g id="node9" class="node">
<title>q18:134</title>
<ellipse fill="none" stroke="black" stroke-width="2" cx="1722.9" cy="-18" rx="52.26" ry="18"/>
<text text-anchor="middle" x="1722.9" y="-13.32" font-family="Times,serif" font-size="14.00">q18:134</text>
</g>
<!-- q13:3213&#45;&gt;q18:134 -->
<g id="edge9" class="edge">
<title>q13:3213&#45;&gt;q18:134</title>
<path fill="none" stroke="black" d="M1502.6,-59.23C1513.3,-56.23 1524.9,-53.2 1535.6,-50.75 1577.8,-41.13 1626,-32.73 1662.7,-26.85"/>
<polygon fill="black" stroke="black" points="1662.97,-30.35 1672.3,-25.34 1661.88,-23.43 1662.97,-30.35"/>
<text text-anchor="middle" x="1594.1" y="-54.95" font-family="Times,serif" font-size="14.00">content/250:134</text>
</g>
<!-- q10:231&#45;&gt;q14:164 -->
<g id="edge10" class="edge">
<title>q10:231&#45;&gt;q14:164</title>
<path fill="none" stroke="black" d="M1167,-102.3C1107.5,-103.84 1007.2,-106.6 920.95,-109.75 878.97,-111.28 831.75,-113.35 795.07,-115.03"/>
<polygon fill="black" stroke="black" points="795.38,-111.51 785.55,-115.47 795.7,-118.5 795.38,-111.51"/>
<text text-anchor="middle" x="972.33" y="-112.95" font-family="Times,serif" font-size="14.00">RCPT/250:164</text>
</g>
<!-- q10:231&#45;&gt;q13:3213 -->
<g id="edge11" class="edge">
<title>q10:231&#45;&gt;q13:3213</title>
<path fill="none" stroke="black" d="M1270.4,-94.96C1305.7,-90.64 1353.6,-84.77 1392.2,-80.06"/>
<polygon fill="black" stroke="black" points="1392.3,-83.57 1401.8,-78.88 1391.45,-76.62 1392.3,-83.57"/>
<text text-anchor="middle" x="1336.3" y="-95.95" font-family="Times,serif" font-size="14.00">DATA/354:67</text>
</g>
<!-- q20:1 -->
<g id="node10" class="node">
<title>q20:1</title>
<ellipse fill="none" stroke="black" stroke-width="2" cx="1963.9" cy="-72" rx="39.63" ry="18"/>
<text text-anchor="middle" x="1963.9" y="-67.33" font-family="Times,serif" font-size="14.00">q20:1</text>
</g>
<!-- q16:1&#45;&gt;q20:1 -->
<g id="edge12" class="edge">
<title>q16:1&#45;&gt;q20:1</title>
<path fill="none" stroke="black" d="M1763.3,-72C1804,-72 1867.5,-72 1912,-72"/>
<polygon fill="black" stroke="black" points="1911.89,-75.5 1921.89,-72 1911.89,-68.5 1911.89,-75.5"/>
<text text-anchor="middle" x="1843.4" y="-75.95" font-family="Times,serif" font-size="14.00">RSET/250:1</text>
</g>
<!-- q22:134 -->
<g id="node11" class="node">
<title>q22:134</title>
<ellipse fill="none" stroke="black" stroke-width="2" cx="1963.9" cy="-18" rx="52.26" ry="18"/>
<text text-anchor="middle" x="1963.9" y="-13.32" font-family="Times,serif" font-size="14.00">q22:134</text>
</g>
<!-- q18:134&#45;&gt;q22:134 -->
<g id="edge13" class="edge">
<title>q18:134&#45;&gt;q22:134</title>
<path fill="none" stroke="black" d="M1776,-18C1812.4,-18 1861.2,-18 1899.7,-18"/>
<polygon fill="black" stroke="black" points="1899.39,-21.5 1909.39,-18 1899.39,-14.5 1899.39,-21.5"/>
<text text-anchor="middle" x="1843.4" y="-21.95" font-family="Times,serif" font-size="14.00">QUIT/221:134</text>
</g>
<!-- q8:3 -->
<g id="node12" class="node">
<title>q8:3</title>
<ellipse fill="none" stroke="black" stroke-width="2" cx="972.33" cy="-290" rx="33.32" ry="18"/>
<text text-anchor="middle" x="972.33" y="-285.32" font-family="Times,serif" font-size="14.00">q8:3</text>
</g>
<!-- q11:3 -->
<g id="node13" class="node">
<title>q11:3</title>
<ellipse fill="none" stroke="black" stroke-width="2" cx="1220" cy="-290" rx="39.63" ry="18"/>
<text text-anchor="middle" x="1220" y="-285.32" font-family="Times,serif" font-size="14.00">q11:3</text>
</g>
<!-- q8:3&#45;&gt;q11:3 -->
<g id="edge14" class="edge">
<title>q8:3&#45;&gt;q11:3</title>
<path fill="none" stroke="black" d="M1006.5,-290C1048,-290 1119.5,-290 1168,-290"/>
<polygon fill="black" stroke="black" points="1167.99,-293.5 1177.99,-290 1167.99,-286.5 1167.99,-293.5"/>
<text text-anchor="middle" x="1095.7" y="-293.94" font-family="Times,serif" font-size="14.00">RSET/250:3</text>
</g>
<!-- q4:230 -->
<g id="node14" class="node">
<title>q4:230</title>
<ellipse fill="none" stroke="black" stroke-width="2" cx="731.44" cy="-277" rx="45.95" ry="18"/>
<text text-anchor="middle" x="731.44" y="-272.32" font-family="Times,serif" font-size="14.00">q4:230</text>
</g>
<!-- q4:230&#45;&gt;q7:231 -->
<g id="edge15" class="edge">
<title>q4:230&#45;&gt;q7:231</title>
<path fill="none" stroke="black" d="M771.04,-266.83C820.34,-253.85 899.71,-232.92 902.95,-232 909.85,-230.03 917.11,-227.88 924.23,-225.74"/>
<polygon fill="black" stroke="black" points="925.22,-229.1 933.76,-222.83 923.18,-222.4 925.22,-229.1"/>
<text text-anchor="middle" x="852.33" y="-260.94" font-family="Times,serif" font-size="14.00">MAIL/250:227</text>
</g>
<!-- q4:230&#45;&gt;q8:3 -->
<g id="edge16" class="edge">
<title>q4:230&#45;&gt;q8:3</title>
<path fill="none" stroke="black" d="M777.94,-279.48C820.75,-281.81 884.46,-285.27 926.92,-287.58"/>
<polygon fill="black" stroke="black" points="926.6,-291.07 936.78,-288.12 926.98,-284.08 926.6,-291.07"/>
<text text-anchor="middle" x="852.33" y="-289.94" font-family="Times,serif" font-size="14.00">MAIL/553:3</text>
</g>
<!-- q3:242 -->
<g id="node15" class="node">
<title>q3:242</title>
<ellipse fill="none" stroke="black" stroke-width="2" cx="491.48" cy="-277" rx="45.95" ry="18"/>
<text text-anchor="middle" x="491.48" y="-272.32" font-family="Times,serif" font-size="14.00">q3:242</text>
</g>
<!-- q3:242&#45;&gt;q4:230 -->
<g id="edge17" class="edge">
<title>q3:242&#45;&gt;q4:230</title>
<path fill="none" stroke="black" d="M538.37,-277C576.88,-277 632.08,-277 673.43,-277"/>
<polygon fill="black" stroke="black" points="673.19,-280.5 683.19,-277 673.19,-273.5 673.19,-280.5"/>
<text text-anchor="middle" x="608.31" y="-280.94" font-family="Times,serif" font-size="14.00">AUTH/235:228</text>
</g>
<!-- q6:1 -->
<g id="node16" class="node">
<title>q6:1</title>
<ellipse fill="none" stroke="black" stroke-width="2" cx="731.44" cy="-220" rx="33.32" ry="18"/>
<text text-anchor="middle" x="731.44" y="-215.32" font-family="Times,serif" font-size="14.00">q6:1</text>
</g>
<!-- q3:242&#45;&gt;q6:1 -->
<g id="edge18" class="edge">
<title>q3:242&#45;&gt;q6:1</title>
<path fill="none" stroke="black" d="M526.88,-264.53C536.08,-261.43 546.08,-258.27 555.43,-255.75 600.01,-243.72 651.93,-233.59 687.58,-227.22"/>
<polygon fill="black" stroke="black" points="687.82,-230.73 697.06,-225.55 686.6,-223.84 687.82,-230.73"/>
<text text-anchor="middle" x="608.31" y="-258.94" font-family="Times,serif" font-size="14.00">AUTH/λ:1</text>
</g>
<!-- q5:13 -->
<g id="node17" class="node">
<title>q5:13</title>
<ellipse fill="none" stroke="black" stroke-width="2" cx="731.44" cy="-332" rx="39.63" ry="18"/>
<text text-anchor="middle" x="731.44" y="-327.32" font-family="Times,serif" font-size="14.00">q5:13</text>
</g>
<!-- q3:242&#45;&gt;q5:13 -->
<g id="edge19" class="edge">
<title>q3:242&#45;&gt;q5:13</title>
<path fill="none" stroke="black" d="M526.87,-289.37C536.08,-292.43 546.07,-295.54 555.43,-298 597.71,-309.11 646.6,-318.31 681.94,-324.32"/>
<polygon fill="black" stroke="black" points="680.98,-327.71 691.42,-325.91 682.13,-320.8 680.98,-327.71"/>
<text text-anchor="middle" x="608.31" y="-323.94" font-family="Times,serif" font-size="14.00">AUTH/535:13</text>
</g>
<!-- q6:1&#45;&gt;q7:231 -->
<g id="edge20" class="edge">
<title>q6:1&#45;&gt;q7:231</title>
<path fill="none" stroke="black" d="M765.19,-217.16C776.72,-216.25 789.78,-215.33 801.7,-214.75 839.2,-212.92 881.42,-211.98 914.35,-211.5"/>
<polygon fill="black" stroke="black" points="914.12,-215 924.08,-211.37 914.03,-208 914.12,-215"/>
<text text-anchor="middle" x="852.33" y="-217.94" font-family="Times,serif" font-size="14.00">MAIL/250:1</text>
</g>
<!-- q9:13 -->
<g id="node18" class="node">
<title>q9:13</title>
<ellipse fill="none" stroke="black" stroke-width="2" cx="972.33" cy="-344" rx="39.63" ry="18"/>
<text text-anchor="middle" x="972.33" y="-339.32" font-family="Times,serif" font-size="14.00">q9:13</text>
</g>
<!-- q5:13&#45;&gt;q9:13 -->
<g id="edge21" class="edge">
<title>q5:13&#45;&gt;q9:13</title>
<path fill="none" stroke="black" d="M771.62,-333.97C812.33,-336.01 876.18,-339.22 920.69,-341.46"/>
<polygon fill="black" stroke="black" points="920.46,-344.95 930.62,-341.95 920.8,-337.96 920.46,-344.95"/>
<text text-anchor="middle" x="852.33" y="-343.94" font-family="Times,serif" font-size="14.00">AUTH/334:13</text>
</g>
<!-- q12:13 -->
<g id="node19" class="node">
<title>q12:13</title>
<ellipse fill="none" stroke="black" stroke-width="2" cx="1220" cy="-344" rx="45.95" ry="18"/>
<text text-anchor="middle" x="1220" y="-339.32" font-family="Times,serif" font-size="14.00">q12:13</text>
</g>
<!-- q9:13&#45;&gt;q12:13 -->
<g id="edge22" class="edge">
<title>q9:13&#45;&gt;q12:13</title>
<path fill="none" stroke="black" d="M1012.8,-344C1053.2,-344 1116.3,-344 1162.1,-344"/>
<polygon fill="black" stroke="black" points="1161.79,-347.5 1171.79,-344 1161.79,-340.5 1161.79,-347.5"/>
<text text-anchor="middle" x="1095.7" y="-347.94" font-family="Times,serif" font-size="14.00">content/535:13</text>
</g>
<!-- q15:4 -->
<g id="node23" class="node">
<title>q15:4</title>
<ellipse fill="none" stroke="black" stroke-width="2" cx="1459" cy="-344" rx="39.63" ry="18"/>
<text text-anchor="middle" x="1459" y="-339.32" font-family="Times,serif" font-size="14.00">q15:4</text>
</g>
<!-- q12:13&#45;&gt;q15:4 -->
<g id="edge27" class="edge">
<title>q12:13&#45;&gt;q15:4</title>
<path fill="none" stroke="black" d="M1266.7,-344C1307,-344 1365.7,-344 1407.5,-344"/>
<polygon fill="black" stroke="black" points="1407.29,-347.5 1417.29,-344 1407.29,-340.5 1407.29,-347.5"/>
<text text-anchor="middle" x="1336.3" y="-347.94" font-family="Times,serif" font-size="14.00">λ/451:4</text>
</g>
<!-- q0:244 -->
<g id="node20" class="node">
<title>q0:244</title>
<ellipse fill="none" stroke="black" stroke-width="2" cx="53.95" cy="-244" rx="49.95" ry="49.95"/>
<ellipse fill="none" stroke="black" stroke-width="2" cx="53.95" cy="-244" rx="53.95" ry="53.95"/>
<text text-anchor="middle" x="53.95" y="-239.32" font-family="Times,serif" font-size="14.00">q0:244</text>
</g>
<!-- q1:244 -->
<g id="node21" class="node">
<title>q1:244</title>
<ellipse fill="none" stroke="black" stroke-width="2" cx="257.84" cy="-244" rx="45.95" ry="18"/>
<text text-anchor="middle" x="257.84" y="-239.32" font-family="Times,serif" font-size="14.00">q1:244</text>
</g>
<!-- q0:244&#45;&gt;q1:244 -->
<g id="edge23" class="edge">
<title>q0:244&#45;&gt;q1:244</title>
<path fill="none" stroke="black" d="M104.85,-244C133.64,-244 169.94,-244 199.84,-244"/>
<polygon fill="black" stroke="black" points="199.45,-247.5 209.45,-244 199.45,-240.5 199.45,-247.5"/>
<text text-anchor="middle" x="157.89" y="-247.94" font-family="Times,serif" font-size="14.00">λ/220:244</text>
</g>
<!-- q1:244&#45;&gt;q3:242 -->
<g id="edge24" class="edge">
<title>q1:244&#45;&gt;q3:242</title>
<path fill="none" stroke="black" d="M302.14,-250.17C340,-255.56 395.17,-263.42 436.02,-269.24"/>
<polygon fill="black" stroke="black" points="435.51,-272.7 445.9,-270.65 436.49,-265.77 435.51,-272.7"/>
<text text-anchor="middle" x="374.66" y="-270.94" font-family="Times,serif" font-size="14.00">EHLO/250:242</text>
</g>
<!-- q2:2 -->
<g id="node22" class="node">
<title>q2:2</title>
<ellipse fill="none" stroke="black" stroke-width="2" cx="491.48" cy="-217" rx="33.32" ry="18"/>
<text text-anchor="middle" x="491.48" y="-212.32" font-family="Times,serif" font-size="14.00">q2:2</text>
</g>
<!-- q1:244&#45;&gt;q2:2 -->
<g id="edge25" class="edge">
<title>q1:244&#45;&gt;q2:2</title>
<path fill="none" stroke="black" d="M298.66,-234.83C306.31,-233.29 314.27,-231.84 321.79,-230.75 363.67,-224.66 411.82,-221.07 445.93,-219.1"/>
<polygon fill="black" stroke="black" points="446.07,-222.6 455.86,-218.54 445.68,-215.61 446.07,-222.6"/>
<text text-anchor="middle" x="374.66" y="-233.94" font-family="Times,serif" font-size="14.00">EHLO/λ:2</text>
</g>
<!-- q2:2&#45;&gt;q4:230 -->
<g id="edge26" class="edge">
<title>q2:2&#45;&gt;q4:230</title>
<path fill="none" stroke="black" d="M520.6,-207.03C556.2,-196.28 618.09,-184.03 661.18,-210.75 676.47,-220.23 666.91,-233.85 679.18,-247 682.47,-250.52 686.26,-253.75 690.26,-256.69"/>
<polygon fill="black" stroke="black" points="688.3,-259.59 698.58,-262.16 692.15,-253.74 688.3,-259.59"/>
<text text-anchor="middle" x="608.31" y="-213.94" font-family="Times,serif" font-size="14.00">AUTH/235:2</text>
</g>
</g>
</svg>
