<?xml version="1.0" encoding="UTF-8" standalone="no"?>
<!DOCTYPE svg PUBLIC "-//W3C//DTD SVG 1.1//EN"
 "http://www.w3.org/Graphics/SVG/1.1/DTD/svg11.dtd">
<!-- Generated by graphviz version 12.0.0 (20240803.0821)
 -->
<!-- Pages: 1 -->
<svg width="2260pt" height="411pt"
 viewBox="0.00 0.00 2260.06 411.00" xmlns="http://www.w3.org/2000/svg" xmlns:xlink="http://www.w3.org/1999/xlink">
<g id="graph0" class="graph" transform="scale(1 1) rotate(0) translate(4 407)">
<polygon fill="white" stroke="none" points="-4,4 -4,-407 2256.06,-407 2256.06,4 -4,4"/>
<!-- q22:116 -->
<g id="node1" class="node">
<title>q22:116</title>
<ellipse fill="none" stroke="black" stroke-width="2" cx="1958.8" cy="-274" rx="52.26" ry="18"/>
<text text-anchor="middle" x="1958.8" y="-269.32" font-family="Times,serif" font-size="14.00">q22:116</text>
</g>
<!-- q27:116 -->
<g id="node2" class="node">
<title>q27:116</title>
<ellipse fill="none" stroke="black" stroke-width="2" cx="2199.8" cy="-274" rx="52.26" ry="18"/>
<text text-anchor="middle" x="2199.8" y="-269.32" font-family="Times,serif" font-size="14.00">q27:116</text>
</g>
<!-- q22:116&#45;&gt;q27:116 -->
<g id="edge1" class="edge">
<title>q22:116&#45;&gt;q27:116</title>
<path fill="none" stroke="black" d="M2011.9,-274C2048.3,-274 2097.1,-274 2135.6,-274"/>
<polygon fill="black" stroke="black" points="2135.19,-277.5 2145.19,-274 2135.19,-270.5 2135.19,-277.5"/>
<text text-anchor="middle" x="2079.3" y="-277.94" font-family="Times,serif" font-size="14.00">QUIT/221:116</text>
</g>
<!-- q3:2 -->
<g id="node3" class="node">
<title>q3:2</title>
<ellipse fill="none" stroke="black" stroke-width="2" cx="491.48" cy="-63" rx="33.32" ry="18"/>
<text text-anchor="middle" x="491.48" y="-58.33" font-family="Times,serif" font-size="14.00">q3:2</text>
</g>
<!-- q4:231 -->
<g id="node4" class="node">
<title>q4:231</title>
<ellipse fill="none" stroke="black" stroke-width="2" cx="731.44" cy="-56" rx="45.95" ry="18"/>
<text text-anchor="middle" x="731.44" y="-51.33" font-family="Times,serif" font-size="14.00">q4:231</text>
</g>
<!-- q3:2&#45;&gt;q4:231 -->
<g id="edge2" class="edge">
<title>q3:2&#45;&gt;q4:231</title>
<path fill="none" stroke="black" d="M523.05,-55.83C533.28,-53.76 544.79,-51.78 555.43,-50.75 595.26,-46.91 640.39,-48.41 674.85,-50.77"/>
<polygon fill="black" stroke="black" points="674.37,-54.24 684.6,-51.48 674.88,-47.26 674.37,-54.24"/>
<text text-anchor="middle" x="608.31" y="-54.95" font-family="Times,serif" font-size="14.00">AUTH/235:2</text>
</g>
<!-- q8:3 -->
<g id="node5" class="node">
<title>q8:3</title>
<ellipse fill="none" stroke="black" stroke-width="2" cx="972.33" cy="-18" rx="33.32" ry="18"/>
<text text-anchor="middle" x="972.33" y="-13.32" font-family="Times,serif" font-size="14.00">q8:3</text>
</g>
<!-- q4:231&#45;&gt;q8:3 -->
<g id="edge3" class="edge">
<title>q4:231&#45;&gt;q8:3</title>
<path fill="none" stroke="black" d="M771.49,-46.1C781.31,-43.81 791.86,-41.53 801.7,-39.75 844.22,-32.06 893.22,-26.08 927.59,-22.36"/>
<polygon fill="black" stroke="black" points="927.58,-25.88 937.15,-21.34 926.84,-18.92 927.58,-25.88"/>
<text text-anchor="middle" x="852.33" y="-43.95" font-family="Times,serif" font-size="14.00">MAIL/553:3</text>
</g>
<!-- q7:228 -->
<g id="node6" class="node">
<title>q7:228</title>
<ellipse fill="none" stroke="black" stroke-width="2" cx="972.33" cy="-72" rx="45.95" ry="18"/>
<text text-anchor="middle" x="972.33" y="-67.33" font-family="Times,serif" font-size="14.00">q7:228</text>
</g>
<!-- q4:231&#45;&gt;q7:228 -->
<g id="edge4" class="edge">
<title>q4:231&#45;&gt;q7:228</title>
<path fill="none" stroke="black" d="M777.66,-59.03C816.6,-61.64 872.99,-65.41 914.89,-68.22"/>
<polygon fill="black" stroke="black" points="914.58,-71.71 924.79,-68.88 915.05,-64.72 914.58,-71.71"/>
<text text-anchor="middle" x="852.33" y="-71.95" font-family="Times,serif" font-size="14.00">MAIL/250:228</text>
</g>
<!-- q11:3 -->
<g id="node7" class="node">
<title>q11:3</title>
<ellipse fill="none" stroke="black" stroke-width="2" cx="1220" cy="-18" rx="39.63" ry="18"/>
<text text-anchor="middle" x="1220" y="-13.32" font-family="Times,serif" font-size="14.00">q11:3</text>
</g>
<!-- q8:3&#45;&gt;q11:3 -->
<g id="edge5" class="edge">
<title>q8:3&#45;&gt;q11:3</title>
<path fill="none" stroke="black" d="M1006.5,-18C1048,-18 1119.5,-18 1168,-18"/>
<polygon fill="black" stroke="black" points="1167.99,-21.5 1177.99,-18 1167.99,-14.5 1167.99,-21.5"/>
<text text-anchor="middle" x="1095.7" y="-21.95" font-family="Times,serif" font-size="14.00">RSET/250:3</text>
</g>
<!-- q10:232 -->
<g id="node8" class="node">
<title>q10:232</title>
<ellipse fill="none" stroke="black" stroke-width="2" cx="1220" cy="-179" rx="52.26" ry="18"/>
<text text-anchor="middle" x="1220" y="-174.32" font-family="Times,serif" font-size="14.00">q10:232</text>
</g>
<!-- q7:228&#45;&gt;q10:232 -->
<g id="edge6" class="edge">
<title>q7:228&#45;&gt;q10:232</title>
<path fill="none" stroke="black" d="M1018.5,-68.93C1056,-68.39 1109.3,-72.4 1149.7,-94.75 1173,-107.65 1191.6,-131.82 1203.7,-150.98"/>
<polygon fill="black" stroke="black" points="1200.61,-152.62 1208.73,-159.43 1206.62,-149.05 1200.61,-152.62"/>
<text text-anchor="middle" x="1095.7" y="-98.95" font-family="Times,serif" font-size="14.00">RCPT/250:228</text>
</g>
<!-- q13:163 -->
<g id="node9" class="node">
<title>q13:163</title>
<ellipse fill="none" stroke="black" stroke-width="2" cx="731.44" cy="-259" rx="52.26" ry="18"/>
<text text-anchor="middle" x="731.44" y="-254.32" font-family="Times,serif" font-size="14.00">q13:163</text>
</g>
<!-- q10:232&#45;&gt;q13:163 -->
<g id="edge7" class="edge">
<title>q10:232&#45;&gt;q13:163</title>
<path fill="none" stroke="black" d="M1180.8,-191.73C1170.7,-194.75 1159.9,-197.75 1149.7,-200 1025,-227.56 876.28,-244.97 794.34,-253.26"/>
<polygon fill="black" stroke="black" points="794.1,-249.77 784.5,-254.24 794.79,-256.73 794.1,-249.77"/>
<text text-anchor="middle" x="972.33" y="-241.94" font-family="Times,serif" font-size="14.00">RCPT/250:163</text>
</g>
<!-- q14:69 -->
<g id="node10" class="node">
<title>q14:69</title>
<ellipse fill="none" stroke="black" stroke-width="2" cx="1446.4" cy="-183" rx="45.95" ry="18"/>
<text text-anchor="middle" x="1446.4" y="-178.32" font-family="Times,serif" font-size="14.00">q14:69</text>
</g>
<!-- q10:232&#45;&gt;q14:69 -->
<g id="edge8" class="edge">
<title>q10:232&#45;&gt;q14:69</title>
<path fill="none" stroke="black" d="M1273,-179.93C1307.6,-180.54 1353,-181.35 1388.6,-181.99"/>
<polygon fill="black" stroke="black" points="1388.12,-185.48 1398.19,-182.16 1388.25,-178.48 1388.12,-185.48"/>
<text text-anchor="middle" x="1336.3" y="-184.94" font-family="Times,serif" font-size="14.00">DATA/354:69</text>
</g>
<!-- q18:3265 -->
<g id="node17" class="node">
<title>q18:3265</title>
<ellipse fill="none" stroke="black" stroke-width="2" cx="1694.9" cy="-328" rx="58.57" ry="18"/>
<text text-anchor="middle" x="1694.9" y="-323.32" font-family="Times,serif" font-size="14.00">q18:3265</text>
</g>
<!-- q13:163&#45;&gt;q18:3265 -->
<g id="edge18" class="edge">
<title>q13:163&#45;&gt;q18:3265</title>
<path fill="none" stroke="black" d="M756.46,-275.53C769.36,-283.7 785.84,-293.06 801.7,-299 873.64,-325.91 894.52,-332 971.33,-332 971.33,-332 971.33,-332 1447.4,-332 1507.1,-332 1574.8,-330.82 1624.2,-329.74"/>
<polygon fill="black" stroke="black" points="1624.27,-333.24 1634.19,-329.51 1624.11,-326.24 1624.27,-333.24"/>
<text text-anchor="middle" x="1220" y="-335.94" font-family="Times,serif" font-size="14.00">DATA/354:122</text>
</g>
<!-- q17:3 -->
<g id="node20" class="node">
<title>q17:3</title>
<ellipse fill="none" stroke="black" stroke-width="2" cx="972.33" cy="-179" rx="39.63" ry="18"/>
<text text-anchor="middle" x="972.33" y="-174.32" font-family="Times,serif" font-size="14.00">q17:3</text>
</g>
<!-- q13:163&#45;&gt;q17:3 -->
<g id="edge19" class="edge">
<title>q13:163&#45;&gt;q17:3</title>
<path fill="none" stroke="black" d="M748.52,-241.15C761.51,-227.97 780.97,-210.81 801.7,-201.75 839.37,-185.29 885.87,-179.97 920.65,-178.57"/>
<polygon fill="black" stroke="black" points="920.57,-182.07 930.46,-178.28 920.36,-175.08 920.57,-182.07"/>
<text text-anchor="middle" x="852.33" y="-204.94" font-family="Times,serif" font-size="14.00">RCPT/250:3</text>
</g>
<!-- q16:38 -->
<g id="node21" class="node">
<title>q16:38</title>
<ellipse fill="none" stroke="black" stroke-width="2" cx="972.33" cy="-286" rx="45.95" ry="18"/>
<text text-anchor="middle" x="972.33" y="-281.32" font-family="Times,serif" font-size="14.00">q16:38</text>
</g>
<!-- q13:163&#45;&gt;q16:38 -->
<g id="edge20" class="edge">
<title>q13:163&#45;&gt;q16:38</title>
<path fill="none" stroke="black" d="M782.23,-264.63C821.27,-269.04 875.56,-275.18 915.96,-279.74"/>
<polygon fill="black" stroke="black" points="915.39,-283.2 925.73,-280.85 916.18,-276.24 915.39,-283.2"/>
<text text-anchor="middle" x="852.33" y="-281.94" font-family="Times,serif" font-size="14.00">DATA/550:38</text>
</g>
<!-- q19:9 -->
<g id="node11" class="node">
<title>q19:9</title>
<ellipse fill="none" stroke="black" stroke-width="2" cx="1694.9" cy="-158" rx="39.63" ry="18"/>
<text text-anchor="middle" x="1694.9" y="-153.32" font-family="Times,serif" font-size="14.00">q19:9</text>
</g>
<!-- q14:69&#45;&gt;q19:9 -->
<g id="edge21" class="edge">
<title>q14:69&#45;&gt;q19:9</title>
<path fill="none" stroke="black" d="M1483.7,-171.56C1492.4,-169.25 1501.6,-167.11 1510.4,-165.75 1554.9,-158.8 1606.1,-157.16 1643.2,-157.09"/>
<polygon fill="black" stroke="black" points="1643.18,-160.59 1653.19,-157.11 1643.19,-153.59 1643.18,-160.59"/>
<text text-anchor="middle" x="1564.4" y="-168.94" font-family="Times,serif" font-size="14.00">content/250:9</text>
</g>
<!-- q14:69&#45;&gt;q18:3265 -->
<g id="edge22" class="edge">
<title>q14:69&#45;&gt;q18:3265</title>
<path fill="none" stroke="black" d="M1471.8,-198.84C1483.4,-206.3 1497.5,-215.24 1510.4,-223 1559.5,-252.64 1617.1,-285.23 1654.5,-306.12"/>
<polygon fill="black" stroke="black" points="1652.65,-309.09 1663.08,-310.95 1656.08,-302.99 1652.65,-309.09"/>
<text text-anchor="middle" x="1564.4" y="-286.94" font-family="Times,serif" font-size="14.00">content/λ:3</text>
</g>
<!-- q20:57 -->
<g id="node22" class="node">
<title>q20:57</title>
<ellipse fill="none" stroke="black" stroke-width="2" cx="1694.9" cy="-212" rx="45.95" ry="18"/>
<text text-anchor="middle" x="1694.9" y="-207.32" font-family="Times,serif" font-size="14.00">q20:57</text>
</g>
<!-- q14:69&#45;&gt;q20:57 -->
<g id="edge23" class="edge">
<title>q14:69&#45;&gt;q20:57</title>
<path fill="none" stroke="black" d="M1491.5,-188.18C1532.6,-193.03 1594.2,-200.27 1638.6,-205.5"/>
<polygon fill="black" stroke="black" points="1637.96,-208.95 1648.3,-206.63 1638.77,-202 1637.96,-208.95"/>
<text text-anchor="middle" x="1564.4" y="-205.94" font-family="Times,serif" font-size="14.00">content/554:57</text>
</g>
<!-- q24:9 -->
<g id="node12" class="node">
<title>q24:9</title>
<ellipse fill="none" stroke="black" stroke-width="2" cx="1958.8" cy="-158" rx="39.63" ry="18"/>
<text text-anchor="middle" x="1958.8" y="-153.32" font-family="Times,serif" font-size="14.00">q24:9</text>
</g>
<!-- q19:9&#45;&gt;q24:9 -->
<g id="edge9" class="edge">
<title>q19:9&#45;&gt;q24:9</title>
<path fill="none" stroke="black" d="M1735.4,-158C1781.3,-158 1857,-158 1907.2,-158"/>
<polygon fill="black" stroke="black" points="1906.89,-161.5 1916.89,-158 1906.89,-154.5 1906.89,-161.5"/>
<text text-anchor="middle" x="1830" y="-161.94" font-family="Times,serif" font-size="14.00">QUIT/221:9</text>
</g>
<!-- q12:12 -->
<g id="node13" class="node">
<title>q12:12</title>
<ellipse fill="none" stroke="black" stroke-width="2" cx="1220" cy="-385" rx="45.95" ry="18"/>
<text text-anchor="middle" x="1220" y="-380.32" font-family="Times,serif" font-size="14.00">q12:12</text>
</g>
<!-- q15:4 -->
<g id="node14" class="node">
<title>q15:4</title>
<ellipse fill="none" stroke="black" stroke-width="2" cx="1446.4" cy="-385" rx="39.63" ry="18"/>
<text text-anchor="middle" x="1446.4" y="-380.32" font-family="Times,serif" font-size="14.00">q15:4</text>
</g>
<!-- q12:12&#45;&gt;q15:4 -->
<g id="edge10" class="edge">
<title>q12:12&#45;&gt;q15:4</title>
<path fill="none" stroke="black" d="M1266.7,-385C1303.7,-385 1355.9,-385 1394.3,-385"/>
<polygon fill="black" stroke="black" points="1394.29,-388.5 1404.29,-385 1394.29,-381.5 1394.29,-388.5"/>
<text text-anchor="middle" x="1336.3" y="-388.94" font-family="Times,serif" font-size="14.00">λ/451:4</text>
</g>
<!-- q23:1 -->
<g id="node15" class="node">
<title>q23:1</title>
<ellipse fill="none" stroke="black" stroke-width="2" cx="1958.8" cy="-382" rx="39.63" ry="18"/>
<text text-anchor="middle" x="1958.8" y="-377.32" font-family="Times,serif" font-size="14.00">q23:1</text>
</g>
<!-- q28:1 -->
<g id="node16" class="node">
<title>q28:1</title>
<ellipse fill="none" stroke="black" stroke-width="2" cx="2199.8" cy="-382" rx="39.63" ry="18"/>
<text text-anchor="middle" x="2199.8" y="-377.32" font-family="Times,serif" font-size="14.00">q28:1</text>
</g>
<!-- q23:1&#45;&gt;q28:1 -->
<g id="edge11" class="edge">
<title>q23:1&#45;&gt;q28:1</title>
<path fill="none" stroke="black" d="M1999.2,-382C2039.9,-382 2103.4,-382 2147.8,-382"/>
<polygon fill="black" stroke="black" points="2147.79,-385.5 2157.79,-382 2147.79,-378.5 2147.79,-385.5"/>
<text text-anchor="middle" x="2079.3" y="-385.94" font-family="Times,serif" font-size="14.00">RSET/250:1</text>
</g>
<!-- q18:3265&#45;&gt;q22:116 -->
<g id="edge12" class="edge">
<title>q18:3265&#45;&gt;q22:116</title>
<path fill="none" stroke="black" d="M1738.5,-315.22C1749.2,-312.23 1760.7,-309.2 1771.5,-306.75 1813.7,-297.13 1861.9,-288.73 1898.6,-282.85"/>
<polygon fill="black" stroke="black" points="1898.87,-286.35 1908.2,-281.34 1897.78,-279.44 1898.87,-286.35"/>
<text text-anchor="middle" x="1830" y="-309.94" font-family="Times,serif" font-size="14.00">content/250:116</text>
</g>
<!-- q18:3265&#45;&gt;q23:1 -->
<g id="edge13" class="edge">
<title>q18:3265&#45;&gt;q23:1</title>
<path fill="none" stroke="black" d="M1738.9,-340.71C1749.5,-343.63 1760.9,-346.59 1771.5,-349 1817.8,-359.51 1871.2,-368.67 1908.9,-374.66"/>
<polygon fill="black" stroke="black" points="1908.18,-378.09 1918.6,-376.18 1909.26,-371.17 1908.18,-378.09"/>
<text text-anchor="middle" x="1830" y="-374.94" font-family="Times,serif" font-size="14.00">content/550:1</text>
</g>
<!-- q18:3265&#45;&gt;q18:3265 -->
<g id="edge14" class="edge">
<title>q18:3265&#45;&gt;q18:3265</title>
<path fill="none" stroke="black" d="M1671.6,-345.41C1667.3,-355.09 1675,-364 1694.9,-364 1706.4,-364 1713.9,-361.02 1717.3,-356.64"/>
<polygon fill="black" stroke="black" points="1720.76,-357.19 1718.17,-346.92 1713.79,-356.57 1720.76,-357.19"/>
<text text-anchor="middle" x="1694.9" y="-367.94" font-family="Times,serif" font-size="14.00">content/λ:3140</text>
</g>
<!-- q21:8 -->
<g id="node18" class="node">
<title>q21:8</title>
<ellipse fill="none" stroke="black" stroke-width="2" cx="1958.8" cy="-328" rx="39.63" ry="18"/>
<text text-anchor="middle" x="1958.8" y="-323.32" font-family="Times,serif" font-size="14.00">q21:8</text>
</g>
<!-- q18:3265&#45;&gt;q21:8 -->
<g id="edge15" class="edge">
<title>q18:3265&#45;&gt;q21:8</title>
<path fill="none" stroke="black" d="M1754.4,-328C1800.1,-328 1863,-328 1906.7,-328"/>
<polygon fill="black" stroke="black" points="1906.69,-331.5 1916.69,-328 1906.69,-324.5 1906.69,-331.5"/>
<text text-anchor="middle" x="1830" y="-331.94" font-family="Times,serif" font-size="14.00">content/554:8</text>
</g>
<!-- q26:8 -->
<g id="node19" class="node">
<title>q26:8</title>
<ellipse fill="none" stroke="black" stroke-width="2" cx="2199.8" cy="-328" rx="39.63" ry="18"/>
<text text-anchor="middle" x="2199.8" y="-323.32" font-family="Times,serif" font-size="14.00">q26:8</text>
</g>
<!-- q21:8&#45;&gt;q26:8 -->
<g id="edge16" class="edge">
<title>q21:8&#45;&gt;q26:8</title>
<path fill="none" stroke="black" d="M1999.2,-328C2039.9,-328 2103.4,-328 2147.8,-328"/>
<polygon fill="black" stroke="black" points="2147.79,-331.5 2157.79,-328 2147.79,-324.5 2147.79,-331.5"/>
<text text-anchor="middle" x="2079.3" y="-331.94" font-family="Times,serif" font-size="14.00">RSET/250:8</text>
</g>
<!-- q17:3&#45;&gt;q10:232 -->
<g id="edge17" class="edge">
<title>q17:3&#45;&gt;q10:232</title>
<path fill="none" stroke="black" d="M1012.8,-179C1051.2,-179 1110.3,-179 1155.3,-179"/>
<polygon fill="black" stroke="black" points="1155.19,-182.5 1165.19,-179 1155.19,-175.5 1155.19,-182.5"/>
<text text-anchor="middle" x="1095.7" y="-182.94" font-family="Times,serif" font-size="14.00">RCPT/250:3</text>
</g>
<!-- q25:57 -->
<g id="node23" class="node">
<title>q25:57</title>
<ellipse fill="none" stroke="black" stroke-width="2" cx="1958.8" cy="-212" rx="45.95" ry="18"/>
<text text-anchor="middle" x="1958.8" y="-207.32" font-family="Times,serif" font-size="14.00">q25:57</text>
</g>
<!-- q20:57&#45;&gt;q25:57 -->
<g id="edge24" class="edge">
<title>q20:57&#45;&gt;q25:57</title>
<path fill="none" stroke="black" d="M1741.8,-212C1786,-212 1852.9,-212 1900.6,-212"/>
<polygon fill="black" stroke="black" points="1900.39,-215.5 1910.39,-212 1900.39,-208.5 1900.39,-215.5"/>
<text text-anchor="middle" x="1830" y="-215.94" font-family="Times,serif" font-size="14.00">RSET/250:57</text>
</g>
<!-- q1:244 -->
<g id="node24" class="node">
<title>q1:244</title>
<ellipse fill="none" stroke="black" stroke-width="2" cx="257.84" cy="-90" rx="45.95" ry="18"/>
<text text-anchor="middle" x="257.84" y="-85.33" font-family="Times,serif" font-size="14.00">q1:244</text>
</g>
<!-- q1:244&#45;&gt;q3:2 -->
<g id="edge25" class="edge">
<title>q1:244&#45;&gt;q3:2</title>
<path fill="none" stroke="black" d="M296.21,-79.12C304.56,-77.03 313.43,-75.08 321.79,-73.75 363.53,-67.09 411.69,-64.53 445.85,-63.55"/>
<polygon fill="black" stroke="black" points="445.89,-67.05 455.8,-63.31 445.71,-60.05 445.89,-67.05"/>
<text text-anchor="middle" x="374.66" y="-77.95" font-family="Times,serif" font-size="14.00">EHLO/λ:2</text>
</g>
<!-- q2:242 -->
<g id="node25" class="node">
<title>q2:242</title>
<ellipse fill="none" stroke="black" stroke-width="2" cx="491.48" cy="-123" rx="45.95" ry="18"/>
<text text-anchor="middle" x="491.48" y="-118.33" font-family="Times,serif" font-size="14.00">q2:242</text>
</g>
<!-- q1:244&#45;&gt;q2:242 -->
<g id="edge26" class="edge">
<title>q1:244&#45;&gt;q2:242</title>
<path fill="none" stroke="black" d="M302.14,-96.17C340,-101.56 395.17,-109.42 436.02,-115.24"/>
<polygon fill="black" stroke="black" points="435.51,-118.7 445.9,-116.65 436.49,-111.77 435.51,-118.7"/>
<text text-anchor="middle" x="374.66" y="-116.95" font-family="Times,serif" font-size="14.00">EHLO/250:242</text>
</g>
<!-- q2:242&#45;&gt;q4:231 -->
<g id="edge27" class="edge">
<title>q2:242&#45;&gt;q4:231</title>
<path fill="none" stroke="black" d="M518.41,-107.66C529.5,-101.65 542.79,-95.15 555.43,-90.75 566.92,-86.75 630.18,-74.58 677.36,-65.77"/>
<polygon fill="black" stroke="black" points="677.99,-69.21 687.18,-63.94 676.71,-62.33 677.99,-69.21"/>
<text text-anchor="middle" x="608.31" y="-94.95" font-family="Times,serif" font-size="14.00">AUTH/235:229</text>
</g>
<!-- q5:12 -->
<g id="node26" class="node">
<title>q5:12</title>
<ellipse fill="none" stroke="black" stroke-width="2" cx="731.44" cy="-339" rx="39.63" ry="18"/>
<text text-anchor="middle" x="731.44" y="-334.32" font-family="Times,serif" font-size="14.00">q5:12</text>
</g>
<!-- q2:242&#45;&gt;q5:12 -->
<g id="edge28" class="edge">
<title>q2:242&#45;&gt;q5:12</title>
<path fill="none" stroke="black" d="M511.16,-139.95C553.14,-178.05 655.09,-270.6 703.74,-314.77"/>
<polygon fill="black" stroke="black" points="701.3,-317.28 711.06,-321.41 706.01,-312.1 701.3,-317.28"/>
<text text-anchor="middle" x="608.31" y="-278.94" font-family="Times,serif" font-size="14.00">AUTH/535:12</text>
</g>
<!-- q6:1 -->
<g id="node27" class="node">
<title>q6:1</title>
<ellipse fill="none" stroke="black" stroke-width="2" cx="852.33" cy="-128" rx="33.32" ry="18"/>
<text text-anchor="middle" x="852.33" y="-123.33" font-family="Times,serif" font-size="14.00">q6:1</text>
</g>
<!-- q2:242&#45;&gt;q6:1 -->
<g id="edge29" class="edge">
<title>q2:242&#45;&gt;q6:1</title>
<path fill="none" stroke="black" d="M538.3,-123.64C607.6,-124.6 738.25,-126.42 806.79,-127.38"/>
<polygon fill="black" stroke="black" points="806.48,-130.88 816.53,-127.52 806.58,-123.88 806.48,-130.88"/>
<text text-anchor="middle" x="608.31" y="-128.94" font-family="Times,serif" font-size="14.00">AUTH/λ:1</text>
</g>
<!-- q9:12 -->
<g id="node28" class="node">
<title>q9:12</title>
<ellipse fill="none" stroke="black" stroke-width="2" cx="972.33" cy="-380" rx="39.63" ry="18"/>
<text text-anchor="middle" x="972.33" y="-375.32" font-family="Times,serif" font-size="14.00">q9:12</text>
</g>
<!-- q5:12&#45;&gt;q9:12 -->
<g id="edge30" class="edge">
<title>q5:12&#45;&gt;q9:12</title>
<path fill="none" stroke="black" d="M769.51,-345.36C810.74,-352.44 877.5,-363.9 922.85,-371.68"/>
<polygon fill="black" stroke="black" points="922.24,-375.13 932.69,-373.36 923.42,-368.23 922.24,-375.13"/>
<text text-anchor="middle" x="852.33" y="-370.94" font-family="Times,serif" font-size="14.00">AUTH/334:12</text>
</g>
<!-- q6:1&#45;&gt;q10:232 -->
<g id="edge31" class="edge">
<title>q6:1&#45;&gt;q10:232</title>
<path fill="none" stroke="black" d="M886.46,-127.52C920.9,-127.45 976.31,-128.49 1023.7,-134.75 1072.9,-141.25 1128.1,-154.28 1167.1,-164.53"/>
<polygon fill="black" stroke="black" points="1166.17,-167.91 1176.74,-167.08 1167.97,-161.14 1166.17,-167.91"/>
<text text-anchor="middle" x="972.33" y="-137.94" font-family="Times,serif" font-size="14.00">MAIL/250:1</text>
</g>
<!-- q9:12&#45;&gt;q12:12 -->
<g id="edge32" class="edge">
<title>q9:12&#45;&gt;q12:12</title>
<path fill="none" stroke="black" d="M1012.8,-380.8C1053.2,-381.63 1116.3,-382.91 1162.1,-383.84"/>
<polygon fill="black" stroke="black" points="1161.72,-387.33 1171.79,-384.04 1161.86,-380.33 1161.72,-387.33"/>
<text text-anchor="middle" x="1095.7" y="-386.94" font-family="Times,serif" font-size="14.00">content/535:12</text>
</g>
<!-- q0:244 -->
<g id="node29" class="node">
<title>q0:244</title>
<ellipse fill="none" stroke="black" stroke-width="2" cx="53.95" cy="-90" rx="49.95" ry="49.95"/>
<ellipse fill="none" stroke="black" stroke-width="2" cx="53.95" cy="-90" rx="53.95" ry="53.95"/>
<text text-anchor="middle" x="53.95" y="-85.33" font-family="Times,serif" font-size="14.00">q0:244</text>
</g>
<!-- q0:244&#45;&gt;q1:244 -->
<g id="edge33" class="edge">
<title>q0:244&#45;&gt;q1:244</title>
<path fill="none" stroke="black" d="M104.85,-90C133.64,-90 169.94,-90 199.84,-90"/>
<polygon fill="black" stroke="black" points="199.45,-93.5 209.45,-90 199.45,-86.5 199.45,-93.5"/>
<text text-anchor="middle" x="157.89" y="-93.95" font-family="Times,serif" font-size="14.00">λ/220:244</text>
</g>
</g>
</svg>
