<?xml version="1.0" encoding="UTF-8" standalone="no"?>
<!DOCTYPE svg PUBLIC "-//W3C//DTD SVG 1.1//EN"
 "http://www.w3.org/Graphics/SVG/1.1/DTD/svg11.dtd">
<!-- Generated by graphviz version 12.0.0 (20240803.0821)
 -->
<!-- Pages: 1 -->
<svg width="2471pt" height="260pt"
 viewBox="0.00 0.00 2470.86 260.00" xmlns="http://www.w3.org/2000/svg" xmlns:xlink="http://www.w3.org/1999/xlink">
<g id="graph0" class="graph" transform="scale(1 1) rotate(0) translate(4 256)">
<polygon fill="white" stroke="none" points="-4,4 -4,-256 2466.86,-256 2466.86,4 -4,4"/>
<!-- q3:243 -->
<g id="node1" class="node">
<title>q3:243</title>
<ellipse fill="none" stroke="black" stroke-width="2" cx="491.48" cy="-123" rx="45.95" ry="18"/>
<text text-anchor="middle" x="491.48" y="-118.33" font-family="Times,serif" font-size="14.00">q3:243</text>
</g>
<!-- q5:12 -->
<g id="node2" class="node">
<title>q5:12</title>
<ellipse fill="none" stroke="black" stroke-width="2" cx="725.13" cy="-41" rx="39.63" ry="18"/>
<text text-anchor="middle" x="725.13" y="-36.33" font-family="Times,serif" font-size="14.00">q5:12</text>
</g>
<!-- q3:243&#45;&gt;q5:12 -->
<g id="edge1" class="edge">
<title>q3:243&#45;&gt;q5:12</title>
<path fill="none" stroke="black" d="M511.6,-106.08C523.47,-96.42 539.45,-84.87 555.43,-77.75 593.44,-60.83 639.83,-51.45 674.33,-46.41"/>
<polygon fill="black" stroke="black" points="674.62,-49.91 684.05,-45.07 673.67,-42.97 674.62,-49.91"/>
<text text-anchor="middle" x="608.31" y="-81.95" font-family="Times,serif" font-size="14.00">AUTH/535:12</text>
</g>
<!-- q6:230 -->
<g id="node3" class="node">
<title>q6:230</title>
<ellipse fill="none" stroke="black" stroke-width="2" cx="725.13" cy="-149" rx="45.95" ry="18"/>
<text text-anchor="middle" x="725.13" y="-144.32" font-family="Times,serif" font-size="14.00">q6:230</text>
</g>
<!-- q3:243&#45;&gt;q6:230 -->
<g id="edge2" class="edge">
<title>q3:243&#45;&gt;q6:230</title>
<path fill="none" stroke="black" d="M536.6,-127.95C574.2,-132.17 628.41,-138.26 668.89,-142.8"/>
<polygon fill="black" stroke="black" points="668.35,-146.26 678.68,-143.9 669.13,-139.3 668.35,-146.26"/>
<text text-anchor="middle" x="608.31" y="-145.94" font-family="Times,serif" font-size="14.00">AUTH/235:230</text>
</g>
<!-- q7:1 -->
<g id="node4" class="node">
<title>q7:1</title>
<ellipse fill="none" stroke="black" stroke-width="2" cx="725.13" cy="-95" rx="33.32" ry="18"/>
<text text-anchor="middle" x="725.13" y="-90.33" font-family="Times,serif" font-size="14.00">q7:1</text>
</g>
<!-- q3:243&#45;&gt;q7:1 -->
<g id="edge3" class="edge">
<title>q3:243&#45;&gt;q7:1</title>
<path fill="none" stroke="black" d="M532.31,-113.86C539.96,-112.32 547.92,-110.86 555.43,-109.75 597.31,-103.53 645.46,-99.64 679.57,-97.43"/>
<polygon fill="black" stroke="black" points="679.75,-100.93 689.51,-96.81 679.31,-93.94 679.75,-100.93"/>
<text text-anchor="middle" x="608.31" y="-113.95" font-family="Times,serif" font-size="14.00">AUTH/λ:1</text>
</g>
<!-- q9:12 -->
<g id="node5" class="node">
<title>q9:12</title>
<ellipse fill="none" stroke="black" stroke-width="2" cx="954.27" cy="-41" rx="39.63" ry="18"/>
<text text-anchor="middle" x="954.27" y="-36.33" font-family="Times,serif" font-size="14.00">q9:12</text>
</g>
<!-- q5:12&#45;&gt;q9:12 -->
<g id="edge4" class="edge">
<title>q5:12&#45;&gt;q9:12</title>
<path fill="none" stroke="black" d="M765.69,-41C803.6,-41 861,-41 902.32,-41"/>
<polygon fill="black" stroke="black" points="902.27,-44.5 912.27,-41 902.27,-37.5 902.27,-44.5"/>
<text text-anchor="middle" x="839.7" y="-44.95" font-family="Times,serif" font-size="14.00">AUTH/334:12</text>
</g>
<!-- q10:3 -->
<g id="node6" class="node">
<title>q10:3</title>
<ellipse fill="none" stroke="black" stroke-width="2" cx="954.27" cy="-202" rx="39.63" ry="18"/>
<text text-anchor="middle" x="954.27" y="-197.32" font-family="Times,serif" font-size="14.00">q10:3</text>
</g>
<!-- q6:230&#45;&gt;q10:3 -->
<g id="edge5" class="edge">
<title>q6:230&#45;&gt;q10:3</title>
<path fill="none" stroke="black" d="M768.61,-156.1C801.95,-161.99 849.39,-171.12 890.33,-181.75 897.03,-183.49 904.08,-185.54 910.93,-187.65"/>
<polygon fill="black" stroke="black" points="909.43,-190.85 920.02,-190.52 911.54,-184.17 909.43,-190.85"/>
<text text-anchor="middle" x="839.7" y="-184.94" font-family="Times,serif" font-size="14.00">MAIL/553:3</text>
</g>
<!-- q8:228 -->
<g id="node7" class="node">
<title>q8:228</title>
<ellipse fill="none" stroke="black" stroke-width="2" cx="954.27" cy="-148" rx="45.95" ry="18"/>
<text text-anchor="middle" x="954.27" y="-143.32" font-family="Times,serif" font-size="14.00">q8:228</text>
</g>
<!-- q6:230&#45;&gt;q8:228 -->
<g id="edge6" class="edge">
<title>q6:230&#45;&gt;q8:228</title>
<path fill="none" stroke="black" d="M769.76,-143.32C776.22,-142.67 782.82,-142.11 789.08,-141.75 834,-139.17 845.38,-139.52 890.33,-141.75 892.82,-141.87 895.37,-142.02 897.94,-142.2"/>
<polygon fill="black" stroke="black" points="897.54,-145.68 907.78,-142.95 898.08,-138.7 897.54,-145.68"/>
<text text-anchor="middle" x="839.7" y="-145.94" font-family="Times,serif" font-size="14.00">MAIL/250:227</text>
</g>
<!-- q11:1 -->
<g id="node8" class="node">
<title>q11:1</title>
<ellipse fill="none" stroke="black" stroke-width="2" cx="1072.2" cy="-95" rx="39.63" ry="18"/>
<text text-anchor="middle" x="1072.2" y="-90.33" font-family="Times,serif" font-size="14.00">q11:1</text>
</g>
<!-- q7:1&#45;&gt;q11:1 -->
<g id="edge7" class="edge">
<title>q7:1&#45;&gt;q11:1</title>
<path fill="none" stroke="black" d="M759.22,-95C819.7,-95 948.48,-95 1020.2,-95"/>
<polygon fill="black" stroke="black" points="1020.19,-98.5 1030.19,-95 1020.19,-91.5 1020.19,-98.5"/>
<text text-anchor="middle" x="839.7" y="-98.95" font-family="Times,serif" font-size="14.00">MAIL/250:1</text>
</g>
<!-- q13:12 -->
<g id="node9" class="node">
<title>q13:12</title>
<ellipse fill="none" stroke="black" stroke-width="2" cx="1196.5" cy="-41" rx="45.95" ry="18"/>
<text text-anchor="middle" x="1196.5" y="-36.33" font-family="Times,serif" font-size="14.00">q13:12</text>
</g>
<!-- q9:12&#45;&gt;q13:12 -->
<g id="edge8" class="edge">
<title>q9:12&#45;&gt;q13:12</title>
<path fill="none" stroke="black" d="M994.67,-41C1033.8,-41 1094.1,-41 1138.4,-41"/>
<polygon fill="black" stroke="black" points="1138.39,-44.5 1148.39,-41 1138.39,-37.5 1138.39,-44.5"/>
<text text-anchor="middle" x="1072.2" y="-44.95" font-family="Times,serif" font-size="14.00">content/535:12</text>
</g>
<!-- q14:3 -->
<g id="node10" class="node">
<title>q14:3</title>
<ellipse fill="none" stroke="black" stroke-width="2" cx="1196.5" cy="-202" rx="39.63" ry="18"/>
<text text-anchor="middle" x="1196.5" y="-197.32" font-family="Times,serif" font-size="14.00">q14:3</text>
</g>
<!-- q10:3&#45;&gt;q14:3 -->
<g id="edge9" class="edge">
<title>q10:3&#45;&gt;q14:3</title>
<path fill="none" stroke="black" d="M994.67,-202C1035.6,-202 1099.8,-202 1144.6,-202"/>
<polygon fill="black" stroke="black" points="1144.59,-205.5 1154.59,-202 1144.59,-198.5 1144.59,-205.5"/>
<text text-anchor="middle" x="1072.2" y="-205.94" font-family="Times,serif" font-size="14.00">RSET/250:3</text>
</g>
<!-- q12:228 -->
<g id="node11" class="node">
<title>q12:228</title>
<ellipse fill="none" stroke="black" stroke-width="2" cx="1196.5" cy="-148" rx="52.26" ry="18"/>
<text text-anchor="middle" x="1196.5" y="-143.32" font-family="Times,serif" font-size="14.00">q12:228</text>
</g>
<!-- q8:228&#45;&gt;q12:228 -->
<g id="edge10" class="edge">
<title>q8:228&#45;&gt;q12:228</title>
<path fill="none" stroke="black" d="M1001.02,-148C1038.1,-148 1090.8,-148 1131.9,-148"/>
<polygon fill="black" stroke="black" points="1131.69,-151.5 1141.69,-148 1131.69,-144.5 1131.69,-151.5"/>
<text text-anchor="middle" x="1072.2" y="-151.94" font-family="Times,serif" font-size="14.00">RCPT/250:228</text>
</g>
<!-- q15:149 -->
<g id="node12" class="node">
<title>q15:149</title>
<ellipse fill="none" stroke="black" stroke-width="2" cx="1439.8" cy="-95" rx="52.26" ry="18"/>
<text text-anchor="middle" x="1439.8" y="-90.33" font-family="Times,serif" font-size="14.00">q15:149</text>
</g>
<!-- q11:1&#45;&gt;q15:149 -->
<g id="edge11" class="edge">
<title>q11:1&#45;&gt;q15:149</title>
<path fill="none" stroke="black" d="M1112.7,-95C1175.7,-95 1299.7,-95 1375.3,-95"/>
<polygon fill="black" stroke="black" points="1375.09,-98.5 1385.09,-95 1375.09,-91.5 1375.09,-98.5"/>
<text text-anchor="middle" x="1196.5" y="-98.95" font-family="Times,serif" font-size="14.00">RCPT/250:1</text>
</g>
<!-- q17:4 -->
<g id="node13" class="node">
<title>q17:4</title>
<ellipse fill="none" stroke="black" stroke-width="2" cx="1439.8" cy="-41" rx="39.63" ry="18"/>
<text text-anchor="middle" x="1439.8" y="-36.33" font-family="Times,serif" font-size="14.00">q17:4</text>
</g>
<!-- q13:12&#45;&gt;q17:4 -->
<g id="edge12" class="edge">
<title>q13:12&#45;&gt;q17:4</title>
<path fill="none" stroke="black" d="M1243.1,-41C1284.4,-41 1345.2,-41 1388,-41"/>
<polygon fill="black" stroke="black" points="1387.79,-44.5 1397.79,-41 1387.79,-37.5 1387.79,-44.5"/>
<text text-anchor="middle" x="1318.1" y="-44.95" font-family="Times,serif" font-size="14.00">λ/451:4</text>
</g>
<!-- q12:228&#45;&gt;q15:149 -->
<g id="edge14" class="edge">
<title>q12:228&#45;&gt;q15:149</title>
<path fill="none" stroke="black" d="M1242,-138.22C1281.9,-129.46 1340.5,-116.58 1383.4,-107.16"/>
<polygon fill="black" stroke="black" points="1384,-110.61 1393.02,-105.05 1382.5,-103.77 1384,-110.61"/>
<text text-anchor="middle" x="1318.1" y="-136.94" font-family="Times,serif" font-size="14.00">RCPT/250:140</text>
</g>
<!-- q16:2542 -->
<g id="node14" class="node">
<title>q16:2542</title>
<ellipse fill="none" stroke="black" stroke-width="2" cx="1905.7" cy="-176" rx="58.57" ry="18"/>
<text text-anchor="middle" x="1905.7" y="-171.32" font-family="Times,serif" font-size="14.00">q16:2542</text>
</g>
<!-- q12:228&#45;&gt;q16:2542 -->
<g id="edge13" class="edge">
<title>q12:228&#45;&gt;q16:2542</title>
<path fill="none" stroke="black" d="M1247.8,-152.67C1254.2,-153.17 1260.6,-153.63 1266.7,-154 1473.4,-166.5 1718.1,-172.47 1835.3,-174.79"/>
<polygon fill="black" stroke="black" points="1835.02,-178.29 1845.09,-174.98 1835.16,-171.29 1835.02,-178.29"/>
<text text-anchor="middle" x="1556.1" y="-171.94" font-family="Times,serif" font-size="14.00">DATA/354:88</text>
</g>
<!-- q15:149&#45;&gt;q15:149 -->
<g id="edge26" class="edge">
<title>q15:149&#45;&gt;q15:149</title>
<path fill="none" stroke="black" d="M1419,-112.41C1415.1,-122.09 1422,-131 1439.8,-131 1450,-131 1456.6,-128.02 1459.7,-123.64"/>
<polygon fill="black" stroke="black" points="1463.17,-124.14 1460.39,-113.92 1456.19,-123.65 1463.17,-124.14"/>
<text text-anchor="middle" x="1439.8" y="-134.94" font-family="Times,serif" font-size="14.00">RCPT/250:8</text>
</g>
<!-- q19:43 -->
<g id="node24" class="node">
<title>q19:43</title>
<ellipse fill="none" stroke="black" stroke-width="2" cx="1666.2" cy="-126" rx="45.95" ry="18"/>
<text text-anchor="middle" x="1666.2" y="-121.33" font-family="Times,serif" font-size="14.00">q19:43</text>
</g>
<!-- q15:149&#45;&gt;q19:43 -->
<g id="edge27" class="edge">
<title>q15:149&#45;&gt;q19:43</title>
<path fill="none" stroke="black" d="M1489.5,-101.73C1525.2,-106.66 1573.8,-113.37 1610.8,-118.49"/>
<polygon fill="black" stroke="black" points="1610.02,-121.91 1620.4,-119.81 1610.97,-114.98 1610.02,-121.91"/>
<text text-anchor="middle" x="1556.1" y="-120.95" font-family="Times,serif" font-size="14.00">DATA/550:43</text>
</g>
<!-- q18:98 -->
<g id="node25" class="node">
<title>q18:98</title>
<ellipse fill="none" stroke="black" stroke-width="2" cx="1666.2" cy="-72" rx="45.95" ry="18"/>
<text text-anchor="middle" x="1666.2" y="-67.33" font-family="Times,serif" font-size="14.00">q18:98</text>
</g>
<!-- q15:149&#45;&gt;q18:98 -->
<g id="edge28" class="edge">
<title>q15:149&#45;&gt;q18:98</title>
<path fill="none" stroke="black" d="M1489.9,-89C1496.7,-88.22 1503.5,-87.45 1510,-86.75 1542.8,-83.24 1579.5,-79.73 1609,-77.02"/>
<polygon fill="black" stroke="black" points="1609.25,-80.51 1618.89,-76.12 1608.62,-73.54 1609.25,-80.51"/>
<text text-anchor="middle" x="1556.1" y="-90.95" font-family="Times,serif" font-size="14.00">DATA/354:98</text>
</g>
<!-- q16:2542&#45;&gt;q16:2542 -->
<g id="edge15" class="edge">
<title>q16:2542&#45;&gt;q16:2542</title>
<path fill="none" stroke="black" d="M1883.2,-193.41C1879,-203.09 1886.5,-212 1905.7,-212 1916.8,-212 1924,-209.02 1927.3,-204.64"/>
<polygon fill="black" stroke="black" points="1930.77,-205.17 1928.08,-194.92 1923.79,-204.61 1930.77,-205.17"/>
<text text-anchor="middle" x="1905.7" y="-215.94" font-family="Times,serif" font-size="14.00">content/λ:2366</text>
</g>
<!-- q22:1 -->
<g id="node15" class="node">
<title>q22:1</title>
<ellipse fill="none" stroke="black" stroke-width="2" cx="2169.6" cy="-234" rx="39.63" ry="18"/>
<text text-anchor="middle" x="2169.6" y="-229.32" font-family="Times,serif" font-size="14.00">q22:1</text>
</g>
<!-- q16:2542&#45;&gt;q22:1 -->
<g id="edge16" class="edge">
<title>q16:2542&#45;&gt;q22:1</title>
<path fill="none" stroke="black" d="M1947.7,-189.36C1958.8,-192.75 1971,-196.22 1982.3,-199 2028.6,-210.37 2082.2,-220.09 2120,-226.38"/>
<polygon fill="black" stroke="black" points="2119.27,-229.81 2129.71,-227.97 2120.41,-222.9 2119.27,-229.81"/>
<text text-anchor="middle" x="2040.8" y="-225.94" font-family="Times,serif" font-size="14.00">content/550:1</text>
</g>
<!-- q21:110 -->
<g id="node16" class="node">
<title>q21:110</title>
<ellipse fill="none" stroke="black" stroke-width="2" cx="2169.6" cy="-180" rx="52.26" ry="18"/>
<text text-anchor="middle" x="2169.6" y="-175.32" font-family="Times,serif" font-size="14.00">q21:110</text>
</g>
<!-- q16:2542&#45;&gt;q21:110 -->
<g id="edge17" class="edge">
<title>q16:2542&#45;&gt;q21:110</title>
<path fill="none" stroke="black" d="M1965.2,-176.89C2006.7,-177.53 2062.5,-178.38 2105.1,-179.03"/>
<polygon fill="black" stroke="black" points="2104.93,-182.53 2114.99,-179.18 2105.04,-175.53 2104.93,-182.53"/>
<text text-anchor="middle" x="2040.8" y="-181.94" font-family="Times,serif" font-size="14.00">content/250:110</text>
</g>
<!-- q20:65 -->
<g id="node17" class="node">
<title>q20:65</title>
<ellipse fill="none" stroke="black" stroke-width="2" cx="2169.6" cy="-126" rx="45.95" ry="18"/>
<text text-anchor="middle" x="2169.6" y="-121.33" font-family="Times,serif" font-size="14.00">q20:65</text>
</g>
<!-- q16:2542&#45;&gt;q20:65 -->
<g id="edge18" class="edge">
<title>q16:2542&#45;&gt;q20:65</title>
<path fill="none" stroke="black" d="M1950.1,-163.55C1960.6,-160.77 1971.8,-157.99 1982.3,-155.75 2026.3,-146.37 2076.7,-138.5 2113.9,-133.21"/>
<polygon fill="black" stroke="black" points="2114.09,-136.72 2123.5,-131.86 2113.11,-129.79 2114.09,-136.72"/>
<text text-anchor="middle" x="2040.8" y="-158.94" font-family="Times,serif" font-size="14.00">content/554:65</text>
</g>
<!-- q27:1 -->
<g id="node18" class="node">
<title>q27:1</title>
<ellipse fill="none" stroke="black" stroke-width="2" cx="2410.6" cy="-234" rx="39.63" ry="18"/>
<text text-anchor="middle" x="2410.6" y="-229.32" font-family="Times,serif" font-size="14.00">q27:1</text>
</g>
<!-- q22:1&#45;&gt;q27:1 -->
<g id="edge19" class="edge">
<title>q22:1&#45;&gt;q27:1</title>
<path fill="none" stroke="black" d="M2210,-234C2250.7,-234 2314.2,-234 2358.6,-234"/>
<polygon fill="black" stroke="black" points="2358.59,-237.5 2368.59,-234 2358.59,-230.5 2358.59,-237.5"/>
<text text-anchor="middle" x="2290.1" y="-237.94" font-family="Times,serif" font-size="14.00">RSET/250:1</text>
</g>
<!-- q26:110 -->
<g id="node19" class="node">
<title>q26:110</title>
<ellipse fill="none" stroke="black" stroke-width="2" cx="2410.6" cy="-180" rx="52.26" ry="18"/>
<text text-anchor="middle" x="2410.6" y="-175.32" font-family="Times,serif" font-size="14.00">q26:110</text>
</g>
<!-- q21:110&#45;&gt;q26:110 -->
<g id="edge20" class="edge">
<title>q21:110&#45;&gt;q26:110</title>
<path fill="none" stroke="black" d="M2222.7,-180C2259.1,-180 2307.8,-180 2346.4,-180"/>
<polygon fill="black" stroke="black" points="2345.99,-183.5 2355.99,-180 2345.99,-176.5 2345.99,-183.5"/>
<text text-anchor="middle" x="2290.1" y="-183.94" font-family="Times,serif" font-size="14.00">QUIT/221:110</text>
</g>
<!-- q25:65 -->
<g id="node20" class="node">
<title>q25:65</title>
<ellipse fill="none" stroke="black" stroke-width="2" cx="2410.6" cy="-126" rx="45.95" ry="18"/>
<text text-anchor="middle" x="2410.6" y="-121.33" font-family="Times,serif" font-size="14.00">q25:65</text>
</g>
<!-- q20:65&#45;&gt;q25:65 -->
<g id="edge21" class="edge">
<title>q20:65&#45;&gt;q25:65</title>
<path fill="none" stroke="black" d="M2216.4,-126C2255.1,-126 2310.9,-126 2352.6,-126"/>
<polygon fill="black" stroke="black" points="2352.39,-129.5 2362.39,-126 2352.39,-122.5 2352.39,-129.5"/>
<text text-anchor="middle" x="2290.1" y="-129.94" font-family="Times,serif" font-size="14.00">RSET/250:65</text>
</g>
<!-- q1:244 -->
<g id="node21" class="node">
<title>q1:244</title>
<ellipse fill="none" stroke="black" stroke-width="2" cx="257.84" cy="-150" rx="45.95" ry="18"/>
<text text-anchor="middle" x="257.84" y="-145.32" font-family="Times,serif" font-size="14.00">q1:244</text>
</g>
<!-- q1:244&#45;&gt;q3:243 -->
<g id="edge22" class="edge">
<title>q1:244&#45;&gt;q3:243</title>
<path fill="none" stroke="black" d="M300.41,-142.06C307.53,-140.85 314.86,-139.69 321.79,-138.75 359.07,-133.69 401.22,-129.75 434.05,-127.08"/>
<polygon fill="black" stroke="black" points="434.06,-130.59 443.75,-126.31 433.5,-123.61 434.06,-130.59"/>
<text text-anchor="middle" x="374.66" y="-142.94" font-family="Times,serif" font-size="14.00">EHLO/250:243</text>
</g>
<!-- q2:1 -->
<g id="node22" class="node">
<title>q2:1</title>
<ellipse fill="none" stroke="black" stroke-width="2" cx="491.48" cy="-187" rx="33.32" ry="18"/>
<text text-anchor="middle" x="491.48" y="-182.32" font-family="Times,serif" font-size="14.00">q2:1</text>
</g>
<!-- q1:244&#45;&gt;q2:1 -->
<g id="edge23" class="edge">
<title>q1:244&#45;&gt;q2:1</title>
<path fill="none" stroke="black" d="M301.6,-156.83C343.18,-163.47 406,-173.51 447.62,-180.15"/>
<polygon fill="black" stroke="black" points="446.84,-183.57 457.26,-181.69 447.94,-176.66 446.84,-183.57"/>
<text text-anchor="middle" x="374.66" y="-179.94" font-family="Times,serif" font-size="14.00">EHLO/λ:1</text>
</g>
<!-- q4:1 -->
<g id="node23" class="node">
<title>q4:1</title>
<ellipse fill="none" stroke="black" stroke-width="2" cx="725.13" cy="-212" rx="33.32" ry="18"/>
<text text-anchor="middle" x="725.13" y="-207.32" font-family="Times,serif" font-size="14.00">q4:1</text>
</g>
<!-- q2:1&#45;&gt;q4:1 -->
<g id="edge24" class="edge">
<title>q2:1&#45;&gt;q4:1</title>
<path fill="none" stroke="black" d="M525.18,-190.53C565.8,-194.91 635.23,-202.41 680.39,-207.28"/>
<polygon fill="black" stroke="black" points="679.78,-210.73 690.09,-208.33 680.53,-203.77 679.78,-210.73"/>
<text text-anchor="middle" x="608.31" y="-207.94" font-family="Times,serif" font-size="14.00">AUTH/235:1</text>
</g>
<!-- q4:1&#45;&gt;q8:228 -->
<g id="edge25" class="edge">
<title>q4:1&#45;&gt;q8:228</title>
<path fill="none" stroke="black" d="M758.27,-216.9C793.07,-220.58 849.12,-221.68 890.33,-199 902.01,-192.57 898.43,-183.93 908.33,-175 910.59,-172.96 913.04,-170.98 915.57,-169.1"/>
<polygon fill="black" stroke="black" points="917.44,-172.06 923.75,-163.54 913.51,-166.27 917.44,-172.06"/>
<text text-anchor="middle" x="839.7" y="-221.94" font-family="Times,serif" font-size="14.00">MAIL/250:1</text>
</g>
<!-- q18:98&#45;&gt;q16:2542 -->
<g id="edge29" class="edge">
<title>q18:98&#45;&gt;q16:2542</title>
<path fill="none" stroke="black" d="M1698.3,-85.6C1739.4,-103.63 1812.4,-135.58 1859.7,-156.27"/>
<polygon fill="black" stroke="black" points="1858.25,-159.46 1868.81,-160.27 1861.06,-153.05 1858.25,-159.46"/>
<text text-anchor="middle" x="1779.7" y="-146.94" font-family="Times,serif" font-size="14.00">content/λ:88</text>
</g>
<!-- q23:7 -->
<g id="node26" class="node">
<title>q23:7</title>
<ellipse fill="none" stroke="black" stroke-width="2" cx="1905.7" cy="-18" rx="39.63" ry="18"/>
<text text-anchor="middle" x="1905.7" y="-13.32" font-family="Times,serif" font-size="14.00">q23:7</text>
</g>
<!-- q18:98&#45;&gt;q23:7 -->
<g id="edge30" class="edge">
<title>q18:98&#45;&gt;q23:7</title>
<path fill="none" stroke="black" d="M1701.2,-59.54C1710.5,-56.4 1720.7,-53.23 1730.2,-50.75 1772.2,-39.78 1820.7,-30.97 1856,-25.27"/>
<polygon fill="black" stroke="black" points="1856.08,-28.8 1865.4,-23.76 1854.98,-21.88 1856.08,-28.8"/>
<text text-anchor="middle" x="1779.7" y="-54.95" font-family="Times,serif" font-size="14.00">content/554:7</text>
</g>
<!-- q24:3 -->
<g id="node27" class="node">
<title>q24:3</title>
<ellipse fill="none" stroke="black" stroke-width="2" cx="1905.7" cy="-72" rx="39.63" ry="18"/>
<text text-anchor="middle" x="1905.7" y="-67.33" font-family="Times,serif" font-size="14.00">q24:3</text>
</g>
<!-- q18:98&#45;&gt;q24:3 -->
<g id="edge31" class="edge">
<title>q18:98&#45;&gt;q24:3</title>
<path fill="none" stroke="black" d="M1713,-72C1753.4,-72 1812.2,-72 1854.1,-72"/>
<polygon fill="black" stroke="black" points="1853.89,-75.5 1863.89,-72 1853.89,-68.5 1853.89,-75.5"/>
<text text-anchor="middle" x="1779.7" y="-75.95" font-family="Times,serif" font-size="14.00">content/250:3</text>
</g>
<!-- q28:7 -->
<g id="node28" class="node">
<title>q28:7</title>
<ellipse fill="none" stroke="black" stroke-width="2" cx="2169.6" cy="-18" rx="39.63" ry="18"/>
<text text-anchor="middle" x="2169.6" y="-13.32" font-family="Times,serif" font-size="14.00">q28:7</text>
</g>
<!-- q23:7&#45;&gt;q28:7 -->
<g id="edge32" class="edge">
<title>q23:7&#45;&gt;q28:7</title>
<path fill="none" stroke="black" d="M1946.2,-18C1992.1,-18 2067.8,-18 2118,-18"/>
<polygon fill="black" stroke="black" points="2117.69,-21.5 2127.69,-18 2117.69,-14.5 2117.69,-21.5"/>
<text text-anchor="middle" x="2040.8" y="-21.95" font-family="Times,serif" font-size="14.00">RSET/250:7</text>
</g>
<!-- q29:3 -->
<g id="node29" class="node">
<title>q29:3</title>
<ellipse fill="none" stroke="black" stroke-width="2" cx="2169.6" cy="-72" rx="39.63" ry="18"/>
<text text-anchor="middle" x="2169.6" y="-67.33" font-family="Times,serif" font-size="14.00">q29:3</text>
</g>
<!-- q24:3&#45;&gt;q29:3 -->
<g id="edge33" class="edge">
<title>q24:3&#45;&gt;q29:3</title>
<path fill="none" stroke="black" d="M1946.2,-72C1992.1,-72 2067.8,-72 2118,-72"/>
<polygon fill="black" stroke="black" points="2117.69,-75.5 2127.69,-72 2117.69,-68.5 2117.69,-75.5"/>
<text text-anchor="middle" x="2040.8" y="-75.95" font-family="Times,serif" font-size="14.00">QUIT/221:3</text>
</g>
<!-- q0:244 -->
<g id="node30" class="node">
<title>q0:244</title>
<ellipse fill="none" stroke="black" stroke-width="2" cx="53.95" cy="-150" rx="49.95" ry="49.95"/>
<ellipse fill="none" stroke="black" stroke-width="2" cx="53.95" cy="-150" rx="53.95" ry="53.95"/>
<text text-anchor="middle" x="53.95" y="-145.32" font-family="Times,serif" font-size="14.00">q0:244</text>
</g>
<!-- q0:244&#45;&gt;q1:244 -->
<g id="edge34" class="edge">
<title>q0:244&#45;&gt;q1:244</title>
<path fill="none" stroke="black" d="M104.85,-150C133.64,-150 169.94,-150 199.84,-150"/>
<polygon fill="black" stroke="black" points="199.45,-153.5 209.45,-150 199.45,-146.5 199.45,-153.5"/>
<text text-anchor="middle" x="157.89" y="-153.94" font-family="Times,serif" font-size="14.00">λ/220:244</text>
</g>
</g>
</svg>
