<?xml version="1.0" encoding="UTF-8" standalone="no"?>
<!DOCTYPE svg PUBLIC "-//W3C//DTD SVG 1.1//EN"
 "http://www.w3.org/Graphics/SVG/1.1/DTD/svg11.dtd">
<!-- Generated by graphviz version 12.0.0 (20240803.0821)
 -->
<!-- Pages: 1 -->
<svg width="5605pt" height="566pt"
 viewBox="0.00 0.00 5604.85 565.72" xmlns="http://www.w3.org/2000/svg" xmlns:xlink="http://www.w3.org/1999/xlink">
<g id="graph0" class="graph" transform="scale(1 1) rotate(0) translate(4 561.72)">
<polygon fill="white" stroke="none" points="-4,4 -4,-561.72 5600.85,-561.72 5600.85,4 -4,4"/>
<!-- q0:244 -->
<g id="node1" class="node">
<title>q0:244</title>
<ellipse fill="none" stroke="black" stroke-width="2" cx="53.95" cy="-189.75" rx="49.95" ry="49.95"/>
<ellipse fill="none" stroke="black" stroke-width="2" cx="53.95" cy="-189.75" rx="53.95" ry="53.95"/>
<text text-anchor="middle" x="53.95" y="-185.07" font-family="Times,serif" font-size="14.00">q0:244</text>
</g>
<!-- q1:244 -->
<g id="node2" class="node">
<title>q1:244</title>
<ellipse fill="none" stroke="black" stroke-width="2" cx="257.84" cy="-189.75" rx="45.95" ry="18"/>
<text text-anchor="middle" x="257.84" y="-185.07" font-family="Times,serif" font-size="14.00">q1:244</text>
</g>
<!-- q0:244&#45;&gt;q1:244 -->
<g id="edge1" class="edge">
<title>q0:244&#45;&gt;q1:244</title>
<path fill="none" stroke="black" d="M104.85,-189.75C133.64,-189.75 169.94,-189.75 199.84,-189.75"/>
<polygon fill="black" stroke="black" points="199.45,-193.25 209.45,-189.75 199.45,-186.25 199.45,-193.25"/>
<text text-anchor="middle" x="157.89" y="-193.69" font-family="Times,serif" font-size="14.00">λ/220:244</text>
</g>
<!-- q2:243 -->
<g id="node3" class="node">
<title>q2:243</title>
<ellipse fill="none" stroke="black" stroke-width="2" cx="501.98" cy="-228.75" rx="45.95" ry="18"/>
<text text-anchor="middle" x="501.98" y="-224.07" font-family="Times,serif" font-size="14.00">q2:243</text>
</g>
<!-- q1:244&#45;&gt;q2:243 -->
<g id="edge2" class="edge">
<title>q1:244&#45;&gt;q2:243</title>
<path fill="none" stroke="black" d="M301.57,-196.63C342.08,-203.15 403.09,-212.98 446.95,-220.04"/>
<polygon fill="black" stroke="black" points="446.34,-223.48 456.78,-221.62 447.46,-216.57 446.34,-223.48"/>
<text text-anchor="middle" x="379.91" y="-221.69" font-family="Times,serif" font-size="14.00">EHLO/250:243</text>
</g>
<!-- q3:1 -->
<g id="node4" class="node">
<title>q3:1</title>
<ellipse fill="none" stroke="black" stroke-width="2" cx="501.98" cy="-120.74" rx="33.32" ry="18"/>
<text text-anchor="middle" x="501.98" y="-116.07" font-family="Times,serif" font-size="14.00">q3:1</text>
</g>
<!-- q1:244&#45;&gt;q3:1 -->
<g id="edge3" class="edge">
<title>q1:244&#45;&gt;q3:1</title>
<path fill="none" stroke="black" d="M287.81,-175.15C298.32,-170.25 310.41,-165.06 321.79,-161.25 367.22,-146 421.04,-134.7 457.76,-127.96"/>
<polygon fill="black" stroke="black" points="458.34,-131.42 467.56,-126.2 457.1,-124.53 458.34,-131.42"/>
<text text-anchor="middle" x="379.91" y="-181.95" font-family="Times,serif" font-size="14.00">EHLO/λ:1</text>
<text text-anchor="middle" x="379.91" y="-164.7" font-family="Times,serif" font-size="14.00">a0 = [127.0.1.1]</text>
</g>
<!-- q5:12 -->
<g id="node5" class="node">
<title>q5:12</title>
<ellipse fill="none" stroke="black" stroke-width="2" cx="1681.4" cy="-266.75" rx="39.63" ry="18"/>
<text text-anchor="middle" x="1681.4" y="-262.07" font-family="Times,serif" font-size="14.00">q5:12</text>
</g>
<!-- q2:243&#45;&gt;q5:12 -->
<g id="edge4" class="edge">
<title>q2:243&#45;&gt;q5:12</title>
<path fill="none" stroke="black" d="M539.99,-239.65C548.44,-241.72 557.44,-243.6 565.93,-244.75 671.93,-259.07 1426,-265.06 1629.8,-266.43"/>
<polygon fill="black" stroke="black" points="1629.46,-269.92 1639.49,-266.49 1629.51,-262.92 1629.46,-269.92"/>
<text text-anchor="middle" x="1091.7" y="-286.95" font-family="Times,serif" font-size="14.00">AUTH/535:12</text>
<text text-anchor="middle" x="1091.7" y="-269.7" font-family="Times,serif" font-size="14.00">b0 in {&#39;5.7.8 authentication failed&#39;, &#39;Error: authentication failed&#39;}</text>
</g>
<!-- q6:231 -->
<g id="node6" class="node">
<title>q6:231</title>
<ellipse fill="none" stroke="black" stroke-width="2" cx="1681.4" cy="-153.75" rx="45.95" ry="18"/>
<text text-anchor="middle" x="1681.4" y="-149.07" font-family="Times,serif" font-size="14.00">q6:231</text>
</g>
<!-- q2:243&#45;&gt;q6:231 -->
<g id="edge5" class="edge">
<title>q2:243&#45;&gt;q6:231</title>
<path fill="none" stroke="black" d="M523.13,-212.02C534.84,-203.37 550.33,-193.66 565.93,-189 677.88,-155.49 1501.6,-185.31 1617.4,-169.75 1622.3,-169.09 1627.4,-168.18 1632.5,-167.14"/>
<polygon fill="black" stroke="black" points="1632.95,-170.62 1641.92,-164.99 1631.4,-163.8 1632.95,-170.62"/>
<text text-anchor="middle" x="1091.7" y="-227.19" font-family="Times,serif" font-size="14.00">AUTH/235:230</text>
<text text-anchor="middle" x="1091.7" y="-209.94" font-family="Times,serif" font-size="14.00">a0 in {&#39;PLAIN AEF6NjE2MUBzaW5hLmNvbQA2ZmRiMjVjZmNjODYyZWZj&#39;, &#39;PLAIN AEF6NjE2MUAxMjYuY29tAE1VUVNBT1NUWElURkpDVUU=&#39;}</text>
<text text-anchor="middle" x="1091.7" y="-192.69" font-family="Times,serif" font-size="14.00">b0 in {&#39;Authentication successful&#39;, &#39;OK Authenticated&#39;}</text>
</g>
<!-- q4:1 -->
<g id="node7" class="node">
<title>q4:1</title>
<ellipse fill="none" stroke="black" stroke-width="2" cx="2106.1" cy="-324.75" rx="33.32" ry="18"/>
<text text-anchor="middle" x="2106.1" y="-320.07" font-family="Times,serif" font-size="14.00">q4:1</text>
</g>
<!-- q2:243&#45;&gt;q4:1 -->
<g id="edge6" class="edge">
<title>q2:243&#45;&gt;q4:1</title>
<path fill="none" stroke="black" d="M512.41,-246.97C522.8,-264.89 541.36,-291.18 565.93,-302.75 1107.4,-557.72 1879.4,-383.43 2064.2,-335.79"/>
<polygon fill="black" stroke="black" points="2065.04,-339.18 2073.83,-333.28 2063.28,-332.41 2065.04,-339.18"/>
<text text-anchor="middle" x="1091.7" y="-458.95" font-family="Times,serif" font-size="14.00">AUTH/λ:1</text>
<text text-anchor="middle" x="1091.7" y="-441.7" font-family="Times,serif" font-size="14.00">a0 = PLAIN AEF6NjE2MUAxMjYuY29tAE1VUVNBT1NUWElURkpDVUU=</text>
</g>
<!-- q3:1&#45;&gt;q6:231 -->
<g id="edge7" class="edge">
<title>q3:1&#45;&gt;q6:231</title>
<path fill="none" stroke="black" d="M534.31,-114.88C667.84,-91.11 1201.7,-8.17 1617.4,-117.99 1628.1,-120.8 1638.8,-125.85 1648.2,-131.3"/>
<polygon fill="black" stroke="black" points="1646.35,-134.27 1656.71,-136.48 1649.99,-128.29 1646.35,-134.27"/>
<text text-anchor="middle" x="1091.7" y="-157.19" font-family="Times,serif" font-size="14.00">AUTH/235:1</text>
<text text-anchor="middle" x="1091.7" y="-139.94" font-family="Times,serif" font-size="14.00">a0 = PLAIN AEF6NjE2MUAxMjYuY29tAE1VUVNBT1NUWElURkpDVUU=</text>
<text text-anchor="middle" x="1091.7" y="-122.69" font-family="Times,serif" font-size="14.00">b0 = Authentication successful</text>
</g>
<!-- q8:12 -->
<g id="node8" class="node">
<title>q8:12</title>
<ellipse fill="none" stroke="black" stroke-width="2" cx="2530.8" cy="-266.75" rx="39.63" ry="18"/>
<text text-anchor="middle" x="2530.8" y="-262.07" font-family="Times,serif" font-size="14.00">q8:12</text>
</g>
<!-- q5:12&#45;&gt;q8:12 -->
<g id="edge8" class="edge">
<title>q5:12&#45;&gt;q8:12</title>
<path fill="none" stroke="black" d="M1721.7,-264.22C1729.5,-263.82 1737.7,-263.46 1745.3,-263.25 2065.9,-254.34 2146.3,-254.34 2466.8,-263.25 2470.9,-263.36 2475.1,-263.51 2479.3,-263.69"/>
<polygon fill="black" stroke="black" points="2478.83,-267.17 2488.99,-264.14 2479.16,-260.18 2478.83,-267.17"/>
<text text-anchor="middle" x="2106.1" y="-283.95" font-family="Times,serif" font-size="14.00">AUTH/334:12</text>
<text text-anchor="middle" x="2106.1" y="-266.7" font-family="Times,serif" font-size="14.00">b0 = UGFzc3dvcmQ6</text>
</g>
<!-- q10:3 -->
<g id="node9" class="node">
<title>q10:3</title>
<ellipse fill="none" stroke="black" stroke-width="2" cx="2530.8" cy="-97.74" rx="39.63" ry="18"/>
<text text-anchor="middle" x="2530.8" y="-93.07" font-family="Times,serif" font-size="14.00">q10:3</text>
</g>
<!-- q6:231&#45;&gt;q10:3 -->
<g id="edge9" class="edge">
<title>q6:231&#45;&gt;q10:3</title>
<path fill="none" stroke="black" d="M1696.5,-135.95C1708.1,-122.95 1725.7,-106.37 1745.3,-98.99 2009.3,0 2359.4,-60.31 2483.6,-87"/>
<polygon fill="black" stroke="black" points="2482.6,-90.36 2493.12,-89.07 2484.09,-83.52 2482.6,-90.36"/>
<text text-anchor="middle" x="2106.1" y="-138.19" font-family="Times,serif" font-size="14.00">MAIL/553:3</text>
<text text-anchor="middle" x="2106.1" y="-120.94" font-family="Times,serif" font-size="14.00">a0 in {&#39;FROM:&lt;Az_6161@sina.com&gt;&#39;, &#39;FROM:&lt;Az_6161@126.com&gt;&#39;, &#39;FROM:&lt;Az6161@163.com&gt;&#39;}</text>
<text text-anchor="middle" x="2106.1" y="-103.69" font-family="Times,serif" font-size="14.00">b0 in {&#39;Mail from must equal authorized user&#39;, &#39;Envolope sender mismatch with login user..&#39;}</text>
</g>
<!-- q9:228 -->
<g id="node10" class="node">
<title>q9:228</title>
<ellipse fill="none" stroke="black" stroke-width="2" cx="2530.8" cy="-172.75" rx="45.95" ry="18"/>
<text text-anchor="middle" x="2530.8" y="-168.07" font-family="Times,serif" font-size="14.00">q9:228</text>
</g>
<!-- q6:231&#45;&gt;q9:228 -->
<g id="edge10" class="edge">
<title>q6:231&#45;&gt;q9:228</title>
<path fill="none" stroke="black" d="M1728.2,-154.77C1872.1,-158 2314.4,-167.92 2472.7,-171.47"/>
<polygon fill="black" stroke="black" points="2472.41,-174.96 2482.49,-171.68 2472.57,-167.96 2472.41,-174.96"/>
<text text-anchor="middle" x="2106.1" y="-209.19" font-family="Times,serif" font-size="14.00">MAIL/250:228</text>
<text text-anchor="middle" x="2106.1" y="-191.94" font-family="Times,serif" font-size="14.00">a0 in {&#39;FROM:&lt;Az6161@126.com&gt;&#39;, &#39;FROM:&lt;Az6161@sina.com&gt;&#39;}</text>
<text text-anchor="middle" x="2106.1" y="-174.69" font-family="Times,serif" font-size="14.00">b0 in {&#39;Mail OK&#39;, &#39;ok&#39;}</text>
</g>
<!-- q7:10 -->
<g id="node11" class="node">
<title>q7:10</title>
<ellipse fill="none" stroke="black" stroke-width="2" cx="4263.8" cy="-197.75" rx="39.63" ry="18"/>
<text text-anchor="middle" x="4263.8" y="-193.07" font-family="Times,serif" font-size="14.00">q7:10</text>
</g>
<!-- q4:1&#45;&gt;q7:10 -->
<g id="edge11" class="edge">
<title>q4:1&#45;&gt;q7:10</title>
<path fill="none" stroke="black" d="M2140,-324.75C2252.2,-324.75 2629.3,-324.75 2941,-324.75 2941,-324.75 2941,-324.75 3794,-324.75 3968.9,-324.75 4038.5,-402.68 4187.2,-310.75 4201.5,-301.96 4196.3,-291.89 4205.2,-277.75 4216.8,-259.39 4231,-239.61 4242.4,-224.31"/>
<polygon fill="black" stroke="black" points="4244.97,-226.71 4248.19,-216.62 4239.38,-222.5 4244.97,-226.71"/>
<text text-anchor="middle" x="3427.6" y="-363.19" font-family="Times,serif" font-size="14.00">MAIL/250:1</text>
<text text-anchor="middle" x="3427.6" y="-345.94" font-family="Times,serif" font-size="14.00">a0 = FROM:&lt;Az6161@126.com&gt;</text>
<text text-anchor="middle" x="3427.6" y="-328.69" font-family="Times,serif" font-size="14.00">b0 = Mail OK</text>
</g>
<!-- q12:12 -->
<g id="node17" class="node">
<title>q12:12</title>
<ellipse fill="none" stroke="black" stroke-width="2" cx="3427.6" cy="-266.75" rx="45.95" ry="18"/>
<text text-anchor="middle" x="3427.6" y="-262.07" font-family="Times,serif" font-size="14.00">q12:12</text>
</g>
<!-- q8:12&#45;&gt;q12:12 -->
<g id="edge17" class="edge">
<title>q8:12&#45;&gt;q12:12</title>
<path fill="none" stroke="black" d="M2571.4,-266.75C2714,-266.75 3201.7,-266.75 3369.4,-266.75"/>
<polygon fill="black" stroke="black" points="3369.39,-270.25 3379.39,-266.75 3369.39,-263.25 3369.39,-270.25"/>
<text text-anchor="middle" x="2942" y="-287.95" font-family="Times,serif" font-size="14.00">content/535:12</text>
<text text-anchor="middle" x="2942" y="-270.7" font-family="Times,serif" font-size="14.00">b0 in {&#39;5.7.8 authentication failed&#39;, &#39;Error: authentication failed&#39;}</text>
</g>
<!-- q14:3 -->
<g id="node18" class="node">
<title>q14:3</title>
<ellipse fill="none" stroke="black" stroke-width="2" cx="3427.6" cy="-97.74" rx="39.63" ry="18"/>
<text text-anchor="middle" x="3427.6" y="-93.07" font-family="Times,serif" font-size="14.00">q14:3</text>
</g>
<!-- q10:3&#45;&gt;q14:3 -->
<g id="edge18" class="edge">
<title>q10:3&#45;&gt;q14:3</title>
<path fill="none" stroke="black" d="M2571.4,-97.74C2715.8,-97.74 3214.3,-97.74 3375.7,-97.74"/>
<polygon fill="black" stroke="black" points="3375.69,-101.24 3385.69,-97.74 3375.69,-94.24 3375.69,-101.24"/>
<text text-anchor="middle" x="2942" y="-118.94" font-family="Times,serif" font-size="14.00">RSET/250:3</text>
<text text-anchor="middle" x="2942" y="-101.69" font-family="Times,serif" font-size="14.00">b0 in {&#39;flushed&#39;, &#39;OK&#39;}</text>
</g>
<!-- q13:228 -->
<g id="node19" class="node">
<title>q13:228</title>
<ellipse fill="none" stroke="black" stroke-width="2" cx="3427.6" cy="-172.75" rx="52.26" ry="18"/>
<text text-anchor="middle" x="3427.6" y="-168.07" font-family="Times,serif" font-size="14.00">q13:228</text>
</g>
<!-- q9:228&#45;&gt;q13:228 -->
<g id="edge19" class="edge">
<title>q9:228&#45;&gt;q13:228</title>
<path fill="none" stroke="black" d="M2577.7,-172.75C2726,-172.75 3192.6,-172.75 3363.2,-172.75"/>
<polygon fill="black" stroke="black" points="3362.99,-176.25 3372.99,-172.75 3362.99,-169.25 3362.99,-176.25"/>
<text text-anchor="middle" x="2942" y="-211.19" font-family="Times,serif" font-size="14.00">RCPT/250:228</text>
<text text-anchor="middle" x="2942" y="-193.94" font-family="Times,serif" font-size="14.00">a0 in {&#39;TO:&lt;574702257@qq.com&gt;&#39;, &#39;TO:&lt;1542110793@qq.com&gt;&#39;, &#39;TO:&lt;574702256@qq.com&gt;&#39;}</text>
<text text-anchor="middle" x="2942" y="-176.69" font-family="Times,serif" font-size="14.00">b0 in {&#39;Mail OK&#39;, &#39;ok&#39;}</text>
</g>
<!-- q7:10&#45;&gt;q7:10 -->
<g id="edge20" class="edge">
<title>q7:10&#45;&gt;q7:10</title>
<path fill="none" stroke="black" d="M4230.3,-208.43C4207.9,-220.25 4219.1,-233.75 4263.8,-233.75 4300.2,-233.75 4314.4,-224.83 4306.4,-215.16"/>
<polygon fill="black" stroke="black" points="4308.72,-212.52 4298.61,-209.33 4304.52,-218.12 4308.72,-212.52"/>
<text text-anchor="middle" x="4263.8" y="-254.95" font-family="Times,serif" font-size="14.00">RCPT/250:8</text>
<text text-anchor="middle" x="4263.8" y="-237.7" font-family="Times,serif" font-size="14.00">b0 = Mail OK</text>
</g>
<!-- q11:165 -->
<g id="node20" class="node">
<title>q11:165</title>
<ellipse fill="none" stroke="black" stroke-width="2" cx="4734.6" cy="-137.74" rx="52.26" ry="18"/>
<text text-anchor="middle" x="4734.6" y="-133.07" font-family="Times,serif" font-size="14.00">q11:165</text>
</g>
<!-- q7:10&#45;&gt;q11:165 -->
<g id="edge21" class="edge">
<title>q7:10&#45;&gt;q11:165</title>
<path fill="none" stroke="black" d="M4302.8,-192.89C4384,-182.49 4575.3,-158.01 4673.4,-145.46"/>
<polygon fill="black" stroke="black" points="4673.63,-148.96 4683.1,-144.21 4672.73,-142.01 4673.63,-148.96"/>
<text text-anchor="middle" x="4502.4" y="-207.95" font-family="Times,serif" font-size="14.00">DATA/354:2</text>
<text text-anchor="middle" x="4502.4" y="-190.7" font-family="Times,serif" font-size="14.00">b0 = End data with &lt;CR&gt;&lt;LF&gt;.&lt;CR&gt;&lt;LF&gt;</text>
</g>
<!-- q21:3104 -->
<g id="node12" class="node">
<title>q21:3104</title>
<ellipse fill="none" stroke="black" stroke-width="2" cx="4263.8" cy="-304.75" rx="58.57" ry="18"/>
<text text-anchor="middle" x="4263.8" y="-300.07" font-family="Times,serif" font-size="14.00">q21:3104</text>
</g>
<!-- q21:3104&#45;&gt;q21:3104 -->
<g id="edge12" class="edge">
<title>q21:3104&#45;&gt;q21:3104</title>
<path fill="none" stroke="black" d="M4224.9,-318.79C4210.3,-329.66 4223.3,-340.75 4263.8,-340.75 4291.7,-340.75 4306.5,-335.51 4308.4,-328.7"/>
<polygon fill="black" stroke="black" points="4311.51,-327.09 4303.54,-320.1 4305.42,-330.53 4311.51,-327.09"/>
<text text-anchor="middle" x="4263.8" y="-361.95" font-family="Times,serif" font-size="14.00">content/λ:2986</text>
<text text-anchor="middle" x="4263.8" y="-344.7" font-family="Times,serif" font-size="14.00">a0 = b0</text>
</g>
<!-- q23:111 -->
<g id="node13" class="node">
<title>q23:111</title>
<ellipse fill="none" stroke="black" stroke-width="2" cx="4734.6" cy="-332.75" rx="52.26" ry="18"/>
<text text-anchor="middle" x="4734.6" y="-328.07" font-family="Times,serif" font-size="14.00">q23:111</text>
</g>
<!-- q21:3104&#45;&gt;q23:111 -->
<g id="edge13" class="edge">
<title>q21:3104&#45;&gt;q23:111</title>
<path fill="none" stroke="black" d="M4322.3,-308.18C4410.7,-313.46 4579.4,-323.53 4670.9,-329"/>
<polygon fill="black" stroke="black" points="4670.5,-332.48 4680.69,-329.58 4670.91,-325.49 4670.5,-332.48"/>
<text text-anchor="middle" x="4502.4" y="-331.69" font-family="Times,serif" font-size="14.00">content/250:111</text>
</g>
<!-- q24:7 -->
<g id="node14" class="node">
<title>q24:7</title>
<ellipse fill="none" stroke="black" stroke-width="2" cx="4734.6" cy="-276.75" rx="39.63" ry="18"/>
<text text-anchor="middle" x="4734.6" y="-272.07" font-family="Times,serif" font-size="14.00">q24:7</text>
</g>
<!-- q21:3104&#45;&gt;q24:7 -->
<g id="edge14" class="edge">
<title>q21:3104&#45;&gt;q24:7</title>
<path fill="none" stroke="black" d="M4310.1,-292.88C4320,-290.71 4330.5,-288.75 4340.4,-287.5 4462.6,-272.03 4607.8,-273.02 4682.9,-274.96"/>
<polygon fill="black" stroke="black" points="4682.8,-278.45 4692.89,-275.23 4682.98,-271.46 4682.8,-278.45"/>
<text text-anchor="middle" x="4502.4" y="-290.69" font-family="Times,serif" font-size="14.00">content/554:7</text>
</g>
<!-- q25:111 -->
<g id="node15" class="node">
<title>q25:111</title>
<ellipse fill="none" stroke="black" stroke-width="2" cx="4983.2" cy="-333.75" rx="52.26" ry="18"/>
<text text-anchor="middle" x="4983.2" y="-329.07" font-family="Times,serif" font-size="14.00">q25:111</text>
</g>
<!-- q23:111&#45;&gt;q25:111 -->
<g id="edge15" class="edge">
<title>q23:111&#45;&gt;q25:111</title>
<path fill="none" stroke="black" d="M4787.6,-332.96C4825.9,-333.11 4878.1,-333.32 4918.8,-333.49"/>
<polygon fill="black" stroke="black" points="4918.77,-336.99 4928.79,-333.53 4918.8,-329.99 4918.77,-336.99"/>
<text text-anchor="middle" x="4858.9" y="-336.69" font-family="Times,serif" font-size="14.00">QUIT/221:111</text>
</g>
<!-- q26:7 -->
<g id="node16" class="node">
<title>q26:7</title>
<ellipse fill="none" stroke="black" stroke-width="2" cx="4983.2" cy="-275.75" rx="39.63" ry="18"/>
<text text-anchor="middle" x="4983.2" y="-271.07" font-family="Times,serif" font-size="14.00">q26:7</text>
</g>
<!-- q24:7&#45;&gt;q26:7 -->
<g id="edge16" class="edge">
<title>q24:7&#45;&gt;q26:7</title>
<path fill="none" stroke="black" d="M4775.3,-276.59C4817.7,-276.41 4885.1,-276.14 4931.4,-275.95"/>
<polygon fill="black" stroke="black" points="4931.2,-279.45 4941.19,-275.91 4931.17,-272.45 4931.2,-279.45"/>
<text text-anchor="middle" x="4858.9" y="-296.95" font-family="Times,serif" font-size="14.00">RSET/250:7</text>
<text text-anchor="middle" x="4858.9" y="-279.7" font-family="Times,serif" font-size="14.00">b0 = OK</text>
</g>
<!-- q17:3 -->
<g id="node27" class="node">
<title>q17:3</title>
<ellipse fill="none" stroke="black" stroke-width="2" cx="3793" cy="-266.75" rx="39.63" ry="18"/>
<text text-anchor="middle" x="3793" y="-262.07" font-family="Times,serif" font-size="14.00">q17:3</text>
</g>
<!-- q12:12&#45;&gt;q17:3 -->
<g id="edge32" class="edge">
<title>q12:12&#45;&gt;q17:3</title>
<path fill="none" stroke="black" d="M3474.2,-266.75C3542.3,-266.75 3670,-266.75 3741,-266.75"/>
<polygon fill="black" stroke="black" points="3740.79,-270.25 3750.79,-266.75 3740.79,-263.25 3740.79,-270.25"/>
<text text-anchor="middle" x="3644.3" y="-287.95" font-family="Times,serif" font-size="14.00">λ/451:3</text>
<text text-anchor="middle" x="3644.3" y="-270.7" font-family="Times,serif" font-size="14.00">b0 = Timeout.</text>
</g>
<!-- q13:228&#45;&gt;q11:165 -->
<g id="edge22" class="edge">
<title>q13:228&#45;&gt;q11:165</title>
<path fill="none" stroke="black" d="M3471.4,-161.98C3548.9,-143.1 3718,-104.74 3863.2,-91.24 4167.7,-62.94 4533.8,-108.29 4674.6,-128.65"/>
<polygon fill="black" stroke="black" points="4674,-132.1 4684.4,-130.09 4675.02,-125.18 4674,-132.1"/>
<text text-anchor="middle" x="4025.2" y="-112.94" font-family="Times,serif" font-size="14.00">DATA/354:89</text>
<text text-anchor="middle" x="4025.2" y="-95.69" font-family="Times,serif" font-size="14.00">b0 = End data with &lt;CR&gt;&lt;LF&gt;.&lt;CR&gt;&lt;LF&gt;</text>
</g>
<!-- q18:139 -->
<g id="node21" class="node">
<title>q18:139</title>
<ellipse fill="none" stroke="black" stroke-width="2" cx="3793" cy="-192.75" rx="52.26" ry="18"/>
<text text-anchor="middle" x="3793" y="-188.07" font-family="Times,serif" font-size="14.00">q18:139</text>
</g>
<!-- q13:228&#45;&gt;q18:139 -->
<g id="edge23" class="edge">
<title>q13:228&#45;&gt;q18:139</title>
<path fill="none" stroke="black" d="M3479.9,-175.57C3545.3,-179.17 3658.4,-185.39 3729,-189.28"/>
<polygon fill="black" stroke="black" points="3728.71,-192.77 3738.89,-189.81 3729.09,-185.78 3728.71,-192.77"/>
<text text-anchor="middle" x="3644.3" y="-209.95" font-family="Times,serif" font-size="14.00">RCPT/250:139</text>
<text text-anchor="middle" x="3644.3" y="-192.7" font-family="Times,serif" font-size="14.00">b0 in {&#39;Mail OK&#39;, &#39;ok&#39;}</text>
</g>
<!-- q11:165&#45;&gt;q11:165 -->
<g id="edge24" class="edge">
<title>q11:165&#45;&gt;q11:165</title>
<path fill="none" stroke="black" d="M4712.6,-154.78C4708.1,-164.6 4715.5,-173.75 4734.6,-173.75 4745.7,-173.75 4752.9,-170.69 4756,-166.21"/>
<polygon fill="black" stroke="black" points="4759.49,-166.48 4756.61,-156.29 4752.5,-166.05 4759.49,-166.48"/>
<text text-anchor="middle" x="4734.6" y="-194.95" font-family="Times,serif" font-size="14.00">content/λ:74</text>
<text text-anchor="middle" x="4734.6" y="-177.7" font-family="Times,serif" font-size="14.00">a0 = b0</text>
</g>
<!-- q16:67 -->
<g id="node22" class="node">
<title>q16:67</title>
<ellipse fill="none" stroke="black" stroke-width="2" cx="4983.2" cy="-189.75" rx="45.95" ry="18"/>
<text text-anchor="middle" x="4983.2" y="-185.07" font-family="Times,serif" font-size="14.00">q16:67</text>
</g>
<!-- q11:165&#45;&gt;q16:67 -->
<g id="edge25" class="edge">
<title>q11:165&#45;&gt;q16:67</title>
<path fill="none" stroke="black" d="M4775.4,-149.98C4785,-152.73 4795.3,-155.49 4804.9,-157.75 4846,-167.36 4893,-175.73 4928.3,-181.49"/>
<polygon fill="black" stroke="black" points="4927.37,-184.88 4937.81,-183.02 4928.49,-177.97 4927.37,-184.88"/>
<text text-anchor="middle" x="4858.9" y="-181.69" font-family="Times,serif" font-size="14.00">content/554:67</text>
</g>
<!-- q15:24 -->
<g id="node23" class="node">
<title>q15:24</title>
<ellipse fill="none" stroke="black" stroke-width="2" cx="4983.2" cy="-134.74" rx="45.95" ry="18"/>
<text text-anchor="middle" x="4983.2" y="-130.07" font-family="Times,serif" font-size="14.00">q15:24</text>
</g>
<!-- q11:165&#45;&gt;q15:24 -->
<g id="edge26" class="edge">
<title>q11:165&#45;&gt;q15:24</title>
<path fill="none" stroke="black" d="M4787.6,-137.11C4827.9,-136.62 4883.7,-135.94 4925.2,-135.44"/>
<polygon fill="black" stroke="black" points="4925.03,-138.94 4934.99,-135.32 4924.94,-131.94 4925.03,-138.94"/>
<text text-anchor="middle" x="4858.9" y="-140.69" font-family="Times,serif" font-size="14.00">content/250:24</text>
</g>
<!-- q18:139&#45;&gt;q7:10 -->
<g id="edge28" class="edge">
<title>q18:139&#45;&gt;q7:10</title>
<path fill="none" stroke="black" d="M3845.9,-193.3C3936.5,-194.27 4122.2,-196.25 4212,-197.2"/>
<polygon fill="black" stroke="black" points="4211.95,-200.7 4221.99,-197.31 4212.03,-193.7 4211.95,-200.7"/>
<text text-anchor="middle" x="4025.2" y="-235.19" font-family="Times,serif" font-size="14.00">RCPT/250:1</text>
<text text-anchor="middle" x="4025.2" y="-217.94" font-family="Times,serif" font-size="14.00">a0 = TO:&lt;1542110795@qq.com&gt;</text>
<text text-anchor="middle" x="4025.2" y="-200.69" font-family="Times,serif" font-size="14.00">b0 = Mail OK</text>
</g>
<!-- q18:139&#45;&gt;q21:3104 -->
<g id="edge27" class="edge">
<title>q18:139&#45;&gt;q21:3104</title>
<path fill="none" stroke="black" d="M3813.1,-210.32C3831.5,-227.07 3857.4,-250.13 3863.2,-252.75 3971.3,-301.23 4111.3,-308.32 4193.6,-307.57"/>
<polygon fill="black" stroke="black" points="4193.64,-311.07 4203.59,-307.43 4193.54,-304.07 4193.64,-311.07"/>
<text text-anchor="middle" x="4025.2" y="-327.95" font-family="Times,serif" font-size="14.00">DATA/354:118</text>
<text text-anchor="middle" x="4025.2" y="-310.7" font-family="Times,serif" font-size="14.00">b0 = End data with &lt;CR&gt;&lt;LF&gt;.&lt;CR&gt;&lt;LF&gt;</text>
</g>
<!-- q22:20 -->
<g id="node24" class="node">
<title>q22:20</title>
<ellipse fill="none" stroke="black" stroke-width="2" cx="4263.8" cy="-141.74" rx="45.95" ry="18"/>
<text text-anchor="middle" x="4263.8" y="-137.07" font-family="Times,serif" font-size="14.00">q22:20</text>
</g>
<!-- q18:139&#45;&gt;q22:20 -->
<g id="edge29" class="edge">
<title>q18:139&#45;&gt;q22:20</title>
<path fill="none" stroke="black" d="M3817.4,-176.01C3830.3,-167.81 3846.9,-158.75 3863.2,-154.25 3982.6,-121.28 4129.8,-128.21 4207.9,-135.42"/>
<polygon fill="black" stroke="black" points="4207.1,-138.86 4217.39,-136.34 4207.78,-131.89 4207.1,-138.86"/>
<text text-anchor="middle" x="4025.2" y="-174.95" font-family="Times,serif" font-size="14.00">DATA/550:20</text>
<text text-anchor="middle" x="4025.2" y="-157.7" font-family="Times,serif" font-size="14.00">b0 = too many message send today.</text>
</g>
<!-- q20:67 -->
<g id="node25" class="node">
<title>q20:67</title>
<ellipse fill="none" stroke="black" stroke-width="2" cx="5550.9" cy="-190.75" rx="45.95" ry="18"/>
<text text-anchor="middle" x="5550.9" y="-186.07" font-family="Times,serif" font-size="14.00">q20:67</text>
</g>
<!-- q16:67&#45;&gt;q20:67 -->
<g id="edge30" class="edge">
<title>q16:67&#45;&gt;q20:67</title>
<path fill="none" stroke="black" d="M5030,-189.83C5132.5,-190.01 5380.1,-190.45 5492.6,-190.64"/>
<polygon fill="black" stroke="black" points="5492.48,-194.14 5502.49,-190.65 5492.49,-187.14 5492.48,-194.14"/>
<text text-anchor="middle" x="5270.2" y="-210.95" font-family="Times,serif" font-size="14.00">RSET/250:67</text>
<text text-anchor="middle" x="5270.2" y="-193.7" font-family="Times,serif" font-size="14.00">b0 = OK</text>
</g>
<!-- q19:24 -->
<g id="node26" class="node">
<title>q19:24</title>
<ellipse fill="none" stroke="black" stroke-width="2" cx="5550.9" cy="-132.74" rx="45.95" ry="18"/>
<text text-anchor="middle" x="5550.9" y="-128.07" font-family="Times,serif" font-size="14.00">q19:24</text>
</g>
<!-- q15:24&#45;&gt;q19:24 -->
<g id="edge31" class="edge">
<title>q15:24&#45;&gt;q19:24</title>
<path fill="none" stroke="black" d="M5030,-134.58C5132.5,-134.22 5380.1,-133.34 5492.6,-132.94"/>
<polygon fill="black" stroke="black" points="5492.5,-136.44 5502.49,-132.91 5492.47,-129.44 5492.5,-136.44"/>
<text text-anchor="middle" x="5270.2" y="-155.95" font-family="Times,serif" font-size="14.00">QUIT/221:24</text>
<text text-anchor="middle" x="5270.2" y="-138.7" font-family="Times,serif" font-size="14.00">b0 in {&#39;Bye&#39;, &#39;smtp&#45;97&#45;27.smtpsmail.fmail.bx.sinanode.com&#39;}</text>
</g>
</g>
</svg>
