<?xml version="1.0" encoding="UTF-8" standalone="no"?>
<!DOCTYPE svg PUBLIC "-//W3C//DTD SVG 1.1//EN"
 "http://www.w3.org/Graphics/SVG/1.1/DTD/svg11.dtd">
<!-- Generated by graphviz version 12.0.0 (20240803.0821)
 -->
<!-- Pages: 1 -->
<svg width="4855pt" height="722pt"
 viewBox="0.00 0.00 4855.05 722.09" xmlns="http://www.w3.org/2000/svg" xmlns:xlink="http://www.w3.org/1999/xlink">
<g id="graph0" class="graph" transform="scale(1 1) rotate(0) translate(4 718.09)">
<polygon fill="white" stroke="none" points="-4,4 -4,-718.09 4851.05,-718.09 4851.05,4 -4,4"/>
<!-- q7:150 -->
<g id="node1" class="node">
<title>q7:150</title>
<ellipse fill="none" stroke="black" stroke-width="2" cx="3589.7" cy="-535.8" rx="45.95" ry="18"/>
<text text-anchor="middle" x="3589.7" y="-531.12" font-family="Times,serif" font-size="14.00">q7:150</text>
</g>
<!-- q7:150&#45;&gt;q7:150 -->
<g id="edge1" class="edge">
<title>q7:150&#45;&gt;q7:150</title>
<path fill="none" stroke="black" d="M3554.9,-548.34C3537.9,-559.67 3549.5,-571.8 3589.7,-571.8 3619.5,-571.8 3633.6,-565.12 3631.9,-557.04"/>
<polygon fill="black" stroke="black" points="3634.63,-554.84 3625.48,-549.49 3629.29,-559.38 3634.63,-554.84"/>
<text text-anchor="middle" x="3589.7" y="-593" font-family="Times,serif" font-size="14.00">RCPT/250:9</text>
<text text-anchor="middle" x="3589.7" y="-575.75" font-family="Times,serif" font-size="14.00">b0 = Mail OK</text>
</g>
<!-- q11:2580 -->
<g id="node2" class="node">
<title>q11:2580</title>
<ellipse fill="none" stroke="black" stroke-width="2" cx="4216.2" cy="-510.8" rx="58.57" ry="18"/>
<text text-anchor="middle" x="4216.2" y="-506.12" font-family="Times,serif" font-size="14.00">q11:2580</text>
</g>
<!-- q7:150&#45;&gt;q11:2580 -->
<g id="edge2" class="edge">
<title>q7:150&#45;&gt;q11:2580</title>
<path fill="none" stroke="black" d="M3636.4,-533.97C3744.6,-529.64 4017.2,-518.73 4145.9,-513.57"/>
<polygon fill="black" stroke="black" points="4145.74,-517.08 4155.59,-513.18 4145.45,-510.09 4145.74,-517.08"/>
<text text-anchor="middle" x="3896.6" y="-554" font-family="Times,serif" font-size="14.00">DATA/354:98</text>
<text text-anchor="middle" x="3896.6" y="-536.75" font-family="Times,serif" font-size="14.00">b0 = End data with &lt;CR&gt;&lt;LF&gt;.&lt;CR&gt;&lt;LF&gt;</text>
</g>
<!-- q12:43 -->
<g id="node3" class="node">
<title>q12:43</title>
<ellipse fill="none" stroke="black" stroke-width="2" cx="4216.2" cy="-617.8" rx="45.95" ry="18"/>
<text text-anchor="middle" x="4216.2" y="-613.12" font-family="Times,serif" font-size="14.00">q12:43</text>
</g>
<!-- q7:150&#45;&gt;q12:43 -->
<g id="edge3" class="edge">
<title>q7:150&#45;&gt;q12:43</title>
<path fill="none" stroke="black" d="M3613.5,-552.07C3625,-559.41 3639.4,-567.4 3653.6,-571.8 3831.5,-626.95 4055.5,-625.51 4158.5,-621.15"/>
<polygon fill="black" stroke="black" points="4158.55,-624.65 4168.39,-620.71 4158.24,-617.66 4158.55,-624.65"/>
<text text-anchor="middle" x="3896.6" y="-644" font-family="Times,serif" font-size="14.00">DATA/550:43</text>
<text text-anchor="middle" x="3896.6" y="-626.75" font-family="Times,serif" font-size="14.00">b0 in {&#39;too many message send today.&#39;, &#39;Sender frequency limited.&#39;}</text>
</g>
<!-- q11:2580&#45;&gt;q11:2580 -->
<g id="edge4" class="edge">
<title>q11:2580&#45;&gt;q11:2580</title>
<path fill="none" stroke="black" d="M4183.9,-526.34C4174.8,-536.71 4185.6,-546.8 4216.2,-546.8 4235.4,-546.8 4246.8,-542.86 4250.4,-537.37"/>
<polygon fill="black" stroke="black" points="4253.9,-537.09 4248.76,-527.83 4247,-538.28 4253.9,-537.09"/>
<text text-anchor="middle" x="4216.2" y="-568" font-family="Times,serif" font-size="14.00">content/λ:2479</text>
<text text-anchor="middle" x="4216.2" y="-550.75" font-family="Times,serif" font-size="14.00">a0 = b0</text>
</g>
<!-- q17:91 -->
<g id="node4" class="node">
<title>q17:91</title>
<ellipse fill="none" stroke="black" stroke-width="2" cx="4581.7" cy="-545.8" rx="45.95" ry="18"/>
<text text-anchor="middle" x="4581.7" y="-541.12" font-family="Times,serif" font-size="14.00">q17:91</text>
</g>
<!-- q11:2580&#45;&gt;q17:91 -->
<g id="edge5" class="edge">
<title>q11:2580&#45;&gt;q17:91</title>
<path fill="none" stroke="black" d="M4267.9,-520.2C4276.2,-521.54 4284.7,-522.8 4292.8,-523.8 4372.8,-533.71 4465.9,-539.85 4524.1,-543.05"/>
<polygon fill="black" stroke="black" points="4523.51,-546.52 4533.69,-543.57 4523.89,-539.53 4523.51,-546.52"/>
<text text-anchor="middle" x="4405.3" y="-545.75" font-family="Times,serif" font-size="14.00">content/250:91</text>
</g>
<!-- q18:1 -->
<g id="node5" class="node">
<title>q18:1</title>
<ellipse fill="none" stroke="black" stroke-width="2" cx="4581.7" cy="-487.8" rx="39.63" ry="18"/>
<text text-anchor="middle" x="4581.7" y="-483.12" font-family="Times,serif" font-size="14.00">q18:1</text>
</g>
<!-- q11:2580&#45;&gt;q18:1 -->
<g id="edge6" class="edge">
<title>q11:2580&#45;&gt;q18:1</title>
<path fill="none" stroke="black" d="M4257.6,-497.13C4268.8,-493.92 4281.2,-490.95 4292.8,-489.3 4375.4,-477.55 4472.8,-480.49 4530.5,-483.96"/>
<polygon fill="black" stroke="black" points="4530.09,-487.44 4540.29,-484.58 4530.53,-480.45 4530.09,-487.44"/>
<text text-anchor="middle" x="4405.3" y="-510" font-family="Times,serif" font-size="14.00">content/550:1</text>
<text text-anchor="middle" x="4405.3" y="-492.75" font-family="Times,serif" font-size="14.00">b0 = Sender frequency limited.</text>
</g>
<!-- q16:9 -->
<g id="node6" class="node">
<title>q16:9</title>
<ellipse fill="none" stroke="black" stroke-width="2" cx="4581.7" cy="-599.8" rx="39.63" ry="18"/>
<text text-anchor="middle" x="4581.7" y="-595.12" font-family="Times,serif" font-size="14.00">q16:9</text>
</g>
<!-- q11:2580&#45;&gt;q16:9 -->
<g id="edge7" class="edge">
<title>q11:2580&#45;&gt;q16:9</title>
<path fill="none" stroke="black" d="M4237.2,-528.5C4251.6,-540.24 4272.1,-554.89 4292.8,-562.8 4372,-593.09 4471.5,-599.55 4530.4,-600.41"/>
<polygon fill="black" stroke="black" points="4530.05,-603.91 4540.09,-600.51 4530.12,-596.91 4530.05,-603.91"/>
<text text-anchor="middle" x="4405.3" y="-603.75" font-family="Times,serif" font-size="14.00">content/554:9</text>
</g>
<!-- q22:91 -->
<g id="node7" class="node">
<title>q22:91</title>
<ellipse fill="none" stroke="black" stroke-width="2" cx="4801.1" cy="-545.8" rx="45.95" ry="18"/>
<text text-anchor="middle" x="4801.1" y="-541.12" font-family="Times,serif" font-size="14.00">q22:91</text>
</g>
<!-- q17:91&#45;&gt;q22:91 -->
<g id="edge8" class="edge">
<title>q17:91&#45;&gt;q22:91</title>
<path fill="none" stroke="black" d="M4628.6,-545.8C4662,-545.8 4707.4,-545.8 4743.1,-545.8"/>
<polygon fill="black" stroke="black" points="4742.79,-549.3 4752.79,-545.8 4742.79,-542.3 4742.79,-549.3"/>
<text text-anchor="middle" x="4691.4" y="-549.75" font-family="Times,serif" font-size="14.00">QUIT/221:91</text>
</g>
<!-- q23:1 -->
<g id="node8" class="node">
<title>q23:1</title>
<ellipse fill="none" stroke="black" stroke-width="2" cx="4801.1" cy="-487.8" rx="39.63" ry="18"/>
<text text-anchor="middle" x="4801.1" y="-483.12" font-family="Times,serif" font-size="14.00">q23:1</text>
</g>
<!-- q18:1&#45;&gt;q23:1 -->
<g id="edge9" class="edge">
<title>q18:1&#45;&gt;q23:1</title>
<path fill="none" stroke="black" d="M4622.3,-487.8C4658.1,-487.8 4711,-487.8 4749.7,-487.8"/>
<polygon fill="black" stroke="black" points="4749.29,-491.3 4759.29,-487.8 4749.29,-484.3 4749.29,-491.3"/>
<text text-anchor="middle" x="4691.4" y="-509" font-family="Times,serif" font-size="14.00">RSET/250:1</text>
<text text-anchor="middle" x="4691.4" y="-491.75" font-family="Times,serif" font-size="14.00">a0 = b0</text>
</g>
<!-- q21:9 -->
<g id="node9" class="node">
<title>q21:9</title>
<ellipse fill="none" stroke="black" stroke-width="2" cx="4801.1" cy="-599.8" rx="39.63" ry="18"/>
<text text-anchor="middle" x="4801.1" y="-595.12" font-family="Times,serif" font-size="14.00">q21:9</text>
</g>
<!-- q16:9&#45;&gt;q21:9 -->
<g id="edge10" class="edge">
<title>q16:9&#45;&gt;q21:9</title>
<path fill="none" stroke="black" d="M4622.3,-599.8C4658.1,-599.8 4711,-599.8 4749.7,-599.8"/>
<polygon fill="black" stroke="black" points="4749.29,-603.3 4759.29,-599.8 4749.29,-596.3 4749.29,-603.3"/>
<text text-anchor="middle" x="4691.4" y="-621" font-family="Times,serif" font-size="14.00">RSET/250:9</text>
<text text-anchor="middle" x="4691.4" y="-603.75" font-family="Times,serif" font-size="14.00">b0 = OK</text>
</g>
<!-- q9:229 -->
<g id="node10" class="node">
<title>q9:229</title>
<ellipse fill="none" stroke="black" stroke-width="2" cx="2302.8" cy="-462.8" rx="45.95" ry="18"/>
<text text-anchor="middle" x="2302.8" y="-458.12" font-family="Times,serif" font-size="14.00">q9:229</text>
</g>
<!-- q14:229 -->
<g id="node11" class="node">
<title>q14:229</title>
<ellipse fill="none" stroke="black" stroke-width="2" cx="3131.5" cy="-462.8" rx="52.26" ry="18"/>
<text text-anchor="middle" x="3131.5" y="-458.12" font-family="Times,serif" font-size="14.00">q14:229</text>
</g>
<!-- q9:229&#45;&gt;q14:229 -->
<g id="edge11" class="edge">
<title>q9:229&#45;&gt;q14:229</title>
<path fill="none" stroke="black" d="M2349.7,-462.8C2489,-462.8 2907.1,-462.8 3067.2,-462.8"/>
<polygon fill="black" stroke="black" points="3066.79,-466.3 3076.79,-462.8 3066.79,-459.3 3066.79,-466.3"/>
<text text-anchor="middle" x="2714" y="-501.24" font-family="Times,serif" font-size="14.00">RCPT/250:229</text>
<text text-anchor="middle" x="2714" y="-483.99" font-family="Times,serif" font-size="14.00">a0 in {&#39;TO:&lt;574702257@qq.com&gt;&#39;, &#39;TO:&lt;1542110793@qq.com&gt;&#39;, &#39;TO:&lt;574702256@qq.com&gt;&#39;}</text>
<text text-anchor="middle" x="2714" y="-466.74" font-family="Times,serif" font-size="14.00">b0 in {&#39;Mail OK&#39;, &#39;ok&#39;}</text>
</g>
<!-- q14:229&#45;&gt;q7:150 -->
<g id="edge12" class="edge">
<title>q14:229&#45;&gt;q7:150</title>
<path fill="none" stroke="black" d="M3184.2,-465.51C3287.3,-471.03 3510,-483.52 3525.7,-489.3 3539,-494.15 3551.8,-502.7 3562.4,-511.15"/>
<polygon fill="black" stroke="black" points="3560.03,-513.73 3569.94,-517.49 3564.54,-508.37 3560.03,-513.73"/>
<text text-anchor="middle" x="3363.7" y="-510" font-family="Times,serif" font-size="14.00">RCPT/250:140</text>
<text text-anchor="middle" x="3363.7" y="-492.75" font-family="Times,serif" font-size="14.00">b0 in {&#39;Mail OK&#39;, &#39;ok&#39;}</text>
</g>
<!-- q20:89 -->
<g id="node12" class="node">
<title>q20:89</title>
<ellipse fill="none" stroke="black" stroke-width="2" cx="3589.7" cy="-429.8" rx="45.95" ry="18"/>
<text text-anchor="middle" x="3589.7" y="-425.12" font-family="Times,serif" font-size="14.00">q20:89</text>
</g>
<!-- q14:229&#45;&gt;q20:89 -->
<g id="edge13" class="edge">
<title>q14:229&#45;&gt;q20:89</title>
<path fill="none" stroke="black" d="M3160.2,-446.95C3172.5,-440.77 3187.4,-434.43 3201.7,-431.3 3317.8,-405.9 3458.3,-414.89 3534,-422.87"/>
<polygon fill="black" stroke="black" points="3533.27,-426.31 3543.59,-423.92 3534.03,-419.35 3533.27,-426.31"/>
<text text-anchor="middle" x="3363.7" y="-452" font-family="Times,serif" font-size="14.00">DATA/354:89</text>
<text text-anchor="middle" x="3363.7" y="-434.75" font-family="Times,serif" font-size="14.00">b0 = End data with &lt;CR&gt;&lt;LF&gt;.&lt;CR&gt;&lt;LF&gt;</text>
</g>
<!-- q20:89&#45;&gt;q11:2580 -->
<g id="edge14" class="edge">
<title>q20:89&#45;&gt;q11:2580</title>
<path fill="none" stroke="black" d="M3623.9,-442.75C3633.4,-445.92 3643.8,-448.94 3653.6,-450.8 3866.2,-490.83 3929.8,-422.89 4139.6,-475.3 4152.2,-478.45 4165.3,-483.74 4176.9,-489.29"/>
<polygon fill="black" stroke="black" points="4175.24,-492.37 4185.75,-493.72 4178.37,-486.11 4175.24,-492.37"/>
<text text-anchor="middle" x="3896.6" y="-496" font-family="Times,serif" font-size="14.00">content/λ:3</text>
<text text-anchor="middle" x="3896.6" y="-478.75" font-family="Times,serif" font-size="14.00">a0 = b0</text>
</g>
<!-- q25:65 -->
<g id="node13" class="node">
<title>q25:65</title>
<ellipse fill="none" stroke="black" stroke-width="2" cx="4216.2" cy="-373.8" rx="45.95" ry="18"/>
<text text-anchor="middle" x="4216.2" y="-369.12" font-family="Times,serif" font-size="14.00">q25:65</text>
</g>
<!-- q20:89&#45;&gt;q25:65 -->
<g id="edge15" class="edge">
<title>q20:89&#45;&gt;q25:65</title>
<path fill="none" stroke="black" d="M3623.6,-416.88C3633.1,-413.62 3643.7,-410.5 3653.6,-408.55 3835.5,-372.88 4056.2,-370.99 4158.3,-372.41"/>
<polygon fill="black" stroke="black" points="4158.03,-375.91 4168.09,-372.56 4158.14,-368.91 4158.03,-375.91"/>
<text text-anchor="middle" x="3896.6" y="-411.74" font-family="Times,serif" font-size="14.00">content/554:65</text>
</g>
<!-- q24:21 -->
<g id="node14" class="node">
<title>q24:21</title>
<ellipse fill="none" stroke="black" stroke-width="2" cx="4216.2" cy="-429.8" rx="45.95" ry="18"/>
<text text-anchor="middle" x="4216.2" y="-425.12" font-family="Times,serif" font-size="14.00">q24:21</text>
</g>
<!-- q20:89&#45;&gt;q24:21 -->
<g id="edge16" class="edge">
<title>q20:89&#45;&gt;q24:21</title>
<path fill="none" stroke="black" d="M3636.6,-429.8C3748.6,-429.8 4035.7,-429.8 4158.3,-429.8"/>
<polygon fill="black" stroke="black" points="4158.09,-433.3 4168.09,-429.8 4158.09,-426.3 4158.09,-433.3"/>
<text text-anchor="middle" x="3896.6" y="-433.74" font-family="Times,serif" font-size="14.00">content/250:21</text>
</g>
<!-- q27:65 -->
<g id="node15" class="node">
<title>q27:65</title>
<ellipse fill="none" stroke="black" stroke-width="2" cx="4581.7" cy="-371.8" rx="45.95" ry="18"/>
<text text-anchor="middle" x="4581.7" y="-367.12" font-family="Times,serif" font-size="14.00">q27:65</text>
</g>
<!-- q25:65&#45;&gt;q27:65 -->
<g id="edge17" class="edge">
<title>q25:65&#45;&gt;q27:65</title>
<path fill="none" stroke="black" d="M4262.9,-373.55C4329.1,-373.18 4451.8,-372.51 4523.8,-372.11"/>
<polygon fill="black" stroke="black" points="4523.5,-375.61 4533.49,-372.06 4523.47,-368.61 4523.5,-375.61"/>
<text text-anchor="middle" x="4405.3" y="-395" font-family="Times,serif" font-size="14.00">RSET/250:65</text>
<text text-anchor="middle" x="4405.3" y="-377.75" font-family="Times,serif" font-size="14.00">b0 = OK</text>
</g>
<!-- q26:21 -->
<g id="node16" class="node">
<title>q26:21</title>
<ellipse fill="none" stroke="black" stroke-width="2" cx="4581.7" cy="-429.8" rx="45.95" ry="18"/>
<text text-anchor="middle" x="4581.7" y="-425.12" font-family="Times,serif" font-size="14.00">q26:21</text>
</g>
<!-- q24:21&#45;&gt;q26:21 -->
<g id="edge18" class="edge">
<title>q24:21&#45;&gt;q26:21</title>
<path fill="none" stroke="black" d="M4262.9,-429.8C4329.1,-429.8 4451.8,-429.8 4523.8,-429.8"/>
<polygon fill="black" stroke="black" points="4523.49,-433.3 4533.49,-429.8 4523.49,-426.3 4523.49,-433.3"/>
<text text-anchor="middle" x="4405.3" y="-451" font-family="Times,serif" font-size="14.00">QUIT/221:21</text>
<text text-anchor="middle" x="4405.3" y="-433.75" font-family="Times,serif" font-size="14.00">b0 = Bye</text>
</g>
<!-- q1:244 -->
<g id="node17" class="node">
<title>q1:244</title>
<ellipse fill="none" stroke="black" stroke-width="2" cx="257.84" cy="-316.8" rx="45.95" ry="18"/>
<text text-anchor="middle" x="257.84" y="-312.12" font-family="Times,serif" font-size="14.00">q1:244</text>
</g>
<!-- q3:2 -->
<g id="node18" class="node">
<title>q3:2</title>
<ellipse fill="none" stroke="black" stroke-width="2" cx="501.98" cy="-279.8" rx="33.32" ry="18"/>
<text text-anchor="middle" x="501.98" y="-275.12" font-family="Times,serif" font-size="14.00">q3:2</text>
</g>
<!-- q1:244&#45;&gt;q3:2 -->
<g id="edge19" class="edge">
<title>q1:244&#45;&gt;q3:2</title>
<path fill="none" stroke="black" d="M288.62,-302.45C298.9,-298.12 310.64,-293.85 321.79,-291.3 366.9,-281 419.94,-278.78 456.55,-278.73"/>
<polygon fill="black" stroke="black" points="456.3,-282.23 466.32,-278.77 456.33,-275.23 456.3,-282.23"/>
<text text-anchor="middle" x="379.91" y="-313" font-family="Times,serif" font-size="14.00">EHLO/λ:2</text>
<text text-anchor="middle" x="379.91" y="-295.75" font-family="Times,serif" font-size="14.00">a0 = [127.0.1.1]</text>
</g>
<!-- q2:242 -->
<g id="node19" class="node">
<title>q2:242</title>
<ellipse fill="none" stroke="black" stroke-width="2" cx="501.98" cy="-379.8" rx="45.95" ry="18"/>
<text text-anchor="middle" x="501.98" y="-375.12" font-family="Times,serif" font-size="14.00">q2:242</text>
</g>
<!-- q1:244&#45;&gt;q2:242 -->
<g id="edge20" class="edge">
<title>q1:244&#45;&gt;q2:242</title>
<path fill="none" stroke="black" d="M297.48,-326.85C339.21,-337.71 405.81,-355.04 451.38,-366.89"/>
<polygon fill="black" stroke="black" points="450.47,-370.27 461.02,-369.4 452.23,-363.49 450.47,-370.27"/>
<text text-anchor="middle" x="379.91" y="-367.74" font-family="Times,serif" font-size="14.00">EHLO/250:242</text>
</g>
<!-- q6:231 -->
<g id="node20" class="node">
<title>q6:231</title>
<ellipse fill="none" stroke="black" stroke-width="2" cx="1681.4" cy="-396.8" rx="45.95" ry="18"/>
<text text-anchor="middle" x="1681.4" y="-392.12" font-family="Times,serif" font-size="14.00">q6:231</text>
</g>
<!-- q3:2&#45;&gt;q6:231 -->
<g id="edge21" class="edge">
<title>q3:2&#45;&gt;q6:231</title>
<path fill="none" stroke="black" d="M530.02,-268.85C665.56,-215.88 1278.1,0 1617.4,-278.05 1648.9,-303.83 1612.5,-334.17 1635.4,-367.8 1637.3,-370.53 1639.5,-373.07 1641.9,-375.41"/>
<polygon fill="black" stroke="black" points="1639.72,-378.15 1649.72,-381.66 1644.09,-372.68 1639.72,-378.15"/>
<text text-anchor="middle" x="1091.7" y="-317.24" font-family="Times,serif" font-size="14.00">AUTH/235:2</text>
<text text-anchor="middle" x="1091.7" y="-299.99" font-family="Times,serif" font-size="14.00">a0 in {&#39;PLAIN AEF6NjE2MUBzaW5hLmNvbQA2ZmRiMjVjZmNjODYyZWZj&#39;, &#39;PLAIN AEF6NjE2MUAxMjYuY29tAE1VUVNBT1NUWElURkpDVUU=&#39;}</text>
<text text-anchor="middle" x="1091.7" y="-282.74" font-family="Times,serif" font-size="14.00">b0 in {&#39;Authentication successful&#39;, &#39;OK Authenticated&#39;}</text>
</g>
<!-- q2:242&#45;&gt;q6:231 -->
<g id="edge22" class="edge">
<title>q2:242&#45;&gt;q6:231</title>
<path fill="none" stroke="black" d="M546.62,-385.23C553.08,-385.87 559.68,-386.42 565.93,-386.8 970.51,-411.05 1459.2,-402.31 1623.4,-398.33"/>
<polygon fill="black" stroke="black" points="1623.28,-401.83 1633.19,-398.09 1623.1,-394.84 1623.28,-401.83"/>
<text text-anchor="middle" x="1091.7" y="-442.24" font-family="Times,serif" font-size="14.00">AUTH/235:229</text>
<text text-anchor="middle" x="1091.7" y="-424.99" font-family="Times,serif" font-size="14.00">a0 in {&#39;PLAIN AEF6NjE2MUBzaW5hLmNvbQA2ZmRiMjVjZmNjODYyZWZj&#39;, &#39;PLAIN AEF6NjE2MUAxMjYuY29tAE1VUVNBT1NUWElURkpDVUU=&#39;}</text>
<text text-anchor="middle" x="1091.7" y="-407.74" font-family="Times,serif" font-size="14.00">b0 in {&#39;Authentication successful&#39;, &#39;OK Authenticated&#39;}</text>
</g>
<!-- q4:1 -->
<g id="node21" class="node">
<title>q4:1</title>
<ellipse fill="none" stroke="black" stroke-width="2" cx="1992.1" cy="-537.8" rx="33.32" ry="18"/>
<text text-anchor="middle" x="1992.1" y="-533.12" font-family="Times,serif" font-size="14.00">q4:1</text>
</g>
<!-- q2:242&#45;&gt;q4:1 -->
<g id="edge23" class="edge">
<title>q2:242&#45;&gt;q4:1</title>
<path fill="none" stroke="black" d="M511.57,-398.19C521.61,-417.36 540.22,-446.43 565.93,-459.8 1055.1,-714.09 1770.5,-585.29 1949.4,-547.21"/>
<polygon fill="black" stroke="black" points="1949.88,-550.69 1958.92,-545.16 1948.41,-543.84 1949.88,-550.69"/>
<text text-anchor="middle" x="1091.7" y="-634" font-family="Times,serif" font-size="14.00">AUTH/λ:1</text>
<text text-anchor="middle" x="1091.7" y="-616.75" font-family="Times,serif" font-size="14.00">a0 = PLAIN AEF6NjE2MUAxMjYuY29tAE1VUVNBT1NUWElURkpDVUU=</text>
</g>
<!-- q5:12 -->
<g id="node22" class="node">
<title>q5:12</title>
<ellipse fill="none" stroke="black" stroke-width="2" cx="1681.4" cy="-340.8" rx="39.63" ry="18"/>
<text text-anchor="middle" x="1681.4" y="-336.12" font-family="Times,serif" font-size="14.00">q5:12</text>
</g>
<!-- q2:242&#45;&gt;q5:12 -->
<g id="edge24" class="edge">
<title>q2:242&#45;&gt;q5:12</title>
<path fill="none" stroke="black" d="M527.7,-364.14C538.91,-357.92 552.62,-351.49 565.93,-348.3 669.92,-323.36 1425.5,-335.9 1629.6,-339.79"/>
<polygon fill="black" stroke="black" points="1629.32,-343.29 1639.39,-339.97 1629.45,-336.29 1629.32,-343.29"/>
<text text-anchor="middle" x="1091.7" y="-370" font-family="Times,serif" font-size="14.00">AUTH/535:12</text>
<text text-anchor="middle" x="1091.7" y="-352.75" font-family="Times,serif" font-size="14.00">b0 in {&#39;5.7.8 authentication failed&#39;, &#39;Error: authentication failed&#39;}</text>
</g>
<!-- q6:231&#45;&gt;q9:229 -->
<g id="edge25" class="edge">
<title>q6:231&#45;&gt;q9:229</title>
<path fill="none" stroke="black" d="M1700.9,-414.05C1712.7,-423.85 1728.8,-435.25 1745.3,-440.8 1797.3,-458.24 2184,-456.4 2238.8,-459.05 2240.9,-459.15 2242.9,-459.25 2245.1,-459.36"/>
<polygon fill="black" stroke="black" points="2244.71,-462.84 2254.89,-459.89 2245.09,-455.85 2244.71,-462.84"/>
<text text-anchor="middle" x="1992.1" y="-497.24" font-family="Times,serif" font-size="14.00">MAIL/250:229</text>
<text text-anchor="middle" x="1992.1" y="-479.99" font-family="Times,serif" font-size="14.00">a0 in {&#39;FROM:&lt;Az6161@126.com&gt;&#39;, &#39;FROM:&lt;Az6161@sina.com&gt;&#39;}</text>
<text text-anchor="middle" x="1992.1" y="-462.74" font-family="Times,serif" font-size="14.00">b0 in {&#39;Mail OK&#39;, &#39;ok&#39;}</text>
</g>
<!-- q10:2 -->
<g id="node23" class="node">
<title>q10:2</title>
<ellipse fill="none" stroke="black" stroke-width="2" cx="2302.8" cy="-387.8" rx="39.63" ry="18"/>
<text text-anchor="middle" x="2302.8" y="-383.12" font-family="Times,serif" font-size="14.00">q10:2</text>
</g>
<!-- q6:231&#45;&gt;q10:2 -->
<g id="edge26" class="edge">
<title>q6:231&#45;&gt;q10:2</title>
<path fill="none" stroke="black" d="M1725.7,-390.78C1732.2,-390.06 1739,-389.45 1745.3,-389.05 1931.6,-377.42 2153.5,-382.63 2251.3,-385.88"/>
<polygon fill="black" stroke="black" points="2250.97,-389.37 2261.09,-386.22 2251.21,-382.37 2250.97,-389.37"/>
<text text-anchor="middle" x="1992.1" y="-428.24" font-family="Times,serif" font-size="14.00">MAIL/553:2</text>
<text text-anchor="middle" x="1992.1" y="-410.99" font-family="Times,serif" font-size="14.00">a0 in {&#39;FROM:&lt;Az_6161@126.com&gt;&#39;, &#39;FROM:&lt;Az6161@163.com&gt;&#39;}</text>
<text text-anchor="middle" x="1992.1" y="-393.74" font-family="Times,serif" font-size="14.00">b0 = Mail from must equal authorized user</text>
</g>
<!-- q4:1&#45;&gt;q7:150 -->
<g id="edge27" class="edge">
<title>q4:1&#45;&gt;q7:150</title>
<path fill="none" stroke="black" d="M2026,-537.76C2225.8,-537.51 3274,-536.19 3531.5,-535.87"/>
<polygon fill="black" stroke="black" points="3531.29,-539.37 3541.29,-535.86 3531.28,-532.37 3531.29,-539.37"/>
<text text-anchor="middle" x="2714" y="-575.25" font-family="Times,serif" font-size="14.00">MAIL/250:1</text>
<text text-anchor="middle" x="2714" y="-558" font-family="Times,serif" font-size="14.00">a0 = FROM:&lt;Az6161@126.com&gt;</text>
<text text-anchor="middle" x="2714" y="-540.75" font-family="Times,serif" font-size="14.00">b0 = Mail OK</text>
</g>
<!-- q8:12 -->
<g id="node24" class="node">
<title>q8:12</title>
<ellipse fill="none" stroke="black" stroke-width="2" cx="2302.8" cy="-329.8" rx="39.63" ry="18"/>
<text text-anchor="middle" x="2302.8" y="-325.12" font-family="Times,serif" font-size="14.00">q8:12</text>
</g>
<!-- q5:12&#45;&gt;q8:12 -->
<g id="edge28" class="edge">
<title>q5:12&#45;&gt;q8:12</title>
<path fill="none" stroke="black" d="M1721.6,-340.1C1829.4,-338.19 2130.4,-332.84 2250.9,-330.7"/>
<polygon fill="black" stroke="black" points="2250.85,-334.2 2260.79,-330.53 2250.73,-327.2 2250.85,-334.2"/>
<text text-anchor="middle" x="1992.1" y="-361" font-family="Times,serif" font-size="14.00">AUTH/334:12</text>
<text text-anchor="middle" x="1992.1" y="-343.75" font-family="Times,serif" font-size="14.00">b0 = UGFzc3dvcmQ6</text>
</g>
<!-- q15:2 -->
<g id="node25" class="node">
<title>q15:2</title>
<ellipse fill="none" stroke="black" stroke-width="2" cx="3131.5" cy="-387.8" rx="39.63" ry="18"/>
<text text-anchor="middle" x="3131.5" y="-383.12" font-family="Times,serif" font-size="14.00">q15:2</text>
</g>
<!-- q10:2&#45;&gt;q15:2 -->
<g id="edge29" class="edge">
<title>q10:2&#45;&gt;q15:2</title>
<path fill="none" stroke="black" d="M2343.4,-387.8C2479.4,-387.8 2927.9,-387.8 3079.7,-387.8"/>
<polygon fill="black" stroke="black" points="3079.49,-391.3 3089.49,-387.8 3079.49,-384.3 3079.49,-391.3"/>
<text text-anchor="middle" x="2714" y="-409" font-family="Times,serif" font-size="14.00">RSET/250:2</text>
<text text-anchor="middle" x="2714" y="-391.75" font-family="Times,serif" font-size="14.00">b0 = OK</text>
</g>
<!-- q13:12 -->
<g id="node26" class="node">
<title>q13:12</title>
<ellipse fill="none" stroke="black" stroke-width="2" cx="3131.5" cy="-329.8" rx="45.95" ry="18"/>
<text text-anchor="middle" x="3131.5" y="-325.12" font-family="Times,serif" font-size="14.00">q13:12</text>
</g>
<!-- q8:12&#45;&gt;q13:12 -->
<g id="edge30" class="edge">
<title>q8:12&#45;&gt;q13:12</title>
<path fill="none" stroke="black" d="M2343.4,-329.8C2477.6,-329.8 2915.9,-329.8 3073.4,-329.8"/>
<polygon fill="black" stroke="black" points="3073.19,-333.3 3083.19,-329.8 3073.19,-326.3 3073.19,-333.3"/>
<text text-anchor="middle" x="2714" y="-351" font-family="Times,serif" font-size="14.00">content/535:12</text>
<text text-anchor="middle" x="2714" y="-333.75" font-family="Times,serif" font-size="14.00">b0 in {&#39;5.7.8 authentication failed&#39;, &#39;Error: authentication failed&#39;}</text>
</g>
<!-- q19:3 -->
<g id="node28" class="node">
<title>q19:3</title>
<ellipse fill="none" stroke="black" stroke-width="2" cx="3589.7" cy="-329.8" rx="39.63" ry="18"/>
<text text-anchor="middle" x="3589.7" y="-325.12" font-family="Times,serif" font-size="14.00">q19:3</text>
</g>
<!-- q13:12&#45;&gt;q19:3 -->
<g id="edge32" class="edge">
<title>q13:12&#45;&gt;q19:3</title>
<path fill="none" stroke="black" d="M3178.3,-329.8C3264.1,-329.8 3448.1,-329.8 3537.7,-329.8"/>
<polygon fill="black" stroke="black" points="3537.59,-333.3 3547.59,-329.8 3537.59,-326.3 3537.59,-333.3"/>
<text text-anchor="middle" x="3363.7" y="-351" font-family="Times,serif" font-size="14.00">λ/451:3</text>
<text text-anchor="middle" x="3363.7" y="-333.75" font-family="Times,serif" font-size="14.00">b0 = Timeout.</text>
</g>
<!-- q0:244 -->
<g id="node27" class="node">
<title>q0:244</title>
<ellipse fill="none" stroke="black" stroke-width="2" cx="53.95" cy="-316.8" rx="49.95" ry="49.95"/>
<ellipse fill="none" stroke="black" stroke-width="2" cx="53.95" cy="-316.8" rx="53.95" ry="53.95"/>
<text text-anchor="middle" x="53.95" y="-312.12" font-family="Times,serif" font-size="14.00">q0:244</text>
</g>
<!-- q0:244&#45;&gt;q1:244 -->
<g id="edge31" class="edge">
<title>q0:244&#45;&gt;q1:244</title>
<path fill="none" stroke="black" d="M104.85,-316.8C133.64,-316.8 169.94,-316.8 199.84,-316.8"/>
<polygon fill="black" stroke="black" points="199.45,-320.3 209.45,-316.8 199.45,-313.3 199.45,-320.3"/>
<text text-anchor="middle" x="157.89" y="-320.74" font-family="Times,serif" font-size="14.00">λ/220:244</text>
</g>
</g>
</svg>
