<?xml version="1.0" encoding="UTF-8" standalone="no"?>
<!DOCTYPE svg PUBLIC "-//W3C//DTD SVG 1.1//EN"
 "http://www.w3.org/Graphics/SVG/1.1/DTD/svg11.dtd">
<!-- Generated by graphviz version 12.0.0 (20240803.0821)
 -->
<!-- Pages: 1 -->
<svg width="1986pt" height="303pt"
 viewBox="0.00 0.00 1985.85 303.00" xmlns="http://www.w3.org/2000/svg" xmlns:xlink="http://www.w3.org/1999/xlink">
<g id="graph0" class="graph" transform="scale(1 1) rotate(0) translate(4 299)">
<polygon fill="white" stroke="none" points="-4,4 -4,-299 1981.85,-299 1981.85,4 -4,4"/>
<!-- q2:243 -->
<g id="node1" class="node">
<title>q2:243</title>
<ellipse fill="none" stroke="black" stroke-width="2" cx="491.48" cy="-213" rx="45.95" ry="18"/>
<text text-anchor="middle" x="491.48" y="-208.32" font-family="Times,serif" font-size="14.00">q2:243</text>
</g>
<!-- q4:2 -->
<g id="node2" class="node">
<title>q4:2</title>
<ellipse fill="none" stroke="black" stroke-width="2" cx="725.13" cy="-140" rx="33.32" ry="18"/>
<text text-anchor="middle" x="725.13" y="-135.32" font-family="Times,serif" font-size="14.00">q4:2</text>
</g>
<!-- q2:243&#45;&gt;q4:2 -->
<g id="edge1" class="edge">
<title>q2:243&#45;&gt;q4:2</title>
<path fill="none" stroke="black" d="M528.68,-201.59C570.94,-188.28 640.6,-166.32 684.34,-152.54"/>
<polygon fill="black" stroke="black" points="685.21,-155.93 693.7,-149.59 683.11,-149.26 685.21,-155.93"/>
<text text-anchor="middle" x="608.31" y="-194.94" font-family="Times,serif" font-size="14.00">AUTH/λ:1</text>
</g>
<!-- q5:12 -->
<g id="node3" class="node">
<title>q5:12</title>
<ellipse fill="none" stroke="black" stroke-width="2" cx="725.13" cy="-275" rx="39.63" ry="18"/>
<text text-anchor="middle" x="725.13" y="-270.32" font-family="Times,serif" font-size="14.00">q5:12</text>
</g>
<!-- q2:243&#45;&gt;q5:12 -->
<g id="edge2" class="edge">
<title>q2:243&#45;&gt;q5:12</title>
<path fill="none" stroke="black" d="M523.83,-226.61C533.81,-230.63 544.97,-234.8 555.43,-238 595.49,-250.26 642.07,-260.16 676.12,-266.62"/>
<polygon fill="black" stroke="black" points="675.2,-270.01 685.67,-268.4 676.48,-263.13 675.2,-270.01"/>
<text text-anchor="middle" x="608.31" y="-266.94" font-family="Times,serif" font-size="14.00">AUTH/535:12</text>
</g>
<!-- q6:230 -->
<g id="node4" class="node">
<title>q6:230</title>
<ellipse fill="none" stroke="black" stroke-width="2" cx="725.13" cy="-220" rx="45.95" ry="18"/>
<text text-anchor="middle" x="725.13" y="-215.32" font-family="Times,serif" font-size="14.00">q6:230</text>
</g>
<!-- q2:243&#45;&gt;q6:230 -->
<g id="edge3" class="edge">
<title>q2:243&#45;&gt;q6:230</title>
<path fill="none" stroke="black" d="M538.25,-214.38C575.21,-215.5 627.42,-217.08 667.1,-218.28"/>
<polygon fill="black" stroke="black" points="666.85,-221.77 676.95,-218.57 667.06,-214.78 666.85,-221.77"/>
<text text-anchor="middle" x="608.31" y="-220.94" font-family="Times,serif" font-size="14.00">AUTH/235:230</text>
</g>
<!-- q7:606 -->
<g id="node5" class="node">
<title>q7:606</title>
<ellipse fill="none" stroke="black" stroke-width="2" cx="954.27" cy="-134" rx="45.95" ry="18"/>
<text text-anchor="middle" x="954.27" y="-129.32" font-family="Times,serif" font-size="14.00">q7:606</text>
</g>
<!-- q4:2&#45;&gt;q7:606 -->
<g id="edge4" class="edge">
<title>q4:2&#45;&gt;q7:606</title>
<path fill="none" stroke="black" d="M759.16,-139.13C795,-138.18 852.89,-136.65 896.14,-135.51"/>
<polygon fill="black" stroke="black" points="896.22,-139.01 906.13,-135.25 896.04,-132.01 896.22,-139.01"/>
<text text-anchor="middle" x="839.7" y="-141.94" font-family="Times,serif" font-size="14.00">MAIL/250:2</text>
</g>
<!-- q8:12 -->
<g id="node6" class="node">
<title>q8:12</title>
<ellipse fill="none" stroke="black" stroke-width="2" cx="954.27" cy="-277" rx="39.63" ry="18"/>
<text text-anchor="middle" x="954.27" y="-272.32" font-family="Times,serif" font-size="14.00">q8:12</text>
</g>
<!-- q5:12&#45;&gt;q8:12 -->
<g id="edge5" class="edge">
<title>q5:12&#45;&gt;q8:12</title>
<path fill="none" stroke="black" d="M765.69,-275.35C803.6,-275.68 861,-276.19 902.32,-276.55"/>
<polygon fill="black" stroke="black" points="902.24,-280.05 912.27,-276.64 902.3,-273.05 902.24,-280.05"/>
<text text-anchor="middle" x="839.7" y="-279.94" font-family="Times,serif" font-size="14.00">AUTH/334:12</text>
</g>
<!-- q6:230&#45;&gt;q7:606 -->
<g id="edge6" class="edge">
<title>q6:230&#45;&gt;q7:606</title>
<path fill="none" stroke="black" d="M759.79,-207.33C792.99,-194.82 845.17,-175.13 890.33,-158 896.49,-155.66 902.99,-153.19 909.38,-150.75"/>
<polygon fill="black" stroke="black" points="910.45,-154.09 918.54,-147.26 907.95,-147.55 910.45,-154.09"/>
<text text-anchor="middle" x="839.7" y="-197.94" font-family="Times,serif" font-size="14.00">MAIL/250:227</text>
</g>
<!-- q9:3 -->
<g id="node7" class="node">
<title>q9:3</title>
<ellipse fill="none" stroke="black" stroke-width="2" cx="954.27" cy="-223" rx="33.32" ry="18"/>
<text text-anchor="middle" x="954.27" y="-218.32" font-family="Times,serif" font-size="14.00">q9:3</text>
</g>
<!-- q6:230&#45;&gt;q9:3 -->
<g id="edge7" class="edge">
<title>q6:230&#45;&gt;q9:3</title>
<path fill="none" stroke="black" d="M771.82,-220.6C811.71,-221.13 869.24,-221.89 908.77,-222.41"/>
<polygon fill="black" stroke="black" points="908.61,-225.91 918.66,-222.54 908.7,-218.91 908.61,-225.91"/>
<text text-anchor="middle" x="839.7" y="-225.94" font-family="Times,serif" font-size="14.00">MAIL/553:3</text>
</g>
<!-- q7:606&#45;&gt;q7:606 -->
<g id="edge8" class="edge">
<title>q7:606&#45;&gt;q7:606</title>
<path fill="none" stroke="black" d="M933.97,-151.04C929.83,-160.86 936.59,-170 954.27,-170 964.49,-170 971.07,-166.94 973.99,-162.47"/>
<polygon fill="black" stroke="black" points="977.48,-162.72 974.49,-152.55 970.49,-162.36 977.48,-162.72"/>
<text text-anchor="middle" x="954.27" y="-173.94" font-family="Times,serif" font-size="14.00">RCPT/250:377</text>
</g>
<!-- q10:1392 -->
<g id="node8" class="node">
<title>q10:1392</title>
<ellipse fill="none" stroke="black" stroke-width="2" cx="1202.8" cy="-98" rx="58.57" ry="18"/>
<text text-anchor="middle" x="1202.8" y="-93.33" font-family="Times,serif" font-size="14.00">q10:1392</text>
</g>
<!-- q7:606&#45;&gt;q10:1392 -->
<g id="edge9" class="edge">
<title>q7:606&#45;&gt;q10:1392</title>
<path fill="none" stroke="black" d="M991.98,-122.84C1000.53,-120.55 1009.6,-118.35 1018.2,-116.75 1055.8,-109.72 1098.3,-105.17 1133,-102.31"/>
<polygon fill="black" stroke="black" points="1133.2,-105.81 1142.89,-101.53 1132.65,-98.83 1133.2,-105.81"/>
<text text-anchor="middle" x="1072.2" y="-119.95" font-family="Times,serif" font-size="14.00">DATA/354:186</text>
</g>
<!-- q11:43 -->
<g id="node9" class="node">
<title>q11:43</title>
<ellipse fill="none" stroke="black" stroke-width="2" cx="1202.8" cy="-152" rx="45.95" ry="18"/>
<text text-anchor="middle" x="1202.8" y="-147.32" font-family="Times,serif" font-size="14.00">q11:43</text>
</g>
<!-- q7:606&#45;&gt;q11:43 -->
<g id="edge10" class="edge">
<title>q7:606&#45;&gt;q11:43</title>
<path fill="none" stroke="black" d="M1000.49,-137.3C1041.3,-140.28 1101.6,-144.68 1145.5,-147.89"/>
<polygon fill="black" stroke="black" points="1145.16,-151.37 1155.39,-148.61 1145.67,-144.39 1145.16,-151.37"/>
<text text-anchor="middle" x="1072.2" y="-149.94" font-family="Times,serif" font-size="14.00">DATA/550:43</text>
</g>
<!-- q12:12 -->
<g id="node10" class="node">
<title>q12:12</title>
<ellipse fill="none" stroke="black" stroke-width="2" cx="1202.8" cy="-277" rx="45.95" ry="18"/>
<text text-anchor="middle" x="1202.8" y="-272.32" font-family="Times,serif" font-size="14.00">q12:12</text>
</g>
<!-- q8:12&#45;&gt;q12:12 -->
<g id="edge11" class="edge">
<title>q8:12&#45;&gt;q12:12</title>
<path fill="none" stroke="black" d="M994.88,-277C1035.4,-277 1098.8,-277 1144.7,-277"/>
<polygon fill="black" stroke="black" points="1144.49,-280.5 1154.49,-277 1144.49,-273.5 1144.49,-280.5"/>
<text text-anchor="middle" x="1072.2" y="-280.94" font-family="Times,serif" font-size="14.00">content/535:12</text>
</g>
<!-- q13:3 -->
<g id="node11" class="node">
<title>q13:3</title>
<ellipse fill="none" stroke="black" stroke-width="2" cx="1202.8" cy="-223" rx="39.63" ry="18"/>
<text text-anchor="middle" x="1202.8" y="-218.32" font-family="Times,serif" font-size="14.00">q13:3</text>
</g>
<!-- q9:3&#45;&gt;q13:3 -->
<g id="edge12" class="edge">
<title>q9:3&#45;&gt;q13:3</title>
<path fill="none" stroke="black" d="M988.52,-223C1030.4,-223 1102.7,-223 1151.4,-223"/>
<polygon fill="black" stroke="black" points="1151.09,-226.5 1161.09,-223 1151.09,-219.5 1151.09,-226.5"/>
<text text-anchor="middle" x="1072.2" y="-226.94" font-family="Times,serif" font-size="14.00">RSET/250:3</text>
</g>
<!-- q15:1 -->
<g id="node12" class="node">
<title>q15:1</title>
<ellipse fill="none" stroke="black" stroke-width="2" cx="1463.9" cy="-135" rx="39.63" ry="18"/>
<text text-anchor="middle" x="1463.9" y="-130.32" font-family="Times,serif" font-size="14.00">q15:1</text>
</g>
<!-- q10:1392&#45;&gt;q15:1 -->
<g id="edge13" class="edge">
<title>q10:1392&#45;&gt;q15:1</title>
<path fill="none" stroke="black" d="M1253.7,-107.68C1262.3,-109.21 1271.1,-110.71 1279.4,-112 1324.7,-119.03 1376.5,-125.37 1413.5,-129.6"/>
<polygon fill="black" stroke="black" points="1412.66,-133.03 1423,-130.68 1413.45,-126.07 1412.66,-133.03"/>
<text text-anchor="middle" x="1333.4" y="-129.94" font-family="Times,serif" font-size="14.00">content/550:1</text>
</g>
<!-- q17:1248 -->
<g id="node13" class="node">
<title>q17:1248</title>
<ellipse fill="none" stroke="black" stroke-width="2" cx="1463.9" cy="-77" rx="58.57" ry="18"/>
<text text-anchor="middle" x="1463.9" y="-72.33" font-family="Times,serif" font-size="14.00">q17:1248</text>
</g>
<!-- q10:1392&#45;&gt;q17:1248 -->
<g id="edge14" class="edge">
<title>q10:1392&#45;&gt;q17:1248</title>
<path fill="none" stroke="black" d="M1260.3,-93.42C1300,-90.2 1353.3,-85.88 1395.3,-82.48"/>
<polygon fill="black" stroke="black" points="1395.31,-85.99 1404.99,-81.7 1394.74,-79.02 1395.31,-85.99"/>
<text text-anchor="middle" x="1333.4" y="-94.95" font-family="Times,serif" font-size="14.00">content/λ:1248</text>
</g>
<!-- q14:71 -->
<g id="node14" class="node">
<title>q14:71</title>
<ellipse fill="none" stroke="black" stroke-width="2" cx="1463.9" cy="-18" rx="45.95" ry="18"/>
<text text-anchor="middle" x="1463.9" y="-13.32" font-family="Times,serif" font-size="14.00">q14:71</text>
</g>
<!-- q10:1392&#45;&gt;q14:71 -->
<g id="edge15" class="edge">
<title>q10:1392&#45;&gt;q14:71</title>
<path fill="none" stroke="black" d="M1219.8,-79.84C1233.9,-65.2 1255.8,-45.51 1279.4,-35.75 1319.7,-19.04 1369.2,-15.1 1406.6,-15.06"/>
<polygon fill="black" stroke="black" points="1406.25,-18.56 1416.29,-15.15 1406.32,-11.56 1406.25,-18.56"/>
<text text-anchor="middle" x="1333.4" y="-39.95" font-family="Times,serif" font-size="14.00">content/250:71</text>
</g>
<!-- q16:72 -->
<g id="node15" class="node">
<title>q16:72</title>
<ellipse fill="none" stroke="black" stroke-width="2" cx="1463.9" cy="-189" rx="45.95" ry="18"/>
<text text-anchor="middle" x="1463.9" y="-184.32" font-family="Times,serif" font-size="14.00">q16:72</text>
</g>
<!-- q10:1392&#45;&gt;q16:72 -->
<g id="edge16" class="edge">
<title>q10:1392&#45;&gt;q16:72</title>
<path fill="none" stroke="black" d="M1241.2,-112.53C1248.2,-116.08 1255.3,-120.25 1261.4,-125 1271.3,-132.76 1268.6,-140.34 1279.4,-147 1317.8,-170.83 1368.3,-181.17 1406.6,-185.64"/>
<polygon fill="black" stroke="black" points="1405.78,-189.07 1416.09,-186.64 1406.52,-182.11 1405.78,-189.07"/>
<text text-anchor="middle" x="1333.4" y="-185.94" font-family="Times,serif" font-size="14.00">content/554:72</text>
</g>
<!-- q18:4 -->
<g id="node20" class="node">
<title>q18:4</title>
<ellipse fill="none" stroke="black" stroke-width="2" cx="1463.9" cy="-277" rx="39.63" ry="18"/>
<text text-anchor="middle" x="1463.9" y="-272.32" font-family="Times,serif" font-size="14.00">q18:4</text>
</g>
<!-- q12:12&#45;&gt;q18:4 -->
<g id="edge22" class="edge">
<title>q12:12&#45;&gt;q18:4</title>
<path fill="none" stroke="black" d="M1249.5,-277C1295.1,-277 1364.8,-277 1412.1,-277"/>
<polygon fill="black" stroke="black" points="1412.09,-280.5 1422.09,-277 1412.09,-273.5 1412.09,-280.5"/>
<text text-anchor="middle" x="1333.4" y="-280.94" font-family="Times,serif" font-size="14.00">λ/451:4</text>
</g>
<!-- q20:1 -->
<g id="node16" class="node">
<title>q20:1</title>
<ellipse fill="none" stroke="black" stroke-width="2" cx="1712.5" cy="-135" rx="39.63" ry="18"/>
<text text-anchor="middle" x="1712.5" y="-130.32" font-family="Times,serif" font-size="14.00">q20:1</text>
</g>
<!-- q15:1&#45;&gt;q20:1 -->
<g id="edge17" class="edge">
<title>q15:1&#45;&gt;q20:1</title>
<path fill="none" stroke="black" d="M1504.5,-135C1547,-135 1614.4,-135 1660.7,-135"/>
<polygon fill="black" stroke="black" points="1660.49,-138.5 1670.49,-135 1660.49,-131.5 1660.49,-138.5"/>
<text text-anchor="middle" x="1594.5" y="-138.94" font-family="Times,serif" font-size="14.00">RSET/250:1</text>
</g>
<!-- q17:1248&#45;&gt;q10:1392 -->
<g id="edge18" class="edge">
<title>q17:1248&#45;&gt;q10:1392</title>
<path fill="none" stroke="black" d="M1416.8,-65.47C1379.3,-57.95 1325.4,-51.29 1279.4,-61.75 1266.2,-64.75 1252.6,-70.33 1240.7,-76.24"/>
<polygon fill="black" stroke="black" points="1239.29,-73.03 1232.04,-80.76 1242.53,-79.23 1239.29,-73.03"/>
<text text-anchor="middle" x="1333.4" y="-65.95" font-family="Times,serif" font-size="14.00">content/λ:1206</text>
</g>
<!-- q22:42 -->
<g id="node17" class="node">
<title>q22:42</title>
<ellipse fill="none" stroke="black" stroke-width="2" cx="1712.5" cy="-77" rx="45.95" ry="18"/>
<text text-anchor="middle" x="1712.5" y="-72.33" font-family="Times,serif" font-size="14.00">q22:42</text>
</g>
<!-- q17:1248&#45;&gt;q22:42 -->
<g id="edge19" class="edge">
<title>q17:1248&#45;&gt;q22:42</title>
<path fill="none" stroke="black" d="M1523.4,-77C1562.9,-77 1615,-77 1654.3,-77"/>
<polygon fill="black" stroke="black" points="1654.29,-80.5 1664.29,-77 1654.29,-73.5 1654.29,-80.5"/>
<text text-anchor="middle" x="1594.5" y="-80.95" font-family="Times,serif" font-size="14.00">content/250:42</text>
</g>
<!-- q19:71 -->
<g id="node18" class="node">
<title>q19:71</title>
<ellipse fill="none" stroke="black" stroke-width="2" cx="1712.5" cy="-18" rx="45.95" ry="18"/>
<text text-anchor="middle" x="1712.5" y="-13.32" font-family="Times,serif" font-size="14.00">q19:71</text>
</g>
<!-- q14:71&#45;&gt;q19:71 -->
<g id="edge20" class="edge">
<title>q14:71&#45;&gt;q19:71</title>
<path fill="none" stroke="black" d="M1510.7,-18C1551.4,-18 1610.9,-18 1654.6,-18"/>
<polygon fill="black" stroke="black" points="1654.39,-21.5 1664.39,-18 1654.39,-14.5 1654.39,-21.5"/>
<text text-anchor="middle" x="1594.5" y="-21.95" font-family="Times,serif" font-size="14.00">QUIT/221:71</text>
</g>
<!-- q21:72 -->
<g id="node19" class="node">
<title>q21:72</title>
<ellipse fill="none" stroke="black" stroke-width="2" cx="1712.5" cy="-189" rx="45.95" ry="18"/>
<text text-anchor="middle" x="1712.5" y="-184.32" font-family="Times,serif" font-size="14.00">q21:72</text>
</g>
<!-- q16:72&#45;&gt;q21:72 -->
<g id="edge21" class="edge">
<title>q16:72&#45;&gt;q21:72</title>
<path fill="none" stroke="black" d="M1510.7,-189C1551.4,-189 1610.9,-189 1654.6,-189"/>
<polygon fill="black" stroke="black" points="1654.39,-192.5 1664.39,-189 1654.39,-185.5 1654.39,-192.5"/>
<text text-anchor="middle" x="1594.5" y="-192.94" font-family="Times,serif" font-size="14.00">RSET/250:72</text>
</g>
<!-- q23:42 -->
<g id="node21" class="node">
<title>q23:42</title>
<ellipse fill="none" stroke="black" stroke-width="2" cx="1931.9" cy="-77" rx="45.95" ry="18"/>
<text text-anchor="middle" x="1931.9" y="-72.33" font-family="Times,serif" font-size="14.00">q23:42</text>
</g>
<!-- q22:42&#45;&gt;q23:42 -->
<g id="edge23" class="edge">
<title>q22:42&#45;&gt;q23:42</title>
<path fill="none" stroke="black" d="M1759.3,-77C1792.7,-77 1838.1,-77 1873.8,-77"/>
<polygon fill="black" stroke="black" points="1873.59,-80.5 1883.59,-77 1873.59,-73.5 1873.59,-80.5"/>
<text text-anchor="middle" x="1822.2" y="-80.95" font-family="Times,serif" font-size="14.00">QUIT/221:42</text>
</g>
<!-- q1:244 -->
<g id="node22" class="node">
<title>q1:244</title>
<ellipse fill="none" stroke="black" stroke-width="2" cx="257.84" cy="-180" rx="45.95" ry="18"/>
<text text-anchor="middle" x="257.84" y="-175.32" font-family="Times,serif" font-size="14.00">q1:244</text>
</g>
<!-- q1:244&#45;&gt;q2:243 -->
<g id="edge24" class="edge">
<title>q1:244&#45;&gt;q2:243</title>
<path fill="none" stroke="black" d="M302.14,-186.17C340,-191.56 395.17,-199.42 436.02,-205.24"/>
<polygon fill="black" stroke="black" points="435.51,-208.7 445.9,-206.65 436.49,-201.77 435.51,-208.7"/>
<text text-anchor="middle" x="374.66" y="-206.94" font-family="Times,serif" font-size="14.00">EHLO/250:243</text>
</g>
<!-- q3:1 -->
<g id="node23" class="node">
<title>q3:1</title>
<ellipse fill="none" stroke="black" stroke-width="2" cx="491.48" cy="-153" rx="33.32" ry="18"/>
<text text-anchor="middle" x="491.48" y="-148.32" font-family="Times,serif" font-size="14.00">q3:1</text>
</g>
<!-- q1:244&#45;&gt;q3:1 -->
<g id="edge25" class="edge">
<title>q1:244&#45;&gt;q3:1</title>
<path fill="none" stroke="black" d="M296.21,-169.12C304.56,-167.03 313.43,-165.08 321.79,-163.75 363.53,-157.09 411.69,-154.52 445.85,-153.55"/>
<polygon fill="black" stroke="black" points="445.88,-157.05 455.8,-153.31 445.71,-150.05 445.88,-157.05"/>
<text text-anchor="middle" x="374.66" y="-166.94" font-family="Times,serif" font-size="14.00">EHLO/λ:1</text>
</g>
<!-- q3:1&#45;&gt;q4:2 -->
<g id="edge26" class="edge">
<title>q3:1&#45;&gt;q4:2</title>
<path fill="none" stroke="black" d="M523.05,-145.86C533.28,-143.78 544.8,-141.8 555.43,-140.75 597.41,-136.61 645.55,-136.89 679.63,-137.93"/>
<polygon fill="black" stroke="black" points="679.43,-141.43 689.55,-138.27 679.67,-134.43 679.43,-141.43"/>
<text text-anchor="middle" x="608.31" y="-143.94" font-family="Times,serif" font-size="14.00">AUTH/235:1</text>
</g>
<!-- q0:244 -->
<g id="node24" class="node">
<title>q0:244</title>
<ellipse fill="none" stroke="black" stroke-width="2" cx="53.95" cy="-180" rx="49.95" ry="49.95"/>
<ellipse fill="none" stroke="black" stroke-width="2" cx="53.95" cy="-180" rx="53.95" ry="53.95"/>
<text text-anchor="middle" x="53.95" y="-175.32" font-family="Times,serif" font-size="14.00">q0:244</text>
</g>
<!-- q0:244&#45;&gt;q1:244 -->
<g id="edge27" class="edge">
<title>q0:244&#45;&gt;q1:244</title>
<path fill="none" stroke="black" d="M104.85,-180C133.64,-180 169.94,-180 199.84,-180"/>
<polygon fill="black" stroke="black" points="199.45,-183.5 209.45,-180 199.45,-176.5 199.45,-183.5"/>
<text text-anchor="middle" x="157.89" y="-183.94" font-family="Times,serif" font-size="14.00">λ/220:244</text>
</g>
</g>
</svg>
