<?xml version="1.0" encoding="UTF-8" standalone="no"?>
<!DOCTYPE svg PUBLIC "-//W3C//DTD SVG 1.1//EN"
 "http://www.w3.org/Graphics/SVG/1.1/DTD/svg11.dtd">
<!-- Generated by graphviz version 12.0.0 (20240803.0821)
 -->
<!-- Pages: 1 -->
<svg width="5420pt" height="482pt"
 viewBox="0.00 0.00 5420.15 482.03" xmlns="http://www.w3.org/2000/svg" xmlns:xlink="http://www.w3.org/1999/xlink">
<g id="graph0" class="graph" transform="scale(1 1) rotate(0) translate(4 478.03)">
<polygon fill="white" stroke="none" points="-4,4 -4,-478.03 5416.15,-478.03 5416.15,4 -4,4"/>
<!-- q0:243 -->
<g id="node1" class="node">
<title>q0:243</title>
<ellipse fill="none" stroke="black" stroke-width="2" cx="53.95" cy="-155.42" rx="49.95" ry="49.95"/>
<ellipse fill="none" stroke="black" stroke-width="2" cx="53.95" cy="-155.42" rx="53.95" ry="53.95"/>
<text text-anchor="middle" x="53.95" y="-150.74" font-family="Times,serif" font-size="14.00">q0:243</text>
</g>
<!-- q1:243 -->
<g id="node2" class="node">
<title>q1:243</title>
<ellipse fill="none" stroke="black" stroke-width="2" cx="257.84" cy="-155.42" rx="45.95" ry="18"/>
<text text-anchor="middle" x="257.84" y="-150.74" font-family="Times,serif" font-size="14.00">q1:243</text>
</g>
<!-- q0:243&#45;&gt;q1:243 -->
<g id="edge1" class="edge">
<title>q0:243&#45;&gt;q1:243</title>
<path fill="none" stroke="black" d="M104.85,-155.42C133.64,-155.42 169.94,-155.42 199.84,-155.42"/>
<polygon fill="black" stroke="black" points="199.45,-158.92 209.45,-155.42 199.45,-151.92 199.45,-158.92"/>
<text text-anchor="middle" x="157.89" y="-159.36" font-family="Times,serif" font-size="14.00">λ/220:243</text>
</g>
<!-- q3:241 -->
<g id="node3" class="node">
<title>q3:241</title>
<ellipse fill="none" stroke="black" stroke-width="2" cx="501.98" cy="-194.42" rx="45.95" ry="18"/>
<text text-anchor="middle" x="501.98" y="-189.74" font-family="Times,serif" font-size="14.00">q3:241</text>
</g>
<!-- q1:243&#45;&gt;q3:241 -->
<g id="edge2" class="edge">
<title>q1:243&#45;&gt;q3:241</title>
<path fill="none" stroke="black" d="M301.57,-162.3C342.08,-168.83 403.09,-178.65 446.95,-185.72"/>
<polygon fill="black" stroke="black" points="446.35,-189.17 456.78,-187.3 447.46,-182.26 446.35,-189.17"/>
<text text-anchor="middle" x="379.91" y="-188.36" font-family="Times,serif" font-size="14.00">EHLO/250:241</text>
</g>
<!-- q2:2 -->
<g id="node4" class="node">
<title>q2:2</title>
<ellipse fill="none" stroke="black" stroke-width="2" cx="501.98" cy="-94.42" rx="33.32" ry="18"/>
<text text-anchor="middle" x="501.98" y="-89.74" font-family="Times,serif" font-size="14.00">q2:2</text>
</g>
<!-- q1:243&#45;&gt;q2:2 -->
<g id="edge3" class="edge">
<title>q1:243&#45;&gt;q2:2</title>
<path fill="none" stroke="black" d="M288.09,-140.99C298.53,-136.29 310.5,-131.39 321.79,-127.92 366.96,-114.03 420.41,-104.94 457.11,-99.78"/>
<polygon fill="black" stroke="black" points="457.46,-103.27 466.9,-98.45 456.52,-96.33 457.46,-103.27"/>
<text text-anchor="middle" x="379.91" y="-149.62" font-family="Times,serif" font-size="14.00">EHLO/λ:2</text>
<text text-anchor="middle" x="379.91" y="-132.37" font-family="Times,serif" font-size="14.00">a0 = [127.0.1.1]</text>
</g>
<!-- q6:230 -->
<g id="node5" class="node">
<title>q6:230</title>
<ellipse fill="none" stroke="black" stroke-width="2" cx="1681.4" cy="-223.42" rx="45.95" ry="18"/>
<text text-anchor="middle" x="1681.4" y="-218.74" font-family="Times,serif" font-size="14.00">q6:230</text>
</g>
<!-- q3:241&#45;&gt;q6:230 -->
<g id="edge4" class="edge">
<title>q3:241&#45;&gt;q6:230</title>
<path fill="none" stroke="black" d="M546.96,-199.83C553.32,-200.46 559.79,-201.02 565.93,-201.42 970.44,-227.85 1459.1,-225.76 1623.4,-224.12"/>
<polygon fill="black" stroke="black" points="1623.22,-227.62 1633.19,-224.02 1623.15,-220.62 1623.22,-227.62"/>
<text text-anchor="middle" x="1091.7" y="-262.87" font-family="Times,serif" font-size="14.00">AUTH/235:230</text>
<text text-anchor="middle" x="1091.7" y="-245.62" font-family="Times,serif" font-size="14.00">a0 in {&#39;PLAIN AEF6NjE2MUAxMjYuY29tAE1VUVNBT1NUWElURkpDVUU=&#39;, &#39;PLAIN AEF6NjE2MUBzaW5hLmNvbQA2ZmRiMjVjZmNjODYyZWZj&#39;}</text>
<text text-anchor="middle" x="1091.7" y="-228.37" font-family="Times,serif" font-size="14.00">b0 in {&#39;OK Authenticated&#39;, &#39;Authentication successful&#39;}</text>
</g>
<!-- q4:3 -->
<g id="node6" class="node">
<title>q4:3</title>
<ellipse fill="none" stroke="black" stroke-width="2" cx="1681.4" cy="-90.42" rx="33.32" ry="18"/>
<text text-anchor="middle" x="1681.4" y="-85.74" font-family="Times,serif" font-size="14.00">q4:3</text>
</g>
<!-- q3:241&#45;&gt;q4:3 -->
<g id="edge5" class="edge">
<title>q3:241&#45;&gt;q4:3</title>
<path fill="none" stroke="black" d="M528.01,-178.67C539.18,-172.51 552.76,-166.16 565.93,-162.92 679.4,-135 1508,-184.49 1617.4,-143.42 1633,-137.58 1647.4,-126.1 1658.5,-115.31"/>
<polygon fill="black" stroke="black" points="1660.77,-117.99 1665.24,-108.39 1655.76,-113.11 1660.77,-117.99"/>
<text text-anchor="middle" x="1091.7" y="-184.62" font-family="Times,serif" font-size="14.00">AUTH/λ:1</text>
<text text-anchor="middle" x="1091.7" y="-167.37" font-family="Times,serif" font-size="14.00">a0 = PLAIN AEF6NjE2MUAxMjYuY29tAE1VUVNBT1NUWElURkpDVUU=</text>
</g>
<!-- q5:10 -->
<g id="node7" class="node">
<title>q5:10</title>
<ellipse fill="none" stroke="black" stroke-width="2" cx="1681.4" cy="-304.42" rx="39.63" ry="18"/>
<text text-anchor="middle" x="1681.4" y="-299.74" font-family="Times,serif" font-size="14.00">q5:10</text>
</g>
<!-- q3:241&#45;&gt;q5:10 -->
<g id="edge6" class="edge">
<title>q3:241&#45;&gt;q5:10</title>
<path fill="none" stroke="black" d="M510.41,-212.83C519.87,-233.51 538.36,-266.06 565.93,-280.42 937.61,-474.03 1477.9,-357.26 1635.6,-316.68"/>
<polygon fill="black" stroke="black" points="1636.04,-320.18 1644.83,-314.27 1634.28,-313.41 1636.04,-320.18"/>
<text text-anchor="middle" x="1091.7" y="-409.62" font-family="Times,serif" font-size="14.00">AUTH/535:10</text>
<text text-anchor="middle" x="1091.7" y="-392.37" font-family="Times,serif" font-size="14.00">b0 in {&#39;Error: authentication failed&#39;, &#39;5.7.8 authentication failed&#39;}</text>
</g>
<!-- q2:2&#45;&gt;q4:3 -->
<g id="edge7" class="edge">
<title>q2:2&#45;&gt;q4:3</title>
<path fill="none" stroke="black" d="M535.97,-92.71C545.62,-92.29 556.2,-91.89 565.93,-91.67 981.67,-82.36 1484.9,-87.8 1635.6,-89.79"/>
<polygon fill="black" stroke="black" points="1635.54,-93.29 1645.59,-89.92 1635.63,-86.29 1635.54,-93.29"/>
<text text-anchor="middle" x="1091.7" y="-130.87" font-family="Times,serif" font-size="14.00">AUTH/235:2</text>
<text text-anchor="middle" x="1091.7" y="-113.62" font-family="Times,serif" font-size="14.00">a0 in {&#39;PLAIN AEF6NjE2MUAxMjYuY29tAE1VUVNBT1NUWElURkpDVUU=&#39;, &#39;PLAIN AEF6NjE2MUBzaW5hLmNvbQA2ZmRiMjVjZmNjODYyZWZj&#39;}</text>
<text text-anchor="middle" x="1091.7" y="-96.37" font-family="Times,serif" font-size="14.00">b0 in {&#39;OK Authenticated&#39;, &#39;Authentication successful&#39;}</text>
</g>
<!-- q7:234 -->
<g id="node8" class="node">
<title>q7:234</title>
<ellipse fill="none" stroke="black" stroke-width="2" cx="2475.3" cy="-121.42" rx="45.95" ry="18"/>
<text text-anchor="middle" x="2475.3" y="-116.74" font-family="Times,serif" font-size="14.00">q7:234</text>
</g>
<!-- q6:230&#45;&gt;q7:234 -->
<g id="edge8" class="edge">
<title>q6:230&#45;&gt;q7:234</title>
<path fill="none" stroke="black" d="M1696.6,-205.57C1708.1,-192.48 1725.7,-175.65 1745.3,-167.67 1882.6,-111.8 2264.5,-155.16 2411.3,-135.42 2415.5,-134.87 2419.7,-134.18 2424,-133.4"/>
<polygon fill="black" stroke="black" points="2424.58,-136.85 2433.71,-131.49 2423.23,-129.98 2424.58,-136.85"/>
<text text-anchor="middle" x="2078.3" y="-206.87" font-family="Times,serif" font-size="14.00">MAIL/250:228</text>
<text text-anchor="middle" x="2078.3" y="-189.62" font-family="Times,serif" font-size="14.00">a0 in {&#39;FROM:&lt;Az6161@sina.com&gt;&#39;, &#39;FROM:&lt;Az6161@126.com&gt;&#39;}</text>
<text text-anchor="middle" x="2078.3" y="-172.37" font-family="Times,serif" font-size="14.00">b0 in {&#39;Mail OK&#39;, &#39;ok&#39;}</text>
</g>
<!-- q9:2 -->
<g id="node9" class="node">
<title>q9:2</title>
<ellipse fill="none" stroke="black" stroke-width="2" cx="2475.3" cy="-232.42" rx="33.32" ry="18"/>
<text text-anchor="middle" x="2475.3" y="-227.74" font-family="Times,serif" font-size="14.00">q9:2</text>
</g>
<!-- q6:230&#45;&gt;q9:2 -->
<g id="edge9" class="edge">
<title>q6:230&#45;&gt;q9:2</title>
<path fill="none" stroke="black" d="M1728.1,-223.94C1868.3,-225.53 2291,-230.34 2429.7,-231.91"/>
<polygon fill="black" stroke="black" points="2429.55,-235.41 2439.59,-232.02 2429.63,-228.41 2429.55,-235.41"/>
<text text-anchor="middle" x="2078.3" y="-269.87" font-family="Times,serif" font-size="14.00">MAIL/553:2</text>
<text text-anchor="middle" x="2078.3" y="-252.62" font-family="Times,serif" font-size="14.00">a0 in {&#39;FROM:&lt;Az6161@163.com&gt;&#39;, &#39;FROM:&lt;Az_6161@sina.com&gt;&#39;}</text>
<text text-anchor="middle" x="2078.3" y="-235.37" font-family="Times,serif" font-size="14.00">b0 in {&#39;Mail from must equal authorized user&#39;, &#39;Envolope sender mismatch with login user..&#39;}</text>
</g>
<!-- q4:3&#45;&gt;q7:234 -->
<g id="edge10" class="edge">
<title>q4:3&#45;&gt;q7:234</title>
<path fill="none" stroke="black" d="M1713.7,-84.1C1816.3,-64.67 2150.3,-11.4 2411.3,-83.67 2422.7,-86.81 2434,-92.58 2443.9,-98.69"/>
<polygon fill="black" stroke="black" points="2441.66,-101.41 2451.94,-103.99 2445.51,-95.56 2441.66,-101.41"/>
<text text-anchor="middle" x="2078.3" y="-122.87" font-family="Times,serif" font-size="14.00">MAIL/250:3</text>
<text text-anchor="middle" x="2078.3" y="-105.62" font-family="Times,serif" font-size="14.00">a0 in {&#39;FROM:&lt;Az6161@sina.com&gt;&#39;, &#39;FROM:&lt;Az6161@126.com&gt;&#39;}</text>
<text text-anchor="middle" x="2078.3" y="-88.37" font-family="Times,serif" font-size="14.00">b0 in {&#39;Mail OK&#39;, &#39;ok&#39;}</text>
</g>
<!-- q8:10 -->
<g id="node10" class="node">
<title>q8:10</title>
<ellipse fill="none" stroke="black" stroke-width="2" cx="2475.3" cy="-307.42" rx="39.63" ry="18"/>
<text text-anchor="middle" x="2475.3" y="-302.74" font-family="Times,serif" font-size="14.00">q8:10</text>
</g>
<!-- q5:10&#45;&gt;q8:10 -->
<g id="edge11" class="edge">
<title>q5:10&#45;&gt;q8:10</title>
<path fill="none" stroke="black" d="M1721.9,-304.57C1853.5,-305.07 2276.6,-306.67 2423.5,-307.23"/>
<polygon fill="black" stroke="black" points="2423.27,-310.73 2433.29,-307.26 2423.3,-303.73 2423.27,-310.73"/>
<text text-anchor="middle" x="2078.3" y="-327.62" font-family="Times,serif" font-size="14.00">AUTH/334:10</text>
<text text-anchor="middle" x="2078.3" y="-310.37" font-family="Times,serif" font-size="14.00">b0 = UGFzc3dvcmQ6</text>
</g>
<!-- q10:234 -->
<g id="node11" class="node">
<title>q10:234</title>
<ellipse fill="none" stroke="black" stroke-width="2" cx="3380" cy="-176.42" rx="52.26" ry="18"/>
<text text-anchor="middle" x="3380" y="-171.74" font-family="Times,serif" font-size="14.00">q10:234</text>
</g>
<!-- q7:234&#45;&gt;q10:234 -->
<g id="edge12" class="edge">
<title>q7:234&#45;&gt;q10:234</title>
<path fill="none" stroke="black" d="M2521.7,-124.19C2670.6,-133.26 3144.9,-162.16 3316.4,-172.61"/>
<polygon fill="black" stroke="black" points="3315.99,-176.09 3326.19,-173.21 3316.42,-169.1 3315.99,-176.09"/>
<text text-anchor="middle" x="2772.5" y="-173.62" font-family="Times,serif" font-size="14.00">RCPT/250:234</text>
<text text-anchor="middle" x="2772.5" y="-156.37" font-family="Times,serif" font-size="14.00">b0 in {&#39;Mail OK&#39;, &#39;ok&#39;}</text>
</g>
<!-- q12:2 -->
<g id="node12" class="node">
<title>q12:2</title>
<ellipse fill="none" stroke="black" stroke-width="2" cx="3380" cy="-232.42" rx="39.63" ry="18"/>
<text text-anchor="middle" x="3380" y="-227.74" font-family="Times,serif" font-size="14.00">q12:2</text>
</g>
<!-- q9:2&#45;&gt;q12:2 -->
<g id="edge13" class="edge">
<title>q9:2&#45;&gt;q12:2</title>
<path fill="none" stroke="black" d="M2509.5,-232.42C2645.8,-232.42 3163.5,-232.42 3328.3,-232.42"/>
<polygon fill="black" stroke="black" points="3327.99,-235.92 3337.99,-232.42 3327.99,-228.92 3327.99,-235.92"/>
<text text-anchor="middle" x="2772.5" y="-253.62" font-family="Times,serif" font-size="14.00">RSET/250:2</text>
<text text-anchor="middle" x="2772.5" y="-236.37" font-family="Times,serif" font-size="14.00">b0 in {&#39;OK&#39;, &#39;flushed&#39;}</text>
</g>
<!-- q11:10 -->
<g id="node13" class="node">
<title>q11:10</title>
<ellipse fill="none" stroke="black" stroke-width="2" cx="3380" cy="-307.42" rx="45.95" ry="18"/>
<text text-anchor="middle" x="3380" y="-302.74" font-family="Times,serif" font-size="14.00">q11:10</text>
</g>
<!-- q8:10&#45;&gt;q11:10 -->
<g id="edge14" class="edge">
<title>q8:10&#45;&gt;q11:10</title>
<path fill="none" stroke="black" d="M2515.6,-307.42C2658.9,-307.42 3152.7,-307.42 3321.7,-307.42"/>
<polygon fill="black" stroke="black" points="3321.59,-310.92 3331.59,-307.42 3321.59,-303.92 3321.59,-310.92"/>
<text text-anchor="middle" x="2772.5" y="-328.62" font-family="Times,serif" font-size="14.00">content/535:10</text>
<text text-anchor="middle" x="2772.5" y="-311.37" font-family="Times,serif" font-size="14.00">b0 in {&#39;Error: authentication failed&#39;, &#39;5.7.8 authentication failed&#39;}</text>
</g>
<!-- q14:143 -->
<g id="node14" class="node">
<title>q14:143</title>
<ellipse fill="none" stroke="black" stroke-width="2" cx="4148.5" cy="-88.42" rx="52.26" ry="18"/>
<text text-anchor="middle" x="4148.5" y="-83.74" font-family="Times,serif" font-size="14.00">q14:143</text>
</g>
<!-- q10:234&#45;&gt;q14:143 -->
<g id="edge15" class="edge">
<title>q10:234&#45;&gt;q14:143</title>
<path fill="none" stroke="black" d="M3432,-172.94C3547.5,-164.64 3837.9,-141.41 4078.2,-102.42 4082.6,-101.71 4087.1,-100.92 4091.6,-100.09"/>
<polygon fill="black" stroke="black" points="4092.23,-103.54 4101.41,-98.25 4090.94,-96.66 4092.23,-103.54"/>
<text text-anchor="middle" x="3916.2" y="-166.62" font-family="Times,serif" font-size="14.00">RCPT/250:143</text>
<text text-anchor="middle" x="3916.2" y="-149.37" font-family="Times,serif" font-size="14.00">b0 in {&#39;Mail OK&#39;, &#39;ok&#39;}</text>
</g>
<!-- q13:91 -->
<g id="node15" class="node">
<title>q13:91</title>
<ellipse fill="none" stroke="black" stroke-width="2" cx="4148.5" cy="-200.42" rx="45.95" ry="18"/>
<text text-anchor="middle" x="4148.5" y="-195.74" font-family="Times,serif" font-size="14.00">q13:91</text>
</g>
<!-- q10:234&#45;&gt;q13:91 -->
<g id="edge16" class="edge">
<title>q10:234&#45;&gt;q13:91</title>
<path fill="none" stroke="black" d="M3432.8,-178.04C3570.8,-182.36 3946.7,-194.13 4090.5,-198.64"/>
<polygon fill="black" stroke="black" points="4090.08,-202.13 4100.19,-198.94 4090.3,-195.13 4090.08,-202.13"/>
<text text-anchor="middle" x="3916.2" y="-219.62" font-family="Times,serif" font-size="14.00">DATA/354:91</text>
<text text-anchor="middle" x="3916.2" y="-202.37" font-family="Times,serif" font-size="14.00">b0 = End data with &lt;CR&gt;&lt;LF&gt;.&lt;CR&gt;&lt;LF&gt;</text>
</g>
<!-- q15:4 -->
<g id="node20" class="node">
<title>q15:4</title>
<ellipse fill="none" stroke="black" stroke-width="2" cx="4148.5" cy="-307.42" rx="39.63" ry="18"/>
<text text-anchor="middle" x="4148.5" y="-302.74" font-family="Times,serif" font-size="14.00">q15:4</text>
</g>
<!-- q11:10&#45;&gt;q15:4 -->
<g id="edge23" class="edge">
<title>q11:10&#45;&gt;q15:4</title>
<path fill="none" stroke="black" d="M3426.9,-307.42C3561.8,-307.42 3956.3,-307.42 4096.9,-307.42"/>
<polygon fill="black" stroke="black" points="4096.69,-310.92 4106.69,-307.42 4096.69,-303.92 4096.69,-310.92"/>
<text text-anchor="middle" x="3916.2" y="-328.62" font-family="Times,serif" font-size="14.00">λ/451:4</text>
<text text-anchor="middle" x="3916.2" y="-311.37" font-family="Times,serif" font-size="14.00">b0 = Timeout.</text>
</g>
<!-- q14:143&#45;&gt;q7:234 -->
<g id="edge17" class="edge">
<title>q14:143&#45;&gt;q7:234</title>
<path fill="none" stroke="black" d="M4095.4,-88.2C3935.3,-87.66 3436.7,-87.01 3023.7,-97.67 2844.4,-102.3 2632.3,-112.99 2532.9,-118.3"/>
<polygon fill="black" stroke="black" points="2533.01,-114.79 2523.21,-118.83 2533.39,-121.78 2533.01,-114.79"/>
<text text-anchor="middle" x="3380" y="-136.87" font-family="Times,serif" font-size="14.00">RCPT/250:3</text>
<text text-anchor="middle" x="3380" y="-119.62" font-family="Times,serif" font-size="14.00">a0 in {&#39;TO:&lt;1542110798@qq.com&gt;&#39;, &#39;TO:&lt;1542110795@qq.com&gt;&#39;, &#39;TO:&lt;1542110711@qq.com&gt;&#39;}</text>
<text text-anchor="middle" x="3380" y="-102.37" font-family="Times,serif" font-size="14.00">b0 = Mail OK</text>
</g>
<!-- q17:2606 -->
<g id="node16" class="node">
<title>q17:2606</title>
<ellipse fill="none" stroke="black" stroke-width="2" cx="4781.3" cy="-88.42" rx="58.57" ry="18"/>
<text text-anchor="middle" x="4781.3" y="-83.74" font-family="Times,serif" font-size="14.00">q17:2606</text>
</g>
<!-- q14:143&#45;&gt;q17:2606 -->
<g id="edge18" class="edge">
<title>q14:143&#45;&gt;q17:2606</title>
<path fill="none" stroke="black" d="M4201.6,-88.42C4315,-88.42 4583.7,-88.42 4711.1,-88.42"/>
<polygon fill="black" stroke="black" points="4710.69,-91.92 4720.69,-88.42 4710.69,-84.92 4710.69,-91.92"/>
<text text-anchor="middle" x="4461.7" y="-109.62" font-family="Times,serif" font-size="14.00">DATA/354:97</text>
<text text-anchor="middle" x="4461.7" y="-92.37" font-family="Times,serif" font-size="14.00">b0 = End data with &lt;CR&gt;&lt;LF&gt;.&lt;CR&gt;&lt;LF&gt;</text>
</g>
<!-- q19:43 -->
<g id="node17" class="node">
<title>q19:43</title>
<ellipse fill="none" stroke="black" stroke-width="2" cx="4781.3" cy="-30.42" rx="45.95" ry="18"/>
<text text-anchor="middle" x="4781.3" y="-25.74" font-family="Times,serif" font-size="14.00">q19:43</text>
</g>
<!-- q14:143&#45;&gt;q19:43 -->
<g id="edge19" class="edge">
<title>q14:143&#45;&gt;q19:43</title>
<path fill="none" stroke="black" d="M4172.9,-71.71C4185.8,-63.51 4202.4,-54.45 4218.7,-49.92 4398.4,0 4622.8,-13.75 4725,-23.93"/>
<polygon fill="black" stroke="black" points="4724.49,-27.39 4734.79,-24.93 4725.2,-20.43 4724.49,-27.39"/>
<text text-anchor="middle" x="4461.7" y="-71.62" font-family="Times,serif" font-size="14.00">DATA/550:43</text>
<text text-anchor="middle" x="4461.7" y="-54.37" font-family="Times,serif" font-size="14.00">b0 in {&#39;too many message send today.&#39;, &#39;Sender frequency limited.&#39;}</text>
</g>
<!-- q13:91&#45;&gt;q17:2606 -->
<g id="edge20" class="edge">
<title>q13:91&#45;&gt;q17:2606</title>
<path fill="none" stroke="black" d="M4172.7,-184.19C4185.6,-176.02 4202.4,-166.83 4218.7,-161.92 4426.2,-99.52 4495.4,-180.28 4704.7,-124.42 4717.3,-121.06 4730.3,-115.65 4742,-110.02"/>
<polygon fill="black" stroke="black" points="4743.51,-113.18 4750.85,-105.54 4740.35,-106.94 4743.51,-113.18"/>
<text text-anchor="middle" x="4461.7" y="-183.62" font-family="Times,serif" font-size="14.00">content/λ:3</text>
<text text-anchor="middle" x="4461.7" y="-166.37" font-family="Times,serif" font-size="14.00">a0 = b0</text>
</g>
<!-- q16:21 -->
<g id="node18" class="node">
<title>q16:21</title>
<ellipse fill="none" stroke="black" stroke-width="2" cx="4781.3" cy="-256.42" rx="45.95" ry="18"/>
<text text-anchor="middle" x="4781.3" y="-251.74" font-family="Times,serif" font-size="14.00">q16:21</text>
</g>
<!-- q13:91&#45;&gt;q16:21 -->
<g id="edge21" class="edge">
<title>q13:91&#45;&gt;q16:21</title>
<path fill="none" stroke="black" d="M4184,-212.6C4195,-216.01 4207.2,-219.35 4218.7,-221.42 4401.1,-254.29 4621.5,-257.66 4723.5,-257.21"/>
<polygon fill="black" stroke="black" points="4723.31,-260.71 4733.29,-257.15 4723.26,-253.71 4723.31,-260.71"/>
<text text-anchor="middle" x="4461.7" y="-260.36" font-family="Times,serif" font-size="14.00">content/250:21</text>
</g>
<!-- q18:67 -->
<g id="node19" class="node">
<title>q18:67</title>
<ellipse fill="none" stroke="black" stroke-width="2" cx="4781.3" cy="-200.42" rx="45.95" ry="18"/>
<text text-anchor="middle" x="4781.3" y="-195.74" font-family="Times,serif" font-size="14.00">q18:67</text>
</g>
<!-- q13:91&#45;&gt;q18:67 -->
<g id="edge22" class="edge">
<title>q13:91&#45;&gt;q18:67</title>
<path fill="none" stroke="black" d="M4195.4,-200.42C4308.2,-200.42 4599.3,-200.42 4723.2,-200.42"/>
<polygon fill="black" stroke="black" points="4723.09,-203.92 4733.09,-200.42 4723.09,-196.92 4723.09,-203.92"/>
<text text-anchor="middle" x="4461.7" y="-204.36" font-family="Times,serif" font-size="14.00">content/554:67</text>
</g>
<!-- q17:2606&#45;&gt;q17:2606 -->
<g id="edge24" class="edge">
<title>q17:2606&#45;&gt;q17:2606</title>
<path fill="none" stroke="black" d="M4749,-103.96C4739.9,-114.33 4750.7,-124.42 4781.3,-124.42 4800.5,-124.42 4811.9,-120.48 4815.5,-114.99"/>
<polygon fill="black" stroke="black" points="4819,-114.71 4813.86,-105.45 4812.1,-115.9 4819,-114.71"/>
<text text-anchor="middle" x="4781.3" y="-145.62" font-family="Times,serif" font-size="14.00">content/λ:2506</text>
<text text-anchor="middle" x="4781.3" y="-128.37" font-family="Times,serif" font-size="14.00">a0 = b0</text>
</g>
<!-- q21:1 -->
<g id="node21" class="node">
<title>q21:1</title>
<ellipse fill="none" stroke="black" stroke-width="2" cx="5146.8" cy="-144.42" rx="39.63" ry="18"/>
<text text-anchor="middle" x="5146.8" y="-139.74" font-family="Times,serif" font-size="14.00">q21:1</text>
</g>
<!-- q17:2606&#45;&gt;q21:1 -->
<g id="edge25" class="edge">
<title>q17:2606&#45;&gt;q21:1</title>
<path fill="none" stroke="black" d="M4824.4,-101.32C4835.2,-104.31 4846.9,-107.24 4857.9,-109.42 4940.4,-125.8 5037.8,-135.7 5095.5,-140.61"/>
<polygon fill="black" stroke="black" points="5095.14,-144.09 5105.39,-141.42 5095.71,-137.11 5095.14,-144.09"/>
<text text-anchor="middle" x="4970.4" y="-160.62" font-family="Times,serif" font-size="14.00">content/550:1</text>
<text text-anchor="middle" x="4970.4" y="-143.37" font-family="Times,serif" font-size="14.00">b0 = Sender frequency limited.</text>
</g>
<!-- q23:7 -->
<g id="node22" class="node">
<title>q23:7</title>
<ellipse fill="none" stroke="black" stroke-width="2" cx="5146.8" cy="-88.42" rx="39.63" ry="18"/>
<text text-anchor="middle" x="5146.8" y="-83.74" font-family="Times,serif" font-size="14.00">q23:7</text>
</g>
<!-- q17:2606&#45;&gt;q23:7 -->
<g id="edge26" class="edge">
<title>q17:2606&#45;&gt;q23:7</title>
<path fill="none" stroke="black" d="M4840.7,-88.42C4911.1,-88.42 5028.1,-88.42 5094.9,-88.42"/>
<polygon fill="black" stroke="black" points="5094.89,-91.92 5104.89,-88.42 5094.89,-84.92 5094.89,-91.92"/>
<text text-anchor="middle" x="4970.4" y="-92.37" font-family="Times,serif" font-size="14.00">content/554:7</text>
</g>
<!-- q22:92 -->
<g id="node23" class="node">
<title>q22:92</title>
<ellipse fill="none" stroke="black" stroke-width="2" cx="5146.8" cy="-34.42" rx="45.95" ry="18"/>
<text text-anchor="middle" x="5146.8" y="-29.74" font-family="Times,serif" font-size="14.00">q22:92</text>
</g>
<!-- q17:2606&#45;&gt;q22:92 -->
<g id="edge27" class="edge">
<title>q17:2606&#45;&gt;q22:92</title>
<path fill="none" stroke="black" d="M4824,-75.41C4834.9,-72.34 4846.8,-69.35 4857.9,-67.17 4937.5,-51.55 5031.1,-42.62 5089.4,-38.14"/>
<polygon fill="black" stroke="black" points="5089.38,-41.65 5099.09,-37.42 5088.86,-34.67 5089.38,-41.65"/>
<text text-anchor="middle" x="4970.4" y="-71.37" font-family="Times,serif" font-size="14.00">content/250:92</text>
</g>
<!-- q20:21 -->
<g id="node27" class="node">
<title>q20:21</title>
<ellipse fill="none" stroke="black" stroke-width="2" cx="5146.8" cy="-257.42" rx="45.95" ry="18"/>
<text text-anchor="middle" x="5146.8" y="-252.74" font-family="Times,serif" font-size="14.00">q20:21</text>
</g>
<!-- q16:21&#45;&gt;q20:21 -->
<g id="edge31" class="edge">
<title>q16:21&#45;&gt;q20:21</title>
<path fill="none" stroke="black" d="M4828,-256.55C4894.2,-256.73 5016.9,-257.07 5089,-257.26"/>
<polygon fill="black" stroke="black" points="5088.58,-260.76 5098.59,-257.28 5088.6,-253.76 5088.58,-260.76"/>
<text text-anchor="middle" x="4970.4" y="-277.62" font-family="Times,serif" font-size="14.00">QUIT/221:21</text>
<text text-anchor="middle" x="4970.4" y="-260.37" font-family="Times,serif" font-size="14.00">b0 = Bye</text>
</g>
<!-- q24:67 -->
<g id="node28" class="node">
<title>q24:67</title>
<ellipse fill="none" stroke="black" stroke-width="2" cx="5146.8" cy="-199.42" rx="45.95" ry="18"/>
<text text-anchor="middle" x="5146.8" y="-194.74" font-family="Times,serif" font-size="14.00">q24:67</text>
</g>
<!-- q18:67&#45;&gt;q24:67 -->
<g id="edge32" class="edge">
<title>q18:67&#45;&gt;q24:67</title>
<path fill="none" stroke="black" d="M4828,-200.29C4894.2,-200.11 5016.9,-199.77 5089,-199.58"/>
<polygon fill="black" stroke="black" points="5088.6,-203.08 5098.59,-199.55 5088.58,-196.08 5088.6,-203.08"/>
<text text-anchor="middle" x="4970.4" y="-220.62" font-family="Times,serif" font-size="14.00">RSET/250:67</text>
<text text-anchor="middle" x="4970.4" y="-203.37" font-family="Times,serif" font-size="14.00">b0 = OK</text>
</g>
<!-- q25:1 -->
<g id="node24" class="node">
<title>q25:1</title>
<ellipse fill="none" stroke="black" stroke-width="2" cx="5366.2" cy="-146.42" rx="39.63" ry="18"/>
<text text-anchor="middle" x="5366.2" y="-141.74" font-family="Times,serif" font-size="14.00">q25:1</text>
</g>
<!-- q21:1&#45;&gt;q25:1 -->
<g id="edge28" class="edge">
<title>q21:1&#45;&gt;q25:1</title>
<path fill="none" stroke="black" d="M5187.5,-144.78C5223.2,-145.11 5276.1,-145.6 5314.8,-145.96"/>
<polygon fill="black" stroke="black" points="5314.35,-149.46 5324.39,-146.05 5314.42,-142.46 5314.35,-149.46"/>
<text text-anchor="middle" x="5256.5" y="-167.62" font-family="Times,serif" font-size="14.00">RSET/250:1</text>
<text text-anchor="middle" x="5256.5" y="-150.37" font-family="Times,serif" font-size="14.00">a0 = b0</text>
</g>
<!-- q27:7 -->
<g id="node25" class="node">
<title>q27:7</title>
<ellipse fill="none" stroke="black" stroke-width="2" cx="5366.2" cy="-88.42" rx="39.63" ry="18"/>
<text text-anchor="middle" x="5366.2" y="-83.74" font-family="Times,serif" font-size="14.00">q27:7</text>
</g>
<!-- q23:7&#45;&gt;q27:7 -->
<g id="edge29" class="edge">
<title>q23:7&#45;&gt;q27:7</title>
<path fill="none" stroke="black" d="M5187.5,-88.42C5223.2,-88.42 5276.1,-88.42 5314.8,-88.42"/>
<polygon fill="black" stroke="black" points="5314.39,-91.92 5324.39,-88.42 5314.39,-84.92 5314.39,-91.92"/>
<text text-anchor="middle" x="5256.5" y="-109.62" font-family="Times,serif" font-size="14.00">RSET/250:7</text>
<text text-anchor="middle" x="5256.5" y="-92.37" font-family="Times,serif" font-size="14.00">b0 = OK</text>
</g>
<!-- q26:92 -->
<g id="node26" class="node">
<title>q26:92</title>
<ellipse fill="none" stroke="black" stroke-width="2" cx="5366.2" cy="-34.42" rx="45.95" ry="18"/>
<text text-anchor="middle" x="5366.2" y="-29.74" font-family="Times,serif" font-size="14.00">q26:92</text>
</g>
<!-- q22:92&#45;&gt;q26:92 -->
<g id="edge30" class="edge">
<title>q22:92&#45;&gt;q26:92</title>
<path fill="none" stroke="black" d="M5193.7,-34.42C5227.1,-34.42 5272.5,-34.42 5308.2,-34.42"/>
<polygon fill="black" stroke="black" points="5307.99,-37.92 5317.99,-34.42 5307.99,-30.92 5307.99,-37.92"/>
<text text-anchor="middle" x="5256.5" y="-38.37" font-family="Times,serif" font-size="14.00">QUIT/221:92</text>
</g>
</g>
</svg>
