<?xml version="1.0" encoding="UTF-8" standalone="no"?>
<!DOCTYPE svg PUBLIC "-//W3C//DTD SVG 1.1//EN"
 "http://www.w3.org/Graphics/SVG/1.1/DTD/svg11.dtd">
<!-- Generated by graphviz version 12.0.0 (20240803.0821)
 -->
<!-- Pages: 1 -->
<svg width="2216pt" height="282pt"
 viewBox="0.00 0.00 2216.45 282.00" xmlns="http://www.w3.org/2000/svg" xmlns:xlink="http://www.w3.org/1999/xlink">
<g id="graph0" class="graph" transform="scale(1 1) rotate(0) translate(4 278)">
<polygon fill="white" stroke="none" points="-4,4 -4,-278 2212.45,-278 2212.45,4 -4,4"/>
<!-- q0:243 -->
<g id="node1" class="node">
<title>q0:243</title>
<ellipse fill="none" stroke="black" stroke-width="2" cx="53.95" cy="-162" rx="49.95" ry="49.95"/>
<ellipse fill="none" stroke="black" stroke-width="2" cx="53.95" cy="-162" rx="53.95" ry="53.95"/>
<text text-anchor="middle" x="53.95" y="-157.32" font-family="Times,serif" font-size="14.00">q0:243</text>
</g>
<!-- q1:243 -->
<g id="node2" class="node">
<title>q1:243</title>
<ellipse fill="none" stroke="black" stroke-width="2" cx="257.84" cy="-162" rx="45.95" ry="18"/>
<text text-anchor="middle" x="257.84" y="-157.32" font-family="Times,serif" font-size="14.00">q1:243</text>
</g>
<!-- q0:243&#45;&gt;q1:243 -->
<g id="edge1" class="edge">
<title>q0:243&#45;&gt;q1:243</title>
<path fill="none" stroke="black" d="M104.85,-162C133.64,-162 169.94,-162 199.84,-162"/>
<polygon fill="black" stroke="black" points="199.45,-165.5 209.45,-162 199.45,-158.5 199.45,-165.5"/>
<text text-anchor="middle" x="157.89" y="-165.94" font-family="Times,serif" font-size="14.00">λ/220:243</text>
</g>
<!-- q3:241 -->
<g id="node3" class="node">
<title>q3:241</title>
<ellipse fill="none" stroke="black" stroke-width="2" cx="491.48" cy="-195" rx="45.95" ry="18"/>
<text text-anchor="middle" x="491.48" y="-190.32" font-family="Times,serif" font-size="14.00">q3:241</text>
</g>
<!-- q1:243&#45;&gt;q3:241 -->
<g id="edge2" class="edge">
<title>q1:243&#45;&gt;q3:241</title>
<path fill="none" stroke="black" d="M302.14,-168.17C340,-173.56 395.17,-181.42 436.02,-187.24"/>
<polygon fill="black" stroke="black" points="435.51,-190.7 445.9,-188.65 436.49,-183.77 435.51,-190.7"/>
<text text-anchor="middle" x="374.66" y="-188.94" font-family="Times,serif" font-size="14.00">EHLO/250:241</text>
</g>
<!-- q2:2 -->
<g id="node4" class="node">
<title>q2:2</title>
<ellipse fill="none" stroke="black" stroke-width="2" cx="491.48" cy="-135" rx="33.32" ry="18"/>
<text text-anchor="middle" x="491.48" y="-130.32" font-family="Times,serif" font-size="14.00">q2:2</text>
</g>
<!-- q1:243&#45;&gt;q2:2 -->
<g id="edge3" class="edge">
<title>q1:243&#45;&gt;q2:2</title>
<path fill="none" stroke="black" d="M296.21,-151.12C304.56,-149.03 313.43,-147.08 321.79,-145.75 363.53,-139.09 411.69,-136.52 445.85,-135.55"/>
<polygon fill="black" stroke="black" points="445.88,-139.05 455.8,-135.31 445.71,-132.05 445.88,-139.05"/>
<text text-anchor="middle" x="374.66" y="-149.94" font-family="Times,serif" font-size="14.00">EHLO/λ:2</text>
</g>
<!-- q6:230 -->
<g id="node5" class="node">
<title>q6:230</title>
<ellipse fill="none" stroke="black" stroke-width="2" cx="725.13" cy="-202" rx="45.95" ry="18"/>
<text text-anchor="middle" x="725.13" y="-197.32" font-family="Times,serif" font-size="14.00">q6:230</text>
</g>
<!-- q3:241&#45;&gt;q6:230 -->
<g id="edge4" class="edge">
<title>q3:241&#45;&gt;q6:230</title>
<path fill="none" stroke="black" d="M538.25,-196.38C575.21,-197.5 627.42,-199.08 667.1,-200.28"/>
<polygon fill="black" stroke="black" points="666.85,-203.77 676.95,-200.57 667.06,-196.78 666.85,-203.77"/>
<text text-anchor="middle" x="608.31" y="-202.94" font-family="Times,serif" font-size="14.00">AUTH/235:230</text>
</g>
<!-- q4:3 -->
<g id="node6" class="node">
<title>q4:3</title>
<ellipse fill="none" stroke="black" stroke-width="2" cx="725.13" cy="-122" rx="33.32" ry="18"/>
<text text-anchor="middle" x="725.13" y="-117.33" font-family="Times,serif" font-size="14.00">q4:3</text>
</g>
<!-- q3:241&#45;&gt;q4:3 -->
<g id="edge5" class="edge">
<title>q3:241&#45;&gt;q4:3</title>
<path fill="none" stroke="black" d="M528.68,-183.59C570.94,-170.28 640.6,-148.32 684.34,-134.54"/>
<polygon fill="black" stroke="black" points="685.21,-137.93 693.7,-131.59 683.11,-131.26 685.21,-137.93"/>
<text text-anchor="middle" x="608.31" y="-176.94" font-family="Times,serif" font-size="14.00">AUTH/λ:1</text>
</g>
<!-- q5:10 -->
<g id="node7" class="node">
<title>q5:10</title>
<ellipse fill="none" stroke="black" stroke-width="2" cx="725.13" cy="-256" rx="39.63" ry="18"/>
<text text-anchor="middle" x="725.13" y="-251.32" font-family="Times,serif" font-size="14.00">q5:10</text>
</g>
<!-- q3:241&#45;&gt;q5:10 -->
<g id="edge6" class="edge">
<title>q3:241&#45;&gt;q5:10</title>
<path fill="none" stroke="black" d="M523.82,-208.64C533.8,-212.66 544.97,-216.83 555.43,-220 595.34,-232.09 641.75,-241.68 675.78,-247.91"/>
<polygon fill="black" stroke="black" points="674.87,-251.3 685.33,-249.63 676.11,-244.41 674.87,-251.3"/>
<text text-anchor="middle" x="608.31" y="-247.94" font-family="Times,serif" font-size="14.00">AUTH/535:10</text>
</g>
<!-- q2:2&#45;&gt;q4:3 -->
<g id="edge7" class="edge">
<title>q2:2&#45;&gt;q4:3</title>
<path fill="none" stroke="black" d="M523.05,-127.86C533.28,-125.78 544.8,-123.8 555.43,-122.75 597.41,-118.61 645.55,-118.89 679.63,-119.93"/>
<polygon fill="black" stroke="black" points="679.43,-123.43 689.55,-120.27 679.67,-116.43 679.43,-123.43"/>
<text text-anchor="middle" x="608.31" y="-126.95" font-family="Times,serif" font-size="14.00">AUTH/235:2</text>
</g>
<!-- q7:234 -->
<g id="node8" class="node">
<title>q7:234</title>
<ellipse fill="none" stroke="black" stroke-width="2" cx="954.27" cy="-130" rx="45.95" ry="18"/>
<text text-anchor="middle" x="954.27" y="-125.33" font-family="Times,serif" font-size="14.00">q7:234</text>
</g>
<!-- q6:230&#45;&gt;q7:234 -->
<g id="edge8" class="edge">
<title>q6:230&#45;&gt;q7:234</title>
<path fill="none" stroke="black" d="M761.37,-189.93C770.38,-186.89 780.08,-183.66 789.08,-180.75 828.23,-168.09 872.85,-154.34 905.68,-144.35"/>
<polygon fill="black" stroke="black" points="906.34,-147.81 914.89,-141.56 904.31,-141.11 906.34,-147.81"/>
<text text-anchor="middle" x="839.7" y="-183.94" font-family="Times,serif" font-size="14.00">MAIL/250:228</text>
</g>
<!-- q9:2 -->
<g id="node9" class="node">
<title>q9:2</title>
<ellipse fill="none" stroke="black" stroke-width="2" cx="954.27" cy="-202" rx="33.32" ry="18"/>
<text text-anchor="middle" x="954.27" y="-197.32" font-family="Times,serif" font-size="14.00">q9:2</text>
</g>
<!-- q6:230&#45;&gt;q9:2 -->
<g id="edge9" class="edge">
<title>q6:230&#45;&gt;q9:2</title>
<path fill="none" stroke="black" d="M771.82,-202C811.71,-202 869.24,-202 908.77,-202"/>
<polygon fill="black" stroke="black" points="908.66,-205.5 918.66,-202 908.66,-198.5 908.66,-205.5"/>
<text text-anchor="middle" x="839.7" y="-205.94" font-family="Times,serif" font-size="14.00">MAIL/553:2</text>
</g>
<!-- q4:3&#45;&gt;q7:234 -->
<g id="edge10" class="edge">
<title>q4:3&#45;&gt;q7:234</title>
<path fill="none" stroke="black" d="M759.19,-121.08C792.37,-120.42 844.94,-120.04 890.33,-122.75 892.97,-122.91 895.67,-123.1 898.39,-123.32"/>
<polygon fill="black" stroke="black" points="897.85,-126.79 908.13,-124.21 898.49,-119.81 897.85,-126.79"/>
<text text-anchor="middle" x="839.7" y="-126.95" font-family="Times,serif" font-size="14.00">MAIL/250:3</text>
</g>
<!-- q8:10 -->
<g id="node10" class="node">
<title>q8:10</title>
<ellipse fill="none" stroke="black" stroke-width="2" cx="954.27" cy="-256" rx="39.63" ry="18"/>
<text text-anchor="middle" x="954.27" y="-251.32" font-family="Times,serif" font-size="14.00">q8:10</text>
</g>
<!-- q5:10&#45;&gt;q8:10 -->
<g id="edge11" class="edge">
<title>q5:10&#45;&gt;q8:10</title>
<path fill="none" stroke="black" d="M765.69,-256C803.6,-256 861,-256 902.32,-256"/>
<polygon fill="black" stroke="black" points="902.27,-259.5 912.27,-256 902.27,-252.5 902.27,-259.5"/>
<text text-anchor="middle" x="839.7" y="-259.94" font-family="Times,serif" font-size="14.00">AUTH/334:10</text>
</g>
<!-- q10:234 -->
<g id="node11" class="node">
<title>q10:234</title>
<ellipse fill="none" stroke="black" stroke-width="2" cx="1196.5" cy="-144" rx="52.26" ry="18"/>
<text text-anchor="middle" x="1196.5" y="-139.32" font-family="Times,serif" font-size="14.00">q10:234</text>
</g>
<!-- q7:234&#45;&gt;q10:234 -->
<g id="edge12" class="edge">
<title>q7:234&#45;&gt;q10:234</title>
<path fill="none" stroke="black" d="M1000.74,-132.65C1038,-134.82 1091.2,-137.92 1132.6,-140.34"/>
<polygon fill="black" stroke="black" points="1132.3,-143.83 1142.49,-140.91 1132.71,-136.84 1132.3,-143.83"/>
<text text-anchor="middle" x="1072.2" y="-143.94" font-family="Times,serif" font-size="14.00">RCPT/250:234</text>
</g>
<!-- q12:2 -->
<g id="node12" class="node">
<title>q12:2</title>
<ellipse fill="none" stroke="black" stroke-width="2" cx="1196.5" cy="-202" rx="39.63" ry="18"/>
<text text-anchor="middle" x="1196.5" y="-197.32" font-family="Times,serif" font-size="14.00">q12:2</text>
</g>
<!-- q9:2&#45;&gt;q12:2 -->
<g id="edge13" class="edge">
<title>q9:2&#45;&gt;q12:2</title>
<path fill="none" stroke="black" d="M988.42,-202C1028.8,-202 1097.3,-202 1144.4,-202"/>
<polygon fill="black" stroke="black" points="1144.39,-205.5 1154.39,-202 1144.39,-198.5 1144.39,-205.5"/>
<text text-anchor="middle" x="1072.2" y="-205.94" font-family="Times,serif" font-size="14.00">RSET/250:2</text>
</g>
<!-- q11:10 -->
<g id="node13" class="node">
<title>q11:10</title>
<ellipse fill="none" stroke="black" stroke-width="2" cx="1196.5" cy="-256" rx="45.95" ry="18"/>
<text text-anchor="middle" x="1196.5" y="-251.32" font-family="Times,serif" font-size="14.00">q11:10</text>
</g>
<!-- q8:10&#45;&gt;q11:10 -->
<g id="edge14" class="edge">
<title>q8:10&#45;&gt;q11:10</title>
<path fill="none" stroke="black" d="M994.67,-256C1033.8,-256 1094.1,-256 1138.4,-256"/>
<polygon fill="black" stroke="black" points="1138.39,-259.5 1148.39,-256 1138.39,-252.5 1138.39,-259.5"/>
<text text-anchor="middle" x="1072.2" y="-259.94" font-family="Times,serif" font-size="14.00">content/535:10</text>
</g>
<!-- q14:143 -->
<g id="node14" class="node">
<title>q14:143</title>
<ellipse fill="none" stroke="black" stroke-width="2" cx="1439.8" cy="-91" rx="52.26" ry="18"/>
<text text-anchor="middle" x="1439.8" y="-86.33" font-family="Times,serif" font-size="14.00">q14:143</text>
</g>
<!-- q10:234&#45;&gt;q14:143 -->
<g id="edge15" class="edge">
<title>q10:234&#45;&gt;q14:143</title>
<path fill="none" stroke="black" d="M1242,-134.22C1281.9,-125.46 1340.5,-112.58 1383.4,-103.16"/>
<polygon fill="black" stroke="black" points="1384,-106.61 1393.02,-101.05 1382.5,-99.77 1384,-106.61"/>
<text text-anchor="middle" x="1318.1" y="-132.94" font-family="Times,serif" font-size="14.00">RCPT/250:143</text>
</g>
<!-- q13:91 -->
<g id="node15" class="node">
<title>q13:91</title>
<ellipse fill="none" stroke="black" stroke-width="2" cx="1439.8" cy="-174" rx="45.95" ry="18"/>
<text text-anchor="middle" x="1439.8" y="-169.32" font-family="Times,serif" font-size="14.00">q13:91</text>
</g>
<!-- q10:234&#45;&gt;q13:91 -->
<g id="edge16" class="edge">
<title>q10:234&#45;&gt;q13:91</title>
<path fill="none" stroke="black" d="M1246.6,-150.11C1286.4,-155.06 1342.4,-162.02 1383.7,-167.16"/>
<polygon fill="black" stroke="black" points="1383.14,-170.62 1393.5,-168.37 1384,-163.67 1383.14,-170.62"/>
<text text-anchor="middle" x="1318.1" y="-168.94" font-family="Times,serif" font-size="14.00">DATA/354:91</text>
</g>
<!-- q15:4 -->
<g id="node20" class="node">
<title>q15:4</title>
<ellipse fill="none" stroke="black" stroke-width="2" cx="1439.8" cy="-256" rx="39.63" ry="18"/>
<text text-anchor="middle" x="1439.8" y="-251.32" font-family="Times,serif" font-size="14.00">q15:4</text>
</g>
<!-- q11:10&#45;&gt;q15:4 -->
<g id="edge23" class="edge">
<title>q11:10&#45;&gt;q15:4</title>
<path fill="none" stroke="black" d="M1243.1,-256C1284.4,-256 1345.2,-256 1388,-256"/>
<polygon fill="black" stroke="black" points="1387.79,-259.5 1397.79,-256 1387.79,-252.5 1387.79,-259.5"/>
<text text-anchor="middle" x="1318.1" y="-259.94" font-family="Times,serif" font-size="14.00">λ/451:4</text>
</g>
<!-- q14:143&#45;&gt;q7:234 -->
<g id="edge17" class="edge">
<title>q14:143&#45;&gt;q7:234</title>
<path fill="none" stroke="black" d="M1386.8,-90.52C1327.8,-90.45 1228.9,-91.75 1144.2,-99.75 1097.8,-104.14 1045.4,-112.82 1007.6,-119.76"/>
<polygon fill="black" stroke="black" points="1007.04,-116.3 997.85,-121.57 1008.32,-123.19 1007.04,-116.3"/>
<text text-anchor="middle" x="1196.5" y="-103.95" font-family="Times,serif" font-size="14.00">RCPT/250:3</text>
</g>
<!-- q17:2606 -->
<g id="node16" class="node">
<title>q17:2606</title>
<ellipse fill="none" stroke="black" stroke-width="2" cx="1694.6" cy="-91" rx="58.57" ry="18"/>
<text text-anchor="middle" x="1694.6" y="-86.33" font-family="Times,serif" font-size="14.00">q17:2606</text>
</g>
<!-- q14:143&#45;&gt;q17:2606 -->
<g id="edge18" class="edge">
<title>q14:143&#45;&gt;q17:2606</title>
<path fill="none" stroke="black" d="M1492.8,-91C1530.8,-91 1582.5,-91 1624,-91"/>
<polygon fill="black" stroke="black" points="1623.89,-94.5 1633.89,-91 1623.89,-87.5 1623.89,-94.5"/>
<text text-anchor="middle" x="1564" y="-94.95" font-family="Times,serif" font-size="14.00">DATA/354:97</text>
</g>
<!-- q19:43 -->
<g id="node17" class="node">
<title>q19:43</title>
<ellipse fill="none" stroke="black" stroke-width="2" cx="1694.6" cy="-37" rx="45.95" ry="18"/>
<text text-anchor="middle" x="1694.6" y="-32.33" font-family="Times,serif" font-size="14.00">q19:43</text>
</g>
<!-- q14:143&#45;&gt;q19:43 -->
<g id="edge19" class="edge">
<title>q14:143&#45;&gt;q19:43</title>
<path fill="none" stroke="black" d="M1479,-78.36C1489,-75.3 1499.9,-72.2 1510,-69.75 1553.1,-59.34 1602.6,-50.7 1639.3,-44.92"/>
<polygon fill="black" stroke="black" points="1639.46,-48.43 1648.8,-43.45 1638.39,-41.52 1639.46,-48.43"/>
<text text-anchor="middle" x="1564" y="-73.95" font-family="Times,serif" font-size="14.00">DATA/550:43</text>
</g>
<!-- q13:91&#45;&gt;q17:2606 -->
<g id="edge20" class="edge">
<title>q13:91&#45;&gt;q17:2606</title>
<path fill="none" stroke="black" d="M1476.4,-162.28C1519.6,-148.12 1592.6,-124.16 1641.9,-107.98"/>
<polygon fill="black" stroke="black" points="1642.77,-111.38 1651.16,-104.92 1640.57,-104.73 1642.77,-111.38"/>
<text text-anchor="middle" x="1564" y="-152.94" font-family="Times,serif" font-size="14.00">content/λ:3</text>
</g>
<!-- q16:21 -->
<g id="node18" class="node">
<title>q16:21</title>
<ellipse fill="none" stroke="black" stroke-width="2" cx="1694.6" cy="-234" rx="45.95" ry="18"/>
<text text-anchor="middle" x="1694.6" y="-229.32" font-family="Times,serif" font-size="14.00">q16:21</text>
</g>
<!-- q13:91&#45;&gt;q16:21 -->
<g id="edge21" class="edge">
<title>q13:91&#45;&gt;q16:21</title>
<path fill="none" stroke="black" d="M1473.5,-187.03C1484.9,-191.25 1497.9,-195.69 1510,-199 1553,-210.77 1602.7,-219.98 1639.5,-225.99"/>
<polygon fill="black" stroke="black" points="1638.58,-229.39 1649.01,-227.52 1639.69,-222.48 1638.58,-229.39"/>
<text text-anchor="middle" x="1564" y="-224.94" font-family="Times,serif" font-size="14.00">content/250:21</text>
</g>
<!-- q18:67 -->
<g id="node19" class="node">
<title>q18:67</title>
<ellipse fill="none" stroke="black" stroke-width="2" cx="1694.6" cy="-180" rx="45.95" ry="18"/>
<text text-anchor="middle" x="1694.6" y="-175.32" font-family="Times,serif" font-size="14.00">q18:67</text>
</g>
<!-- q13:91&#45;&gt;q18:67 -->
<g id="edge22" class="edge">
<title>q13:91&#45;&gt;q18:67</title>
<path fill="none" stroke="black" d="M1486.5,-175.09C1528.7,-176.09 1591.4,-177.57 1636.7,-178.65"/>
<polygon fill="black" stroke="black" points="1636.51,-182.15 1646.59,-178.88 1636.67,-175.15 1636.51,-182.15"/>
<text text-anchor="middle" x="1564" y="-181.94" font-family="Times,serif" font-size="14.00">content/554:67</text>
</g>
<!-- q17:2606&#45;&gt;q17:2606 -->
<g id="edge24" class="edge">
<title>q17:2606&#45;&gt;q17:2606</title>
<path fill="none" stroke="black" d="M1671.3,-108.41C1666.9,-118.09 1674.7,-127 1694.6,-127 1706.1,-127 1713.5,-124.02 1716.9,-119.64"/>
<polygon fill="black" stroke="black" points="1720.36,-120.19 1717.77,-109.92 1713.39,-119.57 1720.36,-120.19"/>
<text text-anchor="middle" x="1694.6" y="-130.94" font-family="Times,serif" font-size="14.00">content/λ:2506</text>
</g>
<!-- q21:1 -->
<g id="node21" class="node">
<title>q21:1</title>
<ellipse fill="none" stroke="black" stroke-width="2" cx="1943.1" cy="-126" rx="39.63" ry="18"/>
<text text-anchor="middle" x="1943.1" y="-121.33" font-family="Times,serif" font-size="14.00">q21:1</text>
</g>
<!-- q17:2606&#45;&gt;q21:1 -->
<g id="edge25" class="edge">
<title>q17:2606&#45;&gt;q21:1</title>
<path fill="none" stroke="black" d="M1749.1,-98.59C1791.9,-104.68 1851.5,-113.14 1893.1,-119.05"/>
<polygon fill="black" stroke="black" points="1892.51,-122.5 1902.9,-120.43 1893.49,-115.57 1892.51,-122.5"/>
<text text-anchor="middle" x="1825.2" y="-120.95" font-family="Times,serif" font-size="14.00">content/550:1</text>
</g>
<!-- q23:7 -->
<g id="node22" class="node">
<title>q23:7</title>
<ellipse fill="none" stroke="black" stroke-width="2" cx="1943.1" cy="-72" rx="39.63" ry="18"/>
<text text-anchor="middle" x="1943.1" y="-67.33" font-family="Times,serif" font-size="14.00">q23:7</text>
</g>
<!-- q17:2606&#45;&gt;q23:7 -->
<g id="edge26" class="edge">
<title>q17:2606&#45;&gt;q23:7</title>
<path fill="none" stroke="black" d="M1751.3,-85.48C1758,-84.87 1764.7,-84.28 1771.2,-83.75 1811.8,-80.41 1857.9,-77.28 1892,-75.09"/>
<polygon fill="black" stroke="black" points="1891.73,-78.61 1901.49,-74.48 1891.29,-71.63 1891.73,-78.61"/>
<text text-anchor="middle" x="1825.2" y="-87.95" font-family="Times,serif" font-size="14.00">content/554:7</text>
</g>
<!-- q22:92 -->
<g id="node23" class="node">
<title>q22:92</title>
<ellipse fill="none" stroke="black" stroke-width="2" cx="1943.1" cy="-18" rx="45.95" ry="18"/>
<text text-anchor="middle" x="1943.1" y="-13.32" font-family="Times,serif" font-size="14.00">q22:92</text>
</g>
<!-- q17:2606&#45;&gt;q22:92 -->
<g id="edge27" class="edge">
<title>q17:2606&#45;&gt;q22:92</title>
<path fill="none" stroke="black" d="M1728.6,-75.49C1748.4,-66.22 1770,-56.15 1771.2,-55.75 1809.4,-42.77 1854.1,-33.09 1888.1,-26.79"/>
<polygon fill="black" stroke="black" points="1888.49,-30.27 1897.71,-25.04 1887.25,-23.38 1888.49,-30.27"/>
<text text-anchor="middle" x="1825.2" y="-59.95" font-family="Times,serif" font-size="14.00">content/250:92</text>
</g>
<!-- q20:21 -->
<g id="node27" class="node">
<title>q20:21</title>
<ellipse fill="none" stroke="black" stroke-width="2" cx="1943.1" cy="-234" rx="45.95" ry="18"/>
<text text-anchor="middle" x="1943.1" y="-229.32" font-family="Times,serif" font-size="14.00">q20:21</text>
</g>
<!-- q16:21&#45;&gt;q20:21 -->
<g id="edge31" class="edge">
<title>q16:21&#45;&gt;q20:21</title>
<path fill="none" stroke="black" d="M1741.4,-234C1782,-234 1841.6,-234 1885.3,-234"/>
<polygon fill="black" stroke="black" points="1885.09,-237.5 1895.09,-234 1885.09,-230.5 1885.09,-237.5"/>
<text text-anchor="middle" x="1825.2" y="-237.94" font-family="Times,serif" font-size="14.00">QUIT/221:21</text>
</g>
<!-- q24:67 -->
<g id="node28" class="node">
<title>q24:67</title>
<ellipse fill="none" stroke="black" stroke-width="2" cx="1943.1" cy="-180" rx="45.95" ry="18"/>
<text text-anchor="middle" x="1943.1" y="-175.32" font-family="Times,serif" font-size="14.00">q24:67</text>
</g>
<!-- q18:67&#45;&gt;q24:67 -->
<g id="edge32" class="edge">
<title>q18:67&#45;&gt;q24:67</title>
<path fill="none" stroke="black" d="M1741.4,-180C1782,-180 1841.6,-180 1885.3,-180"/>
<polygon fill="black" stroke="black" points="1885.09,-183.5 1895.09,-180 1885.09,-176.5 1885.09,-183.5"/>
<text text-anchor="middle" x="1825.2" y="-183.94" font-family="Times,serif" font-size="14.00">RSET/250:67</text>
</g>
<!-- q25:1 -->
<g id="node24" class="node">
<title>q25:1</title>
<ellipse fill="none" stroke="black" stroke-width="2" cx="2162.5" cy="-126" rx="39.63" ry="18"/>
<text text-anchor="middle" x="2162.5" y="-121.33" font-family="Times,serif" font-size="14.00">q25:1</text>
</g>
<!-- q21:1&#45;&gt;q25:1 -->
<g id="edge28" class="edge">
<title>q21:1&#45;&gt;q25:1</title>
<path fill="none" stroke="black" d="M1983.7,-126C2019.5,-126 2072.3,-126 2111.1,-126"/>
<polygon fill="black" stroke="black" points="2110.69,-129.5 2120.69,-126 2110.69,-122.5 2110.69,-129.5"/>
<text text-anchor="middle" x="2052.8" y="-129.94" font-family="Times,serif" font-size="14.00">RSET/250:1</text>
</g>
<!-- q27:7 -->
<g id="node25" class="node">
<title>q27:7</title>
<ellipse fill="none" stroke="black" stroke-width="2" cx="2162.5" cy="-72" rx="39.63" ry="18"/>
<text text-anchor="middle" x="2162.5" y="-67.33" font-family="Times,serif" font-size="14.00">q27:7</text>
</g>
<!-- q23:7&#45;&gt;q27:7 -->
<g id="edge29" class="edge">
<title>q23:7&#45;&gt;q27:7</title>
<path fill="none" stroke="black" d="M1983.7,-72C2019.5,-72 2072.3,-72 2111.1,-72"/>
<polygon fill="black" stroke="black" points="2110.69,-75.5 2120.69,-72 2110.69,-68.5 2110.69,-75.5"/>
<text text-anchor="middle" x="2052.8" y="-75.95" font-family="Times,serif" font-size="14.00">RSET/250:7</text>
</g>
<!-- q26:92 -->
<g id="node26" class="node">
<title>q26:92</title>
<ellipse fill="none" stroke="black" stroke-width="2" cx="2162.5" cy="-18" rx="45.95" ry="18"/>
<text text-anchor="middle" x="2162.5" y="-13.32" font-family="Times,serif" font-size="14.00">q26:92</text>
</g>
<!-- q22:92&#45;&gt;q26:92 -->
<g id="edge30" class="edge">
<title>q22:92&#45;&gt;q26:92</title>
<path fill="none" stroke="black" d="M1989.9,-18C2023.3,-18 2068.8,-18 2104.5,-18"/>
<polygon fill="black" stroke="black" points="2104.19,-21.5 2114.19,-18 2104.19,-14.5 2104.19,-21.5"/>
<text text-anchor="middle" x="2052.8" y="-21.95" font-family="Times,serif" font-size="14.00">QUIT/221:92</text>
</g>
</g>
</svg>
