<?xml version="1.0" encoding="UTF-8" standalone="no"?>
<!DOCTYPE svg PUBLIC "-//W3C//DTD SVG 1.1//EN"
 "http://www.w3.org/Graphics/SVG/1.1/DTD/svg11.dtd">
<!-- Generated by graphviz version 12.0.0 (20240803.0821)
 -->
<!-- Pages: 1 -->
<svg width="2260pt" height="260pt"
 viewBox="0.00 0.00 2259.66 260.00" xmlns="http://www.w3.org/2000/svg" xmlns:xlink="http://www.w3.org/1999/xlink">
<g id="graph0" class="graph" transform="scale(1 1) rotate(0) translate(4 256)">
<polygon fill="white" stroke="none" points="-4,4 -4,-256 2255.66,-256 2255.66,4 -4,4"/>
<!-- q20:104 -->
<g id="node1" class="node">
<title>q20:104</title>
<ellipse fill="none" stroke="black" stroke-width="2" cx="1958.4" cy="-126" rx="52.26" ry="18"/>
<text text-anchor="middle" x="1958.4" y="-121.33" font-family="Times,serif" font-size="14.00">q20:104</text>
</g>
<!-- q25:104 -->
<g id="node2" class="node">
<title>q25:104</title>
<ellipse fill="none" stroke="black" stroke-width="2" cx="2199.4" cy="-126" rx="52.26" ry="18"/>
<text text-anchor="middle" x="2199.4" y="-121.33" font-family="Times,serif" font-size="14.00">q25:104</text>
</g>
<!-- q20:104&#45;&gt;q25:104 -->
<g id="edge1" class="edge">
<title>q20:104&#45;&gt;q25:104</title>
<path fill="none" stroke="black" d="M2011.6,-126C2048,-126 2096.7,-126 2135.3,-126"/>
<polygon fill="black" stroke="black" points="2134.89,-129.5 2144.89,-126 2134.89,-122.5 2134.89,-129.5"/>
<text text-anchor="middle" x="2078.9" y="-129.94" font-family="Times,serif" font-size="14.00">QUIT/221:104</text>
</g>
<!-- q16:2942 -->
<g id="node3" class="node">
<title>q16:2942</title>
<ellipse fill="none" stroke="black" stroke-width="2" cx="1694.6" cy="-91" rx="58.57" ry="18"/>
<text text-anchor="middle" x="1694.6" y="-86.33" font-family="Times,serif" font-size="14.00">q16:2942</text>
</g>
<!-- q16:2942&#45;&gt;q20:104 -->
<g id="edge2" class="edge">
<title>q16:2942&#45;&gt;q20:104</title>
<path fill="none" stroke="black" d="M1749.5,-98.21C1792.6,-103.97 1853,-112.04 1897.6,-118"/>
<polygon fill="black" stroke="black" points="1896.92,-121.44 1907.3,-119.31 1897.86,-114.5 1896.92,-121.44"/>
<text text-anchor="middle" x="1829.7" y="-120.95" font-family="Times,serif" font-size="14.00">content/250:104</text>
</g>
<!-- q16:2942&#45;&gt;q16:2942 -->
<g id="edge3" class="edge">
<title>q16:2942&#45;&gt;q16:2942</title>
<path fill="none" stroke="black" d="M1671.3,-108.41C1666.9,-118.09 1674.7,-127 1694.6,-127 1706.1,-127 1713.5,-124.02 1716.9,-119.64"/>
<polygon fill="black" stroke="black" points="1720.36,-120.19 1717.77,-109.92 1713.39,-119.57 1720.36,-120.19"/>
<text text-anchor="middle" x="1694.6" y="-130.94" font-family="Times,serif" font-size="14.00">content/λ:2828</text>
</g>
<!-- q22:9 -->
<g id="node4" class="node">
<title>q22:9</title>
<ellipse fill="none" stroke="black" stroke-width="2" cx="1958.4" cy="-72" rx="39.63" ry="18"/>
<text text-anchor="middle" x="1958.4" y="-67.33" font-family="Times,serif" font-size="14.00">q22:9</text>
</g>
<!-- q16:2942&#45;&gt;q22:9 -->
<g id="edge4" class="edge">
<title>q16:2942&#45;&gt;q22:9</title>
<path fill="none" stroke="black" d="M1751.3,-85.45C1758,-84.84 1764.7,-84.26 1771.2,-83.75 1817.1,-80.1 1869.5,-76.88 1907,-74.73"/>
<polygon fill="black" stroke="black" points="1906.8,-78.25 1916.59,-74.19 1906.41,-71.26 1906.8,-78.25"/>
<text text-anchor="middle" x="1829.7" y="-87.95" font-family="Times,serif" font-size="14.00">content/554:9</text>
</g>
<!-- q21:1 -->
<g id="node5" class="node">
<title>q21:1</title>
<ellipse fill="none" stroke="black" stroke-width="2" cx="1958.4" cy="-18" rx="39.63" ry="18"/>
<text text-anchor="middle" x="1958.4" y="-13.32" font-family="Times,serif" font-size="14.00">q21:1</text>
</g>
<!-- q16:2942&#45;&gt;q21:1 -->
<g id="edge5" class="edge">
<title>q16:2942&#45;&gt;q21:1</title>
<path fill="none" stroke="black" d="M1728.9,-75.64C1736.8,-71.89 1745.3,-67.84 1753.2,-64 1761.2,-60.03 1762.7,-57.7 1771.2,-54.75 1816.2,-39.1 1869.7,-29.41 1907.8,-23.93"/>
<polygon fill="black" stroke="black" points="1908.17,-27.41 1917.6,-22.57 1907.21,-20.48 1908.17,-27.41"/>
<text text-anchor="middle" x="1829.7" y="-58.95" font-family="Times,serif" font-size="14.00">content/550:1</text>
</g>
<!-- q27:9 -->
<g id="node6" class="node">
<title>q27:9</title>
<ellipse fill="none" stroke="black" stroke-width="2" cx="2199.4" cy="-72" rx="39.63" ry="18"/>
<text text-anchor="middle" x="2199.4" y="-67.33" font-family="Times,serif" font-size="14.00">q27:9</text>
</g>
<!-- q22:9&#45;&gt;q27:9 -->
<g id="edge6" class="edge">
<title>q22:9&#45;&gt;q27:9</title>
<path fill="none" stroke="black" d="M1998.9,-72C2039.5,-72 2103.1,-72 2147.5,-72"/>
<polygon fill="black" stroke="black" points="2147.39,-75.5 2157.39,-72 2147.39,-68.5 2147.39,-75.5"/>
<text text-anchor="middle" x="2078.9" y="-75.95" font-family="Times,serif" font-size="14.00">RSET/250:9</text>
</g>
<!-- q26:1 -->
<g id="node7" class="node">
<title>q26:1</title>
<ellipse fill="none" stroke="black" stroke-width="2" cx="2199.4" cy="-18" rx="39.63" ry="18"/>
<text text-anchor="middle" x="2199.4" y="-13.32" font-family="Times,serif" font-size="14.00">q26:1</text>
</g>
<!-- q21:1&#45;&gt;q26:1 -->
<g id="edge7" class="edge">
<title>q21:1&#45;&gt;q26:1</title>
<path fill="none" stroke="black" d="M1998.9,-18C2039.5,-18 2103.1,-18 2147.5,-18"/>
<polygon fill="black" stroke="black" points="2147.39,-21.5 2157.39,-18 2147.39,-14.5 2147.39,-21.5"/>
<text text-anchor="middle" x="2078.9" y="-21.95" font-family="Times,serif" font-size="14.00">RSET/250:1</text>
</g>
<!-- q13:88 -->
<g id="node8" class="node">
<title>q13:88</title>
<ellipse fill="none" stroke="black" stroke-width="2" cx="1439.8" cy="-174" rx="45.95" ry="18"/>
<text text-anchor="middle" x="1439.8" y="-169.32" font-family="Times,serif" font-size="14.00">q13:88</text>
</g>
<!-- q13:88&#45;&gt;q16:2942 -->
<g id="edge8" class="edge">
<title>q13:88&#45;&gt;q16:2942</title>
<path fill="none" stroke="black" d="M1476.4,-162.28C1519.6,-148.12 1592.6,-124.16 1641.9,-107.98"/>
<polygon fill="black" stroke="black" points="1642.77,-111.38 1651.16,-104.92 1640.57,-104.73 1642.77,-111.38"/>
<text text-anchor="middle" x="1564" y="-152.94" font-family="Times,serif" font-size="14.00">content/λ:2</text>
</g>
<!-- q17:65 -->
<g id="node9" class="node">
<title>q17:65</title>
<ellipse fill="none" stroke="black" stroke-width="2" cx="1694.6" cy="-234" rx="45.95" ry="18"/>
<text text-anchor="middle" x="1694.6" y="-229.32" font-family="Times,serif" font-size="14.00">q17:65</text>
</g>
<!-- q13:88&#45;&gt;q17:65 -->
<g id="edge9" class="edge">
<title>q13:88&#45;&gt;q17:65</title>
<path fill="none" stroke="black" d="M1473.5,-187.03C1484.9,-191.25 1497.9,-195.69 1510,-199 1553,-210.77 1602.7,-219.98 1639.5,-225.99"/>
<polygon fill="black" stroke="black" points="1638.58,-229.39 1649.01,-227.52 1639.69,-222.48 1638.58,-229.39"/>
<text text-anchor="middle" x="1564" y="-224.94" font-family="Times,serif" font-size="14.00">content/554:65</text>
</g>
<!-- q18:21 -->
<g id="node10" class="node">
<title>q18:21</title>
<ellipse fill="none" stroke="black" stroke-width="2" cx="1694.6" cy="-180" rx="45.95" ry="18"/>
<text text-anchor="middle" x="1694.6" y="-175.32" font-family="Times,serif" font-size="14.00">q18:21</text>
</g>
<!-- q13:88&#45;&gt;q18:21 -->
<g id="edge10" class="edge">
<title>q13:88&#45;&gt;q18:21</title>
<path fill="none" stroke="black" d="M1486.5,-175.09C1528.7,-176.09 1591.4,-177.57 1636.7,-178.65"/>
<polygon fill="black" stroke="black" points="1636.51,-182.15 1646.59,-178.88 1636.67,-175.15 1636.51,-182.15"/>
<text text-anchor="middle" x="1564" y="-181.94" font-family="Times,serif" font-size="14.00">content/250:21</text>
</g>
<!-- q23:65 -->
<g id="node11" class="node">
<title>q23:65</title>
<ellipse fill="none" stroke="black" stroke-width="2" cx="1958.4" cy="-234" rx="45.95" ry="18"/>
<text text-anchor="middle" x="1958.4" y="-229.32" font-family="Times,serif" font-size="14.00">q23:65</text>
</g>
<!-- q17:65&#45;&gt;q23:65 -->
<g id="edge11" class="edge">
<title>q17:65&#45;&gt;q23:65</title>
<path fill="none" stroke="black" d="M1741.5,-234C1785.7,-234 1852.6,-234 1900.2,-234"/>
<polygon fill="black" stroke="black" points="1900.09,-237.5 1910.09,-234 1900.09,-230.5 1900.09,-237.5"/>
<text text-anchor="middle" x="1829.7" y="-237.94" font-family="Times,serif" font-size="14.00">RSET/250:65</text>
</g>
<!-- q24:21 -->
<g id="node12" class="node">
<title>q24:21</title>
<ellipse fill="none" stroke="black" stroke-width="2" cx="1958.4" cy="-180" rx="45.95" ry="18"/>
<text text-anchor="middle" x="1958.4" y="-175.32" font-family="Times,serif" font-size="14.00">q24:21</text>
</g>
<!-- q18:21&#45;&gt;q24:21 -->
<g id="edge12" class="edge">
<title>q18:21&#45;&gt;q24:21</title>
<path fill="none" stroke="black" d="M1741.5,-180C1785.7,-180 1852.6,-180 1900.2,-180"/>
<polygon fill="black" stroke="black" points="1900.09,-183.5 1910.09,-180 1900.09,-176.5 1900.09,-183.5"/>
<text text-anchor="middle" x="1829.7" y="-183.94" font-family="Times,serif" font-size="14.00">QUIT/221:21</text>
</g>
<!-- q3:242 -->
<g id="node13" class="node">
<title>q3:242</title>
<ellipse fill="none" stroke="black" stroke-width="2" cx="491.48" cy="-175" rx="45.95" ry="18"/>
<text text-anchor="middle" x="491.48" y="-170.32" font-family="Times,serif" font-size="14.00">q3:242</text>
</g>
<!-- q6:1 -->
<g id="node14" class="node">
<title>q6:1</title>
<ellipse fill="none" stroke="black" stroke-width="2" cx="839.7" cy="-180" rx="33.32" ry="18"/>
<text text-anchor="middle" x="839.7" y="-175.32" font-family="Times,serif" font-size="14.00">q6:1</text>
</g>
<!-- q3:242&#45;&gt;q6:1 -->
<g id="edge13" class="edge">
<title>q3:242&#45;&gt;q6:1</title>
<path fill="none" stroke="black" d="M538.1,-175.66C604.79,-176.62 728.13,-178.4 794.18,-179.36"/>
<polygon fill="black" stroke="black" points="793.88,-182.86 803.93,-179.5 793.98,-175.86 793.88,-182.86"/>
<text text-anchor="middle" x="608.31" y="-180.94" font-family="Times,serif" font-size="14.00">AUTH/λ:1</text>
</g>
<!-- q4:230 -->
<g id="node15" class="node">
<title>q4:230</title>
<ellipse fill="none" stroke="black" stroke-width="2" cx="725.13" cy="-111" rx="45.95" ry="18"/>
<text text-anchor="middle" x="725.13" y="-106.33" font-family="Times,serif" font-size="14.00">q4:230</text>
</g>
<!-- q3:242&#45;&gt;q4:230 -->
<g id="edge14" class="edge">
<title>q3:242&#45;&gt;q4:230</title>
<path fill="none" stroke="black" d="M518.39,-159.6C529.48,-153.57 542.77,-147.08 555.43,-142.75 576.24,-135.63 629.15,-126.16 670.21,-119.42"/>
<polygon fill="black" stroke="black" points="670.63,-122.9 679.95,-117.84 669.51,-115.99 670.63,-122.9"/>
<text text-anchor="middle" x="608.31" y="-145.94" font-family="Times,serif" font-size="14.00">AUTH/235:228</text>
</g>
<!-- q5:13 -->
<g id="node16" class="node">
<title>q5:13</title>
<ellipse fill="none" stroke="black" stroke-width="2" cx="725.13" cy="-229" rx="39.63" ry="18"/>
<text text-anchor="middle" x="725.13" y="-224.32" font-family="Times,serif" font-size="14.00">q5:13</text>
</g>
<!-- q3:242&#45;&gt;q5:13 -->
<g id="edge15" class="edge">
<title>q3:242&#45;&gt;q5:13</title>
<path fill="none" stroke="black" d="M521.02,-189.62C531.6,-194.52 543.84,-199.6 555.43,-203 594.51,-214.48 640.26,-221.13 674.25,-224.82"/>
<polygon fill="black" stroke="black" points="673.49,-228.26 683.79,-225.81 674.21,-221.3 673.49,-228.26"/>
<text text-anchor="middle" x="608.31" y="-226.94" font-family="Times,serif" font-size="14.00">AUTH/535:13</text>
</g>
<!-- q10:232 -->
<g id="node17" class="node">
<title>q10:232</title>
<ellipse fill="none" stroke="black" stroke-width="2" cx="1196.5" cy="-131" rx="52.26" ry="18"/>
<text text-anchor="middle" x="1196.5" y="-126.33" font-family="Times,serif" font-size="14.00">q10:232</text>
</g>
<!-- q6:1&#45;&gt;q10:232 -->
<g id="edge16" class="edge">
<title>q6:1&#45;&gt;q10:232</title>
<path fill="none" stroke="black" d="M873.49,-178.3C926.85,-175.14 1035.6,-167.07 1126.2,-150 1132.3,-148.86 1138.6,-147.45 1144.8,-145.92"/>
<polygon fill="black" stroke="black" points="1145.53,-149.35 1154.33,-143.45 1143.78,-142.57 1145.53,-149.35"/>
<text text-anchor="middle" x="954.27" y="-178.94" font-family="Times,serif" font-size="14.00">MAIL/250:1</text>
</g>
<!-- q8:227 -->
<g id="node18" class="node">
<title>q8:227</title>
<ellipse fill="none" stroke="black" stroke-width="2" cx="954.27" cy="-126" rx="45.95" ry="18"/>
<text text-anchor="middle" x="954.27" y="-121.33" font-family="Times,serif" font-size="14.00">q8:227</text>
</g>
<!-- q4:230&#45;&gt;q8:227 -->
<g id="edge17" class="edge">
<title>q4:230&#45;&gt;q8:227</title>
<path fill="none" stroke="black" d="M771.28,-113.98C807.43,-116.37 858.32,-119.73 897.11,-122.29"/>
<polygon fill="black" stroke="black" points="896.49,-125.76 906.7,-122.92 896.95,-118.77 896.49,-125.76"/>
<text text-anchor="middle" x="839.7" y="-125.95" font-family="Times,serif" font-size="14.00">MAIL/250:227</text>
</g>
<!-- q7:3 -->
<g id="node19" class="node">
<title>q7:3</title>
<ellipse fill="none" stroke="black" stroke-width="2" cx="954.27" cy="-72" rx="33.32" ry="18"/>
<text text-anchor="middle" x="954.27" y="-67.33" font-family="Times,serif" font-size="14.00">q7:3</text>
</g>
<!-- q4:230&#45;&gt;q7:3 -->
<g id="edge18" class="edge">
<title>q4:230&#45;&gt;q7:3</title>
<path fill="none" stroke="black" d="M763.91,-100.49C772.17,-98.41 780.88,-96.37 789.08,-94.75 829.61,-86.74 876.32,-80.56 909.54,-76.67"/>
<polygon fill="black" stroke="black" points="909.65,-80.18 919.19,-75.57 908.85,-73.23 909.65,-80.18"/>
<text text-anchor="middle" x="839.7" y="-98.95" font-family="Times,serif" font-size="14.00">MAIL/553:3</text>
</g>
<!-- q9:13 -->
<g id="node20" class="node">
<title>q9:13</title>
<ellipse fill="none" stroke="black" stroke-width="2" cx="954.27" cy="-233" rx="39.63" ry="18"/>
<text text-anchor="middle" x="954.27" y="-228.32" font-family="Times,serif" font-size="14.00">q9:13</text>
</g>
<!-- q5:13&#45;&gt;q9:13 -->
<g id="edge19" class="edge">
<title>q5:13&#45;&gt;q9:13</title>
<path fill="none" stroke="black" d="M765.69,-229.7C803.6,-230.36 861,-231.38 902.32,-232.1"/>
<polygon fill="black" stroke="black" points="902.21,-235.6 912.27,-232.27 902.33,-228.6 902.21,-235.6"/>
<text text-anchor="middle" x="839.7" y="-234.94" font-family="Times,serif" font-size="14.00">AUTH/334:13</text>
</g>
<!-- q10:232&#45;&gt;q13:88 -->
<g id="edge20" class="edge">
<title>q10:232&#45;&gt;q13:88</title>
<path fill="none" stroke="black" d="M1241.7,-140.95C1250,-142.71 1258.6,-144.46 1266.7,-146 1306.1,-153.47 1350.8,-160.71 1384.8,-165.95"/>
<polygon fill="black" stroke="black" points="1383.99,-169.37 1394.4,-167.42 1385.05,-162.45 1383.99,-169.37"/>
<text text-anchor="middle" x="1318.1" y="-166.94" font-family="Times,serif" font-size="14.00">DATA/354:88</text>
</g>
<!-- q14:144 -->
<g id="node21" class="node">
<title>q14:144</title>
<ellipse fill="none" stroke="black" stroke-width="2" cx="1439.8" cy="-91" rx="52.26" ry="18"/>
<text text-anchor="middle" x="1439.8" y="-86.33" font-family="Times,serif" font-size="14.00">q14:144</text>
</g>
<!-- q10:232&#45;&gt;q14:144 -->
<g id="edge21" class="edge">
<title>q10:232&#45;&gt;q14:144</title>
<path fill="none" stroke="black" d="M1247.8,-126.27C1282.2,-122.61 1328.8,-116.85 1369.5,-109 1375.1,-107.91 1381,-106.62 1386.8,-105.25"/>
<polygon fill="black" stroke="black" points="1387.55,-108.67 1396.43,-102.89 1385.88,-101.87 1387.55,-108.67"/>
<text text-anchor="middle" x="1318.1" y="-128.94" font-family="Times,serif" font-size="14.00">RCPT/250:144</text>
</g>
<!-- q8:227&#45;&gt;q10:232 -->
<g id="edge22" class="edge">
<title>q8:227&#45;&gt;q10:232</title>
<path fill="none" stroke="black" d="M1001.02,-126.95C1038.2,-127.73 1091.1,-128.83 1132.4,-129.69"/>
<polygon fill="black" stroke="black" points="1132.02,-133.18 1142.09,-129.89 1132.16,-126.18 1132.02,-133.18"/>
<text text-anchor="middle" x="1072.2" y="-132.94" font-family="Times,serif" font-size="14.00">RCPT/250:227</text>
</g>
<!-- q11:3 -->
<g id="node22" class="node">
<title>q11:3</title>
<ellipse fill="none" stroke="black" stroke-width="2" cx="1196.5" cy="-72" rx="39.63" ry="18"/>
<text text-anchor="middle" x="1196.5" y="-67.33" font-family="Times,serif" font-size="14.00">q11:3</text>
</g>
<!-- q7:3&#45;&gt;q11:3 -->
<g id="edge23" class="edge">
<title>q7:3&#45;&gt;q11:3</title>
<path fill="none" stroke="black" d="M988.42,-72C1028.8,-72 1097.3,-72 1144.4,-72"/>
<polygon fill="black" stroke="black" points="1144.39,-75.5 1154.39,-72 1144.39,-68.5 1144.39,-75.5"/>
<text text-anchor="middle" x="1072.2" y="-75.95" font-family="Times,serif" font-size="14.00">RSET/250:3</text>
</g>
<!-- q12:13 -->
<g id="node23" class="node">
<title>q12:13</title>
<ellipse fill="none" stroke="black" stroke-width="2" cx="1196.5" cy="-233" rx="45.95" ry="18"/>
<text text-anchor="middle" x="1196.5" y="-228.32" font-family="Times,serif" font-size="14.00">q12:13</text>
</g>
<!-- q9:13&#45;&gt;q12:13 -->
<g id="edge24" class="edge">
<title>q9:13&#45;&gt;q12:13</title>
<path fill="none" stroke="black" d="M994.67,-233C1033.8,-233 1094.1,-233 1138.4,-233"/>
<polygon fill="black" stroke="black" points="1138.39,-236.5 1148.39,-233 1138.39,-229.5 1138.39,-236.5"/>
<text text-anchor="middle" x="1072.2" y="-236.94" font-family="Times,serif" font-size="14.00">content/535:13</text>
</g>
<!-- q14:144&#45;&gt;q16:2942 -->
<g id="edge25" class="edge">
<title>q14:144&#45;&gt;q16:2942</title>
<path fill="none" stroke="black" d="M1492.8,-91C1530.8,-91 1582.5,-91 1624,-91"/>
<polygon fill="black" stroke="black" points="1623.89,-94.5 1633.89,-91 1623.89,-87.5 1623.89,-94.5"/>
<text text-anchor="middle" x="1564" y="-94.95" font-family="Times,serif" font-size="14.00">DATA/354:112</text>
</g>
<!-- q14:144&#45;&gt;q10:232 -->
<g id="edge26" class="edge">
<title>q14:144&#45;&gt;q10:232</title>
<path fill="none" stroke="black" d="M1389.7,-84.7C1354.8,-81.79 1307.1,-81 1266.7,-91.75 1259.6,-93.66 1246.2,-100.9 1233.1,-108.65"/>
<polygon fill="black" stroke="black" points="1231.27,-105.67 1224.5,-113.81 1234.87,-111.67 1231.27,-105.67"/>
<text text-anchor="middle" x="1318.1" y="-95.95" font-family="Times,serif" font-size="14.00">RCPT/250:4</text>
</g>
<!-- q19:28 -->
<g id="node24" class="node">
<title>q19:28</title>
<ellipse fill="none" stroke="black" stroke-width="2" cx="1694.6" cy="-37" rx="45.95" ry="18"/>
<text text-anchor="middle" x="1694.6" y="-32.33" font-family="Times,serif" font-size="14.00">q19:28</text>
</g>
<!-- q14:144&#45;&gt;q19:28 -->
<g id="edge27" class="edge">
<title>q14:144&#45;&gt;q19:28</title>
<path fill="none" stroke="black" d="M1479,-78.36C1489,-75.3 1499.9,-72.2 1510,-69.75 1553.1,-59.34 1602.6,-50.7 1639.3,-44.92"/>
<polygon fill="black" stroke="black" points="1639.46,-48.43 1648.8,-43.45 1638.39,-41.52 1639.46,-48.43"/>
<text text-anchor="middle" x="1564" y="-73.95" font-family="Times,serif" font-size="14.00">DATA/550:28</text>
</g>
<!-- q15:4 -->
<g id="node25" class="node">
<title>q15:4</title>
<ellipse fill="none" stroke="black" stroke-width="2" cx="1439.8" cy="-233" rx="39.63" ry="18"/>
<text text-anchor="middle" x="1439.8" y="-228.32" font-family="Times,serif" font-size="14.00">q15:4</text>
</g>
<!-- q12:13&#45;&gt;q15:4 -->
<g id="edge28" class="edge">
<title>q12:13&#45;&gt;q15:4</title>
<path fill="none" stroke="black" d="M1243.1,-233C1284.4,-233 1345.2,-233 1388,-233"/>
<polygon fill="black" stroke="black" points="1387.79,-236.5 1397.79,-233 1387.79,-229.5 1387.79,-236.5"/>
<text text-anchor="middle" x="1318.1" y="-236.94" font-family="Times,serif" font-size="14.00">λ/451:4</text>
</g>
<!-- q2:2 -->
<g id="node26" class="node">
<title>q2:2</title>
<ellipse fill="none" stroke="black" stroke-width="2" cx="491.48" cy="-115" rx="33.32" ry="18"/>
<text text-anchor="middle" x="491.48" y="-110.33" font-family="Times,serif" font-size="14.00">q2:2</text>
</g>
<!-- q2:2&#45;&gt;q4:230 -->
<g id="edge29" class="edge">
<title>q2:2&#45;&gt;q4:230</title>
<path fill="none" stroke="black" d="M523.05,-107.83C533.28,-105.75 544.79,-103.78 555.43,-102.75 602.21,-98.24 614.28,-99.69 661.18,-102.75 664.02,-102.94 666.93,-103.17 669.86,-103.43"/>
<polygon fill="black" stroke="black" points="669.39,-106.9 679.69,-104.45 670.11,-99.94 669.39,-106.9"/>
<text text-anchor="middle" x="608.31" y="-106.95" font-family="Times,serif" font-size="14.00">AUTH/235:2</text>
</g>
<!-- q1:244 -->
<g id="node27" class="node">
<title>q1:244</title>
<ellipse fill="none" stroke="black" stroke-width="2" cx="257.84" cy="-142" rx="45.95" ry="18"/>
<text text-anchor="middle" x="257.84" y="-137.32" font-family="Times,serif" font-size="14.00">q1:244</text>
</g>
<!-- q1:244&#45;&gt;q3:242 -->
<g id="edge30" class="edge">
<title>q1:244&#45;&gt;q3:242</title>
<path fill="none" stroke="black" d="M302.14,-148.17C340,-153.56 395.17,-161.42 436.02,-167.24"/>
<polygon fill="black" stroke="black" points="435.51,-170.7 445.9,-168.65 436.49,-163.77 435.51,-170.7"/>
<text text-anchor="middle" x="374.66" y="-168.94" font-family="Times,serif" font-size="14.00">EHLO/250:242</text>
</g>
<!-- q1:244&#45;&gt;q2:2 -->
<g id="edge31" class="edge">
<title>q1:244&#45;&gt;q2:2</title>
<path fill="none" stroke="black" d="M296.21,-131.12C304.56,-129.03 313.43,-127.08 321.79,-125.75 363.53,-119.09 411.69,-116.52 445.85,-115.55"/>
<polygon fill="black" stroke="black" points="445.88,-119.05 455.8,-115.31 445.71,-112.05 445.88,-119.05"/>
<text text-anchor="middle" x="374.66" y="-128.94" font-family="Times,serif" font-size="14.00">EHLO/λ:2</text>
</g>
<!-- q0:244 -->
<g id="node28" class="node">
<title>q0:244</title>
<ellipse fill="none" stroke="black" stroke-width="2" cx="53.95" cy="-142" rx="49.95" ry="49.95"/>
<ellipse fill="none" stroke="black" stroke-width="2" cx="53.95" cy="-142" rx="53.95" ry="53.95"/>
<text text-anchor="middle" x="53.95" y="-137.32" font-family="Times,serif" font-size="14.00">q0:244</text>
</g>
<!-- q0:244&#45;&gt;q1:244 -->
<g id="edge32" class="edge">
<title>q0:244&#45;&gt;q1:244</title>
<path fill="none" stroke="black" d="M104.85,-142C133.64,-142 169.94,-142 199.84,-142"/>
<polygon fill="black" stroke="black" points="199.45,-145.5 209.45,-142 199.45,-138.5 199.45,-145.5"/>
<text text-anchor="middle" x="157.89" y="-145.94" font-family="Times,serif" font-size="14.00">λ/220:244</text>
</g>
</g>
</svg>
