<?xml version="1.0" encoding="UTF-8" standalone="no"?>
<!DOCTYPE svg PUBLIC "-//W3C//DTD SVG 1.1//EN"
 "http://www.w3.org/Graphics/SVG/1.1/DTD/svg11.dtd">
<!-- Generated by graphviz version 12.0.0 (20240803.0821)
 -->
<!-- Pages: 1 -->
<svg width="2231pt" height="281pt"
 viewBox="0.00 0.00 2231.35 281.00" xmlns="http://www.w3.org/2000/svg" xmlns:xlink="http://www.w3.org/1999/xlink">
<g id="graph0" class="graph" transform="scale(1 1) rotate(0) translate(4 277)">
<polygon fill="white" stroke="none" points="-4,4 -4,-277 2227.35,-277 2227.35,4 -4,4"/>
<!-- q24:46 -->
<g id="node1" class="node">
<title>q24:46</title>
<ellipse fill="none" stroke="black" stroke-width="2" cx="1707.2" cy="-255" rx="45.95" ry="18"/>
<text text-anchor="middle" x="1707.2" y="-250.32" font-family="Times,serif" font-size="14.00">q24:46</text>
</g>
<!-- q26:46 -->
<g id="node2" class="node">
<title>q26:46</title>
<ellipse fill="none" stroke="black" stroke-width="2" cx="1955.7" cy="-255" rx="45.95" ry="18"/>
<text text-anchor="middle" x="1955.7" y="-250.32" font-family="Times,serif" font-size="14.00">q26:46</text>
</g>
<!-- q24:46&#45;&gt;q26:46 -->
<g id="edge1" class="edge">
<title>q24:46&#45;&gt;q26:46</title>
<path fill="none" stroke="black" d="M1754,-255C1794.6,-255 1854.2,-255 1897.9,-255"/>
<polygon fill="black" stroke="black" points="1897.69,-258.5 1907.69,-255 1897.69,-251.5 1897.69,-258.5"/>
<text text-anchor="middle" x="1837.8" y="-258.94" font-family="Times,serif" font-size="14.00">QUIT/221:46</text>
</g>
<!-- q14:161 -->
<g id="node3" class="node">
<title>q14:161</title>
<ellipse fill="none" stroke="black" stroke-width="2" cx="1446.1" cy="-36" rx="52.26" ry="18"/>
<text text-anchor="middle" x="1446.1" y="-31.32" font-family="Times,serif" font-size="14.00">q14:161</text>
</g>
<!-- q13:1734 -->
<g id="node4" class="node">
<title>q13:1734</title>
<ellipse fill="none" stroke="black" stroke-width="2" cx="1707.2" cy="-91" rx="58.57" ry="18"/>
<text text-anchor="middle" x="1707.2" y="-86.33" font-family="Times,serif" font-size="14.00">q13:1734</text>
</g>
<!-- q14:161&#45;&gt;q13:1734 -->
<g id="edge2" class="edge">
<title>q14:161&#45;&gt;q13:1734</title>
<path fill="none" stroke="black" d="M1498.8,-38.54C1536,-41.3 1587.1,-47.01 1630.6,-58.75 1641.8,-61.76 1653.5,-66.09 1664.2,-70.61"/>
<polygon fill="black" stroke="black" points="1662.65,-73.75 1673.21,-74.54 1665.45,-67.33 1662.65,-73.75"/>
<text text-anchor="middle" x="1576.6" y="-62.95" font-family="Times,serif" font-size="14.00">DATA/354:118</text>
</g>
<!-- q19:43 -->
<g id="node5" class="node">
<title>q19:43</title>
<ellipse fill="none" stroke="black" stroke-width="2" cx="1707.2" cy="-18" rx="45.95" ry="18"/>
<text text-anchor="middle" x="1707.2" y="-13.32" font-family="Times,serif" font-size="14.00">q19:43</text>
</g>
<!-- q14:161&#45;&gt;q19:43 -->
<g id="edge3" class="edge">
<title>q14:161&#45;&gt;q19:43</title>
<path fill="none" stroke="black" d="M1488.8,-24.76C1499.7,-22.28 1511.5,-20.02 1522.6,-18.75 1564.9,-13.9 1613,-13.9 1649.4,-15.02"/>
<polygon fill="black" stroke="black" points="1649.17,-18.51 1659.29,-15.36 1649.41,-11.52 1649.17,-18.51"/>
<text text-anchor="middle" x="1576.6" y="-22.95" font-family="Times,serif" font-size="14.00">DATA/550:43</text>
</g>
<!-- q18:1595 -->
<g id="node6" class="node">
<title>q18:1595</title>
<ellipse fill="none" stroke="black" stroke-width="2" cx="1446.1" cy="-163" rx="58.57" ry="18"/>
<text text-anchor="middle" x="1446.1" y="-158.32" font-family="Times,serif" font-size="14.00">q18:1595</text>
</g>
<!-- q13:1734&#45;&gt;q18:1595 -->
<g id="edge4" class="edge">
<title>q13:1734&#45;&gt;q18:1595</title>
<path fill="none" stroke="black" d="M1685.5,-108.55C1671.1,-119.77 1650.9,-133.57 1630.6,-141 1610,-148.59 1558.7,-154.37 1515.6,-158.09"/>
<polygon fill="black" stroke="black" points="1515.38,-154.6 1505.71,-158.91 1515.96,-161.57 1515.38,-154.6"/>
<text text-anchor="middle" x="1576.6" y="-160.94" font-family="Times,serif" font-size="14.00">content/λ:1595</text>
</g>
<!-- q17:1 -->
<g id="node7" class="node">
<title>q17:1</title>
<ellipse fill="none" stroke="black" stroke-width="2" cx="1955.7" cy="-145" rx="39.63" ry="18"/>
<text text-anchor="middle" x="1955.7" y="-140.32" font-family="Times,serif" font-size="14.00">q17:1</text>
</g>
<!-- q13:1734&#45;&gt;q17:1 -->
<g id="edge5" class="edge">
<title>q13:1734&#45;&gt;q17:1</title>
<path fill="none" stroke="black" d="M1751.2,-103.59C1761.8,-106.52 1773.2,-109.51 1783.8,-112 1824.9,-121.66 1872,-130.61 1906.4,-136.74"/>
<polygon fill="black" stroke="black" points="1905.55,-140.14 1916.01,-138.45 1906.77,-133.25 1905.55,-140.14"/>
<text text-anchor="middle" x="1837.8" y="-136.94" font-family="Times,serif" font-size="14.00">content/550:1</text>
</g>
<!-- q15:90 -->
<g id="node8" class="node">
<title>q15:90</title>
<ellipse fill="none" stroke="black" stroke-width="2" cx="1955.7" cy="-91" rx="45.95" ry="18"/>
<text text-anchor="middle" x="1955.7" y="-86.33" font-family="Times,serif" font-size="14.00">q15:90</text>
</g>
<!-- q13:1734&#45;&gt;q15:90 -->
<g id="edge6" class="edge">
<title>q13:1734&#45;&gt;q15:90</title>
<path fill="none" stroke="black" d="M1766.6,-91C1806.2,-91 1858.2,-91 1897.5,-91"/>
<polygon fill="black" stroke="black" points="1897.49,-94.5 1907.49,-91 1897.49,-87.5 1897.49,-94.5"/>
<text text-anchor="middle" x="1837.8" y="-94.95" font-family="Times,serif" font-size="14.00">content/250:90</text>
</g>
<!-- q16:48 -->
<g id="node9" class="node">
<title>q16:48</title>
<ellipse fill="none" stroke="black" stroke-width="2" cx="1955.7" cy="-37" rx="45.95" ry="18"/>
<text text-anchor="middle" x="1955.7" y="-32.33" font-family="Times,serif" font-size="14.00">q16:48</text>
</g>
<!-- q13:1734&#45;&gt;q16:48 -->
<g id="edge7" class="edge">
<title>q13:1734&#45;&gt;q16:48</title>
<path fill="none" stroke="black" d="M1751.2,-78.23C1761.8,-75.27 1773.2,-72.25 1783.8,-69.75 1822.9,-60.52 1867.5,-52.05 1901.3,-46.03"/>
<polygon fill="black" stroke="black" points="1901.66,-49.52 1910.91,-44.35 1900.45,-42.62 1901.66,-49.52"/>
<text text-anchor="middle" x="1837.8" y="-73.95" font-family="Times,serif" font-size="14.00">content/554:48</text>
</g>
<!-- q18:1595&#45;&gt;q24:46 -->
<g id="edge8" class="edge">
<title>q18:1595&#45;&gt;q24:46</title>
<path fill="none" stroke="black" d="M1485,-177.39C1491.9,-180.93 1498.8,-185.14 1504.6,-190 1515.2,-198.74 1511.2,-207.49 1522.6,-215 1560.4,-239.75 1610.9,-249.44 1649.4,-253.11"/>
<polygon fill="black" stroke="black" points="1648.74,-256.57 1658.99,-253.9 1649.31,-249.59 1648.74,-256.57"/>
<text text-anchor="middle" x="1576.6" y="-253.94" font-family="Times,serif" font-size="14.00">content/250:46</text>
</g>
<!-- q18:1595&#45;&gt;q13:1734 -->
<g id="edge9" class="edge">
<title>q18:1595&#45;&gt;q13:1734</title>
<path fill="none" stroke="black" d="M1471.5,-145.97C1485.8,-136.8 1504.5,-126.11 1522.6,-119.75 1533.9,-115.81 1593.2,-106.85 1641.4,-99.97"/>
<polygon fill="black" stroke="black" points="1641.89,-103.44 1651.3,-98.57 1640.91,-96.5 1641.89,-103.44"/>
<text text-anchor="middle" x="1576.6" y="-122.95" font-family="Times,serif" font-size="14.00">content/λ:1548</text>
</g>
<!-- q23:1 -->
<g id="node10" class="node">
<title>q23:1</title>
<ellipse fill="none" stroke="black" stroke-width="2" cx="1707.2" cy="-201" rx="39.63" ry="18"/>
<text text-anchor="middle" x="1707.2" y="-196.32" font-family="Times,serif" font-size="14.00">q23:1</text>
</g>
<!-- q18:1595&#45;&gt;q23:1 -->
<g id="edge10" class="edge">
<title>q18:1595&#45;&gt;q23:1</title>
<path fill="none" stroke="black" d="M1492.4,-174.78C1502.3,-177.08 1512.8,-179.3 1522.6,-181 1567.6,-188.77 1619.3,-194.08 1656.3,-197.27"/>
<polygon fill="black" stroke="black" points="1655.53,-200.72 1665.79,-198.06 1656.12,-193.74 1655.53,-200.72"/>
<text text-anchor="middle" x="1576.6" y="-197.94" font-family="Times,serif" font-size="14.00">content/554:1</text>
</g>
<!-- q22:1 -->
<g id="node11" class="node">
<title>q22:1</title>
<ellipse fill="none" stroke="black" stroke-width="2" cx="2177.4" cy="-145" rx="39.63" ry="18"/>
<text text-anchor="middle" x="2177.4" y="-140.32" font-family="Times,serif" font-size="14.00">q22:1</text>
</g>
<!-- q17:1&#45;&gt;q22:1 -->
<g id="edge11" class="edge">
<title>q17:1&#45;&gt;q22:1</title>
<path fill="none" stroke="black" d="M1996.3,-145C2032.4,-145 2086,-145 2125.3,-145"/>
<polygon fill="black" stroke="black" points="2125.29,-148.5 2135.29,-145 2125.29,-141.5 2125.29,-148.5"/>
<text text-anchor="middle" x="2066.6" y="-148.94" font-family="Times,serif" font-size="14.00">RSET/250:1</text>
</g>
<!-- q20:90 -->
<g id="node12" class="node">
<title>q20:90</title>
<ellipse fill="none" stroke="black" stroke-width="2" cx="2177.4" cy="-91" rx="45.95" ry="18"/>
<text text-anchor="middle" x="2177.4" y="-86.33" font-family="Times,serif" font-size="14.00">q20:90</text>
</g>
<!-- q15:90&#45;&gt;q20:90 -->
<g id="edge12" class="edge">
<title>q15:90&#45;&gt;q20:90</title>
<path fill="none" stroke="black" d="M2002.5,-91C2036.4,-91 2082.9,-91 2119.2,-91"/>
<polygon fill="black" stroke="black" points="2119.19,-94.5 2129.19,-91 2119.19,-87.5 2119.19,-94.5"/>
<text text-anchor="middle" x="2066.6" y="-94.95" font-family="Times,serif" font-size="14.00">QUIT/221:90</text>
</g>
<!-- q21:48 -->
<g id="node13" class="node">
<title>q21:48</title>
<ellipse fill="none" stroke="black" stroke-width="2" cx="2177.4" cy="-37" rx="45.95" ry="18"/>
<text text-anchor="middle" x="2177.4" y="-32.33" font-family="Times,serif" font-size="14.00">q21:48</text>
</g>
<!-- q16:48&#45;&gt;q21:48 -->
<g id="edge13" class="edge">
<title>q16:48&#45;&gt;q21:48</title>
<path fill="none" stroke="black" d="M2002.5,-37C2036.4,-37 2082.9,-37 2119.2,-37"/>
<polygon fill="black" stroke="black" points="2119.19,-40.5 2129.19,-37 2119.19,-33.5 2119.19,-40.5"/>
<text text-anchor="middle" x="2066.6" y="-40.95" font-family="Times,serif" font-size="14.00">RSET/250:48</text>
</g>
<!-- q25:1 -->
<g id="node14" class="node">
<title>q25:1</title>
<ellipse fill="none" stroke="black" stroke-width="2" cx="1955.7" cy="-201" rx="39.63" ry="18"/>
<text text-anchor="middle" x="1955.7" y="-196.32" font-family="Times,serif" font-size="14.00">q25:1</text>
</g>
<!-- q23:1&#45;&gt;q25:1 -->
<g id="edge14" class="edge">
<title>q23:1&#45;&gt;q25:1</title>
<path fill="none" stroke="black" d="M1747.8,-201C1790.2,-201 1857.7,-201 1903.9,-201"/>
<polygon fill="black" stroke="black" points="1903.69,-204.5 1913.69,-201 1903.69,-197.5 1903.69,-204.5"/>
<text text-anchor="middle" x="1837.8" y="-204.94" font-family="Times,serif" font-size="14.00">RSET/250:1</text>
</g>
<!-- q7:229 -->
<g id="node15" class="node">
<title>q7:229</title>
<ellipse fill="none" stroke="black" stroke-width="2" cx="954.27" cy="-90" rx="45.95" ry="18"/>
<text text-anchor="middle" x="954.27" y="-85.33" font-family="Times,serif" font-size="14.00">q7:229</text>
</g>
<!-- q10:229 -->
<g id="node16" class="node">
<title>q10:229</title>
<ellipse fill="none" stroke="black" stroke-width="2" cx="1196.5" cy="-90" rx="52.26" ry="18"/>
<text text-anchor="middle" x="1196.5" y="-85.33" font-family="Times,serif" font-size="14.00">q10:229</text>
</g>
<!-- q7:229&#45;&gt;q10:229 -->
<g id="edge15" class="edge">
<title>q7:229&#45;&gt;q10:229</title>
<path fill="none" stroke="black" d="M1001.02,-90C1038.1,-90 1090.8,-90 1131.9,-90"/>
<polygon fill="black" stroke="black" points="1131.69,-93.5 1141.69,-90 1131.69,-86.5 1131.69,-93.5"/>
<text text-anchor="middle" x="1072.2" y="-93.95" font-family="Times,serif" font-size="14.00">RCPT/250:229</text>
</g>
<!-- q10:229&#45;&gt;q14:161 -->
<g id="edge16" class="edge">
<title>q10:229&#45;&gt;q14:161</title>
<path fill="none" stroke="black" d="M1226.8,-74.47C1238.8,-68.68 1253.2,-62.59 1266.7,-58.75 1304.2,-48.15 1347.6,-42.48 1382.2,-39.45"/>
<polygon fill="black" stroke="black" points="1382.31,-42.95 1391.99,-38.65 1381.74,-35.98 1382.31,-42.95"/>
<text text-anchor="middle" x="1318.1" y="-62.95" font-family="Times,serif" font-size="14.00">RCPT/250:161</text>
</g>
<!-- q10:229&#45;&gt;q13:1734 -->
<g id="edge17" class="edge">
<title>q10:229&#45;&gt;q13:1734</title>
<path fill="none" stroke="black" d="M1249.5,-90.1C1341.7,-90.28 1533.5,-90.66 1636.8,-90.86"/>
<polygon fill="black" stroke="black" points="1636.48,-94.36 1646.49,-90.88 1636.49,-87.36 1636.48,-94.36"/>
<text text-anchor="middle" x="1446.1" y="-93.95" font-family="Times,serif" font-size="14.00">DATA/354:68</text>
</g>
<!-- q5:232 -->
<g id="node17" class="node">
<title>q5:232</title>
<ellipse fill="none" stroke="black" stroke-width="2" cx="725.13" cy="-90" rx="45.95" ry="18"/>
<text text-anchor="middle" x="725.13" y="-85.33" font-family="Times,serif" font-size="14.00">q5:232</text>
</g>
<!-- q5:232&#45;&gt;q7:229 -->
<g id="edge18" class="edge">
<title>q5:232&#45;&gt;q7:229</title>
<path fill="none" stroke="black" d="M771.82,-90C807.78,-90 858.09,-90 896.61,-90"/>
<polygon fill="black" stroke="black" points="896.14,-93.5 906.14,-90 896.14,-86.5 896.14,-93.5"/>
<text text-anchor="middle" x="839.7" y="-93.95" font-family="Times,serif" font-size="14.00">MAIL/250:229</text>
</g>
<!-- q8:3 -->
<g id="node18" class="node">
<title>q8:3</title>
<ellipse fill="none" stroke="black" stroke-width="2" cx="954.27" cy="-36" rx="33.32" ry="18"/>
<text text-anchor="middle" x="954.27" y="-31.32" font-family="Times,serif" font-size="14.00">q8:3</text>
</g>
<!-- q5:232&#45;&gt;q8:3 -->
<g id="edge19" class="edge">
<title>q5:232&#45;&gt;q8:3</title>
<path fill="none" stroke="black" d="M760.19,-77.61C769.48,-74.47 779.6,-71.28 789.08,-68.75 829.77,-57.87 877.01,-48.81 910.34,-43"/>
<polygon fill="black" stroke="black" points="910.76,-46.48 920.03,-41.34 909.58,-39.58 910.76,-46.48"/>
<text text-anchor="middle" x="839.7" y="-72.95" font-family="Times,serif" font-size="14.00">MAIL/553:3</text>
</g>
<!-- q11:3 -->
<g id="node19" class="node">
<title>q11:3</title>
<ellipse fill="none" stroke="black" stroke-width="2" cx="1196.5" cy="-36" rx="39.63" ry="18"/>
<text text-anchor="middle" x="1196.5" y="-31.32" font-family="Times,serif" font-size="14.00">q11:3</text>
</g>
<!-- q8:3&#45;&gt;q11:3 -->
<g id="edge20" class="edge">
<title>q8:3&#45;&gt;q11:3</title>
<path fill="none" stroke="black" d="M988.42,-36C1028.8,-36 1097.3,-36 1144.4,-36"/>
<polygon fill="black" stroke="black" points="1144.39,-39.5 1154.39,-36 1144.39,-32.5 1144.39,-39.5"/>
<text text-anchor="middle" x="1072.2" y="-39.95" font-family="Times,serif" font-size="14.00">RSET/250:3</text>
</g>
<!-- q1:244 -->
<g id="node20" class="node">
<title>q1:244</title>
<ellipse fill="none" stroke="black" stroke-width="2" cx="257.84" cy="-117" rx="45.95" ry="18"/>
<text text-anchor="middle" x="257.84" y="-112.33" font-family="Times,serif" font-size="14.00">q1:244</text>
</g>
<!-- q2:242 -->
<g id="node21" class="node">
<title>q2:242</title>
<ellipse fill="none" stroke="black" stroke-width="2" cx="491.48" cy="-144" rx="45.95" ry="18"/>
<text text-anchor="middle" x="491.48" y="-139.32" font-family="Times,serif" font-size="14.00">q2:242</text>
</g>
<!-- q1:244&#45;&gt;q2:242 -->
<g id="edge21" class="edge">
<title>q1:244&#45;&gt;q2:242</title>
<path fill="none" stroke="black" d="M302.96,-122.14C340.55,-126.52 394.77,-132.84 435.24,-137.56"/>
<polygon fill="black" stroke="black" points="434.69,-141.02 445.03,-138.7 435.5,-134.07 434.69,-141.02"/>
<text text-anchor="middle" x="374.66" y="-139.94" font-family="Times,serif" font-size="14.00">EHLO/250:242</text>
</g>
<!-- q3:2 -->
<g id="node22" class="node">
<title>q3:2</title>
<ellipse fill="none" stroke="black" stroke-width="2" cx="491.48" cy="-90" rx="33.32" ry="18"/>
<text text-anchor="middle" x="491.48" y="-85.33" font-family="Times,serif" font-size="14.00">q3:2</text>
</g>
<!-- q1:244&#45;&gt;q3:2 -->
<g id="edge22" class="edge">
<title>q1:244&#45;&gt;q3:2</title>
<path fill="none" stroke="black" d="M297.96,-107.21C305.81,-105.51 314.03,-103.91 321.79,-102.75 363.62,-96.47 411.78,-93.22 445.9,-91.58"/>
<polygon fill="black" stroke="black" points="446,-95.08 455.84,-91.13 445.69,-88.08 446,-95.08"/>
<text text-anchor="middle" x="374.66" y="-105.95" font-family="Times,serif" font-size="14.00">EHLO/λ:2</text>
</g>
<!-- q2:242&#45;&gt;q5:232 -->
<g id="edge23" class="edge">
<title>q2:242&#45;&gt;q5:232</title>
<path fill="none" stroke="black" d="M533.11,-135.42C540.54,-133.86 548.22,-132.25 555.43,-130.75 602.41,-120.97 614.67,-120.78 661.18,-109 666.37,-107.69 671.77,-106.22 677.14,-104.69"/>
<polygon fill="black" stroke="black" points="677.93,-108.1 686.55,-101.94 675.97,-101.39 677.93,-108.1"/>
<text text-anchor="middle" x="608.31" y="-133.94" font-family="Times,serif" font-size="14.00">AUTH/235:230</text>
</g>
<!-- q4:12 -->
<g id="node23" class="node">
<title>q4:12</title>
<ellipse fill="none" stroke="black" stroke-width="2" cx="725.13" cy="-172" rx="39.63" ry="18"/>
<text text-anchor="middle" x="725.13" y="-167.32" font-family="Times,serif" font-size="14.00">q4:12</text>
</g>
<!-- q2:242&#45;&gt;q4:12 -->
<g id="edge24" class="edge">
<title>q2:242&#45;&gt;q4:12</title>
<path fill="none" stroke="black" d="M536.33,-149.3C575.69,-154.06 633.42,-161.04 674.47,-166"/>
<polygon fill="black" stroke="black" points="673.99,-169.47 684.34,-167.19 674.83,-162.52 673.99,-169.47"/>
<text text-anchor="middle" x="608.31" y="-166.94" font-family="Times,serif" font-size="14.00">AUTH/535:12</text>
</g>
<!-- q3:2&#45;&gt;q5:232 -->
<g id="edge25" class="edge">
<title>q3:2&#45;&gt;q5:232</title>
<path fill="none" stroke="black" d="M525.67,-90C562.42,-90 622.33,-90 666.72,-90"/>
<polygon fill="black" stroke="black" points="666.71,-93.5 676.71,-90 666.71,-86.5 666.71,-93.5"/>
<text text-anchor="middle" x="608.31" y="-93.95" font-family="Times,serif" font-size="14.00">AUTH/235:2</text>
</g>
<!-- q6:12 -->
<g id="node24" class="node">
<title>q6:12</title>
<ellipse fill="none" stroke="black" stroke-width="2" cx="954.27" cy="-198" rx="39.63" ry="18"/>
<text text-anchor="middle" x="954.27" y="-193.32" font-family="Times,serif" font-size="14.00">q6:12</text>
</g>
<!-- q4:12&#45;&gt;q6:12 -->
<g id="edge26" class="edge">
<title>q4:12&#45;&gt;q6:12</title>
<path fill="none" stroke="black" d="M764.4,-176.38C802.66,-180.76 861.65,-187.51 903.52,-192.3"/>
<polygon fill="black" stroke="black" points="903,-195.76 913.34,-193.43 903.8,-188.81 903,-195.76"/>
<text text-anchor="middle" x="839.7" y="-193.94" font-family="Times,serif" font-size="14.00">AUTH/334:12</text>
</g>
<!-- q9:12 -->
<g id="node25" class="node">
<title>q9:12</title>
<ellipse fill="none" stroke="black" stroke-width="2" cx="1196.5" cy="-216" rx="39.63" ry="18"/>
<text text-anchor="middle" x="1196.5" y="-211.32" font-family="Times,serif" font-size="14.00">q9:12</text>
</g>
<!-- q6:12&#45;&gt;q9:12 -->
<g id="edge27" class="edge">
<title>q6:12&#45;&gt;q9:12</title>
<path fill="none" stroke="black" d="M994.4,-200.93C1035.5,-204.01 1100.3,-208.86 1145.1,-212.23"/>
<polygon fill="black" stroke="black" points="1144.66,-215.71 1154.89,-212.96 1145.18,-208.73 1144.66,-215.71"/>
<text text-anchor="middle" x="1072.2" y="-213.94" font-family="Times,serif" font-size="14.00">content/535:12</text>
</g>
<!-- q12:4 -->
<g id="node26" class="node">
<title>q12:4</title>
<ellipse fill="none" stroke="black" stroke-width="2" cx="1446.1" cy="-217" rx="39.63" ry="18"/>
<text text-anchor="middle" x="1446.1" y="-212.32" font-family="Times,serif" font-size="14.00">q12:4</text>
</g>
<!-- q9:12&#45;&gt;q12:4 -->
<g id="edge28" class="edge">
<title>q9:12&#45;&gt;q12:4</title>
<path fill="none" stroke="black" d="M1237,-216.16C1279.6,-216.33 1347.8,-216.61 1394.3,-216.8"/>
<polygon fill="black" stroke="black" points="1394.17,-220.3 1404.19,-216.83 1394.2,-213.3 1394.17,-220.3"/>
<text text-anchor="middle" x="1318.1" y="-219.94" font-family="Times,serif" font-size="14.00">λ/451:4</text>
</g>
<!-- q0:244 -->
<g id="node27" class="node">
<title>q0:244</title>
<ellipse fill="none" stroke="black" stroke-width="2" cx="53.95" cy="-117" rx="49.95" ry="49.95"/>
<ellipse fill="none" stroke="black" stroke-width="2" cx="53.95" cy="-117" rx="53.95" ry="53.95"/>
<text text-anchor="middle" x="53.95" y="-112.33" font-family="Times,serif" font-size="14.00">q0:244</text>
</g>
<!-- q0:244&#45;&gt;q1:244 -->
<g id="edge29" class="edge">
<title>q0:244&#45;&gt;q1:244</title>
<path fill="none" stroke="black" d="M104.85,-117C133.64,-117 169.94,-117 199.84,-117"/>
<polygon fill="black" stroke="black" points="199.45,-120.5 209.45,-117 199.45,-113.5 199.45,-120.5"/>
<text text-anchor="middle" x="157.89" y="-120.95" font-family="Times,serif" font-size="14.00">λ/220:244</text>
</g>
</g>
</svg>
