<?xml version="1.0" encoding="UTF-8" standalone="no"?>
<!DOCTYPE svg PUBLIC "-//W3C//DTD SVG 1.1//EN"
 "http://www.w3.org/Graphics/SVG/1.1/DTD/svg11.dtd">
<!-- Generated by graphviz version 12.0.0 (20240803.0821)
 -->
<!-- Pages: 1 -->
<svg width="2253pt" height="244pt"
 viewBox="0.00 0.00 2253.26 244.00" xmlns="http://www.w3.org/2000/svg" xmlns:xlink="http://www.w3.org/1999/xlink">
<g id="graph0" class="graph" transform="scale(1 1) rotate(0) translate(4 240)">
<polygon fill="white" stroke="none" points="-4,4 -4,-240 2249.26,-240 2249.26,4 -4,4"/>
<!-- q13:3331 -->
<g id="node1" class="node">
<title>q13:3331</title>
<ellipse fill="none" stroke="black" stroke-width="2" cx="1688.2" cy="-72" rx="58.57" ry="18"/>
<text text-anchor="middle" x="1688.2" y="-67.33" font-family="Times,serif" font-size="14.00">q13:3331</text>
</g>
<!-- q13:3331&#45;&gt;q13:3331 -->
<g id="edge1" class="edge">
<title>q13:3331&#45;&gt;q13:3331</title>
<path fill="none" stroke="black" d="M1665.5,-89.41C1661.2,-99.09 1668.8,-108 1688.2,-108 1699.4,-108 1706.6,-105.02 1710,-100.64"/>
<polygon fill="black" stroke="black" points="1713.47,-101.17 1710.78,-90.92 1706.49,-100.61 1713.47,-101.17"/>
<text text-anchor="middle" x="1688.2" y="-111.95" font-family="Times,serif" font-size="14.00">content/λ:3143</text>
</g>
<!-- q18:127 -->
<g id="node2" class="node">
<title>q18:127</title>
<ellipse fill="none" stroke="black" stroke-width="2" cx="1952" cy="-126" rx="52.26" ry="18"/>
<text text-anchor="middle" x="1952" y="-121.33" font-family="Times,serif" font-size="14.00">q18:127</text>
</g>
<!-- q13:3331&#45;&gt;q18:127 -->
<g id="edge2" class="edge">
<title>q13:3331&#45;&gt;q18:127</title>
<path fill="none" stroke="black" d="M1732.2,-84.71C1742.8,-87.63 1754.1,-90.59 1764.8,-93 1807,-102.58 1855.1,-111.05 1891.9,-117.01"/>
<polygon fill="black" stroke="black" points="1890.98,-120.41 1901.4,-118.53 1892.08,-113.49 1890.98,-120.41"/>
<text text-anchor="middle" x="1823.3" y="-119.95" font-family="Times,serif" font-size="14.00">content/250:127</text>
</g>
<!-- q19:1 -->
<g id="node3" class="node">
<title>q19:1</title>
<ellipse fill="none" stroke="black" stroke-width="2" cx="1952" cy="-72" rx="39.63" ry="18"/>
<text text-anchor="middle" x="1952" y="-67.33" font-family="Times,serif" font-size="14.00">q19:1</text>
</g>
<!-- q13:3331&#45;&gt;q19:1 -->
<g id="edge3" class="edge">
<title>q13:3331&#45;&gt;q19:1</title>
<path fill="none" stroke="black" d="M1747.6,-72C1793.3,-72 1856.2,-72 1899.9,-72"/>
<polygon fill="black" stroke="black" points="1899.89,-75.5 1909.89,-72 1899.89,-68.5 1899.89,-75.5"/>
<text text-anchor="middle" x="1823.3" y="-75.95" font-family="Times,serif" font-size="14.00">content/550:1</text>
</g>
<!-- q17:60 -->
<g id="node4" class="node">
<title>q17:60</title>
<ellipse fill="none" stroke="black" stroke-width="2" cx="1952" cy="-18" rx="45.95" ry="18"/>
<text text-anchor="middle" x="1952" y="-13.32" font-family="Times,serif" font-size="14.00">q17:60</text>
</g>
<!-- q13:3331&#45;&gt;q17:60 -->
<g id="edge4" class="edge">
<title>q13:3331&#45;&gt;q17:60</title>
<path fill="none" stroke="black" d="M1731.8,-59.23C1742.5,-56.23 1754,-53.2 1764.8,-50.75 1808.9,-40.7 1859.4,-31.98 1896.7,-26.07"/>
<polygon fill="black" stroke="black" points="1897.06,-29.56 1906.4,-24.57 1895.98,-22.64 1897.06,-29.56"/>
<text text-anchor="middle" x="1823.3" y="-54.95" font-family="Times,serif" font-size="14.00">content/554:60</text>
</g>
<!-- q21:127 -->
<g id="node5" class="node">
<title>q21:127</title>
<ellipse fill="none" stroke="black" stroke-width="2" cx="2193" cy="-126" rx="52.26" ry="18"/>
<text text-anchor="middle" x="2193" y="-121.33" font-family="Times,serif" font-size="14.00">q21:127</text>
</g>
<!-- q18:127&#45;&gt;q21:127 -->
<g id="edge5" class="edge">
<title>q18:127&#45;&gt;q21:127</title>
<path fill="none" stroke="black" d="M2005.2,-126C2041.6,-126 2090.3,-126 2128.9,-126"/>
<polygon fill="black" stroke="black" points="2128.49,-129.5 2138.49,-126 2128.49,-122.5 2128.49,-129.5"/>
<text text-anchor="middle" x="2072.5" y="-129.94" font-family="Times,serif" font-size="14.00">QUIT/221:127</text>
</g>
<!-- q22:1 -->
<g id="node6" class="node">
<title>q22:1</title>
<ellipse fill="none" stroke="black" stroke-width="2" cx="2193" cy="-72" rx="39.63" ry="18"/>
<text text-anchor="middle" x="2193" y="-67.33" font-family="Times,serif" font-size="14.00">q22:1</text>
</g>
<!-- q19:1&#45;&gt;q22:1 -->
<g id="edge6" class="edge">
<title>q19:1&#45;&gt;q22:1</title>
<path fill="none" stroke="black" d="M1992.5,-72C2033.1,-72 2096.7,-72 2141.1,-72"/>
<polygon fill="black" stroke="black" points="2140.99,-75.5 2150.99,-72 2140.99,-68.5 2140.99,-75.5"/>
<text text-anchor="middle" x="2072.5" y="-75.95" font-family="Times,serif" font-size="14.00">RSET/250:1</text>
</g>
<!-- q20:60 -->
<g id="node7" class="node">
<title>q20:60</title>
<ellipse fill="none" stroke="black" stroke-width="2" cx="2193" cy="-18" rx="45.95" ry="18"/>
<text text-anchor="middle" x="2193" y="-13.32" font-family="Times,serif" font-size="14.00">q20:60</text>
</g>
<!-- q17:60&#45;&gt;q20:60 -->
<g id="edge7" class="edge">
<title>q17:60&#45;&gt;q20:60</title>
<path fill="none" stroke="black" d="M1998.8,-18C2037.6,-18 2093.4,-18 2135,-18"/>
<polygon fill="black" stroke="black" points="2134.89,-21.5 2144.89,-18 2134.89,-14.5 2134.89,-21.5"/>
<text text-anchor="middle" x="2072.5" y="-21.95" font-family="Times,serif" font-size="14.00">RSET/250:60</text>
</g>
<!-- q5:1 -->
<g id="node8" class="node">
<title>q5:1</title>
<ellipse fill="none" stroke="black" stroke-width="2" cx="839.7" cy="-172" rx="33.32" ry="18"/>
<text text-anchor="middle" x="839.7" y="-167.32" font-family="Times,serif" font-size="14.00">q5:1</text>
</g>
<!-- q8:172 -->
<g id="node9" class="node">
<title>q8:172</title>
<ellipse fill="none" stroke="black" stroke-width="2" cx="1446.2" cy="-127" rx="45.95" ry="18"/>
<text text-anchor="middle" x="1446.2" y="-122.33" font-family="Times,serif" font-size="14.00">q8:172</text>
</g>
<!-- q5:1&#45;&gt;q8:172 -->
<g id="edge8" class="edge">
<title>q5:1&#45;&gt;q8:172</title>
<path fill="none" stroke="black" d="M873.77,-171.58C944.85,-170.43 1117.4,-166.4 1261.4,-153 1305.6,-148.88 1355.5,-141.67 1392.1,-135.88"/>
<polygon fill="black" stroke="black" points="1392.18,-139.41 1401.5,-134.38 1391.08,-132.5 1392.18,-139.41"/>
<text text-anchor="middle" x="1084.8" y="-170.94" font-family="Times,serif" font-size="14.00">MAIL/250:1</text>
</g>
<!-- q8:172&#45;&gt;q13:3331 -->
<g id="edge9" class="edge">
<title>q8:172&#45;&gt;q13:3331</title>
<path fill="none" stroke="black" d="M1487.1,-117.86C1525.7,-109 1584.7,-95.48 1628.7,-85.41"/>
<polygon fill="black" stroke="black" points="1629.36,-88.85 1638.32,-83.21 1627.79,-82.03 1629.36,-88.85"/>
<text text-anchor="middle" x="1561" y="-116.95" font-family="Times,serif" font-size="14.00">DATA/354:120</text>
</g>
<!-- q8:172&#45;&gt;q8:172 -->
<g id="edge10" class="edge">
<title>q8:172&#45;&gt;q8:172</title>
<path fill="none" stroke="black" d="M1425.9,-144.04C1421.8,-153.86 1428.5,-163 1446.2,-163 1456.5,-163 1463.1,-159.94 1466,-155.47"/>
<polygon fill="black" stroke="black" points="1469.49,-155.72 1466.52,-145.55 1462.5,-155.35 1469.49,-155.72"/>
<text text-anchor="middle" x="1446.2" y="-166.94" font-family="Times,serif" font-size="14.00">RCPT/250:9</text>
</g>
<!-- q12:43 -->
<g id="node10" class="node">
<title>q12:43</title>
<ellipse fill="none" stroke="black" stroke-width="2" cx="1688.2" cy="-161" rx="45.95" ry="18"/>
<text text-anchor="middle" x="1688.2" y="-156.32" font-family="Times,serif" font-size="14.00">q12:43</text>
</g>
<!-- q8:172&#45;&gt;q12:43 -->
<g id="edge11" class="edge">
<title>q8:172&#45;&gt;q12:43</title>
<path fill="none" stroke="black" d="M1490.4,-133.12C1530.3,-138.77 1589.7,-147.19 1632.8,-153.3"/>
<polygon fill="black" stroke="black" points="1632.11,-156.74 1642.5,-154.66 1633.08,-149.81 1632.11,-156.74"/>
<text text-anchor="middle" x="1561" y="-153.94" font-family="Times,serif" font-size="14.00">DATA/550:43</text>
</g>
<!-- q15:230 -->
<g id="node11" class="node">
<title>q15:230</title>
<ellipse fill="none" stroke="black" stroke-width="2" cx="1209.1" cy="-72" rx="52.26" ry="18"/>
<text text-anchor="middle" x="1209.1" y="-67.33" font-family="Times,serif" font-size="14.00">q15:230</text>
</g>
<!-- q15:230&#45;&gt;q13:3331 -->
<g id="edge12" class="edge">
<title>q15:230&#45;&gt;q13:3331</title>
<path fill="none" stroke="black" d="M1262.1,-72C1348.3,-72 1520.9,-72 1617.6,-72"/>
<polygon fill="black" stroke="black" points="1617.49,-75.5 1627.49,-72 1617.49,-68.5 1617.49,-75.5"/>
<text text-anchor="middle" x="1446.2" y="-75.95" font-family="Times,serif" font-size="14.00">DATA/354:68</text>
</g>
<!-- q15:230&#45;&gt;q8:172 -->
<g id="edge13" class="edge">
<title>q15:230&#45;&gt;q8:172</title>
<path fill="none" stroke="black" d="M1253.8,-82.22C1293.7,-91.55 1352.7,-105.35 1394.6,-115.16"/>
<polygon fill="black" stroke="black" points="1393.69,-118.54 1404.23,-117.41 1395.28,-111.73 1393.69,-118.54"/>
<text text-anchor="middle" x="1330.7" y="-114.95" font-family="Times,serif" font-size="14.00">RCPT/250:162</text>
</g>
<!-- q0:244 -->
<g id="node12" class="node">
<title>q0:244</title>
<ellipse fill="none" stroke="black" stroke-width="2" cx="53.95" cy="-132" rx="49.95" ry="49.95"/>
<ellipse fill="none" stroke="black" stroke-width="2" cx="53.95" cy="-132" rx="53.95" ry="53.95"/>
<text text-anchor="middle" x="53.95" y="-127.33" font-family="Times,serif" font-size="14.00">q0:244</text>
</g>
<!-- q1:244 -->
<g id="node13" class="node">
<title>q1:244</title>
<ellipse fill="none" stroke="black" stroke-width="2" cx="257.84" cy="-132" rx="45.95" ry="18"/>
<text text-anchor="middle" x="257.84" y="-127.33" font-family="Times,serif" font-size="14.00">q1:244</text>
</g>
<!-- q0:244&#45;&gt;q1:244 -->
<g id="edge14" class="edge">
<title>q0:244&#45;&gt;q1:244</title>
<path fill="none" stroke="black" d="M104.85,-132C133.64,-132 169.94,-132 199.84,-132"/>
<polygon fill="black" stroke="black" points="199.45,-135.5 209.45,-132 199.45,-128.5 199.45,-135.5"/>
<text text-anchor="middle" x="157.89" y="-135.94" font-family="Times,serif" font-size="14.00">λ/220:244</text>
</g>
<!-- q2:242 -->
<g id="node14" class="node">
<title>q2:242</title>
<ellipse fill="none" stroke="black" stroke-width="2" cx="491.48" cy="-165" rx="45.95" ry="18"/>
<text text-anchor="middle" x="491.48" y="-160.32" font-family="Times,serif" font-size="14.00">q2:242</text>
</g>
<!-- q1:244&#45;&gt;q2:242 -->
<g id="edge15" class="edge">
<title>q1:244&#45;&gt;q2:242</title>
<path fill="none" stroke="black" d="M302.14,-138.17C340,-143.56 395.17,-151.42 436.02,-157.24"/>
<polygon fill="black" stroke="black" points="435.51,-160.7 445.9,-158.65 436.49,-153.77 435.51,-160.7"/>
<text text-anchor="middle" x="374.66" y="-158.94" font-family="Times,serif" font-size="14.00">EHLO/250:242</text>
</g>
<!-- q3:2 -->
<g id="node15" class="node">
<title>q3:2</title>
<ellipse fill="none" stroke="black" stroke-width="2" cx="491.48" cy="-105" rx="33.32" ry="18"/>
<text text-anchor="middle" x="491.48" y="-100.33" font-family="Times,serif" font-size="14.00">q3:2</text>
</g>
<!-- q1:244&#45;&gt;q3:2 -->
<g id="edge16" class="edge">
<title>q1:244&#45;&gt;q3:2</title>
<path fill="none" stroke="black" d="M296.21,-121.12C304.56,-119.03 313.43,-117.08 321.79,-115.75 363.53,-109.09 411.69,-106.52 445.85,-105.55"/>
<polygon fill="black" stroke="black" points="445.88,-109.05 455.8,-105.31 445.71,-102.05 445.88,-109.05"/>
<text text-anchor="middle" x="374.66" y="-119.95" font-family="Times,serif" font-size="14.00">EHLO/λ:2</text>
</g>
<!-- q2:242&#45;&gt;q5:1 -->
<g id="edge17" class="edge">
<title>q2:242&#45;&gt;q5:1</title>
<path fill="none" stroke="black" d="M538.1,-165.92C604.79,-167.27 728.13,-169.76 794.18,-171.1"/>
<polygon fill="black" stroke="black" points="793.86,-174.59 803.93,-171.3 794,-167.6 793.86,-174.59"/>
<text text-anchor="middle" x="608.31" y="-171.94" font-family="Times,serif" font-size="14.00">AUTH/λ:1</text>
</g>
<!-- q6:232 -->
<g id="node16" class="node">
<title>q6:232</title>
<ellipse fill="none" stroke="black" stroke-width="2" cx="725.13" cy="-105" rx="45.95" ry="18"/>
<text text-anchor="middle" x="725.13" y="-100.33" font-family="Times,serif" font-size="14.00">q6:232</text>
</g>
<!-- q2:242&#45;&gt;q6:232 -->
<g id="edge18" class="edge">
<title>q2:242&#45;&gt;q6:232</title>
<path fill="none" stroke="black" d="M518.34,-149.45C529.42,-143.41 542.72,-136.94 555.43,-132.75 591.87,-120.75 634.52,-113.79 667.82,-109.84"/>
<polygon fill="black" stroke="black" points="668.13,-113.33 677.68,-108.74 667.35,-106.37 668.13,-113.33"/>
<text text-anchor="middle" x="608.31" y="-135.94" font-family="Times,serif" font-size="14.00">AUTH/235:230</text>
</g>
<!-- q4:11 -->
<g id="node17" class="node">
<title>q4:11</title>
<ellipse fill="none" stroke="black" stroke-width="2" cx="725.13" cy="-218" rx="39.63" ry="18"/>
<text text-anchor="middle" x="725.13" y="-213.32" font-family="Times,serif" font-size="14.00">q4:11</text>
</g>
<!-- q2:242&#45;&gt;q4:11 -->
<g id="edge19" class="edge">
<title>q2:242&#45;&gt;q4:11</title>
<path fill="none" stroke="black" d="M521.01,-179.66C531.59,-184.56 543.83,-189.63 555.43,-193 594.39,-204.32 639.96,-210.68 673.92,-214.16"/>
<polygon fill="black" stroke="black" points="673.16,-217.6 683.45,-215.08 673.83,-210.64 673.16,-217.6"/>
<text text-anchor="middle" x="608.31" y="-215.94" font-family="Times,serif" font-size="14.00">AUTH/535:11</text>
</g>
<!-- q3:2&#45;&gt;q6:232 -->
<g id="edge20" class="edge">
<title>q3:2&#45;&gt;q6:232</title>
<path fill="none" stroke="black" d="M523.05,-97.83C533.28,-95.75 544.79,-93.78 555.43,-92.75 602.21,-88.24 614.4,-88.24 661.18,-92.75 665.01,-93.12 668.95,-93.61 672.91,-94.19"/>
<polygon fill="black" stroke="black" points="672.07,-97.6 682.51,-95.75 673.2,-90.69 672.07,-97.6"/>
<text text-anchor="middle" x="608.31" y="-96.95" font-family="Times,serif" font-size="14.00">AUTH/235:2</text>
</g>
<!-- q10:230 -->
<g id="node18" class="node">
<title>q10:230</title>
<ellipse fill="none" stroke="black" stroke-width="2" cx="960.59" cy="-72" rx="52.26" ry="18"/>
<text text-anchor="middle" x="960.59" y="-67.33" font-family="Times,serif" font-size="14.00">q10:230</text>
</g>
<!-- q6:232&#45;&gt;q10:230 -->
<g id="edge21" class="edge">
<title>q6:232&#45;&gt;q10:230</title>
<path fill="none" stroke="black" d="M765.28,-95.42C773.13,-93.7 781.34,-92.05 789.08,-90.75 824.81,-84.76 865.09,-80.23 897.52,-77.12"/>
<polygon fill="black" stroke="black" points="897.5,-80.64 907.13,-76.22 896.85,-73.67 897.5,-80.64"/>
<text text-anchor="middle" x="839.7" y="-94.95" font-family="Times,serif" font-size="14.00">MAIL/250:230</text>
</g>
<!-- q9:2 -->
<g id="node19" class="node">
<title>q9:2</title>
<ellipse fill="none" stroke="black" stroke-width="2" cx="960.59" cy="-126" rx="33.32" ry="18"/>
<text text-anchor="middle" x="960.59" y="-121.33" font-family="Times,serif" font-size="14.00">q9:2</text>
</g>
<!-- q6:232&#45;&gt;q9:2 -->
<g id="edge22" class="edge">
<title>q6:232&#45;&gt;q9:2</title>
<path fill="none" stroke="black" d="M770.87,-109.02C812.53,-112.77 874.27,-118.33 915.66,-122.05"/>
<polygon fill="black" stroke="black" points="915.25,-125.53 925.52,-122.93 915.87,-118.56 915.25,-125.53"/>
<text text-anchor="middle" x="839.7" y="-123.95" font-family="Times,serif" font-size="14.00">MAIL/553:2</text>
</g>
<!-- q7:11 -->
<g id="node20" class="node">
<title>q7:11</title>
<ellipse fill="none" stroke="black" stroke-width="2" cx="960.59" cy="-218" rx="39.63" ry="18"/>
<text text-anchor="middle" x="960.59" y="-213.32" font-family="Times,serif" font-size="14.00">q7:11</text>
</g>
<!-- q4:11&#45;&gt;q7:11 -->
<g id="edge23" class="edge">
<title>q4:11&#45;&gt;q7:11</title>
<path fill="none" stroke="black" d="M765.73,-218C805.17,-218 865.88,-218 908.84,-218"/>
<polygon fill="black" stroke="black" points="908.67,-221.5 918.67,-218 908.67,-214.5 908.67,-221.5"/>
<text text-anchor="middle" x="839.7" y="-221.94" font-family="Times,serif" font-size="14.00">AUTH/334:11</text>
</g>
<!-- q10:230&#45;&gt;q15:230 -->
<g id="edge24" class="edge">
<title>q10:230&#45;&gt;q15:230</title>
<path fill="none" stroke="black" d="M1013.6,-72C1051.8,-72 1104.1,-72 1144.8,-72"/>
<polygon fill="black" stroke="black" points="1144.69,-75.5 1154.69,-72 1144.69,-68.5 1144.69,-75.5"/>
<text text-anchor="middle" x="1084.8" y="-75.95" font-family="Times,serif" font-size="14.00">RCPT/250:230</text>
</g>
<!-- q14:2 -->
<g id="node23" class="node">
<title>q14:2</title>
<ellipse fill="none" stroke="black" stroke-width="2" cx="1209.1" cy="-126" rx="39.63" ry="18"/>
<text text-anchor="middle" x="1209.1" y="-121.33" font-family="Times,serif" font-size="14.00">q14:2</text>
</g>
<!-- q9:2&#45;&gt;q14:2 -->
<g id="edge27" class="edge">
<title>q9:2&#45;&gt;q14:2</title>
<path fill="none" stroke="black" d="M994.83,-126C1036.7,-126 1109,-126 1157.7,-126"/>
<polygon fill="black" stroke="black" points="1157.39,-129.5 1167.39,-126 1157.39,-122.5 1157.39,-129.5"/>
<text text-anchor="middle" x="1084.8" y="-129.94" font-family="Times,serif" font-size="14.00">RSET/250:2</text>
</g>
<!-- q11:11 -->
<g id="node21" class="node">
<title>q11:11</title>
<ellipse fill="none" stroke="black" stroke-width="2" cx="1209.1" cy="-218" rx="45.95" ry="18"/>
<text text-anchor="middle" x="1209.1" y="-213.32" font-family="Times,serif" font-size="14.00">q11:11</text>
</g>
<!-- q7:11&#45;&gt;q11:11 -->
<g id="edge25" class="edge">
<title>q7:11&#45;&gt;q11:11</title>
<path fill="none" stroke="black" d="M1001.19,-218C1041.7,-218 1105.1,-218 1151,-218"/>
<polygon fill="black" stroke="black" points="1150.79,-221.5 1160.79,-218 1150.79,-214.5 1150.79,-221.5"/>
<text text-anchor="middle" x="1084.8" y="-221.94" font-family="Times,serif" font-size="14.00">content/535:11</text>
</g>
<!-- q16:4 -->
<g id="node22" class="node">
<title>q16:4</title>
<ellipse fill="none" stroke="black" stroke-width="2" cx="1446.2" cy="-218" rx="39.63" ry="18"/>
<text text-anchor="middle" x="1446.2" y="-213.32" font-family="Times,serif" font-size="14.00">q16:4</text>
</g>
<!-- q11:11&#45;&gt;q16:4 -->
<g id="edge26" class="edge">
<title>q11:11&#45;&gt;q16:4</title>
<path fill="none" stroke="black" d="M1256,-218C1295.7,-218 1353.1,-218 1394.3,-218"/>
<polygon fill="black" stroke="black" points="1394.19,-221.5 1404.19,-218 1394.19,-214.5 1394.19,-221.5"/>
<text text-anchor="middle" x="1330.7" y="-221.94" font-family="Times,serif" font-size="14.00">λ/451:4</text>
</g>
</g>
</svg>
