<?xml version="1.0" encoding="UTF-8" standalone="no"?>
<!DOCTYPE svg PUBLIC "-//W3C//DTD SVG 1.1//EN"
 "http://www.w3.org/Graphics/SVG/1.1/DTD/svg11.dtd">
<!-- Generated by graphviz version 12.0.0 (20240803.0821)
 -->
<!-- Pages: 1 -->
<svg width="2002pt" height="205pt"
 viewBox="0.00 0.00 2001.86 205.00" xmlns="http://www.w3.org/2000/svg" xmlns:xlink="http://www.w3.org/1999/xlink">
<g id="graph0" class="graph" transform="scale(1 1) rotate(0) translate(4 201)">
<polygon fill="white" stroke="none" points="-4,4 -4,-201 1997.86,-201 1997.86,4 -4,4"/>
<!-- q1:244 -->
<g id="node1" class="node">
<title>q1:244</title>
<ellipse fill="none" stroke="black" stroke-width="2" cx="257.84" cy="-67" rx="45.95" ry="18"/>
<text text-anchor="middle" x="257.84" y="-62.33" font-family="Times,serif" font-size="14.00">q1:244</text>
</g>
<!-- q3:243 -->
<g id="node2" class="node">
<title>q3:243</title>
<ellipse fill="none" stroke="black" stroke-width="2" cx="491.48" cy="-100" rx="45.95" ry="18"/>
<text text-anchor="middle" x="491.48" y="-95.33" font-family="Times,serif" font-size="14.00">q3:243</text>
</g>
<!-- q1:244&#45;&gt;q3:243 -->
<g id="edge1" class="edge">
<title>q1:244&#45;&gt;q3:243</title>
<path fill="none" stroke="black" d="M302.14,-73.17C340,-78.56 395.17,-86.42 436.02,-92.24"/>
<polygon fill="black" stroke="black" points="435.51,-95.7 445.9,-93.65 436.49,-88.77 435.51,-95.7"/>
<text text-anchor="middle" x="374.66" y="-93.95" font-family="Times,serif" font-size="14.00">EHLO/250:243</text>
</g>
<!-- q2:1 -->
<g id="node3" class="node">
<title>q2:1</title>
<ellipse fill="none" stroke="black" stroke-width="2" cx="491.48" cy="-40" rx="33.32" ry="18"/>
<text text-anchor="middle" x="491.48" y="-35.33" font-family="Times,serif" font-size="14.00">q2:1</text>
</g>
<!-- q1:244&#45;&gt;q2:1 -->
<g id="edge2" class="edge">
<title>q1:244&#45;&gt;q2:1</title>
<path fill="none" stroke="black" d="M298.66,-57.83C306.31,-56.29 314.27,-54.84 321.79,-53.75 363.67,-47.66 411.82,-44.07 445.93,-42.1"/>
<polygon fill="black" stroke="black" points="446.07,-45.59 455.86,-41.55 445.68,-38.6 446.07,-45.59"/>
<text text-anchor="middle" x="374.66" y="-57.95" font-family="Times,serif" font-size="14.00">EHLO/λ:1</text>
</g>
<!-- q6:12 -->
<g id="node4" class="node">
<title>q6:12</title>
<ellipse fill="none" stroke="black" stroke-width="2" cx="725.13" cy="-164" rx="39.63" ry="18"/>
<text text-anchor="middle" x="725.13" y="-159.32" font-family="Times,serif" font-size="14.00">q6:12</text>
</g>
<!-- q3:243&#45;&gt;q6:12 -->
<g id="edge3" class="edge">
<title>q3:243&#45;&gt;q6:12</title>
<path fill="none" stroke="black" d="M523.85,-113.54C533.83,-117.55 544.99,-121.74 555.43,-125 595.65,-137.56 642.39,-148.05 676.47,-154.98"/>
<polygon fill="black" stroke="black" points="675.53,-158.36 686.03,-156.89 676.91,-151.5 675.53,-158.36"/>
<text text-anchor="middle" x="608.31" y="-154.94" font-family="Times,serif" font-size="14.00">AUTH/535:12</text>
</g>
<!-- q5:230 -->
<g id="node5" class="node">
<title>q5:230</title>
<ellipse fill="none" stroke="black" stroke-width="2" cx="725.13" cy="-107" rx="45.95" ry="18"/>
<text text-anchor="middle" x="725.13" y="-102.33" font-family="Times,serif" font-size="14.00">q5:230</text>
</g>
<!-- q3:243&#45;&gt;q5:230 -->
<g id="edge4" class="edge">
<title>q3:243&#45;&gt;q5:230</title>
<path fill="none" stroke="black" d="M538.25,-101.38C575.21,-102.5 627.42,-104.08 667.1,-105.28"/>
<polygon fill="black" stroke="black" points="666.85,-108.77 676.95,-105.57 667.06,-101.78 666.85,-108.77"/>
<text text-anchor="middle" x="608.31" y="-107.95" font-family="Times,serif" font-size="14.00">AUTH/235:230</text>
</g>
<!-- q4:2 -->
<g id="node6" class="node">
<title>q4:2</title>
<ellipse fill="none" stroke="black" stroke-width="2" cx="725.13" cy="-27" rx="33.32" ry="18"/>
<text text-anchor="middle" x="725.13" y="-22.32" font-family="Times,serif" font-size="14.00">q4:2</text>
</g>
<!-- q3:243&#45;&gt;q4:2 -->
<g id="edge5" class="edge">
<title>q3:243&#45;&gt;q4:2</title>
<path fill="none" stroke="black" d="M528.68,-88.59C570.94,-75.28 640.6,-53.32 684.34,-39.54"/>
<polygon fill="black" stroke="black" points="685.21,-42.93 693.7,-36.59 683.11,-36.26 685.21,-42.93"/>
<text text-anchor="middle" x="608.31" y="-81.95" font-family="Times,serif" font-size="14.00">AUTH/λ:1</text>
</g>
<!-- q2:1&#45;&gt;q4:2 -->
<g id="edge6" class="edge">
<title>q2:1&#45;&gt;q4:2</title>
<path fill="none" stroke="black" d="M523.05,-32.86C533.28,-30.78 544.8,-28.8 555.43,-27.75 597.41,-23.61 645.55,-23.89 679.63,-24.93"/>
<polygon fill="black" stroke="black" points="679.43,-28.42 689.55,-25.27 679.67,-21.43 679.43,-28.42"/>
<text text-anchor="middle" x="608.31" y="-31.95" font-family="Times,serif" font-size="14.00">AUTH/235:1</text>
</g>
<!-- q10:12 -->
<g id="node7" class="node">
<title>q10:12</title>
<ellipse fill="none" stroke="black" stroke-width="2" cx="954.45" cy="-179" rx="45.95" ry="18"/>
<text text-anchor="middle" x="954.45" y="-174.32" font-family="Times,serif" font-size="14.00">q10:12</text>
</g>
<!-- q6:12&#45;&gt;q10:12 -->
<g id="edge7" class="edge">
<title>q6:12&#45;&gt;q10:12</title>
<path fill="none" stroke="black" d="M765.21,-166.58C801.45,-168.97 855.8,-172.56 896.8,-175.26"/>
<polygon fill="black" stroke="black" points="896.53,-178.75 906.74,-175.92 896.99,-171.77 896.53,-178.75"/>
<text text-anchor="middle" x="837.45" y="-177.94" font-family="Times,serif" font-size="14.00">AUTH/334:12</text>
</g>
<!-- q9:3 -->
<g id="node8" class="node">
<title>q9:3</title>
<ellipse fill="none" stroke="black" stroke-width="2" cx="954.45" cy="-125" rx="33.32" ry="18"/>
<text text-anchor="middle" x="954.45" y="-120.33" font-family="Times,serif" font-size="14.00">q9:3</text>
</g>
<!-- q5:230&#45;&gt;q9:3 -->
<g id="edge8" class="edge">
<title>q5:230&#45;&gt;q9:3</title>
<path fill="none" stroke="black" d="M771.04,-110.56C811.11,-113.73 869.45,-118.35 909.29,-121.5"/>
<polygon fill="black" stroke="black" points="909.02,-124.99 919.26,-122.29 909.57,-118.01 909.02,-124.99"/>
<text text-anchor="middle" x="837.45" y="-122.95" font-family="Times,serif" font-size="14.00">MAIL/553:3</text>
</g>
<!-- q8:604 -->
<g id="node9" class="node">
<title>q8:604</title>
<ellipse fill="none" stroke="black" stroke-width="2" cx="1195" cy="-32" rx="45.95" ry="18"/>
<text text-anchor="middle" x="1195" y="-27.32" font-family="Times,serif" font-size="14.00">q8:604</text>
</g>
<!-- q5:230&#45;&gt;q8:604 -->
<g id="edge9" class="edge">
<title>q5:230&#45;&gt;q8:604</title>
<path fill="none" stroke="black" d="M769.2,-100.49C805.17,-95.08 857.82,-87.26 903.83,-80.75 1004.7,-66.47 1031.3,-70.9 1131.1,-50 1136.2,-48.92 1141.6,-47.64 1146.9,-46.27"/>
<polygon fill="black" stroke="black" points="1147.4,-49.76 1156.14,-43.77 1145.57,-43.01 1147.4,-49.76"/>
<text text-anchor="middle" x="954.45" y="-83.95" font-family="Times,serif" font-size="14.00">MAIL/250:227</text>
</g>
<!-- q7:2 -->
<g id="node10" class="node">
<title>q7:2</title>
<ellipse fill="none" stroke="black" stroke-width="2" cx="954.45" cy="-18" rx="33.32" ry="18"/>
<text text-anchor="middle" x="954.45" y="-13.32" font-family="Times,serif" font-size="14.00">q7:2</text>
</g>
<!-- q4:2&#45;&gt;q7:2 -->
<g id="edge10" class="edge">
<title>q4:2&#45;&gt;q7:2</title>
<path fill="none" stroke="black" d="M759.18,-25.69C798.66,-24.13 864.87,-21.51 908.86,-19.77"/>
<polygon fill="black" stroke="black" points="908.99,-23.26 918.85,-19.37 908.72,-16.27 908.99,-23.26"/>
<text text-anchor="middle" x="837.45" y="-28.95" font-family="Times,serif" font-size="14.00">MAIL/250:2</text>
</g>
<!-- q14:12 -->
<g id="node11" class="node">
<title>q14:12</title>
<ellipse fill="none" stroke="black" stroke-width="2" cx="1195" cy="-179" rx="45.95" ry="18"/>
<text text-anchor="middle" x="1195" y="-174.32" font-family="Times,serif" font-size="14.00">q14:12</text>
</g>
<!-- q10:12&#45;&gt;q14:12 -->
<g id="edge11" class="edge">
<title>q10:12&#45;&gt;q14:12</title>
<path fill="none" stroke="black" d="M1001.17,-179C1039.9,-179 1095.5,-179 1137.1,-179"/>
<polygon fill="black" stroke="black" points="1136.99,-182.5 1146.99,-179 1136.99,-175.5 1136.99,-182.5"/>
<text text-anchor="middle" x="1077.1" y="-182.94" font-family="Times,serif" font-size="14.00">content/535:12</text>
</g>
<!-- q13:3 -->
<g id="node12" class="node">
<title>q13:3</title>
<ellipse fill="none" stroke="black" stroke-width="2" cx="1195" cy="-125" rx="39.63" ry="18"/>
<text text-anchor="middle" x="1195" y="-120.33" font-family="Times,serif" font-size="14.00">q13:3</text>
</g>
<!-- q9:3&#45;&gt;q13:3 -->
<g id="edge12" class="edge">
<title>q9:3&#45;&gt;q13:3</title>
<path fill="none" stroke="black" d="M988.62,-125C1028.8,-125 1096.7,-125 1143.4,-125"/>
<polygon fill="black" stroke="black" points="1143.29,-128.5 1153.29,-125 1143.29,-121.5 1143.29,-128.5"/>
<text text-anchor="middle" x="1077.1" y="-128.94" font-family="Times,serif" font-size="14.00">RSET/250:3</text>
</g>
<!-- q8:604&#45;&gt;q8:604 -->
<g id="edge13" class="edge">
<title>q8:604&#45;&gt;q8:604</title>
<path fill="none" stroke="black" d="M1174.7,-49.04C1170.6,-58.86 1177.3,-68 1195,-68 1205.2,-68 1211.8,-64.94 1214.7,-60.47"/>
<polygon fill="black" stroke="black" points="1218.19,-60.72 1215.22,-50.55 1211.2,-60.35 1218.19,-60.72"/>
<text text-anchor="middle" x="1195" y="-71.95" font-family="Times,serif" font-size="14.00">RCPT/250:375</text>
</g>
<!-- q11:2640 -->
<g id="node13" class="node">
<title>q11:2640</title>
<ellipse fill="none" stroke="black" stroke-width="2" cx="1436.8" cy="-86" rx="58.57" ry="18"/>
<text text-anchor="middle" x="1436.8" y="-81.33" font-family="Times,serif" font-size="14.00">q11:2640</text>
</g>
<!-- q8:604&#45;&gt;q11:2640 -->
<g id="edge14" class="edge">
<title>q8:604&#45;&gt;q11:2640</title>
<path fill="none" stroke="black" d="M1230.4,-44.42C1239.6,-47.48 1249.6,-50.58 1259,-53 1295.9,-62.56 1337.9,-70.51 1371.6,-76.21"/>
<polygon fill="black" stroke="black" points="1370.87,-79.64 1381.31,-77.81 1372.01,-72.73 1370.87,-79.64"/>
<text text-anchor="middle" x="1309.6" y="-77.95" font-family="Times,serif" font-size="14.00">DATA/354:186</text>
</g>
<!-- q12:43 -->
<g id="node14" class="node">
<title>q12:43</title>
<ellipse fill="none" stroke="black" stroke-width="2" cx="1436.8" cy="-32" rx="45.95" ry="18"/>
<text text-anchor="middle" x="1436.8" y="-27.32" font-family="Times,serif" font-size="14.00">q12:43</text>
</g>
<!-- q8:604&#45;&gt;q12:43 -->
<g id="edge15" class="edge">
<title>q8:604&#45;&gt;q12:43</title>
<path fill="none" stroke="black" d="M1242,-32C1280.9,-32 1336.8,-32 1378.6,-32"/>
<polygon fill="black" stroke="black" points="1378.49,-35.5 1388.49,-32 1378.49,-28.5 1378.49,-35.5"/>
<text text-anchor="middle" x="1309.6" y="-35.95" font-family="Times,serif" font-size="14.00">DATA/550:43</text>
</g>
<!-- q7:2&#45;&gt;q8:604 -->
<g id="edge16" class="edge">
<title>q7:2&#45;&gt;q8:604</title>
<path fill="none" stroke="black" d="M988.12,-19.92C1026.5,-22.17 1090.7,-25.94 1137.3,-28.67"/>
<polygon fill="black" stroke="black" points="1137,-32.16 1147.19,-29.25 1137.41,-25.17 1137,-32.16"/>
<text text-anchor="middle" x="1077.1" y="-32.95" font-family="Times,serif" font-size="14.00">RCPT/250:2</text>
</g>
<!-- q18:4 -->
<g id="node15" class="node">
<title>q18:4</title>
<ellipse fill="none" stroke="black" stroke-width="2" cx="1436.8" cy="-179" rx="39.63" ry="18"/>
<text text-anchor="middle" x="1436.8" y="-174.32" font-family="Times,serif" font-size="14.00">q18:4</text>
</g>
<!-- q14:12&#45;&gt;q18:4 -->
<g id="edge17" class="edge">
<title>q14:12&#45;&gt;q18:4</title>
<path fill="none" stroke="black" d="M1242,-179C1282.9,-179 1342.6,-179 1384.9,-179"/>
<polygon fill="black" stroke="black" points="1384.89,-182.5 1394.89,-179 1384.89,-175.5 1384.89,-182.5"/>
<text text-anchor="middle" x="1309.6" y="-182.94" font-family="Times,serif" font-size="14.00">λ/451:4</text>
</g>
<!-- q11:2640&#45;&gt;q11:2640 -->
<g id="edge18" class="edge">
<title>q11:2640&#45;&gt;q11:2640</title>
<path fill="none" stroke="black" d="M1414.1,-103.41C1409.8,-113.09 1417.4,-122 1436.8,-122 1448,-122 1455.3,-119.02 1458.6,-114.64"/>
<polygon fill="black" stroke="black" points="1462.07,-115.17 1459.38,-104.92 1455.09,-114.61 1462.07,-115.17"/>
<text text-anchor="middle" x="1436.8" y="-125.95" font-family="Times,serif" font-size="14.00">content/λ:2454</text>
</g>
<!-- q17:1 -->
<g id="node16" class="node">
<title>q17:1</title>
<ellipse fill="none" stroke="black" stroke-width="2" cx="1700.6" cy="-140" rx="39.63" ry="18"/>
<text text-anchor="middle" x="1700.6" y="-135.32" font-family="Times,serif" font-size="14.00">q17:1</text>
</g>
<!-- q11:2640&#45;&gt;q17:1 -->
<g id="edge19" class="edge">
<title>q11:2640&#45;&gt;q17:1</title>
<path fill="none" stroke="black" d="M1480.8,-98.71C1491.4,-101.63 1502.7,-104.59 1513.4,-107 1559.7,-117.51 1613.1,-126.67 1650.8,-132.66"/>
<polygon fill="black" stroke="black" points="1650.08,-136.09 1660.5,-134.18 1651.16,-129.17 1650.08,-136.09"/>
<text text-anchor="middle" x="1571.9" y="-132.94" font-family="Times,serif" font-size="14.00">content/550:1</text>
</g>
<!-- q16:113 -->
<g id="node17" class="node">
<title>q16:113</title>
<ellipse fill="none" stroke="black" stroke-width="2" cx="1700.6" cy="-86" rx="52.26" ry="18"/>
<text text-anchor="middle" x="1700.6" y="-81.33" font-family="Times,serif" font-size="14.00">q16:113</text>
</g>
<!-- q11:2640&#45;&gt;q16:113 -->
<g id="edge20" class="edge">
<title>q11:2640&#45;&gt;q16:113</title>
<path fill="none" stroke="black" d="M1496.2,-86C1537.8,-86 1593.6,-86 1636.2,-86"/>
<polygon fill="black" stroke="black" points="1636.09,-89.5 1646.09,-86 1636.09,-82.5 1636.09,-89.5"/>
<text text-anchor="middle" x="1571.9" y="-89.95" font-family="Times,serif" font-size="14.00">content/250:113</text>
</g>
<!-- q15:72 -->
<g id="node18" class="node">
<title>q15:72</title>
<ellipse fill="none" stroke="black" stroke-width="2" cx="1700.6" cy="-32" rx="45.95" ry="18"/>
<text text-anchor="middle" x="1700.6" y="-27.32" font-family="Times,serif" font-size="14.00">q15:72</text>
</g>
<!-- q11:2640&#45;&gt;q15:72 -->
<g id="edge21" class="edge">
<title>q11:2640&#45;&gt;q15:72</title>
<path fill="none" stroke="black" d="M1480.4,-73.22C1491.1,-70.23 1502.6,-67.2 1513.4,-64.75 1557.5,-54.7 1608,-45.98 1645.3,-40.08"/>
<polygon fill="black" stroke="black" points="1645.66,-43.56 1655,-38.57 1644.58,-36.64 1645.66,-43.56"/>
<text text-anchor="middle" x="1571.9" y="-68.95" font-family="Times,serif" font-size="14.00">content/554:72</text>
</g>
<!-- q21:1 -->
<g id="node20" class="node">
<title>q21:1</title>
<ellipse fill="none" stroke="black" stroke-width="2" cx="1941.6" cy="-140" rx="39.63" ry="18"/>
<text text-anchor="middle" x="1941.6" y="-135.32" font-family="Times,serif" font-size="14.00">q21:1</text>
</g>
<!-- q17:1&#45;&gt;q21:1 -->
<g id="edge23" class="edge">
<title>q17:1&#45;&gt;q21:1</title>
<path fill="none" stroke="black" d="M1741.1,-140C1781.7,-140 1845.3,-140 1889.7,-140"/>
<polygon fill="black" stroke="black" points="1889.59,-143.5 1899.59,-140 1889.59,-136.5 1889.59,-143.5"/>
<text text-anchor="middle" x="1821.1" y="-143.94" font-family="Times,serif" font-size="14.00">RSET/250:1</text>
</g>
<!-- q20:113 -->
<g id="node21" class="node">
<title>q20:113</title>
<ellipse fill="none" stroke="black" stroke-width="2" cx="1941.6" cy="-86" rx="52.26" ry="18"/>
<text text-anchor="middle" x="1941.6" y="-81.33" font-family="Times,serif" font-size="14.00">q20:113</text>
</g>
<!-- q16:113&#45;&gt;q20:113 -->
<g id="edge24" class="edge">
<title>q16:113&#45;&gt;q20:113</title>
<path fill="none" stroke="black" d="M1753.8,-86C1790.2,-86 1838.9,-86 1877.5,-86"/>
<polygon fill="black" stroke="black" points="1877.09,-89.5 1887.09,-86 1877.09,-82.5 1877.09,-89.5"/>
<text text-anchor="middle" x="1821.1" y="-89.95" font-family="Times,serif" font-size="14.00">QUIT/221:113</text>
</g>
<!-- q19:72 -->
<g id="node22" class="node">
<title>q19:72</title>
<ellipse fill="none" stroke="black" stroke-width="2" cx="1941.6" cy="-32" rx="45.95" ry="18"/>
<text text-anchor="middle" x="1941.6" y="-27.32" font-family="Times,serif" font-size="14.00">q19:72</text>
</g>
<!-- q15:72&#45;&gt;q19:72 -->
<g id="edge25" class="edge">
<title>q15:72&#45;&gt;q19:72</title>
<path fill="none" stroke="black" d="M1747.4,-32C1786.2,-32 1842,-32 1883.6,-32"/>
<polygon fill="black" stroke="black" points="1883.49,-35.5 1893.49,-32 1883.49,-28.5 1883.49,-35.5"/>
<text text-anchor="middle" x="1821.1" y="-35.95" font-family="Times,serif" font-size="14.00">RSET/250:72</text>
</g>
<!-- q0:244 -->
<g id="node19" class="node">
<title>q0:244</title>
<ellipse fill="none" stroke="black" stroke-width="2" cx="53.95" cy="-67" rx="49.95" ry="49.95"/>
<ellipse fill="none" stroke="black" stroke-width="2" cx="53.95" cy="-67" rx="53.95" ry="53.95"/>
<text text-anchor="middle" x="53.95" y="-62.33" font-family="Times,serif" font-size="14.00">q0:244</text>
</g>
<!-- q0:244&#45;&gt;q1:244 -->
<g id="edge22" class="edge">
<title>q0:244&#45;&gt;q1:244</title>
<path fill="none" stroke="black" d="M104.85,-67C133.64,-67 169.94,-67 199.84,-67"/>
<polygon fill="black" stroke="black" points="199.45,-70.5 209.45,-67 199.45,-63.5 199.45,-70.5"/>
<text text-anchor="middle" x="157.89" y="-70.95" font-family="Times,serif" font-size="14.00">λ/220:244</text>
</g>
</g>
</svg>
