<?xml version="1.0" encoding="UTF-8" standalone="no"?>
<!DOCTYPE svg PUBLIC "-//W3C//DTD SVG 1.1//EN"
 "http://www.w3.org/Graphics/SVG/1.1/DTD/svg11.dtd">
<!-- Generated by graphviz version 12.0.0 (20240803.0821)
 -->
<!-- Pages: 1 -->
<svg width="2460pt" height="336pt"
 viewBox="0.00 0.00 2459.73 336.25" xmlns="http://www.w3.org/2000/svg" xmlns:xlink="http://www.w3.org/1999/xlink">
<g id="graph0" class="graph" transform="scale(1 1) rotate(0) translate(4 332.25)">
<polygon fill="white" stroke="none" points="-4,4 -4,-332.25 2455.73,-332.25 2455.73,4 -4,4"/>
<!-- q18:8 -->
<g id="node1" class="node">
<title>q18:8</title>
<ellipse fill="none" stroke="black" stroke-width="2" cx="1694.6" cy="-275" rx="39.63" ry="18"/>
<text text-anchor="middle" x="1694.6" y="-270.32" font-family="Times,serif" font-size="14.00">q18:8</text>
</g>
<!-- q18:8&#45;&gt;q18:8 -->
<g id="edge1" class="edge">
<title>q18:8&#45;&gt;q18:8</title>
<path fill="none" stroke="black" d="M1672.3,-290.54C1666,-300.91 1673.4,-311 1694.6,-311 1707.5,-311 1715.3,-307.25 1718,-301.98"/>
<polygon fill="black" stroke="black" points="1721.49,-301.67 1717.04,-292.05 1714.52,-302.34 1721.49,-301.67"/>
<text text-anchor="middle" x="1694.6" y="-314.94" font-family="Times,serif" font-size="14.00">RCPT/250:7</text>
</g>
<!-- q25:1 -->
<g id="node2" class="node">
<title>q25:1</title>
<ellipse fill="none" stroke="black" stroke-width="2" cx="1958.4" cy="-288" rx="39.63" ry="18"/>
<text text-anchor="middle" x="1958.4" y="-283.32" font-family="Times,serif" font-size="14.00">q25:1</text>
</g>
<!-- q18:8&#45;&gt;q25:1 -->
<g id="edge2" class="edge">
<title>q18:8&#45;&gt;q25:1</title>
<path fill="none" stroke="black" d="M1734.8,-276.95C1780.7,-279.23 1856.9,-283.01 1907.1,-285.5"/>
<polygon fill="black" stroke="black" points="1906.73,-288.99 1916.89,-285.99 1907.07,-281.99 1906.73,-288.99"/>
<text text-anchor="middle" x="1829.7" y="-287.94" font-family="Times,serif" font-size="14.00">DATA/354:1</text>
</g>
<!-- q31:1 -->
<g id="node3" class="node">
<title>q31:1</title>
<ellipse fill="none" stroke="black" stroke-width="2" cx="2199.4" cy="-288" rx="39.63" ry="18"/>
<text text-anchor="middle" x="2199.4" y="-283.32" font-family="Times,serif" font-size="14.00">q31:1</text>
</g>
<!-- q25:1&#45;&gt;q31:1 -->
<g id="edge3" class="edge">
<title>q25:1&#45;&gt;q31:1</title>
<path fill="none" stroke="black" d="M1998.9,-288C2039.5,-288 2103.1,-288 2147.5,-288"/>
<polygon fill="black" stroke="black" points="2147.39,-291.5 2157.39,-288 2147.39,-284.5 2147.39,-291.5"/>
<text text-anchor="middle" x="2078.9" y="-291.94" font-family="Times,serif" font-size="14.00">content/554:1</text>
</g>
<!-- q32:1 -->
<g id="node4" class="node">
<title>q32:1</title>
<ellipse fill="none" stroke="black" stroke-width="2" cx="2412.1" cy="-288" rx="39.63" ry="18"/>
<text text-anchor="middle" x="2412.1" y="-283.32" font-family="Times,serif" font-size="14.00">q32:1</text>
</g>
<!-- q31:1&#45;&gt;q32:1 -->
<g id="edge4" class="edge">
<title>q31:1&#45;&gt;q32:1</title>
<path fill="none" stroke="black" d="M2240.1,-288C2274.2,-288 2323.6,-288 2360.6,-288"/>
<polygon fill="black" stroke="black" points="2360.09,-291.5 2370.09,-288 2360.09,-284.5 2360.09,-291.5"/>
<text text-anchor="middle" x="2312.1" y="-291.94" font-family="Times,serif" font-size="14.00">RSET/250:1</text>
</g>
<!-- q1:244 -->
<g id="node5" class="node">
<title>q1:244</title>
<ellipse fill="none" stroke="black" stroke-width="2" cx="257.84" cy="-135" rx="45.95" ry="18"/>
<text text-anchor="middle" x="257.84" y="-130.32" font-family="Times,serif" font-size="14.00">q1:244</text>
</g>
<!-- q3:242 -->
<g id="node6" class="node">
<title>q3:242</title>
<ellipse fill="none" stroke="black" stroke-width="2" cx="491.48" cy="-168" rx="45.95" ry="18"/>
<text text-anchor="middle" x="491.48" y="-163.32" font-family="Times,serif" font-size="14.00">q3:242</text>
</g>
<!-- q1:244&#45;&gt;q3:242 -->
<g id="edge5" class="edge">
<title>q1:244&#45;&gt;q3:242</title>
<path fill="none" stroke="black" d="M302.14,-141.17C340,-146.56 395.17,-154.42 436.02,-160.24"/>
<polygon fill="black" stroke="black" points="435.51,-163.7 445.9,-161.65 436.49,-156.77 435.51,-163.7"/>
<text text-anchor="middle" x="374.66" y="-161.94" font-family="Times,serif" font-size="14.00">EHLO/250:242</text>
</g>
<!-- q2:2 -->
<g id="node7" class="node">
<title>q2:2</title>
<ellipse fill="none" stroke="black" stroke-width="2" cx="491.48" cy="-108" rx="33.32" ry="18"/>
<text text-anchor="middle" x="491.48" y="-103.33" font-family="Times,serif" font-size="14.00">q2:2</text>
</g>
<!-- q1:244&#45;&gt;q2:2 -->
<g id="edge6" class="edge">
<title>q1:244&#45;&gt;q2:2</title>
<path fill="none" stroke="black" d="M298.66,-125.83C306.31,-124.29 314.27,-122.84 321.79,-121.75 363.67,-115.66 411.82,-112.07 445.93,-110.1"/>
<polygon fill="black" stroke="black" points="446.07,-113.6 455.86,-109.54 445.68,-106.61 446.07,-113.6"/>
<text text-anchor="middle" x="374.66" y="-124.95" font-family="Times,serif" font-size="14.00">EHLO/λ:2</text>
</g>
<!-- q5:1 -->
<g id="node8" class="node">
<title>q5:1</title>
<ellipse fill="none" stroke="black" stroke-width="2" cx="725.13" cy="-171" rx="33.32" ry="18"/>
<text text-anchor="middle" x="725.13" y="-166.32" font-family="Times,serif" font-size="14.00">q5:1</text>
</g>
<!-- q3:242&#45;&gt;q5:1 -->
<g id="edge7" class="edge">
<title>q3:242&#45;&gt;q5:1</title>
<path fill="none" stroke="black" d="M538.25,-168.59C579.17,-169.12 638.78,-169.89 679.39,-170.42"/>
<polygon fill="black" stroke="black" points="679.26,-173.92 689.31,-170.55 679.35,-166.92 679.26,-173.92"/>
<text text-anchor="middle" x="608.31" y="-173.94" font-family="Times,serif" font-size="14.00">AUTH/λ:1</text>
</g>
<!-- q4:232 -->
<g id="node9" class="node">
<title>q4:232</title>
<ellipse fill="none" stroke="black" stroke-width="2" cx="725.13" cy="-101" rx="45.95" ry="18"/>
<text text-anchor="middle" x="725.13" y="-96.33" font-family="Times,serif" font-size="14.00">q4:232</text>
</g>
<!-- q3:242&#45;&gt;q4:232 -->
<g id="edge8" class="edge">
<title>q3:242&#45;&gt;q4:232</title>
<path fill="none" stroke="black" d="M527.32,-155.82C536.44,-152.75 546.27,-149.54 555.43,-146.75 595.08,-134.69 640.43,-122.48 674.12,-113.71"/>
<polygon fill="black" stroke="black" points="674.8,-117.15 683.6,-111.25 673.05,-110.37 674.8,-117.15"/>
<text text-anchor="middle" x="608.31" y="-149.94" font-family="Times,serif" font-size="14.00">AUTH/235:230</text>
</g>
<!-- q6:11 -->
<g id="node10" class="node">
<title>q6:11</title>
<ellipse fill="none" stroke="black" stroke-width="2" cx="725.13" cy="-225" rx="39.63" ry="18"/>
<text text-anchor="middle" x="725.13" y="-220.32" font-family="Times,serif" font-size="14.00">q6:11</text>
</g>
<!-- q3:242&#45;&gt;q6:11 -->
<g id="edge9" class="edge">
<title>q3:242&#45;&gt;q6:11</title>
<path fill="none" stroke="black" d="M525.17,-181.01C534.82,-184.56 545.46,-188.19 555.43,-191 595.35,-202.25 641.58,-211.29 675.53,-217.22"/>
<polygon fill="black" stroke="black" points="674.61,-220.61 685.06,-218.85 675.79,-213.71 674.61,-220.61"/>
<text text-anchor="middle" x="608.31" y="-217.94" font-family="Times,serif" font-size="14.00">AUTH/535:11</text>
</g>
<!-- q2:2&#45;&gt;q4:232 -->
<g id="edge10" class="edge">
<title>q2:2&#45;&gt;q4:232</title>
<path fill="none" stroke="black" d="M523.05,-100.83C533.28,-98.75 544.79,-96.78 555.43,-95.75 593,-92.13 635.47,-93.48 668.4,-95.72"/>
<polygon fill="black" stroke="black" points="667.89,-99.19 678.12,-96.43 668.4,-92.21 667.89,-99.19"/>
<text text-anchor="middle" x="608.31" y="-98.95" font-family="Times,serif" font-size="14.00">AUTH/235:2</text>
</g>
<!-- q9:1 -->
<g id="node11" class="node">
<title>q9:1</title>
<ellipse fill="none" stroke="black" stroke-width="2" cx="954.27" cy="-171" rx="33.32" ry="18"/>
<text text-anchor="middle" x="954.27" y="-166.32" font-family="Times,serif" font-size="14.00">q9:1</text>
</g>
<!-- q5:1&#45;&gt;q9:1 -->
<g id="edge11" class="edge">
<title>q5:1&#45;&gt;q9:1</title>
<path fill="none" stroke="black" d="M759.16,-171C798.61,-171 864.76,-171 908.71,-171"/>
<polygon fill="black" stroke="black" points="908.69,-174.5 918.69,-171 908.69,-167.5 908.69,-174.5"/>
<text text-anchor="middle" x="839.7" y="-174.94" font-family="Times,serif" font-size="14.00">MAIL/250:1</text>
</g>
<!-- q7:230 -->
<g id="node12" class="node">
<title>q7:230</title>
<ellipse fill="none" stroke="black" stroke-width="2" cx="954.27" cy="-117" rx="45.95" ry="18"/>
<text text-anchor="middle" x="954.27" y="-112.33" font-family="Times,serif" font-size="14.00">q7:230</text>
</g>
<!-- q4:232&#45;&gt;q7:230 -->
<g id="edge12" class="edge">
<title>q4:232&#45;&gt;q7:230</title>
<path fill="none" stroke="black" d="M771.28,-104.18C807.43,-106.73 858.32,-110.31 897.11,-113.04"/>
<polygon fill="black" stroke="black" points="896.48,-116.5 906.7,-113.72 896.97,-109.52 896.48,-116.5"/>
<text text-anchor="middle" x="839.7" y="-115.95" font-family="Times,serif" font-size="14.00">MAIL/250:230</text>
</g>
<!-- q8:2 -->
<g id="node13" class="node">
<title>q8:2</title>
<ellipse fill="none" stroke="black" stroke-width="2" cx="954.27" cy="-63" rx="33.32" ry="18"/>
<text text-anchor="middle" x="954.27" y="-58.33" font-family="Times,serif" font-size="14.00">q8:2</text>
</g>
<!-- q4:232&#45;&gt;q8:2 -->
<g id="edge13" class="edge">
<title>q4:232&#45;&gt;q8:2</title>
<path fill="none" stroke="black" d="M763.2,-89.9C771.65,-87.64 780.63,-85.43 789.08,-83.75 829.41,-75.72 875.97,-70.18 909.18,-66.86"/>
<polygon fill="black" stroke="black" points="909.22,-70.37 918.83,-65.92 908.54,-63.41 909.22,-70.37"/>
<text text-anchor="middle" x="839.7" y="-86.95" font-family="Times,serif" font-size="14.00">MAIL/553:2</text>
</g>
<!-- q10:11 -->
<g id="node14" class="node">
<title>q10:11</title>
<ellipse fill="none" stroke="black" stroke-width="2" cx="954.27" cy="-225" rx="45.95" ry="18"/>
<text text-anchor="middle" x="954.27" y="-220.32" font-family="Times,serif" font-size="14.00">q10:11</text>
</g>
<!-- q6:11&#45;&gt;q10:11 -->
<g id="edge14" class="edge">
<title>q6:11&#45;&gt;q10:11</title>
<path fill="none" stroke="black" d="M765.69,-225C801.75,-225 855.43,-225 896.14,-225"/>
<polygon fill="black" stroke="black" points="896.01,-228.5 906.01,-225 896.01,-221.5 896.01,-228.5"/>
<text text-anchor="middle" x="839.7" y="-228.94" font-family="Times,serif" font-size="14.00">AUTH/334:11</text>
</g>
<!-- q11:231 -->
<g id="node15" class="node">
<title>q11:231</title>
<ellipse fill="none" stroke="black" stroke-width="2" cx="1196.5" cy="-118" rx="52.26" ry="18"/>
<text text-anchor="middle" x="1196.5" y="-113.33" font-family="Times,serif" font-size="14.00">q11:231</text>
</g>
<!-- q9:1&#45;&gt;q11:231 -->
<g id="edge15" class="edge">
<title>q9:1&#45;&gt;q11:231</title>
<path fill="none" stroke="black" d="M986.96,-165.77C1021.4,-159.87 1078,-149.59 1126.2,-138 1132.2,-136.56 1138.5,-134.92 1144.7,-133.23"/>
<polygon fill="black" stroke="black" points="1145.56,-136.62 1154.24,-130.56 1143.67,-129.88 1145.56,-136.62"/>
<text text-anchor="middle" x="1072.2" y="-162.94" font-family="Times,serif" font-size="14.00">RCPT/250:1</text>
</g>
<!-- q7:230&#45;&gt;q11:231 -->
<g id="edge16" class="edge">
<title>q7:230&#45;&gt;q11:231</title>
<path fill="none" stroke="black" d="M1001.02,-117.19C1038.2,-117.35 1091.1,-117.57 1132.4,-117.74"/>
<polygon fill="black" stroke="black" points="1132.07,-121.24 1142.09,-117.77 1132.1,-114.24 1132.07,-121.24"/>
<text text-anchor="middle" x="1072.2" y="-120.95" font-family="Times,serif" font-size="14.00">RCPT/250:230</text>
</g>
<!-- q12:2 -->
<g id="node16" class="node">
<title>q12:2</title>
<ellipse fill="none" stroke="black" stroke-width="2" cx="1196.5" cy="-63" rx="39.63" ry="18"/>
<text text-anchor="middle" x="1196.5" y="-58.33" font-family="Times,serif" font-size="14.00">q12:2</text>
</g>
<!-- q8:2&#45;&gt;q12:2 -->
<g id="edge17" class="edge">
<title>q8:2&#45;&gt;q12:2</title>
<path fill="none" stroke="black" d="M988.42,-63C1028.8,-63 1097.3,-63 1144.4,-63"/>
<polygon fill="black" stroke="black" points="1144.39,-66.5 1154.39,-63 1144.39,-59.5 1144.39,-66.5"/>
<text text-anchor="middle" x="1072.2" y="-66.95" font-family="Times,serif" font-size="14.00">RSET/250:2</text>
</g>
<!-- q13:11 -->
<g id="node17" class="node">
<title>q13:11</title>
<ellipse fill="none" stroke="black" stroke-width="2" cx="1196.5" cy="-225" rx="45.95" ry="18"/>
<text text-anchor="middle" x="1196.5" y="-220.32" font-family="Times,serif" font-size="14.00">q13:11</text>
</g>
<!-- q10:11&#45;&gt;q13:11 -->
<g id="edge18" class="edge">
<title>q10:11&#45;&gt;q13:11</title>
<path fill="none" stroke="black" d="M1001.02,-225C1040.1,-225 1096.5,-225 1138.5,-225"/>
<polygon fill="black" stroke="black" points="1138.39,-228.5 1148.39,-225 1138.39,-221.5 1138.39,-228.5"/>
<text text-anchor="middle" x="1072.2" y="-228.94" font-family="Times,serif" font-size="14.00">content/535:11</text>
</g>
<!-- q14:162 -->
<g id="node26" class="node">
<title>q14:162</title>
<ellipse fill="none" stroke="black" stroke-width="2" cx="1439.8" cy="-169" rx="52.26" ry="18"/>
<text text-anchor="middle" x="1439.8" y="-164.32" font-family="Times,serif" font-size="14.00">q14:162</text>
</g>
<!-- q11:231&#45;&gt;q14:162 -->
<g id="edge27" class="edge">
<title>q11:231&#45;&gt;q14:162</title>
<path fill="none" stroke="black" d="M1242.3,-127.47C1282,-135.86 1340,-148.12 1382.7,-157.15"/>
<polygon fill="black" stroke="black" points="1381.81,-160.54 1392.32,-159.18 1383.26,-153.69 1381.81,-160.54"/>
<text text-anchor="middle" x="1318.1" y="-156.94" font-family="Times,serif" font-size="14.00">RCPT/250:162</text>
</g>
<!-- q15:69 -->
<g id="node27" class="node">
<title>q15:69</title>
<ellipse fill="none" stroke="black" stroke-width="2" cx="1439.8" cy="-82" rx="45.95" ry="18"/>
<text text-anchor="middle" x="1439.8" y="-77.33" font-family="Times,serif" font-size="14.00">q15:69</text>
</g>
<!-- q11:231&#45;&gt;q15:69 -->
<g id="edge28" class="edge">
<title>q11:231&#45;&gt;q15:69</title>
<path fill="none" stroke="black" d="M1224.8,-102.07C1237.2,-95.71 1252.3,-89.12 1266.7,-85.75 1304.8,-76.89 1348.8,-76.11 1382.8,-77.45"/>
<polygon fill="black" stroke="black" points="1382.23,-80.93 1392.39,-77.91 1382.57,-73.94 1382.23,-80.93"/>
<text text-anchor="middle" x="1318.1" y="-88.95" font-family="Times,serif" font-size="14.00">DATA/354:69</text>
</g>
<!-- q16:4 -->
<g id="node33" class="node">
<title>q16:4</title>
<ellipse fill="none" stroke="black" stroke-width="2" cx="1439.8" cy="-225" rx="39.63" ry="18"/>
<text text-anchor="middle" x="1439.8" y="-220.32" font-family="Times,serif" font-size="14.00">q16:4</text>
</g>
<!-- q13:11&#45;&gt;q16:4 -->
<g id="edge37" class="edge">
<title>q13:11&#45;&gt;q16:4</title>
<path fill="none" stroke="black" d="M1243.1,-225C1284.4,-225 1345.2,-225 1388,-225"/>
<polygon fill="black" stroke="black" points="1387.79,-228.5 1397.79,-225 1387.79,-221.5 1387.79,-228.5"/>
<text text-anchor="middle" x="1318.1" y="-228.94" font-family="Times,serif" font-size="14.00">λ/451:4</text>
</g>
<!-- q0:244 -->
<g id="node18" class="node">
<title>q0:244</title>
<ellipse fill="none" stroke="black" stroke-width="2" cx="53.95" cy="-135" rx="49.95" ry="49.95"/>
<ellipse fill="none" stroke="black" stroke-width="2" cx="53.95" cy="-135" rx="53.95" ry="53.95"/>
<text text-anchor="middle" x="53.95" y="-130.32" font-family="Times,serif" font-size="14.00">q0:244</text>
</g>
<!-- q0:244&#45;&gt;q1:244 -->
<g id="edge19" class="edge">
<title>q0:244&#45;&gt;q1:244</title>
<path fill="none" stroke="black" d="M104.85,-135C133.64,-135 169.94,-135 199.84,-135"/>
<polygon fill="black" stroke="black" points="199.45,-138.5 209.45,-135 199.45,-131.5 199.45,-138.5"/>
<text text-anchor="middle" x="157.89" y="-138.94" font-family="Times,serif" font-size="14.00">λ/220:244</text>
</g>
<!-- q17:3261 -->
<g id="node19" class="node">
<title>q17:3261</title>
<ellipse fill="none" stroke="black" stroke-width="2" cx="1694.6" cy="-129" rx="58.57" ry="18"/>
<text text-anchor="middle" x="1694.6" y="-124.33" font-family="Times,serif" font-size="14.00">q17:3261</text>
</g>
<!-- q17:3261&#45;&gt;q17:3261 -->
<g id="edge20" class="edge">
<title>q17:3261&#45;&gt;q17:3261</title>
<path fill="none" stroke="black" d="M1671.3,-146.41C1666.9,-156.09 1674.7,-165 1694.6,-165 1706.1,-165 1713.5,-162.02 1716.9,-157.64"/>
<polygon fill="black" stroke="black" points="1720.36,-158.19 1717.77,-147.92 1713.39,-157.57 1720.36,-158.19"/>
<text text-anchor="middle" x="1694.6" y="-168.94" font-family="Times,serif" font-size="14.00">content/λ:3140</text>
</g>
<!-- q23:115 -->
<g id="node20" class="node">
<title>q23:115</title>
<ellipse fill="none" stroke="black" stroke-width="2" cx="1958.4" cy="-234" rx="52.26" ry="18"/>
<text text-anchor="middle" x="1958.4" y="-229.32" font-family="Times,serif" font-size="14.00">q23:115</text>
</g>
<!-- q17:3261&#45;&gt;q23:115 -->
<g id="edge21" class="edge">
<title>q17:3261&#45;&gt;q23:115</title>
<path fill="none" stroke="black" d="M1712.9,-146.83C1727.3,-160.6 1748.9,-179.1 1771.2,-190 1810.6,-209.34 1859.1,-220.44 1896.6,-226.66"/>
<polygon fill="black" stroke="black" points="1895.98,-230.11 1906.4,-228.2 1897.07,-223.19 1895.98,-230.11"/>
<text text-anchor="middle" x="1829.7" y="-227.94" font-family="Times,serif" font-size="14.00">content/250:115</text>
</g>
<!-- q22:1 -->
<g id="node21" class="node">
<title>q22:1</title>
<ellipse fill="none" stroke="black" stroke-width="2" cx="1958.4" cy="-180" rx="39.63" ry="18"/>
<text text-anchor="middle" x="1958.4" y="-175.32" font-family="Times,serif" font-size="14.00">q22:1</text>
</g>
<!-- q17:3261&#45;&gt;q22:1 -->
<g id="edge22" class="edge">
<title>q17:3261&#45;&gt;q22:1</title>
<path fill="none" stroke="black" d="M1739.4,-141.33C1749.7,-144.05 1760.8,-146.77 1771.2,-149 1817.3,-158.93 1870.5,-167.5 1908.2,-173.1"/>
<polygon fill="black" stroke="black" points="1907.5,-176.53 1917.9,-174.52 1908.51,-169.61 1907.5,-176.53"/>
<text text-anchor="middle" x="1829.7" y="-172.94" font-family="Times,serif" font-size="14.00">content/550:1</text>
</g>
<!-- q24:5 -->
<g id="node22" class="node">
<title>q24:5</title>
<ellipse fill="none" stroke="black" stroke-width="2" cx="1958.4" cy="-126" rx="39.63" ry="18"/>
<text text-anchor="middle" x="1958.4" y="-121.33" font-family="Times,serif" font-size="14.00">q24:5</text>
</g>
<!-- q17:3261&#45;&gt;q24:5 -->
<g id="edge23" class="edge">
<title>q17:3261&#45;&gt;q24:5</title>
<path fill="none" stroke="black" d="M1754,-128.33C1799.7,-127.81 1862.6,-127.09 1906.3,-126.59"/>
<polygon fill="black" stroke="black" points="1906.33,-130.09 1916.29,-126.47 1906.24,-123.09 1906.33,-130.09"/>
<text text-anchor="middle" x="1829.7" y="-131.94" font-family="Times,serif" font-size="14.00">content/554:5</text>
</g>
<!-- q29:115 -->
<g id="node23" class="node">
<title>q29:115</title>
<ellipse fill="none" stroke="black" stroke-width="2" cx="2199.4" cy="-234" rx="52.26" ry="18"/>
<text text-anchor="middle" x="2199.4" y="-229.32" font-family="Times,serif" font-size="14.00">q29:115</text>
</g>
<!-- q23:115&#45;&gt;q29:115 -->
<g id="edge24" class="edge">
<title>q23:115&#45;&gt;q29:115</title>
<path fill="none" stroke="black" d="M2011.6,-234C2048,-234 2096.7,-234 2135.3,-234"/>
<polygon fill="black" stroke="black" points="2134.89,-237.5 2144.89,-234 2134.89,-230.5 2134.89,-237.5"/>
<text text-anchor="middle" x="2078.9" y="-237.94" font-family="Times,serif" font-size="14.00">QUIT/221:115</text>
</g>
<!-- q28:1 -->
<g id="node24" class="node">
<title>q28:1</title>
<ellipse fill="none" stroke="black" stroke-width="2" cx="2199.4" cy="-180" rx="39.63" ry="18"/>
<text text-anchor="middle" x="2199.4" y="-175.32" font-family="Times,serif" font-size="14.00">q28:1</text>
</g>
<!-- q22:1&#45;&gt;q28:1 -->
<g id="edge25" class="edge">
<title>q22:1&#45;&gt;q28:1</title>
<path fill="none" stroke="black" d="M1998.9,-180C2039.5,-180 2103.1,-180 2147.5,-180"/>
<polygon fill="black" stroke="black" points="2147.39,-183.5 2157.39,-180 2147.39,-176.5 2147.39,-183.5"/>
<text text-anchor="middle" x="2078.9" y="-183.94" font-family="Times,serif" font-size="14.00">RSET/250:1</text>
</g>
<!-- q30:5 -->
<g id="node25" class="node">
<title>q30:5</title>
<ellipse fill="none" stroke="black" stroke-width="2" cx="2199.4" cy="-126" rx="39.63" ry="18"/>
<text text-anchor="middle" x="2199.4" y="-121.33" font-family="Times,serif" font-size="14.00">q30:5</text>
</g>
<!-- q24:5&#45;&gt;q30:5 -->
<g id="edge26" class="edge">
<title>q24:5&#45;&gt;q30:5</title>
<path fill="none" stroke="black" d="M1998.9,-126C2039.5,-126 2103.1,-126 2147.5,-126"/>
<polygon fill="black" stroke="black" points="2147.39,-129.5 2157.39,-126 2147.39,-122.5 2147.39,-129.5"/>
<text text-anchor="middle" x="2078.9" y="-129.94" font-family="Times,serif" font-size="14.00">RSET/250:5</text>
</g>
<!-- q14:162&#45;&gt;q18:8 -->
<g id="edge29" class="edge">
<title>q14:162&#45;&gt;q18:8</title>
<path fill="none" stroke="black" d="M1472.3,-184C1479.2,-188.03 1486.1,-192.74 1492,-198 1502.2,-207.14 1498.8,-215.14 1510,-223 1549.9,-250.95 1604.5,-263.95 1643.8,-269.95"/>
<polygon fill="black" stroke="black" points="1643.01,-273.37 1653.4,-271.32 1643.99,-266.44 1643.01,-273.37"/>
<text text-anchor="middle" x="1564" y="-267.94" font-family="Times,serif" font-size="14.00">RCPT/250:1</text>
</g>
<!-- q14:162&#45;&gt;q17:3261 -->
<g id="edge30" class="edge">
<title>q14:162&#45;&gt;q17:3261</title>
<path fill="none" stroke="black" d="M1489.8,-162.83C1525.4,-158.17 1574.8,-151.33 1618,-144 1623,-143.16 1628.1,-142.24 1633.2,-141.29"/>
<polygon fill="black" stroke="black" points="1633.83,-144.73 1643.01,-139.44 1632.54,-137.85 1633.83,-144.73"/>
<text text-anchor="middle" x="1564" y="-162.94" font-family="Times,serif" font-size="14.00">DATA/354:118</text>
</g>
<!-- q19:43 -->
<g id="node28" class="node">
<title>q19:43</title>
<ellipse fill="none" stroke="black" stroke-width="2" cx="1694.6" cy="-218" rx="45.95" ry="18"/>
<text text-anchor="middle" x="1694.6" y="-213.32" font-family="Times,serif" font-size="14.00">q19:43</text>
</g>
<!-- q14:162&#45;&gt;q19:43 -->
<g id="edge31" class="edge">
<title>q14:162&#45;&gt;q19:43</title>
<path fill="none" stroke="black" d="M1486.5,-177.87C1530.1,-186.31 1595.6,-199 1641.2,-207.84"/>
<polygon fill="black" stroke="black" points="1640.33,-211.24 1650.81,-209.71 1641.67,-204.37 1640.33,-211.24"/>
<text text-anchor="middle" x="1564" y="-205.94" font-family="Times,serif" font-size="14.00">DATA/550:43</text>
</g>
<!-- q15:69&#45;&gt;q17:3261 -->
<g id="edge32" class="edge">
<title>q15:69&#45;&gt;q17:3261</title>
<path fill="none" stroke="black" d="M1478.7,-92.57C1488.8,-95.2 1499.8,-97.87 1510,-100 1549.1,-108.14 1593.2,-115.18 1628.4,-120.28"/>
<polygon fill="black" stroke="black" points="1627.61,-123.7 1638,-121.66 1628.6,-116.77 1627.61,-123.7"/>
<text text-anchor="middle" x="1564" y="-121.95" font-family="Times,serif" font-size="14.00">content/λ:3</text>
</g>
<!-- q20:54 -->
<g id="node29" class="node">
<title>q20:54</title>
<ellipse fill="none" stroke="black" stroke-width="2" cx="1694.6" cy="-74" rx="45.95" ry="18"/>
<text text-anchor="middle" x="1694.6" y="-69.33" font-family="Times,serif" font-size="14.00">q20:54</text>
</g>
<!-- q15:69&#45;&gt;q20:54 -->
<g id="edge33" class="edge">
<title>q15:69&#45;&gt;q20:54</title>
<path fill="none" stroke="black" d="M1486.5,-80.55C1528.7,-79.22 1591.4,-77.23 1636.7,-75.8"/>
<polygon fill="black" stroke="black" points="1636.7,-79.3 1646.59,-75.49 1636.48,-72.3 1636.7,-79.3"/>
<text text-anchor="middle" x="1564" y="-82.95" font-family="Times,serif" font-size="14.00">content/554:54</text>
</g>
<!-- q21:12 -->
<g id="node30" class="node">
<title>q21:12</title>
<ellipse fill="none" stroke="black" stroke-width="2" cx="1694.6" cy="-19" rx="45.95" ry="18"/>
<text text-anchor="middle" x="1694.6" y="-14.32" font-family="Times,serif" font-size="14.00">q21:12</text>
</g>
<!-- q15:69&#45;&gt;q21:12 -->
<g id="edge34" class="edge">
<title>q15:69&#45;&gt;q21:12</title>
<path fill="none" stroke="black" d="M1472,-68.28C1483.8,-63.51 1497.4,-58.44 1510,-54.75 1552.8,-42.28 1602.5,-32.9 1639.4,-26.89"/>
<polygon fill="black" stroke="black" points="1639.58,-30.4 1648.9,-25.37 1638.48,-23.49 1639.58,-30.4"/>
<text text-anchor="middle" x="1564" y="-58.95" font-family="Times,serif" font-size="14.00">content/250:12</text>
</g>
<!-- q26:54 -->
<g id="node31" class="node">
<title>q26:54</title>
<ellipse fill="none" stroke="black" stroke-width="2" cx="1958.4" cy="-72" rx="45.95" ry="18"/>
<text text-anchor="middle" x="1958.4" y="-67.33" font-family="Times,serif" font-size="14.00">q26:54</text>
</g>
<!-- q20:54&#45;&gt;q26:54 -->
<g id="edge35" class="edge">
<title>q20:54&#45;&gt;q26:54</title>
<path fill="none" stroke="black" d="M1741.5,-73.65C1785.7,-73.31 1852.6,-72.8 1900.2,-72.44"/>
<polygon fill="black" stroke="black" points="1900.11,-75.94 1910.09,-72.36 1900.06,-68.94 1900.11,-75.94"/>
<text text-anchor="middle" x="1829.7" y="-76.95" font-family="Times,serif" font-size="14.00">RSET/250:54</text>
</g>
<!-- q27:12 -->
<g id="node32" class="node">
<title>q27:12</title>
<ellipse fill="none" stroke="black" stroke-width="2" cx="1958.4" cy="-18" rx="45.95" ry="18"/>
<text text-anchor="middle" x="1958.4" y="-13.32" font-family="Times,serif" font-size="14.00">q27:12</text>
</g>
<!-- q21:12&#45;&gt;q27:12 -->
<g id="edge36" class="edge">
<title>q21:12&#45;&gt;q27:12</title>
<path fill="none" stroke="black" d="M1741.5,-18.82C1785.7,-18.66 1852.6,-18.4 1900.2,-18.22"/>
<polygon fill="black" stroke="black" points="1900.1,-21.72 1910.09,-18.18 1900.07,-14.72 1900.1,-21.72"/>
<text text-anchor="middle" x="1829.7" y="-22.95" font-family="Times,serif" font-size="14.00">QUIT/221:12</text>
</g>
</g>
</svg>
