<?xml version="1.0" encoding="UTF-8" standalone="no"?>
<!DOCTYPE svg PUBLIC "-//W3C//DTD SVG 1.1//EN"
 "http://www.w3.org/Graphics/SVG/1.1/DTD/svg11.dtd">
<!-- Generated by graphviz version 12.0.0 (20240803.0821)
 -->
<!-- Pages: 1 -->
<svg width="2253pt" height="244pt"
 viewBox="0.00 0.00 2252.96 244.00" xmlns="http://www.w3.org/2000/svg" xmlns:xlink="http://www.w3.org/1999/xlink">
<g id="graph0" class="graph" transform="scale(1 1) rotate(0) translate(4 240)">
<polygon fill="white" stroke="none" points="-4,4 -4,-240 2248.96,-240 2248.96,4 -4,4"/>
<!-- q19:74 -->
<g id="node1" class="node">
<title>q19:74</title>
<ellipse fill="none" stroke="black" stroke-width="2" cx="1951.7" cy="-126" rx="45.95" ry="18"/>
<text text-anchor="middle" x="1951.7" y="-121.33" font-family="Times,serif" font-size="14.00">q19:74</text>
</g>
<!-- q22:74 -->
<g id="node2" class="node">
<title>q22:74</title>
<ellipse fill="none" stroke="black" stroke-width="2" cx="2192.7" cy="-126" rx="45.95" ry="18"/>
<text text-anchor="middle" x="2192.7" y="-121.33" font-family="Times,serif" font-size="14.00">q22:74</text>
</g>
<!-- q19:74&#45;&gt;q22:74 -->
<g id="edge1" class="edge">
<title>q19:74&#45;&gt;q22:74</title>
<path fill="none" stroke="black" d="M1998.5,-126C2037.3,-126 2093,-126 2134.7,-126"/>
<polygon fill="black" stroke="black" points="2134.49,-129.5 2144.49,-126 2134.49,-122.5 2134.49,-129.5"/>
<text text-anchor="middle" x="2072.2" y="-129.94" font-family="Times,serif" font-size="14.00">RSET/250:74</text>
</g>
<!-- q10:149 -->
<g id="node3" class="node">
<title>q10:149</title>
<ellipse fill="none" stroke="black" stroke-width="2" cx="1439.8" cy="-127" rx="52.26" ry="18"/>
<text text-anchor="middle" x="1439.8" y="-122.33" font-family="Times,serif" font-size="14.00">q10:149</text>
</g>
<!-- q10:149&#45;&gt;q10:149 -->
<g id="edge2" class="edge">
<title>q10:149&#45;&gt;q10:149</title>
<path fill="none" stroke="black" d="M1418.3,-144.04C1414,-153.86 1421.1,-163 1439.8,-163 1450.5,-163 1457.5,-159.94 1460.6,-155.47"/>
<polygon fill="black" stroke="black" points="1464.09,-155.72 1461.12,-145.55 1457.1,-155.35 1464.09,-155.72"/>
<text text-anchor="middle" x="1439.8" y="-166.94" font-family="Times,serif" font-size="14.00">RCPT/250:9</text>
</g>
<!-- q15:28 -->
<g id="node4" class="node">
<title>q15:28</title>
<ellipse fill="none" stroke="black" stroke-width="2" cx="1687.8" cy="-161" rx="45.95" ry="18"/>
<text text-anchor="middle" x="1687.8" y="-156.32" font-family="Times,serif" font-size="14.00">q15:28</text>
</g>
<!-- q10:149&#45;&gt;q15:28 -->
<g id="edge3" class="edge">
<title>q10:149&#45;&gt;q15:28</title>
<path fill="none" stroke="black" d="M1489.4,-133.72C1530.6,-139.41 1589.6,-147.56 1632.3,-153.47"/>
<polygon fill="black" stroke="black" points="1631.82,-156.94 1642.2,-154.83 1632.77,-150 1631.82,-156.94"/>
<text text-anchor="middle" x="1560.6" y="-153.94" font-family="Times,serif" font-size="14.00">DATA/550:28</text>
</g>
<!-- q14:3030 -->
<g id="node5" class="node">
<title>q14:3030</title>
<ellipse fill="none" stroke="black" stroke-width="2" cx="1687.8" cy="-72" rx="58.57" ry="18"/>
<text text-anchor="middle" x="1687.8" y="-67.33" font-family="Times,serif" font-size="14.00">q14:3030</text>
</g>
<!-- q10:149&#45;&gt;q14:3030 -->
<g id="edge4" class="edge">
<title>q10:149&#45;&gt;q14:3030</title>
<path fill="none" stroke="black" d="M1485,-117.1C1525,-108.17 1584.1,-94.96 1628,-85.14"/>
<polygon fill="black" stroke="black" points="1628.63,-88.59 1637.62,-82.99 1627.1,-81.76 1628.63,-88.59"/>
<text text-anchor="middle" x="1560.6" y="-114.95" font-family="Times,serif" font-size="14.00">DATA/354:112</text>
</g>
<!-- q14:3030&#45;&gt;q19:74 -->
<g id="edge5" class="edge">
<title>q14:3030&#45;&gt;q19:74</title>
<path fill="none" stroke="black" d="M1731.8,-84.71C1742.4,-87.63 1753.8,-90.59 1764.4,-93 1808.5,-103.01 1859.1,-111.81 1896.4,-117.79"/>
<polygon fill="black" stroke="black" points="1895.58,-121.2 1906,-119.32 1896.68,-114.29 1895.58,-121.2"/>
<text text-anchor="middle" x="1822.9" y="-119.95" font-family="Times,serif" font-size="14.00">content/554:74</text>
</g>
<!-- q14:3030&#45;&gt;q14:3030 -->
<g id="edge6" class="edge">
<title>q14:3030&#45;&gt;q14:3030</title>
<path fill="none" stroke="black" d="M1665.1,-89.41C1660.9,-99.09 1668.5,-108 1687.8,-108 1699,-108 1706.3,-105.02 1709.6,-100.64"/>
<polygon fill="black" stroke="black" points="1713.07,-101.17 1710.38,-90.92 1706.09,-100.61 1713.07,-101.17"/>
<text text-anchor="middle" x="1687.8" y="-111.95" font-family="Times,serif" font-size="14.00">content/λ:2830</text>
</g>
<!-- q17:1 -->
<g id="node6" class="node">
<title>q17:1</title>
<ellipse fill="none" stroke="black" stroke-width="2" cx="1951.7" cy="-72" rx="39.63" ry="18"/>
<text text-anchor="middle" x="1951.7" y="-67.33" font-family="Times,serif" font-size="14.00">q17:1</text>
</g>
<!-- q14:3030&#45;&gt;q17:1 -->
<g id="edge7" class="edge">
<title>q14:3030&#45;&gt;q17:1</title>
<path fill="none" stroke="black" d="M1747.3,-72C1793,-72 1855.9,-72 1899.6,-72"/>
<polygon fill="black" stroke="black" points="1899.59,-75.5 1909.59,-72 1899.59,-68.5 1899.59,-75.5"/>
<text text-anchor="middle" x="1822.9" y="-75.95" font-family="Times,serif" font-size="14.00">content/550:1</text>
</g>
<!-- q18:125 -->
<g id="node7" class="node">
<title>q18:125</title>
<ellipse fill="none" stroke="black" stroke-width="2" cx="1951.7" cy="-18" rx="52.26" ry="18"/>
<text text-anchor="middle" x="1951.7" y="-13.32" font-family="Times,serif" font-size="14.00">q18:125</text>
</g>
<!-- q14:3030&#45;&gt;q18:125 -->
<g id="edge8" class="edge">
<title>q14:3030&#45;&gt;q18:125</title>
<path fill="none" stroke="black" d="M1731.4,-59.23C1742.1,-56.23 1753.6,-53.2 1764.4,-50.75 1806.6,-41.13 1854.8,-32.73 1891.5,-26.85"/>
<polygon fill="black" stroke="black" points="1891.77,-30.35 1901.1,-25.34 1890.68,-23.43 1891.77,-30.35"/>
<text text-anchor="middle" x="1822.9" y="-54.95" font-family="Times,serif" font-size="14.00">content/250:125</text>
</g>
<!-- q20:1 -->
<g id="node8" class="node">
<title>q20:1</title>
<ellipse fill="none" stroke="black" stroke-width="2" cx="2192.7" cy="-72" rx="39.63" ry="18"/>
<text text-anchor="middle" x="2192.7" y="-67.33" font-family="Times,serif" font-size="14.00">q20:1</text>
</g>
<!-- q17:1&#45;&gt;q20:1 -->
<g id="edge9" class="edge">
<title>q17:1&#45;&gt;q20:1</title>
<path fill="none" stroke="black" d="M1992.1,-72C2032.8,-72 2096.3,-72 2140.7,-72"/>
<polygon fill="black" stroke="black" points="2140.69,-75.5 2150.69,-72 2140.69,-68.5 2140.69,-75.5"/>
<text text-anchor="middle" x="2072.2" y="-75.95" font-family="Times,serif" font-size="14.00">RSET/250:1</text>
</g>
<!-- q21:125 -->
<g id="node9" class="node">
<title>q21:125</title>
<ellipse fill="none" stroke="black" stroke-width="2" cx="2192.7" cy="-18" rx="52.26" ry="18"/>
<text text-anchor="middle" x="2192.7" y="-13.32" font-family="Times,serif" font-size="14.00">q21:125</text>
</g>
<!-- q18:125&#45;&gt;q21:125 -->
<g id="edge10" class="edge">
<title>q18:125&#45;&gt;q21:125</title>
<path fill="none" stroke="black" d="M2004.8,-18C2041.2,-18 2090,-18 2128.5,-18"/>
<polygon fill="black" stroke="black" points="2128.09,-21.5 2138.09,-18 2128.09,-14.5 2128.09,-21.5"/>
<text text-anchor="middle" x="2072.2" y="-21.95" font-family="Times,serif" font-size="14.00">QUIT/221:125</text>
</g>
<!-- q3:242 -->
<g id="node10" class="node">
<title>q3:242</title>
<ellipse fill="none" stroke="black" stroke-width="2" cx="491.48" cy="-165" rx="45.95" ry="18"/>
<text text-anchor="middle" x="491.48" y="-160.32" font-family="Times,serif" font-size="14.00">q3:242</text>
</g>
<!-- q5:13 -->
<g id="node11" class="node">
<title>q5:13</title>
<ellipse fill="none" stroke="black" stroke-width="2" cx="725.13" cy="-218" rx="39.63" ry="18"/>
<text text-anchor="middle" x="725.13" y="-213.32" font-family="Times,serif" font-size="14.00">q5:13</text>
</g>
<!-- q3:242&#45;&gt;q5:13 -->
<g id="edge11" class="edge">
<title>q3:242&#45;&gt;q5:13</title>
<path fill="none" stroke="black" d="M521.01,-179.66C531.59,-184.56 543.83,-189.63 555.43,-193 594.39,-204.32 639.96,-210.68 673.92,-214.16"/>
<polygon fill="black" stroke="black" points="673.16,-217.6 683.45,-215.08 673.83,-210.64 673.16,-217.6"/>
<text text-anchor="middle" x="608.31" y="-215.94" font-family="Times,serif" font-size="14.00">AUTH/535:13</text>
</g>
<!-- q4:230 -->
<g id="node12" class="node">
<title>q4:230</title>
<ellipse fill="none" stroke="black" stroke-width="2" cx="725.13" cy="-109" rx="45.95" ry="18"/>
<text text-anchor="middle" x="725.13" y="-104.33" font-family="Times,serif" font-size="14.00">q4:230</text>
</g>
<!-- q3:242&#45;&gt;q4:230 -->
<g id="edge12" class="edge">
<title>q3:242&#45;&gt;q4:230</title>
<path fill="none" stroke="black" d="M517.99,-149.47C529.12,-143.36 542.55,-136.83 555.43,-132.75 591.75,-121.25 634.23,-115.31 667.48,-112.25"/>
<polygon fill="black" stroke="black" points="667.66,-115.75 677.32,-111.41 667.06,-108.77 667.66,-115.75"/>
<text text-anchor="middle" x="608.31" y="-135.94" font-family="Times,serif" font-size="14.00">AUTH/235:228</text>
</g>
<!-- q6:1 -->
<g id="node13" class="node">
<title>q6:1</title>
<ellipse fill="none" stroke="black" stroke-width="2" cx="839.7" cy="-172" rx="33.32" ry="18"/>
<text text-anchor="middle" x="839.7" y="-167.32" font-family="Times,serif" font-size="14.00">q6:1</text>
</g>
<!-- q3:242&#45;&gt;q6:1 -->
<g id="edge13" class="edge">
<title>q3:242&#45;&gt;q6:1</title>
<path fill="none" stroke="black" d="M538.1,-165.92C604.79,-167.27 728.13,-169.76 794.18,-171.1"/>
<polygon fill="black" stroke="black" points="793.86,-174.59 803.93,-171.3 794,-167.6 793.86,-174.59"/>
<text text-anchor="middle" x="608.31" y="-171.94" font-family="Times,serif" font-size="14.00">AUTH/λ:1</text>
</g>
<!-- q9:13 -->
<g id="node14" class="node">
<title>q9:13</title>
<ellipse fill="none" stroke="black" stroke-width="2" cx="954.27" cy="-218" rx="39.63" ry="18"/>
<text text-anchor="middle" x="954.27" y="-213.32" font-family="Times,serif" font-size="14.00">q9:13</text>
</g>
<!-- q5:13&#45;&gt;q9:13 -->
<g id="edge14" class="edge">
<title>q5:13&#45;&gt;q9:13</title>
<path fill="none" stroke="black" d="M765.69,-218C803.6,-218 861,-218 902.32,-218"/>
<polygon fill="black" stroke="black" points="902.27,-221.5 912.27,-218 902.27,-214.5 902.27,-221.5"/>
<text text-anchor="middle" x="839.7" y="-221.94" font-family="Times,serif" font-size="14.00">AUTH/334:13</text>
</g>
<!-- q8:227 -->
<g id="node15" class="node">
<title>q8:227</title>
<ellipse fill="none" stroke="black" stroke-width="2" cx="954.27" cy="-72" rx="45.95" ry="18"/>
<text text-anchor="middle" x="954.27" y="-67.33" font-family="Times,serif" font-size="14.00">q8:227</text>
</g>
<!-- q4:230&#45;&gt;q8:227 -->
<g id="edge15" class="edge">
<title>q4:230&#45;&gt;q8:227</title>
<path fill="none" stroke="black" d="M764.6,-99C772.66,-97.09 781.12,-95.24 789.08,-93.75 824.95,-87.05 865.61,-81.64 897.49,-77.9"/>
<polygon fill="black" stroke="black" points="897.78,-81.39 907.32,-76.77 896.98,-74.44 897.78,-81.39"/>
<text text-anchor="middle" x="839.7" y="-97.95" font-family="Times,serif" font-size="14.00">MAIL/250:227</text>
</g>
<!-- q7:3 -->
<g id="node16" class="node">
<title>q7:3</title>
<ellipse fill="none" stroke="black" stroke-width="2" cx="954.27" cy="-126" rx="33.32" ry="18"/>
<text text-anchor="middle" x="954.27" y="-121.33" font-family="Times,serif" font-size="14.00">q7:3</text>
</g>
<!-- q4:230&#45;&gt;q7:3 -->
<g id="edge16" class="edge">
<title>q4:230&#45;&gt;q7:3</title>
<path fill="none" stroke="black" d="M771.28,-112.38C811.23,-115.37 869.19,-119.71 908.9,-122.68"/>
<polygon fill="black" stroke="black" points="908.61,-126.17 918.84,-123.43 909.13,-119.19 908.61,-126.17"/>
<text text-anchor="middle" x="839.7" y="-124.95" font-family="Times,serif" font-size="14.00">MAIL/553:3</text>
</g>
<!-- q6:1&#45;&gt;q10:149 -->
<g id="edge17" class="edge">
<title>q6:1&#45;&gt;q10:149</title>
<path fill="none" stroke="black" d="M873.83,-171.46C943.4,-170.11 1109.8,-165.72 1248.7,-153 1292.9,-148.96 1342.6,-142.08 1380,-136.42"/>
<polygon fill="black" stroke="black" points="1380.44,-139.89 1389.8,-134.93 1379.39,-132.97 1380.44,-139.89"/>
<text text-anchor="middle" x="1072.2" y="-170.94" font-family="Times,serif" font-size="14.00">MAIL/250:1</text>
</g>
<!-- q13:13 -->
<g id="node17" class="node">
<title>q13:13</title>
<ellipse fill="none" stroke="black" stroke-width="2" cx="1196.5" cy="-218" rx="45.95" ry="18"/>
<text text-anchor="middle" x="1196.5" y="-213.32" font-family="Times,serif" font-size="14.00">q13:13</text>
</g>
<!-- q9:13&#45;&gt;q13:13 -->
<g id="edge18" class="edge">
<title>q9:13&#45;&gt;q13:13</title>
<path fill="none" stroke="black" d="M994.67,-218C1033.8,-218 1094.1,-218 1138.4,-218"/>
<polygon fill="black" stroke="black" points="1138.39,-221.5 1148.39,-218 1138.39,-214.5 1138.39,-221.5"/>
<text text-anchor="middle" x="1072.2" y="-221.94" font-family="Times,serif" font-size="14.00">content/535:13</text>
</g>
<!-- q12:227 -->
<g id="node18" class="node">
<title>q12:227</title>
<ellipse fill="none" stroke="black" stroke-width="2" cx="1196.5" cy="-72" rx="52.26" ry="18"/>
<text text-anchor="middle" x="1196.5" y="-67.33" font-family="Times,serif" font-size="14.00">q12:227</text>
</g>
<!-- q8:227&#45;&gt;q12:227 -->
<g id="edge19" class="edge">
<title>q8:227&#45;&gt;q12:227</title>
<path fill="none" stroke="black" d="M1001.02,-72C1038.1,-72 1090.8,-72 1131.9,-72"/>
<polygon fill="black" stroke="black" points="1131.69,-75.5 1141.69,-72 1131.69,-68.5 1131.69,-75.5"/>
<text text-anchor="middle" x="1072.2" y="-75.95" font-family="Times,serif" font-size="14.00">RCPT/250:227</text>
</g>
<!-- q11:3 -->
<g id="node19" class="node">
<title>q11:3</title>
<ellipse fill="none" stroke="black" stroke-width="2" cx="1196.5" cy="-126" rx="39.63" ry="18"/>
<text text-anchor="middle" x="1196.5" y="-121.33" font-family="Times,serif" font-size="14.00">q11:3</text>
</g>
<!-- q7:3&#45;&gt;q11:3 -->
<g id="edge20" class="edge">
<title>q7:3&#45;&gt;q11:3</title>
<path fill="none" stroke="black" d="M988.42,-126C1028.8,-126 1097.3,-126 1144.4,-126"/>
<polygon fill="black" stroke="black" points="1144.39,-129.5 1154.39,-126 1144.39,-122.5 1144.39,-129.5"/>
<text text-anchor="middle" x="1072.2" y="-129.94" font-family="Times,serif" font-size="14.00">RSET/250:3</text>
</g>
<!-- q16:4 -->
<g id="node20" class="node">
<title>q16:4</title>
<ellipse fill="none" stroke="black" stroke-width="2" cx="1439.8" cy="-218" rx="39.63" ry="18"/>
<text text-anchor="middle" x="1439.8" y="-213.32" font-family="Times,serif" font-size="14.00">q16:4</text>
</g>
<!-- q13:13&#45;&gt;q16:4 -->
<g id="edge21" class="edge">
<title>q13:13&#45;&gt;q16:4</title>
<path fill="none" stroke="black" d="M1243.1,-218C1284.4,-218 1345.2,-218 1388,-218"/>
<polygon fill="black" stroke="black" points="1387.79,-221.5 1397.79,-218 1387.79,-214.5 1387.79,-221.5"/>
<text text-anchor="middle" x="1318.1" y="-221.94" font-family="Times,serif" font-size="14.00">λ/451:4</text>
</g>
<!-- q12:227&#45;&gt;q10:149 -->
<g id="edge22" class="edge">
<title>q12:227&#45;&gt;q10:149</title>
<path fill="none" stroke="black" d="M1241.5,-82.02C1281.4,-91.12 1340.4,-104.59 1383.5,-114.41"/>
<polygon fill="black" stroke="black" points="1382.7,-117.82 1393.22,-116.62 1384.25,-110.99 1382.7,-117.82"/>
<text text-anchor="middle" x="1318.1" y="-114.95" font-family="Times,serif" font-size="14.00">RCPT/250:139</text>
</g>
<!-- q12:227&#45;&gt;q14:3030 -->
<g id="edge23" class="edge">
<title>q12:227&#45;&gt;q14:3030</title>
<path fill="none" stroke="black" d="M1249.4,-72C1337.8,-72 1517.5,-72 1616.9,-72"/>
<polygon fill="black" stroke="black" points="1616.79,-75.5 1626.79,-72 1616.79,-68.5 1616.79,-75.5"/>
<text text-anchor="middle" x="1439.8" y="-75.95" font-family="Times,serif" font-size="14.00">DATA/354:88</text>
</g>
<!-- q0:244 -->
<g id="node21" class="node">
<title>q0:244</title>
<ellipse fill="none" stroke="black" stroke-width="2" cx="53.95" cy="-132" rx="49.95" ry="49.95"/>
<ellipse fill="none" stroke="black" stroke-width="2" cx="53.95" cy="-132" rx="53.95" ry="53.95"/>
<text text-anchor="middle" x="53.95" y="-127.33" font-family="Times,serif" font-size="14.00">q0:244</text>
</g>
<!-- q1:244 -->
<g id="node22" class="node">
<title>q1:244</title>
<ellipse fill="none" stroke="black" stroke-width="2" cx="257.84" cy="-132" rx="45.95" ry="18"/>
<text text-anchor="middle" x="257.84" y="-127.33" font-family="Times,serif" font-size="14.00">q1:244</text>
</g>
<!-- q0:244&#45;&gt;q1:244 -->
<g id="edge24" class="edge">
<title>q0:244&#45;&gt;q1:244</title>
<path fill="none" stroke="black" d="M104.85,-132C133.64,-132 169.94,-132 199.84,-132"/>
<polygon fill="black" stroke="black" points="199.45,-135.5 209.45,-132 199.45,-128.5 199.45,-135.5"/>
<text text-anchor="middle" x="157.89" y="-135.94" font-family="Times,serif" font-size="14.00">λ/220:244</text>
</g>
<!-- q1:244&#45;&gt;q3:242 -->
<g id="edge25" class="edge">
<title>q1:244&#45;&gt;q3:242</title>
<path fill="none" stroke="black" d="M302.14,-138.17C340,-143.56 395.17,-151.42 436.02,-157.24"/>
<polygon fill="black" stroke="black" points="435.51,-160.7 445.9,-158.65 436.49,-153.77 435.51,-160.7"/>
<text text-anchor="middle" x="374.66" y="-158.94" font-family="Times,serif" font-size="14.00">EHLO/250:242</text>
</g>
<!-- q2:2 -->
<g id="node23" class="node">
<title>q2:2</title>
<ellipse fill="none" stroke="black" stroke-width="2" cx="491.48" cy="-105" rx="33.32" ry="18"/>
<text text-anchor="middle" x="491.48" y="-100.33" font-family="Times,serif" font-size="14.00">q2:2</text>
</g>
<!-- q1:244&#45;&gt;q2:2 -->
<g id="edge26" class="edge">
<title>q1:244&#45;&gt;q2:2</title>
<path fill="none" stroke="black" d="M298.66,-122.83C306.31,-121.29 314.27,-119.84 321.79,-118.75 363.67,-112.66 411.82,-109.07 445.93,-107.1"/>
<polygon fill="black" stroke="black" points="446.07,-110.6 455.86,-106.54 445.68,-103.61 446.07,-110.6"/>
<text text-anchor="middle" x="374.66" y="-122.95" font-family="Times,serif" font-size="14.00">EHLO/λ:2</text>
</g>
<!-- q2:2&#45;&gt;q4:230 -->
<g id="edge27" class="edge">
<title>q2:2&#45;&gt;q4:230</title>
<path fill="none" stroke="black" d="M523.05,-97.83C533.28,-95.75 544.79,-93.78 555.43,-92.75 602.21,-88.24 614.56,-86.83 661.18,-92.75 666.17,-93.38 671.32,-94.29 676.43,-95.35"/>
<polygon fill="black" stroke="black" points="675.49,-98.72 686.01,-97.54 677.05,-91.9 675.49,-98.72"/>
<text text-anchor="middle" x="608.31" y="-96.95" font-family="Times,serif" font-size="14.00">AUTH/235:2</text>
</g>
</g>
</svg>
