<?xml version="1.0" encoding="UTF-8" standalone="no"?>
<!DOCTYPE svg PUBLIC "-//W3C//DTD SVG 1.1//EN"
 "http://www.w3.org/Graphics/SVG/1.1/DTD/svg11.dtd">
<!-- Generated by graphviz version 12.0.0 (20240803.0821)
 -->
<!-- Pages: 1 -->
<svg width="2240pt" height="250pt"
 viewBox="0.00 0.00 2240.36 250.00" xmlns="http://www.w3.org/2000/svg" xmlns:xlink="http://www.w3.org/1999/xlink">
<g id="graph0" class="graph" transform="scale(1 1) rotate(0) translate(4 246)">
<polygon fill="white" stroke="none" points="-4,4 -4,-246 2236.36,-246 2236.36,4 -4,4"/>
<!-- q6:231 -->
<g id="node1" class="node">
<title>q6:231</title>
<ellipse fill="none" stroke="black" stroke-width="2" cx="725.13" cy="-61" rx="45.95" ry="18"/>
<text text-anchor="middle" x="725.13" y="-56.33" font-family="Times,serif" font-size="14.00">q6:231</text>
</g>
<!-- q9:228 -->
<g id="node2" class="node">
<title>q9:228</title>
<ellipse fill="none" stroke="black" stroke-width="2" cx="954.27" cy="-18" rx="45.95" ry="18"/>
<text text-anchor="middle" x="954.27" y="-13.32" font-family="Times,serif" font-size="14.00">q9:228</text>
</g>
<!-- q6:231&#45;&gt;q9:228 -->
<g id="edge1" class="edge">
<title>q6:231&#45;&gt;q9:228</title>
<path fill="none" stroke="black" d="M763.24,-50.09C771.69,-47.81 780.66,-45.56 789.08,-43.75 825.13,-36.01 866.11,-29.58 898.11,-25.08"/>
<polygon fill="black" stroke="black" points="898.54,-28.55 907.97,-23.72 897.59,-21.62 898.54,-28.55"/>
<text text-anchor="middle" x="839.7" y="-47.95" font-family="Times,serif" font-size="14.00">MAIL/250:228</text>
</g>
<!-- q10:3 -->
<g id="node3" class="node">
<title>q10:3</title>
<ellipse fill="none" stroke="black" stroke-width="2" cx="954.27" cy="-72" rx="39.63" ry="18"/>
<text text-anchor="middle" x="954.27" y="-67.33" font-family="Times,serif" font-size="14.00">q10:3</text>
</g>
<!-- q6:231&#45;&gt;q10:3 -->
<g id="edge2" class="edge">
<title>q6:231&#45;&gt;q10:3</title>
<path fill="none" stroke="black" d="M771.55,-63.2C809.41,-65.03 863.31,-67.64 902.57,-69.54"/>
<polygon fill="black" stroke="black" points="902.32,-73.04 912.48,-70.02 902.66,-66.04 902.32,-73.04"/>
<text text-anchor="middle" x="839.7" y="-72.95" font-family="Times,serif" font-size="14.00">MAIL/553:3</text>
</g>
<!-- q8:232 -->
<g id="node4" class="node">
<title>q8:232</title>
<ellipse fill="none" stroke="black" stroke-width="2" cx="1190.2" cy="-121" rx="45.95" ry="18"/>
<text text-anchor="middle" x="1190.2" y="-116.33" font-family="Times,serif" font-size="14.00">q8:232</text>
</g>
<!-- q9:228&#45;&gt;q8:232 -->
<g id="edge3" class="edge">
<title>q9:228&#45;&gt;q8:232</title>
<path fill="none" stroke="black" d="M1000.19,-14.37C1037.9,-13.76 1091,-18.94 1126.2,-47.75 1143.3,-61.72 1130,-77.14 1144.2,-94 1146.1,-96.19 1148.1,-98.25 1150.4,-100.18"/>
<polygon fill="black" stroke="black" points="1148.1,-102.83 1158.19,-106.06 1152.32,-97.24 1148.1,-102.83"/>
<text text-anchor="middle" x="1072.2" y="-51.95" font-family="Times,serif" font-size="14.00">RCPT/250:228</text>
</g>
<!-- q14:3 -->
<g id="node5" class="node">
<title>q14:3</title>
<ellipse fill="none" stroke="black" stroke-width="2" cx="1190.2" cy="-67" rx="39.63" ry="18"/>
<text text-anchor="middle" x="1190.2" y="-62.33" font-family="Times,serif" font-size="14.00">q14:3</text>
</g>
<!-- q10:3&#45;&gt;q14:3 -->
<g id="edge4" class="edge">
<title>q10:3&#45;&gt;q14:3</title>
<path fill="none" stroke="black" d="M994.68,-71.16C1034.2,-70.31 1095.1,-69.01 1138.2,-68.09"/>
<polygon fill="black" stroke="black" points="1138.16,-71.59 1148.09,-67.88 1138.01,-64.59 1138.16,-71.59"/>
<text text-anchor="middle" x="1072.2" y="-73.95" font-family="Times,serif" font-size="14.00">RSET/250:3</text>
</g>
<!-- q13:142 -->
<g id="node6" class="node">
<title>q13:142</title>
<ellipse fill="none" stroke="black" stroke-width="2" cx="1427.1" cy="-108" rx="52.26" ry="18"/>
<text text-anchor="middle" x="1427.1" y="-103.33" font-family="Times,serif" font-size="14.00">q13:142</text>
</g>
<!-- q8:232&#45;&gt;q13:142 -->
<g id="edge5" class="edge">
<title>q8:232&#45;&gt;q13:142</title>
<path fill="none" stroke="black" d="M1236.5,-118.49C1272.5,-116.5 1323.4,-113.69 1363.3,-111.47"/>
<polygon fill="black" stroke="black" points="1363.49,-114.96 1373.29,-110.92 1363.11,-107.98 1363.49,-114.96"/>
<text text-anchor="middle" x="1305.5" y="-120.95" font-family="Times,serif" font-size="14.00">RCPT/250:142</text>
</g>
<!-- q12:3269 -->
<g id="node7" class="node">
<title>q12:3269</title>
<ellipse fill="none" stroke="black" stroke-width="2" cx="1675.2" cy="-162" rx="58.57" ry="18"/>
<text text-anchor="middle" x="1675.2" y="-157.32" font-family="Times,serif" font-size="14.00">q12:3269</text>
</g>
<!-- q8:232&#45;&gt;q12:3269 -->
<g id="edge6" class="edge">
<title>q8:232&#45;&gt;q12:3269</title>
<path fill="none" stroke="black" d="M1227.9,-132.14C1236.4,-134.39 1245.5,-136.52 1254.1,-138 1376.2,-159.06 1520.8,-162.75 1604.6,-162.84"/>
<polygon fill="black" stroke="black" points="1604.49,-166.34 1614.49,-162.83 1604.48,-159.34 1604.49,-166.34"/>
<text text-anchor="middle" x="1427.1" y="-162.94" font-family="Times,serif" font-size="14.00">DATA/354:90</text>
</g>
<!-- q13:142&#45;&gt;q12:3269 -->
<g id="edge7" class="edge">
<title>q13:142&#45;&gt;q12:3269</title>
<path fill="none" stroke="black" d="M1475.8,-115.54C1510.2,-121.29 1557.5,-129.89 1598.6,-139.75 1606.1,-141.53 1613.8,-143.59 1621.4,-145.72"/>
<polygon fill="black" stroke="black" points="1620.37,-149.07 1630.94,-148.45 1622.29,-142.34 1620.37,-149.07"/>
<text text-anchor="middle" x="1548" y="-142.94" font-family="Times,serif" font-size="14.00">DATA/354:119</text>
</g>
<!-- q19:20 -->
<g id="node8" class="node">
<title>q19:20</title>
<ellipse fill="none" stroke="black" stroke-width="2" cx="1675.2" cy="-99" rx="45.95" ry="18"/>
<text text-anchor="middle" x="1675.2" y="-94.33" font-family="Times,serif" font-size="14.00">q19:20</text>
</g>
<!-- q13:142&#45;&gt;q19:20 -->
<g id="edge8" class="edge">
<title>q13:142&#45;&gt;q19:20</title>
<path fill="none" stroke="black" d="M1476.9,-101.48C1483.7,-100.77 1490.7,-100.16 1497.4,-99.75 1537.3,-97.3 1582.4,-97.14 1617,-97.59"/>
<polygon fill="black" stroke="black" points="1616.83,-101.09 1626.89,-97.74 1616.94,-94.09 1616.83,-101.09"/>
<text text-anchor="middle" x="1548" y="-102.95" font-family="Times,serif" font-size="14.00">DATA/550:20</text>
</g>
<!-- q18:3 -->
<g id="node9" class="node">
<title>q18:3</title>
<ellipse fill="none" stroke="black" stroke-width="2" cx="1675.2" cy="-36" rx="39.63" ry="18"/>
<text text-anchor="middle" x="1675.2" y="-31.32" font-family="Times,serif" font-size="14.00">q18:3</text>
</g>
<!-- q13:142&#45;&gt;q18:3 -->
<g id="edge9" class="edge">
<title>q13:142&#45;&gt;q18:3</title>
<path fill="none" stroke="black" d="M1457.5,-92.59C1469.6,-86.71 1483.9,-80.33 1497.4,-75.75 1539.8,-61.28 1589.9,-50.6 1625.8,-43.97"/>
<polygon fill="black" stroke="black" points="1626.28,-47.44 1635.51,-42.23 1625.05,-40.55 1626.28,-47.44"/>
<text text-anchor="middle" x="1548" y="-78.95" font-family="Times,serif" font-size="14.00">RCPT/250:3</text>
</g>
<!-- q12:3269&#45;&gt;q12:3269 -->
<g id="edge10" class="edge">
<title>q12:3269&#45;&gt;q12:3269</title>
<path fill="none" stroke="black" d="M1652.5,-179.41C1648.3,-189.09 1655.8,-198 1675.2,-198 1686.4,-198 1693.7,-195.02 1697,-190.64"/>
<polygon fill="black" stroke="black" points="1700.47,-191.17 1697.78,-180.92 1693.49,-190.61 1700.47,-191.17"/>
<text text-anchor="middle" x="1675.2" y="-201.94" font-family="Times,serif" font-size="14.00">content/λ:3060</text>
</g>
<!-- q16:135 -->
<g id="node10" class="node">
<title>q16:135</title>
<ellipse fill="none" stroke="black" stroke-width="2" cx="1939" cy="-187" rx="52.26" ry="18"/>
<text text-anchor="middle" x="1939" y="-182.32" font-family="Times,serif" font-size="14.00">q16:135</text>
</g>
<!-- q12:3269&#45;&gt;q16:135 -->
<g id="edge11" class="edge">
<title>q12:3269&#45;&gt;q16:135</title>
<path fill="none" stroke="black" d="M1732.1,-167.33C1774.4,-171.37 1832.5,-176.92 1876.2,-181.1"/>
<polygon fill="black" stroke="black" points="1875.81,-184.58 1886.09,-182.04 1876.47,-177.61 1875.81,-184.58"/>
<text text-anchor="middle" x="1810.3" y="-183.94" font-family="Times,serif" font-size="14.00">content/250:135</text>
</g>
<!-- q17:74 -->
<g id="node11" class="node">
<title>q17:74</title>
<ellipse fill="none" stroke="black" stroke-width="2" cx="1939" cy="-133" rx="45.95" ry="18"/>
<text text-anchor="middle" x="1939" y="-128.32" font-family="Times,serif" font-size="14.00">q17:74</text>
</g>
<!-- q12:3269&#45;&gt;q17:74 -->
<g id="edge12" class="edge">
<title>q12:3269&#45;&gt;q17:74</title>
<path fill="none" stroke="black" d="M1725.3,-151.96C1734.1,-150.38 1743.2,-148.9 1751.8,-147.75 1795.2,-141.95 1844.6,-138.17 1881.7,-135.89"/>
<polygon fill="black" stroke="black" points="1881.42,-139.41 1891.19,-135.31 1880.99,-132.43 1881.42,-139.41"/>
<text text-anchor="middle" x="1810.3" y="-150.94" font-family="Times,serif" font-size="14.00">content/554:74</text>
</g>
<!-- q18:3&#45;&gt;q8:232 -->
<g id="edge14" class="edge">
<title>q18:3&#45;&gt;q8:232</title>
<path fill="none" stroke="black" d="M1634.8,-37.24C1598.9,-38.61 1544.5,-41.26 1497.4,-46 1442.6,-51.5 1428.5,-51.58 1374.9,-63.75 1326.5,-74.71 1272.5,-92.19 1235.7,-104.96"/>
<polygon fill="black" stroke="black" points="1235.02,-101.49 1226.73,-108.09 1237.32,-108.1 1235.02,-101.49"/>
<text text-anchor="middle" x="1427.1" y="-67.95" font-family="Times,serif" font-size="14.00">RCPT/250:3</text>
</g>
<!-- q20:135 -->
<g id="node13" class="node">
<title>q20:135</title>
<ellipse fill="none" stroke="black" stroke-width="2" cx="2180.1" cy="-187" rx="52.26" ry="18"/>
<text text-anchor="middle" x="2180.1" y="-182.32" font-family="Times,serif" font-size="14.00">q20:135</text>
</g>
<!-- q16:135&#45;&gt;q20:135 -->
<g id="edge15" class="edge">
<title>q16:135&#45;&gt;q20:135</title>
<path fill="none" stroke="black" d="M1992.2,-187C2028.6,-187 2077.3,-187 2115.9,-187"/>
<polygon fill="black" stroke="black" points="2115.49,-190.5 2125.49,-187 2115.49,-183.5 2115.49,-190.5"/>
<text text-anchor="middle" x="2059.6" y="-190.94" font-family="Times,serif" font-size="14.00">QUIT/221:135</text>
</g>
<!-- q21:74 -->
<g id="node14" class="node">
<title>q21:74</title>
<ellipse fill="none" stroke="black" stroke-width="2" cx="2180.1" cy="-133" rx="45.95" ry="18"/>
<text text-anchor="middle" x="2180.1" y="-128.32" font-family="Times,serif" font-size="14.00">q21:74</text>
</g>
<!-- q17:74&#45;&gt;q21:74 -->
<g id="edge16" class="edge">
<title>q17:74&#45;&gt;q21:74</title>
<path fill="none" stroke="black" d="M1985.8,-133C2024.6,-133 2080.4,-133 2122.1,-133"/>
<polygon fill="black" stroke="black" points="2121.89,-136.5 2131.89,-133 2121.89,-129.5 2121.89,-136.5"/>
<text text-anchor="middle" x="2059.6" y="-136.94" font-family="Times,serif" font-size="14.00">RSET/250:74</text>
</g>
<!-- q3:1 -->
<g id="node12" class="node">
<title>q3:1</title>
<ellipse fill="none" stroke="black" stroke-width="2" cx="491.48" cy="-65" rx="33.32" ry="18"/>
<text text-anchor="middle" x="491.48" y="-60.33" font-family="Times,serif" font-size="14.00">q3:1</text>
</g>
<!-- q3:1&#45;&gt;q6:231 -->
<g id="edge13" class="edge">
<title>q3:1&#45;&gt;q6:231</title>
<path fill="none" stroke="black" d="M523.05,-57.83C533.28,-55.76 544.79,-53.78 555.43,-52.75 602.21,-48.24 614.28,-49.69 661.18,-52.75 664.02,-52.94 666.93,-53.17 669.86,-53.43"/>
<polygon fill="black" stroke="black" points="669.39,-56.9 679.69,-54.46 670.11,-49.94 669.39,-56.9"/>
<text text-anchor="middle" x="608.31" y="-56.95" font-family="Times,serif" font-size="14.00">AUTH/235:1</text>
</g>
<!-- q11:12 -->
<g id="node15" class="node">
<title>q11:12</title>
<ellipse fill="none" stroke="black" stroke-width="2" cx="1190.2" cy="-219" rx="45.95" ry="18"/>
<text text-anchor="middle" x="1190.2" y="-214.32" font-family="Times,serif" font-size="14.00">q11:12</text>
</g>
<!-- q15:3 -->
<g id="node16" class="node">
<title>q15:3</title>
<ellipse fill="none" stroke="black" stroke-width="2" cx="1427.1" cy="-224" rx="39.63" ry="18"/>
<text text-anchor="middle" x="1427.1" y="-219.32" font-family="Times,serif" font-size="14.00">q15:3</text>
</g>
<!-- q11:12&#45;&gt;q15:3 -->
<g id="edge17" class="edge">
<title>q11:12&#45;&gt;q15:3</title>
<path fill="none" stroke="black" d="M1237,-219.98C1276.7,-220.82 1334.1,-222.04 1375.2,-222.92"/>
<polygon fill="black" stroke="black" points="1375.01,-226.42 1385.09,-223.13 1375.16,-219.42 1375.01,-226.42"/>
<text text-anchor="middle" x="1305.5" y="-225.94" font-family="Times,serif" font-size="14.00">λ/451:3</text>
</g>
<!-- q7:12 -->
<g id="node17" class="node">
<title>q7:12</title>
<ellipse fill="none" stroke="black" stroke-width="2" cx="954.27" cy="-205" rx="39.63" ry="18"/>
<text text-anchor="middle" x="954.27" y="-200.32" font-family="Times,serif" font-size="14.00">q7:12</text>
</g>
<!-- q7:12&#45;&gt;q11:12 -->
<g id="edge18" class="edge">
<title>q7:12&#45;&gt;q11:12</title>
<path fill="none" stroke="black" d="M994.42,-207.34C1032.2,-209.6 1089.8,-213.05 1132.5,-215.61"/>
<polygon fill="black" stroke="black" points="1132.2,-219.1 1142.39,-216.2 1132.61,-212.11 1132.2,-219.1"/>
<text text-anchor="middle" x="1072.2" y="-217.94" font-family="Times,serif" font-size="14.00">content/535:12</text>
</g>
<!-- q1:244 -->
<g id="node18" class="node">
<title>q1:244</title>
<ellipse fill="none" stroke="black" stroke-width="2" cx="257.84" cy="-92" rx="45.95" ry="18"/>
<text text-anchor="middle" x="257.84" y="-87.33" font-family="Times,serif" font-size="14.00">q1:244</text>
</g>
<!-- q1:244&#45;&gt;q3:1 -->
<g id="edge19" class="edge">
<title>q1:244&#45;&gt;q3:1</title>
<path fill="none" stroke="black" d="M296.21,-81.12C304.56,-79.03 313.43,-77.08 321.79,-75.75 363.53,-69.09 411.69,-66.53 445.85,-65.55"/>
<polygon fill="black" stroke="black" points="445.89,-69.05 455.8,-65.31 445.71,-62.05 445.89,-69.05"/>
<text text-anchor="middle" x="374.66" y="-78.95" font-family="Times,serif" font-size="14.00">EHLO/λ:1</text>
</g>
<!-- q2:243 -->
<g id="node19" class="node">
<title>q2:243</title>
<ellipse fill="none" stroke="black" stroke-width="2" cx="491.48" cy="-125" rx="45.95" ry="18"/>
<text text-anchor="middle" x="491.48" y="-120.33" font-family="Times,serif" font-size="14.00">q2:243</text>
</g>
<!-- q1:244&#45;&gt;q2:243 -->
<g id="edge20" class="edge">
<title>q1:244&#45;&gt;q2:243</title>
<path fill="none" stroke="black" d="M302.14,-98.17C340,-103.56 395.17,-111.42 436.02,-117.24"/>
<polygon fill="black" stroke="black" points="435.51,-120.7 445.9,-118.65 436.49,-113.77 435.51,-120.7"/>
<text text-anchor="middle" x="374.66" y="-118.95" font-family="Times,serif" font-size="14.00">EHLO/250:243</text>
</g>
<!-- q2:243&#45;&gt;q6:231 -->
<g id="edge21" class="edge">
<title>q2:243&#45;&gt;q6:231</title>
<path fill="none" stroke="black" d="M518.39,-109.6C529.48,-103.57 542.77,-97.08 555.43,-92.75 576.24,-85.63 629.15,-76.16 670.21,-69.42"/>
<polygon fill="black" stroke="black" points="670.64,-72.9 679.95,-67.84 669.51,-65.99 670.64,-72.9"/>
<text text-anchor="middle" x="608.31" y="-95.95" font-family="Times,serif" font-size="14.00">AUTH/235:230</text>
</g>
<!-- q5:1 -->
<g id="node20" class="node">
<title>q5:1</title>
<ellipse fill="none" stroke="black" stroke-width="2" cx="839.7" cy="-130" rx="33.32" ry="18"/>
<text text-anchor="middle" x="839.7" y="-125.33" font-family="Times,serif" font-size="14.00">q5:1</text>
</g>
<!-- q2:243&#45;&gt;q5:1 -->
<g id="edge22" class="edge">
<title>q2:243&#45;&gt;q5:1</title>
<path fill="none" stroke="black" d="M538.1,-125.66C604.79,-126.62 728.13,-128.4 794.18,-129.36"/>
<polygon fill="black" stroke="black" points="793.88,-132.86 803.93,-129.5 793.98,-125.86 793.88,-132.86"/>
<text text-anchor="middle" x="608.31" y="-130.94" font-family="Times,serif" font-size="14.00">AUTH/λ:1</text>
</g>
<!-- q4:12 -->
<g id="node21" class="node">
<title>q4:12</title>
<ellipse fill="none" stroke="black" stroke-width="2" cx="725.13" cy="-179" rx="39.63" ry="18"/>
<text text-anchor="middle" x="725.13" y="-174.32" font-family="Times,serif" font-size="14.00">q4:12</text>
</g>
<!-- q2:243&#45;&gt;q4:12 -->
<g id="edge23" class="edge">
<title>q2:243&#45;&gt;q4:12</title>
<path fill="none" stroke="black" d="M521.02,-139.62C531.6,-144.52 543.84,-149.6 555.43,-153 594.51,-164.48 640.26,-171.13 674.25,-174.82"/>
<polygon fill="black" stroke="black" points="673.49,-178.26 683.79,-175.81 674.21,-171.3 673.49,-178.26"/>
<text text-anchor="middle" x="608.31" y="-176.94" font-family="Times,serif" font-size="14.00">AUTH/535:12</text>
</g>
<!-- q5:1&#45;&gt;q8:232 -->
<g id="edge24" class="edge">
<title>q5:1&#45;&gt;q8:232</title>
<path fill="none" stroke="black" d="M873.8,-129.15C933.22,-127.61 1058.6,-124.37 1132.2,-122.47"/>
<polygon fill="black" stroke="black" points="1132.08,-125.97 1141.99,-122.22 1131.9,-118.98 1132.08,-125.97"/>
<text text-anchor="middle" x="954.27" y="-131.94" font-family="Times,serif" font-size="14.00">MAIL/250:1</text>
</g>
<!-- q4:12&#45;&gt;q7:12 -->
<g id="edge25" class="edge">
<title>q4:12&#45;&gt;q7:12</title>
<path fill="none" stroke="black" d="M764.4,-183.38C802.66,-187.76 861.65,-194.51 903.52,-199.3"/>
<polygon fill="black" stroke="black" points="903,-202.76 913.34,-200.43 903.8,-195.81 903,-202.76"/>
<text text-anchor="middle" x="839.7" y="-200.94" font-family="Times,serif" font-size="14.00">AUTH/334:12</text>
</g>
<!-- q0:244 -->
<g id="node22" class="node">
<title>q0:244</title>
<ellipse fill="none" stroke="black" stroke-width="2" cx="53.95" cy="-92" rx="49.95" ry="49.95"/>
<ellipse fill="none" stroke="black" stroke-width="2" cx="53.95" cy="-92" rx="53.95" ry="53.95"/>
<text text-anchor="middle" x="53.95" y="-87.33" font-family="Times,serif" font-size="14.00">q0:244</text>
</g>
<!-- q0:244&#45;&gt;q1:244 -->
<g id="edge26" class="edge">
<title>q0:244&#45;&gt;q1:244</title>
<path fill="none" stroke="black" d="M104.85,-92C133.64,-92 169.94,-92 199.84,-92"/>
<polygon fill="black" stroke="black" points="199.45,-95.5 209.45,-92 199.45,-88.5 199.45,-95.5"/>
<text text-anchor="middle" x="157.89" y="-95.95" font-family="Times,serif" font-size="14.00">λ/220:244</text>
</g>
</g>
</svg>
