<?xml version="1.0" encoding="UTF-8" standalone="no"?>
<!DOCTYPE svg PUBLIC "-//W3C//DTD SVG 1.1//EN"
 "http://www.w3.org/Graphics/SVG/1.1/DTD/svg11.dtd">
<!-- Generated by graphviz version 12.0.0 (20240803.0821)
 -->
<!-- Pages: 1 -->
<svg width="2453pt" height="285pt"
 viewBox="0.00 0.00 2452.93 285.25" xmlns="http://www.w3.org/2000/svg" xmlns:xlink="http://www.w3.org/1999/xlink">
<g id="graph0" class="graph" transform="scale(1 1) rotate(0) translate(4 281.25)">
<polygon fill="white" stroke="none" points="-4,4 -4,-281.25 2448.93,-281.25 2448.93,4 -4,4"/>
<!-- q5:232 -->
<g id="node1" class="node">
<title>q5:232</title>
<ellipse fill="none" stroke="black" stroke-width="2" cx="725.13" cy="-112" rx="45.95" ry="18"/>
<text text-anchor="middle" x="725.13" y="-107.33" font-family="Times,serif" font-size="14.00">q5:232</text>
</g>
<!-- q9:2 -->
<g id="node2" class="node">
<title>q9:2</title>
<ellipse fill="none" stroke="black" stroke-width="2" cx="954.27" cy="-126" rx="33.32" ry="18"/>
<text text-anchor="middle" x="954.27" y="-121.33" font-family="Times,serif" font-size="14.00">q9:2</text>
</g>
<!-- q5:232&#45;&gt;q9:2 -->
<g id="edge1" class="edge">
<title>q5:232&#45;&gt;q9:2</title>
<path fill="none" stroke="black" d="M771.55,-114.8C811.53,-117.26 869.38,-120.83 909.01,-123.27"/>
<polygon fill="black" stroke="black" points="908.72,-126.76 918.92,-123.89 909.16,-119.77 908.72,-126.76"/>
<text text-anchor="middle" x="839.7" y="-124.95" font-family="Times,serif" font-size="14.00">MAIL/553:2</text>
</g>
<!-- q8:230 -->
<g id="node3" class="node">
<title>q8:230</title>
<ellipse fill="none" stroke="black" stroke-width="2" cx="954.27" cy="-72" rx="45.95" ry="18"/>
<text text-anchor="middle" x="954.27" y="-67.33" font-family="Times,serif" font-size="14.00">q8:230</text>
</g>
<!-- q5:232&#45;&gt;q8:230 -->
<g id="edge2" class="edge">
<title>q5:232&#45;&gt;q8:230</title>
<path fill="none" stroke="black" d="M763.21,-100.98C771.67,-98.71 780.64,-96.48 789.08,-94.75 824.85,-87.4 865.51,-81.75 897.42,-77.92"/>
<polygon fill="black" stroke="black" points="897.72,-81.4 907.25,-76.76 896.91,-74.45 897.72,-81.4"/>
<text text-anchor="middle" x="839.7" y="-97.95" font-family="Times,serif" font-size="14.00">MAIL/250:230</text>
</g>
<!-- q13:2 -->
<g id="node4" class="node">
<title>q13:2</title>
<ellipse fill="none" stroke="black" stroke-width="2" cx="1196.5" cy="-126" rx="39.63" ry="18"/>
<text text-anchor="middle" x="1196.5" y="-121.33" font-family="Times,serif" font-size="14.00">q13:2</text>
</g>
<!-- q9:2&#45;&gt;q13:2 -->
<g id="edge3" class="edge">
<title>q9:2&#45;&gt;q13:2</title>
<path fill="none" stroke="black" d="M988.42,-126C1028.8,-126 1097.3,-126 1144.4,-126"/>
<polygon fill="black" stroke="black" points="1144.39,-129.5 1154.39,-126 1144.39,-122.5 1144.39,-129.5"/>
<text text-anchor="middle" x="1072.2" y="-129.94" font-family="Times,serif" font-size="14.00">RSET/250:2</text>
</g>
<!-- q12:230 -->
<g id="node5" class="node">
<title>q12:230</title>
<ellipse fill="none" stroke="black" stroke-width="2" cx="1196.5" cy="-72" rx="52.26" ry="18"/>
<text text-anchor="middle" x="1196.5" y="-67.33" font-family="Times,serif" font-size="14.00">q12:230</text>
</g>
<!-- q8:230&#45;&gt;q12:230 -->
<g id="edge4" class="edge">
<title>q8:230&#45;&gt;q12:230</title>
<path fill="none" stroke="black" d="M1001.02,-72C1038.1,-72 1090.8,-72 1131.9,-72"/>
<polygon fill="black" stroke="black" points="1131.69,-75.5 1141.69,-72 1131.69,-68.5 1131.69,-75.5"/>
<text text-anchor="middle" x="1072.2" y="-75.95" font-family="Times,serif" font-size="14.00">RCPT/250:230</text>
</g>
<!-- q16:162 -->
<g id="node6" class="node">
<title>q16:162</title>
<ellipse fill="none" stroke="black" stroke-width="2" cx="1439.8" cy="-126" rx="52.26" ry="18"/>
<text text-anchor="middle" x="1439.8" y="-121.33" font-family="Times,serif" font-size="14.00">q16:162</text>
</g>
<!-- q12:230&#45;&gt;q16:162 -->
<g id="edge5" class="edge">
<title>q12:230&#45;&gt;q16:162</title>
<path fill="none" stroke="black" d="M1241.7,-81.9C1281.6,-90.82 1340.3,-103.96 1383.3,-113.58"/>
<polygon fill="black" stroke="black" points="1382.4,-116.96 1392.92,-115.74 1383.93,-110.13 1382.4,-116.96"/>
<text text-anchor="middle" x="1318.1" y="-113.95" font-family="Times,serif" font-size="14.00">RCPT/250:162</text>
</g>
<!-- q17:3329 -->
<g id="node7" class="node">
<title>q17:3329</title>
<ellipse fill="none" stroke="black" stroke-width="2" cx="1687.8" cy="-72" rx="58.57" ry="18"/>
<text text-anchor="middle" x="1687.8" y="-67.33" font-family="Times,serif" font-size="14.00">q17:3329</text>
</g>
<!-- q12:230&#45;&gt;q17:3329 -->
<g id="edge6" class="edge">
<title>q12:230&#45;&gt;q17:3329</title>
<path fill="none" stroke="black" d="M1249.4,-72C1337.8,-72 1517.5,-72 1616.9,-72"/>
<polygon fill="black" stroke="black" points="1616.79,-75.5 1626.79,-72 1616.79,-68.5 1616.79,-75.5"/>
<text text-anchor="middle" x="1439.8" y="-75.95" font-family="Times,serif" font-size="14.00">DATA/354:68</text>
</g>
<!-- q16:162&#45;&gt;q17:3329 -->
<g id="edge18" class="edge">
<title>q16:162&#45;&gt;q17:3329</title>
<path fill="none" stroke="black" d="M1485.3,-116.22C1525.2,-107.47 1584,-94.58 1627.7,-84.97"/>
<polygon fill="black" stroke="black" points="1628.3,-88.42 1637.32,-82.86 1626.8,-81.58 1628.3,-88.42"/>
<text text-anchor="middle" x="1560.6" y="-113.95" font-family="Times,serif" font-size="14.00">DATA/354:118</text>
</g>
<!-- q7:10 -->
<g id="node8" class="node">
<title>q7:10</title>
<ellipse fill="none" stroke="black" stroke-width="2" cx="1687.8" cy="-224" rx="39.63" ry="18"/>
<text text-anchor="middle" x="1687.8" y="-219.32" font-family="Times,serif" font-size="14.00">q7:10</text>
</g>
<!-- q16:162&#45;&gt;q7:10 -->
<g id="edge17" class="edge">
<title>q16:162&#45;&gt;q7:10</title>
<path fill="none" stroke="black" d="M1472.5,-140.97C1479.1,-144.59 1486,-148.67 1492,-153 1501,-159.4 1500.5,-164.47 1510,-170 1521.6,-176.75 1593.7,-197.78 1642.2,-211.51"/>
<polygon fill="black" stroke="black" points="1640.97,-214.8 1651.54,-214.17 1642.88,-208.07 1640.97,-214.8"/>
<text text-anchor="middle" x="1560.6" y="-205.94" font-family="Times,serif" font-size="14.00">RCPT/250:1</text>
</g>
<!-- q20:43 -->
<g id="node17" class="node">
<title>q20:43</title>
<ellipse fill="none" stroke="black" stroke-width="2" cx="1687.8" cy="-161" rx="45.95" ry="18"/>
<text text-anchor="middle" x="1687.8" y="-156.32" font-family="Times,serif" font-size="14.00">q20:43</text>
</g>
<!-- q16:162&#45;&gt;q20:43 -->
<g id="edge19" class="edge">
<title>q16:162&#45;&gt;q20:43</title>
<path fill="none" stroke="black" d="M1489.1,-132.87C1530.2,-138.73 1589.3,-147.13 1632.2,-153.23"/>
<polygon fill="black" stroke="black" points="1631.71,-156.7 1642.1,-154.64 1632.69,-149.76 1631.71,-156.7"/>
<text text-anchor="middle" x="1560.6" y="-152.94" font-family="Times,serif" font-size="14.00">DATA/550:43</text>
</g>
<!-- q17:3329&#45;&gt;q17:3329 -->
<g id="edge20" class="edge">
<title>q17:3329&#45;&gt;q17:3329</title>
<path fill="none" stroke="black" d="M1665.1,-89.41C1660.9,-99.09 1668.5,-108 1687.8,-108 1699,-108 1706.3,-105.02 1709.6,-100.64"/>
<polygon fill="black" stroke="black" points="1713.07,-101.17 1710.38,-90.92 1706.09,-100.61 1713.07,-101.17"/>
<text text-anchor="middle" x="1687.8" y="-111.95" font-family="Times,serif" font-size="14.00">content/λ:3143</text>
</g>
<!-- q22:58 -->
<g id="node18" class="node">
<title>q22:58</title>
<ellipse fill="none" stroke="black" stroke-width="2" cx="1951.7" cy="-72" rx="45.95" ry="18"/>
<text text-anchor="middle" x="1951.7" y="-67.33" font-family="Times,serif" font-size="14.00">q22:58</text>
</g>
<!-- q17:3329&#45;&gt;q22:58 -->
<g id="edge21" class="edge">
<title>q17:3329&#45;&gt;q22:58</title>
<path fill="none" stroke="black" d="M1747.3,-72C1790.9,-72 1850.2,-72 1893.5,-72"/>
<polygon fill="black" stroke="black" points="1893.49,-75.5 1903.49,-72 1893.49,-68.5 1893.49,-75.5"/>
<text text-anchor="middle" x="1822.9" y="-75.95" font-family="Times,serif" font-size="14.00">content/554:58</text>
</g>
<!-- q21:127 -->
<g id="node19" class="node">
<title>q21:127</title>
<ellipse fill="none" stroke="black" stroke-width="2" cx="1951.7" cy="-18" rx="52.26" ry="18"/>
<text text-anchor="middle" x="1951.7" y="-13.32" font-family="Times,serif" font-size="14.00">q21:127</text>
</g>
<!-- q17:3329&#45;&gt;q21:127 -->
<g id="edge22" class="edge">
<title>q17:3329&#45;&gt;q21:127</title>
<path fill="none" stroke="black" d="M1731.4,-59.23C1742.1,-56.23 1753.6,-53.2 1764.4,-50.75 1806.6,-41.13 1854.8,-32.73 1891.5,-26.85"/>
<polygon fill="black" stroke="black" points="1891.77,-30.35 1901.1,-25.34 1890.68,-23.43 1891.77,-30.35"/>
<text text-anchor="middle" x="1822.9" y="-54.95" font-family="Times,serif" font-size="14.00">content/250:127</text>
</g>
<!-- q23:1 -->
<g id="node20" class="node">
<title>q23:1</title>
<ellipse fill="none" stroke="black" stroke-width="2" cx="1951.7" cy="-126" rx="39.63" ry="18"/>
<text text-anchor="middle" x="1951.7" y="-121.33" font-family="Times,serif" font-size="14.00">q23:1</text>
</g>
<!-- q17:3329&#45;&gt;q23:1 -->
<g id="edge23" class="edge">
<title>q17:3329&#45;&gt;q23:1</title>
<path fill="none" stroke="black" d="M1731.8,-84.71C1742.4,-87.63 1753.8,-90.59 1764.4,-93 1810.7,-103.51 1864.1,-112.67 1901.8,-118.66"/>
<polygon fill="black" stroke="black" points="1901.08,-122.09 1911.5,-120.18 1902.16,-115.17 1901.08,-122.09"/>
<text text-anchor="middle" x="1822.9" y="-118.95" font-family="Times,serif" font-size="14.00">content/550:1</text>
</g>
<!-- q7:10&#45;&gt;q7:10 -->
<g id="edge7" class="edge">
<title>q7:10&#45;&gt;q7:10</title>
<path fill="none" stroke="black" d="M1665.9,-239.92C1660.1,-250.15 1667.5,-260 1687.8,-260 1700.2,-260 1707.8,-256.34 1710.5,-251.17"/>
<polygon fill="black" stroke="black" points="1714.01,-251.19 1709.89,-241.43 1707.02,-251.63 1714.01,-251.19"/>
<text text-anchor="middle" x="1687.8" y="-263.94" font-family="Times,serif" font-size="14.00">RCPT/250:8</text>
</g>
<!-- q11:2 -->
<g id="node9" class="node">
<title>q11:2</title>
<ellipse fill="none" stroke="black" stroke-width="2" cx="1951.7" cy="-224" rx="39.63" ry="18"/>
<text text-anchor="middle" x="1951.7" y="-219.32" font-family="Times,serif" font-size="14.00">q11:2</text>
</g>
<!-- q7:10&#45;&gt;q11:2 -->
<g id="edge8" class="edge">
<title>q7:10&#45;&gt;q11:2</title>
<path fill="none" stroke="black" d="M1728.3,-224C1774.2,-224 1849.9,-224 1900.1,-224"/>
<polygon fill="black" stroke="black" points="1899.79,-227.5 1909.79,-224 1899.79,-220.5 1899.79,-227.5"/>
<text text-anchor="middle" x="1822.9" y="-227.94" font-family="Times,serif" font-size="14.00">DATA/354:2</text>
</g>
<!-- q15:2 -->
<g id="node10" class="node">
<title>q15:2</title>
<ellipse fill="none" stroke="black" stroke-width="2" cx="2192.7" cy="-224" rx="39.63" ry="18"/>
<text text-anchor="middle" x="2192.7" y="-219.32" font-family="Times,serif" font-size="14.00">q15:2</text>
</g>
<!-- q11:2&#45;&gt;q15:2 -->
<g id="edge9" class="edge">
<title>q11:2&#45;&gt;q15:2</title>
<path fill="none" stroke="black" d="M1992.1,-224C2032.8,-224 2096.3,-224 2140.7,-224"/>
<polygon fill="black" stroke="black" points="2140.69,-227.5 2150.69,-224 2140.69,-220.5 2140.69,-227.5"/>
<text text-anchor="middle" x="2072.2" y="-227.94" font-family="Times,serif" font-size="14.00">content/554:2</text>
</g>
<!-- q19:2 -->
<g id="node11" class="node">
<title>q19:2</title>
<ellipse fill="none" stroke="black" stroke-width="2" cx="2405.3" cy="-224" rx="39.63" ry="18"/>
<text text-anchor="middle" x="2405.3" y="-219.32" font-family="Times,serif" font-size="14.00">q19:2</text>
</g>
<!-- q15:2&#45;&gt;q19:2 -->
<g id="edge10" class="edge">
<title>q15:2&#45;&gt;q19:2</title>
<path fill="none" stroke="black" d="M2233.3,-224C2267.4,-224 2316.9,-224 2353.9,-224"/>
<polygon fill="black" stroke="black" points="2353.39,-227.5 2363.39,-224 2353.39,-220.5 2353.39,-227.5"/>
<text text-anchor="middle" x="2305.3" y="-227.94" font-family="Times,serif" font-size="14.00">RSET/250:2</text>
</g>
<!-- q2:242 -->
<g id="node12" class="node">
<title>q2:242</title>
<ellipse fill="none" stroke="black" stroke-width="2" cx="491.48" cy="-179" rx="45.95" ry="18"/>
<text text-anchor="middle" x="491.48" y="-174.32" font-family="Times,serif" font-size="14.00">q2:242</text>
</g>
<!-- q2:242&#45;&gt;q5:232 -->
<g id="edge11" class="edge">
<title>q2:242&#45;&gt;q5:232</title>
<path fill="none" stroke="black" d="M527.32,-166.82C536.44,-163.75 546.27,-160.54 555.43,-157.75 595.08,-145.69 640.43,-133.48 674.12,-124.71"/>
<polygon fill="black" stroke="black" points="674.8,-128.15 683.6,-122.25 673.05,-121.37 674.8,-128.15"/>
<text text-anchor="middle" x="608.31" y="-160.94" font-family="Times,serif" font-size="14.00">AUTH/235:230</text>
</g>
<!-- q6:11 -->
<g id="node13" class="node">
<title>q6:11</title>
<ellipse fill="none" stroke="black" stroke-width="2" cx="725.13" cy="-182" rx="39.63" ry="18"/>
<text text-anchor="middle" x="725.13" y="-177.32" font-family="Times,serif" font-size="14.00">q6:11</text>
</g>
<!-- q2:242&#45;&gt;q6:11 -->
<g id="edge12" class="edge">
<title>q2:242&#45;&gt;q6:11</title>
<path fill="none" stroke="black" d="M538.25,-179.59C577.13,-180.1 632.89,-180.82 673.18,-181.34"/>
<polygon fill="black" stroke="black" points="673.07,-184.84 683.12,-181.47 673.16,-177.84 673.07,-184.84"/>
<text text-anchor="middle" x="608.31" y="-184.94" font-family="Times,serif" font-size="14.00">AUTH/535:11</text>
</g>
<!-- q4:1 -->
<g id="node14" class="node">
<title>q4:1</title>
<ellipse fill="none" stroke="black" stroke-width="2" cx="839.7" cy="-233" rx="33.32" ry="18"/>
<text text-anchor="middle" x="839.7" y="-228.32" font-family="Times,serif" font-size="14.00">q4:1</text>
</g>
<!-- q2:242&#45;&gt;q4:1 -->
<g id="edge13" class="edge">
<title>q2:242&#45;&gt;q4:1</title>
<path fill="none" stroke="black" d="M524.38,-192.34C534.19,-195.99 545.12,-199.59 555.43,-202 638.41,-221.4 737.97,-228.73 794.23,-231.45"/>
<polygon fill="black" stroke="black" points="793.89,-234.94 804.04,-231.89 794.21,-227.95 793.89,-234.94"/>
<text text-anchor="middle" x="608.31" y="-223.94" font-family="Times,serif" font-size="14.00">AUTH/λ:1</text>
</g>
<!-- q10:11 -->
<g id="node15" class="node">
<title>q10:11</title>
<ellipse fill="none" stroke="black" stroke-width="2" cx="954.27" cy="-180" rx="45.95" ry="18"/>
<text text-anchor="middle" x="954.27" y="-175.32" font-family="Times,serif" font-size="14.00">q10:11</text>
</g>
<!-- q6:11&#45;&gt;q10:11 -->
<g id="edge14" class="edge">
<title>q6:11&#45;&gt;q10:11</title>
<path fill="none" stroke="black" d="M765.69,-181.65C801.75,-181.33 855.43,-180.86 896.14,-180.5"/>
<polygon fill="black" stroke="black" points="896.04,-184 906.01,-180.41 895.98,-177 896.04,-184"/>
<text text-anchor="middle" x="839.7" y="-184.94" font-family="Times,serif" font-size="14.00">AUTH/334:11</text>
</g>
<!-- q4:1&#45;&gt;q7:10 -->
<g id="edge15" class="edge">
<title>q4:1&#45;&gt;q7:10</title>
<path fill="none" stroke="black" d="M873.91,-233.23C918.71,-233.53 1000.98,-234 1071.2,-234 1071.2,-234 1071.2,-234 1440.8,-234 1508.4,-234 1586.5,-230.18 1636.2,-227.26"/>
<polygon fill="black" stroke="black" points="1636.31,-230.76 1646.09,-226.67 1635.9,-223.77 1636.31,-230.76"/>
<text text-anchor="middle" x="1196.5" y="-237.94" font-family="Times,serif" font-size="14.00">MAIL/250:1</text>
</g>
<!-- q14:11 -->
<g id="node16" class="node">
<title>q14:11</title>
<ellipse fill="none" stroke="black" stroke-width="2" cx="1196.5" cy="-180" rx="45.95" ry="18"/>
<text text-anchor="middle" x="1196.5" y="-175.32" font-family="Times,serif" font-size="14.00">q14:11</text>
</g>
<!-- q10:11&#45;&gt;q14:11 -->
<g id="edge16" class="edge">
<title>q10:11&#45;&gt;q14:11</title>
<path fill="none" stroke="black" d="M1001.02,-180C1040.1,-180 1096.5,-180 1138.5,-180"/>
<polygon fill="black" stroke="black" points="1138.39,-183.5 1148.39,-180 1138.39,-176.5 1138.39,-183.5"/>
<text text-anchor="middle" x="1072.2" y="-183.94" font-family="Times,serif" font-size="14.00">content/535:11</text>
</g>
<!-- q18:4 -->
<g id="node25" class="node">
<title>q18:4</title>
<ellipse fill="none" stroke="black" stroke-width="2" cx="1439.8" cy="-180" rx="39.63" ry="18"/>
<text text-anchor="middle" x="1439.8" y="-175.32" font-family="Times,serif" font-size="14.00">q18:4</text>
</g>
<!-- q14:11&#45;&gt;q18:4 -->
<g id="edge28" class="edge">
<title>q14:11&#45;&gt;q18:4</title>
<path fill="none" stroke="black" d="M1243.1,-180C1284.4,-180 1345.2,-180 1388,-180"/>
<polygon fill="black" stroke="black" points="1387.79,-183.5 1397.79,-180 1387.79,-176.5 1387.79,-183.5"/>
<text text-anchor="middle" x="1318.1" y="-183.94" font-family="Times,serif" font-size="14.00">λ/451:4</text>
</g>
<!-- q25:58 -->
<g id="node21" class="node">
<title>q25:58</title>
<ellipse fill="none" stroke="black" stroke-width="2" cx="2192.7" cy="-72" rx="45.95" ry="18"/>
<text text-anchor="middle" x="2192.7" y="-67.33" font-family="Times,serif" font-size="14.00">q25:58</text>
</g>
<!-- q22:58&#45;&gt;q25:58 -->
<g id="edge24" class="edge">
<title>q22:58&#45;&gt;q25:58</title>
<path fill="none" stroke="black" d="M1998.5,-72C2037.3,-72 2093,-72 2134.7,-72"/>
<polygon fill="black" stroke="black" points="2134.49,-75.5 2144.49,-72 2134.49,-68.5 2134.49,-75.5"/>
<text text-anchor="middle" x="2072.2" y="-75.95" font-family="Times,serif" font-size="14.00">RSET/250:58</text>
</g>
<!-- q24:127 -->
<g id="node22" class="node">
<title>q24:127</title>
<ellipse fill="none" stroke="black" stroke-width="2" cx="2192.7" cy="-18" rx="52.26" ry="18"/>
<text text-anchor="middle" x="2192.7" y="-13.32" font-family="Times,serif" font-size="14.00">q24:127</text>
</g>
<!-- q21:127&#45;&gt;q24:127 -->
<g id="edge25" class="edge">
<title>q21:127&#45;&gt;q24:127</title>
<path fill="none" stroke="black" d="M2004.8,-18C2041.2,-18 2090,-18 2128.5,-18"/>
<polygon fill="black" stroke="black" points="2128.09,-21.5 2138.09,-18 2128.09,-14.5 2128.09,-21.5"/>
<text text-anchor="middle" x="2072.2" y="-21.95" font-family="Times,serif" font-size="14.00">QUIT/221:127</text>
</g>
<!-- q26:1 -->
<g id="node23" class="node">
<title>q26:1</title>
<ellipse fill="none" stroke="black" stroke-width="2" cx="2192.7" cy="-126" rx="39.63" ry="18"/>
<text text-anchor="middle" x="2192.7" y="-121.33" font-family="Times,serif" font-size="14.00">q26:1</text>
</g>
<!-- q23:1&#45;&gt;q26:1 -->
<g id="edge26" class="edge">
<title>q23:1&#45;&gt;q26:1</title>
<path fill="none" stroke="black" d="M1992.1,-126C2032.8,-126 2096.3,-126 2140.7,-126"/>
<polygon fill="black" stroke="black" points="2140.69,-129.5 2150.69,-126 2140.69,-122.5 2140.69,-129.5"/>
<text text-anchor="middle" x="2072.2" y="-129.94" font-family="Times,serif" font-size="14.00">RSET/250:1</text>
</g>
<!-- q3:2 -->
<g id="node24" class="node">
<title>q3:2</title>
<ellipse fill="none" stroke="black" stroke-width="2" cx="491.48" cy="-119" rx="33.32" ry="18"/>
<text text-anchor="middle" x="491.48" y="-114.33" font-family="Times,serif" font-size="14.00">q3:2</text>
</g>
<!-- q3:2&#45;&gt;q5:232 -->
<g id="edge27" class="edge">
<title>q3:2&#45;&gt;q5:232</title>
<path fill="none" stroke="black" d="M523.05,-111.83C533.28,-109.75 544.79,-107.78 555.43,-106.75 593,-103.13 635.47,-104.48 668.4,-106.72"/>
<polygon fill="black" stroke="black" points="667.89,-110.19 678.12,-107.43 668.4,-103.21 667.89,-110.19"/>
<text text-anchor="middle" x="608.31" y="-109.95" font-family="Times,serif" font-size="14.00">AUTH/235:2</text>
</g>
<!-- q0:244 -->
<g id="node26" class="node">
<title>q0:244</title>
<ellipse fill="none" stroke="black" stroke-width="2" cx="53.95" cy="-146" rx="49.95" ry="49.95"/>
<ellipse fill="none" stroke="black" stroke-width="2" cx="53.95" cy="-146" rx="53.95" ry="53.95"/>
<text text-anchor="middle" x="53.95" y="-141.32" font-family="Times,serif" font-size="14.00">q0:244</text>
</g>
<!-- q1:244 -->
<g id="node27" class="node">
<title>q1:244</title>
<ellipse fill="none" stroke="black" stroke-width="2" cx="257.84" cy="-146" rx="45.95" ry="18"/>
<text text-anchor="middle" x="257.84" y="-141.32" font-family="Times,serif" font-size="14.00">q1:244</text>
</g>
<!-- q0:244&#45;&gt;q1:244 -->
<g id="edge29" class="edge">
<title>q0:244&#45;&gt;q1:244</title>
<path fill="none" stroke="black" d="M104.85,-146C133.64,-146 169.94,-146 199.84,-146"/>
<polygon fill="black" stroke="black" points="199.45,-149.5 209.45,-146 199.45,-142.5 199.45,-149.5"/>
<text text-anchor="middle" x="157.89" y="-149.94" font-family="Times,serif" font-size="14.00">λ/220:244</text>
</g>
<!-- q1:244&#45;&gt;q2:242 -->
<g id="edge30" class="edge">
<title>q1:244&#45;&gt;q2:242</title>
<path fill="none" stroke="black" d="M302.14,-152.17C340,-157.56 395.17,-165.42 436.02,-171.24"/>
<polygon fill="black" stroke="black" points="435.51,-174.7 445.9,-172.65 436.49,-167.77 435.51,-174.7"/>
<text text-anchor="middle" x="374.66" y="-172.94" font-family="Times,serif" font-size="14.00">EHLO/250:242</text>
</g>
<!-- q1:244&#45;&gt;q3:2 -->
<g id="edge31" class="edge">
<title>q1:244&#45;&gt;q3:2</title>
<path fill="none" stroke="black" d="M296.21,-135.12C304.56,-133.03 313.43,-131.08 321.79,-129.75 363.53,-123.09 411.69,-120.52 445.85,-119.55"/>
<polygon fill="black" stroke="black" points="445.88,-123.05 455.8,-119.31 445.71,-116.05 445.88,-123.05"/>
<text text-anchor="middle" x="374.66" y="-132.94" font-family="Times,serif" font-size="14.00">EHLO/λ:2</text>
</g>
</g>
</svg>
