<?xml version="1.0" encoding="UTF-8" standalone="no"?>
<!DOCTYPE svg PUBLIC "-//W3C//DTD SVG 1.1//EN"
 "http://www.w3.org/Graphics/SVG/1.1/DTD/svg11.dtd">
<!-- Generated by graphviz version 12.0.0 (20240803.0821)
 -->
<!-- Pages: 1 -->
<svg width="2216pt" height="299pt"
 viewBox="0.00 0.00 2216.45 299.00" xmlns="http://www.w3.org/2000/svg" xmlns:xlink="http://www.w3.org/1999/xlink">
<g id="graph0" class="graph" transform="scale(1 1) rotate(0) translate(4 295)">
<polygon fill="white" stroke="none" points="-4,4 -4,-295 2212.45,-295 2212.45,4 -4,4"/>
<!-- q16:163 -->
<g id="node1" class="node">
<title>q16:163</title>
<ellipse fill="none" stroke="black" stroke-width="2" cx="1439.8" cy="-83" rx="52.26" ry="18"/>
<text text-anchor="middle" x="1439.8" y="-78.33" font-family="Times,serif" font-size="14.00">q16:163</text>
</g>
<!-- q16:163&#45;&gt;q16:163 -->
<g id="edge1" class="edge">
<title>q16:163&#45;&gt;q16:163</title>
<path fill="none" stroke="black" d="M1418.2,-100.04C1413.8,-109.86 1421,-119 1439.8,-119 1450.6,-119 1457.6,-115.94 1460.7,-111.47"/>
<polygon fill="black" stroke="black" points="1464.19,-111.72 1461.22,-101.55 1457.2,-111.35 1464.19,-111.72"/>
<text text-anchor="middle" x="1439.8" y="-122.95" font-family="Times,serif" font-size="14.00">content/λ:74</text>
</g>
<!-- q21:65 -->
<g id="node2" class="node">
<title>q21:65</title>
<ellipse fill="none" stroke="black" stroke-width="2" cx="1694.6" cy="-97" rx="45.95" ry="18"/>
<text text-anchor="middle" x="1694.6" y="-92.33" font-family="Times,serif" font-size="14.00">q21:65</text>
</g>
<!-- q16:163&#45;&gt;q21:65 -->
<g id="edge2" class="edge">
<title>q16:163&#45;&gt;q21:65</title>
<path fill="none" stroke="black" d="M1492.2,-85.85C1534.2,-88.18 1593.5,-91.46 1636.9,-93.86"/>
<polygon fill="black" stroke="black" points="1636.41,-97.34 1646.59,-94.4 1636.8,-90.35 1636.41,-97.34"/>
<text text-anchor="middle" x="1564" y="-95.95" font-family="Times,serif" font-size="14.00">content/554:65</text>
</g>
<!-- q22:24 -->
<g id="node3" class="node">
<title>q22:24</title>
<ellipse fill="none" stroke="black" stroke-width="2" cx="1694.6" cy="-43" rx="45.95" ry="18"/>
<text text-anchor="middle" x="1694.6" y="-38.33" font-family="Times,serif" font-size="14.00">q22:24</text>
</g>
<!-- q16:163&#45;&gt;q22:24 -->
<g id="edge3" class="edge">
<title>q16:163&#45;&gt;q22:24</title>
<path fill="none" stroke="black" d="M1482.3,-71.78C1491.4,-69.57 1501,-67.42 1510,-65.75 1552.5,-57.86 1601,-51.98 1637.4,-48.18"/>
<polygon fill="black" stroke="black" points="1637.7,-51.67 1647.29,-47.17 1636.99,-44.71 1637.7,-51.67"/>
<text text-anchor="middle" x="1564" y="-69.95" font-family="Times,serif" font-size="14.00">content/250:24</text>
</g>
<!-- q26:65 -->
<g id="node4" class="node">
<title>q26:65</title>
<ellipse fill="none" stroke="black" stroke-width="2" cx="1943.1" cy="-97" rx="45.95" ry="18"/>
<text text-anchor="middle" x="1943.1" y="-92.33" font-family="Times,serif" font-size="14.00">q26:65</text>
</g>
<!-- q21:65&#45;&gt;q26:65 -->
<g id="edge4" class="edge">
<title>q21:65&#45;&gt;q26:65</title>
<path fill="none" stroke="black" d="M1741.4,-97C1782,-97 1841.6,-97 1885.3,-97"/>
<polygon fill="black" stroke="black" points="1885.09,-100.5 1895.09,-97 1885.09,-93.5 1885.09,-100.5"/>
<text text-anchor="middle" x="1825.2" y="-100.95" font-family="Times,serif" font-size="14.00">RSET/250:65</text>
</g>
<!-- q27:24 -->
<g id="node5" class="node">
<title>q27:24</title>
<ellipse fill="none" stroke="black" stroke-width="2" cx="1943.1" cy="-43" rx="45.95" ry="18"/>
<text text-anchor="middle" x="1943.1" y="-38.33" font-family="Times,serif" font-size="14.00">q27:24</text>
</g>
<!-- q22:24&#45;&gt;q27:24 -->
<g id="edge5" class="edge">
<title>q22:24&#45;&gt;q27:24</title>
<path fill="none" stroke="black" d="M1741.4,-43C1782,-43 1841.6,-43 1885.3,-43"/>
<polygon fill="black" stroke="black" points="1885.09,-46.5 1895.09,-43 1885.09,-39.5 1885.09,-46.5"/>
<text text-anchor="middle" x="1825.2" y="-46.95" font-family="Times,serif" font-size="14.00">QUIT/221:24</text>
</g>
<!-- q9:10 -->
<g id="node6" class="node">
<title>q9:10</title>
<ellipse fill="none" stroke="black" stroke-width="2" cx="954.27" cy="-18" rx="39.63" ry="18"/>
<text text-anchor="middle" x="954.27" y="-13.32" font-family="Times,serif" font-size="14.00">q9:10</text>
</g>
<!-- q13:10 -->
<g id="node7" class="node">
<title>q13:10</title>
<ellipse fill="none" stroke="black" stroke-width="2" cx="1196.5" cy="-18" rx="45.95" ry="18"/>
<text text-anchor="middle" x="1196.5" y="-13.32" font-family="Times,serif" font-size="14.00">q13:10</text>
</g>
<!-- q9:10&#45;&gt;q13:10 -->
<g id="edge6" class="edge">
<title>q9:10&#45;&gt;q13:10</title>
<path fill="none" stroke="black" d="M994.67,-18C1033.8,-18 1094.1,-18 1138.4,-18"/>
<polygon fill="black" stroke="black" points="1138.39,-21.5 1148.39,-18 1138.39,-14.5 1138.39,-21.5"/>
<text text-anchor="middle" x="1072.2" y="-21.95" font-family="Times,serif" font-size="14.00">content/535:10</text>
</g>
<!-- q17:4 -->
<g id="node8" class="node">
<title>q17:4</title>
<ellipse fill="none" stroke="black" stroke-width="2" cx="1439.8" cy="-18" rx="39.63" ry="18"/>
<text text-anchor="middle" x="1439.8" y="-13.32" font-family="Times,serif" font-size="14.00">q17:4</text>
</g>
<!-- q13:10&#45;&gt;q17:4 -->
<g id="edge7" class="edge">
<title>q13:10&#45;&gt;q17:4</title>
<path fill="none" stroke="black" d="M1243.1,-18C1284.4,-18 1345.2,-18 1388,-18"/>
<polygon fill="black" stroke="black" points="1387.79,-21.5 1397.79,-18 1387.79,-14.5 1387.79,-21.5"/>
<text text-anchor="middle" x="1318.1" y="-21.95" font-family="Times,serif" font-size="14.00">λ/451:4</text>
</g>
<!-- q15:2534 -->
<g id="node9" class="node">
<title>q15:2534</title>
<ellipse fill="none" stroke="black" stroke-width="2" cx="1694.6" cy="-219" rx="58.57" ry="18"/>
<text text-anchor="middle" x="1694.6" y="-214.32" font-family="Times,serif" font-size="14.00">q15:2534</text>
</g>
<!-- q15:2534&#45;&gt;q15:2534 -->
<g id="edge8" class="edge">
<title>q15:2534&#45;&gt;q15:2534</title>
<path fill="none" stroke="black" d="M1671.3,-236.41C1666.9,-246.09 1674.7,-255 1694.6,-255 1706.1,-255 1713.5,-252.02 1716.9,-247.64"/>
<polygon fill="black" stroke="black" points="1720.36,-248.19 1717.77,-237.92 1713.39,-247.57 1720.36,-248.19"/>
<text text-anchor="middle" x="1694.6" y="-258.94" font-family="Times,serif" font-size="14.00">content/λ:2435</text>
</g>
<!-- q20:1 -->
<g id="node10" class="node">
<title>q20:1</title>
<ellipse fill="none" stroke="black" stroke-width="2" cx="1943.1" cy="-273" rx="39.63" ry="18"/>
<text text-anchor="middle" x="1943.1" y="-268.32" font-family="Times,serif" font-size="14.00">q20:1</text>
</g>
<!-- q15:2534&#45;&gt;q20:1 -->
<g id="edge9" class="edge">
<title>q15:2534&#45;&gt;q20:1</title>
<path fill="none" stroke="black" d="M1738.6,-231.59C1749.2,-234.52 1760.6,-237.51 1771.2,-240 1812.3,-249.66 1859.4,-258.61 1893.8,-264.74"/>
<polygon fill="black" stroke="black" points="1892.95,-268.14 1903.41,-266.45 1894.17,-261.25 1892.95,-268.14"/>
<text text-anchor="middle" x="1825.2" y="-264.94" font-family="Times,serif" font-size="14.00">content/550:1</text>
</g>
<!-- q19:89 -->
<g id="node11" class="node">
<title>q19:89</title>
<ellipse fill="none" stroke="black" stroke-width="2" cx="1943.1" cy="-219" rx="45.95" ry="18"/>
<text text-anchor="middle" x="1943.1" y="-214.32" font-family="Times,serif" font-size="14.00">q19:89</text>
</g>
<!-- q15:2534&#45;&gt;q19:89 -->
<g id="edge10" class="edge">
<title>q15:2534&#45;&gt;q19:89</title>
<path fill="none" stroke="black" d="M1754,-219C1793.6,-219 1845.6,-219 1884.9,-219"/>
<polygon fill="black" stroke="black" points="1884.89,-222.5 1894.89,-219 1884.89,-215.5 1884.89,-222.5"/>
<text text-anchor="middle" x="1825.2" y="-222.94" font-family="Times,serif" font-size="14.00">content/250:89</text>
</g>
<!-- q18:9 -->
<g id="node12" class="node">
<title>q18:9</title>
<ellipse fill="none" stroke="black" stroke-width="2" cx="1943.1" cy="-165" rx="39.63" ry="18"/>
<text text-anchor="middle" x="1943.1" y="-160.32" font-family="Times,serif" font-size="14.00">q18:9</text>
</g>
<!-- q15:2534&#45;&gt;q18:9 -->
<g id="edge11" class="edge">
<title>q15:2534&#45;&gt;q18:9</title>
<path fill="none" stroke="black" d="M1738.6,-206.23C1749.2,-203.27 1760.5,-200.25 1771.2,-197.75 1812.2,-188.06 1859.4,-179.19 1893.8,-173.13"/>
<polygon fill="black" stroke="black" points="1894.16,-176.62 1903.41,-171.45 1892.96,-169.72 1894.16,-176.62"/>
<text text-anchor="middle" x="1825.2" y="-200.94" font-family="Times,serif" font-size="14.00">content/554:9</text>
</g>
<!-- q25:1 -->
<g id="node13" class="node">
<title>q25:1</title>
<ellipse fill="none" stroke="black" stroke-width="2" cx="2162.5" cy="-273" rx="39.63" ry="18"/>
<text text-anchor="middle" x="2162.5" y="-268.32" font-family="Times,serif" font-size="14.00">q25:1</text>
</g>
<!-- q20:1&#45;&gt;q25:1 -->
<g id="edge12" class="edge">
<title>q20:1&#45;&gt;q25:1</title>
<path fill="none" stroke="black" d="M1983.7,-273C2019.5,-273 2072.3,-273 2111.1,-273"/>
<polygon fill="black" stroke="black" points="2110.69,-276.5 2120.69,-273 2110.69,-269.5 2110.69,-276.5"/>
<text text-anchor="middle" x="2052.8" y="-276.94" font-family="Times,serif" font-size="14.00">RSET/250:1</text>
</g>
<!-- q24:89 -->
<g id="node14" class="node">
<title>q24:89</title>
<ellipse fill="none" stroke="black" stroke-width="2" cx="2162.5" cy="-219" rx="45.95" ry="18"/>
<text text-anchor="middle" x="2162.5" y="-214.32" font-family="Times,serif" font-size="14.00">q24:89</text>
</g>
<!-- q19:89&#45;&gt;q24:89 -->
<g id="edge13" class="edge">
<title>q19:89&#45;&gt;q24:89</title>
<path fill="none" stroke="black" d="M1989.9,-219C2023.3,-219 2068.8,-219 2104.5,-219"/>
<polygon fill="black" stroke="black" points="2104.19,-222.5 2114.19,-219 2104.19,-215.5 2104.19,-222.5"/>
<text text-anchor="middle" x="2052.8" y="-222.94" font-family="Times,serif" font-size="14.00">QUIT/221:89</text>
</g>
<!-- q23:9 -->
<g id="node15" class="node">
<title>q23:9</title>
<ellipse fill="none" stroke="black" stroke-width="2" cx="2162.5" cy="-165" rx="39.63" ry="18"/>
<text text-anchor="middle" x="2162.5" y="-160.32" font-family="Times,serif" font-size="14.00">q23:9</text>
</g>
<!-- q18:9&#45;&gt;q23:9 -->
<g id="edge14" class="edge">
<title>q18:9&#45;&gt;q23:9</title>
<path fill="none" stroke="black" d="M1983.7,-165C2019.5,-165 2072.3,-165 2111.1,-165"/>
<polygon fill="black" stroke="black" points="2110.69,-168.5 2120.69,-165 2110.69,-161.5 2110.69,-168.5"/>
<text text-anchor="middle" x="2052.8" y="-168.94" font-family="Times,serif" font-size="14.00">RSET/250:9</text>
</g>
<!-- q5:10 -->
<g id="node16" class="node">
<title>q5:10</title>
<ellipse fill="none" stroke="black" stroke-width="2" cx="725.13" cy="-42" rx="39.63" ry="18"/>
<text text-anchor="middle" x="725.13" y="-37.33" font-family="Times,serif" font-size="14.00">q5:10</text>
</g>
<!-- q5:10&#45;&gt;q9:10 -->
<g id="edge15" class="edge">
<title>q5:10&#45;&gt;q9:10</title>
<path fill="none" stroke="black" d="M764.66,-37.93C802.96,-33.88 861.85,-27.66 903.63,-23.25"/>
<polygon fill="black" stroke="black" points="903.85,-26.74 913.42,-22.21 903.11,-19.78 903.85,-26.74"/>
<text text-anchor="middle" x="839.7" y="-38.95" font-family="Times,serif" font-size="14.00">AUTH/334:10</text>
</g>
<!-- q12:230 -->
<g id="node17" class="node">
<title>q12:230</title>
<ellipse fill="none" stroke="black" stroke-width="2" cx="1196.5" cy="-126" rx="52.26" ry="18"/>
<text text-anchor="middle" x="1196.5" y="-121.33" font-family="Times,serif" font-size="14.00">q12:230</text>
</g>
<!-- q12:230&#45;&gt;q16:163 -->
<g id="edge16" class="edge">
<title>q12:230&#45;&gt;q16:163</title>
<path fill="none" stroke="black" d="M1227.8,-110.72C1239.6,-105.4 1253.6,-99.97 1266.7,-96.75 1302,-88.13 1342.4,-84.59 1375.2,-83.25"/>
<polygon fill="black" stroke="black" points="1375.11,-86.76 1384.99,-82.92 1374.87,-79.76 1375.11,-86.76"/>
<text text-anchor="middle" x="1318.1" y="-99.95" font-family="Times,serif" font-size="14.00">DATA/354:89</text>
</g>
<!-- q10:151 -->
<g id="node18" class="node">
<title>q10:151</title>
<ellipse fill="none" stroke="black" stroke-width="2" cx="1439.8" cy="-172" rx="52.26" ry="18"/>
<text text-anchor="middle" x="1439.8" y="-167.32" font-family="Times,serif" font-size="14.00">q10:151</text>
</g>
<!-- q12:230&#45;&gt;q10:151 -->
<g id="edge17" class="edge">
<title>q12:230&#45;&gt;q10:151</title>
<path fill="none" stroke="black" d="M1249.4,-125.91C1284,-126.96 1330,-130.48 1369.5,-140.75 1379.5,-143.36 1389.9,-147.3 1399.5,-151.52"/>
<polygon fill="black" stroke="black" points="1397.98,-154.67 1408.53,-155.7 1400.92,-148.32 1397.98,-154.67"/>
<text text-anchor="middle" x="1318.1" y="-143.94" font-family="Times,serif" font-size="14.00">RCPT/250:141</text>
</g>
<!-- q10:151&#45;&gt;q15:2534 -->
<g id="edge18" class="edge">
<title>q10:151&#45;&gt;q15:2534</title>
<path fill="none" stroke="black" d="M1482,-183.42C1491.2,-185.77 1500.9,-188.1 1510,-190 1549.1,-198.14 1593.2,-205.18 1628.4,-210.28"/>
<polygon fill="black" stroke="black" points="1627.61,-213.7 1638,-211.66 1628.6,-206.77 1627.61,-213.7"/>
<text text-anchor="middle" x="1564" y="-211.94" font-family="Times,serif" font-size="14.00">DATA/354:99</text>
</g>
<!-- q10:151&#45;&gt;q10:151 -->
<g id="edge19" class="edge">
<title>q10:151&#45;&gt;q10:151</title>
<path fill="none" stroke="black" d="M1418.2,-189.04C1413.8,-198.86 1421,-208 1439.8,-208 1450.6,-208 1457.6,-204.94 1460.7,-200.47"/>
<polygon fill="black" stroke="black" points="1464.19,-200.72 1461.22,-190.55 1457.2,-200.35 1464.19,-200.72"/>
<text text-anchor="middle" x="1439.8" y="-211.94" font-family="Times,serif" font-size="14.00">RCPT/250:9</text>
</g>
<!-- q14:43 -->
<g id="node19" class="node">
<title>q14:43</title>
<ellipse fill="none" stroke="black" stroke-width="2" cx="1694.6" cy="-165" rx="45.95" ry="18"/>
<text text-anchor="middle" x="1694.6" y="-160.32" font-family="Times,serif" font-size="14.00">q14:43</text>
</g>
<!-- q10:151&#45;&gt;q14:43 -->
<g id="edge20" class="edge">
<title>q10:151&#45;&gt;q14:43</title>
<path fill="none" stroke="black" d="M1492.8,-170.56C1534.7,-169.4 1593.4,-167.77 1636.5,-166.58"/>
<polygon fill="black" stroke="black" points="1636.49,-170.08 1646.39,-166.3 1636.29,-163.08 1636.49,-170.08"/>
<text text-anchor="middle" x="1564" y="-172.94" font-family="Times,serif" font-size="14.00">DATA/550:43</text>
</g>
<!-- q4:232 -->
<g id="node20" class="node">
<title>q4:232</title>
<ellipse fill="none" stroke="black" stroke-width="2" cx="725.13" cy="-101" rx="45.95" ry="18"/>
<text text-anchor="middle" x="725.13" y="-96.33" font-family="Times,serif" font-size="14.00">q4:232</text>
</g>
<!-- q7:2 -->
<g id="node21" class="node">
<title>q7:2</title>
<ellipse fill="none" stroke="black" stroke-width="2" cx="954.27" cy="-72" rx="33.32" ry="18"/>
<text text-anchor="middle" x="954.27" y="-67.33" font-family="Times,serif" font-size="14.00">q7:2</text>
</g>
<!-- q4:232&#45;&gt;q7:2 -->
<g id="edge21" class="edge">
<title>q4:232&#45;&gt;q7:2</title>
<path fill="none" stroke="black" d="M765.26,-91.3C773.11,-89.59 781.33,-87.97 789.08,-86.75 829.41,-80.4 875.79,-76.55 908.95,-74.38"/>
<polygon fill="black" stroke="black" points="908.82,-77.9 918.58,-73.78 908.38,-70.91 908.82,-77.9"/>
<text text-anchor="middle" x="839.7" y="-89.95" font-family="Times,serif" font-size="14.00">MAIL/553:2</text>
</g>
<!-- q8:230 -->
<g id="node22" class="node">
<title>q8:230</title>
<ellipse fill="none" stroke="black" stroke-width="2" cx="954.27" cy="-126" rx="45.95" ry="18"/>
<text text-anchor="middle" x="954.27" y="-121.33" font-family="Times,serif" font-size="14.00">q8:230</text>
</g>
<!-- q4:232&#45;&gt;q8:230 -->
<g id="edge22" class="edge">
<title>q4:232&#45;&gt;q8:230</title>
<path fill="none" stroke="black" d="M770.46,-105.88C806.89,-109.89 858.69,-115.59 897.85,-119.9"/>
<polygon fill="black" stroke="black" points="897.22,-123.35 907.54,-120.96 897.99,-116.39 897.22,-123.35"/>
<text text-anchor="middle" x="839.7" y="-121.95" font-family="Times,serif" font-size="14.00">MAIL/250:230</text>
</g>
<!-- q11:2 -->
<g id="node23" class="node">
<title>q11:2</title>
<ellipse fill="none" stroke="black" stroke-width="2" cx="1196.5" cy="-72" rx="39.63" ry="18"/>
<text text-anchor="middle" x="1196.5" y="-67.33" font-family="Times,serif" font-size="14.00">q11:2</text>
</g>
<!-- q7:2&#45;&gt;q11:2 -->
<g id="edge23" class="edge">
<title>q7:2&#45;&gt;q11:2</title>
<path fill="none" stroke="black" d="M988.42,-72C1028.8,-72 1097.3,-72 1144.4,-72"/>
<polygon fill="black" stroke="black" points="1144.39,-75.5 1154.39,-72 1144.39,-68.5 1144.39,-75.5"/>
<text text-anchor="middle" x="1072.2" y="-75.95" font-family="Times,serif" font-size="14.00">RSET/250:2</text>
</g>
<!-- q8:230&#45;&gt;q12:230 -->
<g id="edge24" class="edge">
<title>q8:230&#45;&gt;q12:230</title>
<path fill="none" stroke="black" d="M1001.02,-126C1038.1,-126 1090.8,-126 1131.9,-126"/>
<polygon fill="black" stroke="black" points="1131.69,-129.5 1141.69,-126 1131.69,-122.5 1131.69,-129.5"/>
<text text-anchor="middle" x="1072.2" y="-129.94" font-family="Times,serif" font-size="14.00">RCPT/250:230</text>
</g>
<!-- q3:241 -->
<g id="node24" class="node">
<title>q3:241</title>
<ellipse fill="none" stroke="black" stroke-width="2" cx="491.48" cy="-99" rx="45.95" ry="18"/>
<text text-anchor="middle" x="491.48" y="-94.33" font-family="Times,serif" font-size="14.00">q3:241</text>
</g>
<!-- q3:241&#45;&gt;q5:10 -->
<g id="edge25" class="edge">
<title>q3:241&#45;&gt;q5:10</title>
<path fill="none" stroke="black" d="M526.89,-86.58C536.1,-83.47 546.09,-80.31 555.43,-77.75 595.77,-66.71 642.32,-57.07 676.29,-50.59"/>
<polygon fill="black" stroke="black" points="676.63,-54.09 685.81,-48.8 675.34,-47.21 676.63,-54.09"/>
<text text-anchor="middle" x="608.31" y="-81.95" font-family="Times,serif" font-size="14.00">AUTH/535:10</text>
</g>
<!-- q3:241&#45;&gt;q4:232 -->
<g id="edge26" class="edge">
<title>q3:241&#45;&gt;q4:232</title>
<path fill="none" stroke="black" d="M538.25,-99.39C575.21,-99.71 627.42,-100.17 667.1,-100.51"/>
<polygon fill="black" stroke="black" points="666.92,-104.01 676.95,-100.6 666.98,-97.01 666.92,-104.01"/>
<text text-anchor="middle" x="608.31" y="-103.95" font-family="Times,serif" font-size="14.00">AUTH/235:230</text>
</g>
<!-- q6:1 -->
<g id="node25" class="node">
<title>q6:1</title>
<ellipse fill="none" stroke="black" stroke-width="2" cx="839.7" cy="-167" rx="33.32" ry="18"/>
<text text-anchor="middle" x="839.7" y="-162.32" font-family="Times,serif" font-size="14.00">q6:1</text>
</g>
<!-- q3:241&#45;&gt;q6:1 -->
<g id="edge27" class="edge">
<title>q3:241&#45;&gt;q6:1</title>
<path fill="none" stroke="black" d="M525.8,-111.86C535.27,-115.19 545.67,-118.52 555.43,-121 638.84,-142.17 738.64,-155.71 794.75,-162.28"/>
<polygon fill="black" stroke="black" points="794.2,-165.74 804.54,-163.41 795,-158.79 794.2,-165.74"/>
<text text-anchor="middle" x="608.31" y="-145.94" font-family="Times,serif" font-size="14.00">AUTH/λ:1</text>
</g>
<!-- q6:1&#45;&gt;q10:151 -->
<g id="edge28" class="edge">
<title>q6:1&#45;&gt;q10:151</title>
<path fill="none" stroke="black" d="M873.71,-167.28C969.52,-168.08 1248.9,-170.41 1375.3,-171.47"/>
<polygon fill="black" stroke="black" points="1375.16,-174.97 1385.19,-171.55 1375.21,-167.97 1375.16,-174.97"/>
<text text-anchor="middle" x="1072.2" y="-172.94" font-family="Times,serif" font-size="14.00">MAIL/250:1</text>
</g>
<!-- q1:243 -->
<g id="node26" class="node">
<title>q1:243</title>
<ellipse fill="none" stroke="black" stroke-width="2" cx="257.84" cy="-66" rx="45.95" ry="18"/>
<text text-anchor="middle" x="257.84" y="-61.33" font-family="Times,serif" font-size="14.00">q1:243</text>
</g>
<!-- q1:243&#45;&gt;q3:241 -->
<g id="edge29" class="edge">
<title>q1:243&#45;&gt;q3:241</title>
<path fill="none" stroke="black" d="M302.14,-72.17C340,-77.56 395.17,-85.42 436.02,-91.24"/>
<polygon fill="black" stroke="black" points="435.51,-94.7 445.9,-92.65 436.49,-87.77 435.51,-94.7"/>
<text text-anchor="middle" x="374.66" y="-92.95" font-family="Times,serif" font-size="14.00">EHLO/250:241</text>
</g>
<!-- q2:2 -->
<g id="node27" class="node">
<title>q2:2</title>
<ellipse fill="none" stroke="black" stroke-width="2" cx="491.48" cy="-39" rx="33.32" ry="18"/>
<text text-anchor="middle" x="491.48" y="-34.33" font-family="Times,serif" font-size="14.00">q2:2</text>
</g>
<!-- q1:243&#45;&gt;q2:2 -->
<g id="edge30" class="edge">
<title>q1:243&#45;&gt;q2:2</title>
<path fill="none" stroke="black" d="M298.66,-56.83C306.31,-55.29 314.27,-53.84 321.79,-52.75 363.67,-46.66 411.82,-43.07 445.93,-41.1"/>
<polygon fill="black" stroke="black" points="446.07,-44.59 455.86,-40.55 445.68,-37.6 446.07,-44.59"/>
<text text-anchor="middle" x="374.66" y="-56.95" font-family="Times,serif" font-size="14.00">EHLO/λ:2</text>
</g>
<!-- q2:2&#45;&gt;q4:232 -->
<g id="edge31" class="edge">
<title>q2:2&#45;&gt;q4:232</title>
<path fill="none" stroke="black" d="M520.6,-29.03C556.2,-18.28 618.09,-6.03 661.18,-32.75 676.47,-42.23 667.5,-55.32 679.18,-69 682.11,-72.43 685.47,-75.67 689.02,-78.69"/>
<polygon fill="black" stroke="black" points="686.82,-81.42 696.87,-84.77 691.11,-75.88 686.82,-81.42"/>
<text text-anchor="middle" x="608.31" y="-36.95" font-family="Times,serif" font-size="14.00">AUTH/235:2</text>
</g>
<!-- q0:243 -->
<g id="node28" class="node">
<title>q0:243</title>
<ellipse fill="none" stroke="black" stroke-width="2" cx="53.95" cy="-66" rx="49.95" ry="49.95"/>
<ellipse fill="none" stroke="black" stroke-width="2" cx="53.95" cy="-66" rx="53.95" ry="53.95"/>
<text text-anchor="middle" x="53.95" y="-61.33" font-family="Times,serif" font-size="14.00">q0:243</text>
</g>
<!-- q0:243&#45;&gt;q1:243 -->
<g id="edge32" class="edge">
<title>q0:243&#45;&gt;q1:243</title>
<path fill="none" stroke="black" d="M104.85,-66C133.64,-66 169.94,-66 199.84,-66"/>
<polygon fill="black" stroke="black" points="199.45,-69.5 209.45,-66 199.45,-62.5 199.45,-69.5"/>
<text text-anchor="middle" x="157.89" y="-69.95" font-family="Times,serif" font-size="14.00">λ/220:243</text>
</g>
</g>
</svg>
