<?xml version="1.0" encoding="UTF-8" standalone="no"?>
<!DOCTYPE svg PUBLIC "-//W3C//DTD SVG 1.1//EN"
 "http://www.w3.org/Graphics/SVG/1.1/DTD/svg11.dtd">
<!-- Generated by graphviz version 12.0.0 (20240803.0821)
 -->
<!-- Pages: 1 -->
<svg width="2480pt" height="369pt"
 viewBox="0.00 0.00 2479.86 369.00" xmlns="http://www.w3.org/2000/svg" xmlns:xlink="http://www.w3.org/1999/xlink">
<g id="graph0" class="graph" transform="scale(1 1) rotate(0) translate(4 365)">
<polygon fill="white" stroke="none" points="-4,4 -4,-365 2475.86,-365 2475.86,4 -4,4"/>
<!-- q15:11 -->
<g id="node1" class="node">
<title>q15:11</title>
<ellipse fill="none" stroke="black" stroke-width="2" cx="1190.2" cy="-343" rx="45.95" ry="18"/>
<text text-anchor="middle" x="1190.2" y="-338.32" font-family="Times,serif" font-size="14.00">q15:11</text>
</g>
<!-- q22:4 -->
<g id="node2" class="node">
<title>q22:4</title>
<ellipse fill="none" stroke="black" stroke-width="2" cx="1427.1" cy="-343" rx="39.63" ry="18"/>
<text text-anchor="middle" x="1427.1" y="-338.32" font-family="Times,serif" font-size="14.00">q22:4</text>
</g>
<!-- q15:11&#45;&gt;q22:4 -->
<g id="edge1" class="edge">
<title>q15:11&#45;&gt;q22:4</title>
<path fill="none" stroke="black" d="M1237,-343C1276.7,-343 1334.1,-343 1375.2,-343"/>
<polygon fill="black" stroke="black" points="1375.09,-346.5 1385.09,-343 1375.09,-339.5 1375.09,-346.5"/>
<text text-anchor="middle" x="1305.5" y="-346.94" font-family="Times,serif" font-size="14.00">λ/451:4</text>
</g>
<!-- q7:11 -->
<g id="node3" class="node">
<title>q7:11</title>
<ellipse fill="none" stroke="black" stroke-width="2" cx="725.13" cy="-325" rx="39.63" ry="18"/>
<text text-anchor="middle" x="725.13" y="-320.32" font-family="Times,serif" font-size="14.00">q7:11</text>
</g>
<!-- q11:11 -->
<g id="node4" class="node">
<title>q11:11</title>
<ellipse fill="none" stroke="black" stroke-width="2" cx="954.27" cy="-343" rx="45.95" ry="18"/>
<text text-anchor="middle" x="954.27" y="-338.32" font-family="Times,serif" font-size="14.00">q11:11</text>
</g>
<!-- q7:11&#45;&gt;q11:11 -->
<g id="edge2" class="edge">
<title>q7:11&#45;&gt;q11:11</title>
<path fill="none" stroke="black" d="M765.18,-328.09C801.5,-330.97 856.05,-335.3 897.06,-338.55"/>
<polygon fill="black" stroke="black" points="896.76,-342.04 907,-339.33 897.31,-335.06 896.76,-342.04"/>
<text text-anchor="middle" x="839.7" y="-340.94" font-family="Times,serif" font-size="14.00">AUTH/334:11</text>
</g>
<!-- q11:11&#45;&gt;q15:11 -->
<g id="edge3" class="edge">
<title>q11:11&#45;&gt;q15:11</title>
<path fill="none" stroke="black" d="M1001.2,-343C1038.6,-343 1091.6,-343 1131.8,-343"/>
<polygon fill="black" stroke="black" points="1131.79,-346.5 1141.79,-343 1131.79,-339.5 1131.79,-346.5"/>
<text text-anchor="middle" x="1072.2" y="-346.94" font-family="Times,serif" font-size="14.00">content/535:11</text>
</g>
<!-- q6:230 -->
<g id="node5" class="node">
<title>q6:230</title>
<ellipse fill="none" stroke="black" stroke-width="2" cx="725.13" cy="-260" rx="45.95" ry="18"/>
<text text-anchor="middle" x="725.13" y="-255.32" font-family="Times,serif" font-size="14.00">q6:230</text>
</g>
<!-- q10:2 -->
<g id="node6" class="node">
<title>q10:2</title>
<ellipse fill="none" stroke="black" stroke-width="2" cx="954.27" cy="-289" rx="39.63" ry="18"/>
<text text-anchor="middle" x="954.27" y="-284.32" font-family="Times,serif" font-size="14.00">q10:2</text>
</g>
<!-- q6:230&#45;&gt;q10:2 -->
<g id="edge4" class="edge">
<title>q6:230&#45;&gt;q10:2</title>
<path fill="none" stroke="black" d="M769.92,-265.59C808.29,-270.49 864.01,-277.6 903.94,-282.7"/>
<polygon fill="black" stroke="black" points="903.4,-286.16 913.77,-283.96 904.29,-279.22 903.4,-286.16"/>
<text text-anchor="middle" x="839.7" y="-283.94" font-family="Times,serif" font-size="14.00">MAIL/553:2</text>
</g>
<!-- q8:230 -->
<g id="node7" class="node">
<title>q8:230</title>
<ellipse fill="none" stroke="black" stroke-width="2" cx="954.27" cy="-235" rx="45.95" ry="18"/>
<text text-anchor="middle" x="954.27" y="-230.32" font-family="Times,serif" font-size="14.00">q8:230</text>
</g>
<!-- q6:230&#45;&gt;q8:230 -->
<g id="edge5" class="edge">
<title>q6:230&#45;&gt;q8:230</title>
<path fill="none" stroke="black" d="M768.39,-252.69C775.29,-251.62 782.37,-250.6 789.08,-249.75 824.86,-245.23 865.21,-241.59 896.95,-239.05"/>
<polygon fill="black" stroke="black" points="897.02,-242.55 906.72,-238.29 896.48,-235.58 897.02,-242.55"/>
<text text-anchor="middle" x="839.7" y="-252.94" font-family="Times,serif" font-size="14.00">MAIL/250:228</text>
</g>
<!-- q14:2 -->
<g id="node8" class="node">
<title>q14:2</title>
<ellipse fill="none" stroke="black" stroke-width="2" cx="1190.2" cy="-289" rx="39.63" ry="18"/>
<text text-anchor="middle" x="1190.2" y="-284.32" font-family="Times,serif" font-size="14.00">q14:2</text>
</g>
<!-- q10:2&#45;&gt;q14:2 -->
<g id="edge6" class="edge">
<title>q10:2&#45;&gt;q14:2</title>
<path fill="none" stroke="black" d="M994.68,-289C1034.2,-289 1095.1,-289 1138.2,-289"/>
<polygon fill="black" stroke="black" points="1138.09,-292.5 1148.09,-289 1138.09,-285.5 1138.09,-292.5"/>
<text text-anchor="middle" x="1072.2" y="-292.94" font-family="Times,serif" font-size="14.00">RSET/250:2</text>
</g>
<!-- q9:234 -->
<g id="node9" class="node">
<title>q9:234</title>
<ellipse fill="none" stroke="black" stroke-width="2" cx="1190.2" cy="-209" rx="45.95" ry="18"/>
<text text-anchor="middle" x="1190.2" y="-204.32" font-family="Times,serif" font-size="14.00">q9:234</text>
</g>
<!-- q8:230&#45;&gt;q9:234 -->
<g id="edge7" class="edge">
<title>q8:230&#45;&gt;q9:234</title>
<path fill="none" stroke="black" d="M999.54,-230.08C1037.6,-225.85 1092.7,-219.73 1133.6,-215.17"/>
<polygon fill="black" stroke="black" points="1134.04,-218.64 1143.6,-214.07 1133.27,-211.69 1134.04,-218.64"/>
<text text-anchor="middle" x="1072.2" y="-230.94" font-family="Times,serif" font-size="14.00">RCPT/250:230</text>
</g>
<!-- q13:3212 -->
<g id="node10" class="node">
<title>q13:3212</title>
<ellipse fill="none" stroke="black" stroke-width="2" cx="1914.7" cy="-126" rx="58.57" ry="18"/>
<text text-anchor="middle" x="1914.7" y="-121.33" font-family="Times,serif" font-size="14.00">q13:3212</text>
</g>
<!-- q9:234&#45;&gt;q13:3212 -->
<g id="edge8" class="edge">
<title>q9:234&#45;&gt;q13:3212</title>
<path fill="none" stroke="black" d="M1231,-218.18C1238.6,-219.67 1246.6,-221.04 1254.1,-222 1307.4,-228.79 1321.2,-226.44 1374.9,-228 1528.7,-232.46 1567.6,-241.09 1721.2,-230 1773.6,-226.21 1792,-238.19 1838.2,-213 1845.1,-209.22 1872.2,-177.03 1892,-152.9"/>
<polygon fill="black" stroke="black" points="1894.58,-155.27 1898.15,-145.3 1889.14,-150.87 1894.58,-155.27"/>
<text text-anchor="middle" x="1548" y="-238.94" font-family="Times,serif" font-size="14.00">DATA/354:69</text>
</g>
<!-- q12:165 -->
<g id="node11" class="node">
<title>q12:165</title>
<ellipse fill="none" stroke="black" stroke-width="2" cx="1427.1" cy="-146" rx="52.26" ry="18"/>
<text text-anchor="middle" x="1427.1" y="-141.32" font-family="Times,serif" font-size="14.00">q12:165</text>
</g>
<!-- q9:234&#45;&gt;q12:165 -->
<g id="edge9" class="edge">
<title>q9:234&#45;&gt;q12:165</title>
<path fill="none" stroke="black" d="M1217.7,-193.76C1228.7,-188.01 1241.7,-181.88 1254.1,-177.75 1290.1,-165.76 1331.9,-157.91 1365.3,-153.02"/>
<polygon fill="black" stroke="black" points="1365.39,-156.54 1374.8,-151.68 1364.41,-149.61 1365.39,-156.54"/>
<text text-anchor="middle" x="1305.5" y="-181.94" font-family="Times,serif" font-size="14.00">RCPT/250:165</text>
</g>
<!-- q13:3212&#45;&gt;q13:3212 -->
<g id="edge21" class="edge">
<title>q13:3212&#45;&gt;q13:3212</title>
<path fill="none" stroke="black" d="M1892.2,-143.41C1888,-153.09 1895.5,-162 1914.7,-162 1925.8,-162 1933,-159.02 1936.3,-154.64"/>
<polygon fill="black" stroke="black" points="1939.77,-155.17 1937.08,-144.92 1932.79,-154.61 1939.77,-155.17"/>
<text text-anchor="middle" x="1914.7" y="-165.94" font-family="Times,serif" font-size="14.00">content/λ:3030</text>
</g>
<!-- q19:1 -->
<g id="node20" class="node">
<title>q19:1</title>
<ellipse fill="none" stroke="black" stroke-width="2" cx="2178.6" cy="-126" rx="39.63" ry="18"/>
<text text-anchor="middle" x="2178.6" y="-121.33" font-family="Times,serif" font-size="14.00">q19:1</text>
</g>
<!-- q13:3212&#45;&gt;q19:1 -->
<g id="edge22" class="edge">
<title>q13:3212&#45;&gt;q19:1</title>
<path fill="none" stroke="black" d="M1974.2,-126C2019.9,-126 2082.8,-126 2126.5,-126"/>
<polygon fill="black" stroke="black" points="2126.49,-129.5 2136.49,-126 2126.49,-122.5 2126.49,-129.5"/>
<text text-anchor="middle" x="2049.8" y="-129.94" font-family="Times,serif" font-size="14.00">content/550:1</text>
</g>
<!-- q20:125 -->
<g id="node21" class="node">
<title>q20:125</title>
<ellipse fill="none" stroke="black" stroke-width="2" cx="2178.6" cy="-72" rx="52.26" ry="18"/>
<text text-anchor="middle" x="2178.6" y="-67.33" font-family="Times,serif" font-size="14.00">q20:125</text>
</g>
<!-- q13:3212&#45;&gt;q20:125 -->
<g id="edge23" class="edge">
<title>q13:3212&#45;&gt;q20:125</title>
<path fill="none" stroke="black" d="M1958.3,-113.22C1969,-110.23 1980.5,-107.2 1991.3,-104.75 2033.5,-95.13 2081.7,-86.73 2118.4,-80.85"/>
<polygon fill="black" stroke="black" points="2118.58,-84.36 2127.9,-79.34 2117.48,-77.45 2118.58,-84.36"/>
<text text-anchor="middle" x="2049.8" y="-108.95" font-family="Times,serif" font-size="14.00">content/250:125</text>
</g>
<!-- q21:56 -->
<g id="node22" class="node">
<title>q21:56</title>
<ellipse fill="none" stroke="black" stroke-width="2" cx="2178.6" cy="-180" rx="45.95" ry="18"/>
<text text-anchor="middle" x="2178.6" y="-175.32" font-family="Times,serif" font-size="14.00">q21:56</text>
</g>
<!-- q13:3212&#45;&gt;q21:56 -->
<g id="edge24" class="edge">
<title>q13:3212&#45;&gt;q21:56</title>
<path fill="none" stroke="black" d="M1958.7,-138.71C1969.3,-141.63 1980.7,-144.59 1991.3,-147 2035.4,-157.01 2086,-165.81 2123.3,-171.79"/>
<polygon fill="black" stroke="black" points="2122.48,-175.2 2132.9,-173.32 2123.58,-168.29 2122.48,-175.2"/>
<text text-anchor="middle" x="2049.8" y="-173.94" font-family="Times,serif" font-size="14.00">content/554:56</text>
</g>
<!-- q18:119 -->
<g id="node17" class="node">
<title>q18:119</title>
<ellipse fill="none" stroke="black" stroke-width="2" cx="1668.9" cy="-90" rx="52.26" ry="18"/>
<text text-anchor="middle" x="1668.9" y="-85.33" font-family="Times,serif" font-size="14.00">q18:119</text>
</g>
<!-- q12:165&#45;&gt;q18:119 -->
<g id="edge30" class="edge">
<title>q12:165&#45;&gt;q18:119</title>
<path fill="none" stroke="black" d="M1457.4,-130.58C1469.5,-124.81 1483.8,-118.7 1497.4,-114.75 1532.4,-104.52 1572.9,-98.41 1605.5,-94.83"/>
<polygon fill="black" stroke="black" points="1605.61,-98.34 1615.19,-93.82 1604.89,-91.38 1605.61,-98.34"/>
<text text-anchor="middle" x="1548" y="-118.95" font-family="Times,serif" font-size="14.00">DATA/354:119</text>
</g>
<!-- q16:3 -->
<g id="node28" class="node">
<title>q16:3</title>
<ellipse fill="none" stroke="black" stroke-width="2" cx="1668.9" cy="-203" rx="39.63" ry="18"/>
<text text-anchor="middle" x="1668.9" y="-198.32" font-family="Times,serif" font-size="14.00">q16:3</text>
</g>
<!-- q12:165&#45;&gt;q16:3 -->
<g id="edge31" class="edge">
<title>q12:165&#45;&gt;q16:3</title>
<path fill="none" stroke="black" d="M1476.7,-152.86C1511.1,-158.24 1558.1,-166.67 1598.6,-177.75 1608,-180.32 1618,-183.6 1627.3,-186.93"/>
<polygon fill="black" stroke="black" points="1625.89,-190.14 1636.48,-190.32 1628.31,-183.57 1625.89,-190.14"/>
<text text-anchor="middle" x="1548" y="-181.94" font-family="Times,serif" font-size="14.00">RCPT/250:3</text>
</g>
<!-- q17:43 -->
<g id="node29" class="node">
<title>q17:43</title>
<ellipse fill="none" stroke="black" stroke-width="2" cx="1668.9" cy="-144" rx="45.95" ry="18"/>
<text text-anchor="middle" x="1668.9" y="-139.32" font-family="Times,serif" font-size="14.00">q17:43</text>
</g>
<!-- q12:165&#45;&gt;q17:43 -->
<g id="edge32" class="edge">
<title>q12:165&#45;&gt;q17:43</title>
<path fill="none" stroke="black" d="M1476.9,-139.46C1483.7,-138.75 1490.7,-138.14 1497.4,-137.75 1542.3,-135.08 1553.7,-135.73 1598.6,-137.75 1603.1,-137.95 1607.6,-138.22 1612.2,-138.54"/>
<polygon fill="black" stroke="black" points="1611.85,-142.02 1622.09,-139.29 1612.39,-135.04 1611.85,-142.02"/>
<text text-anchor="middle" x="1548" y="-141.94" font-family="Times,serif" font-size="14.00">DATA/550:43</text>
</g>
<!-- q1:244 -->
<g id="node12" class="node">
<title>q1:244</title>
<ellipse fill="none" stroke="black" stroke-width="2" cx="257.84" cy="-211" rx="45.95" ry="18"/>
<text text-anchor="middle" x="257.84" y="-206.32" font-family="Times,serif" font-size="14.00">q1:244</text>
</g>
<!-- q2:2 -->
<g id="node13" class="node">
<title>q2:2</title>
<ellipse fill="none" stroke="black" stroke-width="2" cx="491.48" cy="-184" rx="33.32" ry="18"/>
<text text-anchor="middle" x="491.48" y="-179.32" font-family="Times,serif" font-size="14.00">q2:2</text>
</g>
<!-- q1:244&#45;&gt;q2:2 -->
<g id="edge10" class="edge">
<title>q1:244&#45;&gt;q2:2</title>
<path fill="none" stroke="black" d="M300.41,-203.06C307.53,-201.85 314.86,-200.69 321.79,-199.75 363.77,-194.05 411.9,-189.78 445.98,-187.13"/>
<polygon fill="black" stroke="black" points="446.2,-190.62 455.91,-186.37 445.67,-183.64 446.2,-190.62"/>
<text text-anchor="middle" x="374.66" y="-203.94" font-family="Times,serif" font-size="14.00">EHLO/λ:2</text>
</g>
<!-- q3:242 -->
<g id="node14" class="node">
<title>q3:242</title>
<ellipse fill="none" stroke="black" stroke-width="2" cx="491.48" cy="-247" rx="45.95" ry="18"/>
<text text-anchor="middle" x="491.48" y="-242.32" font-family="Times,serif" font-size="14.00">q3:242</text>
</g>
<!-- q1:244&#45;&gt;q3:242 -->
<g id="edge11" class="edge">
<title>q1:244&#45;&gt;q3:242</title>
<path fill="none" stroke="black" d="M301.6,-217.64C339.6,-223.55 395.33,-232.21 436.41,-238.6"/>
<polygon fill="black" stroke="black" points="435.68,-242.03 446.09,-240.1 436.75,-235.11 435.68,-242.03"/>
<text text-anchor="middle" x="374.66" y="-239.94" font-family="Times,serif" font-size="14.00">EHLO/250:242</text>
</g>
<!-- q4:2 -->
<g id="node15" class="node">
<title>q4:2</title>
<ellipse fill="none" stroke="black" stroke-width="2" cx="725.13" cy="-168" rx="33.32" ry="18"/>
<text text-anchor="middle" x="725.13" y="-163.32" font-family="Times,serif" font-size="14.00">q4:2</text>
</g>
<!-- q2:2&#45;&gt;q4:2 -->
<g id="edge12" class="edge">
<title>q2:2&#45;&gt;q4:2</title>
<path fill="none" stroke="black" d="M524.11,-178.68C534.1,-177.18 545.2,-175.7 555.43,-174.75 597.46,-170.83 645.59,-169.19 679.66,-168.5"/>
<polygon fill="black" stroke="black" points="679.64,-172 689.58,-168.32 679.51,-165 679.64,-172"/>
<text text-anchor="middle" x="608.31" y="-178.94" font-family="Times,serif" font-size="14.00">AUTH/235:2</text>
</g>
<!-- q3:242&#45;&gt;q7:11 -->
<g id="edge13" class="edge">
<title>q3:242&#45;&gt;q7:11</title>
<path fill="none" stroke="black" d="M520.87,-261.77C531.54,-266.99 543.88,-272.64 555.43,-277 595.87,-292.27 643.33,-305.36 677.59,-314"/>
<polygon fill="black" stroke="black" points="676.66,-317.38 687.21,-316.39 678.35,-310.58 676.66,-317.38"/>
<text text-anchor="middle" x="608.31" y="-312.94" font-family="Times,serif" font-size="14.00">AUTH/535:11</text>
</g>
<!-- q3:242&#45;&gt;q6:230 -->
<g id="edge14" class="edge">
<title>q3:242&#45;&gt;q6:230</title>
<path fill="none" stroke="black" d="M537.97,-249.55C575.03,-251.63 627.54,-254.58 667.35,-256.81"/>
<polygon fill="black" stroke="black" points="667.05,-260.3 677.23,-257.37 667.44,-253.31 667.05,-260.3"/>
<text text-anchor="middle" x="608.31" y="-259.94" font-family="Times,serif" font-size="14.00">AUTH/235:230</text>
</g>
<!-- q5:1 -->
<g id="node16" class="node">
<title>q5:1</title>
<ellipse fill="none" stroke="black" stroke-width="2" cx="839.7" cy="-208" rx="33.32" ry="18"/>
<text text-anchor="middle" x="839.7" y="-203.32" font-family="Times,serif" font-size="14.00">q5:1</text>
</g>
<!-- q3:242&#45;&gt;q5:1 -->
<g id="edge15" class="edge">
<title>q3:242&#45;&gt;q5:1</title>
<path fill="none" stroke="black" d="M528.13,-235.26C536.97,-232.74 546.47,-230.36 555.43,-228.75 639.03,-213.74 738.37,-209.53 794.43,-208.39"/>
<polygon fill="black" stroke="black" points="794.26,-211.89 804.2,-208.22 794.14,-204.89 794.26,-211.89"/>
<text text-anchor="middle" x="608.31" y="-231.94" font-family="Times,serif" font-size="14.00">AUTH/λ:1</text>
</g>
<!-- q4:2&#45;&gt;q8:230 -->
<g id="edge16" class="edge">
<title>q4:2&#45;&gt;q8:230</title>
<path fill="none" stroke="black" d="M754.53,-158.29C789.46,-148.22 849.16,-137.34 890.33,-163.75 906.48,-174.11 896.09,-188.21 908.33,-203 911.2,-206.47 914.53,-209.75 918.06,-212.78"/>
<polygon fill="black" stroke="black" points="915.85,-215.49 925.89,-218.88 920.15,-209.97 915.85,-215.49"/>
<text text-anchor="middle" x="839.7" y="-167.94" font-family="Times,serif" font-size="14.00">MAIL/250:2</text>
</g>
<!-- q5:1&#45;&gt;q9:234 -->
<g id="edge17" class="edge">
<title>q5:1&#45;&gt;q9:234</title>
<path fill="none" stroke="black" d="M869.69,-198.91C881.54,-195.64 895.46,-192.36 908.33,-190.75 987.47,-180.81 1079.9,-190.97 1136.5,-199.64"/>
<polygon fill="black" stroke="black" points="1135.68,-203.05 1146.1,-201.16 1136.78,-196.14 1135.68,-203.05"/>
<text text-anchor="middle" x="954.27" y="-194.94" font-family="Times,serif" font-size="14.00">MAIL/250:1</text>
</g>
<!-- q18:119&#45;&gt;q13:3212 -->
<g id="edge18" class="edge">
<title>q18:119&#45;&gt;q13:3212</title>
<path fill="none" stroke="black" d="M1718.1,-97.11C1755.6,-102.66 1808.1,-110.41 1849.3,-116.49"/>
<polygon fill="black" stroke="black" points="1848.7,-119.94 1859.1,-117.93 1849.72,-113.01 1848.7,-119.94"/>
<text text-anchor="middle" x="1788.7" y="-118.95" font-family="Times,serif" font-size="14.00">content/λ:113</text>
</g>
<!-- q23:4 -->
<g id="node18" class="node">
<title>q23:4</title>
<ellipse fill="none" stroke="black" stroke-width="2" cx="1914.7" cy="-224" rx="39.63" ry="18"/>
<text text-anchor="middle" x="1914.7" y="-219.32" font-family="Times,serif" font-size="14.00">q23:4</text>
</g>
<!-- q18:119&#45;&gt;q23:4 -->
<g id="edge19" class="edge">
<title>q18:119&#45;&gt;q23:4</title>
<path fill="none" stroke="black" d="M1702.1,-104.87C1708.6,-108.46 1715.3,-112.56 1721.2,-117 1730.4,-124.03 1729.8,-129.06 1739.2,-136 1781,-167.16 1835.6,-192.65 1872.5,-208.03"/>
<polygon fill="black" stroke="black" points="1870.92,-211.16 1881.5,-211.71 1873.57,-204.68 1870.92,-211.16"/>
<text text-anchor="middle" x="1788.7" y="-195.94" font-family="Times,serif" font-size="14.00">content/554:4</text>
</g>
<!-- q24:2 -->
<g id="node19" class="node">
<title>q24:2</title>
<ellipse fill="none" stroke="black" stroke-width="2" cx="1914.7" cy="-20" rx="39.63" ry="18"/>
<text text-anchor="middle" x="1914.7" y="-15.32" font-family="Times,serif" font-size="14.00">q24:2</text>
</g>
<!-- q18:119&#45;&gt;q24:2 -->
<g id="edge20" class="edge">
<title>q18:119&#45;&gt;q24:2</title>
<path fill="none" stroke="black" d="M1710.7,-78.28C1754.4,-65.73 1823.7,-45.85 1868.9,-32.87"/>
<polygon fill="black" stroke="black" points="1869.79,-36.25 1878.44,-30.14 1867.87,-29.52 1869.79,-36.25"/>
<text text-anchor="middle" x="1788.7" y="-73.95" font-family="Times,serif" font-size="14.00">content/250:2</text>
</g>
<!-- q28:4 -->
<g id="node23" class="node">
<title>q28:4</title>
<ellipse fill="none" stroke="black" stroke-width="2" cx="2178.6" cy="-234" rx="39.63" ry="18"/>
<text text-anchor="middle" x="2178.6" y="-229.32" font-family="Times,serif" font-size="14.00">q28:4</text>
</g>
<!-- q23:4&#45;&gt;q28:4 -->
<g id="edge25" class="edge">
<title>q23:4&#45;&gt;q28:4</title>
<path fill="none" stroke="black" d="M1955.2,-225.51C2001.1,-227.26 2076.8,-230.15 2127,-232.07"/>
<polygon fill="black" stroke="black" points="2126.56,-235.56 2136.69,-232.44 2126.83,-228.56 2126.56,-235.56"/>
<text text-anchor="middle" x="2049.8" y="-234.94" font-family="Times,serif" font-size="14.00">RSET/250:4</text>
</g>
<!-- q29:2 -->
<g id="node24" class="node">
<title>q29:2</title>
<ellipse fill="none" stroke="black" stroke-width="2" cx="2178.6" cy="-18" rx="39.63" ry="18"/>
<text text-anchor="middle" x="2178.6" y="-13.32" font-family="Times,serif" font-size="14.00">q29:2</text>
</g>
<!-- q24:2&#45;&gt;q29:2 -->
<g id="edge26" class="edge">
<title>q24:2&#45;&gt;q29:2</title>
<path fill="none" stroke="black" d="M1955.2,-19.7C2001.1,-19.35 2076.8,-18.77 2127,-18.39"/>
<polygon fill="black" stroke="black" points="2126.71,-21.89 2136.69,-18.31 2126.66,-14.89 2126.71,-21.89"/>
<text text-anchor="middle" x="2049.8" y="-23.95" font-family="Times,serif" font-size="14.00">QUIT/221:2</text>
</g>
<!-- q25:1 -->
<g id="node25" class="node">
<title>q25:1</title>
<ellipse fill="none" stroke="black" stroke-width="2" cx="2419.6" cy="-126" rx="39.63" ry="18"/>
<text text-anchor="middle" x="2419.6" y="-121.33" font-family="Times,serif" font-size="14.00">q25:1</text>
</g>
<!-- q19:1&#45;&gt;q25:1 -->
<g id="edge27" class="edge">
<title>q19:1&#45;&gt;q25:1</title>
<path fill="none" stroke="black" d="M2219,-126C2259.7,-126 2323.2,-126 2367.6,-126"/>
<polygon fill="black" stroke="black" points="2367.59,-129.5 2377.59,-126 2367.59,-122.5 2367.59,-129.5"/>
<text text-anchor="middle" x="2299.1" y="-129.94" font-family="Times,serif" font-size="14.00">RSET/250:1</text>
</g>
<!-- q26:125 -->
<g id="node26" class="node">
<title>q26:125</title>
<ellipse fill="none" stroke="black" stroke-width="2" cx="2419.6" cy="-72" rx="52.26" ry="18"/>
<text text-anchor="middle" x="2419.6" y="-67.33" font-family="Times,serif" font-size="14.00">q26:125</text>
</g>
<!-- q20:125&#45;&gt;q26:125 -->
<g id="edge28" class="edge">
<title>q20:125&#45;&gt;q26:125</title>
<path fill="none" stroke="black" d="M2231.7,-72C2268.1,-72 2316.8,-72 2355.4,-72"/>
<polygon fill="black" stroke="black" points="2354.99,-75.5 2364.99,-72 2354.99,-68.5 2354.99,-75.5"/>
<text text-anchor="middle" x="2299.1" y="-75.95" font-family="Times,serif" font-size="14.00">QUIT/221:125</text>
</g>
<!-- q27:56 -->
<g id="node27" class="node">
<title>q27:56</title>
<ellipse fill="none" stroke="black" stroke-width="2" cx="2419.6" cy="-180" rx="45.95" ry="18"/>
<text text-anchor="middle" x="2419.6" y="-175.32" font-family="Times,serif" font-size="14.00">q27:56</text>
</g>
<!-- q21:56&#45;&gt;q27:56 -->
<g id="edge29" class="edge">
<title>q21:56&#45;&gt;q27:56</title>
<path fill="none" stroke="black" d="M2225.4,-180C2264.1,-180 2319.9,-180 2361.6,-180"/>
<polygon fill="black" stroke="black" points="2361.39,-183.5 2371.39,-180 2361.39,-176.5 2361.39,-183.5"/>
<text text-anchor="middle" x="2299.1" y="-183.94" font-family="Times,serif" font-size="14.00">RSET/250:56</text>
</g>
<!-- q16:3&#45;&gt;q9:234 -->
<g id="edge33" class="edge">
<title>q16:3&#45;&gt;q9:234</title>
<path fill="none" stroke="black" d="M1628.4,-203.5C1544.2,-204.56 1346.4,-207.05 1248.3,-208.28"/>
<polygon fill="black" stroke="black" points="1248.37,-204.78 1238.41,-208.4 1248.46,-211.78 1248.37,-204.78"/>
<text text-anchor="middle" x="1427.1" y="-210.94" font-family="Times,serif" font-size="14.00">RCPT/250:3</text>
</g>
<!-- q0:244 -->
<g id="node30" class="node">
<title>q0:244</title>
<ellipse fill="none" stroke="black" stroke-width="2" cx="53.95" cy="-211" rx="49.95" ry="49.95"/>
<ellipse fill="none" stroke="black" stroke-width="2" cx="53.95" cy="-211" rx="53.95" ry="53.95"/>
<text text-anchor="middle" x="53.95" y="-206.32" font-family="Times,serif" font-size="14.00">q0:244</text>
</g>
<!-- q0:244&#45;&gt;q1:244 -->
<g id="edge34" class="edge">
<title>q0:244&#45;&gt;q1:244</title>
<path fill="none" stroke="black" d="M104.85,-211C133.64,-211 169.94,-211 199.84,-211"/>
<polygon fill="black" stroke="black" points="199.45,-214.5 209.45,-211 199.45,-207.5 199.45,-214.5"/>
<text text-anchor="middle" x="157.89" y="-214.94" font-family="Times,serif" font-size="14.00">λ/220:244</text>
</g>
</g>
</svg>
