<?xml version="1.0" encoding="UTF-8" standalone="no"?>
<!DOCTYPE svg PUBLIC "-//W3C//DTD SVG 1.1//EN"
 "http://www.w3.org/Graphics/SVG/1.1/DTD/svg11.dtd">
<!-- Generated by graphviz version 12.0.0 (20240803.0821)
 -->
<!-- Pages: 1 -->
<svg width="2231pt" height="248pt"
 viewBox="0.00 0.00 2231.36 248.00" xmlns="http://www.w3.org/2000/svg" xmlns:xlink="http://www.w3.org/1999/xlink">
<g id="graph0" class="graph" transform="scale(1 1) rotate(0) translate(4 244)">
<polygon fill="white" stroke="none" points="-4,4 -4,-244 2227.36,-244 2227.36,4 -4,4"/>
<!-- q4:233 -->
<g id="node1" class="node">
<title>q4:233</title>
<ellipse fill="none" stroke="black" stroke-width="2" cx="725.13" cy="-81" rx="45.95" ry="18"/>
<text text-anchor="middle" x="725.13" y="-76.33" font-family="Times,serif" font-size="14.00">q4:233</text>
</g>
<!-- q7:3 -->
<g id="node2" class="node">
<title>q7:3</title>
<ellipse fill="none" stroke="black" stroke-width="2" cx="954.27" cy="-89" rx="33.32" ry="18"/>
<text text-anchor="middle" x="954.27" y="-84.33" font-family="Times,serif" font-size="14.00">q7:3</text>
</g>
<!-- q4:233&#45;&gt;q7:3 -->
<g id="edge1" class="edge">
<title>q4:233&#45;&gt;q7:3</title>
<path fill="none" stroke="black" d="M771.82,-82.61C811.71,-84.01 869.24,-86.04 908.77,-87.43"/>
<polygon fill="black" stroke="black" points="908.54,-90.93 918.66,-87.78 908.79,-83.93 908.54,-90.93"/>
<text text-anchor="middle" x="839.7" y="-90.95" font-family="Times,serif" font-size="14.00">MAIL/553:3</text>
</g>
<!-- q8:230 -->
<g id="node3" class="node">
<title>q8:230</title>
<ellipse fill="none" stroke="black" stroke-width="2" cx="954.27" cy="-35" rx="45.95" ry="18"/>
<text text-anchor="middle" x="954.27" y="-30.32" font-family="Times,serif" font-size="14.00">q8:230</text>
</g>
<!-- q4:233&#45;&gt;q8:230 -->
<g id="edge2" class="edge">
<title>q4:233&#45;&gt;q8:230</title>
<path fill="none" stroke="black" d="M762.56,-69.67C771.2,-67.19 780.42,-64.73 789.08,-62.75 825.22,-54.48 866.36,-47.54 898.42,-42.66"/>
<polygon fill="black" stroke="black" points="898.92,-46.12 908.29,-41.18 897.88,-39.2 898.92,-46.12"/>
<text text-anchor="middle" x="839.7" y="-66.95" font-family="Times,serif" font-size="14.00">MAIL/250:230</text>
</g>
<!-- q11:3 -->
<g id="node4" class="node">
<title>q11:3</title>
<ellipse fill="none" stroke="black" stroke-width="2" cx="1190.2" cy="-88" rx="39.63" ry="18"/>
<text text-anchor="middle" x="1190.2" y="-83.33" font-family="Times,serif" font-size="14.00">q11:3</text>
</g>
<!-- q7:3&#45;&gt;q11:3 -->
<g id="edge3" class="edge">
<title>q7:3&#45;&gt;q11:3</title>
<path fill="none" stroke="black" d="M988.29,-88.86C1027.3,-88.69 1092.7,-88.41 1138.3,-88.22"/>
<polygon fill="black" stroke="black" points="1138.2,-91.72 1148.19,-88.18 1138.17,-84.72 1138.2,-91.72"/>
<text text-anchor="middle" x="1072.2" y="-92.95" font-family="Times,serif" font-size="14.00">RSET/250:3</text>
</g>
<!-- q9:231 -->
<g id="node5" class="node">
<title>q9:231</title>
<ellipse fill="none" stroke="black" stroke-width="2" cx="1190.2" cy="-142" rx="45.95" ry="18"/>
<text text-anchor="middle" x="1190.2" y="-137.32" font-family="Times,serif" font-size="14.00">q9:231</text>
</g>
<!-- q8:230&#45;&gt;q9:231 -->
<g id="edge4" class="edge">
<title>q8:230&#45;&gt;q9:231</title>
<path fill="none" stroke="black" d="M1000.69,-32.21C1038.4,-32.34 1091.4,-38.52 1126.2,-67.75 1143.4,-82.19 1129.8,-97.77 1144.2,-115 1146.1,-117.2 1148.1,-119.27 1150.3,-121.2"/>
<polygon fill="black" stroke="black" points="1148.08,-123.91 1158.19,-127.08 1152.26,-118.3 1148.08,-123.91"/>
<text text-anchor="middle" x="1072.2" y="-71.95" font-family="Times,serif" font-size="14.00">RCPT/250:230</text>
</g>
<!-- q12:146 -->
<g id="node6" class="node">
<title>q12:146</title>
<ellipse fill="none" stroke="black" stroke-width="2" cx="1427.1" cy="-142" rx="52.26" ry="18"/>
<text text-anchor="middle" x="1427.1" y="-137.32" font-family="Times,serif" font-size="14.00">q12:146</text>
</g>
<!-- q9:231&#45;&gt;q12:146 -->
<g id="edge5" class="edge">
<title>q9:231&#45;&gt;q12:146</title>
<path fill="none" stroke="black" d="M1237,-142C1272.9,-142 1323.1,-142 1362.8,-142"/>
<polygon fill="black" stroke="black" points="1362.69,-145.5 1372.69,-142 1362.69,-138.5 1362.69,-145.5"/>
<text text-anchor="middle" x="1305.5" y="-145.94" font-family="Times,serif" font-size="14.00">RCPT/250:142</text>
</g>
<!-- q13:2683 -->
<g id="node7" class="node">
<title>q13:2683</title>
<ellipse fill="none" stroke="black" stroke-width="2" cx="1666.2" cy="-72" rx="58.57" ry="18"/>
<text text-anchor="middle" x="1666.2" y="-67.33" font-family="Times,serif" font-size="14.00">q13:2683</text>
</g>
<!-- q9:231&#45;&gt;q13:2683 -->
<g id="edge6" class="edge">
<title>q9:231&#45;&gt;q13:2683</title>
<path fill="none" stroke="black" d="M1228.9,-131.46C1265.8,-121.48 1323.8,-106.73 1374.9,-97.75 1428.8,-88.26 1442.8,-89.01 1497.4,-84 1529.9,-81.02 1566,-78.35 1596.3,-76.3"/>
<polygon fill="black" stroke="black" points="1596.44,-79.79 1606.19,-75.64 1595.98,-72.81 1596.44,-79.79"/>
<text text-anchor="middle" x="1427.1" y="-101.95" font-family="Times,serif" font-size="14.00">DATA/354:89</text>
</g>
<!-- q12:146&#45;&gt;q13:2683 -->
<g id="edge18" class="edge">
<title>q12:146&#45;&gt;q13:2683</title>
<path fill="none" stroke="black" d="M1459.4,-126.93C1471.1,-121.65 1484.7,-115.99 1497.4,-111.75 1532.1,-100.17 1571.8,-90.6 1604,-83.75"/>
<polygon fill="black" stroke="black" points="1604.45,-87.23 1613.52,-81.75 1603.01,-80.38 1604.45,-87.23"/>
<text text-anchor="middle" x="1543.5" y="-114.95" font-family="Times,serif" font-size="14.00">DATA/354:99</text>
</g>
<!-- q16:4 -->
<g id="node17" class="node">
<title>q16:4</title>
<ellipse fill="none" stroke="black" stroke-width="2" cx="1666.2" cy="-166" rx="39.63" ry="18"/>
<text text-anchor="middle" x="1666.2" y="-161.32" font-family="Times,serif" font-size="14.00">q16:4</text>
</g>
<!-- q12:146&#45;&gt;q16:4 -->
<g id="edge19" class="edge">
<title>q12:146&#45;&gt;q16:4</title>
<path fill="none" stroke="black" d="M1468.1,-153.97C1477.6,-156.38 1487.8,-158.6 1497.4,-160 1536.4,-165.69 1580.9,-167.05 1614.3,-167.06"/>
<polygon fill="black" stroke="black" points="1614.2,-170.56 1624.19,-167.02 1614.17,-163.56 1614.2,-170.56"/>
<text text-anchor="middle" x="1543.5" y="-169.94" font-family="Times,serif" font-size="14.00">RCPT/250:4</text>
</g>
<!-- q15:43 -->
<g id="node18" class="node">
<title>q15:43</title>
<ellipse fill="none" stroke="black" stroke-width="2" cx="1666.2" cy="-222" rx="45.95" ry="18"/>
<text text-anchor="middle" x="1666.2" y="-217.32" font-family="Times,serif" font-size="14.00">q15:43</text>
</g>
<!-- q12:146&#45;&gt;q15:43 -->
<g id="edge20" class="edge">
<title>q12:146&#45;&gt;q15:43</title>
<path fill="none" stroke="black" d="M1459.9,-156.84C1466.6,-160.47 1473.4,-164.58 1479.4,-169 1488.5,-175.71 1487.4,-181.62 1497.4,-187 1531.6,-205.5 1574.6,-214.23 1608.6,-218.35"/>
<polygon fill="black" stroke="black" points="1607.87,-221.79 1618.2,-219.41 1608.64,-214.83 1607.87,-221.79"/>
<text text-anchor="middle" x="1543.5" y="-217.94" font-family="Times,serif" font-size="14.00">DATA/550:43</text>
</g>
<!-- q13:2683&#45;&gt;q13:2683 -->
<g id="edge21" class="edge">
<title>q13:2683&#45;&gt;q13:2683</title>
<path fill="none" stroke="black" d="M1644.3,-89.41C1640.2,-99.09 1647.5,-108 1666.2,-108 1677,-108 1684,-105.02 1687.2,-100.64"/>
<polygon fill="black" stroke="black" points="1690.67,-101.17 1687.98,-90.92 1683.69,-100.61 1690.67,-101.17"/>
<text text-anchor="middle" x="1666.2" y="-111.95" font-family="Times,serif" font-size="14.00">content/λ:2495</text>
</g>
<!-- q19:113 -->
<g id="node19" class="node">
<title>q19:113</title>
<ellipse fill="none" stroke="black" stroke-width="2" cx="1930" cy="-126" rx="52.26" ry="18"/>
<text text-anchor="middle" x="1930" y="-121.33" font-family="Times,serif" font-size="14.00">q19:113</text>
</g>
<!-- q13:2683&#45;&gt;q19:113 -->
<g id="edge22" class="edge">
<title>q13:2683&#45;&gt;q19:113</title>
<path fill="none" stroke="black" d="M1710.2,-84.71C1720.8,-87.63 1732.2,-90.59 1742.8,-93 1785,-102.58 1833.2,-111.05 1869.9,-117.01"/>
<polygon fill="black" stroke="black" points="1868.98,-120.41 1879.4,-118.53 1870.08,-113.49 1868.98,-120.41"/>
<text text-anchor="middle" x="1801.3" y="-118.95" font-family="Times,serif" font-size="14.00">content/250:113</text>
</g>
<!-- q18:1 -->
<g id="node20" class="node">
<title>q18:1</title>
<ellipse fill="none" stroke="black" stroke-width="2" cx="1930" cy="-72" rx="39.63" ry="18"/>
<text text-anchor="middle" x="1930" y="-67.33" font-family="Times,serif" font-size="14.00">q18:1</text>
</g>
<!-- q13:2683&#45;&gt;q18:1 -->
<g id="edge23" class="edge">
<title>q13:2683&#45;&gt;q18:1</title>
<path fill="none" stroke="black" d="M1725.6,-72C1771.3,-72 1834.2,-72 1877.9,-72"/>
<polygon fill="black" stroke="black" points="1877.99,-75.5 1887.99,-72 1877.99,-68.5 1877.99,-75.5"/>
<text text-anchor="middle" x="1801.3" y="-75.95" font-family="Times,serif" font-size="14.00">content/550:1</text>
</g>
<!-- q17:74 -->
<g id="node21" class="node">
<title>q17:74</title>
<ellipse fill="none" stroke="black" stroke-width="2" cx="1930" cy="-18" rx="45.95" ry="18"/>
<text text-anchor="middle" x="1930" y="-13.32" font-family="Times,serif" font-size="14.00">q17:74</text>
</g>
<!-- q13:2683&#45;&gt;q17:74 -->
<g id="edge24" class="edge">
<title>q13:2683&#45;&gt;q17:74</title>
<path fill="none" stroke="black" d="M1709.8,-59.23C1720.5,-56.23 1732,-53.2 1742.8,-50.75 1786.9,-40.7 1837.4,-31.98 1874.8,-26.07"/>
<polygon fill="black" stroke="black" points="1875.07,-29.58 1884.4,-24.57 1873.98,-22.66 1875.07,-29.58"/>
<text text-anchor="middle" x="1801.3" y="-54.95" font-family="Times,serif" font-size="14.00">content/554:74</text>
</g>
<!-- q10:10 -->
<g id="node8" class="node">
<title>q10:10</title>
<ellipse fill="none" stroke="black" stroke-width="2" cx="954.27" cy="-196" rx="45.95" ry="18"/>
<text text-anchor="middle" x="954.27" y="-191.32" font-family="Times,serif" font-size="14.00">q10:10</text>
</g>
<!-- q14:10 -->
<g id="node9" class="node">
<title>q14:10</title>
<ellipse fill="none" stroke="black" stroke-width="2" cx="1190.2" cy="-196" rx="45.95" ry="18"/>
<text text-anchor="middle" x="1190.2" y="-191.32" font-family="Times,serif" font-size="14.00">q14:10</text>
</g>
<!-- q10:10&#45;&gt;q14:10 -->
<g id="edge7" class="edge">
<title>q10:10&#45;&gt;q14:10</title>
<path fill="none" stroke="black" d="M1001.2,-196C1038.6,-196 1091.6,-196 1131.8,-196"/>
<polygon fill="black" stroke="black" points="1131.79,-199.5 1141.79,-196 1131.79,-192.5 1131.79,-199.5"/>
<text text-anchor="middle" x="1072.2" y="-199.94" font-family="Times,serif" font-size="14.00">content/535:10</text>
</g>
<!-- q20:2 -->
<g id="node10" class="node">
<title>q20:2</title>
<ellipse fill="none" stroke="black" stroke-width="2" cx="1427.1" cy="-196" rx="39.63" ry="18"/>
<text text-anchor="middle" x="1427.1" y="-191.32" font-family="Times,serif" font-size="14.00">q20:2</text>
</g>
<!-- q14:10&#45;&gt;q20:2 -->
<g id="edge8" class="edge">
<title>q14:10&#45;&gt;q20:2</title>
<path fill="none" stroke="black" d="M1237,-196C1276.7,-196 1334.1,-196 1375.2,-196"/>
<polygon fill="black" stroke="black" points="1375.09,-199.5 1385.09,-196 1375.09,-192.5 1375.09,-199.5"/>
<text text-anchor="middle" x="1305.5" y="-199.94" font-family="Times,serif" font-size="14.00">λ/451:2</text>
</g>
<!-- q6:10 -->
<g id="node11" class="node">
<title>q6:10</title>
<ellipse fill="none" stroke="black" stroke-width="2" cx="725.13" cy="-195" rx="39.63" ry="18"/>
<text text-anchor="middle" x="725.13" y="-190.32" font-family="Times,serif" font-size="14.00">q6:10</text>
</g>
<!-- q6:10&#45;&gt;q10:10 -->
<g id="edge9" class="edge">
<title>q6:10&#45;&gt;q10:10</title>
<path fill="none" stroke="black" d="M765.69,-195.17C801.75,-195.33 855.43,-195.57 896.14,-195.75"/>
<polygon fill="black" stroke="black" points="895.99,-199.25 906.01,-195.79 896.02,-192.25 895.99,-199.25"/>
<text text-anchor="middle" x="839.7" y="-198.94" font-family="Times,serif" font-size="14.00">AUTH/334:10</text>
</g>
<!-- q3:242 -->
<g id="node12" class="node">
<title>q3:242</title>
<ellipse fill="none" stroke="black" stroke-width="2" cx="491.48" cy="-141" rx="45.95" ry="18"/>
<text text-anchor="middle" x="491.48" y="-136.32" font-family="Times,serif" font-size="14.00">q3:242</text>
</g>
<!-- q3:242&#45;&gt;q4:233 -->
<g id="edge10" class="edge">
<title>q3:242&#45;&gt;q4:233</title>
<path fill="none" stroke="black" d="M518.34,-125.45C529.42,-119.41 542.72,-112.94 555.43,-108.75 591.87,-96.75 634.52,-89.79 667.82,-85.84"/>
<polygon fill="black" stroke="black" points="668.13,-89.33 677.68,-84.74 667.35,-82.37 668.13,-89.33"/>
<text text-anchor="middle" x="608.31" y="-111.95" font-family="Times,serif" font-size="14.00">AUTH/235:231</text>
</g>
<!-- q3:242&#45;&gt;q6:10 -->
<g id="edge11" class="edge">
<title>q3:242&#45;&gt;q6:10</title>
<path fill="none" stroke="black" d="M521.02,-155.62C531.6,-160.52 543.84,-165.6 555.43,-169 594.51,-180.48 640.26,-187.13 674.25,-190.82"/>
<polygon fill="black" stroke="black" points="673.49,-194.26 683.79,-191.81 674.21,-187.3 673.49,-194.26"/>
<text text-anchor="middle" x="608.31" y="-192.94" font-family="Times,serif" font-size="14.00">AUTH/535:10</text>
</g>
<!-- q5:1 -->
<g id="node13" class="node">
<title>q5:1</title>
<ellipse fill="none" stroke="black" stroke-width="2" cx="839.7" cy="-146" rx="33.32" ry="18"/>
<text text-anchor="middle" x="839.7" y="-141.32" font-family="Times,serif" font-size="14.00">q5:1</text>
</g>
<!-- q3:242&#45;&gt;q5:1 -->
<g id="edge12" class="edge">
<title>q3:242&#45;&gt;q5:1</title>
<path fill="none" stroke="black" d="M538.1,-141.66C604.79,-142.62 728.13,-144.4 794.18,-145.36"/>
<polygon fill="black" stroke="black" points="793.88,-148.86 803.93,-145.5 793.98,-141.86 793.88,-148.86"/>
<text text-anchor="middle" x="608.31" y="-146.94" font-family="Times,serif" font-size="14.00">AUTH/λ:1</text>
</g>
<!-- q5:1&#45;&gt;q9:231 -->
<g id="edge13" class="edge">
<title>q5:1&#45;&gt;q9:231</title>
<path fill="none" stroke="black" d="M873.8,-145.62C933.22,-144.94 1058.6,-143.5 1132.2,-142.65"/>
<polygon fill="black" stroke="black" points="1132.03,-146.15 1141.99,-142.54 1131.95,-139.15 1132.03,-146.15"/>
<text text-anchor="middle" x="954.27" y="-148.94" font-family="Times,serif" font-size="14.00">MAIL/250:1</text>
</g>
<!-- q0:244 -->
<g id="node14" class="node">
<title>q0:244</title>
<ellipse fill="none" stroke="black" stroke-width="2" cx="53.95" cy="-108" rx="49.95" ry="49.95"/>
<ellipse fill="none" stroke="black" stroke-width="2" cx="53.95" cy="-108" rx="53.95" ry="53.95"/>
<text text-anchor="middle" x="53.95" y="-103.33" font-family="Times,serif" font-size="14.00">q0:244</text>
</g>
<!-- q1:244 -->
<g id="node15" class="node">
<title>q1:244</title>
<ellipse fill="none" stroke="black" stroke-width="2" cx="257.84" cy="-108" rx="45.95" ry="18"/>
<text text-anchor="middle" x="257.84" y="-103.33" font-family="Times,serif" font-size="14.00">q1:244</text>
</g>
<!-- q0:244&#45;&gt;q1:244 -->
<g id="edge14" class="edge">
<title>q0:244&#45;&gt;q1:244</title>
<path fill="none" stroke="black" d="M104.85,-108C133.64,-108 169.94,-108 199.84,-108"/>
<polygon fill="black" stroke="black" points="199.45,-111.5 209.45,-108 199.45,-104.5 199.45,-111.5"/>
<text text-anchor="middle" x="157.89" y="-111.95" font-family="Times,serif" font-size="14.00">λ/220:244</text>
</g>
<!-- q1:244&#45;&gt;q3:242 -->
<g id="edge15" class="edge">
<title>q1:244&#45;&gt;q3:242</title>
<path fill="none" stroke="black" d="M302.14,-114.17C340,-119.56 395.17,-127.42 436.02,-133.24"/>
<polygon fill="black" stroke="black" points="435.51,-136.7 445.9,-134.65 436.49,-129.77 435.51,-136.7"/>
<text text-anchor="middle" x="374.66" y="-134.94" font-family="Times,serif" font-size="14.00">EHLO/250:242</text>
</g>
<!-- q2:2 -->
<g id="node16" class="node">
<title>q2:2</title>
<ellipse fill="none" stroke="black" stroke-width="2" cx="491.48" cy="-81" rx="33.32" ry="18"/>
<text text-anchor="middle" x="491.48" y="-76.33" font-family="Times,serif" font-size="14.00">q2:2</text>
</g>
<!-- q1:244&#45;&gt;q2:2 -->
<g id="edge16" class="edge">
<title>q1:244&#45;&gt;q2:2</title>
<path fill="none" stroke="black" d="M298.66,-98.83C306.31,-97.29 314.27,-95.84 321.79,-94.75 363.67,-88.66 411.82,-85.07 445.93,-83.1"/>
<polygon fill="black" stroke="black" points="446.07,-86.59 455.86,-82.55 445.68,-79.6 446.07,-86.59"/>
<text text-anchor="middle" x="374.66" y="-98.95" font-family="Times,serif" font-size="14.00">EHLO/λ:2</text>
</g>
<!-- q2:2&#45;&gt;q4:233 -->
<g id="edge17" class="edge">
<title>q2:2&#45;&gt;q4:233</title>
<path fill="none" stroke="black" d="M523.05,-73.83C533.28,-71.75 544.79,-69.78 555.43,-68.75 602.21,-64.24 614.4,-64.24 661.18,-68.75 665.01,-69.12 668.95,-69.61 672.91,-70.19"/>
<polygon fill="black" stroke="black" points="672.07,-73.6 682.51,-71.75 673.2,-66.69 672.07,-73.6"/>
<text text-anchor="middle" x="608.31" y="-72.95" font-family="Times,serif" font-size="14.00">AUTH/235:2</text>
</g>
<!-- q16:4&#45;&gt;q12:146 -->
<g id="edge25" class="edge">
<title>q16:4&#45;&gt;q12:146</title>
<path fill="none" stroke="black" d="M1636.8,-153.11C1622.9,-147.49 1605.7,-141.56 1589.6,-138.75 1556.7,-132.99 1519.4,-133.3 1488.9,-135.28"/>
<polygon fill="black" stroke="black" points="1488.83,-131.78 1479.11,-136 1489.34,-138.76 1488.83,-131.78"/>
<text text-anchor="middle" x="1543.5" y="-141.94" font-family="Times,serif" font-size="14.00">RCPT/250:4</text>
</g>
<!-- q23:113 -->
<g id="node22" class="node">
<title>q23:113</title>
<ellipse fill="none" stroke="black" stroke-width="2" cx="2171.1" cy="-126" rx="52.26" ry="18"/>
<text text-anchor="middle" x="2171.1" y="-121.33" font-family="Times,serif" font-size="14.00">q23:113</text>
</g>
<!-- q19:113&#45;&gt;q23:113 -->
<g id="edge26" class="edge">
<title>q19:113&#45;&gt;q23:113</title>
<path fill="none" stroke="black" d="M1983.2,-126C2019.6,-126 2068.3,-126 2106.9,-126"/>
<polygon fill="black" stroke="black" points="2106.49,-129.5 2116.49,-126 2106.49,-122.5 2106.49,-129.5"/>
<text text-anchor="middle" x="2050.6" y="-129.94" font-family="Times,serif" font-size="14.00">QUIT/221:113</text>
</g>
<!-- q22:1 -->
<g id="node23" class="node">
<title>q22:1</title>
<ellipse fill="none" stroke="black" stroke-width="2" cx="2171.1" cy="-72" rx="39.63" ry="18"/>
<text text-anchor="middle" x="2171.1" y="-67.33" font-family="Times,serif" font-size="14.00">q22:1</text>
</g>
<!-- q18:1&#45;&gt;q22:1 -->
<g id="edge27" class="edge">
<title>q18:1&#45;&gt;q22:1</title>
<path fill="none" stroke="black" d="M1970.5,-72C2011.2,-72 2074.7,-72 2119.1,-72"/>
<polygon fill="black" stroke="black" points="2118.99,-75.5 2128.99,-72 2118.99,-68.5 2118.99,-75.5"/>
<text text-anchor="middle" x="2050.6" y="-75.95" font-family="Times,serif" font-size="14.00">RSET/250:1</text>
</g>
<!-- q21:74 -->
<g id="node24" class="node">
<title>q21:74</title>
<ellipse fill="none" stroke="black" stroke-width="2" cx="2171.1" cy="-18" rx="45.95" ry="18"/>
<text text-anchor="middle" x="2171.1" y="-13.32" font-family="Times,serif" font-size="14.00">q21:74</text>
</g>
<!-- q17:74&#45;&gt;q21:74 -->
<g id="edge28" class="edge">
<title>q17:74&#45;&gt;q21:74</title>
<path fill="none" stroke="black" d="M1976.8,-18C2015.6,-18 2071.4,-18 2113.1,-18"/>
<polygon fill="black" stroke="black" points="2112.89,-21.5 2122.89,-18 2112.89,-14.5 2112.89,-21.5"/>
<text text-anchor="middle" x="2050.6" y="-21.95" font-family="Times,serif" font-size="14.00">RSET/250:74</text>
</g>
</g>
</svg>
