<?xml version="1.0" encoding="UTF-8" standalone="no"?>
<!DOCTYPE svg PUBLIC "-//W3C//DTD SVG 1.1//EN"
 "http://www.w3.org/Graphics/SVG/1.1/DTD/svg11.dtd">
<!-- Generated by graphviz version 12.0.0 (20240803.0821)
 -->
<!-- Pages: 1 -->
<svg width="2231pt" height="259pt"
 viewBox="0.00 0.00 2231.36 259.23" xmlns="http://www.w3.org/2000/svg" xmlns:xlink="http://www.w3.org/1999/xlink">
<g id="graph0" class="graph" transform="scale(1 1) rotate(0) translate(4 255.23)">
<polygon fill="white" stroke="none" points="-4,4 -4,-255.23 2227.36,-255.23 2227.36,4 -4,4"/>
<!-- q2:2 -->
<g id="node1" class="node">
<title>q2:2</title>
<ellipse fill="none" stroke="black" stroke-width="2" cx="491.48" cy="-115.23" rx="33.32" ry="18"/>
<text text-anchor="middle" x="491.48" y="-110.56" font-family="Times,serif" font-size="14.00">q2:2</text>
</g>
<!-- q4:231 -->
<g id="node2" class="node">
<title>q4:231</title>
<ellipse fill="none" stroke="black" stroke-width="2" cx="725.13" cy="-111.23" rx="45.95" ry="18"/>
<text text-anchor="middle" x="725.13" y="-106.56" font-family="Times,serif" font-size="14.00">q4:231</text>
</g>
<!-- q2:2&#45;&gt;q4:231 -->
<g id="edge1" class="edge">
<title>q2:2&#45;&gt;q4:231</title>
<path fill="none" stroke="black" d="M523.05,-108.06C533.28,-105.99 544.79,-104.01 555.43,-102.98 602.21,-98.47 614.28,-99.92 661.18,-102.98 664.02,-103.17 666.93,-103.4 669.86,-103.67"/>
<polygon fill="black" stroke="black" points="669.39,-107.14 679.69,-104.69 670.11,-100.18 669.39,-107.14"/>
<text text-anchor="middle" x="608.31" y="-106.19" font-family="Times,serif" font-size="14.00">AUTH/235:2</text>
</g>
<!-- q8:229 -->
<g id="node3" class="node">
<title>q8:229</title>
<ellipse fill="none" stroke="black" stroke-width="2" cx="954.27" cy="-126.23" rx="45.95" ry="18"/>
<text text-anchor="middle" x="954.27" y="-121.56" font-family="Times,serif" font-size="14.00">q8:229</text>
</g>
<!-- q4:231&#45;&gt;q8:229 -->
<g id="edge2" class="edge">
<title>q4:231&#45;&gt;q8:229</title>
<path fill="none" stroke="black" d="M771.28,-114.21C807.43,-116.6 858.32,-119.96 897.11,-122.52"/>
<polygon fill="black" stroke="black" points="896.49,-125.99 906.7,-123.16 896.95,-119.01 896.49,-125.99"/>
<text text-anchor="middle" x="839.7" y="-125.19" font-family="Times,serif" font-size="14.00">MAIL/250:229</text>
</g>
<!-- q7:2 -->
<g id="node4" class="node">
<title>q7:2</title>
<ellipse fill="none" stroke="black" stroke-width="2" cx="954.27" cy="-72.23" rx="33.32" ry="18"/>
<text text-anchor="middle" x="954.27" y="-67.56" font-family="Times,serif" font-size="14.00">q7:2</text>
</g>
<!-- q4:231&#45;&gt;q7:2 -->
<g id="edge3" class="edge">
<title>q4:231&#45;&gt;q7:2</title>
<path fill="none" stroke="black" d="M763.21,-100.18C771.66,-97.91 780.63,-95.69 789.08,-93.98 829.54,-85.8 876.26,-79.95 909.5,-76.4"/>
<polygon fill="black" stroke="black" points="909.57,-79.91 919.15,-75.39 908.85,-72.95 909.57,-79.91"/>
<text text-anchor="middle" x="839.7" y="-97.18" font-family="Times,serif" font-size="14.00">MAIL/553:2</text>
</g>
<!-- q9:230 -->
<g id="node5" class="node">
<title>q9:230</title>
<ellipse fill="none" stroke="black" stroke-width="2" cx="1190.2" cy="-158.23" rx="45.95" ry="18"/>
<text text-anchor="middle" x="1190.2" y="-153.56" font-family="Times,serif" font-size="14.00">q9:230</text>
</g>
<!-- q8:229&#45;&gt;q9:230 -->
<g id="edge4" class="edge">
<title>q8:229&#45;&gt;q9:230</title>
<path fill="none" stroke="black" d="M998.86,-131.87C1033.4,-136.37 1082.9,-142.92 1126.2,-148.98 1129,-149.38 1131.9,-149.79 1134.9,-150.2"/>
<polygon fill="black" stroke="black" points="1134.3,-153.65 1144.7,-151.62 1135.3,-146.73 1134.3,-153.65"/>
<text text-anchor="middle" x="1072.2" y="-152.19" font-family="Times,serif" font-size="14.00">RCPT/250:229</text>
</g>
<!-- q11:2 -->
<g id="node6" class="node">
<title>q11:2</title>
<ellipse fill="none" stroke="black" stroke-width="2" cx="1190.2" cy="-72.23" rx="39.63" ry="18"/>
<text text-anchor="middle" x="1190.2" y="-67.56" font-family="Times,serif" font-size="14.00">q11:2</text>
</g>
<!-- q7:2&#45;&gt;q11:2 -->
<g id="edge5" class="edge">
<title>q7:2&#45;&gt;q11:2</title>
<path fill="none" stroke="black" d="M988.29,-72.23C1027.3,-72.23 1092.7,-72.23 1138.3,-72.23"/>
<polygon fill="black" stroke="black" points="1138.19,-75.73 1148.19,-72.23 1138.19,-68.73 1138.19,-75.73"/>
<text text-anchor="middle" x="1072.2" y="-76.18" font-family="Times,serif" font-size="14.00">RSET/250:2</text>
</g>
<!-- q13:145 -->
<g id="node7" class="node">
<title>q13:145</title>
<ellipse fill="none" stroke="black" stroke-width="2" cx="1427.1" cy="-97.23" rx="52.26" ry="18"/>
<text text-anchor="middle" x="1427.1" y="-92.56" font-family="Times,serif" font-size="14.00">q13:145</text>
</g>
<!-- q9:230&#45;&gt;q13:145 -->
<g id="edge6" class="edge">
<title>q9:230&#45;&gt;q13:145</title>
<path fill="none" stroke="black" d="M1226.6,-146.28C1235.6,-143.42 1245.2,-140.48 1254.1,-137.98 1292.6,-127.24 1336.5,-116.88 1370.3,-109.29"/>
<polygon fill="black" stroke="black" points="1370.83,-112.76 1379.82,-107.16 1369.3,-105.93 1370.83,-112.76"/>
<text text-anchor="middle" x="1305.5" y="-141.19" font-family="Times,serif" font-size="14.00">RCPT/250:141</text>
</g>
<!-- q12:2669 -->
<g id="node8" class="node">
<title>q12:2669</title>
<ellipse fill="none" stroke="black" stroke-width="2" cx="1666.2" cy="-160.23" rx="58.57" ry="18"/>
<text text-anchor="middle" x="1666.2" y="-155.56" font-family="Times,serif" font-size="14.00">q12:2669</text>
</g>
<!-- q9:230&#45;&gt;q12:2669 -->
<g id="edge7" class="edge">
<title>q9:230&#45;&gt;q12:2669</title>
<path fill="none" stroke="black" d="M1237.1,-158.42C1320.4,-158.78 1497.2,-159.52 1595.5,-159.94"/>
<polygon fill="black" stroke="black" points="1595.27,-163.44 1605.29,-159.98 1595.3,-156.44 1595.27,-163.44"/>
<text text-anchor="middle" x="1427.1" y="-163.19" font-family="Times,serif" font-size="14.00">DATA/354:89</text>
</g>
<!-- q13:145&#45;&gt;q12:2669 -->
<g id="edge9" class="edge">
<title>q13:145&#45;&gt;q12:2669</title>
<path fill="none" stroke="black" d="M1470.2,-108.26C1479.2,-110.58 1488.6,-113 1497.4,-115.23 1538.3,-125.6 1548.9,-126.96 1589.6,-137.98 1596.9,-139.95 1604.6,-142.1 1612.1,-144.26"/>
<polygon fill="black" stroke="black" points="1610.87,-147.55 1621.45,-147 1612.83,-140.83 1610.87,-147.55"/>
<text text-anchor="middle" x="1543.5" y="-141.19" font-family="Times,serif" font-size="14.00">DATA/354:98</text>
</g>
<!-- q19:43 -->
<g id="node9" class="node">
<title>q19:43</title>
<ellipse fill="none" stroke="black" stroke-width="2" cx="1666.2" cy="-97.23" rx="45.95" ry="18"/>
<text text-anchor="middle" x="1666.2" y="-92.56" font-family="Times,serif" font-size="14.00">q19:43</text>
</g>
<!-- q13:145&#45;&gt;q19:43 -->
<g id="edge8" class="edge">
<title>q13:145&#45;&gt;q19:43</title>
<path fill="none" stroke="black" d="M1480.2,-97.23C1517.9,-97.23 1569,-97.23 1607.9,-97.23"/>
<polygon fill="black" stroke="black" points="1607.79,-100.73 1617.79,-97.23 1607.79,-93.73 1607.79,-100.73"/>
<text text-anchor="middle" x="1543.5" y="-101.18" font-family="Times,serif" font-size="14.00">DATA/550:43</text>
</g>
<!-- q18:4 -->
<g id="node10" class="node">
<title>q18:4</title>
<ellipse fill="none" stroke="black" stroke-width="2" cx="1666.2" cy="-30.23" rx="39.63" ry="18"/>
<text text-anchor="middle" x="1666.2" y="-25.56" font-family="Times,serif" font-size="14.00">q18:4</text>
</g>
<!-- q13:145&#45;&gt;q18:4 -->
<g id="edge10" class="edge">
<title>q13:145&#45;&gt;q18:4</title>
<path fill="none" stroke="black" d="M1438,-78.69C1449.3,-59.42 1470.1,-30.38 1497.4,-17.98 1537,0 1587.3,-7.08 1622.5,-16.15"/>
<polygon fill="black" stroke="black" points="1621.27,-19.44 1631.84,-18.73 1623.14,-12.69 1621.27,-19.44"/>
<text text-anchor="middle" x="1543.5" y="-22.18" font-family="Times,serif" font-size="14.00">RCPT/250:4</text>
</g>
<!-- q12:2669&#45;&gt;q12:2669 -->
<g id="edge11" class="edge">
<title>q12:2669&#45;&gt;q12:2669</title>
<path fill="none" stroke="black" d="M1644.3,-177.64C1640.2,-187.32 1647.5,-196.23 1666.2,-196.23 1677,-196.23 1684,-193.25 1687.2,-188.87"/>
<polygon fill="black" stroke="black" points="1690.67,-189.4 1687.98,-179.15 1683.69,-188.84 1690.67,-189.4"/>
<text text-anchor="middle" x="1666.2" y="-200.19" font-family="Times,serif" font-size="14.00">content/λ:2482</text>
</g>
<!-- q17:1 -->
<g id="node11" class="node">
<title>q17:1</title>
<ellipse fill="none" stroke="black" stroke-width="2" cx="1930" cy="-214.23" rx="39.63" ry="18"/>
<text text-anchor="middle" x="1930" y="-209.56" font-family="Times,serif" font-size="14.00">q17:1</text>
</g>
<!-- q12:2669&#45;&gt;q17:1 -->
<g id="edge12" class="edge">
<title>q12:2669&#45;&gt;q17:1</title>
<path fill="none" stroke="black" d="M1710.2,-172.94C1720.8,-175.86 1732.2,-178.82 1742.8,-181.23 1789.1,-191.74 1842.5,-200.9 1880.2,-206.89"/>
<polygon fill="black" stroke="black" points="1879.48,-210.32 1889.9,-208.41 1880.56,-203.41 1879.48,-210.32"/>
<text text-anchor="middle" x="1801.3" y="-207.19" font-family="Times,serif" font-size="14.00">content/550:1</text>
</g>
<!-- q15:112 -->
<g id="node12" class="node">
<title>q15:112</title>
<ellipse fill="none" stroke="black" stroke-width="2" cx="1930" cy="-160.23" rx="52.26" ry="18"/>
<text text-anchor="middle" x="1930" y="-155.56" font-family="Times,serif" font-size="14.00">q15:112</text>
</g>
<!-- q12:2669&#45;&gt;q15:112 -->
<g id="edge13" class="edge">
<title>q12:2669&#45;&gt;q15:112</title>
<path fill="none" stroke="black" d="M1725.6,-160.23C1767.2,-160.23 1823,-160.23 1865.6,-160.23"/>
<polygon fill="black" stroke="black" points="1865.49,-163.73 1875.49,-160.23 1865.49,-156.73 1865.49,-163.73"/>
<text text-anchor="middle" x="1801.3" y="-164.19" font-family="Times,serif" font-size="14.00">content/250:112</text>
</g>
<!-- q16:74 -->
<g id="node13" class="node">
<title>q16:74</title>
<ellipse fill="none" stroke="black" stroke-width="2" cx="1930" cy="-106.23" rx="45.95" ry="18"/>
<text text-anchor="middle" x="1930" y="-101.56" font-family="Times,serif" font-size="14.00">q16:74</text>
</g>
<!-- q12:2669&#45;&gt;q16:74 -->
<g id="edge14" class="edge">
<title>q12:2669&#45;&gt;q16:74</title>
<path fill="none" stroke="black" d="M1709.8,-147.46C1720.5,-144.46 1732,-141.43 1742.8,-138.98 1786.9,-128.93 1837.4,-120.21 1874.8,-114.31"/>
<polygon fill="black" stroke="black" points="1875.07,-117.81 1884.4,-112.8 1873.98,-110.9 1875.07,-117.81"/>
<text text-anchor="middle" x="1801.3" y="-142.19" font-family="Times,serif" font-size="14.00">content/554:74</text>
</g>
<!-- q18:4&#45;&gt;q13:145 -->
<g id="edge15" class="edge">
<title>q18:4&#45;&gt;q13:145</title>
<path fill="none" stroke="black" d="M1630.7,-39.29C1596.7,-48.3 1543.4,-62.67 1497.4,-75.98 1491.1,-77.8 1484.5,-79.75 1478,-81.71"/>
<polygon fill="black" stroke="black" points="1477.28,-78.27 1468.75,-84.55 1479.33,-84.96 1477.28,-78.27"/>
<text text-anchor="middle" x="1543.5" y="-79.18" font-family="Times,serif" font-size="14.00">RCPT/250:4</text>
</g>
<!-- q23:1 -->
<g id="node14" class="node">
<title>q23:1</title>
<ellipse fill="none" stroke="black" stroke-width="2" cx="2171.1" cy="-214.23" rx="39.63" ry="18"/>
<text text-anchor="middle" x="2171.1" y="-209.56" font-family="Times,serif" font-size="14.00">q23:1</text>
</g>
<!-- q17:1&#45;&gt;q23:1 -->
<g id="edge16" class="edge">
<title>q17:1&#45;&gt;q23:1</title>
<path fill="none" stroke="black" d="M1970.5,-214.23C2011.2,-214.23 2074.7,-214.23 2119.1,-214.23"/>
<polygon fill="black" stroke="black" points="2118.99,-217.73 2128.99,-214.23 2118.99,-210.73 2118.99,-217.73"/>
<text text-anchor="middle" x="2050.6" y="-218.19" font-family="Times,serif" font-size="14.00">RSET/250:1</text>
</g>
<!-- q21:112 -->
<g id="node15" class="node">
<title>q21:112</title>
<ellipse fill="none" stroke="black" stroke-width="2" cx="2171.1" cy="-160.23" rx="52.26" ry="18"/>
<text text-anchor="middle" x="2171.1" y="-155.56" font-family="Times,serif" font-size="14.00">q21:112</text>
</g>
<!-- q15:112&#45;&gt;q21:112 -->
<g id="edge17" class="edge">
<title>q15:112&#45;&gt;q21:112</title>
<path fill="none" stroke="black" d="M1983.2,-160.23C2019.6,-160.23 2068.3,-160.23 2106.9,-160.23"/>
<polygon fill="black" stroke="black" points="2106.49,-163.73 2116.49,-160.23 2106.49,-156.73 2106.49,-163.73"/>
<text text-anchor="middle" x="2050.6" y="-164.19" font-family="Times,serif" font-size="14.00">QUIT/221:112</text>
</g>
<!-- q22:74 -->
<g id="node16" class="node">
<title>q22:74</title>
<ellipse fill="none" stroke="black" stroke-width="2" cx="2171.1" cy="-106.23" rx="45.95" ry="18"/>
<text text-anchor="middle" x="2171.1" y="-101.56" font-family="Times,serif" font-size="14.00">q22:74</text>
</g>
<!-- q16:74&#45;&gt;q22:74 -->
<g id="edge18" class="edge">
<title>q16:74&#45;&gt;q22:74</title>
<path fill="none" stroke="black" d="M1976.8,-106.23C2015.6,-106.23 2071.4,-106.23 2113.1,-106.23"/>
<polygon fill="black" stroke="black" points="2112.89,-109.73 2122.89,-106.23 2112.89,-102.73 2112.89,-109.73"/>
<text text-anchor="middle" x="2050.6" y="-110.19" font-family="Times,serif" font-size="14.00">RSET/250:74</text>
</g>
<!-- q3:242 -->
<g id="node17" class="node">
<title>q3:242</title>
<ellipse fill="none" stroke="black" stroke-width="2" cx="491.48" cy="-175.23" rx="45.95" ry="18"/>
<text text-anchor="middle" x="491.48" y="-170.56" font-family="Times,serif" font-size="14.00">q3:242</text>
</g>
<!-- q3:242&#45;&gt;q4:231 -->
<g id="edge19" class="edge">
<title>q3:242&#45;&gt;q4:231</title>
<path fill="none" stroke="black" d="M518.39,-159.83C529.48,-153.81 542.77,-147.32 555.43,-142.98 576.24,-135.86 629.15,-126.39 670.21,-119.65"/>
<polygon fill="black" stroke="black" points="670.63,-123.13 679.95,-118.08 669.51,-116.22 670.63,-123.13"/>
<text text-anchor="middle" x="608.31" y="-146.19" font-family="Times,serif" font-size="14.00">AUTH/235:229</text>
</g>
<!-- q5:1 -->
<g id="node18" class="node">
<title>q5:1</title>
<ellipse fill="none" stroke="black" stroke-width="2" cx="839.7" cy="-180.23" rx="33.32" ry="18"/>
<text text-anchor="middle" x="839.7" y="-175.56" font-family="Times,serif" font-size="14.00">q5:1</text>
</g>
<!-- q3:242&#45;&gt;q5:1 -->
<g id="edge20" class="edge">
<title>q3:242&#45;&gt;q5:1</title>
<path fill="none" stroke="black" d="M538.1,-175.89C604.79,-176.85 728.13,-178.63 794.18,-179.59"/>
<polygon fill="black" stroke="black" points="793.88,-183.09 803.93,-179.73 793.98,-176.09 793.88,-183.09"/>
<text text-anchor="middle" x="608.31" y="-181.19" font-family="Times,serif" font-size="14.00">AUTH/λ:1</text>
</g>
<!-- q6:12 -->
<g id="node19" class="node">
<title>q6:12</title>
<ellipse fill="none" stroke="black" stroke-width="2" cx="725.13" cy="-229.23" rx="39.63" ry="18"/>
<text text-anchor="middle" x="725.13" y="-224.56" font-family="Times,serif" font-size="14.00">q6:12</text>
</g>
<!-- q3:242&#45;&gt;q6:12 -->
<g id="edge21" class="edge">
<title>q3:242&#45;&gt;q6:12</title>
<path fill="none" stroke="black" d="M521.02,-189.85C531.6,-194.75 543.84,-199.83 555.43,-203.23 594.51,-214.71 640.26,-221.36 674.25,-225.06"/>
<polygon fill="black" stroke="black" points="673.49,-228.5 683.79,-226.05 674.21,-221.54 673.49,-228.5"/>
<text text-anchor="middle" x="608.31" y="-227.19" font-family="Times,serif" font-size="14.00">AUTH/535:12</text>
</g>
<!-- q5:1&#45;&gt;q9:230 -->
<g id="edge22" class="edge">
<title>q5:1&#45;&gt;q9:230</title>
<path fill="none" stroke="black" d="M873.73,-179.44C926.97,-177.98 1035,-174.25 1126.2,-166.23 1129,-165.99 1131.9,-165.71 1134.7,-165.41"/>
<polygon fill="black" stroke="black" points="1134.84,-168.92 1144.39,-164.35 1134.07,-161.96 1134.84,-168.92"/>
<text text-anchor="middle" x="954.27" y="-182.19" font-family="Times,serif" font-size="14.00">MAIL/250:1</text>
</g>
<!-- q10:12 -->
<g id="node20" class="node">
<title>q10:12</title>
<ellipse fill="none" stroke="black" stroke-width="2" cx="954.27" cy="-233.23" rx="45.95" ry="18"/>
<text text-anchor="middle" x="954.27" y="-228.56" font-family="Times,serif" font-size="14.00">q10:12</text>
</g>
<!-- q6:12&#45;&gt;q10:12 -->
<g id="edge23" class="edge">
<title>q6:12&#45;&gt;q10:12</title>
<path fill="none" stroke="black" d="M765.69,-229.93C801.75,-230.56 855.43,-231.51 896.14,-232.23"/>
<polygon fill="black" stroke="black" points="895.95,-235.73 906.01,-232.41 896.07,-228.73 895.95,-235.73"/>
<text text-anchor="middle" x="839.7" y="-235.19" font-family="Times,serif" font-size="14.00">AUTH/334:12</text>
</g>
<!-- q14:12 -->
<g id="node21" class="node">
<title>q14:12</title>
<ellipse fill="none" stroke="black" stroke-width="2" cx="1190.2" cy="-233.23" rx="45.95" ry="18"/>
<text text-anchor="middle" x="1190.2" y="-228.56" font-family="Times,serif" font-size="14.00">q14:12</text>
</g>
<!-- q10:12&#45;&gt;q14:12 -->
<g id="edge24" class="edge">
<title>q10:12&#45;&gt;q14:12</title>
<path fill="none" stroke="black" d="M1001.2,-233.23C1038.6,-233.23 1091.6,-233.23 1131.8,-233.23"/>
<polygon fill="black" stroke="black" points="1131.79,-236.73 1141.79,-233.23 1131.79,-229.73 1131.79,-236.73"/>
<text text-anchor="middle" x="1072.2" y="-237.19" font-family="Times,serif" font-size="14.00">content/535:12</text>
</g>
<!-- q20:3 -->
<g id="node22" class="node">
<title>q20:3</title>
<ellipse fill="none" stroke="black" stroke-width="2" cx="1427.1" cy="-233.23" rx="39.63" ry="18"/>
<text text-anchor="middle" x="1427.1" y="-228.56" font-family="Times,serif" font-size="14.00">q20:3</text>
</g>
<!-- q14:12&#45;&gt;q20:3 -->
<g id="edge25" class="edge">
<title>q14:12&#45;&gt;q20:3</title>
<path fill="none" stroke="black" d="M1237,-233.23C1276.7,-233.23 1334.1,-233.23 1375.2,-233.23"/>
<polygon fill="black" stroke="black" points="1375.09,-236.73 1385.09,-233.23 1375.09,-229.73 1375.09,-236.73"/>
<text text-anchor="middle" x="1305.5" y="-237.19" font-family="Times,serif" font-size="14.00">λ/451:3</text>
</g>
<!-- q1:244 -->
<g id="node23" class="node">
<title>q1:244</title>
<ellipse fill="none" stroke="black" stroke-width="2" cx="257.84" cy="-142.23" rx="45.95" ry="18"/>
<text text-anchor="middle" x="257.84" y="-137.56" font-family="Times,serif" font-size="14.00">q1:244</text>
</g>
<!-- q1:244&#45;&gt;q2:2 -->
<g id="edge26" class="edge">
<title>q1:244&#45;&gt;q2:2</title>
<path fill="none" stroke="black" d="M296.21,-131.35C304.56,-129.26 313.43,-127.31 321.79,-125.98 363.53,-119.33 411.69,-116.76 445.85,-115.78"/>
<polygon fill="black" stroke="black" points="445.88,-119.28 455.8,-115.54 445.71,-112.29 445.88,-119.28"/>
<text text-anchor="middle" x="374.66" y="-129.19" font-family="Times,serif" font-size="14.00">EHLO/λ:2</text>
</g>
<!-- q1:244&#45;&gt;q3:242 -->
<g id="edge27" class="edge">
<title>q1:244&#45;&gt;q3:242</title>
<path fill="none" stroke="black" d="M302.14,-148.4C340,-153.79 395.17,-161.65 436.02,-167.47"/>
<polygon fill="black" stroke="black" points="435.51,-170.94 445.9,-168.88 436.49,-164.01 435.51,-170.94"/>
<text text-anchor="middle" x="374.66" y="-169.19" font-family="Times,serif" font-size="14.00">EHLO/250:242</text>
</g>
<!-- q0:244 -->
<g id="node24" class="node">
<title>q0:244</title>
<ellipse fill="none" stroke="black" stroke-width="2" cx="53.95" cy="-142.23" rx="49.95" ry="49.95"/>
<ellipse fill="none" stroke="black" stroke-width="2" cx="53.95" cy="-142.23" rx="53.95" ry="53.95"/>
<text text-anchor="middle" x="53.95" y="-137.56" font-family="Times,serif" font-size="14.00">q0:244</text>
</g>
<!-- q0:244&#45;&gt;q1:244 -->
<g id="edge28" class="edge">
<title>q0:244&#45;&gt;q1:244</title>
<path fill="none" stroke="black" d="M104.85,-142.23C133.64,-142.23 169.94,-142.23 199.84,-142.23"/>
<polygon fill="black" stroke="black" points="199.45,-145.73 209.45,-142.23 199.45,-138.73 199.45,-145.73"/>
<text text-anchor="middle" x="157.89" y="-146.19" font-family="Times,serif" font-size="14.00">λ/220:244</text>
</g>
</g>
</svg>
