<?xml version="1.0" encoding="UTF-8" standalone="no"?>
<!DOCTYPE svg PUBLIC "-//W3C//DTD SVG 1.1//EN"
 "http://www.w3.org/Graphics/SVG/1.1/DTD/svg11.dtd">
<!-- Generated by graphviz version 12.0.0 (20240803.0821)
 -->
<!-- Pages: 1 -->
<svg width="2253pt" height="211pt"
 viewBox="0.00 0.00 2252.96 211.00" xmlns="http://www.w3.org/2000/svg" xmlns:xlink="http://www.w3.org/1999/xlink">
<g id="graph0" class="graph" transform="scale(1 1) rotate(0) translate(4 207)">
<polygon fill="white" stroke="none" points="-4,4 -4,-207 2248.96,-207 2248.96,4 -4,4"/>
<!-- q13:3329 -->
<g id="node1" class="node">
<title>q13:3329</title>
<ellipse fill="none" stroke="black" stroke-width="2" cx="1687.8" cy="-81" rx="58.57" ry="18"/>
<text text-anchor="middle" x="1687.8" y="-76.33" font-family="Times,serif" font-size="14.00">q13:3329</text>
</g>
<!-- q13:3329&#45;&gt;q13:3329 -->
<g id="edge1" class="edge">
<title>q13:3329&#45;&gt;q13:3329</title>
<path fill="none" stroke="black" d="M1665.1,-98.41C1660.9,-108.09 1668.5,-117 1687.8,-117 1699,-117 1706.3,-114.02 1709.6,-109.64"/>
<polygon fill="black" stroke="black" points="1713.07,-110.17 1710.38,-99.92 1706.09,-109.61 1713.07,-110.17"/>
<text text-anchor="middle" x="1687.8" y="-120.95" font-family="Times,serif" font-size="14.00">content/位:3143</text>
</g>
<!-- q16:1 -->
<g id="node2" class="node">
<title>q16:1</title>
<ellipse fill="none" stroke="black" stroke-width="2" cx="1951.7" cy="-135" rx="39.63" ry="18"/>
<text text-anchor="middle" x="1951.7" y="-130.32" font-family="Times,serif" font-size="14.00">q16:1</text>
</g>
<!-- q13:3329&#45;&gt;q16:1 -->
<g id="edge2" class="edge">
<title>q13:3329&#45;&gt;q16:1</title>
<path fill="none" stroke="black" d="M1731.8,-93.71C1742.4,-96.63 1753.8,-99.59 1764.4,-102 1810.7,-112.51 1864.1,-121.67 1901.8,-127.66"/>
<polygon fill="black" stroke="black" points="1901.08,-131.09 1911.5,-129.18 1902.16,-124.17 1901.08,-131.09"/>
<text text-anchor="middle" x="1822.9" y="-128.94" font-family="Times,serif" font-size="14.00">content/550:1</text>
</g>
<!-- q17:49 -->
<g id="node3" class="node">
<title>q17:49</title>
<ellipse fill="none" stroke="black" stroke-width="2" cx="1951.7" cy="-81" rx="45.95" ry="18"/>
<text text-anchor="middle" x="1951.7" y="-76.33" font-family="Times,serif" font-size="14.00">q17:49</text>
</g>
<!-- q13:3329&#45;&gt;q17:49 -->
<g id="edge3" class="edge">
<title>q13:3329&#45;&gt;q17:49</title>
<path fill="none" stroke="black" d="M1747.3,-81C1790.9,-81 1850.2,-81 1893.5,-81"/>
<polygon fill="black" stroke="black" points="1893.49,-84.5 1903.49,-81 1893.49,-77.5 1893.49,-84.5"/>
<text text-anchor="middle" x="1822.9" y="-84.95" font-family="Times,serif" font-size="14.00">content/554:49</text>
</g>
<!-- q15:136 -->
<g id="node4" class="node">
<title>q15:136</title>
<ellipse fill="none" stroke="black" stroke-width="2" cx="1951.7" cy="-27" rx="52.26" ry="18"/>
<text text-anchor="middle" x="1951.7" y="-22.32" font-family="Times,serif" font-size="14.00">q15:136</text>
</g>
<!-- q13:3329&#45;&gt;q15:136 -->
<g id="edge4" class="edge">
<title>q13:3329&#45;&gt;q15:136</title>
<path fill="none" stroke="black" d="M1731.4,-68.22C1742.1,-65.23 1753.6,-62.2 1764.4,-59.75 1806.6,-50.13 1854.8,-41.73 1891.5,-35.85"/>
<polygon fill="black" stroke="black" points="1891.77,-39.35 1901.1,-34.34 1890.68,-32.43 1891.77,-39.35"/>
<text text-anchor="middle" x="1822.9" y="-63.95" font-family="Times,serif" font-size="14.00">content/250:136</text>
</g>
<!-- q20:1 -->
<g id="node5" class="node">
<title>q20:1</title>
<ellipse fill="none" stroke="black" stroke-width="2" cx="2192.7" cy="-135" rx="39.63" ry="18"/>
<text text-anchor="middle" x="2192.7" y="-130.32" font-family="Times,serif" font-size="14.00">q20:1</text>
</g>
<!-- q16:1&#45;&gt;q20:1 -->
<g id="edge5" class="edge">
<title>q16:1&#45;&gt;q20:1</title>
<path fill="none" stroke="black" d="M1992.1,-135C2032.8,-135 2096.3,-135 2140.7,-135"/>
<polygon fill="black" stroke="black" points="2140.69,-138.5 2150.69,-135 2140.69,-131.5 2140.69,-138.5"/>
<text text-anchor="middle" x="2072.2" y="-138.94" font-family="Times,serif" font-size="14.00">RSET/250:1</text>
</g>
<!-- q21:49 -->
<g id="node6" class="node">
<title>q21:49</title>
<ellipse fill="none" stroke="black" stroke-width="2" cx="2192.7" cy="-81" rx="45.95" ry="18"/>
<text text-anchor="middle" x="2192.7" y="-76.33" font-family="Times,serif" font-size="14.00">q21:49</text>
</g>
<!-- q17:49&#45;&gt;q21:49 -->
<g id="edge6" class="edge">
<title>q17:49&#45;&gt;q21:49</title>
<path fill="none" stroke="black" d="M1998.5,-81C2037.3,-81 2093,-81 2134.7,-81"/>
<polygon fill="black" stroke="black" points="2134.49,-84.5 2144.49,-81 2134.49,-77.5 2134.49,-84.5"/>
<text text-anchor="middle" x="2072.2" y="-84.95" font-family="Times,serif" font-size="14.00">RSET/250:49</text>
</g>
<!-- q19:136 -->
<g id="node7" class="node">
<title>q19:136</title>
<ellipse fill="none" stroke="black" stroke-width="2" cx="2192.7" cy="-27" rx="52.26" ry="18"/>
<text text-anchor="middle" x="2192.7" y="-22.32" font-family="Times,serif" font-size="14.00">q19:136</text>
</g>
<!-- q15:136&#45;&gt;q19:136 -->
<g id="edge7" class="edge">
<title>q15:136&#45;&gt;q19:136</title>
<path fill="none" stroke="black" d="M2004.8,-27C2041.2,-27 2090,-27 2128.5,-27"/>
<polygon fill="black" stroke="black" points="2128.09,-30.5 2138.09,-27 2128.09,-23.5 2128.09,-30.5"/>
<text text-anchor="middle" x="2072.2" y="-30.95" font-family="Times,serif" font-size="14.00">QUIT/221:136</text>
</g>
<!-- q14:161 -->
<g id="node8" class="node">
<title>q14:161</title>
<ellipse fill="none" stroke="black" stroke-width="2" cx="1439.8" cy="-36" rx="52.26" ry="18"/>
<text text-anchor="middle" x="1439.8" y="-31.32" font-family="Times,serif" font-size="14.00">q14:161</text>
</g>
<!-- q14:161&#45;&gt;q13:3329 -->
<g id="edge8" class="edge">
<title>q14:161&#45;&gt;q13:3329</title>
<path fill="none" stroke="black" d="M1491.1,-40.66C1525.2,-44.32 1571.2,-50.24 1611.3,-58.75 1619,-60.39 1627.1,-62.43 1635,-64.59"/>
<polygon fill="black" stroke="black" points="1633.87,-67.91 1644.44,-67.3 1635.79,-61.18 1633.87,-67.91"/>
<text text-anchor="middle" x="1560.6" y="-62.95" font-family="Times,serif" font-size="14.00">DATA/354:118</text>
</g>
<!-- q18:43 -->
<g id="node9" class="node">
<title>q18:43</title>
<ellipse fill="none" stroke="black" stroke-width="2" cx="1687.8" cy="-18" rx="45.95" ry="18"/>
<text text-anchor="middle" x="1687.8" y="-13.32" font-family="Times,serif" font-size="14.00">q18:43</text>
</g>
<!-- q14:161&#45;&gt;q18:43 -->
<g id="edge9" class="edge">
<title>q14:161&#45;&gt;q18:43</title>
<path fill="none" stroke="black" d="M1481.1,-24.23C1490.5,-21.96 1500.5,-19.93 1510,-18.75 1550,-13.76 1595.4,-13.69 1630.2,-14.8"/>
<polygon fill="black" stroke="black" points="1629.97,-18.3 1640.09,-15.17 1630.22,-11.3 1629.97,-18.3"/>
<text text-anchor="middle" x="1560.6" y="-22.95" font-family="Times,serif" font-size="14.00">DATA/550:43</text>
</g>
<!-- q2:242 -->
<g id="node10" class="node">
<title>q2:242</title>
<ellipse fill="none" stroke="black" stroke-width="2" cx="491.48" cy="-159" rx="45.95" ry="18"/>
<text text-anchor="middle" x="491.48" y="-154.32" font-family="Times,serif" font-size="14.00">q2:242</text>
</g>
<!-- q4:12 -->
<g id="node11" class="node">
<title>q4:12</title>
<ellipse fill="none" stroke="black" stroke-width="2" cx="725.13" cy="-185" rx="39.63" ry="18"/>
<text text-anchor="middle" x="725.13" y="-180.32" font-family="Times,serif" font-size="14.00">q4:12</text>
</g>
<!-- q2:242&#45;&gt;q4:12 -->
<g id="edge10" class="edge">
<title>q2:242&#45;&gt;q4:12</title>
<path fill="none" stroke="black" d="M536.6,-163.95C575.99,-168.37 633.63,-174.84 674.59,-179.44"/>
<polygon fill="black" stroke="black" points="674.11,-182.91 684.44,-180.54 674.89,-175.95 674.11,-182.91"/>
<text text-anchor="middle" x="608.31" y="-180.94" font-family="Times,serif" font-size="14.00">AUTH/535:12</text>
</g>
<!-- q5:232 -->
<g id="node12" class="node">
<title>q5:232</title>
<ellipse fill="none" stroke="black" stroke-width="2" cx="725.13" cy="-118" rx="45.95" ry="18"/>
<text text-anchor="middle" x="725.13" y="-113.33" font-family="Times,serif" font-size="14.00">q5:232</text>
</g>
<!-- q2:242&#45;&gt;q5:232 -->
<g id="edge11" class="edge">
<title>q2:242&#45;&gt;q5:232</title>
<path fill="none" stroke="black" d="M532.02,-149.63C539.77,-147.92 547.84,-146.21 555.43,-144.75 593.46,-137.44 636.6,-130.62 669.73,-125.7"/>
<polygon fill="black" stroke="black" points="670.12,-129.18 679.5,-124.26 669.1,-122.26 670.12,-129.18"/>
<text text-anchor="middle" x="608.31" y="-147.94" font-family="Times,serif" font-size="14.00">AUTH/235:230</text>
</g>
<!-- q6:12 -->
<g id="node13" class="node">
<title>q6:12</title>
<ellipse fill="none" stroke="black" stroke-width="2" cx="954.27" cy="-185" rx="39.63" ry="18"/>
<text text-anchor="middle" x="954.27" y="-180.32" font-family="Times,serif" font-size="14.00">q6:12</text>
</g>
<!-- q4:12&#45;&gt;q6:12 -->
<g id="edge12" class="edge">
<title>q4:12&#45;&gt;q6:12</title>
<path fill="none" stroke="black" d="M765.69,-185C803.6,-185 861,-185 902.32,-185"/>
<polygon fill="black" stroke="black" points="902.27,-188.5 912.27,-185 902.27,-181.5 902.27,-188.5"/>
<text text-anchor="middle" x="839.7" y="-188.94" font-family="Times,serif" font-size="14.00">AUTH/334:12</text>
</g>
<!-- q7:3 -->
<g id="node14" class="node">
<title>q7:3</title>
<ellipse fill="none" stroke="black" stroke-width="2" cx="954.27" cy="-128" rx="33.32" ry="18"/>
<text text-anchor="middle" x="954.27" y="-123.33" font-family="Times,serif" font-size="14.00">q7:3</text>
</g>
<!-- q5:232&#45;&gt;q7:3 -->
<g id="edge13" class="edge">
<title>q5:232&#45;&gt;q7:3</title>
<path fill="none" stroke="black" d="M771.55,-120C811.41,-121.75 869.04,-124.29 908.66,-126.04"/>
<polygon fill="black" stroke="black" points="908.42,-129.53 918.57,-126.47 908.73,-122.54 908.42,-129.53"/>
<text text-anchor="middle" x="839.7" y="-129.94" font-family="Times,serif" font-size="14.00">MAIL/553:3</text>
</g>
<!-- q8:229 -->
<g id="node15" class="node">
<title>q8:229</title>
<ellipse fill="none" stroke="black" stroke-width="2" cx="954.27" cy="-74" rx="45.95" ry="18"/>
<text text-anchor="middle" x="954.27" y="-69.33" font-family="Times,serif" font-size="14.00">q8:229</text>
</g>
<!-- q5:232&#45;&gt;q8:229 -->
<g id="edge14" class="edge">
<title>q5:232&#45;&gt;q8:229</title>
<path fill="none" stroke="black" d="M762.54,-106.6C771.18,-104.12 780.41,-101.68 789.08,-99.75 825.07,-91.74 866.05,-85.31 898.07,-80.88"/>
<polygon fill="black" stroke="black" points="898.49,-84.36 907.93,-79.54 897.55,-77.42 898.49,-84.36"/>
<text text-anchor="middle" x="839.7" y="-103.95" font-family="Times,serif" font-size="14.00">MAIL/250:229</text>
</g>
<!-- q9:12 -->
<g id="node16" class="node">
<title>q9:12</title>
<ellipse fill="none" stroke="black" stroke-width="2" cx="1196.5" cy="-185" rx="39.63" ry="18"/>
<text text-anchor="middle" x="1196.5" y="-180.32" font-family="Times,serif" font-size="14.00">q9:12</text>
</g>
<!-- q6:12&#45;&gt;q9:12 -->
<g id="edge15" class="edge">
<title>q6:12&#45;&gt;q9:12</title>
<path fill="none" stroke="black" d="M994.67,-185C1035.6,-185 1099.8,-185 1144.6,-185"/>
<polygon fill="black" stroke="black" points="1144.59,-188.5 1154.59,-185 1144.59,-181.5 1144.59,-188.5"/>
<text text-anchor="middle" x="1072.2" y="-188.94" font-family="Times,serif" font-size="14.00">content/535:12</text>
</g>
<!-- q10:3 -->
<g id="node17" class="node">
<title>q10:3</title>
<ellipse fill="none" stroke="black" stroke-width="2" cx="1196.5" cy="-128" rx="39.63" ry="18"/>
<text text-anchor="middle" x="1196.5" y="-123.33" font-family="Times,serif" font-size="14.00">q10:3</text>
</g>
<!-- q7:3&#45;&gt;q10:3 -->
<g id="edge16" class="edge">
<title>q7:3&#45;&gt;q10:3</title>
<path fill="none" stroke="black" d="M988.42,-128C1028.8,-128 1097.3,-128 1144.4,-128"/>
<polygon fill="black" stroke="black" points="1144.39,-131.5 1154.39,-128 1144.39,-124.5 1144.39,-131.5"/>
<text text-anchor="middle" x="1072.2" y="-131.94" font-family="Times,serif" font-size="14.00">RSET/250:3</text>
</g>
<!-- q11:229 -->
<g id="node18" class="node">
<title>q11:229</title>
<ellipse fill="none" stroke="black" stroke-width="2" cx="1196.5" cy="-74" rx="52.26" ry="18"/>
<text text-anchor="middle" x="1196.5" y="-69.33" font-family="Times,serif" font-size="14.00">q11:229</text>
</g>
<!-- q8:229&#45;&gt;q11:229 -->
<g id="edge17" class="edge">
<title>q8:229&#45;&gt;q11:229</title>
<path fill="none" stroke="black" d="M1001.02,-74C1038.1,-74 1090.8,-74 1131.9,-74"/>
<polygon fill="black" stroke="black" points="1131.69,-77.5 1141.69,-74 1131.69,-70.5 1131.69,-77.5"/>
<text text-anchor="middle" x="1072.2" y="-77.95" font-family="Times,serif" font-size="14.00">RCPT/250:229</text>
</g>
<!-- q12:4 -->
<g id="node19" class="node">
<title>q12:4</title>
<ellipse fill="none" stroke="black" stroke-width="2" cx="1439.8" cy="-185" rx="39.63" ry="18"/>
<text text-anchor="middle" x="1439.8" y="-180.32" font-family="Times,serif" font-size="14.00">q12:4</text>
</g>
<!-- q9:12&#45;&gt;q12:4 -->
<g id="edge18" class="edge">
<title>q9:12&#45;&gt;q12:4</title>
<path fill="none" stroke="black" d="M1237.1,-185C1278.2,-185 1342.9,-185 1387.9,-185"/>
<polygon fill="black" stroke="black" points="1387.69,-188.5 1397.69,-185 1387.69,-181.5 1387.69,-188.5"/>
<text text-anchor="middle" x="1318.1" y="-188.94" font-family="Times,serif" font-size="14.00">位/451:4</text>
</g>
<!-- q11:229&#45;&gt;q13:3329 -->
<g id="edge19" class="edge">
<title>q11:229&#45;&gt;q13:3329</title>
<path fill="none" stroke="black" d="M1249.3,-75.59C1255.2,-75.74 1261.1,-75.89 1266.7,-76 1390,-78.51 1533.7,-79.89 1617,-80.53"/>
<polygon fill="black" stroke="black" points="1616.86,-84.03 1626.89,-80.61 1616.91,-77.03 1616.86,-84.03"/>
<text text-anchor="middle" x="1439.8" y="-83.95" font-family="Times,serif" font-size="14.00">DATA/354:68</text>
</g>
<!-- q11:229&#45;&gt;q14:161 -->
<g id="edge20" class="edge">
<title>q11:229&#45;&gt;q14:161</title>
<path fill="none" stroke="black" d="M1241,-63.83C1249.5,-62.01 1258.4,-60.22 1266.7,-58.75 1303.4,-52.31 1344.7,-46.79 1377.6,-42.8"/>
<polygon fill="black" stroke="black" points="1377.88,-46.29 1387.4,-41.63 1377.05,-39.34 1377.88,-46.29"/>
<text text-anchor="middle" x="1318.1" y="-62.95" font-family="Times,serif" font-size="14.00">RCPT/250:161</text>
</g>
<!-- q1:244 -->
<g id="node20" class="node">
<title>q1:244</title>
<ellipse fill="none" stroke="black" stroke-width="2" cx="257.84" cy="-132" rx="45.95" ry="18"/>
<text text-anchor="middle" x="257.84" y="-127.33" font-family="Times,serif" font-size="14.00">q1:244</text>
</g>
<!-- q1:244&#45;&gt;q2:242 -->
<g id="edge21" class="edge">
<title>q1:244&#45;&gt;q2:242</title>
<path fill="none" stroke="black" d="M302.96,-137.14C340.55,-141.52 394.77,-147.84 435.24,-152.56"/>
<polygon fill="black" stroke="black" points="434.69,-156.02 445.03,-153.7 435.5,-149.07 434.69,-156.02"/>
<text text-anchor="middle" x="374.66" y="-154.94" font-family="Times,serif" font-size="14.00">EHLO/250:242</text>
</g>
<!-- q3:2 -->
<g id="node21" class="node">
<title>q3:2</title>
<ellipse fill="none" stroke="black" stroke-width="2" cx="491.48" cy="-105" rx="33.32" ry="18"/>
<text text-anchor="middle" x="491.48" y="-100.33" font-family="Times,serif" font-size="14.00">q3:2</text>
</g>
<!-- q1:244&#45;&gt;q3:2 -->
<g id="edge22" class="edge">
<title>q1:244&#45;&gt;q3:2</title>
<path fill="none" stroke="black" d="M297.96,-122.21C305.81,-120.51 314.03,-118.91 321.79,-117.75 363.62,-111.47 411.78,-108.22 445.9,-106.58"/>
<polygon fill="black" stroke="black" points="446.01,-110.08 455.84,-106.13 445.69,-103.09 446.01,-110.08"/>
<text text-anchor="middle" x="374.66" y="-121.95" font-family="Times,serif" font-size="14.00">EHLO/位:2</text>
</g>
<!-- q3:2&#45;&gt;q5:232 -->
<g id="edge23" class="edge">
<title>q3:2&#45;&gt;q5:232</title>
<path fill="none" stroke="black" d="M525.55,-103.32C559.63,-102.02 614.26,-101.12 661.18,-105.75 665.01,-106.13 668.95,-106.63 672.9,-107.21"/>
<polygon fill="black" stroke="black" points="672.07,-110.62 682.51,-108.79 673.2,-103.71 672.07,-110.62"/>
<text text-anchor="middle" x="608.31" y="-109.95" font-family="Times,serif" font-size="14.00">AUTH/235:2</text>
</g>
<!-- q0:244 -->
<g id="node22" class="node">
<title>q0:244</title>
<ellipse fill="none" stroke="black" stroke-width="2" cx="53.95" cy="-132" rx="49.95" ry="49.95"/>
<ellipse fill="none" stroke="black" stroke-width="2" cx="53.95" cy="-132" rx="53.95" ry="53.95"/>
<text text-anchor="middle" x="53.95" y="-127.33" font-family="Times,serif" font-size="14.00">q0:244</text>
</g>
<!-- q0:244&#45;&gt;q1:244 -->
<g id="edge24" class="edge">
<title>q0:244&#45;&gt;q1:244</title>
<path fill="none" stroke="black" d="M104.85,-132C133.64,-132 169.94,-132 199.84,-132"/>
<polygon fill="black" stroke="black" points="199.45,-135.5 209.45,-132 199.45,-128.5 199.45,-135.5"/>
<text text-anchor="middle" x="157.89" y="-135.94" font-family="Times,serif" font-size="14.00">位/220:244</text>
</g>
</g>
</svg>
