<?xml version="1.0" encoding="UTF-8" standalone="no"?>
<!DOCTYPE svg PUBLIC "-//W3C//DTD SVG 1.1//EN"
 "http://www.w3.org/Graphics/SVG/1.1/DTD/svg11.dtd">
<!-- Generated by graphviz version 12.0.0 (20240803.0821)
 -->
<!-- Pages: 1 -->
<svg width="2444pt" height="310pt"
 viewBox="0.00 0.00 2443.93 310.00" xmlns="http://www.w3.org/2000/svg" xmlns:xlink="http://www.w3.org/1999/xlink">
<g id="graph0" class="graph" transform="scale(1 1) rotate(0) translate(4 306)">
<polygon fill="white" stroke="none" points="-4,4 -4,-306 2439.93,-306 2439.93,4 -4,4"/>
<!-- q0:244 -->
<g id="node1" class="node">
<title>q0:244</title>
<ellipse fill="none" stroke="black" stroke-width="2" cx="53.95" cy="-193" rx="49.95" ry="49.95"/>
<ellipse fill="none" stroke="black" stroke-width="2" cx="53.95" cy="-193" rx="53.95" ry="53.95"/>
<text text-anchor="middle" x="53.95" y="-188.32" font-family="Times,serif" font-size="14.00">q0:244</text>
</g>
<!-- q1:244 -->
<g id="node2" class="node">
<title>q1:244</title>
<ellipse fill="none" stroke="black" stroke-width="2" cx="257.84" cy="-193" rx="45.95" ry="18"/>
<text text-anchor="middle" x="257.84" y="-188.32" font-family="Times,serif" font-size="14.00">q1:244</text>
</g>
<!-- q0:244&#45;&gt;q1:244 -->
<g id="edge1" class="edge">
<title>q0:244&#45;&gt;q1:244</title>
<path fill="none" stroke="black" d="M104.85,-193C133.64,-193 169.94,-193 199.84,-193"/>
<polygon fill="black" stroke="black" points="199.45,-196.5 209.45,-193 199.45,-189.5 199.45,-196.5"/>
<text text-anchor="middle" x="157.89" y="-196.94" font-family="Times,serif" font-size="14.00">λ/220:244</text>
</g>
<!-- q3:2 -->
<g id="node3" class="node">
<title>q3:2</title>
<ellipse fill="none" stroke="black" stroke-width="2" cx="491.48" cy="-166" rx="33.32" ry="18"/>
<text text-anchor="middle" x="491.48" y="-161.32" font-family="Times,serif" font-size="14.00">q3:2</text>
</g>
<!-- q1:244&#45;&gt;q3:2 -->
<g id="edge2" class="edge">
<title>q1:244&#45;&gt;q3:2</title>
<path fill="none" stroke="black" d="M296.21,-182.12C304.56,-180.03 313.43,-178.08 321.79,-176.75 363.53,-170.09 411.69,-167.52 445.85,-166.55"/>
<polygon fill="black" stroke="black" points="445.88,-170.05 455.8,-166.31 445.71,-163.05 445.88,-170.05"/>
<text text-anchor="middle" x="374.66" y="-179.94" font-family="Times,serif" font-size="14.00">EHLO/λ:2</text>
</g>
<!-- q2:242 -->
<g id="node4" class="node">
<title>q2:242</title>
<ellipse fill="none" stroke="black" stroke-width="2" cx="491.48" cy="-226" rx="45.95" ry="18"/>
<text text-anchor="middle" x="491.48" y="-221.32" font-family="Times,serif" font-size="14.00">q2:242</text>
</g>
<!-- q1:244&#45;&gt;q2:242 -->
<g id="edge3" class="edge">
<title>q1:244&#45;&gt;q2:242</title>
<path fill="none" stroke="black" d="M302.14,-199.17C340,-204.56 395.17,-212.42 436.02,-218.24"/>
<polygon fill="black" stroke="black" points="435.51,-221.7 445.9,-219.65 436.49,-214.77 435.51,-221.7"/>
<text text-anchor="middle" x="374.66" y="-219.94" font-family="Times,serif" font-size="14.00">EHLO/250:242</text>
</g>
<!-- q6:231 -->
<g id="node5" class="node">
<title>q6:231</title>
<ellipse fill="none" stroke="black" stroke-width="2" cx="725.13" cy="-162" rx="45.95" ry="18"/>
<text text-anchor="middle" x="725.13" y="-157.32" font-family="Times,serif" font-size="14.00">q6:231</text>
</g>
<!-- q3:2&#45;&gt;q6:231 -->
<g id="edge4" class="edge">
<title>q3:2&#45;&gt;q6:231</title>
<path fill="none" stroke="black" d="M523.05,-158.83C533.28,-156.75 544.79,-154.78 555.43,-153.75 602.21,-149.24 614.28,-150.69 661.18,-153.75 664.02,-153.94 666.93,-154.17 669.86,-154.43"/>
<polygon fill="black" stroke="black" points="669.39,-157.9 679.69,-155.45 670.11,-150.94 669.39,-157.9"/>
<text text-anchor="middle" x="608.31" y="-156.94" font-family="Times,serif" font-size="14.00">AUTH/235:2</text>
</g>
<!-- q2:242&#45;&gt;q6:231 -->
<g id="edge5" class="edge">
<title>q2:242&#45;&gt;q6:231</title>
<path fill="none" stroke="black" d="M518.39,-210.6C529.48,-204.57 542.77,-198.08 555.43,-193.75 576.24,-186.63 629.15,-177.16 670.21,-170.42"/>
<polygon fill="black" stroke="black" points="670.63,-173.9 679.95,-168.84 669.51,-166.99 670.63,-173.9"/>
<text text-anchor="middle" x="608.31" y="-196.94" font-family="Times,serif" font-size="14.00">AUTH/235:229</text>
</g>
<!-- q5:12 -->
<g id="node6" class="node">
<title>q5:12</title>
<ellipse fill="none" stroke="black" stroke-width="2" cx="725.13" cy="-280" rx="39.63" ry="18"/>
<text text-anchor="middle" x="725.13" y="-275.32" font-family="Times,serif" font-size="14.00">q5:12</text>
</g>
<!-- q2:242&#45;&gt;q5:12 -->
<g id="edge6" class="edge">
<title>q2:242&#45;&gt;q5:12</title>
<path fill="none" stroke="black" d="M521.02,-240.62C531.6,-245.52 543.84,-250.6 555.43,-254 594.51,-265.48 640.26,-272.13 674.25,-275.82"/>
<polygon fill="black" stroke="black" points="673.49,-279.26 683.79,-276.81 674.21,-272.3 673.49,-279.26"/>
<text text-anchor="middle" x="608.31" y="-277.94" font-family="Times,serif" font-size="14.00">AUTH/535:12</text>
</g>
<!-- q4:1 -->
<g id="node7" class="node">
<title>q4:1</title>
<ellipse fill="none" stroke="black" stroke-width="2" cx="839.7" cy="-231" rx="33.32" ry="18"/>
<text text-anchor="middle" x="839.7" y="-226.32" font-family="Times,serif" font-size="14.00">q4:1</text>
</g>
<!-- q2:242&#45;&gt;q4:1 -->
<g id="edge7" class="edge">
<title>q2:242&#45;&gt;q4:1</title>
<path fill="none" stroke="black" d="M538.1,-226.66C604.79,-227.62 728.13,-229.4 794.18,-230.36"/>
<polygon fill="black" stroke="black" points="793.88,-233.86 803.93,-230.5 793.98,-226.86 793.88,-233.86"/>
<text text-anchor="middle" x="608.31" y="-231.94" font-family="Times,serif" font-size="14.00">AUTH/λ:1</text>
</g>
<!-- q10:2 -->
<g id="node8" class="node">
<title>q10:2</title>
<ellipse fill="none" stroke="black" stroke-width="2" cx="954.27" cy="-173" rx="39.63" ry="18"/>
<text text-anchor="middle" x="954.27" y="-168.32" font-family="Times,serif" font-size="14.00">q10:2</text>
</g>
<!-- q6:231&#45;&gt;q10:2 -->
<g id="edge8" class="edge">
<title>q6:231&#45;&gt;q10:2</title>
<path fill="none" stroke="black" d="M771.55,-164.2C809.41,-166.03 863.31,-168.64 902.57,-170.54"/>
<polygon fill="black" stroke="black" points="902.32,-174.03 912.48,-171.03 902.66,-167.04 902.32,-174.03"/>
<text text-anchor="middle" x="839.7" y="-172.94" font-family="Times,serif" font-size="14.00">MAIL/553:2</text>
</g>
<!-- q9:229 -->
<g id="node9" class="node">
<title>q9:229</title>
<ellipse fill="none" stroke="black" stroke-width="2" cx="954.27" cy="-119" rx="45.95" ry="18"/>
<text text-anchor="middle" x="954.27" y="-114.33" font-family="Times,serif" font-size="14.00">q9:229</text>
</g>
<!-- q6:231&#45;&gt;q9:229 -->
<g id="edge9" class="edge">
<title>q6:231&#45;&gt;q9:229</title>
<path fill="none" stroke="black" d="M762.53,-150.56C771.18,-148.09 780.41,-145.65 789.08,-143.75 824.94,-135.88 865.76,-129.72 897.73,-125.51"/>
<polygon fill="black" stroke="black" points="898.11,-128.99 907.58,-124.24 897.21,-122.05 898.11,-128.99"/>
<text text-anchor="middle" x="839.7" y="-146.94" font-family="Times,serif" font-size="14.00">MAIL/250:229</text>
</g>
<!-- q8:12 -->
<g id="node10" class="node">
<title>q8:12</title>
<ellipse fill="none" stroke="black" stroke-width="2" cx="954.27" cy="-283" rx="39.63" ry="18"/>
<text text-anchor="middle" x="954.27" y="-278.32" font-family="Times,serif" font-size="14.00">q8:12</text>
</g>
<!-- q5:12&#45;&gt;q8:12 -->
<g id="edge10" class="edge">
<title>q5:12&#45;&gt;q8:12</title>
<path fill="none" stroke="black" d="M765.69,-280.52C803.6,-281.02 861,-281.78 902.32,-282.33"/>
<polygon fill="black" stroke="black" points="902.22,-285.83 912.27,-282.46 902.31,-278.83 902.22,-285.83"/>
<text text-anchor="middle" x="839.7" y="-285.94" font-family="Times,serif" font-size="14.00">AUTH/334:12</text>
</g>
<!-- q7:10 -->
<g id="node11" class="node">
<title>q7:10</title>
<ellipse fill="none" stroke="black" stroke-width="2" cx="1678.8" cy="-220" rx="39.63" ry="18"/>
<text text-anchor="middle" x="1678.8" y="-215.32" font-family="Times,serif" font-size="14.00">q7:10</text>
</g>
<!-- q4:1&#45;&gt;q7:10 -->
<g id="edge11" class="edge">
<title>q4:1&#45;&gt;q7:10</title>
<path fill="none" stroke="black" d="M873.91,-231C918.71,-231 1000.98,-231 1071.2,-231 1071.2,-231 1071.2,-231 1440.8,-231 1505.3,-231 1579.6,-226.88 1627.5,-223.69"/>
<polygon fill="black" stroke="black" points="1627.55,-227.19 1637.29,-223.02 1627.07,-220.21 1627.55,-227.19"/>
<text text-anchor="middle" x="1196.5" y="-234.94" font-family="Times,serif" font-size="14.00">MAIL/250:1</text>
</g>
<!-- q14:2 -->
<g id="node12" class="node">
<title>q14:2</title>
<ellipse fill="none" stroke="black" stroke-width="2" cx="1196.5" cy="-173" rx="39.63" ry="18"/>
<text text-anchor="middle" x="1196.5" y="-168.32" font-family="Times,serif" font-size="14.00">q14:2</text>
</g>
<!-- q10:2&#45;&gt;q14:2 -->
<g id="edge12" class="edge">
<title>q10:2&#45;&gt;q14:2</title>
<path fill="none" stroke="black" d="M994.67,-173C1035.6,-173 1099.8,-173 1144.6,-173"/>
<polygon fill="black" stroke="black" points="1144.59,-176.5 1154.59,-173 1144.59,-169.5 1144.59,-176.5"/>
<text text-anchor="middle" x="1072.2" y="-176.94" font-family="Times,serif" font-size="14.00">RSET/250:2</text>
</g>
<!-- q13:229 -->
<g id="node13" class="node">
<title>q13:229</title>
<ellipse fill="none" stroke="black" stroke-width="2" cx="1196.5" cy="-119" rx="52.26" ry="18"/>
<text text-anchor="middle" x="1196.5" y="-114.33" font-family="Times,serif" font-size="14.00">q13:229</text>
</g>
<!-- q9:229&#45;&gt;q13:229 -->
<g id="edge13" class="edge">
<title>q9:229&#45;&gt;q13:229</title>
<path fill="none" stroke="black" d="M1001.02,-119C1038.1,-119 1090.8,-119 1131.9,-119"/>
<polygon fill="black" stroke="black" points="1131.69,-122.5 1141.69,-119 1131.69,-115.5 1131.69,-122.5"/>
<text text-anchor="middle" x="1072.2" y="-122.95" font-family="Times,serif" font-size="14.00">RCPT/250:229</text>
</g>
<!-- q12:12 -->
<g id="node16" class="node">
<title>q12:12</title>
<ellipse fill="none" stroke="black" stroke-width="2" cx="1196.5" cy="-284" rx="45.95" ry="18"/>
<text text-anchor="middle" x="1196.5" y="-279.32" font-family="Times,serif" font-size="14.00">q12:12</text>
</g>
<!-- q8:12&#45;&gt;q12:12 -->
<g id="edge16" class="edge">
<title>q8:12&#45;&gt;q12:12</title>
<path fill="none" stroke="black" d="M994.67,-283.16C1033.8,-283.33 1094.1,-283.58 1138.4,-283.76"/>
<polygon fill="black" stroke="black" points="1138.37,-287.26 1148.39,-283.8 1138.4,-280.26 1138.37,-287.26"/>
<text text-anchor="middle" x="1072.2" y="-286.94" font-family="Times,serif" font-size="14.00">content/535:12</text>
</g>
<!-- q7:10&#45;&gt;q7:10 -->
<g id="edge28" class="edge">
<title>q7:10&#45;&gt;q7:10</title>
<path fill="none" stroke="black" d="M1657.6,-235.92C1652.1,-246.15 1659.2,-256 1678.8,-256 1690.8,-256 1698.1,-252.34 1700.7,-247.17"/>
<polygon fill="black" stroke="black" points="1704.21,-247.19 1700.09,-237.43 1697.22,-247.63 1704.21,-247.19"/>
<text text-anchor="middle" x="1678.8" y="-259.94" font-family="Times,serif" font-size="14.00">RCPT/250:8</text>
</g>
<!-- q11:2 -->
<g id="node25" class="node">
<title>q11:2</title>
<ellipse fill="none" stroke="black" stroke-width="2" cx="1942.7" cy="-220" rx="39.63" ry="18"/>
<text text-anchor="middle" x="1942.7" y="-215.32" font-family="Times,serif" font-size="14.00">q11:2</text>
</g>
<!-- q7:10&#45;&gt;q11:2 -->
<g id="edge29" class="edge">
<title>q7:10&#45;&gt;q11:2</title>
<path fill="none" stroke="black" d="M1719.3,-220C1765.2,-220 1840.9,-220 1891.1,-220"/>
<polygon fill="black" stroke="black" points="1890.79,-223.5 1900.79,-220 1890.79,-216.5 1890.79,-223.5"/>
<text text-anchor="middle" x="1813.9" y="-223.94" font-family="Times,serif" font-size="14.00">DATA/354:2</text>
</g>
<!-- q17:2667 -->
<g id="node14" class="node">
<title>q17:2667</title>
<ellipse fill="none" stroke="black" stroke-width="2" cx="1678.8" cy="-72" rx="58.57" ry="18"/>
<text text-anchor="middle" x="1678.8" y="-67.33" font-family="Times,serif" font-size="14.00">q17:2667</text>
</g>
<!-- q13:229&#45;&gt;q17:2667 -->
<g id="edge14" class="edge">
<title>q13:229&#45;&gt;q17:2667</title>
<path fill="none" stroke="black" d="M1247.5,-114.1C1334.4,-105.6 1513.3,-88.1 1610.8,-78.56"/>
<polygon fill="black" stroke="black" points="1610.88,-82.07 1620.49,-77.61 1610.2,-75.1 1610.88,-82.07"/>
<text text-anchor="middle" x="1439.8" y="-103.95" font-family="Times,serif" font-size="14.00">DATA/354:89</text>
</g>
<!-- q18:140 -->
<g id="node15" class="node">
<title>q18:140</title>
<ellipse fill="none" stroke="black" stroke-width="2" cx="1439.8" cy="-150" rx="52.26" ry="18"/>
<text text-anchor="middle" x="1439.8" y="-145.32" font-family="Times,serif" font-size="14.00">q18:140</text>
</g>
<!-- q13:229&#45;&gt;q18:140 -->
<g id="edge15" class="edge">
<title>q13:229&#45;&gt;q18:140</title>
<path fill="none" stroke="black" d="M1246.6,-125.31C1284.7,-130.2 1337.6,-137.01 1378.3,-142.23"/>
<polygon fill="black" stroke="black" points="1377.83,-145.7 1388.2,-143.51 1378.73,-138.76 1377.83,-145.7"/>
<text text-anchor="middle" x="1318.1" y="-143.94" font-family="Times,serif" font-size="14.00">RCPT/250:140</text>
</g>
<!-- q17:2667&#45;&gt;q17:2667 -->
<g id="edge20" class="edge">
<title>q17:2667&#45;&gt;q17:2667</title>
<path fill="none" stroke="black" d="M1656.9,-89.41C1652.8,-99.09 1660.1,-108 1678.8,-108 1689.6,-108 1696.6,-105.02 1699.8,-100.64"/>
<polygon fill="black" stroke="black" points="1703.27,-101.17 1700.58,-90.92 1696.29,-100.61 1703.27,-101.17"/>
<text text-anchor="middle" x="1678.8" y="-111.95" font-family="Times,serif" font-size="14.00">content/λ:2482</text>
</g>
<!-- q22:112 -->
<g id="node18" class="node">
<title>q22:112</title>
<ellipse fill="none" stroke="black" stroke-width="2" cx="1942.7" cy="-72" rx="52.26" ry="18"/>
<text text-anchor="middle" x="1942.7" y="-67.33" font-family="Times,serif" font-size="14.00">q22:112</text>
</g>
<!-- q17:2667&#45;&gt;q22:112 -->
<g id="edge19" class="edge">
<title>q17:2667&#45;&gt;q22:112</title>
<path fill="none" stroke="black" d="M1738.3,-72C1779.8,-72 1835.6,-72 1878.2,-72"/>
<polygon fill="black" stroke="black" points="1878.09,-75.5 1888.09,-72 1878.09,-68.5 1878.09,-75.5"/>
<text text-anchor="middle" x="1813.9" y="-75.95" font-family="Times,serif" font-size="14.00">content/250:112</text>
</g>
<!-- q21:72 -->
<g id="node20" class="node">
<title>q21:72</title>
<ellipse fill="none" stroke="black" stroke-width="2" cx="1942.7" cy="-18" rx="45.95" ry="18"/>
<text text-anchor="middle" x="1942.7" y="-13.32" font-family="Times,serif" font-size="14.00">q21:72</text>
</g>
<!-- q17:2667&#45;&gt;q21:72 -->
<g id="edge21" class="edge">
<title>q17:2667&#45;&gt;q21:72</title>
<path fill="none" stroke="black" d="M1722.4,-59.23C1733.1,-56.23 1744.6,-53.2 1755.4,-50.75 1799.5,-40.7 1850.1,-31.98 1887.4,-26.07"/>
<polygon fill="black" stroke="black" points="1887.67,-29.58 1897,-24.57 1886.58,-22.66 1887.67,-29.58"/>
<text text-anchor="middle" x="1813.9" y="-54.95" font-family="Times,serif" font-size="14.00">content/554:72</text>
</g>
<!-- q20:1 -->
<g id="node21" class="node">
<title>q20:1</title>
<ellipse fill="none" stroke="black" stroke-width="2" cx="1942.7" cy="-126" rx="39.63" ry="18"/>
<text text-anchor="middle" x="1942.7" y="-121.33" font-family="Times,serif" font-size="14.00">q20:1</text>
</g>
<!-- q17:2667&#45;&gt;q20:1 -->
<g id="edge22" class="edge">
<title>q17:2667&#45;&gt;q20:1</title>
<path fill="none" stroke="black" d="M1722.8,-84.71C1733.4,-87.63 1744.8,-90.59 1755.4,-93 1801.7,-103.51 1855.1,-112.67 1892.8,-118.66"/>
<polygon fill="black" stroke="black" points="1892.08,-122.09 1902.5,-120.18 1893.16,-115.17 1892.08,-122.09"/>
<text text-anchor="middle" x="1813.9" y="-118.95" font-family="Times,serif" font-size="14.00">content/550:1</text>
</g>
<!-- q18:140&#45;&gt;q7:10 -->
<g id="edge24" class="edge">
<title>q18:140&#45;&gt;q7:10</title>
<path fill="none" stroke="black" d="M1474.6,-164.21C1485.8,-168.63 1498.3,-173.3 1510,-177 1550.3,-189.75 1561.4,-189.23 1602.3,-199.75 1612.1,-202.28 1622.7,-205.06 1632.6,-207.73"/>
<polygon fill="black" stroke="black" points="1631.57,-211.08 1642.14,-210.29 1633.39,-204.32 1631.57,-211.08"/>
<text text-anchor="middle" x="1556.1" y="-202.94" font-family="Times,serif" font-size="14.00">RCPT/250:1</text>
</g>
<!-- q18:140&#45;&gt;q17:2667 -->
<g id="edge23" class="edge">
<title>q18:140&#45;&gt;q17:2667</title>
<path fill="none" stroke="black" d="M1479.1,-137.38C1519.1,-124.22 1582,-103.53 1626.3,-88.95"/>
<polygon fill="black" stroke="black" points="1627.26,-92.32 1635.66,-85.86 1625.07,-85.67 1627.26,-92.32"/>
<text text-anchor="middle" x="1556.1" y="-129.94" font-family="Times,serif" font-size="14.00">DATA/354:96</text>
</g>
<!-- q23:43 -->
<g id="node22" class="node">
<title>q23:43</title>
<ellipse fill="none" stroke="black" stroke-width="2" cx="1678.8" cy="-161" rx="45.95" ry="18"/>
<text text-anchor="middle" x="1678.8" y="-156.32" font-family="Times,serif" font-size="14.00">q23:43</text>
</g>
<!-- q18:140&#45;&gt;q23:43 -->
<g id="edge25" class="edge">
<title>q18:140&#45;&gt;q23:43</title>
<path fill="none" stroke="black" d="M1492.5,-152.4C1530.4,-154.16 1581.7,-156.54 1620.8,-158.35"/>
<polygon fill="black" stroke="black" points="1620.54,-161.84 1630.69,-158.81 1620.86,-154.85 1620.54,-161.84"/>
<text text-anchor="middle" x="1556.1" y="-160.94" font-family="Times,serif" font-size="14.00">DATA/550:43</text>
</g>
<!-- q16:3 -->
<g id="node17" class="node">
<title>q16:3</title>
<ellipse fill="none" stroke="black" stroke-width="2" cx="1439.8" cy="-284" rx="39.63" ry="18"/>
<text text-anchor="middle" x="1439.8" y="-279.32" font-family="Times,serif" font-size="14.00">q16:3</text>
</g>
<!-- q12:12&#45;&gt;q16:3 -->
<g id="edge17" class="edge">
<title>q12:12&#45;&gt;q16:3</title>
<path fill="none" stroke="black" d="M1243.1,-284C1284.4,-284 1345.2,-284 1388,-284"/>
<polygon fill="black" stroke="black" points="1387.79,-287.5 1397.79,-284 1387.79,-280.5 1387.79,-287.5"/>
<text text-anchor="middle" x="1318.1" y="-287.94" font-family="Times,serif" font-size="14.00">λ/451:3</text>
</g>
<!-- q26:112 -->
<g id="node19" class="node">
<title>q26:112</title>
<ellipse fill="none" stroke="black" stroke-width="2" cx="2183.7" cy="-72" rx="52.26" ry="18"/>
<text text-anchor="middle" x="2183.7" y="-67.33" font-family="Times,serif" font-size="14.00">q26:112</text>
</g>
<!-- q22:112&#45;&gt;q26:112 -->
<g id="edge18" class="edge">
<title>q22:112&#45;&gt;q26:112</title>
<path fill="none" stroke="black" d="M1995.8,-72C2032.2,-72 2081,-72 2119.5,-72"/>
<polygon fill="black" stroke="black" points="2119.09,-75.5 2129.09,-72 2119.09,-68.5 2119.09,-75.5"/>
<text text-anchor="middle" x="2063.2" y="-75.95" font-family="Times,serif" font-size="14.00">QUIT/221:112</text>
</g>
<!-- q25:72 -->
<g id="node23" class="node">
<title>q25:72</title>
<ellipse fill="none" stroke="black" stroke-width="2" cx="2183.7" cy="-18" rx="45.95" ry="18"/>
<text text-anchor="middle" x="2183.7" y="-13.32" font-family="Times,serif" font-size="14.00">q25:72</text>
</g>
<!-- q21:72&#45;&gt;q25:72 -->
<g id="edge26" class="edge">
<title>q21:72&#45;&gt;q25:72</title>
<path fill="none" stroke="black" d="M1989.5,-18C2028.3,-18 2084,-18 2125.7,-18"/>
<polygon fill="black" stroke="black" points="2125.49,-21.5 2135.49,-18 2125.49,-14.5 2125.49,-21.5"/>
<text text-anchor="middle" x="2063.2" y="-21.95" font-family="Times,serif" font-size="14.00">RSET/250:72</text>
</g>
<!-- q24:1 -->
<g id="node24" class="node">
<title>q24:1</title>
<ellipse fill="none" stroke="black" stroke-width="2" cx="2183.7" cy="-126" rx="39.63" ry="18"/>
<text text-anchor="middle" x="2183.7" y="-121.33" font-family="Times,serif" font-size="14.00">q24:1</text>
</g>
<!-- q20:1&#45;&gt;q24:1 -->
<g id="edge27" class="edge">
<title>q20:1&#45;&gt;q24:1</title>
<path fill="none" stroke="black" d="M1983.1,-126C2023.8,-126 2087.3,-126 2131.7,-126"/>
<polygon fill="black" stroke="black" points="2131.69,-129.5 2141.69,-126 2131.69,-122.5 2131.69,-129.5"/>
<text text-anchor="middle" x="2063.2" y="-129.94" font-family="Times,serif" font-size="14.00">RSET/250:1</text>
</g>
<!-- q15:2 -->
<g id="node26" class="node">
<title>q15:2</title>
<ellipse fill="none" stroke="black" stroke-width="2" cx="2183.7" cy="-220" rx="39.63" ry="18"/>
<text text-anchor="middle" x="2183.7" y="-215.32" font-family="Times,serif" font-size="14.00">q15:2</text>
</g>
<!-- q11:2&#45;&gt;q15:2 -->
<g id="edge30" class="edge">
<title>q11:2&#45;&gt;q15:2</title>
<path fill="none" stroke="black" d="M1983.1,-220C2023.8,-220 2087.3,-220 2131.7,-220"/>
<polygon fill="black" stroke="black" points="2131.69,-223.5 2141.69,-220 2131.69,-216.5 2131.69,-223.5"/>
<text text-anchor="middle" x="2063.2" y="-223.94" font-family="Times,serif" font-size="14.00">content/554:2</text>
</g>
<!-- q19:2 -->
<g id="node27" class="node">
<title>q19:2</title>
<ellipse fill="none" stroke="black" stroke-width="2" cx="2396.3" cy="-220" rx="39.63" ry="18"/>
<text text-anchor="middle" x="2396.3" y="-215.32" font-family="Times,serif" font-size="14.00">q19:2</text>
</g>
<!-- q15:2&#45;&gt;q19:2 -->
<g id="edge31" class="edge">
<title>q15:2&#45;&gt;q19:2</title>
<path fill="none" stroke="black" d="M2224.3,-220C2258.4,-220 2307.9,-220 2344.9,-220"/>
<polygon fill="black" stroke="black" points="2344.39,-223.5 2354.39,-220 2344.39,-216.5 2344.39,-223.5"/>
<text text-anchor="middle" x="2296.3" y="-223.94" font-family="Times,serif" font-size="14.00">RSET/250:2</text>
</g>
</g>
</svg>
