<?xml version="1.0" encoding="UTF-8" standalone="no"?>
<!DOCTYPE svg PUBLIC "-//W3C//DTD SVG 1.1//EN"
 "http://www.w3.org/Graphics/SVG/1.1/DTD/svg11.dtd">
<!-- Generated by graphviz version 12.0.0 (20240803.0821)
 -->
<!-- Pages: 1 -->
<svg width="2240pt" height="222pt"
 viewBox="0.00 0.00 2240.36 222.00" xmlns="http://www.w3.org/2000/svg" xmlns:xlink="http://www.w3.org/1999/xlink">
<g id="graph0" class="graph" transform="scale(1 1) rotate(0) translate(4 218)">
<polygon fill="white" stroke="none" points="-4,4 -4,-218 2236.36,-218 2236.36,4 -4,4"/>
<!-- q4:232 -->
<g id="node1" class="node">
<title>q4:232</title>
<ellipse fill="none" stroke="black" stroke-width="2" cx="725.13" cy="-64" rx="45.95" ry="18"/>
<text text-anchor="middle" x="725.13" y="-59.33" font-family="Times,serif" font-size="14.00">q4:232</text>
</g>
<!-- q7:2 -->
<g id="node2" class="node">
<title>q7:2</title>
<ellipse fill="none" stroke="black" stroke-width="2" cx="954.27" cy="-72" rx="33.32" ry="18"/>
<text text-anchor="middle" x="954.27" y="-67.33" font-family="Times,serif" font-size="14.00">q7:2</text>
</g>
<!-- q4:232&#45;&gt;q7:2 -->
<g id="edge1" class="edge">
<title>q4:232&#45;&gt;q7:2</title>
<path fill="none" stroke="black" d="M771.82,-65.61C811.71,-67.01 869.24,-69.04 908.77,-70.43"/>
<polygon fill="black" stroke="black" points="908.54,-73.93 918.66,-70.78 908.79,-66.93 908.54,-73.93"/>
<text text-anchor="middle" x="839.7" y="-73.95" font-family="Times,serif" font-size="14.00">MAIL/553:2</text>
</g>
<!-- q8:230 -->
<g id="node3" class="node">
<title>q8:230</title>
<ellipse fill="none" stroke="black" stroke-width="2" cx="954.27" cy="-18" rx="45.95" ry="18"/>
<text text-anchor="middle" x="954.27" y="-13.32" font-family="Times,serif" font-size="14.00">q8:230</text>
</g>
<!-- q4:232&#45;&gt;q8:230 -->
<g id="edge2" class="edge">
<title>q4:232&#45;&gt;q8:230</title>
<path fill="none" stroke="black" d="M762.56,-52.67C771.2,-50.2 780.42,-47.73 789.08,-45.75 825.22,-37.48 866.36,-30.54 898.42,-25.66"/>
<polygon fill="black" stroke="black" points="898.92,-29.12 908.29,-24.18 897.88,-22.2 898.92,-29.12"/>
<text text-anchor="middle" x="839.7" y="-49.95" font-family="Times,serif" font-size="14.00">MAIL/250:230</text>
</g>
<!-- q11:2 -->
<g id="node4" class="node">
<title>q11:2</title>
<ellipse fill="none" stroke="black" stroke-width="2" cx="1190.2" cy="-70" rx="39.63" ry="18"/>
<text text-anchor="middle" x="1190.2" y="-65.33" font-family="Times,serif" font-size="14.00">q11:2</text>
</g>
<!-- q7:2&#45;&gt;q11:2 -->
<g id="edge3" class="edge">
<title>q7:2&#45;&gt;q11:2</title>
<path fill="none" stroke="black" d="M988.29,-71.72C1027.3,-71.38 1092.7,-70.83 1138.3,-70.44"/>
<polygon fill="black" stroke="black" points="1138.22,-73.94 1148.19,-70.35 1138.16,-66.94 1138.22,-73.94"/>
<text text-anchor="middle" x="1072.2" y="-75.95" font-family="Times,serif" font-size="14.00">RSET/250:2</text>
</g>
<!-- q9:235 -->
<g id="node5" class="node">
<title>q9:235</title>
<ellipse fill="none" stroke="black" stroke-width="2" cx="1190.2" cy="-124" rx="45.95" ry="18"/>
<text text-anchor="middle" x="1190.2" y="-119.33" font-family="Times,serif" font-size="14.00">q9:235</text>
</g>
<!-- q8:230&#45;&gt;q9:235 -->
<g id="edge4" class="edge">
<title>q8:230&#45;&gt;q9:235</title>
<path fill="none" stroke="black" d="M1000.29,-14.91C1038,-14.75 1091.2,-20.55 1126.2,-49.75 1143.5,-64.14 1129.8,-79.77 1144.2,-97 1146.1,-99.2 1148.1,-101.27 1150.3,-103.2"/>
<polygon fill="black" stroke="black" points="1148.08,-105.91 1158.19,-109.08 1152.26,-100.3 1148.08,-105.91"/>
<text text-anchor="middle" x="1072.2" y="-53.95" font-family="Times,serif" font-size="14.00">RCPT/250:230</text>
</g>
<!-- q13:3331 -->
<g id="node6" class="node">
<title>q13:3331</title>
<ellipse fill="none" stroke="black" stroke-width="2" cx="1675.2" cy="-134" rx="58.57" ry="18"/>
<text text-anchor="middle" x="1675.2" y="-129.32" font-family="Times,serif" font-size="14.00">q13:3331</text>
</g>
<!-- q9:235&#45;&gt;q13:3331 -->
<g id="edge5" class="edge">
<title>q9:235&#45;&gt;q13:3331</title>
<path fill="none" stroke="black" d="M1235.8,-127.92C1242,-128.35 1248.2,-128.73 1254.1,-129 1377.3,-134.62 1521,-135 1604.4,-134.61"/>
<polygon fill="black" stroke="black" points="1604.2,-138.11 1614.19,-134.56 1604.17,-131.11 1604.2,-138.11"/>
<text text-anchor="middle" x="1427.1" y="-137.94" font-family="Times,serif" font-size="14.00">DATA/354:68</text>
</g>
<!-- q12:167 -->
<g id="node7" class="node">
<title>q12:167</title>
<ellipse fill="none" stroke="black" stroke-width="2" cx="1427.1" cy="-80" rx="52.26" ry="18"/>
<text text-anchor="middle" x="1427.1" y="-75.33" font-family="Times,serif" font-size="14.00">q12:167</text>
</g>
<!-- q9:235&#45;&gt;q12:167 -->
<g id="edge6" class="edge">
<title>q9:235&#45;&gt;q12:167</title>
<path fill="none" stroke="black" d="M1232.5,-115.9C1239.7,-114.51 1247.1,-113.08 1254.1,-111.75 1292.3,-104.51 1335.3,-96.57 1368.8,-90.44"/>
<polygon fill="black" stroke="black" points="1369.01,-93.96 1378.21,-88.71 1367.74,-87.08 1369.01,-93.96"/>
<text text-anchor="middle" x="1305.5" y="-114.95" font-family="Times,serif" font-size="14.00">RCPT/250:167</text>
</g>
<!-- q13:3331&#45;&gt;q13:3331 -->
<g id="edge16" class="edge">
<title>q13:3331&#45;&gt;q13:3331</title>
<path fill="none" stroke="black" d="M1652.5,-151.41C1648.3,-161.09 1655.8,-170 1675.2,-170 1686.4,-170 1693.7,-167.02 1697,-162.64"/>
<polygon fill="black" stroke="black" points="1700.47,-163.17 1697.78,-152.92 1693.49,-162.61 1700.47,-163.17"/>
<text text-anchor="middle" x="1675.2" y="-173.94" font-family="Times,serif" font-size="14.00">content/λ:3143</text>
</g>
<!-- q17:1 -->
<g id="node15" class="node">
<title>q17:1</title>
<ellipse fill="none" stroke="black" stroke-width="2" cx="1939" cy="-188" rx="39.63" ry="18"/>
<text text-anchor="middle" x="1939" y="-183.32" font-family="Times,serif" font-size="14.00">q17:1</text>
</g>
<!-- q13:3331&#45;&gt;q17:1 -->
<g id="edge17" class="edge">
<title>q13:3331&#45;&gt;q17:1</title>
<path fill="none" stroke="black" d="M1719.2,-146.71C1729.8,-149.63 1741.2,-152.59 1751.8,-155 1798.1,-165.51 1851.5,-174.67 1889.2,-180.66"/>
<polygon fill="black" stroke="black" points="1888.48,-184.09 1898.9,-182.18 1889.56,-177.17 1888.48,-184.09"/>
<text text-anchor="middle" x="1810.3" y="-180.94" font-family="Times,serif" font-size="14.00">content/550:1</text>
</g>
<!-- q16:60 -->
<g id="node16" class="node">
<title>q16:60</title>
<ellipse fill="none" stroke="black" stroke-width="2" cx="1939" cy="-134" rx="45.95" ry="18"/>
<text text-anchor="middle" x="1939" y="-129.32" font-family="Times,serif" font-size="14.00">q16:60</text>
</g>
<!-- q13:3331&#45;&gt;q16:60 -->
<g id="edge18" class="edge">
<title>q13:3331&#45;&gt;q16:60</title>
<path fill="none" stroke="black" d="M1734.6,-134C1778.3,-134 1837.6,-134 1880.9,-134"/>
<polygon fill="black" stroke="black" points="1880.89,-137.5 1890.89,-134 1880.89,-130.5 1880.89,-137.5"/>
<text text-anchor="middle" x="1810.3" y="-137.94" font-family="Times,serif" font-size="14.00">content/554:60</text>
</g>
<!-- q18:127 -->
<g id="node17" class="node">
<title>q18:127</title>
<ellipse fill="none" stroke="black" stroke-width="2" cx="1939" cy="-80" rx="52.26" ry="18"/>
<text text-anchor="middle" x="1939" y="-75.33" font-family="Times,serif" font-size="14.00">q18:127</text>
</g>
<!-- q13:3331&#45;&gt;q18:127 -->
<g id="edge19" class="edge">
<title>q13:3331&#45;&gt;q18:127</title>
<path fill="none" stroke="black" d="M1718.8,-121.22C1729.5,-118.23 1741,-115.2 1751.8,-112.75 1794,-103.13 1842.1,-94.73 1878.9,-88.85"/>
<polygon fill="black" stroke="black" points="1879.08,-92.36 1888.4,-87.34 1877.98,-85.45 1879.08,-92.36"/>
<text text-anchor="middle" x="1810.3" y="-115.95" font-family="Times,serif" font-size="14.00">content/250:127</text>
</g>
<!-- q12:167&#45;&gt;q9:235 -->
<g id="edge24" class="edge">
<title>q12:167&#45;&gt;q9:235</title>
<path fill="none" stroke="black" d="M1387.8,-67.19C1351.3,-57.36 1295.8,-48.8 1254.1,-70.75 1241.6,-77.34 1246.4,-87.3 1236.1,-97 1233.9,-99.09 1231.5,-101.1 1229,-103.01"/>
<polygon fill="black" stroke="black" points="1227.11,-100.06 1220.85,-108.61 1231.07,-105.83 1227.11,-100.06"/>
<text text-anchor="middle" x="1305.5" y="-74.95" font-family="Times,serif" font-size="14.00">RCPT/250:4</text>
</g>
<!-- q12:167&#45;&gt;q13:3331 -->
<g id="edge25" class="edge">
<title>q12:167&#45;&gt;q13:3331</title>
<path fill="none" stroke="black" d="M1475.8,-87.54C1510.2,-93.29 1557.5,-101.89 1598.6,-111.75 1606.1,-113.53 1613.8,-115.59 1621.4,-117.72"/>
<polygon fill="black" stroke="black" points="1620.37,-121.07 1630.94,-120.45 1622.29,-114.34 1620.37,-121.07"/>
<text text-anchor="middle" x="1548" y="-114.95" font-family="Times,serif" font-size="14.00">DATA/354:120</text>
</g>
<!-- q15:43 -->
<g id="node22" class="node">
<title>q15:43</title>
<ellipse fill="none" stroke="black" stroke-width="2" cx="1675.2" cy="-71" rx="45.95" ry="18"/>
<text text-anchor="middle" x="1675.2" y="-66.33" font-family="Times,serif" font-size="14.00">q15:43</text>
</g>
<!-- q12:167&#45;&gt;q15:43 -->
<g id="edge26" class="edge">
<title>q12:167&#45;&gt;q15:43</title>
<path fill="none" stroke="black" d="M1476.9,-73.48C1483.7,-72.77 1490.7,-72.16 1497.4,-71.75 1537.3,-69.3 1582.4,-69.14 1617,-69.59"/>
<polygon fill="black" stroke="black" points="1616.83,-73.09 1626.89,-69.74 1616.94,-66.09 1616.83,-73.09"/>
<text text-anchor="middle" x="1548" y="-75.95" font-family="Times,serif" font-size="14.00">DATA/550:43</text>
</g>
<!-- q1:244 -->
<g id="node8" class="node">
<title>q1:244</title>
<ellipse fill="none" stroke="black" stroke-width="2" cx="257.84" cy="-91" rx="45.95" ry="18"/>
<text text-anchor="middle" x="257.84" y="-86.33" font-family="Times,serif" font-size="14.00">q1:244</text>
</g>
<!-- q3:242 -->
<g id="node9" class="node">
<title>q3:242</title>
<ellipse fill="none" stroke="black" stroke-width="2" cx="491.48" cy="-124" rx="45.95" ry="18"/>
<text text-anchor="middle" x="491.48" y="-119.33" font-family="Times,serif" font-size="14.00">q3:242</text>
</g>
<!-- q1:244&#45;&gt;q3:242 -->
<g id="edge7" class="edge">
<title>q1:244&#45;&gt;q3:242</title>
<path fill="none" stroke="black" d="M302.14,-97.17C340,-102.56 395.17,-110.42 436.02,-116.24"/>
<polygon fill="black" stroke="black" points="435.51,-119.7 445.9,-117.65 436.49,-112.77 435.51,-119.7"/>
<text text-anchor="middle" x="374.66" y="-117.95" font-family="Times,serif" font-size="14.00">EHLO/250:242</text>
</g>
<!-- q2:2 -->
<g id="node10" class="node">
<title>q2:2</title>
<ellipse fill="none" stroke="black" stroke-width="2" cx="491.48" cy="-64" rx="33.32" ry="18"/>
<text text-anchor="middle" x="491.48" y="-59.33" font-family="Times,serif" font-size="14.00">q2:2</text>
</g>
<!-- q1:244&#45;&gt;q2:2 -->
<g id="edge8" class="edge">
<title>q1:244&#45;&gt;q2:2</title>
<path fill="none" stroke="black" d="M298.66,-81.83C306.31,-80.29 314.27,-78.84 321.79,-77.75 363.67,-71.66 411.82,-68.07 445.93,-66.1"/>
<polygon fill="black" stroke="black" points="446.07,-69.59 455.86,-65.55 445.68,-62.6 446.07,-69.59"/>
<text text-anchor="middle" x="374.66" y="-81.95" font-family="Times,serif" font-size="14.00">EHLO/λ:2</text>
</g>
<!-- q3:242&#45;&gt;q4:232 -->
<g id="edge9" class="edge">
<title>q3:242&#45;&gt;q4:232</title>
<path fill="none" stroke="black" d="M518.34,-108.45C529.42,-102.41 542.72,-95.94 555.43,-91.75 591.87,-79.75 634.52,-72.79 667.82,-68.84"/>
<polygon fill="black" stroke="black" points="668.13,-72.33 677.68,-67.74 667.35,-65.37 668.13,-72.33"/>
<text text-anchor="middle" x="608.31" y="-94.95" font-family="Times,serif" font-size="14.00">AUTH/235:230</text>
</g>
<!-- q6:11 -->
<g id="node11" class="node">
<title>q6:11</title>
<ellipse fill="none" stroke="black" stroke-width="2" cx="725.13" cy="-178" rx="39.63" ry="18"/>
<text text-anchor="middle" x="725.13" y="-173.32" font-family="Times,serif" font-size="14.00">q6:11</text>
</g>
<!-- q3:242&#45;&gt;q6:11 -->
<g id="edge10" class="edge">
<title>q3:242&#45;&gt;q6:11</title>
<path fill="none" stroke="black" d="M521.02,-138.62C531.6,-143.52 543.84,-148.6 555.43,-152 594.51,-163.48 640.26,-170.13 674.25,-173.82"/>
<polygon fill="black" stroke="black" points="673.49,-177.26 683.79,-174.81 674.21,-170.3 673.49,-177.26"/>
<text text-anchor="middle" x="608.31" y="-175.94" font-family="Times,serif" font-size="14.00">AUTH/535:11</text>
</g>
<!-- q5:1 -->
<g id="node12" class="node">
<title>q5:1</title>
<ellipse fill="none" stroke="black" stroke-width="2" cx="839.7" cy="-129" rx="33.32" ry="18"/>
<text text-anchor="middle" x="839.7" y="-124.33" font-family="Times,serif" font-size="14.00">q5:1</text>
</g>
<!-- q3:242&#45;&gt;q5:1 -->
<g id="edge11" class="edge">
<title>q3:242&#45;&gt;q5:1</title>
<path fill="none" stroke="black" d="M538.1,-124.66C604.79,-125.62 728.13,-127.4 794.18,-128.36"/>
<polygon fill="black" stroke="black" points="793.88,-131.86 803.93,-128.5 793.98,-124.86 793.88,-131.86"/>
<text text-anchor="middle" x="608.31" y="-129.94" font-family="Times,serif" font-size="14.00">AUTH/λ:1</text>
</g>
<!-- q2:2&#45;&gt;q4:232 -->
<g id="edge12" class="edge">
<title>q2:2&#45;&gt;q4:232</title>
<path fill="none" stroke="black" d="M523.05,-56.83C533.28,-54.76 544.79,-52.78 555.43,-51.75 602.21,-47.24 614.4,-47.24 661.18,-51.75 665.01,-52.12 668.95,-52.61 672.91,-53.19"/>
<polygon fill="black" stroke="black" points="672.07,-56.6 682.51,-54.75 673.2,-49.69 672.07,-56.6"/>
<text text-anchor="middle" x="608.31" y="-55.95" font-family="Times,serif" font-size="14.00">AUTH/235:2</text>
</g>
<!-- q10:11 -->
<g id="node13" class="node">
<title>q10:11</title>
<ellipse fill="none" stroke="black" stroke-width="2" cx="954.27" cy="-179" rx="45.95" ry="18"/>
<text text-anchor="middle" x="954.27" y="-174.32" font-family="Times,serif" font-size="14.00">q10:11</text>
</g>
<!-- q6:11&#45;&gt;q10:11 -->
<g id="edge13" class="edge">
<title>q6:11&#45;&gt;q10:11</title>
<path fill="none" stroke="black" d="M765.69,-178.17C801.75,-178.33 855.43,-178.57 896.14,-178.75"/>
<polygon fill="black" stroke="black" points="895.99,-182.25 906.01,-178.79 896.02,-175.25 895.99,-182.25"/>
<text text-anchor="middle" x="839.7" y="-181.94" font-family="Times,serif" font-size="14.00">AUTH/334:11</text>
</g>
<!-- q5:1&#45;&gt;q9:235 -->
<g id="edge14" class="edge">
<title>q5:1&#45;&gt;q9:235</title>
<path fill="none" stroke="black" d="M873.8,-128.53C933.22,-127.67 1058.6,-125.87 1132.2,-124.82"/>
<polygon fill="black" stroke="black" points="1132.04,-128.32 1141.99,-124.68 1131.94,-121.32 1132.04,-128.32"/>
<text text-anchor="middle" x="954.27" y="-131.94" font-family="Times,serif" font-size="14.00">MAIL/250:1</text>
</g>
<!-- q14:11 -->
<g id="node14" class="node">
<title>q14:11</title>
<ellipse fill="none" stroke="black" stroke-width="2" cx="1190.2" cy="-181" rx="45.95" ry="18"/>
<text text-anchor="middle" x="1190.2" y="-176.32" font-family="Times,serif" font-size="14.00">q14:11</text>
</g>
<!-- q10:11&#45;&gt;q14:11 -->
<g id="edge15" class="edge">
<title>q10:11&#45;&gt;q14:11</title>
<path fill="none" stroke="black" d="M1001.2,-179.39C1038.6,-179.71 1091.6,-180.17 1131.8,-180.51"/>
<polygon fill="black" stroke="black" points="1131.76,-184.01 1141.79,-180.6 1131.82,-177.01 1131.76,-184.01"/>
<text text-anchor="middle" x="1072.2" y="-183.94" font-family="Times,serif" font-size="14.00">content/535:11</text>
</g>
<!-- q19:4 -->
<g id="node21" class="node">
<title>q19:4</title>
<ellipse fill="none" stroke="black" stroke-width="2" cx="1427.1" cy="-196" rx="39.63" ry="18"/>
<text text-anchor="middle" x="1427.1" y="-191.32" font-family="Times,serif" font-size="14.00">q19:4</text>
</g>
<!-- q14:11&#45;&gt;q19:4 -->
<g id="edge23" class="edge">
<title>q14:11&#45;&gt;q19:4</title>
<path fill="none" stroke="black" d="M1236.5,-183.89C1276.4,-186.44 1334.4,-190.14 1375.7,-192.78"/>
<polygon fill="black" stroke="black" points="1375.49,-196.27 1385.69,-193.41 1375.93,-189.29 1375.49,-196.27"/>
<text text-anchor="middle" x="1305.5" y="-194.94" font-family="Times,serif" font-size="14.00">λ/451:4</text>
</g>
<!-- q21:1 -->
<g id="node18" class="node">
<title>q21:1</title>
<ellipse fill="none" stroke="black" stroke-width="2" cx="2180.1" cy="-188" rx="39.63" ry="18"/>
<text text-anchor="middle" x="2180.1" y="-183.32" font-family="Times,serif" font-size="14.00">q21:1</text>
</g>
<!-- q17:1&#45;&gt;q21:1 -->
<g id="edge20" class="edge">
<title>q17:1&#45;&gt;q21:1</title>
<path fill="none" stroke="black" d="M1979.5,-188C2020.2,-188 2083.7,-188 2128.1,-188"/>
<polygon fill="black" stroke="black" points="2127.99,-191.5 2137.99,-188 2127.99,-184.5 2127.99,-191.5"/>
<text text-anchor="middle" x="2059.6" y="-191.94" font-family="Times,serif" font-size="14.00">RSET/250:1</text>
</g>
<!-- q20:60 -->
<g id="node19" class="node">
<title>q20:60</title>
<ellipse fill="none" stroke="black" stroke-width="2" cx="2180.1" cy="-134" rx="45.95" ry="18"/>
<text text-anchor="middle" x="2180.1" y="-129.32" font-family="Times,serif" font-size="14.00">q20:60</text>
</g>
<!-- q16:60&#45;&gt;q20:60 -->
<g id="edge21" class="edge">
<title>q16:60&#45;&gt;q20:60</title>
<path fill="none" stroke="black" d="M1985.8,-134C2024.6,-134 2080.4,-134 2122.1,-134"/>
<polygon fill="black" stroke="black" points="2121.89,-137.5 2131.89,-134 2121.89,-130.5 2121.89,-137.5"/>
<text text-anchor="middle" x="2059.6" y="-137.94" font-family="Times,serif" font-size="14.00">RSET/250:60</text>
</g>
<!-- q22:127 -->
<g id="node20" class="node">
<title>q22:127</title>
<ellipse fill="none" stroke="black" stroke-width="2" cx="2180.1" cy="-80" rx="52.26" ry="18"/>
<text text-anchor="middle" x="2180.1" y="-75.33" font-family="Times,serif" font-size="14.00">q22:127</text>
</g>
<!-- q18:127&#45;&gt;q22:127 -->
<g id="edge22" class="edge">
<title>q18:127&#45;&gt;q22:127</title>
<path fill="none" stroke="black" d="M1992.2,-80C2028.6,-80 2077.3,-80 2115.9,-80"/>
<polygon fill="black" stroke="black" points="2115.49,-83.5 2125.49,-80 2115.49,-76.5 2115.49,-83.5"/>
<text text-anchor="middle" x="2059.6" y="-83.95" font-family="Times,serif" font-size="14.00">QUIT/221:127</text>
</g>
<!-- q0:244 -->
<g id="node23" class="node">
<title>q0:244</title>
<ellipse fill="none" stroke="black" stroke-width="2" cx="53.95" cy="-91" rx="49.95" ry="49.95"/>
<ellipse fill="none" stroke="black" stroke-width="2" cx="53.95" cy="-91" rx="53.95" ry="53.95"/>
<text text-anchor="middle" x="53.95" y="-86.33" font-family="Times,serif" font-size="14.00">q0:244</text>
</g>
<!-- q0:244&#45;&gt;q1:244 -->
<g id="edge27" class="edge">
<title>q0:244&#45;&gt;q1:244</title>
<path fill="none" stroke="black" d="M104.85,-91C133.64,-91 169.94,-91 199.84,-91"/>
<polygon fill="black" stroke="black" points="199.45,-94.5 209.45,-91 199.45,-87.5 199.45,-94.5"/>
<text text-anchor="middle" x="157.89" y="-94.95" font-family="Times,serif" font-size="14.00">λ/220:244</text>
</g>
</g>
</svg>
