<?xml version="1.0" encoding="UTF-8" standalone="no"?>
<!DOCTYPE svg PUBLIC "-//W3C//DTD SVG 1.1//EN"
 "http://www.w3.org/Graphics/SVG/1.1/DTD/svg11.dtd">
<!-- Generated by graphviz version 12.0.0 (20240803.0821)
 -->
<!-- Pages: 1 -->
<svg width="2244pt" height="288pt"
 viewBox="0.00 0.00 2243.96 288.00" xmlns="http://www.w3.org/2000/svg" xmlns:xlink="http://www.w3.org/1999/xlink">
<g id="graph0" class="graph" transform="scale(1 1) rotate(0) translate(4 284)">
<polygon fill="white" stroke="none" points="-4,4 -4,-284 2239.96,-284 2239.96,4 -4,4"/>
<!-- q8:3 -->
<g id="node1" class="node">
<title>q8:3</title>
<ellipse fill="none" stroke="black" stroke-width="2" cx="954.27" cy="-196" rx="33.32" ry="18"/>
<text text-anchor="middle" x="954.27" y="-191.32" font-family="Times,serif" font-size="14.00">q8:3</text>
</g>
<!-- q11:3 -->
<g id="node2" class="node">
<title>q11:3</title>
<ellipse fill="none" stroke="black" stroke-width="2" cx="1196.5" cy="-196" rx="39.63" ry="18"/>
<text text-anchor="middle" x="1196.5" y="-191.32" font-family="Times,serif" font-size="14.00">q11:3</text>
</g>
<!-- q8:3&#45;&gt;q11:3 -->
<g id="edge1" class="edge">
<title>q8:3&#45;&gt;q11:3</title>
<path fill="none" stroke="black" d="M988.42,-196C1028.8,-196 1097.3,-196 1144.4,-196"/>
<polygon fill="black" stroke="black" points="1144.39,-199.5 1154.39,-196 1144.39,-192.5 1144.39,-199.5"/>
<text text-anchor="middle" x="1072.2" y="-199.94" font-family="Times,serif" font-size="14.00">RSET/250:3</text>
</g>
<!-- q1:244 -->
<g id="node3" class="node">
<title>q1:244</title>
<ellipse fill="none" stroke="black" stroke-width="2" cx="257.84" cy="-124" rx="45.95" ry="18"/>
<text text-anchor="middle" x="257.84" y="-119.33" font-family="Times,serif" font-size="14.00">q1:244</text>
</g>
<!-- q2:1 -->
<g id="node4" class="node">
<title>q2:1</title>
<ellipse fill="none" stroke="black" stroke-width="2" cx="491.48" cy="-157" rx="33.32" ry="18"/>
<text text-anchor="middle" x="491.48" y="-152.32" font-family="Times,serif" font-size="14.00">q2:1</text>
</g>
<!-- q1:244&#45;&gt;q2:1 -->
<g id="edge2" class="edge">
<title>q1:244&#45;&gt;q2:1</title>
<path fill="none" stroke="black" d="M302.14,-130.17C343.47,-136.06 405.4,-144.88 446.84,-150.78"/>
<polygon fill="black" stroke="black" points="446.33,-154.24 456.72,-152.19 447.31,-147.31 446.33,-154.24"/>
<text text-anchor="middle" x="374.66" y="-150.94" font-family="Times,serif" font-size="14.00">EHLO/λ:1</text>
</g>
<!-- q3:243 -->
<g id="node5" class="node">
<title>q3:243</title>
<ellipse fill="none" stroke="black" stroke-width="2" cx="491.48" cy="-97" rx="45.95" ry="18"/>
<text text-anchor="middle" x="491.48" y="-92.33" font-family="Times,serif" font-size="14.00">q3:243</text>
</g>
<!-- q1:244&#45;&gt;q3:243 -->
<g id="edge3" class="edge">
<title>q1:244&#45;&gt;q3:243</title>
<path fill="none" stroke="black" d="M298.66,-114.83C306.31,-113.29 314.27,-111.84 321.79,-110.75 358.85,-105.36 400.83,-101.93 433.64,-99.84"/>
<polygon fill="black" stroke="black" points="433.56,-103.35 443.33,-99.25 433.13,-96.37 433.56,-103.35"/>
<text text-anchor="middle" x="374.66" y="-114.95" font-family="Times,serif" font-size="14.00">EHLO/250:243</text>
</g>
<!-- q4:231 -->
<g id="node6" class="node">
<title>q4:231</title>
<ellipse fill="none" stroke="black" stroke-width="2" cx="725.13" cy="-158" rx="45.95" ry="18"/>
<text text-anchor="middle" x="725.13" y="-153.32" font-family="Times,serif" font-size="14.00">q4:231</text>
</g>
<!-- q2:1&#45;&gt;q4:231 -->
<g id="edge4" class="edge">
<title>q2:1&#45;&gt;q4:231</title>
<path fill="none" stroke="black" d="M525.67,-157.14C562.42,-157.3 622.33,-157.56 666.72,-157.75"/>
<polygon fill="black" stroke="black" points="666.69,-161.25 676.71,-157.79 666.72,-154.25 666.69,-161.25"/>
<text text-anchor="middle" x="608.31" y="-160.94" font-family="Times,serif" font-size="14.00">AUTH/235:1</text>
</g>
<!-- q3:243&#45;&gt;q4:231 -->
<g id="edge5" class="edge">
<title>q3:243&#45;&gt;q4:231</title>
<path fill="none" stroke="black" d="M533.73,-105.1C568.09,-112.18 618.18,-123.26 661.18,-135.75 667.16,-137.49 673.41,-139.48 679.54,-141.54"/>
<polygon fill="black" stroke="black" points="678.35,-144.83 688.95,-144.79 680.64,-138.22 678.35,-144.83"/>
<text text-anchor="middle" x="608.31" y="-138.94" font-family="Times,serif" font-size="14.00">AUTH/235:230</text>
</g>
<!-- q5:12 -->
<g id="node7" class="node">
<title>q5:12</title>
<ellipse fill="none" stroke="black" stroke-width="2" cx="725.13" cy="-37" rx="39.63" ry="18"/>
<text text-anchor="middle" x="725.13" y="-32.33" font-family="Times,serif" font-size="14.00">q5:12</text>
</g>
<!-- q3:243&#45;&gt;q5:12 -->
<g id="edge6" class="edge">
<title>q3:243&#45;&gt;q5:12</title>
<path fill="none" stroke="black" d="M507.87,-79.22C519.56,-67.1 536.76,-51.98 555.43,-44.75 593.63,-29.96 640.38,-29.01 674.97,-31.19"/>
<polygon fill="black" stroke="black" points="674.46,-34.66 684.69,-31.92 674.98,-27.68 674.46,-34.66"/>
<text text-anchor="middle" x="608.31" y="-48.95" font-family="Times,serif" font-size="14.00">AUTH/535:12</text>
</g>
<!-- q6:1 -->
<g id="node8" class="node">
<title>q6:1</title>
<ellipse fill="none" stroke="black" stroke-width="2" cx="839.7" cy="-85" rx="33.32" ry="18"/>
<text text-anchor="middle" x="839.7" y="-80.33" font-family="Times,serif" font-size="14.00">q6:1</text>
</g>
<!-- q3:243&#45;&gt;q6:1 -->
<g id="edge7" class="edge">
<title>q3:243&#45;&gt;q6:1</title>
<path fill="none" stroke="black" d="M536.12,-91.42C542.58,-90.75 549.17,-90.16 555.43,-89.75 639.74,-84.2 738.45,-83.96 794.27,-84.4"/>
<polygon fill="black" stroke="black" points="793.96,-87.9 804,-84.49 794.03,-80.9 793.96,-87.9"/>
<text text-anchor="middle" x="608.31" y="-93.95" font-family="Times,serif" font-size="14.00">AUTH/λ:1</text>
</g>
<!-- q4:231&#45;&gt;q8:3 -->
<g id="edge8" class="edge">
<title>q4:231&#45;&gt;q8:3</title>
<path fill="none" stroke="black" d="M768.1,-165.4C775.11,-166.61 782.29,-167.85 789.08,-169 830.22,-175.98 877.22,-183.68 910.36,-189.06"/>
<polygon fill="black" stroke="black" points="909.54,-192.47 919.98,-190.63 910.67,-185.56 909.54,-192.47"/>
<text text-anchor="middle" x="839.7" y="-188.94" font-family="Times,serif" font-size="14.00">MAIL/553:3</text>
</g>
<!-- q7:228 -->
<g id="node9" class="node">
<title>q7:228</title>
<ellipse fill="none" stroke="black" stroke-width="2" cx="954.27" cy="-142" rx="45.95" ry="18"/>
<text text-anchor="middle" x="954.27" y="-137.32" font-family="Times,serif" font-size="14.00">q7:228</text>
</g>
<!-- q4:231&#45;&gt;q7:228 -->
<g id="edge9" class="edge">
<title>q4:231&#45;&gt;q7:228</title>
<path fill="none" stroke="black" d="M770.47,-153.37C776.71,-152.79 783.05,-152.23 789.08,-151.75 824.82,-148.92 865.01,-146.52 896.68,-144.81"/>
<polygon fill="black" stroke="black" points="896.63,-148.32 906.43,-144.29 896.26,-141.33 896.63,-148.32"/>
<text text-anchor="middle" x="839.7" y="-154.94" font-family="Times,serif" font-size="14.00">MAIL/250:228</text>
</g>
<!-- q9:12 -->
<g id="node10" class="node">
<title>q9:12</title>
<ellipse fill="none" stroke="black" stroke-width="2" cx="954.27" cy="-34" rx="39.63" ry="18"/>
<text text-anchor="middle" x="954.27" y="-29.32" font-family="Times,serif" font-size="14.00">q9:12</text>
</g>
<!-- q5:12&#45;&gt;q9:12 -->
<g id="edge10" class="edge">
<title>q5:12&#45;&gt;q9:12</title>
<path fill="none" stroke="black" d="M765.69,-36.48C803.6,-35.98 861,-35.22 902.32,-34.67"/>
<polygon fill="black" stroke="black" points="902.31,-38.17 912.27,-34.54 902.22,-31.17 902.31,-38.17"/>
<text text-anchor="middle" x="839.7" y="-40.95" font-family="Times,serif" font-size="14.00">AUTH/334:12</text>
</g>
<!-- q10:232 -->
<g id="node11" class="node">
<title>q10:232</title>
<ellipse fill="none" stroke="black" stroke-width="2" cx="1196.5" cy="-142" rx="52.26" ry="18"/>
<text text-anchor="middle" x="1196.5" y="-137.32" font-family="Times,serif" font-size="14.00">q10:232</text>
</g>
<!-- q6:1&#45;&gt;q10:232 -->
<g id="edge11" class="edge">
<title>q6:1&#45;&gt;q10:232</title>
<path fill="none" stroke="black" d="M873.85,-86.27C906.23,-87.83 956.82,-91.13 1000.22,-97.75 1049,-105.19 1103.7,-117.99 1142.8,-127.91"/>
<polygon fill="black" stroke="black" points="1141.88,-131.29 1152.43,-130.38 1143.62,-124.51 1141.88,-131.29"/>
<text text-anchor="middle" x="954.27" y="-101.95" font-family="Times,serif" font-size="14.00">MAIL/250:1</text>
</g>
<!-- q7:228&#45;&gt;q10:232 -->
<g id="edge12" class="edge">
<title>q7:228&#45;&gt;q10:232</title>
<path fill="none" stroke="black" d="M1001.02,-142C1038.1,-142 1090.8,-142 1131.9,-142"/>
<polygon fill="black" stroke="black" points="1131.69,-145.5 1141.69,-142 1131.69,-138.5 1131.69,-145.5"/>
<text text-anchor="middle" x="1072.2" y="-145.94" font-family="Times,serif" font-size="14.00">RCPT/250:228</text>
</g>
<!-- q12:12 -->
<g id="node22" class="node">
<title>q12:12</title>
<ellipse fill="none" stroke="black" stroke-width="2" cx="1196.5" cy="-19" rx="45.95" ry="18"/>
<text text-anchor="middle" x="1196.5" y="-14.32" font-family="Times,serif" font-size="14.00">q12:12</text>
</g>
<!-- q9:12&#45;&gt;q12:12 -->
<g id="edge26" class="edge">
<title>q9:12&#45;&gt;q12:12</title>
<path fill="none" stroke="black" d="M994.4,-31.56C1033.7,-29.11 1094.5,-25.3 1139,-22.53"/>
<polygon fill="black" stroke="black" points="1138.93,-26.04 1148.69,-21.92 1138.49,-19.05 1138.93,-26.04"/>
<text text-anchor="middle" x="1072.2" y="-33.95" font-family="Times,serif" font-size="14.00">content/535:12</text>
</g>
<!-- q13:2640 -->
<g id="node12" class="node">
<title>q13:2640</title>
<ellipse fill="none" stroke="black" stroke-width="2" cx="1678.8" cy="-208" rx="58.57" ry="18"/>
<text text-anchor="middle" x="1678.8" y="-203.32" font-family="Times,serif" font-size="14.00">q13:2640</text>
</g>
<!-- q10:232&#45;&gt;q13:2640 -->
<g id="edge20" class="edge">
<title>q10:232&#45;&gt;q13:2640</title>
<path fill="none" stroke="black" d="M1233.8,-155.32C1244.3,-158.84 1255.9,-162.37 1266.7,-165 1373.1,-190.78 1401,-192.91 1510,-203 1542.2,-205.98 1578,-207.32 1608.2,-207.87"/>
<polygon fill="black" stroke="black" points="1607.93,-211.37 1617.99,-208.03 1608.04,-204.37 1607.93,-211.37"/>
<text text-anchor="middle" x="1439.8" y="-204.94" font-family="Times,serif" font-size="14.00">DATA/354:89</text>
</g>
<!-- q14:143 -->
<g id="node19" class="node">
<title>q14:143</title>
<ellipse fill="none" stroke="black" stroke-width="2" cx="1439.8" cy="-145" rx="52.26" ry="18"/>
<text text-anchor="middle" x="1439.8" y="-140.32" font-family="Times,serif" font-size="14.00">q14:143</text>
</g>
<!-- q10:232&#45;&gt;q14:143 -->
<g id="edge21" class="edge">
<title>q10:232&#45;&gt;q14:143</title>
<path fill="none" stroke="black" d="M1249.5,-142.65C1286.5,-143.11 1336.3,-143.73 1375.5,-144.21"/>
<polygon fill="black" stroke="black" points="1375.24,-147.71 1385.29,-144.33 1375.33,-140.71 1375.24,-147.71"/>
<text text-anchor="middle" x="1318.1" y="-147.94" font-family="Times,serif" font-size="14.00">RCPT/250:143</text>
</g>
<!-- q13:2640&#45;&gt;q13:2640 -->
<g id="edge13" class="edge">
<title>q13:2640&#45;&gt;q13:2640</title>
<path fill="none" stroke="black" d="M1656.9,-225.41C1652.8,-235.09 1660.1,-244 1678.8,-244 1689.6,-244 1696.6,-241.02 1699.8,-236.64"/>
<polygon fill="black" stroke="black" points="1703.27,-237.17 1700.58,-226.92 1696.29,-236.61 1703.27,-237.17"/>
<text text-anchor="middle" x="1678.8" y="-247.94" font-family="Times,serif" font-size="14.00">content/λ:2454</text>
</g>
<!-- q16:72 -->
<g id="node13" class="node">
<title>q16:72</title>
<ellipse fill="none" stroke="black" stroke-width="2" cx="1942.7" cy="-262" rx="45.95" ry="18"/>
<text text-anchor="middle" x="1942.7" y="-257.32" font-family="Times,serif" font-size="14.00">q16:72</text>
</g>
<!-- q13:2640&#45;&gt;q16:72 -->
<g id="edge14" class="edge">
<title>q13:2640&#45;&gt;q16:72</title>
<path fill="none" stroke="black" d="M1722.8,-220.71C1733.4,-223.63 1744.8,-226.59 1755.4,-229 1799.5,-239.01 1850.1,-247.81 1887.4,-253.79"/>
<polygon fill="black" stroke="black" points="1886.58,-257.2 1897,-255.32 1887.68,-250.29 1886.58,-257.2"/>
<text text-anchor="middle" x="1813.9" y="-254.94" font-family="Times,serif" font-size="14.00">content/554:72</text>
</g>
<!-- q17:1 -->
<g id="node14" class="node">
<title>q17:1</title>
<ellipse fill="none" stroke="black" stroke-width="2" cx="1942.7" cy="-208" rx="39.63" ry="18"/>
<text text-anchor="middle" x="1942.7" y="-203.32" font-family="Times,serif" font-size="14.00">q17:1</text>
</g>
<!-- q13:2640&#45;&gt;q17:1 -->
<g id="edge15" class="edge">
<title>q13:2640&#45;&gt;q17:1</title>
<path fill="none" stroke="black" d="M1738.3,-208C1784,-208 1846.9,-208 1890.6,-208"/>
<polygon fill="black" stroke="black" points="1890.59,-211.5 1900.59,-208 1890.59,-204.5 1890.59,-211.5"/>
<text text-anchor="middle" x="1813.9" y="-211.94" font-family="Times,serif" font-size="14.00">content/550:1</text>
</g>
<!-- q18:113 -->
<g id="node15" class="node">
<title>q18:113</title>
<ellipse fill="none" stroke="black" stroke-width="2" cx="1942.7" cy="-154" rx="52.26" ry="18"/>
<text text-anchor="middle" x="1942.7" y="-149.32" font-family="Times,serif" font-size="14.00">q18:113</text>
</g>
<!-- q13:2640&#45;&gt;q18:113 -->
<g id="edge16" class="edge">
<title>q13:2640&#45;&gt;q18:113</title>
<path fill="none" stroke="black" d="M1722.4,-195.22C1733.1,-192.23 1744.6,-189.2 1755.4,-186.75 1797.6,-177.13 1845.8,-168.73 1882.5,-162.85"/>
<polygon fill="black" stroke="black" points="1882.77,-166.35 1892.1,-161.34 1881.68,-159.44 1882.77,-166.35"/>
<text text-anchor="middle" x="1813.9" y="-189.94" font-family="Times,serif" font-size="14.00">content/250:113</text>
</g>
<!-- q21:72 -->
<g id="node16" class="node">
<title>q21:72</title>
<ellipse fill="none" stroke="black" stroke-width="2" cx="2183.7" cy="-262" rx="45.95" ry="18"/>
<text text-anchor="middle" x="2183.7" y="-257.32" font-family="Times,serif" font-size="14.00">q21:72</text>
</g>
<!-- q16:72&#45;&gt;q21:72 -->
<g id="edge17" class="edge">
<title>q16:72&#45;&gt;q21:72</title>
<path fill="none" stroke="black" d="M1989.5,-262C2028.3,-262 2084,-262 2125.7,-262"/>
<polygon fill="black" stroke="black" points="2125.49,-265.5 2135.49,-262 2125.49,-258.5 2125.49,-265.5"/>
<text text-anchor="middle" x="2063.2" y="-265.94" font-family="Times,serif" font-size="14.00">RSET/250:72</text>
</g>
<!-- q22:1 -->
<g id="node17" class="node">
<title>q22:1</title>
<ellipse fill="none" stroke="black" stroke-width="2" cx="2183.7" cy="-208" rx="39.63" ry="18"/>
<text text-anchor="middle" x="2183.7" y="-203.32" font-family="Times,serif" font-size="14.00">q22:1</text>
</g>
<!-- q17:1&#45;&gt;q22:1 -->
<g id="edge18" class="edge">
<title>q17:1&#45;&gt;q22:1</title>
<path fill="none" stroke="black" d="M1983.1,-208C2023.8,-208 2087.3,-208 2131.7,-208"/>
<polygon fill="black" stroke="black" points="2131.69,-211.5 2141.69,-208 2131.69,-204.5 2131.69,-211.5"/>
<text text-anchor="middle" x="2063.2" y="-211.94" font-family="Times,serif" font-size="14.00">RSET/250:1</text>
</g>
<!-- q23:113 -->
<g id="node18" class="node">
<title>q23:113</title>
<ellipse fill="none" stroke="black" stroke-width="2" cx="2183.7" cy="-154" rx="52.26" ry="18"/>
<text text-anchor="middle" x="2183.7" y="-149.32" font-family="Times,serif" font-size="14.00">q23:113</text>
</g>
<!-- q18:113&#45;&gt;q23:113 -->
<g id="edge19" class="edge">
<title>q18:113&#45;&gt;q23:113</title>
<path fill="none" stroke="black" d="M1995.8,-154C2032.2,-154 2081,-154 2119.5,-154"/>
<polygon fill="black" stroke="black" points="2119.09,-157.5 2129.09,-154 2119.09,-150.5 2119.09,-157.5"/>
<text text-anchor="middle" x="2063.2" y="-157.94" font-family="Times,serif" font-size="14.00">QUIT/221:113</text>
</g>
<!-- q14:143&#45;&gt;q13:2640 -->
<g id="edge22" class="edge">
<title>q14:143&#45;&gt;q13:2640</title>
<path fill="none" stroke="black" d="M1482.8,-156.03C1491.8,-158.35 1501.2,-160.77 1510,-163 1550.9,-173.37 1561.5,-174.73 1602.3,-185.75 1609.5,-187.72 1617.2,-189.87 1624.7,-192.03"/>
<polygon fill="black" stroke="black" points="1623.57,-195.35 1634.15,-194.77 1625.52,-188.62 1623.57,-195.35"/>
<text text-anchor="middle" x="1556.1" y="-188.94" font-family="Times,serif" font-size="14.00">DATA/354:97</text>
</g>
<!-- q20:43 -->
<g id="node20" class="node">
<title>q20:43</title>
<ellipse fill="none" stroke="black" stroke-width="2" cx="1678.8" cy="-145" rx="45.95" ry="18"/>
<text text-anchor="middle" x="1678.8" y="-140.32" font-family="Times,serif" font-size="14.00">q20:43</text>
</g>
<!-- q14:143&#45;&gt;q20:43 -->
<g id="edge23" class="edge">
<title>q14:143&#45;&gt;q20:43</title>
<path fill="none" stroke="black" d="M1492.8,-145C1530.5,-145 1581.6,-145 1620.5,-145"/>
<polygon fill="black" stroke="black" points="1620.39,-148.5 1630.39,-145 1620.39,-141.5 1620.39,-148.5"/>
<text text-anchor="middle" x="1556.1" y="-148.94" font-family="Times,serif" font-size="14.00">DATA/550:43</text>
</g>
<!-- q19:3 -->
<g id="node21" class="node">
<title>q19:3</title>
<ellipse fill="none" stroke="black" stroke-width="2" cx="1678.8" cy="-82" rx="39.63" ry="18"/>
<text text-anchor="middle" x="1678.8" y="-77.33" font-family="Times,serif" font-size="14.00">q19:3</text>
</g>
<!-- q14:143&#45;&gt;q19:3 -->
<g id="edge24" class="edge">
<title>q14:143&#45;&gt;q19:3</title>
<path fill="none" stroke="black" d="M1479.8,-132.61C1489.7,-129.6 1500.2,-126.47 1510,-123.75 1550.8,-112.42 1597.6,-100.9 1631.4,-92.84"/>
<polygon fill="black" stroke="black" points="1631.91,-96.32 1640.83,-90.6 1630.29,-89.51 1631.91,-96.32"/>
<text text-anchor="middle" x="1556.1" y="-127.95" font-family="Times,serif" font-size="14.00">RCPT/250:3</text>
</g>
<!-- q19:3&#45;&gt;q10:232 -->
<g id="edge25" class="edge">
<title>q19:3&#45;&gt;q10:232</title>
<path fill="none" stroke="black" d="M1638.7,-82.68C1582.7,-84.06 1476.8,-88.25 1387.5,-100.75 1340.6,-107.31 1288.1,-119.05 1250.2,-128.34"/>
<polygon fill="black" stroke="black" points="1249.74,-124.85 1240.87,-130.65 1251.42,-131.64 1249.74,-124.85"/>
<text text-anchor="middle" x="1439.8" y="-104.95" font-family="Times,serif" font-size="14.00">RCPT/250:3</text>
</g>
<!-- q15:4 -->
<g id="node23" class="node">
<title>q15:4</title>
<ellipse fill="none" stroke="black" stroke-width="2" cx="1439.8" cy="-18" rx="39.63" ry="18"/>
<text text-anchor="middle" x="1439.8" y="-13.32" font-family="Times,serif" font-size="14.00">q15:4</text>
</g>
<!-- q12:12&#45;&gt;q15:4 -->
<g id="edge27" class="edge">
<title>q12:12&#45;&gt;q15:4</title>
<path fill="none" stroke="black" d="M1243.1,-18.81C1284.4,-18.64 1345.2,-18.39 1388,-18.21"/>
<polygon fill="black" stroke="black" points="1387.8,-21.71 1397.79,-18.17 1387.77,-14.71 1387.8,-21.71"/>
<text text-anchor="middle" x="1318.1" y="-22.95" font-family="Times,serif" font-size="14.00">λ/451:4</text>
</g>
<!-- q0:244 -->
<g id="node24" class="node">
<title>q0:244</title>
<ellipse fill="none" stroke="black" stroke-width="2" cx="53.95" cy="-124" rx="49.95" ry="49.95"/>
<ellipse fill="none" stroke="black" stroke-width="2" cx="53.95" cy="-124" rx="53.95" ry="53.95"/>
<text text-anchor="middle" x="53.95" y="-119.33" font-family="Times,serif" font-size="14.00">q0:244</text>
</g>
<!-- q0:244&#45;&gt;q1:244 -->
<g id="edge28" class="edge">
<title>q0:244&#45;&gt;q1:244</title>
<path fill="none" stroke="black" d="M104.85,-124C133.64,-124 169.94,-124 199.84,-124"/>
<polygon fill="black" stroke="black" points="199.45,-127.5 209.45,-124 199.45,-120.5 199.45,-127.5"/>
<text text-anchor="middle" x="157.89" y="-127.95" font-family="Times,serif" font-size="14.00">λ/220:244</text>
</g>
</g>
</svg>
