<?xml version="1.0" encoding="UTF-8" standalone="no"?>
<!DOCTYPE svg PUBLIC "-//W3C//DTD SVG 1.1//EN"
 "http://www.w3.org/Graphics/SVG/1.1/DTD/svg11.dtd">
<!-- Generated by graphviz version 12.0.0 (20240803.0821)
 -->
<!-- Pages: 1 -->
<svg width="2216pt" height="402pt"
 viewBox="0.00 0.00 2216.45 402.00" xmlns="http://www.w3.org/2000/svg" xmlns:xlink="http://www.w3.org/1999/xlink">
<g id="graph0" class="graph" transform="scale(1 1) rotate(0) translate(4 398)">
<polygon fill="white" stroke="none" points="-4,4 -4,-398 2212.45,-398 2212.45,4 -4,4"/>
<!-- q18:89 -->
<g id="node1" class="node">
<title>q18:89</title>
<ellipse fill="none" stroke="black" stroke-width="2" cx="1439.8" cy="-102" rx="45.95" ry="18"/>
<text text-anchor="middle" x="1439.8" y="-97.33" font-family="Times,serif" font-size="14.00">q18:89</text>
</g>
<!-- q22:65 -->
<g id="node2" class="node">
<title>q22:65</title>
<ellipse fill="none" stroke="black" stroke-width="2" cx="1694.6" cy="-18" rx="45.95" ry="18"/>
<text text-anchor="middle" x="1694.6" y="-13.32" font-family="Times,serif" font-size="14.00">q22:65</text>
</g>
<!-- q18:89&#45;&gt;q22:65 -->
<g id="edge1" class="edge">
<title>q18:89&#45;&gt;q22:65</title>
<path fill="none" stroke="black" d="M1460.7,-85.19C1473.9,-74.9 1492,-62.31 1510,-54.75 1550.9,-37.56 1600.3,-28.26 1637.6,-23.32"/>
<polygon fill="black" stroke="black" points="1637.71,-26.83 1647.2,-22.11 1636.84,-19.88 1637.71,-26.83"/>
<text text-anchor="middle" x="1564" y="-57.95" font-family="Times,serif" font-size="14.00">content/554:65</text>
</g>
<!-- q16:2608 -->
<g id="node3" class="node">
<title>q16:2608</title>
<ellipse fill="none" stroke="black" stroke-width="2" cx="1694.6" cy="-126" rx="58.57" ry="18"/>
<text text-anchor="middle" x="1694.6" y="-121.33" font-family="Times,serif" font-size="14.00">q16:2608</text>
</g>
<!-- q18:89&#45;&gt;q16:2608 -->
<g id="edge2" class="edge">
<title>q18:89&#45;&gt;q16:2608</title>
<path fill="none" stroke="black" d="M1485.4,-106.24C1524.4,-109.94 1581.6,-115.37 1626.1,-119.6"/>
<polygon fill="black" stroke="black" points="1625.71,-123.08 1635.99,-120.53 1626.36,-116.11 1625.71,-123.08"/>
<text text-anchor="middle" x="1564" y="-121.95" font-family="Times,serif" font-size="14.00">content/λ:3</text>
</g>
<!-- q23:21 -->
<g id="node4" class="node">
<title>q23:21</title>
<ellipse fill="none" stroke="black" stroke-width="2" cx="1694.6" cy="-72" rx="45.95" ry="18"/>
<text text-anchor="middle" x="1694.6" y="-67.33" font-family="Times,serif" font-size="14.00">q23:21</text>
</g>
<!-- q18:89&#45;&gt;q23:21 -->
<g id="edge3" class="edge">
<title>q18:89&#45;&gt;q23:21</title>
<path fill="none" stroke="black" d="M1480.9,-92.91C1490.4,-90.99 1500.5,-89.13 1510,-87.75 1552.3,-81.61 1600.4,-77.59 1636.8,-75.15"/>
<polygon fill="black" stroke="black" points="1636.84,-78.65 1646.59,-74.51 1636.38,-71.67 1636.84,-78.65"/>
<text text-anchor="middle" x="1564" y="-90.95" font-family="Times,serif" font-size="14.00">content/250:21</text>
</g>
<!-- q27:65 -->
<g id="node5" class="node">
<title>q27:65</title>
<ellipse fill="none" stroke="black" stroke-width="2" cx="1943.1" cy="-18" rx="45.95" ry="18"/>
<text text-anchor="middle" x="1943.1" y="-13.32" font-family="Times,serif" font-size="14.00">q27:65</text>
</g>
<!-- q22:65&#45;&gt;q27:65 -->
<g id="edge4" class="edge">
<title>q22:65&#45;&gt;q27:65</title>
<path fill="none" stroke="black" d="M1741.4,-18C1782,-18 1841.6,-18 1885.3,-18"/>
<polygon fill="black" stroke="black" points="1885.09,-21.5 1895.09,-18 1885.09,-14.5 1885.09,-21.5"/>
<text text-anchor="middle" x="1825.2" y="-21.95" font-family="Times,serif" font-size="14.00">RSET/250:65</text>
</g>
<!-- q16:2608&#45;&gt;q16:2608 -->
<g id="edge5" class="edge">
<title>q16:2608&#45;&gt;q16:2608</title>
<path fill="none" stroke="black" d="M1671.3,-143.41C1666.9,-153.09 1674.7,-162 1694.6,-162 1706.1,-162 1713.5,-159.02 1716.9,-154.64"/>
<polygon fill="black" stroke="black" points="1720.36,-155.19 1717.77,-144.92 1713.39,-154.57 1720.36,-155.19"/>
<text text-anchor="middle" x="1694.6" y="-165.94" font-family="Times,serif" font-size="14.00">content/λ:2506</text>
</g>
<!-- q21:92 -->
<g id="node6" class="node">
<title>q21:92</title>
<ellipse fill="none" stroke="black" stroke-width="2" cx="1943.1" cy="-126" rx="45.95" ry="18"/>
<text text-anchor="middle" x="1943.1" y="-121.33" font-family="Times,serif" font-size="14.00">q21:92</text>
</g>
<!-- q16:2608&#45;&gt;q21:92 -->
<g id="edge6" class="edge">
<title>q16:2608&#45;&gt;q21:92</title>
<path fill="none" stroke="black" d="M1754,-126C1793.6,-126 1845.6,-126 1884.9,-126"/>
<polygon fill="black" stroke="black" points="1884.89,-129.5 1894.89,-126 1884.89,-122.5 1884.89,-129.5"/>
<text text-anchor="middle" x="1825.2" y="-129.94" font-family="Times,serif" font-size="14.00">content/250:92</text>
</g>
<!-- q20:1 -->
<g id="node7" class="node">
<title>q20:1</title>
<ellipse fill="none" stroke="black" stroke-width="2" cx="1943.1" cy="-234" rx="39.63" ry="18"/>
<text text-anchor="middle" x="1943.1" y="-229.32" font-family="Times,serif" font-size="14.00">q20:1</text>
</g>
<!-- q16:2608&#45;&gt;q20:1 -->
<g id="edge7" class="edge">
<title>q16:2608&#45;&gt;q20:1</title>
<path fill="none" stroke="black" d="M1712.6,-143.99C1726.9,-158.17 1748.7,-177.41 1771.2,-189 1809.7,-208.86 1857.7,-220.51 1893.1,-226.95"/>
<polygon fill="black" stroke="black" points="1892.16,-230.34 1902.61,-228.61 1893.36,-223.44 1892.16,-230.34"/>
<text text-anchor="middle" x="1825.2" y="-227.94" font-family="Times,serif" font-size="14.00">content/550:1</text>
</g>
<!-- q19:9 -->
<g id="node8" class="node">
<title>q19:9</title>
<ellipse fill="none" stroke="black" stroke-width="2" cx="1943.1" cy="-180" rx="39.63" ry="18"/>
<text text-anchor="middle" x="1943.1" y="-175.32" font-family="Times,serif" font-size="14.00">q19:9</text>
</g>
<!-- q16:2608&#45;&gt;q19:9 -->
<g id="edge8" class="edge">
<title>q16:2608&#45;&gt;q19:9</title>
<path fill="none" stroke="black" d="M1738.6,-138.59C1749.2,-141.52 1760.6,-144.51 1771.2,-147 1812.3,-156.66 1859.4,-165.61 1893.8,-171.74"/>
<polygon fill="black" stroke="black" points="1892.95,-175.14 1903.41,-173.45 1894.17,-168.25 1892.95,-175.14"/>
<text text-anchor="middle" x="1825.2" y="-171.94" font-family="Times,serif" font-size="14.00">content/554:9</text>
</g>
<!-- q28:21 -->
<g id="node9" class="node">
<title>q28:21</title>
<ellipse fill="none" stroke="black" stroke-width="2" cx="1943.1" cy="-72" rx="45.95" ry="18"/>
<text text-anchor="middle" x="1943.1" y="-67.33" font-family="Times,serif" font-size="14.00">q28:21</text>
</g>
<!-- q23:21&#45;&gt;q28:21 -->
<g id="edge9" class="edge">
<title>q23:21&#45;&gt;q28:21</title>
<path fill="none" stroke="black" d="M1741.4,-72C1782,-72 1841.6,-72 1885.3,-72"/>
<polygon fill="black" stroke="black" points="1885.09,-75.5 1895.09,-72 1885.09,-68.5 1885.09,-75.5"/>
<text text-anchor="middle" x="1825.2" y="-75.95" font-family="Times,serif" font-size="14.00">QUIT/221:21</text>
</g>
<!-- q26:92 -->
<g id="node10" class="node">
<title>q26:92</title>
<ellipse fill="none" stroke="black" stroke-width="2" cx="2162.5" cy="-126" rx="45.95" ry="18"/>
<text text-anchor="middle" x="2162.5" y="-121.33" font-family="Times,serif" font-size="14.00">q26:92</text>
</g>
<!-- q21:92&#45;&gt;q26:92 -->
<g id="edge10" class="edge">
<title>q21:92&#45;&gt;q26:92</title>
<path fill="none" stroke="black" d="M1989.9,-126C2023.3,-126 2068.8,-126 2104.5,-126"/>
<polygon fill="black" stroke="black" points="2104.19,-129.5 2114.19,-126 2104.19,-122.5 2104.19,-129.5"/>
<text text-anchor="middle" x="2052.8" y="-129.94" font-family="Times,serif" font-size="14.00">QUIT/221:92</text>
</g>
<!-- q25:1 -->
<g id="node11" class="node">
<title>q25:1</title>
<ellipse fill="none" stroke="black" stroke-width="2" cx="2162.5" cy="-234" rx="39.63" ry="18"/>
<text text-anchor="middle" x="2162.5" y="-229.32" font-family="Times,serif" font-size="14.00">q25:1</text>
</g>
<!-- q20:1&#45;&gt;q25:1 -->
<g id="edge11" class="edge">
<title>q20:1&#45;&gt;q25:1</title>
<path fill="none" stroke="black" d="M1983.7,-234C2019.5,-234 2072.3,-234 2111.1,-234"/>
<polygon fill="black" stroke="black" points="2110.69,-237.5 2120.69,-234 2110.69,-230.5 2110.69,-237.5"/>
<text text-anchor="middle" x="2052.8" y="-237.94" font-family="Times,serif" font-size="14.00">RSET/250:1</text>
</g>
<!-- q24:9 -->
<g id="node12" class="node">
<title>q24:9</title>
<ellipse fill="none" stroke="black" stroke-width="2" cx="2162.5" cy="-180" rx="39.63" ry="18"/>
<text text-anchor="middle" x="2162.5" y="-175.32" font-family="Times,serif" font-size="14.00">q24:9</text>
</g>
<!-- q19:9&#45;&gt;q24:9 -->
<g id="edge12" class="edge">
<title>q19:9&#45;&gt;q24:9</title>
<path fill="none" stroke="black" d="M1983.7,-180C2019.5,-180 2072.3,-180 2111.1,-180"/>
<polygon fill="black" stroke="black" points="2110.69,-183.5 2120.69,-180 2110.69,-176.5 2110.69,-183.5"/>
<text text-anchor="middle" x="2052.8" y="-183.94" font-family="Times,serif" font-size="14.00">RSET/250:9</text>
</g>
<!-- q12:146 -->
<g id="node13" class="node">
<title>q12:146</title>
<ellipse fill="none" stroke="black" stroke-width="2" cx="1439.8" cy="-243" rx="52.26" ry="18"/>
<text text-anchor="middle" x="1439.8" y="-238.32" font-family="Times,serif" font-size="14.00">q12:146</text>
</g>
<!-- q12:146&#45;&gt;q16:2608 -->
<g id="edge13" class="edge">
<title>q12:146&#45;&gt;q16:2608</title>
<path fill="none" stroke="black" d="M1457.1,-225.18C1470.3,-211.83 1489.8,-193.99 1510,-182.75 1548.2,-161.51 1595.3,-147.15 1632.3,-138.19"/>
<polygon fill="black" stroke="black" points="1632.99,-141.62 1641.93,-135.93 1631.39,-134.81 1632.99,-141.62"/>
<text text-anchor="middle" x="1564" y="-185.94" font-family="Times,serif" font-size="14.00">DATA/354:99</text>
</g>
<!-- q8:5 -->
<g id="node14" class="node">
<title>q8:5</title>
<ellipse fill="none" stroke="black" stroke-width="2" cx="1694.6" cy="-291" rx="33.32" ry="18"/>
<text text-anchor="middle" x="1694.6" y="-286.32" font-family="Times,serif" font-size="14.00">q8:5</text>
</g>
<!-- q12:146&#45;&gt;q8:5 -->
<g id="edge14" class="edge">
<title>q12:146&#45;&gt;q8:5</title>
<path fill="none" stroke="black" d="M1474.1,-257.35C1485.3,-261.69 1498,-266.08 1510,-269 1556.9,-280.44 1612.1,-286.03 1649.6,-288.7"/>
<polygon fill="black" stroke="black" points="1648.98,-292.17 1659.19,-289.34 1649.44,-285.18 1648.98,-292.17"/>
<text text-anchor="middle" x="1564" y="-288.94" font-family="Times,serif" font-size="14.00">RCPT/250:4</text>
</g>
<!-- q17:43 -->
<g id="node15" class="node">
<title>q17:43</title>
<ellipse fill="none" stroke="black" stroke-width="2" cx="1694.6" cy="-215" rx="45.95" ry="18"/>
<text text-anchor="middle" x="1694.6" y="-210.32" font-family="Times,serif" font-size="14.00">q17:43</text>
</g>
<!-- q12:146&#45;&gt;q17:43 -->
<g id="edge15" class="edge">
<title>q12:146&#45;&gt;q17:43</title>
<path fill="none" stroke="black" d="M1468.8,-227.08C1481,-221 1495.8,-214.8 1510,-211.75 1552.8,-202.54 1602.5,-204.15 1639.4,-207.61"/>
<polygon fill="black" stroke="black" points="1638.59,-211.05 1648.89,-208.59 1639.3,-204.08 1638.59,-211.05"/>
<text text-anchor="middle" x="1564" y="-214.94" font-family="Times,serif" font-size="14.00">DATA/550:43</text>
</g>
<!-- q8:5&#45;&gt;q12:146 -->
<g id="edge16" class="edge">
<title>q8:5&#45;&gt;q12:146</title>
<path fill="none" stroke="black" d="M1674,-276.14C1659.4,-266.04 1638.5,-253.5 1618,-247.75 1580.6,-237.26 1537,-235.96 1502.4,-237.34"/>
<polygon fill="black" stroke="black" points="1502.33,-233.84 1492.51,-237.83 1502.67,-240.83 1502.33,-233.84"/>
<text text-anchor="middle" x="1564" y="-250.94" font-family="Times,serif" font-size="14.00">RCPT/250:5</text>
</g>
<!-- q13:230 -->
<g id="node16" class="node">
<title>q13:230</title>
<ellipse fill="none" stroke="black" stroke-width="2" cx="1196.5" cy="-243" rx="52.26" ry="18"/>
<text text-anchor="middle" x="1196.5" y="-238.32" font-family="Times,serif" font-size="14.00">q13:230</text>
</g>
<!-- q13:230&#45;&gt;q18:89 -->
<g id="edge17" class="edge">
<title>q13:230&#45;&gt;q18:89</title>
<path fill="none" stroke="black" d="M1227.4,-227.57C1234.5,-223.86 1241.9,-219.85 1248.7,-216 1303.8,-185 1366.5,-146.83 1404.3,-123.46"/>
<polygon fill="black" stroke="black" points="1405.86,-126.61 1412.51,-118.37 1402.17,-120.66 1405.86,-126.61"/>
<text text-anchor="middle" x="1318.1" y="-207.94" font-family="Times,serif" font-size="14.00">DATA/354:89</text>
</g>
<!-- q13:230&#45;&gt;q12:146 -->
<g id="edge18" class="edge">
<title>q13:230&#45;&gt;q12:146</title>
<path fill="none" stroke="black" d="M1249.5,-243C1286.5,-243 1336.3,-243 1375.5,-243"/>
<polygon fill="black" stroke="black" points="1375.29,-246.5 1385.29,-243 1375.29,-239.5 1375.29,-246.5"/>
<text text-anchor="middle" x="1318.1" y="-246.94" font-family="Times,serif" font-size="14.00">RCPT/250:141</text>
</g>
<!-- q10:2 -->
<g id="node17" class="node">
<title>q10:2</title>
<ellipse fill="none" stroke="black" stroke-width="2" cx="954.27" cy="-189" rx="39.63" ry="18"/>
<text text-anchor="middle" x="954.27" y="-184.32" font-family="Times,serif" font-size="14.00">q10:2</text>
</g>
<!-- q14:2 -->
<g id="node18" class="node">
<title>q14:2</title>
<ellipse fill="none" stroke="black" stroke-width="2" cx="1196.5" cy="-189" rx="39.63" ry="18"/>
<text text-anchor="middle" x="1196.5" y="-184.32" font-family="Times,serif" font-size="14.00">q14:2</text>
</g>
<!-- q10:2&#45;&gt;q14:2 -->
<g id="edge19" class="edge">
<title>q10:2&#45;&gt;q14:2</title>
<path fill="none" stroke="black" d="M994.67,-189C1035.6,-189 1099.8,-189 1144.6,-189"/>
<polygon fill="black" stroke="black" points="1144.59,-192.5 1154.59,-189 1144.59,-185.5 1144.59,-192.5"/>
<text text-anchor="middle" x="1072.2" y="-192.94" font-family="Times,serif" font-size="14.00">RSET/250:2</text>
</g>
<!-- q5:1 -->
<g id="node19" class="node">
<title>q5:1</title>
<ellipse fill="none" stroke="black" stroke-width="2" cx="839.7" cy="-323" rx="33.32" ry="18"/>
<text text-anchor="middle" x="839.7" y="-318.32" font-family="Times,serif" font-size="14.00">q5:1</text>
</g>
<!-- q5:1&#45;&gt;q8:5 -->
<g id="edge20" class="edge">
<title>q5:1&#45;&gt;q8:5</title>
<path fill="none" stroke="black" d="M873.91,-323C918.71,-323 1000.98,-323 1071.2,-323 1071.2,-323 1071.2,-323 1440.8,-323 1519.9,-323 1539.7,-317.5 1618,-306 1629,-304.38 1640.8,-302.24 1651.8,-300.07"/>
<polygon fill="black" stroke="black" points="1652.22,-303.56 1661.32,-298.13 1650.82,-296.7 1652.22,-303.56"/>
<text text-anchor="middle" x="1196.5" y="-326.94" font-family="Times,serif" font-size="14.00">MAIL/250:1</text>
</g>
<!-- q2:241 -->
<g id="node20" class="node">
<title>q2:241</title>
<ellipse fill="none" stroke="black" stroke-width="2" cx="491.48" cy="-316" rx="45.95" ry="18"/>
<text text-anchor="middle" x="491.48" y="-311.32" font-family="Times,serif" font-size="14.00">q2:241</text>
</g>
<!-- q2:241&#45;&gt;q5:1 -->
<g id="edge21" class="edge">
<title>q2:241&#45;&gt;q5:1</title>
<path fill="none" stroke="black" d="M538.1,-316.92C604.79,-318.27 728.13,-320.76 794.18,-322.1"/>
<polygon fill="black" stroke="black" points="793.86,-325.59 803.93,-322.3 794,-318.6 793.86,-325.59"/>
<text text-anchor="middle" x="608.31" y="-322.94" font-family="Times,serif" font-size="14.00">AUTH/λ:1</text>
</g>
<!-- q6:232 -->
<g id="node21" class="node">
<title>q6:232</title>
<ellipse fill="none" stroke="black" stroke-width="2" cx="725.13" cy="-243" rx="45.95" ry="18"/>
<text text-anchor="middle" x="725.13" y="-238.32" font-family="Times,serif" font-size="14.00">q6:232</text>
</g>
<!-- q2:241&#45;&gt;q6:232 -->
<g id="edge22" class="edge">
<title>q2:241&#45;&gt;q6:232</title>
<path fill="none" stroke="black" d="M518.75,-300.59C529.79,-294.64 542.94,-288.21 555.43,-283.75 600.71,-267.6 614.54,-272.67 661.18,-261 666.09,-259.77 671.19,-258.43 676.28,-257.04"/>
<polygon fill="black" stroke="black" points="677.13,-260.44 685.83,-254.39 675.26,-253.69 677.13,-260.44"/>
<text text-anchor="middle" x="608.31" y="-286.94" font-family="Times,serif" font-size="14.00">AUTH/235:230</text>
</g>
<!-- q4:10 -->
<g id="node22" class="node">
<title>q4:10</title>
<ellipse fill="none" stroke="black" stroke-width="2" cx="725.13" cy="-371" rx="39.63" ry="18"/>
<text text-anchor="middle" x="725.13" y="-366.32" font-family="Times,serif" font-size="14.00">q4:10</text>
</g>
<!-- q2:241&#45;&gt;q4:10 -->
<g id="edge23" class="edge">
<title>q2:241&#45;&gt;q4:10</title>
<path fill="none" stroke="black" d="M521.03,-330.58C531.61,-335.48 543.85,-340.56 555.43,-344 594.52,-355.6 640.27,-362.53 674.26,-366.46"/>
<polygon fill="black" stroke="black" points="673.47,-369.89 683.8,-367.51 674.24,-362.94 673.47,-369.89"/>
<text text-anchor="middle" x="608.31" y="-367.94" font-family="Times,serif" font-size="14.00">AUTH/535:10</text>
</g>
<!-- q6:232&#45;&gt;q10:2 -->
<g id="edge24" class="edge">
<title>q6:232&#45;&gt;q10:2</title>
<path fill="none" stroke="black" d="M760.19,-230.61C769.48,-227.48 779.6,-224.28 789.08,-221.75 827.51,-211.48 871.78,-202.83 904.66,-197"/>
<polygon fill="black" stroke="black" points="905.05,-200.49 914.3,-195.32 903.85,-193.59 905.05,-200.49"/>
<text text-anchor="middle" x="839.7" y="-224.94" font-family="Times,serif" font-size="14.00">MAIL/553:2</text>
</g>
<!-- q9:230 -->
<g id="node23" class="node">
<title>q9:230</title>
<ellipse fill="none" stroke="black" stroke-width="2" cx="954.27" cy="-243" rx="45.95" ry="18"/>
<text text-anchor="middle" x="954.27" y="-238.32" font-family="Times,serif" font-size="14.00">q9:230</text>
</g>
<!-- q6:232&#45;&gt;q9:230 -->
<g id="edge25" class="edge">
<title>q6:232&#45;&gt;q9:230</title>
<path fill="none" stroke="black" d="M771.82,-243C807.78,-243 858.09,-243 896.61,-243"/>
<polygon fill="black" stroke="black" points="896.14,-246.5 906.14,-243 896.14,-239.5 896.14,-246.5"/>
<text text-anchor="middle" x="839.7" y="-246.94" font-family="Times,serif" font-size="14.00">MAIL/250:230</text>
</g>
<!-- q7:10 -->
<g id="node24" class="node">
<title>q7:10</title>
<ellipse fill="none" stroke="black" stroke-width="2" cx="954.27" cy="-375" rx="39.63" ry="18"/>
<text text-anchor="middle" x="954.27" y="-370.32" font-family="Times,serif" font-size="14.00">q7:10</text>
</g>
<!-- q4:10&#45;&gt;q7:10 -->
<g id="edge26" class="edge">
<title>q4:10&#45;&gt;q7:10</title>
<path fill="none" stroke="black" d="M765.69,-371.7C803.6,-372.36 861,-373.38 902.32,-374.1"/>
<polygon fill="black" stroke="black" points="902.21,-377.6 912.27,-374.27 902.33,-370.6 902.21,-377.6"/>
<text text-anchor="middle" x="839.7" y="-376.94" font-family="Times,serif" font-size="14.00">AUTH/334:10</text>
</g>
<!-- q9:230&#45;&gt;q13:230 -->
<g id="edge27" class="edge">
<title>q9:230&#45;&gt;q13:230</title>
<path fill="none" stroke="black" d="M1001.02,-243C1038.1,-243 1090.8,-243 1131.9,-243"/>
<polygon fill="black" stroke="black" points="1131.69,-246.5 1141.69,-243 1131.69,-239.5 1131.69,-246.5"/>
<text text-anchor="middle" x="1072.2" y="-246.94" font-family="Times,serif" font-size="14.00">RCPT/250:230</text>
</g>
<!-- q11:10 -->
<g id="node25" class="node">
<title>q11:10</title>
<ellipse fill="none" stroke="black" stroke-width="2" cx="1196.5" cy="-376" rx="45.95" ry="18"/>
<text text-anchor="middle" x="1196.5" y="-371.32" font-family="Times,serif" font-size="14.00">q11:10</text>
</g>
<!-- q7:10&#45;&gt;q11:10 -->
<g id="edge28" class="edge">
<title>q7:10&#45;&gt;q11:10</title>
<path fill="none" stroke="black" d="M994.67,-375.16C1033.8,-375.33 1094.1,-375.58 1138.4,-375.76"/>
<polygon fill="black" stroke="black" points="1138.37,-379.26 1148.39,-375.8 1138.4,-372.26 1138.37,-379.26"/>
<text text-anchor="middle" x="1072.2" y="-378.94" font-family="Times,serif" font-size="14.00">content/535:10</text>
</g>
<!-- q15:4 -->
<g id="node28" class="node">
<title>q15:4</title>
<ellipse fill="none" stroke="black" stroke-width="2" cx="1439.8" cy="-376" rx="39.63" ry="18"/>
<text text-anchor="middle" x="1439.8" y="-371.32" font-family="Times,serif" font-size="14.00">q15:4</text>
</g>
<!-- q11:10&#45;&gt;q15:4 -->
<g id="edge32" class="edge">
<title>q11:10&#45;&gt;q15:4</title>
<path fill="none" stroke="black" d="M1243.1,-376C1284.4,-376 1345.2,-376 1388,-376"/>
<polygon fill="black" stroke="black" points="1387.79,-379.5 1397.79,-376 1387.79,-372.5 1387.79,-379.5"/>
<text text-anchor="middle" x="1318.1" y="-379.94" font-family="Times,serif" font-size="14.00">λ/451:4</text>
</g>
<!-- q3:2 -->
<g id="node26" class="node">
<title>q3:2</title>
<ellipse fill="none" stroke="black" stroke-width="2" cx="491.48" cy="-256" rx="33.32" ry="18"/>
<text text-anchor="middle" x="491.48" y="-251.32" font-family="Times,serif" font-size="14.00">q3:2</text>
</g>
<!-- q3:2&#45;&gt;q6:232 -->
<g id="edge29" class="edge">
<title>q3:2&#45;&gt;q6:232</title>
<path fill="none" stroke="black" d="M523.05,-248.86C533.28,-246.78 544.8,-244.8 555.43,-243.75 592.58,-240.09 634.56,-239.88 667.35,-240.61"/>
<polygon fill="black" stroke="black" points="666.94,-244.1 677.03,-240.86 667.12,-237.1 666.94,-244.1"/>
<text text-anchor="middle" x="608.31" y="-246.94" font-family="Times,serif" font-size="14.00">AUTH/235:2</text>
</g>
<!-- q1:243 -->
<g id="node27" class="node">
<title>q1:243</title>
<ellipse fill="none" stroke="black" stroke-width="2" cx="257.84" cy="-283" rx="45.95" ry="18"/>
<text text-anchor="middle" x="257.84" y="-278.32" font-family="Times,serif" font-size="14.00">q1:243</text>
</g>
<!-- q1:243&#45;&gt;q2:241 -->
<g id="edge30" class="edge">
<title>q1:243&#45;&gt;q2:241</title>
<path fill="none" stroke="black" d="M302.14,-289.17C340,-294.56 395.17,-302.42 436.02,-308.24"/>
<polygon fill="black" stroke="black" points="435.51,-311.7 445.9,-309.65 436.49,-304.77 435.51,-311.7"/>
<text text-anchor="middle" x="374.66" y="-309.94" font-family="Times,serif" font-size="14.00">EHLO/250:241</text>
</g>
<!-- q1:243&#45;&gt;q3:2 -->
<g id="edge31" class="edge">
<title>q1:243&#45;&gt;q3:2</title>
<path fill="none" stroke="black" d="M296.21,-272.12C304.56,-270.03 313.43,-268.08 321.79,-266.75 363.53,-260.09 411.69,-257.52 445.85,-256.55"/>
<polygon fill="black" stroke="black" points="445.88,-260.05 455.8,-256.31 445.71,-253.05 445.88,-260.05"/>
<text text-anchor="middle" x="374.66" y="-269.94" font-family="Times,serif" font-size="14.00">EHLO/λ:2</text>
</g>
<!-- q0:243 -->
<g id="node29" class="node">
<title>q0:243</title>
<ellipse fill="none" stroke="black" stroke-width="2" cx="53.95" cy="-283" rx="49.95" ry="49.95"/>
<ellipse fill="none" stroke="black" stroke-width="2" cx="53.95" cy="-283" rx="53.95" ry="53.95"/>
<text text-anchor="middle" x="53.95" y="-278.32" font-family="Times,serif" font-size="14.00">q0:243</text>
</g>
<!-- q0:243&#45;&gt;q1:243 -->
<g id="edge33" class="edge">
<title>q0:243&#45;&gt;q1:243</title>
<path fill="none" stroke="black" d="M104.85,-283C133.64,-283 169.94,-283 199.84,-283"/>
<polygon fill="black" stroke="black" points="199.45,-286.5 209.45,-283 199.45,-279.5 199.45,-286.5"/>
<text text-anchor="middle" x="157.89" y="-286.94" font-family="Times,serif" font-size="14.00">λ/220:243</text>
</g>
</g>
</svg>
