<?xml version="1.0" encoding="UTF-8" standalone="no"?>
<!DOCTYPE svg PUBLIC "-//W3C//DTD SVG 1.1//EN"
 "http://www.w3.org/Graphics/SVG/1.1/DTD/svg11.dtd">
<!-- Generated by graphviz version 12.0.0 (20240803.0821)
 -->
<!-- Pages: 1 -->
<svg width="1505pt" height="425pt"
 viewBox="0.00 0.00 1504.93 425.00" xmlns="http://www.w3.org/2000/svg" xmlns:xlink="http://www.w3.org/1999/xlink">
<g id="graph0" class="graph" transform="scale(1 1) rotate(0) translate(4 421)">
<polygon fill="white" stroke="none" points="-4,4 -4,-421 1500.93,-421 1500.93,4 -4,4"/>
<!-- q17:74 -->
<g id="node1" class="node">
<title>q17:74</title>
<ellipse fill="none" stroke="black" stroke-width="2" cx="1026.8" cy="-399" rx="45.95" ry="18"/>
<text text-anchor="middle" x="1026.8" y="-394.32" font-family="Times,serif" font-size="14.00">q17:74</text>
</g>
<!-- q22:74 -->
<g id="node2" class="node">
<title>q22:74</title>
<ellipse fill="none" stroke="black" stroke-width="2" cx="1275.4" cy="-399" rx="45.95" ry="18"/>
<text text-anchor="middle" x="1275.4" y="-394.32" font-family="Times,serif" font-size="14.00">q22:74</text>
</g>
<!-- q17:74&#45;&gt;q22:74 -->
<g id="edge1" class="edge">
<title>q17:74&#45;&gt;q22:74</title>
<path fill="none" stroke="black" d="M1073.6,-399C1114.3,-399 1173.8,-399 1217.5,-399"/>
<polygon fill="black" stroke="black" points="1217.29,-402.5 1227.29,-399 1217.29,-395.5 1217.29,-402.5"/>
<text text-anchor="middle" x="1151.1" y="-402.94" font-family="Times,serif" font-size="14.00">RSET/250:74</text>
</g>
<!-- q9:13 -->
<g id="node3" class="node">
<title>q9:13</title>
<ellipse fill="none" stroke="black" stroke-width="2" cx="1026.8" cy="-18" rx="39.63" ry="18"/>
<text text-anchor="middle" x="1026.8" y="-13.32" font-family="Times,serif" font-size="14.00">q9:13</text>
</g>
<!-- q12:13 -->
<g id="node4" class="node">
<title>q12:13</title>
<ellipse fill="none" stroke="black" stroke-width="2" cx="1275.4" cy="-18" rx="45.95" ry="18"/>
<text text-anchor="middle" x="1275.4" y="-13.32" font-family="Times,serif" font-size="14.00">q12:13</text>
</g>
<!-- q9:13&#45;&gt;q12:13 -->
<g id="edge2" class="edge">
<title>q9:13&#45;&gt;q12:13</title>
<path fill="none" stroke="black" d="M1067.5,-18C1108,-18 1171.3,-18 1217.3,-18"/>
<polygon fill="black" stroke="black" points="1217.09,-21.5 1227.09,-18 1217.09,-14.5 1217.09,-21.5"/>
<text text-anchor="middle" x="1151.1" y="-21.95" font-family="Times,serif" font-size="14.00">content/535:13</text>
</g>
<!-- q15:4 -->
<g id="node5" class="node">
<title>q15:4</title>
<ellipse fill="none" stroke="black" stroke-width="2" cx="1457.3" cy="-18" rx="39.63" ry="18"/>
<text text-anchor="middle" x="1457.3" y="-13.32" font-family="Times,serif" font-size="14.00">q15:4</text>
</g>
<!-- q12:13&#45;&gt;q15:4 -->
<g id="edge3" class="edge">
<title>q12:13&#45;&gt;q15:4</title>
<path fill="none" stroke="black" d="M1322.2,-18C1347.7,-18 1379.5,-18 1405.7,-18"/>
<polygon fill="black" stroke="black" points="1405.39,-21.5 1415.39,-18 1405.39,-14.5 1405.39,-21.5"/>
<text text-anchor="middle" x="1372.6" y="-21.95" font-family="Times,serif" font-size="14.00">λ/451:4</text>
</g>
<!-- q11:230 -->
<g id="node6" class="node">
<title>q11:230</title>
<ellipse fill="none" stroke="black" stroke-width="2" cx="264.15" cy="-280" rx="52.26" ry="18"/>
<text text-anchor="middle" x="264.15" y="-275.32" font-family="Times,serif" font-size="14.00">q11:230</text>
</g>
<!-- q13:3030 -->
<g id="node7" class="node">
<title>q13:3030</title>
<ellipse fill="none" stroke="black" stroke-width="2" cx="763.01" cy="-345" rx="58.57" ry="18"/>
<text text-anchor="middle" x="763.01" y="-340.32" font-family="Times,serif" font-size="14.00">q13:3030</text>
</g>
<!-- q11:230&#45;&gt;q13:3030 -->
<g id="edge4" class="edge">
<title>q11:230&#45;&gt;q13:3030</title>
<path fill="none" stroke="black" d="M303.36,-292.67C313.38,-295.69 324.24,-298.71 334.41,-301 442.39,-325.34 470.49,-327.63 580.68,-338 617.46,-341.46 658.58,-343.22 692.36,-344.11"/>
<polygon fill="black" stroke="black" points="691.91,-347.6 702,-344.34 692.08,-340.6 691.91,-347.6"/>
<text text-anchor="middle" x="510.42" y="-339.94" font-family="Times,serif" font-size="14.00">DATA/354:89</text>
</g>
<!-- q14:141 -->
<g id="node8" class="node">
<title>q14:141</title>
<ellipse fill="none" stroke="black" stroke-width="2" cx="510.42" cy="-280" rx="52.26" ry="18"/>
<text text-anchor="middle" x="510.42" y="-275.32" font-family="Times,serif" font-size="14.00">q14:141</text>
</g>
<!-- q11:230&#45;&gt;q14:141 -->
<g id="edge5" class="edge">
<title>q11:230&#45;&gt;q14:141</title>
<path fill="none" stroke="black" d="M317.26,-280C354.88,-280 405.89,-280 445.9,-280"/>
<polygon fill="black" stroke="black" points="445.89,-283.5 455.89,-280 445.89,-276.5 445.89,-283.5"/>
<text text-anchor="middle" x="387.29" y="-283.94" font-family="Times,serif" font-size="14.00">RCPT/250:141</text>
</g>
<!-- q13:3030&#45;&gt;q17:74 -->
<g id="edge6" class="edge">
<title>q13:3030&#45;&gt;q17:74</title>
<path fill="none" stroke="black" d="M806.99,-357.71C817.59,-360.63 828.96,-363.59 839.58,-366 883.7,-376.01 934.27,-384.81 971.57,-390.79"/>
<polygon fill="black" stroke="black" points="970.78,-394.21 981.2,-392.32 971.88,-387.3 970.78,-394.21"/>
<text text-anchor="middle" x="898.08" y="-391.94" font-family="Times,serif" font-size="14.00">content/554:74</text>
</g>
<!-- q13:3030&#45;&gt;q13:3030 -->
<g id="edge7" class="edge">
<title>q13:3030&#45;&gt;q13:3030</title>
<path fill="none" stroke="black" d="M739.9,-362.41C735.58,-372.09 743.29,-381 763.01,-381 774.41,-381 781.79,-378.02 785.16,-373.64"/>
<polygon fill="black" stroke="black" points="788.63,-374.18 785.99,-363.92 781.65,-373.58 788.63,-374.18"/>
<text text-anchor="middle" x="763.01" y="-384.94" font-family="Times,serif" font-size="14.00">content/λ:2830</text>
</g>
<!-- q16:1 -->
<g id="node9" class="node">
<title>q16:1</title>
<ellipse fill="none" stroke="black" stroke-width="2" cx="1026.8" cy="-345" rx="39.63" ry="18"/>
<text text-anchor="middle" x="1026.8" y="-340.32" font-family="Times,serif" font-size="14.00">q16:1</text>
</g>
<!-- q13:3030&#45;&gt;q16:1 -->
<g id="edge8" class="edge">
<title>q13:3030&#45;&gt;q16:1</title>
<path fill="none" stroke="black" d="M822.44,-345C868.14,-345 931.05,-345 974.75,-345"/>
<polygon fill="black" stroke="black" points="974.75,-348.5 984.75,-345 974.75,-341.5 974.75,-348.5"/>
<text text-anchor="middle" x="898.08" y="-348.94" font-family="Times,serif" font-size="14.00">content/550:1</text>
</g>
<!-- q18:125 -->
<g id="node10" class="node">
<title>q18:125</title>
<ellipse fill="none" stroke="black" stroke-width="2" cx="1026.8" cy="-291" rx="52.26" ry="18"/>
<text text-anchor="middle" x="1026.8" y="-286.32" font-family="Times,serif" font-size="14.00">q18:125</text>
</g>
<!-- q13:3030&#45;&gt;q18:125 -->
<g id="edge9" class="edge">
<title>q13:3030&#45;&gt;q18:125</title>
<path fill="none" stroke="black" d="M806.58,-332.22C817.3,-329.23 828.82,-326.2 839.58,-323.75 881.79,-314.13 929.94,-305.73 966.7,-299.85"/>
<polygon fill="black" stroke="black" points="966.91,-303.36 976.23,-298.34 965.81,-296.45 966.91,-303.36"/>
<text text-anchor="middle" x="898.08" y="-326.94" font-family="Times,serif" font-size="14.00">content/250:125</text>
</g>
<!-- q14:141&#45;&gt;q13:3030 -->
<g id="edge10" class="edge">
<title>q14:141&#45;&gt;q13:3030</title>
<path fill="none" stroke="black" d="M553.11,-291.14C562.18,-293.48 571.74,-295.88 580.68,-298 627.46,-309.1 639.99,-308.34 686.43,-320.75 694.4,-322.88 702.76,-325.34 710.91,-327.85"/>
<polygon fill="black" stroke="black" points="709.8,-331.17 720.39,-330.84 711.91,-324.49 709.8,-331.17"/>
<text text-anchor="middle" x="633.56" y="-323.94" font-family="Times,serif" font-size="14.00">DATA/354:111</text>
</g>
<!-- q19:28 -->
<g id="node11" class="node">
<title>q19:28</title>
<ellipse fill="none" stroke="black" stroke-width="2" cx="763.01" cy="-284" rx="45.95" ry="18"/>
<text text-anchor="middle" x="763.01" y="-279.32" font-family="Times,serif" font-size="14.00">q19:28</text>
</g>
<!-- q14:141&#45;&gt;q19:28 -->
<g id="edge11" class="edge">
<title>q14:141&#45;&gt;q19:28</title>
<path fill="none" stroke="black" d="M563.51,-279.7C598.31,-279.62 645.12,-279.77 686.43,-280.75 692.51,-280.89 698.85,-281.09 705.17,-281.32"/>
<polygon fill="black" stroke="black" points="704.82,-284.81 714.95,-281.7 705.09,-277.81 704.82,-284.81"/>
<text text-anchor="middle" x="633.56" y="-283.94" font-family="Times,serif" font-size="14.00">DATA/550:28</text>
</g>
<!-- q20:2 -->
<g id="node12" class="node">
<title>q20:2</title>
<ellipse fill="none" stroke="black" stroke-width="2" cx="763.01" cy="-230" rx="39.63" ry="18"/>
<text text-anchor="middle" x="763.01" y="-225.32" font-family="Times,serif" font-size="14.00">q20:2</text>
</g>
<!-- q14:141&#45;&gt;q20:2 -->
<g id="edge12" class="edge">
<title>q14:141&#45;&gt;q20:2</title>
<path fill="none" stroke="black" d="M548.5,-266.89C558.83,-263.57 570.11,-260.24 580.68,-257.75 624.6,-247.41 675.44,-240.01 712.09,-235.47"/>
<polygon fill="black" stroke="black" points="712.45,-238.95 721.96,-234.28 711.61,-232 712.45,-238.95"/>
<text text-anchor="middle" x="633.56" y="-260.94" font-family="Times,serif" font-size="14.00">RCPT/250:2</text>
</g>
<!-- q21:1 -->
<g id="node13" class="node">
<title>q21:1</title>
<ellipse fill="none" stroke="black" stroke-width="2" cx="1275.4" cy="-345" rx="39.63" ry="18"/>
<text text-anchor="middle" x="1275.4" y="-340.32" font-family="Times,serif" font-size="14.00">q21:1</text>
</g>
<!-- q16:1&#45;&gt;q21:1 -->
<g id="edge13" class="edge">
<title>q16:1&#45;&gt;q21:1</title>
<path fill="none" stroke="black" d="M1067.5,-345C1109.9,-345 1177.3,-345 1223.6,-345"/>
<polygon fill="black" stroke="black" points="1223.39,-348.5 1233.39,-345 1223.39,-341.5 1223.39,-348.5"/>
<text text-anchor="middle" x="1151.1" y="-348.94" font-family="Times,serif" font-size="14.00">RSET/250:1</text>
</g>
<!-- q23:125 -->
<g id="node14" class="node">
<title>q23:125</title>
<ellipse fill="none" stroke="black" stroke-width="2" cx="1275.4" cy="-291" rx="52.26" ry="18"/>
<text text-anchor="middle" x="1275.4" y="-286.32" font-family="Times,serif" font-size="14.00">q23:125</text>
</g>
<!-- q18:125&#45;&gt;q23:125 -->
<g id="edge14" class="edge">
<title>q18:125&#45;&gt;q23:125</title>
<path fill="none" stroke="black" d="M1079.8,-291C1118.1,-291 1170.3,-291 1211,-291"/>
<polygon fill="black" stroke="black" points="1210.99,-294.5 1220.99,-291 1210.99,-287.5 1210.99,-294.5"/>
<text text-anchor="middle" x="1151.1" y="-294.94" font-family="Times,serif" font-size="14.00">QUIT/221:125</text>
</g>
<!-- q8:230 -->
<g id="node15" class="node">
<title>q8:230</title>
<ellipse fill="none" stroke="black" stroke-width="2" cx="1026.8" cy="-175" rx="45.95" ry="18"/>
<text text-anchor="middle" x="1026.8" y="-170.32" font-family="Times,serif" font-size="14.00">q8:230</text>
</g>
<!-- q20:2&#45;&gt;q8:230 -->
<g id="edge15" class="edge">
<title>q20:2&#45;&gt;q8:230</title>
<path fill="none" stroke="black" d="M802.37,-225.42C841.49,-220.33 903.78,-211.07 956.58,-198 964.53,-196.03 972.88,-193.59 980.92,-191.04"/>
<polygon fill="black" stroke="black" points="981.77,-194.44 990.19,-188.01 979.6,-187.79 981.77,-194.44"/>
<text text-anchor="middle" x="898.08" y="-222.94" font-family="Times,serif" font-size="14.00">RCPT/250:2</text>
</g>
<!-- q8:230&#45;&gt;q11:230 -->
<g id="edge16" class="edge">
<title>q8:230&#45;&gt;q11:230</title>
<path fill="none" stroke="black" d="M980.43,-177.53C899.65,-182.43 725.82,-194.82 580.68,-217.75 489.05,-232.23 383.44,-254.14 320.6,-267.73"/>
<polygon fill="black" stroke="black" points="319.89,-264.3 310.86,-269.85 321.37,-271.14 319.89,-264.3"/>
<text text-anchor="middle" x="633.56" y="-220.94" font-family="Times,serif" font-size="14.00">RCPT/250:230</text>
</g>
<!-- q3:2 -->
<g id="node16" class="node">
<title>q3:2</title>
<ellipse fill="none" stroke="black" stroke-width="2" cx="510.42" cy="-133" rx="33.32" ry="18"/>
<text text-anchor="middle" x="510.42" y="-128.32" font-family="Times,serif" font-size="14.00">q3:2</text>
</g>
<!-- q4:230 -->
<g id="node17" class="node">
<title>q4:230</title>
<ellipse fill="none" stroke="black" stroke-width="2" cx="763.01" cy="-132" rx="45.95" ry="18"/>
<text text-anchor="middle" x="763.01" y="-127.33" font-family="Times,serif" font-size="14.00">q4:230</text>
</g>
<!-- q3:2&#45;&gt;q4:230 -->
<g id="edge17" class="edge">
<title>q3:2&#45;&gt;q4:230</title>
<path fill="none" stroke="black" d="M544.7,-132.87C585.5,-132.7 655.3,-132.43 704.78,-132.23"/>
<polygon fill="black" stroke="black" points="704.76,-135.73 714.75,-132.19 704.73,-128.73 704.76,-135.73"/>
<text text-anchor="middle" x="633.56" y="-135.94" font-family="Times,serif" font-size="14.00">AUTH/235:2</text>
</g>
<!-- q4:230&#45;&gt;q8:230 -->
<g id="edge18" class="edge">
<title>q4:230&#45;&gt;q8:230</title>
<path fill="none" stroke="black" d="M809.55,-134.29C848.84,-136.89 906.91,-142.21 956.58,-152.75 964.57,-154.44 972.93,-156.7 980.98,-159.13"/>
<polygon fill="black" stroke="black" points="979.66,-162.38 990.25,-162.05 981.76,-155.71 979.66,-162.38"/>
<text text-anchor="middle" x="898.08" y="-155.94" font-family="Times,serif" font-size="14.00">MAIL/250:227</text>
</g>
<!-- q7:3 -->
<g id="node18" class="node">
<title>q7:3</title>
<ellipse fill="none" stroke="black" stroke-width="2" cx="1026.8" cy="-112" rx="33.32" ry="18"/>
<text text-anchor="middle" x="1026.8" y="-107.33" font-family="Times,serif" font-size="14.00">q7:3</text>
</g>
<!-- q4:230&#45;&gt;q7:3 -->
<g id="edge19" class="edge">
<title>q4:230&#45;&gt;q7:3</title>
<path fill="none" stroke="black" d="M800.56,-120.77C812.84,-117.51 826.69,-114.39 839.58,-112.75 887.98,-106.58 944.04,-107.43 981.91,-109.16"/>
<polygon fill="black" stroke="black" points="981.37,-112.64 991.54,-109.64 981.73,-105.65 981.37,-112.64"/>
<text text-anchor="middle" x="898.08" y="-115.95" font-family="Times,serif" font-size="14.00">MAIL/553:3</text>
</g>
<!-- q10:3 -->
<g id="node19" class="node">
<title>q10:3</title>
<ellipse fill="none" stroke="black" stroke-width="2" cx="1275.4" cy="-112" rx="39.63" ry="18"/>
<text text-anchor="middle" x="1275.4" y="-107.33" font-family="Times,serif" font-size="14.00">q10:3</text>
</g>
<!-- q7:3&#45;&gt;q10:3 -->
<g id="edge20" class="edge">
<title>q7:3&#45;&gt;q10:3</title>
<path fill="none" stroke="black" d="M1061.1,-112C1102.9,-112 1175.2,-112 1223.9,-112"/>
<polygon fill="black" stroke="black" points="1223.59,-115.5 1233.59,-112 1223.59,-108.5 1223.59,-115.5"/>
<text text-anchor="middle" x="1151.1" y="-115.95" font-family="Times,serif" font-size="14.00">RSET/250:3</text>
</g>
<!-- q0:244 -->
<g id="node20" class="node">
<title>q0:244</title>
<ellipse fill="none" stroke="black" stroke-width="2" cx="53.95" cy="-107" rx="49.95" ry="49.95"/>
<ellipse fill="none" stroke="black" stroke-width="2" cx="53.95" cy="-107" rx="53.95" ry="53.95"/>
<text text-anchor="middle" x="53.95" y="-102.33" font-family="Times,serif" font-size="14.00">q0:244</text>
</g>
<!-- q1:244 -->
<g id="node21" class="node">
<title>q1:244</title>
<ellipse fill="none" stroke="black" stroke-width="2" cx="264.15" cy="-107" rx="45.95" ry="18"/>
<text text-anchor="middle" x="264.15" y="-102.33" font-family="Times,serif" font-size="14.00">q1:244</text>
</g>
<!-- q0:244&#45;&gt;q1:244 -->
<g id="edge21" class="edge">
<title>q0:244&#45;&gt;q1:244</title>
<path fill="none" stroke="black" d="M104.82,-107C135.25,-107 174.25,-107 205.94,-107"/>
<polygon fill="black" stroke="black" points="205.74,-110.5 215.74,-107 205.74,-103.5 205.74,-110.5"/>
<text text-anchor="middle" x="157.89" y="-110.95" font-family="Times,serif" font-size="14.00">λ/220:244</text>
</g>
<!-- q1:244&#45;&gt;q3:2 -->
<g id="edge22" class="edge">
<title>q1:244&#45;&gt;q3:2</title>
<path fill="none" stroke="black" d="M309.39,-111.71C353.69,-116.42 421.45,-123.64 465.6,-128.34"/>
<polygon fill="black" stroke="black" points="465.02,-131.8 475.33,-129.37 465.76,-124.84 465.02,-131.8"/>
<text text-anchor="middle" x="387.29" y="-128.94" font-family="Times,serif" font-size="14.00">EHLO/λ:2</text>
</g>
<!-- q2:242 -->
<g id="node22" class="node">
<title>q2:242</title>
<ellipse fill="none" stroke="black" stroke-width="2" cx="510.42" cy="-69" rx="45.95" ry="18"/>
<text text-anchor="middle" x="510.42" y="-64.33" font-family="Times,serif" font-size="14.00">q2:242</text>
</g>
<!-- q1:244&#45;&gt;q2:242 -->
<g id="edge23" class="edge">
<title>q1:244&#45;&gt;q2:242</title>
<path fill="none" stroke="black" d="M305.72,-98.17C315.12,-96.26 325.1,-94.34 334.41,-92.75 374.33,-85.94 419.64,-79.84 454.16,-75.52"/>
<polygon fill="black" stroke="black" points="454.43,-79.02 463.93,-74.32 453.57,-72.07 454.43,-79.02"/>
<text text-anchor="middle" x="387.29" y="-96.95" font-family="Times,serif" font-size="14.00">EHLO/250:242</text>
</g>
<!-- q2:242&#45;&gt;q4:230 -->
<g id="edge24" class="edge">
<title>q2:242&#45;&gt;q4:230</title>
<path fill="none" stroke="black" d="M551.5,-78.08C587.05,-86.25 640.33,-98.77 686.43,-110.75 695.34,-113.06 704.81,-115.64 713.93,-118.17"/>
<polygon fill="black" stroke="black" points="712.77,-121.48 723.34,-120.81 714.66,-114.74 712.77,-121.48"/>
<text text-anchor="middle" x="633.56" y="-114.95" font-family="Times,serif" font-size="14.00">AUTH/235:228</text>
</g>
<!-- q5:1 -->
<g id="node23" class="node">
<title>q5:1</title>
<ellipse fill="none" stroke="black" stroke-width="2" cx="763.01" cy="-72" rx="33.32" ry="18"/>
<text text-anchor="middle" x="763.01" y="-67.33" font-family="Times,serif" font-size="14.00">q5:1</text>
</g>
<!-- q2:242&#45;&gt;q5:1 -->
<g id="edge25" class="edge">
<title>q2:242&#45;&gt;q5:1</title>
<path fill="none" stroke="black" d="M556.11,-65.11C564.28,-64.55 572.73,-64.05 580.68,-63.75 627.65,-61.97 639.5,-61.2 686.43,-63.75 696.78,-64.31 707.88,-65.31 718.3,-66.41"/>
<polygon fill="black" stroke="black" points="717.88,-69.89 728.21,-67.52 718.66,-62.93 717.88,-69.89"/>
<text text-anchor="middle" x="633.56" y="-67.95" font-family="Times,serif" font-size="14.00">AUTH/λ:1</text>
</g>
<!-- q6:13 -->
<g id="node24" class="node">
<title>q6:13</title>
<ellipse fill="none" stroke="black" stroke-width="2" cx="763.01" cy="-18" rx="39.63" ry="18"/>
<text text-anchor="middle" x="763.01" y="-13.32" font-family="Times,serif" font-size="14.00">q6:13</text>
</g>
<!-- q2:242&#45;&gt;q6:13 -->
<g id="edge26" class="edge">
<title>q2:242&#45;&gt;q6:13</title>
<path fill="none" stroke="black" d="M541.92,-55.14C553.8,-50.23 567.67,-45.11 580.68,-41.75 624.1,-30.55 674.79,-24.48 711.52,-21.29"/>
<polygon fill="black" stroke="black" points="711.74,-24.78 721.42,-20.47 711.17,-17.8 711.74,-24.78"/>
<text text-anchor="middle" x="633.56" y="-45.95" font-family="Times,serif" font-size="14.00">AUTH/535:13</text>
</g>
<!-- q5:1&#45;&gt;q8:230 -->
<g id="edge27" class="edge">
<title>q5:1&#45;&gt;q8:230</title>
<path fill="none" stroke="black" d="M794.64,-64.92C835.95,-57.27 909.75,-50.57 956.58,-86.75 976.02,-101.77 959.81,-119.38 974.58,-139 978.6,-144.34 983.65,-149.2 989,-153.49"/>
<polygon fill="black" stroke="black" points="986.79,-156.21 996.94,-159.28 990.92,-150.56 986.79,-156.21"/>
<text text-anchor="middle" x="898.08" y="-90.95" font-family="Times,serif" font-size="14.00">MAIL/250:1</text>
</g>
<!-- q6:13&#45;&gt;q9:13 -->
<g id="edge28" class="edge">
<title>q6:13&#45;&gt;q9:13</title>
<path fill="none" stroke="black" d="M803.49,-18C849.35,-18 925.1,-18 975.24,-18"/>
<polygon fill="black" stroke="black" points="974.96,-21.5 984.96,-18 974.96,-14.5 974.96,-21.5"/>
<text text-anchor="middle" x="898.08" y="-21.95" font-family="Times,serif" font-size="14.00">AUTH/334:13</text>
</g>
</g>
</svg>
