<?xml version="1.0" encoding="UTF-8" standalone="no"?>
<!DOCTYPE svg PUBLIC "-//W3C//DTD SVG 1.1//EN"
 "http://www.w3.org/Graphics/SVG/1.1/DTD/svg11.dtd">
<!-- Generated by graphviz version 12.0.0 (20240803.0821)
 -->
<!-- Pages: 1 -->
<svg width="1768pt" height="312pt"
 viewBox="0.00 0.00 1767.86 312.00" xmlns="http://www.w3.org/2000/svg" xmlns:xlink="http://www.w3.org/1999/xlink">
<g id="graph0" class="graph" transform="scale(1 1) rotate(0) translate(4 308)">
<polygon fill="white" stroke="none" points="-4,4 -4,-308 1763.86,-308 1763.86,4 -4,4"/>
<!-- q2:242 -->
<g id="node1" class="node">
<title>q2:242</title>
<ellipse fill="none" stroke="black" stroke-width="2" cx="491.48" cy="-222" rx="45.95" ry="18"/>
<text text-anchor="middle" x="491.48" y="-217.32" font-family="Times,serif" font-size="14.00">q2:242</text>
</g>
<!-- q5:3 -->
<g id="node2" class="node">
<title>q5:3</title>
<ellipse fill="none" stroke="black" stroke-width="2" cx="725.13" cy="-149" rx="33.32" ry="18"/>
<text text-anchor="middle" x="725.13" y="-144.32" font-family="Times,serif" font-size="14.00">q5:3</text>
</g>
<!-- q2:242&#45;&gt;q5:3 -->
<g id="edge1" class="edge">
<title>q2:242&#45;&gt;q5:3</title>
<path fill="none" stroke="black" d="M528.68,-210.59C570.94,-197.28 640.6,-175.32 684.34,-161.54"/>
<polygon fill="black" stroke="black" points="685.21,-164.93 693.7,-158.59 683.11,-158.26 685.21,-164.93"/>
<text text-anchor="middle" x="608.31" y="-203.94" font-family="Times,serif" font-size="14.00">AUTH/λ:1</text>
</g>
<!-- q6:229 -->
<g id="node3" class="node">
<title>q6:229</title>
<ellipse fill="none" stroke="black" stroke-width="2" cx="725.13" cy="-229" rx="45.95" ry="18"/>
<text text-anchor="middle" x="725.13" y="-224.32" font-family="Times,serif" font-size="14.00">q6:229</text>
</g>
<!-- q2:242&#45;&gt;q6:229 -->
<g id="edge2" class="edge">
<title>q2:242&#45;&gt;q6:229</title>
<path fill="none" stroke="black" d="M538.25,-223.38C575.21,-224.5 627.42,-226.08 667.1,-227.28"/>
<polygon fill="black" stroke="black" points="666.85,-230.77 676.95,-227.57 667.06,-223.78 666.85,-230.77"/>
<text text-anchor="middle" x="608.31" y="-229.94" font-family="Times,serif" font-size="14.00">AUTH/235:229</text>
</g>
<!-- q4:12 -->
<g id="node4" class="node">
<title>q4:12</title>
<ellipse fill="none" stroke="black" stroke-width="2" cx="725.13" cy="-284" rx="39.63" ry="18"/>
<text text-anchor="middle" x="725.13" y="-279.32" font-family="Times,serif" font-size="14.00">q4:12</text>
</g>
<!-- q2:242&#45;&gt;q4:12 -->
<g id="edge3" class="edge">
<title>q2:242&#45;&gt;q4:12</title>
<path fill="none" stroke="black" d="M523.83,-235.61C533.81,-239.63 544.97,-243.8 555.43,-247 595.49,-259.26 642.07,-269.16 676.12,-275.62"/>
<polygon fill="black" stroke="black" points="675.2,-279.01 685.67,-277.4 676.48,-272.13 675.2,-279.01"/>
<text text-anchor="middle" x="608.31" y="-275.94" font-family="Times,serif" font-size="14.00">AUTH/535:12</text>
</g>
<!-- q8:608 -->
<g id="node5" class="node">
<title>q8:608</title>
<ellipse fill="none" stroke="black" stroke-width="2" cx="954.27" cy="-143" rx="45.95" ry="18"/>
<text text-anchor="middle" x="954.27" y="-138.32" font-family="Times,serif" font-size="14.00">q8:608</text>
</g>
<!-- q5:3&#45;&gt;q8:608 -->
<g id="edge4" class="edge">
<title>q5:3&#45;&gt;q8:608</title>
<path fill="none" stroke="black" d="M759.16,-148.13C795,-147.18 852.89,-145.65 896.14,-144.51"/>
<polygon fill="black" stroke="black" points="896.22,-148.01 906.13,-144.25 896.04,-141.01 896.22,-148.01"/>
<text text-anchor="middle" x="839.7" y="-151.94" font-family="Times,serif" font-size="14.00">MAIL/250:3</text>
</g>
<!-- q6:229&#45;&gt;q8:608 -->
<g id="edge5" class="edge">
<title>q6:229&#45;&gt;q8:608</title>
<path fill="none" stroke="black" d="M759.79,-216.33C792.99,-203.82 845.17,-184.13 890.33,-167 896.49,-164.66 902.99,-162.19 909.38,-159.75"/>
<polygon fill="black" stroke="black" points="910.45,-163.09 918.54,-156.26 907.95,-156.55 910.45,-163.09"/>
<text text-anchor="middle" x="839.7" y="-206.94" font-family="Times,serif" font-size="14.00">MAIL/250:227</text>
</g>
<!-- q9:2 -->
<g id="node6" class="node">
<title>q9:2</title>
<ellipse fill="none" stroke="black" stroke-width="2" cx="954.27" cy="-232" rx="33.32" ry="18"/>
<text text-anchor="middle" x="954.27" y="-227.32" font-family="Times,serif" font-size="14.00">q9:2</text>
</g>
<!-- q6:229&#45;&gt;q9:2 -->
<g id="edge6" class="edge">
<title>q6:229&#45;&gt;q9:2</title>
<path fill="none" stroke="black" d="M771.82,-229.6C811.71,-230.13 869.24,-230.89 908.77,-231.41"/>
<polygon fill="black" stroke="black" points="908.61,-234.91 918.66,-231.54 908.7,-227.91 908.61,-234.91"/>
<text text-anchor="middle" x="839.7" y="-234.94" font-family="Times,serif" font-size="14.00">MAIL/553:2</text>
</g>
<!-- q7:12 -->
<g id="node7" class="node">
<title>q7:12</title>
<ellipse fill="none" stroke="black" stroke-width="2" cx="954.27" cy="-286" rx="39.63" ry="18"/>
<text text-anchor="middle" x="954.27" y="-281.32" font-family="Times,serif" font-size="14.00">q7:12</text>
</g>
<!-- q4:12&#45;&gt;q7:12 -->
<g id="edge7" class="edge">
<title>q4:12&#45;&gt;q7:12</title>
<path fill="none" stroke="black" d="M765.69,-284.35C803.6,-284.68 861,-285.19 902.32,-285.55"/>
<polygon fill="black" stroke="black" points="902.24,-289.05 912.27,-285.64 902.3,-282.05 902.24,-289.05"/>
<text text-anchor="middle" x="839.7" y="-288.94" font-family="Times,serif" font-size="14.00">AUTH/334:12</text>
</g>
<!-- q8:608&#45;&gt;q8:608 -->
<g id="edge8" class="edge">
<title>q8:608&#45;&gt;q8:608</title>
<path fill="none" stroke="black" d="M933.97,-160.04C929.83,-169.86 936.59,-179 954.27,-179 964.49,-179 971.07,-175.94 973.99,-171.47"/>
<polygon fill="black" stroke="black" points="977.48,-171.72 974.49,-161.55 970.49,-171.36 977.48,-171.72"/>
<text text-anchor="middle" x="954.27" y="-182.94" font-family="Times,serif" font-size="14.00">RCPT/250:378</text>
</g>
<!-- q12:2669 -->
<g id="node8" class="node">
<title>q12:2669</title>
<ellipse fill="none" stroke="black" stroke-width="2" cx="1202.8" cy="-72" rx="58.57" ry="18"/>
<text text-anchor="middle" x="1202.8" y="-67.33" font-family="Times,serif" font-size="14.00">q12:2669</text>
</g>
<!-- q8:608&#45;&gt;q12:2669 -->
<g id="edge9" class="edge">
<title>q8:608&#45;&gt;q12:2669</title>
<path fill="none" stroke="black" d="M992.71,-132.22C1033.9,-120.37 1100.3,-101.22 1147.3,-87.7"/>
<polygon fill="black" stroke="black" points="1148.1,-91.11 1156.74,-84.98 1146.17,-84.38 1148.1,-91.11"/>
<text text-anchor="middle" x="1072.2" y="-127.95" font-family="Times,serif" font-size="14.00">DATA/354:187</text>
</g>
<!-- q11:43 -->
<g id="node9" class="node">
<title>q11:43</title>
<ellipse fill="none" stroke="black" stroke-width="2" cx="1202.8" cy="-161" rx="45.95" ry="18"/>
<text text-anchor="middle" x="1202.8" y="-156.32" font-family="Times,serif" font-size="14.00">q11:43</text>
</g>
<!-- q8:608&#45;&gt;q11:43 -->
<g id="edge10" class="edge">
<title>q8:608&#45;&gt;q11:43</title>
<path fill="none" stroke="black" d="M1000.49,-146.3C1041.3,-149.28 1101.6,-153.68 1145.5,-156.89"/>
<polygon fill="black" stroke="black" points="1145.16,-160.37 1155.39,-157.61 1145.67,-153.39 1145.16,-160.37"/>
<text text-anchor="middle" x="1072.2" y="-159.94" font-family="Times,serif" font-size="14.00">DATA/550:43</text>
</g>
<!-- q13:2 -->
<g id="node10" class="node">
<title>q13:2</title>
<ellipse fill="none" stroke="black" stroke-width="2" cx="1202.8" cy="-232" rx="39.63" ry="18"/>
<text text-anchor="middle" x="1202.8" y="-227.32" font-family="Times,serif" font-size="14.00">q13:2</text>
</g>
<!-- q9:2&#45;&gt;q13:2 -->
<g id="edge11" class="edge">
<title>q9:2&#45;&gt;q13:2</title>
<path fill="none" stroke="black" d="M988.52,-232C1030.4,-232 1102.7,-232 1151.4,-232"/>
<polygon fill="black" stroke="black" points="1151.09,-235.5 1161.09,-232 1151.09,-228.5 1151.09,-235.5"/>
<text text-anchor="middle" x="1072.2" y="-235.94" font-family="Times,serif" font-size="14.00">RSET/250:2</text>
</g>
<!-- q10:12 -->
<g id="node11" class="node">
<title>q10:12</title>
<ellipse fill="none" stroke="black" stroke-width="2" cx="1202.8" cy="-286" rx="45.95" ry="18"/>
<text text-anchor="middle" x="1202.8" y="-281.32" font-family="Times,serif" font-size="14.00">q10:12</text>
</g>
<!-- q7:12&#45;&gt;q10:12 -->
<g id="edge12" class="edge">
<title>q7:12&#45;&gt;q10:12</title>
<path fill="none" stroke="black" d="M994.88,-286C1035.4,-286 1098.8,-286 1144.7,-286"/>
<polygon fill="black" stroke="black" points="1144.49,-289.5 1154.49,-286 1144.49,-282.5 1144.49,-289.5"/>
<text text-anchor="middle" x="1072.2" y="-289.94" font-family="Times,serif" font-size="14.00">content/535:12</text>
</g>
<!-- q12:2669&#45;&gt;q12:2669 -->
<g id="edge13" class="edge">
<title>q12:2669&#45;&gt;q12:2669</title>
<path fill="none" stroke="black" d="M1179.5,-89.41C1175.1,-99.09 1182.9,-108 1202.8,-108 1214.3,-108 1221.7,-105.02 1225.1,-100.64"/>
<polygon fill="black" stroke="black" points="1228.56,-101.19 1225.97,-90.92 1221.59,-100.57 1228.56,-101.19"/>
<text text-anchor="middle" x="1202.8" y="-111.95" font-family="Times,serif" font-size="14.00">content/λ:2482</text>
</g>
<!-- q15:74 -->
<g id="node12" class="node">
<title>q15:74</title>
<ellipse fill="none" stroke="black" stroke-width="2" cx="1466.6" cy="-72" rx="45.95" ry="18"/>
<text text-anchor="middle" x="1466.6" y="-67.33" font-family="Times,serif" font-size="14.00">q15:74</text>
</g>
<!-- q12:2669&#45;&gt;q15:74 -->
<g id="edge14" class="edge">
<title>q12:2669&#45;&gt;q15:74</title>
<path fill="none" stroke="black" d="M1262.2,-72C1305.9,-72 1365.2,-72 1408.5,-72"/>
<polygon fill="black" stroke="black" points="1408.49,-75.5 1418.49,-72 1408.49,-68.5 1408.49,-75.5"/>
<text text-anchor="middle" x="1337.9" y="-75.95" font-family="Times,serif" font-size="14.00">content/554:74</text>
</g>
<!-- q16:1 -->
<g id="node13" class="node">
<title>q16:1</title>
<ellipse fill="none" stroke="black" stroke-width="2" cx="1466.6" cy="-18" rx="39.63" ry="18"/>
<text text-anchor="middle" x="1466.6" y="-13.32" font-family="Times,serif" font-size="14.00">q16:1</text>
</g>
<!-- q12:2669&#45;&gt;q16:1 -->
<g id="edge15" class="edge">
<title>q12:2669&#45;&gt;q16:1</title>
<path fill="none" stroke="black" d="M1246.4,-59.23C1257.1,-56.23 1268.6,-53.2 1279.4,-50.75 1325.6,-40.2 1379,-31.13 1416.8,-25.22"/>
<polygon fill="black" stroke="black" points="1417.06,-28.72 1426.4,-23.72 1415.98,-21.81 1417.06,-28.72"/>
<text text-anchor="middle" x="1337.9" y="-54.95" font-family="Times,serif" font-size="14.00">content/550:1</text>
</g>
<!-- q17:112 -->
<g id="node14" class="node">
<title>q17:112</title>
<ellipse fill="none" stroke="black" stroke-width="2" cx="1466.6" cy="-126" rx="52.26" ry="18"/>
<text text-anchor="middle" x="1466.6" y="-121.33" font-family="Times,serif" font-size="14.00">q17:112</text>
</g>
<!-- q12:2669&#45;&gt;q17:112 -->
<g id="edge16" class="edge">
<title>q12:2669&#45;&gt;q17:112</title>
<path fill="none" stroke="black" d="M1246.8,-84.71C1257.4,-87.63 1268.7,-90.59 1279.4,-93 1321.6,-102.58 1369.7,-111.05 1406.5,-117.01"/>
<polygon fill="black" stroke="black" points="1405.58,-120.41 1416,-118.53 1406.68,-113.49 1405.58,-120.41"/>
<text text-anchor="middle" x="1337.9" y="-119.95" font-family="Times,serif" font-size="14.00">content/250:112</text>
</g>
<!-- q14:3 -->
<g id="node21" class="node">
<title>q14:3</title>
<ellipse fill="none" stroke="black" stroke-width="2" cx="1466.6" cy="-286" rx="39.63" ry="18"/>
<text text-anchor="middle" x="1466.6" y="-281.32" font-family="Times,serif" font-size="14.00">q14:3</text>
</g>
<!-- q10:12&#45;&gt;q14:3 -->
<g id="edge24" class="edge">
<title>q10:12&#45;&gt;q14:3</title>
<path fill="none" stroke="black" d="M1249.7,-286C1295.9,-286 1367,-286 1414.9,-286"/>
<polygon fill="black" stroke="black" points="1414.69,-289.5 1424.69,-286 1414.69,-282.5 1414.69,-289.5"/>
<text text-anchor="middle" x="1337.9" y="-289.94" font-family="Times,serif" font-size="14.00">λ/451:3</text>
</g>
<!-- q18:74 -->
<g id="node15" class="node">
<title>q18:74</title>
<ellipse fill="none" stroke="black" stroke-width="2" cx="1707.6" cy="-72" rx="45.95" ry="18"/>
<text text-anchor="middle" x="1707.6" y="-67.33" font-family="Times,serif" font-size="14.00">q18:74</text>
</g>
<!-- q15:74&#45;&gt;q18:74 -->
<g id="edge17" class="edge">
<title>q15:74&#45;&gt;q18:74</title>
<path fill="none" stroke="black" d="M1513.4,-72C1552.2,-72 1608,-72 1649.6,-72"/>
<polygon fill="black" stroke="black" points="1649.49,-75.5 1659.49,-72 1649.49,-68.5 1649.49,-75.5"/>
<text text-anchor="middle" x="1587.1" y="-75.95" font-family="Times,serif" font-size="14.00">RSET/250:74</text>
</g>
<!-- q19:1 -->
<g id="node16" class="node">
<title>q19:1</title>
<ellipse fill="none" stroke="black" stroke-width="2" cx="1707.6" cy="-18" rx="39.63" ry="18"/>
<text text-anchor="middle" x="1707.6" y="-13.32" font-family="Times,serif" font-size="14.00">q19:1</text>
</g>
<!-- q16:1&#45;&gt;q19:1 -->
<g id="edge18" class="edge">
<title>q16:1&#45;&gt;q19:1</title>
<path fill="none" stroke="black" d="M1507.1,-18C1547.7,-18 1611.3,-18 1655.7,-18"/>
<polygon fill="black" stroke="black" points="1655.59,-21.5 1665.59,-18 1655.59,-14.5 1655.59,-21.5"/>
<text text-anchor="middle" x="1587.1" y="-21.95" font-family="Times,serif" font-size="14.00">RSET/250:1</text>
</g>
<!-- q20:112 -->
<g id="node17" class="node">
<title>q20:112</title>
<ellipse fill="none" stroke="black" stroke-width="2" cx="1707.6" cy="-126" rx="52.26" ry="18"/>
<text text-anchor="middle" x="1707.6" y="-121.33" font-family="Times,serif" font-size="14.00">q20:112</text>
</g>
<!-- q17:112&#45;&gt;q20:112 -->
<g id="edge19" class="edge">
<title>q17:112&#45;&gt;q20:112</title>
<path fill="none" stroke="black" d="M1519.8,-126C1556.2,-126 1604.9,-126 1643.5,-126"/>
<polygon fill="black" stroke="black" points="1643.09,-129.5 1653.09,-126 1643.09,-122.5 1643.09,-129.5"/>
<text text-anchor="middle" x="1587.1" y="-129.94" font-family="Times,serif" font-size="14.00">QUIT/221:112</text>
</g>
<!-- q0:244 -->
<g id="node18" class="node">
<title>q0:244</title>
<ellipse fill="none" stroke="black" stroke-width="2" cx="53.95" cy="-189" rx="49.95" ry="49.95"/>
<ellipse fill="none" stroke="black" stroke-width="2" cx="53.95" cy="-189" rx="53.95" ry="53.95"/>
<text text-anchor="middle" x="53.95" y="-184.32" font-family="Times,serif" font-size="14.00">q0:244</text>
</g>
<!-- q1:244 -->
<g id="node19" class="node">
<title>q1:244</title>
<ellipse fill="none" stroke="black" stroke-width="2" cx="257.84" cy="-189" rx="45.95" ry="18"/>
<text text-anchor="middle" x="257.84" y="-184.32" font-family="Times,serif" font-size="14.00">q1:244</text>
</g>
<!-- q0:244&#45;&gt;q1:244 -->
<g id="edge20" class="edge">
<title>q0:244&#45;&gt;q1:244</title>
<path fill="none" stroke="black" d="M104.85,-189C133.64,-189 169.94,-189 199.84,-189"/>
<polygon fill="black" stroke="black" points="199.45,-192.5 209.45,-189 199.45,-185.5 199.45,-192.5"/>
<text text-anchor="middle" x="157.89" y="-192.94" font-family="Times,serif" font-size="14.00">λ/220:244</text>
</g>
<!-- q1:244&#45;&gt;q2:242 -->
<g id="edge21" class="edge">
<title>q1:244&#45;&gt;q2:242</title>
<path fill="none" stroke="black" d="M302.14,-195.17C340,-200.56 395.17,-208.42 436.02,-214.24"/>
<polygon fill="black" stroke="black" points="435.51,-217.7 445.9,-215.65 436.49,-210.77 435.51,-217.7"/>
<text text-anchor="middle" x="374.66" y="-215.94" font-family="Times,serif" font-size="14.00">EHLO/250:242</text>
</g>
<!-- q3:2 -->
<g id="node20" class="node">
<title>q3:2</title>
<ellipse fill="none" stroke="black" stroke-width="2" cx="491.48" cy="-162" rx="33.32" ry="18"/>
<text text-anchor="middle" x="491.48" y="-157.32" font-family="Times,serif" font-size="14.00">q3:2</text>
</g>
<!-- q1:244&#45;&gt;q3:2 -->
<g id="edge22" class="edge">
<title>q1:244&#45;&gt;q3:2</title>
<path fill="none" stroke="black" d="M296.21,-178.12C304.56,-176.03 313.43,-174.08 321.79,-172.75 363.53,-166.09 411.69,-163.52 445.85,-162.55"/>
<polygon fill="black" stroke="black" points="445.88,-166.05 455.8,-162.31 445.71,-159.05 445.88,-166.05"/>
<text text-anchor="middle" x="374.66" y="-175.94" font-family="Times,serif" font-size="14.00">EHLO/λ:2</text>
</g>
<!-- q3:2&#45;&gt;q5:3 -->
<g id="edge23" class="edge">
<title>q3:2&#45;&gt;q5:3</title>
<path fill="none" stroke="black" d="M523.05,-154.86C533.28,-152.78 544.8,-150.8 555.43,-149.75 597.41,-145.61 645.55,-145.89 679.63,-146.93"/>
<polygon fill="black" stroke="black" points="679.43,-150.43 689.55,-147.27 679.67,-143.43 679.43,-150.43"/>
<text text-anchor="middle" x="608.31" y="-153.94" font-family="Times,serif" font-size="14.00">AUTH/235:2</text>
</g>
</g>
</svg>
