<?xml version="1.0" encoding="UTF-8" standalone="no"?>
<!DOCTYPE svg PUBLIC "-//W3C//DTD SVG 1.1//EN"
 "http://www.w3.org/Graphics/SVG/1.1/DTD/svg11.dtd">
<!-- Generated by graphviz version 12.0.0 (20240803.0821)
 -->
<!-- Pages: 1 -->
<svg width="2260pt" height="381pt"
 viewBox="0.00 0.00 2259.66 381.00" xmlns="http://www.w3.org/2000/svg" xmlns:xlink="http://www.w3.org/1999/xlink">
<g id="graph0" class="graph" transform="scale(1 1) rotate(0) translate(4 377)">
<polygon fill="white" stroke="none" points="-4,4 -4,-377 2255.66,-377 2255.66,4 -4,4"/>
<!-- q7:232 -->
<g id="node1" class="node">
<title>q7:232</title>
<ellipse fill="none" stroke="black" stroke-width="2" cx="1202.8" cy="-229" rx="45.95" ry="18"/>
<text text-anchor="middle" x="1202.8" y="-224.32" font-family="Times,serif" font-size="14.00">q7:232</text>
</g>
<!-- q11:164 -->
<g id="node2" class="node">
<title>q11:164</title>
<ellipse fill="none" stroke="black" stroke-width="2" cx="1439.8" cy="-266" rx="52.26" ry="18"/>
<text text-anchor="middle" x="1439.8" y="-261.32" font-family="Times,serif" font-size="14.00">q11:164</text>
</g>
<!-- q7:232&#45;&gt;q11:164 -->
<g id="edge1" class="edge">
<title>q7:232&#45;&gt;q11:164</title>
<path fill="none" stroke="black" d="M1246.6,-235.74C1283.9,-241.61 1338.3,-250.17 1379.7,-256.69"/>
<polygon fill="black" stroke="black" points="1379.08,-260.14 1389.5,-258.24 1380.18,-253.22 1379.08,-260.14"/>
<text text-anchor="middle" x="1318.1" y="-258.94" font-family="Times,serif" font-size="14.00">DATA/354:90</text>
</g>
<!-- q12:142 -->
<g id="node3" class="node">
<title>q12:142</title>
<ellipse fill="none" stroke="black" stroke-width="2" cx="1439.8" cy="-150" rx="52.26" ry="18"/>
<text text-anchor="middle" x="1439.8" y="-145.32" font-family="Times,serif" font-size="14.00">q12:142</text>
</g>
<!-- q7:232&#45;&gt;q12:142 -->
<g id="edge2" class="edge">
<title>q7:232&#45;&gt;q12:142</title>
<path fill="none" stroke="black" d="M1231.3,-214.28C1237.3,-210.59 1243.4,-206.42 1248.7,-202 1258,-194.31 1256.3,-187.66 1266.7,-181.75 1299.8,-163.13 1341.5,-155.12 1375.6,-151.8"/>
<polygon fill="black" stroke="black" points="1375.63,-155.31 1385.29,-150.97 1375.03,-148.34 1375.63,-155.31"/>
<text text-anchor="middle" x="1318.1" y="-185.94" font-family="Times,serif" font-size="14.00">RCPT/250:142</text>
</g>
<!-- q11:164&#45;&gt;q11:164 -->
<g id="edge3" class="edge">
<title>q11:164&#45;&gt;q11:164</title>
<path fill="none" stroke="black" d="M1418.2,-283.04C1413.8,-292.86 1421,-302 1439.8,-302 1450.6,-302 1457.6,-298.94 1460.7,-294.47"/>
<polygon fill="black" stroke="black" points="1464.19,-294.72 1461.22,-284.55 1457.2,-294.35 1464.19,-294.72"/>
<text text-anchor="middle" x="1439.8" y="-305.94" font-family="Times,serif" font-size="14.00">content/λ:74</text>
</g>
<!-- q15:66 -->
<g id="node4" class="node">
<title>q15:66</title>
<ellipse fill="none" stroke="black" stroke-width="2" cx="1694.6" cy="-260" rx="45.95" ry="18"/>
<text text-anchor="middle" x="1694.6" y="-255.32" font-family="Times,serif" font-size="14.00">q15:66</text>
</g>
<!-- q11:164&#45;&gt;q15:66 -->
<g id="edge4" class="edge">
<title>q11:164&#45;&gt;q15:66</title>
<path fill="none" stroke="black" d="M1492.8,-264.76C1534.7,-263.77 1593.4,-262.38 1636.5,-261.35"/>
<polygon fill="black" stroke="black" points="1636.47,-264.85 1646.39,-261.12 1636.31,-257.85 1636.47,-264.85"/>
<text text-anchor="middle" x="1564" y="-267.94" font-family="Times,serif" font-size="14.00">content/554:66</text>
</g>
<!-- q16:24 -->
<g id="node5" class="node">
<title>q16:24</title>
<ellipse fill="none" stroke="black" stroke-width="2" cx="1694.6" cy="-314" rx="45.95" ry="18"/>
<text text-anchor="middle" x="1694.6" y="-309.32" font-family="Times,serif" font-size="14.00">q16:24</text>
</g>
<!-- q11:164&#45;&gt;q16:24 -->
<g id="edge5" class="edge">
<title>q11:164&#45;&gt;q16:24</title>
<path fill="none" stroke="black" d="M1481.2,-277.91C1490.6,-280.45 1500.6,-282.98 1510,-285 1553,-294.27 1602.3,-301.89 1639,-306.99"/>
<polygon fill="black" stroke="black" points="1638.02,-310.39 1648.4,-308.28 1638.97,-303.45 1638.02,-310.39"/>
<text text-anchor="middle" x="1564" y="-306.94" font-family="Times,serif" font-size="14.00">content/250:24</text>
</g>
<!-- q18:3105 -->
<g id="node6" class="node">
<title>q18:3105</title>
<ellipse fill="none" stroke="black" stroke-width="2" cx="1694.6" cy="-52" rx="58.57" ry="18"/>
<text text-anchor="middle" x="1694.6" y="-47.33" font-family="Times,serif" font-size="14.00">q18:3105</text>
</g>
<!-- q12:142&#45;&gt;q18:3105 -->
<g id="edge6" class="edge">
<title>q12:142&#45;&gt;q18:3105</title>
<path fill="none" stroke="black" d="M1472.3,-135.18C1484,-129.81 1497.5,-123.82 1510,-118.75 1554.5,-100.67 1605.9,-82.18 1643,-69.26"/>
<polygon fill="black" stroke="black" points="1643.78,-72.69 1652.07,-66.1 1641.48,-66.08 1643.78,-72.69"/>
<text text-anchor="middle" x="1564" y="-122.95" font-family="Times,serif" font-size="14.00">DATA/354:119</text>
</g>
<!-- q19:3 -->
<g id="node7" class="node">
<title>q19:3</title>
<ellipse fill="none" stroke="black" stroke-width="2" cx="1694.6" cy="-198" rx="39.63" ry="18"/>
<text text-anchor="middle" x="1694.6" y="-193.32" font-family="Times,serif" font-size="14.00">q19:3</text>
</g>
<!-- q12:142&#45;&gt;q19:3 -->
<g id="edge7" class="edge">
<title>q12:142&#45;&gt;q19:3</title>
<path fill="none" stroke="black" d="M1487.9,-157.98C1523.6,-164.15 1574,-173.08 1618,-181.75 1627.4,-183.6 1637.4,-185.67 1646.9,-187.71"/>
<polygon fill="black" stroke="black" points="1645.91,-191.08 1656.42,-189.74 1647.37,-184.23 1645.91,-191.08"/>
<text text-anchor="middle" x="1564" y="-185.94" font-family="Times,serif" font-size="14.00">RCPT/250:3</text>
</g>
<!-- q17:20 -->
<g id="node8" class="node">
<title>q17:20</title>
<ellipse fill="none" stroke="black" stroke-width="2" cx="1694.6" cy="-141" rx="45.95" ry="18"/>
<text text-anchor="middle" x="1694.6" y="-136.32" font-family="Times,serif" font-size="14.00">q17:20</text>
</g>
<!-- q12:142&#45;&gt;q17:20 -->
<g id="edge8" class="edge">
<title>q12:142&#45;&gt;q17:20</title>
<path fill="none" stroke="black" d="M1489.5,-143.48C1496.4,-142.77 1503.4,-142.16 1510,-141.75 1552.3,-139.15 1600.3,-139.05 1636.6,-139.56"/>
<polygon fill="black" stroke="black" points="1636.33,-143.06 1646.39,-139.72 1636.44,-136.06 1636.33,-143.06"/>
<text text-anchor="middle" x="1564" y="-145.94" font-family="Times,serif" font-size="14.00">DATA/550:20</text>
</g>
<!-- q21:66 -->
<g id="node9" class="node">
<title>q21:66</title>
<ellipse fill="none" stroke="black" stroke-width="2" cx="1958.4" cy="-260" rx="45.95" ry="18"/>
<text text-anchor="middle" x="1958.4" y="-255.32" font-family="Times,serif" font-size="14.00">q21:66</text>
</g>
<!-- q15:66&#45;&gt;q21:66 -->
<g id="edge9" class="edge">
<title>q15:66&#45;&gt;q21:66</title>
<path fill="none" stroke="black" d="M1741.5,-260C1785.7,-260 1852.6,-260 1900.2,-260"/>
<polygon fill="black" stroke="black" points="1900.09,-263.5 1910.09,-260 1900.09,-256.5 1900.09,-263.5"/>
<text text-anchor="middle" x="1829.7" y="-263.94" font-family="Times,serif" font-size="14.00">RSET/250:66</text>
</g>
<!-- q22:24 -->
<g id="node10" class="node">
<title>q22:24</title>
<ellipse fill="none" stroke="black" stroke-width="2" cx="1958.4" cy="-314" rx="45.95" ry="18"/>
<text text-anchor="middle" x="1958.4" y="-309.32" font-family="Times,serif" font-size="14.00">q22:24</text>
</g>
<!-- q16:24&#45;&gt;q22:24 -->
<g id="edge10" class="edge">
<title>q16:24&#45;&gt;q22:24</title>
<path fill="none" stroke="black" d="M1741.5,-314C1785.7,-314 1852.6,-314 1900.2,-314"/>
<polygon fill="black" stroke="black" points="1900.09,-317.5 1910.09,-314 1900.09,-310.5 1900.09,-317.5"/>
<text text-anchor="middle" x="1829.7" y="-317.94" font-family="Times,serif" font-size="14.00">QUIT/221:24</text>
</g>
<!-- q18:3105&#45;&gt;q18:3105 -->
<g id="edge11" class="edge">
<title>q18:3105&#45;&gt;q18:3105</title>
<path fill="none" stroke="black" d="M1671.3,-69.41C1666.9,-79.09 1674.7,-88 1694.6,-88 1706.1,-88 1713.5,-85.02 1716.9,-80.64"/>
<polygon fill="black" stroke="black" points="1720.36,-81.19 1717.77,-70.92 1713.39,-80.57 1720.36,-81.19"/>
<text text-anchor="middle" x="1694.6" y="-91.95" font-family="Times,serif" font-size="14.00">content/λ:2986</text>
</g>
<!-- q24:111 -->
<g id="node11" class="node">
<title>q24:111</title>
<ellipse fill="none" stroke="black" stroke-width="2" cx="1958.4" cy="-72" rx="52.26" ry="18"/>
<text text-anchor="middle" x="1958.4" y="-67.33" font-family="Times,serif" font-size="14.00">q24:111</text>
</g>
<!-- q18:3105&#45;&gt;q24:111 -->
<g id="edge12" class="edge">
<title>q18:3105&#45;&gt;q24:111</title>
<path fill="none" stroke="black" d="M1752.4,-56.34C1794.5,-59.56 1851.9,-63.94 1895.2,-67.25"/>
<polygon fill="black" stroke="black" points="1894.75,-70.72 1904.99,-67.99 1895.29,-63.74 1894.75,-70.72"/>
<text text-anchor="middle" x="1829.7" y="-70.95" font-family="Times,serif" font-size="14.00">content/250:111</text>
</g>
<!-- q23:8 -->
<g id="node12" class="node">
<title>q23:8</title>
<ellipse fill="none" stroke="black" stroke-width="2" cx="1958.4" cy="-18" rx="39.63" ry="18"/>
<text text-anchor="middle" x="1958.4" y="-13.32" font-family="Times,serif" font-size="14.00">q23:8</text>
</g>
<!-- q18:3105&#45;&gt;q23:8 -->
<g id="edge13" class="edge">
<title>q18:3105&#45;&gt;q23:8</title>
<path fill="none" stroke="black" d="M1743.8,-41.52C1752.9,-39.77 1762.3,-38.09 1771.2,-36.75 1817,-29.83 1869.6,-24.8 1907.2,-21.7"/>
<polygon fill="black" stroke="black" points="1907.2,-25.21 1916.89,-20.92 1906.64,-18.23 1907.2,-25.21"/>
<text text-anchor="middle" x="1829.7" y="-40.95" font-family="Times,serif" font-size="14.00">content/554:8</text>
</g>
<!-- q19:3&#45;&gt;q7:232 -->
<g id="edge14" class="edge">
<title>q19:3&#45;&gt;q7:232</title>
<path fill="none" stroke="black" d="M1654.4,-200.48C1567.9,-205.95 1360.9,-219.06 1260.4,-225.42"/>
<polygon fill="black" stroke="black" points="1260.27,-221.92 1250.51,-226.04 1260.71,-228.91 1260.27,-221.92"/>
<text text-anchor="middle" x="1439.8" y="-221.94" font-family="Times,serif" font-size="14.00">RCPT/250:3</text>
</g>
<!-- q26:111 -->
<g id="node17" class="node">
<title>q26:111</title>
<ellipse fill="none" stroke="black" stroke-width="2" cx="2199.4" cy="-72" rx="52.26" ry="18"/>
<text text-anchor="middle" x="2199.4" y="-67.33" font-family="Times,serif" font-size="14.00">q26:111</text>
</g>
<!-- q24:111&#45;&gt;q26:111 -->
<g id="edge19" class="edge">
<title>q24:111&#45;&gt;q26:111</title>
<path fill="none" stroke="black" d="M2011.6,-72C2048,-72 2096.7,-72 2135.3,-72"/>
<polygon fill="black" stroke="black" points="2134.89,-75.5 2144.89,-72 2134.89,-68.5 2134.89,-75.5"/>
<text text-anchor="middle" x="2078.9" y="-75.95" font-family="Times,serif" font-size="14.00">QUIT/221:111</text>
</g>
<!-- q25:8 -->
<g id="node18" class="node">
<title>q25:8</title>
<ellipse fill="none" stroke="black" stroke-width="2" cx="2199.4" cy="-18" rx="39.63" ry="18"/>
<text text-anchor="middle" x="2199.4" y="-13.32" font-family="Times,serif" font-size="14.00">q25:8</text>
</g>
<!-- q23:8&#45;&gt;q25:8 -->
<g id="edge20" class="edge">
<title>q23:8&#45;&gt;q25:8</title>
<path fill="none" stroke="black" d="M1998.9,-18C2039.5,-18 2103.1,-18 2147.5,-18"/>
<polygon fill="black" stroke="black" points="2147.39,-21.5 2157.39,-18 2147.39,-14.5 2147.39,-21.5"/>
<text text-anchor="middle" x="2078.9" y="-21.95" font-family="Times,serif" font-size="14.00">RSET/250:8</text>
</g>
<!-- q6:231 -->
<g id="node13" class="node">
<title>q6:231</title>
<ellipse fill="none" stroke="black" stroke-width="2" cx="725.13" cy="-222" rx="45.95" ry="18"/>
<text text-anchor="middle" x="725.13" y="-217.32" font-family="Times,serif" font-size="14.00">q6:231</text>
</g>
<!-- q9:3 -->
<g id="node14" class="node">
<title>q9:3</title>
<ellipse fill="none" stroke="black" stroke-width="2" cx="960.59" cy="-175" rx="33.32" ry="18"/>
<text text-anchor="middle" x="960.59" y="-170.32" font-family="Times,serif" font-size="14.00">q9:3</text>
</g>
<!-- q6:231&#45;&gt;q9:3 -->
<g id="edge15" class="edge">
<title>q6:231&#45;&gt;q9:3</title>
<path fill="none" stroke="black" d="M762.56,-210.67C771.2,-208.19 780.42,-205.73 789.08,-203.75 831.93,-193.96 881.56,-185.96 916.18,-180.91"/>
<polygon fill="black" stroke="black" points="916.41,-184.41 925.81,-179.53 915.41,-177.48 916.41,-184.41"/>
<text text-anchor="middle" x="839.7" y="-207.94" font-family="Times,serif" font-size="14.00">MAIL/553:3</text>
</g>
<!-- q10:228 -->
<g id="node15" class="node">
<title>q10:228</title>
<ellipse fill="none" stroke="black" stroke-width="2" cx="960.59" cy="-229" rx="52.26" ry="18"/>
<text text-anchor="middle" x="960.59" y="-224.32" font-family="Times,serif" font-size="14.00">q10:228</text>
</g>
<!-- q6:231&#45;&gt;q10:228 -->
<g id="edge16" class="edge">
<title>q6:231&#45;&gt;q10:228</title>
<path fill="none" stroke="black" d="M771.7,-223.37C807.2,-224.43 856.92,-225.92 896.29,-227.1"/>
<polygon fill="black" stroke="black" points="896.01,-230.59 906.11,-227.39 896.22,-223.6 896.01,-230.59"/>
<text text-anchor="middle" x="839.7" y="-230.94" font-family="Times,serif" font-size="14.00">MAIL/250:228</text>
</g>
<!-- q14:3 -->
<g id="node16" class="node">
<title>q14:3</title>
<ellipse fill="none" stroke="black" stroke-width="2" cx="1202.8" cy="-175" rx="39.63" ry="18"/>
<text text-anchor="middle" x="1202.8" y="-170.32" font-family="Times,serif" font-size="14.00">q14:3</text>
</g>
<!-- q9:3&#45;&gt;q14:3 -->
<g id="edge17" class="edge">
<title>q9:3&#45;&gt;q14:3</title>
<path fill="none" stroke="black" d="M994.73,-175C1035.1,-175 1103.6,-175 1150.7,-175"/>
<polygon fill="black" stroke="black" points="1150.69,-178.5 1160.69,-175 1150.69,-171.5 1150.69,-178.5"/>
<text text-anchor="middle" x="1084.8" y="-178.94" font-family="Times,serif" font-size="14.00">RSET/250:3</text>
</g>
<!-- q10:228&#45;&gt;q7:232 -->
<g id="edge18" class="edge">
<title>q10:228&#45;&gt;q7:232</title>
<path fill="none" stroke="black" d="M1013.7,-229C1052.3,-229 1104.8,-229 1144.5,-229"/>
<polygon fill="black" stroke="black" points="1144.39,-232.5 1154.39,-229 1144.39,-225.5 1144.39,-232.5"/>
<text text-anchor="middle" x="1084.8" y="-232.94" font-family="Times,serif" font-size="14.00">RCPT/250:228</text>
</g>
<!-- q8:12 -->
<g id="node19" class="node">
<title>q8:12</title>
<ellipse fill="none" stroke="black" stroke-width="2" cx="960.59" cy="-342" rx="39.63" ry="18"/>
<text text-anchor="middle" x="960.59" y="-337.32" font-family="Times,serif" font-size="14.00">q8:12</text>
</g>
<!-- q13:12 -->
<g id="node20" class="node">
<title>q13:12</title>
<ellipse fill="none" stroke="black" stroke-width="2" cx="1202.8" cy="-353" rx="45.95" ry="18"/>
<text text-anchor="middle" x="1202.8" y="-348.32" font-family="Times,serif" font-size="14.00">q13:12</text>
</g>
<!-- q8:12&#45;&gt;q13:12 -->
<g id="edge21" class="edge">
<title>q8:12&#45;&gt;q13:12</title>
<path fill="none" stroke="black" d="M1000.98,-343.8C1040.1,-345.59 1100.4,-348.36 1144.7,-350.39"/>
<polygon fill="black" stroke="black" points="1144.54,-353.89 1154.69,-350.84 1144.86,-346.89 1144.54,-353.89"/>
<text text-anchor="middle" x="1084.8" y="-353.94" font-family="Times,serif" font-size="14.00">content/535:12</text>
</g>
<!-- q20:3 -->
<g id="node21" class="node">
<title>q20:3</title>
<ellipse fill="none" stroke="black" stroke-width="2" cx="1439.8" cy="-355" rx="39.63" ry="18"/>
<text text-anchor="middle" x="1439.8" y="-350.32" font-family="Times,serif" font-size="14.00">q20:3</text>
</g>
<!-- q13:12&#45;&gt;q20:3 -->
<g id="edge22" class="edge">
<title>q13:12&#45;&gt;q20:3</title>
<path fill="none" stroke="black" d="M1249.7,-353.39C1289.4,-353.73 1346.7,-354.22 1387.8,-354.57"/>
<polygon fill="black" stroke="black" points="1387.76,-358.07 1397.79,-354.65 1387.81,-351.07 1387.76,-358.07"/>
<text text-anchor="middle" x="1318.1" y="-357.94" font-family="Times,serif" font-size="14.00">λ/451:3</text>
</g>
<!-- q4:1 -->
<g id="node22" class="node">
<title>q4:1</title>
<ellipse fill="none" stroke="black" stroke-width="2" cx="839.7" cy="-288" rx="33.32" ry="18"/>
<text text-anchor="middle" x="839.7" y="-283.32" font-family="Times,serif" font-size="14.00">q4:1</text>
</g>
<!-- q4:1&#45;&gt;q7:232 -->
<g id="edge23" class="edge">
<title>q4:1&#45;&gt;q7:232</title>
<path fill="none" stroke="black" d="M873.71,-285.91C929.09,-281.93 1044,-271.65 1138.8,-250 1144.8,-248.64 1151,-246.94 1157.1,-245.1"/>
<polygon fill="black" stroke="black" points="1157.9,-248.52 1166.36,-242.14 1155.77,-241.85 1157.9,-248.52"/>
<text text-anchor="middle" x="960.59" y="-285.94" font-family="Times,serif" font-size="14.00">MAIL/250:1</text>
</g>
<!-- q1:244 -->
<g id="node23" class="node">
<title>q1:244</title>
<ellipse fill="none" stroke="black" stroke-width="2" cx="257.84" cy="-249" rx="45.95" ry="18"/>
<text text-anchor="middle" x="257.84" y="-244.32" font-family="Times,serif" font-size="14.00">q1:244</text>
</g>
<!-- q2:243 -->
<g id="node24" class="node">
<title>q2:243</title>
<ellipse fill="none" stroke="black" stroke-width="2" cx="491.48" cy="-282" rx="45.95" ry="18"/>
<text text-anchor="middle" x="491.48" y="-277.32" font-family="Times,serif" font-size="14.00">q2:243</text>
</g>
<!-- q1:244&#45;&gt;q2:243 -->
<g id="edge24" class="edge">
<title>q1:244&#45;&gt;q2:243</title>
<path fill="none" stroke="black" d="M302.14,-255.17C340,-260.56 395.17,-268.42 436.02,-274.24"/>
<polygon fill="black" stroke="black" points="435.51,-277.7 445.9,-275.65 436.49,-270.77 435.51,-277.7"/>
<text text-anchor="middle" x="374.66" y="-275.94" font-family="Times,serif" font-size="14.00">EHLO/250:243</text>
</g>
<!-- q3:1 -->
<g id="node25" class="node">
<title>q3:1</title>
<ellipse fill="none" stroke="black" stroke-width="2" cx="491.48" cy="-222" rx="33.32" ry="18"/>
<text text-anchor="middle" x="491.48" y="-217.32" font-family="Times,serif" font-size="14.00">q3:1</text>
</g>
<!-- q1:244&#45;&gt;q3:1 -->
<g id="edge25" class="edge">
<title>q1:244&#45;&gt;q3:1</title>
<path fill="none" stroke="black" d="M298.66,-239.83C306.31,-238.29 314.27,-236.84 321.79,-235.75 363.67,-229.66 411.82,-226.07 445.93,-224.1"/>
<polygon fill="black" stroke="black" points="446.07,-227.6 455.86,-223.54 445.68,-220.61 446.07,-227.6"/>
<text text-anchor="middle" x="374.66" y="-239.94" font-family="Times,serif" font-size="14.00">EHLO/λ:1</text>
</g>
<!-- q2:243&#45;&gt;q6:231 -->
<g id="edge26" class="edge">
<title>q2:243&#45;&gt;q6:231</title>
<path fill="none" stroke="black" d="M518.34,-266.45C529.42,-260.41 542.72,-253.94 555.43,-249.75 591.87,-237.75 634.52,-230.79 667.82,-226.84"/>
<polygon fill="black" stroke="black" points="668.13,-230.33 677.68,-225.74 667.35,-223.37 668.13,-230.33"/>
<text text-anchor="middle" x="608.31" y="-253.94" font-family="Times,serif" font-size="14.00">AUTH/235:230</text>
</g>
<!-- q2:243&#45;&gt;q4:1 -->
<g id="edge27" class="edge">
<title>q2:243&#45;&gt;q4:1</title>
<path fill="none" stroke="black" d="M538.1,-282.79C604.79,-283.95 728.13,-286.08 794.18,-287.23"/>
<polygon fill="black" stroke="black" points="793.87,-290.73 803.93,-287.39 793.99,-283.73 793.87,-290.73"/>
<text text-anchor="middle" x="608.31" y="-287.94" font-family="Times,serif" font-size="14.00">AUTH/λ:1</text>
</g>
<!-- q5:12 -->
<g id="node26" class="node">
<title>q5:12</title>
<ellipse fill="none" stroke="black" stroke-width="2" cx="725.13" cy="-338" rx="39.63" ry="18"/>
<text text-anchor="middle" x="725.13" y="-333.32" font-family="Times,serif" font-size="14.00">q5:12</text>
</g>
<!-- q2:243&#45;&gt;q5:12 -->
<g id="edge28" class="edge">
<title>q2:243&#45;&gt;q5:12</title>
<path fill="none" stroke="black" d="M521.04,-296.55C531.62,-301.44 543.86,-306.53 555.43,-310 594.52,-321.73 640.27,-328.93 674.26,-333.09"/>
<polygon fill="black" stroke="black" points="673.47,-336.52 683.81,-334.21 674.28,-329.57 673.47,-336.52"/>
<text text-anchor="middle" x="608.31" y="-334.94" font-family="Times,serif" font-size="14.00">AUTH/535:12</text>
</g>
<!-- q3:1&#45;&gt;q6:231 -->
<g id="edge29" class="edge">
<title>q3:1&#45;&gt;q6:231</title>
<path fill="none" stroke="black" d="M523.05,-214.83C533.28,-212.75 544.79,-210.78 555.43,-209.75 602.21,-205.24 614.4,-205.24 661.18,-209.75 665.01,-210.12 668.95,-210.61 672.91,-211.19"/>
<polygon fill="black" stroke="black" points="672.07,-214.6 682.51,-212.76 673.2,-207.69 672.07,-214.6"/>
<text text-anchor="middle" x="608.31" y="-213.94" font-family="Times,serif" font-size="14.00">AUTH/235:1</text>
</g>
<!-- q5:12&#45;&gt;q8:12 -->
<g id="edge30" class="edge">
<title>q5:12&#45;&gt;q8:12</title>
<path fill="none" stroke="black" d="M765.73,-338.68C805.17,-339.35 865.88,-340.39 908.84,-341.13"/>
<polygon fill="black" stroke="black" points="908.61,-344.63 918.67,-341.29 908.73,-337.63 908.61,-344.63"/>
<text text-anchor="middle" x="839.7" y="-343.94" font-family="Times,serif" font-size="14.00">AUTH/334:12</text>
</g>
<!-- q0:244 -->
<g id="node27" class="node">
<title>q0:244</title>
<ellipse fill="none" stroke="black" stroke-width="2" cx="53.95" cy="-249" rx="49.95" ry="49.95"/>
<ellipse fill="none" stroke="black" stroke-width="2" cx="53.95" cy="-249" rx="53.95" ry="53.95"/>
<text text-anchor="middle" x="53.95" y="-244.32" font-family="Times,serif" font-size="14.00">q0:244</text>
</g>
<!-- q0:244&#45;&gt;q1:244 -->
<g id="edge31" class="edge">
<title>q0:244&#45;&gt;q1:244</title>
<path fill="none" stroke="black" d="M104.85,-249C133.64,-249 169.94,-249 199.84,-249"/>
<polygon fill="black" stroke="black" points="199.45,-252.5 209.45,-249 199.45,-245.5 199.45,-252.5"/>
<text text-anchor="middle" x="157.89" y="-252.94" font-family="Times,serif" font-size="14.00">λ/220:244</text>
</g>
</g>
</svg>
