<?xml version="1.0" encoding="UTF-8" standalone="no"?>
<!DOCTYPE svg PUBLIC "-//W3C//DTD SVG 1.1//EN"
 "http://www.w3.org/Graphics/SVG/1.1/DTD/svg11.dtd">
<!-- Generated by graphviz version 12.0.0 (20240803.0821)
 -->
<!-- Pages: 1 -->
<svg width="1521pt" height="477pt"
 viewBox="0.00 0.00 1520.75 477.00" xmlns="http://www.w3.org/2000/svg" xmlns:xlink="http://www.w3.org/1999/xlink">
<g id="graph0" class="graph" transform="scale(1 1) rotate(0) translate(4 473)">
<polygon fill="white" stroke="none" points="-4,4 -4,-473 1516.75,-473 1516.75,4 -4,4"/>
<!-- q14:165 -->
<g id="node1" class="node">
<title>q14:165</title>
<ellipse fill="none" stroke="black" stroke-width="2" cx="744.07" cy="-397" rx="52.26" ry="18"/>
<text text-anchor="middle" x="744.07" y="-392.32" font-family="Times,serif" font-size="14.00">q14:165</text>
</g>
<!-- q14:165&#45;&gt;q14:165 -->
<g id="edge1" class="edge">
<title>q14:165&#45;&gt;q14:165</title>
<path fill="none" stroke="black" d="M722.25,-414.04C717.8,-423.86 725.07,-433 744.07,-433 755.05,-433 762.12,-429.94 765.26,-425.47"/>
<polygon fill="black" stroke="black" points="768.75,-425.73 765.81,-415.55 761.76,-425.34 768.75,-425.73"/>
<text text-anchor="middle" x="744.07" y="-436.94" font-family="Times,serif" font-size="14.00">content/λ:74</text>
</g>
<!-- q18:67 -->
<g id="node2" class="node">
<title>q18:67</title>
<ellipse fill="none" stroke="black" stroke-width="2" cx="998.9" cy="-397" rx="45.95" ry="18"/>
<text text-anchor="middle" x="998.9" y="-392.32" font-family="Times,serif" font-size="14.00">q18:67</text>
</g>
<!-- q14:165&#45;&gt;q18:67 -->
<g id="edge2" class="edge">
<title>q14:165&#45;&gt;q18:67</title>
<path fill="none" stroke="black" d="M797.15,-397C838.99,-397 897.69,-397 940.81,-397"/>
<polygon fill="black" stroke="black" points="940.74,-400.5 950.74,-397 940.74,-393.5 940.74,-400.5"/>
<text text-anchor="middle" x="868.33" y="-400.94" font-family="Times,serif" font-size="14.00">content/554:67</text>
</g>
<!-- q19:24 -->
<g id="node3" class="node">
<title>q19:24</title>
<ellipse fill="none" stroke="black" stroke-width="2" cx="998.9" cy="-451" rx="45.95" ry="18"/>
<text text-anchor="middle" x="998.9" y="-446.32" font-family="Times,serif" font-size="14.00">q19:24</text>
</g>
<!-- q14:165&#45;&gt;q19:24 -->
<g id="edge3" class="edge">
<title>q14:165&#45;&gt;q19:24</title>
<path fill="none" stroke="black" d="M783.68,-409.58C793.61,-412.57 804.31,-415.59 814.33,-418 857.55,-428.4 907.22,-437.14 943.98,-443"/>
<polygon fill="black" stroke="black" points="943.03,-446.39 953.45,-444.49 944.12,-439.48 943.03,-446.39"/>
<text text-anchor="middle" x="868.33" y="-441.94" font-family="Times,serif" font-size="14.00">content/250:24</text>
</g>
<!-- q23:67 -->
<g id="node4" class="node">
<title>q23:67</title>
<ellipse fill="none" stroke="black" stroke-width="2" cx="1247.4" cy="-397" rx="45.95" ry="18"/>
<text text-anchor="middle" x="1247.4" y="-392.32" font-family="Times,serif" font-size="14.00">q23:67</text>
</g>
<!-- q18:67&#45;&gt;q23:67 -->
<g id="edge4" class="edge">
<title>q18:67&#45;&gt;q23:67</title>
<path fill="none" stroke="black" d="M1045.7,-397C1086.3,-397 1145.9,-397 1189.6,-397"/>
<polygon fill="black" stroke="black" points="1189.39,-400.5 1199.39,-397 1189.39,-393.5 1189.39,-400.5"/>
<text text-anchor="middle" x="1129.5" y="-400.94" font-family="Times,serif" font-size="14.00">RSET/250:67</text>
</g>
<!-- q24:24 -->
<g id="node5" class="node">
<title>q24:24</title>
<ellipse fill="none" stroke="black" stroke-width="2" cx="1247.4" cy="-451" rx="45.95" ry="18"/>
<text text-anchor="middle" x="1247.4" y="-446.32" font-family="Times,serif" font-size="14.00">q24:24</text>
</g>
<!-- q19:24&#45;&gt;q24:24 -->
<g id="edge5" class="edge">
<title>q19:24&#45;&gt;q24:24</title>
<path fill="none" stroke="black" d="M1045.7,-451C1086.3,-451 1145.9,-451 1189.6,-451"/>
<polygon fill="black" stroke="black" points="1189.39,-454.5 1199.39,-451 1189.39,-447.5 1189.39,-454.5"/>
<text text-anchor="middle" x="1129.5" y="-454.94" font-family="Times,serif" font-size="14.00">QUIT/221:24</text>
</g>
<!-- q21:89 -->
<g id="node6" class="node">
<title>q21:89</title>
<ellipse fill="none" stroke="black" stroke-width="2" cx="1247.4" cy="-289" rx="45.95" ry="18"/>
<text text-anchor="middle" x="1247.4" y="-284.32" font-family="Times,serif" font-size="14.00">q21:89</text>
</g>
<!-- q26:89 -->
<g id="node7" class="node">
<title>q26:89</title>
<ellipse fill="none" stroke="black" stroke-width="2" cx="1466.8" cy="-289" rx="45.95" ry="18"/>
<text text-anchor="middle" x="1466.8" y="-284.32" font-family="Times,serif" font-size="14.00">q26:89</text>
</g>
<!-- q21:89&#45;&gt;q26:89 -->
<g id="edge6" class="edge">
<title>q21:89&#45;&gt;q26:89</title>
<path fill="none" stroke="black" d="M1294.3,-289C1327.6,-289 1373.1,-289 1408.8,-289"/>
<polygon fill="black" stroke="black" points="1408.49,-292.5 1418.49,-289 1408.49,-285.5 1408.49,-292.5"/>
<text text-anchor="middle" x="1357.1" y="-292.94" font-family="Times,serif" font-size="14.00">QUIT/221:89</text>
</g>
<!-- q13:143 -->
<g id="node8" class="node">
<title>q13:143</title>
<ellipse fill="none" stroke="black" stroke-width="2" cx="744.07" cy="-256" rx="52.26" ry="18"/>
<text text-anchor="middle" x="744.07" y="-251.32" font-family="Times,serif" font-size="14.00">q13:143</text>
</g>
<!-- q17:43 -->
<g id="node9" class="node">
<title>q17:43</title>
<ellipse fill="none" stroke="black" stroke-width="2" cx="998.9" cy="-252" rx="45.95" ry="18"/>
<text text-anchor="middle" x="998.9" y="-247.32" font-family="Times,serif" font-size="14.00">q17:43</text>
</g>
<!-- q13:143&#45;&gt;q17:43 -->
<g id="edge7" class="edge">
<title>q13:143&#45;&gt;q17:43</title>
<path fill="none" stroke="black" d="M797.15,-255.18C838.99,-254.51 897.69,-253.59 940.81,-252.9"/>
<polygon fill="black" stroke="black" points="940.79,-256.4 950.74,-252.74 940.68,-249.4 940.79,-256.4"/>
<text text-anchor="middle" x="868.33" y="-257.94" font-family="Times,serif" font-size="14.00">DATA/550:43</text>
</g>
<!-- q7:234 -->
<g id="node10" class="node">
<title>q7:234</title>
<ellipse fill="none" stroke="black" stroke-width="2" cx="998.9" cy="-167" rx="45.95" ry="18"/>
<text text-anchor="middle" x="998.9" y="-162.32" font-family="Times,serif" font-size="14.00">q7:234</text>
</g>
<!-- q13:143&#45;&gt;q7:234 -->
<g id="edge8" class="edge">
<title>q13:143&#45;&gt;q7:234</title>
<path fill="none" stroke="black" d="M782.45,-242.91C792.78,-239.29 803.99,-235.37 814.33,-231.75 862.32,-214.96 874.39,-210.94 922.33,-194 932.27,-190.49 942.93,-186.69 953.02,-183.09"/>
<polygon fill="black" stroke="black" points="954.02,-186.45 962.25,-179.79 951.66,-179.86 954.02,-186.45"/>
<text text-anchor="middle" x="868.33" y="-234.94" font-family="Times,serif" font-size="14.00">RCPT/250:3</text>
</g>
<!-- q16:2518 -->
<g id="node11" class="node">
<title>q16:2518</title>
<ellipse fill="none" stroke="black" stroke-width="2" cx="998.9" cy="-306" rx="58.57" ry="18"/>
<text text-anchor="middle" x="998.9" y="-301.32" font-family="Times,serif" font-size="14.00">q16:2518</text>
</g>
<!-- q13:143&#45;&gt;q16:2518 -->
<g id="edge9" class="edge">
<title>q13:143&#45;&gt;q16:2518</title>
<path fill="none" stroke="black" d="M785.55,-267.84C794.95,-270.38 804.95,-272.93 814.33,-275 853.63,-283.69 898.13,-291.26 933.47,-296.74"/>
<polygon fill="black" stroke="black" points="932.7,-300.16 943.11,-298.22 933.76,-293.24 932.7,-300.16"/>
<text text-anchor="middle" x="868.33" y="-297.94" font-family="Times,serif" font-size="14.00">DATA/354:97</text>
</g>
<!-- q10:234 -->
<g id="node12" class="node">
<title>q10:234</title>
<ellipse fill="none" stroke="black" stroke-width="2" cx="497.8" cy="-256" rx="52.26" ry="18"/>
<text text-anchor="middle" x="497.8" y="-251.32" font-family="Times,serif" font-size="14.00">q10:234</text>
</g>
<!-- q7:234&#45;&gt;q10:234 -->
<g id="edge10" class="edge">
<title>q7:234&#45;&gt;q10:234</title>
<path fill="none" stroke="black" d="M953.87,-172.31C894.24,-179.76 784.58,-194.36 691.81,-211.75 644.45,-220.63 591.09,-233.05 552.5,-242.47"/>
<polygon fill="black" stroke="black" points="551.86,-239.02 542.99,-244.81 553.54,-245.82 551.86,-239.02"/>
<text text-anchor="middle" x="744.07" y="-214.94" font-family="Times,serif" font-size="14.00">RCPT/250:234</text>
</g>
<!-- q16:2518&#45;&gt;q21:89 -->
<g id="edge11" class="edge">
<title>q16:2518&#45;&gt;q21:89</title>
<path fill="none" stroke="black" d="M1056.8,-302.04C1063.1,-301.6 1069.4,-301.17 1075.5,-300.75 1113.7,-298.11 1156.7,-295.15 1190.1,-292.86"/>
<polygon fill="black" stroke="black" points="1190.15,-296.36 1199.89,-292.18 1189.67,-289.38 1190.15,-296.36"/>
<text text-anchor="middle" x="1129.5" y="-303.94" font-family="Times,serif" font-size="14.00">content/250:89</text>
</g>
<!-- q16:2518&#45;&gt;q16:2518 -->
<g id="edge12" class="edge">
<title>q16:2518&#45;&gt;q16:2518</title>
<path fill="none" stroke="black" d="M975.59,-323.41C971.24,-333.09 979.01,-342 998.9,-342 1010.4,-342 1017.9,-339.02 1021.2,-334.64"/>
<polygon fill="black" stroke="black" points="1024.66,-335.19 1022.07,-324.92 1017.69,-334.57 1024.66,-335.19"/>
<text text-anchor="middle" x="998.9" y="-345.94" font-family="Times,serif" font-size="14.00">content/λ:2421</text>
</g>
<!-- q22:1 -->
<g id="node13" class="node">
<title>q22:1</title>
<ellipse fill="none" stroke="black" stroke-width="2" cx="1247.4" cy="-235" rx="39.63" ry="18"/>
<text text-anchor="middle" x="1247.4" y="-230.32" font-family="Times,serif" font-size="14.00">q22:1</text>
</g>
<!-- q16:2518&#45;&gt;q22:1 -->
<g id="edge13" class="edge">
<title>q16:2518&#45;&gt;q22:1</title>
<path fill="none" stroke="black" d="M1032.3,-290.49C1048.7,-282.8 1066.9,-274.57 1075.5,-271.75 1115.8,-258.46 1163,-248.73 1197.6,-242.64"/>
<polygon fill="black" stroke="black" points="1198.05,-246.11 1207.31,-240.97 1196.86,-239.22 1198.05,-246.11"/>
<text text-anchor="middle" x="1129.5" y="-274.94" font-family="Times,serif" font-size="14.00">content/550:1</text>
</g>
<!-- q20:7 -->
<g id="node14" class="node">
<title>q20:7</title>
<ellipse fill="none" stroke="black" stroke-width="2" cx="1247.4" cy="-343" rx="39.63" ry="18"/>
<text text-anchor="middle" x="1247.4" y="-338.32" font-family="Times,serif" font-size="14.00">q20:7</text>
</g>
<!-- q16:2518&#45;&gt;q20:7 -->
<g id="edge14" class="edge">
<title>q16:2518&#45;&gt;q20:7</title>
<path fill="none" stroke="black" d="M1051.9,-314.35C1059.8,-315.59 1067.9,-316.84 1075.5,-318 1116.6,-324.28 1163.4,-331.1 1197.6,-336.03"/>
<polygon fill="black" stroke="black" points="1196.81,-339.45 1207.2,-337.41 1197.8,-332.52 1196.81,-339.45"/>
<text text-anchor="middle" x="1129.5" y="-336.94" font-family="Times,serif" font-size="14.00">content/554:7</text>
</g>
<!-- q10:234&#45;&gt;q14:165 -->
<g id="edge15" class="edge">
<title>q10:234&#45;&gt;q14:165</title>
<path fill="none" stroke="black" d="M526.34,-271.9C570.26,-297.25 656.21,-346.86 705.66,-375.4"/>
<polygon fill="black" stroke="black" points="703.9,-378.43 714.31,-380.4 707.4,-372.37 703.9,-378.43"/>
<text text-anchor="middle" x="620.93" y="-358.94" font-family="Times,serif" font-size="14.00">DATA/354:91</text>
</g>
<!-- q10:234&#45;&gt;q13:143 -->
<g id="edge16" class="edge">
<title>q10:234&#45;&gt;q13:143</title>
<path fill="none" stroke="black" d="M550.9,-256C588.52,-256 639.53,-256 679.54,-256"/>
<polygon fill="black" stroke="black" points="679.54,-259.5 689.54,-256 679.54,-252.5 679.54,-259.5"/>
<text text-anchor="middle" x="620.93" y="-259.94" font-family="Times,serif" font-size="14.00">RCPT/250:143</text>
</g>
<!-- q27:1 -->
<g id="node15" class="node">
<title>q27:1</title>
<ellipse fill="none" stroke="black" stroke-width="2" cx="1466.8" cy="-235" rx="39.63" ry="18"/>
<text text-anchor="middle" x="1466.8" y="-230.32" font-family="Times,serif" font-size="14.00">q27:1</text>
</g>
<!-- q22:1&#45;&gt;q27:1 -->
<g id="edge17" class="edge">
<title>q22:1&#45;&gt;q27:1</title>
<path fill="none" stroke="black" d="M1288,-235C1323.8,-235 1376.7,-235 1415.4,-235"/>
<polygon fill="black" stroke="black" points="1414.99,-238.5 1424.99,-235 1414.99,-231.5 1414.99,-238.5"/>
<text text-anchor="middle" x="1357.1" y="-238.94" font-family="Times,serif" font-size="14.00">RSET/250:1</text>
</g>
<!-- q25:7 -->
<g id="node16" class="node">
<title>q25:7</title>
<ellipse fill="none" stroke="black" stroke-width="2" cx="1466.8" cy="-343" rx="39.63" ry="18"/>
<text text-anchor="middle" x="1466.8" y="-338.32" font-family="Times,serif" font-size="14.00">q25:7</text>
</g>
<!-- q20:7&#45;&gt;q25:7 -->
<g id="edge18" class="edge">
<title>q20:7&#45;&gt;q25:7</title>
<path fill="none" stroke="black" d="M1288,-343C1323.8,-343 1376.7,-343 1415.4,-343"/>
<polygon fill="black" stroke="black" points="1414.99,-346.5 1424.99,-343 1414.99,-339.5 1414.99,-346.5"/>
<text text-anchor="middle" x="1357.1" y="-346.94" font-family="Times,serif" font-size="14.00">RSET/250:7</text>
</g>
<!-- q2:242 -->
<g id="node17" class="node">
<title>q2:242</title>
<ellipse fill="none" stroke="black" stroke-width="2" cx="497.8" cy="-76" rx="45.95" ry="18"/>
<text text-anchor="middle" x="497.8" y="-71.33" font-family="Times,serif" font-size="14.00">q2:242</text>
</g>
<!-- q4:1 -->
<g id="node18" class="node">
<title>q4:1</title>
<ellipse fill="none" stroke="black" stroke-width="2" cx="744.07" cy="-129" rx="33.32" ry="18"/>
<text text-anchor="middle" x="744.07" y="-124.33" font-family="Times,serif" font-size="14.00">q4:1</text>
</g>
<!-- q2:242&#45;&gt;q4:1 -->
<g id="edge19" class="edge">
<title>q2:242&#45;&gt;q4:1</title>
<path fill="none" stroke="black" d="M541.08,-83.17C576.65,-89.44 628.77,-99.17 673.81,-109.75 683.33,-111.99 693.51,-114.66 703.05,-117.29"/>
<polygon fill="black" stroke="black" points="701.85,-120.59 712.42,-119.92 703.74,-113.85 701.85,-120.59"/>
<text text-anchor="middle" x="620.93" y="-112.95" font-family="Times,serif" font-size="14.00">AUTH/λ:1</text>
</g>
<!-- q6:233 -->
<g id="node19" class="node">
<title>q6:233</title>
<ellipse fill="none" stroke="black" stroke-width="2" cx="744.07" cy="-75" rx="45.95" ry="18"/>
<text text-anchor="middle" x="744.07" y="-70.33" font-family="Times,serif" font-size="14.00">q6:233</text>
</g>
<!-- q2:242&#45;&gt;q6:233 -->
<g id="edge20" class="edge">
<title>q2:242&#45;&gt;q6:233</title>
<path fill="none" stroke="black" d="M543.1,-71.41C551.38,-70.72 559.98,-70.11 568.06,-69.75 615.01,-67.64 626.84,-67.97 673.81,-69.75 678.16,-69.92 682.66,-70.14 687.18,-70.4"/>
<polygon fill="black" stroke="black" points="686.68,-73.87 696.88,-71.02 687.12,-66.89 686.68,-73.87"/>
<text text-anchor="middle" x="620.93" y="-72.95" font-family="Times,serif" font-size="14.00">AUTH/235:231</text>
</g>
<!-- q5:10 -->
<g id="node20" class="node">
<title>q5:10</title>
<ellipse fill="none" stroke="black" stroke-width="2" cx="744.07" cy="-21" rx="39.63" ry="18"/>
<text text-anchor="middle" x="744.07" y="-16.32" font-family="Times,serif" font-size="14.00">q5:10</text>
</g>
<!-- q2:242&#45;&gt;q5:10 -->
<g id="edge21" class="edge">
<title>q2:242&#45;&gt;q5:10</title>
<path fill="none" stroke="black" d="M528.21,-61.63C540.3,-56.24 554.61,-50.51 568.06,-46.75 609.42,-35.17 657.83,-28.56 693.23,-24.94"/>
<polygon fill="black" stroke="black" points="693.13,-28.47 702.74,-24.02 692.45,-21.5 693.13,-28.47"/>
<text text-anchor="middle" x="620.93" y="-49.95" font-family="Times,serif" font-size="14.00">AUTH/535:10</text>
</g>
<!-- q4:1&#45;&gt;q7:234 -->
<g id="edge22" class="edge">
<title>q4:1&#45;&gt;q7:234</title>
<path fill="none" stroke="black" d="M777.52,-132.46C813.14,-136.42 871.97,-143.45 922.33,-151.75 930.14,-153.04 938.37,-154.54 946.42,-156.1"/>
<polygon fill="black" stroke="black" points="945.63,-159.51 956.11,-158.02 946.98,-152.64 945.63,-159.51"/>
<text text-anchor="middle" x="868.33" y="-154.94" font-family="Times,serif" font-size="14.00">MAIL/250:1</text>
</g>
<!-- q6:233&#45;&gt;q7:234 -->
<g id="edge23" class="edge">
<title>q6:233&#45;&gt;q7:234</title>
<path fill="none" stroke="black" d="M785.78,-83.53C834.14,-93.8 909.88,-110.33 922.33,-115.75 938.58,-122.83 955.06,-133.51 968.46,-143.29"/>
<polygon fill="black" stroke="black" points="966.32,-146.06 976.42,-149.28 970.53,-140.47 966.32,-146.06"/>
<text text-anchor="middle" x="868.33" y="-118.95" font-family="Times,serif" font-size="14.00">MAIL/250:230</text>
</g>
<!-- q9:3 -->
<g id="node21" class="node">
<title>q9:3</title>
<ellipse fill="none" stroke="black" stroke-width="2" cx="998.9" cy="-72" rx="33.32" ry="18"/>
<text text-anchor="middle" x="998.9" y="-67.33" font-family="Times,serif" font-size="14.00">q9:3</text>
</g>
<!-- q6:233&#45;&gt;q9:3 -->
<g id="edge24" class="edge">
<title>q6:233&#45;&gt;q9:3</title>
<path fill="none" stroke="black" d="M790.51,-72.56C798.45,-72.22 806.63,-71.93 814.33,-71.75 861.77,-70.64 916.12,-70.9 953.3,-71.32"/>
<polygon fill="black" stroke="black" points="953.17,-74.82 963.22,-71.44 953.26,-67.82 953.17,-74.82"/>
<text text-anchor="middle" x="868.33" y="-74.95" font-family="Times,serif" font-size="14.00">MAIL/553:3</text>
</g>
<!-- q8:10 -->
<g id="node22" class="node">
<title>q8:10</title>
<ellipse fill="none" stroke="black" stroke-width="2" cx="998.9" cy="-18" rx="39.63" ry="18"/>
<text text-anchor="middle" x="998.9" y="-13.32" font-family="Times,serif" font-size="14.00">q8:10</text>
</g>
<!-- q5:10&#45;&gt;q8:10 -->
<g id="edge25" class="edge">
<title>q5:10&#45;&gt;q8:10</title>
<path fill="none" stroke="black" d="M784.57,-20.53C828.45,-20.01 899.41,-19.17 947.32,-18.6"/>
<polygon fill="black" stroke="black" points="947.2,-22.1 957.16,-18.48 947.12,-15.1 947.2,-22.1"/>
<text text-anchor="middle" x="868.33" y="-23.95" font-family="Times,serif" font-size="14.00">AUTH/334:10</text>
</g>
<!-- q12:3 -->
<g id="node23" class="node">
<title>q12:3</title>
<ellipse fill="none" stroke="black" stroke-width="2" cx="1247.4" cy="-72" rx="39.63" ry="18"/>
<text text-anchor="middle" x="1247.4" y="-67.33" font-family="Times,serif" font-size="14.00">q12:3</text>
</g>
<!-- q9:3&#45;&gt;q12:3 -->
<g id="edge26" class="edge">
<title>q9:3&#45;&gt;q12:3</title>
<path fill="none" stroke="black" d="M1033.1,-72C1075,-72 1147.3,-72 1196,-72"/>
<polygon fill="black" stroke="black" points="1195.69,-75.5 1205.69,-72 1195.69,-68.5 1195.69,-75.5"/>
<text text-anchor="middle" x="1129.5" y="-75.95" font-family="Times,serif" font-size="14.00">RSET/250:3</text>
</g>
<!-- q11:10 -->
<g id="node24" class="node">
<title>q11:10</title>
<ellipse fill="none" stroke="black" stroke-width="2" cx="1247.4" cy="-18" rx="45.95" ry="18"/>
<text text-anchor="middle" x="1247.4" y="-13.32" font-family="Times,serif" font-size="14.00">q11:10</text>
</g>
<!-- q8:10&#45;&gt;q11:10 -->
<g id="edge27" class="edge">
<title>q8:10&#45;&gt;q11:10</title>
<path fill="none" stroke="black" d="M1039.5,-18C1080,-18 1143.4,-18 1189.3,-18"/>
<polygon fill="black" stroke="black" points="1189.09,-21.5 1199.09,-18 1189.09,-14.5 1189.09,-21.5"/>
<text text-anchor="middle" x="1129.5" y="-21.95" font-family="Times,serif" font-size="14.00">content/535:10</text>
</g>
<!-- q15:2 -->
<g id="node27" class="node">
<title>q15:2</title>
<ellipse fill="none" stroke="black" stroke-width="2" cx="1466.8" cy="-18" rx="39.63" ry="18"/>
<text text-anchor="middle" x="1466.8" y="-13.32" font-family="Times,serif" font-size="14.00">q15:2</text>
</g>
<!-- q11:10&#45;&gt;q15:2 -->
<g id="edge31" class="edge">
<title>q11:10&#45;&gt;q15:2</title>
<path fill="none" stroke="black" d="M1294.3,-18C1329.6,-18 1378.3,-18 1414.8,-18"/>
<polygon fill="black" stroke="black" points="1414.69,-21.5 1424.69,-18 1414.69,-14.5 1414.69,-21.5"/>
<text text-anchor="middle" x="1357.1" y="-21.95" font-family="Times,serif" font-size="14.00">λ/451:2</text>
</g>
<!-- q1:244 -->
<g id="node25" class="node">
<title>q1:244</title>
<ellipse fill="none" stroke="black" stroke-width="2" cx="257.84" cy="-103" rx="45.95" ry="18"/>
<text text-anchor="middle" x="257.84" y="-98.33" font-family="Times,serif" font-size="14.00">q1:244</text>
</g>
<!-- q1:244&#45;&gt;q2:242 -->
<g id="edge28" class="edge">
<title>q1:244&#45;&gt;q2:242</title>
<path fill="none" stroke="black" d="M296.21,-92.1C304.56,-90.02 313.43,-88.07 321.79,-86.75 360.96,-80.55 405.58,-77.88 439.97,-76.75"/>
<polygon fill="black" stroke="black" points="439.8,-80.25 449.7,-76.46 439.6,-73.25 439.8,-80.25"/>
<text text-anchor="middle" x="374.66" y="-89.95" font-family="Times,serif" font-size="14.00">EHLO/250:242</text>
</g>
<!-- q3:2 -->
<g id="node26" class="node">
<title>q3:2</title>
<ellipse fill="none" stroke="black" stroke-width="2" cx="497.8" cy="-143" rx="33.32" ry="18"/>
<text text-anchor="middle" x="497.8" y="-138.32" font-family="Times,serif" font-size="14.00">q3:2</text>
</g>
<!-- q1:244&#45;&gt;q3:2 -->
<g id="edge29" class="edge">
<title>q1:244&#45;&gt;q3:2</title>
<path fill="none" stroke="black" d="M301.11,-110.11C344.17,-117.34 410.61,-128.51 453.9,-135.79"/>
<polygon fill="black" stroke="black" points="453.24,-139.23 463.69,-137.44 454.41,-132.33 453.24,-139.23"/>
<text text-anchor="middle" x="374.66" y="-134.94" font-family="Times,serif" font-size="14.00">EHLO/λ:2</text>
</g>
<!-- q3:2&#45;&gt;q6:233 -->
<g id="edge30" class="edge">
<title>q3:2&#45;&gt;q6:233</title>
<path fill="none" stroke="black" d="M530.84,-147.64C567.84,-151.37 629.3,-152.42 673.81,-127 685.7,-120.21 681.48,-110.98 691.81,-102 694.95,-99.27 698.42,-96.71 702.03,-94.34"/>
<polygon fill="black" stroke="black" points="703.67,-97.44 710.47,-89.32 700.09,-91.43 703.67,-97.44"/>
<text text-anchor="middle" x="620.93" y="-152.94" font-family="Times,serif" font-size="14.00">AUTH/235:2</text>
</g>
<!-- q0:244 -->
<g id="node28" class="node">
<title>q0:244</title>
<ellipse fill="none" stroke="black" stroke-width="2" cx="53.95" cy="-103" rx="49.95" ry="49.95"/>
<ellipse fill="none" stroke="black" stroke-width="2" cx="53.95" cy="-103" rx="53.95" ry="53.95"/>
<text text-anchor="middle" x="53.95" y="-98.33" font-family="Times,serif" font-size="14.00">q0:244</text>
</g>
<!-- q0:244&#45;&gt;q1:244 -->
<g id="edge32" class="edge">
<title>q0:244&#45;&gt;q1:244</title>
<path fill="none" stroke="black" d="M104.85,-103C133.64,-103 169.94,-103 199.84,-103"/>
<polygon fill="black" stroke="black" points="199.45,-106.5 209.45,-103 199.45,-99.5 199.45,-106.5"/>
<text text-anchor="middle" x="157.89" y="-106.95" font-family="Times,serif" font-size="14.00">λ/220:244</text>
</g>
</g>
</svg>
