<?xml version="1.0" encoding="UTF-8" standalone="no"?>
<!DOCTYPE svg PUBLIC "-//W3C//DTD SVG 1.1//EN"
 "http://www.w3.org/Graphics/SVG/1.1/DTD/svg11.dtd">
<!-- Generated by graphviz version 12.0.0 (20240803.0821)
 -->
<!-- Pages: 1 -->
<svg width="2016pt" height="260pt"
 viewBox="0.00 0.00 2016.46 260.00" xmlns="http://www.w3.org/2000/svg" xmlns:xlink="http://www.w3.org/1999/xlink">
<g id="graph0" class="graph" transform="scale(1 1) rotate(0) translate(4 256)">
<polygon fill="white" stroke="none" points="-4,4 -4,-256 2012.46,-256 2012.46,4 -4,4"/>
<!-- q8:3 -->
<g id="node1" class="node">
<title>q8:3</title>
<ellipse fill="none" stroke="black" stroke-width="2" cx="954.27" cy="-161" rx="33.32" ry="18"/>
<text text-anchor="middle" x="954.27" y="-156.32" font-family="Times,serif" font-size="14.00">q8:3</text>
</g>
<!-- q12:3 -->
<g id="node2" class="node">
<title>q12:3</title>
<ellipse fill="none" stroke="black" stroke-width="2" cx="1196.5" cy="-161" rx="39.63" ry="18"/>
<text text-anchor="middle" x="1196.5" y="-156.32" font-family="Times,serif" font-size="14.00">q12:3</text>
</g>
<!-- q8:3&#45;&gt;q12:3 -->
<g id="edge1" class="edge">
<title>q8:3&#45;&gt;q12:3</title>
<path fill="none" stroke="black" d="M988.42,-161C1028.8,-161 1097.3,-161 1144.4,-161"/>
<polygon fill="black" stroke="black" points="1144.39,-164.5 1154.39,-161 1144.39,-157.5 1144.39,-164.5"/>
<text text-anchor="middle" x="1072.2" y="-164.94" font-family="Times,serif" font-size="14.00">RSET/250:3</text>
</g>
<!-- q1:244 -->
<g id="node3" class="node">
<title>q1:244</title>
<ellipse fill="none" stroke="black" stroke-width="2" cx="257.84" cy="-118" rx="45.95" ry="18"/>
<text text-anchor="middle" x="257.84" y="-113.33" font-family="Times,serif" font-size="14.00">q1:244</text>
</g>
<!-- q3:2 -->
<g id="node4" class="node">
<title>q3:2</title>
<ellipse fill="none" stroke="black" stroke-width="2" cx="491.48" cy="-91" rx="33.32" ry="18"/>
<text text-anchor="middle" x="491.48" y="-86.33" font-family="Times,serif" font-size="14.00">q3:2</text>
</g>
<!-- q1:244&#45;&gt;q3:2 -->
<g id="edge2" class="edge">
<title>q1:244&#45;&gt;q3:2</title>
<path fill="none" stroke="black" d="M298.66,-108.83C306.31,-107.29 314.27,-105.84 321.79,-104.75 363.67,-98.66 411.82,-95.07 445.93,-93.1"/>
<polygon fill="black" stroke="black" points="446.07,-96.59 455.86,-92.55 445.68,-89.6 446.07,-96.59"/>
<text text-anchor="middle" x="374.66" y="-108.95" font-family="Times,serif" font-size="14.00">EHLO/λ:2</text>
</g>
<!-- q2:242 -->
<g id="node5" class="node">
<title>q2:242</title>
<ellipse fill="none" stroke="black" stroke-width="2" cx="491.48" cy="-151" rx="45.95" ry="18"/>
<text text-anchor="middle" x="491.48" y="-146.32" font-family="Times,serif" font-size="14.00">q2:242</text>
</g>
<!-- q1:244&#45;&gt;q2:242 -->
<g id="edge3" class="edge">
<title>q1:244&#45;&gt;q2:242</title>
<path fill="none" stroke="black" d="M302.14,-124.17C340,-129.56 395.17,-137.42 436.02,-143.24"/>
<polygon fill="black" stroke="black" points="435.51,-146.7 445.9,-144.65 436.49,-139.77 435.51,-146.7"/>
<text text-anchor="middle" x="374.66" y="-144.94" font-family="Times,serif" font-size="14.00">EHLO/250:242</text>
</g>
<!-- q4:3 -->
<g id="node6" class="node">
<title>q4:3</title>
<ellipse fill="none" stroke="black" stroke-width="2" cx="725.13" cy="-78" rx="33.32" ry="18"/>
<text text-anchor="middle" x="725.13" y="-73.33" font-family="Times,serif" font-size="14.00">q4:3</text>
</g>
<!-- q3:2&#45;&gt;q4:3 -->
<g id="edge4" class="edge">
<title>q3:2&#45;&gt;q4:3</title>
<path fill="none" stroke="black" d="M523.05,-83.86C533.28,-81.78 544.8,-79.8 555.43,-78.75 597.41,-74.61 645.55,-74.89 679.63,-75.93"/>
<polygon fill="black" stroke="black" points="679.43,-79.42 689.55,-76.27 679.67,-72.43 679.43,-79.42"/>
<text text-anchor="middle" x="608.31" y="-82.95" font-family="Times,serif" font-size="14.00">AUTH/235:2</text>
</g>
<!-- q2:242&#45;&gt;q4:3 -->
<g id="edge5" class="edge">
<title>q2:242&#45;&gt;q4:3</title>
<path fill="none" stroke="black" d="M528.68,-139.59C570.94,-126.28 640.6,-104.32 684.34,-90.54"/>
<polygon fill="black" stroke="black" points="685.21,-93.93 693.7,-87.59 683.11,-87.26 685.21,-93.93"/>
<text text-anchor="middle" x="608.31" y="-132.94" font-family="Times,serif" font-size="14.00">AUTH/λ:1</text>
</g>
<!-- q6:13 -->
<g id="node7" class="node">
<title>q6:13</title>
<ellipse fill="none" stroke="black" stroke-width="2" cx="725.13" cy="-213" rx="39.63" ry="18"/>
<text text-anchor="middle" x="725.13" y="-208.32" font-family="Times,serif" font-size="14.00">q6:13</text>
</g>
<!-- q2:242&#45;&gt;q6:13 -->
<g id="edge6" class="edge">
<title>q2:242&#45;&gt;q6:13</title>
<path fill="none" stroke="black" d="M523.83,-164.61C533.81,-168.63 544.97,-172.8 555.43,-176 595.49,-188.26 642.07,-198.16 676.12,-204.62"/>
<polygon fill="black" stroke="black" points="675.2,-208.01 685.67,-206.4 676.48,-201.13 675.2,-208.01"/>
<text text-anchor="middle" x="608.31" y="-204.94" font-family="Times,serif" font-size="14.00">AUTH/535:13</text>
</g>
<!-- q5:228 -->
<g id="node8" class="node">
<title>q5:228</title>
<ellipse fill="none" stroke="black" stroke-width="2" cx="725.13" cy="-158" rx="45.95" ry="18"/>
<text text-anchor="middle" x="725.13" y="-153.32" font-family="Times,serif" font-size="14.00">q5:228</text>
</g>
<!-- q2:242&#45;&gt;q5:228 -->
<g id="edge7" class="edge">
<title>q2:242&#45;&gt;q5:228</title>
<path fill="none" stroke="black" d="M538.25,-152.38C575.21,-153.5 627.42,-155.08 667.1,-156.28"/>
<polygon fill="black" stroke="black" points="666.85,-159.77 676.95,-156.57 667.06,-152.78 666.85,-159.77"/>
<text text-anchor="middle" x="608.31" y="-158.94" font-family="Times,serif" font-size="14.00">AUTH/235:228</text>
</g>
<!-- q7:626 -->
<g id="node9" class="node">
<title>q7:626</title>
<ellipse fill="none" stroke="black" stroke-width="2" cx="954.27" cy="-72" rx="45.95" ry="18"/>
<text text-anchor="middle" x="954.27" y="-67.33" font-family="Times,serif" font-size="14.00">q7:626</text>
</g>
<!-- q4:3&#45;&gt;q7:626 -->
<g id="edge8" class="edge">
<title>q4:3&#45;&gt;q7:626</title>
<path fill="none" stroke="black" d="M759.16,-77.13C795,-76.18 852.89,-74.65 896.14,-73.51"/>
<polygon fill="black" stroke="black" points="896.22,-77.01 906.13,-73.25 896.04,-70.01 896.22,-77.01"/>
<text text-anchor="middle" x="839.7" y="-80.95" font-family="Times,serif" font-size="14.00">MAIL/250:3</text>
</g>
<!-- q9:13 -->
<g id="node10" class="node">
<title>q9:13</title>
<ellipse fill="none" stroke="black" stroke-width="2" cx="954.27" cy="-215" rx="39.63" ry="18"/>
<text text-anchor="middle" x="954.27" y="-210.32" font-family="Times,serif" font-size="14.00">q9:13</text>
</g>
<!-- q6:13&#45;&gt;q9:13 -->
<g id="edge9" class="edge">
<title>q6:13&#45;&gt;q9:13</title>
<path fill="none" stroke="black" d="M765.69,-213.35C803.6,-213.68 861,-214.19 902.32,-214.55"/>
<polygon fill="black" stroke="black" points="902.24,-218.05 912.27,-214.64 902.3,-211.05 902.24,-218.05"/>
<text text-anchor="middle" x="839.7" y="-217.94" font-family="Times,serif" font-size="14.00">AUTH/334:13</text>
</g>
<!-- q5:228&#45;&gt;q8:3 -->
<g id="edge10" class="edge">
<title>q5:228&#45;&gt;q8:3</title>
<path fill="none" stroke="black" d="M771.82,-158.6C811.71,-159.13 869.24,-159.89 908.77,-160.41"/>
<polygon fill="black" stroke="black" points="908.61,-163.91 918.66,-160.54 908.7,-156.91 908.61,-163.91"/>
<text text-anchor="middle" x="839.7" y="-163.94" font-family="Times,serif" font-size="14.00">MAIL/553:3</text>
</g>
<!-- q5:228&#45;&gt;q7:626 -->
<g id="edge11" class="edge">
<title>q5:228&#45;&gt;q7:626</title>
<path fill="none" stroke="black" d="M759.64,-145.31C799.23,-130.32 865.23,-105.33 909,-88.76"/>
<polygon fill="black" stroke="black" points="910.09,-92.09 918.2,-85.28 907.61,-85.54 910.09,-92.09"/>
<text text-anchor="middle" x="839.7" y="-135.94" font-family="Times,serif" font-size="14.00">MAIL/250:225</text>
</g>
<!-- q7:626&#45;&gt;q7:626 -->
<g id="edge12" class="edge">
<title>q7:626&#45;&gt;q7:626</title>
<path fill="none" stroke="black" d="M933.97,-89.04C929.83,-98.86 936.59,-108 954.27,-108 964.49,-108 971.07,-104.94 973.99,-100.47"/>
<polygon fill="black" stroke="black" points="977.48,-100.71 974.49,-90.55 970.49,-100.36 977.48,-100.71"/>
<text text-anchor="middle" x="954.27" y="-111.95" font-family="Times,serif" font-size="14.00">RCPT/250:398</text>
</g>
<!-- q10:43 -->
<g id="node11" class="node">
<title>q10:43</title>
<ellipse fill="none" stroke="black" stroke-width="2" cx="1196.5" cy="-18" rx="45.95" ry="18"/>
<text text-anchor="middle" x="1196.5" y="-13.32" font-family="Times,serif" font-size="14.00">q10:43</text>
</g>
<!-- q7:626&#45;&gt;q10:43 -->
<g id="edge13" class="edge">
<title>q7:626&#45;&gt;q10:43</title>
<path fill="none" stroke="black" d="M989.31,-59.52C998.6,-56.39 1008.7,-53.22 1018.2,-50.75 1059.1,-40.14 1106.1,-31.61 1141.4,-25.93"/>
<polygon fill="black" stroke="black" points="1141.67,-29.43 1151,-24.42 1140.58,-22.51 1141.67,-29.43"/>
<text text-anchor="middle" x="1072.2" y="-54.95" font-family="Times,serif" font-size="14.00">DATA/550:43</text>
</g>
<!-- q11:185 -->
<g id="node12" class="node">
<title>q11:185</title>
<ellipse fill="none" stroke="black" stroke-width="2" cx="1196.5" cy="-72" rx="52.26" ry="18"/>
<text text-anchor="middle" x="1196.5" y="-67.33" font-family="Times,serif" font-size="14.00">q11:185</text>
</g>
<!-- q7:626&#45;&gt;q11:185 -->
<g id="edge14" class="edge">
<title>q7:626&#45;&gt;q11:185</title>
<path fill="none" stroke="black" d="M1001.02,-72C1038.1,-72 1090.8,-72 1131.9,-72"/>
<polygon fill="black" stroke="black" points="1131.69,-75.5 1141.69,-72 1131.69,-68.5 1131.69,-75.5"/>
<text text-anchor="middle" x="1072.2" y="-75.95" font-family="Times,serif" font-size="14.00">DATA/354:185</text>
</g>
<!-- q13:13 -->
<g id="node20" class="node">
<title>q13:13</title>
<ellipse fill="none" stroke="black" stroke-width="2" cx="1196.5" cy="-215" rx="45.95" ry="18"/>
<text text-anchor="middle" x="1196.5" y="-210.32" font-family="Times,serif" font-size="14.00">q13:13</text>
</g>
<!-- q9:13&#45;&gt;q13:13 -->
<g id="edge22" class="edge">
<title>q9:13&#45;&gt;q13:13</title>
<path fill="none" stroke="black" d="M994.67,-215C1033.8,-215 1094.1,-215 1138.4,-215"/>
<polygon fill="black" stroke="black" points="1138.39,-218.5 1148.39,-215 1138.39,-211.5 1138.39,-218.5"/>
<text text-anchor="middle" x="1072.2" y="-218.94" font-family="Times,serif" font-size="14.00">content/535:13</text>
</g>
<!-- q14:3028 -->
<g id="node13" class="node">
<title>q14:3028</title>
<ellipse fill="none" stroke="black" stroke-width="2" cx="1451.3" cy="-126" rx="58.57" ry="18"/>
<text text-anchor="middle" x="1451.3" y="-121.33" font-family="Times,serif" font-size="14.00">q14:3028</text>
</g>
<!-- q11:185&#45;&gt;q14:3028 -->
<g id="edge24" class="edge">
<title>q11:185&#45;&gt;q14:3028</title>
<path fill="none" stroke="black" d="M1236.1,-84.58C1246,-87.57 1256.7,-90.59 1266.7,-93 1306.1,-102.47 1350.8,-110.56 1386.2,-116.36"/>
<polygon fill="black" stroke="black" points="1385.48,-119.79 1395.91,-117.92 1386.59,-112.88 1385.48,-119.79"/>
<text text-anchor="middle" x="1320.7" y="-117.95" font-family="Times,serif" font-size="14.00">content/λ:114</text>
</g>
<!-- q15:23 -->
<g id="node22" class="node">
<title>q15:23</title>
<ellipse fill="none" stroke="black" stroke-width="2" cx="1451.3" cy="-72" rx="45.95" ry="18"/>
<text text-anchor="middle" x="1451.3" y="-67.33" font-family="Times,serif" font-size="14.00">q15:23</text>
</g>
<!-- q11:185&#45;&gt;q15:23 -->
<g id="edge25" class="edge">
<title>q11:185&#45;&gt;q15:23</title>
<path fill="none" stroke="black" d="M1249.6,-72C1291.4,-72 1350.1,-72 1393.2,-72"/>
<polygon fill="black" stroke="black" points="1393.19,-75.5 1403.19,-72 1393.19,-68.5 1393.19,-75.5"/>
<text text-anchor="middle" x="1320.7" y="-75.95" font-family="Times,serif" font-size="14.00">content/250:23</text>
</g>
<!-- q16:48 -->
<g id="node23" class="node">
<title>q16:48</title>
<ellipse fill="none" stroke="black" stroke-width="2" cx="1451.3" cy="-18" rx="45.95" ry="18"/>
<text text-anchor="middle" x="1451.3" y="-13.32" font-family="Times,serif" font-size="14.00">q16:48</text>
</g>
<!-- q11:185&#45;&gt;q16:48 -->
<g id="edge26" class="edge">
<title>q11:185&#45;&gt;q16:48</title>
<path fill="none" stroke="black" d="M1235.7,-59.36C1245.7,-56.3 1256.6,-53.2 1266.7,-50.75 1309.8,-40.34 1359.3,-31.7 1396,-25.92"/>
<polygon fill="black" stroke="black" points="1396.16,-29.43 1405.5,-24.45 1395.09,-22.52 1396.16,-29.43"/>
<text text-anchor="middle" x="1320.7" y="-54.95" font-family="Times,serif" font-size="14.00">content/554:48</text>
</g>
<!-- q14:3028&#45;&gt;q14:3028 -->
<g id="edge15" class="edge">
<title>q14:3028&#45;&gt;q14:3028</title>
<path fill="none" stroke="black" d="M1428,-143.41C1423.7,-153.09 1431.4,-162 1451.3,-162 1462.8,-162 1470.3,-159.02 1473.7,-154.64"/>
<polygon fill="black" stroke="black" points="1477.17,-155.17 1474.48,-144.92 1470.19,-154.61 1477.17,-155.17"/>
<text text-anchor="middle" x="1451.3" y="-165.94" font-family="Times,serif" font-size="14.00">content/λ:2914</text>
</g>
<!-- q20:2 -->
<g id="node14" class="node">
<title>q20:2</title>
<ellipse fill="none" stroke="black" stroke-width="2" cx="1715.1" cy="-126" rx="39.63" ry="18"/>
<text text-anchor="middle" x="1715.1" y="-121.33" font-family="Times,serif" font-size="14.00">q20:2</text>
</g>
<!-- q14:3028&#45;&gt;q20:2 -->
<g id="edge16" class="edge">
<title>q14:3028&#45;&gt;q20:2</title>
<path fill="none" stroke="black" d="M1510.7,-126C1556.4,-126 1619.4,-126 1663.1,-126"/>
<polygon fill="black" stroke="black" points="1663.09,-129.5 1673.09,-126 1663.09,-122.5 1663.09,-129.5"/>
<text text-anchor="middle" x="1586.4" y="-129.94" font-family="Times,serif" font-size="14.00">content/554:2</text>
</g>
<!-- q18:111 -->
<g id="node15" class="node">
<title>q18:111</title>
<ellipse fill="none" stroke="black" stroke-width="2" cx="1715.1" cy="-234" rx="52.26" ry="18"/>
<text text-anchor="middle" x="1715.1" y="-229.32" font-family="Times,serif" font-size="14.00">q18:111</text>
</g>
<!-- q14:3028&#45;&gt;q18:111 -->
<g id="edge17" class="edge">
<title>q14:3028&#45;&gt;q18:111</title>
<path fill="none" stroke="black" d="M1468.9,-144.15C1483.2,-158.67 1505,-178.46 1527.9,-190 1567,-209.74 1615.2,-220.82 1652.8,-226.92"/>
<polygon fill="black" stroke="black" points="1652.19,-230.37 1662.6,-228.43 1653.25,-223.45 1652.19,-230.37"/>
<text text-anchor="middle" x="1586.4" y="-227.94" font-family="Times,serif" font-size="14.00">content/250:111</text>
</g>
<!-- q19:1 -->
<g id="node16" class="node">
<title>q19:1</title>
<ellipse fill="none" stroke="black" stroke-width="2" cx="1715.1" cy="-180" rx="39.63" ry="18"/>
<text text-anchor="middle" x="1715.1" y="-175.32" font-family="Times,serif" font-size="14.00">q19:1</text>
</g>
<!-- q14:3028&#45;&gt;q19:1 -->
<g id="edge18" class="edge">
<title>q14:3028&#45;&gt;q19:1</title>
<path fill="none" stroke="black" d="M1495.3,-138.71C1505.9,-141.63 1517.3,-144.59 1527.9,-147 1574.2,-157.51 1627.6,-166.67 1665.3,-172.66"/>
<polygon fill="black" stroke="black" points="1664.58,-176.09 1675,-174.18 1665.66,-169.17 1664.58,-176.09"/>
<text text-anchor="middle" x="1586.4" y="-172.94" font-family="Times,serif" font-size="14.00">content/550:1</text>
</g>
<!-- q25:2 -->
<g id="node17" class="node">
<title>q25:2</title>
<ellipse fill="none" stroke="black" stroke-width="2" cx="1956.2" cy="-126" rx="39.63" ry="18"/>
<text text-anchor="middle" x="1956.2" y="-121.33" font-family="Times,serif" font-size="14.00">q25:2</text>
</g>
<!-- q20:2&#45;&gt;q25:2 -->
<g id="edge19" class="edge">
<title>q20:2&#45;&gt;q25:2</title>
<path fill="none" stroke="black" d="M1755.6,-126C1796.3,-126 1859.8,-126 1904.2,-126"/>
<polygon fill="black" stroke="black" points="1904.09,-129.5 1914.09,-126 1904.09,-122.5 1904.09,-129.5"/>
<text text-anchor="middle" x="1835.7" y="-129.94" font-family="Times,serif" font-size="14.00">RSET/250:2</text>
</g>
<!-- q23:111 -->
<g id="node18" class="node">
<title>q23:111</title>
<ellipse fill="none" stroke="black" stroke-width="2" cx="1956.2" cy="-234" rx="52.26" ry="18"/>
<text text-anchor="middle" x="1956.2" y="-229.32" font-family="Times,serif" font-size="14.00">q23:111</text>
</g>
<!-- q18:111&#45;&gt;q23:111 -->
<g id="edge20" class="edge">
<title>q18:111&#45;&gt;q23:111</title>
<path fill="none" stroke="black" d="M1768.3,-234C1804.7,-234 1853.4,-234 1892,-234"/>
<polygon fill="black" stroke="black" points="1891.59,-237.5 1901.59,-234 1891.59,-230.5 1891.59,-237.5"/>
<text text-anchor="middle" x="1835.7" y="-237.94" font-family="Times,serif" font-size="14.00">QUIT/221:111</text>
</g>
<!-- q24:1 -->
<g id="node19" class="node">
<title>q24:1</title>
<ellipse fill="none" stroke="black" stroke-width="2" cx="1956.2" cy="-180" rx="39.63" ry="18"/>
<text text-anchor="middle" x="1956.2" y="-175.32" font-family="Times,serif" font-size="14.00">q24:1</text>
</g>
<!-- q19:1&#45;&gt;q24:1 -->
<g id="edge21" class="edge">
<title>q19:1&#45;&gt;q24:1</title>
<path fill="none" stroke="black" d="M1755.6,-180C1796.3,-180 1859.8,-180 1904.2,-180"/>
<polygon fill="black" stroke="black" points="1904.09,-183.5 1914.09,-180 1904.09,-176.5 1904.09,-183.5"/>
<text text-anchor="middle" x="1835.7" y="-183.94" font-family="Times,serif" font-size="14.00">RSET/250:1</text>
</g>
<!-- q17:4 -->
<g id="node21" class="node">
<title>q17:4</title>
<ellipse fill="none" stroke="black" stroke-width="2" cx="1451.3" cy="-215" rx="39.63" ry="18"/>
<text text-anchor="middle" x="1451.3" y="-210.32" font-family="Times,serif" font-size="14.00">q17:4</text>
</g>
<!-- q13:13&#45;&gt;q17:4 -->
<g id="edge23" class="edge">
<title>q13:13&#45;&gt;q17:4</title>
<path fill="none" stroke="black" d="M1243.3,-215C1287.3,-215 1353.6,-215 1399.3,-215"/>
<polygon fill="black" stroke="black" points="1399.19,-218.5 1409.19,-215 1399.19,-211.5 1399.19,-218.5"/>
<text text-anchor="middle" x="1320.7" y="-218.94" font-family="Times,serif" font-size="14.00">λ/451:4</text>
</g>
<!-- q21:23 -->
<g id="node24" class="node">
<title>q21:23</title>
<ellipse fill="none" stroke="black" stroke-width="2" cx="1715.1" cy="-72" rx="45.95" ry="18"/>
<text text-anchor="middle" x="1715.1" y="-67.33" font-family="Times,serif" font-size="14.00">q21:23</text>
</g>
<!-- q15:23&#45;&gt;q21:23 -->
<g id="edge27" class="edge">
<title>q15:23&#45;&gt;q21:23</title>
<path fill="none" stroke="black" d="M1498.2,-72C1542.4,-72 1609.3,-72 1656.9,-72"/>
<polygon fill="black" stroke="black" points="1656.79,-75.5 1666.79,-72 1656.79,-68.5 1656.79,-75.5"/>
<text text-anchor="middle" x="1586.4" y="-75.95" font-family="Times,serif" font-size="14.00">QUIT/221:23</text>
</g>
<!-- q22:48 -->
<g id="node25" class="node">
<title>q22:48</title>
<ellipse fill="none" stroke="black" stroke-width="2" cx="1715.1" cy="-18" rx="45.95" ry="18"/>
<text text-anchor="middle" x="1715.1" y="-13.32" font-family="Times,serif" font-size="14.00">q22:48</text>
</g>
<!-- q16:48&#45;&gt;q22:48 -->
<g id="edge28" class="edge">
<title>q16:48&#45;&gt;q22:48</title>
<path fill="none" stroke="black" d="M1498.2,-18C1542.4,-18 1609.3,-18 1656.9,-18"/>
<polygon fill="black" stroke="black" points="1656.79,-21.5 1666.79,-18 1656.79,-14.5 1656.79,-21.5"/>
<text text-anchor="middle" x="1586.4" y="-21.95" font-family="Times,serif" font-size="14.00">RSET/250:48</text>
</g>
<!-- q0:244 -->
<g id="node26" class="node">
<title>q0:244</title>
<ellipse fill="none" stroke="black" stroke-width="2" cx="53.95" cy="-118" rx="49.95" ry="49.95"/>
<ellipse fill="none" stroke="black" stroke-width="2" cx="53.95" cy="-118" rx="53.95" ry="53.95"/>
<text text-anchor="middle" x="53.95" y="-113.33" font-family="Times,serif" font-size="14.00">q0:244</text>
</g>
<!-- q0:244&#45;&gt;q1:244 -->
<g id="edge29" class="edge">
<title>q0:244&#45;&gt;q1:244</title>
<path fill="none" stroke="black" d="M104.85,-118C133.64,-118 169.94,-118 199.84,-118"/>
<polygon fill="black" stroke="black" points="199.45,-121.5 209.45,-118 199.45,-114.5 199.45,-121.5"/>
<text text-anchor="middle" x="157.89" y="-121.95" font-family="Times,serif" font-size="14.00">λ/220:244</text>
</g>
</g>
</svg>
