<?xml version="1.0" encoding="UTF-8" standalone="no"?>
<!DOCTYPE svg PUBLIC "-//W3C//DTD SVG 1.1//EN"
 "http://www.w3.org/Graphics/SVG/1.1/DTD/svg11.dtd">
<!-- Generated by graphviz version 12.0.0 (20240803.0821)
 -->
<!-- Pages: 1 -->
<svg width="2253pt" height="310pt"
 viewBox="0.00 0.00 2252.96 310.00" xmlns="http://www.w3.org/2000/svg" xmlns:xlink="http://www.w3.org/1999/xlink">
<g id="graph0" class="graph" transform="scale(1 1) rotate(0) translate(4 306)">
<polygon fill="white" stroke="none" points="-4,4 -4,-306 2248.96,-306 2248.96,4 -4,4"/>
<!-- q8:12 -->
<g id="node1" class="node">
<title>q8:12</title>
<ellipse fill="none" stroke="black" stroke-width="2" cx="960.59" cy="-271" rx="39.63" ry="18"/>
<text text-anchor="middle" x="960.59" y="-266.32" font-family="Times,serif" font-size="14.00">q8:12</text>
</g>
<!-- q13:12 -->
<g id="node2" class="node">
<title>q13:12</title>
<ellipse fill="none" stroke="black" stroke-width="2" cx="1202.8" cy="-284" rx="45.95" ry="18"/>
<text text-anchor="middle" x="1202.8" y="-279.32" font-family="Times,serif" font-size="14.00">q13:12</text>
</g>
<!-- q8:12&#45;&gt;q13:12 -->
<g id="edge1" class="edge">
<title>q8:12&#45;&gt;q13:12</title>
<path fill="none" stroke="black" d="M1000.71,-273.12C1040,-275.24 1100.8,-278.54 1145.3,-280.94"/>
<polygon fill="black" stroke="black" points="1144.81,-284.42 1154.99,-281.47 1145.19,-277.43 1144.81,-284.42"/>
<text text-anchor="middle" x="1084.8" y="-283.94" font-family="Times,serif" font-size="14.00">content/535:12</text>
</g>
<!-- q20:4 -->
<g id="node3" class="node">
<title>q20:4</title>
<ellipse fill="none" stroke="black" stroke-width="2" cx="1439.8" cy="-284" rx="39.63" ry="18"/>
<text text-anchor="middle" x="1439.8" y="-279.32" font-family="Times,serif" font-size="14.00">q20:4</text>
</g>
<!-- q13:12&#45;&gt;q20:4 -->
<g id="edge2" class="edge">
<title>q13:12&#45;&gt;q20:4</title>
<path fill="none" stroke="black" d="M1249.7,-284C1289.4,-284 1346.7,-284 1387.8,-284"/>
<polygon fill="black" stroke="black" points="1387.79,-287.5 1397.79,-284 1387.79,-280.5 1387.79,-287.5"/>
<text text-anchor="middle" x="1318.1" y="-287.94" font-family="Times,serif" font-size="14.00">λ/451:4</text>
</g>
<!-- q15:3 -->
<g id="node4" class="node">
<title>q15:3</title>
<ellipse fill="none" stroke="black" stroke-width="2" cx="1687.8" cy="-220" rx="39.63" ry="18"/>
<text text-anchor="middle" x="1687.8" y="-215.32" font-family="Times,serif" font-size="14.00">q15:3</text>
</g>
<!-- q7:232 -->
<g id="node5" class="node">
<title>q7:232</title>
<ellipse fill="none" stroke="black" stroke-width="2" cx="1202.8" cy="-161" rx="45.95" ry="18"/>
<text text-anchor="middle" x="1202.8" y="-156.32" font-family="Times,serif" font-size="14.00">q7:232</text>
</g>
<!-- q15:3&#45;&gt;q7:232 -->
<g id="edge3" class="edge">
<title>q15:3&#45;&gt;q7:232</title>
<path fill="none" stroke="black" d="M1647.4,-220.75C1611.6,-221.09 1557.1,-220.78 1510,-217 1401.1,-208.28 1373,-207.16 1266.7,-182 1260.8,-180.59 1254.6,-178.86 1248.5,-177.01"/>
<polygon fill="black" stroke="black" points="1249.83,-173.76 1239.24,-174.03 1247.69,-180.43 1249.83,-173.76"/>
<text text-anchor="middle" x="1439.8" y="-218.94" font-family="Times,serif" font-size="14.00">RCPT/250:3</text>
</g>
<!-- q11:163 -->
<g id="node6" class="node">
<title>q11:163</title>
<ellipse fill="none" stroke="black" stroke-width="2" cx="1439.8" cy="-159" rx="52.26" ry="18"/>
<text text-anchor="middle" x="1439.8" y="-154.32" font-family="Times,serif" font-size="14.00">q11:163</text>
</g>
<!-- q7:232&#45;&gt;q11:163 -->
<g id="edge4" class="edge">
<title>q7:232&#45;&gt;q11:163</title>
<path fill="none" stroke="black" d="M1249.7,-160.61C1285.5,-160.3 1335.8,-159.88 1375.5,-159.54"/>
<polygon fill="black" stroke="black" points="1375.42,-163.04 1385.39,-159.45 1375.36,-156.04 1375.42,-163.04"/>
<text text-anchor="middle" x="1318.1" y="-164.94" font-family="Times,serif" font-size="14.00">RCPT/250:163</text>
</g>
<!-- q12:3334 -->
<g id="node7" class="node">
<title>q12:3334</title>
<ellipse fill="none" stroke="black" stroke-width="2" cx="1687.8" cy="-72" rx="58.57" ry="18"/>
<text text-anchor="middle" x="1687.8" y="-67.33" font-family="Times,serif" font-size="14.00">q12:3334</text>
</g>
<!-- q7:232&#45;&gt;q12:3334 -->
<g id="edge5" class="edge">
<title>q7:232&#45;&gt;q12:3334</title>
<path fill="none" stroke="black" d="M1241.5,-150.29C1278.5,-140.09 1336.5,-124.83 1387.5,-114.75 1441.5,-104.07 1455.5,-104.8 1510,-97 1547.2,-91.67 1588.9,-85.78 1622.4,-81.06"/>
<polygon fill="black" stroke="black" points="1622.49,-84.58 1631.9,-79.71 1621.51,-77.65 1622.49,-84.58"/>
<text text-anchor="middle" x="1439.8" y="-118.95" font-family="Times,serif" font-size="14.00">DATA/354:69</text>
</g>
<!-- q11:163&#45;&gt;q15:3 -->
<g id="edge6" class="edge">
<title>q11:163&#45;&gt;q15:3</title>
<path fill="none" stroke="black" d="M1482.8,-170.17C1491.8,-172.48 1501.2,-174.86 1510,-177 1554.8,-187.86 1566.5,-188.72 1611.3,-199.75 1621.1,-202.18 1631.7,-204.92 1641.7,-207.58"/>
<polygon fill="black" stroke="black" points="1640.67,-210.93 1651.24,-210.14 1642.49,-204.17 1640.67,-210.93"/>
<text text-anchor="middle" x="1560.6" y="-202.94" font-family="Times,serif" font-size="14.00">RCPT/250:3</text>
</g>
<!-- q11:163&#45;&gt;q12:3334 -->
<g id="edge7" class="edge">
<title>q11:163&#45;&gt;q12:3334</title>
<path fill="none" stroke="black" d="M1477.9,-145.88C1520.2,-130.91 1589.7,-106.34 1636.8,-89.69"/>
<polygon fill="black" stroke="black" points="1637.71,-93.08 1645.97,-86.45 1635.38,-86.48 1637.71,-93.08"/>
<text text-anchor="middle" x="1560.6" y="-137.94" font-family="Times,serif" font-size="14.00">DATA/354:122</text>
</g>
<!-- q16:38 -->
<g id="node8" class="node">
<title>q16:38</title>
<ellipse fill="none" stroke="black" stroke-width="2" cx="1687.8" cy="-161" rx="45.95" ry="18"/>
<text text-anchor="middle" x="1687.8" y="-156.32" font-family="Times,serif" font-size="14.00">q16:38</text>
</g>
<!-- q11:163&#45;&gt;q16:38 -->
<g id="edge8" class="edge">
<title>q11:163&#45;&gt;q16:38</title>
<path fill="none" stroke="black" d="M1493,-159.07C1526.7,-159.15 1571.6,-159.33 1611.3,-159.75 1617.3,-159.81 1623.7,-159.89 1630,-159.99"/>
<polygon fill="black" stroke="black" points="1629.73,-163.49 1639.79,-160.14 1629.84,-156.49 1629.73,-163.49"/>
<text text-anchor="middle" x="1560.6" y="-163.94" font-family="Times,serif" font-size="14.00">DATA/550:38</text>
</g>
<!-- q12:3334&#45;&gt;q12:3334 -->
<g id="edge9" class="edge">
<title>q12:3334&#45;&gt;q12:3334</title>
<path fill="none" stroke="black" d="M1665.1,-89.41C1660.9,-99.09 1668.5,-108 1687.8,-108 1699,-108 1706.3,-105.02 1709.6,-100.64"/>
<polygon fill="black" stroke="black" points="1713.07,-101.17 1710.38,-90.92 1706.09,-100.61 1713.07,-101.17"/>
<text text-anchor="middle" x="1687.8" y="-111.95" font-family="Times,serif" font-size="14.00">content/λ:3143</text>
</g>
<!-- q17:65 -->
<g id="node9" class="node">
<title>q17:65</title>
<ellipse fill="none" stroke="black" stroke-width="2" cx="1951.7" cy="-126" rx="45.95" ry="18"/>
<text text-anchor="middle" x="1951.7" y="-121.33" font-family="Times,serif" font-size="14.00">q17:65</text>
</g>
<!-- q12:3334&#45;&gt;q17:65 -->
<g id="edge10" class="edge">
<title>q12:3334&#45;&gt;q17:65</title>
<path fill="none" stroke="black" d="M1731.8,-84.71C1742.4,-87.63 1753.8,-90.59 1764.4,-93 1808.5,-103.01 1859.1,-111.81 1896.4,-117.79"/>
<polygon fill="black" stroke="black" points="1895.58,-121.2 1906,-119.32 1896.68,-114.29 1895.58,-121.2"/>
<text text-anchor="middle" x="1822.9" y="-119.95" font-family="Times,serif" font-size="14.00">content/554:65</text>
</g>
<!-- q18:1 -->
<g id="node10" class="node">
<title>q18:1</title>
<ellipse fill="none" stroke="black" stroke-width="2" cx="1951.7" cy="-72" rx="39.63" ry="18"/>
<text text-anchor="middle" x="1951.7" y="-67.33" font-family="Times,serif" font-size="14.00">q18:1</text>
</g>
<!-- q12:3334&#45;&gt;q18:1 -->
<g id="edge11" class="edge">
<title>q12:3334&#45;&gt;q18:1</title>
<path fill="none" stroke="black" d="M1747.3,-72C1793,-72 1855.9,-72 1899.6,-72"/>
<polygon fill="black" stroke="black" points="1899.59,-75.5 1909.59,-72 1899.59,-68.5 1899.59,-75.5"/>
<text text-anchor="middle" x="1822.9" y="-75.95" font-family="Times,serif" font-size="14.00">content/550:1</text>
</g>
<!-- q19:125 -->
<g id="node11" class="node">
<title>q19:125</title>
<ellipse fill="none" stroke="black" stroke-width="2" cx="1951.7" cy="-18" rx="52.26" ry="18"/>
<text text-anchor="middle" x="1951.7" y="-13.32" font-family="Times,serif" font-size="14.00">q19:125</text>
</g>
<!-- q12:3334&#45;&gt;q19:125 -->
<g id="edge12" class="edge">
<title>q12:3334&#45;&gt;q19:125</title>
<path fill="none" stroke="black" d="M1731.4,-59.23C1742.1,-56.23 1753.6,-53.2 1764.4,-50.75 1806.6,-41.13 1854.8,-32.73 1891.5,-26.85"/>
<polygon fill="black" stroke="black" points="1891.77,-30.35 1901.1,-25.34 1890.68,-23.43 1891.77,-30.35"/>
<text text-anchor="middle" x="1822.9" y="-54.95" font-family="Times,serif" font-size="14.00">content/250:125</text>
</g>
<!-- q21:65 -->
<g id="node12" class="node">
<title>q21:65</title>
<ellipse fill="none" stroke="black" stroke-width="2" cx="2192.7" cy="-126" rx="45.95" ry="18"/>
<text text-anchor="middle" x="2192.7" y="-121.33" font-family="Times,serif" font-size="14.00">q21:65</text>
</g>
<!-- q17:65&#45;&gt;q21:65 -->
<g id="edge13" class="edge">
<title>q17:65&#45;&gt;q21:65</title>
<path fill="none" stroke="black" d="M1998.5,-126C2037.3,-126 2093,-126 2134.7,-126"/>
<polygon fill="black" stroke="black" points="2134.49,-129.5 2144.49,-126 2134.49,-122.5 2134.49,-129.5"/>
<text text-anchor="middle" x="2072.2" y="-129.94" font-family="Times,serif" font-size="14.00">RSET/250:65</text>
</g>
<!-- q22:1 -->
<g id="node13" class="node">
<title>q22:1</title>
<ellipse fill="none" stroke="black" stroke-width="2" cx="2192.7" cy="-72" rx="39.63" ry="18"/>
<text text-anchor="middle" x="2192.7" y="-67.33" font-family="Times,serif" font-size="14.00">q22:1</text>
</g>
<!-- q18:1&#45;&gt;q22:1 -->
<g id="edge14" class="edge">
<title>q18:1&#45;&gt;q22:1</title>
<path fill="none" stroke="black" d="M1992.1,-72C2032.8,-72 2096.3,-72 2140.7,-72"/>
<polygon fill="black" stroke="black" points="2140.69,-75.5 2150.69,-72 2140.69,-68.5 2140.69,-75.5"/>
<text text-anchor="middle" x="2072.2" y="-75.95" font-family="Times,serif" font-size="14.00">RSET/250:1</text>
</g>
<!-- q23:125 -->
<g id="node14" class="node">
<title>q23:125</title>
<ellipse fill="none" stroke="black" stroke-width="2" cx="2192.7" cy="-18" rx="52.26" ry="18"/>
<text text-anchor="middle" x="2192.7" y="-13.32" font-family="Times,serif" font-size="14.00">q23:125</text>
</g>
<!-- q19:125&#45;&gt;q23:125 -->
<g id="edge15" class="edge">
<title>q19:125&#45;&gt;q23:125</title>
<path fill="none" stroke="black" d="M2004.8,-18C2041.2,-18 2090,-18 2128.5,-18"/>
<polygon fill="black" stroke="black" points="2128.09,-21.5 2138.09,-18 2128.09,-14.5 2128.09,-21.5"/>
<text text-anchor="middle" x="2072.2" y="-21.95" font-family="Times,serif" font-size="14.00">QUIT/221:125</text>
</g>
<!-- q0:244 -->
<g id="node15" class="node">
<title>q0:244</title>
<ellipse fill="none" stroke="black" stroke-width="2" cx="53.95" cy="-180" rx="49.95" ry="49.95"/>
<ellipse fill="none" stroke="black" stroke-width="2" cx="53.95" cy="-180" rx="53.95" ry="53.95"/>
<text text-anchor="middle" x="53.95" y="-175.32" font-family="Times,serif" font-size="14.00">q0:244</text>
</g>
<!-- q1:244 -->
<g id="node16" class="node">
<title>q1:244</title>
<ellipse fill="none" stroke="black" stroke-width="2" cx="257.84" cy="-180" rx="45.95" ry="18"/>
<text text-anchor="middle" x="257.84" y="-175.32" font-family="Times,serif" font-size="14.00">q1:244</text>
</g>
<!-- q0:244&#45;&gt;q1:244 -->
<g id="edge16" class="edge">
<title>q0:244&#45;&gt;q1:244</title>
<path fill="none" stroke="black" d="M104.85,-180C133.64,-180 169.94,-180 199.84,-180"/>
<polygon fill="black" stroke="black" points="199.45,-183.5 209.45,-180 199.45,-176.5 199.45,-183.5"/>
<text text-anchor="middle" x="157.89" y="-183.94" font-family="Times,serif" font-size="14.00">λ/220:244</text>
</g>
<!-- q2:242 -->
<g id="node17" class="node">
<title>q2:242</title>
<ellipse fill="none" stroke="black" stroke-width="2" cx="491.48" cy="-213" rx="45.95" ry="18"/>
<text text-anchor="middle" x="491.48" y="-208.32" font-family="Times,serif" font-size="14.00">q2:242</text>
</g>
<!-- q1:244&#45;&gt;q2:242 -->
<g id="edge17" class="edge">
<title>q1:244&#45;&gt;q2:242</title>
<path fill="none" stroke="black" d="M302.14,-186.17C340,-191.56 395.17,-199.42 436.02,-205.24"/>
<polygon fill="black" stroke="black" points="435.51,-208.7 445.9,-206.65 436.49,-201.77 435.51,-208.7"/>
<text text-anchor="middle" x="374.66" y="-206.94" font-family="Times,serif" font-size="14.00">EHLO/250:242</text>
</g>
<!-- q3:2 -->
<g id="node18" class="node">
<title>q3:2</title>
<ellipse fill="none" stroke="black" stroke-width="2" cx="491.48" cy="-153" rx="33.32" ry="18"/>
<text text-anchor="middle" x="491.48" y="-148.32" font-family="Times,serif" font-size="14.00">q3:2</text>
</g>
<!-- q1:244&#45;&gt;q3:2 -->
<g id="edge18" class="edge">
<title>q1:244&#45;&gt;q3:2</title>
<path fill="none" stroke="black" d="M298.66,-170.83C306.31,-169.29 314.27,-167.84 321.79,-166.75 363.67,-160.66 411.82,-157.07 445.93,-155.1"/>
<polygon fill="black" stroke="black" points="446.07,-158.6 455.86,-154.54 445.68,-151.61 446.07,-158.6"/>
<text text-anchor="middle" x="374.66" y="-170.94" font-family="Times,serif" font-size="14.00">EHLO/λ:2</text>
</g>
<!-- q5:12 -->
<g id="node19" class="node">
<title>q5:12</title>
<ellipse fill="none" stroke="black" stroke-width="2" cx="725.13" cy="-268" rx="39.63" ry="18"/>
<text text-anchor="middle" x="725.13" y="-263.32" font-family="Times,serif" font-size="14.00">q5:12</text>
</g>
<!-- q2:242&#45;&gt;q5:12 -->
<g id="edge19" class="edge">
<title>q2:242&#45;&gt;q5:12</title>
<path fill="none" stroke="black" d="M521.03,-227.58C531.61,-232.48 543.85,-237.56 555.43,-241 594.52,-252.6 640.27,-259.53 674.26,-263.46"/>
<polygon fill="black" stroke="black" points="673.47,-266.89 683.8,-264.51 674.24,-259.94 673.47,-266.89"/>
<text text-anchor="middle" x="608.31" y="-264.94" font-family="Times,serif" font-size="14.00">AUTH/535:12</text>
</g>
<!-- q6:231 -->
<g id="node20" class="node">
<title>q6:231</title>
<ellipse fill="none" stroke="black" stroke-width="2" cx="725.13" cy="-153" rx="45.95" ry="18"/>
<text text-anchor="middle" x="725.13" y="-148.32" font-family="Times,serif" font-size="14.00">q6:231</text>
</g>
<!-- q2:242&#45;&gt;q6:231 -->
<g id="edge20" class="edge">
<title>q2:242&#45;&gt;q6:231</title>
<path fill="none" stroke="black" d="M518.34,-197.45C529.42,-191.41 542.72,-184.94 555.43,-180.75 591.87,-168.75 634.52,-161.79 667.82,-157.84"/>
<polygon fill="black" stroke="black" points="668.13,-161.33 677.68,-156.74 667.35,-154.37 668.13,-161.33"/>
<text text-anchor="middle" x="608.31" y="-183.94" font-family="Times,serif" font-size="14.00">AUTH/235:229</text>
</g>
<!-- q4:1 -->
<g id="node21" class="node">
<title>q4:1</title>
<ellipse fill="none" stroke="black" stroke-width="2" cx="839.7" cy="-219" rx="33.32" ry="18"/>
<text text-anchor="middle" x="839.7" y="-214.32" font-family="Times,serif" font-size="14.00">q4:1</text>
</g>
<!-- q2:242&#45;&gt;q4:1 -->
<g id="edge21" class="edge">
<title>q2:242&#45;&gt;q4:1</title>
<path fill="none" stroke="black" d="M538.1,-213.79C604.79,-214.95 728.13,-217.08 794.18,-218.23"/>
<polygon fill="black" stroke="black" points="793.87,-221.73 803.93,-218.39 793.99,-214.73 793.87,-221.73"/>
<text text-anchor="middle" x="608.31" y="-218.94" font-family="Times,serif" font-size="14.00">AUTH/λ:1</text>
</g>
<!-- q3:2&#45;&gt;q6:231 -->
<g id="edge22" class="edge">
<title>q3:2&#45;&gt;q6:231</title>
<path fill="none" stroke="black" d="M523.05,-145.83C533.28,-143.75 544.79,-141.78 555.43,-140.75 602.21,-136.24 614.4,-136.24 661.18,-140.75 665.01,-141.12 668.95,-141.61 672.91,-142.19"/>
<polygon fill="black" stroke="black" points="672.07,-145.6 682.51,-143.76 673.2,-138.69 672.07,-145.6"/>
<text text-anchor="middle" x="608.31" y="-144.94" font-family="Times,serif" font-size="14.00">AUTH/235:2</text>
</g>
<!-- q5:12&#45;&gt;q8:12 -->
<g id="edge23" class="edge">
<title>q5:12&#45;&gt;q8:12</title>
<path fill="none" stroke="black" d="M765.73,-268.51C805.17,-269.02 865.88,-269.8 908.84,-270.35"/>
<polygon fill="black" stroke="black" points="908.62,-273.85 918.67,-270.47 908.71,-266.85 908.62,-273.85"/>
<text text-anchor="middle" x="839.7" y="-273.94" font-family="Times,serif" font-size="14.00">AUTH/334:12</text>
</g>
<!-- q9:3 -->
<g id="node22" class="node">
<title>q9:3</title>
<ellipse fill="none" stroke="black" stroke-width="2" cx="960.59" cy="-107" rx="33.32" ry="18"/>
<text text-anchor="middle" x="960.59" y="-102.33" font-family="Times,serif" font-size="14.00">q9:3</text>
</g>
<!-- q6:231&#45;&gt;q9:3 -->
<g id="edge24" class="edge">
<title>q6:231&#45;&gt;q9:3</title>
<path fill="none" stroke="black" d="M762.55,-141.63C771.19,-139.16 780.42,-136.7 789.08,-134.75 831.92,-125.09 881.55,-117.4 916.17,-112.59"/>
<polygon fill="black" stroke="black" points="916.37,-116.09 925.81,-111.27 915.43,-109.16 916.37,-116.09"/>
<text text-anchor="middle" x="839.7" y="-138.94" font-family="Times,serif" font-size="14.00">MAIL/553:3</text>
</g>
<!-- q10:228 -->
<g id="node23" class="node">
<title>q10:228</title>
<ellipse fill="none" stroke="black" stroke-width="2" cx="960.59" cy="-161" rx="52.26" ry="18"/>
<text text-anchor="middle" x="960.59" y="-156.32" font-family="Times,serif" font-size="14.00">q10:228</text>
</g>
<!-- q6:231&#45;&gt;q10:228 -->
<g id="edge25" class="edge">
<title>q6:231&#45;&gt;q10:228</title>
<path fill="none" stroke="black" d="M771.7,-154.56C807.2,-155.78 856.92,-157.48 896.29,-158.83"/>
<polygon fill="black" stroke="black" points="895.99,-162.32 906.11,-159.17 896.23,-155.33 895.99,-162.32"/>
<text text-anchor="middle" x="839.7" y="-162.94" font-family="Times,serif" font-size="14.00">MAIL/250:228</text>
</g>
<!-- q4:1&#45;&gt;q7:232 -->
<g id="edge26" class="edge">
<title>q4:1&#45;&gt;q7:232</title>
<path fill="none" stroke="black" d="M873.71,-217.05C929.1,-213.3 1044,-203.49 1138.8,-182 1144.9,-180.63 1151.2,-178.91 1157.3,-177.05"/>
<polygon fill="black" stroke="black" points="1158.28,-180.41 1166.76,-174.05 1156.17,-173.74 1158.28,-180.41"/>
<text text-anchor="middle" x="960.59" y="-217.94" font-family="Times,serif" font-size="14.00">MAIL/250:1</text>
</g>
<!-- q14:3 -->
<g id="node24" class="node">
<title>q14:3</title>
<ellipse fill="none" stroke="black" stroke-width="2" cx="1202.8" cy="-107" rx="39.63" ry="18"/>
<text text-anchor="middle" x="1202.8" y="-102.33" font-family="Times,serif" font-size="14.00">q14:3</text>
</g>
<!-- q9:3&#45;&gt;q14:3 -->
<g id="edge27" class="edge">
<title>q9:3&#45;&gt;q14:3</title>
<path fill="none" stroke="black" d="M994.73,-107C1035.1,-107 1103.6,-107 1150.7,-107"/>
<polygon fill="black" stroke="black" points="1150.69,-110.5 1160.69,-107 1150.69,-103.5 1150.69,-110.5"/>
<text text-anchor="middle" x="1084.8" y="-110.95" font-family="Times,serif" font-size="14.00">RSET/250:3</text>
</g>
<!-- q10:228&#45;&gt;q7:232 -->
<g id="edge28" class="edge">
<title>q10:228&#45;&gt;q7:232</title>
<path fill="none" stroke="black" d="M1013.7,-161C1052.3,-161 1104.8,-161 1144.5,-161"/>
<polygon fill="black" stroke="black" points="1144.39,-164.5 1154.39,-161 1144.39,-157.5 1144.39,-164.5"/>
<text text-anchor="middle" x="1084.8" y="-164.94" font-family="Times,serif" font-size="14.00">RCPT/250:228</text>
</g>
</g>
</svg>
