<?xml version="1.0" encoding="UTF-8" standalone="no"?>
<!DOCTYPE svg PUBLIC "-//W3C//DTD SVG 1.1//EN"
 "http://www.w3.org/Graphics/SVG/1.1/DTD/svg11.dtd">
<!-- Generated by graphviz version 12.0.0 (20240803.0821)
 -->
<!-- Pages: 1 -->
<svg width="2240pt" height="219pt"
 viewBox="0.00 0.00 2240.36 219.00" xmlns="http://www.w3.org/2000/svg" xmlns:xlink="http://www.w3.org/1999/xlink">
<g id="graph0" class="graph" transform="scale(1 1) rotate(0) translate(4 215)">
<polygon fill="white" stroke="none" points="-4,4 -4,-215 2236.36,-215 2236.36,4 -4,4"/>
<!-- q10:3 -->
<g id="node1" class="node">
<title>q10:3</title>
<ellipse fill="none" stroke="black" stroke-width="2" cx="954.27" cy="-32" rx="39.63" ry="18"/>
<text text-anchor="middle" x="954.27" y="-27.32" font-family="Times,serif" font-size="14.00">q10:3</text>
</g>
<!-- q14:3 -->
<g id="node2" class="node">
<title>q14:3</title>
<ellipse fill="none" stroke="black" stroke-width="2" cx="1190.2" cy="-32" rx="39.63" ry="18"/>
<text text-anchor="middle" x="1190.2" y="-27.32" font-family="Times,serif" font-size="14.00">q14:3</text>
</g>
<!-- q10:3&#45;&gt;q14:3 -->
<g id="edge1" class="edge">
<title>q10:3&#45;&gt;q14:3</title>
<path fill="none" stroke="black" d="M994.68,-32C1034.2,-32 1095.1,-32 1138.2,-32"/>
<polygon fill="black" stroke="black" points="1138.09,-35.5 1148.09,-32 1138.09,-28.5 1138.09,-35.5"/>
<text text-anchor="middle" x="1072.2" y="-35.95" font-family="Times,serif" font-size="14.00">RSET/250:3</text>
</g>
<!-- q13:167 -->
<g id="node3" class="node">
<title>q13:167</title>
<ellipse fill="none" stroke="black" stroke-width="2" cx="1427.1" cy="-128" rx="52.26" ry="18"/>
<text text-anchor="middle" x="1427.1" y="-123.33" font-family="Times,serif" font-size="14.00">q13:167</text>
</g>
<!-- q12:3213 -->
<g id="node4" class="node">
<title>q12:3213</title>
<ellipse fill="none" stroke="black" stroke-width="2" cx="1675.2" cy="-72" rx="58.57" ry="18"/>
<text text-anchor="middle" x="1675.2" y="-67.33" font-family="Times,serif" font-size="14.00">q12:3213</text>
</g>
<!-- q13:167&#45;&gt;q12:3213 -->
<g id="edge2" class="edge">
<title>q13:167&#45;&gt;q12:3213</title>
<path fill="none" stroke="black" d="M1472.1,-117.99C1512.1,-108.9 1571.2,-95.43 1615.3,-85.41"/>
<polygon fill="black" stroke="black" points="1615.95,-88.85 1624.92,-83.22 1614.4,-82.03 1615.95,-88.85"/>
<text text-anchor="middle" x="1548" y="-114.95" font-family="Times,serif" font-size="14.00">DATA/354:120</text>
</g>
<!-- q8:232 -->
<g id="node5" class="node">
<title>q8:232</title>
<ellipse fill="none" stroke="black" stroke-width="2" cx="1190.2" cy="-105" rx="45.95" ry="18"/>
<text text-anchor="middle" x="1190.2" y="-100.33" font-family="Times,serif" font-size="14.00">q8:232</text>
</g>
<!-- q13:167&#45;&gt;q8:232 -->
<g id="edge3" class="edge">
<title>q13:167&#45;&gt;q8:232</title>
<path fill="none" stroke="black" d="M1390.7,-114.32C1380,-110.81 1368.1,-107.53 1356.9,-105.75 1320.8,-100.02 1279.8,-99.78 1247.6,-101.01"/>
<polygon fill="black" stroke="black" points="1247.45,-97.51 1237.61,-101.45 1247.76,-104.51 1247.45,-97.51"/>
<text text-anchor="middle" x="1305.5" y="-108.95" font-family="Times,serif" font-size="14.00">RCPT/250:4</text>
</g>
<!-- q19:43 -->
<g id="node6" class="node">
<title>q19:43</title>
<ellipse fill="none" stroke="black" stroke-width="2" cx="1675.2" cy="-161" rx="45.95" ry="18"/>
<text text-anchor="middle" x="1675.2" y="-156.32" font-family="Times,serif" font-size="14.00">q19:43</text>
</g>
<!-- q13:167&#45;&gt;q19:43 -->
<g id="edge4" class="edge">
<title>q13:167&#45;&gt;q19:43</title>
<path fill="none" stroke="black" d="M1477,-134.56C1518.1,-140.07 1576.8,-147.94 1619.4,-153.66"/>
<polygon fill="black" stroke="black" points="1618.82,-157.11 1629.2,-154.97 1619.75,-150.18 1618.82,-157.11"/>
<text text-anchor="middle" x="1548" y="-153.94" font-family="Times,serif" font-size="14.00">DATA/550:43</text>
</g>
<!-- q12:3213&#45;&gt;q12:3213 -->
<g id="edge5" class="edge">
<title>q12:3213&#45;&gt;q12:3213</title>
<path fill="none" stroke="black" d="M1652.5,-89.41C1648.3,-99.09 1655.8,-108 1675.2,-108 1686.4,-108 1693.7,-105.02 1697,-100.64"/>
<polygon fill="black" stroke="black" points="1700.47,-101.17 1697.78,-90.92 1693.49,-100.61 1700.47,-101.17"/>
<text text-anchor="middle" x="1675.2" y="-111.95" font-family="Times,serif" font-size="14.00">content/λ:3028</text>
</g>
<!-- q17:50 -->
<g id="node7" class="node">
<title>q17:50</title>
<ellipse fill="none" stroke="black" stroke-width="2" cx="1939" cy="-126" rx="45.95" ry="18"/>
<text text-anchor="middle" x="1939" y="-121.33" font-family="Times,serif" font-size="14.00">q17:50</text>
</g>
<!-- q12:3213&#45;&gt;q17:50 -->
<g id="edge6" class="edge">
<title>q12:3213&#45;&gt;q17:50</title>
<path fill="none" stroke="black" d="M1719.2,-84.71C1729.8,-87.63 1741.2,-90.59 1751.8,-93 1795.9,-103.01 1846.5,-111.81 1883.8,-117.79"/>
<polygon fill="black" stroke="black" points="1882.98,-121.2 1893.4,-119.32 1884.08,-114.29 1882.98,-121.2"/>
<text text-anchor="middle" x="1810.3" y="-118.95" font-family="Times,serif" font-size="14.00">content/554:50</text>
</g>
<!-- q18:1 -->
<g id="node8" class="node">
<title>q18:1</title>
<ellipse fill="none" stroke="black" stroke-width="2" cx="1939" cy="-72" rx="39.63" ry="18"/>
<text text-anchor="middle" x="1939" y="-67.33" font-family="Times,serif" font-size="14.00">q18:1</text>
</g>
<!-- q12:3213&#45;&gt;q18:1 -->
<g id="edge7" class="edge">
<title>q12:3213&#45;&gt;q18:1</title>
<path fill="none" stroke="black" d="M1734.6,-72C1780.3,-72 1843.2,-72 1886.9,-72"/>
<polygon fill="black" stroke="black" points="1886.99,-75.5 1896.99,-72 1886.99,-68.5 1886.99,-75.5"/>
<text text-anchor="middle" x="1810.3" y="-75.95" font-family="Times,serif" font-size="14.00">content/550:1</text>
</g>
<!-- q16:134 -->
<g id="node9" class="node">
<title>q16:134</title>
<ellipse fill="none" stroke="black" stroke-width="2" cx="1939" cy="-18" rx="52.26" ry="18"/>
<text text-anchor="middle" x="1939" y="-13.32" font-family="Times,serif" font-size="14.00">q16:134</text>
</g>
<!-- q12:3213&#45;&gt;q16:134 -->
<g id="edge8" class="edge">
<title>q12:3213&#45;&gt;q16:134</title>
<path fill="none" stroke="black" d="M1718.8,-59.23C1729.5,-56.23 1741,-53.2 1751.8,-50.75 1794,-41.13 1842.1,-32.73 1878.9,-26.85"/>
<polygon fill="black" stroke="black" points="1879.08,-30.36 1888.4,-25.34 1877.98,-23.45 1879.08,-30.36"/>
<text text-anchor="middle" x="1810.3" y="-54.95" font-family="Times,serif" font-size="14.00">content/250:134</text>
</g>
<!-- q8:232&#45;&gt;q13:167 -->
<g id="edge9" class="edge">
<title>q8:232&#45;&gt;q13:167</title>
<path fill="none" stroke="black" d="M1226.8,-116.85C1235.6,-119.33 1245.1,-121.61 1254.1,-123 1289.9,-128.55 1330.4,-129.96 1363,-129.91"/>
<polygon fill="black" stroke="black" points="1362.81,-133.41 1372.79,-129.85 1362.76,-126.41 1362.81,-133.41"/>
<text text-anchor="middle" x="1305.5" y="-132.94" font-family="Times,serif" font-size="14.00">RCPT/250:167</text>
</g>
<!-- q8:232&#45;&gt;q12:3213 -->
<g id="edge10" class="edge">
<title>q8:232&#45;&gt;q12:3213</title>
<path fill="none" stroke="black" d="M1234.8,-99.35C1241.3,-98.54 1247.9,-97.74 1254.1,-97 1307.7,-90.65 1321,-87.76 1374.9,-83.75 1453.4,-77.9 1543.8,-74.86 1604.6,-73.35"/>
<polygon fill="black" stroke="black" points="1604.47,-76.86 1614.39,-73.12 1604.3,-69.86 1604.47,-76.86"/>
<text text-anchor="middle" x="1427.1" y="-87.95" font-family="Times,serif" font-size="14.00">DATA/354:65</text>
</g>
<!-- q21:50 -->
<g id="node10" class="node">
<title>q21:50</title>
<ellipse fill="none" stroke="black" stroke-width="2" cx="2180.1" cy="-126" rx="45.95" ry="18"/>
<text text-anchor="middle" x="2180.1" y="-121.33" font-family="Times,serif" font-size="14.00">q21:50</text>
</g>
<!-- q17:50&#45;&gt;q21:50 -->
<g id="edge11" class="edge">
<title>q17:50&#45;&gt;q21:50</title>
<path fill="none" stroke="black" d="M1985.8,-126C2024.6,-126 2080.4,-126 2122.1,-126"/>
<polygon fill="black" stroke="black" points="2121.89,-129.5 2131.89,-126 2121.89,-122.5 2121.89,-129.5"/>
<text text-anchor="middle" x="2059.6" y="-129.94" font-family="Times,serif" font-size="14.00">RSET/250:50</text>
</g>
<!-- q22:1 -->
<g id="node11" class="node">
<title>q22:1</title>
<ellipse fill="none" stroke="black" stroke-width="2" cx="2180.1" cy="-72" rx="39.63" ry="18"/>
<text text-anchor="middle" x="2180.1" y="-67.33" font-family="Times,serif" font-size="14.00">q22:1</text>
</g>
<!-- q18:1&#45;&gt;q22:1 -->
<g id="edge12" class="edge">
<title>q18:1&#45;&gt;q22:1</title>
<path fill="none" stroke="black" d="M1979.5,-72C2020.2,-72 2083.7,-72 2128.1,-72"/>
<polygon fill="black" stroke="black" points="2127.99,-75.5 2137.99,-72 2127.99,-68.5 2127.99,-75.5"/>
<text text-anchor="middle" x="2059.6" y="-75.95" font-family="Times,serif" font-size="14.00">RSET/250:1</text>
</g>
<!-- q20:134 -->
<g id="node12" class="node">
<title>q20:134</title>
<ellipse fill="none" stroke="black" stroke-width="2" cx="2180.1" cy="-18" rx="52.26" ry="18"/>
<text text-anchor="middle" x="2180.1" y="-13.32" font-family="Times,serif" font-size="14.00">q20:134</text>
</g>
<!-- q16:134&#45;&gt;q20:134 -->
<g id="edge13" class="edge">
<title>q16:134&#45;&gt;q20:134</title>
<path fill="none" stroke="black" d="M1992.2,-18C2028.6,-18 2077.3,-18 2115.9,-18"/>
<polygon fill="black" stroke="black" points="2115.49,-21.5 2125.49,-18 2115.49,-14.5 2115.49,-21.5"/>
<text text-anchor="middle" x="2059.6" y="-21.95" font-family="Times,serif" font-size="14.00">QUIT/221:134</text>
</g>
<!-- q6:230 -->
<g id="node13" class="node">
<title>q6:230</title>
<ellipse fill="none" stroke="black" stroke-width="2" cx="725.13" cy="-78" rx="45.95" ry="18"/>
<text text-anchor="middle" x="725.13" y="-73.33" font-family="Times,serif" font-size="14.00">q6:230</text>
</g>
<!-- q6:230&#45;&gt;q10:3 -->
<g id="edge14" class="edge">
<title>q6:230&#45;&gt;q10:3</title>
<path fill="none" stroke="black" d="M762.56,-66.67C771.2,-64.19 780.42,-61.73 789.08,-59.75 827.4,-50.99 871.33,-43.7 904.1,-38.8"/>
<polygon fill="black" stroke="black" points="904.32,-42.31 913.7,-37.39 903.3,-35.38 904.32,-42.31"/>
<text text-anchor="middle" x="839.7" y="-63.95" font-family="Times,serif" font-size="14.00">MAIL/553:3</text>
</g>
<!-- q9:227 -->
<g id="node14" class="node">
<title>q9:227</title>
<ellipse fill="none" stroke="black" stroke-width="2" cx="954.27" cy="-86" rx="45.95" ry="18"/>
<text text-anchor="middle" x="954.27" y="-81.33" font-family="Times,serif" font-size="14.00">q9:227</text>
</g>
<!-- q6:230&#45;&gt;q9:227 -->
<g id="edge15" class="edge">
<title>q6:230&#45;&gt;q9:227</title>
<path fill="none" stroke="black" d="M771.82,-79.61C807.78,-80.88 858.09,-82.65 896.61,-84"/>
<polygon fill="black" stroke="black" points="896.02,-87.49 906.14,-84.34 896.27,-80.49 896.02,-87.49"/>
<text text-anchor="middle" x="839.7" y="-87.95" font-family="Times,serif" font-size="14.00">MAIL/250:227</text>
</g>
<!-- q9:227&#45;&gt;q8:232 -->
<g id="edge16" class="edge">
<title>q9:227&#45;&gt;q8:232</title>
<path fill="none" stroke="black" d="M1000.09,-89.64C1037.8,-92.71 1092,-97.11 1132.7,-100.42"/>
<polygon fill="black" stroke="black" points="1132.34,-103.9 1142.59,-101.22 1132.9,-96.93 1132.34,-103.9"/>
<text text-anchor="middle" x="1072.2" y="-103.95" font-family="Times,serif" font-size="14.00">RCPT/250:227</text>
</g>
<!-- q7:13 -->
<g id="node15" class="node">
<title>q7:13</title>
<ellipse fill="none" stroke="black" stroke-width="2" cx="954.27" cy="-193" rx="39.63" ry="18"/>
<text text-anchor="middle" x="954.27" y="-188.32" font-family="Times,serif" font-size="14.00">q7:13</text>
</g>
<!-- q11:13 -->
<g id="node16" class="node">
<title>q11:13</title>
<ellipse fill="none" stroke="black" stroke-width="2" cx="1190.2" cy="-193" rx="45.95" ry="18"/>
<text text-anchor="middle" x="1190.2" y="-188.32" font-family="Times,serif" font-size="14.00">q11:13</text>
</g>
<!-- q7:13&#45;&gt;q11:13 -->
<g id="edge17" class="edge">
<title>q7:13&#45;&gt;q11:13</title>
<path fill="none" stroke="black" d="M994.68,-193C1032.4,-193 1089.6,-193 1132.2,-193"/>
<polygon fill="black" stroke="black" points="1132.09,-196.5 1142.09,-193 1132.09,-189.5 1132.09,-196.5"/>
<text text-anchor="middle" x="1072.2" y="-196.94" font-family="Times,serif" font-size="14.00">content/535:13</text>
</g>
<!-- q15:4 -->
<g id="node17" class="node">
<title>q15:4</title>
<ellipse fill="none" stroke="black" stroke-width="2" cx="1427.1" cy="-193" rx="39.63" ry="18"/>
<text text-anchor="middle" x="1427.1" y="-188.32" font-family="Times,serif" font-size="14.00">q15:4</text>
</g>
<!-- q11:13&#45;&gt;q15:4 -->
<g id="edge18" class="edge">
<title>q11:13&#45;&gt;q15:4</title>
<path fill="none" stroke="black" d="M1237,-193C1276.7,-193 1334.1,-193 1375.2,-193"/>
<polygon fill="black" stroke="black" points="1375.09,-196.5 1385.09,-193 1375.09,-189.5 1375.09,-196.5"/>
<text text-anchor="middle" x="1305.5" y="-196.94" font-family="Times,serif" font-size="14.00">λ/451:4</text>
</g>
<!-- q2:242 -->
<g id="node18" class="node">
<title>q2:242</title>
<ellipse fill="none" stroke="black" stroke-width="2" cx="491.48" cy="-138" rx="45.95" ry="18"/>
<text text-anchor="middle" x="491.48" y="-133.32" font-family="Times,serif" font-size="14.00">q2:242</text>
</g>
<!-- q2:242&#45;&gt;q6:230 -->
<g id="edge19" class="edge">
<title>q2:242&#45;&gt;q6:230</title>
<path fill="none" stroke="black" d="M518.34,-122.45C529.42,-116.41 542.72,-109.94 555.43,-105.75 591.87,-93.75 634.52,-86.79 667.82,-82.84"/>
<polygon fill="black" stroke="black" points="668.13,-86.33 677.68,-81.74 667.35,-79.37 668.13,-86.33"/>
<text text-anchor="middle" x="608.31" y="-108.95" font-family="Times,serif" font-size="14.00">AUTH/235:228</text>
</g>
<!-- q4:13 -->
<g id="node19" class="node">
<title>q4:13</title>
<ellipse fill="none" stroke="black" stroke-width="2" cx="725.13" cy="-192" rx="39.63" ry="18"/>
<text text-anchor="middle" x="725.13" y="-187.32" font-family="Times,serif" font-size="14.00">q4:13</text>
</g>
<!-- q2:242&#45;&gt;q4:13 -->
<g id="edge20" class="edge">
<title>q2:242&#45;&gt;q4:13</title>
<path fill="none" stroke="black" d="M521.02,-152.62C531.6,-157.52 543.84,-162.6 555.43,-166 594.51,-177.48 640.26,-184.13 674.25,-187.82"/>
<polygon fill="black" stroke="black" points="673.49,-191.26 683.79,-188.81 674.21,-184.3 673.49,-191.26"/>
<text text-anchor="middle" x="608.31" y="-189.94" font-family="Times,serif" font-size="14.00">AUTH/535:13</text>
</g>
<!-- q5:1 -->
<g id="node20" class="node">
<title>q5:1</title>
<ellipse fill="none" stroke="black" stroke-width="2" cx="839.7" cy="-143" rx="33.32" ry="18"/>
<text text-anchor="middle" x="839.7" y="-138.32" font-family="Times,serif" font-size="14.00">q5:1</text>
</g>
<!-- q2:242&#45;&gt;q5:1 -->
<g id="edge21" class="edge">
<title>q2:242&#45;&gt;q5:1</title>
<path fill="none" stroke="black" d="M538.1,-138.66C604.79,-139.62 728.13,-141.4 794.18,-142.36"/>
<polygon fill="black" stroke="black" points="793.88,-145.86 803.93,-142.5 793.98,-138.86 793.88,-145.86"/>
<text text-anchor="middle" x="608.31" y="-143.94" font-family="Times,serif" font-size="14.00">AUTH/λ:1</text>
</g>
<!-- q4:13&#45;&gt;q7:13 -->
<g id="edge22" class="edge">
<title>q4:13&#45;&gt;q7:13</title>
<path fill="none" stroke="black" d="M765.69,-192.17C803.6,-192.34 861,-192.59 902.32,-192.78"/>
<polygon fill="black" stroke="black" points="902.25,-196.28 912.27,-192.82 902.28,-189.28 902.25,-196.28"/>
<text text-anchor="middle" x="839.7" y="-195.94" font-family="Times,serif" font-size="14.00">AUTH/334:13</text>
</g>
<!-- q5:1&#45;&gt;q8:232 -->
<g id="edge23" class="edge">
<title>q5:1&#45;&gt;q8:232</title>
<path fill="none" stroke="black" d="M873.89,-142.29C927.36,-140.74 1035.7,-135.88 1126.2,-121 1130.9,-120.24 1135.6,-119.3 1140.4,-118.27"/>
<polygon fill="black" stroke="black" points="1140.98,-121.73 1149.93,-116.05 1139.39,-114.91 1140.98,-121.73"/>
<text text-anchor="middle" x="954.27" y="-144.94" font-family="Times,serif" font-size="14.00">MAIL/250:1</text>
</g>
<!-- q0:244 -->
<g id="node21" class="node">
<title>q0:244</title>
<ellipse fill="none" stroke="black" stroke-width="2" cx="53.95" cy="-105" rx="49.95" ry="49.95"/>
<ellipse fill="none" stroke="black" stroke-width="2" cx="53.95" cy="-105" rx="53.95" ry="53.95"/>
<text text-anchor="middle" x="53.95" y="-100.33" font-family="Times,serif" font-size="14.00">q0:244</text>
</g>
<!-- q1:244 -->
<g id="node22" class="node">
<title>q1:244</title>
<ellipse fill="none" stroke="black" stroke-width="2" cx="257.84" cy="-105" rx="45.95" ry="18"/>
<text text-anchor="middle" x="257.84" y="-100.33" font-family="Times,serif" font-size="14.00">q1:244</text>
</g>
<!-- q0:244&#45;&gt;q1:244 -->
<g id="edge24" class="edge">
<title>q0:244&#45;&gt;q1:244</title>
<path fill="none" stroke="black" d="M104.85,-105C133.64,-105 169.94,-105 199.84,-105"/>
<polygon fill="black" stroke="black" points="199.45,-108.5 209.45,-105 199.45,-101.5 199.45,-108.5"/>
<text text-anchor="middle" x="157.89" y="-108.95" font-family="Times,serif" font-size="14.00">λ/220:244</text>
</g>
<!-- q1:244&#45;&gt;q2:242 -->
<g id="edge25" class="edge">
<title>q1:244&#45;&gt;q2:242</title>
<path fill="none" stroke="black" d="M302.14,-111.17C340,-116.56 395.17,-124.42 436.02,-130.24"/>
<polygon fill="black" stroke="black" points="435.51,-133.7 445.9,-131.65 436.49,-126.77 435.51,-133.7"/>
<text text-anchor="middle" x="374.66" y="-131.94" font-family="Times,serif" font-size="14.00">EHLO/250:242</text>
</g>
<!-- q3:2 -->
<g id="node23" class="node">
<title>q3:2</title>
<ellipse fill="none" stroke="black" stroke-width="2" cx="491.48" cy="-78" rx="33.32" ry="18"/>
<text text-anchor="middle" x="491.48" y="-73.33" font-family="Times,serif" font-size="14.00">q3:2</text>
</g>
<!-- q1:244&#45;&gt;q3:2 -->
<g id="edge26" class="edge">
<title>q1:244&#45;&gt;q3:2</title>
<path fill="none" stroke="black" d="M298.66,-95.83C306.31,-94.29 314.27,-92.84 321.79,-91.75 363.67,-85.66 411.82,-82.07 445.93,-80.1"/>
<polygon fill="black" stroke="black" points="446.07,-83.59 455.86,-79.55 445.68,-76.6 446.07,-83.59"/>
<text text-anchor="middle" x="374.66" y="-95.95" font-family="Times,serif" font-size="14.00">EHLO/λ:2</text>
</g>
<!-- q3:2&#45;&gt;q6:230 -->
<g id="edge27" class="edge">
<title>q3:2&#45;&gt;q6:230</title>
<path fill="none" stroke="black" d="M523.05,-70.83C533.28,-68.75 544.79,-66.78 555.43,-65.75 602.21,-61.24 614.4,-61.24 661.18,-65.75 665.01,-66.12 668.95,-66.61 672.91,-67.19"/>
<polygon fill="black" stroke="black" points="672.07,-70.6 682.51,-68.75 673.2,-63.69 672.07,-70.6"/>
<text text-anchor="middle" x="608.31" y="-69.95" font-family="Times,serif" font-size="14.00">AUTH/235:2</text>
</g>
</g>
</svg>
