<?xml version="1.0" encoding="UTF-8" standalone="no"?>
<!DOCTYPE svg PUBLIC "-//W3C//DTD SVG 1.1//EN"
 "http://www.w3.org/Graphics/SVG/1.1/DTD/svg11.dtd">
<!-- Generated by graphviz version 12.0.0 (20240803.0821)
 -->
<!-- Pages: 1 -->
<svg width="5083pt" height="738pt"
 viewBox="0.00 0.00 5083.05 737.68" xmlns="http://www.w3.org/2000/svg" xmlns:xlink="http://www.w3.org/1999/xlink">
<g id="graph0" class="graph" transform="scale(1 1) rotate(0) translate(4 733.68)">
<polygon fill="white" stroke="none" points="-4,4 -4,-733.68 5079.05,-733.68 5079.05,4 -4,4"/>
<!-- q19:1 -->
<g id="node1" class="node">
<title>q19:1</title>
<ellipse fill="none" stroke="black" stroke-width="2" cx="4809.7" cy="-190.98" rx="39.63" ry="18"/>
<text text-anchor="middle" x="4809.7" y="-186.3" font-family="Times,serif" font-size="14.00">q19:1</text>
</g>
<!-- q25:1 -->
<g id="node2" class="node">
<title>q25:1</title>
<ellipse fill="none" stroke="black" stroke-width="2" cx="5029.1" cy="-190.98" rx="39.63" ry="18"/>
<text text-anchor="middle" x="5029.1" y="-186.3" font-family="Times,serif" font-size="14.00">q25:1</text>
</g>
<!-- q19:1&#45;&gt;q25:1 -->
<g id="edge1" class="edge">
<title>q19:1&#45;&gt;q25:1</title>
<path fill="none" stroke="black" d="M4850.3,-190.98C4886.1,-190.98 4939,-190.98 4977.7,-190.98"/>
<polygon fill="black" stroke="black" points="4977.29,-194.48 4987.29,-190.98 4977.29,-187.48 4977.29,-194.48"/>
<text text-anchor="middle" x="4919.4" y="-212.18" font-family="Times,serif" font-size="14.00">RSET/250:1</text>
<text text-anchor="middle" x="4919.4" y="-194.93" font-family="Times,serif" font-size="14.00">a0 = b0</text>
</g>
<!-- q0:244 -->
<g id="node3" class="node">
<title>q0:244</title>
<ellipse fill="none" stroke="black" stroke-width="2" cx="53.95" cy="-191.98" rx="49.95" ry="49.95"/>
<ellipse fill="none" stroke="black" stroke-width="2" cx="53.95" cy="-191.98" rx="53.95" ry="53.95"/>
<text text-anchor="middle" x="53.95" y="-187.3" font-family="Times,serif" font-size="14.00">q0:244</text>
</g>
<!-- q1:244 -->
<g id="node4" class="node">
<title>q1:244</title>
<ellipse fill="none" stroke="black" stroke-width="2" cx="257.84" cy="-191.98" rx="45.95" ry="18"/>
<text text-anchor="middle" x="257.84" y="-187.3" font-family="Times,serif" font-size="14.00">q1:244</text>
</g>
<!-- q0:244&#45;&gt;q1:244 -->
<g id="edge2" class="edge">
<title>q0:244&#45;&gt;q1:244</title>
<path fill="none" stroke="black" d="M104.85,-191.98C133.64,-191.98 169.94,-191.98 199.84,-191.98"/>
<polygon fill="black" stroke="black" points="199.45,-195.48 209.45,-191.98 199.45,-188.48 199.45,-195.48"/>
<text text-anchor="middle" x="157.89" y="-195.92" font-family="Times,serif" font-size="14.00">λ/220:244</text>
</g>
<!-- q2:1 -->
<g id="node5" class="node">
<title>q2:1</title>
<ellipse fill="none" stroke="black" stroke-width="2" cx="501.98" cy="-141.98" rx="33.32" ry="18"/>
<text text-anchor="middle" x="501.98" y="-137.3" font-family="Times,serif" font-size="14.00">q2:1</text>
</g>
<!-- q1:244&#45;&gt;q2:1 -->
<g id="edge3" class="edge">
<title>q1:244&#45;&gt;q2:1</title>
<path fill="none" stroke="black" d="M290.77,-178.58C300.58,-174.86 311.51,-171.13 321.79,-168.48 367.13,-156.8 420.34,-149.74 456.94,-145.88"/>
<polygon fill="black" stroke="black" points="457.1,-149.38 466.69,-144.89 456.39,-142.41 457.1,-149.38"/>
<text text-anchor="middle" x="379.91" y="-190.18" font-family="Times,serif" font-size="14.00">EHLO/λ:1</text>
<text text-anchor="middle" x="379.91" y="-172.93" font-family="Times,serif" font-size="14.00">a0 = [127.0.1.1]</text>
</g>
<!-- q3:243 -->
<g id="node6" class="node">
<title>q3:243</title>
<ellipse fill="none" stroke="black" stroke-width="2" cx="501.98" cy="-245.98" rx="45.95" ry="18"/>
<text text-anchor="middle" x="501.98" y="-241.3" font-family="Times,serif" font-size="14.00">q3:243</text>
</g>
<!-- q1:244&#45;&gt;q3:243 -->
<g id="edge4" class="edge">
<title>q1:244&#45;&gt;q3:243</title>
<path fill="none" stroke="black" d="M299.1,-200.96C340.51,-210.19 405.12,-224.6 450.06,-234.62"/>
<polygon fill="black" stroke="black" points="449.03,-237.97 459.55,-236.74 450.56,-231.14 449.03,-237.97"/>
<text text-anchor="middle" x="379.91" y="-234.92" font-family="Times,serif" font-size="14.00">EHLO/250:243</text>
</g>
<!-- q4:231 -->
<g id="node7" class="node">
<title>q4:231</title>
<ellipse fill="none" stroke="black" stroke-width="2" cx="1681.4" cy="-158.98" rx="45.95" ry="18"/>
<text text-anchor="middle" x="1681.4" y="-154.3" font-family="Times,serif" font-size="14.00">q4:231</text>
</g>
<!-- q2:1&#45;&gt;q4:231 -->
<g id="edge5" class="edge">
<title>q2:1&#45;&gt;q4:231</title>
<path fill="none" stroke="black" d="M535.28,-137.46C669.48,-119.56 1195.8,-58.33 1617.4,-135.23 1624.7,-136.55 1632.2,-138.66 1639.4,-141.1"/>
<polygon fill="black" stroke="black" points="1637.98,-144.31 1648.58,-144.46 1640.39,-137.73 1637.98,-144.31"/>
<text text-anchor="middle" x="1091.7" y="-174.43" font-family="Times,serif" font-size="14.00">AUTH/235:1</text>
<text text-anchor="middle" x="1091.7" y="-157.18" font-family="Times,serif" font-size="14.00">a0 = PLAIN AEF6NjE2MUBzaW5hLmNvbQA2ZmRiMjVjZmNjODYyZWZj</text>
<text text-anchor="middle" x="1091.7" y="-139.93" font-family="Times,serif" font-size="14.00">b0 = OK Authenticated</text>
</g>
<!-- q3:243&#45;&gt;q4:231 -->
<g id="edge6" class="edge">
<title>q3:243&#45;&gt;q4:231</title>
<path fill="none" stroke="black" d="M523.13,-229.25C534.84,-220.6 550.33,-210.9 565.93,-206.23 677.88,-172.73 1503.4,-212.3 1617.4,-186.98 1625.9,-185.11 1634.6,-182.06 1642.7,-178.65"/>
<polygon fill="black" stroke="black" points="1643.93,-181.93 1651.62,-174.64 1641.06,-175.54 1643.93,-181.93"/>
<text text-anchor="middle" x="1091.7" y="-244.43" font-family="Times,serif" font-size="14.00">AUTH/235:230</text>
<text text-anchor="middle" x="1091.7" y="-227.18" font-family="Times,serif" font-size="14.00">a0 in {&#39;PLAIN AEF6NjE2MUBzaW5hLmNvbQA2ZmRiMjVjZmNjODYyZWZj&#39;, &#39;PLAIN AEF6NjE2MUAxMjYuY29tAE1VUVNBT1NUWElURkpDVUU=&#39;}</text>
<text text-anchor="middle" x="1091.7" y="-209.93" font-family="Times,serif" font-size="14.00">b0 in {&#39;Authentication successful&#39;, &#39;OK Authenticated&#39;}</text>
</g>
<!-- q5:1 -->
<g id="node8" class="node">
<title>q5:1</title>
<ellipse fill="none" stroke="black" stroke-width="2" cx="2106.1" cy="-341.98" rx="33.32" ry="18"/>
<text text-anchor="middle" x="2106.1" y="-337.3" font-family="Times,serif" font-size="14.00">q5:1</text>
</g>
<!-- q3:243&#45;&gt;q5:1 -->
<g id="edge7" class="edge">
<title>q3:243&#45;&gt;q5:1</title>
<path fill="none" stroke="black" d="M512.41,-264.21C522.8,-282.12 541.36,-308.41 565.93,-319.98 1107.4,-574.96 1879.4,-400.67 2064.2,-353.02"/>
<polygon fill="black" stroke="black" points="2065.03,-356.42 2073.83,-350.52 2063.28,-349.64 2065.03,-356.42"/>
<text text-anchor="middle" x="1091.7" y="-476.18" font-family="Times,serif" font-size="14.00">AUTH/λ:1</text>
<text text-anchor="middle" x="1091.7" y="-458.93" font-family="Times,serif" font-size="14.00">a0 = PLAIN AEF6NjE2MUAxMjYuY29tAE1VUVNBT1NUWElURkpDVUU=</text>
</g>
<!-- q6:12 -->
<g id="node9" class="node">
<title>q6:12</title>
<ellipse fill="none" stroke="black" stroke-width="2" cx="1681.4" cy="-283.98" rx="39.63" ry="18"/>
<text text-anchor="middle" x="1681.4" y="-279.3" font-family="Times,serif" font-size="14.00">q6:12</text>
</g>
<!-- q3:243&#45;&gt;q6:12 -->
<g id="edge8" class="edge">
<title>q3:243&#45;&gt;q6:12</title>
<path fill="none" stroke="black" d="M539.99,-256.88C548.44,-258.96 557.44,-260.83 565.93,-261.98 671.93,-276.3 1426,-282.3 1629.8,-283.66"/>
<polygon fill="black" stroke="black" points="1629.46,-287.15 1639.49,-283.73 1629.51,-280.15 1629.46,-287.15"/>
<text text-anchor="middle" x="1091.7" y="-304.18" font-family="Times,serif" font-size="14.00">AUTH/535:12</text>
<text text-anchor="middle" x="1091.7" y="-286.93" font-family="Times,serif" font-size="14.00">b0 in {&#39;5.7.8 authentication failed&#39;, &#39;Error: authentication failed&#39;}</text>
</g>
<!-- q7:3 -->
<g id="node10" class="node">
<title>q7:3</title>
<ellipse fill="none" stroke="black" stroke-width="2" cx="2530.8" cy="-92.98" rx="33.32" ry="18"/>
<text text-anchor="middle" x="2530.8" y="-88.3" font-family="Times,serif" font-size="14.00">q7:3</text>
</g>
<!-- q4:231&#45;&gt;q7:3 -->
<g id="edge9" class="edge">
<title>q4:231&#45;&gt;q7:3</title>
<path fill="none" stroke="black" d="M1696.6,-141.26C1708.1,-128.3 1725.7,-111.73 1745.3,-104.23 2011.6,-2.45 2366.8,-59.56 2487.5,-83.8"/>
<polygon fill="black" stroke="black" points="2486.82,-87.23 2497.32,-85.8 2488.22,-80.37 2486.82,-87.23"/>
<text text-anchor="middle" x="2106.1" y="-143.43" font-family="Times,serif" font-size="14.00">MAIL/553:3</text>
<text text-anchor="middle" x="2106.1" y="-126.18" font-family="Times,serif" font-size="14.00">a0 in {&#39;FROM:&lt;Az_6161@sina.com&gt;&#39;, &#39;FROM:&lt;Az_6161@126.com&gt;&#39;, &#39;FROM:&lt;Az6161@163.com&gt;&#39;}</text>
<text text-anchor="middle" x="2106.1" y="-108.93" font-family="Times,serif" font-size="14.00">b0 in {&#39;Mail from must equal authorized user&#39;, &#39;Envolope sender mismatch with login user..&#39;}</text>
</g>
<!-- q8:228 -->
<g id="node11" class="node">
<title>q8:228</title>
<ellipse fill="none" stroke="black" stroke-width="2" cx="2530.8" cy="-167.98" rx="45.95" ry="18"/>
<text text-anchor="middle" x="2530.8" y="-163.3" font-family="Times,serif" font-size="14.00">q8:228</text>
</g>
<!-- q4:231&#45;&gt;q8:228 -->
<g id="edge10" class="edge">
<title>q4:231&#45;&gt;q8:228</title>
<path fill="none" stroke="black" d="M1728.2,-159.47C1872.1,-161 2314.4,-165.69 2472.7,-167.37"/>
<polygon fill="black" stroke="black" points="2472.45,-170.86 2482.49,-167.47 2472.52,-163.86 2472.45,-170.86"/>
<text text-anchor="middle" x="2106.1" y="-206.43" font-family="Times,serif" font-size="14.00">MAIL/250:228</text>
<text text-anchor="middle" x="2106.1" y="-189.18" font-family="Times,serif" font-size="14.00">a0 in {&#39;FROM:&lt;Az6161@126.com&gt;&#39;, &#39;FROM:&lt;Az6161@sina.com&gt;&#39;}</text>
<text text-anchor="middle" x="2106.1" y="-171.93" font-family="Times,serif" font-size="14.00">b0 in {&#39;Mail OK&#39;, &#39;ok&#39;}</text>
</g>
<!-- q9:150 -->
<g id="node12" class="node">
<title>q9:150</title>
<ellipse fill="none" stroke="black" stroke-width="2" cx="3817.7" cy="-180.98" rx="45.95" ry="18"/>
<text text-anchor="middle" x="3817.7" y="-176.3" font-family="Times,serif" font-size="14.00">q9:150</text>
</g>
<!-- q5:1&#45;&gt;q9:150 -->
<g id="edge11" class="edge">
<title>q5:1&#45;&gt;q9:150</title>
<path fill="none" stroke="black" d="M2134.5,-352.44C2304.7,-415.57 3228.4,-729.68 3753.7,-325.98 3777.5,-307.72 3760.3,-288.69 3771.7,-260.98 3779.2,-242.91 3789.8,-223.79 3798.9,-208.77"/>
<polygon fill="black" stroke="black" points="3801.8,-210.74 3804.01,-200.38 3795.82,-207.1 3801.8,-210.74"/>
<text text-anchor="middle" x="2942" y="-566.43" font-family="Times,serif" font-size="14.00">MAIL/250:1</text>
<text text-anchor="middle" x="2942" y="-549.18" font-family="Times,serif" font-size="14.00">a0 = FROM:&lt;Az6161@126.com&gt;</text>
<text text-anchor="middle" x="2942" y="-531.93" font-family="Times,serif" font-size="14.00">b0 = Mail OK</text>
</g>
<!-- q10:12 -->
<g id="node13" class="node">
<title>q10:12</title>
<ellipse fill="none" stroke="black" stroke-width="2" cx="2530.8" cy="-283.98" rx="45.95" ry="18"/>
<text text-anchor="middle" x="2530.8" y="-279.3" font-family="Times,serif" font-size="14.00">q10:12</text>
</g>
<!-- q6:12&#45;&gt;q10:12 -->
<g id="edge12" class="edge">
<title>q6:12&#45;&gt;q10:12</title>
<path fill="none" stroke="black" d="M1721.7,-281.46C1729.5,-281.05 1737.7,-280.69 1745.3,-280.48 2065.9,-271.58 2146.3,-271.58 2466.8,-280.48 2468.9,-280.54 2471,-280.6 2473.1,-280.68"/>
<polygon fill="black" stroke="black" points="2472.75,-284.16 2482.89,-281.09 2473.04,-277.17 2472.75,-284.16"/>
<text text-anchor="middle" x="2106.1" y="-301.18" font-family="Times,serif" font-size="14.00">AUTH/334:12</text>
<text text-anchor="middle" x="2106.1" y="-283.93" font-family="Times,serif" font-size="14.00">b0 = UGFzc3dvcmQ6</text>
</g>
<!-- q11:3 -->
<g id="node25" class="node">
<title>q11:3</title>
<ellipse fill="none" stroke="black" stroke-width="2" cx="3359.5" cy="-92.98" rx="39.63" ry="18"/>
<text text-anchor="middle" x="3359.5" y="-88.3" font-family="Times,serif" font-size="14.00">q11:3</text>
</g>
<!-- q7:3&#45;&gt;q11:3 -->
<g id="edge27" class="edge">
<title>q7:3&#45;&gt;q11:3</title>
<path fill="none" stroke="black" d="M2564.9,-92.98C2692.6,-92.98 3152.9,-92.98 3307.5,-92.98"/>
<polygon fill="black" stroke="black" points="3307.39,-96.48 3317.39,-92.98 3307.39,-89.48 3307.39,-96.48"/>
<text text-anchor="middle" x="2942" y="-114.18" font-family="Times,serif" font-size="14.00">RSET/250:3</text>
<text text-anchor="middle" x="2942" y="-96.93" font-family="Times,serif" font-size="14.00">b0 in {&#39;flushed&#39;, &#39;OK&#39;}</text>
</g>
<!-- q12:228 -->
<g id="node26" class="node">
<title>q12:228</title>
<ellipse fill="none" stroke="black" stroke-width="2" cx="3359.5" cy="-167.98" rx="52.26" ry="18"/>
<text text-anchor="middle" x="3359.5" y="-163.3" font-family="Times,serif" font-size="14.00">q12:228</text>
</g>
<!-- q8:228&#45;&gt;q12:228 -->
<g id="edge28" class="edge">
<title>q8:228&#45;&gt;q12:228</title>
<path fill="none" stroke="black" d="M2577.7,-167.98C2717,-167.98 3135.1,-167.98 3295.2,-167.98"/>
<polygon fill="black" stroke="black" points="3294.79,-171.48 3304.79,-167.98 3294.79,-164.48 3294.79,-171.48"/>
<text text-anchor="middle" x="2942" y="-206.43" font-family="Times,serif" font-size="14.00">RCPT/250:228</text>
<text text-anchor="middle" x="2942" y="-189.18" font-family="Times,serif" font-size="14.00">a0 in {&#39;TO:&lt;574702257@qq.com&gt;&#39;, &#39;TO:&lt;1542110793@qq.com&gt;&#39;, &#39;TO:&lt;574702256@qq.com&gt;&#39;}</text>
<text text-anchor="middle" x="2942" y="-171.93" font-family="Times,serif" font-size="14.00">b0 in {&#39;Mail OK&#39;, &#39;ok&#39;}</text>
</g>
<!-- q9:150&#45;&gt;q9:150 -->
<g id="edge21" class="edge">
<title>q9:150&#45;&gt;q9:150</title>
<path fill="none" stroke="black" d="M3782.9,-193.52C3765.9,-204.85 3777.5,-216.98 3817.7,-216.98 3847.5,-216.98 3861.6,-210.3 3859.9,-202.22"/>
<polygon fill="black" stroke="black" points="3862.63,-200.02 3853.48,-194.67 3857.29,-204.55 3862.63,-200.02"/>
<text text-anchor="middle" x="3817.7" y="-238.18" font-family="Times,serif" font-size="14.00">RCPT/250:9</text>
<text text-anchor="middle" x="3817.7" y="-220.93" font-family="Times,serif" font-size="14.00">b0 = Mail OK</text>
</g>
<!-- q14:2552 -->
<g id="node16" class="node">
<title>q14:2552</title>
<ellipse fill="none" stroke="black" stroke-width="2" cx="4444.2" cy="-162.98" rx="58.57" ry="18"/>
<text text-anchor="middle" x="4444.2" y="-158.3" font-family="Times,serif" font-size="14.00">q14:2552</text>
</g>
<!-- q9:150&#45;&gt;q14:2552 -->
<g id="edge20" class="edge">
<title>q9:150&#45;&gt;q14:2552</title>
<path fill="none" stroke="black" d="M3864.4,-179.66C3972.6,-176.54 4245.2,-168.69 4373.9,-164.98"/>
<polygon fill="black" stroke="black" points="4373.69,-168.48 4383.59,-164.69 4373.49,-161.49 4373.69,-168.48"/>
<text text-anchor="middle" x="4124.6" y="-200.18" font-family="Times,serif" font-size="14.00">DATA/354:98</text>
<text text-anchor="middle" x="4124.6" y="-182.93" font-family="Times,serif" font-size="14.00">b0 = End data with &lt;CR&gt;&lt;LF&gt;.&lt;CR&gt;&lt;LF&gt;</text>
</g>
<!-- q13:43 -->
<g id="node21" class="node">
<title>q13:43</title>
<ellipse fill="none" stroke="black" stroke-width="2" cx="4444.2" cy="-269.98" rx="45.95" ry="18"/>
<text text-anchor="middle" x="4444.2" y="-265.3" font-family="Times,serif" font-size="14.00">q13:43</text>
</g>
<!-- q9:150&#45;&gt;q13:43 -->
<g id="edge22" class="edge">
<title>q9:150&#45;&gt;q13:43</title>
<path fill="none" stroke="black" d="M3840.8,-197.26C3852.4,-204.89 3867.2,-213.31 3881.6,-217.98 4059.1,-275.19 4283.2,-276.06 4386.5,-272.75"/>
<polygon fill="black" stroke="black" points="4386.41,-276.25 4396.29,-272.41 4386.17,-269.26 4386.41,-276.25"/>
<text text-anchor="middle" x="4124.6" y="-294.18" font-family="Times,serif" font-size="14.00">DATA/550:43</text>
<text text-anchor="middle" x="4124.6" y="-276.93" font-family="Times,serif" font-size="14.00">b0 in {&#39;too many message send today.&#39;, &#39;Sender frequency limited.&#39;}</text>
</g>
<!-- q15:12 -->
<g id="node27" class="node">
<title>q15:12</title>
<ellipse fill="none" stroke="black" stroke-width="2" cx="3359.5" cy="-285.98" rx="45.95" ry="18"/>
<text text-anchor="middle" x="3359.5" y="-281.3" font-family="Times,serif" font-size="14.00">q15:12</text>
</g>
<!-- q10:12&#45;&gt;q15:12 -->
<g id="edge31" class="edge">
<title>q10:12&#45;&gt;q15:12</title>
<path fill="none" stroke="black" d="M2577.5,-283.99C2695.3,-284.02 3019.3,-284.24 3289.2,-285.48 3293.1,-285.5 3297.2,-285.52 3301.2,-285.54"/>
<polygon fill="black" stroke="black" points="3301.16,-289.04 3311.19,-285.61 3301.21,-282.04 3301.16,-289.04"/>
<text text-anchor="middle" x="2942" y="-306.18" font-family="Times,serif" font-size="14.00">content/535:12</text>
<text text-anchor="middle" x="2942" y="-288.93" font-family="Times,serif" font-size="14.00">b0 in {&#39;5.7.8 authentication failed&#39;, &#39;Error: authentication failed&#39;}</text>
</g>
<!-- q21:21 -->
<g id="node14" class="node">
<title>q21:21</title>
<ellipse fill="none" stroke="black" stroke-width="2" cx="4444.2" cy="-26.98" rx="45.95" ry="18"/>
<text text-anchor="middle" x="4444.2" y="-22.3" font-family="Times,serif" font-size="14.00">q21:21</text>
</g>
<!-- q26:21 -->
<g id="node15" class="node">
<title>q26:21</title>
<ellipse fill="none" stroke="black" stroke-width="2" cx="4809.7" cy="-24.98" rx="45.95" ry="18"/>
<text text-anchor="middle" x="4809.7" y="-20.3" font-family="Times,serif" font-size="14.00">q26:21</text>
</g>
<!-- q21:21&#45;&gt;q26:21 -->
<g id="edge13" class="edge">
<title>q21:21&#45;&gt;q26:21</title>
<path fill="none" stroke="black" d="M4490.9,-26.73C4557.1,-26.36 4679.8,-25.69 4751.8,-25.29"/>
<polygon fill="black" stroke="black" points="4751.51,-28.79 4761.49,-25.24 4751.47,-21.79 4751.51,-28.79"/>
<text text-anchor="middle" x="4633.3" y="-48.18" font-family="Times,serif" font-size="14.00">QUIT/221:21</text>
<text text-anchor="middle" x="4633.3" y="-30.93" font-family="Times,serif" font-size="14.00">b0 = Bye</text>
</g>
<!-- q14:2552&#45;&gt;q19:1 -->
<g id="edge14" class="edge">
<title>q14:2552&#45;&gt;q19:1</title>
<path fill="none" stroke="black" d="M4502,-167.36C4572.4,-172.78 4691.3,-181.94 4758.5,-187.11"/>
<polygon fill="black" stroke="black" points="4757.95,-190.57 4768.19,-187.85 4758.49,-183.6 4757.95,-190.57"/>
<text text-anchor="middle" x="4633.3" y="-206.18" font-family="Times,serif" font-size="14.00">content/550:1</text>
<text text-anchor="middle" x="4633.3" y="-188.93" font-family="Times,serif" font-size="14.00">b0 = Sender frequency limited.</text>
</g>
<!-- q14:2552&#45;&gt;q14:2552 -->
<g id="edge15" class="edge">
<title>q14:2552&#45;&gt;q14:2552</title>
<path fill="none" stroke="black" d="M4411.9,-178.52C4402.8,-188.89 4413.6,-198.98 4444.2,-198.98 4463.4,-198.98 4474.8,-195.04 4478.4,-189.55"/>
<polygon fill="black" stroke="black" points="4481.9,-189.27 4476.76,-180.01 4475,-190.46 4481.9,-189.27"/>
<text text-anchor="middle" x="4444.2" y="-220.18" font-family="Times,serif" font-size="14.00">content/λ:2452</text>
<text text-anchor="middle" x="4444.2" y="-202.93" font-family="Times,serif" font-size="14.00">a0 = b0</text>
</g>
<!-- q17:92 -->
<g id="node17" class="node">
<title>q17:92</title>
<ellipse fill="none" stroke="black" stroke-width="2" cx="4809.7" cy="-136.98" rx="45.95" ry="18"/>
<text text-anchor="middle" x="4809.7" y="-132.3" font-family="Times,serif" font-size="14.00">q17:92</text>
</g>
<!-- q14:2552&#45;&gt;q17:92 -->
<g id="edge16" class="edge">
<title>q14:2552&#45;&gt;q17:92</title>
<path fill="none" stroke="black" d="M4493.8,-152.73C4502.8,-151.16 4512,-149.73 4520.8,-148.73 4600.7,-139.61 4693.8,-137.31 4752,-136.86"/>
<polygon fill="black" stroke="black" points="4751.7,-140.36 4761.69,-136.8 4751.67,-133.36 4751.7,-140.36"/>
<text text-anchor="middle" x="4633.3" y="-152.92" font-family="Times,serif" font-size="14.00">content/250:92</text>
</g>
<!-- q18:7 -->
<g id="node18" class="node">
<title>q18:7</title>
<ellipse fill="none" stroke="black" stroke-width="2" cx="4809.7" cy="-247.98" rx="39.63" ry="18"/>
<text text-anchor="middle" x="4809.7" y="-243.3" font-family="Times,serif" font-size="14.00">q18:7</text>
</g>
<!-- q14:2552&#45;&gt;q18:7 -->
<g id="edge17" class="edge">
<title>q14:2552&#45;&gt;q18:7</title>
<path fill="none" stroke="black" d="M4461.6,-181.14C4475.7,-195.5 4497.5,-214.64 4520.8,-223.98 4599.6,-255.55 4700,-255.87 4759.1,-252.46"/>
<polygon fill="black" stroke="black" points="4759.03,-255.97 4768.79,-251.83 4758.59,-248.98 4759.03,-255.97"/>
<text text-anchor="middle" x="4633.3" y="-256.92" font-family="Times,serif" font-size="14.00">content/554:7</text>
</g>
<!-- q23:92 -->
<g id="node19" class="node">
<title>q23:92</title>
<ellipse fill="none" stroke="black" stroke-width="2" cx="5029.1" cy="-136.98" rx="45.95" ry="18"/>
<text text-anchor="middle" x="5029.1" y="-132.3" font-family="Times,serif" font-size="14.00">q23:92</text>
</g>
<!-- q17:92&#45;&gt;q23:92 -->
<g id="edge18" class="edge">
<title>q17:92&#45;&gt;q23:92</title>
<path fill="none" stroke="black" d="M4856.6,-136.98C4890,-136.98 4935.4,-136.98 4971.1,-136.98"/>
<polygon fill="black" stroke="black" points="4970.79,-140.48 4980.79,-136.98 4970.79,-133.48 4970.79,-140.48"/>
<text text-anchor="middle" x="4919.4" y="-140.92" font-family="Times,serif" font-size="14.00">QUIT/221:92</text>
</g>
<!-- q24:7 -->
<g id="node20" class="node">
<title>q24:7</title>
<ellipse fill="none" stroke="black" stroke-width="2" cx="5029.1" cy="-248.98" rx="39.63" ry="18"/>
<text text-anchor="middle" x="5029.1" y="-244.3" font-family="Times,serif" font-size="14.00">q24:7</text>
</g>
<!-- q18:7&#45;&gt;q24:7 -->
<g id="edge19" class="edge">
<title>q18:7&#45;&gt;q24:7</title>
<path fill="none" stroke="black" d="M4850.3,-248.16C4886.1,-248.33 4939,-248.57 4977.7,-248.75"/>
<polygon fill="black" stroke="black" points="4977.27,-252.24 4987.29,-248.79 4977.3,-245.24 4977.27,-252.24"/>
<text text-anchor="middle" x="4919.4" y="-269.18" font-family="Times,serif" font-size="14.00">RSET/250:7</text>
<text text-anchor="middle" x="4919.4" y="-251.93" font-family="Times,serif" font-size="14.00">b0 = OK</text>
</g>
<!-- q16:88 -->
<g id="node22" class="node">
<title>q16:88</title>
<ellipse fill="none" stroke="black" stroke-width="2" cx="3817.7" cy="-92.98" rx="45.95" ry="18"/>
<text text-anchor="middle" x="3817.7" y="-88.3" font-family="Times,serif" font-size="14.00">q16:88</text>
</g>
<!-- q16:88&#45;&gt;q21:21 -->
<g id="edge23" class="edge">
<title>q16:88&#45;&gt;q21:21</title>
<path fill="none" stroke="black" d="M3839.8,-76.47C3851.5,-68.35 3866.6,-59.34 3881.6,-54.73 4060,0 4285.1,-11.52 4387.7,-20.88"/>
<polygon fill="black" stroke="black" points="4387.21,-24.35 4397.49,-21.8 4387.87,-17.38 4387.21,-24.35"/>
<text text-anchor="middle" x="4124.6" y="-58.93" font-family="Times,serif" font-size="14.00">content/250:21</text>
</g>
<!-- q16:88&#45;&gt;q14:2552 -->
<g id="edge24" class="edge">
<title>q16:88&#45;&gt;q14:2552</title>
<path fill="none" stroke="black" d="M3862,-98.89C3868.6,-99.67 3875.3,-100.4 3881.6,-100.98 3989.4,-110.75 4262.8,-101.05 4367.6,-127.48 4380.2,-130.65 4393.3,-135.95 4404.9,-141.5"/>
<polygon fill="black" stroke="black" points="4403.24,-144.58 4413.75,-145.93 4406.37,-138.32 4403.24,-144.58"/>
<text text-anchor="middle" x="4124.6" y="-149.18" font-family="Times,serif" font-size="14.00">content/λ:2</text>
<text text-anchor="middle" x="4124.6" y="-131.93" font-family="Times,serif" font-size="14.00">a0 = b0</text>
</g>
<!-- q22:65 -->
<g id="node23" class="node">
<title>q22:65</title>
<ellipse fill="none" stroke="black" stroke-width="2" cx="4444.2" cy="-82.98" rx="45.95" ry="18"/>
<text text-anchor="middle" x="4444.2" y="-78.3" font-family="Times,serif" font-size="14.00">q22:65</text>
</g>
<!-- q16:88&#45;&gt;q22:65 -->
<g id="edge25" class="edge">
<title>q16:88&#45;&gt;q22:65</title>
<path fill="none" stroke="black" d="M3860.9,-85.91C3867.8,-85.01 3874.9,-84.22 3881.6,-83.73 4065.8,-70.14 4285,-76.25 4386.4,-80.35"/>
<polygon fill="black" stroke="black" points="4385.95,-83.83 4396.09,-80.75 4386.24,-76.84 4385.95,-83.83"/>
<text text-anchor="middle" x="4124.6" y="-87.93" font-family="Times,serif" font-size="14.00">content/554:65</text>
</g>
<!-- q27:65 -->
<g id="node24" class="node">
<title>q27:65</title>
<ellipse fill="none" stroke="black" stroke-width="2" cx="4809.7" cy="-82.98" rx="45.95" ry="18"/>
<text text-anchor="middle" x="4809.7" y="-78.3" font-family="Times,serif" font-size="14.00">q27:65</text>
</g>
<!-- q22:65&#45;&gt;q27:65 -->
<g id="edge26" class="edge">
<title>q22:65&#45;&gt;q27:65</title>
<path fill="none" stroke="black" d="M4490.9,-82.98C4557.1,-82.98 4679.8,-82.98 4751.8,-82.98"/>
<polygon fill="black" stroke="black" points="4751.49,-86.48 4761.49,-82.98 4751.49,-79.48 4751.49,-86.48"/>
<text text-anchor="middle" x="4633.3" y="-104.18" font-family="Times,serif" font-size="14.00">RSET/250:65</text>
<text text-anchor="middle" x="4633.3" y="-86.93" font-family="Times,serif" font-size="14.00">b0 = OK</text>
</g>
<!-- q12:228&#45;&gt;q9:150 -->
<g id="edge29" class="edge">
<title>q12:228&#45;&gt;q9:150</title>
<path fill="none" stroke="black" d="M3412.4,-169.46C3498.5,-171.91 3670.4,-176.81 3759.7,-179.36"/>
<polygon fill="black" stroke="black" points="3759.39,-182.85 3769.49,-179.63 3759.59,-175.85 3759.39,-182.85"/>
<text text-anchor="middle" x="3591.7" y="-200.18" font-family="Times,serif" font-size="14.00">RCPT/250:140</text>
<text text-anchor="middle" x="3591.7" y="-182.93" font-family="Times,serif" font-size="14.00">b0 in {&#39;Mail OK&#39;, &#39;ok&#39;}</text>
</g>
<!-- q12:228&#45;&gt;q16:88 -->
<g id="edge30" class="edge">
<title>q12:228&#45;&gt;q16:88</title>
<path fill="none" stroke="black" d="M3386.5,-151.73C3399.1,-144.63 3414.7,-136.93 3429.7,-132.48 3543.4,-98.85 3683.1,-92.77 3759.7,-92.26"/>
<polygon fill="black" stroke="black" points="3759.5,-95.76 3769.49,-92.23 3759.47,-88.76 3759.5,-95.76"/>
<text text-anchor="middle" x="3591.7" y="-154.18" font-family="Times,serif" font-size="14.00">DATA/354:88</text>
<text text-anchor="middle" x="3591.7" y="-136.93" font-family="Times,serif" font-size="14.00">b0 = End data with &lt;CR&gt;&lt;LF&gt;.&lt;CR&gt;&lt;LF&gt;</text>
</g>
<!-- q20:4 -->
<g id="node28" class="node">
<title>q20:4</title>
<ellipse fill="none" stroke="black" stroke-width="2" cx="3817.7" cy="-287.98" rx="39.63" ry="18"/>
<text text-anchor="middle" x="3817.7" y="-283.3" font-family="Times,serif" font-size="14.00">q20:4</text>
</g>
<!-- q15:12&#45;&gt;q20:4 -->
<g id="edge32" class="edge">
<title>q15:12&#45;&gt;q20:4</title>
<path fill="none" stroke="black" d="M3406.3,-286.18C3492.1,-286.56 3676.1,-287.36 3765.7,-287.76"/>
<polygon fill="black" stroke="black" points="3765.57,-291.26 3775.59,-287.8 3765.6,-284.26 3765.57,-291.26"/>
<text text-anchor="middle" x="3591.7" y="-308.18" font-family="Times,serif" font-size="14.00">λ/451:4</text>
<text text-anchor="middle" x="3591.7" y="-290.93" font-family="Times,serif" font-size="14.00">b0 = Timeout.</text>
</g>
</g>
</svg>
