<?xml version="1.0" encoding="UTF-8" standalone="no"?>
<!DOCTYPE svg PUBLIC "-//W3C//DTD SVG 1.1//EN"
 "http://www.w3.org/Graphics/SVG/1.1/DTD/svg11.dtd">
<!-- Generated by graphviz version 12.0.0 (20240803.0821)
 -->
<!-- Pages: 1 -->
<svg width="2460pt" height="332pt"
 viewBox="0.00 0.00 2459.73 332.25" xmlns="http://www.w3.org/2000/svg" xmlns:xlink="http://www.w3.org/1999/xlink">
<g id="graph0" class="graph" transform="scale(1 1) rotate(0) translate(4 328.25)">
<polygon fill="white" stroke="none" points="-4,4 -4,-328.25 2455.73,-328.25 2455.73,4 -4,4"/>
<!-- q7:227 -->
<g id="node1" class="node">
<title>q7:227</title>
<ellipse fill="none" stroke="black" stroke-width="2" cx="954.27" cy="-160" rx="45.95" ry="18"/>
<text text-anchor="middle" x="954.27" y="-155.32" font-family="Times,serif" font-size="14.00">q7:227</text>
</g>
<!-- q11:227 -->
<g id="node2" class="node">
<title>q11:227</title>
<ellipse fill="none" stroke="black" stroke-width="2" cx="1196.5" cy="-160" rx="52.26" ry="18"/>
<text text-anchor="middle" x="1196.5" y="-155.32" font-family="Times,serif" font-size="14.00">q11:227</text>
</g>
<!-- q7:227&#45;&gt;q11:227 -->
<g id="edge1" class="edge">
<title>q7:227&#45;&gt;q11:227</title>
<path fill="none" stroke="black" d="M1001.02,-160C1038.1,-160 1090.8,-160 1131.9,-160"/>
<polygon fill="black" stroke="black" points="1131.69,-163.5 1141.69,-160 1131.69,-156.5 1131.69,-163.5"/>
<text text-anchor="middle" x="1072.2" y="-163.94" font-family="Times,serif" font-size="14.00">RCPT/250:227</text>
</g>
<!-- q16:162 -->
<g id="node3" class="node">
<title>q16:162</title>
<ellipse fill="none" stroke="black" stroke-width="2" cx="1439.8" cy="-163" rx="52.26" ry="18"/>
<text text-anchor="middle" x="1439.8" y="-158.32" font-family="Times,serif" font-size="14.00">q16:162</text>
</g>
<!-- q11:227&#45;&gt;q16:162 -->
<g id="edge2" class="edge">
<title>q11:227&#45;&gt;q16:162</title>
<path fill="none" stroke="black" d="M1249.5,-160.65C1286.5,-161.11 1336.3,-161.73 1375.5,-162.21"/>
<polygon fill="black" stroke="black" points="1375.24,-165.71 1385.29,-162.33 1375.33,-158.71 1375.24,-165.71"/>
<text text-anchor="middle" x="1318.1" y="-165.94" font-family="Times,serif" font-size="14.00">RCPT/250:162</text>
</g>
<!-- q15:116 -->
<g id="node4" class="node">
<title>q15:116</title>
<ellipse fill="none" stroke="black" stroke-width="2" cx="1439.8" cy="-72" rx="52.26" ry="18"/>
<text text-anchor="middle" x="1439.8" y="-67.33" font-family="Times,serif" font-size="14.00">q15:116</text>
</g>
<!-- q11:227&#45;&gt;q15:116 -->
<g id="edge3" class="edge">
<title>q11:227&#45;&gt;q15:116</title>
<path fill="none" stroke="black" d="M1234.1,-146.63C1276.2,-131.28 1345.4,-106.04 1391.5,-89.22"/>
<polygon fill="black" stroke="black" points="1392.56,-92.56 1400.78,-85.86 1390.18,-85.97 1392.56,-92.56"/>
<text text-anchor="middle" x="1318.1" y="-136.94" font-family="Times,serif" font-size="14.00">DATA/354:65</text>
</g>
<!-- q9:10 -->
<g id="node5" class="node">
<title>q9:10</title>
<ellipse fill="none" stroke="black" stroke-width="2" cx="1694.6" cy="-271" rx="39.63" ry="18"/>
<text text-anchor="middle" x="1694.6" y="-266.32" font-family="Times,serif" font-size="14.00">q9:10</text>
</g>
<!-- q16:162&#45;&gt;q9:10 -->
<g id="edge4" class="edge">
<title>q16:162&#45;&gt;q9:10</title>
<path fill="none" stroke="black" d="M1472.4,-177.93C1484.1,-183.4 1497.6,-189.58 1510,-195 1513.5,-196.54 1600.7,-232.58 1653.6,-254.47"/>
<polygon fill="black" stroke="black" points="1652.02,-257.61 1662.6,-258.2 1654.7,-251.14 1652.02,-257.61"/>
<text text-anchor="middle" x="1564" y="-241.94" font-family="Times,serif" font-size="14.00">RCPT/250:1</text>
</g>
<!-- q22:3095 -->
<g id="node6" class="node">
<title>q22:3095</title>
<ellipse fill="none" stroke="black" stroke-width="2" cx="1694.6" cy="-180" rx="58.57" ry="18"/>
<text text-anchor="middle" x="1694.6" y="-175.32" font-family="Times,serif" font-size="14.00">q22:3095</text>
</g>
<!-- q16:162&#45;&gt;q22:3095 -->
<g id="edge5" class="edge">
<title>q16:162&#45;&gt;q22:3095</title>
<path fill="none" stroke="black" d="M1491.9,-166.44C1530.2,-169.02 1583.1,-172.57 1625.1,-175.39"/>
<polygon fill="black" stroke="black" points="1624.58,-178.86 1634.79,-176.05 1625.05,-171.88 1624.58,-178.86"/>
<text text-anchor="middle" x="1564" y="-177.94" font-family="Times,serif" font-size="14.00">DATA/354:118</text>
</g>
<!-- q21:43 -->
<g id="node7" class="node">
<title>q21:43</title>
<ellipse fill="none" stroke="black" stroke-width="2" cx="1694.6" cy="-126" rx="45.95" ry="18"/>
<text text-anchor="middle" x="1694.6" y="-121.33" font-family="Times,serif" font-size="14.00">q21:43</text>
</g>
<!-- q16:162&#45;&gt;q21:43 -->
<g id="edge6" class="edge">
<title>q16:162&#45;&gt;q21:43</title>
<path fill="none" stroke="black" d="M1483.4,-152.15C1492.2,-150.16 1501.4,-148.25 1510,-146.75 1552.5,-139.39 1601,-134.04 1637.5,-130.61"/>
<polygon fill="black" stroke="black" points="1637.75,-134.1 1647.39,-129.71 1637.12,-127.13 1637.75,-134.1"/>
<text text-anchor="middle" x="1564" y="-149.94" font-family="Times,serif" font-size="14.00">DATA/550:43</text>
</g>
<!-- q15:116&#45;&gt;q15:116 -->
<g id="edge7" class="edge">
<title>q15:116&#45;&gt;q15:116</title>
<path fill="none" stroke="black" d="M1418.2,-89.04C1413.8,-98.86 1421,-108 1439.8,-108 1450.6,-108 1457.6,-104.94 1460.7,-100.47"/>
<polygon fill="black" stroke="black" points="1464.19,-100.72 1461.22,-90.55 1457.2,-100.35 1464.19,-100.72"/>
<text text-anchor="middle" x="1439.8" y="-111.95" font-family="Times,serif" font-size="14.00">content/λ:51</text>
</g>
<!-- q20:42 -->
<g id="node8" class="node">
<title>q20:42</title>
<ellipse fill="none" stroke="black" stroke-width="2" cx="1694.6" cy="-72" rx="45.95" ry="18"/>
<text text-anchor="middle" x="1694.6" y="-67.33" font-family="Times,serif" font-size="14.00">q20:42</text>
</g>
<!-- q15:116&#45;&gt;q20:42 -->
<g id="edge8" class="edge">
<title>q15:116&#45;&gt;q20:42</title>
<path fill="none" stroke="black" d="M1492.8,-72C1534.7,-72 1593.4,-72 1636.5,-72"/>
<polygon fill="black" stroke="black" points="1636.39,-75.5 1646.39,-72 1636.39,-68.5 1636.39,-75.5"/>
<text text-anchor="middle" x="1564" y="-75.95" font-family="Times,serif" font-size="14.00">content/554:42</text>
</g>
<!-- q19:23 -->
<g id="node9" class="node">
<title>q19:23</title>
<ellipse fill="none" stroke="black" stroke-width="2" cx="1694.6" cy="-18" rx="45.95" ry="18"/>
<text text-anchor="middle" x="1694.6" y="-13.32" font-family="Times,serif" font-size="14.00">q19:23</text>
</g>
<!-- q15:116&#45;&gt;q19:23 -->
<g id="edge9" class="edge">
<title>q15:116&#45;&gt;q19:23</title>
<path fill="none" stroke="black" d="M1479,-59.36C1489,-56.3 1499.9,-53.2 1510,-50.75 1553.1,-40.34 1602.6,-31.7 1639.3,-25.92"/>
<polygon fill="black" stroke="black" points="1639.46,-29.43 1648.8,-24.45 1638.39,-22.52 1639.46,-29.43"/>
<text text-anchor="middle" x="1564" y="-53.95" font-family="Times,serif" font-size="14.00">content/250:23</text>
</g>
<!-- q9:10&#45;&gt;q9:10 -->
<g id="edge10" class="edge">
<title>q9:10&#45;&gt;q9:10</title>
<path fill="none" stroke="black" d="M1672.3,-286.54C1666,-296.91 1673.4,-307 1694.6,-307 1707.5,-307 1715.3,-303.25 1718,-297.98"/>
<polygon fill="black" stroke="black" points="1721.49,-297.67 1717.04,-288.05 1714.52,-298.34 1721.49,-297.67"/>
<text text-anchor="middle" x="1694.6" y="-310.94" font-family="Times,serif" font-size="14.00">RCPT/250:8</text>
</g>
<!-- q13:2 -->
<g id="node10" class="node">
<title>q13:2</title>
<ellipse fill="none" stroke="black" stroke-width="2" cx="1958.4" cy="-288" rx="39.63" ry="18"/>
<text text-anchor="middle" x="1958.4" y="-283.32" font-family="Times,serif" font-size="14.00">q13:2</text>
</g>
<!-- q9:10&#45;&gt;q13:2 -->
<g id="edge11" class="edge">
<title>q9:10&#45;&gt;q13:2</title>
<path fill="none" stroke="black" d="M1734.8,-273.55C1780.7,-276.53 1856.9,-281.47 1907.1,-284.74"/>
<polygon fill="black" stroke="black" points="1906.68,-288.22 1916.89,-285.37 1907.14,-281.23 1906.68,-288.22"/>
<text text-anchor="middle" x="1829.7" y="-286.94" font-family="Times,serif" font-size="14.00">DATA/354:2</text>
</g>
<!-- q22:3095&#45;&gt;q22:3095 -->
<g id="edge12" class="edge">
<title>q22:3095&#45;&gt;q22:3095</title>
<path fill="none" stroke="black" d="M1671.3,-197.41C1666.9,-207.09 1674.7,-216 1694.6,-216 1706.1,-216 1713.5,-213.02 1716.9,-208.64"/>
<polygon fill="black" stroke="black" points="1720.36,-209.19 1717.77,-198.92 1713.39,-208.57 1720.36,-209.19"/>
<text text-anchor="middle" x="1694.6" y="-219.94" font-family="Times,serif" font-size="14.00">content/λ:2977</text>
</g>
<!-- q26:6 -->
<g id="node11" class="node">
<title>q26:6</title>
<ellipse fill="none" stroke="black" stroke-width="2" cx="1958.4" cy="-180" rx="39.63" ry="18"/>
<text text-anchor="middle" x="1958.4" y="-175.32" font-family="Times,serif" font-size="14.00">q26:6</text>
</g>
<!-- q22:3095&#45;&gt;q26:6 -->
<g id="edge13" class="edge">
<title>q22:3095&#45;&gt;q26:6</title>
<path fill="none" stroke="black" d="M1754,-180C1799.7,-180 1862.6,-180 1906.3,-180"/>
<polygon fill="black" stroke="black" points="1906.29,-183.5 1916.29,-180 1906.29,-176.5 1906.29,-183.5"/>
<text text-anchor="middle" x="1829.7" y="-183.94" font-family="Times,serif" font-size="14.00">content/554:6</text>
</g>
<!-- q28:1 -->
<g id="node12" class="node">
<title>q28:1</title>
<ellipse fill="none" stroke="black" stroke-width="2" cx="1958.4" cy="-126" rx="39.63" ry="18"/>
<text text-anchor="middle" x="1958.4" y="-121.33" font-family="Times,serif" font-size="14.00">q28:1</text>
</g>
<!-- q22:3095&#45;&gt;q28:1 -->
<g id="edge14" class="edge">
<title>q22:3095&#45;&gt;q28:1</title>
<path fill="none" stroke="black" d="M1738.2,-167.22C1748.9,-164.23 1760.4,-161.2 1771.2,-158.75 1817.4,-148.2 1870.8,-139.13 1908.6,-133.22"/>
<polygon fill="black" stroke="black" points="1908.86,-136.72 1918.2,-131.72 1907.78,-129.8 1908.86,-136.72"/>
<text text-anchor="middle" x="1829.7" y="-161.94" font-family="Times,serif" font-size="14.00">content/550:1</text>
</g>
<!-- q27:111 -->
<g id="node13" class="node">
<title>q27:111</title>
<ellipse fill="none" stroke="black" stroke-width="2" cx="1958.4" cy="-234" rx="52.26" ry="18"/>
<text text-anchor="middle" x="1958.4" y="-229.32" font-family="Times,serif" font-size="14.00">q27:111</text>
</g>
<!-- q22:3095&#45;&gt;q27:111 -->
<g id="edge15" class="edge">
<title>q22:3095&#45;&gt;q27:111</title>
<path fill="none" stroke="black" d="M1738.6,-192.71C1749.2,-195.63 1760.5,-198.59 1771.2,-201 1813.4,-210.58 1861.5,-219.05 1898.3,-225.01"/>
<polygon fill="black" stroke="black" points="1897.38,-228.41 1907.8,-226.53 1898.48,-221.49 1897.38,-228.41"/>
<text text-anchor="middle" x="1829.7" y="-226.94" font-family="Times,serif" font-size="14.00">content/250:111</text>
</g>
<!-- q25:42 -->
<g id="node14" class="node">
<title>q25:42</title>
<ellipse fill="none" stroke="black" stroke-width="2" cx="1958.4" cy="-72" rx="45.95" ry="18"/>
<text text-anchor="middle" x="1958.4" y="-67.33" font-family="Times,serif" font-size="14.00">q25:42</text>
</g>
<!-- q20:42&#45;&gt;q25:42 -->
<g id="edge16" class="edge">
<title>q20:42&#45;&gt;q25:42</title>
<path fill="none" stroke="black" d="M1741.5,-72C1785.7,-72 1852.6,-72 1900.2,-72"/>
<polygon fill="black" stroke="black" points="1900.09,-75.5 1910.09,-72 1900.09,-68.5 1900.09,-75.5"/>
<text text-anchor="middle" x="1829.7" y="-75.95" font-family="Times,serif" font-size="14.00">RSET/250:42</text>
</g>
<!-- q24:23 -->
<g id="node15" class="node">
<title>q24:23</title>
<ellipse fill="none" stroke="black" stroke-width="2" cx="1958.4" cy="-18" rx="45.95" ry="18"/>
<text text-anchor="middle" x="1958.4" y="-13.32" font-family="Times,serif" font-size="14.00">q24:23</text>
</g>
<!-- q19:23&#45;&gt;q24:23 -->
<g id="edge17" class="edge">
<title>q19:23&#45;&gt;q24:23</title>
<path fill="none" stroke="black" d="M1741.5,-18C1785.7,-18 1852.6,-18 1900.2,-18"/>
<polygon fill="black" stroke="black" points="1900.09,-21.5 1910.09,-18 1900.09,-14.5 1900.09,-21.5"/>
<text text-anchor="middle" x="1829.7" y="-21.95" font-family="Times,serif" font-size="14.00">QUIT/221:23</text>
</g>
<!-- q17:2 -->
<g id="node17" class="node">
<title>q17:2</title>
<ellipse fill="none" stroke="black" stroke-width="2" cx="2199.4" cy="-288" rx="39.63" ry="18"/>
<text text-anchor="middle" x="2199.4" y="-283.32" font-family="Times,serif" font-size="14.00">q17:2</text>
</g>
<!-- q13:2&#45;&gt;q17:2 -->
<g id="edge19" class="edge">
<title>q13:2&#45;&gt;q17:2</title>
<path fill="none" stroke="black" d="M1998.9,-288C2039.5,-288 2103.1,-288 2147.5,-288"/>
<polygon fill="black" stroke="black" points="2147.39,-291.5 2157.39,-288 2147.39,-284.5 2147.39,-291.5"/>
<text text-anchor="middle" x="2078.9" y="-291.94" font-family="Times,serif" font-size="14.00">content/554:2</text>
</g>
<!-- q29:6 -->
<g id="node19" class="node">
<title>q29:6</title>
<ellipse fill="none" stroke="black" stroke-width="2" cx="2199.4" cy="-180" rx="39.63" ry="18"/>
<text text-anchor="middle" x="2199.4" y="-175.32" font-family="Times,serif" font-size="14.00">q29:6</text>
</g>
<!-- q26:6&#45;&gt;q29:6 -->
<g id="edge21" class="edge">
<title>q26:6&#45;&gt;q29:6</title>
<path fill="none" stroke="black" d="M1998.9,-180C2039.5,-180 2103.1,-180 2147.5,-180"/>
<polygon fill="black" stroke="black" points="2147.39,-183.5 2157.39,-180 2147.39,-176.5 2147.39,-183.5"/>
<text text-anchor="middle" x="2078.9" y="-183.94" font-family="Times,serif" font-size="14.00">RSET/250:6</text>
</g>
<!-- q31:1 -->
<g id="node20" class="node">
<title>q31:1</title>
<ellipse fill="none" stroke="black" stroke-width="2" cx="2199.4" cy="-126" rx="39.63" ry="18"/>
<text text-anchor="middle" x="2199.4" y="-121.33" font-family="Times,serif" font-size="14.00">q31:1</text>
</g>
<!-- q28:1&#45;&gt;q31:1 -->
<g id="edge22" class="edge">
<title>q28:1&#45;&gt;q31:1</title>
<path fill="none" stroke="black" d="M1998.9,-126C2039.5,-126 2103.1,-126 2147.5,-126"/>
<polygon fill="black" stroke="black" points="2147.39,-129.5 2157.39,-126 2147.39,-122.5 2147.39,-129.5"/>
<text text-anchor="middle" x="2078.9" y="-129.94" font-family="Times,serif" font-size="14.00">RSET/250:1</text>
</g>
<!-- q30:111 -->
<g id="node21" class="node">
<title>q30:111</title>
<ellipse fill="none" stroke="black" stroke-width="2" cx="2199.4" cy="-234" rx="52.26" ry="18"/>
<text text-anchor="middle" x="2199.4" y="-229.32" font-family="Times,serif" font-size="14.00">q30:111</text>
</g>
<!-- q27:111&#45;&gt;q30:111 -->
<g id="edge23" class="edge">
<title>q27:111&#45;&gt;q30:111</title>
<path fill="none" stroke="black" d="M2011.6,-234C2048,-234 2096.7,-234 2135.3,-234"/>
<polygon fill="black" stroke="black" points="2134.89,-237.5 2144.89,-234 2134.89,-230.5 2134.89,-237.5"/>
<text text-anchor="middle" x="2078.9" y="-237.94" font-family="Times,serif" font-size="14.00">QUIT/221:111</text>
</g>
<!-- q5:1 -->
<g id="node16" class="node">
<title>q5:1</title>
<ellipse fill="none" stroke="black" stroke-width="2" cx="839.7" cy="-270" rx="33.32" ry="18"/>
<text text-anchor="middle" x="839.7" y="-265.32" font-family="Times,serif" font-size="14.00">q5:1</text>
</g>
<!-- q5:1&#45;&gt;q9:10 -->
<g id="edge18" class="edge">
<title>q5:1&#45;&gt;q9:10</title>
<path fill="none" stroke="black" d="M873.91,-270.23C918.71,-270.53 1000.98,-271 1071.2,-271 1071.2,-271 1071.2,-271 1440.8,-271 1510.8,-271 1591.8,-271 1642.8,-271"/>
<polygon fill="black" stroke="black" points="1642.69,-274.5 1652.69,-271 1642.69,-267.5 1642.69,-274.5"/>
<text text-anchor="middle" x="1196.5" y="-274.94" font-family="Times,serif" font-size="14.00">MAIL/250:1</text>
</g>
<!-- q23:2 -->
<g id="node18" class="node">
<title>q23:2</title>
<ellipse fill="none" stroke="black" stroke-width="2" cx="2412.1" cy="-288" rx="39.63" ry="18"/>
<text text-anchor="middle" x="2412.1" y="-283.32" font-family="Times,serif" font-size="14.00">q23:2</text>
</g>
<!-- q17:2&#45;&gt;q23:2 -->
<g id="edge20" class="edge">
<title>q17:2&#45;&gt;q23:2</title>
<path fill="none" stroke="black" d="M2240.1,-288C2274.2,-288 2323.6,-288 2360.6,-288"/>
<polygon fill="black" stroke="black" points="2360.09,-291.5 2370.09,-288 2360.09,-284.5 2360.09,-291.5"/>
<text text-anchor="middle" x="2312.1" y="-291.94" font-family="Times,serif" font-size="14.00">RSET/250:2</text>
</g>
<!-- q2:2 -->
<g id="node22" class="node">
<title>q2:2</title>
<ellipse fill="none" stroke="black" stroke-width="2" cx="491.48" cy="-158" rx="33.32" ry="18"/>
<text text-anchor="middle" x="491.48" y="-153.32" font-family="Times,serif" font-size="14.00">q2:2</text>
</g>
<!-- q4:230 -->
<g id="node23" class="node">
<title>q4:230</title>
<ellipse fill="none" stroke="black" stroke-width="2" cx="725.13" cy="-149" rx="45.95" ry="18"/>
<text text-anchor="middle" x="725.13" y="-144.32" font-family="Times,serif" font-size="14.00">q4:230</text>
</g>
<!-- q2:2&#45;&gt;q4:230 -->
<g id="edge24" class="edge">
<title>q2:2&#45;&gt;q4:230</title>
<path fill="none" stroke="black" d="M523.05,-150.83C533.28,-148.75 544.79,-146.78 555.43,-145.75 592.86,-142.14 635.17,-142.97 668.05,-144.69"/>
<polygon fill="black" stroke="black" points="667.58,-148.17 677.76,-145.24 667.97,-141.18 667.58,-148.17"/>
<text text-anchor="middle" x="608.31" y="-148.94" font-family="Times,serif" font-size="14.00">AUTH/235:2</text>
</g>
<!-- q4:230&#45;&gt;q7:227 -->
<g id="edge25" class="edge">
<title>q4:230&#45;&gt;q7:227</title>
<path fill="none" stroke="black" d="M771.55,-151.2C807.61,-152.95 858.21,-155.4 896.86,-157.27"/>
<polygon fill="black" stroke="black" points="896.26,-160.75 906.42,-157.73 896.6,-153.75 896.26,-160.75"/>
<text text-anchor="middle" x="839.7" y="-159.94" font-family="Times,serif" font-size="14.00">MAIL/250:227</text>
</g>
<!-- q8:3 -->
<g id="node24" class="node">
<title>q8:3</title>
<ellipse fill="none" stroke="black" stroke-width="2" cx="954.27" cy="-106" rx="33.32" ry="18"/>
<text text-anchor="middle" x="954.27" y="-101.33" font-family="Times,serif" font-size="14.00">q8:3</text>
</g>
<!-- q4:230&#45;&gt;q8:3 -->
<g id="edge26" class="edge">
<title>q4:230&#45;&gt;q8:3</title>
<path fill="none" stroke="black" d="M762.53,-137.56C771.18,-135.09 780.41,-132.65 789.08,-130.75 829.5,-121.88 876.23,-115.18 909.47,-111"/>
<polygon fill="black" stroke="black" points="909.64,-114.51 919.14,-109.81 908.78,-107.56 909.64,-114.51"/>
<text text-anchor="middle" x="839.7" y="-133.94" font-family="Times,serif" font-size="14.00">MAIL/553:3</text>
</g>
<!-- q12:3 -->
<g id="node25" class="node">
<title>q12:3</title>
<ellipse fill="none" stroke="black" stroke-width="2" cx="1196.5" cy="-106" rx="39.63" ry="18"/>
<text text-anchor="middle" x="1196.5" y="-101.33" font-family="Times,serif" font-size="14.00">q12:3</text>
</g>
<!-- q8:3&#45;&gt;q12:3 -->
<g id="edge27" class="edge">
<title>q8:3&#45;&gt;q12:3</title>
<path fill="none" stroke="black" d="M988.42,-106C1028.8,-106 1097.3,-106 1144.4,-106"/>
<polygon fill="black" stroke="black" points="1144.39,-109.5 1154.39,-106 1144.39,-102.5 1144.39,-109.5"/>
<text text-anchor="middle" x="1072.2" y="-109.95" font-family="Times,serif" font-size="14.00">RSET/250:3</text>
</g>
<!-- q3:242 -->
<g id="node26" class="node">
<title>q3:242</title>
<ellipse fill="none" stroke="black" stroke-width="2" cx="491.48" cy="-218" rx="45.95" ry="18"/>
<text text-anchor="middle" x="491.48" y="-213.32" font-family="Times,serif" font-size="14.00">q3:242</text>
</g>
<!-- q3:242&#45;&gt;q5:1 -->
<g id="edge28" class="edge">
<title>q3:242&#45;&gt;q5:1</title>
<path fill="none" stroke="black" d="M524.37,-231.39C534.18,-235.03 545.11,-238.63 555.43,-241 638.41,-260.09 737.97,-266.62 794.23,-268.85"/>
<polygon fill="black" stroke="black" points="793.92,-272.34 804.04,-269.21 794.17,-265.35 793.92,-272.34"/>
<text text-anchor="middle" x="608.31" y="-261.94" font-family="Times,serif" font-size="14.00">AUTH/λ:1</text>
</g>
<!-- q3:242&#45;&gt;q4:230 -->
<g id="edge29" class="edge">
<title>q3:242&#45;&gt;q4:230</title>
<path fill="none" stroke="black" d="M528.05,-206.35C536.97,-203.49 546.54,-200.46 555.43,-197.75 595.77,-185.43 641.79,-172.19 675.56,-162.62"/>
<polygon fill="black" stroke="black" points="676.38,-166.02 685.05,-159.93 674.48,-159.29 676.38,-166.02"/>
<text text-anchor="middle" x="608.31" y="-200.94" font-family="Times,serif" font-size="14.00">AUTH/235:228</text>
</g>
<!-- q6:13 -->
<g id="node27" class="node">
<title>q6:13</title>
<ellipse fill="none" stroke="black" stroke-width="2" cx="725.13" cy="-222" rx="39.63" ry="18"/>
<text text-anchor="middle" x="725.13" y="-217.32" font-family="Times,serif" font-size="14.00">q6:13</text>
</g>
<!-- q3:242&#45;&gt;q6:13 -->
<g id="edge30" class="edge">
<title>q3:242&#45;&gt;q6:13</title>
<path fill="none" stroke="black" d="M538.25,-218.79C577.13,-219.46 632.89,-220.42 673.18,-221.12"/>
<polygon fill="black" stroke="black" points="673.06,-224.62 683.12,-221.29 673.18,-217.62 673.06,-224.62"/>
<text text-anchor="middle" x="608.31" y="-223.94" font-family="Times,serif" font-size="14.00">AUTH/535:13</text>
</g>
<!-- q10:13 -->
<g id="node28" class="node">
<title>q10:13</title>
<ellipse fill="none" stroke="black" stroke-width="2" cx="954.27" cy="-221" rx="45.95" ry="18"/>
<text text-anchor="middle" x="954.27" y="-216.32" font-family="Times,serif" font-size="14.00">q10:13</text>
</g>
<!-- q6:13&#45;&gt;q10:13 -->
<g id="edge31" class="edge">
<title>q6:13&#45;&gt;q10:13</title>
<path fill="none" stroke="black" d="M765.69,-221.83C801.75,-221.67 855.43,-221.43 896.14,-221.25"/>
<polygon fill="black" stroke="black" points="896.02,-224.75 906.01,-221.21 895.99,-217.75 896.02,-224.75"/>
<text text-anchor="middle" x="839.7" y="-224.94" font-family="Times,serif" font-size="14.00">AUTH/334:13</text>
</g>
<!-- q14:13 -->
<g id="node29" class="node">
<title>q14:13</title>
<ellipse fill="none" stroke="black" stroke-width="2" cx="1196.5" cy="-217" rx="45.95" ry="18"/>
<text text-anchor="middle" x="1196.5" y="-212.32" font-family="Times,serif" font-size="14.00">q14:13</text>
</g>
<!-- q10:13&#45;&gt;q14:13 -->
<g id="edge32" class="edge">
<title>q10:13&#45;&gt;q14:13</title>
<path fill="none" stroke="black" d="M1001.02,-220.24C1040.1,-219.59 1096.5,-218.65 1138.5,-217.95"/>
<polygon fill="black" stroke="black" points="1138.45,-221.45 1148.39,-217.79 1138.33,-214.45 1138.45,-221.45"/>
<text text-anchor="middle" x="1072.2" y="-222.94" font-family="Times,serif" font-size="14.00">content/535:13</text>
</g>
<!-- q18:4 -->
<g id="node30" class="node">
<title>q18:4</title>
<ellipse fill="none" stroke="black" stroke-width="2" cx="1439.8" cy="-217" rx="39.63" ry="18"/>
<text text-anchor="middle" x="1439.8" y="-212.32" font-family="Times,serif" font-size="14.00">q18:4</text>
</g>
<!-- q14:13&#45;&gt;q18:4 -->
<g id="edge33" class="edge">
<title>q14:13&#45;&gt;q18:4</title>
<path fill="none" stroke="black" d="M1243.1,-217C1284.4,-217 1345.2,-217 1388,-217"/>
<polygon fill="black" stroke="black" points="1387.79,-220.5 1397.79,-217 1387.79,-213.5 1387.79,-220.5"/>
<text text-anchor="middle" x="1318.1" y="-220.94" font-family="Times,serif" font-size="14.00">λ/451:4</text>
</g>
<!-- q1:244 -->
<g id="node31" class="node">
<title>q1:244</title>
<ellipse fill="none" stroke="black" stroke-width="2" cx="257.84" cy="-185" rx="45.95" ry="18"/>
<text text-anchor="middle" x="257.84" y="-180.32" font-family="Times,serif" font-size="14.00">q1:244</text>
</g>
<!-- q1:244&#45;&gt;q2:2 -->
<g id="edge34" class="edge">
<title>q1:244&#45;&gt;q2:2</title>
<path fill="none" stroke="black" d="M296.21,-174.12C304.56,-172.03 313.43,-170.08 321.79,-168.75 363.53,-162.09 411.69,-159.52 445.85,-158.55"/>
<polygon fill="black" stroke="black" points="445.88,-162.05 455.8,-158.31 445.71,-155.05 445.88,-162.05"/>
<text text-anchor="middle" x="374.66" y="-171.94" font-family="Times,serif" font-size="14.00">EHLO/λ:2</text>
</g>
<!-- q1:244&#45;&gt;q3:242 -->
<g id="edge35" class="edge">
<title>q1:244&#45;&gt;q3:242</title>
<path fill="none" stroke="black" d="M302.14,-191.17C340,-196.56 395.17,-204.42 436.02,-210.24"/>
<polygon fill="black" stroke="black" points="435.51,-213.7 445.9,-211.65 436.49,-206.77 435.51,-213.7"/>
<text text-anchor="middle" x="374.66" y="-211.94" font-family="Times,serif" font-size="14.00">EHLO/250:242</text>
</g>
<!-- q0:244 -->
<g id="node32" class="node">
<title>q0:244</title>
<ellipse fill="none" stroke="black" stroke-width="2" cx="53.95" cy="-185" rx="49.95" ry="49.95"/>
<ellipse fill="none" stroke="black" stroke-width="2" cx="53.95" cy="-185" rx="53.95" ry="53.95"/>
<text text-anchor="middle" x="53.95" y="-180.32" font-family="Times,serif" font-size="14.00">q0:244</text>
</g>
<!-- q0:244&#45;&gt;q1:244 -->
<g id="edge36" class="edge">
<title>q0:244&#45;&gt;q1:244</title>
<path fill="none" stroke="black" d="M104.85,-185C133.64,-185 169.94,-185 199.84,-185"/>
<polygon fill="black" stroke="black" points="199.45,-188.5 209.45,-185 199.45,-181.5 199.45,-188.5"/>
<text text-anchor="middle" x="157.89" y="-188.94" font-family="Times,serif" font-size="14.00">λ/220:244</text>
</g>
</g>
</svg>
