<?xml version="1.0" encoding="UTF-8" standalone="no"?>
<!DOCTYPE svg PUBLIC "-//W3C//DTD SVG 1.1//EN"
 "http://www.w3.org/Graphics/SVG/1.1/DTD/svg11.dtd">
<!-- Generated by graphviz version 12.0.0 (20240803.0821)
 -->
<!-- Pages: 1 -->
<svg width="1768pt" height="268pt"
 viewBox="0.00 0.00 1767.86 268.00" xmlns="http://www.w3.org/2000/svg" xmlns:xlink="http://www.w3.org/1999/xlink">
<g id="graph0" class="graph" transform="scale(1 1) rotate(0) translate(4 264)">
<polygon fill="white" stroke="none" points="-4,4 -4,-264 1763.86,-264 1763.86,4 -4,4"/>
<!-- q2:2 -->
<g id="node1" class="node">
<title>q2:2</title>
<ellipse fill="none" stroke="black" stroke-width="2" cx="491.48" cy="-202" rx="33.32" ry="18"/>
<text text-anchor="middle" x="491.48" y="-197.32" font-family="Times,serif" font-size="14.00">q2:2</text>
</g>
<!-- q4:230 -->
<g id="node2" class="node">
<title>q4:230</title>
<ellipse fill="none" stroke="black" stroke-width="2" cx="725.13" cy="-201" rx="45.95" ry="18"/>
<text text-anchor="middle" x="725.13" y="-196.32" font-family="Times,serif" font-size="14.00">q4:230</text>
</g>
<!-- q2:2&#45;&gt;q4:230 -->
<g id="edge1" class="edge">
<title>q2:2&#45;&gt;q4:230</title>
<path fill="none" stroke="black" d="M525.67,-201.86C562.42,-201.7 622.33,-201.44 666.72,-201.25"/>
<polygon fill="black" stroke="black" points="666.72,-204.75 676.71,-201.21 666.69,-197.75 666.72,-204.75"/>
<text text-anchor="middle" x="608.31" y="-204.94" font-family="Times,serif" font-size="14.00">AUTH/235:2</text>
</g>
<!-- q7:626 -->
<g id="node3" class="node">
<title>q7:626</title>
<ellipse fill="none" stroke="black" stroke-width="2" cx="954.27" cy="-145" rx="45.95" ry="18"/>
<text text-anchor="middle" x="954.27" y="-140.32" font-family="Times,serif" font-size="14.00">q7:626</text>
</g>
<!-- q4:230&#45;&gt;q7:626 -->
<g id="edge2" class="edge">
<title>q4:230&#45;&gt;q7:626</title>
<path fill="none" stroke="black" d="M767.15,-192.61C800.48,-185.58 848.64,-174.97 890.33,-164 895.5,-162.64 900.9,-161.14 906.25,-159.59"/>
<polygon fill="black" stroke="black" points="907.06,-163 915.67,-156.83 905.09,-156.28 907.06,-163"/>
<text text-anchor="middle" x="839.7" y="-190.94" font-family="Times,serif" font-size="14.00">MAIL/250:227</text>
</g>
<!-- q8:3 -->
<g id="node4" class="node">
<title>q8:3</title>
<ellipse fill="none" stroke="black" stroke-width="2" cx="954.27" cy="-235" rx="33.32" ry="18"/>
<text text-anchor="middle" x="954.27" y="-230.32" font-family="Times,serif" font-size="14.00">q8:3</text>
</g>
<!-- q4:230&#45;&gt;q8:3 -->
<g id="edge3" class="edge">
<title>q4:230&#45;&gt;q8:3</title>
<path fill="none" stroke="black" d="M769.12,-207.44C809.39,-213.46 869.27,-222.43 909.72,-228.48"/>
<polygon fill="black" stroke="black" points="909.18,-231.94 919.59,-229.96 910.22,-225.02 909.18,-231.94"/>
<text text-anchor="middle" x="839.7" y="-227.94" font-family="Times,serif" font-size="14.00">MAIL/553:3</text>
</g>
<!-- q7:626&#45;&gt;q7:626 -->
<g id="edge4" class="edge">
<title>q7:626&#45;&gt;q7:626</title>
<path fill="none" stroke="black" d="M933.97,-162.04C929.83,-171.86 936.59,-181 954.27,-181 964.49,-181 971.07,-177.94 973.99,-173.47"/>
<polygon fill="black" stroke="black" points="977.48,-173.72 974.49,-163.55 970.49,-173.36 977.48,-173.72"/>
<text text-anchor="middle" x="954.27" y="-184.94" font-family="Times,serif" font-size="14.00">RCPT/250:398</text>
</g>
<!-- q10:3213 -->
<g id="node5" class="node">
<title>q10:3213</title>
<ellipse fill="none" stroke="black" stroke-width="2" cx="1202.8" cy="-99" rx="58.57" ry="18"/>
<text text-anchor="middle" x="1202.8" y="-94.33" font-family="Times,serif" font-size="14.00">q10:3213</text>
</g>
<!-- q7:626&#45;&gt;q10:3213 -->
<g id="edge5" class="edge">
<title>q7:626&#45;&gt;q10:3213</title>
<path fill="none" stroke="black" d="M996.81,-137.25C1036.2,-129.91 1095.7,-118.79 1140.5,-110.44"/>
<polygon fill="black" stroke="black" points="1140.92,-113.92 1150.11,-108.65 1139.64,-107.04 1140.92,-113.92"/>
<text text-anchor="middle" x="1072.2" y="-135.94" font-family="Times,serif" font-size="14.00">DATA/354:185</text>
</g>
<!-- q11:43 -->
<g id="node6" class="node">
<title>q11:43</title>
<ellipse fill="none" stroke="black" stroke-width="2" cx="1202.8" cy="-188" rx="45.95" ry="18"/>
<text text-anchor="middle" x="1202.8" y="-183.32" font-family="Times,serif" font-size="14.00">q11:43</text>
</g>
<!-- q7:626&#45;&gt;q11:43 -->
<g id="edge6" class="edge">
<title>q7:626&#45;&gt;q11:43</title>
<path fill="none" stroke="black" d="M997.37,-152.34C1039.2,-159.64 1103.5,-170.85 1148.8,-178.75"/>
<polygon fill="black" stroke="black" points="1147.96,-182.16 1158.41,-180.43 1149.16,-175.26 1147.96,-182.16"/>
<text text-anchor="middle" x="1072.2" y="-177.94" font-family="Times,serif" font-size="14.00">DATA/550:43</text>
</g>
<!-- q12:3 -->
<g id="node7" class="node">
<title>q12:3</title>
<ellipse fill="none" stroke="black" stroke-width="2" cx="1202.8" cy="-242" rx="39.63" ry="18"/>
<text text-anchor="middle" x="1202.8" y="-237.32" font-family="Times,serif" font-size="14.00">q12:3</text>
</g>
<!-- q8:3&#45;&gt;q12:3 -->
<g id="edge7" class="edge">
<title>q8:3&#45;&gt;q12:3</title>
<path fill="none" stroke="black" d="M988.52,-235.94C1030.4,-237.13 1102.7,-239.19 1151.4,-240.57"/>
<polygon fill="black" stroke="black" points="1150.99,-244.06 1161.09,-240.85 1151.19,-237.06 1150.99,-244.06"/>
<text text-anchor="middle" x="1072.2" y="-242.94" font-family="Times,serif" font-size="14.00">RSET/250:3</text>
</g>
<!-- q10:3213&#45;&gt;q10:3213 -->
<g id="edge8" class="edge">
<title>q10:3213&#45;&gt;q10:3213</title>
<path fill="none" stroke="black" d="M1179.5,-116.41C1175.1,-126.09 1182.9,-135 1202.8,-135 1214.3,-135 1221.7,-132.02 1225.1,-127.64"/>
<polygon fill="black" stroke="black" points="1228.56,-128.19 1225.97,-117.92 1221.59,-127.57 1228.56,-128.19"/>
<text text-anchor="middle" x="1202.8" y="-138.94" font-family="Times,serif" font-size="14.00">content/λ:3028</text>
</g>
<!-- q15:1 -->
<g id="node8" class="node">
<title>q15:1</title>
<ellipse fill="none" stroke="black" stroke-width="2" cx="1466.6" cy="-126" rx="39.63" ry="18"/>
<text text-anchor="middle" x="1466.6" y="-121.33" font-family="Times,serif" font-size="14.00">q15:1</text>
</g>
<!-- q10:3213&#45;&gt;q15:1 -->
<g id="edge9" class="edge">
<title>q10:3213&#45;&gt;q15:1</title>
<path fill="none" stroke="black" d="M1259.3,-104.73C1305.6,-109.5 1371,-116.24 1415.7,-120.85"/>
<polygon fill="black" stroke="black" points="1415.29,-124.33 1425.59,-121.87 1416.01,-117.36 1415.29,-124.33"/>
<text text-anchor="middle" x="1337.9" y="-122.95" font-family="Times,serif" font-size="14.00">content/550:1</text>
</g>
<!-- q14:134 -->
<g id="node9" class="node">
<title>q14:134</title>
<ellipse fill="none" stroke="black" stroke-width="2" cx="1466.6" cy="-72" rx="52.26" ry="18"/>
<text text-anchor="middle" x="1466.6" y="-67.33" font-family="Times,serif" font-size="14.00">q14:134</text>
</g>
<!-- q10:3213&#45;&gt;q14:134 -->
<g id="edge10" class="edge">
<title>q10:3213&#45;&gt;q14:134</title>
<path fill="none" stroke="black" d="M1254.1,-89.46C1262.5,-88.07 1271.2,-86.77 1279.4,-85.75 1320.3,-80.66 1366.6,-77.24 1402.7,-75.08"/>
<polygon fill="black" stroke="black" points="1402.81,-78.58 1412.59,-74.51 1402.4,-71.59 1402.81,-78.58"/>
<text text-anchor="middle" x="1337.9" y="-89.95" font-family="Times,serif" font-size="14.00">content/250:134</text>
</g>
<!-- q16:50 -->
<g id="node10" class="node">
<title>q16:50</title>
<ellipse fill="none" stroke="black" stroke-width="2" cx="1466.6" cy="-180" rx="45.95" ry="18"/>
<text text-anchor="middle" x="1466.6" y="-175.32" font-family="Times,serif" font-size="14.00">q16:50</text>
</g>
<!-- q10:3213&#45;&gt;q16:50 -->
<g id="edge11" class="edge">
<title>q10:3213&#45;&gt;q16:50</title>
<path fill="none" stroke="black" d="M1230.2,-115.75C1244.3,-124.07 1262.3,-133.68 1279.4,-140 1322.2,-155.86 1373.1,-166.25 1410.8,-172.46"/>
<polygon fill="black" stroke="black" points="1410.18,-175.91 1420.6,-174.01 1411.28,-168.99 1410.18,-175.91"/>
<text text-anchor="middle" x="1337.9" y="-172.94" font-family="Times,serif" font-size="14.00">content/554:50</text>
</g>
<!-- q19:1 -->
<g id="node16" class="node">
<title>q19:1</title>
<ellipse fill="none" stroke="black" stroke-width="2" cx="1707.6" cy="-126" rx="39.63" ry="18"/>
<text text-anchor="middle" x="1707.6" y="-121.33" font-family="Times,serif" font-size="14.00">q19:1</text>
</g>
<!-- q15:1&#45;&gt;q19:1 -->
<g id="edge18" class="edge">
<title>q15:1&#45;&gt;q19:1</title>
<path fill="none" stroke="black" d="M1507.1,-126C1547.7,-126 1611.3,-126 1655.7,-126"/>
<polygon fill="black" stroke="black" points="1655.59,-129.5 1665.59,-126 1655.59,-122.5 1655.59,-129.5"/>
<text text-anchor="middle" x="1587.1" y="-129.94" font-family="Times,serif" font-size="14.00">RSET/250:1</text>
</g>
<!-- q18:134 -->
<g id="node17" class="node">
<title>q18:134</title>
<ellipse fill="none" stroke="black" stroke-width="2" cx="1707.6" cy="-72" rx="52.26" ry="18"/>
<text text-anchor="middle" x="1707.6" y="-67.33" font-family="Times,serif" font-size="14.00">q18:134</text>
</g>
<!-- q14:134&#45;&gt;q18:134 -->
<g id="edge19" class="edge">
<title>q14:134&#45;&gt;q18:134</title>
<path fill="none" stroke="black" d="M1519.8,-72C1556.2,-72 1604.9,-72 1643.5,-72"/>
<polygon fill="black" stroke="black" points="1643.09,-75.5 1653.09,-72 1643.09,-68.5 1643.09,-75.5"/>
<text text-anchor="middle" x="1587.1" y="-75.95" font-family="Times,serif" font-size="14.00">QUIT/221:134</text>
</g>
<!-- q20:50 -->
<g id="node18" class="node">
<title>q20:50</title>
<ellipse fill="none" stroke="black" stroke-width="2" cx="1707.6" cy="-180" rx="45.95" ry="18"/>
<text text-anchor="middle" x="1707.6" y="-175.32" font-family="Times,serif" font-size="14.00">q20:50</text>
</g>
<!-- q16:50&#45;&gt;q20:50 -->
<g id="edge20" class="edge">
<title>q16:50&#45;&gt;q20:50</title>
<path fill="none" stroke="black" d="M1513.4,-180C1552.2,-180 1608,-180 1649.6,-180"/>
<polygon fill="black" stroke="black" points="1649.49,-183.5 1659.49,-180 1649.49,-176.5 1649.49,-183.5"/>
<text text-anchor="middle" x="1587.1" y="-183.94" font-family="Times,serif" font-size="14.00">RSET/250:50</text>
</g>
<!-- q3:242 -->
<g id="node11" class="node">
<title>q3:242</title>
<ellipse fill="none" stroke="black" stroke-width="2" cx="491.48" cy="-142" rx="45.95" ry="18"/>
<text text-anchor="middle" x="491.48" y="-137.32" font-family="Times,serif" font-size="14.00">q3:242</text>
</g>
<!-- q3:242&#45;&gt;q4:230 -->
<g id="edge12" class="edge">
<title>q3:242&#45;&gt;q4:230</title>
<path fill="none" stroke="black" d="M533.69,-149.96C568.04,-156.89 618.12,-167.7 661.18,-179.75 667.01,-181.38 673.1,-183.24 679.09,-185.16"/>
<polygon fill="black" stroke="black" points="677.67,-188.38 688.26,-188.18 679.86,-181.73 677.67,-188.38"/>
<text text-anchor="middle" x="608.31" y="-182.94" font-family="Times,serif" font-size="14.00">AUTH/235:228</text>
</g>
<!-- q6:13 -->
<g id="node12" class="node">
<title>q6:13</title>
<ellipse fill="none" stroke="black" stroke-width="2" cx="725.13" cy="-79" rx="39.63" ry="18"/>
<text text-anchor="middle" x="725.13" y="-74.33" font-family="Times,serif" font-size="14.00">q6:13</text>
</g>
<!-- q3:242&#45;&gt;q6:13 -->
<g id="edge13" class="edge">
<title>q3:242&#45;&gt;q6:13</title>
<path fill="none" stroke="black" d="M515.04,-125.78C526.6,-118.24 541.2,-109.83 555.43,-104.75 593.79,-91.06 639.59,-84.64 673.79,-81.64"/>
<polygon fill="black" stroke="black" points="673.71,-85.16 683.4,-80.87 673.15,-78.18 673.71,-85.16"/>
<text text-anchor="middle" x="608.31" y="-108.95" font-family="Times,serif" font-size="14.00">AUTH/535:13</text>
</g>
<!-- q5:1 -->
<g id="node13" class="node">
<title>q5:1</title>
<ellipse fill="none" stroke="black" stroke-width="2" cx="725.13" cy="-140" rx="33.32" ry="18"/>
<text text-anchor="middle" x="725.13" y="-135.32" font-family="Times,serif" font-size="14.00">q5:1</text>
</g>
<!-- q3:242&#45;&gt;q5:1 -->
<g id="edge14" class="edge">
<title>q3:242&#45;&gt;q5:1</title>
<path fill="none" stroke="black" d="M532.61,-133C540.16,-131.65 548.01,-130.47 555.43,-129.75 602.21,-125.24 614.33,-125.96 661.18,-129.75 667.83,-130.29 674.83,-131.14 681.65,-132.13"/>
<polygon fill="black" stroke="black" points="680.95,-135.56 691.37,-133.66 682.04,-128.65 680.95,-135.56"/>
<text text-anchor="middle" x="608.31" y="-132.94" font-family="Times,serif" font-size="14.00">AUTH/λ:1</text>
</g>
<!-- q9:13 -->
<g id="node14" class="node">
<title>q9:13</title>
<ellipse fill="none" stroke="black" stroke-width="2" cx="954.27" cy="-39" rx="39.63" ry="18"/>
<text text-anchor="middle" x="954.27" y="-34.33" font-family="Times,serif" font-size="14.00">q9:13</text>
</g>
<!-- q6:13&#45;&gt;q9:13 -->
<g id="edge15" class="edge">
<title>q6:13&#45;&gt;q9:13</title>
<path fill="none" stroke="black" d="M763.13,-72.48C801.82,-65.67 862.7,-54.95 905.12,-47.48"/>
<polygon fill="black" stroke="black" points="905.56,-50.96 914.8,-45.78 904.34,-44.06 905.56,-50.96"/>
<text text-anchor="middle" x="839.7" y="-71.95" font-family="Times,serif" font-size="14.00">AUTH/334:13</text>
</g>
<!-- q5:1&#45;&gt;q7:626 -->
<g id="edge16" class="edge">
<title>q5:1&#45;&gt;q7:626</title>
<path fill="none" stroke="black" d="M759.16,-140.73C795,-141.52 852.89,-142.79 896.14,-143.74"/>
<polygon fill="black" stroke="black" points="896.05,-147.24 906.13,-143.97 896.21,-140.24 896.05,-147.24"/>
<text text-anchor="middle" x="839.7" y="-146.94" font-family="Times,serif" font-size="14.00">MAIL/250:1</text>
</g>
<!-- q13:13 -->
<g id="node15" class="node">
<title>q13:13</title>
<ellipse fill="none" stroke="black" stroke-width="2" cx="1202.8" cy="-32" rx="45.95" ry="18"/>
<text text-anchor="middle" x="1202.8" y="-27.32" font-family="Times,serif" font-size="14.00">q13:13</text>
</g>
<!-- q9:13&#45;&gt;q13:13 -->
<g id="edge17" class="edge">
<title>q9:13&#45;&gt;q13:13</title>
<path fill="none" stroke="black" d="M994.61,-37.88C1035.2,-36.73 1098.9,-34.92 1145,-33.61"/>
<polygon fill="black" stroke="black" points="1144.89,-37.12 1154.79,-33.33 1144.69,-30.12 1144.89,-37.12"/>
<text text-anchor="middle" x="1072.2" y="-41.95" font-family="Times,serif" font-size="14.00">content/535:13</text>
</g>
<!-- q17:4 -->
<g id="node19" class="node">
<title>q17:4</title>
<ellipse fill="none" stroke="black" stroke-width="2" cx="1466.6" cy="-18" rx="39.63" ry="18"/>
<text text-anchor="middle" x="1466.6" y="-13.32" font-family="Times,serif" font-size="14.00">q17:4</text>
</g>
<!-- q13:13&#45;&gt;q17:4 -->
<g id="edge21" class="edge">
<title>q13:13&#45;&gt;q17:4</title>
<path fill="none" stroke="black" d="M1249.1,-29.58C1295.3,-27.11 1367,-23.27 1415,-20.7"/>
<polygon fill="black" stroke="black" points="1415.09,-24.21 1424.89,-20.18 1414.72,-17.22 1415.09,-24.21"/>
<text text-anchor="middle" x="1337.9" y="-31.95" font-family="Times,serif" font-size="14.00">λ/451:4</text>
</g>
<!-- q0:244 -->
<g id="node20" class="node">
<title>q0:244</title>
<ellipse fill="none" stroke="black" stroke-width="2" cx="53.95" cy="-169" rx="49.95" ry="49.95"/>
<ellipse fill="none" stroke="black" stroke-width="2" cx="53.95" cy="-169" rx="53.95" ry="53.95"/>
<text text-anchor="middle" x="53.95" y="-164.32" font-family="Times,serif" font-size="14.00">q0:244</text>
</g>
<!-- q1:244 -->
<g id="node21" class="node">
<title>q1:244</title>
<ellipse fill="none" stroke="black" stroke-width="2" cx="257.84" cy="-169" rx="45.95" ry="18"/>
<text text-anchor="middle" x="257.84" y="-164.32" font-family="Times,serif" font-size="14.00">q1:244</text>
</g>
<!-- q0:244&#45;&gt;q1:244 -->
<g id="edge22" class="edge">
<title>q0:244&#45;&gt;q1:244</title>
<path fill="none" stroke="black" d="M104.85,-169C133.64,-169 169.94,-169 199.84,-169"/>
<polygon fill="black" stroke="black" points="199.45,-172.5 209.45,-169 199.45,-165.5 199.45,-172.5"/>
<text text-anchor="middle" x="157.89" y="-172.94" font-family="Times,serif" font-size="14.00">λ/220:244</text>
</g>
<!-- q1:244&#45;&gt;q2:2 -->
<g id="edge23" class="edge">
<title>q1:244&#45;&gt;q2:2</title>
<path fill="none" stroke="black" d="M302.14,-175.17C343.47,-181.06 405.4,-189.88 446.84,-195.78"/>
<polygon fill="black" stroke="black" points="446.33,-199.24 456.72,-197.19 447.31,-192.31 446.33,-199.24"/>
<text text-anchor="middle" x="374.66" y="-195.94" font-family="Times,serif" font-size="14.00">EHLO/λ:2</text>
</g>
<!-- q1:244&#45;&gt;q3:242 -->
<g id="edge24" class="edge">
<title>q1:244&#45;&gt;q3:242</title>
<path fill="none" stroke="black" d="M296.21,-158.12C304.56,-156.03 313.43,-154.08 321.79,-152.75 358.73,-146.86 400.71,-144.17 433.55,-142.95"/>
<polygon fill="black" stroke="black" points="433.37,-146.46 443.25,-142.63 433.14,-139.46 433.37,-146.46"/>
<text text-anchor="middle" x="374.66" y="-155.94" font-family="Times,serif" font-size="14.00">EHLO/250:242</text>
</g>
</g>
</svg>
