<?xml version="1.0" encoding="UTF-8" standalone="no"?>
<!DOCTYPE svg PUBLIC "-//W3C//DTD SVG 1.1//EN"
 "http://www.w3.org/Graphics/SVG/1.1/DTD/svg11.dtd">
<!-- Generated by graphviz version 12.0.0 (20240803.0821)
 -->
<!-- Pages: 1 -->
<svg width="2453pt" height="290pt"
 viewBox="0.00 0.00 2452.93 290.00" xmlns="http://www.w3.org/2000/svg" xmlns:xlink="http://www.w3.org/1999/xlink">
<g id="graph0" class="graph" transform="scale(1 1) rotate(0) translate(4 286)">
<polygon fill="white" stroke="none" points="-4,4 -4,-286 2448.93,-286 2448.93,4 -4,4"/>
<!-- q15:139 -->
<g id="node1" class="node">
<title>q15:139</title>
<ellipse fill="none" stroke="black" stroke-width="2" cx="1439.8" cy="-137" rx="52.26" ry="18"/>
<text text-anchor="middle" x="1439.8" y="-132.32" font-family="Times,serif" font-size="14.00">q15:139</text>
</g>
<!-- q9:10 -->
<g id="node2" class="node">
<title>q9:10</title>
<ellipse fill="none" stroke="black" stroke-width="2" cx="1687.8" cy="-203" rx="39.63" ry="18"/>
<text text-anchor="middle" x="1687.8" y="-198.32" font-family="Times,serif" font-size="14.00">q9:10</text>
</g>
<!-- q15:139&#45;&gt;q9:10 -->
<g id="edge1" class="edge">
<title>q15:139&#45;&gt;q9:10</title>
<path fill="none" stroke="black" d="M1480.9,-149.04C1490.4,-151.77 1500.6,-154.57 1510,-157 1554.7,-168.46 1566.7,-167.9 1611.3,-179.75 1621.7,-182.52 1632.8,-185.78 1643.3,-188.97"/>
<polygon fill="black" stroke="black" points="1642.27,-192.31 1652.85,-191.92 1644.33,-185.63 1642.27,-192.31"/>
<text text-anchor="middle" x="1560.6" y="-182.94" font-family="Times,serif" font-size="14.00">RCPT/250:1</text>
</g>
<!-- q19:20 -->
<g id="node3" class="node">
<title>q19:20</title>
<ellipse fill="none" stroke="black" stroke-width="2" cx="1687.8" cy="-141" rx="45.95" ry="18"/>
<text text-anchor="middle" x="1687.8" y="-136.32" font-family="Times,serif" font-size="14.00">q19:20</text>
</g>
<!-- q15:139&#45;&gt;q19:20 -->
<g id="edge2" class="edge">
<title>q15:139&#45;&gt;q19:20</title>
<path fill="none" stroke="black" d="M1492.6,-137.83C1526.4,-138.37 1571.4,-139.1 1611.3,-139.75 1617.3,-139.85 1623.7,-139.95 1630,-140.06"/>
<polygon fill="black" stroke="black" points="1629.73,-143.56 1639.79,-140.22 1629.84,-136.56 1629.73,-143.56"/>
<text text-anchor="middle" x="1560.6" y="-142.94" font-family="Times,serif" font-size="14.00">DATA/550:20</text>
</g>
<!-- q16:3267 -->
<g id="node4" class="node">
<title>q16:3267</title>
<ellipse fill="none" stroke="black" stroke-width="2" cx="1687.8" cy="-52" rx="58.57" ry="18"/>
<text text-anchor="middle" x="1687.8" y="-47.33" font-family="Times,serif" font-size="14.00">q16:3267</text>
</g>
<!-- q15:139&#45;&gt;q16:3267 -->
<g id="edge3" class="edge">
<title>q15:139&#45;&gt;q16:3267</title>
<path fill="none" stroke="black" d="M1478.4,-124C1520.6,-109.4 1589.4,-85.65 1636.3,-69.45"/>
<polygon fill="black" stroke="black" points="1637.45,-72.75 1645.77,-66.2 1635.17,-66.13 1637.45,-72.75"/>
<text text-anchor="middle" x="1560.6" y="-114.95" font-family="Times,serif" font-size="14.00">DATA/354:118</text>
</g>
<!-- q9:10&#45;&gt;q9:10 -->
<g id="edge4" class="edge">
<title>q9:10&#45;&gt;q9:10</title>
<path fill="none" stroke="black" d="M1665.9,-218.92C1660.1,-229.15 1667.5,-239 1687.8,-239 1700.2,-239 1707.8,-235.34 1710.5,-230.17"/>
<polygon fill="black" stroke="black" points="1714.01,-230.19 1709.89,-220.43 1707.02,-230.63 1714.01,-230.19"/>
<text text-anchor="middle" x="1687.8" y="-242.94" font-family="Times,serif" font-size="14.00">RCPT/250:8</text>
</g>
<!-- q13:2 -->
<g id="node5" class="node">
<title>q13:2</title>
<ellipse fill="none" stroke="black" stroke-width="2" cx="1951.7" cy="-203" rx="39.63" ry="18"/>
<text text-anchor="middle" x="1951.7" y="-198.32" font-family="Times,serif" font-size="14.00">q13:2</text>
</g>
<!-- q9:10&#45;&gt;q13:2 -->
<g id="edge5" class="edge">
<title>q9:10&#45;&gt;q13:2</title>
<path fill="none" stroke="black" d="M1728.3,-203C1774.2,-203 1849.9,-203 1900.1,-203"/>
<polygon fill="black" stroke="black" points="1899.79,-206.5 1909.79,-203 1899.79,-199.5 1899.79,-206.5"/>
<text text-anchor="middle" x="1822.9" y="-206.94" font-family="Times,serif" font-size="14.00">DATA/354:2</text>
</g>
<!-- q16:3267&#45;&gt;q16:3267 -->
<g id="edge6" class="edge">
<title>q16:3267&#45;&gt;q16:3267</title>
<path fill="none" stroke="black" d="M1665.1,-69.41C1660.9,-79.09 1668.5,-88 1687.8,-88 1699,-88 1706.3,-85.02 1709.6,-80.64"/>
<polygon fill="black" stroke="black" points="1713.07,-81.17 1710.38,-70.92 1706.09,-80.61 1713.07,-81.17"/>
<text text-anchor="middle" x="1687.8" y="-91.95" font-family="Times,serif" font-size="14.00">content/λ:3060</text>
</g>
<!-- q21:135 -->
<g id="node6" class="node">
<title>q21:135</title>
<ellipse fill="none" stroke="black" stroke-width="2" cx="1951.7" cy="-72" rx="52.26" ry="18"/>
<text text-anchor="middle" x="1951.7" y="-67.33" font-family="Times,serif" font-size="14.00">q21:135</text>
</g>
<!-- q16:3267&#45;&gt;q21:135 -->
<g id="edge7" class="edge">
<title>q16:3267&#45;&gt;q21:135</title>
<path fill="none" stroke="black" d="M1745.6,-56.34C1787.8,-59.56 1845.1,-63.94 1888.5,-67.25"/>
<polygon fill="black" stroke="black" points="1887.95,-70.72 1898.19,-67.99 1888.49,-63.74 1887.95,-70.72"/>
<text text-anchor="middle" x="1822.9" y="-69.95" font-family="Times,serif" font-size="14.00">content/250:135</text>
</g>
<!-- q20:72 -->
<g id="node7" class="node">
<title>q20:72</title>
<ellipse fill="none" stroke="black" stroke-width="2" cx="1951.7" cy="-18" rx="45.95" ry="18"/>
<text text-anchor="middle" x="1951.7" y="-13.32" font-family="Times,serif" font-size="14.00">q20:72</text>
</g>
<!-- q16:3267&#45;&gt;q20:72 -->
<g id="edge8" class="edge">
<title>q16:3267&#45;&gt;q20:72</title>
<path fill="none" stroke="black" d="M1737.1,-41.52C1746.1,-39.77 1755.5,-38.09 1764.4,-36.75 1807.9,-30.18 1857.6,-25.31 1894.6,-22.19"/>
<polygon fill="black" stroke="black" points="1894.51,-25.71 1904.19,-21.4 1893.94,-18.73 1894.51,-25.71"/>
<text text-anchor="middle" x="1822.9" y="-40.95" font-family="Times,serif" font-size="14.00">content/554:72</text>
</g>
<!-- q17:2 -->
<g id="node8" class="node">
<title>q17:2</title>
<ellipse fill="none" stroke="black" stroke-width="2" cx="2192.7" cy="-203" rx="39.63" ry="18"/>
<text text-anchor="middle" x="2192.7" y="-198.32" font-family="Times,serif" font-size="14.00">q17:2</text>
</g>
<!-- q13:2&#45;&gt;q17:2 -->
<g id="edge9" class="edge">
<title>q13:2&#45;&gt;q17:2</title>
<path fill="none" stroke="black" d="M1992.1,-203C2032.8,-203 2096.3,-203 2140.7,-203"/>
<polygon fill="black" stroke="black" points="2140.69,-206.5 2150.69,-203 2140.69,-199.5 2140.69,-206.5"/>
<text text-anchor="middle" x="2072.2" y="-206.94" font-family="Times,serif" font-size="14.00">content/554:2</text>
</g>
<!-- q24:135 -->
<g id="node9" class="node">
<title>q24:135</title>
<ellipse fill="none" stroke="black" stroke-width="2" cx="2192.7" cy="-72" rx="52.26" ry="18"/>
<text text-anchor="middle" x="2192.7" y="-67.33" font-family="Times,serif" font-size="14.00">q24:135</text>
</g>
<!-- q21:135&#45;&gt;q24:135 -->
<g id="edge10" class="edge">
<title>q21:135&#45;&gt;q24:135</title>
<path fill="none" stroke="black" d="M2004.8,-72C2041.2,-72 2090,-72 2128.5,-72"/>
<polygon fill="black" stroke="black" points="2128.09,-75.5 2138.09,-72 2128.09,-68.5 2128.09,-75.5"/>
<text text-anchor="middle" x="2072.2" y="-75.95" font-family="Times,serif" font-size="14.00">QUIT/221:135</text>
</g>
<!-- q23:72 -->
<g id="node10" class="node">
<title>q23:72</title>
<ellipse fill="none" stroke="black" stroke-width="2" cx="2192.7" cy="-18" rx="45.95" ry="18"/>
<text text-anchor="middle" x="2192.7" y="-13.32" font-family="Times,serif" font-size="14.00">q23:72</text>
</g>
<!-- q20:72&#45;&gt;q23:72 -->
<g id="edge11" class="edge">
<title>q20:72&#45;&gt;q23:72</title>
<path fill="none" stroke="black" d="M1998.5,-18C2037.3,-18 2093,-18 2134.7,-18"/>
<polygon fill="black" stroke="black" points="2134.49,-21.5 2144.49,-18 2134.49,-14.5 2134.49,-21.5"/>
<text text-anchor="middle" x="2072.2" y="-21.95" font-family="Times,serif" font-size="14.00">RSET/250:72</text>
</g>
<!-- q22:2 -->
<g id="node11" class="node">
<title>q22:2</title>
<ellipse fill="none" stroke="black" stroke-width="2" cx="2405.3" cy="-203" rx="39.63" ry="18"/>
<text text-anchor="middle" x="2405.3" y="-198.32" font-family="Times,serif" font-size="14.00">q22:2</text>
</g>
<!-- q17:2&#45;&gt;q22:2 -->
<g id="edge12" class="edge">
<title>q17:2&#45;&gt;q22:2</title>
<path fill="none" stroke="black" d="M2233.3,-203C2267.4,-203 2316.9,-203 2353.9,-203"/>
<polygon fill="black" stroke="black" points="2353.39,-206.5 2363.39,-203 2353.39,-199.5 2353.39,-206.5"/>
<text text-anchor="middle" x="2305.3" y="-206.94" font-family="Times,serif" font-size="14.00">RSET/250:2</text>
</g>
<!-- q2:243 -->
<g id="node12" class="node">
<title>q2:243</title>
<ellipse fill="none" stroke="black" stroke-width="2" cx="491.48" cy="-204" rx="45.95" ry="18"/>
<text text-anchor="middle" x="491.48" y="-199.32" font-family="Times,serif" font-size="14.00">q2:243</text>
</g>
<!-- q6:12 -->
<g id="node13" class="node">
<title>q6:12</title>
<ellipse fill="none" stroke="black" stroke-width="2" cx="725.13" cy="-258" rx="39.63" ry="18"/>
<text text-anchor="middle" x="725.13" y="-253.32" font-family="Times,serif" font-size="14.00">q6:12</text>
</g>
<!-- q2:243&#45;&gt;q6:12 -->
<g id="edge13" class="edge">
<title>q2:243&#45;&gt;q6:12</title>
<path fill="none" stroke="black" d="M521.02,-218.62C531.6,-223.52 543.84,-228.6 555.43,-232 594.51,-243.48 640.26,-250.13 674.25,-253.82"/>
<polygon fill="black" stroke="black" points="673.49,-257.26 683.79,-254.81 674.21,-250.3 673.49,-257.26"/>
<text text-anchor="middle" x="608.31" y="-255.94" font-family="Times,serif" font-size="14.00">AUTH/535:12</text>
</g>
<!-- q5:1 -->
<g id="node14" class="node">
<title>q5:1</title>
<ellipse fill="none" stroke="black" stroke-width="2" cx="839.7" cy="-211" rx="33.32" ry="18"/>
<text text-anchor="middle" x="839.7" y="-206.32" font-family="Times,serif" font-size="14.00">q5:1</text>
</g>
<!-- q2:243&#45;&gt;q5:1 -->
<g id="edge14" class="edge">
<title>q2:243&#45;&gt;q5:1</title>
<path fill="none" stroke="black" d="M538.1,-204.92C604.79,-206.27 728.13,-208.76 794.18,-210.1"/>
<polygon fill="black" stroke="black" points="793.86,-213.59 803.93,-210.3 794,-206.6 793.86,-213.59"/>
<text text-anchor="middle" x="608.31" y="-210.94" font-family="Times,serif" font-size="14.00">AUTH/λ:1</text>
</g>
<!-- q4:231 -->
<g id="node15" class="node">
<title>q4:231</title>
<ellipse fill="none" stroke="black" stroke-width="2" cx="725.13" cy="-131" rx="45.95" ry="18"/>
<text text-anchor="middle" x="725.13" y="-126.33" font-family="Times,serif" font-size="14.00">q4:231</text>
</g>
<!-- q2:243&#45;&gt;q4:231 -->
<g id="edge15" class="edge">
<title>q2:243&#45;&gt;q4:231</title>
<path fill="none" stroke="black" d="M518.75,-188.59C529.79,-182.64 542.94,-176.21 555.43,-171.75 600.71,-155.6 614.54,-160.67 661.18,-149 666.09,-147.77 671.19,-146.43 676.28,-145.04"/>
<polygon fill="black" stroke="black" points="677.13,-148.44 685.83,-142.39 675.26,-141.69 677.13,-148.44"/>
<text text-anchor="middle" x="608.31" y="-174.94" font-family="Times,serif" font-size="14.00">AUTH/235:230</text>
</g>
<!-- q10:12 -->
<g id="node16" class="node">
<title>q10:12</title>
<ellipse fill="none" stroke="black" stroke-width="2" cx="954.27" cy="-260" rx="45.95" ry="18"/>
<text text-anchor="middle" x="954.27" y="-255.32" font-family="Times,serif" font-size="14.00">q10:12</text>
</g>
<!-- q6:12&#45;&gt;q10:12 -->
<g id="edge16" class="edge">
<title>q6:12&#45;&gt;q10:12</title>
<path fill="none" stroke="black" d="M765.69,-258.35C801.75,-258.67 855.43,-259.14 896.14,-259.5"/>
<polygon fill="black" stroke="black" points="895.98,-263 906.01,-259.59 896.04,-256 895.98,-263"/>
<text text-anchor="middle" x="839.7" y="-262.94" font-family="Times,serif" font-size="14.00">AUTH/334:12</text>
</g>
<!-- q5:1&#45;&gt;q9:10 -->
<g id="edge17" class="edge">
<title>q5:1&#45;&gt;q9:10</title>
<path fill="none" stroke="black" d="M873.91,-211C918.71,-211 1000.98,-211 1071.2,-211 1071.2,-211 1071.2,-211 1440.8,-211 1508.4,-211 1586.5,-207.94 1636.2,-205.61"/>
<polygon fill="black" stroke="black" points="1636.27,-209.11 1646.09,-205.13 1635.93,-202.12 1636.27,-209.11"/>
<text text-anchor="middle" x="1196.5" y="-214.94" font-family="Times,serif" font-size="14.00">MAIL/250:1</text>
</g>
<!-- q8:228 -->
<g id="node17" class="node">
<title>q8:228</title>
<ellipse fill="none" stroke="black" stroke-width="2" cx="954.27" cy="-132" rx="45.95" ry="18"/>
<text text-anchor="middle" x="954.27" y="-127.33" font-family="Times,serif" font-size="14.00">q8:228</text>
</g>
<!-- q4:231&#45;&gt;q8:228 -->
<g id="edge18" class="edge">
<title>q4:231&#45;&gt;q8:228</title>
<path fill="none" stroke="black" d="M771.82,-131.2C807.78,-131.36 858.09,-131.58 896.61,-131.75"/>
<polygon fill="black" stroke="black" points="896.12,-135.25 906.14,-131.79 896.15,-128.25 896.12,-135.25"/>
<text text-anchor="middle" x="839.7" y="-134.94" font-family="Times,serif" font-size="14.00">MAIL/250:228</text>
</g>
<!-- q7:3 -->
<g id="node18" class="node">
<title>q7:3</title>
<ellipse fill="none" stroke="black" stroke-width="2" cx="954.27" cy="-78" rx="33.32" ry="18"/>
<text text-anchor="middle" x="954.27" y="-73.33" font-family="Times,serif" font-size="14.00">q7:3</text>
</g>
<!-- q4:231&#45;&gt;q7:3 -->
<g id="edge19" class="edge">
<title>q4:231&#45;&gt;q7:3</title>
<path fill="none" stroke="black" d="M760.18,-118.57C769.47,-115.44 779.6,-112.25 789.08,-109.75 829.63,-99.04 876.7,-90.3 910.02,-84.73"/>
<polygon fill="black" stroke="black" points="910.41,-88.21 919.71,-83.13 909.27,-81.3 910.41,-88.21"/>
<text text-anchor="middle" x="839.7" y="-112.95" font-family="Times,serif" font-size="14.00">MAIL/553:3</text>
</g>
<!-- q14:12 -->
<g id="node19" class="node">
<title>q14:12</title>
<ellipse fill="none" stroke="black" stroke-width="2" cx="1196.5" cy="-264" rx="45.95" ry="18"/>
<text text-anchor="middle" x="1196.5" y="-259.32" font-family="Times,serif" font-size="14.00">q14:12</text>
</g>
<!-- q10:12&#45;&gt;q14:12 -->
<g id="edge20" class="edge">
<title>q10:12&#45;&gt;q14:12</title>
<path fill="none" stroke="black" d="M1001.02,-260.76C1040.1,-261.41 1096.5,-262.35 1138.5,-263.05"/>
<polygon fill="black" stroke="black" points="1138.33,-266.55 1148.39,-263.21 1138.45,-259.55 1138.33,-266.55"/>
<text text-anchor="middle" x="1072.2" y="-265.94" font-family="Times,serif" font-size="14.00">content/535:12</text>
</g>
<!-- q12:228 -->
<g id="node20" class="node">
<title>q12:228</title>
<ellipse fill="none" stroke="black" stroke-width="2" cx="1196.5" cy="-132" rx="52.26" ry="18"/>
<text text-anchor="middle" x="1196.5" y="-127.33" font-family="Times,serif" font-size="14.00">q12:228</text>
</g>
<!-- q8:228&#45;&gt;q12:228 -->
<g id="edge21" class="edge">
<title>q8:228&#45;&gt;q12:228</title>
<path fill="none" stroke="black" d="M1001.02,-132C1038.1,-132 1090.8,-132 1131.9,-132"/>
<polygon fill="black" stroke="black" points="1131.69,-135.5 1141.69,-132 1131.69,-128.5 1131.69,-135.5"/>
<text text-anchor="middle" x="1072.2" y="-135.94" font-family="Times,serif" font-size="14.00">RCPT/250:228</text>
</g>
<!-- q11:3 -->
<g id="node21" class="node">
<title>q11:3</title>
<ellipse fill="none" stroke="black" stroke-width="2" cx="1196.5" cy="-78" rx="39.63" ry="18"/>
<text text-anchor="middle" x="1196.5" y="-73.33" font-family="Times,serif" font-size="14.00">q11:3</text>
</g>
<!-- q7:3&#45;&gt;q11:3 -->
<g id="edge22" class="edge">
<title>q7:3&#45;&gt;q11:3</title>
<path fill="none" stroke="black" d="M988.42,-78C1028.8,-78 1097.3,-78 1144.4,-78"/>
<polygon fill="black" stroke="black" points="1144.39,-81.5 1154.39,-78 1144.39,-74.5 1144.39,-81.5"/>
<text text-anchor="middle" x="1072.2" y="-81.95" font-family="Times,serif" font-size="14.00">RSET/250:3</text>
</g>
<!-- q18:3 -->
<g id="node22" class="node">
<title>q18:3</title>
<ellipse fill="none" stroke="black" stroke-width="2" cx="1439.8" cy="-264" rx="39.63" ry="18"/>
<text text-anchor="middle" x="1439.8" y="-259.32" font-family="Times,serif" font-size="14.00">q18:3</text>
</g>
<!-- q14:12&#45;&gt;q18:3 -->
<g id="edge23" class="edge">
<title>q14:12&#45;&gt;q18:3</title>
<path fill="none" stroke="black" d="M1243.1,-264C1284.4,-264 1345.2,-264 1388,-264"/>
<polygon fill="black" stroke="black" points="1387.79,-267.5 1397.79,-264 1387.79,-260.5 1387.79,-267.5"/>
<text text-anchor="middle" x="1318.1" y="-267.94" font-family="Times,serif" font-size="14.00">λ/451:3</text>
</g>
<!-- q12:228&#45;&gt;q15:139 -->
<g id="edge24" class="edge">
<title>q12:228&#45;&gt;q15:139</title>
<path fill="none" stroke="black" d="M1249.5,-133.08C1286.5,-133.84 1336.3,-134.88 1375.5,-135.69"/>
<polygon fill="black" stroke="black" points="1375.22,-139.18 1385.29,-135.89 1375.36,-132.19 1375.22,-139.18"/>
<text text-anchor="middle" x="1318.1" y="-138.94" font-family="Times,serif" font-size="14.00">RCPT/250:139</text>
</g>
<!-- q12:228&#45;&gt;q16:3267 -->
<g id="edge25" class="edge">
<title>q12:228&#45;&gt;q16:3267</title>
<path fill="none" stroke="black" d="M1241.5,-122.13C1279.9,-113.7 1337.2,-101.57 1387.5,-92.75 1441.7,-83.24 1455.5,-82.49 1510,-75 1546.9,-69.92 1588.2,-64.54 1621.6,-60.25"/>
<polygon fill="black" stroke="black" points="1621.62,-63.78 1631.1,-59.04 1620.73,-56.83 1621.62,-63.78"/>
<text text-anchor="middle" x="1439.8" y="-95.95" font-family="Times,serif" font-size="14.00">DATA/354:89</text>
</g>
<!-- q1:244 -->
<g id="node23" class="node">
<title>q1:244</title>
<ellipse fill="none" stroke="black" stroke-width="2" cx="257.84" cy="-171" rx="45.95" ry="18"/>
<text text-anchor="middle" x="257.84" y="-166.32" font-family="Times,serif" font-size="14.00">q1:244</text>
</g>
<!-- q1:244&#45;&gt;q2:243 -->
<g id="edge26" class="edge">
<title>q1:244&#45;&gt;q2:243</title>
<path fill="none" stroke="black" d="M302.14,-177.17C340,-182.56 395.17,-190.42 436.02,-196.24"/>
<polygon fill="black" stroke="black" points="435.51,-199.7 445.9,-197.65 436.49,-192.77 435.51,-199.7"/>
<text text-anchor="middle" x="374.66" y="-197.94" font-family="Times,serif" font-size="14.00">EHLO/250:243</text>
</g>
<!-- q3:1 -->
<g id="node24" class="node">
<title>q3:1</title>
<ellipse fill="none" stroke="black" stroke-width="2" cx="491.48" cy="-144" rx="33.32" ry="18"/>
<text text-anchor="middle" x="491.48" y="-139.32" font-family="Times,serif" font-size="14.00">q3:1</text>
</g>
<!-- q1:244&#45;&gt;q3:1 -->
<g id="edge27" class="edge">
<title>q1:244&#45;&gt;q3:1</title>
<path fill="none" stroke="black" d="M298.66,-161.83C306.31,-160.29 314.27,-158.84 321.79,-157.75 363.67,-151.66 411.82,-148.07 445.93,-146.1"/>
<polygon fill="black" stroke="black" points="446.07,-149.6 455.86,-145.54 445.68,-142.61 446.07,-149.6"/>
<text text-anchor="middle" x="374.66" y="-160.94" font-family="Times,serif" font-size="14.00">EHLO/λ:1</text>
</g>
<!-- q3:1&#45;&gt;q4:231 -->
<g id="edge28" class="edge">
<title>q3:1&#45;&gt;q4:231</title>
<path fill="none" stroke="black" d="M523.05,-136.86C533.28,-134.78 544.8,-132.8 555.43,-131.75 592.58,-128.09 634.56,-127.88 667.35,-128.61"/>
<polygon fill="black" stroke="black" points="666.94,-132.1 677.03,-128.86 667.12,-125.1 666.94,-132.1"/>
<text text-anchor="middle" x="608.31" y="-134.94" font-family="Times,serif" font-size="14.00">AUTH/235:1</text>
</g>
<!-- q0:244 -->
<g id="node25" class="node">
<title>q0:244</title>
<ellipse fill="none" stroke="black" stroke-width="2" cx="53.95" cy="-171" rx="49.95" ry="49.95"/>
<ellipse fill="none" stroke="black" stroke-width="2" cx="53.95" cy="-171" rx="53.95" ry="53.95"/>
<text text-anchor="middle" x="53.95" y="-166.32" font-family="Times,serif" font-size="14.00">q0:244</text>
</g>
<!-- q0:244&#45;&gt;q1:244 -->
<g id="edge29" class="edge">
<title>q0:244&#45;&gt;q1:244</title>
<path fill="none" stroke="black" d="M104.85,-171C133.64,-171 169.94,-171 199.84,-171"/>
<polygon fill="black" stroke="black" points="199.45,-174.5 209.45,-171 199.45,-167.5 199.45,-174.5"/>
<text text-anchor="middle" x="157.89" y="-174.94" font-family="Times,serif" font-size="14.00">λ/220:244</text>
</g>
</g>
</svg>
