<?xml version="1.0" encoding="UTF-8" standalone="no"?>
<!DOCTYPE svg PUBLIC "-//W3C//DTD SVG 1.1//EN"
 "http://www.w3.org/Graphics/SVG/1.1/DTD/svg11.dtd">
<!-- Generated by graphviz version 12.0.0 (20240803.0821)
 -->
<!-- Pages: 1 -->
<svg width="2240pt" height="197pt"
 viewBox="0.00 0.00 2240.36 197.00" xmlns="http://www.w3.org/2000/svg" xmlns:xlink="http://www.w3.org/1999/xlink">
<g id="graph0" class="graph" transform="scale(1 1) rotate(0) translate(4 193)">
<polygon fill="white" stroke="none" points="-4,4 -4,-193 2236.36,-193 2236.36,4 -4,4"/>
<!-- q13:3329 -->
<g id="node1" class="node">
<title>q13:3329</title>
<ellipse fill="none" stroke="black" stroke-width="2" cx="1675.2" cy="-117" rx="58.57" ry="18"/>
<text text-anchor="middle" x="1675.2" y="-112.33" font-family="Times,serif" font-size="14.00">q13:3329</text>
</g>
<!-- q13:3329&#45;&gt;q13:3329 -->
<g id="edge1" class="edge">
<title>q13:3329&#45;&gt;q13:3329</title>
<path fill="none" stroke="black" d="M1652.5,-134.41C1648.3,-144.09 1655.8,-153 1675.2,-153 1686.4,-153 1693.7,-150.02 1697,-145.64"/>
<polygon fill="black" stroke="black" points="1700.47,-146.17 1697.78,-135.92 1693.49,-145.61 1700.47,-146.17"/>
<text text-anchor="middle" x="1675.2" y="-156.94" font-family="Times,serif" font-size="14.00">content/位:3143</text>
</g>
<!-- q18:49 -->
<g id="node2" class="node">
<title>q18:49</title>
<ellipse fill="none" stroke="black" stroke-width="2" cx="1939" cy="-171" rx="45.95" ry="18"/>
<text text-anchor="middle" x="1939" y="-166.32" font-family="Times,serif" font-size="14.00">q18:49</text>
</g>
<!-- q13:3329&#45;&gt;q18:49 -->
<g id="edge2" class="edge">
<title>q13:3329&#45;&gt;q18:49</title>
<path fill="none" stroke="black" d="M1719.2,-129.71C1729.8,-132.63 1741.2,-135.59 1751.8,-138 1795.9,-148.01 1846.5,-156.81 1883.8,-162.79"/>
<polygon fill="black" stroke="black" points="1882.98,-166.2 1893.4,-164.32 1884.08,-159.29 1882.98,-166.2"/>
<text text-anchor="middle" x="1810.3" y="-163.94" font-family="Times,serif" font-size="14.00">content/554:49</text>
</g>
<!-- q17:1 -->
<g id="node3" class="node">
<title>q17:1</title>
<ellipse fill="none" stroke="black" stroke-width="2" cx="1939" cy="-117" rx="39.63" ry="18"/>
<text text-anchor="middle" x="1939" y="-112.33" font-family="Times,serif" font-size="14.00">q17:1</text>
</g>
<!-- q13:3329&#45;&gt;q17:1 -->
<g id="edge3" class="edge">
<title>q13:3329&#45;&gt;q17:1</title>
<path fill="none" stroke="black" d="M1734.6,-117C1780.3,-117 1843.2,-117 1886.9,-117"/>
<polygon fill="black" stroke="black" points="1886.99,-120.5 1896.99,-117 1886.99,-113.5 1886.99,-120.5"/>
<text text-anchor="middle" x="1810.3" y="-120.95" font-family="Times,serif" font-size="14.00">content/550:1</text>
</g>
<!-- q16:136 -->
<g id="node4" class="node">
<title>q16:136</title>
<ellipse fill="none" stroke="black" stroke-width="2" cx="1939" cy="-63" rx="52.26" ry="18"/>
<text text-anchor="middle" x="1939" y="-58.33" font-family="Times,serif" font-size="14.00">q16:136</text>
</g>
<!-- q13:3329&#45;&gt;q16:136 -->
<g id="edge4" class="edge">
<title>q13:3329&#45;&gt;q16:136</title>
<path fill="none" stroke="black" d="M1718.8,-104.22C1729.5,-101.23 1741,-98.2 1751.8,-95.75 1794,-86.13 1842.1,-77.73 1878.9,-71.85"/>
<polygon fill="black" stroke="black" points="1879.08,-75.36 1888.4,-70.34 1877.98,-68.45 1879.08,-75.36"/>
<text text-anchor="middle" x="1810.3" y="-98.95" font-family="Times,serif" font-size="14.00">content/250:136</text>
</g>
<!-- q21:49 -->
<g id="node5" class="node">
<title>q21:49</title>
<ellipse fill="none" stroke="black" stroke-width="2" cx="2180.1" cy="-171" rx="45.95" ry="18"/>
<text text-anchor="middle" x="2180.1" y="-166.32" font-family="Times,serif" font-size="14.00">q21:49</text>
</g>
<!-- q18:49&#45;&gt;q21:49 -->
<g id="edge5" class="edge">
<title>q18:49&#45;&gt;q21:49</title>
<path fill="none" stroke="black" d="M1985.8,-171C2024.6,-171 2080.4,-171 2122.1,-171"/>
<polygon fill="black" stroke="black" points="2121.89,-174.5 2131.89,-171 2121.89,-167.5 2121.89,-174.5"/>
<text text-anchor="middle" x="2059.6" y="-174.94" font-family="Times,serif" font-size="14.00">RSET/250:49</text>
</g>
<!-- q20:1 -->
<g id="node6" class="node">
<title>q20:1</title>
<ellipse fill="none" stroke="black" stroke-width="2" cx="2180.1" cy="-117" rx="39.63" ry="18"/>
<text text-anchor="middle" x="2180.1" y="-112.33" font-family="Times,serif" font-size="14.00">q20:1</text>
</g>
<!-- q17:1&#45;&gt;q20:1 -->
<g id="edge6" class="edge">
<title>q17:1&#45;&gt;q20:1</title>
<path fill="none" stroke="black" d="M1979.5,-117C2020.2,-117 2083.7,-117 2128.1,-117"/>
<polygon fill="black" stroke="black" points="2127.99,-120.5 2137.99,-117 2127.99,-113.5 2127.99,-120.5"/>
<text text-anchor="middle" x="2059.6" y="-120.95" font-family="Times,serif" font-size="14.00">RSET/250:1</text>
</g>
<!-- q19:136 -->
<g id="node7" class="node">
<title>q19:136</title>
<ellipse fill="none" stroke="black" stroke-width="2" cx="2180.1" cy="-63" rx="52.26" ry="18"/>
<text text-anchor="middle" x="2180.1" y="-58.33" font-family="Times,serif" font-size="14.00">q19:136</text>
</g>
<!-- q16:136&#45;&gt;q19:136 -->
<g id="edge7" class="edge">
<title>q16:136&#45;&gt;q19:136</title>
<path fill="none" stroke="black" d="M1992.2,-63C2028.6,-63 2077.3,-63 2115.9,-63"/>
<polygon fill="black" stroke="black" points="2115.49,-66.5 2125.49,-63 2115.49,-59.5 2115.49,-66.5"/>
<text text-anchor="middle" x="2059.6" y="-66.95" font-family="Times,serif" font-size="14.00">QUIT/221:136</text>
</g>
<!-- q2:2 -->
<g id="node8" class="node">
<title>q2:2</title>
<ellipse fill="none" stroke="black" stroke-width="2" cx="491.48" cy="-98" rx="33.32" ry="18"/>
<text text-anchor="middle" x="491.48" y="-93.33" font-family="Times,serif" font-size="14.00">q2:2</text>
</g>
<!-- q4:232 -->
<g id="node9" class="node">
<title>q4:232</title>
<ellipse fill="none" stroke="black" stroke-width="2" cx="725.13" cy="-85" rx="45.95" ry="18"/>
<text text-anchor="middle" x="725.13" y="-80.33" font-family="Times,serif" font-size="14.00">q4:232</text>
</g>
<!-- q2:2&#45;&gt;q4:232 -->
<g id="edge8" class="edge">
<title>q2:2&#45;&gt;q4:232</title>
<path fill="none" stroke="black" d="M525.18,-96.17C562.12,-94.09 622.91,-90.68 667.59,-88.17"/>
<polygon fill="black" stroke="black" points="667.56,-91.68 677.35,-87.62 667.17,-84.69 667.56,-91.68"/>
<text text-anchor="middle" x="608.31" y="-97.95" font-family="Times,serif" font-size="14.00">AUTH/235:2</text>
</g>
<!-- q7:3 -->
<g id="node10" class="node">
<title>q7:3</title>
<ellipse fill="none" stroke="black" stroke-width="2" cx="954.27" cy="-126" rx="33.32" ry="18"/>
<text text-anchor="middle" x="954.27" y="-121.33" font-family="Times,serif" font-size="14.00">q7:3</text>
</g>
<!-- q4:232&#45;&gt;q7:3 -->
<g id="edge9" class="edge">
<title>q4:232&#45;&gt;q7:3</title>
<path fill="none" stroke="black" d="M767.42,-92.95C774.64,-94.32 782.07,-95.71 789.08,-97 830.21,-104.55 877.21,-112.82 910.35,-118.58"/>
<polygon fill="black" stroke="black" points="909.53,-121.99 919.98,-120.25 910.72,-115.09 909.53,-121.99"/>
<text text-anchor="middle" x="839.7" y="-117.95" font-family="Times,serif" font-size="14.00">MAIL/553:3</text>
</g>
<!-- q6:229 -->
<g id="node11" class="node">
<title>q6:229</title>
<ellipse fill="none" stroke="black" stroke-width="2" cx="954.27" cy="-72" rx="45.95" ry="18"/>
<text text-anchor="middle" x="954.27" y="-67.33" font-family="Times,serif" font-size="14.00">q6:229</text>
</g>
<!-- q4:232&#45;&gt;q6:229 -->
<g id="edge10" class="edge">
<title>q4:232&#45;&gt;q6:229</title>
<path fill="none" stroke="black" d="M770.82,-81.07C776.95,-80.59 783.17,-80.14 789.08,-79.75 824.71,-77.42 864.74,-75.52 896.35,-74.18"/>
<polygon fill="black" stroke="black" points="896.24,-77.69 906.09,-73.78 895.95,-70.69 896.24,-77.69"/>
<text text-anchor="middle" x="839.7" y="-82.95" font-family="Times,serif" font-size="14.00">MAIL/250:229</text>
</g>
<!-- q10:3 -->
<g id="node12" class="node">
<title>q10:3</title>
<ellipse fill="none" stroke="black" stroke-width="2" cx="1190.2" cy="-126" rx="39.63" ry="18"/>
<text text-anchor="middle" x="1190.2" y="-121.33" font-family="Times,serif" font-size="14.00">q10:3</text>
</g>
<!-- q7:3&#45;&gt;q10:3 -->
<g id="edge11" class="edge">
<title>q7:3&#45;&gt;q10:3</title>
<path fill="none" stroke="black" d="M988.29,-126C1027.3,-126 1092.7,-126 1138.3,-126"/>
<polygon fill="black" stroke="black" points="1138.19,-129.5 1148.19,-126 1138.19,-122.5 1138.19,-129.5"/>
<text text-anchor="middle" x="1072.2" y="-129.94" font-family="Times,serif" font-size="14.00">RSET/250:3</text>
</g>
<!-- q9:229 -->
<g id="node13" class="node">
<title>q9:229</title>
<ellipse fill="none" stroke="black" stroke-width="2" cx="1190.2" cy="-72" rx="45.95" ry="18"/>
<text text-anchor="middle" x="1190.2" y="-67.33" font-family="Times,serif" font-size="14.00">q9:229</text>
</g>
<!-- q6:229&#45;&gt;q9:229 -->
<g id="edge12" class="edge">
<title>q6:229&#45;&gt;q9:229</title>
<path fill="none" stroke="black" d="M1001.2,-72C1038.6,-72 1091.6,-72 1131.8,-72"/>
<polygon fill="black" stroke="black" points="1131.79,-75.5 1141.79,-72 1131.79,-68.5 1131.79,-75.5"/>
<text text-anchor="middle" x="1072.2" y="-75.95" font-family="Times,serif" font-size="14.00">RCPT/250:229</text>
</g>
<!-- q9:229&#45;&gt;q13:3329 -->
<g id="edge13" class="edge">
<title>q9:229&#45;&gt;q13:3329</title>
<path fill="none" stroke="black" d="M1224.4,-84.77C1233.9,-87.95 1244.3,-91.01 1254.1,-93 1375.7,-117.64 1520.7,-120.15 1604.7,-119.05"/>
<polygon fill="black" stroke="black" points="1604.64,-122.55 1614.59,-118.89 1604.53,-115.55 1604.64,-122.55"/>
<text text-anchor="middle" x="1427.1" y="-120.95" font-family="Times,serif" font-size="14.00">DATA/354:68</text>
</g>
<!-- q12:161 -->
<g id="node14" class="node">
<title>q12:161</title>
<ellipse fill="none" stroke="black" stroke-width="2" cx="1427.1" cy="-72" rx="52.26" ry="18"/>
<text text-anchor="middle" x="1427.1" y="-67.33" font-family="Times,serif" font-size="14.00">q12:161</text>
</g>
<!-- q9:229&#45;&gt;q12:161 -->
<g id="edge14" class="edge">
<title>q9:229&#45;&gt;q12:161</title>
<path fill="none" stroke="black" d="M1237,-72C1272.9,-72 1323.1,-72 1362.8,-72"/>
<polygon fill="black" stroke="black" points="1362.69,-75.5 1372.69,-72 1362.69,-68.5 1362.69,-75.5"/>
<text text-anchor="middle" x="1305.5" y="-75.95" font-family="Times,serif" font-size="14.00">RCPT/250:161</text>
</g>
<!-- q12:161&#45;&gt;q13:3329 -->
<g id="edge22" class="edge">
<title>q12:161&#45;&gt;q13:3329</title>
<path fill="none" stroke="black" d="M1478.5,-76.66C1512.6,-80.32 1558.6,-86.24 1598.6,-94.75 1606.4,-96.39 1614.5,-98.43 1622.3,-100.59"/>
<polygon fill="black" stroke="black" points="1621.27,-103.94 1631.84,-103.31 1623.18,-97.2 1621.27,-103.94"/>
<text text-anchor="middle" x="1548" y="-97.95" font-family="Times,serif" font-size="14.00">DATA/354:118</text>
</g>
<!-- q15:43 -->
<g id="node21" class="node">
<title>q15:43</title>
<ellipse fill="none" stroke="black" stroke-width="2" cx="1675.2" cy="-54" rx="45.95" ry="18"/>
<text text-anchor="middle" x="1675.2" y="-49.33" font-family="Times,serif" font-size="14.00">q15:43</text>
</g>
<!-- q12:161&#45;&gt;q15:43 -->
<g id="edge23" class="edge">
<title>q12:161&#45;&gt;q15:43</title>
<path fill="none" stroke="black" d="M1468.5,-60.23C1477.9,-57.96 1487.9,-55.93 1497.4,-54.75 1537.3,-49.76 1582.8,-49.69 1617.6,-50.8"/>
<polygon fill="black" stroke="black" points="1617.37,-54.3 1627.49,-51.17 1617.62,-47.3 1617.37,-54.3"/>
<text text-anchor="middle" x="1548" y="-58.95" font-family="Times,serif" font-size="14.00">DATA/550:43</text>
</g>
<!-- q8:12 -->
<g id="node15" class="node">
<title>q8:12</title>
<ellipse fill="none" stroke="black" stroke-width="2" cx="954.27" cy="-18" rx="39.63" ry="18"/>
<text text-anchor="middle" x="954.27" y="-13.32" font-family="Times,serif" font-size="14.00">q8:12</text>
</g>
<!-- q11:12 -->
<g id="node16" class="node">
<title>q11:12</title>
<ellipse fill="none" stroke="black" stroke-width="2" cx="1190.2" cy="-18" rx="45.95" ry="18"/>
<text text-anchor="middle" x="1190.2" y="-13.32" font-family="Times,serif" font-size="14.00">q11:12</text>
</g>
<!-- q8:12&#45;&gt;q11:12 -->
<g id="edge15" class="edge">
<title>q8:12&#45;&gt;q11:12</title>
<path fill="none" stroke="black" d="M994.68,-18C1032.4,-18 1089.6,-18 1132.2,-18"/>
<polygon fill="black" stroke="black" points="1132.09,-21.5 1142.09,-18 1132.09,-14.5 1132.09,-21.5"/>
<text text-anchor="middle" x="1072.2" y="-21.95" font-family="Times,serif" font-size="14.00">content/535:12</text>
</g>
<!-- q14:4 -->
<g id="node17" class="node">
<title>q14:4</title>
<ellipse fill="none" stroke="black" stroke-width="2" cx="1427.1" cy="-18" rx="39.63" ry="18"/>
<text text-anchor="middle" x="1427.1" y="-13.32" font-family="Times,serif" font-size="14.00">q14:4</text>
</g>
<!-- q11:12&#45;&gt;q14:4 -->
<g id="edge16" class="edge">
<title>q11:12&#45;&gt;q14:4</title>
<path fill="none" stroke="black" d="M1237,-18C1276.7,-18 1334.1,-18 1375.2,-18"/>
<polygon fill="black" stroke="black" points="1375.09,-21.5 1385.09,-18 1375.09,-14.5 1375.09,-21.5"/>
<text text-anchor="middle" x="1305.5" y="-21.95" font-family="Times,serif" font-size="14.00">位/451:4</text>
</g>
<!-- q1:244 -->
<g id="node18" class="node">
<title>q1:244</title>
<ellipse fill="none" stroke="black" stroke-width="2" cx="257.84" cy="-71" rx="45.95" ry="18"/>
<text text-anchor="middle" x="257.84" y="-66.33" font-family="Times,serif" font-size="14.00">q1:244</text>
</g>
<!-- q1:244&#45;&gt;q2:2 -->
<g id="edge17" class="edge">
<title>q1:244&#45;&gt;q2:2</title>
<path fill="none" stroke="black" d="M302.96,-76.14C344.26,-80.96 405.63,-88.11 446.8,-92.91"/>
<polygon fill="black" stroke="black" points="446.26,-96.37 456.6,-94.05 447.07,-89.42 446.26,-96.37"/>
<text text-anchor="middle" x="374.66" y="-93.95" font-family="Times,serif" font-size="14.00">EHLO/位:2</text>
</g>
<!-- q3:242 -->
<g id="node19" class="node">
<title>q3:242</title>
<ellipse fill="none" stroke="black" stroke-width="2" cx="491.48" cy="-44" rx="45.95" ry="18"/>
<text text-anchor="middle" x="491.48" y="-39.33" font-family="Times,serif" font-size="14.00">q3:242</text>
</g>
<!-- q1:244&#45;&gt;q3:242 -->
<g id="edge18" class="edge">
<title>q1:244&#45;&gt;q3:242</title>
<path fill="none" stroke="black" d="M297.96,-61.21C305.81,-59.51 314.03,-57.91 321.79,-56.75 358.81,-51.19 400.79,-48.01 433.61,-46.21"/>
<polygon fill="black" stroke="black" points="433.5,-49.72 443.31,-45.71 433.14,-42.73 433.5,-49.72"/>
<text text-anchor="middle" x="374.66" y="-60.95" font-family="Times,serif" font-size="14.00">EHLO/250:242</text>
</g>
<!-- q3:242&#45;&gt;q4:232 -->
<g id="edge19" class="edge">
<title>q3:242&#45;&gt;q4:232</title>
<path fill="none" stroke="black" d="M537.19,-48.2C571.37,-51.86 619.54,-57.96 661.18,-66.75 666.4,-67.85 671.83,-69.16 677.2,-70.57"/>
<polygon fill="black" stroke="black" points="676.05,-73.88 686.62,-73.15 677.9,-67.13 676.05,-73.88"/>
<text text-anchor="middle" x="608.31" y="-70.95" font-family="Times,serif" font-size="14.00">AUTH/235:230</text>
</g>
<!-- q5:12 -->
<g id="node20" class="node">
<title>q5:12</title>
<ellipse fill="none" stroke="black" stroke-width="2" cx="725.13" cy="-18" rx="39.63" ry="18"/>
<text text-anchor="middle" x="725.13" y="-13.32" font-family="Times,serif" font-size="14.00">q5:12</text>
</g>
<!-- q3:242&#45;&gt;q5:12 -->
<g id="edge20" class="edge">
<title>q3:242&#45;&gt;q5:12</title>
<path fill="none" stroke="black" d="M521.88,-29.55C532.23,-25.18 544.11,-20.96 555.43,-18.75 594.77,-11.06 640.27,-11.38 674.09,-13.34"/>
<polygon fill="black" stroke="black" points="673.82,-16.83 684.03,-13.99 674.28,-9.85 673.82,-16.83"/>
<text text-anchor="middle" x="608.31" y="-22.95" font-family="Times,serif" font-size="14.00">AUTH/535:12</text>
</g>
<!-- q5:12&#45;&gt;q8:12 -->
<g id="edge21" class="edge">
<title>q5:12&#45;&gt;q8:12</title>
<path fill="none" stroke="black" d="M765.69,-18C803.6,-18 861,-18 902.32,-18"/>
<polygon fill="black" stroke="black" points="902.27,-21.5 912.27,-18 902.27,-14.5 902.27,-21.5"/>
<text text-anchor="middle" x="839.7" y="-21.95" font-family="Times,serif" font-size="14.00">AUTH/334:12</text>
</g>
<!-- q0:244 -->
<g id="node22" class="node">
<title>q0:244</title>
<ellipse fill="none" stroke="black" stroke-width="2" cx="53.95" cy="-71" rx="49.95" ry="49.95"/>
<ellipse fill="none" stroke="black" stroke-width="2" cx="53.95" cy="-71" rx="53.95" ry="53.95"/>
<text text-anchor="middle" x="53.95" y="-66.33" font-family="Times,serif" font-size="14.00">q0:244</text>
</g>
<!-- q0:244&#45;&gt;q1:244 -->
<g id="edge24" class="edge">
<title>q0:244&#45;&gt;q1:244</title>
<path fill="none" stroke="black" d="M104.85,-71C133.64,-71 169.94,-71 199.84,-71"/>
<polygon fill="black" stroke="black" points="199.45,-74.5 209.45,-71 199.45,-67.5 199.45,-74.5"/>
<text text-anchor="middle" x="157.89" y="-74.95" font-family="Times,serif" font-size="14.00">位/220:244</text>
</g>
</g>
</svg>
