<?xml version="1.0" encoding="UTF-8" standalone="no"?>
<!DOCTYPE svg PUBLIC "-//W3C//DTD SVG 1.1//EN"
 "http://www.w3.org/Graphics/SVG/1.1/DTD/svg11.dtd">
<!-- Generated by graphviz version 12.0.0 (20240803.0821)
 -->
<!-- Pages: 1 -->
<svg width="1992pt" height="431pt"
 viewBox="0.00 0.00 1991.65 430.95" xmlns="http://www.w3.org/2000/svg" xmlns:xlink="http://www.w3.org/1999/xlink">
<g id="graph0" class="graph" transform="scale(1 1) rotate(0) translate(4 426.95)">
<polygon fill="white" stroke="none" points="-4,4 -4,-426.95 1987.65,-426.95 1987.65,4 -4,4"/>
<!-- q20:2533 -->
<g id="node1" class="node">
<title>q20:2533</title>
<ellipse fill="none" stroke="black" stroke-width="2" cx="750.38" cy="-350.95" rx="58.57" ry="18"/>
<text text-anchor="middle" x="750.38" y="-346.27" font-family="Times,serif" font-size="14.00">q20:2533</text>
</g>
<!-- q20:2533&#45;&gt;q20:2533 -->
<g id="edge1" class="edge">
<title>q20:2533&#45;&gt;q20:2533</title>
<path fill="none" stroke="black" d="M727.27,-368.36C722.96,-378.03 730.66,-386.95 750.38,-386.95 761.78,-386.95 769.17,-383.97 772.54,-379.58"/>
<polygon fill="black" stroke="black" points="776.01,-380.13 773.36,-369.87 769.03,-379.54 776.01,-380.13"/>
<text text-anchor="middle" x="750.38" y="-390.89" font-family="Times,serif" font-size="14.00">content/λ:2435</text>
</g>
<!-- q24:8 -->
<g id="node2" class="node">
<title>q24:8</title>
<ellipse fill="none" stroke="black" stroke-width="2" cx="998.9" cy="-404.95" rx="39.63" ry="18"/>
<text text-anchor="middle" x="998.9" y="-400.27" font-family="Times,serif" font-size="14.00">q24:8</text>
</g>
<!-- q20:2533&#45;&gt;q24:8 -->
<g id="edge2" class="edge">
<title>q20:2533&#45;&gt;q24:8</title>
<path fill="none" stroke="black" d="M794.39,-363.54C804.99,-366.47 816.35,-369.45 826.96,-371.95 868.06,-381.61 915.22,-390.55 949.57,-396.69"/>
<polygon fill="black" stroke="black" points="948.76,-400.1 959.22,-398.4 949.98,-393.21 948.76,-400.1"/>
<text text-anchor="middle" x="880.96" y="-396.89" font-family="Times,serif" font-size="14.00">content/554:8</text>
</g>
<!-- q25:1 -->
<g id="node3" class="node">
<title>q25:1</title>
<ellipse fill="none" stroke="black" stroke-width="2" cx="998.9" cy="-350.95" rx="39.63" ry="18"/>
<text text-anchor="middle" x="998.9" y="-346.27" font-family="Times,serif" font-size="14.00">q25:1</text>
</g>
<!-- q20:2533&#45;&gt;q25:1 -->
<g id="edge3" class="edge">
<title>q20:2533&#45;&gt;q25:1</title>
<path fill="none" stroke="black" d="M809.8,-350.95C851.53,-350.95 907.12,-350.95 947.03,-350.95"/>
<polygon fill="black" stroke="black" points="946.85,-354.45 956.85,-350.95 946.85,-347.45 946.85,-354.45"/>
<text text-anchor="middle" x="880.96" y="-354.89" font-family="Times,serif" font-size="14.00">content/550:1</text>
</g>
<!-- q23:89 -->
<g id="node4" class="node">
<title>q23:89</title>
<ellipse fill="none" stroke="black" stroke-width="2" cx="998.9" cy="-296.95" rx="45.95" ry="18"/>
<text text-anchor="middle" x="998.9" y="-292.27" font-family="Times,serif" font-size="14.00">q23:89</text>
</g>
<!-- q20:2533&#45;&gt;q23:89 -->
<g id="edge4" class="edge">
<title>q20:2533&#45;&gt;q23:89</title>
<path fill="none" stroke="black" d="M794.38,-338.18C804.98,-335.21 816.34,-332.2 826.96,-329.7 866.06,-320.47 910.66,-311.99 944.5,-305.98"/>
<polygon fill="black" stroke="black" points="944.81,-309.48 954.05,-304.29 943.59,-302.59 944.81,-309.48"/>
<text text-anchor="middle" x="880.96" y="-332.89" font-family="Times,serif" font-size="14.00">content/250:89</text>
</g>
<!-- q27:8 -->
<g id="node5" class="node">
<title>q27:8</title>
<ellipse fill="none" stroke="black" stroke-width="2" cx="1241.1" cy="-404.95" rx="39.63" ry="18"/>
<text text-anchor="middle" x="1241.1" y="-400.27" font-family="Times,serif" font-size="14.00">q27:8</text>
</g>
<!-- q24:8&#45;&gt;q27:8 -->
<g id="edge5" class="edge">
<title>q24:8&#45;&gt;q27:8</title>
<path fill="none" stroke="black" d="M1039.3,-404.95C1080.2,-404.95 1144.4,-404.95 1189.2,-404.95"/>
<polygon fill="black" stroke="black" points="1189.19,-408.45 1199.19,-404.95 1189.19,-401.45 1189.19,-408.45"/>
<text text-anchor="middle" x="1116.8" y="-408.89" font-family="Times,serif" font-size="14.00">RSET/250:8</text>
</g>
<!-- q28:1 -->
<g id="node6" class="node">
<title>q28:1</title>
<ellipse fill="none" stroke="black" stroke-width="2" cx="1241.1" cy="-350.95" rx="39.63" ry="18"/>
<text text-anchor="middle" x="1241.1" y="-346.27" font-family="Times,serif" font-size="14.00">q28:1</text>
</g>
<!-- q25:1&#45;&gt;q28:1 -->
<g id="edge6" class="edge">
<title>q25:1&#45;&gt;q28:1</title>
<path fill="none" stroke="black" d="M1039.3,-350.95C1080.2,-350.95 1144.4,-350.95 1189.2,-350.95"/>
<polygon fill="black" stroke="black" points="1189.19,-354.45 1199.19,-350.95 1189.19,-347.45 1189.19,-354.45"/>
<text text-anchor="middle" x="1116.8" y="-354.89" font-family="Times,serif" font-size="14.00">RSET/250:1</text>
</g>
<!-- q26:89 -->
<g id="node7" class="node">
<title>q26:89</title>
<ellipse fill="none" stroke="black" stroke-width="2" cx="1241.1" cy="-296.95" rx="45.95" ry="18"/>
<text text-anchor="middle" x="1241.1" y="-292.27" font-family="Times,serif" font-size="14.00">q26:89</text>
</g>
<!-- q23:89&#45;&gt;q26:89 -->
<g id="edge7" class="edge">
<title>q23:89&#45;&gt;q26:89</title>
<path fill="none" stroke="black" d="M1045.6,-296.95C1084.7,-296.95 1141.1,-296.95 1183.1,-296.95"/>
<polygon fill="black" stroke="black" points="1182.99,-300.45 1192.99,-296.95 1182.99,-293.45 1182.99,-300.45"/>
<text text-anchor="middle" x="1116.8" y="-300.89" font-family="Times,serif" font-size="14.00">QUIT/221:89</text>
</g>
<!-- q4:232 -->
<g id="node8" class="node">
<title>q4:232</title>
<ellipse fill="none" stroke="black" stroke-width="2" cx="750.38" cy="-95.95" rx="45.95" ry="18"/>
<text text-anchor="middle" x="750.38" y="-91.27" font-family="Times,serif" font-size="14.00">q4:232</text>
</g>
<!-- q7:2 -->
<g id="node9" class="node">
<title>q7:2</title>
<ellipse fill="none" stroke="black" stroke-width="2" cx="998.9" cy="-85.95" rx="33.32" ry="18"/>
<text text-anchor="middle" x="998.9" y="-81.27" font-family="Times,serif" font-size="14.00">q7:2</text>
</g>
<!-- q4:232&#45;&gt;q7:2 -->
<g id="edge8" class="edge">
<title>q4:232&#45;&gt;q7:2</title>
<path fill="none" stroke="black" d="M794.04,-89.14C804.76,-87.71 816.25,-86.42 826.96,-85.7 874.85,-82.46 886.96,-85.6 934.96,-85.7 941.03,-85.71 947.44,-85.73 953.75,-85.75"/>
<polygon fill="black" stroke="black" points="953.38,-89.25 963.4,-85.78 953.41,-82.25 953.38,-89.25"/>
<text text-anchor="middle" x="880.96" y="-88.9" font-family="Times,serif" font-size="14.00">MAIL/553:2</text>
</g>
<!-- q8:233 -->
<g id="node10" class="node">
<title>q8:233</title>
<ellipse fill="none" stroke="black" stroke-width="2" cx="998.9" cy="-184.95" rx="45.95" ry="18"/>
<text text-anchor="middle" x="998.9" y="-180.27" font-family="Times,serif" font-size="14.00">q8:233</text>
</g>
<!-- q4:232&#45;&gt;q8:233 -->
<g id="edge9" class="edge">
<title>q4:232&#45;&gt;q8:233</title>
<path fill="none" stroke="black" d="M796.29,-99.16C834.68,-103.28 890.57,-112.63 934.96,-133.7 948.58,-140.16 961.82,-150.18 972.61,-159.65"/>
<polygon fill="black" stroke="black" points="970.2,-162.19 979.93,-166.37 974.93,-157.03 970.2,-162.19"/>
<text text-anchor="middle" x="880.96" y="-136.89" font-family="Times,serif" font-size="14.00">MAIL/250:230</text>
</g>
<!-- q10:2 -->
<g id="node11" class="node">
<title>q10:2</title>
<ellipse fill="none" stroke="black" stroke-width="2" cx="1241.1" cy="-85.95" rx="39.63" ry="18"/>
<text text-anchor="middle" x="1241.1" y="-81.27" font-family="Times,serif" font-size="14.00">q10:2</text>
</g>
<!-- q7:2&#45;&gt;q10:2 -->
<g id="edge10" class="edge">
<title>q7:2&#45;&gt;q10:2</title>
<path fill="none" stroke="black" d="M1033,-85.95C1073.4,-85.95 1141.9,-85.95 1189,-85.95"/>
<polygon fill="black" stroke="black" points="1188.99,-89.45 1198.99,-85.95 1188.99,-82.45 1188.99,-89.45"/>
<text text-anchor="middle" x="1116.8" y="-89.9" font-family="Times,serif" font-size="14.00">RSET/250:2</text>
</g>
<!-- q11:233 -->
<g id="node12" class="node">
<title>q11:233</title>
<ellipse fill="none" stroke="black" stroke-width="2" cx="1241.1" cy="-221.95" rx="52.26" ry="18"/>
<text text-anchor="middle" x="1241.1" y="-217.27" font-family="Times,serif" font-size="14.00">q11:233</text>
</g>
<!-- q8:233&#45;&gt;q11:233 -->
<g id="edge11" class="edge">
<title>q8:233&#45;&gt;q11:233</title>
<path fill="none" stroke="black" d="M1042.8,-191.56C1081.4,-197.5 1138.3,-206.26 1181.1,-212.85"/>
<polygon fill="black" stroke="black" points="1180.29,-216.27 1190.7,-214.33 1181.35,-209.35 1180.29,-216.27"/>
<text text-anchor="middle" x="1116.8" y="-214.89" font-family="Times,serif" font-size="14.00">RCPT/250:233</text>
</g>
<!-- q13:164 -->
<g id="node13" class="node">
<title>q13:164</title>
<ellipse fill="none" stroke="black" stroke-width="2" cx="1473.9" cy="-221.95" rx="52.26" ry="18"/>
<text text-anchor="middle" x="1473.9" y="-217.27" font-family="Times,serif" font-size="14.00">q13:164</text>
</g>
<!-- q11:233&#45;&gt;q13:164 -->
<g id="edge12" class="edge">
<title>q11:233&#45;&gt;q13:164</title>
<path fill="none" stroke="black" d="M1294.2,-221.95C1328.4,-221.95 1373.3,-221.95 1409.6,-221.95"/>
<polygon fill="black" stroke="black" points="1409.49,-225.45 1419.49,-221.95 1409.49,-218.45 1409.49,-225.45"/>
<text text-anchor="middle" x="1357.5" y="-225.89" font-family="Times,serif" font-size="14.00">DATA/354:90</text>
</g>
<!-- q14:143 -->
<g id="node14" class="node">
<title>q14:143</title>
<ellipse fill="none" stroke="black" stroke-width="2" cx="497.8" cy="-273.95" rx="52.26" ry="18"/>
<text text-anchor="middle" x="497.8" y="-269.27" font-family="Times,serif" font-size="14.00">q14:143</text>
</g>
<!-- q11:233&#45;&gt;q14:143 -->
<g id="edge13" class="edge">
<title>q11:233&#45;&gt;q14:143</title>
<path fill="none" stroke="black" d="M1192.1,-229.39C1185,-230.35 1177.7,-231.24 1170.8,-231.95 947.74,-254.99 681.57,-267.08 562.2,-271.7"/>
<polygon fill="black" stroke="black" points="562.14,-268.2 552.28,-272.07 562.41,-275.19 562.14,-268.2"/>
<text text-anchor="middle" x="880.96" y="-261.89" font-family="Times,serif" font-size="14.00">RCPT/250:143</text>
</g>
<!-- q13:164&#45;&gt;q13:164 -->
<g id="edge15" class="edge">
<title>q13:164&#45;&gt;q13:164</title>
<path fill="none" stroke="black" d="M1453.1,-239.36C1449.2,-249.03 1456.1,-257.95 1473.9,-257.95 1484.1,-257.95 1490.8,-254.97 1493.8,-250.58"/>
<polygon fill="black" stroke="black" points="1497.27,-251.12 1494.58,-240.87 1490.29,-250.56 1497.27,-251.12"/>
<text text-anchor="middle" x="1473.9" y="-261.89" font-family="Times,serif" font-size="14.00">content/λ:74</text>
</g>
<!-- q17:24 -->
<g id="node17" class="node">
<title>q17:24</title>
<ellipse fill="none" stroke="black" stroke-width="2" cx="1716.1" cy="-246.95" rx="45.95" ry="18"/>
<text text-anchor="middle" x="1716.1" y="-242.27" font-family="Times,serif" font-size="14.00">q17:24</text>
</g>
<!-- q13:164&#45;&gt;q17:24 -->
<g id="edge16" class="edge">
<title>q13:164&#45;&gt;q17:24</title>
<path fill="none" stroke="black" d="M1524.9,-227.16C1564.2,-231.24 1618.8,-236.92 1659.4,-241.15"/>
<polygon fill="black" stroke="black" points="1658.88,-244.61 1669.19,-242.17 1659.61,-237.65 1658.88,-244.61"/>
<text text-anchor="middle" x="1598.1" y="-243.89" font-family="Times,serif" font-size="14.00">content/250:24</text>
</g>
<!-- q16:66 -->
<g id="node18" class="node">
<title>q16:66</title>
<ellipse fill="none" stroke="black" stroke-width="2" cx="1716.1" cy="-192.95" rx="45.95" ry="18"/>
<text text-anchor="middle" x="1716.1" y="-188.27" font-family="Times,serif" font-size="14.00">q16:66</text>
</g>
<!-- q13:164&#45;&gt;q16:66 -->
<g id="edge17" class="edge">
<title>q13:164&#45;&gt;q16:66</title>
<path fill="none" stroke="black" d="M1519.1,-212.05C1527.4,-210.42 1536,-208.88 1544.1,-207.7 1582,-202.19 1624.9,-198.5 1658.2,-196.18"/>
<polygon fill="black" stroke="black" points="1658.34,-199.68 1668.09,-195.52 1657.88,-192.69 1658.34,-199.68"/>
<text text-anchor="middle" x="1598.1" y="-210.89" font-family="Times,serif" font-size="14.00">content/554:66</text>
</g>
<!-- q14:143&#45;&gt;q20:2533 -->
<g id="edge28" class="edge">
<title>q14:143&#45;&gt;q20:2533</title>
<path fill="none" stroke="black" d="M525.7,-289.99C538.23,-296.92 553.55,-304.64 568.06,-309.95 606.07,-323.86 650.36,-333.98 685.65,-340.69"/>
<polygon fill="black" stroke="black" points="684.82,-344.1 695.29,-342.47 686.1,-337.21 684.82,-344.1"/>
<text text-anchor="middle" x="620.93" y="-340.89" font-family="Times,serif" font-size="14.00">DATA/354:98</text>
</g>
<!-- q19:43 -->
<g id="node27" class="node">
<title>q19:43</title>
<ellipse fill="none" stroke="black" stroke-width="2" cx="750.38" cy="-296.95" rx="45.95" ry="18"/>
<text text-anchor="middle" x="750.38" y="-292.27" font-family="Times,serif" font-size="14.00">q19:43</text>
</g>
<!-- q14:143&#45;&gt;q19:43 -->
<g id="edge29" class="edge">
<title>q14:143&#45;&gt;q19:43</title>
<path fill="none" stroke="black" d="M549.21,-278.57C590.97,-282.41 650.26,-287.85 693.48,-291.82"/>
<polygon fill="black" stroke="black" points="693.14,-295.3 703.42,-292.73 693.78,-288.33 693.14,-295.3"/>
<text text-anchor="middle" x="620.93" y="-292.89" font-family="Times,serif" font-size="14.00">DATA/550:43</text>
</g>
<!-- q18:2 -->
<g id="node28" class="node">
<title>q18:2</title>
<ellipse fill="none" stroke="black" stroke-width="2" cx="750.38" cy="-204.95" rx="39.63" ry="18"/>
<text text-anchor="middle" x="750.38" y="-200.27" font-family="Times,serif" font-size="14.00">q18:2</text>
</g>
<!-- q14:143&#45;&gt;q18:2 -->
<g id="edge30" class="edge">
<title>q14:143&#45;&gt;q18:2</title>
<path fill="none" stroke="black" d="M515.48,-256.22C528.49,-243.65 547.72,-227.65 568.06,-219.7 610.18,-203.22 661.9,-200.56 699.32,-201.42"/>
<polygon fill="black" stroke="black" points="698.82,-204.9 708.93,-201.74 699.05,-197.91 698.82,-204.9"/>
<text text-anchor="middle" x="620.93" y="-222.89" font-family="Times,serif" font-size="14.00">RCPT/250:2</text>
</g>
<!-- q12:10 -->
<g id="node15" class="node">
<title>q12:10</title>
<ellipse fill="none" stroke="black" stroke-width="2" cx="1241.1" cy="-31.95" rx="45.95" ry="18"/>
<text text-anchor="middle" x="1241.1" y="-27.27" font-family="Times,serif" font-size="14.00">q12:10</text>
</g>
<!-- q15:4 -->
<g id="node16" class="node">
<title>q15:4</title>
<ellipse fill="none" stroke="black" stroke-width="2" cx="1473.9" cy="-31.95" rx="39.63" ry="18"/>
<text text-anchor="middle" x="1473.9" y="-27.27" font-family="Times,serif" font-size="14.00">q15:4</text>
</g>
<!-- q12:10&#45;&gt;q15:4 -->
<g id="edge14" class="edge">
<title>q12:10&#45;&gt;q15:4</title>
<path fill="none" stroke="black" d="M1288,-31.95C1326.6,-31.95 1381.8,-31.95 1421.9,-31.95"/>
<polygon fill="black" stroke="black" points="1421.79,-35.45 1431.79,-31.95 1421.79,-28.45 1421.79,-35.45"/>
<text text-anchor="middle" x="1357.5" y="-35.9" font-family="Times,serif" font-size="14.00">λ/451:4</text>
</g>
<!-- q22:24 -->
<g id="node19" class="node">
<title>q22:24</title>
<ellipse fill="none" stroke="black" stroke-width="2" cx="1937.7" cy="-246.95" rx="45.95" ry="18"/>
<text text-anchor="middle" x="1937.7" y="-242.27" font-family="Times,serif" font-size="14.00">q22:24</text>
</g>
<!-- q17:24&#45;&gt;q22:24 -->
<g id="edge18" class="edge">
<title>q17:24&#45;&gt;q22:24</title>
<path fill="none" stroke="black" d="M1762.9,-246.95C1796.8,-246.95 1843.2,-246.95 1879.6,-246.95"/>
<polygon fill="black" stroke="black" points="1879.49,-250.45 1889.49,-246.95 1879.49,-243.45 1879.49,-250.45"/>
<text text-anchor="middle" x="1826.9" y="-250.89" font-family="Times,serif" font-size="14.00">QUIT/221:24</text>
</g>
<!-- q21:66 -->
<g id="node20" class="node">
<title>q21:66</title>
<ellipse fill="none" stroke="black" stroke-width="2" cx="1937.7" cy="-192.95" rx="45.95" ry="18"/>
<text text-anchor="middle" x="1937.7" y="-188.27" font-family="Times,serif" font-size="14.00">q21:66</text>
</g>
<!-- q16:66&#45;&gt;q21:66 -->
<g id="edge19" class="edge">
<title>q16:66&#45;&gt;q21:66</title>
<path fill="none" stroke="black" d="M1762.9,-192.95C1796.8,-192.95 1843.2,-192.95 1879.6,-192.95"/>
<polygon fill="black" stroke="black" points="1879.49,-196.45 1889.49,-192.95 1879.49,-189.45 1879.49,-196.45"/>
<text text-anchor="middle" x="1826.9" y="-196.89" font-family="Times,serif" font-size="14.00">RSET/250:66</text>
</g>
<!-- q1:243 -->
<g id="node21" class="node">
<title>q1:243</title>
<ellipse fill="none" stroke="black" stroke-width="2" cx="257.84" cy="-53.95" rx="45.95" ry="18"/>
<text text-anchor="middle" x="257.84" y="-49.27" font-family="Times,serif" font-size="14.00">q1:243</text>
</g>
<!-- q2:2 -->
<g id="node22" class="node">
<title>q2:2</title>
<ellipse fill="none" stroke="black" stroke-width="2" cx="497.8" cy="-26.95" rx="33.32" ry="18"/>
<text text-anchor="middle" x="497.8" y="-22.27" font-family="Times,serif" font-size="14.00">q2:2</text>
</g>
<!-- q1:243&#45;&gt;q2:2 -->
<g id="edge20" class="edge">
<title>q1:243&#45;&gt;q2:2</title>
<path fill="none" stroke="black" d="M298.66,-44.75C306.31,-43.22 314.27,-41.78 321.79,-40.7 365.97,-34.34 416.87,-30.76 452.35,-28.85"/>
<polygon fill="black" stroke="black" points="452.44,-32.35 462.25,-28.35 452.08,-25.36 452.44,-32.35"/>
<text text-anchor="middle" x="374.66" y="-44.9" font-family="Times,serif" font-size="14.00">EHLO/λ:2</text>
</g>
<!-- q3:241 -->
<g id="node23" class="node">
<title>q3:241</title>
<ellipse fill="none" stroke="black" stroke-width="2" cx="497.8" cy="-86.95" rx="45.95" ry="18"/>
<text text-anchor="middle" x="497.8" y="-82.27" font-family="Times,serif" font-size="14.00">q3:241</text>
</g>
<!-- q1:243&#45;&gt;q3:241 -->
<g id="edge21" class="edge">
<title>q1:243&#45;&gt;q3:241</title>
<path fill="none" stroke="black" d="M302.21,-59.96C341.5,-65.41 399.58,-73.46 442.06,-79.36"/>
<polygon fill="black" stroke="black" points="441.44,-82.8 451.83,-80.71 442.41,-75.87 441.44,-82.8"/>
<text text-anchor="middle" x="374.66" y="-80.9" font-family="Times,serif" font-size="14.00">EHLO/250:241</text>
</g>
<!-- q2:2&#45;&gt;q4:232 -->
<g id="edge22" class="edge">
<title>q2:2&#45;&gt;q4:232</title>
<path fill="none" stroke="black" d="M528.45,-18.56C565.62,-9.9 629.77,-1.26 673.81,-29.7 689.59,-39.89 678.61,-54.58 691.81,-67.95 695.61,-71.8 700.05,-75.2 704.74,-78.18"/>
<polygon fill="black" stroke="black" points="702.86,-81.14 713.3,-82.97 706.29,-75.03 702.86,-81.14"/>
<text text-anchor="middle" x="620.93" y="-33.9" font-family="Times,serif" font-size="14.00">AUTH/235:2</text>
</g>
<!-- q3:241&#45;&gt;q4:232 -->
<g id="edge23" class="edge">
<title>q3:241&#45;&gt;q4:232</title>
<path fill="none" stroke="black" d="M544.47,-88.59C586.15,-90.08 647.92,-92.3 692.73,-93.91"/>
<polygon fill="black" stroke="black" points="692.4,-97.4 702.52,-94.26 692.65,-90.41 692.4,-97.4"/>
<text text-anchor="middle" x="620.93" y="-96.9" font-family="Times,serif" font-size="14.00">AUTH/235:230</text>
</g>
<!-- q6:10 -->
<g id="node24" class="node">
<title>q6:10</title>
<ellipse fill="none" stroke="black" stroke-width="2" cx="750.38" cy="-40.95" rx="39.63" ry="18"/>
<text text-anchor="middle" x="750.38" y="-36.27" font-family="Times,serif" font-size="14.00">q6:10</text>
</g>
<!-- q3:241&#45;&gt;q6:10 -->
<g id="edge24" class="edge">
<title>q3:241&#45;&gt;q6:10</title>
<path fill="none" stroke="black" d="M535.61,-75.8C546.03,-72.89 557.44,-69.95 568.06,-67.7 612.16,-58.35 662.98,-51.16 699.58,-46.6"/>
<polygon fill="black" stroke="black" points="699.93,-50.08 709.43,-45.39 699.08,-43.13 699.93,-50.08"/>
<text text-anchor="middle" x="620.93" y="-70.9" font-family="Times,serif" font-size="14.00">AUTH/535:10</text>
</g>
<!-- q5:1 -->
<g id="node25" class="node">
<title>q5:1</title>
<ellipse fill="none" stroke="black" stroke-width="2" cx="750.38" cy="-150.95" rx="33.32" ry="18"/>
<text text-anchor="middle" x="750.38" y="-146.27" font-family="Times,serif" font-size="14.00">q5:1</text>
</g>
<!-- q3:241&#45;&gt;q5:1 -->
<g id="edge25" class="edge">
<title>q3:241&#45;&gt;q5:1</title>
<path fill="none" stroke="black" d="M530.13,-100.46C541.87,-105.18 555.43,-110.23 568.06,-113.95 614.56,-127.65 669.24,-138.05 706.3,-144.29"/>
<polygon fill="black" stroke="black" points="705.28,-147.67 715.72,-145.84 706.42,-140.76 705.28,-147.67"/>
<text text-anchor="middle" x="620.93" y="-140.89" font-family="Times,serif" font-size="14.00">AUTH/λ:1</text>
</g>
<!-- q9:10 -->
<g id="node26" class="node">
<title>q9:10</title>
<ellipse fill="none" stroke="black" stroke-width="2" cx="998.9" cy="-31.95" rx="39.63" ry="18"/>
<text text-anchor="middle" x="998.9" y="-27.27" font-family="Times,serif" font-size="14.00">q9:10</text>
</g>
<!-- q6:10&#45;&gt;q9:10 -->
<g id="edge26" class="edge">
<title>q6:10&#45;&gt;q9:10</title>
<path fill="none" stroke="black" d="M790.72,-39.51C833.2,-37.96 901.01,-35.48 947.4,-33.79"/>
<polygon fill="black" stroke="black" points="947.33,-37.3 957.2,-33.43 947.08,-30.3 947.33,-37.3"/>
<text text-anchor="middle" x="880.96" y="-42.9" font-family="Times,serif" font-size="14.00">AUTH/334:10</text>
</g>
<!-- q5:1&#45;&gt;q8:233 -->
<g id="edge27" class="edge">
<title>q5:1&#45;&gt;q8:233</title>
<path fill="none" stroke="black" d="M784.42,-152.58C821.33,-154.77 882.77,-159.5 934.96,-168.7 939.64,-169.52 944.5,-170.52 949.33,-171.61"/>
<polygon fill="black" stroke="black" points="948.49,-175.01 959.03,-173.92 950.11,-168.2 948.49,-175.01"/>
<text text-anchor="middle" x="880.96" y="-171.89" font-family="Times,serif" font-size="14.00">MAIL/250:1</text>
</g>
<!-- q9:10&#45;&gt;q12:10 -->
<g id="edge32" class="edge">
<title>q9:10&#45;&gt;q12:10</title>
<path fill="none" stroke="black" d="M1039.3,-31.95C1078.4,-31.95 1138.7,-31.95 1183.1,-31.95"/>
<polygon fill="black" stroke="black" points="1182.99,-35.45 1192.99,-31.95 1182.99,-28.45 1182.99,-35.45"/>
<text text-anchor="middle" x="1116.8" y="-35.9" font-family="Times,serif" font-size="14.00">content/535:10</text>
</g>
<!-- q18:2&#45;&gt;q8:233 -->
<g id="edge31" class="edge">
<title>q18:2&#45;&gt;q8:233</title>
<path fill="none" stroke="black" d="M790.44,-201.78C831.25,-198.47 895.63,-193.24 941.85,-189.49"/>
<polygon fill="black" stroke="black" points="941.98,-192.99 951.67,-188.7 941.42,-186.01 941.98,-192.99"/>
<text text-anchor="middle" x="880.96" y="-201.89" font-family="Times,serif" font-size="14.00">RCPT/250:2</text>
</g>
<!-- q0:243 -->
<g id="node29" class="node">
<title>q0:243</title>
<ellipse fill="none" stroke="black" stroke-width="2" cx="53.95" cy="-53.95" rx="49.95" ry="49.95"/>
<ellipse fill="none" stroke="black" stroke-width="2" cx="53.95" cy="-53.95" rx="53.95" ry="53.95"/>
<text text-anchor="middle" x="53.95" y="-49.27" font-family="Times,serif" font-size="14.00">q0:243</text>
</g>
<!-- q0:243&#45;&gt;q1:243 -->
<g id="edge33" class="edge">
<title>q0:243&#45;&gt;q1:243</title>
<path fill="none" stroke="black" d="M104.85,-53.95C133.64,-53.95 169.94,-53.95 199.84,-53.95"/>
<polygon fill="black" stroke="black" points="199.45,-57.45 209.45,-53.95 199.45,-50.45 199.45,-57.45"/>
<text text-anchor="middle" x="157.89" y="-57.9" font-family="Times,serif" font-size="14.00">λ/220:243</text>
</g>
</g>
</svg>
