<?xml version="1.0" encoding="UTF-8" standalone="no"?>
<!DOCTYPE svg PUBLIC "-//W3C//DTD SVG 1.1//EN"
 "http://www.w3.org/Graphics/SVG/1.1/DTD/svg11.dtd">
<!-- Generated by graphviz version 12.0.0 (20240803.0821)
 -->
<!-- Pages: 1 -->
<svg width="2253pt" height="259pt"
 viewBox="0.00 0.00 2252.96 259.00" xmlns="http://www.w3.org/2000/svg" xmlns:xlink="http://www.w3.org/1999/xlink">
<g id="graph0" class="graph" transform="scale(1 1) rotate(0) translate(4 255)">
<polygon fill="white" stroke="none" points="-4,4 -4,-255 2248.96,-255 2248.96,4 -4,4"/>
<!-- q16:3 -->
<g id="node1" class="node">
<title>q16:3</title>
<ellipse fill="none" stroke="black" stroke-width="2" cx="954.27" cy="-72" rx="39.63" ry="18"/>
<text text-anchor="middle" x="954.27" y="-67.33" font-family="Times,serif" font-size="14.00">q16:3</text>
</g>
<!-- q10:232 -->
<g id="node2" class="node">
<title>q10:232</title>
<ellipse fill="none" stroke="black" stroke-width="2" cx="1196.5" cy="-143" rx="52.26" ry="18"/>
<text text-anchor="middle" x="1196.5" y="-138.32" font-family="Times,serif" font-size="14.00">q10:232</text>
</g>
<!-- q16:3&#45;&gt;q10:232 -->
<g id="edge1" class="edge">
<title>q16:3&#45;&gt;q10:232</title>
<path fill="none" stroke="black" d="M991.94,-78.78C1034.5,-86.84 1101.9,-100.25 1126.2,-108.75 1136.7,-112.39 1147.5,-117.23 1157.5,-122.13"/>
<polygon fill="black" stroke="black" points="1155.65,-125.12 1166.15,-126.52 1158.81,-118.87 1155.65,-125.12"/>
<text text-anchor="middle" x="1072.2" y="-111.95" font-family="Times,serif" font-size="14.00">RCPT/250:3</text>
</g>
<!-- q14:3334 -->
<g id="node3" class="node">
<title>q14:3334</title>
<ellipse fill="none" stroke="black" stroke-width="2" cx="1687.8" cy="-134" rx="58.57" ry="18"/>
<text text-anchor="middle" x="1687.8" y="-129.32" font-family="Times,serif" font-size="14.00">q14:3334</text>
</g>
<!-- q10:232&#45;&gt;q14:3334 -->
<g id="edge2" class="edge">
<title>q10:232&#45;&gt;q14:3334</title>
<path fill="none" stroke="black" d="M1249.4,-142.05C1337.9,-140.42 1518,-137.11 1617.3,-135.28"/>
<polygon fill="black" stroke="black" points="1617.25,-138.78 1627.19,-135.1 1617.12,-131.78 1617.25,-138.78"/>
<text text-anchor="middle" x="1439.8" y="-142.94" font-family="Times,serif" font-size="14.00">DATA/354:69</text>
</g>
<!-- q13:163 -->
<g id="node4" class="node">
<title>q13:163</title>
<ellipse fill="none" stroke="black" stroke-width="2" cx="1439.8" cy="-80" rx="52.26" ry="18"/>
<text text-anchor="middle" x="1439.8" y="-75.33" font-family="Times,serif" font-size="14.00">q13:163</text>
</g>
<!-- q10:232&#45;&gt;q13:163 -->
<g id="edge3" class="edge">
<title>q10:232&#45;&gt;q13:163</title>
<path fill="none" stroke="black" d="M1227.2,-127.69C1239.2,-122 1253.4,-115.92 1266.7,-111.75 1303.1,-100.39 1345,-92.54 1378.4,-87.49"/>
<polygon fill="black" stroke="black" points="1378.51,-91.01 1387.9,-86.1 1377.5,-84.08 1378.51,-91.01"/>
<text text-anchor="middle" x="1318.1" y="-114.95" font-family="Times,serif" font-size="14.00">RCPT/250:163</text>
</g>
<!-- q14:3334&#45;&gt;q14:3334 -->
<g id="edge4" class="edge">
<title>q14:3334&#45;&gt;q14:3334</title>
<path fill="none" stroke="black" d="M1665.1,-151.41C1660.9,-161.09 1668.5,-170 1687.8,-170 1699,-170 1706.3,-167.02 1709.6,-162.64"/>
<polygon fill="black" stroke="black" points="1713.07,-163.17 1710.38,-152.92 1706.09,-162.61 1713.07,-163.17"/>
<text text-anchor="middle" x="1687.8" y="-173.94" font-family="Times,serif" font-size="14.00">content/λ:3143</text>
</g>
<!-- q19:1 -->
<g id="node5" class="node">
<title>q19:1</title>
<ellipse fill="none" stroke="black" stroke-width="2" cx="1951.7" cy="-188" rx="39.63" ry="18"/>
<text text-anchor="middle" x="1951.7" y="-183.32" font-family="Times,serif" font-size="14.00">q19:1</text>
</g>
<!-- q14:3334&#45;&gt;q19:1 -->
<g id="edge5" class="edge">
<title>q14:3334&#45;&gt;q19:1</title>
<path fill="none" stroke="black" d="M1731.8,-146.71C1742.4,-149.63 1753.8,-152.59 1764.4,-155 1810.7,-165.51 1864.1,-174.67 1901.8,-180.66"/>
<polygon fill="black" stroke="black" points="1901.08,-184.09 1911.5,-182.18 1902.16,-177.17 1901.08,-184.09"/>
<text text-anchor="middle" x="1822.9" y="-180.94" font-family="Times,serif" font-size="14.00">content/550:1</text>
</g>
<!-- q18:65 -->
<g id="node6" class="node">
<title>q18:65</title>
<ellipse fill="none" stroke="black" stroke-width="2" cx="1951.7" cy="-134" rx="45.95" ry="18"/>
<text text-anchor="middle" x="1951.7" y="-129.32" font-family="Times,serif" font-size="14.00">q18:65</text>
</g>
<!-- q14:3334&#45;&gt;q18:65 -->
<g id="edge6" class="edge">
<title>q14:3334&#45;&gt;q18:65</title>
<path fill="none" stroke="black" d="M1747.3,-134C1790.9,-134 1850.2,-134 1893.5,-134"/>
<polygon fill="black" stroke="black" points="1893.49,-137.5 1903.49,-134 1893.49,-130.5 1893.49,-137.5"/>
<text text-anchor="middle" x="1822.9" y="-137.94" font-family="Times,serif" font-size="14.00">content/554:65</text>
</g>
<!-- q20:125 -->
<g id="node7" class="node">
<title>q20:125</title>
<ellipse fill="none" stroke="black" stroke-width="2" cx="1951.7" cy="-80" rx="52.26" ry="18"/>
<text text-anchor="middle" x="1951.7" y="-75.33" font-family="Times,serif" font-size="14.00">q20:125</text>
</g>
<!-- q14:3334&#45;&gt;q20:125 -->
<g id="edge7" class="edge">
<title>q14:3334&#45;&gt;q20:125</title>
<path fill="none" stroke="black" d="M1731.4,-121.22C1742.1,-118.23 1753.6,-115.2 1764.4,-112.75 1806.6,-103.13 1854.8,-94.73 1891.5,-88.85"/>
<polygon fill="black" stroke="black" points="1891.77,-92.35 1901.1,-87.34 1890.68,-85.43 1891.77,-92.35"/>
<text text-anchor="middle" x="1822.9" y="-115.95" font-family="Times,serif" font-size="14.00">content/250:125</text>
</g>
<!-- q13:163&#45;&gt;q16:3 -->
<g id="edge8" class="edge">
<title>q13:163&#45;&gt;q16:3</title>
<path fill="none" stroke="black" d="M1386.8,-79.14C1293.4,-77.6 1098.6,-74.37 1006.1,-72.84"/>
<polygon fill="black" stroke="black" points="1006.41,-69.35 996.35,-72.68 1006.29,-76.35 1006.41,-69.35"/>
<text text-anchor="middle" x="1196.5" y="-80.95" font-family="Times,serif" font-size="14.00">RCPT/250:3</text>
</g>
<!-- q13:163&#45;&gt;q14:3334 -->
<g id="edge9" class="edge">
<title>q13:163&#45;&gt;q14:3334</title>
<path fill="none" stroke="black" d="M1488.4,-87.54C1522.8,-93.29 1570.1,-101.89 1611.3,-111.75 1618.7,-113.53 1626.4,-115.59 1634.1,-117.72"/>
<polygon fill="black" stroke="black" points="1633.07,-121.07 1643.64,-120.45 1634.99,-114.34 1633.07,-121.07"/>
<text text-anchor="middle" x="1560.6" y="-114.95" font-family="Times,serif" font-size="14.00">DATA/354:122</text>
</g>
<!-- q17:38 -->
<g id="node8" class="node">
<title>q17:38</title>
<ellipse fill="none" stroke="black" stroke-width="2" cx="1687.8" cy="-71" rx="45.95" ry="18"/>
<text text-anchor="middle" x="1687.8" y="-66.33" font-family="Times,serif" font-size="14.00">q17:38</text>
</g>
<!-- q13:163&#45;&gt;q17:38 -->
<g id="edge10" class="edge">
<title>q13:163&#45;&gt;q17:38</title>
<path fill="none" stroke="black" d="M1489.5,-73.48C1496.4,-72.77 1503.4,-72.16 1510,-71.75 1549.9,-69.3 1595,-69.14 1629.7,-69.59"/>
<polygon fill="black" stroke="black" points="1629.43,-73.09 1639.49,-69.74 1629.54,-66.09 1629.43,-73.09"/>
<text text-anchor="middle" x="1560.6" y="-75.95" font-family="Times,serif" font-size="14.00">DATA/550:38</text>
</g>
<!-- q22:1 -->
<g id="node9" class="node">
<title>q22:1</title>
<ellipse fill="none" stroke="black" stroke-width="2" cx="2192.7" cy="-188" rx="39.63" ry="18"/>
<text text-anchor="middle" x="2192.7" y="-183.32" font-family="Times,serif" font-size="14.00">q22:1</text>
</g>
<!-- q19:1&#45;&gt;q22:1 -->
<g id="edge11" class="edge">
<title>q19:1&#45;&gt;q22:1</title>
<path fill="none" stroke="black" d="M1992.1,-188C2032.8,-188 2096.3,-188 2140.7,-188"/>
<polygon fill="black" stroke="black" points="2140.69,-191.5 2150.69,-188 2140.69,-184.5 2140.69,-191.5"/>
<text text-anchor="middle" x="2072.2" y="-191.94" font-family="Times,serif" font-size="14.00">RSET/250:1</text>
</g>
<!-- q21:65 -->
<g id="node10" class="node">
<title>q21:65</title>
<ellipse fill="none" stroke="black" stroke-width="2" cx="2192.7" cy="-134" rx="45.95" ry="18"/>
<text text-anchor="middle" x="2192.7" y="-129.32" font-family="Times,serif" font-size="14.00">q21:65</text>
</g>
<!-- q18:65&#45;&gt;q21:65 -->
<g id="edge12" class="edge">
<title>q18:65&#45;&gt;q21:65</title>
<path fill="none" stroke="black" d="M1998.5,-134C2037.3,-134 2093,-134 2134.7,-134"/>
<polygon fill="black" stroke="black" points="2134.49,-137.5 2144.49,-134 2134.49,-130.5 2134.49,-137.5"/>
<text text-anchor="middle" x="2072.2" y="-137.94" font-family="Times,serif" font-size="14.00">RSET/250:65</text>
</g>
<!-- q23:125 -->
<g id="node11" class="node">
<title>q23:125</title>
<ellipse fill="none" stroke="black" stroke-width="2" cx="2192.7" cy="-80" rx="52.26" ry="18"/>
<text text-anchor="middle" x="2192.7" y="-75.33" font-family="Times,serif" font-size="14.00">q23:125</text>
</g>
<!-- q20:125&#45;&gt;q23:125 -->
<g id="edge13" class="edge">
<title>q20:125&#45;&gt;q23:125</title>
<path fill="none" stroke="black" d="M2004.8,-80C2041.2,-80 2090,-80 2128.5,-80"/>
<polygon fill="black" stroke="black" points="2128.09,-83.5 2138.09,-80 2128.09,-76.5 2128.09,-83.5"/>
<text text-anchor="middle" x="2072.2" y="-83.95" font-family="Times,serif" font-size="14.00">QUIT/221:125</text>
</g>
<!-- q1:244 -->
<g id="node12" class="node">
<title>q1:244</title>
<ellipse fill="none" stroke="black" stroke-width="2" cx="257.84" cy="-142" rx="45.95" ry="18"/>
<text text-anchor="middle" x="257.84" y="-137.32" font-family="Times,serif" font-size="14.00">q1:244</text>
</g>
<!-- q3:242 -->
<g id="node13" class="node">
<title>q3:242</title>
<ellipse fill="none" stroke="black" stroke-width="2" cx="491.48" cy="-175" rx="45.95" ry="18"/>
<text text-anchor="middle" x="491.48" y="-170.32" font-family="Times,serif" font-size="14.00">q3:242</text>
</g>
<!-- q1:244&#45;&gt;q3:242 -->
<g id="edge14" class="edge">
<title>q1:244&#45;&gt;q3:242</title>
<path fill="none" stroke="black" d="M302.14,-148.17C340,-153.56 395.17,-161.42 436.02,-167.24"/>
<polygon fill="black" stroke="black" points="435.51,-170.7 445.9,-168.65 436.49,-163.77 435.51,-170.7"/>
<text text-anchor="middle" x="374.66" y="-168.94" font-family="Times,serif" font-size="14.00">EHLO/250:242</text>
</g>
<!-- q2:2 -->
<g id="node14" class="node">
<title>q2:2</title>
<ellipse fill="none" stroke="black" stroke-width="2" cx="491.48" cy="-115" rx="33.32" ry="18"/>
<text text-anchor="middle" x="491.48" y="-110.33" font-family="Times,serif" font-size="14.00">q2:2</text>
</g>
<!-- q1:244&#45;&gt;q2:2 -->
<g id="edge15" class="edge">
<title>q1:244&#45;&gt;q2:2</title>
<path fill="none" stroke="black" d="M296.21,-131.12C304.56,-129.03 313.43,-127.08 321.79,-125.75 363.53,-119.09 411.69,-116.52 445.85,-115.55"/>
<polygon fill="black" stroke="black" points="445.88,-119.05 455.8,-115.31 445.71,-112.05 445.88,-119.05"/>
<text text-anchor="middle" x="374.66" y="-128.94" font-family="Times,serif" font-size="14.00">EHLO/λ:2</text>
</g>
<!-- q4:231 -->
<g id="node15" class="node">
<title>q4:231</title>
<ellipse fill="none" stroke="black" stroke-width="2" cx="725.13" cy="-108" rx="45.95" ry="18"/>
<text text-anchor="middle" x="725.13" y="-103.33" font-family="Times,serif" font-size="14.00">q4:231</text>
</g>
<!-- q3:242&#45;&gt;q4:231 -->
<g id="edge16" class="edge">
<title>q3:242&#45;&gt;q4:231</title>
<path fill="none" stroke="black" d="M518.73,-159.54C529.76,-153.58 542.92,-147.15 555.43,-142.75 566.39,-138.9 626.16,-126.92 671.47,-118.11"/>
<polygon fill="black" stroke="black" points="672,-121.57 681.15,-116.23 670.67,-114.7 672,-121.57"/>
<text text-anchor="middle" x="608.31" y="-145.94" font-family="Times,serif" font-size="14.00">AUTH/235:229</text>
</g>
<!-- q5:12 -->
<g id="node16" class="node">
<title>q5:12</title>
<ellipse fill="none" stroke="black" stroke-width="2" cx="725.13" cy="-229" rx="39.63" ry="18"/>
<text text-anchor="middle" x="725.13" y="-224.32" font-family="Times,serif" font-size="14.00">q5:12</text>
</g>
<!-- q3:242&#45;&gt;q5:12 -->
<g id="edge17" class="edge">
<title>q3:242&#45;&gt;q5:12</title>
<path fill="none" stroke="black" d="M521.02,-189.62C531.6,-194.52 543.84,-199.6 555.43,-203 594.51,-214.48 640.26,-221.13 674.25,-224.82"/>
<polygon fill="black" stroke="black" points="673.49,-228.26 683.79,-225.81 674.21,-221.3 673.49,-228.26"/>
<text text-anchor="middle" x="608.31" y="-226.94" font-family="Times,serif" font-size="14.00">AUTH/535:12</text>
</g>
<!-- q6:1 -->
<g id="node17" class="node">
<title>q6:1</title>
<ellipse fill="none" stroke="black" stroke-width="2" cx="839.7" cy="-180" rx="33.32" ry="18"/>
<text text-anchor="middle" x="839.7" y="-175.32" font-family="Times,serif" font-size="14.00">q6:1</text>
</g>
<!-- q3:242&#45;&gt;q6:1 -->
<g id="edge18" class="edge">
<title>q3:242&#45;&gt;q6:1</title>
<path fill="none" stroke="black" d="M538.1,-175.66C604.79,-176.62 728.13,-178.4 794.18,-179.36"/>
<polygon fill="black" stroke="black" points="793.88,-182.86 803.93,-179.5 793.98,-175.86 793.88,-182.86"/>
<text text-anchor="middle" x="608.31" y="-180.94" font-family="Times,serif" font-size="14.00">AUTH/λ:1</text>
</g>
<!-- q2:2&#45;&gt;q4:231 -->
<g id="edge19" class="edge">
<title>q2:2&#45;&gt;q4:231</title>
<path fill="none" stroke="black" d="M523.05,-107.83C533.28,-105.75 544.79,-103.78 555.43,-102.75 593,-99.13 635.47,-100.48 668.4,-102.72"/>
<polygon fill="black" stroke="black" points="667.89,-106.19 678.12,-103.43 668.4,-99.21 667.89,-106.19"/>
<text text-anchor="middle" x="608.31" y="-105.95" font-family="Times,serif" font-size="14.00">AUTH/235:2</text>
</g>
<!-- q7:3 -->
<g id="node18" class="node">
<title>q7:3</title>
<ellipse fill="none" stroke="black" stroke-width="2" cx="954.27" cy="-18" rx="33.32" ry="18"/>
<text text-anchor="middle" x="954.27" y="-13.32" font-family="Times,serif" font-size="14.00">q7:3</text>
</g>
<!-- q4:231&#45;&gt;q7:3 -->
<g id="edge20" class="edge">
<title>q4:231&#45;&gt;q7:3</title>
<path fill="none" stroke="black" d="M759.16,-94.91C800.79,-78.42 872.16,-50.14 915.79,-32.85"/>
<polygon fill="black" stroke="black" points="916.84,-36.2 924.84,-29.26 914.26,-29.69 916.84,-36.2"/>
<text text-anchor="middle" x="839.7" y="-85.95" font-family="Times,serif" font-size="14.00">MAIL/553:3</text>
</g>
<!-- q8:228 -->
<g id="node19" class="node">
<title>q8:228</title>
<ellipse fill="none" stroke="black" stroke-width="2" cx="954.27" cy="-126" rx="45.95" ry="18"/>
<text text-anchor="middle" x="954.27" y="-121.33" font-family="Times,serif" font-size="14.00">q8:228</text>
</g>
<!-- q4:231&#45;&gt;q8:228 -->
<g id="edge21" class="edge">
<title>q4:231&#45;&gt;q8:228</title>
<path fill="none" stroke="black" d="M771,-111.56C807.17,-114.42 858.22,-118.47 897.1,-121.55"/>
<polygon fill="black" stroke="black" points="896.74,-125.03 906.98,-122.33 897.29,-118.05 896.74,-125.03"/>
<text text-anchor="middle" x="839.7" y="-123.95" font-family="Times,serif" font-size="14.00">MAIL/250:228</text>
</g>
<!-- q9:12 -->
<g id="node20" class="node">
<title>q9:12</title>
<ellipse fill="none" stroke="black" stroke-width="2" cx="954.27" cy="-233" rx="39.63" ry="18"/>
<text text-anchor="middle" x="954.27" y="-228.32" font-family="Times,serif" font-size="14.00">q9:12</text>
</g>
<!-- q5:12&#45;&gt;q9:12 -->
<g id="edge22" class="edge">
<title>q5:12&#45;&gt;q9:12</title>
<path fill="none" stroke="black" d="M765.69,-229.7C803.6,-230.36 861,-231.38 902.32,-232.1"/>
<polygon fill="black" stroke="black" points="902.21,-235.6 912.27,-232.27 902.33,-228.6 902.21,-235.6"/>
<text text-anchor="middle" x="839.7" y="-234.94" font-family="Times,serif" font-size="14.00">AUTH/334:12</text>
</g>
<!-- q6:1&#45;&gt;q10:232 -->
<g id="edge23" class="edge">
<title>q6:1&#45;&gt;q10:232</title>
<path fill="none" stroke="black" d="M873.84,-178.91C927.22,-176.84 1035.5,-171.26 1126.2,-158 1131.1,-157.29 1136.1,-156.44 1141.1,-155.5"/>
<polygon fill="black" stroke="black" points="1141.38,-159.01 1150.51,-153.64 1140.03,-152.14 1141.38,-159.01"/>
<text text-anchor="middle" x="954.27" y="-180.94" font-family="Times,serif" font-size="14.00">MAIL/250:1</text>
</g>
<!-- q11:3 -->
<g id="node21" class="node">
<title>q11:3</title>
<ellipse fill="none" stroke="black" stroke-width="2" cx="1196.5" cy="-18" rx="39.63" ry="18"/>
<text text-anchor="middle" x="1196.5" y="-13.32" font-family="Times,serif" font-size="14.00">q11:3</text>
</g>
<!-- q7:3&#45;&gt;q11:3 -->
<g id="edge24" class="edge">
<title>q7:3&#45;&gt;q11:3</title>
<path fill="none" stroke="black" d="M988.42,-18C1028.8,-18 1097.3,-18 1144.4,-18"/>
<polygon fill="black" stroke="black" points="1144.39,-21.5 1154.39,-18 1144.39,-14.5 1144.39,-21.5"/>
<text text-anchor="middle" x="1072.2" y="-21.95" font-family="Times,serif" font-size="14.00">RSET/250:3</text>
</g>
<!-- q8:228&#45;&gt;q10:232 -->
<g id="edge25" class="edge">
<title>q8:228&#45;&gt;q10:232</title>
<path fill="none" stroke="black" d="M1000.45,-129.2C1037.8,-131.84 1091.4,-135.63 1132.9,-138.57"/>
<polygon fill="black" stroke="black" points="1132.57,-142.06 1142.79,-139.26 1133.06,-135.07 1132.57,-142.06"/>
<text text-anchor="middle" x="1072.2" y="-140.94" font-family="Times,serif" font-size="14.00">RCPT/250:228</text>
</g>
<!-- q12:12 -->
<g id="node22" class="node">
<title>q12:12</title>
<ellipse fill="none" stroke="black" stroke-width="2" cx="1196.5" cy="-233" rx="45.95" ry="18"/>
<text text-anchor="middle" x="1196.5" y="-228.32" font-family="Times,serif" font-size="14.00">q12:12</text>
</g>
<!-- q9:12&#45;&gt;q12:12 -->
<g id="edge26" class="edge">
<title>q9:12&#45;&gt;q12:12</title>
<path fill="none" stroke="black" d="M994.67,-233C1033.8,-233 1094.1,-233 1138.4,-233"/>
<polygon fill="black" stroke="black" points="1138.39,-236.5 1148.39,-233 1138.39,-229.5 1138.39,-236.5"/>
<text text-anchor="middle" x="1072.2" y="-236.94" font-family="Times,serif" font-size="14.00">content/535:12</text>
</g>
<!-- q15:4 -->
<g id="node23" class="node">
<title>q15:4</title>
<ellipse fill="none" stroke="black" stroke-width="2" cx="1439.8" cy="-233" rx="39.63" ry="18"/>
<text text-anchor="middle" x="1439.8" y="-228.32" font-family="Times,serif" font-size="14.00">q15:4</text>
</g>
<!-- q12:12&#45;&gt;q15:4 -->
<g id="edge27" class="edge">
<title>q12:12&#45;&gt;q15:4</title>
<path fill="none" stroke="black" d="M1243.1,-233C1284.4,-233 1345.2,-233 1388,-233"/>
<polygon fill="black" stroke="black" points="1387.79,-236.5 1397.79,-233 1387.79,-229.5 1387.79,-236.5"/>
<text text-anchor="middle" x="1318.1" y="-236.94" font-family="Times,serif" font-size="14.00">λ/451:4</text>
</g>
<!-- q0:244 -->
<g id="node24" class="node">
<title>q0:244</title>
<ellipse fill="none" stroke="black" stroke-width="2" cx="53.95" cy="-142" rx="49.95" ry="49.95"/>
<ellipse fill="none" stroke="black" stroke-width="2" cx="53.95" cy="-142" rx="53.95" ry="53.95"/>
<text text-anchor="middle" x="53.95" y="-137.32" font-family="Times,serif" font-size="14.00">q0:244</text>
</g>
<!-- q0:244&#45;&gt;q1:244 -->
<g id="edge28" class="edge">
<title>q0:244&#45;&gt;q1:244</title>
<path fill="none" stroke="black" d="M104.85,-142C133.64,-142 169.94,-142 199.84,-142"/>
<polygon fill="black" stroke="black" points="199.45,-145.5 209.45,-142 199.45,-138.5 199.45,-145.5"/>
<text text-anchor="middle" x="157.89" y="-145.94" font-family="Times,serif" font-size="14.00">λ/220:244</text>
</g>
</g>
</svg>
