<?xml version="1.0" encoding="UTF-8" standalone="no"?>
<!DOCTYPE svg PUBLIC "-//W3C//DTD SVG 1.1//EN"
 "http://www.w3.org/Graphics/SVG/1.1/DTD/svg11.dtd">
<!-- Generated by graphviz version 12.0.0 (20240803.0821)
 -->
<!-- Pages: 1 -->
<svg width="2240pt" height="171pt"
 viewBox="0.00 0.00 2240.36 171.00" xmlns="http://www.w3.org/2000/svg" xmlns:xlink="http://www.w3.org/1999/xlink">
<g id="graph0" class="graph" transform="scale(1 1) rotate(0) translate(4 167)">
<polygon fill="white" stroke="none" points="-4,4 -4,-167 2236.36,-167 2236.36,4 -4,4"/>
<!-- q12:3329 -->
<g id="node1" class="node">
<title>q12:3329</title>
<ellipse fill="none" stroke="black" stroke-width="2" cx="1675.2" cy="-81" rx="58.57" ry="18"/>
<text text-anchor="middle" x="1675.2" y="-76.33" font-family="Times,serif" font-size="14.00">q12:3329</text>
</g>
<!-- q12:3329&#45;&gt;q12:3329 -->
<g id="edge1" class="edge">
<title>q12:3329&#45;&gt;q12:3329</title>
<path fill="none" stroke="black" d="M1652.5,-98.41C1648.3,-108.09 1655.8,-117 1675.2,-117 1686.4,-117 1693.7,-114.02 1697,-109.64"/>
<polygon fill="black" stroke="black" points="1700.47,-110.17 1697.78,-99.92 1693.49,-109.61 1700.47,-110.17"/>
<text text-anchor="middle" x="1675.2" y="-120.95" font-family="Times,serif" font-size="14.00">content/位:3143</text>
</g>
<!-- q17:136 -->
<g id="node2" class="node">
<title>q17:136</title>
<ellipse fill="none" stroke="black" stroke-width="2" cx="1939" cy="-135" rx="52.26" ry="18"/>
<text text-anchor="middle" x="1939" y="-130.32" font-family="Times,serif" font-size="14.00">q17:136</text>
</g>
<!-- q12:3329&#45;&gt;q17:136 -->
<g id="edge2" class="edge">
<title>q12:3329&#45;&gt;q17:136</title>
<path fill="none" stroke="black" d="M1719.2,-93.71C1729.8,-96.63 1741.2,-99.59 1751.8,-102 1794,-111.58 1842.2,-120.05 1878.9,-126.01"/>
<polygon fill="black" stroke="black" points="1877.98,-129.41 1888.4,-127.53 1879.08,-122.49 1877.98,-129.41"/>
<text text-anchor="middle" x="1810.3" y="-127.95" font-family="Times,serif" font-size="14.00">content/250:136</text>
</g>
<!-- q15:1 -->
<g id="node3" class="node">
<title>q15:1</title>
<ellipse fill="none" stroke="black" stroke-width="2" cx="1939" cy="-81" rx="39.63" ry="18"/>
<text text-anchor="middle" x="1939" y="-76.33" font-family="Times,serif" font-size="14.00">q15:1</text>
</g>
<!-- q12:3329&#45;&gt;q15:1 -->
<g id="edge3" class="edge">
<title>q12:3329&#45;&gt;q15:1</title>
<path fill="none" stroke="black" d="M1734.6,-81C1780.3,-81 1843.2,-81 1886.9,-81"/>
<polygon fill="black" stroke="black" points="1886.99,-84.5 1896.99,-81 1886.99,-77.5 1886.99,-84.5"/>
<text text-anchor="middle" x="1810.3" y="-84.95" font-family="Times,serif" font-size="14.00">content/550:1</text>
</g>
<!-- q16:49 -->
<g id="node4" class="node">
<title>q16:49</title>
<ellipse fill="none" stroke="black" stroke-width="2" cx="1939" cy="-27" rx="45.95" ry="18"/>
<text text-anchor="middle" x="1939" y="-22.32" font-family="Times,serif" font-size="14.00">q16:49</text>
</g>
<!-- q12:3329&#45;&gt;q16:49 -->
<g id="edge4" class="edge">
<title>q12:3329&#45;&gt;q16:49</title>
<path fill="none" stroke="black" d="M1718.8,-68.22C1729.5,-65.23 1741,-62.2 1751.8,-59.75 1795.9,-49.7 1846.4,-40.98 1883.8,-35.08"/>
<polygon fill="black" stroke="black" points="1884.07,-38.58 1893.4,-33.57 1882.98,-31.66 1884.07,-38.58"/>
<text text-anchor="middle" x="1810.3" y="-63.95" font-family="Times,serif" font-size="14.00">content/554:49</text>
</g>
<!-- q21:136 -->
<g id="node5" class="node">
<title>q21:136</title>
<ellipse fill="none" stroke="black" stroke-width="2" cx="2180.1" cy="-135" rx="52.26" ry="18"/>
<text text-anchor="middle" x="2180.1" y="-130.32" font-family="Times,serif" font-size="14.00">q21:136</text>
</g>
<!-- q17:136&#45;&gt;q21:136 -->
<g id="edge5" class="edge">
<title>q17:136&#45;&gt;q21:136</title>
<path fill="none" stroke="black" d="M1992.2,-135C2028.6,-135 2077.3,-135 2115.9,-135"/>
<polygon fill="black" stroke="black" points="2115.49,-138.5 2125.49,-135 2115.49,-131.5 2115.49,-138.5"/>
<text text-anchor="middle" x="2059.6" y="-138.94" font-family="Times,serif" font-size="14.00">QUIT/221:136</text>
</g>
<!-- q19:1 -->
<g id="node6" class="node">
<title>q19:1</title>
<ellipse fill="none" stroke="black" stroke-width="2" cx="2180.1" cy="-81" rx="39.63" ry="18"/>
<text text-anchor="middle" x="2180.1" y="-76.33" font-family="Times,serif" font-size="14.00">q19:1</text>
</g>
<!-- q15:1&#45;&gt;q19:1 -->
<g id="edge6" class="edge">
<title>q15:1&#45;&gt;q19:1</title>
<path fill="none" stroke="black" d="M1979.5,-81C2020.2,-81 2083.7,-81 2128.1,-81"/>
<polygon fill="black" stroke="black" points="2127.99,-84.5 2137.99,-81 2127.99,-77.5 2127.99,-84.5"/>
<text text-anchor="middle" x="2059.6" y="-84.95" font-family="Times,serif" font-size="14.00">RSET/250:1</text>
</g>
<!-- q20:49 -->
<g id="node7" class="node">
<title>q20:49</title>
<ellipse fill="none" stroke="black" stroke-width="2" cx="2180.1" cy="-27" rx="45.95" ry="18"/>
<text text-anchor="middle" x="2180.1" y="-22.32" font-family="Times,serif" font-size="14.00">q20:49</text>
</g>
<!-- q16:49&#45;&gt;q20:49 -->
<g id="edge7" class="edge">
<title>q16:49&#45;&gt;q20:49</title>
<path fill="none" stroke="black" d="M1985.8,-27C2024.6,-27 2080.4,-27 2122.1,-27"/>
<polygon fill="black" stroke="black" points="2121.89,-30.5 2131.89,-27 2121.89,-23.5 2121.89,-30.5"/>
<text text-anchor="middle" x="2059.6" y="-30.95" font-family="Times,serif" font-size="14.00">RSET/250:49</text>
</g>
<!-- q9:229 -->
<g id="node8" class="node">
<title>q9:229</title>
<ellipse fill="none" stroke="black" stroke-width="2" cx="1190.2" cy="-88" rx="45.95" ry="18"/>
<text text-anchor="middle" x="1190.2" y="-83.33" font-family="Times,serif" font-size="14.00">q9:229</text>
</g>
<!-- q9:229&#45;&gt;q12:3329 -->
<g id="edge8" class="edge">
<title>q9:229&#45;&gt;q12:3329</title>
<path fill="none" stroke="black" d="M1237,-87.33C1322.1,-86.1 1504.6,-83.46 1604.8,-82.01"/>
<polygon fill="black" stroke="black" points="1604.54,-85.51 1614.49,-81.87 1604.44,-78.51 1604.54,-85.51"/>
<text text-anchor="middle" x="1427.1" y="-89.95" font-family="Times,serif" font-size="14.00">DATA/354:68</text>
</g>
<!-- q13:161 -->
<g id="node9" class="node">
<title>q13:161</title>
<ellipse fill="none" stroke="black" stroke-width="2" cx="1427.1" cy="-36" rx="52.26" ry="18"/>
<text text-anchor="middle" x="1427.1" y="-31.32" font-family="Times,serif" font-size="14.00">q13:161</text>
</g>
<!-- q9:229&#45;&gt;q13:161 -->
<g id="edge9" class="edge">
<title>q9:229&#45;&gt;q13:161</title>
<path fill="none" stroke="black" d="M1218.7,-73.01C1229.4,-67.74 1242.1,-62.25 1254.1,-58.75 1289.4,-48.47 1330.2,-42.82 1363.2,-39.72"/>
<polygon fill="black" stroke="black" points="1363.34,-43.23 1372.99,-38.86 1362.72,-36.25 1363.34,-43.23"/>
<text text-anchor="middle" x="1305.5" y="-62.95" font-family="Times,serif" font-size="14.00">RCPT/250:161</text>
</g>
<!-- q13:161&#45;&gt;q12:3329 -->
<g id="edge10" class="edge">
<title>q13:161&#45;&gt;q12:3329</title>
<path fill="none" stroke="black" d="M1478.5,-40.66C1512.6,-44.32 1558.6,-50.24 1598.6,-58.75 1606.4,-60.39 1614.5,-62.43 1622.3,-64.59"/>
<polygon fill="black" stroke="black" points="1621.27,-67.94 1631.84,-67.3 1623.18,-61.21 1621.27,-67.94"/>
<text text-anchor="middle" x="1548" y="-62.95" font-family="Times,serif" font-size="14.00">DATA/354:118</text>
</g>
<!-- q18:43 -->
<g id="node10" class="node">
<title>q18:43</title>
<ellipse fill="none" stroke="black" stroke-width="2" cx="1675.2" cy="-18" rx="45.95" ry="18"/>
<text text-anchor="middle" x="1675.2" y="-13.32" font-family="Times,serif" font-size="14.00">q18:43</text>
</g>
<!-- q13:161&#45;&gt;q18:43 -->
<g id="edge11" class="edge">
<title>q13:161&#45;&gt;q18:43</title>
<path fill="none" stroke="black" d="M1468.5,-24.23C1477.9,-21.96 1487.9,-19.93 1497.4,-18.75 1537.3,-13.76 1582.8,-13.69 1617.6,-14.8"/>
<polygon fill="black" stroke="black" points="1617.37,-18.3 1627.49,-15.17 1617.62,-11.3 1617.37,-18.3"/>
<text text-anchor="middle" x="1548" y="-22.95" font-family="Times,serif" font-size="14.00">DATA/550:43</text>
</g>
<!-- q1:244 -->
<g id="node11" class="node">
<title>q1:244</title>
<ellipse fill="none" stroke="black" stroke-width="2" cx="257.84" cy="-92" rx="45.95" ry="18"/>
<text text-anchor="middle" x="257.84" y="-87.33" font-family="Times,serif" font-size="14.00">q1:244</text>
</g>
<!-- q3:242 -->
<g id="node12" class="node">
<title>q3:242</title>
<ellipse fill="none" stroke="black" stroke-width="2" cx="491.48" cy="-119" rx="45.95" ry="18"/>
<text text-anchor="middle" x="491.48" y="-114.33" font-family="Times,serif" font-size="14.00">q3:242</text>
</g>
<!-- q1:244&#45;&gt;q3:242 -->
<g id="edge12" class="edge">
<title>q1:244&#45;&gt;q3:242</title>
<path fill="none" stroke="black" d="M302.96,-97.14C340.55,-101.52 394.77,-107.84 435.24,-112.56"/>
<polygon fill="black" stroke="black" points="434.69,-116.02 445.03,-113.7 435.5,-109.07 434.69,-116.02"/>
<text text-anchor="middle" x="374.66" y="-114.95" font-family="Times,serif" font-size="14.00">EHLO/250:242</text>
</g>
<!-- q2:2 -->
<g id="node13" class="node">
<title>q2:2</title>
<ellipse fill="none" stroke="black" stroke-width="2" cx="491.48" cy="-65" rx="33.32" ry="18"/>
<text text-anchor="middle" x="491.48" y="-60.33" font-family="Times,serif" font-size="14.00">q2:2</text>
</g>
<!-- q1:244&#45;&gt;q2:2 -->
<g id="edge13" class="edge">
<title>q1:244&#45;&gt;q2:2</title>
<path fill="none" stroke="black" d="M297.96,-82.21C305.81,-80.51 314.03,-78.92 321.79,-77.75 363.62,-71.47 411.78,-68.22 445.9,-66.58"/>
<polygon fill="black" stroke="black" points="446,-70.08 455.84,-66.13 445.69,-63.08 446,-70.08"/>
<text text-anchor="middle" x="374.66" y="-81.95" font-family="Times,serif" font-size="14.00">EHLO/位:2</text>
</g>
<!-- q4:232 -->
<g id="node14" class="node">
<title>q4:232</title>
<ellipse fill="none" stroke="black" stroke-width="2" cx="725.13" cy="-78" rx="45.95" ry="18"/>
<text text-anchor="middle" x="725.13" y="-73.33" font-family="Times,serif" font-size="14.00">q4:232</text>
</g>
<!-- q3:242&#45;&gt;q4:232 -->
<g id="edge14" class="edge">
<title>q3:242&#45;&gt;q4:232</title>
<path fill="none" stroke="black" d="M532.02,-109.63C539.77,-107.92 547.84,-106.21 555.43,-104.75 593.46,-97.44 636.6,-90.62 669.73,-85.7"/>
<polygon fill="black" stroke="black" points="670.12,-89.18 679.5,-84.27 669.1,-82.26 670.12,-89.18"/>
<text text-anchor="middle" x="608.31" y="-107.95" font-family="Times,serif" font-size="14.00">AUTH/235:230</text>
</g>
<!-- q5:12 -->
<g id="node15" class="node">
<title>q5:12</title>
<ellipse fill="none" stroke="black" stroke-width="2" cx="725.13" cy="-145" rx="39.63" ry="18"/>
<text text-anchor="middle" x="725.13" y="-140.32" font-family="Times,serif" font-size="14.00">q5:12</text>
</g>
<!-- q3:242&#45;&gt;q5:12 -->
<g id="edge15" class="edge">
<title>q3:242&#45;&gt;q5:12</title>
<path fill="none" stroke="black" d="M536.6,-123.95C575.99,-128.37 633.63,-134.84 674.59,-139.44"/>
<polygon fill="black" stroke="black" points="674.11,-142.91 684.44,-140.54 674.89,-135.95 674.11,-142.91"/>
<text text-anchor="middle" x="608.31" y="-140.94" font-family="Times,serif" font-size="14.00">AUTH/535:12</text>
</g>
<!-- q2:2&#45;&gt;q4:232 -->
<g id="edge16" class="edge">
<title>q2:2&#45;&gt;q4:232</title>
<path fill="none" stroke="black" d="M525.55,-63.32C559.63,-62.02 614.26,-61.12 661.18,-65.75 665.01,-66.13 668.95,-66.63 672.9,-67.21"/>
<polygon fill="black" stroke="black" points="672.07,-70.62 682.51,-68.78 673.2,-63.71 672.07,-70.62"/>
<text text-anchor="middle" x="608.31" y="-69.95" font-family="Times,serif" font-size="14.00">AUTH/235:2</text>
</g>
<!-- q6:229 -->
<g id="node16" class="node">
<title>q6:229</title>
<ellipse fill="none" stroke="black" stroke-width="2" cx="954.27" cy="-88" rx="45.95" ry="18"/>
<text text-anchor="middle" x="954.27" y="-83.33" font-family="Times,serif" font-size="14.00">q6:229</text>
</g>
<!-- q4:232&#45;&gt;q6:229 -->
<g id="edge17" class="edge">
<title>q4:232&#45;&gt;q6:229</title>
<path fill="none" stroke="black" d="M771.55,-80C807.61,-81.59 858.21,-83.81 896.86,-85.52"/>
<polygon fill="black" stroke="black" points="896.27,-88.99 906.42,-85.94 896.58,-82 896.27,-88.99"/>
<text text-anchor="middle" x="839.7" y="-89.95" font-family="Times,serif" font-size="14.00">MAIL/250:229</text>
</g>
<!-- q7:3 -->
<g id="node17" class="node">
<title>q7:3</title>
<ellipse fill="none" stroke="black" stroke-width="2" cx="954.27" cy="-34" rx="33.32" ry="18"/>
<text text-anchor="middle" x="954.27" y="-29.32" font-family="Times,serif" font-size="14.00">q7:3</text>
</g>
<!-- q4:232&#45;&gt;q7:3 -->
<g id="edge18" class="edge">
<title>q4:232&#45;&gt;q7:3</title>
<path fill="none" stroke="black" d="M762.54,-66.59C771.18,-64.12 780.41,-61.68 789.08,-59.75 829.64,-50.73 876.53,-43.71 909.79,-39.29"/>
<polygon fill="black" stroke="black" points="909.98,-42.8 919.45,-38.03 909.08,-35.85 909.98,-42.8"/>
<text text-anchor="middle" x="839.7" y="-63.95" font-family="Times,serif" font-size="14.00">MAIL/553:3</text>
</g>
<!-- q8:12 -->
<g id="node18" class="node">
<title>q8:12</title>
<ellipse fill="none" stroke="black" stroke-width="2" cx="954.27" cy="-145" rx="39.63" ry="18"/>
<text text-anchor="middle" x="954.27" y="-140.32" font-family="Times,serif" font-size="14.00">q8:12</text>
</g>
<!-- q5:12&#45;&gt;q8:12 -->
<g id="edge19" class="edge">
<title>q5:12&#45;&gt;q8:12</title>
<path fill="none" stroke="black" d="M765.69,-145C803.6,-145 861,-145 902.32,-145"/>
<polygon fill="black" stroke="black" points="902.27,-148.5 912.27,-145 902.27,-141.5 902.27,-148.5"/>
<text text-anchor="middle" x="839.7" y="-148.94" font-family="Times,serif" font-size="14.00">AUTH/334:12</text>
</g>
<!-- q6:229&#45;&gt;q9:229 -->
<g id="edge20" class="edge">
<title>q6:229&#45;&gt;q9:229</title>
<path fill="none" stroke="black" d="M1001.2,-88C1038.6,-88 1091.6,-88 1131.8,-88"/>
<polygon fill="black" stroke="black" points="1131.79,-91.5 1141.79,-88 1131.79,-84.5 1131.79,-91.5"/>
<text text-anchor="middle" x="1072.2" y="-91.95" font-family="Times,serif" font-size="14.00">RCPT/250:229</text>
</g>
<!-- q10:3 -->
<g id="node19" class="node">
<title>q10:3</title>
<ellipse fill="none" stroke="black" stroke-width="2" cx="1190.2" cy="-34" rx="39.63" ry="18"/>
<text text-anchor="middle" x="1190.2" y="-29.32" font-family="Times,serif" font-size="14.00">q10:3</text>
</g>
<!-- q7:3&#45;&gt;q10:3 -->
<g id="edge21" class="edge">
<title>q7:3&#45;&gt;q10:3</title>
<path fill="none" stroke="black" d="M988.29,-34C1027.3,-34 1092.7,-34 1138.3,-34"/>
<polygon fill="black" stroke="black" points="1138.19,-37.5 1148.19,-34 1138.19,-30.5 1138.19,-37.5"/>
<text text-anchor="middle" x="1072.2" y="-37.95" font-family="Times,serif" font-size="14.00">RSET/250:3</text>
</g>
<!-- q11:12 -->
<g id="node20" class="node">
<title>q11:12</title>
<ellipse fill="none" stroke="black" stroke-width="2" cx="1190.2" cy="-145" rx="45.95" ry="18"/>
<text text-anchor="middle" x="1190.2" y="-140.32" font-family="Times,serif" font-size="14.00">q11:12</text>
</g>
<!-- q8:12&#45;&gt;q11:12 -->
<g id="edge22" class="edge">
<title>q8:12&#45;&gt;q11:12</title>
<path fill="none" stroke="black" d="M994.68,-145C1032.4,-145 1089.6,-145 1132.2,-145"/>
<polygon fill="black" stroke="black" points="1132.09,-148.5 1142.09,-145 1132.09,-141.5 1132.09,-148.5"/>
<text text-anchor="middle" x="1072.2" y="-148.94" font-family="Times,serif" font-size="14.00">content/535:12</text>
</g>
<!-- q14:4 -->
<g id="node21" class="node">
<title>q14:4</title>
<ellipse fill="none" stroke="black" stroke-width="2" cx="1427.1" cy="-145" rx="39.63" ry="18"/>
<text text-anchor="middle" x="1427.1" y="-140.32" font-family="Times,serif" font-size="14.00">q14:4</text>
</g>
<!-- q11:12&#45;&gt;q14:4 -->
<g id="edge23" class="edge">
<title>q11:12&#45;&gt;q14:4</title>
<path fill="none" stroke="black" d="M1237,-145C1276.7,-145 1334.1,-145 1375.2,-145"/>
<polygon fill="black" stroke="black" points="1375.09,-148.5 1385.09,-145 1375.09,-141.5 1375.09,-148.5"/>
<text text-anchor="middle" x="1305.5" y="-148.94" font-family="Times,serif" font-size="14.00">位/451:4</text>
</g>
<!-- q0:244 -->
<g id="node22" class="node">
<title>q0:244</title>
<ellipse fill="none" stroke="black" stroke-width="2" cx="53.95" cy="-92" rx="49.95" ry="49.95"/>
<ellipse fill="none" stroke="black" stroke-width="2" cx="53.95" cy="-92" rx="53.95" ry="53.95"/>
<text text-anchor="middle" x="53.95" y="-87.33" font-family="Times,serif" font-size="14.00">q0:244</text>
</g>
<!-- q0:244&#45;&gt;q1:244 -->
<g id="edge24" class="edge">
<title>q0:244&#45;&gt;q1:244</title>
<path fill="none" stroke="black" d="M104.85,-92C133.64,-92 169.94,-92 199.84,-92"/>
<polygon fill="black" stroke="black" points="199.45,-95.5 209.45,-92 199.45,-88.5 199.45,-95.5"/>
<text text-anchor="middle" x="157.89" y="-95.95" font-family="Times,serif" font-size="14.00">位/220:244</text>
</g>
</g>
</svg>
