<?xml version="1.0" encoding="UTF-8" standalone="no"?>
<!DOCTYPE svg PUBLIC "-//W3C//DTD SVG 1.1//EN"
 "http://www.w3.org/Graphics/SVG/1.1/DTD/svg11.dtd">
<!-- Generated by graphviz version 12.0.0 (20240803.0821)
 -->
<!-- Pages: 1 -->
<svg width="7957pt" height="560pt"
 viewBox="0.00 0.00 7957.43 560.25" xmlns="http://www.w3.org/2000/svg" xmlns:xlink="http://www.w3.org/1999/xlink">
<g id="graph0" class="graph" transform="scale(1 1) rotate(0) translate(4 556.25)">
<polygon fill="white" stroke="none" points="-4,4 -4,-556.25 7953.43,-556.25 7953.43,4 -4,4"/>
<!-- q6:11 -->
<g id="node1" class="node">
<title>q6:11</title>
<ellipse fill="none" stroke="black" stroke-width="2" cx="1681.4" cy="-330.51" rx="39.63" ry="18"/>
<text text-anchor="middle" x="1681.4" y="-325.84" font-family="Times,serif" font-size="14.00">q6:11</text>
</g>
<!-- q10:11 -->
<g id="node2" class="node">
<title>q10:11</title>
<ellipse fill="none" stroke="black" stroke-width="2" cx="2475.3" cy="-339.51" rx="45.95" ry="18"/>
<text text-anchor="middle" x="2475.3" y="-334.84" font-family="Times,serif" font-size="14.00">q10:11</text>
</g>
<!-- q6:11&#45;&gt;q10:11 -->
<g id="edge1" class="edge">
<title>q6:11&#45;&gt;q10:11</title>
<path fill="none" stroke="black" d="M1721.9,-330.96C1851.7,-332.43 2264.8,-337.13 2417.1,-338.86"/>
<polygon fill="black" stroke="black" points="2416.95,-342.36 2426.99,-338.97 2417.03,-335.36 2416.95,-342.36"/>
<text text-anchor="middle" x="2078.3" y="-360.71" font-family="Times,serif" font-size="14.00">AUTH/334:11</text>
<text text-anchor="middle" x="2078.3" y="-343.46" font-family="Times,serif" font-size="14.00">b0 = UGFzc3dvcmQ6</text>
</g>
<!-- q14:11 -->
<g id="node3" class="node">
<title>q14:11</title>
<ellipse fill="none" stroke="black" stroke-width="2" cx="3159.8" cy="-344.51" rx="45.95" ry="18"/>
<text text-anchor="middle" x="3159.8" y="-339.83" font-family="Times,serif" font-size="14.00">q14:11</text>
</g>
<!-- q10:11&#45;&gt;q14:11 -->
<g id="edge2" class="edge">
<title>q10:11&#45;&gt;q14:11</title>
<path fill="none" stroke="black" d="M2522.1,-339.84C2642.8,-340.73 2969.2,-343.12 3101.7,-344.09"/>
<polygon fill="black" stroke="black" points="3101.66,-347.59 3111.69,-344.16 3101.71,-340.59 3101.66,-347.59"/>
<text text-anchor="middle" x="2780.3" y="-364.71" font-family="Times,serif" font-size="14.00">content/535:11</text>
<text text-anchor="middle" x="2780.3" y="-347.46" font-family="Times,serif" font-size="14.00">b0 in {&#39;5.7.8 authentication failed&#39;, &#39;Error: authentication failed&#39;}</text>
</g>
<!-- q18:4 -->
<g id="node4" class="node">
<title>q18:4</title>
<ellipse fill="none" stroke="black" stroke-width="2" cx="3635" cy="-344.51" rx="39.63" ry="18"/>
<text text-anchor="middle" x="3635" y="-339.83" font-family="Times,serif" font-size="14.00">q18:4</text>
</g>
<!-- q14:11&#45;&gt;q18:4 -->
<g id="edge3" class="edge">
<title>q14:11&#45;&gt;q18:4</title>
<path fill="none" stroke="black" d="M3206.6,-344.51C3295.5,-344.51 3490.6,-344.51 3583.3,-344.51"/>
<polygon fill="black" stroke="black" points="3583.09,-348.01 3593.09,-344.51 3583.09,-341.01 3583.09,-348.01"/>
<text text-anchor="middle" x="3376.6" y="-365.71" font-family="Times,serif" font-size="14.00">λ/451:4</text>
<text text-anchor="middle" x="3376.6" y="-348.46" font-family="Times,serif" font-size="14.00">b0 = Timeout.</text>
</g>
<!-- q4:232 -->
<g id="node5" class="node">
<title>q4:232</title>
<ellipse fill="none" stroke="black" stroke-width="2" cx="1681.4" cy="-443.51" rx="45.95" ry="18"/>
<text text-anchor="middle" x="1681.4" y="-438.84" font-family="Times,serif" font-size="14.00">q4:232</text>
</g>
<!-- q8:2 -->
<g id="node6" class="node">
<title>q8:2</title>
<ellipse fill="none" stroke="black" stroke-width="2" cx="2475.3" cy="-488.51" rx="33.32" ry="18"/>
<text text-anchor="middle" x="2475.3" y="-483.84" font-family="Times,serif" font-size="14.00">q8:2</text>
</g>
<!-- q4:232&#45;&gt;q8:2 -->
<g id="edge4" class="edge">
<title>q4:232&#45;&gt;q8:2</title>
<path fill="none" stroke="black" d="M1713.5,-457.12C1723.5,-460.87 1734.7,-464.46 1745.3,-466.51 2000.8,-515.7 2315.8,-500.1 2430.2,-492.02"/>
<polygon fill="black" stroke="black" points="2430.27,-495.52 2439.99,-491.31 2429.76,-488.54 2430.27,-495.52"/>
<text text-anchor="middle" x="2078.3" y="-538.96" font-family="Times,serif" font-size="14.00">MAIL/553:2</text>
<text text-anchor="middle" x="2078.3" y="-521.71" font-family="Times,serif" font-size="14.00">a0 in {&#39;FROM:&lt;Az_6161@sina.com&gt;&#39;, &#39;FROM:&lt;Az_6161@126.com&gt;&#39;}</text>
<text text-anchor="middle" x="2078.3" y="-504.45" font-family="Times,serif" font-size="14.00">b0 in {&#39;Mail from must equal authorized user&#39;, &#39;Envolope sender mismatch with login user..&#39;}</text>
</g>
<!-- q7:230 -->
<g id="node7" class="node">
<title>q7:230</title>
<ellipse fill="none" stroke="black" stroke-width="2" cx="2475.3" cy="-413.51" rx="45.95" ry="18"/>
<text text-anchor="middle" x="2475.3" y="-408.83" font-family="Times,serif" font-size="14.00">q7:230</text>
</g>
<!-- q4:232&#45;&gt;q7:230 -->
<g id="edge5" class="edge">
<title>q4:232&#45;&gt;q7:230</title>
<path fill="none" stroke="black" d="M1709.1,-428.26C1720,-422.87 1732.9,-417.47 1745.3,-414.76 1992.4,-360.79 2297.8,-390.3 2420,-405.86"/>
<polygon fill="black" stroke="black" points="2419.43,-409.32 2429.8,-407.13 2420.33,-402.37 2419.43,-409.32"/>
<text text-anchor="middle" x="2078.3" y="-452.95" font-family="Times,serif" font-size="14.00">MAIL/250:230</text>
<text text-anchor="middle" x="2078.3" y="-435.7" font-family="Times,serif" font-size="14.00">a0 in {&#39;FROM:&lt;Az6161@126.com&gt;&#39;, &#39;FROM:&lt;Az6161@sina.com&gt;&#39;}</text>
<text text-anchor="middle" x="2078.3" y="-418.45" font-family="Times,serif" font-size="14.00">b0 in {&#39;Mail OK&#39;, &#39;ok&#39;}</text>
</g>
<!-- q12:2 -->
<g id="node8" class="node">
<title>q12:2</title>
<ellipse fill="none" stroke="black" stroke-width="2" cx="3159.8" cy="-488.51" rx="39.63" ry="18"/>
<text text-anchor="middle" x="3159.8" y="-483.84" font-family="Times,serif" font-size="14.00">q12:2</text>
</g>
<!-- q8:2&#45;&gt;q12:2 -->
<g id="edge6" class="edge">
<title>q8:2&#45;&gt;q12:2</title>
<path fill="none" stroke="black" d="M2509.2,-488.51C2619.3,-488.51 2975.3,-488.51 3108.2,-488.51"/>
<polygon fill="black" stroke="black" points="3108.09,-492.01 3118.09,-488.51 3108.09,-485.01 3108.09,-492.01"/>
<text text-anchor="middle" x="2780.3" y="-509.71" font-family="Times,serif" font-size="14.00">RSET/250:2</text>
<text text-anchor="middle" x="2780.3" y="-492.46" font-family="Times,serif" font-size="14.00">b0 in {&#39;flushed&#39;, &#39;OK&#39;}</text>
</g>
<!-- q11:230 -->
<g id="node9" class="node">
<title>q11:230</title>
<ellipse fill="none" stroke="black" stroke-width="2" cx="3159.8" cy="-413.51" rx="52.26" ry="18"/>
<text text-anchor="middle" x="3159.8" y="-408.83" font-family="Times,serif" font-size="14.00">q11:230</text>
</g>
<!-- q7:230&#45;&gt;q11:230 -->
<g id="edge7" class="edge">
<title>q7:230&#45;&gt;q11:230</title>
<path fill="none" stroke="black" d="M2522.1,-413.51C2640.9,-413.51 2958.9,-413.51 3095.3,-413.51"/>
<polygon fill="black" stroke="black" points="3095.19,-417.01 3105.19,-413.51 3095.19,-410.01 3095.19,-417.01"/>
<text text-anchor="middle" x="2780.3" y="-451.95" font-family="Times,serif" font-size="14.00">RCPT/250:230</text>
<text text-anchor="middle" x="2780.3" y="-434.7" font-family="Times,serif" font-size="14.00">a0 in {&#39;TO:&lt;574702257@qq.com&gt;&#39;, &#39;TO:&lt;1542110793@qq.com&gt;&#39;}</text>
<text text-anchor="middle" x="2780.3" y="-417.45" font-family="Times,serif" font-size="14.00">b0 in {&#39;Mail OK&#39;, &#39;ok&#39;}</text>
</g>
<!-- q16:3329 -->
<g id="node10" class="node">
<title>q16:3329</title>
<ellipse fill="none" stroke="black" stroke-width="2" cx="4377.5" cy="-447.51" rx="58.57" ry="18"/>
<text text-anchor="middle" x="4377.5" y="-442.84" font-family="Times,serif" font-size="14.00">q16:3329</text>
</g>
<!-- q11:230&#45;&gt;q16:3329 -->
<g id="edge8" class="edge">
<title>q11:230&#45;&gt;q16:3329</title>
<path fill="none" stroke="black" d="M3199.1,-426.17C3226.4,-434.55 3264.1,-444.81 3298.2,-449.51 3739.7,-510.31 3856.4,-490.69 4301,-458.51 4305,-458.21 4309.2,-457.83 4313.4,-457.38"/>
<polygon fill="black" stroke="black" points="4313.57,-460.88 4323.1,-456.25 4312.76,-453.93 4313.57,-460.88"/>
<text text-anchor="middle" x="3635" y="-509.71" font-family="Times,serif" font-size="14.00">DATA/354:68</text>
<text text-anchor="middle" x="3635" y="-492.46" font-family="Times,serif" font-size="14.00">b0 = End data with &lt;CR&gt;&lt;LF&gt;.&lt;CR&gt;&lt;LF&gt;</text>
</g>
<!-- q15:162 -->
<g id="node11" class="node">
<title>q15:162</title>
<ellipse fill="none" stroke="black" stroke-width="2" cx="3635" cy="-404.51" rx="52.26" ry="18"/>
<text text-anchor="middle" x="3635" y="-399.83" font-family="Times,serif" font-size="14.00">q15:162</text>
</g>
<!-- q11:230&#45;&gt;q15:162 -->
<g id="edge9" class="edge">
<title>q11:230&#45;&gt;q15:162</title>
<path fill="none" stroke="black" d="M3212.8,-412.52C3300.2,-410.86 3476,-407.51 3570.5,-405.71"/>
<polygon fill="black" stroke="black" points="3570.45,-409.21 3580.39,-405.53 3570.32,-402.21 3570.45,-409.21"/>
<text text-anchor="middle" x="3376.6" y="-431.71" font-family="Times,serif" font-size="14.00">RCPT/250:162</text>
<text text-anchor="middle" x="3376.6" y="-414.46" font-family="Times,serif" font-size="14.00">b0 in {&#39;Mail OK&#39;, &#39;ok&#39;}</text>
</g>
<!-- q16:3329&#45;&gt;q16:3329 -->
<g id="edge10" class="edge">
<title>q16:3329&#45;&gt;q16:3329</title>
<path fill="none" stroke="black" d="M4338.6,-461.55C4324,-472.42 4337,-483.51 4377.5,-483.51 4405.4,-483.51 4420.3,-478.27 4422.1,-471.46"/>
<polygon fill="black" stroke="black" points="4425.21,-469.85 4417.24,-462.87 4419.12,-473.3 4425.21,-469.85"/>
<text text-anchor="middle" x="4377.5" y="-504.71" font-family="Times,serif" font-size="14.00">content/λ:3143</text>
<text text-anchor="middle" x="4377.5" y="-487.46" font-family="Times,serif" font-size="14.00">a0 = b0</text>
</g>
<!-- q20:58 -->
<g id="node12" class="node">
<title>q20:58</title>
<ellipse fill="none" stroke="black" stroke-width="2" cx="4848.4" cy="-505.51" rx="45.95" ry="18"/>
<text text-anchor="middle" x="4848.4" y="-500.83" font-family="Times,serif" font-size="14.00">q20:58</text>
</g>
<!-- q16:3329&#45;&gt;q20:58 -->
<g id="edge11" class="edge">
<title>q16:3329&#45;&gt;q20:58</title>
<path fill="none" stroke="black" d="M4406.3,-463.91C4420.1,-471.28 4437.5,-479.26 4454.1,-483.51 4571,-513.38 4713.6,-512.53 4790.9,-509.11"/>
<polygon fill="black" stroke="black" points="4790.96,-512.61 4800.79,-508.64 4790.63,-505.62 4790.96,-512.61"/>
<text text-anchor="middle" x="4616.1" y="-514.46" font-family="Times,serif" font-size="14.00">content/554:58</text>
</g>
<!-- q22:1 -->
<g id="node13" class="node">
<title>q22:1</title>
<ellipse fill="none" stroke="black" stroke-width="2" cx="4848.4" cy="-447.51" rx="39.63" ry="18"/>
<text text-anchor="middle" x="4848.4" y="-442.84" font-family="Times,serif" font-size="14.00">q22:1</text>
</g>
<!-- q16:3329&#45;&gt;q22:1 -->
<g id="edge12" class="edge">
<title>q16:3329&#45;&gt;q22:1</title>
<path fill="none" stroke="black" d="M4437,-447.51C4529.6,-447.51 4708.4,-447.51 4796.2,-447.51"/>
<polygon fill="black" stroke="black" points="4796.29,-451.01 4806.29,-447.51 4796.29,-444.01 4796.29,-451.01"/>
<text text-anchor="middle" x="4616.1" y="-468.71" font-family="Times,serif" font-size="14.00">content/550:1</text>
<text text-anchor="middle" x="4616.1" y="-451.46" font-family="Times,serif" font-size="14.00">b0 = Sender frequency limited.</text>
</g>
<!-- q21:127 -->
<g id="node14" class="node">
<title>q21:127</title>
<ellipse fill="none" stroke="black" stroke-width="2" cx="4848.4" cy="-393.51" rx="52.26" ry="18"/>
<text text-anchor="middle" x="4848.4" y="-388.84" font-family="Times,serif" font-size="14.00">q21:127</text>
</g>
<!-- q16:3329&#45;&gt;q21:127 -->
<g id="edge13" class="edge">
<title>q16:3329&#45;&gt;q21:127</title>
<path fill="none" stroke="black" d="M4420.2,-434.26C4431.1,-431.21 4443,-428.27 4454.1,-426.26 4569.5,-405.43 4706.3,-397.82 4784.4,-395.05"/>
<polygon fill="black" stroke="black" points="4784.01,-398.57 4793.89,-394.73 4783.77,-391.57 4784.01,-398.57"/>
<text text-anchor="middle" x="4616.1" y="-429.45" font-family="Times,serif" font-size="14.00">content/250:127</text>
</g>
<!-- q15:162&#45;&gt;q16:3329 -->
<g id="edge27" class="edge">
<title>q15:162&#45;&gt;q16:3329</title>
<path fill="none" stroke="black" d="M3687.7,-404.21C3822.8,-403.73 4183.3,-404.37 4301,-424.01 4309.6,-425.45 4318.7,-427.65 4327.4,-430.12"/>
<polygon fill="black" stroke="black" points="4326.17,-433.4 4336.75,-432.93 4328.18,-426.7 4326.17,-433.4"/>
<text text-anchor="middle" x="4058" y="-444.71" font-family="Times,serif" font-size="14.00">DATA/354:118</text>
<text text-anchor="middle" x="4058" y="-427.46" font-family="Times,serif" font-size="14.00">b0 = End data with &lt;CR&gt;&lt;LF&gt;.&lt;CR&gt;&lt;LF&gt;</text>
</g>
<!-- q9:10 -->
<g id="node23" class="node">
<title>q9:10</title>
<ellipse fill="none" stroke="black" stroke-width="2" cx="4377.5" cy="-257.51" rx="39.63" ry="18"/>
<text text-anchor="middle" x="4377.5" y="-252.83" font-family="Times,serif" font-size="14.00">q9:10</text>
</g>
<!-- q15:162&#45;&gt;q9:10 -->
<g id="edge28" class="edge">
<title>q15:162&#45;&gt;q9:10</title>
<path fill="none" stroke="black" d="M3687.6,-407.5C3722.9,-406.65 3768.4,-399.39 3797,-371.51 3822.4,-346.75 3787.8,-316.57 3815,-293.76 3856.4,-258.98 4247.1,-272.52 4301,-267.51 4309.6,-266.71 4318.7,-265.66 4327.6,-264.55"/>
<polygon fill="black" stroke="black" points="4327.94,-268.04 4337.4,-263.27 4327.03,-261.09 4327.94,-268.04"/>
<text text-anchor="middle" x="4058" y="-332.95" font-family="Times,serif" font-size="14.00">RCPT/250:1</text>
<text text-anchor="middle" x="4058" y="-315.7" font-family="Times,serif" font-size="14.00">a0 = TO:&lt;1542110795@qq.com&gt;</text>
<text text-anchor="middle" x="4058" y="-298.45" font-family="Times,serif" font-size="14.00">b0 = Mail OK</text>
</g>
<!-- q19:43 -->
<g id="node25" class="node">
<title>q19:43</title>
<ellipse fill="none" stroke="black" stroke-width="2" cx="4377.5" cy="-364.51" rx="45.95" ry="18"/>
<text text-anchor="middle" x="4377.5" y="-359.83" font-family="Times,serif" font-size="14.00">q19:43</text>
</g>
<!-- q15:162&#45;&gt;q19:43 -->
<g id="edge29" class="edge">
<title>q15:162&#45;&gt;q19:43</title>
<path fill="none" stroke="black" d="M3682.7,-396.13C3715,-390.05 3758.8,-381.22 3797,-371.51 3805.1,-369.44 3806.7,-367.25 3815,-366.01 3998.5,-338.34 4219.7,-351 4321,-359.3"/>
<polygon fill="black" stroke="black" points="4320.43,-362.76 4330.69,-360.11 4321.02,-355.79 4320.43,-362.76"/>
<text text-anchor="middle" x="4058" y="-387.71" font-family="Times,serif" font-size="14.00">DATA/550:43</text>
<text text-anchor="middle" x="4058" y="-370.46" font-family="Times,serif" font-size="14.00">b0 in {&#39;too many message send today.&#39;, &#39;Sender frequency limited.&#39;}</text>
</g>
<!-- q24:58 -->
<g id="node15" class="node">
<title>q24:58</title>
<ellipse fill="none" stroke="black" stroke-width="2" cx="7697.1" cy="-505.51" rx="45.95" ry="18"/>
<text text-anchor="middle" x="7697.1" y="-500.83" font-family="Times,serif" font-size="14.00">q24:58</text>
</g>
<!-- q20:58&#45;&gt;q24:58 -->
<g id="edge14" class="edge">
<title>q20:58&#45;&gt;q24:58</title>
<path fill="none" stroke="black" d="M4895.2,-505.51C5228,-505.51 7269.4,-505.51 7638.9,-505.51"/>
<polygon fill="black" stroke="black" points="7638.79,-509.01 7648.79,-505.51 7638.79,-502.01 7638.79,-509.01"/>
<text text-anchor="middle" x="6272.8" y="-526.71" font-family="Times,serif" font-size="14.00">RSET/250:58</text>
<text text-anchor="middle" x="6272.8" y="-509.46" font-family="Times,serif" font-size="14.00">b0 = OK</text>
</g>
<!-- q26:1 -->
<g id="node16" class="node">
<title>q26:1</title>
<ellipse fill="none" stroke="black" stroke-width="2" cx="7697.1" cy="-447.51" rx="39.63" ry="18"/>
<text text-anchor="middle" x="7697.1" y="-442.84" font-family="Times,serif" font-size="14.00">q26:1</text>
</g>
<!-- q22:1&#45;&gt;q26:1 -->
<g id="edge15" class="edge">
<title>q22:1&#45;&gt;q26:1</title>
<path fill="none" stroke="black" d="M4888.8,-447.51C5202.5,-447.51 7291,-447.51 7645.2,-447.51"/>
<polygon fill="black" stroke="black" points="7644.99,-451.01 7654.99,-447.51 7644.99,-444.01 7644.99,-451.01"/>
<text text-anchor="middle" x="6272.8" y="-468.71" font-family="Times,serif" font-size="14.00">RSET/250:1</text>
<text text-anchor="middle" x="6272.8" y="-451.46" font-family="Times,serif" font-size="14.00">a0 = b0</text>
</g>
<!-- q25:127 -->
<g id="node17" class="node">
<title>q25:127</title>
<ellipse fill="none" stroke="black" stroke-width="2" cx="7697.1" cy="-393.51" rx="52.26" ry="18"/>
<text text-anchor="middle" x="7697.1" y="-388.84" font-family="Times,serif" font-size="14.00">q25:127</text>
</g>
<!-- q21:127&#45;&gt;q25:127 -->
<g id="edge16" class="edge">
<title>q21:127&#45;&gt;q25:127</title>
<path fill="none" stroke="black" d="M4901.5,-393.51C5250.9,-393.51 7249.1,-393.51 7632.5,-393.51"/>
<polygon fill="black" stroke="black" points="7632.39,-397.01 7642.39,-393.51 7632.39,-390.01 7632.39,-397.01"/>
<text text-anchor="middle" x="6272.8" y="-397.45" font-family="Times,serif" font-size="14.00">QUIT/221:127</text>
</g>
<!-- q0:244 -->
<g id="node18" class="node">
<title>q0:244</title>
<ellipse fill="none" stroke="black" stroke-width="2" cx="53.95" cy="-386.51" rx="49.95" ry="49.95"/>
<ellipse fill="none" stroke="black" stroke-width="2" cx="53.95" cy="-386.51" rx="53.95" ry="53.95"/>
<text text-anchor="middle" x="53.95" y="-381.83" font-family="Times,serif" font-size="14.00">q0:244</text>
</g>
<!-- q1:244 -->
<g id="node19" class="node">
<title>q1:244</title>
<ellipse fill="none" stroke="black" stroke-width="2" cx="257.84" cy="-386.51" rx="45.95" ry="18"/>
<text text-anchor="middle" x="257.84" y="-381.83" font-family="Times,serif" font-size="14.00">q1:244</text>
</g>
<!-- q0:244&#45;&gt;q1:244 -->
<g id="edge17" class="edge">
<title>q0:244&#45;&gt;q1:244</title>
<path fill="none" stroke="black" d="M104.85,-386.51C133.64,-386.51 169.94,-386.51 199.84,-386.51"/>
<polygon fill="black" stroke="black" points="199.45,-390.01 209.45,-386.51 199.45,-383.01 199.45,-390.01"/>
<text text-anchor="middle" x="157.89" y="-390.45" font-family="Times,serif" font-size="14.00">λ/220:244</text>
</g>
<!-- q2:2 -->
<g id="node20" class="node">
<title>q2:2</title>
<ellipse fill="none" stroke="black" stroke-width="2" cx="501.98" cy="-438.51" rx="33.32" ry="18"/>
<text text-anchor="middle" x="501.98" y="-433.84" font-family="Times,serif" font-size="14.00">q2:2</text>
</g>
<!-- q1:244&#45;&gt;q2:2 -->
<g id="edge18" class="edge">
<title>q1:244&#45;&gt;q2:2</title>
<path fill="none" stroke="black" d="M299.12,-395.53C306.65,-397.2 314.46,-398.91 321.79,-400.51 368.62,-410.68 422.41,-422.04 458.74,-429.67"/>
<polygon fill="black" stroke="black" points="457.9,-433.07 468.41,-431.7 459.34,-426.22 457.9,-433.07"/>
<text text-anchor="middle" x="379.91" y="-445.71" font-family="Times,serif" font-size="14.00">EHLO/λ:2</text>
<text text-anchor="middle" x="379.91" y="-428.46" font-family="Times,serif" font-size="14.00">a0 = [127.0.1.1]</text>
</g>
<!-- q3:242 -->
<g id="node21" class="node">
<title>q3:242</title>
<ellipse fill="none" stroke="black" stroke-width="2" cx="501.98" cy="-359.51" rx="45.95" ry="18"/>
<text text-anchor="middle" x="501.98" y="-354.83" font-family="Times,serif" font-size="14.00">q3:242</text>
</g>
<!-- q1:244&#45;&gt;q3:242 -->
<g id="edge19" class="edge">
<title>q1:244&#45;&gt;q3:242</title>
<path fill="none" stroke="black" d="M302.97,-381.59C343.04,-377.12 402.31,-370.51 445.56,-365.69"/>
<polygon fill="black" stroke="black" points="445.7,-369.2 455.25,-364.61 444.92,-362.24 445.7,-369.2"/>
<text text-anchor="middle" x="379.91" y="-383.45" font-family="Times,serif" font-size="14.00">EHLO/250:242</text>
</g>
<!-- q2:2&#45;&gt;q4:232 -->
<g id="edge20" class="edge">
<title>q2:2&#45;&gt;q4:232</title>
<path fill="none" stroke="black" d="M535.97,-440.36C545.62,-440.83 556.2,-441.27 565.93,-441.51 971.1,-451.52 1459.4,-446.49 1623.5,-444.32"/>
<polygon fill="black" stroke="black" points="1623.23,-447.82 1633.19,-444.19 1623.14,-440.82 1623.23,-447.82"/>
<text text-anchor="middle" x="1091.7" y="-485.95" font-family="Times,serif" font-size="14.00">AUTH/235:2</text>
<text text-anchor="middle" x="1091.7" y="-468.7" font-family="Times,serif" font-size="14.00">a0 in {&#39;PLAIN AEF6NjE2MUBzaW5hLmNvbQA2ZmRiMjVjZmNjODYyZWZj&#39;, &#39;PLAIN AEF6NjE2MUAxMjYuY29tAE1VUVNBT1NUWElURkpDVUU=&#39;}</text>
<text text-anchor="middle" x="1091.7" y="-451.45" font-family="Times,serif" font-size="14.00">b0 in {&#39;Authentication successful&#39;, &#39;OK Authenticated&#39;}</text>
</g>
<!-- q3:242&#45;&gt;q6:11 -->
<g id="edge21" class="edge">
<title>q3:242&#45;&gt;q6:11</title>
<path fill="none" stroke="black" d="M530.68,-344.48C541.37,-339.47 553.91,-334.53 565.93,-332.01 773.09,-288.58 1440.2,-318.29 1629.7,-327.84"/>
<polygon fill="black" stroke="black" points="1629.32,-331.33 1639.49,-328.33 1629.68,-324.33 1629.32,-331.33"/>
<text text-anchor="middle" x="1091.7" y="-353.71" font-family="Times,serif" font-size="14.00">AUTH/535:11</text>
<text text-anchor="middle" x="1091.7" y="-336.46" font-family="Times,serif" font-size="14.00">b0 in {&#39;5.7.8 authentication failed&#39;, &#39;Error: authentication failed&#39;}</text>
</g>
<!-- q3:242&#45;&gt;q4:232 -->
<g id="edge22" class="edge">
<title>q3:242&#45;&gt;q4:232</title>
<path fill="none" stroke="black" d="M546.96,-364.92C553.32,-365.55 559.79,-366.11 565.93,-366.51 624.24,-370.27 1563.2,-364.07 1617.4,-385.76 1633.8,-392.31 1648.6,-405.27 1659.7,-417.25"/>
<polygon fill="black" stroke="black" points="1656.88,-419.34 1666.1,-424.56 1662.15,-414.73 1656.88,-419.34"/>
<text text-anchor="middle" x="1091.7" y="-423.95" font-family="Times,serif" font-size="14.00">AUTH/235:230</text>
<text text-anchor="middle" x="1091.7" y="-406.7" font-family="Times,serif" font-size="14.00">a0 in {&#39;PLAIN AEF6NjE2MUBzaW5hLmNvbQA2ZmRiMjVjZmNjODYyZWZj&#39;, &#39;PLAIN AEF6NjE2MUAxMjYuY29tAE1VUVNBT1NUWElURkpDVUU=&#39;}</text>
<text text-anchor="middle" x="1091.7" y="-389.45" font-family="Times,serif" font-size="14.00">b0 in {&#39;Authentication successful&#39;, &#39;OK Authenticated&#39;}</text>
</g>
<!-- q5:1 -->
<g id="node22" class="node">
<title>q5:1</title>
<ellipse fill="none" stroke="black" stroke-width="2" cx="2078.3" cy="-263.51" rx="33.32" ry="18"/>
<text text-anchor="middle" x="2078.3" y="-258.83" font-family="Times,serif" font-size="14.00">q5:1</text>
</g>
<!-- q3:242&#45;&gt;q5:1 -->
<g id="edge23" class="edge">
<title>q3:242&#45;&gt;q5:1</title>
<path fill="none" stroke="black" d="M510.05,-340.88C519.28,-319.55 537.65,-285.69 565.93,-271.01 1088.1,0 1854.8,-197.91 2037.3,-251.27"/>
<polygon fill="black" stroke="black" points="2036.17,-254.58 2046.75,-254.07 2038.15,-247.87 2036.17,-254.58"/>
<text text-anchor="middle" x="1091.7" y="-292.71" font-family="Times,serif" font-size="14.00">AUTH/λ:1</text>
<text text-anchor="middle" x="1091.7" y="-275.46" font-family="Times,serif" font-size="14.00">a0 = PLAIN AEF6NjE2MUAxMjYuY29tAE1VUVNBT1NUWElURkpDVUU=</text>
</g>
<!-- q5:1&#45;&gt;q9:10 -->
<g id="edge24" class="edge">
<title>q5:1&#45;&gt;q9:10</title>
<path fill="none" stroke="black" d="M2112.5,-262.94C2212.9,-261.27 2522.6,-256.51 2779.3,-256.51 2779.3,-256.51 2779.3,-256.51 3636,-256.51 3895.4,-256.51 4206,-257.13 4325.9,-257.39"/>
<polygon fill="black" stroke="black" points="4325.68,-260.89 4335.69,-257.42 4325.7,-253.89 4325.68,-260.89"/>
<text text-anchor="middle" x="3159.8" y="-294.95" font-family="Times,serif" font-size="14.00">MAIL/250:1</text>
<text text-anchor="middle" x="3159.8" y="-277.7" font-family="Times,serif" font-size="14.00">a0 = FROM:&lt;Az6161@126.com&gt;</text>
<text text-anchor="middle" x="3159.8" y="-260.45" font-family="Times,serif" font-size="14.00">b0 = Mail OK</text>
</g>
<!-- q9:10&#45;&gt;q9:10 -->
<g id="edge25" class="edge">
<title>q9:10&#45;&gt;q9:10</title>
<path fill="none" stroke="black" d="M4344,-268.19C4321.6,-280.01 4332.8,-293.51 4377.5,-293.51 4413.9,-293.51 4428.1,-284.59 4420.1,-274.92"/>
<polygon fill="black" stroke="black" points="4422.42,-272.28 4412.31,-269.1 4418.22,-277.89 4422.42,-272.28"/>
<text text-anchor="middle" x="4377.5" y="-314.71" font-family="Times,serif" font-size="14.00">RCPT/250:8</text>
<text text-anchor="middle" x="4377.5" y="-297.46" font-family="Times,serif" font-size="14.00">b0 = Mail OK</text>
</g>
<!-- q13:2 -->
<g id="node24" class="node">
<title>q13:2</title>
<ellipse fill="none" stroke="black" stroke-width="2" cx="4848.4" cy="-257.51" rx="39.63" ry="18"/>
<text text-anchor="middle" x="4848.4" y="-252.83" font-family="Times,serif" font-size="14.00">q13:2</text>
</g>
<!-- q9:10&#45;&gt;q13:2 -->
<g id="edge26" class="edge">
<title>q9:10&#45;&gt;q13:2</title>
<path fill="none" stroke="black" d="M4418.1,-257.51C4502.9,-257.51 4702,-257.51 4796.3,-257.51"/>
<polygon fill="black" stroke="black" points="4796.19,-261.01 4806.19,-257.51 4796.19,-254.01 4796.19,-261.01"/>
<text text-anchor="middle" x="4616.1" y="-278.71" font-family="Times,serif" font-size="14.00">DATA/354:2</text>
<text text-anchor="middle" x="4616.1" y="-261.46" font-family="Times,serif" font-size="14.00">b0 = End data with &lt;CR&gt;&lt;LF&gt;.&lt;CR&gt;&lt;LF&gt;</text>
</g>
<!-- q17:2 -->
<g id="node26" class="node">
<title>q17:2</title>
<ellipse fill="none" stroke="black" stroke-width="2" cx="7697.1" cy="-257.51" rx="39.63" ry="18"/>
<text text-anchor="middle" x="7697.1" y="-252.83" font-family="Times,serif" font-size="14.00">q17:2</text>
</g>
<!-- q13:2&#45;&gt;q17:2 -->
<g id="edge30" class="edge">
<title>q13:2&#45;&gt;q17:2</title>
<path fill="none" stroke="black" d="M4888.8,-257.51C5202.5,-257.51 7291,-257.51 7645.2,-257.51"/>
<polygon fill="black" stroke="black" points="7644.99,-261.01 7654.99,-257.51 7644.99,-254.01 7644.99,-261.01"/>
<text text-anchor="middle" x="6272.8" y="-278.71" font-family="Times,serif" font-size="14.00">content/554:2</text>
<text text-anchor="middle" x="6272.8" y="-261.46" font-family="Times,serif" font-size="14.00">b0 in {&#39;DT:SPM 126 smtp1 C8mowADH5Esw115fG8oyJg&#45;&#45;.21072S2 1600050992 please see http://mail.163.com/help/help_spam_16.htm?ip=222.171.178.8&amp;hostid=smtp1&amp;time=1600050992&#39;, &#39;DT:SPM 126 smtp7 DsmowACXz3c_1F5f4PIUJQ&#45;&#45;.10013S2 1600050240 please see http://mail.163.com/help/help_spam_16.htm?ip=222.171.178.8&amp;hostid=smtp7&amp;time=1600050240&#39;}</text>
</g>
<!-- q23:2 -->
<g id="node27" class="node">
<title>q23:2</title>
<ellipse fill="none" stroke="black" stroke-width="2" cx="7909.8" cy="-257.51" rx="39.63" ry="18"/>
<text text-anchor="middle" x="7909.8" y="-252.83" font-family="Times,serif" font-size="14.00">q23:2</text>
</g>
<!-- q17:2&#45;&gt;q23:2 -->
<g id="edge31" class="edge">
<title>q17:2&#45;&gt;q23:2</title>
<path fill="none" stroke="black" d="M7737.8,-257.51C7771.9,-257.51 7821.4,-257.51 7858.3,-257.51"/>
<polygon fill="black" stroke="black" points="7857.79,-261.01 7867.79,-257.51 7857.79,-254.01 7857.79,-261.01"/>
<text text-anchor="middle" x="7809.8" y="-278.71" font-family="Times,serif" font-size="14.00">RSET/250:2</text>
<text text-anchor="middle" x="7809.8" y="-261.46" font-family="Times,serif" font-size="14.00">b0 = OK</text>
</g>
</g>
</svg>
