<?xml version="1.0" encoding="UTF-8" standalone="no"?>
<!DOCTYPE svg PUBLIC "-//W3C//DTD SVG 1.1//EN"
 "http://www.w3.org/Graphics/SVG/1.1/DTD/svg11.dtd">
<!-- Generated by graphviz version 12.0.0 (20240803.0821)
 -->
<!-- Pages: 1 -->
<svg width="2424pt" height="366pt"
 viewBox="0.00 0.00 2423.93 366.25" xmlns="http://www.w3.org/2000/svg" xmlns:xlink="http://www.w3.org/1999/xlink">
<g id="graph0" class="graph" transform="scale(1 1) rotate(0) translate(4 362.25)">
<polygon fill="white" stroke="none" points="-4,4 -4,-362.25 2419.93,-362.25 2419.93,4 -4,4"/>
<!-- q16:163 -->
<g id="node1" class="node">
<title>q16:163</title>
<ellipse fill="none" stroke="black" stroke-width="2" cx="1439.8" cy="-72" rx="52.26" ry="18"/>
<text text-anchor="middle" x="1439.8" y="-67.33" font-family="Times,serif" font-size="14.00">q16:163</text>
</g>
<!-- q16:163&#45;&gt;q16:163 -->
<g id="edge1" class="edge">
<title>q16:163&#45;&gt;q16:163</title>
<path fill="none" stroke="black" d="M1418.2,-89.04C1413.8,-98.86 1421,-108 1439.8,-108 1450.6,-108 1457.6,-104.94 1460.7,-100.47"/>
<polygon fill="black" stroke="black" points="1464.19,-100.72 1461.22,-90.55 1457.2,-100.35 1464.19,-100.72"/>
<text text-anchor="middle" x="1439.8" y="-111.95" font-family="Times,serif" font-size="14.00">content/λ:74</text>
</g>
<!-- q22:24 -->
<g id="node2" class="node">
<title>q22:24</title>
<ellipse fill="none" stroke="black" stroke-width="2" cx="1694.6" cy="-72" rx="45.95" ry="18"/>
<text text-anchor="middle" x="1694.6" y="-67.33" font-family="Times,serif" font-size="14.00">q22:24</text>
</g>
<!-- q16:163&#45;&gt;q22:24 -->
<g id="edge2" class="edge">
<title>q16:163&#45;&gt;q22:24</title>
<path fill="none" stroke="black" d="M1492.8,-72C1534.7,-72 1593.4,-72 1636.5,-72"/>
<polygon fill="black" stroke="black" points="1636.39,-75.5 1646.39,-72 1636.39,-68.5 1636.39,-75.5"/>
<text text-anchor="middle" x="1564" y="-75.95" font-family="Times,serif" font-size="14.00">content/250:24</text>
</g>
<!-- q21:65 -->
<g id="node3" class="node">
<title>q21:65</title>
<ellipse fill="none" stroke="black" stroke-width="2" cx="1694.6" cy="-18" rx="45.95" ry="18"/>
<text text-anchor="middle" x="1694.6" y="-13.32" font-family="Times,serif" font-size="14.00">q21:65</text>
</g>
<!-- q16:163&#45;&gt;q21:65 -->
<g id="edge3" class="edge">
<title>q16:163&#45;&gt;q21:65</title>
<path fill="none" stroke="black" d="M1479,-59.36C1489,-56.3 1499.9,-53.2 1510,-50.75 1553.1,-40.34 1602.6,-31.7 1639.3,-25.92"/>
<polygon fill="black" stroke="black" points="1639.46,-29.43 1648.8,-24.45 1638.39,-22.52 1639.46,-29.43"/>
<text text-anchor="middle" x="1564" y="-54.95" font-family="Times,serif" font-size="14.00">content/554:65</text>
</g>
<!-- q28:24 -->
<g id="node4" class="node">
<title>q28:24</title>
<ellipse fill="none" stroke="black" stroke-width="2" cx="1943.1" cy="-72" rx="45.95" ry="18"/>
<text text-anchor="middle" x="1943.1" y="-67.33" font-family="Times,serif" font-size="14.00">q28:24</text>
</g>
<!-- q22:24&#45;&gt;q28:24 -->
<g id="edge4" class="edge">
<title>q22:24&#45;&gt;q28:24</title>
<path fill="none" stroke="black" d="M1741.4,-72C1782,-72 1841.6,-72 1885.3,-72"/>
<polygon fill="black" stroke="black" points="1885.09,-75.5 1895.09,-72 1885.09,-68.5 1885.09,-75.5"/>
<text text-anchor="middle" x="1825.2" y="-75.95" font-family="Times,serif" font-size="14.00">QUIT/221:24</text>
</g>
<!-- q27:65 -->
<g id="node5" class="node">
<title>q27:65</title>
<ellipse fill="none" stroke="black" stroke-width="2" cx="1943.1" cy="-18" rx="45.95" ry="18"/>
<text text-anchor="middle" x="1943.1" y="-13.32" font-family="Times,serif" font-size="14.00">q27:65</text>
</g>
<!-- q21:65&#45;&gt;q27:65 -->
<g id="edge5" class="edge">
<title>q21:65&#45;&gt;q27:65</title>
<path fill="none" stroke="black" d="M1741.4,-18C1782,-18 1841.6,-18 1885.3,-18"/>
<polygon fill="black" stroke="black" points="1885.09,-21.5 1895.09,-18 1885.09,-14.5 1885.09,-21.5"/>
<text text-anchor="middle" x="1825.2" y="-21.95" font-family="Times,serif" font-size="14.00">RSET/250:65</text>
</g>
<!-- q19:2504 -->
<g id="node6" class="node">
<title>q19:2504</title>
<ellipse fill="none" stroke="black" stroke-width="2" cx="1694.6" cy="-153" rx="58.57" ry="18"/>
<text text-anchor="middle" x="1694.6" y="-148.32" font-family="Times,serif" font-size="14.00">q19:2504</text>
</g>
<!-- q19:2504&#45;&gt;q19:2504 -->
<g id="edge6" class="edge">
<title>q19:2504&#45;&gt;q19:2504</title>
<path fill="none" stroke="black" d="M1671.3,-170.41C1666.9,-180.09 1674.7,-189 1694.6,-189 1706.1,-189 1713.5,-186.02 1716.9,-181.64"/>
<polygon fill="black" stroke="black" points="1720.36,-182.19 1717.77,-171.92 1713.39,-181.57 1720.36,-182.19"/>
<text text-anchor="middle" x="1694.6" y="-192.94" font-family="Times,serif" font-size="14.00">content/λ:2408</text>
</g>
<!-- q25:7 -->
<g id="node7" class="node">
<title>q25:7</title>
<ellipse fill="none" stroke="black" stroke-width="2" cx="1943.1" cy="-126" rx="39.63" ry="18"/>
<text text-anchor="middle" x="1943.1" y="-121.33" font-family="Times,serif" font-size="14.00">q25:7</text>
</g>
<!-- q19:2504&#45;&gt;q25:7 -->
<g id="edge7" class="edge">
<title>q19:2504&#45;&gt;q25:7</title>
<path fill="none" stroke="black" d="M1738.8,-140.37C1749.3,-137.75 1760.6,-135.32 1771.2,-133.75 1811.3,-127.79 1857.2,-125.99 1891.4,-125.6"/>
<polygon fill="black" stroke="black" points="1891.01,-129.1 1900.99,-125.53 1890.96,-122.1 1891.01,-129.1"/>
<text text-anchor="middle" x="1825.2" y="-136.94" font-family="Times,serif" font-size="14.00">content/554:7</text>
</g>
<!-- q26:1 -->
<g id="node8" class="node">
<title>q26:1</title>
<ellipse fill="none" stroke="black" stroke-width="2" cx="1943.1" cy="-234" rx="39.63" ry="18"/>
<text text-anchor="middle" x="1943.1" y="-229.32" font-family="Times,serif" font-size="14.00">q26:1</text>
</g>
<!-- q19:2504&#45;&gt;q26:1 -->
<g id="edge8" class="edge">
<title>q19:2504&#45;&gt;q26:1</title>
<path fill="none" stroke="black" d="M1722.8,-169.54C1736.8,-177.52 1754.5,-186.71 1771.2,-193 1811.3,-208.16 1858.9,-219.04 1893.7,-225.76"/>
<polygon fill="black" stroke="black" points="1893.04,-229.2 1903.51,-227.6 1894.33,-222.32 1893.04,-229.2"/>
<text text-anchor="middle" x="1825.2" y="-225.94" font-family="Times,serif" font-size="14.00">content/550:1</text>
</g>
<!-- q24:88 -->
<g id="node9" class="node">
<title>q24:88</title>
<ellipse fill="none" stroke="black" stroke-width="2" cx="1943.1" cy="-180" rx="45.95" ry="18"/>
<text text-anchor="middle" x="1943.1" y="-175.32" font-family="Times,serif" font-size="14.00">q24:88</text>
</g>
<!-- q19:2504&#45;&gt;q24:88 -->
<g id="edge9" class="edge">
<title>q19:2504&#45;&gt;q24:88</title>
<path fill="none" stroke="black" d="M1750.9,-159.06C1791.4,-163.5 1846.2,-169.5 1886.7,-173.94"/>
<polygon fill="black" stroke="black" points="1886.17,-177.4 1896.49,-175.01 1886.93,-170.44 1886.17,-177.4"/>
<text text-anchor="middle" x="1825.2" y="-175.94" font-family="Times,serif" font-size="14.00">content/250:88</text>
</g>
<!-- q30:7 -->
<g id="node10" class="node">
<title>q30:7</title>
<ellipse fill="none" stroke="black" stroke-width="2" cx="2170" cy="-126" rx="39.63" ry="18"/>
<text text-anchor="middle" x="2170" y="-121.33" font-family="Times,serif" font-size="14.00">q30:7</text>
</g>
<!-- q25:7&#45;&gt;q30:7 -->
<g id="edge10" class="edge">
<title>q25:7&#45;&gt;q30:7</title>
<path fill="none" stroke="black" d="M1983.5,-126C2021,-126 2077.5,-126 2118.3,-126"/>
<polygon fill="black" stroke="black" points="2118.09,-129.5 2128.09,-126 2118.09,-122.5 2118.09,-129.5"/>
<text text-anchor="middle" x="2056.6" y="-129.94" font-family="Times,serif" font-size="14.00">RSET/250:7</text>
</g>
<!-- q31:1 -->
<g id="node11" class="node">
<title>q31:1</title>
<ellipse fill="none" stroke="black" stroke-width="2" cx="2170" cy="-234" rx="39.63" ry="18"/>
<text text-anchor="middle" x="2170" y="-229.32" font-family="Times,serif" font-size="14.00">q31:1</text>
</g>
<!-- q26:1&#45;&gt;q31:1 -->
<g id="edge11" class="edge">
<title>q26:1&#45;&gt;q31:1</title>
<path fill="none" stroke="black" d="M1983.5,-234C2021,-234 2077.5,-234 2118.3,-234"/>
<polygon fill="black" stroke="black" points="2118.09,-237.5 2128.09,-234 2118.09,-230.5 2118.09,-237.5"/>
<text text-anchor="middle" x="2056.6" y="-237.94" font-family="Times,serif" font-size="14.00">RSET/250:1</text>
</g>
<!-- q29:88 -->
<g id="node12" class="node">
<title>q29:88</title>
<ellipse fill="none" stroke="black" stroke-width="2" cx="2170" cy="-180" rx="45.95" ry="18"/>
<text text-anchor="middle" x="2170" y="-175.32" font-family="Times,serif" font-size="14.00">q29:88</text>
</g>
<!-- q24:88&#45;&gt;q29:88 -->
<g id="edge12" class="edge">
<title>q24:88&#45;&gt;q29:88</title>
<path fill="none" stroke="black" d="M1989.9,-180C2025.2,-180 2074.1,-180 2111.9,-180"/>
<polygon fill="black" stroke="black" points="2111.79,-183.5 2121.79,-180 2111.79,-176.5 2111.79,-183.5"/>
<text text-anchor="middle" x="2056.6" y="-183.94" font-family="Times,serif" font-size="14.00">QUIT/221:88</text>
</g>
<!-- q15:140 -->
<g id="node13" class="node">
<title>q15:140</title>
<ellipse fill="none" stroke="black" stroke-width="2" cx="1439.8" cy="-192" rx="52.26" ry="18"/>
<text text-anchor="middle" x="1439.8" y="-187.32" font-family="Times,serif" font-size="14.00">q15:140</text>
</g>
<!-- q15:140&#45;&gt;q19:2504 -->
<g id="edge13" class="edge">
<title>q15:140&#45;&gt;q19:2504</title>
<path fill="none" stroke="black" d="M1488.6,-184.62C1528.6,-178.44 1586.1,-169.58 1630,-162.81"/>
<polygon fill="black" stroke="black" points="1630.26,-166.31 1639.6,-161.32 1629.19,-159.39 1630.26,-166.31"/>
<text text-anchor="middle" x="1564" y="-183.94" font-family="Times,serif" font-size="14.00">DATA/354:96</text>
</g>
<!-- q10:10 -->
<g id="node14" class="node">
<title>q10:10</title>
<ellipse fill="none" stroke="black" stroke-width="2" cx="1694.6" cy="-305" rx="45.95" ry="18"/>
<text text-anchor="middle" x="1694.6" y="-300.32" font-family="Times,serif" font-size="14.00">q10:10</text>
</g>
<!-- q15:140&#45;&gt;q10:10 -->
<g id="edge14" class="edge">
<title>q15:140&#45;&gt;q10:10</title>
<path fill="none" stroke="black" d="M1465.9,-208.38C1474.4,-214.26 1483.9,-221.14 1492,-228 1500.7,-235.28 1500.3,-240.23 1510,-246 1553,-271.54 1570.5,-262.2 1618,-277.75 1628.1,-281.06 1638.9,-284.82 1649.1,-288.47"/>
<polygon fill="black" stroke="black" points="1647.88,-291.75 1658.48,-291.85 1650.25,-285.17 1647.88,-291.75"/>
<text text-anchor="middle" x="1564" y="-280.94" font-family="Times,serif" font-size="14.00">RCPT/250:1</text>
</g>
<!-- q20:43 -->
<g id="node15" class="node">
<title>q20:43</title>
<ellipse fill="none" stroke="black" stroke-width="2" cx="1694.6" cy="-242" rx="45.95" ry="18"/>
<text text-anchor="middle" x="1694.6" y="-237.32" font-family="Times,serif" font-size="14.00">q20:43</text>
</g>
<!-- q15:140&#45;&gt;q20:43 -->
<g id="edge15" class="edge">
<title>q15:140&#45;&gt;q20:43</title>
<path fill="none" stroke="black" d="M1486.5,-201.05C1530.1,-209.67 1595.6,-222.61 1641.2,-231.64"/>
<polygon fill="black" stroke="black" points="1640.33,-235.03 1650.81,-233.55 1641.69,-228.17 1640.33,-235.03"/>
<text text-anchor="middle" x="1564" y="-228.94" font-family="Times,serif" font-size="14.00">DATA/550:43</text>
</g>
<!-- q10:10&#45;&gt;q10:10 -->
<g id="edge16" class="edge">
<title>q10:10&#45;&gt;q10:10</title>
<path fill="none" stroke="black" d="M1671.8,-321.29C1666.3,-331.39 1673.9,-341 1694.6,-341 1706.8,-341 1714.5,-337.61 1717.6,-332.74"/>
<polygon fill="black" stroke="black" points="1721.1,-332.71 1717.34,-322.8 1714.1,-332.89 1721.1,-332.71"/>
<text text-anchor="middle" x="1694.6" y="-344.94" font-family="Times,serif" font-size="14.00">RCPT/250:8</text>
</g>
<!-- q14:2 -->
<g id="node16" class="node">
<title>q14:2</title>
<ellipse fill="none" stroke="black" stroke-width="2" cx="1943.1" cy="-305" rx="39.63" ry="18"/>
<text text-anchor="middle" x="1943.1" y="-300.32" font-family="Times,serif" font-size="14.00">q14:2</text>
</g>
<!-- q10:10&#45;&gt;q14:2 -->
<g id="edge17" class="edge">
<title>q10:10&#45;&gt;q14:2</title>
<path fill="none" stroke="black" d="M1741.4,-305C1783.9,-305 1847.2,-305 1891.3,-305"/>
<polygon fill="black" stroke="black" points="1891.19,-308.5 1901.19,-305 1891.19,-301.5 1891.19,-308.5"/>
<text text-anchor="middle" x="1825.2" y="-308.94" font-family="Times,serif" font-size="14.00">DATA/354:2</text>
</g>
<!-- q18:2 -->
<g id="node17" class="node">
<title>q18:2</title>
<ellipse fill="none" stroke="black" stroke-width="2" cx="2170" cy="-305" rx="39.63" ry="18"/>
<text text-anchor="middle" x="2170" y="-300.32" font-family="Times,serif" font-size="14.00">q18:2</text>
</g>
<!-- q14:2&#45;&gt;q18:2 -->
<g id="edge18" class="edge">
<title>q14:2&#45;&gt;q18:2</title>
<path fill="none" stroke="black" d="M1983.5,-305C2021,-305 2077.5,-305 2118.3,-305"/>
<polygon fill="black" stroke="black" points="2118.09,-308.5 2128.09,-305 2118.09,-301.5 2118.09,-308.5"/>
<text text-anchor="middle" x="2056.6" y="-308.94" font-family="Times,serif" font-size="14.00">content/554:2</text>
</g>
<!-- q23:2 -->
<g id="node18" class="node">
<title>q23:2</title>
<ellipse fill="none" stroke="black" stroke-width="2" cx="2376.3" cy="-305" rx="39.63" ry="18"/>
<text text-anchor="middle" x="2376.3" y="-300.32" font-family="Times,serif" font-size="14.00">q23:2</text>
</g>
<!-- q18:2&#45;&gt;q23:2 -->
<g id="edge19" class="edge">
<title>q18:2&#45;&gt;q23:2</title>
<path fill="none" stroke="black" d="M2210.4,-305C2242.8,-305 2289,-305 2324.2,-305"/>
<polygon fill="black" stroke="black" points="2324.19,-308.5 2334.19,-305 2324.19,-301.5 2324.19,-308.5"/>
<text text-anchor="middle" x="2276.3" y="-308.94" font-family="Times,serif" font-size="14.00">RSET/250:2</text>
</g>
<!-- q9:12 -->
<g id="node19" class="node">
<title>q9:12</title>
<ellipse fill="none" stroke="black" stroke-width="2" cx="954.27" cy="-255" rx="39.63" ry="18"/>
<text text-anchor="middle" x="954.27" y="-250.32" font-family="Times,serif" font-size="14.00">q9:12</text>
</g>
<!-- q13:12 -->
<g id="node20" class="node">
<title>q13:12</title>
<ellipse fill="none" stroke="black" stroke-width="2" cx="1196.5" cy="-255" rx="45.95" ry="18"/>
<text text-anchor="middle" x="1196.5" y="-250.32" font-family="Times,serif" font-size="14.00">q13:12</text>
</g>
<!-- q9:12&#45;&gt;q13:12 -->
<g id="edge20" class="edge">
<title>q9:12&#45;&gt;q13:12</title>
<path fill="none" stroke="black" d="M994.67,-255C1033.8,-255 1094.1,-255 1138.4,-255"/>
<polygon fill="black" stroke="black" points="1138.39,-258.5 1148.39,-255 1138.39,-251.5 1138.39,-258.5"/>
<text text-anchor="middle" x="1072.2" y="-258.94" font-family="Times,serif" font-size="14.00">content/535:12</text>
</g>
<!-- q17:3 -->
<g id="node21" class="node">
<title>q17:3</title>
<ellipse fill="none" stroke="black" stroke-width="2" cx="1439.8" cy="-255" rx="39.63" ry="18"/>
<text text-anchor="middle" x="1439.8" y="-250.32" font-family="Times,serif" font-size="14.00">q17:3</text>
</g>
<!-- q13:12&#45;&gt;q17:3 -->
<g id="edge21" class="edge">
<title>q13:12&#45;&gt;q17:3</title>
<path fill="none" stroke="black" d="M1243.1,-255C1284.4,-255 1345.2,-255 1388,-255"/>
<polygon fill="black" stroke="black" points="1387.79,-258.5 1397.79,-255 1387.79,-251.5 1387.79,-258.5"/>
<text text-anchor="middle" x="1318.1" y="-258.94" font-family="Times,serif" font-size="14.00">λ/451:3</text>
</g>
<!-- q1:244 -->
<g id="node22" class="node">
<title>q1:244</title>
<ellipse fill="none" stroke="black" stroke-width="2" cx="257.84" cy="-221" rx="45.95" ry="18"/>
<text text-anchor="middle" x="257.84" y="-216.32" font-family="Times,serif" font-size="14.00">q1:244</text>
</g>
<!-- q2:242 -->
<g id="node23" class="node">
<title>q2:242</title>
<ellipse fill="none" stroke="black" stroke-width="2" cx="491.48" cy="-254" rx="45.95" ry="18"/>
<text text-anchor="middle" x="491.48" y="-249.32" font-family="Times,serif" font-size="14.00">q2:242</text>
</g>
<!-- q1:244&#45;&gt;q2:242 -->
<g id="edge22" class="edge">
<title>q1:244&#45;&gt;q2:242</title>
<path fill="none" stroke="black" d="M302.14,-227.17C340,-232.56 395.17,-240.42 436.02,-246.24"/>
<polygon fill="black" stroke="black" points="435.51,-249.7 445.9,-247.65 436.49,-242.77 435.51,-249.7"/>
<text text-anchor="middle" x="374.66" y="-247.94" font-family="Times,serif" font-size="14.00">EHLO/250:242</text>
</g>
<!-- q3:2 -->
<g id="node24" class="node">
<title>q3:2</title>
<ellipse fill="none" stroke="black" stroke-width="2" cx="491.48" cy="-194" rx="33.32" ry="18"/>
<text text-anchor="middle" x="491.48" y="-189.32" font-family="Times,serif" font-size="14.00">q3:2</text>
</g>
<!-- q1:244&#45;&gt;q3:2 -->
<g id="edge23" class="edge">
<title>q1:244&#45;&gt;q3:2</title>
<path fill="none" stroke="black" d="M296.21,-210.12C304.56,-208.03 313.43,-206.08 321.79,-204.75 363.53,-198.09 411.69,-195.52 445.85,-194.55"/>
<polygon fill="black" stroke="black" points="445.88,-198.05 455.8,-194.31 445.71,-191.05 445.88,-198.05"/>
<text text-anchor="middle" x="374.66" y="-207.94" font-family="Times,serif" font-size="14.00">EHLO/λ:2</text>
</g>
<!-- q5:12 -->
<g id="node25" class="node">
<title>q5:12</title>
<ellipse fill="none" stroke="black" stroke-width="2" cx="725.13" cy="-257" rx="39.63" ry="18"/>
<text text-anchor="middle" x="725.13" y="-252.32" font-family="Times,serif" font-size="14.00">q5:12</text>
</g>
<!-- q2:242&#45;&gt;q5:12 -->
<g id="edge24" class="edge">
<title>q2:242&#45;&gt;q5:12</title>
<path fill="none" stroke="black" d="M538.25,-254.59C577.13,-255.1 632.89,-255.82 673.18,-256.34"/>
<polygon fill="black" stroke="black" points="673.07,-259.84 683.12,-256.47 673.16,-252.84 673.07,-259.84"/>
<text text-anchor="middle" x="608.31" y="-259.94" font-family="Times,serif" font-size="14.00">AUTH/535:12</text>
</g>
<!-- q4:231 -->
<g id="node26" class="node">
<title>q4:231</title>
<ellipse fill="none" stroke="black" stroke-width="2" cx="725.13" cy="-187" rx="45.95" ry="18"/>
<text text-anchor="middle" x="725.13" y="-182.32" font-family="Times,serif" font-size="14.00">q4:231</text>
</g>
<!-- q2:242&#45;&gt;q4:231 -->
<g id="edge25" class="edge">
<title>q2:242&#45;&gt;q4:231</title>
<path fill="none" stroke="black" d="M527.32,-241.82C536.44,-238.75 546.27,-235.54 555.43,-232.75 595.08,-220.69 640.43,-208.48 674.12,-199.71"/>
<polygon fill="black" stroke="black" points="674.8,-203.15 683.6,-197.25 673.05,-196.37 674.8,-203.15"/>
<text text-anchor="middle" x="608.31" y="-235.94" font-family="Times,serif" font-size="14.00">AUTH/235:229</text>
</g>
<!-- q6:1 -->
<g id="node27" class="node">
<title>q6:1</title>
<ellipse fill="none" stroke="black" stroke-width="2" cx="839.7" cy="-308" rx="33.32" ry="18"/>
<text text-anchor="middle" x="839.7" y="-303.32" font-family="Times,serif" font-size="14.00">q6:1</text>
</g>
<!-- q2:242&#45;&gt;q6:1 -->
<g id="edge26" class="edge">
<title>q2:242&#45;&gt;q6:1</title>
<path fill="none" stroke="black" d="M524.38,-267.34C534.19,-270.99 545.12,-274.59 555.43,-277 638.41,-296.4 737.97,-303.73 794.23,-306.45"/>
<polygon fill="black" stroke="black" points="793.89,-309.94 804.04,-306.89 794.21,-302.95 793.89,-309.94"/>
<text text-anchor="middle" x="608.31" y="-298.94" font-family="Times,serif" font-size="14.00">AUTH/λ:1</text>
</g>
<!-- q3:2&#45;&gt;q4:231 -->
<g id="edge27" class="edge">
<title>q3:2&#45;&gt;q4:231</title>
<path fill="none" stroke="black" d="M523.05,-186.83C533.28,-184.75 544.79,-182.78 555.43,-181.75 593,-178.13 635.47,-179.48 668.4,-181.72"/>
<polygon fill="black" stroke="black" points="667.89,-185.19 678.12,-182.43 668.4,-178.21 667.89,-185.19"/>
<text text-anchor="middle" x="608.31" y="-184.94" font-family="Times,serif" font-size="14.00">AUTH/235:2</text>
</g>
<!-- q5:12&#45;&gt;q9:12 -->
<g id="edge28" class="edge">
<title>q5:12&#45;&gt;q9:12</title>
<path fill="none" stroke="black" d="M765.69,-256.65C803.6,-256.32 861,-255.81 902.32,-255.45"/>
<polygon fill="black" stroke="black" points="902.3,-258.95 912.27,-255.36 902.24,-251.95 902.3,-258.95"/>
<text text-anchor="middle" x="839.7" y="-259.94" font-family="Times,serif" font-size="14.00">AUTH/334:12</text>
</g>
<!-- q8:229 -->
<g id="node28" class="node">
<title>q8:229</title>
<ellipse fill="none" stroke="black" stroke-width="2" cx="954.27" cy="-147" rx="45.95" ry="18"/>
<text text-anchor="middle" x="954.27" y="-142.32" font-family="Times,serif" font-size="14.00">q8:229</text>
</g>
<!-- q4:231&#45;&gt;q8:229 -->
<g id="edge29" class="edge">
<title>q4:231&#45;&gt;q8:229</title>
<path fill="none" stroke="black" d="M763.21,-175.98C771.67,-173.71 780.64,-171.48 789.08,-169.75 824.85,-162.4 865.51,-156.75 897.42,-152.91"/>
<polygon fill="black" stroke="black" points="897.72,-156.4 907.25,-151.76 896.91,-149.45 897.72,-156.4"/>
<text text-anchor="middle" x="839.7" y="-172.94" font-family="Times,serif" font-size="14.00">MAIL/250:229</text>
</g>
<!-- q7:2 -->
<g id="node29" class="node">
<title>q7:2</title>
<ellipse fill="none" stroke="black" stroke-width="2" cx="954.27" cy="-201" rx="33.32" ry="18"/>
<text text-anchor="middle" x="954.27" y="-196.32" font-family="Times,serif" font-size="14.00">q7:2</text>
</g>
<!-- q4:231&#45;&gt;q7:2 -->
<g id="edge30" class="edge">
<title>q4:231&#45;&gt;q7:2</title>
<path fill="none" stroke="black" d="M771.55,-189.8C811.53,-192.26 869.38,-195.83 909.01,-198.27"/>
<polygon fill="black" stroke="black" points="908.72,-201.76 918.92,-198.89 909.16,-194.77 908.72,-201.76"/>
<text text-anchor="middle" x="839.7" y="-199.94" font-family="Times,serif" font-size="14.00">MAIL/553:2</text>
</g>
<!-- q6:1&#45;&gt;q10:10 -->
<g id="edge31" class="edge">
<title>q6:1&#45;&gt;q10:10</title>
<path fill="none" stroke="black" d="M873.91,-308.23C918.71,-308.53 1000.98,-309 1071.2,-309 1071.2,-309 1071.2,-309 1440.8,-309 1508,-309 1585.2,-307.57 1636.4,-306.42"/>
<polygon fill="black" stroke="black" points="1636.47,-309.92 1646.39,-306.19 1636.31,-302.92 1636.47,-309.92"/>
<text text-anchor="middle" x="1196.5" y="-312.94" font-family="Times,serif" font-size="14.00">MAIL/250:1</text>
</g>
<!-- q12:229 -->
<g id="node30" class="node">
<title>q12:229</title>
<ellipse fill="none" stroke="black" stroke-width="2" cx="1196.5" cy="-147" rx="52.26" ry="18"/>
<text text-anchor="middle" x="1196.5" y="-142.32" font-family="Times,serif" font-size="14.00">q12:229</text>
</g>
<!-- q8:229&#45;&gt;q12:229 -->
<g id="edge32" class="edge">
<title>q8:229&#45;&gt;q12:229</title>
<path fill="none" stroke="black" d="M1001.02,-147C1038.1,-147 1090.8,-147 1131.9,-147"/>
<polygon fill="black" stroke="black" points="1131.69,-150.5 1141.69,-147 1131.69,-143.5 1131.69,-150.5"/>
<text text-anchor="middle" x="1072.2" y="-150.94" font-family="Times,serif" font-size="14.00">RCPT/250:229</text>
</g>
<!-- q11:2 -->
<g id="node31" class="node">
<title>q11:2</title>
<ellipse fill="none" stroke="black" stroke-width="2" cx="1196.5" cy="-201" rx="39.63" ry="18"/>
<text text-anchor="middle" x="1196.5" y="-196.32" font-family="Times,serif" font-size="14.00">q11:2</text>
</g>
<!-- q7:2&#45;&gt;q11:2 -->
<g id="edge33" class="edge">
<title>q7:2&#45;&gt;q11:2</title>
<path fill="none" stroke="black" d="M988.42,-201C1028.8,-201 1097.3,-201 1144.4,-201"/>
<polygon fill="black" stroke="black" points="1144.39,-204.5 1154.39,-201 1144.39,-197.5 1144.39,-204.5"/>
<text text-anchor="middle" x="1072.2" y="-204.94" font-family="Times,serif" font-size="14.00">RSET/250:2</text>
</g>
<!-- q12:229&#45;&gt;q16:163 -->
<g id="edge34" class="edge">
<title>q12:229&#45;&gt;q16:163</title>
<path fill="none" stroke="black" d="M1237.1,-134.7C1278.5,-121.83 1343.6,-101.58 1388.6,-87.6"/>
<polygon fill="black" stroke="black" points="1389.64,-90.94 1398.15,-84.63 1387.57,-84.25 1389.64,-90.94"/>
<text text-anchor="middle" x="1318.1" y="-127.95" font-family="Times,serif" font-size="14.00">DATA/354:89</text>
</g>
<!-- q12:229&#45;&gt;q15:140 -->
<g id="edge35" class="edge">
<title>q12:229&#45;&gt;q15:140</title>
<path fill="none" stroke="black" d="M1243.7,-155.62C1282.9,-162.94 1339.4,-173.47 1381.5,-181.32"/>
<polygon fill="black" stroke="black" points="1380.74,-184.74 1391.21,-183.13 1382.02,-177.86 1380.74,-184.74"/>
<text text-anchor="middle" x="1318.1" y="-181.94" font-family="Times,serif" font-size="14.00">RCPT/250:140</text>
</g>
<!-- q0:244 -->
<g id="node32" class="node">
<title>q0:244</title>
<ellipse fill="none" stroke="black" stroke-width="2" cx="53.95" cy="-221" rx="49.95" ry="49.95"/>
<ellipse fill="none" stroke="black" stroke-width="2" cx="53.95" cy="-221" rx="53.95" ry="53.95"/>
<text text-anchor="middle" x="53.95" y="-216.32" font-family="Times,serif" font-size="14.00">q0:244</text>
</g>
<!-- q0:244&#45;&gt;q1:244 -->
<g id="edge36" class="edge">
<title>q0:244&#45;&gt;q1:244</title>
<path fill="none" stroke="black" d="M104.85,-221C133.64,-221 169.94,-221 199.84,-221"/>
<polygon fill="black" stroke="black" points="199.45,-224.5 209.45,-221 199.45,-217.5 199.45,-224.5"/>
<text text-anchor="middle" x="157.89" y="-224.94" font-family="Times,serif" font-size="14.00">λ/220:244</text>
</g>
</g>
</svg>
