<?xml version="1.0" encoding="UTF-8" standalone="no"?>
<!DOCTYPE svg PUBLIC "-//W3C//DTD SVG 1.1//EN"
 "http://www.w3.org/Graphics/SVG/1.1/DTD/svg11.dtd">
<!-- Generated by graphviz version 12.0.0 (20240803.0821)
 -->
<!-- Pages: 1 -->
<svg width="5195pt" height="491pt"
 viewBox="0.00 0.00 5194.76 490.86" xmlns="http://www.w3.org/2000/svg" xmlns:xlink="http://www.w3.org/1999/xlink">
<g id="graph0" class="graph" transform="scale(1 1) rotate(0) translate(4 486.86)">
<polygon fill="white" stroke="none" points="-4,4 -4,-486.86 5190.76,-486.86 5190.76,4 -4,4"/>
<!-- q0:244 -->
<g id="node1" class="node">
<title>q0:244</title>
<ellipse fill="none" stroke="black" stroke-width="2" cx="53.95" cy="-164.82" rx="49.95" ry="49.95"/>
<ellipse fill="none" stroke="black" stroke-width="2" cx="53.95" cy="-164.82" rx="53.95" ry="53.95"/>
<text text-anchor="middle" x="53.95" y="-160.15" font-family="Times,serif" font-size="14.00">q0:244</text>
</g>
<!-- q1:244 -->
<g id="node2" class="node">
<title>q1:244</title>
<ellipse fill="none" stroke="black" stroke-width="2" cx="257.84" cy="-164.82" rx="45.95" ry="18"/>
<text text-anchor="middle" x="257.84" y="-160.15" font-family="Times,serif" font-size="14.00">q1:244</text>
</g>
<!-- q0:244&#45;&gt;q1:244 -->
<g id="edge1" class="edge">
<title>q0:244&#45;&gt;q1:244</title>
<path fill="none" stroke="black" d="M104.85,-164.82C133.64,-164.82 169.94,-164.82 199.84,-164.82"/>
<polygon fill="black" stroke="black" points="199.45,-168.32 209.45,-164.82 199.45,-161.32 199.45,-168.32"/>
<text text-anchor="middle" x="157.89" y="-168.77" font-family="Times,serif" font-size="14.00">λ/220:244</text>
</g>
<!-- q2:242 -->
<g id="node3" class="node">
<title>q2:242</title>
<ellipse fill="none" stroke="black" stroke-width="2" cx="501.98" cy="-222.82" rx="45.95" ry="18"/>
<text text-anchor="middle" x="501.98" y="-218.15" font-family="Times,serif" font-size="14.00">q2:242</text>
</g>
<!-- q1:244&#45;&gt;q2:242 -->
<g id="edge2" class="edge">
<title>q1:244&#45;&gt;q2:242</title>
<path fill="none" stroke="black" d="M298.28,-174.26C339.79,-184.21 405.27,-199.89 450.52,-210.73"/>
<polygon fill="black" stroke="black" points="449.55,-214.1 460.09,-213.02 451.18,-207.29 449.55,-214.1"/>
<text text-anchor="middle" x="379.91" y="-210.77" font-family="Times,serif" font-size="14.00">EHLO/250:242</text>
</g>
<!-- q3:2 -->
<g id="node4" class="node">
<title>q3:2</title>
<ellipse fill="none" stroke="black" stroke-width="2" cx="501.98" cy="-114.82" rx="33.32" ry="18"/>
<text text-anchor="middle" x="501.98" y="-110.15" font-family="Times,serif" font-size="14.00">q3:2</text>
</g>
<!-- q1:244&#45;&gt;q3:2 -->
<g id="edge3" class="edge">
<title>q1:244&#45;&gt;q3:2</title>
<path fill="none" stroke="black" d="M294.23,-152.96C303.16,-150.21 312.77,-147.47 321.79,-145.32 367.63,-134.37 420.97,-125.82 457.46,-120.59"/>
<polygon fill="black" stroke="black" points="457.77,-124.08 467.18,-119.22 456.79,-117.15 457.77,-124.08"/>
<text text-anchor="middle" x="379.91" y="-167.02" font-family="Times,serif" font-size="14.00">EHLO/λ:2</text>
<text text-anchor="middle" x="379.91" y="-149.77" font-family="Times,serif" font-size="14.00">a0 = [127.0.1.1]</text>
</g>
<!-- q6:230 -->
<g id="node5" class="node">
<title>q6:230</title>
<ellipse fill="none" stroke="black" stroke-width="2" cx="1681.4" cy="-141.82" rx="45.95" ry="18"/>
<text text-anchor="middle" x="1681.4" y="-137.15" font-family="Times,serif" font-size="14.00">q6:230</text>
</g>
<!-- q2:242&#45;&gt;q6:230 -->
<g id="edge4" class="edge">
<title>q2:242&#45;&gt;q6:230</title>
<path fill="none" stroke="black" d="M525.39,-206.48C536.9,-199.05 551.52,-191.05 565.93,-187.07 678.58,-155.97 1502.4,-184.64 1617.4,-163.82 1624,-162.63 1630.8,-160.86 1637.4,-158.83"/>
<polygon fill="black" stroke="black" points="1638.38,-162.19 1646.76,-155.71 1636.17,-155.55 1638.38,-162.19"/>
<text text-anchor="middle" x="1091.7" y="-226.27" font-family="Times,serif" font-size="14.00">AUTH/235:228</text>
<text text-anchor="middle" x="1091.7" y="-209.02" font-family="Times,serif" font-size="14.00">a0 in {&#39;PLAIN AEF6NjE2MUBzaW5hLmNvbQA2ZmRiMjVjZmNjODYyZWZj&#39;, &#39;PLAIN AEF6NjE2MUAxMjYuY29tAE1VUVNBT1NUWElURkpDVUU=&#39;}</text>
<text text-anchor="middle" x="1091.7" y="-191.77" font-family="Times,serif" font-size="14.00">b0 in {&#39;Authentication successful&#39;, &#39;OK Authenticated&#39;}</text>
</g>
<!-- q5:13 -->
<g id="node6" class="node">
<title>q5:13</title>
<ellipse fill="none" stroke="black" stroke-width="2" cx="1681.4" cy="-322.82" rx="39.63" ry="18"/>
<text text-anchor="middle" x="1681.4" y="-318.15" font-family="Times,serif" font-size="14.00">q5:13</text>
</g>
<!-- q2:242&#45;&gt;q5:13 -->
<g id="edge5" class="edge">
<title>q2:242&#45;&gt;q5:13</title>
<path fill="none" stroke="black" d="M511.85,-241.04C522.03,-259.65 540.63,-287.5 565.93,-299.82 941.93,-482.86 1477.2,-373.27 1635,-334.66"/>
<polygon fill="black" stroke="black" points="1635.77,-338.08 1644.63,-332.27 1634.08,-331.28 1635.77,-338.08"/>
<text text-anchor="middle" x="1091.7" y="-423.02" font-family="Times,serif" font-size="14.00">AUTH/535:13</text>
<text text-anchor="middle" x="1091.7" y="-405.77" font-family="Times,serif" font-size="14.00">b0 in {&#39;5.7.8 authentication failed&#39;, &#39;Error: authentication failed&#39;}</text>
</g>
<!-- q4:1 -->
<g id="node7" class="node">
<title>q4:1</title>
<ellipse fill="none" stroke="black" stroke-width="2" cx="2106.1" cy="-258.82" rx="33.32" ry="18"/>
<text text-anchor="middle" x="2106.1" y="-254.15" font-family="Times,serif" font-size="14.00">q4:1</text>
</g>
<!-- q2:242&#45;&gt;q4:1 -->
<g id="edge6" class="edge">
<title>q2:242&#45;&gt;q4:1</title>
<path fill="none" stroke="black" d="M539.98,-233.76C548.44,-235.83 557.44,-237.7 565.93,-238.82 717.21,-258.74 1823.7,-259.03 2060.5,-258.86"/>
<polygon fill="black" stroke="black" points="2060.29,-262.36 2070.29,-258.86 2060.29,-255.36 2060.29,-262.36"/>
<text text-anchor="middle" x="1091.7" y="-279.02" font-family="Times,serif" font-size="14.00">AUTH/λ:1</text>
<text text-anchor="middle" x="1091.7" y="-261.77" font-family="Times,serif" font-size="14.00">a0 = PLAIN AEF6NjE2MUAxMjYuY29tAE1VUVNBT1NUWElURkpDVUU=</text>
</g>
<!-- q3:2&#45;&gt;q6:230 -->
<g id="edge7" class="edge">
<title>q3:2&#45;&gt;q6:230</title>
<path fill="none" stroke="black" d="M534.56,-109.71C668.03,-89.16 1198.3,-18.02 1617.4,-112.07 1626.4,-114.08 1635.6,-117.51 1644.1,-121.35"/>
<polygon fill="black" stroke="black" points="1642.51,-124.47 1653.04,-125.69 1645.57,-118.18 1642.51,-124.47"/>
<text text-anchor="middle" x="1091.7" y="-151.27" font-family="Times,serif" font-size="14.00">AUTH/235:2</text>
<text text-anchor="middle" x="1091.7" y="-134.02" font-family="Times,serif" font-size="14.00">a0 in {&#39;PLAIN AEF6NjE2MUBzaW5hLmNvbQA2ZmRiMjVjZmNjODYyZWZj&#39;, &#39;PLAIN AEF6NjE2MUAxMjYuY29tAE1VUVNBT1NUWElURkpDVUU=&#39;}</text>
<text text-anchor="middle" x="1091.7" y="-116.77" font-family="Times,serif" font-size="14.00">b0 in {&#39;Authentication successful&#39;, &#39;OK Authenticated&#39;}</text>
</g>
<!-- q10:227 -->
<g id="node8" class="node">
<title>q10:227</title>
<ellipse fill="none" stroke="black" stroke-width="2" cx="2537.1" cy="-170.82" rx="52.26" ry="18"/>
<text text-anchor="middle" x="2537.1" y="-166.15" font-family="Times,serif" font-size="14.00">q10:227</text>
</g>
<!-- q6:230&#45;&gt;q10:227 -->
<g id="edge8" class="edge">
<title>q6:230&#45;&gt;q10:227</title>
<path fill="none" stroke="black" d="M1726.4,-147.18C1732.7,-147.82 1739.2,-148.39 1745.3,-148.82 2015.6,-167.57 2338.8,-170.49 2473,-170.84"/>
<polygon fill="black" stroke="black" points="2472.68,-174.34 2482.69,-170.86 2472.69,-167.34 2472.68,-174.34"/>
<text text-anchor="middle" x="2106.1" y="-209.27" font-family="Times,serif" font-size="14.00">MAIL/250:227</text>
<text text-anchor="middle" x="2106.1" y="-192.02" font-family="Times,serif" font-size="14.00">a0 in {&#39;FROM:&lt;Az6161@126.com&gt;&#39;, &#39;FROM:&lt;Az6161@sina.com&gt;&#39;}</text>
<text text-anchor="middle" x="2106.1" y="-174.77" font-family="Times,serif" font-size="14.00">b0 in {&#39;Mail OK&#39;, &#39;ok&#39;}</text>
</g>
<!-- q9:3 -->
<g id="node9" class="node">
<title>q9:3</title>
<ellipse fill="none" stroke="black" stroke-width="2" cx="2537.1" cy="-95.82" rx="33.32" ry="18"/>
<text text-anchor="middle" x="2537.1" y="-91.14" font-family="Times,serif" font-size="14.00">q9:3</text>
</g>
<!-- q6:230&#45;&gt;q9:3 -->
<g id="edge9" class="edge">
<title>q6:230&#45;&gt;q9:3</title>
<path fill="none" stroke="black" d="M1698.7,-124.23C1710.4,-112.93 1727.3,-99.24 1745.3,-93.07 2017.5,0 2373.8,-61.12 2494.3,-86.38"/>
<polygon fill="black" stroke="black" points="2493.51,-89.79 2504.02,-88.46 2494.97,-82.94 2493.51,-89.79"/>
<text text-anchor="middle" x="2106.1" y="-132.27" font-family="Times,serif" font-size="14.00">MAIL/553:3</text>
<text text-anchor="middle" x="2106.1" y="-115.02" font-family="Times,serif" font-size="14.00">a0 in {&#39;FROM:&lt;Az_6161@sina.com&gt;&#39;, &#39;FROM:&lt;Az_6161@126.com&gt;&#39;, &#39;FROM:&lt;Az6161@163.com&gt;&#39;}</text>
<text text-anchor="middle" x="2106.1" y="-97.77" font-family="Times,serif" font-size="14.00">b0 in {&#39;Mail from must equal authorized user&#39;, &#39;Envolope sender mismatch with login user..&#39;}</text>
</g>
<!-- q8:13 -->
<g id="node10" class="node">
<title>q8:13</title>
<ellipse fill="none" stroke="black" stroke-width="2" cx="2537.1" cy="-329.82" rx="39.63" ry="18"/>
<text text-anchor="middle" x="2537.1" y="-325.15" font-family="Times,serif" font-size="14.00">q8:13</text>
</g>
<!-- q5:13&#45;&gt;q8:13 -->
<g id="edge10" class="edge">
<title>q5:13&#45;&gt;q8:13</title>
<path fill="none" stroke="black" d="M1721.8,-323.14C1861.2,-324.28 2330,-328.13 2485.5,-329.4"/>
<polygon fill="black" stroke="black" points="2484.96,-332.9 2494.99,-329.48 2485.01,-325.9 2484.96,-332.9"/>
<text text-anchor="middle" x="2106.1" y="-350.02" font-family="Times,serif" font-size="14.00">AUTH/334:13</text>
<text text-anchor="middle" x="2106.1" y="-332.77" font-family="Times,serif" font-size="14.00">b0 = UGFzc3dvcmQ6</text>
</g>
<!-- q7:149 -->
<g id="node11" class="node">
<title>q7:149</title>
<ellipse fill="none" stroke="black" stroke-width="2" cx="3779.1" cy="-226.82" rx="45.95" ry="18"/>
<text text-anchor="middle" x="3779.1" y="-222.15" font-family="Times,serif" font-size="14.00">q7:149</text>
</g>
<!-- q4:1&#45;&gt;q7:149 -->
<g id="edge11" class="edge">
<title>q4:1&#45;&gt;q7:149</title>
<path fill="none" stroke="black" d="M2140.2,-258.34C2300.7,-255.99 3014.4,-245.27 3599.1,-231.82 3639.9,-230.88 3685.9,-229.59 3721,-228.55"/>
<polygon fill="black" stroke="black" points="3721.09,-232.05 3730.99,-228.26 3720.89,-225.05 3721.09,-232.05"/>
<text text-anchor="middle" x="2954.6" y="-288.27" font-family="Times,serif" font-size="14.00">MAIL/250:1</text>
<text text-anchor="middle" x="2954.6" y="-271.02" font-family="Times,serif" font-size="14.00">a0 = FROM:&lt;Az6161@126.com&gt;</text>
<text text-anchor="middle" x="2954.6" y="-253.77" font-family="Times,serif" font-size="14.00">b0 = Mail OK</text>
</g>
<!-- q15:227 -->
<g id="node12" class="node">
<title>q15:227</title>
<ellipse fill="none" stroke="black" stroke-width="2" cx="3372.1" cy="-170.82" rx="52.26" ry="18"/>
<text text-anchor="middle" x="3372.1" y="-166.15" font-family="Times,serif" font-size="14.00">q15:227</text>
</g>
<!-- q10:227&#45;&gt;q15:227 -->
<g id="edge12" class="edge">
<title>q10:227&#45;&gt;q15:227</title>
<path fill="none" stroke="black" d="M2590.2,-170.82C2736.1,-170.82 3148.6,-170.82 3307.6,-170.82"/>
<polygon fill="black" stroke="black" points="3307.49,-174.32 3317.49,-170.82 3307.49,-167.32 3307.49,-174.32"/>
<text text-anchor="middle" x="2954.6" y="-209.27" font-family="Times,serif" font-size="14.00">RCPT/250:227</text>
<text text-anchor="middle" x="2954.6" y="-192.02" font-family="Times,serif" font-size="14.00">a0 in {&#39;TO:&lt;574702257@qq.com&gt;&#39;, &#39;TO:&lt;1542110793@qq.com&gt;&#39;, &#39;TO:&lt;574702256@qq.com&gt;&#39;}</text>
<text text-anchor="middle" x="2954.6" y="-174.77" font-family="Times,serif" font-size="14.00">b0 in {&#39;Mail OK&#39;, &#39;ok&#39;}</text>
</g>
<!-- q14:3 -->
<g id="node21" class="node">
<title>q14:3</title>
<ellipse fill="none" stroke="black" stroke-width="2" cx="3372.1" cy="-95.82" rx="39.63" ry="18"/>
<text text-anchor="middle" x="3372.1" y="-91.14" font-family="Times,serif" font-size="14.00">q14:3</text>
</g>
<!-- q9:3&#45;&gt;q14:3 -->
<g id="edge25" class="edge">
<title>q9:3&#45;&gt;q14:3</title>
<path fill="none" stroke="black" d="M2571.3,-95.82C2699.7,-95.82 3164.9,-95.82 3320.2,-95.82"/>
<polygon fill="black" stroke="black" points="3320.19,-99.32 3330.19,-95.82 3320.19,-92.32 3320.19,-99.32"/>
<text text-anchor="middle" x="2954.6" y="-117.02" font-family="Times,serif" font-size="14.00">RSET/250:3</text>
<text text-anchor="middle" x="2954.6" y="-99.77" font-family="Times,serif" font-size="14.00">b0 in {&#39;flushed&#39;, &#39;OK&#39;}</text>
</g>
<!-- q13:13 -->
<g id="node22" class="node">
<title>q13:13</title>
<ellipse fill="none" stroke="black" stroke-width="2" cx="3372.1" cy="-331.82" rx="45.95" ry="18"/>
<text text-anchor="middle" x="3372.1" y="-327.15" font-family="Times,serif" font-size="14.00">q13:13</text>
</g>
<!-- q8:13&#45;&gt;q13:13 -->
<g id="edge27" class="edge">
<title>q8:13&#45;&gt;q13:13</title>
<path fill="none" stroke="black" d="M2577.7,-329.91C2712.7,-330.24 3155.2,-331.3 3313.9,-331.68"/>
<polygon fill="black" stroke="black" points="3313.68,-335.18 3323.69,-331.71 3313.7,-328.18 3313.68,-335.18"/>
<text text-anchor="middle" x="2954.6" y="-352.02" font-family="Times,serif" font-size="14.00">content/535:13</text>
<text text-anchor="middle" x="2954.6" y="-334.77" font-family="Times,serif" font-size="14.00">b0 in {&#39;5.7.8 authentication failed&#39;, &#39;Error: authentication failed&#39;}</text>
</g>
<!-- q7:149&#45;&gt;q7:149 -->
<g id="edge15" class="edge">
<title>q7:149&#45;&gt;q7:149</title>
<path fill="none" stroke="black" d="M3741.7,-238.06C3718.9,-249.74 3731.4,-262.82 3779.1,-262.82 3817.9,-262.82 3833.4,-254.18 3825.6,-244.68"/>
<polygon fill="black" stroke="black" points="3827.95,-242.07 3817.82,-238.96 3823.8,-247.7 3827.95,-242.07"/>
<text text-anchor="middle" x="3779.1" y="-284.02" font-family="Times,serif" font-size="14.00">RCPT/250:9</text>
<text text-anchor="middle" x="3779.1" y="-266.77" font-family="Times,serif" font-size="14.00">b0 = Mail OK</text>
</g>
<!-- q11:3030 -->
<g id="node13" class="node">
<title>q11:3030</title>
<ellipse fill="none" stroke="black" stroke-width="2" cx="4521.7" cy="-155.82" rx="58.57" ry="18"/>
<text text-anchor="middle" x="4521.7" y="-151.15" font-family="Times,serif" font-size="14.00">q11:3030</text>
</g>
<!-- q7:149&#45;&gt;q11:3030 -->
<g id="edge16" class="edge">
<title>q7:149&#45;&gt;q11:3030</title>
<path fill="none" stroke="black" d="M3821.5,-218.7C3857.7,-211.92 3911.7,-202.55 3959.1,-197.32 4174.2,-173.58 4230.3,-195.68 4445.1,-169.82 4450,-169.23 4455.1,-168.51 4460.2,-167.73"/>
<polygon fill="black" stroke="black" points="4460.41,-171.25 4469.71,-166.16 4459.27,-164.34 4460.41,-171.25"/>
<text text-anchor="middle" x="4202.1" y="-219.02" font-family="Times,serif" font-size="14.00">DATA/354:112</text>
<text text-anchor="middle" x="4202.1" y="-201.77" font-family="Times,serif" font-size="14.00">b0 = End data with &lt;CR&gt;&lt;LF&gt;.&lt;CR&gt;&lt;LF&gt;</text>
</g>
<!-- q12:28 -->
<g id="node14" class="node">
<title>q12:28</title>
<ellipse fill="none" stroke="black" stroke-width="2" cx="4521.7" cy="-262.82" rx="45.95" ry="18"/>
<text text-anchor="middle" x="4521.7" y="-258.15" font-family="Times,serif" font-size="14.00">q12:28</text>
</g>
<!-- q7:149&#45;&gt;q12:28 -->
<g id="edge17" class="edge">
<title>q7:149&#45;&gt;q12:28</title>
<path fill="none" stroke="black" d="M3825.4,-229.12C3861.5,-230.95 3913.6,-233.58 3959.1,-235.82 4143.6,-244.89 4362.2,-255.3 4463.7,-260.12"/>
<polygon fill="black" stroke="black" points="4463.53,-263.62 4473.69,-260.59 4463.86,-256.63 4463.53,-263.62"/>
<text text-anchor="middle" x="4202.1" y="-280.02" font-family="Times,serif" font-size="14.00">DATA/550:28</text>
<text text-anchor="middle" x="4202.1" y="-262.77" font-family="Times,serif" font-size="14.00">b0 in {&#39;too many message send today.&#39;, &#39;Sender frequency limited.&#39;}</text>
</g>
<!-- q15:227&#45;&gt;q7:149 -->
<g id="edge13" class="edge">
<title>q15:227&#45;&gt;q7:149</title>
<path fill="none" stroke="black" d="M3423,-175.99C3468.9,-180.91 3538.7,-188.8 3599.1,-197.32 3641.6,-203.31 3689.6,-211.28 3725.2,-217.42"/>
<polygon fill="black" stroke="black" points="3724.25,-220.81 3734.71,-219.09 3725.46,-213.92 3724.25,-220.81"/>
<text text-anchor="middle" x="3520.7" y="-219.02" font-family="Times,serif" font-size="14.00">RCPT/250:139</text>
<text text-anchor="middle" x="3520.7" y="-201.77" font-family="Times,serif" font-size="14.00">b0 in {&#39;Mail OK&#39;, &#39;ok&#39;}</text>
</g>
<!-- q15:227&#45;&gt;q11:3030 -->
<g id="edge14" class="edge">
<title>q15:227&#45;&gt;q11:3030</title>
<path fill="none" stroke="black" d="M3425,-169.47C3474.4,-168.22 3550.8,-166.41 3617.1,-165.32 3928,-160.18 4299.2,-157.3 4450.9,-156.26"/>
<polygon fill="black" stroke="black" points="4450.81,-159.76 4460.79,-156.2 4450.76,-152.76 4450.81,-159.76"/>
<text text-anchor="middle" x="3779.1" y="-187.02" font-family="Times,serif" font-size="14.00">DATA/354:88</text>
<text text-anchor="middle" x="3779.1" y="-169.77" font-family="Times,serif" font-size="14.00">b0 = End data with &lt;CR&gt;&lt;LF&gt;.&lt;CR&gt;&lt;LF&gt;</text>
</g>
<!-- q11:3030&#45;&gt;q11:3030 -->
<g id="edge18" class="edge">
<title>q11:3030&#45;&gt;q11:3030</title>
<path fill="none" stroke="black" d="M4489.4,-171.36C4480.3,-181.73 4491,-191.82 4521.7,-191.82 4540.8,-191.82 4552.2,-187.87 4555.9,-182.39"/>
<polygon fill="black" stroke="black" points="4559.4,-182.12 4554.26,-172.85 4552.5,-183.3 4559.4,-182.12"/>
<text text-anchor="middle" x="4521.7" y="-213.02" font-family="Times,serif" font-size="14.00">content/λ:2830</text>
<text text-anchor="middle" x="4521.7" y="-195.77" font-family="Times,serif" font-size="14.00">a0 = b0</text>
</g>
<!-- q16:1 -->
<g id="node15" class="node">
<title>q16:1</title>
<ellipse fill="none" stroke="black" stroke-width="2" cx="4893.5" cy="-209.82" rx="39.63" ry="18"/>
<text text-anchor="middle" x="4893.5" y="-205.15" font-family="Times,serif" font-size="14.00">q16:1</text>
</g>
<!-- q11:3030&#45;&gt;q16:1 -->
<g id="edge19" class="edge">
<title>q11:3030&#45;&gt;q16:1</title>
<path fill="none" stroke="black" d="M4564.8,-168.79C4575.6,-171.78 4587.3,-174.69 4598.3,-176.82 4683.2,-193.27 4783.6,-202.35 4842.5,-206.64"/>
<polygon fill="black" stroke="black" points="4841.97,-210.11 4852.19,-207.34 4842.46,-203.13 4841.97,-210.11"/>
<text text-anchor="middle" x="4710.8" y="-226.02" font-family="Times,serif" font-size="14.00">content/550:1</text>
<text text-anchor="middle" x="4710.8" y="-208.77" font-family="Times,serif" font-size="14.00">b0 = Sender frequency limited.</text>
</g>
<!-- q17:125 -->
<g id="node16" class="node">
<title>q17:125</title>
<ellipse fill="none" stroke="black" stroke-width="2" cx="4893.5" cy="-155.82" rx="52.26" ry="18"/>
<text text-anchor="middle" x="4893.5" y="-151.15" font-family="Times,serif" font-size="14.00">q17:125</text>
</g>
<!-- q11:3030&#45;&gt;q17:125 -->
<g id="edge20" class="edge">
<title>q11:3030&#45;&gt;q17:125</title>
<path fill="none" stroke="black" d="M4580.9,-155.82C4648.4,-155.82 4759.4,-155.82 4829.1,-155.82"/>
<polygon fill="black" stroke="black" points="4828.79,-159.32 4838.79,-155.82 4828.79,-152.32 4828.79,-159.32"/>
<text text-anchor="middle" x="4710.8" y="-159.77" font-family="Times,serif" font-size="14.00">content/250:125</text>
</g>
<!-- q18:74 -->
<g id="node17" class="node">
<title>q18:74</title>
<ellipse fill="none" stroke="black" stroke-width="2" cx="4893.5" cy="-99.82" rx="45.95" ry="18"/>
<text text-anchor="middle" x="4893.5" y="-95.14" font-family="Times,serif" font-size="14.00">q18:74</text>
</g>
<!-- q11:3030&#45;&gt;q18:74 -->
<g id="edge21" class="edge">
<title>q11:3030&#45;&gt;q18:74</title>
<path fill="none" stroke="black" d="M4564.8,-142.73C4575.6,-139.71 4587.3,-136.74 4598.3,-134.57 4680.1,-118.34 4776.4,-108.72 4835.9,-103.86"/>
<polygon fill="black" stroke="black" points="4836.1,-107.35 4845.79,-103.07 4835.54,-100.38 4836.1,-107.35"/>
<text text-anchor="middle" x="4710.8" y="-138.77" font-family="Times,serif" font-size="14.00">content/554:74</text>
</g>
<!-- q20:1 -->
<g id="node18" class="node">
<title>q20:1</title>
<ellipse fill="none" stroke="black" stroke-width="2" cx="5134.5" cy="-209.82" rx="39.63" ry="18"/>
<text text-anchor="middle" x="5134.5" y="-205.15" font-family="Times,serif" font-size="14.00">q20:1</text>
</g>
<!-- q16:1&#45;&gt;q20:1 -->
<g id="edge22" class="edge">
<title>q16:1&#45;&gt;q20:1</title>
<path fill="none" stroke="black" d="M4934,-209.82C4974.6,-209.82 5038.2,-209.82 5082.6,-209.82"/>
<polygon fill="black" stroke="black" points="5082.49,-213.32 5092.49,-209.82 5082.49,-206.32 5082.49,-213.32"/>
<text text-anchor="middle" x="5014" y="-231.02" font-family="Times,serif" font-size="14.00">RSET/250:1</text>
<text text-anchor="middle" x="5014" y="-213.77" font-family="Times,serif" font-size="14.00">a0 = b0</text>
</g>
<!-- q21:125 -->
<g id="node19" class="node">
<title>q21:125</title>
<ellipse fill="none" stroke="black" stroke-width="2" cx="5134.5" cy="-155.82" rx="52.26" ry="18"/>
<text text-anchor="middle" x="5134.5" y="-151.15" font-family="Times,serif" font-size="14.00">q21:125</text>
</g>
<!-- q17:125&#45;&gt;q21:125 -->
<g id="edge23" class="edge">
<title>q17:125&#45;&gt;q21:125</title>
<path fill="none" stroke="black" d="M4946.7,-155.82C4983.1,-155.82 5031.8,-155.82 5070.4,-155.82"/>
<polygon fill="black" stroke="black" points="5069.99,-159.32 5079.99,-155.82 5069.99,-152.32 5069.99,-159.32"/>
<text text-anchor="middle" x="5014" y="-159.77" font-family="Times,serif" font-size="14.00">QUIT/221:125</text>
</g>
<!-- q22:74 -->
<g id="node20" class="node">
<title>q22:74</title>
<ellipse fill="none" stroke="black" stroke-width="2" cx="5134.5" cy="-97.82" rx="45.95" ry="18"/>
<text text-anchor="middle" x="5134.5" y="-93.15" font-family="Times,serif" font-size="14.00">q22:74</text>
</g>
<!-- q18:74&#45;&gt;q22:74 -->
<g id="edge24" class="edge">
<title>q18:74&#45;&gt;q22:74</title>
<path fill="none" stroke="black" d="M4940.3,-99.44C4979.1,-99.11 5034.9,-98.64 5076.5,-98.3"/>
<polygon fill="black" stroke="black" points="5076.42,-101.8 5086.39,-98.21 5076.36,-94.8 5076.42,-101.8"/>
<text text-anchor="middle" x="5014" y="-121.02" font-family="Times,serif" font-size="14.00">RSET/250:74</text>
<text text-anchor="middle" x="5014" y="-103.77" font-family="Times,serif" font-size="14.00">b0 = OK</text>
</g>
<!-- q19:4 -->
<g id="node23" class="node">
<title>q19:4</title>
<ellipse fill="none" stroke="black" stroke-width="2" cx="3779.1" cy="-333.82" rx="39.63" ry="18"/>
<text text-anchor="middle" x="3779.1" y="-329.15" font-family="Times,serif" font-size="14.00">q19:4</text>
</g>
<!-- q13:13&#45;&gt;q19:4 -->
<g id="edge26" class="edge">
<title>q13:13&#45;&gt;q19:4</title>
<path fill="none" stroke="black" d="M3418.8,-332.04C3495.1,-332.42 3647.9,-333.17 3727.5,-333.57"/>
<polygon fill="black" stroke="black" points="3727.07,-337.07 3737.09,-333.62 3727.1,-330.07 3727.07,-337.07"/>
<text text-anchor="middle" x="3520.7" y="-354.02" font-family="Times,serif" font-size="14.00">λ/451:4</text>
<text text-anchor="middle" x="3520.7" y="-336.77" font-family="Times,serif" font-size="14.00">b0 = Timeout.</text>
</g>
</g>
</svg>
