<?xml version="1.0" encoding="UTF-8" standalone="no"?>
<!DOCTYPE svg PUBLIC "-//W3C//DTD SVG 1.1//EN"
 "http://www.w3.org/Graphics/SVG/1.1/DTD/svg11.dtd">
<!-- Generated by graphviz version 12.0.0 (20240803.0821)
 -->
<!-- Pages: 1 -->
<svg width="2213pt" height="359pt"
 viewBox="0.00 0.00 2212.73 359.25" xmlns="http://www.w3.org/2000/svg" xmlns:xlink="http://www.w3.org/1999/xlink">
<g id="graph0" class="graph" transform="scale(1 1) rotate(0) translate(4 355.25)">
<polygon fill="white" stroke="none" points="-4,4 -4,-355.25 2208.73,-355.25 2208.73,4 -4,4"/>
<!-- q24:8 -->
<g id="node1" class="node">
<title>q24:8</title>
<ellipse fill="none" stroke="black" stroke-width="2" cx="1479.3" cy="-82" rx="39.63" ry="18"/>
<text text-anchor="middle" x="1479.3" y="-77.33" font-family="Times,serif" font-size="14.00">q24:8</text>
</g>
<!-- q28:8 -->
<g id="node2" class="node">
<title>q28:8</title>
<ellipse fill="none" stroke="black" stroke-width="2" cx="1727.8" cy="-82" rx="39.63" ry="18"/>
<text text-anchor="middle" x="1727.8" y="-77.33" font-family="Times,serif" font-size="14.00">q28:8</text>
</g>
<!-- q24:8&#45;&gt;q28:8 -->
<g id="edge1" class="edge">
<title>q24:8&#45;&gt;q28:8</title>
<path fill="none" stroke="black" d="M1519.9,-82C1562.3,-82 1629.7,-82 1676,-82"/>
<polygon fill="black" stroke="black" points="1675.79,-85.5 1685.79,-82 1675.79,-78.5 1675.79,-85.5"/>
<text text-anchor="middle" x="1603.5" y="-85.95" font-family="Times,serif" font-size="14.00">RSET/250:8</text>
</g>
<!-- q0:244 -->
<g id="node3" class="node">
<title>q0:244</title>
<ellipse fill="none" stroke="black" stroke-width="2" cx="53.95" cy="-93" rx="49.95" ry="49.95"/>
<ellipse fill="none" stroke="black" stroke-width="2" cx="53.95" cy="-93" rx="53.95" ry="53.95"/>
<text text-anchor="middle" x="53.95" y="-88.33" font-family="Times,serif" font-size="14.00">q0:244</text>
</g>
<!-- q1:244 -->
<g id="node4" class="node">
<title>q1:244</title>
<ellipse fill="none" stroke="black" stroke-width="2" cx="257.84" cy="-93" rx="45.95" ry="18"/>
<text text-anchor="middle" x="257.84" y="-88.33" font-family="Times,serif" font-size="14.00">q1:244</text>
</g>
<!-- q0:244&#45;&gt;q1:244 -->
<g id="edge2" class="edge">
<title>q0:244&#45;&gt;q1:244</title>
<path fill="none" stroke="black" d="M104.85,-93C133.64,-93 169.94,-93 199.84,-93"/>
<polygon fill="black" stroke="black" points="199.45,-96.5 209.45,-93 199.45,-89.5 199.45,-96.5"/>
<text text-anchor="middle" x="157.89" y="-96.95" font-family="Times,serif" font-size="14.00">λ/220:244</text>
</g>
<!-- q2:242 -->
<g id="node5" class="node">
<title>q2:242</title>
<ellipse fill="none" stroke="black" stroke-width="2" cx="491.48" cy="-126" rx="45.95" ry="18"/>
<text text-anchor="middle" x="491.48" y="-121.33" font-family="Times,serif" font-size="14.00">q2:242</text>
</g>
<!-- q1:244&#45;&gt;q2:242 -->
<g id="edge3" class="edge">
<title>q1:244&#45;&gt;q2:242</title>
<path fill="none" stroke="black" d="M302.14,-99.17C340,-104.56 395.17,-112.42 436.02,-118.24"/>
<polygon fill="black" stroke="black" points="435.51,-121.7 445.9,-119.65 436.49,-114.77 435.51,-121.7"/>
<text text-anchor="middle" x="374.66" y="-119.95" font-family="Times,serif" font-size="14.00">EHLO/250:242</text>
</g>
<!-- q3:2 -->
<g id="node6" class="node">
<title>q3:2</title>
<ellipse fill="none" stroke="black" stroke-width="2" cx="491.48" cy="-66" rx="33.32" ry="18"/>
<text text-anchor="middle" x="491.48" y="-61.33" font-family="Times,serif" font-size="14.00">q3:2</text>
</g>
<!-- q1:244&#45;&gt;q3:2 -->
<g id="edge4" class="edge">
<title>q1:244&#45;&gt;q3:2</title>
<path fill="none" stroke="black" d="M296.21,-82.12C304.56,-80.03 313.43,-78.08 321.79,-76.75 363.53,-70.09 411.69,-67.53 445.85,-66.55"/>
<polygon fill="black" stroke="black" points="445.89,-70.05 455.8,-66.31 445.71,-63.05 445.89,-70.05"/>
<text text-anchor="middle" x="374.66" y="-80.95" font-family="Times,serif" font-size="14.00">EHLO/λ:2</text>
</g>
<!-- q6:230 -->
<g id="node7" class="node">
<title>q6:230</title>
<ellipse fill="none" stroke="black" stroke-width="2" cx="725.13" cy="-62" rx="45.95" ry="18"/>
<text text-anchor="middle" x="725.13" y="-57.33" font-family="Times,serif" font-size="14.00">q6:230</text>
</g>
<!-- q2:242&#45;&gt;q6:230 -->
<g id="edge5" class="edge">
<title>q2:242&#45;&gt;q6:230</title>
<path fill="none" stroke="black" d="M518.39,-110.6C529.48,-104.57 542.77,-98.08 555.43,-93.75 576.24,-86.63 629.15,-77.16 670.21,-70.42"/>
<polygon fill="black" stroke="black" points="670.64,-73.9 679.95,-68.84 669.51,-66.99 670.64,-73.9"/>
<text text-anchor="middle" x="608.31" y="-96.95" font-family="Times,serif" font-size="14.00">AUTH/235:228</text>
</g>
<!-- q5:13 -->
<g id="node8" class="node">
<title>q5:13</title>
<ellipse fill="none" stroke="black" stroke-width="2" cx="725.13" cy="-197" rx="39.63" ry="18"/>
<text text-anchor="middle" x="725.13" y="-192.32" font-family="Times,serif" font-size="14.00">q5:13</text>
</g>
<!-- q2:242&#45;&gt;q5:13 -->
<g id="edge6" class="edge">
<title>q2:242&#45;&gt;q5:13</title>
<path fill="none" stroke="black" d="M521.85,-140.3C532.3,-145.05 544.25,-150.12 555.43,-154 595.58,-167.93 642.52,-179.53 676.67,-187.16"/>
<polygon fill="black" stroke="black" points="675.74,-190.54 686.26,-189.27 677.24,-183.7 675.74,-190.54"/>
<text text-anchor="middle" x="608.31" y="-186.94" font-family="Times,serif" font-size="14.00">AUTH/535:13</text>
</g>
<!-- q4:1 -->
<g id="node9" class="node">
<title>q4:1</title>
<ellipse fill="none" stroke="black" stroke-width="2" cx="839.7" cy="-128" rx="33.32" ry="18"/>
<text text-anchor="middle" x="839.7" y="-123.33" font-family="Times,serif" font-size="14.00">q4:1</text>
</g>
<!-- q2:242&#45;&gt;q4:1 -->
<g id="edge7" class="edge">
<title>q2:242&#45;&gt;q4:1</title>
<path fill="none" stroke="black" d="M538.1,-126.26C604.79,-126.65 728.13,-127.36 794.18,-127.74"/>
<polygon fill="black" stroke="black" points="793.9,-131.24 803.93,-127.8 793.95,-124.24 793.9,-131.24"/>
<text text-anchor="middle" x="608.31" y="-129.94" font-family="Times,serif" font-size="14.00">AUTH/λ:1</text>
</g>
<!-- q3:2&#45;&gt;q6:230 -->
<g id="edge8" class="edge">
<title>q3:2&#45;&gt;q6:230</title>
<path fill="none" stroke="black" d="M523.05,-58.83C533.28,-56.76 544.79,-54.78 555.43,-53.75 602.21,-49.24 614.28,-50.69 661.18,-53.75 664.02,-53.94 666.93,-54.17 669.86,-54.43"/>
<polygon fill="black" stroke="black" points="669.39,-57.9 679.69,-55.46 670.11,-50.94 669.39,-57.9"/>
<text text-anchor="middle" x="608.31" y="-57.95" font-family="Times,serif" font-size="14.00">AUTH/235:2</text>
</g>
<!-- q10:227 -->
<g id="node10" class="node">
<title>q10:227</title>
<ellipse fill="none" stroke="black" stroke-width="2" cx="960.59" cy="-72" rx="52.26" ry="18"/>
<text text-anchor="middle" x="960.59" y="-67.33" font-family="Times,serif" font-size="14.00">q10:227</text>
</g>
<!-- q6:230&#45;&gt;q10:227 -->
<g id="edge9" class="edge">
<title>q6:230&#45;&gt;q10:227</title>
<path fill="none" stroke="black" d="M771.7,-63.95C807.32,-65.48 857.26,-67.62 896.69,-69.31"/>
<polygon fill="black" stroke="black" points="896.39,-72.8 906.53,-69.73 896.69,-65.8 896.39,-72.8"/>
<text text-anchor="middle" x="839.7" y="-72.95" font-family="Times,serif" font-size="14.00">MAIL/250:227</text>
</g>
<!-- q9:3 -->
<g id="node11" class="node">
<title>q9:3</title>
<ellipse fill="none" stroke="black" stroke-width="2" cx="960.59" cy="-18" rx="33.32" ry="18"/>
<text text-anchor="middle" x="960.59" y="-13.32" font-family="Times,serif" font-size="14.00">q9:3</text>
</g>
<!-- q6:230&#45;&gt;q9:3 -->
<g id="edge10" class="edge">
<title>q6:230&#45;&gt;q9:3</title>
<path fill="none" stroke="black" d="M762.53,-50.56C771.18,-48.09 780.41,-45.65 789.08,-43.75 831.77,-34.38 881.22,-27.32 915.84,-22.99"/>
<polygon fill="black" stroke="black" points="915.98,-26.5 925.48,-21.81 915.13,-19.55 915.98,-26.5"/>
<text text-anchor="middle" x="839.7" y="-47.95" font-family="Times,serif" font-size="14.00">MAIL/553:3</text>
</g>
<!-- q8:13 -->
<g id="node12" class="node">
<title>q8:13</title>
<ellipse fill="none" stroke="black" stroke-width="2" cx="960.59" cy="-313" rx="39.63" ry="18"/>
<text text-anchor="middle" x="960.59" y="-308.32" font-family="Times,serif" font-size="14.00">q8:13</text>
</g>
<!-- q5:13&#45;&gt;q8:13 -->
<g id="edge11" class="edge">
<title>q5:13&#45;&gt;q8:13</title>
<path fill="none" stroke="black" d="M753.37,-210.53C795.19,-231.31 875.31,-271.13 922.43,-294.54"/>
<polygon fill="black" stroke="black" points="920.65,-297.56 931.16,-298.88 923.76,-291.29 920.65,-297.56"/>
<text text-anchor="middle" x="839.7" y="-278.94" font-family="Times,serif" font-size="14.00">AUTH/334:13</text>
</g>
<!-- q7:232 -->
<g id="node13" class="node">
<title>q7:232</title>
<ellipse fill="none" stroke="black" stroke-width="2" cx="1215.4" cy="-199" rx="45.95" ry="18"/>
<text text-anchor="middle" x="1215.4" y="-194.32" font-family="Times,serif" font-size="14.00">q7:232</text>
</g>
<!-- q4:1&#45;&gt;q7:232 -->
<g id="edge12" class="edge">
<title>q4:1&#45;&gt;q7:232</title>
<path fill="none" stroke="black" d="M872.83,-123.05C928.85,-115.76 1047.2,-106.37 1138.8,-140 1141.6,-141.03 1164.9,-159.34 1184.9,-175.29"/>
<polygon fill="black" stroke="black" points="1182.61,-177.94 1192.62,-181.44 1186.97,-172.47 1182.61,-177.94"/>
<text text-anchor="middle" x="960.59" y="-122.95" font-family="Times,serif" font-size="14.00">MAIL/250:1</text>
</g>
<!-- q10:227&#45;&gt;q7:232 -->
<g id="edge13" class="edge">
<title>q10:227&#45;&gt;q7:232</title>
<path fill="none" stroke="black" d="M1010.1,-65C1049.2,-62.17 1103.5,-64.99 1138.8,-94.75 1159.6,-112.19 1141.6,-130.61 1156.8,-153 1162.9,-161.93 1171.3,-169.97 1179.7,-176.74"/>
<polygon fill="black" stroke="black" points="1177.49,-179.46 1187.59,-182.66 1181.69,-173.86 1177.49,-179.46"/>
<text text-anchor="middle" x="1084.8" y="-97.95" font-family="Times,serif" font-size="14.00">RCPT/250:227</text>
</g>
<!-- q14:3 -->
<g id="node14" class="node">
<title>q14:3</title>
<ellipse fill="none" stroke="black" stroke-width="2" cx="1215.4" cy="-18" rx="39.63" ry="18"/>
<text text-anchor="middle" x="1215.4" y="-13.32" font-family="Times,serif" font-size="14.00">q14:3</text>
</g>
<!-- q9:3&#45;&gt;q14:3 -->
<g id="edge14" class="edge">
<title>q9:3&#45;&gt;q14:3</title>
<path fill="none" stroke="black" d="M994.9,-18C1037.9,-18 1113.3,-18 1163.5,-18"/>
<polygon fill="black" stroke="black" points="1163.29,-21.5 1173.29,-18 1163.29,-14.5 1163.29,-21.5"/>
<text text-anchor="middle" x="1084.8" y="-21.95" font-family="Times,serif" font-size="14.00">RSET/250:3</text>
</g>
<!-- q13:13 -->
<g id="node22" class="node">
<title>q13:13</title>
<ellipse fill="none" stroke="black" stroke-width="2" cx="1215.4" cy="-333" rx="45.95" ry="18"/>
<text text-anchor="middle" x="1215.4" y="-328.32" font-family="Times,serif" font-size="14.00">q13:13</text>
</g>
<!-- q8:13&#45;&gt;q13:13 -->
<g id="edge23" class="edge">
<title>q8:13&#45;&gt;q13:13</title>
<path fill="none" stroke="black" d="M1000.54,-316.08C1042.6,-319.41 1110.1,-324.75 1158,-328.54"/>
<polygon fill="black" stroke="black" points="1157.65,-332.02 1167.89,-329.32 1158.2,-325.04 1157.65,-332.02"/>
<text text-anchor="middle" x="1084.8" y="-329.94" font-family="Times,serif" font-size="14.00">content/535:13</text>
</g>
<!-- q11:65 -->
<g id="node15" class="node">
<title>q11:65</title>
<ellipse fill="none" stroke="black" stroke-width="2" cx="1479.3" cy="-217" rx="45.95" ry="18"/>
<text text-anchor="middle" x="1479.3" y="-212.32" font-family="Times,serif" font-size="14.00">q11:65</text>
</g>
<!-- q7:232&#45;&gt;q11:65 -->
<g id="edge15" class="edge">
<title>q7:232&#45;&gt;q11:65</title>
<path fill="none" stroke="black" d="M1261.7,-202.11C1306.1,-205.16 1373.8,-209.82 1421.6,-213.11"/>
<polygon fill="black" stroke="black" points="1421.38,-216.6 1431.59,-213.79 1421.85,-209.62 1421.38,-216.6"/>
<text text-anchor="middle" x="1350.5" y="-215.94" font-family="Times,serif" font-size="14.00">DATA/354:65</text>
</g>
<!-- q12:167 -->
<g id="node16" class="node">
<title>q12:167</title>
<ellipse fill="none" stroke="black" stroke-width="2" cx="960.59" cy="-219" rx="52.26" ry="18"/>
<text text-anchor="middle" x="960.59" y="-214.32" font-family="Times,serif" font-size="14.00">q12:167</text>
</g>
<!-- q7:232&#45;&gt;q12:167 -->
<g id="edge16" class="edge">
<title>q7:232&#45;&gt;q12:167</title>
<path fill="none" stroke="black" d="M1169.3,-195.85C1132,-194.05 1077.7,-193.26 1030.8,-199.75 1024.4,-200.65 1017.6,-201.99 1011,-203.55"/>
<polygon fill="black" stroke="black" points="1010.31,-200.11 1001.5,-205.98 1012.05,-206.89 1010.31,-200.11"/>
<text text-anchor="middle" x="1084.8" y="-202.94" font-family="Times,serif" font-size="14.00">RCPT/250:167</text>
</g>
<!-- q16:51 -->
<g id="node17" class="node">
<title>q16:51</title>
<ellipse fill="none" stroke="black" stroke-width="2" cx="1727.8" cy="-298" rx="45.95" ry="18"/>
<text text-anchor="middle" x="1727.8" y="-293.32" font-family="Times,serif" font-size="14.00">q16:51</text>
</g>
<!-- q11:65&#45;&gt;q16:51 -->
<g id="edge17" class="edge">
<title>q11:65&#45;&gt;q16:51</title>
<path fill="none" stroke="black" d="M1504,-233.1C1517,-241.26 1533.6,-250.74 1549.5,-257 1589.4,-272.73 1636.9,-283.31 1672.6,-289.78"/>
<polygon fill="black" stroke="black" points="1671.86,-293.2 1682.31,-291.47 1673.06,-286.31 1671.86,-293.2"/>
<text text-anchor="middle" x="1603.5" y="-289.94" font-family="Times,serif" font-size="14.00">content/λ:2</text>
</g>
<!-- q15:21 -->
<g id="node18" class="node">
<title>q15:21</title>
<ellipse fill="none" stroke="black" stroke-width="2" cx="1727.8" cy="-244" rx="45.95" ry="18"/>
<text text-anchor="middle" x="1727.8" y="-239.32" font-family="Times,serif" font-size="14.00">q15:21</text>
</g>
<!-- q11:65&#45;&gt;q15:21 -->
<g id="edge18" class="edge">
<title>q11:65&#45;&gt;q15:21</title>
<path fill="none" stroke="black" d="M1524.6,-221.86C1565.8,-226.37 1627.3,-233.1 1671.6,-237.96"/>
<polygon fill="black" stroke="black" points="1670.97,-241.41 1681.29,-239.02 1671.73,-234.45 1670.97,-241.41"/>
<text text-anchor="middle" x="1603.5" y="-239.94" font-family="Times,serif" font-size="14.00">content/250:21</text>
</g>
<!-- q17:42 -->
<g id="node19" class="node">
<title>q17:42</title>
<ellipse fill="none" stroke="black" stroke-width="2" cx="1727.8" cy="-190" rx="45.95" ry="18"/>
<text text-anchor="middle" x="1727.8" y="-185.32" font-family="Times,serif" font-size="14.00">q17:42</text>
</g>
<!-- q11:65&#45;&gt;q17:42 -->
<g id="edge19" class="edge">
<title>q11:65&#45;&gt;q17:42</title>
<path fill="none" stroke="black" d="M1520,-207.89C1529.6,-205.94 1539.9,-204.08 1549.5,-202.75 1589.5,-197.23 1634.8,-194.02 1669.7,-192.2"/>
<polygon fill="black" stroke="black" points="1669.77,-195.7 1679.59,-191.71 1669.43,-188.71 1669.77,-195.7"/>
<text text-anchor="middle" x="1603.5" y="-205.94" font-family="Times,serif" font-size="14.00">content/554:42</text>
</g>
<!-- q12:167&#45;&gt;q7:232 -->
<g id="edge20" class="edge">
<title>q12:167&#45;&gt;q7:232</title>
<path fill="none" stroke="black" d="M1013.4,-221.44C1048.8,-222.37 1096.8,-222.17 1138.8,-217 1147.7,-215.91 1157,-214.18 1166,-212.22"/>
<polygon fill="black" stroke="black" points="1166.59,-215.68 1175.53,-209.99 1164.99,-208.86 1166.59,-215.68"/>
<text text-anchor="middle" x="1084.8" y="-224.94" font-family="Times,serif" font-size="14.00">RCPT/250:4</text>
</g>
<!-- q19:3097 -->
<g id="node20" class="node">
<title>q19:3097</title>
<ellipse fill="none" stroke="black" stroke-width="2" cx="1215.4" cy="-91" rx="58.57" ry="18"/>
<text text-anchor="middle" x="1215.4" y="-86.33" font-family="Times,serif" font-size="14.00">q19:3097</text>
</g>
<!-- q12:167&#45;&gt;q19:3097 -->
<g id="edge21" class="edge">
<title>q12:167&#45;&gt;q19:3097</title>
<path fill="none" stroke="black" d="M984.69,-202.14C997.86,-192.89 1014.9,-181.55 1030.8,-172.75 1075.3,-148.22 1128.6,-125.14 1166.3,-109.81"/>
<polygon fill="black" stroke="black" points="1167.63,-113.05 1175.6,-106.07 1165.01,-106.56 1167.63,-113.05"/>
<text text-anchor="middle" x="1084.8" y="-175.94" font-family="Times,serif" font-size="14.00">DATA/354:120</text>
</g>
<!-- q18:43 -->
<g id="node21" class="node">
<title>q18:43</title>
<ellipse fill="none" stroke="black" stroke-width="2" cx="1215.4" cy="-279" rx="45.95" ry="18"/>
<text text-anchor="middle" x="1215.4" y="-274.32" font-family="Times,serif" font-size="14.00">q18:43</text>
</g>
<!-- q12:167&#45;&gt;q18:43 -->
<g id="edge22" class="edge">
<title>q12:167&#45;&gt;q18:43</title>
<path fill="none" stroke="black" d="M998.72,-232.25C1009,-235.69 1020.3,-239.2 1030.8,-242 1074.3,-253.54 1124.3,-263.4 1161.2,-270.04"/>
<polygon fill="black" stroke="black" points="1160.25,-273.43 1170.71,-271.73 1161.47,-266.53 1160.25,-273.43"/>
<text text-anchor="middle" x="1084.8" y="-268.94" font-family="Times,serif" font-size="14.00">DATA/550:43</text>
</g>
<!-- q16:51&#45;&gt;q16:51 -->
<g id="edge31" class="edge">
<title>q16:51&#45;&gt;q16:51</title>
<path fill="none" stroke="black" d="M1706.7,-314.66C1702,-324.62 1709.1,-334 1727.8,-334 1738.9,-334 1745.9,-330.69 1748.7,-325.92"/>
<polygon fill="black" stroke="black" points="1752.2,-326.2 1748.79,-316.17 1745.2,-326.14 1752.2,-326.2"/>
<text text-anchor="middle" x="1727.8" y="-337.94" font-family="Times,serif" font-size="14.00">content/λ:49</text>
</g>
<!-- q22:2 -->
<g id="node28" class="node">
<title>q22:2</title>
<ellipse fill="none" stroke="black" stroke-width="2" cx="1961" cy="-298" rx="39.63" ry="18"/>
<text text-anchor="middle" x="1961" y="-293.32" font-family="Times,serif" font-size="14.00">q22:2</text>
</g>
<!-- q16:51&#45;&gt;q22:2 -->
<g id="edge32" class="edge">
<title>q16:51&#45;&gt;q22:2</title>
<path fill="none" stroke="black" d="M1774.5,-298C1813.3,-298 1868.9,-298 1909.1,-298"/>
<polygon fill="black" stroke="black" points="1909.09,-301.5 1919.09,-298 1909.09,-294.5 1909.09,-301.5"/>
<text text-anchor="middle" x="1847.5" y="-301.94" font-family="Times,serif" font-size="14.00">content/250:2</text>
</g>
<!-- q21:21 -->
<g id="node29" class="node">
<title>q21:21</title>
<ellipse fill="none" stroke="black" stroke-width="2" cx="1961" cy="-244" rx="45.95" ry="18"/>
<text text-anchor="middle" x="1961" y="-239.32" font-family="Times,serif" font-size="14.00">q21:21</text>
</g>
<!-- q15:21&#45;&gt;q21:21 -->
<g id="edge33" class="edge">
<title>q15:21&#45;&gt;q21:21</title>
<path fill="none" stroke="black" d="M1774.5,-244C1811.3,-244 1863.5,-244 1903.1,-244"/>
<polygon fill="black" stroke="black" points="1902.89,-247.5 1912.89,-244 1902.89,-240.5 1902.89,-247.5"/>
<text text-anchor="middle" x="1847.5" y="-247.94" font-family="Times,serif" font-size="14.00">QUIT/221:21</text>
</g>
<!-- q23:42 -->
<g id="node30" class="node">
<title>q23:42</title>
<ellipse fill="none" stroke="black" stroke-width="2" cx="1961" cy="-190" rx="45.95" ry="18"/>
<text text-anchor="middle" x="1961" y="-185.32" font-family="Times,serif" font-size="14.00">q23:42</text>
</g>
<!-- q17:42&#45;&gt;q23:42 -->
<g id="edge34" class="edge">
<title>q17:42&#45;&gt;q23:42</title>
<path fill="none" stroke="black" d="M1774.5,-190C1811.3,-190 1863.5,-190 1903.1,-190"/>
<polygon fill="black" stroke="black" points="1902.89,-193.5 1912.89,-190 1902.89,-186.5 1902.89,-193.5"/>
<text text-anchor="middle" x="1847.5" y="-193.94" font-family="Times,serif" font-size="14.00">RSET/250:42</text>
</g>
<!-- q19:3097&#45;&gt;q24:8 -->
<g id="edge25" class="edge">
<title>q19:3097&#45;&gt;q24:8</title>
<path fill="none" stroke="black" d="M1274.5,-89C1320.4,-87.42 1383.9,-85.24 1427.7,-83.74"/>
<polygon fill="black" stroke="black" points="1427.61,-87.24 1437.49,-83.4 1427.37,-80.25 1427.61,-87.24"/>
<text text-anchor="middle" x="1350.5" y="-91.95" font-family="Times,serif" font-size="14.00">content/554:8</text>
</g>
<!-- q19:3097&#45;&gt;q19:3097 -->
<g id="edge26" class="edge">
<title>q19:3097&#45;&gt;q19:3097</title>
<path fill="none" stroke="black" d="M1192.1,-108.41C1187.8,-118.09 1195.5,-127 1215.4,-127 1226.9,-127 1234.4,-124.02 1237.8,-119.64"/>
<polygon fill="black" stroke="black" points="1241.27,-120.17 1238.58,-109.92 1234.29,-119.61 1241.27,-120.17"/>
<text text-anchor="middle" x="1215.4" y="-130.94" font-family="Times,serif" font-size="14.00">content/λ:2977</text>
</g>
<!-- q25:1 -->
<g id="node24" class="node">
<title>q25:1</title>
<ellipse fill="none" stroke="black" stroke-width="2" cx="1479.3" cy="-28" rx="39.63" ry="18"/>
<text text-anchor="middle" x="1479.3" y="-23.32" font-family="Times,serif" font-size="14.00">q25:1</text>
</g>
<!-- q19:3097&#45;&gt;q25:1 -->
<g id="edge27" class="edge">
<title>q19:3097&#45;&gt;q25:1</title>
<path fill="none" stroke="black" d="M1252.1,-76.2C1264.6,-71.43 1278.8,-66.43 1292,-62.75 1337.8,-50.02 1391.3,-40.59 1429.1,-34.78"/>
<polygon fill="black" stroke="black" points="1429.53,-38.26 1438.9,-33.32 1428.5,-31.34 1429.53,-38.26"/>
<text text-anchor="middle" x="1350.5" y="-66.95" font-family="Times,serif" font-size="14.00">content/550:1</text>
</g>
<!-- q26:111 -->
<g id="node25" class="node">
<title>q26:111</title>
<ellipse fill="none" stroke="black" stroke-width="2" cx="1479.3" cy="-136" rx="52.26" ry="18"/>
<text text-anchor="middle" x="1479.3" y="-131.32" font-family="Times,serif" font-size="14.00">q26:111</text>
</g>
<!-- q19:3097&#45;&gt;q26:111 -->
<g id="edge28" class="edge">
<title>q19:3097&#45;&gt;q26:111</title>
<path fill="none" stroke="black" d="M1262.2,-102.61C1272,-104.89 1282.3,-107.15 1292,-109 1333.9,-117.01 1381.5,-123.87 1418,-128.67"/>
<polygon fill="black" stroke="black" points="1417.13,-132.09 1427.5,-129.9 1418.03,-125.14 1417.13,-132.09"/>
<text text-anchor="middle" x="1350.5" y="-130.94" font-family="Times,serif" font-size="14.00">content/250:111</text>
</g>
<!-- q20:4 -->
<g id="node23" class="node">
<title>q20:4</title>
<ellipse fill="none" stroke="black" stroke-width="2" cx="1479.3" cy="-333" rx="39.63" ry="18"/>
<text text-anchor="middle" x="1479.3" y="-328.32" font-family="Times,serif" font-size="14.00">q20:4</text>
</g>
<!-- q13:13&#45;&gt;q20:4 -->
<g id="edge24" class="edge">
<title>q13:13&#45;&gt;q20:4</title>
<path fill="none" stroke="black" d="M1262.3,-333C1308.5,-333 1379.6,-333 1427.5,-333"/>
<polygon fill="black" stroke="black" points="1427.29,-336.5 1437.29,-333 1427.29,-329.5 1427.29,-336.5"/>
<text text-anchor="middle" x="1350.5" y="-336.94" font-family="Times,serif" font-size="14.00">λ/451:4</text>
</g>
<!-- q29:1 -->
<g id="node26" class="node">
<title>q29:1</title>
<ellipse fill="none" stroke="black" stroke-width="2" cx="1727.8" cy="-28" rx="39.63" ry="18"/>
<text text-anchor="middle" x="1727.8" y="-23.32" font-family="Times,serif" font-size="14.00">q29:1</text>
</g>
<!-- q25:1&#45;&gt;q29:1 -->
<g id="edge29" class="edge">
<title>q25:1&#45;&gt;q29:1</title>
<path fill="none" stroke="black" d="M1519.9,-28C1562.3,-28 1629.7,-28 1676,-28"/>
<polygon fill="black" stroke="black" points="1675.79,-31.5 1685.79,-28 1675.79,-24.5 1675.79,-31.5"/>
<text text-anchor="middle" x="1603.5" y="-31.95" font-family="Times,serif" font-size="14.00">RSET/250:1</text>
</g>
<!-- q30:111 -->
<g id="node27" class="node">
<title>q30:111</title>
<ellipse fill="none" stroke="black" stroke-width="2" cx="1727.8" cy="-136" rx="52.26" ry="18"/>
<text text-anchor="middle" x="1727.8" y="-131.32" font-family="Times,serif" font-size="14.00">q30:111</text>
</g>
<!-- q26:111&#45;&gt;q30:111 -->
<g id="edge30" class="edge">
<title>q26:111&#45;&gt;q30:111</title>
<path fill="none" stroke="black" d="M1532.2,-136C1570.5,-136 1622.7,-136 1663.4,-136"/>
<polygon fill="black" stroke="black" points="1663.39,-139.5 1673.39,-136 1663.39,-132.5 1663.39,-139.5"/>
<text text-anchor="middle" x="1603.5" y="-139.94" font-family="Times,serif" font-size="14.00">QUIT/221:111</text>
</g>
<!-- q27:2 -->
<g id="node31" class="node">
<title>q27:2</title>
<ellipse fill="none" stroke="black" stroke-width="2" cx="2165.1" cy="-298" rx="39.63" ry="18"/>
<text text-anchor="middle" x="2165.1" y="-293.32" font-family="Times,serif" font-size="14.00">q27:2</text>
</g>
<!-- q22:2&#45;&gt;q27:2 -->
<g id="edge35" class="edge">
<title>q22:2&#45;&gt;q27:2</title>
<path fill="none" stroke="black" d="M2001.4,-298C2033.4,-298 2078.7,-298 2113.4,-298"/>
<polygon fill="black" stroke="black" points="2113.19,-301.5 2123.19,-298 2113.19,-294.5 2113.19,-301.5"/>
<text text-anchor="middle" x="2066.2" y="-301.94" font-family="Times,serif" font-size="14.00">QUIT/221:2</text>
</g>
</g>
</svg>
