<?xml version="1.0" encoding="UTF-8" standalone="no"?>
<!DOCTYPE svg PUBLIC "-//W3C//DTD SVG 1.1//EN"
 "http://www.w3.org/Graphics/SVG/1.1/DTD/svg11.dtd">
<!-- Generated by graphviz version 12.0.0 (20240803.0821)
 -->
<!-- Pages: 1 -->
<svg width="2247pt" height="288pt"
 viewBox="0.00 0.00 2247.06 288.00" xmlns="http://www.w3.org/2000/svg" xmlns:xlink="http://www.w3.org/1999/xlink">
<g id="graph0" class="graph" transform="scale(1 1) rotate(0) translate(4 284)">
<polygon fill="white" stroke="none" points="-4,4 -4,-284 2243.06,-284 2243.06,4 -4,4"/>
<!-- q9:229 -->
<g id="node1" class="node">
<title>q9:229</title>
<ellipse fill="none" stroke="black" stroke-width="2" cx="1190.2" cy="-72" rx="45.95" ry="18"/>
<text text-anchor="middle" x="1190.2" y="-67.33" font-family="Times,serif" font-size="14.00">q9:229</text>
</g>
<!-- q13:161 -->
<g id="node2" class="node">
<title>q13:161</title>
<ellipse fill="none" stroke="black" stroke-width="2" cx="1427.1" cy="-161" rx="52.26" ry="18"/>
<text text-anchor="middle" x="1427.1" y="-156.32" font-family="Times,serif" font-size="14.00">q13:161</text>
</g>
<!-- q9:229&#45;&gt;q13:161 -->
<g id="edge1" class="edge">
<title>q9:229&#45;&gt;q13:161</title>
<path fill="none" stroke="black" d="M1224.8,-84.75C1265.5,-100.15 1334.1,-126.12 1379.7,-143.42"/>
<polygon fill="black" stroke="black" points="1378.19,-146.59 1388.78,-146.86 1380.67,-140.05 1378.19,-146.59"/>
<text text-anchor="middle" x="1305.5" y="-137.94" font-family="Times,serif" font-size="14.00">RCPT/250:161</text>
</g>
<!-- q12:142 -->
<g id="node3" class="node">
<title>q12:142</title>
<ellipse fill="none" stroke="black" stroke-width="2" cx="1427.1" cy="-72" rx="52.26" ry="18"/>
<text text-anchor="middle" x="1427.1" y="-67.33" font-family="Times,serif" font-size="14.00">q12:142</text>
</g>
<!-- q9:229&#45;&gt;q12:142 -->
<g id="edge2" class="edge">
<title>q9:229&#45;&gt;q12:142</title>
<path fill="none" stroke="black" d="M1237,-72C1272.9,-72 1323.1,-72 1362.8,-72"/>
<polygon fill="black" stroke="black" points="1362.69,-75.5 1372.69,-72 1362.69,-68.5 1362.69,-75.5"/>
<text text-anchor="middle" x="1305.5" y="-75.95" font-family="Times,serif" font-size="14.00">DATA/354:68</text>
</g>
<!-- q17:3187 -->
<g id="node4" class="node">
<title>q17:3187</title>
<ellipse fill="none" stroke="black" stroke-width="2" cx="1682" cy="-208" rx="58.57" ry="18"/>
<text text-anchor="middle" x="1682" y="-203.32" font-family="Times,serif" font-size="14.00">q17:3187</text>
</g>
<!-- q13:161&#45;&gt;q17:3187 -->
<g id="edge3" class="edge">
<title>q13:161&#45;&gt;q17:3187</title>
<path fill="none" stroke="black" d="M1469.4,-172.42C1478.5,-174.77 1488.3,-177.1 1497.4,-179 1536.4,-187.14 1580.6,-194.18 1615.8,-199.28"/>
<polygon fill="black" stroke="black" points="1615.01,-202.7 1625.4,-200.66 1616,-195.77 1615.01,-202.7"/>
<text text-anchor="middle" x="1551.4" y="-200.94" font-family="Times,serif" font-size="14.00">DATA/354:118</text>
</g>
<!-- q18:43 -->
<g id="node5" class="node">
<title>q18:43</title>
<ellipse fill="none" stroke="black" stroke-width="2" cx="1682" cy="-154" rx="45.95" ry="18"/>
<text text-anchor="middle" x="1682" y="-149.32" font-family="Times,serif" font-size="14.00">q18:43</text>
</g>
<!-- q13:161&#45;&gt;q18:43 -->
<g id="edge4" class="edge">
<title>q13:161&#45;&gt;q18:43</title>
<path fill="none" stroke="black" d="M1480.2,-159.56C1522,-158.4 1580.7,-156.77 1623.9,-155.58"/>
<polygon fill="black" stroke="black" points="1623.89,-159.08 1633.79,-155.3 1623.69,-152.08 1623.89,-159.08"/>
<text text-anchor="middle" x="1551.4" y="-161.94" font-family="Times,serif" font-size="14.00">DATA/550:43</text>
</g>
<!-- q12:142&#45;&gt;q12:142 -->
<g id="edge5" class="edge">
<title>q12:142&#45;&gt;q12:142</title>
<path fill="none" stroke="black" d="M1405.6,-89.04C1401.2,-98.86 1408.4,-108 1427.1,-108 1438,-108 1445,-104.94 1448.1,-100.47"/>
<polygon fill="black" stroke="black" points="1451.59,-100.72 1448.62,-90.55 1444.6,-100.35 1451.59,-100.72"/>
<text text-anchor="middle" x="1427.1" y="-111.95" font-family="Times,serif" font-size="14.00">content/λ:74</text>
</g>
<!-- q15:24 -->
<g id="node6" class="node">
<title>q15:24</title>
<ellipse fill="none" stroke="black" stroke-width="2" cx="1682" cy="-93" rx="45.95" ry="18"/>
<text text-anchor="middle" x="1682" y="-88.33" font-family="Times,serif" font-size="14.00">q15:24</text>
</g>
<!-- q12:142&#45;&gt;q15:24 -->
<g id="edge6" class="edge">
<title>q12:142&#45;&gt;q15:24</title>
<path fill="none" stroke="black" d="M1479,-76.22C1521.2,-79.73 1581.2,-84.72 1624.8,-88.34"/>
<polygon fill="black" stroke="black" points="1624.34,-91.81 1634.59,-89.15 1624.91,-84.84 1624.34,-91.81"/>
<text text-anchor="middle" x="1551.4" y="-89.95" font-family="Times,serif" font-size="14.00">content/250:24</text>
</g>
<!-- q16:44 -->
<g id="node7" class="node">
<title>q16:44</title>
<ellipse fill="none" stroke="black" stroke-width="2" cx="1682" cy="-39" rx="45.95" ry="18"/>
<text text-anchor="middle" x="1682" y="-34.33" font-family="Times,serif" font-size="14.00">q16:44</text>
</g>
<!-- q12:142&#45;&gt;q16:44 -->
<g id="edge7" class="edge">
<title>q12:142&#45;&gt;q16:44</title>
<path fill="none" stroke="black" d="M1471.6,-61.6C1480.1,-59.79 1489,-58.08 1497.4,-56.75 1539.8,-50.06 1588.1,-45.51 1624.5,-42.69"/>
<polygon fill="black" stroke="black" points="1624.68,-46.19 1634.39,-41.95 1624.16,-39.21 1624.68,-46.19"/>
<text text-anchor="middle" x="1551.4" y="-60.95" font-family="Times,serif" font-size="14.00">content/554:44</text>
</g>
<!-- q17:3187&#45;&gt;q17:3187 -->
<g id="edge8" class="edge">
<title>q17:3187&#45;&gt;q17:3187</title>
<path fill="none" stroke="black" d="M1658.6,-225.41C1654.3,-235.09 1662.1,-244 1682,-244 1693.5,-244 1700.9,-241.02 1704.3,-236.64"/>
<polygon fill="black" stroke="black" points="1707.76,-237.19 1705.17,-226.92 1700.79,-236.57 1707.76,-237.19"/>
<text text-anchor="middle" x="1682" y="-247.94" font-family="Times,serif" font-size="14.00">content/λ:3069</text>
</g>
<!-- q21:1 -->
<g id="node8" class="node">
<title>q21:1</title>
<ellipse fill="none" stroke="black" stroke-width="2" cx="1945.8" cy="-262" rx="39.63" ry="18"/>
<text text-anchor="middle" x="1945.8" y="-257.32" font-family="Times,serif" font-size="14.00">q21:1</text>
</g>
<!-- q17:3187&#45;&gt;q21:1 -->
<g id="edge9" class="edge">
<title>q17:3187&#45;&gt;q21:1</title>
<path fill="none" stroke="black" d="M1725.9,-220.71C1736.5,-223.63 1747.9,-226.59 1758.5,-229 1804.8,-239.51 1858.2,-248.67 1895.9,-254.66"/>
<polygon fill="black" stroke="black" points="1895.18,-258.09 1905.6,-256.18 1896.26,-251.17 1895.18,-258.09"/>
<text text-anchor="middle" x="1817" y="-254.94" font-family="Times,serif" font-size="14.00">content/550:1</text>
</g>
<!-- q22:112 -->
<g id="node9" class="node">
<title>q22:112</title>
<ellipse fill="none" stroke="black" stroke-width="2" cx="1945.8" cy="-208" rx="52.26" ry="18"/>
<text text-anchor="middle" x="1945.8" y="-203.32" font-family="Times,serif" font-size="14.00">q22:112</text>
</g>
<!-- q17:3187&#45;&gt;q22:112 -->
<g id="edge10" class="edge">
<title>q17:3187&#45;&gt;q22:112</title>
<path fill="none" stroke="black" d="M1741.4,-208C1782.9,-208 1838.7,-208 1881.4,-208"/>
<polygon fill="black" stroke="black" points="1881.19,-211.5 1891.19,-208 1881.19,-204.5 1881.19,-211.5"/>
<text text-anchor="middle" x="1817" y="-211.94" font-family="Times,serif" font-size="14.00">content/250:112</text>
</g>
<!-- q23:5 -->
<g id="node10" class="node">
<title>q23:5</title>
<ellipse fill="none" stroke="black" stroke-width="2" cx="1945.8" cy="-154" rx="39.63" ry="18"/>
<text text-anchor="middle" x="1945.8" y="-149.32" font-family="Times,serif" font-size="14.00">q23:5</text>
</g>
<!-- q17:3187&#45;&gt;q23:5 -->
<g id="edge11" class="edge">
<title>q17:3187&#45;&gt;q23:5</title>
<path fill="none" stroke="black" d="M1725.5,-195.22C1736.2,-192.23 1747.8,-189.2 1758.5,-186.75 1804.8,-176.2 1858.2,-167.13 1895.9,-161.22"/>
<polygon fill="black" stroke="black" points="1896.26,-164.71 1905.6,-159.72 1895.19,-157.79 1896.26,-164.71"/>
<text text-anchor="middle" x="1817" y="-189.94" font-family="Times,serif" font-size="14.00">content/554:5</text>
</g>
<!-- q19:24 -->
<g id="node11" class="node">
<title>q19:24</title>
<ellipse fill="none" stroke="black" stroke-width="2" cx="1945.8" cy="-93" rx="45.95" ry="18"/>
<text text-anchor="middle" x="1945.8" y="-88.33" font-family="Times,serif" font-size="14.00">q19:24</text>
</g>
<!-- q15:24&#45;&gt;q19:24 -->
<g id="edge12" class="edge">
<title>q15:24&#45;&gt;q19:24</title>
<path fill="none" stroke="black" d="M1728.9,-93C1773,-93 1840,-93 1887.6,-93"/>
<polygon fill="black" stroke="black" points="1887.39,-96.5 1897.39,-93 1887.39,-89.5 1887.39,-96.5"/>
<text text-anchor="middle" x="1817" y="-96.95" font-family="Times,serif" font-size="14.00">QUIT/221:24</text>
</g>
<!-- q20:44 -->
<g id="node12" class="node">
<title>q20:44</title>
<ellipse fill="none" stroke="black" stroke-width="2" cx="1945.8" cy="-39" rx="45.95" ry="18"/>
<text text-anchor="middle" x="1945.8" y="-34.33" font-family="Times,serif" font-size="14.00">q20:44</text>
</g>
<!-- q16:44&#45;&gt;q20:44 -->
<g id="edge13" class="edge">
<title>q16:44&#45;&gt;q20:44</title>
<path fill="none" stroke="black" d="M1728.9,-39C1773,-39 1840,-39 1887.6,-39"/>
<polygon fill="black" stroke="black" points="1887.39,-42.5 1897.39,-39 1887.39,-35.5 1887.39,-42.5"/>
<text text-anchor="middle" x="1817" y="-42.95" font-family="Times,serif" font-size="14.00">RSET/250:44</text>
</g>
<!-- q24:1 -->
<g id="node13" class="node">
<title>q24:1</title>
<ellipse fill="none" stroke="black" stroke-width="2" cx="2186.8" cy="-262" rx="39.63" ry="18"/>
<text text-anchor="middle" x="2186.8" y="-257.32" font-family="Times,serif" font-size="14.00">q24:1</text>
</g>
<!-- q21:1&#45;&gt;q24:1 -->
<g id="edge14" class="edge">
<title>q21:1&#45;&gt;q24:1</title>
<path fill="none" stroke="black" d="M1986.3,-262C2026.9,-262 2090.4,-262 2134.9,-262"/>
<polygon fill="black" stroke="black" points="2134.79,-265.5 2144.79,-262 2134.79,-258.5 2134.79,-265.5"/>
<text text-anchor="middle" x="2066.3" y="-265.94" font-family="Times,serif" font-size="14.00">RSET/250:1</text>
</g>
<!-- q25:112 -->
<g id="node14" class="node">
<title>q25:112</title>
<ellipse fill="none" stroke="black" stroke-width="2" cx="2186.8" cy="-208" rx="52.26" ry="18"/>
<text text-anchor="middle" x="2186.8" y="-203.32" font-family="Times,serif" font-size="14.00">q25:112</text>
</g>
<!-- q22:112&#45;&gt;q25:112 -->
<g id="edge15" class="edge">
<title>q22:112&#45;&gt;q25:112</title>
<path fill="none" stroke="black" d="M1998.9,-208C2035.3,-208 2084.1,-208 2122.7,-208"/>
<polygon fill="black" stroke="black" points="2122.29,-211.5 2132.29,-208 2122.29,-204.5 2122.29,-211.5"/>
<text text-anchor="middle" x="2066.3" y="-211.94" font-family="Times,serif" font-size="14.00">QUIT/221:112</text>
</g>
<!-- q26:5 -->
<g id="node15" class="node">
<title>q26:5</title>
<ellipse fill="none" stroke="black" stroke-width="2" cx="2186.8" cy="-154" rx="39.63" ry="18"/>
<text text-anchor="middle" x="2186.8" y="-149.32" font-family="Times,serif" font-size="14.00">q26:5</text>
</g>
<!-- q23:5&#45;&gt;q26:5 -->
<g id="edge16" class="edge">
<title>q23:5&#45;&gt;q26:5</title>
<path fill="none" stroke="black" d="M1986.3,-154C2026.9,-154 2090.4,-154 2134.9,-154"/>
<polygon fill="black" stroke="black" points="2134.79,-157.5 2144.79,-154 2134.79,-150.5 2134.79,-157.5"/>
<text text-anchor="middle" x="2066.3" y="-157.94" font-family="Times,serif" font-size="14.00">RSET/250:5</text>
</g>
<!-- q1:244 -->
<g id="node16" class="node">
<title>q1:244</title>
<ellipse fill="none" stroke="black" stroke-width="2" cx="257.84" cy="-71" rx="45.95" ry="18"/>
<text text-anchor="middle" x="257.84" y="-66.33" font-family="Times,serif" font-size="14.00">q1:244</text>
</g>
<!-- q2:2 -->
<g id="node17" class="node">
<title>q2:2</title>
<ellipse fill="none" stroke="black" stroke-width="2" cx="491.48" cy="-98" rx="33.32" ry="18"/>
<text text-anchor="middle" x="491.48" y="-93.33" font-family="Times,serif" font-size="14.00">q2:2</text>
</g>
<!-- q1:244&#45;&gt;q2:2 -->
<g id="edge17" class="edge">
<title>q1:244&#45;&gt;q2:2</title>
<path fill="none" stroke="black" d="M302.96,-76.14C344.26,-80.96 405.63,-88.11 446.8,-92.91"/>
<polygon fill="black" stroke="black" points="446.26,-96.37 456.6,-94.05 447.07,-89.42 446.26,-96.37"/>
<text text-anchor="middle" x="374.66" y="-93.95" font-family="Times,serif" font-size="14.00">EHLO/λ:2</text>
</g>
<!-- q3:242 -->
<g id="node18" class="node">
<title>q3:242</title>
<ellipse fill="none" stroke="black" stroke-width="2" cx="491.48" cy="-44" rx="45.95" ry="18"/>
<text text-anchor="middle" x="491.48" y="-39.33" font-family="Times,serif" font-size="14.00">q3:242</text>
</g>
<!-- q1:244&#45;&gt;q3:242 -->
<g id="edge18" class="edge">
<title>q1:244&#45;&gt;q3:242</title>
<path fill="none" stroke="black" d="M297.96,-61.21C305.81,-59.51 314.03,-57.91 321.79,-56.75 358.81,-51.19 400.79,-48.01 433.61,-46.21"/>
<polygon fill="black" stroke="black" points="433.5,-49.72 443.31,-45.71 433.14,-42.73 433.5,-49.72"/>
<text text-anchor="middle" x="374.66" y="-60.95" font-family="Times,serif" font-size="14.00">EHLO/250:242</text>
</g>
<!-- q4:232 -->
<g id="node19" class="node">
<title>q4:232</title>
<ellipse fill="none" stroke="black" stroke-width="2" cx="725.13" cy="-85" rx="45.95" ry="18"/>
<text text-anchor="middle" x="725.13" y="-80.33" font-family="Times,serif" font-size="14.00">q4:232</text>
</g>
<!-- q2:2&#45;&gt;q4:232 -->
<g id="edge19" class="edge">
<title>q2:2&#45;&gt;q4:232</title>
<path fill="none" stroke="black" d="M525.18,-96.17C562.12,-94.09 622.91,-90.68 667.59,-88.17"/>
<polygon fill="black" stroke="black" points="667.56,-91.68 677.35,-87.62 667.17,-84.69 667.56,-91.68"/>
<text text-anchor="middle" x="608.31" y="-97.95" font-family="Times,serif" font-size="14.00">AUTH/235:2</text>
</g>
<!-- q3:242&#45;&gt;q4:232 -->
<g id="edge20" class="edge">
<title>q3:242&#45;&gt;q4:232</title>
<path fill="none" stroke="black" d="M537.19,-48.2C571.37,-51.86 619.54,-57.96 661.18,-66.75 666.4,-67.85 671.83,-69.16 677.2,-70.57"/>
<polygon fill="black" stroke="black" points="676.05,-73.88 686.62,-73.15 677.9,-67.13 676.05,-73.88"/>
<text text-anchor="middle" x="608.31" y="-70.95" font-family="Times,serif" font-size="14.00">AUTH/235:230</text>
</g>
<!-- q5:12 -->
<g id="node20" class="node">
<title>q5:12</title>
<ellipse fill="none" stroke="black" stroke-width="2" cx="725.13" cy="-18" rx="39.63" ry="18"/>
<text text-anchor="middle" x="725.13" y="-13.32" font-family="Times,serif" font-size="14.00">q5:12</text>
</g>
<!-- q3:242&#45;&gt;q5:12 -->
<g id="edge21" class="edge">
<title>q3:242&#45;&gt;q5:12</title>
<path fill="none" stroke="black" d="M521.88,-29.55C532.23,-25.18 544.11,-20.96 555.43,-18.75 594.77,-11.06 640.27,-11.38 674.09,-13.34"/>
<polygon fill="black" stroke="black" points="673.82,-16.83 684.03,-13.99 674.28,-9.85 673.82,-16.83"/>
<text text-anchor="middle" x="608.31" y="-22.95" font-family="Times,serif" font-size="14.00">AUTH/535:12</text>
</g>
<!-- q7:3 -->
<g id="node21" class="node">
<title>q7:3</title>
<ellipse fill="none" stroke="black" stroke-width="2" cx="954.27" cy="-126" rx="33.32" ry="18"/>
<text text-anchor="middle" x="954.27" y="-121.33" font-family="Times,serif" font-size="14.00">q7:3</text>
</g>
<!-- q4:232&#45;&gt;q7:3 -->
<g id="edge22" class="edge">
<title>q4:232&#45;&gt;q7:3</title>
<path fill="none" stroke="black" d="M767.42,-92.95C774.64,-94.32 782.07,-95.71 789.08,-97 830.21,-104.55 877.21,-112.82 910.35,-118.58"/>
<polygon fill="black" stroke="black" points="909.53,-121.99 919.98,-120.25 910.72,-115.09 909.53,-121.99"/>
<text text-anchor="middle" x="839.7" y="-117.95" font-family="Times,serif" font-size="14.00">MAIL/553:3</text>
</g>
<!-- q6:229 -->
<g id="node22" class="node">
<title>q6:229</title>
<ellipse fill="none" stroke="black" stroke-width="2" cx="954.27" cy="-72" rx="45.95" ry="18"/>
<text text-anchor="middle" x="954.27" y="-67.33" font-family="Times,serif" font-size="14.00">q6:229</text>
</g>
<!-- q4:232&#45;&gt;q6:229 -->
<g id="edge23" class="edge">
<title>q4:232&#45;&gt;q6:229</title>
<path fill="none" stroke="black" d="M770.82,-81.07C776.95,-80.59 783.17,-80.14 789.08,-79.75 824.71,-77.42 864.74,-75.52 896.35,-74.18"/>
<polygon fill="black" stroke="black" points="896.24,-77.69 906.09,-73.78 895.95,-70.69 896.24,-77.69"/>
<text text-anchor="middle" x="839.7" y="-82.95" font-family="Times,serif" font-size="14.00">MAIL/250:229</text>
</g>
<!-- q8:12 -->
<g id="node23" class="node">
<title>q8:12</title>
<ellipse fill="none" stroke="black" stroke-width="2" cx="954.27" cy="-18" rx="39.63" ry="18"/>
<text text-anchor="middle" x="954.27" y="-13.32" font-family="Times,serif" font-size="14.00">q8:12</text>
</g>
<!-- q5:12&#45;&gt;q8:12 -->
<g id="edge24" class="edge">
<title>q5:12&#45;&gt;q8:12</title>
<path fill="none" stroke="black" d="M765.69,-18C803.6,-18 861,-18 902.32,-18"/>
<polygon fill="black" stroke="black" points="902.27,-21.5 912.27,-18 902.27,-14.5 902.27,-21.5"/>
<text text-anchor="middle" x="839.7" y="-21.95" font-family="Times,serif" font-size="14.00">AUTH/334:12</text>
</g>
<!-- q10:3 -->
<g id="node24" class="node">
<title>q10:3</title>
<ellipse fill="none" stroke="black" stroke-width="2" cx="1190.2" cy="-126" rx="39.63" ry="18"/>
<text text-anchor="middle" x="1190.2" y="-121.33" font-family="Times,serif" font-size="14.00">q10:3</text>
</g>
<!-- q7:3&#45;&gt;q10:3 -->
<g id="edge25" class="edge">
<title>q7:3&#45;&gt;q10:3</title>
<path fill="none" stroke="black" d="M988.29,-126C1027.3,-126 1092.7,-126 1138.3,-126"/>
<polygon fill="black" stroke="black" points="1138.19,-129.5 1148.19,-126 1138.19,-122.5 1138.19,-129.5"/>
<text text-anchor="middle" x="1072.2" y="-129.94" font-family="Times,serif" font-size="14.00">RSET/250:3</text>
</g>
<!-- q6:229&#45;&gt;q9:229 -->
<g id="edge26" class="edge">
<title>q6:229&#45;&gt;q9:229</title>
<path fill="none" stroke="black" d="M1001.2,-72C1038.6,-72 1091.6,-72 1131.8,-72"/>
<polygon fill="black" stroke="black" points="1131.79,-75.5 1141.79,-72 1131.79,-68.5 1131.79,-75.5"/>
<text text-anchor="middle" x="1072.2" y="-75.95" font-family="Times,serif" font-size="14.00">RCPT/250:229</text>
</g>
<!-- q11:12 -->
<g id="node25" class="node">
<title>q11:12</title>
<ellipse fill="none" stroke="black" stroke-width="2" cx="1190.2" cy="-18" rx="45.95" ry="18"/>
<text text-anchor="middle" x="1190.2" y="-13.32" font-family="Times,serif" font-size="14.00">q11:12</text>
</g>
<!-- q8:12&#45;&gt;q11:12 -->
<g id="edge27" class="edge">
<title>q8:12&#45;&gt;q11:12</title>
<path fill="none" stroke="black" d="M994.68,-18C1032.4,-18 1089.6,-18 1132.2,-18"/>
<polygon fill="black" stroke="black" points="1132.09,-21.5 1142.09,-18 1132.09,-14.5 1132.09,-21.5"/>
<text text-anchor="middle" x="1072.2" y="-21.95" font-family="Times,serif" font-size="14.00">content/535:12</text>
</g>
<!-- q14:4 -->
<g id="node26" class="node">
<title>q14:4</title>
<ellipse fill="none" stroke="black" stroke-width="2" cx="1427.1" cy="-18" rx="39.63" ry="18"/>
<text text-anchor="middle" x="1427.1" y="-13.32" font-family="Times,serif" font-size="14.00">q14:4</text>
</g>
<!-- q11:12&#45;&gt;q14:4 -->
<g id="edge28" class="edge">
<title>q11:12&#45;&gt;q14:4</title>
<path fill="none" stroke="black" d="M1237,-18C1276.7,-18 1334.1,-18 1375.2,-18"/>
<polygon fill="black" stroke="black" points="1375.09,-21.5 1385.09,-18 1375.09,-14.5 1375.09,-21.5"/>
<text text-anchor="middle" x="1305.5" y="-21.95" font-family="Times,serif" font-size="14.00">λ/451:4</text>
</g>
<!-- q0:244 -->
<g id="node27" class="node">
<title>q0:244</title>
<ellipse fill="none" stroke="black" stroke-width="2" cx="53.95" cy="-71" rx="49.95" ry="49.95"/>
<ellipse fill="none" stroke="black" stroke-width="2" cx="53.95" cy="-71" rx="53.95" ry="53.95"/>
<text text-anchor="middle" x="53.95" y="-66.33" font-family="Times,serif" font-size="14.00">q0:244</text>
</g>
<!-- q0:244&#45;&gt;q1:244 -->
<g id="edge29" class="edge">
<title>q0:244&#45;&gt;q1:244</title>
<path fill="none" stroke="black" d="M104.85,-71C133.64,-71 169.94,-71 199.84,-71"/>
<polygon fill="black" stroke="black" points="199.45,-74.5 209.45,-71 199.45,-67.5 199.45,-74.5"/>
<text text-anchor="middle" x="157.89" y="-74.95" font-family="Times,serif" font-size="14.00">λ/220:244</text>
</g>
</g>
</svg>
