<?xml version="1.0" encoding="UTF-8" standalone="no"?>
<!DOCTYPE svg PUBLIC "-//W3C//DTD SVG 1.1//EN"
 "http://www.w3.org/Graphics/SVG/1.1/DTD/svg11.dtd">
<!-- Generated by graphviz version 12.0.0 (20240803.0821)
 -->
<!-- Pages: 1 -->
<svg width="2216pt" height="274pt"
 viewBox="0.00 0.00 2216.45 274.00" xmlns="http://www.w3.org/2000/svg" xmlns:xlink="http://www.w3.org/1999/xlink">
<g id="graph0" class="graph" transform="scale(1 1) rotate(0) translate(4 270)">
<polygon fill="white" stroke="none" points="-4,4 -4,-270 2212.45,-270 2212.45,4 -4,4"/>
<!-- q14:2520 -->
<g id="node1" class="node">
<title>q14:2520</title>
<ellipse fill="none" stroke="black" stroke-width="2" cx="1694.6" cy="-194" rx="58.57" ry="18"/>
<text text-anchor="middle" x="1694.6" y="-189.32" font-family="Times,serif" font-size="14.00">q14:2520</text>
</g>
<!-- q14:2520&#45;&gt;q14:2520 -->
<g id="edge1" class="edge">
<title>q14:2520&#45;&gt;q14:2520</title>
<path fill="none" stroke="black" d="M1671.3,-211.41C1666.9,-221.09 1674.7,-230 1694.6,-230 1706.1,-230 1713.5,-227.02 1716.9,-222.64"/>
<polygon fill="black" stroke="black" points="1720.36,-223.19 1717.77,-212.92 1713.39,-222.57 1720.36,-223.19"/>
<text text-anchor="middle" x="1694.6" y="-233.94" font-family="Times,serif" font-size="14.00">content/λ:2421</text>
</g>
<!-- q19:9 -->
<g id="node2" class="node">
<title>q19:9</title>
<ellipse fill="none" stroke="black" stroke-width="2" cx="1943.1" cy="-140" rx="39.63" ry="18"/>
<text text-anchor="middle" x="1943.1" y="-135.32" font-family="Times,serif" font-size="14.00">q19:9</text>
</g>
<!-- q14:2520&#45;&gt;q19:9 -->
<g id="edge2" class="edge">
<title>q14:2520&#45;&gt;q19:9</title>
<path fill="none" stroke="black" d="M1738.6,-181.23C1749.2,-178.27 1760.5,-175.25 1771.2,-172.75 1812.2,-163.06 1859.4,-154.19 1893.8,-148.13"/>
<polygon fill="black" stroke="black" points="1894.16,-151.62 1903.41,-146.45 1892.96,-144.72 1894.16,-151.62"/>
<text text-anchor="middle" x="1825.2" y="-175.94" font-family="Times,serif" font-size="14.00">content/554:9</text>
</g>
<!-- q17:89 -->
<g id="node3" class="node">
<title>q17:89</title>
<ellipse fill="none" stroke="black" stroke-width="2" cx="1943.1" cy="-248" rx="45.95" ry="18"/>
<text text-anchor="middle" x="1943.1" y="-243.32" font-family="Times,serif" font-size="14.00">q17:89</text>
</g>
<!-- q14:2520&#45;&gt;q17:89 -->
<g id="edge3" class="edge">
<title>q14:2520&#45;&gt;q17:89</title>
<path fill="none" stroke="black" d="M1738.6,-206.59C1749.2,-209.52 1760.6,-212.51 1771.2,-215 1810.3,-224.2 1854.9,-232.74 1888.7,-238.83"/>
<polygon fill="black" stroke="black" points="1887.85,-242.23 1898.31,-240.54 1889.07,-235.34 1887.85,-242.23"/>
<text text-anchor="middle" x="1825.2" y="-239.94" font-family="Times,serif" font-size="14.00">content/250:89</text>
</g>
<!-- q18:1 -->
<g id="node4" class="node">
<title>q18:1</title>
<ellipse fill="none" stroke="black" stroke-width="2" cx="1943.1" cy="-194" rx="39.63" ry="18"/>
<text text-anchor="middle" x="1943.1" y="-189.32" font-family="Times,serif" font-size="14.00">q18:1</text>
</g>
<!-- q14:2520&#45;&gt;q18:1 -->
<g id="edge4" class="edge">
<title>q14:2520&#45;&gt;q18:1</title>
<path fill="none" stroke="black" d="M1754,-194C1795.7,-194 1851.3,-194 1891.2,-194"/>
<polygon fill="black" stroke="black" points="1891.09,-197.5 1901.09,-194 1891.09,-190.5 1891.09,-197.5"/>
<text text-anchor="middle" x="1825.2" y="-197.94" font-family="Times,serif" font-size="14.00">content/550:1</text>
</g>
<!-- q25:9 -->
<g id="node5" class="node">
<title>q25:9</title>
<ellipse fill="none" stroke="black" stroke-width="2" cx="2162.5" cy="-140" rx="39.63" ry="18"/>
<text text-anchor="middle" x="2162.5" y="-135.32" font-family="Times,serif" font-size="14.00">q25:9</text>
</g>
<!-- q19:9&#45;&gt;q25:9 -->
<g id="edge5" class="edge">
<title>q19:9&#45;&gt;q25:9</title>
<path fill="none" stroke="black" d="M1983.7,-140C2019.5,-140 2072.3,-140 2111.1,-140"/>
<polygon fill="black" stroke="black" points="2110.69,-143.5 2120.69,-140 2110.69,-136.5 2110.69,-143.5"/>
<text text-anchor="middle" x="2052.8" y="-143.94" font-family="Times,serif" font-size="14.00">RSET/250:9</text>
</g>
<!-- q23:89 -->
<g id="node6" class="node">
<title>q23:89</title>
<ellipse fill="none" stroke="black" stroke-width="2" cx="2162.5" cy="-248" rx="45.95" ry="18"/>
<text text-anchor="middle" x="2162.5" y="-243.32" font-family="Times,serif" font-size="14.00">q23:89</text>
</g>
<!-- q17:89&#45;&gt;q23:89 -->
<g id="edge6" class="edge">
<title>q17:89&#45;&gt;q23:89</title>
<path fill="none" stroke="black" d="M1989.9,-248C2023.3,-248 2068.8,-248 2104.5,-248"/>
<polygon fill="black" stroke="black" points="2104.19,-251.5 2114.19,-248 2104.19,-244.5 2104.19,-251.5"/>
<text text-anchor="middle" x="2052.8" y="-251.94" font-family="Times,serif" font-size="14.00">QUIT/221:89</text>
</g>
<!-- q24:1 -->
<g id="node7" class="node">
<title>q24:1</title>
<ellipse fill="none" stroke="black" stroke-width="2" cx="2162.5" cy="-194" rx="39.63" ry="18"/>
<text text-anchor="middle" x="2162.5" y="-189.32" font-family="Times,serif" font-size="14.00">q24:1</text>
</g>
<!-- q18:1&#45;&gt;q24:1 -->
<g id="edge7" class="edge">
<title>q18:1&#45;&gt;q24:1</title>
<path fill="none" stroke="black" d="M1983.7,-194C2019.5,-194 2072.3,-194 2111.1,-194"/>
<polygon fill="black" stroke="black" points="2110.69,-197.5 2120.69,-194 2110.69,-190.5 2110.69,-197.5"/>
<text text-anchor="middle" x="2052.8" y="-197.94" font-family="Times,serif" font-size="14.00">RSET/250:1</text>
</g>
<!-- q9:151 -->
<g id="node8" class="node">
<title>q9:151</title>
<ellipse fill="none" stroke="black" stroke-width="2" cx="1439.8" cy="-147" rx="45.95" ry="18"/>
<text text-anchor="middle" x="1439.8" y="-142.32" font-family="Times,serif" font-size="14.00">q9:151</text>
</g>
<!-- q9:151&#45;&gt;q14:2520 -->
<g id="edge8" class="edge">
<title>q9:151&#45;&gt;q14:2520</title>
<path fill="none" stroke="black" d="M1478.7,-157.57C1488.8,-160.2 1499.8,-162.87 1510,-165 1549.1,-173.14 1593.2,-180.18 1628.4,-185.28"/>
<polygon fill="black" stroke="black" points="1627.61,-188.7 1638,-186.66 1628.6,-181.77 1627.61,-188.7"/>
<text text-anchor="middle" x="1564" y="-186.94" font-family="Times,serif" font-size="14.00">DATA/354:99</text>
</g>
<!-- q9:151&#45;&gt;q9:151 -->
<g id="edge9" class="edge">
<title>q9:151&#45;&gt;q9:151</title>
<path fill="none" stroke="black" d="M1418.4,-163.66C1413.6,-173.62 1420.7,-183 1439.8,-183 1451,-183 1458.1,-179.69 1461,-174.92"/>
<polygon fill="black" stroke="black" points="1464.5,-175.2 1461.09,-165.17 1457.5,-175.14 1464.5,-175.2"/>
<text text-anchor="middle" x="1439.8" y="-186.94" font-family="Times,serif" font-size="14.00">RCPT/250:9</text>
</g>
<!-- q13:43 -->
<g id="node9" class="node">
<title>q13:43</title>
<ellipse fill="none" stroke="black" stroke-width="2" cx="1694.6" cy="-140" rx="45.95" ry="18"/>
<text text-anchor="middle" x="1694.6" y="-135.32" font-family="Times,serif" font-size="14.00">q13:43</text>
</g>
<!-- q9:151&#45;&gt;q13:43 -->
<g id="edge10" class="edge">
<title>q9:151&#45;&gt;q13:43</title>
<path fill="none" stroke="black" d="M1486.5,-145.73C1528.7,-144.57 1591.4,-142.83 1636.7,-141.57"/>
<polygon fill="black" stroke="black" points="1636.69,-145.07 1646.59,-141.3 1636.49,-138.07 1636.69,-145.07"/>
<text text-anchor="middle" x="1564" y="-147.94" font-family="Times,serif" font-size="14.00">DATA/550:43</text>
</g>
<!-- q10:10 -->
<g id="node10" class="node">
<title>q10:10</title>
<ellipse fill="none" stroke="black" stroke-width="2" cx="954.27" cy="-221" rx="45.95" ry="18"/>
<text text-anchor="middle" x="954.27" y="-216.32" font-family="Times,serif" font-size="14.00">q10:10</text>
</g>
<!-- q15:10 -->
<g id="node11" class="node">
<title>q15:10</title>
<ellipse fill="none" stroke="black" stroke-width="2" cx="1196.5" cy="-233" rx="45.95" ry="18"/>
<text text-anchor="middle" x="1196.5" y="-228.32" font-family="Times,serif" font-size="14.00">q15:10</text>
</g>
<!-- q10:10&#45;&gt;q15:10 -->
<g id="edge11" class="edge">
<title>q10:10&#45;&gt;q15:10</title>
<path fill="none" stroke="black" d="M1000.74,-223.27C1039.9,-225.23 1096.6,-228.06 1138.7,-230.17"/>
<polygon fill="black" stroke="black" points="1138.53,-233.67 1148.69,-230.67 1138.87,-226.67 1138.53,-233.67"/>
<text text-anchor="middle" x="1072.2" y="-232.94" font-family="Times,serif" font-size="14.00">content/535:10</text>
</g>
<!-- q20:2 -->
<g id="node12" class="node">
<title>q20:2</title>
<ellipse fill="none" stroke="black" stroke-width="2" cx="1439.8" cy="-236" rx="39.63" ry="18"/>
<text text-anchor="middle" x="1439.8" y="-231.32" font-family="Times,serif" font-size="14.00">q20:2</text>
</g>
<!-- q15:10&#45;&gt;q20:2 -->
<g id="edge12" class="edge">
<title>q15:10&#45;&gt;q20:2</title>
<path fill="none" stroke="black" d="M1243.1,-233.57C1284.4,-234.08 1345.2,-234.84 1388,-235.37"/>
<polygon fill="black" stroke="black" points="1387.74,-238.87 1397.79,-235.49 1387.83,-231.87 1387.74,-238.87"/>
<text text-anchor="middle" x="1318.1" y="-238.94" font-family="Times,serif" font-size="14.00">λ/451:2</text>
</g>
<!-- q1:244 -->
<g id="node13" class="node">
<title>q1:244</title>
<ellipse fill="none" stroke="black" stroke-width="2" cx="257.84" cy="-135" rx="45.95" ry="18"/>
<text text-anchor="middle" x="257.84" y="-130.32" font-family="Times,serif" font-size="14.00">q1:244</text>
</g>
<!-- q3:242 -->
<g id="node14" class="node">
<title>q3:242</title>
<ellipse fill="none" stroke="black" stroke-width="2" cx="491.48" cy="-168" rx="45.95" ry="18"/>
<text text-anchor="middle" x="491.48" y="-163.32" font-family="Times,serif" font-size="14.00">q3:242</text>
</g>
<!-- q1:244&#45;&gt;q3:242 -->
<g id="edge13" class="edge">
<title>q1:244&#45;&gt;q3:242</title>
<path fill="none" stroke="black" d="M302.14,-141.17C340,-146.56 395.17,-154.42 436.02,-160.24"/>
<polygon fill="black" stroke="black" points="435.51,-163.7 445.9,-161.65 436.49,-156.77 435.51,-163.7"/>
<text text-anchor="middle" x="374.66" y="-161.94" font-family="Times,serif" font-size="14.00">EHLO/250:242</text>
</g>
<!-- q2:2 -->
<g id="node15" class="node">
<title>q2:2</title>
<ellipse fill="none" stroke="black" stroke-width="2" cx="491.48" cy="-108" rx="33.32" ry="18"/>
<text text-anchor="middle" x="491.48" y="-103.33" font-family="Times,serif" font-size="14.00">q2:2</text>
</g>
<!-- q1:244&#45;&gt;q2:2 -->
<g id="edge14" class="edge">
<title>q1:244&#45;&gt;q2:2</title>
<path fill="none" stroke="black" d="M296.21,-124.12C304.56,-122.03 313.43,-120.08 321.79,-118.75 363.53,-112.09 411.69,-109.52 445.85,-108.55"/>
<polygon fill="black" stroke="black" points="445.88,-112.05 455.8,-108.31 445.71,-105.05 445.88,-112.05"/>
<text text-anchor="middle" x="374.66" y="-122.95" font-family="Times,serif" font-size="14.00">EHLO/λ:2</text>
</g>
<!-- q4:233 -->
<g id="node16" class="node">
<title>q4:233</title>
<ellipse fill="none" stroke="black" stroke-width="2" cx="725.13" cy="-108" rx="45.95" ry="18"/>
<text text-anchor="middle" x="725.13" y="-103.33" font-family="Times,serif" font-size="14.00">q4:233</text>
</g>
<!-- q3:242&#45;&gt;q4:233 -->
<g id="edge15" class="edge">
<title>q3:242&#45;&gt;q4:233</title>
<path fill="none" stroke="black" d="M518.34,-152.45C529.42,-146.41 542.72,-139.94 555.43,-135.75 591.87,-123.75 634.52,-116.79 667.82,-112.84"/>
<polygon fill="black" stroke="black" points="668.13,-116.33 677.68,-111.74 667.35,-109.37 668.13,-116.33"/>
<text text-anchor="middle" x="608.31" y="-138.94" font-family="Times,serif" font-size="14.00">AUTH/235:231</text>
</g>
<!-- q5:1 -->
<g id="node17" class="node">
<title>q5:1</title>
<ellipse fill="none" stroke="black" stroke-width="2" cx="839.7" cy="-175" rx="33.32" ry="18"/>
<text text-anchor="middle" x="839.7" y="-170.32" font-family="Times,serif" font-size="14.00">q5:1</text>
</g>
<!-- q3:242&#45;&gt;q5:1 -->
<g id="edge16" class="edge">
<title>q3:242&#45;&gt;q5:1</title>
<path fill="none" stroke="black" d="M538.1,-168.92C604.79,-170.27 728.13,-172.76 794.18,-174.1"/>
<polygon fill="black" stroke="black" points="793.86,-177.59 803.93,-174.3 794,-170.6 793.86,-177.59"/>
<text text-anchor="middle" x="608.31" y="-174.94" font-family="Times,serif" font-size="14.00">AUTH/λ:1</text>
</g>
<!-- q6:10 -->
<g id="node18" class="node">
<title>q6:10</title>
<ellipse fill="none" stroke="black" stroke-width="2" cx="725.13" cy="-221" rx="39.63" ry="18"/>
<text text-anchor="middle" x="725.13" y="-216.32" font-family="Times,serif" font-size="14.00">q6:10</text>
</g>
<!-- q3:242&#45;&gt;q6:10 -->
<g id="edge17" class="edge">
<title>q3:242&#45;&gt;q6:10</title>
<path fill="none" stroke="black" d="M521.01,-182.66C531.59,-187.56 543.83,-192.63 555.43,-196 594.39,-207.32 639.96,-213.68 673.92,-217.16"/>
<polygon fill="black" stroke="black" points="673.16,-220.6 683.45,-218.08 673.83,-213.64 673.16,-220.6"/>
<text text-anchor="middle" x="608.31" y="-218.94" font-family="Times,serif" font-size="14.00">AUTH/535:10</text>
</g>
<!-- q2:2&#45;&gt;q4:233 -->
<g id="edge18" class="edge">
<title>q2:2&#45;&gt;q4:233</title>
<path fill="none" stroke="black" d="M523.05,-100.83C533.28,-98.75 544.79,-96.78 555.43,-95.75 602.21,-91.24 614.4,-91.24 661.18,-95.75 665.01,-96.12 668.95,-96.61 672.91,-97.19"/>
<polygon fill="black" stroke="black" points="672.07,-100.6 682.51,-98.75 673.2,-93.69 672.07,-100.6"/>
<text text-anchor="middle" x="608.31" y="-99.95" font-family="Times,serif" font-size="14.00">AUTH/235:2</text>
</g>
<!-- q7:3 -->
<g id="node19" class="node">
<title>q7:3</title>
<ellipse fill="none" stroke="black" stroke-width="2" cx="954.27" cy="-122" rx="33.32" ry="18"/>
<text text-anchor="middle" x="954.27" y="-117.33" font-family="Times,serif" font-size="14.00">q7:3</text>
</g>
<!-- q4:233&#45;&gt;q7:3 -->
<g id="edge19" class="edge">
<title>q4:233&#45;&gt;q7:3</title>
<path fill="none" stroke="black" d="M771.55,-110.8C811.53,-113.26 869.38,-116.83 909.01,-119.27"/>
<polygon fill="black" stroke="black" points="908.72,-122.76 918.92,-119.89 909.16,-115.77 908.72,-122.76"/>
<text text-anchor="middle" x="839.7" y="-121.95" font-family="Times,serif" font-size="14.00">MAIL/553:3</text>
</g>
<!-- q8:230 -->
<g id="node20" class="node">
<title>q8:230</title>
<ellipse fill="none" stroke="black" stroke-width="2" cx="954.27" cy="-68" rx="45.95" ry="18"/>
<text text-anchor="middle" x="954.27" y="-63.33" font-family="Times,serif" font-size="14.00">q8:230</text>
</g>
<!-- q4:233&#45;&gt;q8:230 -->
<g id="edge20" class="edge">
<title>q4:233&#45;&gt;q8:230</title>
<path fill="none" stroke="black" d="M763.92,-97.53C772.17,-95.44 780.89,-93.39 789.08,-91.75 825.04,-84.53 865.86,-78.61 897.8,-74.49"/>
<polygon fill="black" stroke="black" points="898.16,-77.98 907.64,-73.25 897.28,-71.03 898.16,-77.98"/>
<text text-anchor="middle" x="839.7" y="-95.95" font-family="Times,serif" font-size="14.00">MAIL/250:230</text>
</g>
<!-- q5:1&#45;&gt;q9:151 -->
<g id="edge21" class="edge">
<title>q5:1&#45;&gt;q9:151</title>
<path fill="none" stroke="black" d="M873.71,-173.45C971.2,-168.89 1258.8,-155.43 1381.8,-149.67"/>
<polygon fill="black" stroke="black" points="1381.86,-153.17 1391.69,-149.2 1381.53,-146.18 1381.86,-153.17"/>
<text text-anchor="middle" x="1072.2" y="-169.94" font-family="Times,serif" font-size="14.00">MAIL/250:1</text>
</g>
<!-- q6:10&#45;&gt;q10:10 -->
<g id="edge22" class="edge">
<title>q6:10&#45;&gt;q10:10</title>
<path fill="none" stroke="black" d="M765.69,-221C801.75,-221 855.43,-221 896.14,-221"/>
<polygon fill="black" stroke="black" points="896.01,-224.5 906.01,-221 896.01,-217.5 896.01,-224.5"/>
<text text-anchor="middle" x="839.7" y="-224.94" font-family="Times,serif" font-size="14.00">AUTH/334:10</text>
</g>
<!-- q11:3 -->
<g id="node21" class="node">
<title>q11:3</title>
<ellipse fill="none" stroke="black" stroke-width="2" cx="1196.5" cy="-122" rx="39.63" ry="18"/>
<text text-anchor="middle" x="1196.5" y="-117.33" font-family="Times,serif" font-size="14.00">q11:3</text>
</g>
<!-- q7:3&#45;&gt;q11:3 -->
<g id="edge23" class="edge">
<title>q7:3&#45;&gt;q11:3</title>
<path fill="none" stroke="black" d="M988.42,-122C1028.8,-122 1097.3,-122 1144.4,-122"/>
<polygon fill="black" stroke="black" points="1144.39,-125.5 1154.39,-122 1144.39,-118.5 1144.39,-125.5"/>
<text text-anchor="middle" x="1072.2" y="-125.95" font-family="Times,serif" font-size="14.00">RSET/250:3</text>
</g>
<!-- q12:230 -->
<g id="node22" class="node">
<title>q12:230</title>
<ellipse fill="none" stroke="black" stroke-width="2" cx="1196.5" cy="-68" rx="52.26" ry="18"/>
<text text-anchor="middle" x="1196.5" y="-63.33" font-family="Times,serif" font-size="14.00">q12:230</text>
</g>
<!-- q8:230&#45;&gt;q12:230 -->
<g id="edge24" class="edge">
<title>q8:230&#45;&gt;q12:230</title>
<path fill="none" stroke="black" d="M1001.02,-68C1038.1,-68 1090.8,-68 1131.9,-68"/>
<polygon fill="black" stroke="black" points="1131.69,-71.5 1141.69,-68 1131.69,-64.5 1131.69,-71.5"/>
<text text-anchor="middle" x="1072.2" y="-71.95" font-family="Times,serif" font-size="14.00">RCPT/250:230</text>
</g>
<!-- q12:230&#45;&gt;q9:151 -->
<g id="edge25" class="edge">
<title>q12:230&#45;&gt;q9:151</title>
<path fill="none" stroke="black" d="M1236,-80.61C1278.5,-94.53 1347,-116.95 1392.4,-131.82"/>
<polygon fill="black" stroke="black" points="1391.07,-135.07 1401.66,-134.87 1393.26,-128.42 1391.07,-135.07"/>
<text text-anchor="middle" x="1318.1" y="-127.95" font-family="Times,serif" font-size="14.00">RCPT/250:141</text>
</g>
<!-- q16:163 -->
<g id="node23" class="node">
<title>q16:163</title>
<ellipse fill="none" stroke="black" stroke-width="2" cx="1439.8" cy="-58" rx="52.26" ry="18"/>
<text text-anchor="middle" x="1439.8" y="-53.33" font-family="Times,serif" font-size="14.00">q16:163</text>
</g>
<!-- q12:230&#45;&gt;q16:163 -->
<g id="edge26" class="edge">
<title>q12:230&#45;&gt;q16:163</title>
<path fill="none" stroke="black" d="M1249.2,-65.86C1286.3,-64.32 1336.4,-62.24 1375.8,-60.61"/>
<polygon fill="black" stroke="black" points="1375.74,-64.12 1385.59,-60.2 1375.45,-57.12 1375.74,-64.12"/>
<text text-anchor="middle" x="1318.1" y="-69.95" font-family="Times,serif" font-size="14.00">DATA/354:89</text>
</g>
<!-- q16:163&#45;&gt;q16:163 -->
<g id="edge27" class="edge">
<title>q16:163&#45;&gt;q16:163</title>
<path fill="none" stroke="black" d="M1418.2,-75.04C1413.8,-84.86 1421,-94 1439.8,-94 1450.6,-94 1457.6,-90.94 1460.7,-86.47"/>
<polygon fill="black" stroke="black" points="1464.19,-86.72 1461.22,-76.55 1457.2,-86.35 1464.19,-86.72"/>
<text text-anchor="middle" x="1439.8" y="-97.95" font-family="Times,serif" font-size="14.00">content/λ:74</text>
</g>
<!-- q22:24 -->
<g id="node24" class="node">
<title>q22:24</title>
<ellipse fill="none" stroke="black" stroke-width="2" cx="1694.6" cy="-72" rx="45.95" ry="18"/>
<text text-anchor="middle" x="1694.6" y="-67.33" font-family="Times,serif" font-size="14.00">q22:24</text>
</g>
<!-- q16:163&#45;&gt;q22:24 -->
<g id="edge28" class="edge">
<title>q16:163&#45;&gt;q22:24</title>
<path fill="none" stroke="black" d="M1492.2,-60.85C1534.2,-63.18 1593.5,-66.46 1636.9,-68.86"/>
<polygon fill="black" stroke="black" points="1636.41,-72.34 1646.59,-69.4 1636.8,-65.35 1636.41,-72.34"/>
<text text-anchor="middle" x="1564" y="-71.95" font-family="Times,serif" font-size="14.00">content/250:24</text>
</g>
<!-- q21:65 -->
<g id="node25" class="node">
<title>q21:65</title>
<ellipse fill="none" stroke="black" stroke-width="2" cx="1694.6" cy="-18" rx="45.95" ry="18"/>
<text text-anchor="middle" x="1694.6" y="-13.32" font-family="Times,serif" font-size="14.00">q21:65</text>
</g>
<!-- q16:163&#45;&gt;q21:65 -->
<g id="edge29" class="edge">
<title>q16:163&#45;&gt;q21:65</title>
<path fill="none" stroke="black" d="M1483.5,-47.26C1492.2,-45.26 1501.4,-43.32 1510,-41.75 1552.7,-34.01 1601.3,-27.83 1637.8,-23.72"/>
<polygon fill="black" stroke="black" points="1638.14,-27.2 1647.7,-22.62 1637.37,-20.24 1638.14,-27.2"/>
<text text-anchor="middle" x="1564" y="-45.95" font-family="Times,serif" font-size="14.00">content/554:65</text>
</g>
<!-- q27:24 -->
<g id="node26" class="node">
<title>q27:24</title>
<ellipse fill="none" stroke="black" stroke-width="2" cx="1943.1" cy="-72" rx="45.95" ry="18"/>
<text text-anchor="middle" x="1943.1" y="-67.33" font-family="Times,serif" font-size="14.00">q27:24</text>
</g>
<!-- q22:24&#45;&gt;q27:24 -->
<g id="edge30" class="edge">
<title>q22:24&#45;&gt;q27:24</title>
<path fill="none" stroke="black" d="M1741.4,-72C1782,-72 1841.6,-72 1885.3,-72"/>
<polygon fill="black" stroke="black" points="1885.09,-75.5 1895.09,-72 1885.09,-68.5 1885.09,-75.5"/>
<text text-anchor="middle" x="1825.2" y="-75.95" font-family="Times,serif" font-size="14.00">QUIT/221:24</text>
</g>
<!-- q26:65 -->
<g id="node27" class="node">
<title>q26:65</title>
<ellipse fill="none" stroke="black" stroke-width="2" cx="1943.1" cy="-18" rx="45.95" ry="18"/>
<text text-anchor="middle" x="1943.1" y="-13.32" font-family="Times,serif" font-size="14.00">q26:65</text>
</g>
<!-- q21:65&#45;&gt;q26:65 -->
<g id="edge31" class="edge">
<title>q21:65&#45;&gt;q26:65</title>
<path fill="none" stroke="black" d="M1741.4,-18C1782,-18 1841.6,-18 1885.3,-18"/>
<polygon fill="black" stroke="black" points="1885.09,-21.5 1895.09,-18 1885.09,-14.5 1885.09,-21.5"/>
<text text-anchor="middle" x="1825.2" y="-21.95" font-family="Times,serif" font-size="14.00">RSET/250:65</text>
</g>
<!-- q0:244 -->
<g id="node28" class="node">
<title>q0:244</title>
<ellipse fill="none" stroke="black" stroke-width="2" cx="53.95" cy="-135" rx="49.95" ry="49.95"/>
<ellipse fill="none" stroke="black" stroke-width="2" cx="53.95" cy="-135" rx="53.95" ry="53.95"/>
<text text-anchor="middle" x="53.95" y="-130.32" font-family="Times,serif" font-size="14.00">q0:244</text>
</g>
<!-- q0:244&#45;&gt;q1:244 -->
<g id="edge32" class="edge">
<title>q0:244&#45;&gt;q1:244</title>
<path fill="none" stroke="black" d="M104.85,-135C133.64,-135 169.94,-135 199.84,-135"/>
<polygon fill="black" stroke="black" points="199.45,-138.5 209.45,-135 199.45,-131.5 199.45,-138.5"/>
<text text-anchor="middle" x="157.89" y="-138.94" font-family="Times,serif" font-size="14.00">λ/220:244</text>
</g>
</g>
</svg>
