<?xml version="1.0" encoding="UTF-8" standalone="no"?>
<!DOCTYPE svg PUBLIC "-//W3C//DTD SVG 1.1//EN"
 "http://www.w3.org/Graphics/SVG/1.1/DTD/svg11.dtd">
<!-- Generated by graphviz version 12.0.0 (20240803.0821)
 -->
<!-- Pages: 1 -->
<svg width="2464pt" height="323pt"
 viewBox="0.00 0.00 2464.46 323.00" xmlns="http://www.w3.org/2000/svg" xmlns:xlink="http://www.w3.org/1999/xlink">
<g id="graph0" class="graph" transform="scale(1 1) rotate(0) translate(4 319)">
<polygon fill="white" stroke="none" points="-4,4 -4,-319 2460.46,-319 2460.46,4 -4,4"/>
<!-- q16:50 -->
<g id="node1" class="node">
<title>q16:50</title>
<ellipse fill="none" stroke="black" stroke-width="2" cx="2163.2" cy="-179" rx="45.95" ry="18"/>
<text text-anchor="middle" x="2163.2" y="-174.32" font-family="Times,serif" font-size="14.00">q16:50</text>
</g>
<!-- q21:50 -->
<g id="node2" class="node">
<title>q21:50</title>
<ellipse fill="none" stroke="black" stroke-width="2" cx="2404.2" cy="-179" rx="45.95" ry="18"/>
<text text-anchor="middle" x="2404.2" y="-174.32" font-family="Times,serif" font-size="14.00">q21:50</text>
</g>
<!-- q16:50&#45;&gt;q21:50 -->
<g id="edge1" class="edge">
<title>q16:50&#45;&gt;q21:50</title>
<path fill="none" stroke="black" d="M2210,-179C2248.8,-179 2304.5,-179 2346.2,-179"/>
<polygon fill="black" stroke="black" points="2345.99,-182.5 2355.99,-179 2345.99,-175.5 2345.99,-182.5"/>
<text text-anchor="middle" x="2283.7" y="-182.94" font-family="Times,serif" font-size="14.00">RSET/250:50</text>
</g>
<!-- q17:1 -->
<g id="node3" class="node">
<title>q17:1</title>
<ellipse fill="none" stroke="black" stroke-width="2" cx="2163.2" cy="-125" rx="39.63" ry="18"/>
<text text-anchor="middle" x="2163.2" y="-120.33" font-family="Times,serif" font-size="14.00">q17:1</text>
</g>
<!-- q22:1 -->
<g id="node4" class="node">
<title>q22:1</title>
<ellipse fill="none" stroke="black" stroke-width="2" cx="2404.2" cy="-125" rx="39.63" ry="18"/>
<text text-anchor="middle" x="2404.2" y="-120.33" font-family="Times,serif" font-size="14.00">q22:1</text>
</g>
<!-- q17:1&#45;&gt;q22:1 -->
<g id="edge2" class="edge">
<title>q17:1&#45;&gt;q22:1</title>
<path fill="none" stroke="black" d="M2203.6,-125C2244.3,-125 2307.8,-125 2352.2,-125"/>
<polygon fill="black" stroke="black" points="2352.19,-128.5 2362.19,-125 2352.19,-121.5 2352.19,-128.5"/>
<text text-anchor="middle" x="2283.7" y="-128.94" font-family="Times,serif" font-size="14.00">RSET/250:1</text>
</g>
<!-- q8:227 -->
<g id="node5" class="node">
<title>q8:227</title>
<ellipse fill="none" stroke="black" stroke-width="2" cx="954.27" cy="-186" rx="45.95" ry="18"/>
<text text-anchor="middle" x="954.27" y="-181.32" font-family="Times,serif" font-size="14.00">q8:227</text>
</g>
<!-- q12:227 -->
<g id="node6" class="node">
<title>q12:227</title>
<ellipse fill="none" stroke="black" stroke-width="2" cx="1196.5" cy="-186" rx="52.26" ry="18"/>
<text text-anchor="middle" x="1196.5" y="-181.32" font-family="Times,serif" font-size="14.00">q12:227</text>
</g>
<!-- q8:227&#45;&gt;q12:227 -->
<g id="edge3" class="edge">
<title>q8:227&#45;&gt;q12:227</title>
<path fill="none" stroke="black" d="M1001.02,-186C1038.1,-186 1090.8,-186 1131.9,-186"/>
<polygon fill="black" stroke="black" points="1131.69,-189.5 1141.69,-186 1131.69,-182.5 1131.69,-189.5"/>
<text text-anchor="middle" x="1072.2" y="-189.94" font-family="Times,serif" font-size="14.00">RCPT/250:227</text>
</g>
<!-- q13:3213 -->
<g id="node7" class="node">
<title>q13:3213</title>
<ellipse fill="none" stroke="black" stroke-width="2" cx="1899.3" cy="-125" rx="58.57" ry="18"/>
<text text-anchor="middle" x="1899.3" y="-120.33" font-family="Times,serif" font-size="14.00">q13:3213</text>
</g>
<!-- q12:227&#45;&gt;q13:3213 -->
<g id="edge4" class="edge">
<title>q12:227&#45;&gt;q13:3213</title>
<path fill="none" stroke="black" d="M1247.1,-191.65C1340.6,-201.09 1549.3,-216.31 1721.5,-187 1768.4,-179.01 1819.5,-159.89 1854.6,-144.98"/>
<polygon fill="black" stroke="black" points="1855.81,-148.27 1863.61,-141.1 1853.04,-141.84 1855.81,-148.27"/>
<text text-anchor="middle" x="1556.1" y="-206.94" font-family="Times,serif" font-size="14.00">DATA/354:65</text>
</g>
<!-- q15:162 -->
<g id="node8" class="node">
<title>q15:162</title>
<ellipse fill="none" stroke="black" stroke-width="2" cx="1439.8" cy="-97" rx="52.26" ry="18"/>
<text text-anchor="middle" x="1439.8" y="-92.33" font-family="Times,serif" font-size="14.00">q15:162</text>
</g>
<!-- q12:227&#45;&gt;q15:162 -->
<g id="edge5" class="edge">
<title>q12:227&#45;&gt;q15:162</title>
<path fill="none" stroke="black" d="M1233.9,-172.58C1276,-157.02 1345.6,-131.35 1391.8,-114.31"/>
<polygon fill="black" stroke="black" points="1392.9,-117.63 1401.08,-110.9 1390.49,-111.06 1392.9,-117.63"/>
<text text-anchor="middle" x="1318.1" y="-162.94" font-family="Times,serif" font-size="14.00">RCPT/250:162</text>
</g>
<!-- q13:3213&#45;&gt;q16:50 -->
<g id="edge6" class="edge">
<title>q13:3213&#45;&gt;q16:50</title>
<path fill="none" stroke="black" d="M1943.3,-137.71C1953.9,-140.63 1965.3,-143.59 1975.9,-146 2020,-156.01 2070.6,-164.81 2107.9,-170.79"/>
<polygon fill="black" stroke="black" points="2107.08,-174.2 2117.5,-172.32 2108.18,-167.29 2107.08,-174.2"/>
<text text-anchor="middle" x="2034.4" y="-171.94" font-family="Times,serif" font-size="14.00">content/554:50</text>
</g>
<!-- q13:3213&#45;&gt;q17:1 -->
<g id="edge7" class="edge">
<title>q13:3213&#45;&gt;q17:1</title>
<path fill="none" stroke="black" d="M1958.8,-125C2004.5,-125 2067.4,-125 2111.1,-125"/>
<polygon fill="black" stroke="black" points="2111.09,-128.5 2121.09,-125 2111.09,-121.5 2111.09,-128.5"/>
<text text-anchor="middle" x="2034.4" y="-128.94" font-family="Times,serif" font-size="14.00">content/550:1</text>
</g>
<!-- q13:3213&#45;&gt;q13:3213 -->
<g id="edge8" class="edge">
<title>q13:3213&#45;&gt;q13:3213</title>
<path fill="none" stroke="black" d="M1878.2,-142.41C1874.3,-152.09 1881.3,-161 1899.3,-161 1909.7,-161 1916.5,-158.02 1919.6,-153.64"/>
<polygon fill="black" stroke="black" points="1923.07,-154.14 1920.29,-143.92 1916.09,-153.65 1923.07,-154.14"/>
<text text-anchor="middle" x="1899.3" y="-164.94" font-family="Times,serif" font-size="14.00">content/λ:3028</text>
</g>
<!-- q18:134 -->
<g id="node9" class="node">
<title>q18:134</title>
<ellipse fill="none" stroke="black" stroke-width="2" cx="2163.2" cy="-71" rx="52.26" ry="18"/>
<text text-anchor="middle" x="2163.2" y="-66.33" font-family="Times,serif" font-size="14.00">q18:134</text>
</g>
<!-- q13:3213&#45;&gt;q18:134 -->
<g id="edge9" class="edge">
<title>q13:3213&#45;&gt;q18:134</title>
<path fill="none" stroke="black" d="M1942.9,-112.22C1953.6,-109.23 1965.1,-106.2 1975.9,-103.75 2018.1,-94.13 2066.3,-85.73 2103,-79.85"/>
<polygon fill="black" stroke="black" points="2103.27,-83.35 2112.6,-78.34 2102.18,-76.43 2103.27,-83.35"/>
<text text-anchor="middle" x="2034.4" y="-106.95" font-family="Times,serif" font-size="14.00">content/250:134</text>
</g>
<!-- q15:162&#45;&gt;q13:3213 -->
<g id="edge10" class="edge">
<title>q15:162&#45;&gt;q13:3213</title>
<path fill="none" stroke="black" d="M1488.1,-89.08C1544.1,-80.91 1639.9,-70.69 1721.5,-80.75 1764.2,-86.01 1811.3,-98.14 1846.2,-108.37"/>
<polygon fill="black" stroke="black" points="1845.07,-111.68 1855.65,-111.19 1847.07,-104.98 1845.07,-111.68"/>
<text text-anchor="middle" x="1670.9" y="-83.95" font-family="Times,serif" font-size="14.00">DATA/354:118</text>
</g>
<!-- q9:10 -->
<g id="node10" class="node">
<title>q9:10</title>
<ellipse fill="none" stroke="black" stroke-width="2" cx="1670.9" cy="-125" rx="39.63" ry="18"/>
<text text-anchor="middle" x="1670.9" y="-120.33" font-family="Times,serif" font-size="14.00">q9:10</text>
</g>
<!-- q15:162&#45;&gt;q9:10 -->
<g id="edge11" class="edge">
<title>q15:162&#45;&gt;q9:10</title>
<path fill="none" stroke="black" d="M1490.2,-103.04C1528.7,-107.75 1582,-114.27 1620.6,-118.97"/>
<polygon fill="black" stroke="black" points="1619.64,-122.38 1630,-120.13 1620.5,-115.43 1619.64,-122.38"/>
<text text-anchor="middle" x="1556.1" y="-119.95" font-family="Times,serif" font-size="14.00">RCPT/250:1</text>
</g>
<!-- q20:43 -->
<g id="node11" class="node">
<title>q20:43</title>
<ellipse fill="none" stroke="black" stroke-width="2" cx="1670.9" cy="-18" rx="45.95" ry="18"/>
<text text-anchor="middle" x="1670.9" y="-13.32" font-family="Times,serif" font-size="14.00">q20:43</text>
</g>
<!-- q15:162&#45;&gt;q20:43 -->
<g id="edge12" class="edge">
<title>q15:162&#45;&gt;q20:43</title>
<path fill="none" stroke="black" d="M1457.2,-79.25C1470.2,-66.36 1489.6,-49.68 1510,-40.75 1542.3,-26.66 1581.4,-20.92 1612.8,-18.73"/>
<polygon fill="black" stroke="black" points="1612.71,-22.24 1622.49,-18.16 1612.3,-15.25 1612.71,-22.24"/>
<text text-anchor="middle" x="1556.1" y="-43.95" font-family="Times,serif" font-size="14.00">DATA/550:43</text>
</g>
<!-- q23:134 -->
<g id="node12" class="node">
<title>q23:134</title>
<ellipse fill="none" stroke="black" stroke-width="2" cx="2404.2" cy="-71" rx="52.26" ry="18"/>
<text text-anchor="middle" x="2404.2" y="-66.33" font-family="Times,serif" font-size="14.00">q23:134</text>
</g>
<!-- q18:134&#45;&gt;q23:134 -->
<g id="edge13" class="edge">
<title>q18:134&#45;&gt;q23:134</title>
<path fill="none" stroke="black" d="M2216.3,-71C2252.7,-71 2301.5,-71 2340,-71"/>
<polygon fill="black" stroke="black" points="2339.59,-74.5 2349.59,-71 2339.59,-67.5 2339.59,-74.5"/>
<text text-anchor="middle" x="2283.7" y="-74.95" font-family="Times,serif" font-size="14.00">QUIT/221:134</text>
</g>
<!-- q9:10&#45;&gt;q13:3213 -->
<g id="edge14" class="edge">
<title>q9:10&#45;&gt;q13:3213</title>
<path fill="none" stroke="black" d="M1711.3,-125C1743.6,-125 1790.1,-125 1828.6,-125"/>
<polygon fill="black" stroke="black" points="1828.29,-128.5 1838.29,-125 1828.29,-121.5 1828.29,-128.5"/>
<text text-anchor="middle" x="1781.1" y="-128.94" font-family="Times,serif" font-size="14.00">DATA/354:2</text>
</g>
<!-- q9:10&#45;&gt;q9:10 -->
<g id="edge15" class="edge">
<title>q9:10&#45;&gt;q9:10</title>
<path fill="none" stroke="black" d="M1651.5,-141.66C1647.2,-151.62 1653.7,-161 1670.9,-161 1681.1,-161 1687.5,-157.69 1690.2,-152.92"/>
<polygon fill="black" stroke="black" points="1693.7,-153.2 1690.29,-143.17 1686.7,-153.14 1693.7,-153.2"/>
<text text-anchor="middle" x="1670.9" y="-164.94" font-family="Times,serif" font-size="14.00">RCPT/250:8</text>
</g>
<!-- q10:13 -->
<g id="node13" class="node">
<title>q10:13</title>
<ellipse fill="none" stroke="black" stroke-width="2" cx="954.27" cy="-296" rx="45.95" ry="18"/>
<text text-anchor="middle" x="954.27" y="-291.32" font-family="Times,serif" font-size="14.00">q10:13</text>
</g>
<!-- q14:13 -->
<g id="node14" class="node">
<title>q14:13</title>
<ellipse fill="none" stroke="black" stroke-width="2" cx="1196.5" cy="-297" rx="45.95" ry="18"/>
<text text-anchor="middle" x="1196.5" y="-292.32" font-family="Times,serif" font-size="14.00">q14:13</text>
</g>
<!-- q10:13&#45;&gt;q14:13 -->
<g id="edge16" class="edge">
<title>q10:13&#45;&gt;q14:13</title>
<path fill="none" stroke="black" d="M1001.02,-296.19C1040.1,-296.35 1096.5,-296.59 1138.5,-296.76"/>
<polygon fill="black" stroke="black" points="1138.37,-300.26 1148.39,-296.8 1138.4,-293.26 1138.37,-300.26"/>
<text text-anchor="middle" x="1072.2" y="-299.94" font-family="Times,serif" font-size="14.00">content/535:13</text>
</g>
<!-- q19:4 -->
<g id="node15" class="node">
<title>q19:4</title>
<ellipse fill="none" stroke="black" stroke-width="2" cx="1439.8" cy="-297" rx="39.63" ry="18"/>
<text text-anchor="middle" x="1439.8" y="-292.32" font-family="Times,serif" font-size="14.00">q19:4</text>
</g>
<!-- q14:13&#45;&gt;q19:4 -->
<g id="edge17" class="edge">
<title>q14:13&#45;&gt;q19:4</title>
<path fill="none" stroke="black" d="M1243.1,-297C1284.4,-297 1345.2,-297 1388,-297"/>
<polygon fill="black" stroke="black" points="1387.79,-300.5 1397.79,-297 1387.79,-293.5 1387.79,-300.5"/>
<text text-anchor="middle" x="1318.1" y="-300.94" font-family="Times,serif" font-size="14.00">λ/451:4</text>
</g>
<!-- q1:244 -->
<g id="node16" class="node">
<title>q1:244</title>
<ellipse fill="none" stroke="black" stroke-width="2" cx="257.84" cy="-206" rx="45.95" ry="18"/>
<text text-anchor="middle" x="257.84" y="-201.32" font-family="Times,serif" font-size="14.00">q1:244</text>
</g>
<!-- q2:242 -->
<g id="node17" class="node">
<title>q2:242</title>
<ellipse fill="none" stroke="black" stroke-width="2" cx="491.48" cy="-239" rx="45.95" ry="18"/>
<text text-anchor="middle" x="491.48" y="-234.32" font-family="Times,serif" font-size="14.00">q2:242</text>
</g>
<!-- q1:244&#45;&gt;q2:242 -->
<g id="edge18" class="edge">
<title>q1:244&#45;&gt;q2:242</title>
<path fill="none" stroke="black" d="M302.14,-212.17C340,-217.56 395.17,-225.42 436.02,-231.24"/>
<polygon fill="black" stroke="black" points="435.51,-234.7 445.9,-232.65 436.49,-227.77 435.51,-234.7"/>
<text text-anchor="middle" x="374.66" y="-232.94" font-family="Times,serif" font-size="14.00">EHLO/250:242</text>
</g>
<!-- q3:2 -->
<g id="node18" class="node">
<title>q3:2</title>
<ellipse fill="none" stroke="black" stroke-width="2" cx="491.48" cy="-179" rx="33.32" ry="18"/>
<text text-anchor="middle" x="491.48" y="-174.32" font-family="Times,serif" font-size="14.00">q3:2</text>
</g>
<!-- q1:244&#45;&gt;q3:2 -->
<g id="edge19" class="edge">
<title>q1:244&#45;&gt;q3:2</title>
<path fill="none" stroke="black" d="M296.21,-195.12C304.56,-193.03 313.43,-191.08 321.79,-189.75 363.53,-183.09 411.69,-180.52 445.85,-179.55"/>
<polygon fill="black" stroke="black" points="445.88,-183.05 455.8,-179.31 445.71,-176.05 445.88,-183.05"/>
<text text-anchor="middle" x="374.66" y="-192.94" font-family="Times,serif" font-size="14.00">EHLO/λ:2</text>
</g>
<!-- q5:1 -->
<g id="node19" class="node">
<title>q5:1</title>
<ellipse fill="none" stroke="black" stroke-width="2" cx="839.7" cy="-244" rx="33.32" ry="18"/>
<text text-anchor="middle" x="839.7" y="-239.32" font-family="Times,serif" font-size="14.00">q5:1</text>
</g>
<!-- q2:242&#45;&gt;q5:1 -->
<g id="edge20" class="edge">
<title>q2:242&#45;&gt;q5:1</title>
<path fill="none" stroke="black" d="M538.1,-239.66C604.79,-240.62 728.13,-242.4 794.18,-243.36"/>
<polygon fill="black" stroke="black" points="793.88,-246.86 803.93,-243.5 793.98,-239.86 793.88,-246.86"/>
<text text-anchor="middle" x="608.31" y="-244.94" font-family="Times,serif" font-size="14.00">AUTH/λ:1</text>
</g>
<!-- q4:230 -->
<g id="node20" class="node">
<title>q4:230</title>
<ellipse fill="none" stroke="black" stroke-width="2" cx="725.13" cy="-175" rx="45.95" ry="18"/>
<text text-anchor="middle" x="725.13" y="-170.32" font-family="Times,serif" font-size="14.00">q4:230</text>
</g>
<!-- q2:242&#45;&gt;q4:230 -->
<g id="edge21" class="edge">
<title>q2:242&#45;&gt;q4:230</title>
<path fill="none" stroke="black" d="M518.39,-223.6C529.48,-217.57 542.77,-211.08 555.43,-206.75 576.24,-199.63 629.15,-190.16 670.21,-183.42"/>
<polygon fill="black" stroke="black" points="670.63,-186.9 679.95,-181.84 669.51,-179.99 670.63,-186.9"/>
<text text-anchor="middle" x="608.31" y="-209.94" font-family="Times,serif" font-size="14.00">AUTH/235:228</text>
</g>
<!-- q6:13 -->
<g id="node21" class="node">
<title>q6:13</title>
<ellipse fill="none" stroke="black" stroke-width="2" cx="725.13" cy="-293" rx="39.63" ry="18"/>
<text text-anchor="middle" x="725.13" y="-288.32" font-family="Times,serif" font-size="14.00">q6:13</text>
</g>
<!-- q2:242&#45;&gt;q6:13 -->
<g id="edge22" class="edge">
<title>q2:242&#45;&gt;q6:13</title>
<path fill="none" stroke="black" d="M521.02,-253.62C531.6,-258.52 543.84,-263.6 555.43,-267 594.51,-278.48 640.26,-285.13 674.25,-288.82"/>
<polygon fill="black" stroke="black" points="673.49,-292.26 683.79,-289.81 674.21,-285.3 673.49,-292.26"/>
<text text-anchor="middle" x="608.31" y="-290.94" font-family="Times,serif" font-size="14.00">AUTH/535:13</text>
</g>
<!-- q3:2&#45;&gt;q4:230 -->
<g id="edge23" class="edge">
<title>q3:2&#45;&gt;q4:230</title>
<path fill="none" stroke="black" d="M523.05,-171.83C533.28,-169.75 544.79,-167.78 555.43,-166.75 602.21,-162.24 614.28,-163.69 661.18,-166.75 664.02,-166.94 666.93,-167.17 669.86,-167.43"/>
<polygon fill="black" stroke="black" points="669.39,-170.9 679.69,-168.45 670.11,-163.94 669.39,-170.9"/>
<text text-anchor="middle" x="608.31" y="-169.94" font-family="Times,serif" font-size="14.00">AUTH/235:2</text>
</g>
<!-- q5:1&#45;&gt;q9:10 -->
<g id="edge24" class="edge">
<title>q5:1&#45;&gt;q9:10</title>
<path fill="none" stroke="black" d="M873.91,-244C918.71,-244 1000.98,-244 1071.2,-244 1071.2,-244 1071.2,-244 1440.8,-244 1513.1,-244 1540.5,-261.64 1602.3,-224 1628.8,-207.82 1647.4,-176.83 1658.3,-153.81"/>
<polygon fill="black" stroke="black" points="1661.38,-155.5 1662.28,-144.94 1654.99,-152.63 1661.38,-155.5"/>
<text text-anchor="middle" x="1196.5" y="-247.94" font-family="Times,serif" font-size="14.00">MAIL/250:1</text>
</g>
<!-- q4:230&#45;&gt;q8:227 -->
<g id="edge25" class="edge">
<title>q4:230&#45;&gt;q8:227</title>
<path fill="none" stroke="black" d="M771.55,-177.2C807.61,-178.95 858.21,-181.4 896.86,-183.27"/>
<polygon fill="black" stroke="black" points="896.26,-186.75 906.42,-183.73 896.6,-179.75 896.26,-186.75"/>
<text text-anchor="middle" x="839.7" y="-185.94" font-family="Times,serif" font-size="14.00">MAIL/250:227</text>
</g>
<!-- q7:3 -->
<g id="node22" class="node">
<title>q7:3</title>
<ellipse fill="none" stroke="black" stroke-width="2" cx="954.27" cy="-132" rx="33.32" ry="18"/>
<text text-anchor="middle" x="954.27" y="-127.33" font-family="Times,serif" font-size="14.00">q7:3</text>
</g>
<!-- q4:230&#45;&gt;q7:3 -->
<g id="edge26" class="edge">
<title>q4:230&#45;&gt;q7:3</title>
<path fill="none" stroke="black" d="M762.53,-163.56C771.18,-161.09 780.41,-158.65 789.08,-156.75 829.5,-147.88 876.23,-141.18 909.47,-137"/>
<polygon fill="black" stroke="black" points="909.64,-140.51 919.14,-135.81 908.78,-133.56 909.64,-140.51"/>
<text text-anchor="middle" x="839.7" y="-159.94" font-family="Times,serif" font-size="14.00">MAIL/553:3</text>
</g>
<!-- q6:13&#45;&gt;q10:13 -->
<g id="edge27" class="edge">
<title>q6:13&#45;&gt;q10:13</title>
<path fill="none" stroke="black" d="M765.69,-293.52C801.75,-294 855.43,-294.71 896.14,-295.25"/>
<polygon fill="black" stroke="black" points="895.96,-298.75 906.01,-295.38 896.05,-291.75 895.96,-298.75"/>
<text text-anchor="middle" x="839.7" y="-298.94" font-family="Times,serif" font-size="14.00">AUTH/334:13</text>
</g>
<!-- q11:3 -->
<g id="node23" class="node">
<title>q11:3</title>
<ellipse fill="none" stroke="black" stroke-width="2" cx="1196.5" cy="-132" rx="39.63" ry="18"/>
<text text-anchor="middle" x="1196.5" y="-127.33" font-family="Times,serif" font-size="14.00">q11:3</text>
</g>
<!-- q7:3&#45;&gt;q11:3 -->
<g id="edge28" class="edge">
<title>q7:3&#45;&gt;q11:3</title>
<path fill="none" stroke="black" d="M988.42,-132C1028.8,-132 1097.3,-132 1144.4,-132"/>
<polygon fill="black" stroke="black" points="1144.39,-135.5 1154.39,-132 1144.39,-128.5 1144.39,-135.5"/>
<text text-anchor="middle" x="1072.2" y="-135.94" font-family="Times,serif" font-size="14.00">RSET/250:3</text>
</g>
<!-- q0:244 -->
<g id="node24" class="node">
<title>q0:244</title>
<ellipse fill="none" stroke="black" stroke-width="2" cx="53.95" cy="-206" rx="49.95" ry="49.95"/>
<ellipse fill="none" stroke="black" stroke-width="2" cx="53.95" cy="-206" rx="53.95" ry="53.95"/>
<text text-anchor="middle" x="53.95" y="-201.32" font-family="Times,serif" font-size="14.00">q0:244</text>
</g>
<!-- q0:244&#45;&gt;q1:244 -->
<g id="edge29" class="edge">
<title>q0:244&#45;&gt;q1:244</title>
<path fill="none" stroke="black" d="M104.85,-206C133.64,-206 169.94,-206 199.84,-206"/>
<polygon fill="black" stroke="black" points="199.45,-209.5 209.45,-206 199.45,-202.5 199.45,-209.5"/>
<text text-anchor="middle" x="157.89" y="-209.94" font-family="Times,serif" font-size="14.00">λ/220:244</text>
</g>
</g>
</svg>
