<?xml version="1.0" encoding="UTF-8" standalone="no"?>
<!DOCTYPE svg PUBLIC "-//W3C//DTD SVG 1.1//EN"
 "http://www.w3.org/Graphics/SVG/1.1/DTD/svg11.dtd">
<!-- Generated by graphviz version 12.0.0 (20240803.0821)
 -->
<!-- Pages: 1 -->
<svg width="2253pt" height="263pt"
 viewBox="0.00 0.00 2252.96 262.56" xmlns="http://www.w3.org/2000/svg" xmlns:xlink="http://www.w3.org/1999/xlink">
<g id="graph0" class="graph" transform="scale(1 1) rotate(0) translate(4 258.56)">
<polygon fill="white" stroke="none" points="-4,4 -4,-258.56 2248.96,-258.56 2248.96,4 -4,4"/>
<!-- q2:2 -->
<g id="node1" class="node">
<title>q2:2</title>
<ellipse fill="none" stroke="black" stroke-width="2" cx="491.48" cy="-118.56" rx="33.32" ry="18"/>
<text text-anchor="middle" x="491.48" y="-113.88" font-family="Times,serif" font-size="14.00">q2:2</text>
</g>
<!-- q4:231 -->
<g id="node2" class="node">
<title>q4:231</title>
<ellipse fill="none" stroke="black" stroke-width="2" cx="725.13" cy="-114.56" rx="45.95" ry="18"/>
<text text-anchor="middle" x="725.13" y="-109.88" font-family="Times,serif" font-size="14.00">q4:231</text>
</g>
<!-- q2:2&#45;&gt;q4:231 -->
<g id="edge1" class="edge">
<title>q2:2&#45;&gt;q4:231</title>
<path fill="none" stroke="black" d="M523.05,-111.39C533.28,-109.32 544.79,-107.34 555.43,-106.31 602.21,-101.8 614.28,-103.25 661.18,-106.31 664.02,-106.5 666.93,-106.73 669.86,-107"/>
<polygon fill="black" stroke="black" points="669.39,-110.47 679.69,-108.02 670.11,-103.5 669.39,-110.47"/>
<text text-anchor="middle" x="608.31" y="-109.51" font-family="Times,serif" font-size="14.00">AUTH/235:2</text>
</g>
<!-- q7:228 -->
<g id="node3" class="node">
<title>q7:228</title>
<ellipse fill="none" stroke="black" stroke-width="2" cx="954.27" cy="-129.56" rx="45.95" ry="18"/>
<text text-anchor="middle" x="954.27" y="-124.88" font-family="Times,serif" font-size="14.00">q7:228</text>
</g>
<!-- q4:231&#45;&gt;q7:228 -->
<g id="edge2" class="edge">
<title>q4:231&#45;&gt;q7:228</title>
<path fill="none" stroke="black" d="M771.28,-117.54C807.43,-119.93 858.32,-123.29 897.11,-125.85"/>
<polygon fill="black" stroke="black" points="896.49,-129.32 906.7,-126.49 896.95,-122.33 896.49,-129.32"/>
<text text-anchor="middle" x="839.7" y="-128.51" font-family="Times,serif" font-size="14.00">MAIL/250:228</text>
</g>
<!-- q8:3 -->
<g id="node4" class="node">
<title>q8:3</title>
<ellipse fill="none" stroke="black" stroke-width="2" cx="954.27" cy="-75.56" rx="33.32" ry="18"/>
<text text-anchor="middle" x="954.27" y="-70.89" font-family="Times,serif" font-size="14.00">q8:3</text>
</g>
<!-- q4:231&#45;&gt;q8:3 -->
<g id="edge3" class="edge">
<title>q4:231&#45;&gt;q8:3</title>
<path fill="none" stroke="black" d="M763.21,-103.5C771.66,-101.23 780.63,-99.02 789.08,-97.31 829.54,-89.13 876.26,-83.28 909.5,-79.73"/>
<polygon fill="black" stroke="black" points="909.57,-83.24 919.15,-78.72 908.85,-76.28 909.57,-83.24"/>
<text text-anchor="middle" x="839.7" y="-100.51" font-family="Times,serif" font-size="14.00">MAIL/553:3</text>
</g>
<!-- q10:229 -->
<g id="node5" class="node">
<title>q10:229</title>
<ellipse fill="none" stroke="black" stroke-width="2" cx="1196.5" cy="-161.56" rx="52.26" ry="18"/>
<text text-anchor="middle" x="1196.5" y="-156.88" font-family="Times,serif" font-size="14.00">q10:229</text>
</g>
<!-- q7:228&#45;&gt;q10:229 -->
<g id="edge4" class="edge">
<title>q7:228&#45;&gt;q10:229</title>
<path fill="none" stroke="black" d="M998.84,-135.36C1033.4,-139.95 1082.9,-146.54 1126.2,-152.31 1129.2,-152.71 1132.3,-153.12 1135.4,-153.54"/>
<polygon fill="black" stroke="black" points="1134.83,-156.99 1145.2,-154.84 1135.75,-150.05 1134.83,-156.99"/>
<text text-anchor="middle" x="1072.2" y="-155.51" font-family="Times,serif" font-size="14.00">RCPT/250:228</text>
</g>
<!-- q11:3 -->
<g id="node6" class="node">
<title>q11:3</title>
<ellipse fill="none" stroke="black" stroke-width="2" cx="1196.5" cy="-75.56" rx="39.63" ry="18"/>
<text text-anchor="middle" x="1196.5" y="-70.89" font-family="Times,serif" font-size="14.00">q11:3</text>
</g>
<!-- q8:3&#45;&gt;q11:3 -->
<g id="edge5" class="edge">
<title>q8:3&#45;&gt;q11:3</title>
<path fill="none" stroke="black" d="M988.42,-75.56C1028.8,-75.56 1097.3,-75.56 1144.4,-75.56"/>
<polygon fill="black" stroke="black" points="1144.39,-79.06 1154.39,-75.56 1144.39,-72.06 1144.39,-79.06"/>
<text text-anchor="middle" x="1072.2" y="-79.51" font-family="Times,serif" font-size="14.00">RSET/250:3</text>
</g>
<!-- q14:165 -->
<g id="node7" class="node">
<title>q14:165</title>
<ellipse fill="none" stroke="black" stroke-width="2" cx="1439.8" cy="-100.56" rx="52.26" ry="18"/>
<text text-anchor="middle" x="1439.8" y="-95.89" font-family="Times,serif" font-size="14.00">q14:165</text>
</g>
<!-- q10:229&#45;&gt;q14:165 -->
<g id="edge6" class="edge">
<title>q10:229&#45;&gt;q14:165</title>
<path fill="none" stroke="black" d="M1237.3,-149.54C1246.9,-146.74 1257.2,-143.84 1266.7,-141.31 1305.5,-131.06 1349.6,-120.65 1383.4,-112.92"/>
<polygon fill="black" stroke="black" points="1383.95,-116.38 1392.92,-110.75 1382.4,-109.56 1383.95,-116.38"/>
<text text-anchor="middle" x="1318.1" y="-144.51" font-family="Times,serif" font-size="14.00">RCPT/250:161</text>
</g>
<!-- q13:3334 -->
<g id="node8" class="node">
<title>q13:3334</title>
<ellipse fill="none" stroke="black" stroke-width="2" cx="1687.8" cy="-163.56" rx="58.57" ry="18"/>
<text text-anchor="middle" x="1687.8" y="-158.88" font-family="Times,serif" font-size="14.00">q13:3334</text>
</g>
<!-- q10:229&#45;&gt;q13:3334 -->
<g id="edge7" class="edge">
<title>q10:229&#45;&gt;q13:3334</title>
<path fill="none" stroke="black" d="M1249.4,-161.78C1337.8,-162.14 1517.5,-162.87 1616.9,-163.28"/>
<polygon fill="black" stroke="black" points="1616.77,-166.78 1626.79,-163.31 1616.8,-159.78 1616.77,-166.78"/>
<text text-anchor="middle" x="1439.8" y="-166.51" font-family="Times,serif" font-size="14.00">DATA/354:68</text>
</g>
<!-- q14:165&#45;&gt;q13:3334 -->
<g id="edge10" class="edge">
<title>q14:165&#45;&gt;q13:3334</title>
<path fill="none" stroke="black" d="M1482.8,-111.73C1491.8,-114.05 1501.2,-116.43 1510,-118.56 1554.8,-129.42 1566.6,-129.74 1611.3,-141.31 1618.6,-143.2 1626.2,-145.31 1633.7,-147.46"/>
<polygon fill="black" stroke="black" points="1632.57,-150.78 1643.15,-150.18 1634.5,-144.05 1632.57,-150.78"/>
<text text-anchor="middle" x="1560.6" y="-144.51" font-family="Times,serif" font-size="14.00">DATA/354:123</text>
</g>
<!-- q20:4 -->
<g id="node9" class="node">
<title>q20:4</title>
<ellipse fill="none" stroke="black" stroke-width="2" cx="1687.8" cy="-33.56" rx="39.63" ry="18"/>
<text text-anchor="middle" x="1687.8" y="-28.89" font-family="Times,serif" font-size="14.00">q20:4</text>
</g>
<!-- q14:165&#45;&gt;q20:4 -->
<g id="edge9" class="edge">
<title>q14:165&#45;&gt;q20:4</title>
<path fill="none" stroke="black" d="M1479.9,-88.23C1489.7,-85.23 1500.2,-82.08 1510,-79.31 1554.2,-66.82 1605,-53.82 1640.8,-44.89"/>
<polygon fill="black" stroke="black" points="1641.48,-48.32 1650.33,-42.5 1639.78,-41.53 1641.48,-48.32"/>
<text text-anchor="middle" x="1560.6" y="-82.51" font-family="Times,serif" font-size="14.00">RCPT/250:4</text>
</g>
<!-- q19:38 -->
<g id="node10" class="node">
<title>q19:38</title>
<ellipse fill="none" stroke="black" stroke-width="2" cx="1687.8" cy="-100.56" rx="45.95" ry="18"/>
<text text-anchor="middle" x="1687.8" y="-95.89" font-family="Times,serif" font-size="14.00">q19:38</text>
</g>
<!-- q14:165&#45;&gt;q19:38 -->
<g id="edge11" class="edge">
<title>q14:165&#45;&gt;q19:38</title>
<path fill="none" stroke="black" d="M1492.9,-100.56C1533,-100.56 1588.4,-100.56 1629.7,-100.56"/>
<polygon fill="black" stroke="black" points="1629.39,-104.06 1639.39,-100.56 1629.39,-97.06 1629.39,-104.06"/>
<text text-anchor="middle" x="1560.6" y="-104.51" font-family="Times,serif" font-size="14.00">DATA/550:38</text>
</g>
<!-- q13:3334&#45;&gt;q13:3334 -->
<g id="edge12" class="edge">
<title>q13:3334&#45;&gt;q13:3334</title>
<path fill="none" stroke="black" d="M1665.1,-180.97C1660.9,-190.65 1668.5,-199.56 1687.8,-199.56 1699,-199.56 1706.3,-196.58 1709.6,-192.2"/>
<polygon fill="black" stroke="black" points="1713.07,-192.73 1710.38,-182.48 1706.09,-192.17 1713.07,-192.73"/>
<text text-anchor="middle" x="1687.8" y="-203.51" font-family="Times,serif" font-size="14.00">content/λ:3143</text>
</g>
<!-- q18:1 -->
<g id="node11" class="node">
<title>q18:1</title>
<ellipse fill="none" stroke="black" stroke-width="2" cx="1951.7" cy="-217.56" rx="39.63" ry="18"/>
<text text-anchor="middle" x="1951.7" y="-212.88" font-family="Times,serif" font-size="14.00">q18:1</text>
</g>
<!-- q13:3334&#45;&gt;q18:1 -->
<g id="edge13" class="edge">
<title>q13:3334&#45;&gt;q18:1</title>
<path fill="none" stroke="black" d="M1731.8,-176.27C1742.4,-179.2 1753.8,-182.15 1764.4,-184.56 1810.7,-195.07 1864.1,-204.23 1901.8,-210.22"/>
<polygon fill="black" stroke="black" points="1901.08,-213.65 1911.5,-211.74 1902.16,-206.73 1901.08,-213.65"/>
<text text-anchor="middle" x="1822.9" y="-210.51" font-family="Times,serif" font-size="14.00">content/550:1</text>
</g>
<!-- q16:125 -->
<g id="node12" class="node">
<title>q16:125</title>
<ellipse fill="none" stroke="black" stroke-width="2" cx="1951.7" cy="-163.56" rx="52.26" ry="18"/>
<text text-anchor="middle" x="1951.7" y="-158.88" font-family="Times,serif" font-size="14.00">q16:125</text>
</g>
<!-- q13:3334&#45;&gt;q16:125 -->
<g id="edge14" class="edge">
<title>q13:3334&#45;&gt;q16:125</title>
<path fill="none" stroke="black" d="M1747.3,-163.56C1788.8,-163.56 1844.6,-163.56 1887.2,-163.56"/>
<polygon fill="black" stroke="black" points="1887.09,-167.06 1897.09,-163.56 1887.09,-160.06 1887.09,-167.06"/>
<text text-anchor="middle" x="1822.9" y="-167.51" font-family="Times,serif" font-size="14.00">content/250:125</text>
</g>
<!-- q17:65 -->
<g id="node13" class="node">
<title>q17:65</title>
<ellipse fill="none" stroke="black" stroke-width="2" cx="1951.7" cy="-109.56" rx="45.95" ry="18"/>
<text text-anchor="middle" x="1951.7" y="-104.88" font-family="Times,serif" font-size="14.00">q17:65</text>
</g>
<!-- q13:3334&#45;&gt;q17:65 -->
<g id="edge15" class="edge">
<title>q13:3334&#45;&gt;q17:65</title>
<path fill="none" stroke="black" d="M1731.4,-150.79C1742.1,-147.79 1753.6,-144.77 1764.4,-142.31 1808.5,-132.26 1859.1,-123.55 1896.4,-117.64"/>
<polygon fill="black" stroke="black" points="1896.67,-121.14 1906,-116.13 1895.58,-114.22 1896.67,-121.14"/>
<text text-anchor="middle" x="1822.9" y="-145.51" font-family="Times,serif" font-size="14.00">content/554:65</text>
</g>
<!-- q20:4&#45;&gt;q14:165 -->
<g id="edge8" class="edge">
<title>q20:4&#45;&gt;q14:165</title>
<path fill="none" stroke="black" d="M1654.9,-22.54C1618.2,-11.82 1556.9,0 1510,-21.31 1487,-31.77 1468.6,-54.07 1456.6,-72.37"/>
<polygon fill="black" stroke="black" points="1453.71,-70.39 1451.4,-80.73 1459.65,-74.09 1453.71,-70.39"/>
<text text-anchor="middle" x="1560.6" y="-25.51" font-family="Times,serif" font-size="14.00">RCPT/250:4</text>
</g>
<!-- q23:1 -->
<g id="node14" class="node">
<title>q23:1</title>
<ellipse fill="none" stroke="black" stroke-width="2" cx="2192.7" cy="-217.56" rx="39.63" ry="18"/>
<text text-anchor="middle" x="2192.7" y="-212.88" font-family="Times,serif" font-size="14.00">q23:1</text>
</g>
<!-- q18:1&#45;&gt;q23:1 -->
<g id="edge16" class="edge">
<title>q18:1&#45;&gt;q23:1</title>
<path fill="none" stroke="black" d="M1992.1,-217.56C2032.8,-217.56 2096.3,-217.56 2140.7,-217.56"/>
<polygon fill="black" stroke="black" points="2140.69,-221.06 2150.69,-217.56 2140.69,-214.06 2140.69,-221.06"/>
<text text-anchor="middle" x="2072.2" y="-221.51" font-family="Times,serif" font-size="14.00">RSET/250:1</text>
</g>
<!-- q21:125 -->
<g id="node15" class="node">
<title>q21:125</title>
<ellipse fill="none" stroke="black" stroke-width="2" cx="2192.7" cy="-163.56" rx="52.26" ry="18"/>
<text text-anchor="middle" x="2192.7" y="-158.88" font-family="Times,serif" font-size="14.00">q21:125</text>
</g>
<!-- q16:125&#45;&gt;q21:125 -->
<g id="edge17" class="edge">
<title>q16:125&#45;&gt;q21:125</title>
<path fill="none" stroke="black" d="M2004.8,-163.56C2041.2,-163.56 2090,-163.56 2128.5,-163.56"/>
<polygon fill="black" stroke="black" points="2128.09,-167.06 2138.09,-163.56 2128.09,-160.06 2128.09,-167.06"/>
<text text-anchor="middle" x="2072.2" y="-167.51" font-family="Times,serif" font-size="14.00">QUIT/221:125</text>
</g>
<!-- q22:65 -->
<g id="node16" class="node">
<title>q22:65</title>
<ellipse fill="none" stroke="black" stroke-width="2" cx="2192.7" cy="-109.56" rx="45.95" ry="18"/>
<text text-anchor="middle" x="2192.7" y="-104.88" font-family="Times,serif" font-size="14.00">q22:65</text>
</g>
<!-- q17:65&#45;&gt;q22:65 -->
<g id="edge18" class="edge">
<title>q17:65&#45;&gt;q22:65</title>
<path fill="none" stroke="black" d="M1998.5,-109.56C2037.3,-109.56 2093,-109.56 2134.7,-109.56"/>
<polygon fill="black" stroke="black" points="2134.49,-113.06 2144.49,-109.56 2134.49,-106.06 2134.49,-113.06"/>
<text text-anchor="middle" x="2072.2" y="-113.51" font-family="Times,serif" font-size="14.00">RSET/250:65</text>
</g>
<!-- q0:244 -->
<g id="node17" class="node">
<title>q0:244</title>
<ellipse fill="none" stroke="black" stroke-width="2" cx="53.95" cy="-145.56" rx="49.95" ry="49.95"/>
<ellipse fill="none" stroke="black" stroke-width="2" cx="53.95" cy="-145.56" rx="53.95" ry="53.95"/>
<text text-anchor="middle" x="53.95" y="-140.88" font-family="Times,serif" font-size="14.00">q0:244</text>
</g>
<!-- q1:244 -->
<g id="node18" class="node">
<title>q1:244</title>
<ellipse fill="none" stroke="black" stroke-width="2" cx="257.84" cy="-145.56" rx="45.95" ry="18"/>
<text text-anchor="middle" x="257.84" y="-140.88" font-family="Times,serif" font-size="14.00">q1:244</text>
</g>
<!-- q0:244&#45;&gt;q1:244 -->
<g id="edge19" class="edge">
<title>q0:244&#45;&gt;q1:244</title>
<path fill="none" stroke="black" d="M104.85,-145.56C133.64,-145.56 169.94,-145.56 199.84,-145.56"/>
<polygon fill="black" stroke="black" points="199.45,-149.06 209.45,-145.56 199.45,-142.06 199.45,-149.06"/>
<text text-anchor="middle" x="157.89" y="-149.51" font-family="Times,serif" font-size="14.00">λ/220:244</text>
</g>
<!-- q1:244&#45;&gt;q2:2 -->
<g id="edge20" class="edge">
<title>q1:244&#45;&gt;q2:2</title>
<path fill="none" stroke="black" d="M296.21,-134.68C304.56,-132.59 313.43,-130.65 321.79,-129.31 363.53,-122.66 411.69,-120.09 445.85,-119.11"/>
<polygon fill="black" stroke="black" points="445.88,-122.61 455.8,-118.87 445.71,-115.61 445.88,-122.61"/>
<text text-anchor="middle" x="374.66" y="-132.51" font-family="Times,serif" font-size="14.00">EHLO/λ:2</text>
</g>
<!-- q3:242 -->
<g id="node19" class="node">
<title>q3:242</title>
<ellipse fill="none" stroke="black" stroke-width="2" cx="491.48" cy="-178.56" rx="45.95" ry="18"/>
<text text-anchor="middle" x="491.48" y="-173.88" font-family="Times,serif" font-size="14.00">q3:242</text>
</g>
<!-- q1:244&#45;&gt;q3:242 -->
<g id="edge21" class="edge">
<title>q1:244&#45;&gt;q3:242</title>
<path fill="none" stroke="black" d="M302.14,-151.73C340,-157.13 395.17,-164.98 436.02,-170.8"/>
<polygon fill="black" stroke="black" points="435.51,-174.26 445.9,-172.21 436.5,-167.33 435.51,-174.26"/>
<text text-anchor="middle" x="374.66" y="-172.51" font-family="Times,serif" font-size="14.00">EHLO/250:242</text>
</g>
<!-- q3:242&#45;&gt;q4:231 -->
<g id="edge22" class="edge">
<title>q3:242&#45;&gt;q4:231</title>
<path fill="none" stroke="black" d="M518.39,-163.16C529.48,-157.14 542.77,-150.65 555.43,-146.31 576.24,-139.19 629.15,-129.73 670.21,-122.99"/>
<polygon fill="black" stroke="black" points="670.64,-126.47 679.95,-121.4 669.51,-119.56 670.64,-126.47"/>
<text text-anchor="middle" x="608.31" y="-149.51" font-family="Times,serif" font-size="14.00">AUTH/235:229</text>
</g>
<!-- q6:1 -->
<g id="node20" class="node">
<title>q6:1</title>
<ellipse fill="none" stroke="black" stroke-width="2" cx="839.7" cy="-183.56" rx="33.32" ry="18"/>
<text text-anchor="middle" x="839.7" y="-178.88" font-family="Times,serif" font-size="14.00">q6:1</text>
</g>
<!-- q3:242&#45;&gt;q6:1 -->
<g id="edge23" class="edge">
<title>q3:242&#45;&gt;q6:1</title>
<path fill="none" stroke="black" d="M538.1,-179.22C604.79,-180.19 728.13,-181.97 794.18,-182.92"/>
<polygon fill="black" stroke="black" points="793.88,-186.42 803.93,-183.06 793.98,-179.42 793.88,-186.42"/>
<text text-anchor="middle" x="608.31" y="-184.51" font-family="Times,serif" font-size="14.00">AUTH/λ:1</text>
</g>
<!-- q5:12 -->
<g id="node21" class="node">
<title>q5:12</title>
<ellipse fill="none" stroke="black" stroke-width="2" cx="725.13" cy="-232.56" rx="39.63" ry="18"/>
<text text-anchor="middle" x="725.13" y="-227.88" font-family="Times,serif" font-size="14.00">q5:12</text>
</g>
<!-- q3:242&#45;&gt;q5:12 -->
<g id="edge24" class="edge">
<title>q3:242&#45;&gt;q5:12</title>
<path fill="none" stroke="black" d="M521.02,-193.18C531.6,-198.08 543.84,-203.16 555.43,-206.56 594.51,-218.04 640.26,-224.69 674.25,-228.39"/>
<polygon fill="black" stroke="black" points="673.49,-231.83 683.79,-229.37 674.21,-224.87 673.49,-231.83"/>
<text text-anchor="middle" x="608.31" y="-230.51" font-family="Times,serif" font-size="14.00">AUTH/535:12</text>
</g>
<!-- q6:1&#45;&gt;q10:229 -->
<g id="edge25" class="edge">
<title>q6:1&#45;&gt;q10:229</title>
<path fill="none" stroke="black" d="M873.72,-182.65C926.94,-181.02 1035,-177.06 1126.2,-169.56 1129.1,-169.33 1132,-169.07 1134.9,-168.79"/>
<polygon fill="black" stroke="black" points="1135.19,-172.28 1144.79,-167.8 1134.49,-165.31 1135.19,-172.28"/>
<text text-anchor="middle" x="954.27" y="-184.51" font-family="Times,serif" font-size="14.00">MAIL/250:1</text>
</g>
<!-- q9:12 -->
<g id="node22" class="node">
<title>q9:12</title>
<ellipse fill="none" stroke="black" stroke-width="2" cx="954.27" cy="-236.56" rx="39.63" ry="18"/>
<text text-anchor="middle" x="954.27" y="-231.88" font-family="Times,serif" font-size="14.00">q9:12</text>
</g>
<!-- q5:12&#45;&gt;q9:12 -->
<g id="edge26" class="edge">
<title>q5:12&#45;&gt;q9:12</title>
<path fill="none" stroke="black" d="M765.69,-233.26C803.6,-233.93 861,-234.94 902.32,-235.67"/>
<polygon fill="black" stroke="black" points="902.21,-239.17 912.27,-235.84 902.33,-232.17 902.21,-239.17"/>
<text text-anchor="middle" x="839.7" y="-238.51" font-family="Times,serif" font-size="14.00">AUTH/334:12</text>
</g>
<!-- q12:12 -->
<g id="node23" class="node">
<title>q12:12</title>
<ellipse fill="none" stroke="black" stroke-width="2" cx="1196.5" cy="-236.56" rx="45.95" ry="18"/>
<text text-anchor="middle" x="1196.5" y="-231.88" font-family="Times,serif" font-size="14.00">q12:12</text>
</g>
<!-- q9:12&#45;&gt;q12:12 -->
<g id="edge27" class="edge">
<title>q9:12&#45;&gt;q12:12</title>
<path fill="none" stroke="black" d="M994.67,-236.56C1033.8,-236.56 1094.1,-236.56 1138.4,-236.56"/>
<polygon fill="black" stroke="black" points="1138.39,-240.06 1148.39,-236.56 1138.39,-233.06 1138.39,-240.06"/>
<text text-anchor="middle" x="1072.2" y="-240.51" font-family="Times,serif" font-size="14.00">content/535:12</text>
</g>
<!-- q15:4 -->
<g id="node24" class="node">
<title>q15:4</title>
<ellipse fill="none" stroke="black" stroke-width="2" cx="1439.8" cy="-236.56" rx="39.63" ry="18"/>
<text text-anchor="middle" x="1439.8" y="-231.88" font-family="Times,serif" font-size="14.00">q15:4</text>
</g>
<!-- q12:12&#45;&gt;q15:4 -->
<g id="edge28" class="edge">
<title>q12:12&#45;&gt;q15:4</title>
<path fill="none" stroke="black" d="M1243.1,-236.56C1284.4,-236.56 1345.2,-236.56 1388,-236.56"/>
<polygon fill="black" stroke="black" points="1387.79,-240.06 1397.79,-236.56 1387.79,-233.06 1387.79,-240.06"/>
<text text-anchor="middle" x="1318.1" y="-240.51" font-family="Times,serif" font-size="14.00">λ/451:4</text>
</g>
</g>
</svg>
