<?xml version="1.0" encoding="UTF-8" standalone="no"?>
<!DOCTYPE svg PUBLIC "-//W3C//DTD SVG 1.1//EN"
 "http://www.w3.org/Graphics/SVG/1.1/DTD/svg11.dtd">
<!-- Generated by graphviz version 12.0.0 (20240803.0821)
 -->
<!-- Pages: 1 -->
<svg width="2482pt" height="275pt"
 viewBox="0.00 0.00 2482.05 275.25" xmlns="http://www.w3.org/2000/svg" xmlns:xlink="http://www.w3.org/1999/xlink">
<g id="graph0" class="graph" transform="scale(1 1) rotate(0) translate(4 271.25)">
<polygon fill="white" stroke="none" points="-4,4 -4,-271.25 2478.05,-271.25 2478.05,4 -4,4"/>
<!-- q0:244 -->
<g id="node1" class="node">
<title>q0:244</title>
<ellipse fill="none" stroke="black" stroke-width="2" cx="53.95" cy="-96" rx="49.95" ry="49.95"/>
<ellipse fill="none" stroke="black" stroke-width="2" cx="53.95" cy="-96" rx="53.95" ry="53.95"/>
<text text-anchor="middle" x="53.95" y="-91.33" font-family="Times,serif" font-size="14.00">q0:244</text>
</g>
<!-- q1:244 -->
<g id="node2" class="node">
<title>q1:244</title>
<ellipse fill="none" stroke="black" stroke-width="2" cx="257.84" cy="-96" rx="45.95" ry="18"/>
<text text-anchor="middle" x="257.84" y="-91.33" font-family="Times,serif" font-size="14.00">q1:244</text>
</g>
<!-- q0:244&#45;&gt;q1:244 -->
<g id="edge1" class="edge">
<title>q0:244&#45;&gt;q1:244</title>
<path fill="none" stroke="black" d="M104.85,-96C133.64,-96 169.94,-96 199.84,-96"/>
<polygon fill="black" stroke="black" points="199.45,-99.5 209.45,-96 199.45,-92.5 199.45,-99.5"/>
<text text-anchor="middle" x="157.89" y="-99.95" font-family="Times,serif" font-size="14.00">λ/220:244</text>
</g>
<!-- q2:243 -->
<g id="node3" class="node">
<title>q2:243</title>
<ellipse fill="none" stroke="black" stroke-width="2" cx="491.48" cy="-129" rx="45.95" ry="18"/>
<text text-anchor="middle" x="491.48" y="-124.33" font-family="Times,serif" font-size="14.00">q2:243</text>
</g>
<!-- q1:244&#45;&gt;q2:243 -->
<g id="edge2" class="edge">
<title>q1:244&#45;&gt;q2:243</title>
<path fill="none" stroke="black" d="M302.14,-102.17C340,-107.56 395.17,-115.42 436.02,-121.24"/>
<polygon fill="black" stroke="black" points="435.51,-124.7 445.9,-122.65 436.49,-117.77 435.51,-124.7"/>
<text text-anchor="middle" x="374.66" y="-122.95" font-family="Times,serif" font-size="14.00">EHLO/250:243</text>
</g>
<!-- q3:1 -->
<g id="node4" class="node">
<title>q3:1</title>
<ellipse fill="none" stroke="black" stroke-width="2" cx="491.48" cy="-69" rx="33.32" ry="18"/>
<text text-anchor="middle" x="491.48" y="-64.33" font-family="Times,serif" font-size="14.00">q3:1</text>
</g>
<!-- q1:244&#45;&gt;q3:1 -->
<g id="edge3" class="edge">
<title>q1:244&#45;&gt;q3:1</title>
<path fill="none" stroke="black" d="M296.21,-85.12C304.56,-83.03 313.43,-81.08 321.79,-79.75 363.53,-73.09 411.69,-70.53 445.85,-69.55"/>
<polygon fill="black" stroke="black" points="445.89,-73.05 455.8,-69.31 445.71,-66.05 445.89,-73.05"/>
<text text-anchor="middle" x="374.66" y="-83.95" font-family="Times,serif" font-size="14.00">EHLO/λ:1</text>
</g>
<!-- q5:12 -->
<g id="node5" class="node">
<title>q5:12</title>
<ellipse fill="none" stroke="black" stroke-width="2" cx="725.13" cy="-133" rx="39.63" ry="18"/>
<text text-anchor="middle" x="725.13" y="-128.32" font-family="Times,serif" font-size="14.00">q5:12</text>
</g>
<!-- q2:243&#45;&gt;q5:12 -->
<g id="edge4" class="edge">
<title>q2:243&#45;&gt;q5:12</title>
<path fill="none" stroke="black" d="M538.25,-129.79C577.13,-130.46 632.89,-131.42 673.18,-132.12"/>
<polygon fill="black" stroke="black" points="673.06,-135.62 683.12,-132.29 673.18,-128.62 673.06,-135.62"/>
<text text-anchor="middle" x="608.31" y="-134.94" font-family="Times,serif" font-size="14.00">AUTH/535:12</text>
</g>
<!-- q6:231 -->
<g id="node6" class="node">
<title>q6:231</title>
<ellipse fill="none" stroke="black" stroke-width="2" cx="725.13" cy="-66" rx="45.95" ry="18"/>
<text text-anchor="middle" x="725.13" y="-61.33" font-family="Times,serif" font-size="14.00">q6:231</text>
</g>
<!-- q2:243&#45;&gt;q6:231 -->
<g id="edge5" class="edge">
<title>q2:243&#45;&gt;q6:231</title>
<path fill="none" stroke="black" d="M527.98,-117.15C536.91,-114.29 546.49,-111.32 555.43,-108.75 594.83,-97.43 639.84,-86.11 673.46,-77.96"/>
<polygon fill="black" stroke="black" points="674.03,-81.42 682.93,-75.67 672.39,-74.61 674.03,-81.42"/>
<text text-anchor="middle" x="608.31" y="-111.95" font-family="Times,serif" font-size="14.00">AUTH/235:230</text>
</g>
<!-- q4:1 -->
<g id="node7" class="node">
<title>q4:1</title>
<ellipse fill="none" stroke="black" stroke-width="2" cx="839.7" cy="-181" rx="33.32" ry="18"/>
<text text-anchor="middle" x="839.7" y="-176.32" font-family="Times,serif" font-size="14.00">q4:1</text>
</g>
<!-- q2:243&#45;&gt;q4:1 -->
<g id="edge6" class="edge">
<title>q2:243&#45;&gt;q4:1</title>
<path fill="none" stroke="black" d="M524.37,-142.39C534.18,-146.03 545.11,-149.63 555.43,-152 638.41,-171.09 737.97,-177.62 794.23,-179.85"/>
<polygon fill="black" stroke="black" points="793.92,-183.34 804.04,-180.21 794.17,-176.35 793.92,-183.34"/>
<text text-anchor="middle" x="608.31" y="-172.94" font-family="Times,serif" font-size="14.00">AUTH/λ:1</text>
</g>
<!-- q3:1&#45;&gt;q6:231 -->
<g id="edge7" class="edge">
<title>q3:1&#45;&gt;q6:231</title>
<path fill="none" stroke="black" d="M523.05,-61.83C533.28,-59.76 544.79,-57.78 555.43,-56.75 602.21,-52.24 614.31,-53.32 661.18,-56.75 664.23,-56.97 667.35,-57.26 670.49,-57.58"/>
<polygon fill="black" stroke="black" points="670.05,-61.05 680.4,-58.75 670.88,-54.1 670.05,-61.05"/>
<text text-anchor="middle" x="608.31" y="-60.95" font-family="Times,serif" font-size="14.00">AUTH/235:1</text>
</g>
<!-- q8:12 -->
<g id="node8" class="node">
<title>q8:12</title>
<ellipse fill="none" stroke="black" stroke-width="2" cx="954.27" cy="-132" rx="39.63" ry="18"/>
<text text-anchor="middle" x="954.27" y="-127.33" font-family="Times,serif" font-size="14.00">q8:12</text>
</g>
<!-- q5:12&#45;&gt;q8:12 -->
<g id="edge8" class="edge">
<title>q5:12&#45;&gt;q8:12</title>
<path fill="none" stroke="black" d="M765.69,-132.83C803.6,-132.66 861,-132.41 902.32,-132.22"/>
<polygon fill="black" stroke="black" points="902.28,-135.72 912.27,-132.18 902.25,-128.72 902.28,-135.72"/>
<text text-anchor="middle" x="839.7" y="-135.94" font-family="Times,serif" font-size="14.00">AUTH/334:12</text>
</g>
<!-- q10:3 -->
<g id="node9" class="node">
<title>q10:3</title>
<ellipse fill="none" stroke="black" stroke-width="2" cx="954.27" cy="-18" rx="39.63" ry="18"/>
<text text-anchor="middle" x="954.27" y="-13.32" font-family="Times,serif" font-size="14.00">q10:3</text>
</g>
<!-- q6:231&#45;&gt;q10:3 -->
<g id="edge9" class="edge">
<title>q6:231&#45;&gt;q10:3</title>
<path fill="none" stroke="black" d="M761.87,-54.23C770.7,-51.56 780.18,-48.88 789.08,-46.75 827.47,-37.55 871.57,-30 904.39,-24.94"/>
<polygon fill="black" stroke="black" points="904.64,-28.44 914,-23.48 903.59,-21.52 904.64,-28.44"/>
<text text-anchor="middle" x="839.7" y="-50.95" font-family="Times,serif" font-size="14.00">MAIL/553:3</text>
</g>
<!-- q9:228 -->
<g id="node10" class="node">
<title>q9:228</title>
<ellipse fill="none" stroke="black" stroke-width="2" cx="954.27" cy="-72" rx="45.95" ry="18"/>
<text text-anchor="middle" x="954.27" y="-67.33" font-family="Times,serif" font-size="14.00">q9:228</text>
</g>
<!-- q6:231&#45;&gt;q9:228 -->
<g id="edge10" class="edge">
<title>q6:231&#45;&gt;q9:228</title>
<path fill="none" stroke="black" d="M771.82,-67.21C807.78,-68.16 858.09,-69.49 896.61,-70.5"/>
<polygon fill="black" stroke="black" points="896.05,-73.99 906.14,-70.75 896.23,-66.99 896.05,-73.99"/>
<text text-anchor="middle" x="839.7" y="-74.95" font-family="Times,serif" font-size="14.00">MAIL/250:228</text>
</g>
<!-- q7:10 -->
<g id="node11" class="node">
<title>q7:10</title>
<ellipse fill="none" stroke="black" stroke-width="2" cx="1687.8" cy="-125" rx="39.63" ry="18"/>
<text text-anchor="middle" x="1687.8" y="-120.33" font-family="Times,serif" font-size="14.00">q7:10</text>
</g>
<!-- q4:1&#45;&gt;q7:10 -->
<g id="edge11" class="edge">
<title>q4:1&#45;&gt;q7:10</title>
<path fill="none" stroke="black" d="M873.91,-181.47C918.71,-182.06 1000.98,-183 1071.2,-183 1071.2,-183 1071.2,-183 1440.8,-183 1516.8,-183 1538.7,-191.8 1611.3,-169 1627,-164.07 1642.9,-155.42 1656.1,-147.1"/>
<polygon fill="black" stroke="black" points="1657.9,-150.11 1664.33,-141.69 1654.05,-144.26 1657.9,-150.11"/>
<text text-anchor="middle" x="1196.5" y="-186.94" font-family="Times,serif" font-size="14.00">MAIL/250:1</text>
</g>
<!-- q12:12 -->
<g id="node17" class="node">
<title>q12:12</title>
<ellipse fill="none" stroke="black" stroke-width="2" cx="1196.5" cy="-129" rx="45.95" ry="18"/>
<text text-anchor="middle" x="1196.5" y="-124.33" font-family="Times,serif" font-size="14.00">q12:12</text>
</g>
<!-- q8:12&#45;&gt;q12:12 -->
<g id="edge17" class="edge">
<title>q8:12&#45;&gt;q12:12</title>
<path fill="none" stroke="black" d="M994.67,-131.51C1033.8,-131.02 1094.1,-130.27 1138.4,-129.71"/>
<polygon fill="black" stroke="black" points="1138.43,-133.21 1148.39,-129.59 1138.34,-126.21 1138.43,-133.21"/>
<text text-anchor="middle" x="1072.2" y="-134.94" font-family="Times,serif" font-size="14.00">content/535:12</text>
</g>
<!-- q14:3 -->
<g id="node18" class="node">
<title>q14:3</title>
<ellipse fill="none" stroke="black" stroke-width="2" cx="1196.5" cy="-18" rx="39.63" ry="18"/>
<text text-anchor="middle" x="1196.5" y="-13.32" font-family="Times,serif" font-size="14.00">q14:3</text>
</g>
<!-- q10:3&#45;&gt;q14:3 -->
<g id="edge18" class="edge">
<title>q10:3&#45;&gt;q14:3</title>
<path fill="none" stroke="black" d="M994.67,-18C1035.6,-18 1099.8,-18 1144.6,-18"/>
<polygon fill="black" stroke="black" points="1144.59,-21.5 1154.59,-18 1144.59,-14.5 1144.59,-21.5"/>
<text text-anchor="middle" x="1072.2" y="-21.95" font-family="Times,serif" font-size="14.00">RSET/250:3</text>
</g>
<!-- q13:228 -->
<g id="node19" class="node">
<title>q13:228</title>
<ellipse fill="none" stroke="black" stroke-width="2" cx="1196.5" cy="-72" rx="52.26" ry="18"/>
<text text-anchor="middle" x="1196.5" y="-67.33" font-family="Times,serif" font-size="14.00">q13:228</text>
</g>
<!-- q9:228&#45;&gt;q13:228 -->
<g id="edge19" class="edge">
<title>q9:228&#45;&gt;q13:228</title>
<path fill="none" stroke="black" d="M1001.02,-72C1038.1,-72 1090.8,-72 1131.9,-72"/>
<polygon fill="black" stroke="black" points="1131.69,-75.5 1141.69,-72 1131.69,-68.5 1131.69,-75.5"/>
<text text-anchor="middle" x="1072.2" y="-75.95" font-family="Times,serif" font-size="14.00">RCPT/250:228</text>
</g>
<!-- q7:10&#45;&gt;q7:10 -->
<g id="edge20" class="edge">
<title>q7:10&#45;&gt;q7:10</title>
<path fill="none" stroke="black" d="M1665.9,-140.92C1660.1,-151.15 1667.5,-161 1687.8,-161 1700.2,-161 1707.8,-157.34 1710.5,-152.17"/>
<polygon fill="black" stroke="black" points="1714.01,-152.19 1709.89,-142.43 1707.02,-152.63 1714.01,-152.19"/>
<text text-anchor="middle" x="1687.8" y="-164.94" font-family="Times,serif" font-size="14.00">RCPT/250:8</text>
</g>
<!-- q11:165 -->
<g id="node20" class="node">
<title>q11:165</title>
<ellipse fill="none" stroke="black" stroke-width="2" cx="1951.7" cy="-81" rx="52.26" ry="18"/>
<text text-anchor="middle" x="1951.7" y="-76.33" font-family="Times,serif" font-size="14.00">q11:165</text>
</g>
<!-- q7:10&#45;&gt;q11:165 -->
<g id="edge21" class="edge">
<title>q7:10&#45;&gt;q11:165</title>
<path fill="none" stroke="black" d="M1726.1,-118.74C1769.4,-111.46 1841.4,-99.36 1892.2,-90.82"/>
<polygon fill="black" stroke="black" points="1892.62,-94.3 1901.91,-89.2 1891.47,-87.4 1892.62,-94.3"/>
<text text-anchor="middle" x="1822.9" y="-114.95" font-family="Times,serif" font-size="14.00">DATA/354:2</text>
</g>
<!-- q21:3104 -->
<g id="node12" class="node">
<title>q21:3104</title>
<ellipse fill="none" stroke="black" stroke-width="2" cx="1687.8" cy="-214" rx="58.57" ry="18"/>
<text text-anchor="middle" x="1687.8" y="-209.32" font-family="Times,serif" font-size="14.00">q21:3104</text>
</g>
<!-- q21:3104&#45;&gt;q21:3104 -->
<g id="edge12" class="edge">
<title>q21:3104&#45;&gt;q21:3104</title>
<path fill="none" stroke="black" d="M1665.1,-231.41C1660.9,-241.09 1668.5,-250 1687.8,-250 1699,-250 1706.3,-247.02 1709.6,-242.64"/>
<polygon fill="black" stroke="black" points="1713.07,-243.17 1710.38,-232.92 1706.09,-242.61 1713.07,-243.17"/>
<text text-anchor="middle" x="1687.8" y="-253.94" font-family="Times,serif" font-size="14.00">content/λ:2986</text>
</g>
<!-- q23:111 -->
<g id="node13" class="node">
<title>q23:111</title>
<ellipse fill="none" stroke="black" stroke-width="2" cx="1951.7" cy="-239" rx="52.26" ry="18"/>
<text text-anchor="middle" x="1951.7" y="-234.32" font-family="Times,serif" font-size="14.00">q23:111</text>
</g>
<!-- q21:3104&#45;&gt;q23:111 -->
<g id="edge13" class="edge">
<title>q21:3104&#45;&gt;q23:111</title>
<path fill="none" stroke="black" d="M1744.7,-219.33C1787,-223.37 1845.1,-228.92 1888.9,-233.1"/>
<polygon fill="black" stroke="black" points="1888.41,-236.57 1898.69,-234.04 1889.07,-229.6 1888.41,-236.57"/>
<text text-anchor="middle" x="1822.9" y="-235.94" font-family="Times,serif" font-size="14.00">content/250:111</text>
</g>
<!-- q24:7 -->
<g id="node14" class="node">
<title>q24:7</title>
<ellipse fill="none" stroke="black" stroke-width="2" cx="1951.7" cy="-185" rx="39.63" ry="18"/>
<text text-anchor="middle" x="1951.7" y="-180.32" font-family="Times,serif" font-size="14.00">q24:7</text>
</g>
<!-- q21:3104&#45;&gt;q24:7 -->
<g id="edge14" class="edge">
<title>q21:3104&#45;&gt;q24:7</title>
<path fill="none" stroke="black" d="M1737.9,-203.96C1746.7,-202.38 1755.8,-200.9 1764.4,-199.75 1810.2,-193.64 1862.6,-189.77 1900.1,-187.53"/>
<polygon fill="black" stroke="black" points="1900,-191.04 1909.79,-186.98 1899.6,-184.05 1900,-191.04"/>
<text text-anchor="middle" x="1822.9" y="-202.94" font-family="Times,serif" font-size="14.00">content/554:7</text>
</g>
<!-- q25:111 -->
<g id="node15" class="node">
<title>q25:111</title>
<ellipse fill="none" stroke="black" stroke-width="2" cx="2200.2" cy="-239" rx="52.26" ry="18"/>
<text text-anchor="middle" x="2200.2" y="-234.32" font-family="Times,serif" font-size="14.00">q25:111</text>
</g>
<!-- q23:111&#45;&gt;q25:111 -->
<g id="edge15" class="edge">
<title>q23:111&#45;&gt;q25:111</title>
<path fill="none" stroke="black" d="M2004.6,-239C2042.9,-239 2095.1,-239 2135.9,-239"/>
<polygon fill="black" stroke="black" points="2135.79,-242.5 2145.79,-239 2135.79,-235.5 2135.79,-242.5"/>
<text text-anchor="middle" x="2075.9" y="-242.94" font-family="Times,serif" font-size="14.00">QUIT/221:111</text>
</g>
<!-- q26:7 -->
<g id="node16" class="node">
<title>q26:7</title>
<ellipse fill="none" stroke="black" stroke-width="2" cx="2200.2" cy="-185" rx="39.63" ry="18"/>
<text text-anchor="middle" x="2200.2" y="-180.32" font-family="Times,serif" font-size="14.00">q26:7</text>
</g>
<!-- q24:7&#45;&gt;q26:7 -->
<g id="edge16" class="edge">
<title>q24:7&#45;&gt;q26:7</title>
<path fill="none" stroke="black" d="M1992.3,-185C2034.7,-185 2102.1,-185 2148.4,-185"/>
<polygon fill="black" stroke="black" points="2148.19,-188.5 2158.19,-185 2148.19,-181.5 2148.19,-188.5"/>
<text text-anchor="middle" x="2075.9" y="-188.94" font-family="Times,serif" font-size="14.00">RSET/250:7</text>
</g>
<!-- q17:3 -->
<g id="node27" class="node">
<title>q17:3</title>
<ellipse fill="none" stroke="black" stroke-width="2" cx="1439.8" cy="-129" rx="39.63" ry="18"/>
<text text-anchor="middle" x="1439.8" y="-124.33" font-family="Times,serif" font-size="14.00">q17:3</text>
</g>
<!-- q12:12&#45;&gt;q17:3 -->
<g id="edge32" class="edge">
<title>q12:12&#45;&gt;q17:3</title>
<path fill="none" stroke="black" d="M1243.1,-129C1284.4,-129 1345.2,-129 1388,-129"/>
<polygon fill="black" stroke="black" points="1387.79,-132.5 1397.79,-129 1387.79,-125.5 1387.79,-132.5"/>
<text text-anchor="middle" x="1318.1" y="-132.94" font-family="Times,serif" font-size="14.00">λ/451:3</text>
</g>
<!-- q13:228&#45;&gt;q11:165 -->
<g id="edge22" class="edge">
<title>q13:228&#45;&gt;q11:165</title>
<path fill="none" stroke="black" d="M1245,-64.17C1283.3,-58.22 1338.7,-50.5 1387.5,-47 1546.6,-35.59 1587.5,-29.73 1746.4,-44 1797.6,-48.6 1855.1,-59.55 1896.1,-68.36"/>
<polygon fill="black" stroke="black" points="1895.1,-71.72 1905.62,-70.45 1896.61,-64.88 1895.1,-71.72"/>
<text text-anchor="middle" x="1560.6" y="-42.95" font-family="Times,serif" font-size="14.00">DATA/354:89</text>
</g>
<!-- q18:139 -->
<g id="node21" class="node">
<title>q18:139</title>
<ellipse fill="none" stroke="black" stroke-width="2" cx="1439.8" cy="-74" rx="52.26" ry="18"/>
<text text-anchor="middle" x="1439.8" y="-69.33" font-family="Times,serif" font-size="14.00">q18:139</text>
</g>
<!-- q13:228&#45;&gt;q18:139 -->
<g id="edge23" class="edge">
<title>q13:228&#45;&gt;q18:139</title>
<path fill="none" stroke="black" d="M1249.5,-72.43C1286.5,-72.74 1336.3,-73.15 1375.5,-73.48"/>
<polygon fill="black" stroke="black" points="1375.26,-76.97 1385.29,-73.56 1375.32,-69.97 1375.26,-76.97"/>
<text text-anchor="middle" x="1318.1" y="-77.95" font-family="Times,serif" font-size="14.00">RCPT/250:139</text>
</g>
<!-- q11:165&#45;&gt;q11:165 -->
<g id="edge24" class="edge">
<title>q11:165&#45;&gt;q11:165</title>
<path fill="none" stroke="black" d="M1929.6,-98.04C1925.2,-107.86 1932.5,-117 1951.7,-117 1962.8,-117 1969.9,-113.94 1973.1,-109.47"/>
<polygon fill="black" stroke="black" points="1976.59,-109.72 1973.62,-99.55 1969.6,-109.35 1976.59,-109.72"/>
<text text-anchor="middle" x="1951.7" y="-120.95" font-family="Times,serif" font-size="14.00">content/λ:74</text>
</g>
<!-- q16:67 -->
<g id="node22" class="node">
<title>q16:67</title>
<ellipse fill="none" stroke="black" stroke-width="2" cx="2200.2" cy="-117" rx="45.95" ry="18"/>
<text text-anchor="middle" x="2200.2" y="-112.33" font-family="Times,serif" font-size="14.00">q16:67</text>
</g>
<!-- q11:165&#45;&gt;q16:67 -->
<g id="edge25" class="edge">
<title>q11:165&#45;&gt;q16:67</title>
<path fill="none" stroke="black" d="M2001.1,-88.07C2042.4,-94.11 2101.9,-102.79 2144.9,-109.07"/>
<polygon fill="black" stroke="black" points="2144.3,-112.52 2154.7,-110.51 2145.32,-105.59 2144.3,-112.52"/>
<text text-anchor="middle" x="2075.9" y="-109.95" font-family="Times,serif" font-size="14.00">content/554:67</text>
</g>
<!-- q15:24 -->
<g id="node23" class="node">
<title>q15:24</title>
<ellipse fill="none" stroke="black" stroke-width="2" cx="2200.2" cy="-63" rx="45.95" ry="18"/>
<text text-anchor="middle" x="2200.2" y="-58.33" font-family="Times,serif" font-size="14.00">q15:24</text>
</g>
<!-- q11:165&#45;&gt;q15:24 -->
<g id="edge26" class="edge">
<title>q11:165&#45;&gt;q15:24</title>
<path fill="none" stroke="black" d="M2000.3,-73.29C2007.5,-72.31 2014.9,-71.42 2021.9,-70.75 2062,-66.92 2107.4,-64.98 2142.2,-64"/>
<polygon fill="black" stroke="black" points="2142.18,-67.5 2152.09,-63.74 2142,-60.5 2142.18,-67.5"/>
<text text-anchor="middle" x="2075.9" y="-74.95" font-family="Times,serif" font-size="14.00">content/250:24</text>
</g>
<!-- q18:139&#45;&gt;q7:10 -->
<g id="edge28" class="edge">
<title>q18:139&#45;&gt;q7:10</title>
<path fill="none" stroke="black" d="M1485.1,-83.68C1493.4,-85.47 1501.9,-87.31 1510,-89 1553.9,-98.21 1603.9,-108.37 1639.5,-115.54"/>
<polygon fill="black" stroke="black" points="1638.62,-118.93 1649.11,-117.45 1639.99,-112.07 1638.62,-118.93"/>
<text text-anchor="middle" x="1560.6" y="-112.95" font-family="Times,serif" font-size="14.00">RCPT/250:1</text>
</g>
<!-- q18:139&#45;&gt;q21:3104 -->
<g id="edge27" class="edge">
<title>q18:139&#45;&gt;q21:3104</title>
<path fill="none" stroke="black" d="M1473.2,-88.65C1479.9,-92.45 1486.5,-96.93 1492,-102 1502.6,-111.74 1499.1,-119.51 1510,-129 1554.4,-167.76 1576.1,-161.6 1629.3,-187 1633.8,-189.17 1638.6,-191.43 1643.3,-193.67"/>
<polygon fill="black" stroke="black" points="1641.69,-196.78 1652.23,-197.88 1644.67,-190.45 1641.69,-196.78"/>
<text text-anchor="middle" x="1560.6" y="-180.94" font-family="Times,serif" font-size="14.00">DATA/354:118</text>
</g>
<!-- q22:20 -->
<g id="node24" class="node">
<title>q22:20</title>
<ellipse fill="none" stroke="black" stroke-width="2" cx="1687.8" cy="-71" rx="45.95" ry="18"/>
<text text-anchor="middle" x="1687.8" y="-66.33" font-family="Times,serif" font-size="14.00">q22:20</text>
</g>
<!-- q18:139&#45;&gt;q22:20 -->
<g id="edge29" class="edge">
<title>q18:139&#45;&gt;q22:20</title>
<path fill="none" stroke="black" d="M1492.6,-72.16C1498.4,-72 1504.4,-71.85 1510,-71.75 1550,-71.02 1595.1,-70.83 1629.7,-70.83"/>
<polygon fill="black" stroke="black" points="1629.48,-74.33 1639.49,-70.84 1629.49,-67.33 1629.48,-74.33"/>
<text text-anchor="middle" x="1560.6" y="-75.95" font-family="Times,serif" font-size="14.00">DATA/550:20</text>
</g>
<!-- q20:67 -->
<g id="node25" class="node">
<title>q20:67</title>
<ellipse fill="none" stroke="black" stroke-width="2" cx="2428.1" cy="-117" rx="45.95" ry="18"/>
<text text-anchor="middle" x="2428.1" y="-112.33" font-family="Times,serif" font-size="14.00">q20:67</text>
</g>
<!-- q16:67&#45;&gt;q20:67 -->
<g id="edge30" class="edge">
<title>q16:67&#45;&gt;q20:67</title>
<path fill="none" stroke="black" d="M2246.9,-117C2282.4,-117 2331.9,-117 2370,-117"/>
<polygon fill="black" stroke="black" points="2369.99,-120.5 2379.99,-117 2369.99,-113.5 2369.99,-120.5"/>
<text text-anchor="middle" x="2317.3" y="-120.95" font-family="Times,serif" font-size="14.00">RSET/250:67</text>
</g>
<!-- q19:24 -->
<g id="node26" class="node">
<title>q19:24</title>
<ellipse fill="none" stroke="black" stroke-width="2" cx="2428.1" cy="-63" rx="45.95" ry="18"/>
<text text-anchor="middle" x="2428.1" y="-58.33" font-family="Times,serif" font-size="14.00">q19:24</text>
</g>
<!-- q15:24&#45;&gt;q19:24 -->
<g id="edge31" class="edge">
<title>q15:24&#45;&gt;q19:24</title>
<path fill="none" stroke="black" d="M2246.9,-63C2282.4,-63 2331.9,-63 2370,-63"/>
<polygon fill="black" stroke="black" points="2369.99,-66.5 2379.99,-63 2369.99,-59.5 2369.99,-66.5"/>
<text text-anchor="middle" x="2317.3" y="-66.95" font-family="Times,serif" font-size="14.00">QUIT/221:24</text>
</g>
</g>
</svg>
